<?xml version="1.0" standalone="no"?>
 <!DOCTYPE svg PUBLIC "-//W3C//DTD SVG 1.1//EN" 
 "http://www.w3.org/Graphics/SVG/1.1/DTD/svg11.dtd"> 
<svg xmlns="http://www.w3.org/2000/svg" version="1.1" 
    width="29.7002cm" height="21.0007cm" viewBox="0 0 116930 82680 ">
<title>SVG Picture created as feederFloor-F_Cu.svg date 2020/04/11 15:07:30 </title>
  <desc>Picture generated by PCBNEW </desc>
<g style="fill:#000000; fill-opacity:1;stroke:#000000; stroke-opacity:1;
stroke-linecap:round; stroke-linejoin:round; "
 transform="translate(0 0) scale(1 1)">
</g>
<g style="fill:#000000; fill-opacity:0.0; 
stroke:#000000; stroke-width:-0.000393701; stroke-opacity:1; 
stroke-linecap:round; stroke-linejoin:round;">
</g>
<g style="fill:#000000; fill-opacity:0.0; 
stroke:#000000; stroke-width:19.685; stroke-opacity:1; 
stroke-linecap:round; stroke-linejoin:round;">
<path d="M77755 24606
L77755 23622
" />
<path d="M72834 24606
L77755 24606
" />
<path d="M72834 23622
L72834 24606
" />
<circle cx="75295.3" cy="17716.5" r="590.551" /> 
<path d="M77755 10826
L72834 10826
" />
<path d="M77755 23622
L77755 10826
" />
<path d="M72834 10826
L72834 23622
" />
<g >
</g>
<g style="fill:#000000; fill-opacity:0.0; 
stroke:#000000; stroke-width:0; stroke-opacity:1; 
stroke-linecap:round; stroke-linejoin:round;">
</g>
<g style="fill:#000000; fill-opacity:1.0; 
stroke:#000000; stroke-width:0; stroke-opacity:1; 
stroke-linecap:round; stroke-linejoin:round;">
<path style="fill:#000000; fill-opacity:1.0; 
stroke:#000000; stroke-width:0; stroke-opacity:1; 
stroke-linecap:round; stroke-linejoin:round;fill-rule:evenodd;"
d="M 73568.9,11862.2
73568.9,10972.4
74068.9,10972.4
74068.9,11862.2
Z" /> 
<path style="fill:#000000; fill-opacity:1.0; 
stroke:#000000; stroke-width:0; stroke-opacity:1; 
stroke-linecap:round; stroke-linejoin:round;fill-rule:evenodd;"
d="M 74568.9,11862.2
74568.9,10972.4
75068.9,10972.4
75068.9,11862.2
Z" /> 
<path style="fill:#000000; fill-opacity:1.0; 
stroke:#000000; stroke-width:0; stroke-opacity:1; 
stroke-linecap:round; stroke-linejoin:round;fill-rule:evenodd;"
d="M 75568.9,11862.2
75568.9,10972.4
76068.9,10972.4
76068.9,11862.2
Z" /> 
<path style="fill:#000000; fill-opacity:1.0; 
stroke:#000000; stroke-width:0; stroke-opacity:1; 
stroke-linecap:round; stroke-linejoin:round;fill-rule:evenodd;"
d="M 76568.9,11862.2
76568.9,10972.4
77068.9,10972.4
77068.9,11862.2
Z" /> 
<path style="fill:#000000; fill-opacity:1.0; 
stroke:#000000; stroke-width:0; stroke-opacity:1; 
stroke-linecap:round; stroke-linejoin:round;fill-rule:evenodd;"
d="M 76568.9,14862.2
76568.9,13972.4
77068.9,13972.4
77068.9,14862.2
Z" /> 
<path style="fill:#000000; fill-opacity:1.0; 
stroke:#000000; stroke-width:0; stroke-opacity:1; 
stroke-linecap:round; stroke-linejoin:round;fill-rule:evenodd;"
d="M 75568.9,14862.2
75568.9,13972.4
76068.9,13972.4
76068.9,14862.2
Z" /> 
<path style="fill:#000000; fill-opacity:1.0; 
stroke:#000000; stroke-width:0; stroke-opacity:1; 
stroke-linecap:round; stroke-linejoin:round;fill-rule:evenodd;"
d="M 74568.9,14862.2
74568.9,13972.4
75068.9,13972.4
75068.9,14862.2
Z" /> 
<path style="fill:#000000; fill-opacity:1.0; 
stroke:#000000; stroke-width:0; stroke-opacity:1; 
stroke-linecap:round; stroke-linejoin:round;fill-rule:evenodd;"
d="M 73568.9,14862.2
73568.9,13972.4
74068.9,13972.4
74068.9,14862.2
Z" /> 
</g>
<g >
</g>
<g style="fill:#000000; fill-opacity:1.0; 
stroke:#000000; stroke-width:0; stroke-opacity:1; 
stroke-linecap:round; stroke-linejoin:round;">
<path style="fill:#000000; fill-opacity:1.0; 
stroke:#000000; stroke-width:0; stroke-opacity:1; 
stroke-linecap:round; stroke-linejoin:round;fill-rule:evenodd;"
d="M 74222.2,20925.7
74231.8,20927.1
74241.2,20929.4
74250.3,20932.7
74259,20936.8
74267.3,20941.8
74275,20947.5
74282.2,20954
74288.7,20961.2
74294.4,20968.9
74299.4,20977.2
74303.5,20986
74306.8,20995.1
74309.1,21004.4
74310.5,21014
74311,21023.6
74311,22204.7
74310.5,22214.4
74309.1,22223.9
74306.8,22233.3
74303.5,22242.4
74299.4,22251.1
74294.4,22259.4
74288.7,22267.2
74282.2,22274.3
74275,22280.8
74267.3,22286.6
74259,22291.5
74250.3,22295.7
74241.2,22298.9
74231.8,22301.3
74222.2,22302.7
74212.6,22303.1
74015.7,22303.1
74006.1,22302.7
73996.5,22301.3
73987.2,22298.9
73978.1,22295.7
73969.4,22291.5
73961.1,22286.6
73953.3,22280.8
73946.2,22274.3
73939.7,22267.2
73933.9,22259.4
73928.9,22251.1
73924.8,22242.4
73921.6,22233.3
73919.2,22223.9
73917.8,22214.4
73917.3,22204.7
73917.3,21023.6
73917.8,21014
73919.2,21004.4
73921.6,20995.1
73924.8,20986
73928.9,20977.2
73933.9,20968.9
73939.7,20961.2
73946.2,20954
73953.3,20947.5
73961.1,20941.8
73969.4,20936.8
73978.1,20932.7
73987.2,20929.4
73996.5,20927.1
74006.1,20925.7
74015.7,20925.2
74212.6,20925.2
Z" /> 
<path style="fill:#000000; fill-opacity:1.0; 
stroke:#000000; stroke-width:0; stroke-opacity:1; 
stroke-linecap:round; stroke-linejoin:round;fill-rule:evenodd;"
d="M 75009.6,20925.7
75019.2,20927.1
75028.6,20929.4
75037.7,20932.7
75046.4,20936.8
75054.7,20941.8
75062.4,20947.5
75069.6,20954
75076.1,20961.2
75081.8,20968.9
75086.8,20977.2
75090.9,20986
75094.2,20995.1
75096.5,21004.4
75098,21014
75098.4,21023.6
75098.4,22204.7
75098,22214.4
75096.5,22223.9
75094.2,22233.3
75090.9,22242.4
75086.8,22251.1
75081.8,22259.4
75076.1,22267.2
75069.6,22274.3
75062.4,22280.8
75054.7,22286.6
75046.4,22291.5
75037.7,22295.7
75028.6,22298.9
75019.2,22301.3
75009.6,22302.7
75000,22303.1
74803.1,22303.1
74793.5,22302.7
74783.9,22301.3
74774.6,22298.9
74765.5,22295.7
74756.8,22291.5
74748.5,22286.6
74740.7,22280.8
74733.6,22274.3
74727.1,22267.2
74721.3,22259.4
74716.3,22251.1
74712.2,22242.4
74709,22233.3
74706.6,22223.9
74705.2,22214.4
74704.7,22204.7
74704.7,21023.6
74705.2,21014
74706.6,21004.4
74709,20995.1
74712.2,20986
74716.3,20977.2
74721.3,20968.9
74727.1,20961.2
74733.6,20954
74740.7,20947.5
74748.5,20941.8
74756.8,20936.8
74765.5,20932.7
74774.6,20929.4
74783.9,20927.1
74793.5,20925.7
74803.1,20925.2
75000,20925.2
Z" /> 
<path style="fill:#000000; fill-opacity:1.0; 
stroke:#000000; stroke-width:0; stroke-opacity:1; 
stroke-linecap:round; stroke-linejoin:round;fill-rule:evenodd;"
d="M 75797,20925.7
75806.6,20927.1
75816,20929.4
75825.1,20932.7
75833.8,20936.8
75842.1,20941.8
75849.8,20947.5
75857,20954
75863.5,20961.2
75869.2,20968.9
75874.2,20977.2
75878.3,20986
75881.6,20995.1
75883.9,21004.4
75885.4,21014
75885.8,21023.6
75885.8,22204.7
75885.4,22214.4
75883.9,22223.9
75881.6,22233.3
75878.3,22242.4
75874.2,22251.1
75869.2,22259.4
75863.5,22267.2
75857,22274.3
75849.8,22280.8
75842.1,22286.6
75833.8,22291.5
75825.1,22295.7
75816,22298.9
75806.6,22301.3
75797,22302.7
75787.4,22303.1
75590.6,22303.1
75580.9,22302.7
75571.3,22301.3
75562,22298.9
75552.9,22295.7
75544.2,22291.5
75535.9,22286.6
75528.1,22280.8
75521,22274.3
75514.5,22267.2
75508.7,22259.4
75503.7,22251.1
75499.6,22242.4
75496.4,22233.3
75494,22223.9
75492.6,22214.4
75492.1,22204.7
75492.1,21023.6
75492.6,21014
75494,21004.4
75496.4,20995.1
75499.6,20986
75503.7,20977.2
75508.7,20968.9
75514.5,20961.2
75521,20954
75528.1,20947.5
75535.9,20941.8
75544.2,20936.8
75552.9,20932.7
75562,20929.4
75571.3,20927.1
75580.9,20925.7
75590.6,20925.2
75787.4,20925.2
Z" /> 
<path style="fill:#000000; fill-opacity:1.0; 
stroke:#000000; stroke-width:0; stroke-opacity:1; 
stroke-linecap:round; stroke-linejoin:round;fill-rule:evenodd;"
d="M 76584.5,20925.7
76594,20927.1
76603.4,20929.4
76612.5,20932.7
76621.2,20936.8
76629.5,20941.8
76637.2,20947.5
76644.4,20954
76650.9,20961.2
76656.6,20968.9
76661.6,20977.2
76665.7,20986
76669,20995.1
76671.3,21004.4
76672.8,21014
76673.2,21023.6
76673.2,22204.7
76672.8,22214.4
76671.3,22223.9
76669,22233.3
76665.7,22242.4
76661.6,22251.1
76656.6,22259.4
76650.9,22267.2
76644.4,22274.3
76637.2,22280.8
76629.5,22286.6
76621.2,22291.5
76612.5,22295.7
76603.4,22298.9
76594,22301.3
76584.5,22302.7
76574.8,22303.1
76378,22303.1
76368.3,22302.7
76358.8,22301.3
76349.4,22298.9
76340.3,22295.7
76331.6,22291.5
76323.3,22286.6
76315.5,22280.8
76308.4,22274.3
76301.9,22267.2
76296.1,22259.4
76291.1,22251.1
76287,22242.4
76283.8,22233.3
76281.4,22223.9
76280,22214.4
76279.5,22204.7
76279.5,21023.6
76280,21014
76281.4,21004.4
76283.8,20995.1
76287,20986
76291.1,20977.2
76296.1,20968.9
76301.9,20961.2
76308.4,20954
76315.5,20947.5
76323.3,20941.8
76331.6,20936.8
76340.3,20932.7
76349.4,20929.4
76358.8,20927.1
76368.3,20925.7
76378,20925.2
76574.8,20925.2
Z" /> 
<path style="fill:#000000; fill-opacity:1.0; 
stroke:#000000; stroke-width:0; stroke-opacity:1; 
stroke-linecap:round; stroke-linejoin:round;fill-rule:evenodd;"
d="M 73395.5,23209.1
73405,23210.6
73414.4,23212.9
73423.5,23216.2
73432.2,23220.3
73440.5,23225.2
73448.3,23231
73455.4,23237.5
73461.9,23244.6
73467.7,23252.4
73472.6,23260.7
73476.8,23269.4
73480,23278.5
73482.4,23287.9
73483.8,23297.4
73484.3,23307.1
73484.3,24448.8
73483.8,24458.5
73482.4,24468
73480,24477.4
73476.8,24486.5
73472.6,24495.2
73467.7,24503.5
73461.9,24511.3
73455.4,24518.4
73448.3,24524.9
73440.5,24530.7
73432.2,24535.6
73423.5,24539.8
73414.4,24543
73405,24545.4
73395.5,24546.8
73385.8,24547.2
72992.1,24547.2
72982.5,24546.8
72972.9,24545.4
72963.6,24543
72954.5,24539.8
72945.7,24535.6
72937.4,24530.7
72929.7,24524.9
72922.5,24518.4
72916,24511.3
72910.3,24503.5
72905.3,24495.2
72901.2,24486.5
72897.9,24477.4
72895.6,24468
72894.2,24458.5
72893.7,24448.8
72893.7,23307.1
72894.2,23297.4
72895.6,23287.9
72897.9,23278.5
72901.2,23269.4
72905.3,23260.7
72910.3,23252.4
72916,23244.6
72922.5,23237.5
72929.7,23231
72937.4,23225.2
72945.7,23220.3
72954.5,23216.2
72963.6,23212.9
72972.9,23210.6
72982.5,23209.1
72992.1,23208.7
73385.8,23208.7
Z" /> 
<path style="fill:#000000; fill-opacity:1.0; 
stroke:#000000; stroke-width:0; stroke-opacity:1; 
stroke-linecap:round; stroke-linejoin:round;fill-rule:evenodd;"
d="M 77608.1,23209.1
77617.6,23210.6
77627,23212.9
77636.1,23216.2
77644.8,23220.3
77653.1,23225.2
77660.9,23231
77668,23237.5
77674.5,23244.6
77680.3,23252.4
77685.2,23260.7
77689.4,23269.4
77692.6,23278.5
77695,23287.9
77696.4,23297.4
77696.9,23307.1
77696.9,24448.8
77696.4,24458.5
77695,24468
77692.6,24477.4
77689.4,24486.5
77685.2,24495.2
77680.3,24503.5
77674.5,24511.3
77668,24518.4
77660.9,24524.9
77653.1,24530.7
77644.8,24535.6
77636.1,24539.8
77627,24543
77617.6,24545.4
77608.1,24546.8
77598.4,24547.2
77204.7,24547.2
77195.1,24546.8
77185.5,24545.4
77176.2,24543
77167.1,24539.8
77158.3,24535.6
77150,24530.7
77142.3,24524.9
77135.1,24518.4
77128.6,24511.3
77122.9,24503.5
77117.9,24495.2
77113.8,24486.5
77110.5,24477.4
77108.2,24468
77106.8,24458.5
77106.3,24448.8
77106.3,23307.1
77106.8,23297.4
77108.2,23287.9
77110.5,23278.5
77113.8,23269.4
77117.9,23260.7
77122.9,23252.4
77128.6,23244.6
77135.1,23237.5
77142.3,23231
77150,23225.2
77158.3,23220.3
77167.1,23216.2
77176.2,23212.9
77185.5,23210.6
77195.1,23209.1
77204.7,23208.7
77598.4,23208.7
Z" /> 
</g>
<g >
</g>
<g >
</g>
<g style="fill:#000000; fill-opacity:1.0; 
stroke:#000000; stroke-width:0; stroke-opacity:1; 
stroke-linecap:round; stroke-linejoin:round;">
</g>
<g style="fill:#000000; fill-opacity:1.0; 
stroke:#000000; stroke-width:196.85; stroke-opacity:1; 
stroke-linecap:round; stroke-linejoin:round;">
</g>
<g style="fill:#000000; fill-opacity:0.0; 
stroke:#000000; stroke-width:196.85; stroke-opacity:1; 
stroke-linecap:round; stroke-linejoin:round;">
<path d="M73818 14909
L73818 14417
" />
<path d="M73818 11909
L73818 11417
" />
<path d="M73818 14909
L73818 11909
" />
<path d="M73818 21318
L74114 21614
" />
<path d="M73818 19980
L73818 21318
" />
<path d="M73287 19980
L73818 19980
" />
<path d="M73228 19921
L73287 19980
" />
<path d="M73372 14909
L73228 15053
" />
<path d="M73228 15053
L73228 19921
" />
<path d="M73818 14909
L73372 14909
" />
<path d="M74818 11909
L74818 14909
" />
<path d="M74803 15551
L74818 15551
" />
<path d="M74704 15649
L74803 15551
" />
<path d="M74015 15649
L74704 15649
" />
<path d="M74818 15551
L74818 14909
" />
<path d="M73720 19094
L73720 15944
" />
<path d="M73917 19291
L73720 19094
" />
<path d="M74803 19389
L74704 19291
" />
<path d="M73720 15944
L74015 15649
" />
<path d="M74704 19291
L73917 19291
" />
<path d="M74803 19980
L74803 19389
" />
<path d="M74818 14909
L74818 14417
" />
<path d="M74818 11909
L74818 11417
" />
<path d="M74901 20078
L74901 21614
" />
<path d="M74803 19980
L74901 20078
" />
<path d="M75818 11909
L75818 14909
" />
<path d="M76574 15649
L75885 15649
" />
<path d="M76968 16043
L76574 15649
" />
<path d="M76771 19291
L76968 19094
" />
<path d="M76968 19094
L76968 16043
" />
<path d="M75885 19291
L76771 19291
" />
<path d="M75818 15582
L75818 14909
" />
<path d="M75885 15649
L75818 15582
" />
<path d="M75787 19389
L75885 19291
" />
<path d="M75787 19980
L75787 19389
" />
<path d="M75818 14909
L75818 14417
" />
<path d="M75818 11909
L75818 11417
" />
<path d="M75688 20078
L75688 21614
" />
<path d="M75787 19980
L75688 20078
" />
<path d="M76818 12551
L76818 14909
" />
<path d="M76818 14909
L76818 14417
" />
<path d="M76818 11909
L76818 12059
" />
<path d="M76818 12059
L76818 11417
" />
<path d="M76818 12059
L76818 12551
" />
<path d="M76771 21318
L76476 21614
" />
<path d="M76771 19980
L76771 21318
" />
<path d="M77303 19980
L76771 19980
" />
<path d="M77265 14909
L77362 15005
" />
<path d="M77362 19921
L77303 19980
" />
<path d="M77362 15005
L77362 19921
" />
<path d="M76818 14909
L77265 14909
" />
</g>
<g >
</g>
<g style="fill:#000000; fill-opacity:0.0; 
stroke:#000000; stroke-width:196.85; stroke-opacity:1; 
stroke-linecap:round; stroke-linejoin:round;">
</g>
<g style="fill:#000000; fill-opacity:1.0; 
stroke:#000000; stroke-width:100; stroke-opacity:1; 
stroke-linecap:round; stroke-linejoin:round;">
<path style="fill:#000000; fill-opacity:1.0; 
stroke:#000000; stroke-width:100; stroke-opacity:1; 
stroke-linecap:round; stroke-linejoin:round;fill-rule:evenodd;"
d="M 77496.1,22957.5
77204.7,22957.5
77136.5,22964.2
77070.9,22984.1
77010.5,23016.4
76957.5,23059.9
76914,23112.8
76881.7,23173.3
76861.8,23238.9
76855.1,23307.1
76855.1,24346.5
73735.5,24346.5
73735.5,23307.1
73728.7,23238.9
73708.8,23173.3
73676.5,23112.8
73633.1,23059.9
73580.1,23016.4
73519.6,22984.1
73454,22964.2
73385.8,22957.5
73094.5,22957.5
73094.5,20272.3
73153.4,20303.8
73219.1,20323.7
73270.3,20328.7
73270.3,20328.7
73287.4,20330.4
73304.5,20328.7
73470.5,20328.7
73470.5,21301.8
73468.8,21318.9
73475.5,21387.2
73495.4,21452.9
73527.8,21513.4
73560.4,21553.2
73560.4,21553.2
73571.3,21566.5
73584.6,21577.4
73666.1,21658.9
73666.1,22204.7
73672.8,22272.9
73692.7,22338.5
73725,22399
73768.5,22452
73821.5,22495.4
73881.9,22527.7
73947.5,22547.6
74015.7,22554.4
74212.6,22554.4
74280.8,22547.6
74346.4,22527.7
74406.8,22495.4
74459.8,22452
74503.3,22399
74507.9,22390.4
74512.4,22399
74555.9,22452
74608.9,22495.4
74669.4,22527.7
74734.9,22547.6
74803.1,22554.4
75000,22554.4
75068.2,22547.6
75133.8,22527.7
75194.2,22495.4
75247.2,22452
75290.7,22399
75295.3,22390.4
75299.8,22399
75343.3,22452
75396.3,22495.4
75456.8,22527.7
75522.3,22547.6
75590.6,22554.4
75787.4,22554.4
75855.6,22547.6
75921.2,22527.7
75981.6,22495.4
76034.6,22452
76078.1,22399
76082.7,22390.4
76087.2,22399
76130.7,22452
76183.7,22495.4
76244.2,22527.7
76309.7,22547.6
76378,22554.4
76574.8,22554.4
76643,22547.6
76708.6,22527.7
76769,22495.4
76822,22452
76865.5,22399
76897.8,22338.5
76917.7,22272.9
76924.4,22204.7
76924.4,21658.9
77005.9,21577.4
77019.2,21566.5
77030.1,21553.2
77062.8,21513.4
77080.5,21480.2
77095.1,21452.9
77115,21387.2
77120.1,21336
77120.1,21336
77121.8,21318.9
77120.1,21301.8
77120.1,20328.7
77286,20328.7
77303.1,20330.4
77320.3,20328.7
77320.3,20328.7
77371.5,20323.7
77437.1,20303.8
77496.1,20272.3
Z" /> 
<path style="fill:#000000; fill-opacity:1.0; 
stroke:#000000; stroke-width:100; stroke-opacity:1; 
stroke-linecap:round; stroke-linejoin:round;fill-rule:evenodd;"
d="M 73900.2,19639.8
73900.2,19639.8
73917.3,19641.4
73934.4,19639.8
74454.7,19639.8
74454.7,19963.2
74453,19980.3
74454.7,19997.4
74454.7,19997.4
74456,20010.4
74459.8,20048.6
74463.7,20061.6
74479.7,20114.3
74512,20174.8
74553.1,20224.9
74553.1,20779.8
74512.4,20829.4
74507.9,20837.9
74503.3,20829.4
74459.8,20776.4
74406.8,20732.9
74346.4,20700.6
74280.8,20680.7
74212.6,20674
74167.3,20674
74167.3,19997.4
74169,19980.3
74162.3,19912
74142.4,19846.3
74110,19785.8
74066.5,19732.7
74013.4,19689.2
73952.9,19656.9
73894.8,19639.2
Z" /> 
<path style="fill:#000000; fill-opacity:1.0; 
stroke:#000000; stroke-width:100; stroke-opacity:1; 
stroke-linecap:round; stroke-linejoin:round;fill-rule:evenodd;"
d="M 76637.7,19656.9
76577.1,19689.2
76524.1,19732.7
76480.5,19785.8
76448.2,19846.3
76428.3,19912
76421.5,19980.3
76423.2,19997.4
76423.2,20674
76378,20674
76309.7,20680.7
76244.2,20700.6
76183.7,20732.9
76130.7,20776.4
76087.2,20829.4
76082.7,20837.9
76078.1,20829.4
76037.4,20779.8
76037.4,20224.9
76078.5,20174.8
76110.9,20114.3
76130.8,20048.6
76135.8,19997.4
76135.8,19997.4
76137.5,19980.3
76135.8,19963.2
76135.8,19639.8
76694,19639.8
Z" /> 
<path style="fill:#000000; fill-opacity:1.0; 
stroke:#000000; stroke-width:100; stroke-opacity:1; 
stroke-linecap:round; stroke-linejoin:round;fill-rule:evenodd;"
d="M 75322.5,14911.2
75336.8,14958.3
75360,15001.8
75391.3,15039.8
75429.3,15071.1
75470.5,15093.1
75470.5,15565.6
75468.8,15582.7
75470.5,15599.8
75470.5,15599.8
75475.5,15651
75495.4,15716.7
75527.8,15777.2
75571.3,15830.2
75584.6,15841.2
75627.3,15883.9
75638.3,15897.2
75691.3,15940.7
75751.8,15973.1
75817.5,15993
75868.7,15998
75868.7,15998
75885.8,15999.7
75902.9,15998
76430.5,15998
76620.1,16187.6
76620.1,18942.9
75902.9,18942.9
75885.8,18941.2
75868.7,18942.9
75868.7,18942.9
75817.5,18948
75751.8,18967.9
75691.3,19000.2
75638.3,19043.8
75627.3,19057.1
75553.1,19131.3
75539.8,19142.2
75528.9,19155.5
75528.9,19155.5
75496.3,19195.3
75463.9,19255.8
75444,19321.5
75437.3,19389.8
75439,19406.9
75439,19834.1
75397.9,19884.2
75365.5,19944.8
75351.9,19989.6
75345.6,20010.4
75345.6,20010.4
75340.6,20061.6
75340.6,20061.6
75338.9,20078.7
75340.6,20095.9
75340.6,20779.8
75299.8,20829.4
75295.3,20837.9
75290.7,20829.4
75250,20779.8
75250,20095.9
75251.7,20078.7
75250,20061.6
75250,20061.6
75245,20010.4
75225,19944.8
75192.7,19884.2
75151.6,19834.1
75151.6,19406.9
75153.3,19389.8
75151.6,19372.7
75151.6,19372.6
75146.5,19321.5
75126.6,19255.8
75094.3,19195.3
75050.7,19142.2
75037.4,19131.3
74963.2,19057.1
74952.3,19043.8
74899.2,19000.2
74838.7,18967.9
74773,18948
74721.8,18942.9
74721.8,18942.9
74704.7,18941.2
74687.6,18942.9
74068.9,18942.9
74068.9,17632.4
74441.1,17632.4
74441.1,17800.7
74474,17965.7
74538.4,18121.1
74631.8,18261
74750.8,18380
74890.7,18473.5
75046.1,18537.8
75211.2,18570.7
75379.4,18570.7
75544.4,18537.8
75699.9,18473.5
75839.8,18380
75958.7,18261
76052.2,18121.1
76116.6,17965.7
76149.4,17800.7
76149.4,17632.4
76116.6,17467.4
76052.2,17312
75958.7,17172.1
75839.8,17053.1
75699.9,16959.6
75544.4,16895.2
75379.4,16862.4
75211.2,16862.4
75046.1,16895.2
74890.7,16959.6
74750.8,17053.1
74631.8,17172.1
74538.4,17312
74474,17467.4
74441.1,17632.4
74068.9,17632.4
74068.9,16089.2
74160.1,15998
74687.6,15998
74704.7,15999.7
74721.8,15998
74721.8,15998
74773,15993
74838.7,15973.1
74899.2,15940.7
74952.3,15897.2
74963.2,15883.9
74994.9,15852.2
75013.4,15842.3
75066.5,15798.7
75110,15745.7
75142.4,15685.2
75162.3,15619.5
75169,15551.2
75167.3,15534.1
75167.3,15093.1
75208.5,15071.1
75246.5,15039.8
75277.8,15001.8
75301,14958.3
75315.3,14911.2
75318.9,14874.5
Z" /> 
<path style="fill:#000000; fill-opacity:1.0; 
stroke:#000000; stroke-width:100; stroke-opacity:1; 
stroke-linecap:round; stroke-linejoin:round;fill-rule:evenodd;"
d="M 73658.8,19525.6
73669.8,19538.9
73722.8,19582.4
73783.3,19614.8
73841.4,19632.4
73836,19631.9
73836,19631.9
73818.9,19630.2
73801.8,19631.9
73576.8,19631.9
73576.8,19443.5
Z" /> 
<path style="fill:#000000; fill-opacity:1.0; 
stroke:#000000; stroke-width:100; stroke-opacity:1; 
stroke-linecap:round; stroke-linejoin:round;fill-rule:evenodd;"
d="M 77013.8,19631.9
76849.3,19631.9
76905.6,19614.8
76966.2,19582.4
77013.8,19543.4
Z" /> 
<path style="fill:#000000; fill-opacity:1.0; 
stroke:#000000; stroke-width:100; stroke-opacity:1; 
stroke-linecap:round; stroke-linejoin:round;fill-rule:evenodd;"
d="M 74322.5,14911.2
74336.8,14958.3
74360,15001.8
74391.3,15039.8
74429.3,15071.1
74470.5,15093.1
74470.5,15301.2
74032.9,15301.2
74015.7,15299.5
73998.6,15301.2
73998.6,15301.2
73947.4,15306.2
73881.8,15326.1
73821.2,15358.5
73821.2,15358.5
73821.2,15358.5
73781.5,15391.1
73781.5,15391.1
73768.2,15402
73757.3,15415.3
73576.8,15595.8
73576.8,15257.9
73801.8,15257.9
73818.9,15259.6
73836,15257.9
73836,15257.9
73887.2,15252.8
73952.9,15232.9
74013.4,15200.6
74066.5,15157
74105.2,15109.8
74117.9,15108.6
74165,15094.3
74208.5,15071.1
74246.5,15039.8
74277.8,15001.8
74301,14958.3
74315.3,14911.2
74318.9,14874.5
Z" /> 
<path style="fill:#000000; fill-opacity:1.0; 
stroke:#000000; stroke-width:100; stroke-opacity:1; 
stroke-linecap:round; stroke-linejoin:round;fill-rule:evenodd;"
d="M 76322.5,14911.2
76336.8,14958.3
76360,15001.8
76391.3,15039.8
76429.3,15071.1
76472.8,15094.3
76519.9,15108.6
76532.6,15109.8
76542.1,15121.5
76571.3,15157
76624.4,15200.6
76684.9,15232.9
76750.6,15252.8
76818.9,15259.6
76836,15257.9
77013.8,15257.9
77013.8,15595.8
76833.3,15415.3
76822.4,15402
76769.3,15358.5
76708.8,15326.1
76643.1,15306.2
76591.9,15301.2
76591.9,15301.2
76574.8,15299.5
76557.7,15301.2
76167.3,15301.2
76167.3,15093.1
76208.5,15071.1
76246.5,15039.8
76277.8,15001.8
76301,14958.3
76315.3,14911.2
76318.9,14874.5
Z" /> 
<path style="fill:#000000; fill-opacity:1.0; 
stroke:#000000; stroke-width:100; stroke-opacity:1; 
stroke-linecap:round; stroke-linejoin:round;fill-rule:evenodd;"
d="M 73317.7,11862.2
73322.5,11911.2
73336.8,11958.3
73360,12001.8
73391.3,12039.8
73429.3,12071.1
73470.5,12093.1
73470.5,13741.6
73429.3,13763.6
73391.3,13794.8
73360,13832.9
73336.8,13876.3
73322.5,13923.4
73317.7,13972.4
73317.7,14564.7
73309.6,14565.5
73303.7,14566.1
73283.8,14572.1
73238.1,14586
73177.5,14618.3
73124.5,14661.9
73113.6,14675.2
73094.5,14694.3
73094.5,11086.6
73317.7,11086.6
Z" /> 
<path style="fill:#000000; fill-opacity:1.0; 
stroke:#000000; stroke-width:100; stroke-opacity:1; 
stroke-linecap:round; stroke-linejoin:round;fill-rule:evenodd;"
d="M 77496.1,14647.7
77460.3,14618.3
77399.7,14586
77334.1,14566.1
77320.1,14564.7
77320.1,13972.4
77315.3,13923.4
77301,13876.3
77277.8,13832.9
77246.5,13794.8
77208.5,13763.6
77167.3,13741.6
77167.3,12093.1
77208.5,12071.1
77246.5,12039.8
77277.8,12001.8
77301,11958.3
77315.3,11911.2
77320.1,11862.2
77320.1,11086.6
77496.1,11086.6
Z" /> 
<path style="fill:#000000; fill-opacity:1.0; 
stroke:#000000; stroke-width:100; stroke-opacity:1; 
stroke-linecap:round; stroke-linejoin:round;fill-rule:evenodd;"
d="M 74322.5,11911.2
74336.8,11958.3
74360,12001.8
74391.3,12039.8
74429.3,12071.1
74470.5,12093.1
74470.5,13741.6
74429.3,13763.6
74391.3,13794.8
74360,13832.9
74336.8,13876.3
74322.5,13923.4
74318.9,13960.2
74315.3,13923.4
74301,13876.3
74277.8,13832.9
74246.5,13794.8
74208.5,13763.6
74167.3,13741.6
74167.3,12093.1
74208.5,12071.1
74246.5,12039.8
74277.8,12001.8
74301,11958.3
74315.3,11911.2
74318.9,11874.5
Z" /> 
<path style="fill:#000000; fill-opacity:1.0; 
stroke:#000000; stroke-width:100; stroke-opacity:1; 
stroke-linecap:round; stroke-linejoin:round;fill-rule:evenodd;"
d="M 75322.5,11911.2
75336.8,11958.3
75360,12001.8
75391.3,12039.8
75429.3,12071.1
75470.5,12093.1
75470.5,13741.6
75429.3,13763.6
75391.3,13794.8
75360,13832.9
75336.8,13876.3
75322.5,13923.4
75318.9,13960.2
75315.3,13923.4
75301,13876.3
75277.8,13832.9
75246.5,13794.8
75208.5,13763.6
75167.3,13741.6
75167.3,12093.1
75208.5,12071.1
75246.5,12039.8
75277.8,12001.8
75301,11958.3
75315.3,11911.2
75318.9,11874.5
Z" /> 
<path style="fill:#000000; fill-opacity:1.0; 
stroke:#000000; stroke-width:100; stroke-opacity:1; 
stroke-linecap:round; stroke-linejoin:round;fill-rule:evenodd;"
d="M 76322.5,11911.2
76336.8,11958.3
76360,12001.8
76391.3,12039.8
76429.3,12071.1
76470.5,12093.1
76470.5,12534.1
76470.5,12534.1
76470.5,13741.6
76429.3,13763.6
76391.3,13794.8
76360,13832.9
76336.8,13876.3
76322.5,13923.4
76318.9,13960.2
76315.3,13923.4
76301,13876.3
76277.8,13832.9
76246.5,13794.8
76208.5,13763.6
76167.3,13741.6
76167.3,12093.1
76208.5,12071.1
76246.5,12039.8
76277.8,12001.8
76301,11958.3
76315.3,11911.2
76318.9,11874.5
Z" /> 
</g>
</g> 
</svg>
