M48
; DRILL file {KiCad (5.1.5)-3} date 12.05.2020 10:10:33
; FORMAT={-:-/ absolute / inch / decimal}
; #@! TF.CreationDate,2020-05-12T10:10:33+02:00
; #@! TF.GenerationSoftware,Kicad,Pcbnew,(5.1.5)-3
; #@! TF.FileFunction,Plated,1,2,PTH
FMAT,2
INCH
T1C0.0157
T2C0.0236
T3C0.0295
T4C0.0315
T5C0.0335
T6C0.0394
T7C0.0512
%
G90
G05
T1
X1.9685Y-4.1142
X2.0197Y-4.1142
X2.0709Y-4.1142
X2.126Y-4.1181
X2.1811Y-4.1181
X2.2283Y-4.1181
X2.2795Y-4.1181
X2.3268Y-4.1181
X2.5276Y-4.2795
X2.5748Y-4.2441
X2.7047Y-4.315
X2.7244Y-3.8898
X2.7244Y-4.0315
X2.8228Y-4.315
X3.0669Y-4.1181
X3.1181Y-4.1181
X3.1693Y-4.1181
X3.2165Y-4.1181
X3.2677Y-4.1181
X3.315Y-4.1181
X3.3661Y-4.1181
X3.4173Y-4.1181
X3.6299Y-4.2795
X3.6772Y-4.2441
X3.7953Y-4.315
X3.8228Y-3.8504
X3.8228Y-4.0197
X3.9016Y-4.3189
X4.1693Y-4.1102
X4.2205Y-4.1102
X4.2677Y-4.1102
X4.3189Y-4.1102
X4.3701Y-4.1102
X4.4173Y-4.1102
X4.4685Y-4.1102
X4.5197Y-4.1102
X4.6063Y-4.0945
X4.6752Y-4.0256
X4.7283Y-4.2795
X4.7756Y-4.2441
X4.9055Y-4.315
X4.9213Y-3.8386
X4.9213Y-4.0236
X4.9488Y-4.2008
X5.1693Y-4.9606
X5.1929Y-4.9213
X5.2165Y-4.8819
X5.2402Y-4.8425
X5.2638Y-4.8031
X5.2677Y-4.1142
X5.2874Y-4.7638
X5.3189Y-4.1142
X5.3701Y-4.1142
X5.4173Y-4.1142
X5.4685Y-4.1142
X5.5197Y-4.1142
X5.5709Y-4.1142
X5.6181Y-4.1142
X5.6299Y-4.563
X5.6654Y-4.5394
X5.6693Y-5.0886
X5.685Y-5.4606
X5.689Y-5.2362
X5.7008Y-4.5157
X5.7087Y-4.0945
X5.7283Y-4.3307
X5.7776Y-4.0256
X5.815Y-5.0354
X5.8169Y-5.4134
X5.8268Y-4.2795
X5.878Y-4.2441
X5.8898Y-4.3386
X5.9882Y-5.0039
X5.9921Y-4.9094
X6.0079Y-3.878
X6.0236Y-4.878
X6.0787Y-5.1496
X6.0925Y-4.6949
X6.1319Y-4.7441
X6.1772Y-4.1024
X6.185Y-4.315
T3
X5.4134Y-3.2283
X5.4921Y-3.2283
X5.5709Y-3.2283
X5.6496Y-3.2283
X4.1929Y-2.9528
X4.2717Y-2.9528
X4.3504Y-2.9528
X4.4291Y-2.9528
X6.0039Y-2.6772
X6.0827Y-2.6772
X6.1614Y-2.6772
X6.2402Y-2.6772
X6.0039Y-2.9528
X6.0827Y-2.9528
X6.1614Y-2.9528
X6.2402Y-2.9528
X4.8063Y-2.9528
X4.885Y-2.9528
X4.9638Y-2.9528
X5.0425Y-2.9528
X5.4134Y-3.5039
X5.4921Y-3.5039
X5.5709Y-3.5039
X5.6496Y-3.5039
X2.9921Y-2.6772
X3.0709Y-2.6772
X3.1496Y-2.6772
X3.2283Y-2.6772
X1.811Y-2.6772
X1.8898Y-2.6772
X1.9685Y-2.6772
X2.0472Y-2.6772
X1.811Y-3.2283
X1.8898Y-3.2283
X1.9685Y-3.2283
X2.0472Y-3.2283
X4.1929Y-3.5039
X4.2717Y-3.5039
X4.3504Y-3.5039
X4.4291Y-3.5039
X2.9921Y-3.2283
X3.0709Y-3.2283
X3.1496Y-3.2283
X3.2283Y-3.2283
X2.4016Y-3.5039
X2.4803Y-3.5039
X2.5591Y-3.5039
X2.6378Y-3.5039
X5.4134Y-2.6772
X5.4921Y-2.6772
X5.5709Y-2.6772
X5.6496Y-2.6772
X4.8063Y-2.6772
X4.885Y-2.6772
X4.9638Y-2.6772
X5.0425Y-2.6772
X3.5827Y-3.2283
X3.6614Y-3.2283
X3.7402Y-3.2283
X3.8189Y-3.2283
X2.4016Y-2.6772
X2.4803Y-2.6772
X2.5591Y-2.6772
X2.6378Y-2.6772
X2.9921Y-2.9528
X3.0709Y-2.9528
X3.1496Y-2.9528
X3.2283Y-2.9528
X2.4016Y-3.2283
X2.4803Y-3.2283
X2.5591Y-3.2283
X2.6378Y-3.2283
X6.0039Y-3.5039
X6.0827Y-3.5039
X6.1614Y-3.5039
X6.2402Y-3.5039
X3.5827Y-2.6772
X3.6614Y-2.6772
X3.7402Y-2.6772
X3.8189Y-2.6772
X3.5827Y-3.5039
X3.6614Y-3.5039
X3.7402Y-3.5039
X3.8189Y-3.5039
X3.5827Y-2.9528
X3.6614Y-2.9528
X3.7402Y-2.9528
X3.8189Y-2.9528
X2.4016Y-2.9528
X2.4803Y-2.9528
X2.5591Y-2.9528
X2.6378Y-2.9528
X1.811Y-3.5039
X1.8898Y-3.5039
X1.9685Y-3.5039
X2.0472Y-3.5039
X6.0039Y-3.2236
X6.0827Y-3.2236
X6.1614Y-3.2236
X6.2402Y-3.2236
X4.8071Y-3.5039
X4.8858Y-3.5039
X4.9646Y-3.5039
X5.0433Y-3.5039
X4.1929Y-3.2283
X4.2717Y-3.2283
X4.3504Y-3.2283
X4.4291Y-3.2283
X2.9921Y-3.5039
X3.0709Y-3.5039
X3.1496Y-3.5039
X3.2283Y-3.5039
X4.8063Y-3.2283
X4.885Y-3.2283
X4.9638Y-3.2283
X5.0425Y-3.2283
X4.1929Y-2.6772
X4.2717Y-2.6772
X4.3504Y-2.6772
X4.4291Y-2.6772
X5.4134Y-2.9528
X5.4921Y-2.9528
X5.5709Y-2.9528
X5.6496Y-2.9528
X1.811Y-2.9528
X1.8898Y-2.9528
X1.9685Y-2.9528
X2.0472Y-2.9528
T4
X2.9386Y-5.4236
X3.037Y-5.4236
X4.337Y-4.6236
X4.337Y-5.1236
X4.437Y-4.6236
X4.437Y-5.1236
X4.537Y-4.6236
X4.537Y-5.1236
X4.637Y-4.6236
X4.637Y-5.1236
X4.737Y-4.6236
X4.737Y-5.1236
X4.837Y-4.6236
X4.837Y-5.1236
X4.937Y-4.6236
X4.937Y-5.1236
X5.037Y-4.6236
X5.037Y-5.1236
X2.337Y-4.6236
X2.337Y-5.1236
X2.437Y-4.6236
X2.437Y-5.1236
X2.537Y-4.6236
X2.537Y-5.1236
X2.637Y-4.6236
X2.637Y-5.1236
X2.737Y-4.6236
X2.737Y-5.1236
X2.837Y-4.6236
X2.837Y-5.1236
X2.937Y-4.6236
X2.937Y-5.1236
X3.037Y-4.6236
X3.037Y-5.1236
X3.337Y-4.6236
X3.337Y-5.1236
X3.437Y-4.6236
X3.437Y-5.1236
X3.537Y-4.6236
X3.537Y-5.1236
X3.637Y-4.6236
X3.637Y-5.1236
X3.737Y-4.6236
X3.737Y-5.1236
X3.837Y-4.6236
X3.837Y-5.1236
X3.937Y-4.6236
X3.937Y-5.1236
X4.037Y-4.6236
X4.037Y-5.1236
X3.9386Y-5.4236
X4.037Y-5.4236
X4.9386Y-5.4236
X5.037Y-5.4236
T5
X5.5315Y-5.533
X5.7283Y-5.533
T6
X4.437Y-5.4236
X4.537Y-5.4236
X4.637Y-5.4236
X4.737Y-5.4236
X3.437Y-5.4236
X3.537Y-5.4236
X3.637Y-5.4236
X3.737Y-5.4236
X2.437Y-5.4236
X2.537Y-5.4236
X2.637Y-5.4236
X2.737Y-5.4236
X6.3878Y-4.4685
X6.3878Y-4.5685
X6.3878Y-4.6685
X6.3878Y-4.7685
X6.3878Y-4.8685
X6.3878Y-4.9685
X5.9724Y-5.3386
X5.9724Y-5.4386
X5.9724Y-5.5386
X6.0724Y-5.3386
X6.0724Y-5.4386
X6.0724Y-5.5386
T7
X1.9094Y-4.6654
X1.9094Y-4.8654
X1.9094Y-5.0654
T2
G00X5.4921Y-5.6531
M15
G01X5.4921Y-5.6255
M16
G05
G00X5.7677Y-5.6255
M15
G01X5.7677Y-5.6531
M16
G05
T0
M30
