  0
SECTION
  2
HEADER
  9
$ACADVER
  1
AC1009
  0
ENDSEC
  0
SECTION
  2
ENTITIES
  0
POLYLINE
  5
90
  8
Layer_0
  62
0
  66
1
  10
0
  20
0
  30
0
  0
VERTEX
  5
90
  8
Layer_0
  10
210
  20
592.5
  42
-0.41421356
  0
VERTEX
  5
91
  8
Layer_0
  10
217.5
  20
600
  0
VERTEX
  5
92
  8
Layer_0
  10
1192.5
  20
600
  42
-0.41421356
  0
VERTEX
  5
93
  8
Layer_0
  10
1200
  20
592.5
  0
VERTEX
  5
94
  8
Layer_0
  10
1200
  20
367.5
  42
-0.41421356
  0
VERTEX
  5
95
  8
Layer_0
  10
1192.5
  20
360
  0
VERTEX
  5
96
  8
Layer_0
  10
217.5
  20
360
  42
-0.41421356
  0
VERTEX
  5
97
  8
Layer_0
  10
210
  20
367.5
  0
VERTEX
  5
98
  8
Layer_0
  10
210
  20
592.5
  0
SEQEND
  0
CIRCLE
  5
9a
  8
Layer_0
  62
0
  10
1190
  20
590
  30
0
  40
2.8999758
  0
CIRCLE
  5
9a
  8
Layer_0
  62
0
  10
1190
  20
370
  30
0
  40
2.8999758
  0
CIRCLE
  5
9a
  8
Layer_0
  62
0
  10
220
  20
590
  30
0
  40
2.8999758
  0
CIRCLE
  5
9a
  8
Layer_0
  62
0
  10
220
  20
370
  30
0
  40
2.8999758
  0
CIRCLE
  5
9a
  8
Layer_0
  62
0
  10
1155
  20
585
  30
0
  40
1.6499755
  0
CIRCLE
  5
9a
  8
Layer_0
  62
0
  10
1125
  20
585
  30
0
  40
1.6499755
  0
CIRCLE
  5
9a
  8
Layer_0
  62
0
  10
1095
  20
585
  30
0
  40
1.6499755
  0
CIRCLE
  5
9a
  8
Layer_0
  62
0
  10
1065
  20
585
  30
0
  40
1.6499755
  0
CIRCLE
  5
9a
  8
Layer_0
  62
0
  10
1035
  20
585
  30
0
  40
1.6499755
  0
CIRCLE
  5
9a
  8
Layer_0
  62
0
  10
1005
  20
585
  30
0
  40
1.6499755
  0
CIRCLE
  5
9a
  8
Layer_0
  62
0
  10
975
  20
585
  30
0
  40
1.6499755
  0
CIRCLE
  5
9a
  8
Layer_0
  62
0
  10
945
  20
585
  30
0
  40
1.6499755
  0
CIRCLE
  5
9a
  8
Layer_0
  62
0
  10
915
  20
585
  30
0
  40
1.6499755
  0
CIRCLE
  5
9a
  8
Layer_0
  62
0
  10
885
  20
585
  30
0
  40
1.6499755
  0
CIRCLE
  5
9a
  8
Layer_0
  62
0
  10
855
  20
585
  30
0
  40
1.6499755
  0
CIRCLE
  5
9a
  8
Layer_0
  62
0
  10
825
  20
585
  30
0
  40
1.6499755
  0
CIRCLE
  5
9a
  8
Layer_0
  62
0
  10
795
  20
585
  30
0
  40
1.6499755
  0
CIRCLE
  5
9a
  8
Layer_0
  62
0
  10
765
  20
585
  30
0
  40
1.6499755
  0
CIRCLE
  5
9a
  8
Layer_0
  62
0
  10
735
  20
585
  30
0
  40
1.6499755
  0
CIRCLE
  5
9a
  8
Layer_0
  62
0
  10
675
  20
585
  30
0
  40
1.6499755
  0
CIRCLE
  5
9a
  8
Layer_0
  62
0
  10
645
  20
585
  30
0
  40
1.6499755
  0
CIRCLE
  5
9a
  8
Layer_0
  62
0
  10
615
  20
585
  30
0
  40
1.6499755
  0
CIRCLE
  5
9a
  8
Layer_0
  62
0
  10
585
  20
585
  30
0
  40
1.6499755
  0
CIRCLE
  5
9a
  8
Layer_0
  62
0
  10
555
  20
585
  30
0
  40
1.6499755
  0
CIRCLE
  5
9a
  8
Layer_0
  62
0
  10
525
  20
585
  30
0
  40
1.6499755
  0
CIRCLE
  5
9a
  8
Layer_0
  62
0
  10
495
  20
585
  30
0
  40
1.6499755
  0
CIRCLE
  5
9a
  8
Layer_0
  62
0
  10
465
  20
585
  30
0
  40
1.6499755
  0
CIRCLE
  5
9a
  8
Layer_0
  62
0
  10
435
  20
585
  30
0
  40
1.6499755
  0
CIRCLE
  5
9a
  8
Layer_0
  62
0
  10
405
  20
585
  30
0
  40
1.6499755
  0
CIRCLE
  5
9a
  8
Layer_0
  62
0
  10
375
  20
585
  30
0
  40
1.6499755
  0
CIRCLE
  5
9a
  8
Layer_0
  62
0
  10
345
  20
585
  30
0
  40
1.6499755
  0
CIRCLE
  5
9a
  8
Layer_0
  62
0
  10
315
  20
585
  30
0
  40
1.6499755
  0
CIRCLE
  5
9a
  8
Layer_0
  62
0
  10
285
  20
585
  30
0
  40
1.6499755
  0
CIRCLE
  5
9a
  8
Layer_0
  62
0
  10
255
  20
585
  30
0
  40
1.6499755
  0
CIRCLE
  5
9a
  8
Layer_0
  62
0
  10
1170
  20
570
  30
0
  40
1.6499755
  0
CIRCLE
  5
9a
  8
Layer_0
  62
0
  10
1155
  20
555
  30
0
  40
1.6499755
  0
CIRCLE
  5
9a
  8
Layer_0
  62
0
  10
1140
  20
570
  30
0
  40
1.6499755
  0
CIRCLE
  5
9a
  8
Layer_0
  62
0
  10
1125
  20
555
  30
0
  40
1.6499755
  0
CIRCLE
  5
9a
  8
Layer_0
  62
0
  10
1110
  20
570
  30
0
  40
1.6499755
  0
CIRCLE
  5
9a
  8
Layer_0
  62
0
  10
1095
  20
555
  30
0
  40
1.6499755
  0
CIRCLE
  5
9a
  8
Layer_0
  62
0
  10
1080
  20
570
  30
0
  40
1.6499755
  0
CIRCLE
  5
9a
  8
Layer_0
  62
0
  10
1065
  20
555
  30
0
  40
1.6499755
  0
CIRCLE
  5
9a
  8
Layer_0
  62
0
  10
1050
  20
570
  30
0
  40
1.6499755
  0
CIRCLE
  5
9a
  8
Layer_0
  62
0
  10
1035
  20
555
  30
0
  40
1.6499755
  0
CIRCLE
  5
9a
  8
Layer_0
  62
0
  10
1020
  20
570
  30
0
  40
1.6499755
  0
CIRCLE
  5
9a
  8
Layer_0
  62
0
  10
1005
  20
555
  30
0
  40
1.6499755
  0
CIRCLE
  5
9a
  8
Layer_0
  62
0
  10
990
  20
570
  30
0
  40
1.6499755
  0
CIRCLE
  5
9a
  8
Layer_0
  62
0
  10
975
  20
555
  30
0
  40
1.6499755
  0
CIRCLE
  5
9a
  8
Layer_0
  62
0
  10
960
  20
570
  30
0
  40
1.6499755
  0
CIRCLE
  5
9a
  8
Layer_0
  62
0
  10
945
  20
555
  30
0
  40
1.6499755
  0
CIRCLE
  5
9a
  8
Layer_0
  62
0
  10
930
  20
570
  30
0
  40
1.6499755
  0
CIRCLE
  5
9a
  8
Layer_0
  62
0
  10
915
  20
555
  30
0
  40
1.6499755
  0
CIRCLE
  5
9a
  8
Layer_0
  62
0
  10
900
  20
570
  30
0
  40
1.6499755
  0
CIRCLE
  5
9a
  8
Layer_0
  62
0
  10
885
  20
555
  30
0
  40
1.6499755
  0
CIRCLE
  5
9a
  8
Layer_0
  62
0
  10
870
  20
570
  30
0
  40
1.6499755
  0
CIRCLE
  5
9a
  8
Layer_0
  62
0
  10
855
  20
555
  30
0
  40
1.6499755
  0
CIRCLE
  5
9a
  8
Layer_0
  62
0
  10
840
  20
570
  30
0
  40
1.6499755
  0
CIRCLE
  5
9a
  8
Layer_0
  62
0
  10
825
  20
555
  30
0
  40
1.6499755
  0
CIRCLE
  5
9a
  8
Layer_0
  62
0
  10
810
  20
570
  30
0
  40
1.6499755
  0
CIRCLE
  5
9a
  8
Layer_0
  62
0
  10
795
  20
555
  30
0
  40
1.6499755
  0
CIRCLE
  5
9a
  8
Layer_0
  62
0
  10
780
  20
570
  30
0
  40
1.6499755
  0
CIRCLE
  5
9a
  8
Layer_0
  62
0
  10
765
  20
555
  30
0
  40
1.6499755
  0
CIRCLE
  5
9a
  8
Layer_0
  62
0
  10
750
  20
570
  30
0
  40
1.6499755
  0
CIRCLE
  5
9a
  8
Layer_0
  62
0
  10
735
  20
555
  30
0
  40
1.6499755
  0
CIRCLE
  5
9a
  8
Layer_0
  62
0
  10
720
  20
570
  30
0
  40
1.6499755
  0
CIRCLE
  5
9a
  8
Layer_0
  62
0
  10
705
  20
555
  30
0
  40
1.6499755
  0
CIRCLE
  5
9a
  8
Layer_0
  62
0
  10
690
  20
570
  30
0
  40
1.6499755
  0
CIRCLE
  5
9a
  8
Layer_0
  62
0
  10
675
  20
555
  30
0
  40
1.6499755
  0
CIRCLE
  5
9a
  8
Layer_0
  62
0
  10
660
  20
570
  30
0
  40
1.6499755
  0
CIRCLE
  5
9a
  8
Layer_0
  62
0
  10
645
  20
555
  30
0
  40
1.6499755
  0
CIRCLE
  5
9a
  8
Layer_0
  62
0
  10
630
  20
570
  30
0
  40
1.6499755
  0
CIRCLE
  5
9a
  8
Layer_0
  62
0
  10
615
  20
555
  30
0
  40
1.6499755
  0
CIRCLE
  5
9a
  8
Layer_0
  62
0
  10
600
  20
570
  30
0
  40
1.6499755
  0
CIRCLE
  5
9a
  8
Layer_0
  62
0
  10
585
  20
555
  30
0
  40
1.6499755
  0
CIRCLE
  5
9a
  8
Layer_0
  62
0
  10
570
  20
570
  30
0
  40
1.6499755
  0
CIRCLE
  5
9a
  8
Layer_0
  62
0
  10
555
  20
555
  30
0
  40
1.6499755
  0
CIRCLE
  5
9a
  8
Layer_0
  62
0
  10
540
  20
570
  30
0
  40
1.6499755
  0
CIRCLE
  5
9a
  8
Layer_0
  62
0
  10
525
  20
555
  30
0
  40
1.6499755
  0
CIRCLE
  5
9a
  8
Layer_0
  62
0
  10
510
  20
570
  30
0
  40
1.6499755
  0
CIRCLE
  5
9a
  8
Layer_0
  62
0
  10
495
  20
555
  30
0
  40
1.6499755
  0
CIRCLE
  5
9a
  8
Layer_0
  62
0
  10
480
  20
570
  30
0
  40
1.6499755
  0
CIRCLE
  5
9a
  8
Layer_0
  62
0
  10
465
  20
555
  30
0
  40
1.6499755
  0
CIRCLE
  5
9a
  8
Layer_0
  62
0
  10
450
  20
570
  30
0
  40
1.6499755
  0
CIRCLE
  5
9a
  8
Layer_0
  62
0
  10
435
  20
555
  30
0
  40
1.6499755
  0
CIRCLE
  5
9a
  8
Layer_0
  62
0
  10
420
  20
570
  30
0
  40
1.6499755
  0
CIRCLE
  5
9a
  8
Layer_0
  62
0
  10
405
  20
555
  30
0
  40
1.6499755
  0
CIRCLE
  5
9a
  8
Layer_0
  62
0
  10
390
  20
570
  30
0
  40
1.6499755
  0
CIRCLE
  5
9a
  8
Layer_0
  62
0
  10
375
  20
555
  30
0
  40
1.6499755
  0
CIRCLE
  5
9a
  8
Layer_0
  62
0
  10
360
  20
570
  30
0
  40
1.6499755
  0
CIRCLE
  5
9a
  8
Layer_0
  62
0
  10
345
  20
555
  30
0
  40
1.6499755
  0
CIRCLE
  5
9a
  8
Layer_0
  62
0
  10
330
  20
570
  30
0
  40
1.6499755
  0
CIRCLE
  5
9a
  8
Layer_0
  62
0
  10
315
  20
555
  30
0
  40
1.6499755
  0
CIRCLE
  5
9a
  8
Layer_0
  62
0
  10
300
  20
570
  30
0
  40
1.6499755
  0
CIRCLE
  5
9a
  8
Layer_0
  62
0
  10
285
  20
555
  30
0
  40
1.6499755
  0
CIRCLE
  5
9a
  8
Layer_0
  62
0
  10
270
  20
570
  30
0
  40
1.6499755
  0
CIRCLE
  5
9a
  8
Layer_0
  62
0
  10
255
  20
555
  30
0
  40
1.6499755
  0
CIRCLE
  5
9a
  8
Layer_0
  62
0
  10
240
  20
570
  30
0
  40
1.6499755
  0
CIRCLE
  5
9a
  8
Layer_0
  62
0
  10
1170
  20
540
  30
0
  40
1.6499755
  0
CIRCLE
  5
9a
  8
Layer_0
  62
0
  10
1155
  20
525
  30
0
  40
1.6499755
  0
CIRCLE
  5
9a
  8
Layer_0
  62
0
  10
1140
  20
540
  30
0
  40
1.6499755
  0
CIRCLE
  5
9a
  8
Layer_0
  62
0
  10
1125
  20
525
  30
0
  40
1.6499755
  0
CIRCLE
  5
9a
  8
Layer_0
  62
0
  10
1110
  20
540
  30
0
  40
1.6499755
  0
CIRCLE
  5
9a
  8
Layer_0
  62
0
  10
1095
  20
525
  30
0
  40
1.6499755
  0
CIRCLE
  5
9a
  8
Layer_0
  62
0
  10
1080
  20
540
  30
0
  40
1.6499755
  0
CIRCLE
  5
9a
  8
Layer_0
  62
0
  10
1065
  20
525
  30
0
  40
1.6499755
  0
CIRCLE
  5
9a
  8
Layer_0
  62
0
  10
1050
  20
540
  30
0
  40
1.6499755
  0
CIRCLE
  5
9a
  8
Layer_0
  62
0
  10
1035
  20
525
  30
0
  40
1.6499755
  0
CIRCLE
  5
9a
  8
Layer_0
  62
0
  10
1020
  20
540
  30
0
  40
1.6499755
  0
CIRCLE
  5
9a
  8
Layer_0
  62
0
  10
1005
  20
525
  30
0
  40
1.6499755
  0
CIRCLE
  5
9a
  8
Layer_0
  62
0
  10
990
  20
540
  30
0
  40
1.6499755
  0
CIRCLE
  5
9a
  8
Layer_0
  62
0
  10
975
  20
525
  30
0
  40
1.6499755
  0
CIRCLE
  5
9a
  8
Layer_0
  62
0
  10
960
  20
540
  30
0
  40
1.6499755
  0
CIRCLE
  5
9a
  8
Layer_0
  62
0
  10
945
  20
525
  30
0
  40
1.6499755
  0
CIRCLE
  5
9a
  8
Layer_0
  62
0
  10
930
  20
540
  30
0
  40
1.6499755
  0
CIRCLE
  5
9a
  8
Layer_0
  62
0
  10
915
  20
525
  30
0
  40
1.6499755
  0
CIRCLE
  5
9a
  8
Layer_0
  62
0
  10
900
  20
540
  30
0
  40
1.6499755
  0
CIRCLE
  5
9a
  8
Layer_0
  62
0
  10
885
  20
525
  30
0
  40
1.6499755
  0
CIRCLE
  5
9a
  8
Layer_0
  62
0
  10
870
  20
540
  30
0
  40
1.6499755
  0
CIRCLE
  5
9a
  8
Layer_0
  62
0
  10
855
  20
525
  30
0
  40
1.6499755
  0
CIRCLE
  5
9a
  8
Layer_0
  62
0
  10
840
  20
540
  30
0
  40
1.6499755
  0
CIRCLE
  5
9a
  8
Layer_0
  62
0
  10
825
  20
525
  30
0
  40
1.6499755
  0
CIRCLE
  5
9a
  8
Layer_0
  62
0
  10
810
  20
540
  30
0
  40
1.6499755
  0
CIRCLE
  5
9a
  8
Layer_0
  62
0
  10
795
  20
525
  30
0
  40
1.6499755
  0
CIRCLE
  5
9a
  8
Layer_0
  62
0
  10
780
  20
540
  30
0
  40
1.6499755
  0
CIRCLE
  5
9a
  8
Layer_0
  62
0
  10
765
  20
525
  30
0
  40
1.6499755
  0
CIRCLE
  5
9a
  8
Layer_0
  62
0
  10
750
  20
540
  30
0
  40
1.6499755
  0
CIRCLE
  5
9a
  8
Layer_0
  62
0
  10
735
  20
525
  30
0
  40
1.6499755
  0
CIRCLE
  5
9a
  8
Layer_0
  62
0
  10
720
  20
540
  30
0
  40
1.6499755
  0
CIRCLE
  5
9a
  8
Layer_0
  62
0
  10
705
  20
525
  30
0
  40
1.6499755
  0
CIRCLE
  5
9a
  8
Layer_0
  62
0
  10
690
  20
540
  30
0
  40
1.6499755
  0
CIRCLE
  5
9a
  8
Layer_0
  62
0
  10
675
  20
525
  30
0
  40
1.6499755
  0
CIRCLE
  5
9a
  8
Layer_0
  62
0
  10
660
  20
540
  30
0
  40
1.6499755
  0
CIRCLE
  5
9a
  8
Layer_0
  62
0
  10
645
  20
525
  30
0
  40
1.6499755
  0
CIRCLE
  5
9a
  8
Layer_0
  62
0
  10
630
  20
540
  30
0
  40
1.6499755
  0
CIRCLE
  5
9a
  8
Layer_0
  62
0
  10
615
  20
525
  30
0
  40
1.6499755
  0
CIRCLE
  5
9a
  8
Layer_0
  62
0
  10
600
  20
540
  30
0
  40
1.6499755
  0
CIRCLE
  5
9a
  8
Layer_0
  62
0
  10
585
  20
525
  30
0
  40
1.6499755
  0
CIRCLE
  5
9a
  8
Layer_0
  62
0
  10
570
  20
540
  30
0
  40
1.6499755
  0
CIRCLE
  5
9a
  8
Layer_0
  62
0
  10
555
  20
525
  30
0
  40
1.6499755
  0
CIRCLE
  5
9a
  8
Layer_0
  62
0
  10
540
  20
540
  30
0
  40
1.6499755
  0
CIRCLE
  5
9a
  8
Layer_0
  62
0
  10
525
  20
525
  30
0
  40
1.6499755
  0
CIRCLE
  5
9a
  8
Layer_0
  62
0
  10
510
  20
540
  30
0
  40
1.6499755
  0
CIRCLE
  5
9a
  8
Layer_0
  62
0
  10
495
  20
525
  30
0
  40
1.6499755
  0
CIRCLE
  5
9a
  8
Layer_0
  62
0
  10
480
  20
540
  30
0
  40
1.6499755
  0
CIRCLE
  5
9a
  8
Layer_0
  62
0
  10
465
  20
525
  30
0
  40
1.6499755
  0
CIRCLE
  5
9a
  8
Layer_0
  62
0
  10
450
  20
540
  30
0
  40
1.6499755
  0
CIRCLE
  5
9a
  8
Layer_0
  62
0
  10
435
  20
525
  30
0
  40
1.6499755
  0
CIRCLE
  5
9a
  8
Layer_0
  62
0
  10
420
  20
540
  30
0
  40
1.6499755
  0
CIRCLE
  5
9a
  8
Layer_0
  62
0
  10
405
  20
525
  30
0
  40
1.6499755
  0
CIRCLE
  5
9a
  8
Layer_0
  62
0
  10
390
  20
540
  30
0
  40
1.6499755
  0
CIRCLE
  5
9a
  8
Layer_0
  62
0
  10
375
  20
525
  30
0
  40
1.6499755
  0
CIRCLE
  5
9a
  8
Layer_0
  62
0
  10
360
  20
540
  30
0
  40
1.6499755
  0
CIRCLE
  5
9a
  8
Layer_0
  62
0
  10
345
  20
525
  30
0
  40
1.6499755
  0
CIRCLE
  5
9a
  8
Layer_0
  62
0
  10
330
  20
540
  30
0
  40
1.6499755
  0
CIRCLE
  5
9a
  8
Layer_0
  62
0
  10
315
  20
525
  30
0
  40
1.6499755
  0
CIRCLE
  5
9a
  8
Layer_0
  62
0
  10
300
  20
540
  30
0
  40
1.6499755
  0
CIRCLE
  5
9a
  8
Layer_0
  62
0
  10
285
  20
525
  30
0
  40
1.6499755
  0
CIRCLE
  5
9a
  8
Layer_0
  62
0
  10
270
  20
540
  30
0
  40
1.6499755
  0
CIRCLE
  5
9a
  8
Layer_0
  62
0
  10
255
  20
525
  30
0
  40
1.6499755
  0
CIRCLE
  5
9a
  8
Layer_0
  62
0
  10
240
  20
540
  30
0
  40
1.6499755
  0
CIRCLE
  5
9a
  8
Layer_0
  62
0
  10
1170
  20
510
  30
0
  40
1.6499755
  0
CIRCLE
  5
9a
  8
Layer_0
  62
0
  10
1155
  20
495
  30
0
  40
1.6499755
  0
CIRCLE
  5
9a
  8
Layer_0
  62
0
  10
1140
  20
510
  30
0
  40
1.6499755
  0
CIRCLE
  5
9a
  8
Layer_0
  62
0
  10
1125
  20
495
  30
0
  40
1.6499755
  0
CIRCLE
  5
9a
  8
Layer_0
  62
0
  10
1110
  20
510
  30
0
  40
1.6499755
  0
CIRCLE
  5
9a
  8
Layer_0
  62
0
  10
1095
  20
495
  30
0
  40
1.6499755
  0
CIRCLE
  5
9a
  8
Layer_0
  62
0
  10
1080
  20
510
  30
0
  40
1.6499755
  0
CIRCLE
  5
9a
  8
Layer_0
  62
0
  10
1065
  20
495
  30
0
  40
1.6499755
  0
CIRCLE
  5
9a
  8
Layer_0
  62
0
  10
1050
  20
510
  30
0
  40
1.6499755
  0
CIRCLE
  5
9a
  8
Layer_0
  62
0
  10
1035
  20
495
  30
0
  40
1.6499755
  0
CIRCLE
  5
9a
  8
Layer_0
  62
0
  10
1020
  20
510
  30
0
  40
1.6499755
  0
CIRCLE
  5
9a
  8
Layer_0
  62
0
  10
1005
  20
495
  30
0
  40
1.6499755
  0
CIRCLE
  5
9a
  8
Layer_0
  62
0
  10
990
  20
510
  30
0
  40
1.6499755
  0
CIRCLE
  5
9a
  8
Layer_0
  62
0
  10
975
  20
495
  30
0
  40
1.6499755
  0
CIRCLE
  5
9a
  8
Layer_0
  62
0
  10
960
  20
510
  30
0
  40
1.6499755
  0
CIRCLE
  5
9a
  8
Layer_0
  62
0
  10
945
  20
495
  30
0
  40
1.6499755
  0
CIRCLE
  5
9a
  8
Layer_0
  62
0
  10
930
  20
510
  30
0
  40
1.6499755
  0
CIRCLE
  5
9a
  8
Layer_0
  62
0
  10
915
  20
495
  30
0
  40
1.6499755
  0
CIRCLE
  5
9a
  8
Layer_0
  62
0
  10
900
  20
510
  30
0
  40
1.6499755
  0
CIRCLE
  5
9a
  8
Layer_0
  62
0
  10
885
  20
495
  30
0
  40
1.6499755
  0
CIRCLE
  5
9a
  8
Layer_0
  62
0
  10
870
  20
510
  30
0
  40
1.6499755
  0
CIRCLE
  5
9a
  8
Layer_0
  62
0
  10
855
  20
495
  30
0
  40
1.6499755
  0
CIRCLE
  5
9a
  8
Layer_0
  62
0
  10
840
  20
510
  30
0
  40
1.6499755
  0
CIRCLE
  5
9a
  8
Layer_0
  62
0
  10
825
  20
495
  30
0
  40
1.6499755
  0
CIRCLE
  5
9a
  8
Layer_0
  62
0
  10
810
  20
510
  30
0
  40
1.6499755
  0
CIRCLE
  5
9a
  8
Layer_0
  62
0
  10
795
  20
495
  30
0
  40
1.6499755
  0
CIRCLE
  5
9a
  8
Layer_0
  62
0
  10
780
  20
510
  30
0
  40
1.6499755
  0
CIRCLE
  5
9a
  8
Layer_0
  62
0
  10
765
  20
495
  30
0
  40
1.6499755
  0
CIRCLE
  5
9a
  8
Layer_0
  62
0
  10
750
  20
510
  30
0
  40
1.6499755
  0
CIRCLE
  5
9a
  8
Layer_0
  62
0
  10
735
  20
495
  30
0
  40
1.6499755
  0
CIRCLE
  5
9a
  8
Layer_0
  62
0
  10
720
  20
510
  30
0
  40
1.6499755
  0
CIRCLE
  5
9a
  8
Layer_0
  62
0
  10
705
  20
495
  30
0
  40
1.6499755
  0
CIRCLE
  5
9a
  8
Layer_0
  62
0
  10
690
  20
510
  30
0
  40
1.6499755
  0
CIRCLE
  5
9a
  8
Layer_0
  62
0
  10
675
  20
495
  30
0
  40
1.6499755
  0
CIRCLE
  5
9a
  8
Layer_0
  62
0
  10
660
  20
510
  30
0
  40
1.6499755
  0
CIRCLE
  5
9a
  8
Layer_0
  62
0
  10
645
  20
495
  30
0
  40
1.6499755
  0
CIRCLE
  5
9a
  8
Layer_0
  62
0
  10
630
  20
510
  30
0
  40
1.6499755
  0
CIRCLE
  5
9a
  8
Layer_0
  62
0
  10
615
  20
495
  30
0
  40
1.6499755
  0
CIRCLE
  5
9a
  8
Layer_0
  62
0
  10
600
  20
510
  30
0
  40
1.6499755
  0
CIRCLE
  5
9a
  8
Layer_0
  62
0
  10
585
  20
495
  30
0
  40
1.6499755
  0
CIRCLE
  5
9a
  8
Layer_0
  62
0
  10
570
  20
510
  30
0
  40
1.6499755
  0
CIRCLE
  5
9a
  8
Layer_0
  62
0
  10
555
  20
495
  30
0
  40
1.6499755
  0
CIRCLE
  5
9a
  8
Layer_0
  62
0
  10
540
  20
510
  30
0
  40
1.6499755
  0
CIRCLE
  5
9a
  8
Layer_0
  62
0
  10
525
  20
495
  30
0
  40
1.6499755
  0
CIRCLE
  5
9a
  8
Layer_0
  62
0
  10
510
  20
510
  30
0
  40
1.6499755
  0
CIRCLE
  5
9a
  8
Layer_0
  62
0
  10
495
  20
495
  30
0
  40
1.6499755
  0
CIRCLE
  5
9a
  8
Layer_0
  62
0
  10
480
  20
510
  30
0
  40
1.6499755
  0
CIRCLE
  5
9a
  8
Layer_0
  62
0
  10
465
  20
495
  30
0
  40
1.6499755
  0
CIRCLE
  5
9a
  8
Layer_0
  62
0
  10
450
  20
510
  30
0
  40
1.6499755
  0
CIRCLE
  5
9a
  8
Layer_0
  62
0
  10
435
  20
495
  30
0
  40
1.6499755
  0
CIRCLE
  5
9a
  8
Layer_0
  62
0
  10
420
  20
510
  30
0
  40
1.6499755
  0
CIRCLE
  5
9a
  8
Layer_0
  62
0
  10
405
  20
495
  30
0
  40
1.6499755
  0
CIRCLE
  5
9a
  8
Layer_0
  62
0
  10
390
  20
510
  30
0
  40
1.6499755
  0
CIRCLE
  5
9a
  8
Layer_0
  62
0
  10
375
  20
495
  30
0
  40
1.6499755
  0
CIRCLE
  5
9a
  8
Layer_0
  62
0
  10
360
  20
510
  30
0
  40
1.6499755
  0
CIRCLE
  5
9a
  8
Layer_0
  62
0
  10
345
  20
495
  30
0
  40
1.6499755
  0
CIRCLE
  5
9a
  8
Layer_0
  62
0
  10
330
  20
510
  30
0
  40
1.6499755
  0
CIRCLE
  5
9a
  8
Layer_0
  62
0
  10
315
  20
495
  30
0
  40
1.6499755
  0
CIRCLE
  5
9a
  8
Layer_0
  62
0
  10
300
  20
510
  30
0
  40
1.6499755
  0
CIRCLE
  5
9a
  8
Layer_0
  62
0
  10
285
  20
495
  30
0
  40
1.6499755
  0
CIRCLE
  5
9a
  8
Layer_0
  62
0
  10
270
  20
510
  30
0
  40
1.6499755
  0
CIRCLE
  5
9a
  8
Layer_0
  62
0
  10
255
  20
495
  30
0
  40
1.6499755
  0
CIRCLE
  5
9a
  8
Layer_0
  62
0
  10
240
  20
510
  30
0
  40
1.6499755
  0
CIRCLE
  5
9a
  8
Layer_0
  62
0
  10
1170
  20
480
  30
0
  40
1.6499755
  0
CIRCLE
  5
9a
  8
Layer_0
  62
0
  10
1155
  20
465
  30
0
  40
1.6499755
  0
CIRCLE
  5
9a
  8
Layer_0
  62
0
  10
1140
  20
480
  30
0
  40
1.6499755
  0
CIRCLE
  5
9a
  8
Layer_0
  62
0
  10
1125
  20
465
  30
0
  40
1.6499755
  0
CIRCLE
  5
9a
  8
Layer_0
  62
0
  10
1110
  20
480
  30
0
  40
1.6499755
  0
CIRCLE
  5
9a
  8
Layer_0
  62
0
  10
1095
  20
465
  30
0
  40
1.6499755
  0
CIRCLE
  5
9a
  8
Layer_0
  62
0
  10
1080
  20
480
  30
0
  40
1.6499755
  0
CIRCLE
  5
9a
  8
Layer_0
  62
0
  10
1065
  20
465
  30
0
  40
1.6499755
  0
CIRCLE
  5
9a
  8
Layer_0
  62
0
  10
1050
  20
480
  30
0
  40
1.6499755
  0
CIRCLE
  5
9a
  8
Layer_0
  62
0
  10
1035
  20
465
  30
0
  40
1.6499755
  0
CIRCLE
  5
9a
  8
Layer_0
  62
0
  10
1020
  20
480
  30
0
  40
1.6499755
  0
CIRCLE
  5
9a
  8
Layer_0
  62
0
  10
1005
  20
465
  30
0
  40
1.6499755
  0
CIRCLE
  5
9a
  8
Layer_0
  62
0
  10
990
  20
480
  30
0
  40
1.6499755
  0
CIRCLE
  5
9a
  8
Layer_0
  62
0
  10
975
  20
465
  30
0
  40
1.6499755
  0
CIRCLE
  5
9a
  8
Layer_0
  62
0
  10
960
  20
480
  30
0
  40
1.6499755
  0
CIRCLE
  5
9a
  8
Layer_0
  62
0
  10
945
  20
465
  30
0
  40
1.6499755
  0
CIRCLE
  5
9a
  8
Layer_0
  62
0
  10
930
  20
480
  30
0
  40
1.6499755
  0
CIRCLE
  5
9a
  8
Layer_0
  62
0
  10
915
  20
465
  30
0
  40
1.6499755
  0
CIRCLE
  5
9a
  8
Layer_0
  62
0
  10
900
  20
480
  30
0
  40
1.6499755
  0
CIRCLE
  5
9a
  8
Layer_0
  62
0
  10
885
  20
465
  30
0
  40
1.6499755
  0
CIRCLE
  5
9a
  8
Layer_0
  62
0
  10
870
  20
480
  30
0
  40
1.6499755
  0
CIRCLE
  5
9a
  8
Layer_0
  62
0
  10
855
  20
465
  30
0
  40
1.6499755
  0
CIRCLE
  5
9a
  8
Layer_0
  62
0
  10
840
  20
480
  30
0
  40
1.6499755
  0
CIRCLE
  5
9a
  8
Layer_0
  62
0
  10
825
  20
465
  30
0
  40
1.6499755
  0
CIRCLE
  5
9a
  8
Layer_0
  62
0
  10
810
  20
480
  30
0
  40
1.6499755
  0
CIRCLE
  5
9a
  8
Layer_0
  62
0
  10
795
  20
465
  30
0
  40
1.6499755
  0
CIRCLE
  5
9a
  8
Layer_0
  62
0
  10
780
  20
480
  30
0
  40
1.6499755
  0
CIRCLE
  5
9a
  8
Layer_0
  62
0
  10
765
  20
465
  30
0
  40
1.6499755
  0
CIRCLE
  5
9a
  8
Layer_0
  62
0
  10
750
  20
480
  30
0
  40
1.6499755
  0
CIRCLE
  5
9a
  8
Layer_0
  62
0
  10
735
  20
465
  30
0
  40
1.6499755
  0
CIRCLE
  5
9a
  8
Layer_0
  62
0
  10
720
  20
480
  30
0
  40
1.6499755
  0
CIRCLE
  5
9a
  8
Layer_0
  62
0
  10
705
  20
465
  30
0
  40
1.6499755
  0
CIRCLE
  5
9a
  8
Layer_0
  62
0
  10
690
  20
480
  30
0
  40
1.6499755
  0
CIRCLE
  5
9a
  8
Layer_0
  62
0
  10
675
  20
465
  30
0
  40
1.6499755
  0
CIRCLE
  5
9a
  8
Layer_0
  62
0
  10
660
  20
480
  30
0
  40
1.6499755
  0
CIRCLE
  5
9a
  8
Layer_0
  62
0
  10
645
  20
465
  30
0
  40
1.6499755
  0
CIRCLE
  5
9a
  8
Layer_0
  62
0
  10
630
  20
480
  30
0
  40
1.6499755
  0
CIRCLE
  5
9a
  8
Layer_0
  62
0
  10
615
  20
465
  30
0
  40
1.6499755
  0
CIRCLE
  5
9a
  8
Layer_0
  62
0
  10
600
  20
480
  30
0
  40
1.6499755
  0
CIRCLE
  5
9a
  8
Layer_0
  62
0
  10
585
  20
465
  30
0
  40
1.6499755
  0
CIRCLE
  5
9a
  8
Layer_0
  62
0
  10
570
  20
480
  30
0
  40
1.6499755
  0
CIRCLE
  5
9a
  8
Layer_0
  62
0
  10
555
  20
465
  30
0
  40
1.6499755
  0
CIRCLE
  5
9a
  8
Layer_0
  62
0
  10
540
  20
480
  30
0
  40
1.6499755
  0
CIRCLE
  5
9a
  8
Layer_0
  62
0
  10
525
  20
465
  30
0
  40
1.6499755
  0
CIRCLE
  5
9a
  8
Layer_0
  62
0
  10
510
  20
480
  30
0
  40
1.6499755
  0
CIRCLE
  5
9a
  8
Layer_0
  62
0
  10
495
  20
465
  30
0
  40
1.6499755
  0
CIRCLE
  5
9a
  8
Layer_0
  62
0
  10
480
  20
480
  30
0
  40
1.6499755
  0
CIRCLE
  5
9a
  8
Layer_0
  62
0
  10
465
  20
465
  30
0
  40
1.6499755
  0
CIRCLE
  5
9a
  8
Layer_0
  62
0
  10
450
  20
480
  30
0
  40
1.6499755
  0
CIRCLE
  5
9a
  8
Layer_0
  62
0
  10
435
  20
465
  30
0
  40
1.6499755
  0
CIRCLE
  5
9a
  8
Layer_0
  62
0
  10
420
  20
480
  30
0
  40
1.6499755
  0
CIRCLE
  5
9a
  8
Layer_0
  62
0
  10
405
  20
465
  30
0
  40
1.6499755
  0
CIRCLE
  5
9a
  8
Layer_0
  62
0
  10
390
  20
480
  30
0
  40
1.6499755
  0
CIRCLE
  5
9a
  8
Layer_0
  62
0
  10
375
  20
465
  30
0
  40
1.6499755
  0
CIRCLE
  5
9a
  8
Layer_0
  62
0
  10
360
  20
480
  30
0
  40
1.6499755
  0
CIRCLE
  5
9a
  8
Layer_0
  62
0
  10
345
  20
465
  30
0
  40
1.6499755
  0
CIRCLE
  5
9a
  8
Layer_0
  62
0
  10
330
  20
480
  30
0
  40
1.6499755
  0
CIRCLE
  5
9a
  8
Layer_0
  62
0
  10
315
  20
465
  30
0
  40
1.6499755
  0
CIRCLE
  5
9a
  8
Layer_0
  62
0
  10
300
  20
480
  30
0
  40
1.6499755
  0
CIRCLE
  5
9a
  8
Layer_0
  62
0
  10
285
  20
465
  30
0
  40
1.6499755
  0
CIRCLE
  5
9a
  8
Layer_0
  62
0
  10
270
  20
480
  30
0
  40
1.6499755
  0
CIRCLE
  5
9a
  8
Layer_0
  62
0
  10
255
  20
465
  30
0
  40
1.6499755
  0
CIRCLE
  5
9a
  8
Layer_0
  62
0
  10
240
  20
480
  30
0
  40
1.6499755
  0
CIRCLE
  5
9a
  8
Layer_0
  62
0
  10
1170
  20
450
  30
0
  40
1.6499755
  0
CIRCLE
  5
9a
  8
Layer_0
  62
0
  10
1155
  20
435
  30
0
  40
1.6499755
  0
CIRCLE
  5
9a
  8
Layer_0
  62
0
  10
1140
  20
450
  30
0
  40
1.6499755
  0
CIRCLE
  5
9a
  8
Layer_0
  62
0
  10
1125
  20
435
  30
0
  40
1.6499755
  0
CIRCLE
  5
9a
  8
Layer_0
  62
0
  10
1110
  20
450
  30
0
  40
1.6499755
  0
CIRCLE
  5
9a
  8
Layer_0
  62
0
  10
1095
  20
435
  30
0
  40
1.6499755
  0
CIRCLE
  5
9a
  8
Layer_0
  62
0
  10
1080
  20
450
  30
0
  40
1.6499755
  0
CIRCLE
  5
9a
  8
Layer_0
  62
0
  10
1065
  20
435
  30
0
  40
1.6499755
  0
CIRCLE
  5
9a
  8
Layer_0
  62
0
  10
1050
  20
450
  30
0
  40
1.6499755
  0
CIRCLE
  5
9a
  8
Layer_0
  62
0
  10
1035
  20
435
  30
0
  40
1.6499755
  0
CIRCLE
  5
9a
  8
Layer_0
  62
0
  10
1020
  20
450
  30
0
  40
1.6499755
  0
CIRCLE
  5
9a
  8
Layer_0
  62
0
  10
1005
  20
435
  30
0
  40
1.6499755
  0
CIRCLE
  5
9a
  8
Layer_0
  62
0
  10
990
  20
450
  30
0
  40
1.6499755
  0
CIRCLE
  5
9a
  8
Layer_0
  62
0
  10
975
  20
435
  30
0
  40
1.6499755
  0
CIRCLE
  5
9a
  8
Layer_0
  62
0
  10
960
  20
450
  30
0
  40
1.6499755
  0
CIRCLE
  5
9a
  8
Layer_0
  62
0
  10
945
  20
435
  30
0
  40
1.6499755
  0
CIRCLE
  5
9a
  8
Layer_0
  62
0
  10
930
  20
450
  30
0
  40
1.6499755
  0
CIRCLE
  5
9a
  8
Layer_0
  62
0
  10
915
  20
435
  30
0
  40
1.6499755
  0
CIRCLE
  5
9a
  8
Layer_0
  62
0
  10
900
  20
450
  30
0
  40
1.6499755
  0
CIRCLE
  5
9a
  8
Layer_0
  62
0
  10
885
  20
435
  30
0
  40
1.6499755
  0
CIRCLE
  5
9a
  8
Layer_0
  62
0
  10
870
  20
450
  30
0
  40
1.6499755
  0
CIRCLE
  5
9a
  8
Layer_0
  62
0
  10
855
  20
435
  30
0
  40
1.6499755
  0
CIRCLE
  5
9a
  8
Layer_0
  62
0
  10
840
  20
450
  30
0
  40
1.6499755
  0
CIRCLE
  5
9a
  8
Layer_0
  62
0
  10
825
  20
435
  30
0
  40
1.6499755
  0
CIRCLE
  5
9a
  8
Layer_0
  62
0
  10
810
  20
450
  30
0
  40
1.6499755
  0
CIRCLE
  5
9a
  8
Layer_0
  62
0
  10
795
  20
435
  30
0
  40
1.6499755
  0
CIRCLE
  5
9a
  8
Layer_0
  62
0
  10
780
  20
450
  30
0
  40
1.6499755
  0
CIRCLE
  5
9a
  8
Layer_0
  62
0
  10
765
  20
435
  30
0
  40
1.6499755
  0
CIRCLE
  5
9a
  8
Layer_0
  62
0
  10
750
  20
450
  30
0
  40
1.6499755
  0
CIRCLE
  5
9a
  8
Layer_0
  62
0
  10
735
  20
435
  30
0
  40
1.6499755
  0
CIRCLE
  5
9a
  8
Layer_0
  62
0
  10
720
  20
450
  30
0
  40
1.6499755
  0
CIRCLE
  5
9a
  8
Layer_0
  62
0
  10
705
  20
435
  30
0
  40
1.6499755
  0
CIRCLE
  5
9a
  8
Layer_0
  62
0
  10
690
  20
450
  30
0
  40
1.6499755
  0
CIRCLE
  5
9a
  8
Layer_0
  62
0
  10
675
  20
435
  30
0
  40
1.6499755
  0
CIRCLE
  5
9a
  8
Layer_0
  62
0
  10
660
  20
450
  30
0
  40
1.6499755
  0
CIRCLE
  5
9a
  8
Layer_0
  62
0
  10
645
  20
435
  30
0
  40
1.6499755
  0
CIRCLE
  5
9a
  8
Layer_0
  62
0
  10
630
  20
450
  30
0
  40
1.6499755
  0
CIRCLE
  5
9a
  8
Layer_0
  62
0
  10
615
  20
435
  30
0
  40
1.6499755
  0
CIRCLE
  5
9a
  8
Layer_0
  62
0
  10
600
  20
450
  30
0
  40
1.6499755
  0
CIRCLE
  5
9a
  8
Layer_0
  62
0
  10
585
  20
435
  30
0
  40
1.6499755
  0
CIRCLE
  5
9a
  8
Layer_0
  62
0
  10
570
  20
450
  30
0
  40
1.6499755
  0
CIRCLE
  5
9a
  8
Layer_0
  62
0
  10
555
  20
435
  30
0
  40
1.6499755
  0
CIRCLE
  5
9a
  8
Layer_0
  62
0
  10
540
  20
450
  30
0
  40
1.6499755
  0
CIRCLE
  5
9a
  8
Layer_0
  62
0
  10
525
  20
435
  30
0
  40
1.6499755
  0
CIRCLE
  5
9a
  8
Layer_0
  62
0
  10
510
  20
450
  30
0
  40
1.6499755
  0
CIRCLE
  5
9a
  8
Layer_0
  62
0
  10
495
  20
435
  30
0
  40
1.6499755
  0
CIRCLE
  5
9a
  8
Layer_0
  62
0
  10
480
  20
450
  30
0
  40
1.6499755
  0
CIRCLE
  5
9a
  8
Layer_0
  62
0
  10
465
  20
435
  30
0
  40
1.6499755
  0
CIRCLE
  5
9a
  8
Layer_0
  62
0
  10
450
  20
450
  30
0
  40
1.6499755
  0
CIRCLE
  5
9a
  8
Layer_0
  62
0
  10
435
  20
435
  30
0
  40
1.6499755
  0
CIRCLE
  5
9a
  8
Layer_0
  62
0
  10
420
  20
450
  30
0
  40
1.6499755
  0
CIRCLE
  5
9a
  8
Layer_0
  62
0
  10
405
  20
435
  30
0
  40
1.6499755
  0
CIRCLE
  5
9a
  8
Layer_0
  62
0
  10
390
  20
450
  30
0
  40
1.6499755
  0
CIRCLE
  5
9a
  8
Layer_0
  62
0
  10
375
  20
435
  30
0
  40
1.6499755
  0
CIRCLE
  5
9a
  8
Layer_0
  62
0
  10
360
  20
450
  30
0
  40
1.6499755
  0
CIRCLE
  5
9a
  8
Layer_0
  62
0
  10
345
  20
435
  30
0
  40
1.6499755
  0
CIRCLE
  5
9a
  8
Layer_0
  62
0
  10
330
  20
450
  30
0
  40
1.6499755
  0
CIRCLE
  5
9a
  8
Layer_0
  62
0
  10
315
  20
435
  30
0
  40
1.6499755
  0
CIRCLE
  5
9a
  8
Layer_0
  62
0
  10
300
  20
450
  30
0
  40
1.6499755
  0
CIRCLE
  5
9a
  8
Layer_0
  62
0
  10
285
  20
435
  30
0
  40
1.6499755
  0
CIRCLE
  5
9a
  8
Layer_0
  62
0
  10
270
  20
450
  30
0
  40
1.6499755
  0
CIRCLE
  5
9a
  8
Layer_0
  62
0
  10
255
  20
435
  30
0
  40
1.6499755
  0
CIRCLE
  5
9a
  8
Layer_0
  62
0
  10
240
  20
450
  30
0
  40
1.6499755
  0
CIRCLE
  5
9a
  8
Layer_0
  62
0
  10
1170
  20
420
  30
0
  40
1.6499755
  0
CIRCLE
  5
9a
  8
Layer_0
  62
0
  10
1155
  20
405
  30
0
  40
1.6499755
  0
CIRCLE
  5
9a
  8
Layer_0
  62
0
  10
1140
  20
420
  30
0
  40
1.6499755
  0
CIRCLE
  5
9a
  8
Layer_0
  62
0
  10
1125
  20
405
  30
0
  40
1.6499755
  0
CIRCLE
  5
9a
  8
Layer_0
  62
0
  10
1110
  20
420
  30
0
  40
1.6499755
  0
CIRCLE
  5
9a
  8
Layer_0
  62
0
  10
1095
  20
405
  30
0
  40
1.6499755
  0
CIRCLE
  5
9a
  8
Layer_0
  62
0
  10
1080
  20
420
  30
0
  40
1.6499755
  0
CIRCLE
  5
9a
  8
Layer_0
  62
0
  10
1065
  20
405
  30
0
  40
1.6499755
  0
CIRCLE
  5
9a
  8
Layer_0
  62
0
  10
1050
  20
420
  30
0
  40
1.6499755
  0
CIRCLE
  5
9a
  8
Layer_0
  62
0
  10
1035
  20
405
  30
0
  40
1.6499755
  0
CIRCLE
  5
9a
  8
Layer_0
  62
0
  10
1020
  20
420
  30
0
  40
1.6499755
  0
CIRCLE
  5
9a
  8
Layer_0
  62
0
  10
1005
  20
405
  30
0
  40
1.6499755
  0
CIRCLE
  5
9a
  8
Layer_0
  62
0
  10
990
  20
420
  30
0
  40
1.6499755
  0
CIRCLE
  5
9a
  8
Layer_0
  62
0
  10
975
  20
405
  30
0
  40
1.6499755
  0
CIRCLE
  5
9a
  8
Layer_0
  62
0
  10
960
  20
420
  30
0
  40
1.6499755
  0
CIRCLE
  5
9a
  8
Layer_0
  62
0
  10
945
  20
405
  30
0
  40
1.6499755
  0
CIRCLE
  5
9a
  8
Layer_0
  62
0
  10
930
  20
420
  30
0
  40
1.6499755
  0
CIRCLE
  5
9a
  8
Layer_0
  62
0
  10
915
  20
405
  30
0
  40
1.6499755
  0
CIRCLE
  5
9a
  8
Layer_0
  62
0
  10
900
  20
420
  30
0
  40
1.6499755
  0
CIRCLE
  5
9a
  8
Layer_0
  62
0
  10
885
  20
405
  30
0
  40
1.6499755
  0
CIRCLE
  5
9a
  8
Layer_0
  62
0
  10
870
  20
420
  30
0
  40
1.6499755
  0
CIRCLE
  5
9a
  8
Layer_0
  62
0
  10
855
  20
405
  30
0
  40
1.6499755
  0
CIRCLE
  5
9a
  8
Layer_0
  62
0
  10
840
  20
420
  30
0
  40
1.6499755
  0
CIRCLE
  5
9a
  8
Layer_0
  62
0
  10
825
  20
405
  30
0
  40
1.6499755
  0
CIRCLE
  5
9a
  8
Layer_0
  62
0
  10
810
  20
420
  30
0
  40
1.6499755
  0
CIRCLE
  5
9a
  8
Layer_0
  62
0
  10
795
  20
405
  30
0
  40
1.6499755
  0
CIRCLE
  5
9a
  8
Layer_0
  62
0
  10
780
  20
420
  30
0
  40
1.6499755
  0
CIRCLE
  5
9a
  8
Layer_0
  62
0
  10
765
  20
405
  30
0
  40
1.6499755
  0
CIRCLE
  5
9a
  8
Layer_0
  62
0
  10
750
  20
420
  30
0
  40
1.6499755
  0
CIRCLE
  5
9a
  8
Layer_0
  62
0
  10
735
  20
405
  30
0
  40
1.6499755
  0
CIRCLE
  5
9a
  8
Layer_0
  62
0
  10
675
  20
405
  30
0
  40
1.6499755
  0
CIRCLE
  5
9a
  8
Layer_0
  62
0
  10
660
  20
420
  30
0
  40
1.6499755
  0
CIRCLE
  5
9a
  8
Layer_0
  62
0
  10
645
  20
405
  30
0
  40
1.6499755
  0
CIRCLE
  5
9a
  8
Layer_0
  62
0
  10
630
  20
420
  30
0
  40
1.6499755
  0
CIRCLE
  5
9a
  8
Layer_0
  62
0
  10
615
  20
405
  30
0
  40
1.6499755
  0
CIRCLE
  5
9a
  8
Layer_0
  62
0
  10
600
  20
420
  30
0
  40
1.6499755
  0
CIRCLE
  5
9a
  8
Layer_0
  62
0
  10
585
  20
405
  30
0
  40
1.6499755
  0
CIRCLE
  5
9a
  8
Layer_0
  62
0
  10
570
  20
420
  30
0
  40
1.6499755
  0
CIRCLE
  5
9a
  8
Layer_0
  62
0
  10
555
  20
405
  30
0
  40
1.6499755
  0
CIRCLE
  5
9a
  8
Layer_0
  62
0
  10
540
  20
420
  30
0
  40
1.6499755
  0
CIRCLE
  5
9a
  8
Layer_0
  62
0
  10
525
  20
405
  30
0
  40
1.6499755
  0
CIRCLE
  5
9a
  8
Layer_0
  62
0
  10
510
  20
420
  30
0
  40
1.6499755
  0
CIRCLE
  5
9a
  8
Layer_0
  62
0
  10
495
  20
405
  30
0
  40
1.6499755
  0
CIRCLE
  5
9a
  8
Layer_0
  62
0
  10
480
  20
420
  30
0
  40
1.6499755
  0
CIRCLE
  5
9a
  8
Layer_0
  62
0
  10
465
  20
405
  30
0
  40
1.6499755
  0
CIRCLE
  5
9a
  8
Layer_0
  62
0
  10
450
  20
420
  30
0
  40
1.6499755
  0
CIRCLE
  5
9a
  8
Layer_0
  62
0
  10
435
  20
405
  30
0
  40
1.6499755
  0
CIRCLE
  5
9a
  8
Layer_0
  62
0
  10
420
  20
420
  30
0
  40
1.6499755
  0
CIRCLE
  5
9a
  8
Layer_0
  62
0
  10
405
  20
405
  30
0
  40
1.6499755
  0
CIRCLE
  5
9a
  8
Layer_0
  62
0
  10
390
  20
420
  30
0
  40
1.6499755
  0
CIRCLE
  5
9a
  8
Layer_0
  62
0
  10
375
  20
405
  30
0
  40
1.6499755
  0
CIRCLE
  5
9a
  8
Layer_0
  62
0
  10
360
  20
420
  30
0
  40
1.6499755
  0
CIRCLE
  5
9a
  8
Layer_0
  62
0
  10
345
  20
405
  30
0
  40
1.6499755
  0
CIRCLE
  5
9a
  8
Layer_0
  62
0
  10
285
  20
405
  30
0
  40
1.649976
  0
CIRCLE
  5
9a
  8
Layer_0
  62
0
  10
255
  20
405
  30
0
  40
1.6499755
  0
CIRCLE
  5
9a
  8
Layer_0
  62
0
  10
240
  20
420
  30
0
  40
1.6499755
  0
CIRCLE
  5
9a
  8
Layer_0
  62
0
  10
1170
  20
390
  30
0
  40
1.6499755
  0
CIRCLE
  5
9a
  8
Layer_0
  62
0
  10
1155
  20
375
  30
0
  40
1.6499755
  0
CIRCLE
  5
9a
  8
Layer_0
  62
0
  10
1140
  20
390
  30
0
  40
1.6499755
  0
CIRCLE
  5
9a
  8
Layer_0
  62
0
  10
1125
  20
375
  30
0
  40
1.6499755
  0
CIRCLE
  5
9a
  8
Layer_0
  62
0
  10
1110
  20
390
  30
0
  40
1.6499755
  0
CIRCLE
  5
9a
  8
Layer_0
  62
0
  10
1095
  20
375
  30
0
  40
1.6499755
  0
CIRCLE
  5
9a
  8
Layer_0
  62
0
  10
1080
  20
390
  30
0
  40
1.6499755
  0
CIRCLE
  5
9a
  8
Layer_0
  62
0
  10
1065
  20
375
  30
0
  40
1.6499755
  0
CIRCLE
  5
9a
  8
Layer_0
  62
0
  10
1050
  20
390
  30
0
  40
1.6499755
  0
CIRCLE
  5
9a
  8
Layer_0
  62
0
  10
1035
  20
375
  30
0
  40
1.6499755
  0
CIRCLE
  5
9a
  8
Layer_0
  62
0
  10
1020
  20
390
  30
0
  40
1.6499755
  0
CIRCLE
  5
9a
  8
Layer_0
  62
0
  10
1005
  20
375
  30
0
  40
1.6499755
  0
CIRCLE
  5
9a
  8
Layer_0
  62
0
  10
990
  20
390
  30
0
  40
1.6499755
  0
CIRCLE
  5
9a
  8
Layer_0
  62
0
  10
975
  20
375
  30
0
  40
1.6499755
  0
CIRCLE
  5
9a
  8
Layer_0
  62
0
  10
960
  20
390
  30
0
  40
1.6499755
  0
CIRCLE
  5
9a
  8
Layer_0
  62
0
  10
945
  20
375
  30
0
  40
1.6499755
  0
CIRCLE
  5
9a
  8
Layer_0
  62
0
  10
930
  20
390
  30
0
  40
1.6499755
  0
CIRCLE
  5
9a
  8
Layer_0
  62
0
  10
915
  20
375
  30
0
  40
1.6499755
  0
CIRCLE
  5
9a
  8
Layer_0
  62
0
  10
900
  20
390
  30
0
  40
1.6499755
  0
CIRCLE
  5
9a
  8
Layer_0
  62
0
  10
885
  20
375
  30
0
  40
1.6499755
  0
CIRCLE
  5
9a
  8
Layer_0
  62
0
  10
870
  20
390
  30
0
  40
1.6499755
  0
CIRCLE
  5
9a
  8
Layer_0
  62
0
  10
855
  20
375
  30
0
  40
1.6499755
  0
CIRCLE
  5
9a
  8
Layer_0
  62
0
  10
840
  20
390
  30
0
  40
1.6499755
  0
CIRCLE
  5
9a
  8
Layer_0
  62
0
  10
825
  20
375
  30
0
  40
1.6499755
  0
CIRCLE
  5
9a
  8
Layer_0
  62
0
  10
810
  20
390
  30
0
  40
1.6499755
  0
CIRCLE
  5
9a
  8
Layer_0
  62
0
  10
795
  20
375
  30
0
  40
1.6499755
  0
CIRCLE
  5
9a
  8
Layer_0
  62
0
  10
780
  20
390
  30
0
  40
1.6499755
  0
CIRCLE
  5
9a
  8
Layer_0
  62
0
  10
765
  20
375
  30
0
  40
1.6499755
  0
CIRCLE
  5
9a
  8
Layer_0
  62
0
  10
750
  20
390
  30
0
  40
1.6499755
  0
CIRCLE
  5
9a
  8
Layer_0
  62
0
  10
735
  20
375
  30
0
  40
1.6499755
  0
CIRCLE
  5
9a
  8
Layer_0
  62
0
  10
675
  20
375
  30
0
  40
1.6499755
  0
CIRCLE
  5
9a
  8
Layer_0
  62
0
  10
660
  20
390
  30
0
  40
1.6499755
  0
CIRCLE
  5
9a
  8
Layer_0
  62
0
  10
645
  20
375
  30
0
  40
1.6499755
  0
CIRCLE
  5
9a
  8
Layer_0
  62
0
  10
630
  20
390
  30
0
  40
1.6499755
  0
CIRCLE
  5
9a
  8
Layer_0
  62
0
  10
615
  20
375
  30
0
  40
1.6499755
  0
CIRCLE
  5
9a
  8
Layer_0
  62
0
  10
600
  20
390
  30
0
  40
1.6499755
  0
CIRCLE
  5
9a
  8
Layer_0
  62
0
  10
585
  20
375
  30
0
  40
1.6499755
  0
CIRCLE
  5
9a
  8
Layer_0
  62
0
  10
570
  20
390
  30
0
  40
1.6499755
  0
CIRCLE
  5
9a
  8
Layer_0
  62
0
  10
555
  20
375
  30
0
  40
1.6499755
  0
CIRCLE
  5
9a
  8
Layer_0
  62
0
  10
540
  20
390
  30
0
  40
1.6499755
  0
CIRCLE
  5
9a
  8
Layer_0
  62
0
  10
525
  20
375
  30
0
  40
1.6499755
  0
CIRCLE
  5
9a
  8
Layer_0
  62
0
  10
510
  20
390
  30
0
  40
1.6499755
  0
CIRCLE
  5
9a
  8
Layer_0
  62
0
  10
495
  20
375
  30
0
  40
1.6499755
  0
CIRCLE
  5
9a
  8
Layer_0
  62
0
  10
480
  20
390
  30
0
  40
1.6499755
  0
CIRCLE
  5
9a
  8
Layer_0
  62
0
  10
465
  20
375
  30
0
  40
1.6499755
  0
CIRCLE
  5
9a
  8
Layer_0
  62
0
  10
450
  20
390
  30
0
  40
1.6499755
  0
CIRCLE
  5
9a
  8
Layer_0
  62
0
  10
435
  20
375
  30
0
  40
1.6499755
  0
CIRCLE
  5
9a
  8
Layer_0
  62
0
  10
420
  20
390
  30
0
  40
1.6499755
  0
CIRCLE
  5
9a
  8
Layer_0
  62
0
  10
405
  20
375
  30
0
  40
1.6499755
  0
CIRCLE
  5
9a
  8
Layer_0
  62
0
  10
390
  20
390
  30
0
  40
1.6499755
  0
CIRCLE
  5
9a
  8
Layer_0
  62
0
  10
375
  20
375
  30
0
  40
1.6499755
  0
CIRCLE
  5
9a
  8
Layer_0
  62
0
  10
360
  20
390
  30
0
  40
1.6499755
  0
CIRCLE
  5
9a
  8
Layer_0
  62
0
  10
345
  20
375
  30
0
  40
1.6499755
  0
CIRCLE
  5
9a
  8
Layer_0
  62
0
  10
315
  20
375
  30
0
  40
1.6499755
  0
CIRCLE
  5
9a
  8
Layer_0
  62
0
  10
285
  20
375
  30
0
  40
1.6499755
  0
CIRCLE
  5
9a
  8
Layer_0
  62
0
  10
255
  20
375
  30
0
  40
1.6499755
  0
CIRCLE
  5
9a
  8
Layer_0
  62
0
  10
240
  20
390
  30
0
  40
1.6499755
  0
CIRCLE
  5
9a
  8
Layer_0
  62
0
  10
705
  20
370
  30
0
  40
2.9000063
  0
CIRCLE
  5
9a
  8
Layer_0
  62
0
  10
705
  20
590
  30
0
  40
2.9000063
  0
CIRCLE
  5
9a
  8
Layer_0
  62
0
  10
220
  20
480
  30
0
  40
2.8999758
  0
CIRCLE
  5
9a
  8
Layer_0
  62
0
  10
1190
  20
480
  30
0
  40
2.8999758
  0
CIRCLE
  5
9a
  8
Layer_0
  62
0
  10
270
  20
420
  30
0
  40
1.6499755
  0
POLYLINE
  5
9a
  8
Layer_0
  62
0
  66
1
  10
0
  20
0
  30
0
  0
VERTEX
  5
9a
  8
Layer_0
  10
706.24976
  20
424.87402
  42
0.29719494
  0
VERTEX
  5
9b
  8
Layer_0
  10
705.99609
  20
424.43994
  0
VERTEX
  5
9c
  8
Layer_0
  10
705.99609
  20
423.97388
  0
VERTEX
  5
9d
  8
Layer_0
  10
705.97778
  20
423.97534
  42
0.025287156
  0
VERTEX
  5
9e
  8
Layer_0
  10
704.02222
  20
423.97534
  0
VERTEX
  5
9f
  8
Layer_0
  10
703.99609
  20
423.97339
  0
VERTEX
  5
a0
  8
Layer_0
  10
703.99609
  20
424.43188
  0
VERTEX
  5
a1
  8
Layer_0
  10
703.98535
  20
424.53394
  42
0.30523016
  0
VERTEX
  5
a2
  8
Layer_0
  10
703.55298
  20
424.92773
  42
0.048468798
  0
VERTEX
  5
a3
  8
Layer_0
  10
703.19385
  20
424.91235
  42
0.1630645
  0
VERTEX
  5
a4
  8
Layer_0
  10
691.63867
  20
419.88501
  0
VERTEX
  5
a5
  8
Layer_0
  10
691.64575
  20
420.10718
  42
0.38153197
  0
VERTEX
  5
a6
  8
Layer_0
  10
690.08276
  20
421.64819
  42
0.40835713
  0
VERTEX
  5
a7
  8
Layer_0
  10
688.35229
  20
420.10596
  42
0.38547343
  0
VERTEX
  5
a8
  8
Layer_0
  10
689.72632
  20
418.36865
  42
0.073573523
  0
VERTEX
  5
a9
  8
Layer_0
  10
690.10913
  20
418.36011
  0
VERTEX
  5
aa
  8
Layer_0
  10
689.55664
  20
417.71753
  42
0.15666409
  0
VERTEX
  5
ab
  8
Layer_0
  10
685.06592
  20
406.42041
  42
0.32216578
  0
VERTEX
  5
ac
  8
Layer_0
  10
685.46045
  20
406.00244
  42
0.033237786
  0
VERTEX
  5
ad
  8
Layer_0
  10
686.02612
  20
405.99609
  0
VERTEX
  5
ae
  8
Layer_0
  10
686.02466
  20
405.97778
  42
0.033842649
  0
VERTEX
  5
af
  8
Layer_0
  10
686.02661
  20
403.99609
  0
VERTEX
  5
b0
  8
Layer_0
  10
685.56787
  20
403.99609
  42
0.11894263
  0
VERTEX
  5
b1
  8
Layer_0
  10
685.44409
  20
403.98047
  42
0.040474317
  0
VERTEX
  5
b2
  8
Layer_0
  10
685.32813
  20
403.93481
  42
0.046306624
  0
VERTEX
  5
b3
  8
Layer_0
  10
685.22778
  20
403.86108
  42
0.18276996
  0
VERTEX
  5
b4
  8
Layer_0
  10
685.06372
  20
403.54102
  42
0.16732977
  0
VERTEX
  5
b5
  8
Layer_0
  10
690.10425
  20
391.64453
  0
VERTEX
  5
b6
  8
Layer_0
  10
690
  20
391.6499
  42
0.38706168
  0
VERTEX
  5
b7
  8
Layer_0
  10
688.35864
  20
390.1687
  42
0.198313
  0
VERTEX
  5
b8
  8
Layer_0
  10
688.72006
  20
388.95786
  42
0.20006337
  0
VERTEX
  5
b9
  8
Layer_0
  10
689.8313
  20
388.35864
  42
0.38405184
  0
VERTEX
  5
ba
  8
Layer_0
  10
691.61646
  20
389.66748
  42
0.064564642
  0
VERTEX
  5
bb
  8
Layer_0
  10
691.64453
  20
390.10718
  0
VERTEX
  5
bc
  8
Layer_0
  10
691.99146
  20
389.79785
  42
0.16146275
  0
VERTEX
  5
bd
  8
Layer_0
  10
703.57178
  20
385.07373
  0
VERTEX
  5
be
  8
Layer_0
  10
703.63281
  20
385.08691
  0
VERTEX
  5
bf
  8
Layer_0
  10
703.69189
  20
385.10767
  0
VERTEX
  5
c0
  8
Layer_0
  10
703.74756
  20
385.13574
  0
VERTEX
  5
c1
  8
Layer_0
  10
703.79956
  20
385.17041
  42
0.17394336
  0
VERTEX
  5
c2
  8
Layer_0
  10
703.99609
  20
385.56787
  0
VERTEX
  5
c3
  8
Layer_0
  10
703.99609
  20
386.02661
  0
VERTEX
  5
c4
  8
Layer_0
  10
704.02222
  20
386.02466
  42
0.025309943
  0
VERTEX
  5
c5
  8
Layer_0
  10
705.97778
  20
386.02466
  0
VERTEX
  5
c6
  8
Layer_0
  10
705.99609
  20
386.02612
  0
VERTEX
  5
c7
  8
Layer_0
  10
705.99609
  20
385.56006
  42
0.10955919
  0
VERTEX
  5
c8
  8
Layer_0
  10
706.03174
  20
385.36597
  42
0.17116482
  0
VERTEX
  5
c9
  8
Layer_0
  10
706.23853
  20
385.12964
  42
0.13490029
  0
VERTEX
  5
ca
  8
Layer_0
  10
706.54419
  20
385.0625
  42
0.16647537
  0
VERTEX
  5
cb
  8
Layer_0
  10
718.35547
  20
390.1062
  0
VERTEX
  5
cc
  8
Layer_0
  10
718.3501
  20
390
  42
0.38295821
  0
VERTEX
  5
cd
  8
Layer_0
  10
719.8313
  20
388.35864
  42
0.38594917
  0
VERTEX
  5
ce
  8
Layer_0
  10
721.61841
  20
389.67651
  42
0.3873811
  0
VERTEX
  5
cf
  8
Layer_0
  10
720.47412
  20
391.58105
  42
0.09348421
  0
VERTEX
  5
d0
  8
Layer_0
  10
719.89307
  20
391.64453
  0
VERTEX
  5
d1
  8
Layer_0
  10
720.36011
  20
392.18091
  42
0.15828977
  0
VERTEX
  5
d2
  8
Layer_0
  10
724.92578
  20
403.57446
  42
0.29334257
  0
VERTEX
  5
d3
  8
Layer_0
  10
724.51318
  20
403.9895
  42
0.039985559
  0
VERTEX
  5
d4
  8
Layer_0
  10
723.97339
  20
403.99609
  0
VERTEX
  5
d5
  8
Layer_0
  10
723.97534
  20
404.02222
  42
0.031935266
  0
VERTEX
  5
d6
  8
Layer_0
  10
723.97388
  20
405.99609
  0
VERTEX
  5
d7
  8
Layer_0
  10
724.43994
  20
405.99609
  42
0.048549572
  0
VERTEX
  5
d8
  8
Layer_0
  10
724.56372
  20
406.01172
  42
0.37606045
  0
VERTEX
  5
d9
  8
Layer_0
  10
724.9375
  20
406.54443
  42
0.16631373
  0
VERTEX
  5
da
  8
Layer_0
  10
719.89429
  20
418.35547
  0
VERTEX
  5
db
  8
Layer_0
  10
720
  20
418.3501
  42
0.38385944
  0
VERTEX
  5
dc
  8
Layer_0
  10
721.64136
  20
419.8313
  42
0.38353977
  0
VERTEX
  5
dd
  8
Layer_0
  10
720.33569
  20
421.61548
  42
0.36092822
  0
VERTEX
  5
de
  8
Layer_0
  10
718.47412
  20
420.63086
  42
0.11602913
  0
VERTEX
  5
df
  8
Layer_0
  10
718.35547
  20
419.89453
  0
VERTEX
  5
e0
  8
Layer_0
  10
717.81494
  20
420.36523
  42
0.15827167
  0
VERTEX
  5
e1
  8
Layer_0
  10
706.41724
  20
424.93359
  0
VERTEX
  5
e2
  8
Layer_0
  10
706.24976
  20
424.87402
  0
SEQEND
  0
POLYLINE
  5
e4
  8
Layer_3
  62
30
  66
1
  10
0
  20
0
  30
0
  0
VERTEX
  5
e4
  8
Layer_3
  10
689.35999
  20
388.48
  42
-0.036407863
  0
VERTEX
  5
e5
  8
Layer_3
  10
689.07999
  20
388.632
  42
0.087371376
  0
VERTEX
  5
e6
  8
Layer_3
  10
689.35999
  20
388.48
  0
SEQEND
  0
POLYLINE
  5
e8
  8
Layer_3
  62
30
  66
1
  10
0
  20
0
  30
0
  0
VERTEX
  5
e8
  8
Layer_3
  10
703.97601
  20
422.28
  0
VERTEX
  5
e9
  8
Layer_3
  10
703.91199
  20
422.144
  42
-0.18244954
  0
VERTEX
  5
ea
  8
Layer_3
  10
703.608
  20
421.944
  0
VERTEX
  5
eb
  8
Layer_3
  10
702.84799
  20
421.864
  42
0.34906508
  0
VERTEX
  5
ec
  8
Layer_3
  10
688.08801
  20
406.744
  0
VERTEX
  5
ed
  8
Layer_3
  10
688.07999
  20
406.48
  42
-0.32428106
  0
VERTEX
  5
ee
  8
Layer_3
  10
687.63202
  20
406
  0
VERTEX
  5
ef
  8
Layer_3
  10
686.02399
  20
406
  0
VERTEX
  5
f0
  8
Layer_3
  10
686
  20
405.48
  42
0.024805992
  0
VERTEX
  5
f1
  8
Layer_3
  10
686.02399
  20
404
  0
VERTEX
  5
f2
  8
Layer_3
  10
687.56799
  20
404
  42
-0.3465252
  0
VERTEX
  5
f3
  8
Layer_3
  10
688.056
  20
403.608
  0
VERTEX
  5
f4
  8
Layer_3
  10
688.13599
  20
402.84801
  42
0.35521439
  0
VERTEX
  5
f5
  8
Layer_3
  10
703.62399
  20
388.056
  0
VERTEX
  5
f6
  8
Layer_3
  10
703.70401
  20
388.024
  0
VERTEX
  5
f7
  8
Layer_3
  10
703.784
  20
387.98399
  42
-0.18898648
  0
VERTEX
  5
f8
  8
Layer_3
  10
704
  20
387.632
  0
VERTEX
  5
f9
  8
Layer_3
  10
704
  20
386.024
  42
0.023312108
  0
VERTEX
  5
fa
  8
Layer_3
  10
706
  20
386.024
  0
VERTEX
  5
fb
  8
Layer_3
  10
706
  20
387.56799
  42
-0.34116355
  0
VERTEX
  5
fc
  8
Layer_3
  10
706.384
  20
388.056
  0
VERTEX
  5
fd
  8
Layer_3
  10
707.14401
  20
388.136
  42
0.35489424
  0
VERTEX
  5
fe
  8
Layer_3
  10
721.952
  20
403.62399
  0
VERTEX
  5
ff
  8
Layer_3
  10
721.97601
  20
403.70399
  0
VERTEX
  5
100
  8
Layer_3
  10
722.01599
  20
403.776
  42
-0.24162581
  0
VERTEX
  5
101
  8
Layer_3
  10
722.43201
  20
404
  0
VERTEX
  5
102
  8
Layer_3
  10
723.97601
  20
404
  42
0.032020474
  0
VERTEX
  5
103
  8
Layer_3
  10
723.97601
  20
406
  0
VERTEX
  5
104
  8
Layer_3
  10
722.43201
  20
406
  42
-0.34233384
  0
VERTEX
  5
105
  8
Layer_3
  10
721.944
  20
406.384
  0
VERTEX
  5
106
  8
Layer_3
  10
721.86401
  20
407.144
  42
0.35522202
  0
VERTEX
  5
107
  8
Layer_3
  10
706.35999
  20
421.952
  0
VERTEX
  5
108
  8
Layer_3
  10
706.28
  20
421.98399
  42
-0.28945063
  0
VERTEX
  5
109
  8
Layer_3
  10
706
  20
422.43201
  0
VERTEX
  5
10a
  8
Layer_3
  10
706
  20
423.976
  42
0.023403562
  0
VERTEX
  5
10b
  8
Layer_3
  10
704
  20
423.976
  0
VERTEX
  5
10c
  8
Layer_3
  10
704
  20
422.43201
  0
VERTEX
  5
10d
  8
Layer_3
  10
703.97601
  20
422.28
  0
SEQEND
  0
POLYLINE
  5
10f
  8
Layer_3
  62
30
  66
1
  10
0
  20
0
  30
0
  0
VERTEX
  5
10f
  8
Layer_3
  10
690.97601
  20
388.672
  0
VERTEX
  5
110
  8
Layer_3
  10
690.84799
  20
388.592
  0
VERTEX
  5
111
  8
Layer_3
  10
690.72
  20
388.52
  42
0.067140545
  0
VERTEX
  5
112
  8
Layer_3
  10
690.97601
  20
388.672
  0
SEQEND
  0
POLYLINE
  5
114
  8
Layer_3
  62
30
  66
1
  10
0
  20
0
  30
0
  0
VERTEX
  5
114
  8
Layer_3
  10
313.97516
  20
422.27995
  0
VERTEX
  5
115
  8
Layer_3
  10
313.91113
  20
422.14395
  42
-0.18244954
  0
VERTEX
  5
116
  8
Layer_3
  10
313.60718
  20
421.94395
  0
VERTEX
  5
117
  8
Layer_3
  10
312.84717
  20
421.86395
  42
0.34906508
  0
VERTEX
  5
118
  8
Layer_3
  10
298.08716
  20
406.74396
  0
VERTEX
  5
119
  8
Layer_3
  10
298.0791
  20
406.47995
  42
-0.32428106
  0
VERTEX
  5
11a
  8
Layer_3
  10
297.63116
  20
405.99995
  0
VERTEX
  5
11b
  8
Layer_3
  10
296.02313
  20
405.99995
  0
VERTEX
  5
11c
  8
Layer_3
  10
295.99915
  20
405.47995
  42
0.024805992
  0
VERTEX
  5
11d
  8
Layer_3
  10
296.02313
  20
403.99995
  0
VERTEX
  5
11e
  8
Layer_3
  10
297.56714
  20
403.99995
  42
-0.3465252
  0
VERTEX
  5
11f
  8
Layer_3
  10
298.05518
  20
403.60796
  0
VERTEX
  5
120
  8
Layer_3
  10
298.13513
  20
402.84796
  42
0.35521439
  0
VERTEX
  5
121
  8
Layer_3
  10
313.62317
  20
388.05595
  0
VERTEX
  5
122
  8
Layer_3
  10
313.70313
  20
388.02396
  0
VERTEX
  5
123
  8
Layer_3
  10
313.78314
  20
387.98395
  42
-0.18898648
  0
VERTEX
  5
124
  8
Layer_3
  10
313.99915
  20
387.63196
  0
VERTEX
  5
125
  8
Layer_3
  10
313.99915
  20
386.02396
  42
0.023312108
  0
VERTEX
  5
126
  8
Layer_3
  10
315.99915
  20
386.02396
  0
VERTEX
  5
127
  8
Layer_3
  10
315.99915
  20
387.56795
  42
-0.34116355
  0
VERTEX
  5
128
  8
Layer_3
  10
316.38318
  20
388.05595
  0
VERTEX
  5
129
  8
Layer_3
  10
317.14319
  20
388.13596
  42
0.35489424
  0
VERTEX
  5
12a
  8
Layer_3
  10
331.95117
  20
403.62395
  0
VERTEX
  5
12b
  8
Layer_3
  10
331.97516
  20
403.70395
  0
VERTEX
  5
12c
  8
Layer_3
  10
332.01514
  20
403.77596
  42
-0.24162581
  0
VERTEX
  5
12d
  8
Layer_3
  10
332.43115
  20
403.99995
  0
VERTEX
  5
12e
  8
Layer_3
  10
333.97516
  20
403.99995
  42
0.032020474
  0
VERTEX
  5
12f
  8
Layer_3
  10
333.97516
  20
405.99995
  0
VERTEX
  5
130
  8
Layer_3
  10
332.43115
  20
405.99995
  42
-0.34233384
  0
VERTEX
  5
131
  8
Layer_3
  10
331.94312
  20
406.38396
  0
VERTEX
  5
132
  8
Layer_3
  10
331.86316
  20
407.14395
  42
0.35522202
  0
VERTEX
  5
133
  8
Layer_3
  10
316.35913
  20
421.95195
  0
VERTEX
  5
134
  8
Layer_3
  10
316.27917
  20
421.98395
  42
-0.28945063
  0
VERTEX
  5
135
  8
Layer_3
  10
315.99915
  20
422.43196
  0
VERTEX
  5
136
  8
Layer_3
  10
315.99915
  20
423.97595
  42
0.023403562
  0
VERTEX
  5
137
  8
Layer_3
  10
313.99915
  20
423.97595
  0
VERTEX
  5
138
  8
Layer_3
  10
313.99915
  20
422.43196
  0
VERTEX
  5
139
  8
Layer_3
  10
313.97516
  20
422.27995
  0
SEQEND
  0
POLYLINE
  5
13b
  8
Layer_0
  62
0
  66
1
  10
0
  20
0
  30
0
  0
VERTEX
  5
13b
  8
Layer_0
  10
316.24915
  20
424.87598
  42
0.29719494
  0
VERTEX
  5
13c
  8
Layer_0
  10
315.99548
  20
424.44189
  0
VERTEX
  5
13d
  8
Layer_0
  10
315.99548
  20
423.97583
  0
VERTEX
  5
13e
  8
Layer_0
  10
315.97717
  20
423.97729
  42
0.025287156
  0
VERTEX
  5
13f
  8
Layer_0
  10
314.02161
  20
423.97729
  0
VERTEX
  5
140
  8
Layer_0
  10
313.99548
  20
423.97534
  0
VERTEX
  5
141
  8
Layer_0
  10
313.99548
  20
424.43384
  0
VERTEX
  5
142
  8
Layer_0
  10
313.98474
  20
424.53589
  42
0.30523016
  0
VERTEX
  5
143
  8
Layer_0
  10
313.55237
  20
424.92969
  42
0.048468798
  0
VERTEX
  5
144
  8
Layer_0
  10
313.19324
  20
424.91431
  42
0.1630645
  0
VERTEX
  5
145
  8
Layer_0
  10
301.63806
  20
419.88696
  0
VERTEX
  5
146
  8
Layer_0
  10
301.64514
  20
420.10913
  42
0.38153197
  0
VERTEX
  5
147
  8
Layer_0
  10
300.08215
  20
421.65015
  42
0.40835713
  0
VERTEX
  5
148
  8
Layer_0
  10
298.35168
  20
420.10791
  42
0.38547343
  0
VERTEX
  5
149
  8
Layer_0
  10
299.72571
  20
418.37061
  42
0.073573523
  0
VERTEX
  5
14a
  8
Layer_0
  10
300.10852
  20
418.36206
  0
VERTEX
  5
14b
  8
Layer_0
  10
299.55603
  20
417.71948
  42
0.15666409
  0
VERTEX
  5
14c
  8
Layer_0
  10
295.06531
  20
406.42236
  42
0.32216578
  0
VERTEX
  5
14d
  8
Layer_0
  10
295.45984
  20
406.00439
  42
0.033237786
  0
VERTEX
  5
14e
  8
Layer_0
  10
296.02551
  20
405.99805
  0
VERTEX
  5
14f
  8
Layer_0
  10
296.02405
  20
405.97974
  42
0.033842649
  0
VERTEX
  5
150
  8
Layer_0
  10
296.026
  20
403.99805
  0
VERTEX
  5
151
  8
Layer_0
  10
295.56726
  20
403.99805
  42
0.11894263
  0
VERTEX
  5
152
  8
Layer_0
  10
295.44348
  20
403.98242
  42
0.040474317
  0
VERTEX
  5
153
  8
Layer_0
  10
295.32751
  20
403.93677
  42
0.046306624
  0
VERTEX
  5
154
  8
Layer_0
  10
295.22717
  20
403.86304
  42
0.18276996
  0
VERTEX
  5
155
  8
Layer_0
  10
295.06311
  20
403.54297
  42
0.16732977
  0
VERTEX
  5
156
  8
Layer_0
  10
300.10364
  20
391.64648
  0
VERTEX
  5
157
  8
Layer_0
  10
299.99939
  20
391.65186
  42
0.38706168
  0
VERTEX
  5
158
  8
Layer_0
  10
298.35803
  20
390.17065
  42
0.198313
  0
VERTEX
  5
159
  8
Layer_0
  10
298.71948
  20
388.95981
  42
0.20006337
  0
VERTEX
  5
15a
  8
Layer_0
  10
299.83069
  20
388.3606
  42
0.38405184
  0
VERTEX
  5
15b
  8
Layer_0
  10
301.61584
  20
389.66943
  42
0.064564642
  0
VERTEX
  5
15c
  8
Layer_0
  10
301.64392
  20
390.10913
  0
VERTEX
  5
15d
  8
Layer_0
  10
301.99084
  20
389.7998
  42
0.16146275
  0
VERTEX
  5
15e
  8
Layer_0
  10
313.57117
  20
385.07568
  0
VERTEX
  5
15f
  8
Layer_0
  10
313.6322
  20
385.08887
  0
VERTEX
  5
160
  8
Layer_0
  10
313.69128
  20
385.10962
  0
VERTEX
  5
161
  8
Layer_0
  10
313.74695
  20
385.1377
  0
VERTEX
  5
162
  8
Layer_0
  10
313.79895
  20
385.17236
  42
0.17394336
  0
VERTEX
  5
163
  8
Layer_0
  10
313.99548
  20
385.56982
  0
VERTEX
  5
164
  8
Layer_0
  10
313.99548
  20
386.02856
  0
VERTEX
  5
165
  8
Layer_0
  10
314.02161
  20
386.02661
  42
0.025309943
  0
VERTEX
  5
166
  8
Layer_0
  10
315.97717
  20
386.02661
  0
VERTEX
  5
167
  8
Layer_0
  10
315.99548
  20
386.02808
  0
VERTEX
  5
168
  8
Layer_0
  10
315.99548
  20
385.56201
  42
0.10955919
  0
VERTEX
  5
169
  8
Layer_0
  10
316.03113
  20
385.36792
  42
0.17116482
  0
VERTEX
  5
16a
  8
Layer_0
  10
316.23792
  20
385.13159
  42
0.13490029
  0
VERTEX
  5
16b
  8
Layer_0
  10
316.54358
  20
385.06445
  42
0.16647537
  0
VERTEX
  5
16c
  8
Layer_0
  10
328.35486
  20
390.10815
  0
VERTEX
  5
16d
  8
Layer_0
  10
328.34949
  20
390.00195
  42
0.38295821
  0
VERTEX
  5
16e
  8
Layer_0
  10
329.83069
  20
388.3606
  42
0.38594917
  0
VERTEX
  5
16f
  8
Layer_0
  10
331.6178
  20
389.67847
  42
0.3873811
  0
VERTEX
  5
170
  8
Layer_0
  10
330.47351
  20
391.58301
  42
0.09348421
  0
VERTEX
  5
171
  8
Layer_0
  10
329.89246
  20
391.64648
  0
VERTEX
  5
172
  8
Layer_0
  10
330.3595
  20
392.18286
  42
0.15828977
  0
VERTEX
  5
173
  8
Layer_0
  10
334.92517
  20
403.57642
  42
0.29334257
  0
VERTEX
  5
174
  8
Layer_0
  10
334.51257
  20
403.99146
  42
0.039985559
  0
VERTEX
  5
175
  8
Layer_0
  10
333.97278
  20
403.99805
  0
VERTEX
  5
176
  8
Layer_0
  10
333.97473
  20
404.02417
  42
0.031935266
  0
VERTEX
  5
177
  8
Layer_0
  10
333.97327
  20
405.99805
  0
VERTEX
  5
178
  8
Layer_0
  10
334.43933
  20
405.99805
  42
0.048549572
  0
VERTEX
  5
179
  8
Layer_0
  10
334.56311
  20
406.01367
  42
0.37606045
  0
VERTEX
  5
17a
  8
Layer_0
  10
334.93689
  20
406.54639
  42
0.16631373
  0
VERTEX
  5
17b
  8
Layer_0
  10
329.89368
  20
418.35742
  0
VERTEX
  5
17c
  8
Layer_0
  10
329.99939
  20
418.35205
  42
0.38385944
  0
VERTEX
  5
17d
  8
Layer_0
  10
331.64075
  20
419.83325
  42
0.38353977
  0
VERTEX
  5
17e
  8
Layer_0
  10
330.33508
  20
421.61743
  42
0.36092822
  0
VERTEX
  5
17f
  8
Layer_0
  10
328.47351
  20
420.63281
  42
0.11602913
  0
VERTEX
  5
180
  8
Layer_0
  10
328.35486
  20
419.89648
  0
VERTEX
  5
181
  8
Layer_0
  10
327.81433
  20
420.36719
  42
0.15827167
  0
VERTEX
  5
182
  8
Layer_0
  10
316.41663
  20
424.93555
  0
VERTEX
  5
183
  8
Layer_0
  10
316.24915
  20
424.87598
  0
SEQEND
  0
POLYLINE
  5
185
  8
Layer_3
  62
30
  66
1
  10
0
  20
0
  30
0
  0
VERTEX
  5
185
  8
Layer_3
  10
303.35938
  20
317.48193
  42
-0.036407863
  0
VERTEX
  5
186
  8
Layer_3
  10
303.07935
  20
317.63397
  42
0.087371376
  0
VERTEX
  5
187
  8
Layer_3
  10
303.35938
  20
317.48193
  0
SEQEND
  0
POLYLINE
  5
189
  8
Layer_3
  62
30
  66
1
  10
0
  20
0
  30
0
  0
VERTEX
  5
189
  8
Layer_3
  10
304.9754
  20
317.67395
  0
VERTEX
  5
18a
  8
Layer_3
  10
304.84741
  20
317.59393
  0
VERTEX
  5
18b
  8
Layer_3
  10
304.71936
  20
317.52197
  42
0.067140545
  0
VERTEX
  5
18c
  8
Layer_3
  10
304.9754
  20
317.67395
  0
SEQEND
  0
ENDSEC
  0
EOF
