<?xml version="1.0" encoding="UTF-8" standalone="no"?>
<!DOCTYPE svg PUBLIC "-//W3C//DTD SVG 1.1//EN"
 "http://www.w3.org/Graphics/SVG/1.1/DTD/svg11.dtd">
<!-- Generated by graphviz version 10.0.1 (20240210.2158)
 -->
<!-- Pages: 1 -->
<svg width="793pt" height="960pt"
 viewBox="0.00 0.00 792.75 960.25" xmlns="http://www.w3.org/2000/svg" xmlns:xlink="http://www.w3.org/1999/xlink">
<g id="graph0" class="graph" transform="scale(1 1) rotate(0) translate(4 956.25)">
<polygon fill="#ffffff" stroke="none" points="-4,4 -4,-956.25 788.75,-956.25 788.75,4 -4,4"/>
<!-- LP -->
<g id="node1" class="node">
<title>LP</title>
<polygon fill="#ffffff" stroke="black" points="151,-370.25 9.25,-370.25 9.25,-197 151,-197 151,-370.25"/>
<polygon fill="none" stroke="black" points="9.25,-346.5 9.25,-370.25 151,-370.25 151,-346.5 9.25,-346.5"/>
<text text-anchor="start" x="71.88" y="-352.95" font-family="arial" font-size="14.00">LP</text>
<polygon fill="none" stroke="black" points="9.25,-322.75 9.25,-346.5 63.75,-346.5 63.75,-322.75 9.25,-322.75"/>
<text text-anchor="start" x="13.25" y="-329.2" font-family="arial" font-size="14.00">JST PH</text>
<polygon fill="none" stroke="black" points="63.75,-322.75 63.75,-346.5 113,-346.5 113,-322.75 63.75,-322.75"/>
<text text-anchor="start" x="67.75" y="-329.2" font-family="arial" font-size="14.00">female</text>
<polygon fill="none" stroke="black" points="113,-322.75 113,-346.5 151,-346.5 151,-322.75 113,-322.75"/>
<text text-anchor="start" x="117" y="-329.2" font-family="arial" font-size="14.00">2&#45;pin</text>
<polygon fill="none" stroke="black" points="9.25,-299.75 9.25,-322.75 81.12,-322.75 81.12,-299.75 9.25,-299.75"/>
<text text-anchor="start" x="40.69" y="-305.45" font-family="arial" font-size="14.00">A</text>
<polygon fill="none" stroke="black" points="81.12,-299.75 81.12,-322.75 151,-322.75 151,-299.75 81.12,-299.75"/>
<text text-anchor="start" x="112.31" y="-305.45" font-family="arial" font-size="14.00">1</text>
<polygon fill="none" stroke="black" points="9.25,-276.75 9.25,-299.75 81.12,-299.75 81.12,-276.75 9.25,-276.75"/>
<text text-anchor="start" x="40.69" y="-282.45" font-family="arial" font-size="14.00">B</text>
<polygon fill="none" stroke="black" points="81.12,-276.75 81.12,-299.75 151,-299.75 151,-276.75 81.12,-276.75"/>
<text text-anchor="start" x="112.31" y="-282.45" font-family="arial" font-size="14.00">2</text>
<polyline fill="none" stroke="black" points="151,-220.75 151,-276.75 9.25,-276.75 9.25,-220.75"/>
<image xlink:href="../img/PH-2.jpeg" width="64px" height="48px" preserveAspectRatio="xMinYMin meet" x="48.125" y="-272.75"/>
<polyline fill="none" stroke="black" points="9.25,-220.75 9.25,-197 151,-197 151,-220.75"/>
<text text-anchor="start" x="40" y="-203.45" font-family="arial" font-size="14.00">JST PH 2&#45;pin</text>
</g>
<!-- W1 -->
<g id="node7" class="node">
<title>W1</title>
<polygon fill="#ffffff" stroke="black" points="507.5,-327.25 304.25,-327.25 304.25,-118 507.5,-118 507.5,-327.25"/>
<polygon fill="none" stroke="black" points="304.25,-303.5 304.25,-327.25 507.5,-327.25 507.5,-303.5 304.25,-303.5"/>
<text text-anchor="start" x="395.38" y="-309.95" font-family="arial" font-size="14.00">W1</text>
<polygon fill="none" stroke="black" points="304.25,-279.75 304.25,-303.5 326.5,-303.5 326.5,-279.75 304.25,-279.75"/>
<text text-anchor="start" x="308.25" y="-286.2" font-family="arial" font-size="14.00">4x</text>
<polygon fill="none" stroke="black" points="326.5,-279.75 326.5,-303.5 457.5,-303.5 457.5,-279.75 326.5,-279.75"/>
<text text-anchor="start" x="330.5" y="-286.2" font-family="arial" font-size="14.00">24 AWG (0.25 mm²)</text>
<polygon fill="none" stroke="black" points="457.5,-279.75 457.5,-303.5 507.5,-303.5 507.5,-279.75 457.5,-279.75"/>
<text text-anchor="start" x="461.5" y="-286.2" font-family="arial" font-size="14.00">0.55 m</text>
<text text-anchor="start" x="339.92" y="-264.45" font-family="arial" font-size="14.00"> </text>
<text text-anchor="start" x="321.54" y="-245.45" font-family="arial" font-size="14.00">LP:1:A</text>
<text text-anchor="start" x="395.88" y="-245.45" font-family="arial" font-size="14.00"> &#160;&#160;&#160;&#160;1:BK &#160;&#160;&#160;</text>
<polygon fill="#000000" stroke="none" points="304.25,-239.75 304.25,-241.75 507.5,-241.75 507.5,-239.75 304.25,-239.75"/>
<polygon fill="#000000" stroke="none" points="304.25,-237.75 304.25,-239.75 507.5,-239.75 507.5,-237.75 304.25,-237.75"/>
<polygon fill="#000000" stroke="none" points="304.25,-235.75 304.25,-237.75 507.5,-237.75 507.5,-235.75 304.25,-235.75"/>
<text text-anchor="start" x="321.54" y="-220.45" font-family="arial" font-size="14.00">LP:2:B</text>
<text text-anchor="start" x="395.12" y="-220.45" font-family="arial" font-size="14.00"> &#160;&#160;&#160;&#160;2:RD &#160;&#160;&#160;</text>
<polygon fill="#000000" stroke="none" points="304.25,-214.75 304.25,-216.75 507.5,-216.75 507.5,-214.75 304.25,-214.75"/>
<polygon fill="#ff0000" stroke="none" points="304.25,-212.75 304.25,-214.75 507.5,-214.75 507.5,-212.75 304.25,-212.75"/>
<polygon fill="#000000" stroke="none" points="304.25,-210.75 304.25,-212.75 507.5,-212.75 507.5,-210.75 304.25,-210.75"/>
<text text-anchor="start" x="320.04" y="-195.45" font-family="arial" font-size="14.00">RP:1:C</text>
<text text-anchor="start" x="395.88" y="-195.45" font-family="arial" font-size="14.00"> &#160;&#160;&#160;&#160;3:BK &#160;&#160;&#160;</text>
<polygon fill="#000000" stroke="none" points="304.25,-189.75 304.25,-191.75 507.5,-191.75 507.5,-189.75 304.25,-189.75"/>
<polygon fill="#000000" stroke="none" points="304.25,-187.75 304.25,-189.75 507.5,-189.75 507.5,-187.75 304.25,-187.75"/>
<polygon fill="#000000" stroke="none" points="304.25,-185.75 304.25,-187.75 507.5,-187.75 507.5,-185.75 304.25,-185.75"/>
<text text-anchor="start" x="320.04" y="-170.45" font-family="arial" font-size="14.00">RP:2:D</text>
<text text-anchor="start" x="395.12" y="-170.45" font-family="arial" font-size="14.00"> &#160;&#160;&#160;&#160;4:RD &#160;&#160;&#160;</text>
<polygon fill="#000000" stroke="none" points="304.25,-164.75 304.25,-166.75 507.5,-166.75 507.5,-164.75 304.25,-164.75"/>
<polygon fill="#ff0000" stroke="none" points="304.25,-162.75 304.25,-164.75 507.5,-164.75 507.5,-162.75 304.25,-162.75"/>
<polygon fill="#000000" stroke="none" points="304.25,-160.75 304.25,-162.75 507.5,-162.75 507.5,-160.75 304.25,-160.75"/>
<text text-anchor="start" x="339.92" y="-145.45" font-family="arial" font-size="14.00"> </text>
<polygon fill="none" stroke="black" points="304.25,-118 304.25,-141.75 507.5,-141.75 507.5,-118 304.25,-118"/>
<text text-anchor="start" x="327.88" y="-124.45" font-family="arial" font-size="14.00">Stranded &#45; PVC Insulation</text>
</g>
<!-- LP&#45;&#45;W1 -->
<g id="edge1" class="edge">
<title>LP:e&#45;&#45;W1:w</title>
<path fill="none" stroke="#000000" stroke-width="2" d="M152.12,-309.63C225.12,-311.57 227.26,-238.57 304.25,-236.63"/>
<path fill="none" stroke="#000000" stroke-width="2" d="M152.12,-311.62C227.12,-311.62 229.26,-238.62 304.25,-238.62"/>
<path fill="none" stroke="#000000" stroke-width="2" d="M152.12,-313.62C229.12,-311.68 231.26,-238.68 304.25,-240.62"/>
</g>
<!-- LP&#45;&#45;W1 -->
<g id="edge3" class="edge">
<title>LP:e&#45;&#45;W1:w</title>
<path fill="none" stroke="#000000" stroke-width="2" d="M152.12,-286.63C225.51,-288.59 226.87,-213.59 304.25,-211.63"/>
<path fill="none" stroke="#ff0000" stroke-width="2" d="M152.12,-288.62C227.51,-288.62 228.87,-213.63 304.25,-213.63"/>
<path fill="none" stroke="#000000" stroke-width="2" d="M152.12,-290.62C229.51,-288.66 230.87,-213.66 304.25,-215.62"/>
</g>
<!-- RP -->
<g id="node2" class="node">
<title>RP</title>
<polygon fill="#ffffff" stroke="black" points="151,-173.25 9.25,-173.25 9.25,0 151,0 151,-173.25"/>
<polygon fill="none" stroke="black" points="9.25,-149.5 9.25,-173.25 151,-173.25 151,-149.5 9.25,-149.5"/>
<text text-anchor="start" x="70.75" y="-155.95" font-family="arial" font-size="14.00">RP</text>
<polygon fill="none" stroke="black" points="9.25,-125.75 9.25,-149.5 63.75,-149.5 63.75,-125.75 9.25,-125.75"/>
<text text-anchor="start" x="13.25" y="-132.2" font-family="arial" font-size="14.00">JST PH</text>
<polygon fill="none" stroke="black" points="63.75,-125.75 63.75,-149.5 113,-149.5 113,-125.75 63.75,-125.75"/>
<text text-anchor="start" x="67.75" y="-132.2" font-family="arial" font-size="14.00">female</text>
<polygon fill="none" stroke="black" points="113,-125.75 113,-149.5 151,-149.5 151,-125.75 113,-125.75"/>
<text text-anchor="start" x="117" y="-132.2" font-family="arial" font-size="14.00">2&#45;pin</text>
<polygon fill="none" stroke="black" points="9.25,-102.75 9.25,-125.75 81.12,-125.75 81.12,-102.75 9.25,-102.75"/>
<text text-anchor="start" x="40.31" y="-108.45" font-family="arial" font-size="14.00">C</text>
<polygon fill="none" stroke="black" points="81.12,-102.75 81.12,-125.75 151,-125.75 151,-102.75 81.12,-102.75"/>
<text text-anchor="start" x="112.31" y="-108.45" font-family="arial" font-size="14.00">1</text>
<polygon fill="none" stroke="black" points="9.25,-79.75 9.25,-102.75 81.12,-102.75 81.12,-79.75 9.25,-79.75"/>
<text text-anchor="start" x="40.31" y="-85.45" font-family="arial" font-size="14.00">D</text>
<polygon fill="none" stroke="black" points="81.12,-79.75 81.12,-102.75 151,-102.75 151,-79.75 81.12,-79.75"/>
<text text-anchor="start" x="112.31" y="-85.45" font-family="arial" font-size="14.00">2</text>
<polyline fill="none" stroke="black" points="151,-23.75 151,-79.75 9.25,-79.75 9.25,-23.75"/>
<image xlink:href="../img/PH-2.jpeg" width="64px" height="48px" preserveAspectRatio="xMinYMin meet" x="48.125" y="-75.75"/>
<polyline fill="none" stroke="black" points="9.25,-23.75 9.25,0 151,0 151,-23.75"/>
<text text-anchor="start" x="40" y="-6.45" font-family="arial" font-size="14.00">JST PH 2&#45;pin</text>
</g>
<!-- RP&#45;&#45;W1 -->
<g id="edge5" class="edge">
<title>RP:e&#45;&#45;W1:w</title>
<path fill="none" stroke="#000000" stroke-width="2" d="M152.12,-112.63C229.31,-114.58 231.06,-188.58 304.25,-186.63"/>
<path fill="none" stroke="#000000" stroke-width="2" d="M152.12,-114.63C227.31,-114.63 229.06,-188.62 304.25,-188.62"/>
<path fill="none" stroke="#000000" stroke-width="2" d="M152.12,-116.62C225.31,-114.67 227.06,-188.67 304.25,-190.62"/>
</g>
<!-- RP&#45;&#45;W1 -->
<g id="edge7" class="edge">
<title>RP:e&#45;&#45;W1:w</title>
<path fill="none" stroke="#000000" stroke-width="2" d="M152.12,-89.63C228.93,-91.55 231.45,-163.55 304.25,-161.63"/>
<path fill="none" stroke="#ff0000" stroke-width="2" d="M152.12,-91.62C226.93,-91.62 229.45,-163.62 304.25,-163.63"/>
<path fill="none" stroke="#000000" stroke-width="2" d="M152.12,-93.62C224.93,-91.7 227.45,-163.7 304.25,-165.62"/>
</g>
<!-- _stripped&#45;end_1 -->
<g id="node3" class="node">
<title>_stripped&#45;end_1</title>
<polygon fill="#ffffff" stroke="black" points="784.75,-285.5 651.5,-285.5 651.5,-261.75 784.75,-261.75 784.75,-285.5"/>
<polygon fill="none" stroke="black" points="651.5,-261.75 651.5,-285.5 784.75,-285.5 784.75,-261.75 651.5,-261.75"/>
<text text-anchor="start" x="655.5" y="-268.2" font-family="arial" font-size="14.00">10mm Stripped Wire</text>
</g>
<!-- _stripped&#45;end_2 -->
<g id="node4" class="node">
<title>_stripped&#45;end_2</title>
<polygon fill="#ffffff" stroke="black" points="784.75,-237.5 651.5,-237.5 651.5,-213.75 784.75,-213.75 784.75,-237.5"/>
<polygon fill="none" stroke="black" points="651.5,-213.75 651.5,-237.5 784.75,-237.5 784.75,-213.75 651.5,-213.75"/>
<text text-anchor="start" x="655.5" y="-220.2" font-family="arial" font-size="14.00">10mm Stripped Wire</text>
</g>
<!-- _stripped&#45;end_3 -->
<g id="node5" class="node">
<title>_stripped&#45;end_3</title>
<polygon fill="#ffffff" stroke="black" points="784.75,-189.5 651.5,-189.5 651.5,-165.75 784.75,-165.75 784.75,-189.5"/>
<polygon fill="none" stroke="black" points="651.5,-165.75 651.5,-189.5 784.75,-189.5 784.75,-165.75 651.5,-165.75"/>
<text text-anchor="start" x="655.5" y="-172.2" font-family="arial" font-size="14.00">10mm Stripped Wire</text>
</g>
<!-- _stripped&#45;end_4 -->
<g id="node6" class="node">
<title>_stripped&#45;end_4</title>
<polygon fill="#ffffff" stroke="black" points="784.75,-141.5 651.5,-141.5 651.5,-117.75 784.75,-117.75 784.75,-141.5"/>
<polygon fill="none" stroke="black" points="651.5,-117.75 651.5,-141.5 784.75,-141.5 784.75,-117.75 651.5,-117.75"/>
<text text-anchor="start" x="655.5" y="-124.2" font-family="arial" font-size="14.00">10mm Stripped Wire</text>
</g>
<!-- W1&#45;&#45;_stripped&#45;end_1 -->
<g id="edge2" class="edge">
<title>W1:e&#45;&#45;_stripped&#45;end_1:w</title>
<path fill="none" stroke="#000000" stroke-width="2" d="M507.5,-236.63C575.25,-237.96 587.52,-272.96 651.5,-271.63"/>
<path fill="none" stroke="#000000" stroke-width="2" d="M507.5,-238.62C573.36,-238.63 585.64,-273.62 651.5,-273.62"/>
<path fill="none" stroke="#000000" stroke-width="2" d="M507.5,-240.62C571.48,-239.29 583.75,-274.29 651.5,-275.62"/>
</g>
<!-- W1&#45;&#45;_stripped&#45;end_2 -->
<g id="edge4" class="edge">
<title>W1:e&#45;&#45;_stripped&#45;end_2:w</title>
<path fill="none" stroke="#000000" stroke-width="2" d="M507.5,-211.63C572.94,-212.04 588.5,-224.04 651.5,-223.63"/>
<path fill="none" stroke="#ff0000" stroke-width="2" d="M507.5,-213.63C571.72,-213.62 587.28,-225.62 651.5,-225.63"/>
<path fill="none" stroke="#000000" stroke-width="2" d="M507.5,-215.62C570.5,-215.21 586.06,-227.21 651.5,-227.62"/>
</g>
<!-- W1&#45;&#45;_stripped&#45;end_3 -->
<g id="edge6" class="edge">
<title>W1:e&#45;&#45;_stripped&#45;end_3:w</title>
<path fill="none" stroke="#000000" stroke-width="2" d="M507.5,-186.63C570.54,-186.99 586.16,-175.99 651.5,-175.63"/>
<path fill="none" stroke="#000000" stroke-width="2" d="M507.5,-188.62C571.69,-188.63 587.31,-177.63 651.5,-177.62"/>
<path fill="none" stroke="#000000" stroke-width="2" d="M507.5,-190.62C572.84,-190.26 588.46,-179.26 651.5,-179.62"/>
</g>
<!-- W1&#45;&#45;_stripped&#45;end_4 -->
<g id="edge8" class="edge">
<title>W1:e&#45;&#45;_stripped&#45;end_4:w</title>
<path fill="none" stroke="#000000" stroke-width="2" d="M507.5,-161.63C571.38,-162.94 583.86,-128.94 651.5,-127.63"/>
<path fill="none" stroke="#ff0000" stroke-width="2" d="M507.5,-163.62C573.26,-163.62 585.74,-129.62 651.5,-129.62"/>
<path fill="none" stroke="#000000" stroke-width="2" d="M507.5,-165.62C575.14,-164.31 587.62,-130.31 651.5,-131.62"/>
</g>
<!-- LP&#45;CABLE -->
<g id="node8" class="node">
<title>LP&#45;CABLE</title>
<polygon fill="#ffffff" stroke="black" stroke-dasharray="5,2" points="160.25,-661.25 0,-661.25 0,-394 160.25,-394 160.25,-661.25"/>
<polygon fill="none" stroke="black" points="0,-637.5 0,-661.25 160.25,-661.25 160.25,-637.5 0,-637.5"/>
<text text-anchor="start" x="47.5" y="-643.95" font-family="arial" font-size="14.00">LP&#45;CABLE</text>
<polygon fill="none" stroke="black" points="0,-613.75 0,-637.5 160.25,-637.5 160.25,-613.75 0,-613.75"/>
<text text-anchor="start" x="73" y="-620.2" font-family="arial" font-size="14.00">2x</text>
<text text-anchor="start" x="20.33" y="-598.45" font-family="arial" font-size="14.00"> </text>
<text text-anchor="start" x="64.75" y="-579.45" font-family="arial" font-size="14.00"> &#160;&#160;&#160;&#160;&#160;&#160;&#160;&#160;</text>
<polygon fill="#000000" stroke="none" points="0,-573.75 0,-575.75 160.25,-575.75 160.25,-573.75 0,-573.75"/>
<polygon fill="#ffffff" stroke="none" points="0,-571.75 0,-573.75 160.25,-573.75 160.25,-571.75 0,-571.75"/>
<polygon fill="#000000" stroke="none" points="0,-569.75 0,-571.75 160.25,-571.75 160.25,-569.75 0,-569.75"/>
<text text-anchor="start" x="64.75" y="-554.45" font-family="arial" font-size="14.00"> &#160;&#160;&#160;&#160;&#160;&#160;&#160;&#160;</text>
<polygon fill="#000000" stroke="none" points="0,-548.75 0,-550.75 160.25,-550.75 160.25,-548.75 0,-548.75"/>
<polygon fill="#ffffff" stroke="none" points="0,-546.75 0,-548.75 160.25,-548.75 160.25,-546.75 0,-546.75"/>
<polygon fill="#000000" stroke="none" points="0,-544.75 0,-546.75 160.25,-546.75 160.25,-544.75 0,-544.75"/>
<text text-anchor="start" x="20.33" y="-529.45" font-family="arial" font-size="14.00"> </text>
<polyline fill="none" stroke="black" points="160.25,-417.75 160.25,-525.75 0,-525.75 0,-417.75"/>
<image xlink:href="../img/label.png" width="141.634px" height="96px" preserveAspectRatio="xMinYMin meet" x="9.30822" y="-519.75"/>
<polyline fill="none" stroke="black" points="0,-417.75 0,-394 160.25,-394 160.25,-417.75"/>
<text text-anchor="start" x="4" y="-400.45" font-family="arial" font-size="14.00">Label Text &quot;LEFT PUMP&quot;</text>
</g>
<!-- RP&#45;CABLE -->
<g id="node9" class="node">
<title>RP&#45;CABLE</title>
<polygon fill="#ffffff" stroke="black" stroke-dasharray="5,2" points="160.25,-952.25 0,-952.25 0,-685 160.25,-685 160.25,-952.25"/>
<polygon fill="none" stroke="black" points="0,-928.5 0,-952.25 160.25,-952.25 160.25,-928.5 0,-928.5"/>
<text text-anchor="start" x="46.38" y="-934.95" font-family="arial" font-size="14.00">RP&#45;CABLE</text>
<polygon fill="none" stroke="black" points="0,-904.75 0,-928.5 160.25,-928.5 160.25,-904.75 0,-904.75"/>
<text text-anchor="start" x="73" y="-911.2" font-family="arial" font-size="14.00">2x</text>
<text text-anchor="start" x="20.33" y="-889.45" font-family="arial" font-size="14.00"> </text>
<text text-anchor="start" x="64.75" y="-870.45" font-family="arial" font-size="14.00"> &#160;&#160;&#160;&#160;&#160;&#160;&#160;&#160;</text>
<polygon fill="#000000" stroke="none" points="0,-864.75 0,-866.75 160.25,-866.75 160.25,-864.75 0,-864.75"/>
<polygon fill="#ffffff" stroke="none" points="0,-862.75 0,-864.75 160.25,-864.75 160.25,-862.75 0,-862.75"/>
<polygon fill="#000000" stroke="none" points="0,-860.75 0,-862.75 160.25,-862.75 160.25,-860.75 0,-860.75"/>
<text text-anchor="start" x="64.75" y="-845.45" font-family="arial" font-size="14.00"> &#160;&#160;&#160;&#160;&#160;&#160;&#160;&#160;</text>
<polygon fill="#000000" stroke="none" points="0,-839.75 0,-841.75 160.25,-841.75 160.25,-839.75 0,-839.75"/>
<polygon fill="#ffffff" stroke="none" points="0,-837.75 0,-839.75 160.25,-839.75 160.25,-837.75 0,-837.75"/>
<polygon fill="#000000" stroke="none" points="0,-835.75 0,-837.75 160.25,-837.75 160.25,-835.75 0,-835.75"/>
<text text-anchor="start" x="20.33" y="-820.45" font-family="arial" font-size="14.00"> </text>
<polyline fill="none" stroke="black" points="160.25,-708.75 160.25,-816.75 0,-816.75 0,-708.75"/>
<image xlink:href="../img/label.png" width="141.634px" height="96px" preserveAspectRatio="xMinYMin meet" x="9.30822" y="-810.75"/>
<polyline fill="none" stroke="black" points="0,-708.75 0,-685 160.25,-685 160.25,-708.75"/>
<text text-anchor="start" x="4" y="-691.45" font-family="arial" font-size="14.00">Label Text &quot;LEFT PUMP&quot;</text>
</g>
</g>
</svg>
