G04 #@! TF.GenerationSoftware,KiCad,Pcbnew,7.0.2-0*
G04 #@! TF.CreationDate,2023-11-08T10:18:56-05:00*
G04 #@! TF.ProjectId,blade12_1-12,626c6164-6531-4325-9f31-2d31322e6b69,rev?*
G04 #@! TF.SameCoordinates,Original*
G04 #@! TF.FileFunction,Legend,Bot*
G04 #@! TF.FilePolarity,Positive*
%FSLAX46Y46*%
G04 Gerber Fmt 4.6, Leading zero omitted, Abs format (unit mm)*
G04 Created by KiCad (PCBNEW 7.0.2-0) date 2023-11-08 10:18:56*
%MOMM*%
%LPD*%
G01*
G04 APERTURE LIST*
%ADD10C,0.120000*%
%ADD11C,0.500000*%
G04 APERTURE END LIST*
D10*
X106150000Y-37000000D02*
G75*
G03*
X106150000Y-37000000I-2950000J0D01*
G01*
X199750000Y-37000000D02*
G75*
G03*
X199750000Y-37000000I-2950000J0D01*
G01*
X59350000Y-37000000D02*
G75*
G03*
X59350000Y-37000000I-2950000J0D01*
G01*
X28150000Y-37000000D02*
G75*
G03*
X28150000Y-37000000I-2950000J0D01*
G01*
X152950000Y-37000000D02*
G75*
G03*
X152950000Y-37000000I-2950000J0D01*
G01*
D11*
X196742856Y-30637857D02*
X198457142Y-30637857D01*
X197599999Y-30637857D02*
X197599999Y-27637857D01*
X197599999Y-27637857D02*
X197885713Y-28066428D01*
X197885713Y-28066428D02*
X198171428Y-28352142D01*
X198171428Y-28352142D02*
X198457142Y-28495000D01*
X88685713Y-28923571D02*
X88971428Y-28780714D01*
X88971428Y-28780714D02*
X89114285Y-28637857D01*
X89114285Y-28637857D02*
X89257142Y-28352142D01*
X89257142Y-28352142D02*
X89257142Y-28209285D01*
X89257142Y-28209285D02*
X89114285Y-27923571D01*
X89114285Y-27923571D02*
X88971428Y-27780714D01*
X88971428Y-27780714D02*
X88685713Y-27637857D01*
X88685713Y-27637857D02*
X88114285Y-27637857D01*
X88114285Y-27637857D02*
X87828571Y-27780714D01*
X87828571Y-27780714D02*
X87685713Y-27923571D01*
X87685713Y-27923571D02*
X87542856Y-28209285D01*
X87542856Y-28209285D02*
X87542856Y-28352142D01*
X87542856Y-28352142D02*
X87685713Y-28637857D01*
X87685713Y-28637857D02*
X87828571Y-28780714D01*
X87828571Y-28780714D02*
X88114285Y-28923571D01*
X88114285Y-28923571D02*
X88685713Y-28923571D01*
X88685713Y-28923571D02*
X88971428Y-29066428D01*
X88971428Y-29066428D02*
X89114285Y-29209285D01*
X89114285Y-29209285D02*
X89257142Y-29495000D01*
X89257142Y-29495000D02*
X89257142Y-30066428D01*
X89257142Y-30066428D02*
X89114285Y-30352142D01*
X89114285Y-30352142D02*
X88971428Y-30495000D01*
X88971428Y-30495000D02*
X88685713Y-30637857D01*
X88685713Y-30637857D02*
X88114285Y-30637857D01*
X88114285Y-30637857D02*
X87828571Y-30495000D01*
X87828571Y-30495000D02*
X87685713Y-30352142D01*
X87685713Y-30352142D02*
X87542856Y-30066428D01*
X87542856Y-30066428D02*
X87542856Y-29495000D01*
X87542856Y-29495000D02*
X87685713Y-29209285D01*
X87685713Y-29209285D02*
X87828571Y-29066428D01*
X87828571Y-29066428D02*
X88114285Y-28923571D01*
X134485713Y-27637857D02*
X135914285Y-27637857D01*
X135914285Y-27637857D02*
X136057142Y-29066428D01*
X136057142Y-29066428D02*
X135914285Y-28923571D01*
X135914285Y-28923571D02*
X135628571Y-28780714D01*
X135628571Y-28780714D02*
X134914285Y-28780714D01*
X134914285Y-28780714D02*
X134628571Y-28923571D01*
X134628571Y-28923571D02*
X134485713Y-29066428D01*
X134485713Y-29066428D02*
X134342856Y-29352142D01*
X134342856Y-29352142D02*
X134342856Y-30066428D01*
X134342856Y-30066428D02*
X134485713Y-30352142D01*
X134485713Y-30352142D02*
X134628571Y-30495000D01*
X134628571Y-30495000D02*
X134914285Y-30637857D01*
X134914285Y-30637857D02*
X135628571Y-30637857D01*
X135628571Y-30637857D02*
X135914285Y-30495000D01*
X135914285Y-30495000D02*
X136057142Y-30352142D01*
X57771428Y-30637857D02*
X59485714Y-30637857D01*
X58628571Y-30637857D02*
X58628571Y-27637857D01*
X58628571Y-27637857D02*
X58914285Y-28066428D01*
X58914285Y-28066428D02*
X59200000Y-28352142D01*
X59200000Y-28352142D02*
X59485714Y-28495000D01*
X55914285Y-27637857D02*
X55628571Y-27637857D01*
X55628571Y-27637857D02*
X55342857Y-27780714D01*
X55342857Y-27780714D02*
X55200000Y-27923571D01*
X55200000Y-27923571D02*
X55057142Y-28209285D01*
X55057142Y-28209285D02*
X54914285Y-28780714D01*
X54914285Y-28780714D02*
X54914285Y-29495000D01*
X54914285Y-29495000D02*
X55057142Y-30066428D01*
X55057142Y-30066428D02*
X55200000Y-30352142D01*
X55200000Y-30352142D02*
X55342857Y-30495000D01*
X55342857Y-30495000D02*
X55628571Y-30637857D01*
X55628571Y-30637857D02*
X55914285Y-30637857D01*
X55914285Y-30637857D02*
X56200000Y-30495000D01*
X56200000Y-30495000D02*
X56342857Y-30352142D01*
X56342857Y-30352142D02*
X56485714Y-30066428D01*
X56485714Y-30066428D02*
X56628571Y-29495000D01*
X56628571Y-29495000D02*
X56628571Y-28780714D01*
X56628571Y-28780714D02*
X56485714Y-28209285D01*
X56485714Y-28209285D02*
X56342857Y-27923571D01*
X56342857Y-27923571D02*
X56200000Y-27780714D01*
X56200000Y-27780714D02*
X55914285Y-27637857D01*
X42171428Y-30637857D02*
X43885714Y-30637857D01*
X43028571Y-30637857D02*
X43028571Y-27637857D01*
X43028571Y-27637857D02*
X43314285Y-28066428D01*
X43314285Y-28066428D02*
X43600000Y-28352142D01*
X43600000Y-28352142D02*
X43885714Y-28495000D01*
X39314285Y-30637857D02*
X41028571Y-30637857D01*
X40171428Y-30637857D02*
X40171428Y-27637857D01*
X40171428Y-27637857D02*
X40457142Y-28066428D01*
X40457142Y-28066428D02*
X40742857Y-28352142D01*
X40742857Y-28352142D02*
X41028571Y-28495000D01*
X73371428Y-30637857D02*
X72799999Y-30637857D01*
X72799999Y-30637857D02*
X72514285Y-30495000D01*
X72514285Y-30495000D02*
X72371428Y-30352142D01*
X72371428Y-30352142D02*
X72085713Y-29923571D01*
X72085713Y-29923571D02*
X71942856Y-29352142D01*
X71942856Y-29352142D02*
X71942856Y-28209285D01*
X71942856Y-28209285D02*
X72085713Y-27923571D01*
X72085713Y-27923571D02*
X72228571Y-27780714D01*
X72228571Y-27780714D02*
X72514285Y-27637857D01*
X72514285Y-27637857D02*
X73085713Y-27637857D01*
X73085713Y-27637857D02*
X73371428Y-27780714D01*
X73371428Y-27780714D02*
X73514285Y-27923571D01*
X73514285Y-27923571D02*
X73657142Y-28209285D01*
X73657142Y-28209285D02*
X73657142Y-28923571D01*
X73657142Y-28923571D02*
X73514285Y-29209285D01*
X73514285Y-29209285D02*
X73371428Y-29352142D01*
X73371428Y-29352142D02*
X73085713Y-29495000D01*
X73085713Y-29495000D02*
X72514285Y-29495000D01*
X72514285Y-29495000D02*
X72228571Y-29352142D01*
X72228571Y-29352142D02*
X72085713Y-29209285D01*
X72085713Y-29209285D02*
X71942856Y-28923571D01*
X167399999Y-27637857D02*
X165542856Y-27637857D01*
X165542856Y-27637857D02*
X166542856Y-28780714D01*
X166542856Y-28780714D02*
X166114285Y-28780714D01*
X166114285Y-28780714D02*
X165828571Y-28923571D01*
X165828571Y-28923571D02*
X165685713Y-29066428D01*
X165685713Y-29066428D02*
X165542856Y-29352142D01*
X165542856Y-29352142D02*
X165542856Y-30066428D01*
X165542856Y-30066428D02*
X165685713Y-30352142D01*
X165685713Y-30352142D02*
X165828571Y-30495000D01*
X165828571Y-30495000D02*
X166114285Y-30637857D01*
X166114285Y-30637857D02*
X166971428Y-30637857D01*
X166971428Y-30637857D02*
X167257142Y-30495000D01*
X167257142Y-30495000D02*
X167399999Y-30352142D01*
X119028571Y-27637857D02*
X119599999Y-27637857D01*
X119599999Y-27637857D02*
X119885713Y-27780714D01*
X119885713Y-27780714D02*
X120028571Y-27923571D01*
X120028571Y-27923571D02*
X120314285Y-28352142D01*
X120314285Y-28352142D02*
X120457142Y-28923571D01*
X120457142Y-28923571D02*
X120457142Y-30066428D01*
X120457142Y-30066428D02*
X120314285Y-30352142D01*
X120314285Y-30352142D02*
X120171428Y-30495000D01*
X120171428Y-30495000D02*
X119885713Y-30637857D01*
X119885713Y-30637857D02*
X119314285Y-30637857D01*
X119314285Y-30637857D02*
X119028571Y-30495000D01*
X119028571Y-30495000D02*
X118885713Y-30352142D01*
X118885713Y-30352142D02*
X118742856Y-30066428D01*
X118742856Y-30066428D02*
X118742856Y-29352142D01*
X118742856Y-29352142D02*
X118885713Y-29066428D01*
X118885713Y-29066428D02*
X119028571Y-28923571D01*
X119028571Y-28923571D02*
X119314285Y-28780714D01*
X119314285Y-28780714D02*
X119885713Y-28780714D01*
X119885713Y-28780714D02*
X120171428Y-28923571D01*
X120171428Y-28923571D02*
X120314285Y-29066428D01*
X120314285Y-29066428D02*
X120457142Y-29352142D01*
X104999999Y-27637857D02*
X102999999Y-27637857D01*
X102999999Y-27637857D02*
X104285713Y-30637857D01*
X150228571Y-28637857D02*
X150228571Y-30637857D01*
X150942856Y-27495000D02*
X151657142Y-29637857D01*
X151657142Y-29637857D02*
X149799999Y-29637857D01*
X182857142Y-27923571D02*
X182714285Y-27780714D01*
X182714285Y-27780714D02*
X182428571Y-27637857D01*
X182428571Y-27637857D02*
X181714285Y-27637857D01*
X181714285Y-27637857D02*
X181428571Y-27780714D01*
X181428571Y-27780714D02*
X181285713Y-27923571D01*
X181285713Y-27923571D02*
X181142856Y-28209285D01*
X181142856Y-28209285D02*
X181142856Y-28495000D01*
X181142856Y-28495000D02*
X181285713Y-28923571D01*
X181285713Y-28923571D02*
X182999999Y-30637857D01*
X182999999Y-30637857D02*
X181142856Y-30637857D01*
X26571428Y-30637857D02*
X28285714Y-30637857D01*
X27428571Y-30637857D02*
X27428571Y-27637857D01*
X27428571Y-27637857D02*
X27714285Y-28066428D01*
X27714285Y-28066428D02*
X28000000Y-28352142D01*
X28000000Y-28352142D02*
X28285714Y-28495000D01*
X25428571Y-27923571D02*
X25285714Y-27780714D01*
X25285714Y-27780714D02*
X25000000Y-27637857D01*
X25000000Y-27637857D02*
X24285714Y-27637857D01*
X24285714Y-27637857D02*
X24000000Y-27780714D01*
X24000000Y-27780714D02*
X23857142Y-27923571D01*
X23857142Y-27923571D02*
X23714285Y-28209285D01*
X23714285Y-28209285D02*
X23714285Y-28495000D01*
X23714285Y-28495000D02*
X23857142Y-28923571D01*
X23857142Y-28923571D02*
X25571428Y-30637857D01*
X25571428Y-30637857D02*
X23714285Y-30637857D01*
D10*
X143850114Y-25113687D02*
X143850114Y-39113687D01*
X140050114Y-25113687D02*
X143850114Y-25113687D01*
X140050114Y-25113687D02*
X140050114Y-39113687D01*
X140050114Y-39113687D02*
X143850114Y-39113687D01*
X81450114Y-25113687D02*
X81450114Y-39113687D01*
X77650114Y-25113687D02*
X81450114Y-25113687D01*
X77650114Y-25113687D02*
X77650114Y-39113687D01*
X77650114Y-39113687D02*
X81450114Y-39113687D01*
X190650114Y-25113687D02*
X190650114Y-39113687D01*
X186850114Y-25113687D02*
X190650114Y-25113687D01*
X186850114Y-25113687D02*
X186850114Y-39113687D01*
X186850114Y-39113687D02*
X190650114Y-39113687D01*
X159450114Y-25113687D02*
X159450114Y-39113687D01*
X155650114Y-25113687D02*
X159450114Y-25113687D01*
X155650114Y-25113687D02*
X155650114Y-39113687D01*
X155650114Y-39113687D02*
X159450114Y-39113687D01*
X128250114Y-25113687D02*
X128250114Y-39113687D01*
X124450114Y-25113687D02*
X128250114Y-25113687D01*
X124450114Y-25113687D02*
X124450114Y-39113687D01*
X124450114Y-39113687D02*
X128250114Y-39113687D01*
X34650114Y-25113687D02*
X34650114Y-39113687D01*
X30850114Y-25113687D02*
X34650114Y-25113687D01*
X30850114Y-25113687D02*
X30850114Y-39113687D01*
X30850114Y-39113687D02*
X34650114Y-39113687D01*
X50250114Y-25113687D02*
X50250114Y-39113687D01*
X46450114Y-25113687D02*
X50250114Y-25113687D01*
X46450114Y-25113687D02*
X46450114Y-39113687D01*
X46450114Y-39113687D02*
X50250114Y-39113687D01*
X112650114Y-25113687D02*
X112650114Y-39113687D01*
X108850114Y-25113687D02*
X112650114Y-25113687D01*
X108850114Y-25113687D02*
X108850114Y-39113687D01*
X108850114Y-39113687D02*
X112650114Y-39113687D01*
X175050114Y-25113687D02*
X175050114Y-39113687D01*
X171250114Y-25113687D02*
X175050114Y-25113687D01*
X171250114Y-25113687D02*
X171250114Y-39113687D01*
X171250114Y-39113687D02*
X175050114Y-39113687D01*
X65850114Y-25113687D02*
X65850114Y-39113687D01*
X62050114Y-25113687D02*
X65850114Y-25113687D01*
X62050114Y-25113687D02*
X62050114Y-39113687D01*
X62050114Y-39113687D02*
X65850114Y-39113687D01*
X206250114Y-25113687D02*
X206250114Y-39113687D01*
X202450114Y-25113687D02*
X206250114Y-25113687D01*
X202450114Y-25113687D02*
X202450114Y-39113687D01*
X202450114Y-39113687D02*
X206250114Y-39113687D01*
X97050114Y-25113687D02*
X97050114Y-39113687D01*
X93250114Y-25113687D02*
X97050114Y-25113687D01*
X93250114Y-25113687D02*
X93250114Y-39113687D01*
X93250114Y-39113687D02*
X97050114Y-39113687D01*
M02*
