G04 #@! TF.GenerationSoftware,KiCad,Pcbnew,7.0.2-0*
G04 #@! TF.CreationDate,2023-11-08T10:18:56-05:00*
G04 #@! TF.ProjectId,blade12_1-12,626c6164-6531-4325-9f31-2d31322e6b69,rev?*
G04 #@! TF.SameCoordinates,Original*
G04 #@! TF.FileFunction,Paste,Bot*
G04 #@! TF.FilePolarity,Positive*
%FSLAX46Y46*%
G04 Gerber Fmt 4.6, Leading zero omitted, Abs format (unit mm)*
G04 Created by KiCad (PCBNEW 7.0.2-0) date 2023-11-08 10:18:56*
%MOMM*%
%LPD*%
G01*
G04 APERTURE LIST*
G04 Aperture macros list*
%AMRoundRect*
0 Rectangle with rounded corners*
0 $1 Rounding radius*
0 $2 $3 $4 $5 $6 $7 $8 $9 X,Y pos of 4 corners*
0 Add a 4 corners polygon primitive as box body*
4,1,4,$2,$3,$4,$5,$6,$7,$8,$9,$2,$3,0*
0 Add four circle primitives for the rounded corners*
1,1,$1+$1,$2,$3*
1,1,$1+$1,$4,$5*
1,1,$1+$1,$6,$7*
1,1,$1+$1,$8,$9*
0 Add four rect primitives between the rounded corners*
20,1,$1+$1,$2,$3,$4,$5,0*
20,1,$1+$1,$4,$5,$6,$7,0*
20,1,$1+$1,$6,$7,$8,$9,0*
20,1,$1+$1,$8,$9,$2,$3,0*%
G04 Aperture macros list end*
%ADD10RoundRect,0.475000X-1.025000X0.475000X-1.025000X-0.475000X1.025000X-0.475000X1.025000X0.475000X0*%
G04 APERTURE END LIST*
D10*
X141750114Y-27113687D03*
X141750114Y-29613687D03*
X141750114Y-32113687D03*
X141750114Y-34613687D03*
X141750114Y-37113687D03*
X79350114Y-27113687D03*
X79350114Y-29613687D03*
X79350114Y-32113687D03*
X79350114Y-34613687D03*
X79350114Y-37113687D03*
X188550114Y-27113687D03*
X188550114Y-29613687D03*
X188550114Y-32113687D03*
X188550114Y-34613687D03*
X188550114Y-37113687D03*
X157350114Y-27113687D03*
X157350114Y-29613687D03*
X157350114Y-32113687D03*
X157350114Y-34613687D03*
X157350114Y-37113687D03*
X126150114Y-27113687D03*
X126150114Y-29613687D03*
X126150114Y-32113687D03*
X126150114Y-34613687D03*
X126150114Y-37113687D03*
X32550114Y-27113687D03*
X32550114Y-29613687D03*
X32550114Y-32113687D03*
X32550114Y-34613687D03*
X32550114Y-37113687D03*
X48150114Y-27113687D03*
X48150114Y-29613687D03*
X48150114Y-32113687D03*
X48150114Y-34613687D03*
X48150114Y-37113687D03*
X110550114Y-27113687D03*
X110550114Y-29613687D03*
X110550114Y-32113687D03*
X110550114Y-34613687D03*
X110550114Y-37113687D03*
X172950114Y-27113687D03*
X172950114Y-29613687D03*
X172950114Y-32113687D03*
X172950114Y-34613687D03*
X172950114Y-37113687D03*
X63750114Y-27113687D03*
X63750114Y-29613687D03*
X63750114Y-32113687D03*
X63750114Y-34613687D03*
X63750114Y-37113687D03*
X204150114Y-27113687D03*
X204150114Y-29613687D03*
X204150114Y-32113687D03*
X204150114Y-34613687D03*
X204150114Y-37113687D03*
X94950114Y-27113687D03*
X94950114Y-29613687D03*
X94950114Y-32113687D03*
X94950114Y-34613687D03*
X94950114Y-37113687D03*
M02*
