G04 #@! TF.GenerationSoftware,KiCad,Pcbnew,7.0.2-0*
G04 #@! TF.CreationDate,2023-11-08T10:23:17-05:00*
G04 #@! TF.ProjectId,blade13_13-25,626c6164-6531-4335-9f31-332d32352e6b,rev?*
G04 #@! TF.SameCoordinates,Original*
G04 #@! TF.FileFunction,Legend,Bot*
G04 #@! TF.FilePolarity,Positive*
%FSLAX46Y46*%
G04 Gerber Fmt 4.6, Leading zero omitted, Abs format (unit mm)*
G04 Created by KiCad (PCBNEW 7.0.2-0) date 2023-11-08 10:23:17*
%MOMM*%
%LPD*%
G01*
G04 APERTURE LIST*
%ADD10C,0.120000*%
%ADD11C,0.500000*%
G04 APERTURE END LIST*
D10*
X121750000Y-37000000D02*
G75*
G03*
X121750000Y-37000000I-2950000J0D01*
G01*
X215350000Y-37000000D02*
G75*
G03*
X215350000Y-37000000I-2950000J0D01*
G01*
X74950000Y-37000000D02*
G75*
G03*
X74950000Y-37000000I-2950000J0D01*
G01*
X28150000Y-37000000D02*
G75*
G03*
X28150000Y-37000000I-2950000J0D01*
G01*
X168550000Y-37000000D02*
G75*
G03*
X168550000Y-37000000I-2950000J0D01*
G01*
D11*
X213771428Y-30637857D02*
X215485714Y-30637857D01*
X214628571Y-30637857D02*
X214628571Y-27637857D01*
X214628571Y-27637857D02*
X214914285Y-28066428D01*
X214914285Y-28066428D02*
X215200000Y-28352142D01*
X215200000Y-28352142D02*
X215485714Y-28495000D01*
X212771428Y-27637857D02*
X210914285Y-27637857D01*
X210914285Y-27637857D02*
X211914285Y-28780714D01*
X211914285Y-28780714D02*
X211485714Y-28780714D01*
X211485714Y-28780714D02*
X211200000Y-28923571D01*
X211200000Y-28923571D02*
X211057142Y-29066428D01*
X211057142Y-29066428D02*
X210914285Y-29352142D01*
X210914285Y-29352142D02*
X210914285Y-30066428D01*
X210914285Y-30066428D02*
X211057142Y-30352142D01*
X211057142Y-30352142D02*
X211200000Y-30495000D01*
X211200000Y-30495000D02*
X211485714Y-30637857D01*
X211485714Y-30637857D02*
X212342857Y-30637857D01*
X212342857Y-30637857D02*
X212628571Y-30495000D01*
X212628571Y-30495000D02*
X212771428Y-30352142D01*
X106285714Y-27923571D02*
X106142857Y-27780714D01*
X106142857Y-27780714D02*
X105857143Y-27637857D01*
X105857143Y-27637857D02*
X105142857Y-27637857D01*
X105142857Y-27637857D02*
X104857143Y-27780714D01*
X104857143Y-27780714D02*
X104714285Y-27923571D01*
X104714285Y-27923571D02*
X104571428Y-28209285D01*
X104571428Y-28209285D02*
X104571428Y-28495000D01*
X104571428Y-28495000D02*
X104714285Y-28923571D01*
X104714285Y-28923571D02*
X106428571Y-30637857D01*
X106428571Y-30637857D02*
X104571428Y-30637857D01*
X102714285Y-27637857D02*
X102428571Y-27637857D01*
X102428571Y-27637857D02*
X102142857Y-27780714D01*
X102142857Y-27780714D02*
X102000000Y-27923571D01*
X102000000Y-27923571D02*
X101857142Y-28209285D01*
X101857142Y-28209285D02*
X101714285Y-28780714D01*
X101714285Y-28780714D02*
X101714285Y-29495000D01*
X101714285Y-29495000D02*
X101857142Y-30066428D01*
X101857142Y-30066428D02*
X102000000Y-30352142D01*
X102000000Y-30352142D02*
X102142857Y-30495000D01*
X102142857Y-30495000D02*
X102428571Y-30637857D01*
X102428571Y-30637857D02*
X102714285Y-30637857D01*
X102714285Y-30637857D02*
X103000000Y-30495000D01*
X103000000Y-30495000D02*
X103142857Y-30352142D01*
X103142857Y-30352142D02*
X103285714Y-30066428D01*
X103285714Y-30066428D02*
X103428571Y-29495000D01*
X103428571Y-29495000D02*
X103428571Y-28780714D01*
X103428571Y-28780714D02*
X103285714Y-28209285D01*
X103285714Y-28209285D02*
X103142857Y-27923571D01*
X103142857Y-27923571D02*
X103000000Y-27780714D01*
X103000000Y-27780714D02*
X102714285Y-27637857D01*
X151371428Y-30637857D02*
X153085714Y-30637857D01*
X152228571Y-30637857D02*
X152228571Y-27637857D01*
X152228571Y-27637857D02*
X152514285Y-28066428D01*
X152514285Y-28066428D02*
X152800000Y-28352142D01*
X152800000Y-28352142D02*
X153085714Y-28495000D01*
X150371428Y-27637857D02*
X148371428Y-27637857D01*
X148371428Y-27637857D02*
X149657142Y-30637857D01*
X75085714Y-27923571D02*
X74942857Y-27780714D01*
X74942857Y-27780714D02*
X74657143Y-27637857D01*
X74657143Y-27637857D02*
X73942857Y-27637857D01*
X73942857Y-27637857D02*
X73657143Y-27780714D01*
X73657143Y-27780714D02*
X73514285Y-27923571D01*
X73514285Y-27923571D02*
X73371428Y-28209285D01*
X73371428Y-28209285D02*
X73371428Y-28495000D01*
X73371428Y-28495000D02*
X73514285Y-28923571D01*
X73514285Y-28923571D02*
X75228571Y-30637857D01*
X75228571Y-30637857D02*
X73371428Y-30637857D01*
X72228571Y-27923571D02*
X72085714Y-27780714D01*
X72085714Y-27780714D02*
X71800000Y-27637857D01*
X71800000Y-27637857D02*
X71085714Y-27637857D01*
X71085714Y-27637857D02*
X70800000Y-27780714D01*
X70800000Y-27780714D02*
X70657142Y-27923571D01*
X70657142Y-27923571D02*
X70514285Y-28209285D01*
X70514285Y-28209285D02*
X70514285Y-28495000D01*
X70514285Y-28495000D02*
X70657142Y-28923571D01*
X70657142Y-28923571D02*
X72371428Y-30637857D01*
X72371428Y-30637857D02*
X70514285Y-30637857D01*
X43885714Y-27923571D02*
X43742857Y-27780714D01*
X43742857Y-27780714D02*
X43457143Y-27637857D01*
X43457143Y-27637857D02*
X42742857Y-27637857D01*
X42742857Y-27637857D02*
X42457143Y-27780714D01*
X42457143Y-27780714D02*
X42314285Y-27923571D01*
X42314285Y-27923571D02*
X42171428Y-28209285D01*
X42171428Y-28209285D02*
X42171428Y-28495000D01*
X42171428Y-28495000D02*
X42314285Y-28923571D01*
X42314285Y-28923571D02*
X44028571Y-30637857D01*
X44028571Y-30637857D02*
X42171428Y-30637857D01*
X39600000Y-28637857D02*
X39600000Y-30637857D01*
X40314285Y-27495000D02*
X41028571Y-29637857D01*
X41028571Y-29637857D02*
X39171428Y-29637857D01*
X90685714Y-27923571D02*
X90542857Y-27780714D01*
X90542857Y-27780714D02*
X90257143Y-27637857D01*
X90257143Y-27637857D02*
X89542857Y-27637857D01*
X89542857Y-27637857D02*
X89257143Y-27780714D01*
X89257143Y-27780714D02*
X89114285Y-27923571D01*
X89114285Y-27923571D02*
X88971428Y-28209285D01*
X88971428Y-28209285D02*
X88971428Y-28495000D01*
X88971428Y-28495000D02*
X89114285Y-28923571D01*
X89114285Y-28923571D02*
X90828571Y-30637857D01*
X90828571Y-30637857D02*
X88971428Y-30637857D01*
X86114285Y-30637857D02*
X87828571Y-30637857D01*
X86971428Y-30637857D02*
X86971428Y-27637857D01*
X86971428Y-27637857D02*
X87257142Y-28066428D01*
X87257142Y-28066428D02*
X87542857Y-28352142D01*
X87542857Y-28352142D02*
X87828571Y-28495000D01*
X182571428Y-30637857D02*
X184285714Y-30637857D01*
X183428571Y-30637857D02*
X183428571Y-27637857D01*
X183428571Y-27637857D02*
X183714285Y-28066428D01*
X183714285Y-28066428D02*
X184000000Y-28352142D01*
X184000000Y-28352142D02*
X184285714Y-28495000D01*
X179857142Y-27637857D02*
X181285714Y-27637857D01*
X181285714Y-27637857D02*
X181428571Y-29066428D01*
X181428571Y-29066428D02*
X181285714Y-28923571D01*
X181285714Y-28923571D02*
X181000000Y-28780714D01*
X181000000Y-28780714D02*
X180285714Y-28780714D01*
X180285714Y-28780714D02*
X180000000Y-28923571D01*
X180000000Y-28923571D02*
X179857142Y-29066428D01*
X179857142Y-29066428D02*
X179714285Y-29352142D01*
X179714285Y-29352142D02*
X179714285Y-30066428D01*
X179714285Y-30066428D02*
X179857142Y-30352142D01*
X179857142Y-30352142D02*
X180000000Y-30495000D01*
X180000000Y-30495000D02*
X180285714Y-30637857D01*
X180285714Y-30637857D02*
X181000000Y-30637857D01*
X181000000Y-30637857D02*
X181285714Y-30495000D01*
X181285714Y-30495000D02*
X181428571Y-30352142D01*
X135771428Y-30637857D02*
X137485714Y-30637857D01*
X136628571Y-30637857D02*
X136628571Y-27637857D01*
X136628571Y-27637857D02*
X136914285Y-28066428D01*
X136914285Y-28066428D02*
X137200000Y-28352142D01*
X137200000Y-28352142D02*
X137485714Y-28495000D01*
X134057142Y-28923571D02*
X134342857Y-28780714D01*
X134342857Y-28780714D02*
X134485714Y-28637857D01*
X134485714Y-28637857D02*
X134628571Y-28352142D01*
X134628571Y-28352142D02*
X134628571Y-28209285D01*
X134628571Y-28209285D02*
X134485714Y-27923571D01*
X134485714Y-27923571D02*
X134342857Y-27780714D01*
X134342857Y-27780714D02*
X134057142Y-27637857D01*
X134057142Y-27637857D02*
X133485714Y-27637857D01*
X133485714Y-27637857D02*
X133200000Y-27780714D01*
X133200000Y-27780714D02*
X133057142Y-27923571D01*
X133057142Y-27923571D02*
X132914285Y-28209285D01*
X132914285Y-28209285D02*
X132914285Y-28352142D01*
X132914285Y-28352142D02*
X133057142Y-28637857D01*
X133057142Y-28637857D02*
X133200000Y-28780714D01*
X133200000Y-28780714D02*
X133485714Y-28923571D01*
X133485714Y-28923571D02*
X134057142Y-28923571D01*
X134057142Y-28923571D02*
X134342857Y-29066428D01*
X134342857Y-29066428D02*
X134485714Y-29209285D01*
X134485714Y-29209285D02*
X134628571Y-29495000D01*
X134628571Y-29495000D02*
X134628571Y-30066428D01*
X134628571Y-30066428D02*
X134485714Y-30352142D01*
X134485714Y-30352142D02*
X134342857Y-30495000D01*
X134342857Y-30495000D02*
X134057142Y-30637857D01*
X134057142Y-30637857D02*
X133485714Y-30637857D01*
X133485714Y-30637857D02*
X133200000Y-30495000D01*
X133200000Y-30495000D02*
X133057142Y-30352142D01*
X133057142Y-30352142D02*
X132914285Y-30066428D01*
X132914285Y-30066428D02*
X132914285Y-29495000D01*
X132914285Y-29495000D02*
X133057142Y-29209285D01*
X133057142Y-29209285D02*
X133200000Y-29066428D01*
X133200000Y-29066428D02*
X133485714Y-28923571D01*
X120171428Y-30637857D02*
X121885714Y-30637857D01*
X121028571Y-30637857D02*
X121028571Y-27637857D01*
X121028571Y-27637857D02*
X121314285Y-28066428D01*
X121314285Y-28066428D02*
X121600000Y-28352142D01*
X121600000Y-28352142D02*
X121885714Y-28495000D01*
X118742857Y-30637857D02*
X118171428Y-30637857D01*
X118171428Y-30637857D02*
X117885714Y-30495000D01*
X117885714Y-30495000D02*
X117742857Y-30352142D01*
X117742857Y-30352142D02*
X117457142Y-29923571D01*
X117457142Y-29923571D02*
X117314285Y-29352142D01*
X117314285Y-29352142D02*
X117314285Y-28209285D01*
X117314285Y-28209285D02*
X117457142Y-27923571D01*
X117457142Y-27923571D02*
X117600000Y-27780714D01*
X117600000Y-27780714D02*
X117885714Y-27637857D01*
X117885714Y-27637857D02*
X118457142Y-27637857D01*
X118457142Y-27637857D02*
X118742857Y-27780714D01*
X118742857Y-27780714D02*
X118885714Y-27923571D01*
X118885714Y-27923571D02*
X119028571Y-28209285D01*
X119028571Y-28209285D02*
X119028571Y-28923571D01*
X119028571Y-28923571D02*
X118885714Y-29209285D01*
X118885714Y-29209285D02*
X118742857Y-29352142D01*
X118742857Y-29352142D02*
X118457142Y-29495000D01*
X118457142Y-29495000D02*
X117885714Y-29495000D01*
X117885714Y-29495000D02*
X117600000Y-29352142D01*
X117600000Y-29352142D02*
X117457142Y-29209285D01*
X117457142Y-29209285D02*
X117314285Y-28923571D01*
X166971428Y-30637857D02*
X168685714Y-30637857D01*
X167828571Y-30637857D02*
X167828571Y-27637857D01*
X167828571Y-27637857D02*
X168114285Y-28066428D01*
X168114285Y-28066428D02*
X168400000Y-28352142D01*
X168400000Y-28352142D02*
X168685714Y-28495000D01*
X164400000Y-27637857D02*
X164971428Y-27637857D01*
X164971428Y-27637857D02*
X165257142Y-27780714D01*
X165257142Y-27780714D02*
X165400000Y-27923571D01*
X165400000Y-27923571D02*
X165685714Y-28352142D01*
X165685714Y-28352142D02*
X165828571Y-28923571D01*
X165828571Y-28923571D02*
X165828571Y-30066428D01*
X165828571Y-30066428D02*
X165685714Y-30352142D01*
X165685714Y-30352142D02*
X165542857Y-30495000D01*
X165542857Y-30495000D02*
X165257142Y-30637857D01*
X165257142Y-30637857D02*
X164685714Y-30637857D01*
X164685714Y-30637857D02*
X164400000Y-30495000D01*
X164400000Y-30495000D02*
X164257142Y-30352142D01*
X164257142Y-30352142D02*
X164114285Y-30066428D01*
X164114285Y-30066428D02*
X164114285Y-29352142D01*
X164114285Y-29352142D02*
X164257142Y-29066428D01*
X164257142Y-29066428D02*
X164400000Y-28923571D01*
X164400000Y-28923571D02*
X164685714Y-28780714D01*
X164685714Y-28780714D02*
X165257142Y-28780714D01*
X165257142Y-28780714D02*
X165542857Y-28923571D01*
X165542857Y-28923571D02*
X165685714Y-29066428D01*
X165685714Y-29066428D02*
X165828571Y-29352142D01*
X198171428Y-30637857D02*
X199885714Y-30637857D01*
X199028571Y-30637857D02*
X199028571Y-27637857D01*
X199028571Y-27637857D02*
X199314285Y-28066428D01*
X199314285Y-28066428D02*
X199600000Y-28352142D01*
X199600000Y-28352142D02*
X199885714Y-28495000D01*
X195600000Y-28637857D02*
X195600000Y-30637857D01*
X196314285Y-27495000D02*
X197028571Y-29637857D01*
X197028571Y-29637857D02*
X195171428Y-29637857D01*
X28285714Y-27923571D02*
X28142857Y-27780714D01*
X28142857Y-27780714D02*
X27857143Y-27637857D01*
X27857143Y-27637857D02*
X27142857Y-27637857D01*
X27142857Y-27637857D02*
X26857143Y-27780714D01*
X26857143Y-27780714D02*
X26714285Y-27923571D01*
X26714285Y-27923571D02*
X26571428Y-28209285D01*
X26571428Y-28209285D02*
X26571428Y-28495000D01*
X26571428Y-28495000D02*
X26714285Y-28923571D01*
X26714285Y-28923571D02*
X28428571Y-30637857D01*
X28428571Y-30637857D02*
X26571428Y-30637857D01*
X23857142Y-27637857D02*
X25285714Y-27637857D01*
X25285714Y-27637857D02*
X25428571Y-29066428D01*
X25428571Y-29066428D02*
X25285714Y-28923571D01*
X25285714Y-28923571D02*
X25000000Y-28780714D01*
X25000000Y-28780714D02*
X24285714Y-28780714D01*
X24285714Y-28780714D02*
X24000000Y-28923571D01*
X24000000Y-28923571D02*
X23857142Y-29066428D01*
X23857142Y-29066428D02*
X23714285Y-29352142D01*
X23714285Y-29352142D02*
X23714285Y-30066428D01*
X23714285Y-30066428D02*
X23857142Y-30352142D01*
X23857142Y-30352142D02*
X24000000Y-30495000D01*
X24000000Y-30495000D02*
X24285714Y-30637857D01*
X24285714Y-30637857D02*
X25000000Y-30637857D01*
X25000000Y-30637857D02*
X25285714Y-30495000D01*
X25285714Y-30495000D02*
X25428571Y-30352142D01*
X59485714Y-27923571D02*
X59342857Y-27780714D01*
X59342857Y-27780714D02*
X59057143Y-27637857D01*
X59057143Y-27637857D02*
X58342857Y-27637857D01*
X58342857Y-27637857D02*
X58057143Y-27780714D01*
X58057143Y-27780714D02*
X57914285Y-27923571D01*
X57914285Y-27923571D02*
X57771428Y-28209285D01*
X57771428Y-28209285D02*
X57771428Y-28495000D01*
X57771428Y-28495000D02*
X57914285Y-28923571D01*
X57914285Y-28923571D02*
X59628571Y-30637857D01*
X59628571Y-30637857D02*
X57771428Y-30637857D01*
X56771428Y-27637857D02*
X54914285Y-27637857D01*
X54914285Y-27637857D02*
X55914285Y-28780714D01*
X55914285Y-28780714D02*
X55485714Y-28780714D01*
X55485714Y-28780714D02*
X55200000Y-28923571D01*
X55200000Y-28923571D02*
X55057142Y-29066428D01*
X55057142Y-29066428D02*
X54914285Y-29352142D01*
X54914285Y-29352142D02*
X54914285Y-30066428D01*
X54914285Y-30066428D02*
X55057142Y-30352142D01*
X55057142Y-30352142D02*
X55200000Y-30495000D01*
X55200000Y-30495000D02*
X55485714Y-30637857D01*
X55485714Y-30637857D02*
X56342857Y-30637857D01*
X56342857Y-30637857D02*
X56628571Y-30495000D01*
X56628571Y-30495000D02*
X56771428Y-30352142D01*
D10*
X65850114Y-25113687D02*
X65850114Y-39113687D01*
X62050114Y-25113687D02*
X65850114Y-25113687D01*
X62050114Y-25113687D02*
X62050114Y-39113687D01*
X62050114Y-39113687D02*
X65850114Y-39113687D01*
X159450114Y-25113687D02*
X159450114Y-39113687D01*
X155650114Y-25113687D02*
X159450114Y-25113687D01*
X155650114Y-25113687D02*
X155650114Y-39113687D01*
X155650114Y-39113687D02*
X159450114Y-39113687D01*
X97050114Y-25113687D02*
X97050114Y-39113687D01*
X93250114Y-25113687D02*
X97050114Y-25113687D01*
X93250114Y-25113687D02*
X93250114Y-39113687D01*
X93250114Y-39113687D02*
X97050114Y-39113687D01*
X206250114Y-25113687D02*
X206250114Y-39113687D01*
X202450114Y-25113687D02*
X206250114Y-25113687D01*
X202450114Y-25113687D02*
X202450114Y-39113687D01*
X202450114Y-39113687D02*
X206250114Y-39113687D01*
X175050114Y-25113687D02*
X175050114Y-39113687D01*
X171250114Y-25113687D02*
X175050114Y-25113687D01*
X171250114Y-25113687D02*
X171250114Y-39113687D01*
X171250114Y-39113687D02*
X175050114Y-39113687D01*
X143850114Y-25113687D02*
X143850114Y-39113687D01*
X140050114Y-25113687D02*
X143850114Y-25113687D01*
X140050114Y-25113687D02*
X140050114Y-39113687D01*
X140050114Y-39113687D02*
X143850114Y-39113687D01*
X34650114Y-25113687D02*
X34650114Y-39113687D01*
X30850114Y-25113687D02*
X34650114Y-25113687D01*
X30850114Y-25113687D02*
X30850114Y-39113687D01*
X30850114Y-39113687D02*
X34650114Y-39113687D01*
X50250114Y-25113687D02*
X50250114Y-39113687D01*
X46450114Y-25113687D02*
X50250114Y-25113687D01*
X46450114Y-25113687D02*
X46450114Y-39113687D01*
X46450114Y-39113687D02*
X50250114Y-39113687D01*
X128250114Y-25113687D02*
X128250114Y-39113687D01*
X124450114Y-25113687D02*
X128250114Y-25113687D01*
X124450114Y-25113687D02*
X124450114Y-39113687D01*
X124450114Y-39113687D02*
X128250114Y-39113687D01*
X190650114Y-25113687D02*
X190650114Y-39113687D01*
X186850114Y-25113687D02*
X190650114Y-25113687D01*
X186850114Y-25113687D02*
X186850114Y-39113687D01*
X186850114Y-39113687D02*
X190650114Y-39113687D01*
X81450114Y-25113687D02*
X81450114Y-39113687D01*
X77650114Y-25113687D02*
X81450114Y-25113687D01*
X77650114Y-25113687D02*
X77650114Y-39113687D01*
X77650114Y-39113687D02*
X81450114Y-39113687D01*
X221850114Y-25113687D02*
X221850114Y-39113687D01*
X218050114Y-25113687D02*
X221850114Y-25113687D01*
X218050114Y-25113687D02*
X218050114Y-39113687D01*
X218050114Y-39113687D02*
X221850114Y-39113687D01*
X112650114Y-25113687D02*
X112650114Y-39113687D01*
X108850114Y-25113687D02*
X112650114Y-25113687D01*
X108850114Y-25113687D02*
X108850114Y-39113687D01*
X108850114Y-39113687D02*
X112650114Y-39113687D01*
M02*
