0
SECTION
2
HEADER
9
$INSUNITS
70
4
9
$ACADVER
1
AC1014
9
$HANDSEED
5
FFFF
0
ENDSEC
0
SECTION
2
TABLES
0
TABLE
2
VPORT
5
8
100
AcDbSymbolTable
0
ENDTAB
0
TABLE
2
LTYPE
5
5
100
AcDbSymbolTable
0
LTYPE
5
14
100
AcDbSymbolTableRecord
100
AcDbLinetypeTableRecord
2
BYBLOCK
70
0
0
LTYPE
5
15
100
AcDbSymbolTableRecord
100
AcDbLinetypeTableRecord
2
BYLAYER
70
0
0
ENDTAB
0
TABLE
2
LAYER
5
2
100
AcDbSymbolTable
70
2
0
LAYER
5
50
100
AcDbSymbolTableRecord
100
AcDbLayerTableRecord
2
0
70
0
6
CONTINUOUS
0
ENDTAB
0
TABLE
2
STYLE
5
3
100
AcDbSymbolTable
70
1
0
STYLE
5
11
100
AcDbSymbolTableRecord
100
AcDbTextStyleTableRecord
2
STANDARD
70
0
0
ENDTAB
0
TABLE
2
VIEW
5
6
100
AcDbSymbolTable
70
0
0
ENDTAB
0
TABLE
2
UCS
5
7
100
AcDbSymbolTable
70
0
0
ENDTAB
0
TABLE
2
APPID
5
9
100
AcDbSymbolTable
70
2
0
APPID
5
12
100
AcDbSymbolTableRecord
100
AcDbRegAppTableRecord
2
ACAD
70
0
0
ENDTAB
0
TABLE
2
DIMSTYLE
5
A
100
AcDbSymbolTable
70
1
0
ENDTAB
0
TABLE
2
BLOCK_RECORD
5
1
100
AcDbSymbolTable
70
1
0
BLOCK_RECORD
5
1F
100
AcDbSymbolTableRecord
100
AcDbBlockTableRecord
2
*MODEL_SPACE
0
BLOCK_RECORD
5
1B
100
AcDbSymbolTableRecord
100
AcDbBlockTableRecord
2
*PAPER_SPACE
0
ENDTAB
0
ENDSEC
0
SECTION
2
BLOCKS
0
BLOCK
5
20
100
AcDbEntity
100
AcDbBlockBegin
2
*MODEL_SPACE
0
ENDBLK
5
21
100
AcDbEntity
100
AcDbBlockEnd
0
BLOCK
5
1C
100
AcDbEntity
100
AcDbBlockBegin
2
*PAPER_SPACE
0
ENDBLK
5
1D
100
AcDbEntity
100
AcDbBlockEnd
0
ENDSEC
0
SECTION
2
ENTITIES
0
CIRCLE
5
100
100
AcDbEntity
8
0
100
AcDbCircle
10
-47.375801714263872
20
-9.568665929149887
30
0
40
1.5000000000000036
210
0
220
0
230
1
0
CIRCLE
5
101
100
AcDbEntity
8
0
100
AcDbCircle
10
-13.380355820797245
20
-10.125145623701986
30
0
40
1.5000000000000013
210
0
220
0
230
1
0
CIRCLE
5
102
100
AcDbEntity
8
0
100
AcDbCircle
10
-54.407892478380298
20
-0.54451327025590479
30
0
40
1.5000000000000036
210
0
220
0
230
1
0
CIRCLE
5
103
100
AcDbEntity
8
0
100
AcDbCircle
10
-6.056674794994219
20
-1.3359860731716506
30
0
40
1.5000000000000002
210
0
220
0
230
1
0
CIRCLE
5
104
100
AcDbEntity
8
0
100
AcDbCircle
10
-29.999999999999996
20
13.250000000009571
30
0
40
1.4999999999999991
210
0
220
0
230
1
0
CIRCLE
5
105
100
AcDbEntity
8
0
100
AcDbCircle
10
-4
20
15.999999999998348
30
0
40
1.5000000000000002
210
0
220
0
230
1
0
CIRCLE
5
106
100
AcDbEntity
8
0
100
AcDbCircle
10
41.284271247461184
20
4.0000000000015801
30
0
40
1.4999999999999947
210
0
220
0
230
1
0
CIRCLE
5
107
100
AcDbEntity
8
0
100
AcDbCircle
10
-70
20
-7.5735931288083975
30
0
40
1.5000000000000036
210
0
220
0
230
1
0
CIRCLE
5
108
100
AcDbEntity
8
0
100
AcDbCircle
10
-63.343145750507617
20
-30.999999999999996
30
0
40
1.5000000000000036
210
0
220
0
230
1
0
CIRCLE
5
109
100
AcDbEntity
8
0
100
AcDbCircle
10
-63.835762729501546
20
32.000000000003553
30
0
40
1.4999999999999947
210
0
220
0
230
1
0
CIRCLE
5
110
100
AcDbEntity
8
0
100
AcDbCircle
10
-71
20
-23.343145750507613
30
0
40
1.5000000000000036
210
0
220
0
230
1
0
LWPOLYLINE
5
111
100
AcDbEntity
8
0
100
AcDbPolyline
90
12
70
1
43
0.0
10
0
20
19.999999999998348
10
8.8817841970012523e-15
20
-34.999999999999986
10
-65
20
-34.999999999999993
10
-74.999999999999986
20
-25.000000000000007
10
-75
20
-2.573593128808398
10
-85.60660171779702
20
8.0330085889885172
10
-85.6066017178089
20
22.175144212708261
10
-72.781745930518028
20
35.000000000003517
10
19.999999999999666
20
34.999999999998373
42
-0.35000111041851711
10
63.874821936957673
20
1.915134717478395e-12
10
19.999999999999645
20
1.5831780331154732e-12
10
19.999999999999648
20
19.999999999998348
0
LWPOLYLINE
5
112
100
AcDbEntity
8
0
100
AcDbPolyline
90
10
70
1
43
0.0
10
-77.808504678940238
20
0.23491155013179776
42
-0.19891236737964807
10
-79.419417382414238
20
4.1239988466575772
10
-79.41941738241448
20
9.4671445971658628
42
-0.19891236737964865
10
-77.808504678940835
20
13.356231893691785
10
-70.582368286317745
20
20.582368286316122
42
-0.19891236737965798
10
-40.000000000000142
20
33.249999999997527
10
-38.547660498667582
20
33.249999999997513
42
0.2436556798362785
10
-51.268018348295605
20
17.803448751951439
42
0.1004239154086522
10
-61.213203435592561
20
11.213203435590964
10
-74.999999999994671
20
-2.5735931288135339
0
LWPOLYLINE
5
113
100
AcDbEntity
8
0
100
AcDbPolyline
90
8
70
1
43
0.0
10
-36.519202405241018
20
33.999999999997513
42
-0.076250573934292673
10
-29.999999999998572
20
35.000000000009578
10
-40.000000000000135
20
34.999999999997485
42
0.19891236737965801
10
-71.819805153394768
20
21.819805153393169
10
-85.606601717796281
20
8.0330085889880785
10
-84.899494936609742
20
7.3259018078015492
10
-71.112698372207618
20
21.112698372206033
42
-0.1989123673796579
10
-40.000000000000142
20
33.999999999997506
0
LWPOLYLINE
5
114
100
AcDbEntity
8
0
100
AcDbPolyline
90
14
70
1
43
0.0
10
-72.281992832444516
20
11.460682658624346
10
-74.035617649786531
20
13.214307475966372
10
-73.724490666065705
20
13.525434459687208
10
-73.944797764468746
20
13.745741558054995
42
0.17415236169429024
10
-73.535398644271964
20
14.725097803042512
10
-73.874380600943027
20
15.064079759713573
10
-72.839882203515998
20
16.098578157140611
10
-72.281992832444445
20
15.986166058216611
10
-68.74645892651256
20
19.521699964148496
10
-66.483717226716465
20
17.258958264352394
10
-68.463616214038055
20
15.2790592770308
10
-68.02167447579636
20
13.953234062306219
10
-68.976268630398337
20
12.99863990770425
10
-70.302093845122911
20
13.440581645945944
0
LINE
5
115
100
AcDbEntity
8
0
100
AcDbLine
10
-69.453565707699141
20
13.652713680301707
30
0
11
-69.983895793589085
21
14.183043766191654
31
0
0
LINE
5
116
100
AcDbEntity
8
0
100
AcDbLine
10
-69.983895793589085
20
14.183043766191654
30
0
11
-69.20607833428376
21
14.960861225496975
31
0
0
LINE
5
117
100
AcDbEntity
8
0
100
AcDbLine
10
-69.20607833428376
20
14.960861225496975
30
0
11
-68.675748248393816
21
14.43053113960703
31
0
0
ARC
5
118
100
AcDbEntity
8
0
100
AcDbCircle
10
-68.711103587453195
20
14.395175800547666
30
0
40
0.049999999060007273
210
-0
220
0
230
1
100
AcDbArc
50
-44.999530174668557
51
44.999999999988482
0
LINE
5
119
100
AcDbEntity
8
0
100
AcDbLine
10
-68.675747959145994
20
14.35982075206794
30
0
11
-69.100012027192065
21
14.78408482011403
31
0
0
LINE
5
120
100
AcDbEntity
8
0
100
AcDbLine
10
-69.100012027192065
20
14.78408482011403
30
0
11
-69.807118808378661
21
14.076978038927439
31
0
0
LINE
5
121
100
AcDbEntity
8
0
100
AcDbLine
10
-69.807118808378661
20
14.076978038927439
30
0
11
-69.382854734729676
21
13.652713965278412
31
0
0
ARC
5
122
100
AcDbEntity
8
0
100
AcDbCircle
10
-69.418210368639777
20
13.68806901936107
30
0
40
0.050000000000052024
210
0
220
0
230
1
100
AcDbArc
50
224.99999999999855
51
315.00046982523111
0
LINE
5
123
100
AcDbEntity
8
0
100
AcDbLine
10
-77.808504678940835
20
13.356231893691785
30
0
11
-70.582368286317745
21
20.582368286316139
31
0
0
LINE
5
124
100
AcDbEntity
8
0
100
AcDbLine
10
-67.59855856513353
20
9.9165523943032863
30
0
11
-68.486041219510952
21
9.0290697399258804
31
0
0
ARC
5
125
100
AcDbEntity
8
0
100
AcDbCircle
10
-68.398365796364075
20
9.2631915462069259
30
0
40
0.25000000000056383
210
0
220
0
230
1
100
AcDbArc
50
249.46976023296054
51
314.99999999999972
0
LINE
5
126
100
AcDbEntity
8
0
100
AcDbLine
10
-68.221589100798738
20
9.0864148506415869
30
0
11
-67.903391162670545
21
8.7682169125133829
31
0
0
ARC
5
127
100
AcDbEntity
8
0
100
AcDbCircle
10
-67.726614467372798
20
8.5914402172156557
30
0
40
0.25000000000154921
210
0
220
0
230
1
100
AcDbArc
50
135.00000000000318
51
314.99999999999972
0
LINE
5
128
100
AcDbEntity
8
0
100
AcDbLine
10
-67.549837771807461
20
8.4146635216503167
30
0
11
-66.984152347127392
21
8.9803489468692188
31
0
0
ARC
5
129
100
AcDbEntity
8
0
100
AcDbCircle
10
-67.160929042423319
20
9.1571256421651483
30
0
40
0.2499999999989978
210
-0
220
0
230
1
100
AcDbArc
50
-45.000000000000306
51
134.99999999999972
0
LINE
5
130
100
AcDbEntity
8
0
100
AcDbLine
10
-67.337705737988657
20
9.3339023377304873
30
0
11
-67.65590367611685
21
9.6521002758586931
31
0
0
ARC
5
131
100
AcDbEntity
8
0
100
AcDbCircle
10
-67.832680371414412
20
9.8288769711565944
30
0
40
0.25000000000154132
210
-0
220
0
230
1
100
AcDbArc
50
-45.00000000005496
51
20.530239767012926
0
LWPOLYLINE
5
132
100
AcDbEntity
8
0
100
AcDbPolyline
90
8
70
1
43
0.0
10
-66.718274266544114
20
10.796836692892722
10
-65.830791612166109
20
11.684319347270012
42
-0.29398528197376433
10
-65.888136723150382
20
11.419867228825172
10
-65.569938784752765
20
11.10166929042756
42
-0.99999999999999989
10
-65.216385394160895
20
10.748115899835696
10
-65.782070819108412
20
10.18243047488459
42
-0.99999999999999989
10
-66.135624209703877
20
10.535983865480043
10
-66.453822148100542
20
10.854181803876715
42
-0.29398528197377022
0
LINE
5
133
100
AcDbEntity
8
0
100
AcDbLine
10
-64.06302465920129
20
13.452086300235528
30
0
11
-64.950507313577802
21
12.56460364585902
31
0
0
ARC
5
134
100
AcDbEntity
8
0
100
AcDbCircle
10
-64.86283189043094
20
12.798725452140065
30
0
40
0.25000000000056383
210
0
220
0
230
1
100
AcDbArc
50
249.46976023296358
51
314.99999999999972
0
LINE
5
135
100
AcDbEntity
8
0
100
AcDbLine
10
-64.686055194865602
20
12.621948756574726
30
0
11
-64.367857256737395
21
12.303750818446522
31
0
0
ARC
5
136
100
AcDbEntity
8
0
100
AcDbCircle
10
-64.191080561439662
20
12.126974123148795
30
0
40
0.25000000000154293
210
0
220
0
230
1
100
AcDbArc
50
135.00000000000085
51
314.99999999999943
0
LINE
5
137
100
AcDbEntity
8
0
100
AcDbLine
10
-64.014303865874325
20
11.950197427583454
30
0
11
-63.448618441195144
21
12.515882852801459
31
0
0
ARC
5
138
100
AcDbEntity
8
0
100
AcDbCircle
10
-63.625395136491072
20
12.692659548097392
30
0
40
0.24999999999899936
210
-0
220
0
230
1
100
AcDbArc
50
-45.00000000000086
51
134.99999999999943
0
LINE
5
139
100
AcDbEntity
8
0
100
AcDbLine
10
-63.802171832056409
20
12.869436243662733
30
0
11
-64.12036977018461
21
13.187634181790935
31
0
0
ARC
5
140
100
AcDbEntity
8
0
100
AcDbCircle
10
-64.297146465482342
20
13.364410877088662
30
0
40
0.25000000000154293
210
-0
220
0
230
1
100
AcDbArc
50
-44.999999999999133
51
20.530239767036598
0
LWPOLYLINE
5
141
100
AcDbEntity
8
0
100
AcDbPolyline
90
7
70
1
43
0.0
10
-64.503818437383572
20
15.279059475019503
10
-65.06950386233234
20
14.713374050070732
10
-65.210925218569983
20
14.854795406308375
10
-66.94333660266696
20
13.122384022211399
10
-68.011461772082896
20
14.190509191627342
10
-68.371889166581028
20
15.271791375121662
10
-66.434219752033371
20
17.209460789669311
0
CIRCLE
5
142
100
AcDbEntity
8
0
100
AcDbCircle
10
-67.120113266144216
20
14.925506119782741
30
0
40
0.79999991892000355
210
-0
220
0
230
1
0
LWPOLYLINE
5
143
100
AcDbEntity
8
0
100
AcDbPolyline
90
7
70
1
43
0.0
10
-68.14541801047622
20
11.920302614402139
10
-69.877829394574093
20
10.187891230304267
10
-69.73640803833645
20
10.046469874066625
10
-70.302093463285217
20
9.4807844491178539
10
-72.232494777935031
20
11.411185763767666
10
-70.294825363386479
20
13.348855178316212
10
-69.213543179892156
20
12.988427783818084
0
CIRCLE
5
144
100
AcDbEntity
8
0
100
AcDbCircle
10
-69.948540108047737
20
12.097079277879235
30
0
40
0.79999991892000355
210
-0
220
0
230
1
0
LINE
5
145
100
AcDbEntity
8
0
100
AcDbLine
10
-49.786195123205339
20
-4.0741227785599108
30
0
11
-49.667255289904055
21
3.1919333006758075
31
0
0
ARC
5
146
100
AcDbEntity
8
0
100
AcDbCircle
10
-47.900562185595852
20
8.4004643292088659
30
0
40
5.5000000000001634
210
0
220
0
230
1
100
AcDbArc
50
233.49519889545772
51
251.26346449566185
0
ARC
5
147
100
AcDbEntity
8
0
100
AcDbCircle
10
-54.56333179743838
20
-0.60217423398533421
30
0
40
5.6999999999999957
210
0
220
-0
230
1
100
AcDbArc
50
53.495198895457548
51
164.06219525253806
0
LINE
5
148
100
AcDbEntity
8
0
100
AcDbLine
10
-60.044225719333738
20
0.96301004172491411
30
0
11
-60.097086650913532
21
0.77790394073882063
31
0
0
ARC
5
149
100
AcDbEntity
8
0
100
AcDbCircle
10
-54.616192729018216
20
-0.78728033497143279
30
0
40
5.6999999999999691
210
0
220
0
230
1
100
AcDbArc
50
164.06219525253789
51
209.06219525253803
0
LINE
5
150
100
AcDbEntity
8
0
100
AcDbLine
10
-59.598522403315798
20
-3.5561051789464853
30
0
11
-52.973267292613386
21
-15.477843460684413
31
0
0
LINE
5
151
100
AcDbEntity
8
0
100
AcDbLine
10
-52.973267292613386
20
-15.477843460684413
30
0
11
-49.973669140003743
21
-15.526944609967003
31
0
0
LINE
5
152
100
AcDbEntity
8
0
100
AcDbLine
10
-49.973669140003743
20
-15.526944609967003
30
0
11
-49.92657294008464
21
-12.64982917913982
31
0
0
ARC
5
153
100
AcDbEntity
8
0
100
AcDbCircle
10
-47.375801878154661
20
-9.568665926467121
30
0
40
4.0000000000000036
210
0
220
0
230
1
100
AcDbArc
50
230.38001080673828
51
317.65257669292356
0
LINE
5
154
100
AcDbEntity
8
0
100
AcDbLine
10
-44.419506701975337
20
-12.263163807575744
30
0
11
-44.33290042133315
21
-6.9723703492892097
31
0
0
ARC
5
155
100
AcDbEntity
8
0
100
AcDbCircle
10
-47.375801878154661
20
-9.568665926467121
30
0
40
4.0000000000000044
210
0
220
-0
230
1
100
AcDbArc
50
40.471813812152291
51
63.39329347154608
0
SPLINE
5
156
100
AcDbEntity
8
0
100
AcDbSpline
70
0
71
3
72
14
73
10
74
0
42
0.000000001
43
0.0000000001
44
0.0000000001
40
0
40
0
40
0
40
0
40
0.19506396940972995
40
0.19506396940972995
40
0.34110920129377231
40
0.34110920129377231
40
0.45189480607576304
40
0.45189480607576304
40
0.45267619698310851
40
0.45267619698310851
40
0.45267619698310851
40
0.45267619698310851
10
-45.58434689338555
20
-5.992258645752865
30
0
10
-46.165703727053867
20
-5.7010517121296065
30
0
10
-46.719987085936566
20
-5.3276560833169579
30
0
10
-47.674491987566569
20
-4.7519403778975278
30
0
10
-48.084149363612894
20
-4.5267573464152342
30
0
10
-48.869299204169238
20
-4.2303080300726394
30
0
10
-49.286293716412175
20
-4.113022431894553
30
0
10
-49.779288497552436
20
-4.0746476831020226
30
0
10
-49.782741650048415
20
-4.0743831251395619
30
0
10
-49.786195123205339
20
-4.0741227785599126
30
0
0
CIRCLE
5
157
100
AcDbEntity
8
0
100
AcDbCircle
10
-54.407892478380298
20
-0.54451327025590479
30
0
40
2.7499999999999991
210
-0
220
0
230
1
0
CIRCLE
5
158
100
AcDbEntity
8
0
100
AcDbCircle
10
-47.375801714263872
20
-9.568665929149887
30
0
40
2.75
210
-0
220
0
230
1
0
LWPOLYLINE
5
159
100
AcDbEntity
8
0
100
AcDbPolyline
90
8
70
1
43
0.0
10
-37.119271665699415
20
-3.2841607271022659
42
-0.41421356237309576
10
-37.389869715772512
20
-2.6308792446640785
10
-36.241819418677245
20
0.14075935286977259
42
-0.41421356237309509
10
-35.588537936239057
20
0.41135740294287038
10
-35.126598169983417
20
0.22001568676032668
42
-0.41421356237309537
10
-34.85600011991032
20
-0.43326579567786017
10
-36.004050417005587
20
-3.2049043932117116
42
-0.41421356237309515
10
-36.657331899443776
20
-3.4755024432848094
0
LWPOLYLINE
5
160
100
AcDbEntity
8
0
100
AcDbPolyline
90
8
70
1
43
0.0
10
-42.904698756654426
20
0.69885463394839153
42
-0.41421356237309492
10
-42.904698756654426
20
1.4059614151349378
10
-40.783378413094781
20
3.5272817586945786
42
-0.41421356237309087
10
-40.076271631908249
20
3.5272817586945751
10
-39.722718241314972
20
3.1737283681012984
42
-0.41421356237309331
10
-39.722718241314972
20
2.4666215869147541
10
-41.844038584874603
20
0.3453012433551173
42
-0.4142135623730942
10
-42.551145366061149
20
0.34530124335511769
0
LWPOLYLINE
5
161
100
AcDbEntity
8
0
100
AcDbPolyline
90
8
70
1
43
0.0
10
-46.725502443294324
20
6.5926681005657972
42
-0.41421356237309581
10
-46.454904393221227
20
7.2459495830039833
10
-43.683265795687383
20
8.3939998800992495
42
-0.41421356237309154
10
-43.029984313249201
20
8.1234018300261503
10
-42.838642597066652
20
7.6614620637705126
42
-0.41421356237310081
10
-43.109240647139757
20
7.0081805813323186
10
-45.880879244673594
20
5.860130284237056
42
-0.41421356237309659
10
-46.534160727111782
20
6.1307283343101506
0
LWPOLYLINE
5
162
100
AcDbEntity
8
0
100
AcDbPolyline
90
8
70
1
43
0.0
10
-47.999999999999872
20
13.50000000000958
42
-0.41421356237309509
10
-47.499999999999872
20
14.000000000009578
10
-44.499999999999893
20
14.000000000009576
42
-0.41421356237309509
10
-43.999999999999901
20
13.500000000009578
10
-43.999999999999901
20
13.00000000000958
42
-0.41421356237309509
10
-44.499999999999893
20
12.500000000009582
10
-47.499999999999872
20
12.500000000009582
42
-0.41421356237309509
10
-47.999999999999872
20
13.00000000000958
0
LWPOLYLINE
5
163
100
AcDbEntity
8
0
100
AcDbPolyline
90
8
70
1
43
0.0
10
-46.534160727111768
20
20.369271665709
42
-0.41421356237309509
10
-45.880879244673586
20
20.639869715782101
10
-43.109240647139728
20
19.491819418686838
42
-0.41421356237309687
10
-42.838642597066638
20
18.838537936248649
10
-43.029984313249187
20
18.376598169993009
42
-0.41421356237309448
10
-43.683265795687369
20
18.106000119919909
10
-46.454904393221206
20
19.254050417015176
42
-0.41421356237309792
10
-46.725502443294303
20
19.907331899453364
0
LWPOLYLINE
5
164
100
AcDbEntity
8
0
100
AcDbPolyline
90
8
70
1
43
0.0
10
-42.551145366061114
20
26.15469875666404
42
-0.41421356237309509
10
-41.844038584874568
20
26.15469875666404
10
-39.722718241314936
20
24.033378413104401
42
-0.41421356237309132
10
-39.722718241314951
20
23.326271631917859
10
-40.07627163190822
20
22.972718241324582
42
-0.41421356237308954
10
-40.783378413094759
20
22.972718241324586
10
-42.904698756654383
20
25.09403858488422
42
-0.41421356237309509
10
-42.904698756654383
20
25.801145366070767
0
LWPOLYLINE
5
165
100
AcDbEntity
8
0
100
AcDbPolyline
90
8
70
1
43
0.0
10
-36.657331899443719
20
29.975502443303974
42
-0.41421356237309509
10
-36.004050417005537
20
29.704904393230876
10
-34.856000119910277
20
26.933265795697018
42
-0.41421356237309409
10
-35.126598169983374
20
26.279984313258833
10
-35.588537936239021
20
26.088642597076294
42
-0.4142135623730917
10
-36.241819418677196
20
26.359240647149388
10
-37.389869715772463
20
29.130879244683243
42
-0.41421356237309409
10
-37.119271665699365
20
29.784160727121428
0
LWPOLYLINE
5
166
100
AcDbEntity
8
0
100
AcDbPolyline
90
8
70
1
43
0.0
10
-29.749999999999972
20
31.250000000009528
42
-0.41421356237309509
10
-29.249999999999972
20
30.750000000009532
10
-29.249999999999975
20
27.750000000009543
42
-0.41421356237309509
10
-29.749999999999975
20
27.250000000009543
10
-30.249999999999972
20
27.250000000009543
42
-0.41421356237309509
10
-30.749999999999972
20
27.750000000009543
10
-30.749999999999964
20
30.750000000009532
42
-0.41421356237309509
10
-30.249999999999968
20
31.250000000009528
0
LWPOLYLINE
5
167
100
AcDbEntity
8
0
100
AcDbPolyline
90
8
70
1
43
0.0
10
-22.880728334300578
20
29.784160727121424
42
-0.41421356237309509
10
-22.610130284227484
20
29.130879244683236
10
-23.758180581322748
20
26.359240647149388
42
-0.41421356237309509
10
-24.411462063760933
20
26.088642597076294
10
-24.873401830016576
20
26.279984313258833
42
-0.41421356237309509
10
-25.143999880089673
20
26.933265795697018
10
-23.995949582994406
20
29.704904393230869
42
-0.41421356237309509
10
-23.342668100556221
20
29.975502443303967
0
LWPOLYLINE
5
168
100
AcDbEntity
8
0
100
AcDbPolyline
90
8
70
1
43
0.0
10
-17.095301243345574
20
25.801145366070763
42
-0.41421356237309592
10
-17.095301243345574
20
25.09403858488422
10
-19.216621586905205
20
22.972718241324582
42
-0.41421356237308954
10
-19.923728368091741
20
22.972718241324586
10
-20.277281758685017
20
23.326271631917859
42
-0.41421356237309509
10
-20.277281758685014
20
24.033378413104405
10
-18.155961415125383
20
26.154698756664043
42
-0.41421356237309226
10
-17.448854633938844
20
26.15469875666404
0
LWPOLYLINE
5
169
100
AcDbEntity
8
0
100
AcDbPolyline
90
8
70
1
43
0.0
10
-13.274497556705661
20
19.907331899453354
42
-0.41421356237309631
10
-13.545095606778762
20
19.254050417015172
10
-16.316734204312603
20
18.106000119919901
42
-0.41421356237309209
10
-16.970015686750784
20
18.376598169992999
10
-17.161357402933326
20
18.838537936248642
42
-0.41421356237309792
10
-16.890759352860229
20
19.491819418686831
10
-14.119120755326389
20
20.639869715782098
42
-0.41421356237309387
10
-13.465839272888205
20
20.369271665709
0
LWPOLYLINE
5
170
100
AcDbEntity
8
0
100
AcDbPolyline
90
8
70
1
43
0.0
10
-12.00000000000011
20
13.00000000000958
42
-0.41421356237309509
10
-12.500000000000108
20
12.500000000009582
10
-15.500000000000087
20
12.500000000009583
42
-0.41421356237309637
10
-16.000000000000085
20
13.00000000000958
10
-16.000000000000089
20
13.500000000009578
42
-0.41421356237309509
10
-15.500000000000089
20
14.000000000009576
10
-12.50000000000011
20
14.000000000009576
42
-0.41421356237309637
10
-12.000000000000114
20
13.50000000000958
0
LWPOLYLINE
5
171
100
AcDbEntity
8
0
100
AcDbPolyline
90
8
70
1
43
0.0
10
-13.465839272888223
20
6.1307283343101577
42
-0.41421356237309426
10
-14.119120755326408
20
5.8601302842370622
10
-16.890759352860247
20
7.0081805813323284
42
-0.41421356237309676
10
-17.161357402933341
20
7.6614620637705153
10
-16.970015686750799
20
8.1234018300261575
42
-0.4142135623730942
10
-16.316734204312613
20
8.393999880099253
10
-13.545095606778776
20
7.2459495830039886
42
-0.41421356237309587
10
-13.274497556705679
20
6.5926681005658008
0
LWPOLYLINE
5
172
100
AcDbEntity
8
0
100
AcDbPolyline
90
8
70
1
43
0.0
10
-17.448854633938875
20
0.34530124335512308
42
-0.41421356237309337
10
-18.155961415125418
20
0.34530124335511891
10
-20.277281758685042
20
2.4666215869147572
42
-0.4142135623730947
10
-20.277281758685042
20
3.1737283681013029
10
-19.923728368091769
20
3.5272817586945768
42
-0.41421356237309043
10
-19.21662158690523
20
3.5272817586945782
10
-17.095301243345602
20
1.4059614151349362
42
-0.41421356237309576
10
-17.09530124334561
20
0.69885463394839231
0
LWPOLYLINE
5
173
100
AcDbEntity
8
0
100
AcDbPolyline
90
8
70
1
43
0.0
10
-23.34266810055626
20
-3.4755024432848107
42
-0.41421356237309453
10
-23.995949582994449
20
-3.2049043932117143
10
-25.143999880089709
20
-0.43326579567786266
42
-0.41421356237309553
10
-24.873401830016611
20
0.22001568676032532
10
-24.411462063760965
20
0.41135740294286904
42
-0.41421356237309165
10
-23.758180581322783
20
0.14075935286977148
10
-22.610130284227523
20
-2.6308792446640803
42
-0.41421356237309553
10
-22.88072833430062
20
-3.284160727102269
0
LWPOLYLINE
5
174
100
AcDbEntity
8
0
100
AcDbPolyline
90
8
70
1
43
0.0
10
-30.250000000000014
20
-4.7499999999903757
42
-0.4142135623730947
10
-30.750000000000011
20
-4.2499999999903775
10
-30.750000000000007
20
-1.2499999999903866
42
-0.4142135623730957
10
-30.250000000000007
20
-0.74999999999038669
10
-29.750000000000011
20
-0.74999999999038724
42
-0.41421356237309442
10
-29.250000000000011
20
-1.2499999999903844
10
-29.250000000000014
20
-4.2499999999903757
42
-0.4142135623730957
10
-29.750000000000014
20
-4.7499999999903757
0
CIRCLE
5
175
100
AcDbEntity
8
0
100
AcDbCircle
10
-29.999999999999993
20
13.250000000009578
30
0
40
1.4999999999999967
210
0
220
-0
230
1
0
LINE
5
176
100
AcDbEntity
8
0
100
AcDbLine
10
-33.606504122137089
20
-7.4440360494662876
30
0
11
-33.410194295030792
21
-6.4571199029629867
31
0
0
ARC
5
177
100
AcDbEntity
8
0
100
AcDbCircle
10
-29.999999999999993
20
13.250000000009578
30
0
40
19.99999999999995
210
0
220
0
230
1
100
AcDbArc
50
260.18254373756679
51
268.56745626243378
0
LINE
5
178
100
AcDbEntity
8
0
100
AcDbLine
10
-30.499999999999897
20
-6.7437490231225787
30
0
11
-30.500000000000014
21
-7.7499999999903508
31
0
0
ARC
5
179
100
AcDbEntity
8
0
100
AcDbCircle
10
-30.000000000000018
20
-7.7499999999903686
30
0
40
0.49999999999999822
210
0
220
0
230
1
100
AcDbArc
50
180
51
360
0
LINE
5
180
100
AcDbEntity
8
0
100
AcDbLine
10
-29.500000000000021
20
-7.7499999999903864
30
0
11
-29.499999999999908
21
-6.7437490231225761
31
0
0
ARC
5
181
100
AcDbEntity
8
0
100
AcDbCircle
10
-29.999999999999993
20
13.250000000009578
30
0
40
19.99999999999995
210
-0
220
0
230
1
100
AcDbArc
50
271.43254373756673
51
279.81745626243367
0
LINE
5
182
100
AcDbEntity
8
0
100
AcDbLine
10
-26.589805704969063
20
-6.4571199029629547
30
0
11
-26.393495877862968
21
-7.4440360494662556
31
0
0
ARC
5
183
100
AcDbEntity
8
0
100
AcDbCircle
10
-25.903103237661348
20
-7.3464908884582076
30
0
40
0.49999999999999944
210
0
220
0
230
1
100
AcDbArc
50
-168.75000000000193
51
11.249999999998311
0
LINE
5
184
100
AcDbEntity
8
0
100
AcDbLine
10
-25.412710597459736
20
-7.2489457274501587
30
0
11
-25.609020424565809
21
-6.2620295809468152
31
0
0
ARC
5
185
100
AcDbEntity
8
0
100
AcDbCircle
10
-29.999999999999993
20
13.250000000009578
30
0
40
19.999999999999936
210
-0
220
0
230
1
100
AcDbArc
50
282.68254373756673
51
291.06745626243355
0
LINE
5
186
100
AcDbEntity
8
0
100
AcDbLine
10
-22.810663264237256
20
-5.4131572168122748
30
0
11
-22.42558768658883
21
-6.3428118989099218
31
0
0
ARC
5
187
100
AcDbEntity
8
0
100
AcDbCircle
10
-21.963647920333184
20
-6.1514701827273939
30
0
40
0.49999999999999534
210
0
220
0
230
1
100
AcDbArc
50
-157.50000000000193
51
22.499999999998291
0
LINE
5
188
100
AcDbEntity
8
0
100
AcDbLine
10
-21.501708154077541
20
-5.9601284665448651
30
0
11
-21.886783731725927
21
-5.0304737844471648
31
0
0
ARC
5
189
100
AcDbEntity
8
0
100
AcDbCircle
10
-29.999999999999993
20
13.250000000009578
30
0
40
19.999999999999929
210
-0
220
0
230
1
100
AcDbArc
50
293.93254373756668
51
302.31745626243344
0
LINE
5
190
100
AcDbEntity
8
0
100
AcDbLine
10
-19.307803002434316
20
-3.6519798652382867
30
0
11
-18.748759912739725
21
-4.488646974853614
31
0
0
ARC
5
191
100
AcDbEntity
8
0
100
AcDbCircle
10
-18.333025106588448
20
-4.2108618583438284
30
0
40
0.49999999999999567
210
0
220
0
230
1
100
AcDbArc
50
-146.25000000000182
51
33.749999999998444
0
LINE
5
192
100
AcDbEntity
8
0
100
AcDbLine
10
-17.91729030043717
20
-3.9330767418340402
30
0
11
-18.476333390131717
21
-3.0964096322186418
31
0
0
ARC
5
193
100
AcDbEntity
8
0
100
AcDbCircle
10
-29.999999999999993
20
13.250000000009578
30
0
40
19.999999999999911
210
-0
220
0
230
1
100
AcDbArc
50
305.18254373756668
51
313.56745626243338
0
LINE
5
194
100
AcDbEntity
8
0
100
AcDbLine
10
-16.215837874994673
20
-1.2412689061823379
30
0
11
-15.504310985675893
21
-1.9527957955011346
31
0
0
ARC
5
195
100
AcDbEntity
8
0
100
AcDbCircle
10
-15.150757595082611
20
-1.5992424049078791
30
0
40
0.49999999999999295
210
0
220
0
230
1
100
AcDbArc
50
-135.00000000000216
51
44.999999999998252
0
LINE
5
196
100
AcDbEntity
8
0
100
AcDbLine
10
-14.797204204489329
20
-1.2456890143146186
30
0
11
-15.508731093808063
21
-0.53416212499572047
31
0
0
ARC
5
197
100
AcDbEntity
8
0
100
AcDbCircle
10
-29.999999999999993
20
13.250000000009578
30
0
40
19.99999999999989
210
-0
220
0
230
1
100
AcDbArc
50
316.43254373756668
51
324.81745626243355
0
LINE
5
198
100
AcDbEntity
8
0
100
AcDbLine
10
-13.653590367771757
20
1.7263333901413724
30
0
11
-12.816923258156489
21
1.167290300446701
31
0
0
ARC
5
199
100
AcDbEntity
8
0
100
AcDbCircle
10
-12.539138141646671
20
1.5830251065979639
30
0
40
0.50000000000000178
210
0
220
0
230
1
100
AcDbArc
50
-123.75000000000229
51
56.249999999998501
0
LINE
5
200
100
AcDbEntity
8
0
100
AcDbLine
10
-12.261353025136859
20
1.9987599127492282
30
0
11
-13.098020134752131
21
2.5578030024439706
31
0
0
ARC
5
201
100
AcDbEntity
8
0
100
AcDbCircle
10
-29.999999999999993
20
13.250000000009578
30
0
40
19.999999999999879
210
-0
220
0
230
1
100
AcDbArc
50
327.68254373756668
51
336.0674562624335
0
LINE
5
202
100
AcDbEntity
8
0
100
AcDbLine
10
-11.719526215543279
20
5.1367837317355942
30
0
11
-10.789871533445671
21
4.7517081540870798
31
0
0
ARC
5
203
100
AcDbEntity
8
0
100
AcDbCircle
10
-10.598529817263111
20
5.2136479203427131
30
0
40
0.49999999999999678
210
0
220
0
230
1
100
AcDbArc
50
-112.50000000000206
51
67.499999999998082
0
LINE
5
204
100
AcDbEntity
8
0
100
AcDbLine
10
-10.407188101080552
20
5.675587686598349
30
0
11
-11.336842783178163
21
6.0606632642469505
31
0
0
ARC
5
205
100
AcDbEntity
8
0
100
AcDbCircle
10
-29.999999999999993
20
13.250000000009578
30
0
40
19.999999999999865
210
-0
220
0
230
1
100
AcDbArc
50
338.93254373756673
51
347.31745626243367
0
LINE
5
206
100
AcDbEntity
8
0
100
AcDbLine
10
-10.487970419043638
20
8.859020424575542
30
0
11
-9.5010542725403795
21
8.6627105974692871
31
0
0
ARC
5
207
100
AcDbEntity
8
0
100
AcDbCircle
10
-9.4035091115322942
20
9.1531032376708961
30
0
40
0.49999999999999922
210
0
220
0
230
1
100
AcDbArc
50
-101.2500000000025
51
78.749999999997513
0
LINE
5
208
100
AcDbEntity
8
0
100
AcDbLine
10
-9.3059639505242089
20
9.6434958778725068
30
0
11
-10.292880097027506
21
9.8398057049788026
31
0
0
ARC
5
209
100
AcDbEntity
8
0
100
AcDbCircle
10
-29.999999999999993
20
13.250000000009578
30
0
40
19.999999999999865
210
-0
220
0
230
1
100
AcDbArc
50
350.18254373756685
51
358.56745626243384
0
LINE
5
210
100
AcDbEntity
8
0
100
AcDbLine
10
-10.006250976867912
20
12.750000000009686
30
0
11
-9.0000000000001492
21
12.750000000009578
31
0
0
ARC
5
211
100
AcDbEntity
8
0
100
AcDbCircle
10
-9.0000000000001315
20
13.250000000009576
30
0
40
0.49999999999999822
210
0
220
0
230
1
100
AcDbArc
50
-90.000000000002032
51
89.999999999997755
0
LINE
5
212
100
AcDbEntity
8
0
100
AcDbLine
10
-9.0000000000001119
20
13.750000000009575
30
0
11
-10.006250976867921
21
13.750000000009688
31
0
0
ARC
5
213
100
AcDbEntity
8
0
100
AcDbCircle
10
-29.999999999999993
20
13.250000000009578
30
0
40
19.999999999999869
210
0
220
-0
230
1
100
AcDbArc
50
1.432543737566677
51
9.817456262433943
0
LINE
5
214
100
AcDbEntity
8
0
100
AcDbLine
10
-10.292880097027545
20
16.660194295040615
30
0
11
-9.3059639505242338
21
16.856504122146639
31
0
0
ARC
5
215
100
AcDbEntity
8
0
100
AcDbCircle
10
-9.40350911153228
20
17.346896762348258
30
0
40
0.499999999999999
210
-0
220
0
230
1
100
AcDbArc
50
-78.750000000002117
51
101.24999999999829
0
LINE
5
216
100
AcDbEntity
8
0
100
AcDbLine
10
-9.5010542725403297
20
17.837289402549878
30
0
11
-10.487970419043673
21
17.640979575443801
31
0
0
ARC
5
217
100
AcDbEntity
8
0
100
AcDbCircle
10
-29.999999999999993
20
13.250000000009578
30
0
40
19.999999999999872
210
0
220
-0
230
1
100
AcDbArc
50
12.682543737566842
51
21.067456262434028
0
LINE
5
218
100
AcDbEntity
8
0
100
AcDbLine
10
-11.336842783178243
20
20.439336735772468
30
0
11
-10.407188101080568
21
20.82441231342079
31
0
0
ARC
5
219
100
AcDbEntity
8
0
100
AcDbCircle
10
-10.598529817263092
20
21.28635207967644
30
0
40
0.49999999999999856
210
-0
220
0
230
1
100
AcDbArc
50
-67.500000000002473
51
112.49999999999736
0
LINE
5
220
100
AcDbEntity
8
0
100
AcDbLine
10
-10.789871533445615
20
21.748291845932091
30
0
11
-11.719526215543315
21
21.36321626828369
31
0
0
ARC
5
221
100
AcDbEntity
8
0
100
AcDbCircle
10
-29.999999999999993
20
13.250000000009578
30
0
40
19.999999999999886
210
0
220
-0
230
1
100
AcDbArc
50
23.932543737566874
51
32.317456262434106
0
LINE
5
222
100
AcDbEntity
8
0
100
AcDbLine
10
-13.098020134752259
20
23.94219699757544
30
0
11
-12.261353025136859
21
24.501240087269913
31
0
0
ARC
5
223
100
AcDbEntity
8
0
100
AcDbCircle
10
-12.539138141646639
20
24.916974893421191
30
0
40
0.49999999999999323
210
-0
220
0
230
1
100
AcDbArc
50
-56.250000000002409
51
123.74999999999773
0
LINE
5
224
100
AcDbEntity
8
0
100
AcDbLine
10
-12.816923258156422
20
25.332709699572472
30
0
11
-13.653590367771823
21
24.773666609877914
31
0
0
ARC
5
225
100
AcDbEntity
8
0
100
AcDbCircle
10
-29.999999999999993
20
13.250000000009578
30
0
40
19.999999999999904
210
0
220
-0
230
1
100
AcDbArc
50
35.182543737566903
51
43.567456262434114
0
LINE
5
226
100
AcDbEntity
8
0
100
AcDbLine
10
-15.508731093808237
20
27.034162125015094
30
0
11
-14.797204204489312
21
27.745689014333756
31
0
0
ARC
5
227
100
AcDbEntity
8
0
100
AcDbCircle
10
-15.150757595082574
20
28.09924240492704
30
0
40
0.50000000000000056
210
-0
220
0
230
1
100
AcDbArc
50
-45.000000000001727
51
134.99999999999741
0
LINE
5
228
100
AcDbEntity
8
0
100
AcDbLine
10
-15.504310985675829
20
28.452795795520327
30
0
11
-16.215837874994719
21
27.74126890620159
31
0
0
ARC
5
229
100
AcDbEntity
8
0
100
AcDbCircle
10
-29.999999999999993
20
13.250000000009578
30
0
40
19.999999999999929
210
0
220
-0
230
1
100
AcDbArc
50
46.432543737566888
51
54.817456262434114
0
LINE
5
230
100
AcDbEntity
8
0
100
AcDbLine
10
-18.476333390131931
20
29.596409632237975
30
0
11
-17.917290300437148
21
30.433076741853178
31
0
0
ARC
5
231
100
AcDbEntity
8
0
100
AcDbCircle
10
-18.333025106588405
20
30.710861858362996
30
0
40
0.49999999999999634
210
-0
220
0
230
1
100
AcDbArc
50
-33.750000000002686
51
146.24999999999847
0
LINE
5
232
100
AcDbEntity
8
0
100
AcDbLine
10
-18.748759912739668
20
30.988646974872808
30
0
11
-19.307803002434412
21
30.151979865257537
31
0
0
ARC
5
233
100
AcDbEntity
8
0
100
AcDbCircle
10
-29.999999999999993
20
13.250000000009578
30
0
40
19.999999999999943
210
0
220
-0
230
1
100
AcDbArc
50
57.682543737566917
51
66.067456262434021
0
LINE
5
234
100
AcDbEntity
8
0
100
AcDbLine
10
-21.886783731726148
20
31.530473784466437
30
0
11
-21.501708154077498
21
32.460128466563994
31
0
0
ARC
5
235
100
AcDbEntity
8
0
100
AcDbCircle
10
-21.963647920333138
20
32.65147018274655
30
0
40
0.50000000000000067
210
-0
220
0
230
1
100
AcDbArc
50
-22.5000000000014
51
157.49999999999758
0
LINE
5
236
100
AcDbEntity
8
0
100
AcDbLine
10
-22.42558768658877
20
32.842811898929114
30
0
11
-22.81066326423737
21
31.913157216831497
31
0
0
ARC
5
237
100
AcDbEntity
8
0
100
AcDbCircle
10
-29.999999999999993
20
13.250000000009578
30
0
40
19.99999999999995
210
0
220
-0
230
1
100
AcDbArc
50
68.932543737566832
51
77.317456262433865
0
LINE
5
238
100
AcDbEntity
8
0
100
AcDbLine
10
-25.609020424566005
20
32.762029580966029
30
0
11
-25.412710597459686
21
33.748945727469277
31
0
0
ARC
5
239
100
AcDbEntity
8
0
100
AcDbCircle
10
-25.903103237661295
20
33.846490888477362
30
0
40
0.49999999999999767
210
-0
220
0
230
1
100
AcDbArc
50
-11.250000000002506
51
168.74999999999827
0
LINE
5
240
100
AcDbEntity
8
0
100
AcDbLine
10
-26.393495877862904
20
33.94403604948544
30
0
11
-26.589805704969194
21
32.957119902982143
31
0
0
ARC
5
241
100
AcDbEntity
8
0
100
AcDbCircle
10
-29.999999999999993
20
13.250000000009578
30
0
40
19.99999999999995
210
0
220
-0
230
1
100
AcDbArc
50
80.182543737566775
51
88.567456262433751
0
LINE
5
242
100
AcDbEntity
8
0
100
AcDbLine
10
-29.500000000000082
20
33.243749023141731
30
0
11
-29.499999999999964
21
34.250000000009507
31
0
0
ARC
5
243
100
AcDbEntity
8
0
100
AcDbCircle
10
-29.999999999999964
20
34.250000000009528
30
0
40
0.49999999999999822
210
-0
220
0
230
1
100
AcDbArc
50
0
51
180
0
LINE
5
244
100
AcDbEntity
8
0
100
AcDbLine
10
-30.499999999999964
20
34.25000000000955
30
0
11
-30.500000000000078
21
33.243749023141731
31
0
0
ARC
5
245
100
AcDbEntity
8
0
100
AcDbCircle
10
-29.999999999999993
20
13.250000000009578
30
0
40
19.99999999999995
210
0
220
0
230
1
100
AcDbArc
50
91.432543737566746
51
99.817456262433609
0
LINE
5
246
100
AcDbEntity
8
0
100
AcDbLine
10
-33.410194295030919
20
32.957119902982114
30
0
11
-33.606504122137018
21
33.944036049485419
31
0
0
ARC
5
247
100
AcDbEntity
8
0
100
AcDbCircle
10
-34.096896762338638
20
33.846490888477369
30
0
40
0.49999999999999944
210
0
220
-0
230
1
100
AcDbArc
50
11.249999999998277
51
191.24999999999829
0
LINE
5
248
100
AcDbEntity
8
0
100
AcDbLine
10
-34.587289402540257
20
33.748945727469319
30
0
11
-34.39097957543418
21
32.762029580965979
31
0
0
ARC
5
249
100
AcDbEntity
8
0
100
AcDbCircle
10
-29.999999999999993
20
13.250000000009578
30
0
40
19.999999999999943
210
0
220
0
230
1
100
AcDbArc
50
102.68254373756672
51
111.06745626243351
0
LINE
5
250
100
AcDbEntity
8
0
100
AcDbLine
10
-37.189336735762723
20
31.913157216831436
30
0
11
-37.574412313411152
21
32.842811898929078
31
0
0
ARC
5
251
100
AcDbEntity
8
0
100
AcDbCircle
10
-38.036352079666798
20
32.65147018274655
30
0
40
0.49999999999999367
210
0
220
-0
230
1
100
AcDbArc
50
22.49999999999806
51
202.49999999999807
0
LINE
5
252
100
AcDbEntity
8
0
100
AcDbLine
10
-38.498291845922445
20
32.460128466564022
30
0
11
-38.113216268274051
21
31.530473784466324
31
0
0
ARC
5
253
100
AcDbEntity
8
0
100
AcDbCircle
10
-29.999999999999993
20
13.250000000009578
30
0
40
19.999999999999925
210
0
220
0
230
1
100
AcDbArc
50
113.93254373756668
51
122.31745626243338
0
LINE
5
254
100
AcDbEntity
8
0
100
AcDbLine
10
-40.692196997565645
20
30.151979865257456
30
0
11
-41.251240087260257
21
30.988646974872776
31
0
0
ARC
5
255
100
AcDbEntity
8
0
100
AcDbCircle
10
-41.666974893411535
20
30.710861858362989
30
0
40
0.49999999999999567
210
0
220
-0
230
1
100
AcDbArc
50
33.749999999998273
51
213.74999999999861
0
LINE
5
256
100
AcDbEntity
8
0
100
AcDbLine
10
-42.082709699562812
20
30.433076741853199
30
0
11
-41.523666609868272
21
29.596409632237805
31
0
0
ARC
5
257
100
AcDbEntity
8
0
100
AcDbCircle
10
-29.999999999999993
20
13.250000000009578
30
0
40
19.999999999999922
210
0
220
0
230
1
100
AcDbArc
50
125.18254373756669
51
133.56745626243344
0
LINE
5
258
100
AcDbEntity
8
0
100
AcDbLine
10
-43.784162125005317
20
27.741268906201491
30
0
11
-44.495689014324086
21
28.452795795520295
31
0
0
ARC
5
259
100
AcDbEntity
8
0
100
AcDbCircle
10
-44.849242404917369
20
28.099242404927036
30
0
40
0.49999999999999589
210
0
220
-0
230
1
100
AcDbArc
50
44.999999999997982
51
224.99999999999798
0
LINE
5
260
100
AcDbEntity
8
0
100
AcDbLine
10
-45.202795795510653
20
27.745689014333777
30
0
11
-44.491268906191912
21
27.034162125014877
31
0
0
ARC
5
261
100
AcDbEntity
8
0
100
AcDbCircle
10
-29.999999999999993
20
13.250000000009578
30
0
40
19.999999999999886
210
0
220
0
230
1
100
AcDbArc
50
136.43254373756668
51
144.8174562624335
0
LINE
5
262
100
AcDbEntity
8
0
100
AcDbLine
10
-46.346409632228223
20
24.773666609877782
30
0
11
-47.183076741843507
21
25.332709699572465
31
0
0
ARC
5
263
100
AcDbEntity
8
0
100
AcDbCircle
10
-47.460861858353319
20
24.916974893421198
30
0
40
0.50000000000000178
210
0
220
-0
230
1
100
AcDbArc
50
56.249999999998678
51
236.24999999999844
0
LINE
5
264
100
AcDbEntity
8
0
100
AcDbLine
10
-47.73864697486313
20
24.501240087269935
30
0
11
-46.90197986524786
21
23.942196997575188
31
0
0
ARC
5
265
100
AcDbEntity
8
0
100
AcDbCircle
10
-29.999999999999993
20
13.250000000009578
30
0
40
19.999999999999883
210
0
220
0
230
1
100
AcDbArc
50
147.6825437375667
51
156.06745626243347
0
LINE
5
266
100
AcDbEntity
8
0
100
AcDbLine
10
-48.280473784456703
20
21.363216268283569
30
0
11
-49.210128466554309
21
21.748291845932091
31
0
0
ARC
5
267
100
AcDbEntity
8
0
100
AcDbCircle
10
-49.401470182736873
20
21.286352079676458
30
0
40
0.49999999999999489
210
0
220
-0
230
1
100
AcDbArc
50
67.499999999997542
51
247.49999999999847
0
LINE
5
268
100
AcDbEntity
8
0
100
AcDbLine
10
-49.592811898919429
20
20.824412313420822
30
0
11
-48.663157216821816
21
20.439336735772216
31
0
0
ARC
5
269
100
AcDbEntity
8
0
100
AcDbCircle
10
-29.999999999999993
20
13.250000000009578
30
0
40
19.999999999999869
210
0
220
0
230
1
100
AcDbArc
50
158.9325437375667
51
167.31745626243364
0
LINE
5
270
100
AcDbEntity
8
0
100
AcDbLine
10
-49.512029580956344
20
17.640979575443623
30
0
11
-50.498945727459613
21
17.837289402549878
31
0
0
ARC
5
271
100
AcDbEntity
8
0
100
AcDbCircle
10
-50.596490888467684
20
17.346896762348265
30
0
40
0.49999999999999817
210
0
220
-0
230
1
100
AcDbArc
50
78.749999999999162
51
258.74999999999659
0
LINE
5
272
100
AcDbEntity
8
0
100
AcDbLine
10
-50.694036049475777
20
16.85650412214666
30
0
11
-49.707119902972472
21
16.660194295040363
31
0
0
ARC
5
273
100
AcDbEntity
8
0
100
AcDbCircle
10
-29.999999999999993
20
13.250000000009578
30
0
40
19.999999999999865
210
0
220
0
230
1
100
AcDbArc
50
170.18254373756679
51
178.56745626243381
0
LINE
5
274
100
AcDbEntity
8
0
100
AcDbLine
10
-49.993749023132068
20
13.750000000009466
30
0
11
-50.999999999999837
21
13.750000000009578
31
0
0
ARC
5
275
100
AcDbEntity
8
0
100
AcDbCircle
10
-50.999999999999858
20
13.250000000009582
30
0
40
0.49999999999999822
210
0
220
-0
230
1
100
AcDbArc
50
89.999999999997556
51
269.99999999999835
0
LINE
5
276
100
AcDbEntity
8
0
100
AcDbLine
10
-50.999999999999872
20
12.750000000009582
30
0
11
-49.993749023132068
21
12.75000000000947
31
0
0
ARC
5
277
100
AcDbEntity
8
0
100
AcDbCircle
10
-29.999999999999993
20
13.250000000009578
30
0
40
19.999999999999876
210
0
220
0
230
1
100
AcDbArc
50
181.4325437375667
51
189.81745626243395
0
LINE
5
278
100
AcDbEntity
8
0
100
AcDbLine
10
-49.707119902972437
20
9.8398057049785432
30
0
11
-50.694036049475748
21
9.6434958778725104
31
0
0
ARC
5
279
100
AcDbEntity
8
0
100
AcDbCircle
10
-50.596490888467699
20
9.1531032376708925
30
0
40
0.49999999999999944
210
0
220
0
230
1
100
AcDbArc
50
101.24999999999832
51
281.2499999999975
0
LINE
5
280
100
AcDbEntity
8
0
100
AcDbLine
10
-50.498945727459656
20
8.6627105974692746
30
0
11
-49.512029580956309
21
8.8590204245753501
31
0
0
ARC
5
281
100
AcDbEntity
8
0
100
AcDbCircle
10
-29.999999999999993
20
13.250000000009578
30
0
40
19.999999999999872
210
0
220
0
230
1
100
AcDbArc
50
192.68254373756687
51
201.06745626243409
0
LINE
5
282
100
AcDbEntity
8
0
100
AcDbLine
10
-48.663157216821737
20
6.0606632642466662
30
0
11
-49.592811898919429
21
5.6755876865983605
31
0
0
ARC
5
283
100
AcDbEntity
8
0
100
AcDbCircle
10
-49.401470182736901
20
5.2136479203427086
30
0
40
0.50000000000000211
210
0
220
0
230
1
100
AcDbArc
50
112.49999999999784
51
292.4999999999979
0
LINE
5
284
100
AcDbEntity
8
0
100
AcDbLine
10
-49.210128466554373
20
4.7517081540870576
30
0
11
-48.280473784456674
21
5.1367837317354583
31
0
0
ARC
5
285
100
AcDbEntity
8
0
100
AcDbCircle
10
-29.999999999999993
20
13.250000000009578
30
0
40
19.999999999999897
210
0
220
0
230
1
100
AcDbArc
50
203.9325437375669
51
212.31745626243406
0
LINE
5
286
100
AcDbEntity
8
0
100
AcDbLine
10
-46.901979865247725
20
2.5578030024437282
30
0
11
-47.73864697486313
21
1.9987599127492452
31
0
0
ARC
5
287
100
AcDbEntity
8
0
100
AcDbCircle
10
-47.460861858353347
20
1.5830251065979639
30
0
40
0.49999999999999611
210
0
220
0
230
1
100
AcDbArc
50
123.74999999999773
51
303.7499999999975
0
LINE
5
288
100
AcDbEntity
8
0
100
AcDbLine
10
-47.183076741843564
20
1.1672903004466795
30
0
11
-46.346409632228159
21
1.7263333901412445
31
0
0
ARC
5
289
100
AcDbEntity
8
0
100
AcDbCircle
10
-29.999999999999993
20
13.250000000009578
30
0
40
19.999999999999908
210
0
220
0
230
1
100
AcDbArc
50
215.18254373756687
51
223.56745626243409
0
LINE
5
290
100
AcDbEntity
8
0
100
AcDbLine
10
-44.491268906191749
20
-0.53416212499593829
30
0
11
-45.202795795510681
21
-1.2456890143145953
31
0
0
ARC
5
291
100
AcDbEntity
8
0
100
AcDbCircle
10
-44.849242404917419
20
-1.5992424049078835
30
0
40
0.50000000000000333
210
0
220
0
230
1
100
AcDbArc
50
134.99999999999793
51
314.99999999999795
0
LINE
5
292
100
AcDbEntity
8
0
100
AcDbLine
10
-44.495689014324157
20
-1.952795795501171
30
0
11
-43.78416212500526
21
-1.2412689061824307
31
0
0
ARC
5
293
100
AcDbEntity
8
0
100
AcDbCircle
10
-29.999999999999993
20
13.250000000009578
30
0
40
19.999999999999929
210
0
220
0
230
1
100
AcDbArc
50
226.43254373756687
51
234.81745626243409
0
LINE
5
294
100
AcDbEntity
8
0
100
AcDbLine
10
-41.523666609868059
20
-3.0964096322188173
30
0
11
-42.082709699562841
21
-3.9330767418340162
31
0
0
ARC
5
295
100
AcDbEntity
8
0
100
AcDbCircle
10
-41.666974893411592
20
-4.2108618583438329
30
0
40
0.49999999999999079
210
0
220
0
230
1
100
AcDbArc
50
146.24999999999707
51
326.2499999999979
0
LINE
5
296
100
AcDbEntity
8
0
100
AcDbLine
10
-41.251240087260328
20
-4.4886469748536504
30
0
11
-40.692196997565581
21
-3.6519798652383728
31
0
0
ARC
5
297
100
AcDbEntity
8
0
100
AcDbCircle
10
-29.999999999999993
20
13.250000000009578
30
0
40
19.999999999999943
210
0
220
0
230
1
100
AcDbArc
50
237.68254373756685
51
246.06745626243401
0
LINE
5
298
100
AcDbEntity
8
0
100
AcDbLine
10
-38.113216268273845
20
-5.0304737844472767
30
0
11
-38.498291845922495
21
-5.9601284665448322
31
0
0
ARC
5
299
100
AcDbEntity
8
0
100
AcDbCircle
10
-38.036352079666862
20
-6.1514701827273903
30
0
40
0.49999999999999489
210
0
220
0
230
1
100
AcDbArc
50
157.4999999999981
51
337.49999999999773
0
LINE
5
300
100
AcDbEntity
8
0
100
AcDbLine
10
-37.57441231341123
20
-6.342811898909952
30
0
11
-37.189336735762623
21
-5.4131572168123316
31
0
0
ARC
5
301
100
AcDbEntity
8
0
100
AcDbCircle
10
-29.999999999999993
20
13.250000000009578
30
0
40
19.999999999999947
210
0
220
0
230
1
100
AcDbArc
50
248.93254373756682
51
257.31745626243384
0
LINE
5
302
100
AcDbEntity
8
0
100
AcDbLine
10
-34.390979575433974
20
-6.2620295809468729
30
0
11
-34.5872894025403
21
-7.2489457274501268
31
0
0
ARC
5
303
100
AcDbEntity
8
0
100
AcDbCircle
10
-34.096896762338687
20
-7.3464908884582041
30
0
40
0.49999999999999634
210
0
220
0
230
1
100
AcDbArc
50
168.74999999999849
51
348.74999999999744
0
LWPOLYLINE
5
304
100
AcDbEntity
8
0
100
AcDbPolyline
90
8
70
1
43
0.0
10
-26.733570523810535
20
-4.4529076277525563
42
-0.41421356237309276
10
-27.321508325020211
20
-4.0600601485590078
10
-27.906779291068588
20
-1.1177043073493242
42
-0.41421356237309837
10
-27.513931811875029
20
-0.52976650613964726
10
-27.023539171673427
20
-0.43222134513158178
42
-0.41421356237309281
10
-26.43560137046375
20
-0.8250688243251314
10
-25.85033040441537
20
-3.7674246655348131
42
-0.41421356237309886
10
-26.243177883608926
20
-4.3553624667444915
0
LWPOLYLINE
5
305
100
AcDbEntity
8
0
100
AcDbPolyline
90
8
70
1
43
0.0
10
-20.207603208722873
20
-1.8553455796910967
42
-0.4142135623730927
10
-20.90112313138394
20
-1.7173958900496284
10
-22.567833830442737
20
0.77701294685800326
42
-0.41421356237309592
10
-22.429884140801263
20
1.4705328695190762
10
-22.014149334649993
20
1.7483179860288742
42
-0.41421356237309193
10
-21.320629411988925
20
1.6103682963874051
10
-19.653918712930128
20
-0.88404054052022385
42
-0.41421356237309637
10
-19.791868402571605
20
-1.5775604631812952
0
LWPOLYLINE
5
306
100
AcDbEntity
8
0
100
AcDbPolyline
90
8
70
1
43
0.0
10
-15.172439536809186
20
3.0418684025811289
42
-0.41421356237309365
10
-15.865959459470254
20
2.9039187129396544
10
-18.360368296377878
20
4.5706294119984578
42
-0.41421356237309592
10
-18.498317986019345
20
5.2641493346595301
10
-18.220532869509547
20
5.6798841408108016
42
-0.41421356237309215
10
-17.52701294684848
20
5.8178338304522734
10
-15.032604109940859
20
4.1511231313934696
42
-0.41421356237309592
10
-14.894654420299389
20
3.4576032087323973
0
LWPOLYLINE
5
307
100
AcDbEntity
8
0
100
AcDbPolyline
90
8
70
1
43
0.0
10
-12.394637533245998
20
9.4931778836184737
42
-0.41421356237309526
10
-12.982575334455674
20
9.1003304044249234
10
-15.924931175665344
20
9.685601370473309
42
-0.41421356237309681
10
-16.317778654858895
20
10.273539171682984
10
-16.220233493850827
20
10.763931811884596
42
-0.41421356237309509
10
-15.632295692641151
20
11.156779291078147
10
-12.689939851431483
20
10.571508325029765
42
-0.41421356237309404
10
-12.297092372237937
20
9.983570523820088
0
LWPOLYLINE
5
308
100
AcDbEntity
8
0
100
AcDbPolyline
90
8
70
1
43
0.0
10
-12.297092372237925
20
16.516429476199072
42
-0.41421356237309526
10
-12.689939851431475
20
15.928491674989395
10
-15.632295692641147
20
15.343220708941015
42
-0.41421356237309331
10
-16.22023349385082
20
15.73606818813456
10
-16.317778654858888
20
16.226460828336176
42
-0.41421356237309526
10
-15.924931175665337
20
16.814398629545853
10
-12.982575334455664
20
17.399669595594233
42
-0.41421356237309226
10
-12.394637533245991
20
17.006822116400688
0
LWPOLYLINE
5
309
100
AcDbEntity
8
0
100
AcDbPolyline
90
8
70
1
43
0.0
10
-14.894654420299362
20
23.042396791286748
42
-0.41421356237309404
10
-15.03260410994084
20
22.348876868625677
10
-17.527012946848458
20
20.68216616956688
42
-0.41421356237309537
10
-18.220532869509526
20
20.820115859208354
10
-18.49831798601932
20
21.235850665359624
42
-0.41421356237309903
10
-18.360368296377846
20
21.929370588020699
10
-15.865959459470231
20
23.5960812870795
42
-0.41421356237309431
10
-15.172439536809161
20
23.458131597438022
0
LWPOLYLINE
5
310
100
AcDbEntity
8
0
100
AcDbPolyline
90
8
70
1
43
0.0
10
-19.791868402571566
20
28.077560463200459
42
-0.41421356237309648
10
-19.653918712930096
20
27.384040540539392
10
-21.320629411988893
20
24.88963170363176
42
-0.41421356237309148
10
-22.014149334649957
20
24.751682013990287
10
-22.429884140801231
20
25.029467130500084
42
-0.41421356237309859
10
-22.567833830442705
20
25.722987053161155
10
-20.901123131383905
20
28.217395890068783
42
-0.41421356237309076
10
-20.207603208722841
20
28.35534557971026
0
LWPOLYLINE
5
311
100
AcDbEntity
8
0
100
AcDbPolyline
90
8
70
1
43
0.0
10
-26.243177883608872
20
30.855362466763644
42
-0.41421356237309509
10
-25.850330404415324
20
30.267424665553968
10
-26.435601370463711
20
27.325068824344289
42
-0.41421356237309759
10
-27.023539171673391
20
26.932221345150737
10
-27.513931811875004
20
27.029766506158804
42
-0.41421356237309248
10
-27.906779291068545
20
27.617704307368484
10
-27.321508325020165
20
30.560060148578163
42
-0.41421356237309448
10
-26.733570523810485
20
30.952907627771712
0
LWPOLYLINE
5
312
100
AcDbEntity
8
0
100
AcDbPolyline
90
8
70
1
43
0.0
10
-33.266429476189458
20
30.952907627771712
42
-0.41421356237309248
10
-32.678491674979774
20
30.560060148578167
10
-32.093220708931398
20
27.617704307368484
42
-0.41421356237310014
10
-32.48606818812496
20
27.029766506158804
10
-32.976460828326559
20
26.932221345150737
42
-0.41421356237308998
10
-33.564398629536235
20
27.325068824344282
10
-34.149669595584612
20
30.267424665553971
42
-0.41421356237309759
10
-33.756822116391056
20
30.855362466763644
0
LWPOLYLINE
5
313
100
AcDbEntity
8
0
100
AcDbPolyline
90
8
70
1
43
0.0
10
-39.792396791277106
20
28.355345579710249
42
-0.41421356237309359
10
-39.098876868616038
20
28.217395890068779
10
-37.432166169557249
20
25.722987053161155
42
-0.41421356237309648
10
-37.570115859198722
20
25.029467130500084
10
-37.985850665349986
20
24.75168201399029
42
-0.41421356237309359
10
-38.679370588011054
20
24.88963170363176
10
-40.34608128706985
20
27.384040540539388
42
-0.41421356237310086
10
-40.208131597428363
20
28.077560463200459
0
LWPOLYLINE
5
314
100
AcDbEntity
8
0
100
AcDbPolyline
90
8
70
1
43
0.0
10
-44.827560463190792
20
23.458131597438022
42
-0.41421356237309576
10
-44.134040540529725
20
23.5960812870795
10
-41.639631703622115
20
21.929370588020696
42
-0.41421356237309509
10
-41.501682013980641
20
21.235850665359628
10
-41.779467130490445
20
20.820115859208354
42
-0.41421356237309359
10
-42.472987053151513
20
20.68216616956688
10
-44.96739589005913
20
22.34887686862568
42
-0.41421356237309509
10
-45.105345579700604
20
23.042396791286748
0
LWPOLYLINE
5
315
100
AcDbEntity
8
0
100
AcDbPolyline
90
8
70
1
43
0.0
10
-47.605362466753988
20
17.006822116400691
42
-0.41421356237309448
10
-47.017424665544311
20
17.39966959559424
10
-44.075068824334636
20
16.814398629545853
42
-0.41421356237309426
10
-43.682221345141095
20
16.22646082833618
10
-43.779766506149151
20
15.736068188134563
42
-0.41421356237309448
10
-44.367704307358835
20
15.343220708941017
10
-47.31006014856851
20
15.928491674989402
42
-0.41421356237309404
10
-47.702907627762052
20
16.516429476199075
0
LWPOLYLINE
5
316
100
AcDbEntity
8
0
100
AcDbPolyline
90
8
70
1
43
0.0
10
-47.702907627762066
20
9.9835705238200809
42
-0.41421356237309553
10
-47.310060148568517
20
10.571508325029759
10
-44.367704307358835
20
11.156779291078143
42
-0.41421356237308971
10
-43.779766506149173
20
10.763931811884596
10
-43.682221345141095
20
10.273539171682984
42
-0.41421356237309437
10
-44.07506882433465
20
9.6856013704733037
10
-47.017424665544318
20
9.1003304044249234
42
-0.41421356237309515
10
-47.605362466753995
20
9.4931778836184684
0
LWPOLYLINE
5
317
100
AcDbEntity
8
0
100
AcDbPolyline
90
8
70
1
43
0.0
10
-45.105345579700618
20
3.4576032087324045
42
-0.41421356237309637
10
-44.967395890059151
20
4.1511231313934775
10
-42.472987053151527
20
5.817833830452277
42
-0.4142135623730927
10
-41.77946713049046
20
5.6798841408108078
10
-41.50168201398067
20
5.2641493346595327
42
-0.41421356237309442
10
-41.639631703622143
20
4.5706294119984605
10
-44.134040540529753
20
2.9039187129396611
42
-0.41421356237309237
10
-44.827560463190828
20
3.0418684025811293
0
LWPOLYLINE
5
318
100
AcDbEntity
8
0
100
AcDbPolyline
90
8
70
1
43
0.0
10
-40.208131597428419
20
-1.5775604631813001
42
-0.41421356237309714
10
-40.346081287069886
20
-0.88404054052022674
10
-38.679370588011096
20
1.610368296387402
42
-0.41421356237309448
10
-37.985850665350021
20
1.7483179860288753
10
-37.570115859198751
20
1.4705328695190747
42
-0.4142135623730977
10
-37.432166169557284
20
0.77701294685800115
10
-39.098876868616074
20
-1.7173958900496311
42
-0.41421356237309337
10
-39.792396791277149
20
-1.8553455796911031
0
LWPOLYLINE
5
319
100
AcDbEntity
8
0
100
AcDbPolyline
90
8
70
1
43
0.0
10
-33.756822116391113
20
-4.355362466744487
42
-0.41421356237309415
10
-34.149669595584662
20
-3.7674246655348105
10
-33.564398629536278
20
-0.82506882432512907
42
-0.41421356237309565
10
-32.976460828326594
20
-0.43222134513158006
10
-32.486068188124982
20
-0.52976650613964626
42
-0.41421356237309442
10
-32.093220708931433
20
-1.1177043073493236
10
-32.678491674979824
20
-4.0600601485590033
42
-0.41421356237309642
10
-33.266429476189501
20
-4.4529076277525546
0
CIRCLE
5
320
100
AcDbEntity
8
0
100
AcDbCircle
10
-29.999999999999996
20
13.250000000009571
30
0
40
1.4999999999999991
210
0
220
0
230
1
0
LWPOLYLINE
5
321
100
AcDbEntity
8
0
100
AcDbPolyline
90
6
70
1
43
0.0
10
-38.547660498667554
20
33.249999999997527
10
-21.452339501332457
20
33.249999999997542
42
-0.21611149672595378
10
-9.3239268718620991
20
20.00000000000172
42
-0.20096473304099086
10
-10.685174088281295
20
3.2500000000095719
10
-49.3148259117187
20
3.2500000000095763
42
-0.17388401452794
10
-51.268018348295612
20
17.803448751951429
42
-0.24365567983627923
0
LINE
5
322
100
AcDbEntity
8
0
100
AcDbLine
10
-10.931796956159388
20
-13.288144119813447
30
0
11
-10.978893156078493
21
-16.165259550640641
31
0
0
LINE
5
323
100
AcDbEntity
8
0
100
AcDbLine
10
-10.978893156078493
20
-16.165259550640641
30
0
11
-7.9792950034688666
21
-16.214360699923233
31
0
0
LINE
5
324
100
AcDbEntity
8
0
100
AcDbLine
10
-7.9792950034688666
20
-16.214360699923233
30
0
11
-0.96739434956559456
21
-4.515852326633305
31
0
0
ARC
5
325
100
AcDbEntity
8
0
100
AcDbCircle
10
-5.8564318402262945
20
-1.5854406806500607
30
0
40
5.7000000000000099
210
0
220
0
230
1
100
AcDbArc
50
-30.937804747461978
51
14.062195252538034
0
LINE
5
326
100
AcDbEntity
8
0
100
AcDbLine
10
-0.3272463305620682
20
-0.20048306407140337
30
0
11
-0.37402047143929312
21
-0.013746012432055144
31
0
0
ARC
5
327
100
AcDbEntity
8
0
100
AcDbCircle
10
-5.9032059811035165
20
-1.3987036290107153
30
0
40
5.7000000000000046
210
0
220
-0
230
1
100
AcDbArc
50
14.062195252538061
51
124.62919160961837
0
ARC
5
328
100
AcDbEntity
8
0
100
AcDbCircle
10
-12.267752150483879
20
7.8171822241140898
30
0
40
5.5000000000000018
210
-0
220
0
230
1
100
AcDbArc
50
286.86092600942089
51
304.62919160961837
0
LINE
5
329
100
AcDbEntity
8
0
100
AcDbLine
10
-10.672479305978184
20
2.5536183600023676
30
0
11
-10.791419139280087
21
-4.712437719233562
31
0
0
SPLINE
5
330
100
AcDbEntity
8
0
100
AcDbSpline
70
0
71
3
72
14
73
10
74
0
42
0.000000001
43
0.0000000001
44
0.0000000001
40
-0.0010406809614451075
40
-0.0010406809614451075
40
-0.0010406809614451075
40
-0.0010406809614451075
40
0
40
0
40
0.15692553433914291
40
0.15692553433914291
40
0.33267281488029143
40
0.33267281488029143
40
0.58657192060653118
40
0.58657192060653118
40
0.58657192060653118
40
0.58657192060653118
10
-10.791419139280078
20
-4.7124377192335656
30
0
10
-10.794884942080554
20
-4.7125851358335016
30
0
10
-10.79835056049764
20
-4.7127367858168583
30
0
10
-11.324372705303546
20
-4.7363983960827323
30
0
10
-11.775323054079418
20
-4.8530509129713062
30
0
10
-12.563458595632016
20
-5.1377709459290353
30
0
10
-12.951702785979759
20
-5.3362754729843944
30
0
10
-13.894957827414958
20
-5.8636490305303548
30
0
10
-14.462113049035326
20
-6.2194876091603355
30
0
10
-15.053796224135535
20
-6.492020630466131
30
0
0
ARC
5
331
100
AcDbEntity
8
0
100
AcDbCircle
10
-13.380355820797245
20
-10.125145623701986
30
0
40
4.0000000000000071
210
0
220
0
230
1
100
AcDbArc
50
114.73109701885093
51
137.65257669292347
0
LINE
5
332
100
AcDbEntity
8
0
100
AcDbLine
10
-16.336650996976566
20
-7.4306477425933535
30
0
11
-16.423257277618745
21
-12.7214412008799
31
0
0
ARC
5
333
100
AcDbEntity
8
0
100
AcDbCircle
10
-13.380355820797245
20
-10.125145623701986
30
0
40
4.0000000000000018
210
0
220
0
230
1
100
AcDbArc
50
220.47181381215242
51
307.74437969833804
0
CIRCLE
5
334
100
AcDbEntity
8
0
100
AcDbCircle
10
-13.380355820797245
20
-10.125145623701986
30
0
40
2.7499999999999991
210
-0
220
0
230
1
0
CIRCLE
5
335
100
AcDbEntity
8
0
100
AcDbCircle
10
-6.056674794994219
20
-1.3359860731716506
30
0
40
2.7499999999999991
210
-0
220
0
230
1
0
LINE
5
336
100
AcDbEntity
8
0
100
AcDbLine
10
-34.000362900726955
20
-17.28861648244558
30
0
11
-34.016729950487814
21
-18.288482533315456
31
0
0
LINE
5
337
100
AcDbEntity
8
0
100
AcDbLine
10
-34.000362900726955
20
-17.28861648244558
30
0
11
-34.50029592616189
21
-17.280432957565147
31
0
0
LINE
5
338
100
AcDbEntity
8
0
100
AcDbLine
10
-34.516662975922749
20
-18.280299008435023
30
0
11
-34.50029592616189
21
-17.280432957565147
31
0
0
LINE
5
339
100
AcDbEntity
8
0
100
AcDbLine
10
-34.50029592616189
20
-17.280432957565147
30
0
11
-34.000362900726955
21
-17.28861648244558
31
0
0
LINE
5
340
100
AcDbEntity
8
0
100
AcDbLine
10
-26.501367519202912
20
-17.411369355652045
30
0
11
-26.517734568963775
21
-18.411235406521921
31
0
0
LINE
5
341
100
AcDbEntity
8
0
100
AcDbLine
10
-26.501367519202912
20
-17.411369355652045
30
0
11
-27.001300544637843
21
-17.403185830771616
31
0
0
LINE
5
342
100
AcDbEntity
8
0
100
AcDbLine
10
-27.017667594398709
20
-18.403051881641488
30
0
11
-27.001300544637843
21
-17.403185830771616
31
0
0
LINE
5
343
100
AcDbEntity
8
0
100
AcDbLine
10
-27.001300544637843
20
-17.403185830771616
30
0
11
-26.501367519202912
21
-17.411369355652045
31
0
0
LWPOLYLINE
5
344
100
AcDbEntity
8
0
100
AcDbPolyline
90
4
70
1
43
0.0
10
-26.501367519202908
20
-17.411369355652045
10
-27.001300544637843
20
-17.403185830771616
10
-26.976749969996551
20
-15.903386754466801
10
-26.476816944561612
20
-15.911570279347234
0
LWPOLYLINE
5
345
100
AcDbEntity
8
0
100
AcDbPolyline
90
4
70
1
43
0.0
10
-34.000362900726955
20
-17.28861648244558
10
-34.50029592616189
20
-17.280432957565147
10
-34.475745351520587
20
-15.780633881260336
10
-33.975812326085659
20
-15.788817406140767
0
ENDSEC
0
SECTION
2
OBJECTS
0
DICTIONARY
5
C
100
AcDbDictionary
3
ACAD_GROUP
350
D
3
ACAD_MLINESTYLE
350
17
0
DICTIONARY
5
D
100
AcDbDictionary
0
DICTIONARY
5
1A
330
C
100
AcDbDictionary
0
DICTIONARY
5
17
100
AcDbDictionary
0
ENDSEC
0
EOF
