G04 #@! TF.GenerationSoftware,KiCad,Pcbnew,(5.1.12-1-10_14)*
G04 #@! TF.CreationDate,2022-01-17T12:40:03-05:00*
G04 #@! TF.ProjectId,datum,64617475-6d2e-46b6-9963-61645f706362,rev?*
G04 #@! TF.SameCoordinates,Original*
G04 #@! TF.FileFunction,Soldermask,Top*
G04 #@! TF.FilePolarity,Negative*
%FSLAX46Y46*%
G04 Gerber Fmt 4.6, Leading zero omitted, Abs format (unit mm)*
G04 Created by KiCad (PCBNEW (5.1.12-1-10_14)) date 2022-01-17 12:40:03*
%MOMM*%
%LPD*%
G01*
G04 APERTURE LIST*
%ADD10C,2.500000*%
%ADD11C,0.150000*%
%ADD12C,0.010000*%
%ADD13C,3.000000*%
%ADD14C,2.000000*%
%ADD15C,6.400000*%
%ADD16C,0.800000*%
G04 APERTURE END LIST*
D10*
X18750000Y17500000D02*
G75*
G03*
X18750000Y17500000I-1250000J0D01*
G01*
D11*
X40000000Y30000000D02*
X40000000Y29000000D01*
X40000000Y15000000D02*
X40000000Y21000000D01*
X36000000Y25000000D02*
X30000000Y25000000D01*
X44000000Y25000000D02*
X50000000Y25000000D01*
X44000000Y25000000D02*
G75*
G03*
X44000000Y25000000I-4000000J0D01*
G01*
X35000000Y30000000D02*
X35000000Y15000000D01*
X45000000Y15000000D02*
X45000000Y30000000D01*
X30000000Y20000000D02*
X50000000Y20000000D01*
X30000000Y30000000D02*
X30000000Y15000000D01*
X50000000Y30000000D02*
X30000000Y30000000D01*
X50000000Y15000000D02*
X50000000Y30000000D01*
X30000000Y15000000D02*
X50000000Y15000000D01*
X50000240Y10000500D02*
X50000240Y12000500D01*
X55000240Y10000500D02*
X55000240Y13000500D01*
X52000240Y10000500D02*
X52000240Y11000500D01*
X48000240Y10000500D02*
X48000240Y11000500D01*
X49000240Y10000500D02*
X49000240Y11000500D01*
X53000240Y10000500D02*
X53000240Y11000500D01*
X54000240Y10000500D02*
X54000240Y11000500D01*
X51000240Y10000500D02*
X51000240Y11000500D01*
X46000240Y10000500D02*
X46000240Y11000500D01*
X47000240Y10000500D02*
X47000240Y11000500D01*
X45000240Y10000500D02*
X45000240Y13000500D01*
X44000240Y10000500D02*
X44000240Y11000500D01*
X43000240Y10000500D02*
X43000240Y11000500D01*
X42000240Y10000500D02*
X42000240Y11000500D01*
X41000240Y10000500D02*
X41000240Y11000500D01*
X40000240Y10000500D02*
X40000240Y12000500D01*
X39000240Y10000500D02*
X39000240Y11000500D01*
X38000240Y10000500D02*
X38000240Y11000500D01*
X37000240Y10000500D02*
X37000240Y11000500D01*
X36000240Y10000500D02*
X36000240Y11000500D01*
X35000240Y10000500D02*
X35000240Y13000500D01*
X34000240Y10000500D02*
X34000240Y11000500D01*
X33000240Y10000500D02*
X33000240Y11000500D01*
X32000240Y10000500D02*
X32000240Y11000500D01*
X31000240Y10000500D02*
X31000240Y11000500D01*
X30000240Y10000500D02*
X30000240Y12000500D01*
X29000240Y10000500D02*
X29000240Y11000500D01*
X28000240Y10000500D02*
X28000240Y11000500D01*
X27000240Y10000500D02*
X27000240Y11000500D01*
X26000240Y10000500D02*
X26000240Y11000500D01*
X25000240Y13000500D02*
X25000240Y13000500D01*
X25000240Y10000500D02*
X25000240Y13000500D01*
D12*
G36*
X40172439Y25342195D02*
G01*
X40176389Y25162278D01*
X40356305Y25158329D01*
X40536222Y25154379D01*
X40536222Y24831510D01*
X40356305Y24827561D01*
X40176389Y24823611D01*
X40172439Y24643695D01*
X40168490Y24463778D01*
X39845621Y24463778D01*
X39841671Y24643695D01*
X39837722Y24823611D01*
X39657805Y24827561D01*
X39477889Y24831510D01*
X39477889Y25154379D01*
X39657805Y25158329D01*
X39837722Y25162278D01*
X39841671Y25342195D01*
X39845621Y25522111D01*
X40168490Y25522111D01*
X40172439Y25342195D01*
G37*
X40172439Y25342195D02*
X40176389Y25162278D01*
X40356305Y25158329D01*
X40536222Y25154379D01*
X40536222Y24831510D01*
X40356305Y24827561D01*
X40176389Y24823611D01*
X40172439Y24643695D01*
X40168490Y24463778D01*
X39845621Y24463778D01*
X39841671Y24643695D01*
X39837722Y24823611D01*
X39657805Y24827561D01*
X39477889Y24831510D01*
X39477889Y25154379D01*
X39657805Y25158329D01*
X39837722Y25162278D01*
X39841671Y25342195D01*
X39845621Y25522111D01*
X40168490Y25522111D01*
X40172439Y25342195D01*
G36*
X40169333Y27543898D02*
G01*
X40263869Y27534212D01*
X40522960Y27493539D01*
X40778270Y27424972D01*
X41029979Y27328460D01*
X41150055Y27271950D01*
X41292674Y27196349D01*
X41419534Y27118738D01*
X41537813Y27033871D01*
X41654691Y26936508D01*
X41777345Y26821403D01*
X41806554Y26792443D01*
X41926386Y26667492D01*
X42027294Y26549938D01*
X42114522Y26432602D01*
X42193312Y26308306D01*
X42268909Y26169870D01*
X42286061Y26135945D01*
X42396061Y25885908D01*
X42478089Y25632356D01*
X42532199Y25375109D01*
X42548323Y25249759D01*
X42558008Y25155222D01*
X42850444Y25155222D01*
X42850444Y24830667D01*
X42557399Y24830667D01*
X42547535Y24735417D01*
X42507659Y24478991D01*
X42441477Y24228967D01*
X42348236Y23982792D01*
X42286061Y23849945D01*
X42210460Y23707326D01*
X42132848Y23580466D01*
X42047982Y23462187D01*
X41950619Y23345309D01*
X41835514Y23222655D01*
X41806554Y23193446D01*
X41681603Y23073614D01*
X41564049Y22972706D01*
X41446713Y22885478D01*
X41322416Y22806688D01*
X41183980Y22731091D01*
X41150055Y22713939D01*
X40900019Y22603939D01*
X40646466Y22521911D01*
X40389220Y22467801D01*
X40263869Y22451677D01*
X40169333Y22441992D01*
X40169333Y22149556D01*
X39844778Y22149556D01*
X39844778Y22441992D01*
X39750241Y22451677D01*
X39491151Y22492351D01*
X39235840Y22560917D01*
X38984132Y22657430D01*
X38864055Y22713939D01*
X38721437Y22789540D01*
X38594577Y22867152D01*
X38476298Y22952018D01*
X38359420Y23049381D01*
X38236765Y23164486D01*
X38207557Y23193446D01*
X38087725Y23318397D01*
X37986817Y23435951D01*
X37899589Y23553287D01*
X37820798Y23677584D01*
X37745202Y23816020D01*
X37728050Y23849945D01*
X37618050Y24099981D01*
X37536021Y24353534D01*
X37481912Y24610780D01*
X37465788Y24736131D01*
X37456102Y24830667D01*
X37163667Y24830667D01*
X37163667Y25155222D01*
X37456102Y25155222D01*
X37794769Y25155222D01*
X39209778Y25155222D01*
X39209778Y24830667D01*
X37794769Y24830667D01*
X37804476Y24735417D01*
X37840361Y24515687D01*
X37902406Y24295433D01*
X37988889Y24078525D01*
X38098093Y23868835D01*
X38228296Y23670234D01*
X38340199Y23529142D01*
X38493404Y23371179D01*
X38668050Y23226623D01*
X38859457Y23098196D01*
X39062945Y22988617D01*
X39273835Y22900610D01*
X39487446Y22836894D01*
X39556532Y22821898D01*
X39629763Y22807671D01*
X39682120Y22798075D01*
X39720380Y22792090D01*
X39751318Y22788697D01*
X39781713Y22786875D01*
X39791861Y22786477D01*
X39844778Y22784556D01*
X39844778Y23278445D01*
X40169333Y23278445D01*
X40169333Y22780658D01*
X40264583Y22790365D01*
X40483298Y22826117D01*
X40702090Y22887665D01*
X40916909Y22972886D01*
X41123706Y23079657D01*
X41318431Y23205854D01*
X41497033Y23349355D01*
X41655463Y23508036D01*
X41673912Y23529142D01*
X41818922Y23716730D01*
X41944237Y23918349D01*
X42048139Y24130127D01*
X42128907Y24348192D01*
X42184824Y24568674D01*
X42209635Y24735417D01*
X42219342Y24830667D01*
X41721555Y24830667D01*
X41721555Y25155222D01*
X42219342Y25155222D01*
X42209635Y25250472D01*
X42173749Y25470202D01*
X42111705Y25690456D01*
X42025222Y25907364D01*
X41916018Y26117054D01*
X41785814Y26315655D01*
X41673912Y26456747D01*
X41518331Y26617203D01*
X41342063Y26762747D01*
X41149159Y26891257D01*
X40943669Y27000609D01*
X40729643Y27088681D01*
X40511131Y27153349D01*
X40292182Y27192491D01*
X40264583Y27195524D01*
X40169333Y27205231D01*
X40169333Y25790222D01*
X39844778Y25790222D01*
X39844778Y27205231D01*
X39749528Y27195524D01*
X39530813Y27159772D01*
X39312021Y27098224D01*
X39097202Y27013003D01*
X38890405Y26906233D01*
X38695680Y26780035D01*
X38517078Y26636534D01*
X38358648Y26477853D01*
X38340199Y26456747D01*
X38195189Y26269159D01*
X38069874Y26067540D01*
X37965972Y25855762D01*
X37885204Y25637697D01*
X37829287Y25417216D01*
X37804476Y25250472D01*
X37794769Y25155222D01*
X37456102Y25155222D01*
X37465788Y25249759D01*
X37506461Y25508849D01*
X37575028Y25764160D01*
X37671540Y26015868D01*
X37728050Y26135945D01*
X37803651Y26278563D01*
X37881262Y26405423D01*
X37966129Y26523702D01*
X38063492Y26640580D01*
X38178597Y26763235D01*
X38207557Y26792443D01*
X38332508Y26912275D01*
X38450062Y27013183D01*
X38567398Y27100411D01*
X38691694Y27179202D01*
X38830130Y27254798D01*
X38864055Y27271950D01*
X39114092Y27381950D01*
X39367644Y27463979D01*
X39624891Y27518088D01*
X39750241Y27534212D01*
X39844778Y27543898D01*
X39844778Y27836333D01*
X40169333Y27836333D01*
X40169333Y27543898D01*
G37*
X40169333Y27543898D02*
X40263869Y27534212D01*
X40522960Y27493539D01*
X40778270Y27424972D01*
X41029979Y27328460D01*
X41150055Y27271950D01*
X41292674Y27196349D01*
X41419534Y27118738D01*
X41537813Y27033871D01*
X41654691Y26936508D01*
X41777345Y26821403D01*
X41806554Y26792443D01*
X41926386Y26667492D01*
X42027294Y26549938D01*
X42114522Y26432602D01*
X42193312Y26308306D01*
X42268909Y26169870D01*
X42286061Y26135945D01*
X42396061Y25885908D01*
X42478089Y25632356D01*
X42532199Y25375109D01*
X42548323Y25249759D01*
X42558008Y25155222D01*
X42850444Y25155222D01*
X42850444Y24830667D01*
X42557399Y24830667D01*
X42547535Y24735417D01*
X42507659Y24478991D01*
X42441477Y24228967D01*
X42348236Y23982792D01*
X42286061Y23849945D01*
X42210460Y23707326D01*
X42132848Y23580466D01*
X42047982Y23462187D01*
X41950619Y23345309D01*
X41835514Y23222655D01*
X41806554Y23193446D01*
X41681603Y23073614D01*
X41564049Y22972706D01*
X41446713Y22885478D01*
X41322416Y22806688D01*
X41183980Y22731091D01*
X41150055Y22713939D01*
X40900019Y22603939D01*
X40646466Y22521911D01*
X40389220Y22467801D01*
X40263869Y22451677D01*
X40169333Y22441992D01*
X40169333Y22149556D01*
X39844778Y22149556D01*
X39844778Y22441992D01*
X39750241Y22451677D01*
X39491151Y22492351D01*
X39235840Y22560917D01*
X38984132Y22657430D01*
X38864055Y22713939D01*
X38721437Y22789540D01*
X38594577Y22867152D01*
X38476298Y22952018D01*
X38359420Y23049381D01*
X38236765Y23164486D01*
X38207557Y23193446D01*
X38087725Y23318397D01*
X37986817Y23435951D01*
X37899589Y23553287D01*
X37820798Y23677584D01*
X37745202Y23816020D01*
X37728050Y23849945D01*
X37618050Y24099981D01*
X37536021Y24353534D01*
X37481912Y24610780D01*
X37465788Y24736131D01*
X37456102Y24830667D01*
X37163667Y24830667D01*
X37163667Y25155222D01*
X37456102Y25155222D01*
X37794769Y25155222D01*
X39209778Y25155222D01*
X39209778Y24830667D01*
X37794769Y24830667D01*
X37804476Y24735417D01*
X37840361Y24515687D01*
X37902406Y24295433D01*
X37988889Y24078525D01*
X38098093Y23868835D01*
X38228296Y23670234D01*
X38340199Y23529142D01*
X38493404Y23371179D01*
X38668050Y23226623D01*
X38859457Y23098196D01*
X39062945Y22988617D01*
X39273835Y22900610D01*
X39487446Y22836894D01*
X39556532Y22821898D01*
X39629763Y22807671D01*
X39682120Y22798075D01*
X39720380Y22792090D01*
X39751318Y22788697D01*
X39781713Y22786875D01*
X39791861Y22786477D01*
X39844778Y22784556D01*
X39844778Y23278445D01*
X40169333Y23278445D01*
X40169333Y22780658D01*
X40264583Y22790365D01*
X40483298Y22826117D01*
X40702090Y22887665D01*
X40916909Y22972886D01*
X41123706Y23079657D01*
X41318431Y23205854D01*
X41497033Y23349355D01*
X41655463Y23508036D01*
X41673912Y23529142D01*
X41818922Y23716730D01*
X41944237Y23918349D01*
X42048139Y24130127D01*
X42128907Y24348192D01*
X42184824Y24568674D01*
X42209635Y24735417D01*
X42219342Y24830667D01*
X41721555Y24830667D01*
X41721555Y25155222D01*
X42219342Y25155222D01*
X42209635Y25250472D01*
X42173749Y25470202D01*
X42111705Y25690456D01*
X42025222Y25907364D01*
X41916018Y26117054D01*
X41785814Y26315655D01*
X41673912Y26456747D01*
X41518331Y26617203D01*
X41342063Y26762747D01*
X41149159Y26891257D01*
X40943669Y27000609D01*
X40729643Y27088681D01*
X40511131Y27153349D01*
X40292182Y27192491D01*
X40264583Y27195524D01*
X40169333Y27205231D01*
X40169333Y25790222D01*
X39844778Y25790222D01*
X39844778Y27205231D01*
X39749528Y27195524D01*
X39530813Y27159772D01*
X39312021Y27098224D01*
X39097202Y27013003D01*
X38890405Y26906233D01*
X38695680Y26780035D01*
X38517078Y26636534D01*
X38358648Y26477853D01*
X38340199Y26456747D01*
X38195189Y26269159D01*
X38069874Y26067540D01*
X37965972Y25855762D01*
X37885204Y25637697D01*
X37829287Y25417216D01*
X37804476Y25250472D01*
X37794769Y25155222D01*
X37456102Y25155222D01*
X37465788Y25249759D01*
X37506461Y25508849D01*
X37575028Y25764160D01*
X37671540Y26015868D01*
X37728050Y26135945D01*
X37803651Y26278563D01*
X37881262Y26405423D01*
X37966129Y26523702D01*
X38063492Y26640580D01*
X38178597Y26763235D01*
X38207557Y26792443D01*
X38332508Y26912275D01*
X38450062Y27013183D01*
X38567398Y27100411D01*
X38691694Y27179202D01*
X38830130Y27254798D01*
X38864055Y27271950D01*
X39114092Y27381950D01*
X39367644Y27463979D01*
X39624891Y27518088D01*
X39750241Y27534212D01*
X39844778Y27543898D01*
X39844778Y27836333D01*
X40169333Y27836333D01*
X40169333Y27543898D01*
D13*
X75000000Y5000000D03*
X5000000Y5000000D03*
D14*
X40000000Y25000000D03*
D13*
X30000000Y30000000D03*
X50000000Y30000000D03*
X50000000Y15000000D03*
X30000000Y15000000D03*
D15*
X25000000Y25000000D03*
D16*
X27400000Y25000000D03*
X26697056Y23302944D03*
X25000000Y22600000D03*
X23302944Y23302944D03*
X22600000Y25000000D03*
X23302944Y26697056D03*
X25000000Y27400000D03*
X26697056Y26697056D03*
X11697056Y11697056D03*
X10000000Y12400000D03*
X8302944Y11697056D03*
X7600000Y10000000D03*
X8302944Y8302944D03*
X10000000Y7600000D03*
X11697056Y8302944D03*
X12400000Y10000000D03*
D15*
X10000000Y10000000D03*
X70000000Y10000000D03*
D16*
X72400000Y10000000D03*
X71697056Y8302944D03*
X70000000Y7600000D03*
X68302944Y8302944D03*
X67600000Y10000000D03*
X68302944Y11697056D03*
X70000000Y12400000D03*
X71697056Y11697056D03*
X56697056Y26697056D03*
X55000000Y27400000D03*
X53302944Y26697056D03*
X52600000Y25000000D03*
X53302944Y23302944D03*
X55000000Y22600000D03*
X56697056Y23302944D03*
X57400000Y25000000D03*
D15*
X55000000Y25000000D03*
M02*
