G04 #@! TF.GenerationSoftware,KiCad,Pcbnew,5.1.9+dfsg1-1~bpo10+1*
G04 #@! TF.CreationDate,2021-04-08T10:05:47+00:00*
G04 #@! TF.ProjectId,feederFloor,66656564-6572-4466-9c6f-6f722e6b6963,rev?*
G04 #@! TF.SameCoordinates,Original*
G04 #@! TF.FileFunction,Copper,L1,Top*
G04 #@! TF.FilePolarity,Positive*
%FSLAX46Y46*%
G04 Gerber Fmt 4.6, Leading zero omitted, Abs format (unit mm)*
G04 Created by KiCad (PCBNEW 5.1.9+dfsg1-1~bpo10+1) date 2021-04-08 10:05:47*
%MOMM*%
%LPD*%
G01*
G04 APERTURE LIST*
G04 #@! TA.AperFunction,ComponentPad*
%ADD10C,5.700000*%
G04 #@! TD*
G04 #@! TA.AperFunction,ConnectorPad*
%ADD11C,10.600000*%
G04 #@! TD*
G04 #@! TA.AperFunction,SMDPad,CuDef*
%ADD12R,1.270000X2.250000*%
G04 #@! TD*
G04 #@! TA.AperFunction,SMDPad,CuDef*
%ADD13R,1.330000X0.530000*%
G04 #@! TD*
G04 #@! TA.AperFunction,ComponentPad*
%ADD14O,1.727200X1.727200*%
G04 #@! TD*
G04 #@! TA.AperFunction,ComponentPad*
%ADD15R,1.727200X1.727200*%
G04 #@! TD*
G04 #@! TA.AperFunction,ViaPad*
%ADD16C,0.800000*%
G04 #@! TD*
G04 #@! TA.AperFunction,Conductor*
%ADD17C,0.250000*%
G04 #@! TD*
G04 #@! TA.AperFunction,Conductor*
%ADD18C,1.000000*%
G04 #@! TD*
G04 #@! TA.AperFunction,Conductor*
%ADD19C,0.200000*%
G04 #@! TD*
G04 #@! TA.AperFunction,Conductor*
%ADD20C,0.254000*%
G04 #@! TD*
G04 #@! TA.AperFunction,Conductor*
%ADD21C,0.100000*%
G04 #@! TD*
G04 APERTURE END LIST*
D10*
X191700000Y-41350000D03*
D11*
X191700000Y-41350000D03*
G04 #@! TA.AperFunction,SMDPad,CuDef*
G36*
G01*
X192110000Y-50200001D02*
X192110000Y-49299999D01*
G75*
G02*
X192359999Y-49050000I249999J0D01*
G01*
X192885001Y-49050000D01*
G75*
G02*
X193135000Y-49299999I0J-249999D01*
G01*
X193135000Y-50200001D01*
G75*
G02*
X192885001Y-50450000I-249999J0D01*
G01*
X192359999Y-50450000D01*
G75*
G02*
X192110000Y-50200001I0J249999D01*
G01*
G37*
G04 #@! TD.AperFunction*
G04 #@! TA.AperFunction,SMDPad,CuDef*
G36*
G01*
X190285000Y-50200001D02*
X190285000Y-49299999D01*
G75*
G02*
X190534999Y-49050000I249999J0D01*
G01*
X191060001Y-49050000D01*
G75*
G02*
X191310000Y-49299999I0J-249999D01*
G01*
X191310000Y-50200001D01*
G75*
G02*
X191060001Y-50450000I-249999J0D01*
G01*
X190534999Y-50450000D01*
G75*
G02*
X190285000Y-50200001I0J249999D01*
G01*
G37*
G04 #@! TD.AperFunction*
D12*
X186650000Y-21543500D03*
X189190000Y-21543500D03*
X191730000Y-21550000D03*
X194270000Y-21550000D03*
X196810000Y-21550000D03*
X196810000Y-29100000D03*
X194270000Y-29100000D03*
X191730000Y-29100000D03*
X189190000Y-29100000D03*
X186650000Y-29100000D03*
D13*
X190265000Y-32130000D03*
X190265000Y-33400000D03*
X190265000Y-34670000D03*
X193315000Y-34670000D03*
X193315000Y-33400000D03*
X193315000Y-32130000D03*
D14*
X193040000Y-52120000D03*
X190500000Y-52120000D03*
X193040000Y-54660000D03*
X190500000Y-54660000D03*
X193040000Y-57200000D03*
D15*
X190500000Y-57200000D03*
D16*
X195020000Y-49560000D03*
X188760000Y-49230000D03*
X186710000Y-24970000D03*
X194400000Y-25220000D03*
X196090000Y-36100000D03*
X187310000Y-36070000D03*
D17*
X189190000Y-33240000D02*
X189190000Y-29100000D01*
X189350000Y-33400000D02*
X189190000Y-33240000D01*
X190265000Y-33400000D02*
X189350000Y-33400000D01*
D18*
X190500000Y-54660000D02*
X193040000Y-54660000D01*
X197700001Y-29990001D02*
X196810000Y-29100000D01*
X197700001Y-49999999D02*
X197700001Y-29990001D01*
X193040000Y-54660000D02*
X197700001Y-49999999D01*
X196810000Y-29100000D02*
X196810000Y-21550000D01*
D19*
X192590000Y-52570000D02*
X193040000Y-52120000D01*
X191772130Y-52570000D02*
X192590000Y-52570000D01*
X189941471Y-53283601D02*
X191058529Y-53283601D01*
X185325000Y-49693200D02*
X188201800Y-52570000D01*
X185325000Y-35626800D02*
X185325000Y-49693200D01*
X187695000Y-33256800D02*
X185325000Y-35626800D01*
X187695000Y-27446800D02*
X187695000Y-33256800D01*
X191715000Y-26545000D02*
X188596800Y-26545000D01*
X194270000Y-29100000D02*
X191715000Y-26545000D01*
X189227870Y-52570000D02*
X189941471Y-53283601D01*
X188201800Y-52570000D02*
X189227870Y-52570000D01*
X188596800Y-26545000D02*
X187695000Y-27446800D01*
X191058529Y-53283601D02*
X191772130Y-52570000D01*
D17*
X192622500Y-51702500D02*
X193040000Y-52120000D01*
X192622500Y-49750000D02*
X192622500Y-51702500D01*
X190797500Y-51822500D02*
X190500000Y-52120000D01*
X190797500Y-49750000D02*
X190797500Y-51822500D01*
D19*
X188145000Y-27633200D02*
X188783200Y-26995000D01*
X185775000Y-35813200D02*
X188145000Y-33443200D01*
X185775000Y-44995000D02*
X185775000Y-35813200D01*
X186545399Y-45407953D02*
X186497896Y-45360450D01*
X186603328Y-45528243D02*
X186581140Y-45464834D01*
X186603328Y-45661756D02*
X186610850Y-45595000D01*
X188783200Y-26995000D02*
X191528603Y-26995000D01*
X186545399Y-45782046D02*
X186581140Y-45725165D01*
X186377606Y-45887478D02*
X186441015Y-45865290D01*
X186310850Y-45895000D02*
X186377606Y-45887478D01*
X185944834Y-45924709D02*
X186008243Y-45902521D01*
X187212197Y-49769966D02*
X187151671Y-49799113D01*
X187470890Y-49799113D02*
X187410364Y-49769966D01*
X187240571Y-50972371D02*
X187198685Y-50919848D01*
X187523413Y-49840999D02*
X187470890Y-49799113D01*
X186603328Y-46861756D02*
X186610850Y-46795000D01*
X187609395Y-50019541D02*
X187594446Y-49954047D01*
X185887953Y-47160450D02*
X185944834Y-47124709D01*
X186545399Y-46607953D02*
X186497896Y-46560450D01*
X187551785Y-51043403D02*
X187486291Y-51058352D01*
X187609395Y-50086720D02*
X187609395Y-50019541D01*
X187594446Y-50152214D02*
X187609395Y-50086720D01*
X186008243Y-48302521D02*
X186075000Y-48295000D01*
X185782521Y-45061756D02*
X185775000Y-44995000D01*
X187523413Y-50265263D02*
X187565298Y-50212740D01*
X186310850Y-48295000D02*
X186377606Y-48287478D01*
X185887953Y-45229549D02*
X185840450Y-45182046D01*
X187198685Y-50600629D02*
X187240571Y-50548106D01*
X186008243Y-45287478D02*
X185944834Y-45265290D01*
X188371942Y-50689528D02*
X188319419Y-50647642D01*
X186497896Y-45360450D02*
X186441015Y-45324709D01*
X187612311Y-51014255D02*
X187551785Y-51043403D01*
X185775000Y-48595000D02*
X185782521Y-48528243D01*
X187410364Y-49769966D02*
X187344870Y-49755017D01*
X185887953Y-46429549D02*
X185840450Y-46382046D01*
X187169538Y-50661155D02*
X187198685Y-50600629D01*
X186637762Y-50209823D02*
X186570583Y-50209823D01*
X186310850Y-45295000D02*
X186075000Y-45295000D01*
X187277691Y-49755017D02*
X187212197Y-49769966D01*
X186581140Y-45464834D02*
X186545399Y-45407953D01*
X186441015Y-45865290D02*
X186497896Y-45829549D01*
X187169538Y-50859322D02*
X187154589Y-50793828D01*
X185944834Y-46465290D02*
X185887953Y-46429549D01*
X187198685Y-50919848D02*
X187169538Y-50859322D01*
X188047214Y-51449158D02*
X188089100Y-51396635D01*
X187154589Y-50726649D02*
X187169538Y-50661155D01*
X186545399Y-46982046D02*
X186581140Y-46925165D01*
X186377606Y-45302521D02*
X186310850Y-45295000D01*
X187353618Y-51043403D02*
X187293092Y-51014255D01*
X188457924Y-50935249D02*
X188457924Y-50868070D01*
X186008243Y-47102521D02*
X186075000Y-47095000D01*
X185804709Y-48464834D02*
X185840450Y-48407953D01*
X187151671Y-49799113D02*
X187099148Y-49840999D01*
X185804709Y-46325165D02*
X185782521Y-46261756D01*
X187565298Y-49893521D02*
X187523413Y-49840999D01*
X188089100Y-51820900D02*
X188047214Y-51768377D01*
X186008243Y-46487478D02*
X185944834Y-46465290D01*
X188145000Y-33443200D02*
X188145000Y-27633200D01*
X190500000Y-52120000D02*
X188388200Y-52120000D01*
X186816305Y-50123841D02*
X186763782Y-50165726D01*
X187947677Y-50689528D02*
X187664834Y-50972370D01*
X186441015Y-46524709D02*
X186377606Y-46502521D01*
X188000200Y-50647642D02*
X187947677Y-50689528D01*
X188003118Y-51575178D02*
X188018067Y-51509684D01*
X188193399Y-50603546D02*
X188126220Y-50603546D01*
X185840450Y-45182046D02*
X185804709Y-45125165D01*
X188442975Y-50802576D02*
X188413827Y-50742050D01*
X185944834Y-45265290D02*
X185887953Y-45229549D01*
X187293092Y-51014255D02*
X187240571Y-50972371D01*
X186441015Y-45324709D02*
X186377606Y-45302521D01*
X187344870Y-49755017D02*
X187277691Y-49755017D01*
X188089100Y-51396635D02*
X188371942Y-51113792D01*
X185804709Y-45125165D02*
X185782521Y-45061756D01*
X188413827Y-51061269D02*
X188442975Y-51000743D01*
X185804709Y-47525165D02*
X185782521Y-47461756D01*
X188047214Y-51768377D02*
X188018067Y-51707851D01*
X186703256Y-50194874D02*
X186637762Y-50209823D01*
X186581140Y-45725165D02*
X186603328Y-45661756D01*
X188388200Y-52120000D02*
X188089100Y-51820900D01*
X188371942Y-51113792D02*
X188413827Y-51061269D01*
X187099148Y-49840999D02*
X186816305Y-50123841D01*
X185840450Y-47582046D02*
X185804709Y-47525165D01*
X186610850Y-45595000D02*
X186603328Y-45528243D01*
X188457924Y-50868070D02*
X188442975Y-50802576D01*
X186763782Y-50165726D02*
X186703256Y-50194874D01*
X188413827Y-50742050D02*
X188371942Y-50689528D01*
X186075000Y-46495000D02*
X186008243Y-46487478D01*
X188258893Y-50618495D02*
X188193399Y-50603546D01*
X187664834Y-50972370D02*
X187612311Y-51014255D01*
X188018067Y-51707851D02*
X188003118Y-51642357D01*
X185887953Y-45960450D02*
X185944834Y-45924709D01*
X185782521Y-47328243D02*
X185804709Y-47264834D01*
X188319419Y-50647642D02*
X188258893Y-50618495D01*
X186497896Y-47029549D02*
X186545399Y-46982046D01*
X186008243Y-45902521D02*
X186075000Y-45895000D01*
X188126220Y-50603546D02*
X188060726Y-50618495D01*
X186075000Y-47695000D02*
X186008243Y-47687478D01*
X187565298Y-50212740D02*
X187594446Y-50152214D01*
X187419112Y-51058352D02*
X187353618Y-51043403D01*
X186075000Y-47095000D02*
X186310850Y-47095000D01*
X187486291Y-51058352D02*
X187419112Y-51058352D01*
X185887953Y-47629549D02*
X185840450Y-47582046D01*
X185804709Y-47264834D02*
X185840450Y-47207953D01*
X187154589Y-50793828D02*
X187154589Y-50726649D01*
X186505089Y-50194874D02*
X186444563Y-50165726D01*
X186444563Y-50165726D02*
X186392042Y-50123842D01*
X185775000Y-49506800D02*
X185775000Y-48595000D01*
X186497896Y-45829549D02*
X186545399Y-45782046D01*
X185840450Y-48407953D02*
X185887953Y-48360450D01*
X191730000Y-27196397D02*
X191730000Y-29100000D01*
X185840450Y-46007953D02*
X185887953Y-45960450D01*
X185887953Y-48360450D02*
X185944834Y-48324709D01*
X186497896Y-47760450D02*
X186441015Y-47724709D01*
X186310850Y-47695000D02*
X186075000Y-47695000D01*
X185944834Y-48324709D02*
X186008243Y-48302521D01*
X186075000Y-45895000D02*
X186310850Y-45895000D01*
X186075000Y-48295000D02*
X186310850Y-48295000D01*
X186377606Y-48287478D02*
X186441015Y-48265290D01*
X186441015Y-48265290D02*
X186497896Y-48229549D01*
X186497896Y-48229549D02*
X186545399Y-48182046D01*
X191528603Y-26995000D02*
X191730000Y-27196397D01*
X186075000Y-45295000D02*
X186008243Y-45287478D01*
X186545399Y-48182046D02*
X186581140Y-48125165D01*
X188018067Y-51509684D02*
X188047214Y-51449158D01*
X186581140Y-48125165D02*
X186603328Y-48061756D01*
X185782521Y-47461756D02*
X185775000Y-47395000D01*
X186008243Y-47687478D02*
X185944834Y-47665290D01*
X187240571Y-50548106D02*
X187523413Y-50265263D01*
X186392042Y-50123842D02*
X185775000Y-49506800D01*
X186603328Y-48061756D02*
X186610850Y-47995000D01*
X186581140Y-47864834D02*
X186545399Y-47807953D01*
X186310850Y-47095000D02*
X186377606Y-47087478D01*
X186610850Y-47995000D02*
X186603328Y-47928243D01*
X186603328Y-47928243D02*
X186581140Y-47864834D01*
X186545399Y-47807953D02*
X186497896Y-47760450D01*
X186441015Y-47724709D02*
X186377606Y-47702521D01*
X185782521Y-48528243D02*
X185804709Y-48464834D01*
X185782521Y-46261756D02*
X185775000Y-46195000D01*
X186377606Y-47702521D02*
X186310850Y-47695000D01*
X185944834Y-47665290D02*
X185887953Y-47629549D01*
X188003118Y-51642357D02*
X188003118Y-51575178D01*
X188060726Y-50618495D02*
X188000200Y-50647642D01*
X185775000Y-47395000D02*
X185782521Y-47328243D01*
X187594446Y-49954047D02*
X187565298Y-49893521D01*
X185840450Y-47207953D02*
X185887953Y-47160450D01*
X185944834Y-47124709D02*
X186008243Y-47102521D01*
X186570583Y-50209823D02*
X186505089Y-50194874D01*
X186377606Y-47087478D02*
X186441015Y-47065290D01*
X186441015Y-47065290D02*
X186497896Y-47029549D01*
X186610850Y-46795000D02*
X186603328Y-46728243D01*
X186603328Y-46728243D02*
X186581140Y-46664834D01*
X186581140Y-46664834D02*
X186545399Y-46607953D01*
X186497896Y-46560450D02*
X186441015Y-46524709D01*
X186310850Y-46495000D02*
X186075000Y-46495000D01*
X188442975Y-51000743D02*
X188457924Y-50935249D01*
X186581140Y-46925165D02*
X186603328Y-46861756D01*
X185840450Y-46382046D02*
X185804709Y-46325165D01*
X186377606Y-46502521D02*
X186310850Y-46495000D01*
X185775000Y-46195000D02*
X185782521Y-46128243D01*
X185782521Y-46128243D02*
X185804709Y-46064834D01*
X185804709Y-46064834D02*
X185840450Y-46007953D01*
D20*
X187656546Y-53064193D02*
X187679562Y-53092238D01*
X187707606Y-53115253D01*
X187791480Y-53184087D01*
X187919166Y-53252337D01*
X188057715Y-53294365D01*
X188201800Y-53308556D01*
X188237905Y-53305000D01*
X188923424Y-53305000D01*
X189330818Y-53712395D01*
X189171958Y-53950147D01*
X189058990Y-54222875D01*
X189001400Y-54512401D01*
X189001400Y-54807599D01*
X189058990Y-55097125D01*
X189171958Y-55369853D01*
X189335961Y-55615302D01*
X189450023Y-55729364D01*
X189392220Y-55746898D01*
X189281906Y-55805863D01*
X189185215Y-55885215D01*
X189105863Y-55981906D01*
X189046898Y-56092220D01*
X189010588Y-56211918D01*
X188998328Y-56336400D01*
X189001400Y-56914250D01*
X189160150Y-57073000D01*
X190373000Y-57073000D01*
X190373000Y-57053000D01*
X190627000Y-57053000D01*
X190627000Y-57073000D01*
X192913000Y-57073000D01*
X192913000Y-57053000D01*
X193167000Y-57053000D01*
X193167000Y-57073000D01*
X194373817Y-57073000D01*
X194494958Y-56840974D01*
X194449222Y-56690186D01*
X194322684Y-56425056D01*
X194146854Y-56189707D01*
X193928488Y-55993183D01*
X193829897Y-55934559D01*
X193995302Y-55824039D01*
X194204039Y-55615302D01*
X194368042Y-55369853D01*
X194481010Y-55097125D01*
X194538600Y-54807599D01*
X194538600Y-54766531D01*
X197840000Y-51465132D01*
X197840000Y-62240000D01*
X185660000Y-62240000D01*
X185660000Y-58063600D01*
X188998328Y-58063600D01*
X189010588Y-58188082D01*
X189046898Y-58307780D01*
X189105863Y-58418094D01*
X189185215Y-58514785D01*
X189281906Y-58594137D01*
X189392220Y-58653102D01*
X189511918Y-58689412D01*
X189636400Y-58701672D01*
X190214250Y-58698600D01*
X190373000Y-58539850D01*
X190373000Y-57327000D01*
X190627000Y-57327000D01*
X190627000Y-58539850D01*
X190785750Y-58698600D01*
X191363600Y-58701672D01*
X191488082Y-58689412D01*
X191607780Y-58653102D01*
X191718094Y-58594137D01*
X191814785Y-58514785D01*
X191894137Y-58418094D01*
X191953102Y-58307780D01*
X191972053Y-58245308D01*
X192151512Y-58406817D01*
X192404022Y-58556964D01*
X192680973Y-58654963D01*
X192913000Y-58534464D01*
X192913000Y-57327000D01*
X193167000Y-57327000D01*
X193167000Y-58534464D01*
X193399027Y-58654963D01*
X193675978Y-58556964D01*
X193928488Y-58406817D01*
X194146854Y-58210293D01*
X194322684Y-57974944D01*
X194449222Y-57709814D01*
X194494958Y-57559026D01*
X194373817Y-57327000D01*
X193167000Y-57327000D01*
X192913000Y-57327000D01*
X190627000Y-57327000D01*
X190373000Y-57327000D01*
X189160150Y-57327000D01*
X189001400Y-57485750D01*
X188998328Y-58063600D01*
X185660000Y-58063600D01*
X185660000Y-51067646D01*
X187656546Y-53064193D01*
G04 #@! TA.AperFunction,Conductor*
D21*
G36*
X187656546Y-53064193D02*
G01*
X187679562Y-53092238D01*
X187707606Y-53115253D01*
X187791480Y-53184087D01*
X187919166Y-53252337D01*
X188057715Y-53294365D01*
X188201800Y-53308556D01*
X188237905Y-53305000D01*
X188923424Y-53305000D01*
X189330818Y-53712395D01*
X189171958Y-53950147D01*
X189058990Y-54222875D01*
X189001400Y-54512401D01*
X189001400Y-54807599D01*
X189058990Y-55097125D01*
X189171958Y-55369853D01*
X189335961Y-55615302D01*
X189450023Y-55729364D01*
X189392220Y-55746898D01*
X189281906Y-55805863D01*
X189185215Y-55885215D01*
X189105863Y-55981906D01*
X189046898Y-56092220D01*
X189010588Y-56211918D01*
X188998328Y-56336400D01*
X189001400Y-56914250D01*
X189160150Y-57073000D01*
X190373000Y-57073000D01*
X190373000Y-57053000D01*
X190627000Y-57053000D01*
X190627000Y-57073000D01*
X192913000Y-57073000D01*
X192913000Y-57053000D01*
X193167000Y-57053000D01*
X193167000Y-57073000D01*
X194373817Y-57073000D01*
X194494958Y-56840974D01*
X194449222Y-56690186D01*
X194322684Y-56425056D01*
X194146854Y-56189707D01*
X193928488Y-55993183D01*
X193829897Y-55934559D01*
X193995302Y-55824039D01*
X194204039Y-55615302D01*
X194368042Y-55369853D01*
X194481010Y-55097125D01*
X194538600Y-54807599D01*
X194538600Y-54766531D01*
X197840000Y-51465132D01*
X197840000Y-62240000D01*
X185660000Y-62240000D01*
X185660000Y-58063600D01*
X188998328Y-58063600D01*
X189010588Y-58188082D01*
X189046898Y-58307780D01*
X189105863Y-58418094D01*
X189185215Y-58514785D01*
X189281906Y-58594137D01*
X189392220Y-58653102D01*
X189511918Y-58689412D01*
X189636400Y-58701672D01*
X190214250Y-58698600D01*
X190373000Y-58539850D01*
X190373000Y-57327000D01*
X190627000Y-57327000D01*
X190627000Y-58539850D01*
X190785750Y-58698600D01*
X191363600Y-58701672D01*
X191488082Y-58689412D01*
X191607780Y-58653102D01*
X191718094Y-58594137D01*
X191814785Y-58514785D01*
X191894137Y-58418094D01*
X191953102Y-58307780D01*
X191972053Y-58245308D01*
X192151512Y-58406817D01*
X192404022Y-58556964D01*
X192680973Y-58654963D01*
X192913000Y-58534464D01*
X192913000Y-57327000D01*
X193167000Y-57327000D01*
X193167000Y-58534464D01*
X193399027Y-58654963D01*
X193675978Y-58556964D01*
X193928488Y-58406817D01*
X194146854Y-58210293D01*
X194322684Y-57974944D01*
X194449222Y-57709814D01*
X194494958Y-57559026D01*
X194373817Y-57327000D01*
X193167000Y-57327000D01*
X192913000Y-57327000D01*
X190627000Y-57327000D01*
X190373000Y-57327000D01*
X189160150Y-57327000D01*
X189001400Y-57485750D01*
X188998328Y-58063600D01*
X185660000Y-58063600D01*
X185660000Y-51067646D01*
X187656546Y-53064193D01*
G37*
G04 #@! TD.AperFunction*
D20*
X196565001Y-49529866D02*
X194460795Y-51634073D01*
X194368042Y-51410147D01*
X194204039Y-51164698D01*
X193995302Y-50955961D01*
X193749853Y-50791958D01*
X193595112Y-50727862D01*
X193623405Y-50693387D01*
X193705472Y-50539851D01*
X193756008Y-50373255D01*
X193773072Y-50200001D01*
X193773072Y-49299999D01*
X193756008Y-49126745D01*
X193705472Y-48960149D01*
X193623405Y-48806613D01*
X193512962Y-48672038D01*
X193378387Y-48561595D01*
X193224851Y-48479528D01*
X193058255Y-48428992D01*
X192885001Y-48411928D01*
X192359999Y-48411928D01*
X192186745Y-48428992D01*
X192020149Y-48479528D01*
X191866613Y-48561595D01*
X191732038Y-48672038D01*
X191710000Y-48698891D01*
X191687962Y-48672038D01*
X191553387Y-48561595D01*
X191399851Y-48479528D01*
X191233255Y-48428992D01*
X191060001Y-48411928D01*
X190534999Y-48411928D01*
X190361745Y-48428992D01*
X190195149Y-48479528D01*
X190041613Y-48561595D01*
X189907038Y-48672038D01*
X189796595Y-48806613D01*
X189714528Y-48960149D01*
X189663992Y-49126745D01*
X189646928Y-49299999D01*
X189646928Y-50200001D01*
X189663992Y-50373255D01*
X189714528Y-50539851D01*
X189796595Y-50693387D01*
X189855332Y-50764958D01*
X189790147Y-50791958D01*
X189544698Y-50955961D01*
X189335961Y-51164698D01*
X189188761Y-51385000D01*
X189076062Y-51385000D01*
X189087225Y-51356944D01*
X189093999Y-51342876D01*
X189117114Y-51302405D01*
X189136794Y-51243528D01*
X189158120Y-51185219D01*
X189165282Y-51139166D01*
X189168756Y-51123945D01*
X189182289Y-51079334D01*
X189188375Y-51017539D01*
X189196189Y-50955968D01*
X189192924Y-50909482D01*
X189192924Y-50893837D01*
X189196189Y-50847351D01*
X189188375Y-50785777D01*
X189182289Y-50723986D01*
X189168757Y-50679378D01*
X189165282Y-50664153D01*
X189158120Y-50618100D01*
X189136794Y-50559791D01*
X189117114Y-50500914D01*
X189093999Y-50460443D01*
X189087223Y-50446372D01*
X189069993Y-50403066D01*
X189036224Y-50350960D01*
X189003939Y-50297943D01*
X188972403Y-50263635D01*
X188962665Y-50251424D01*
X188936228Y-50213035D01*
X188891707Y-50169745D01*
X188848437Y-50125244D01*
X188810060Y-50098816D01*
X188797832Y-50089064D01*
X188763518Y-50057523D01*
X188710501Y-50025239D01*
X188658405Y-49991477D01*
X188615093Y-49974244D01*
X188601020Y-49967467D01*
X188560555Y-49944356D01*
X188501682Y-49924677D01*
X188443359Y-49903347D01*
X188397311Y-49896187D01*
X188382095Y-49892714D01*
X188337484Y-49879181D01*
X188334094Y-49878847D01*
X188333760Y-49875457D01*
X188320228Y-49830849D01*
X188316753Y-49815624D01*
X188309591Y-49769571D01*
X188288265Y-49711262D01*
X188268585Y-49652385D01*
X188245470Y-49611914D01*
X188238694Y-49597843D01*
X188221464Y-49554537D01*
X188187695Y-49502431D01*
X188155410Y-49449414D01*
X188123874Y-49415106D01*
X188114136Y-49402895D01*
X188087699Y-49364506D01*
X188043178Y-49321216D01*
X187999908Y-49276715D01*
X187961531Y-49250287D01*
X187949303Y-49240535D01*
X187914989Y-49208994D01*
X187861972Y-49176710D01*
X187809876Y-49142948D01*
X187766564Y-49125715D01*
X187752491Y-49118938D01*
X187712026Y-49095827D01*
X187653153Y-49076148D01*
X187594830Y-49054818D01*
X187548782Y-49047658D01*
X187533566Y-49044185D01*
X187488955Y-49030652D01*
X187427158Y-49024566D01*
X187365588Y-49016752D01*
X187319102Y-49020017D01*
X187303458Y-49020017D01*
X187256972Y-49016752D01*
X187195401Y-49024566D01*
X187133606Y-49030652D01*
X187088995Y-49044185D01*
X187073781Y-49047657D01*
X187027731Y-49054818D01*
X186969402Y-49076150D01*
X186910535Y-49095827D01*
X186870075Y-49118935D01*
X186855991Y-49125717D01*
X186812685Y-49142948D01*
X186760604Y-49176702D01*
X186707571Y-49208995D01*
X186681819Y-49232666D01*
X186636859Y-49269563D01*
X186612654Y-49288866D01*
X186608952Y-49292466D01*
X186604956Y-49295745D01*
X186604174Y-49296527D01*
X186510000Y-49202354D01*
X186510000Y-49011696D01*
X186541178Y-49004119D01*
X186601891Y-48991154D01*
X186644688Y-48972719D01*
X186659440Y-48967557D01*
X186704402Y-48955284D01*
X186759950Y-48927567D01*
X186816259Y-48901416D01*
X186853893Y-48873911D01*
X186867116Y-48865603D01*
X186908215Y-48843635D01*
X186956208Y-48804249D01*
X187005283Y-48766226D01*
X187035848Y-48731043D01*
X187046895Y-48719996D01*
X187082076Y-48689433D01*
X187120093Y-48640365D01*
X187159485Y-48592366D01*
X187181455Y-48551264D01*
X187189764Y-48538039D01*
X187217266Y-48500409D01*
X187243413Y-48444108D01*
X187271134Y-48388552D01*
X187283407Y-48343590D01*
X187288567Y-48328844D01*
X187307004Y-48286042D01*
X187319971Y-48225321D01*
X187334631Y-48165001D01*
X187336591Y-48118442D01*
X187338342Y-48102904D01*
X187346792Y-48057072D01*
X187345921Y-47995016D01*
X187346793Y-47932929D01*
X187338341Y-47887088D01*
X187336592Y-47871559D01*
X187334631Y-47824998D01*
X187319969Y-47764671D01*
X187307004Y-47703958D01*
X187288568Y-47661157D01*
X187283407Y-47646409D01*
X187271134Y-47601447D01*
X187243413Y-47545891D01*
X187217266Y-47489590D01*
X187189764Y-47451960D01*
X187181455Y-47438735D01*
X187159485Y-47397633D01*
X187157324Y-47395000D01*
X187159485Y-47392366D01*
X187181455Y-47351264D01*
X187189764Y-47338039D01*
X187217266Y-47300409D01*
X187243413Y-47244108D01*
X187271134Y-47188552D01*
X187283407Y-47143590D01*
X187288567Y-47128844D01*
X187307004Y-47086042D01*
X187319971Y-47025321D01*
X187334631Y-46965001D01*
X187336591Y-46918442D01*
X187338342Y-46902904D01*
X187346792Y-46857072D01*
X187345921Y-46795016D01*
X187346793Y-46732929D01*
X187338341Y-46687088D01*
X187336592Y-46671559D01*
X187334631Y-46624998D01*
X187319969Y-46564671D01*
X187307004Y-46503958D01*
X187288568Y-46461157D01*
X187283407Y-46446409D01*
X187271134Y-46401447D01*
X187243413Y-46345891D01*
X187217266Y-46289590D01*
X187189764Y-46251960D01*
X187181455Y-46238735D01*
X187159485Y-46197633D01*
X187157324Y-46194999D01*
X187159485Y-46192366D01*
X187181455Y-46151264D01*
X187189764Y-46138039D01*
X187217266Y-46100409D01*
X187243413Y-46044108D01*
X187271134Y-45988552D01*
X187283407Y-45943590D01*
X187288567Y-45928844D01*
X187307004Y-45886042D01*
X187319971Y-45825321D01*
X187334631Y-45765001D01*
X187336591Y-45718442D01*
X187338342Y-45702904D01*
X187346792Y-45657072D01*
X187345921Y-45595016D01*
X187346793Y-45532929D01*
X187338341Y-45487088D01*
X187336592Y-45471559D01*
X187334631Y-45424998D01*
X187319969Y-45364671D01*
X187319604Y-45362962D01*
X187916658Y-45960016D01*
X188888723Y-46609529D01*
X189968824Y-47056921D01*
X191115454Y-47285000D01*
X192284546Y-47285000D01*
X193431176Y-47056921D01*
X194511277Y-46609529D01*
X195483342Y-45960016D01*
X196310016Y-45133342D01*
X196565001Y-44751730D01*
X196565001Y-49529866D01*
G04 #@! TA.AperFunction,Conductor*
D21*
G36*
X196565001Y-49529866D02*
G01*
X194460795Y-51634073D01*
X194368042Y-51410147D01*
X194204039Y-51164698D01*
X193995302Y-50955961D01*
X193749853Y-50791958D01*
X193595112Y-50727862D01*
X193623405Y-50693387D01*
X193705472Y-50539851D01*
X193756008Y-50373255D01*
X193773072Y-50200001D01*
X193773072Y-49299999D01*
X193756008Y-49126745D01*
X193705472Y-48960149D01*
X193623405Y-48806613D01*
X193512962Y-48672038D01*
X193378387Y-48561595D01*
X193224851Y-48479528D01*
X193058255Y-48428992D01*
X192885001Y-48411928D01*
X192359999Y-48411928D01*
X192186745Y-48428992D01*
X192020149Y-48479528D01*
X191866613Y-48561595D01*
X191732038Y-48672038D01*
X191710000Y-48698891D01*
X191687962Y-48672038D01*
X191553387Y-48561595D01*
X191399851Y-48479528D01*
X191233255Y-48428992D01*
X191060001Y-48411928D01*
X190534999Y-48411928D01*
X190361745Y-48428992D01*
X190195149Y-48479528D01*
X190041613Y-48561595D01*
X189907038Y-48672038D01*
X189796595Y-48806613D01*
X189714528Y-48960149D01*
X189663992Y-49126745D01*
X189646928Y-49299999D01*
X189646928Y-50200001D01*
X189663992Y-50373255D01*
X189714528Y-50539851D01*
X189796595Y-50693387D01*
X189855332Y-50764958D01*
X189790147Y-50791958D01*
X189544698Y-50955961D01*
X189335961Y-51164698D01*
X189188761Y-51385000D01*
X189076062Y-51385000D01*
X189087225Y-51356944D01*
X189093999Y-51342876D01*
X189117114Y-51302405D01*
X189136794Y-51243528D01*
X189158120Y-51185219D01*
X189165282Y-51139166D01*
X189168756Y-51123945D01*
X189182289Y-51079334D01*
X189188375Y-51017539D01*
X189196189Y-50955968D01*
X189192924Y-50909482D01*
X189192924Y-50893837D01*
X189196189Y-50847351D01*
X189188375Y-50785777D01*
X189182289Y-50723986D01*
X189168757Y-50679378D01*
X189165282Y-50664153D01*
X189158120Y-50618100D01*
X189136794Y-50559791D01*
X189117114Y-50500914D01*
X189093999Y-50460443D01*
X189087223Y-50446372D01*
X189069993Y-50403066D01*
X189036224Y-50350960D01*
X189003939Y-50297943D01*
X188972403Y-50263635D01*
X188962665Y-50251424D01*
X188936228Y-50213035D01*
X188891707Y-50169745D01*
X188848437Y-50125244D01*
X188810060Y-50098816D01*
X188797832Y-50089064D01*
X188763518Y-50057523D01*
X188710501Y-50025239D01*
X188658405Y-49991477D01*
X188615093Y-49974244D01*
X188601020Y-49967467D01*
X188560555Y-49944356D01*
X188501682Y-49924677D01*
X188443359Y-49903347D01*
X188397311Y-49896187D01*
X188382095Y-49892714D01*
X188337484Y-49879181D01*
X188334094Y-49878847D01*
X188333760Y-49875457D01*
X188320228Y-49830849D01*
X188316753Y-49815624D01*
X188309591Y-49769571D01*
X188288265Y-49711262D01*
X188268585Y-49652385D01*
X188245470Y-49611914D01*
X188238694Y-49597843D01*
X188221464Y-49554537D01*
X188187695Y-49502431D01*
X188155410Y-49449414D01*
X188123874Y-49415106D01*
X188114136Y-49402895D01*
X188087699Y-49364506D01*
X188043178Y-49321216D01*
X187999908Y-49276715D01*
X187961531Y-49250287D01*
X187949303Y-49240535D01*
X187914989Y-49208994D01*
X187861972Y-49176710D01*
X187809876Y-49142948D01*
X187766564Y-49125715D01*
X187752491Y-49118938D01*
X187712026Y-49095827D01*
X187653153Y-49076148D01*
X187594830Y-49054818D01*
X187548782Y-49047658D01*
X187533566Y-49044185D01*
X187488955Y-49030652D01*
X187427158Y-49024566D01*
X187365588Y-49016752D01*
X187319102Y-49020017D01*
X187303458Y-49020017D01*
X187256972Y-49016752D01*
X187195401Y-49024566D01*
X187133606Y-49030652D01*
X187088995Y-49044185D01*
X187073781Y-49047657D01*
X187027731Y-49054818D01*
X186969402Y-49076150D01*
X186910535Y-49095827D01*
X186870075Y-49118935D01*
X186855991Y-49125717D01*
X186812685Y-49142948D01*
X186760604Y-49176702D01*
X186707571Y-49208995D01*
X186681819Y-49232666D01*
X186636859Y-49269563D01*
X186612654Y-49288866D01*
X186608952Y-49292466D01*
X186604956Y-49295745D01*
X186604174Y-49296527D01*
X186510000Y-49202354D01*
X186510000Y-49011696D01*
X186541178Y-49004119D01*
X186601891Y-48991154D01*
X186644688Y-48972719D01*
X186659440Y-48967557D01*
X186704402Y-48955284D01*
X186759950Y-48927567D01*
X186816259Y-48901416D01*
X186853893Y-48873911D01*
X186867116Y-48865603D01*
X186908215Y-48843635D01*
X186956208Y-48804249D01*
X187005283Y-48766226D01*
X187035848Y-48731043D01*
X187046895Y-48719996D01*
X187082076Y-48689433D01*
X187120093Y-48640365D01*
X187159485Y-48592366D01*
X187181455Y-48551264D01*
X187189764Y-48538039D01*
X187217266Y-48500409D01*
X187243413Y-48444108D01*
X187271134Y-48388552D01*
X187283407Y-48343590D01*
X187288567Y-48328844D01*
X187307004Y-48286042D01*
X187319971Y-48225321D01*
X187334631Y-48165001D01*
X187336591Y-48118442D01*
X187338342Y-48102904D01*
X187346792Y-48057072D01*
X187345921Y-47995016D01*
X187346793Y-47932929D01*
X187338341Y-47887088D01*
X187336592Y-47871559D01*
X187334631Y-47824998D01*
X187319969Y-47764671D01*
X187307004Y-47703958D01*
X187288568Y-47661157D01*
X187283407Y-47646409D01*
X187271134Y-47601447D01*
X187243413Y-47545891D01*
X187217266Y-47489590D01*
X187189764Y-47451960D01*
X187181455Y-47438735D01*
X187159485Y-47397633D01*
X187157324Y-47395000D01*
X187159485Y-47392366D01*
X187181455Y-47351264D01*
X187189764Y-47338039D01*
X187217266Y-47300409D01*
X187243413Y-47244108D01*
X187271134Y-47188552D01*
X187283407Y-47143590D01*
X187288567Y-47128844D01*
X187307004Y-47086042D01*
X187319971Y-47025321D01*
X187334631Y-46965001D01*
X187336591Y-46918442D01*
X187338342Y-46902904D01*
X187346792Y-46857072D01*
X187345921Y-46795016D01*
X187346793Y-46732929D01*
X187338341Y-46687088D01*
X187336592Y-46671559D01*
X187334631Y-46624998D01*
X187319969Y-46564671D01*
X187307004Y-46503958D01*
X187288568Y-46461157D01*
X187283407Y-46446409D01*
X187271134Y-46401447D01*
X187243413Y-46345891D01*
X187217266Y-46289590D01*
X187189764Y-46251960D01*
X187181455Y-46238735D01*
X187159485Y-46197633D01*
X187157324Y-46194999D01*
X187159485Y-46192366D01*
X187181455Y-46151264D01*
X187189764Y-46138039D01*
X187217266Y-46100409D01*
X187243413Y-46044108D01*
X187271134Y-45988552D01*
X187283407Y-45943590D01*
X187288567Y-45928844D01*
X187307004Y-45886042D01*
X187319971Y-45825321D01*
X187334631Y-45765001D01*
X187336591Y-45718442D01*
X187338342Y-45702904D01*
X187346792Y-45657072D01*
X187345921Y-45595016D01*
X187346793Y-45532929D01*
X187338341Y-45487088D01*
X187336592Y-45471559D01*
X187334631Y-45424998D01*
X187319969Y-45364671D01*
X187319604Y-45362962D01*
X187916658Y-45960016D01*
X188888723Y-46609529D01*
X189968824Y-47056921D01*
X191115454Y-47285000D01*
X192284546Y-47285000D01*
X193431176Y-47056921D01*
X194511277Y-46609529D01*
X195483342Y-45960016D01*
X196310016Y-45133342D01*
X196565001Y-44751730D01*
X196565001Y-49529866D01*
G37*
G04 #@! TD.AperFunction*
D20*
X188786196Y-33910997D02*
X188809999Y-33940001D01*
X188925724Y-34034974D01*
X189043979Y-34098183D01*
X189010498Y-34160820D01*
X188974188Y-34280518D01*
X188961928Y-34405000D01*
X188961928Y-34935000D01*
X188974188Y-35059482D01*
X189010498Y-35179180D01*
X189069463Y-35289494D01*
X189148815Y-35386185D01*
X189245506Y-35465537D01*
X189355820Y-35524502D01*
X189475518Y-35560812D01*
X189600000Y-35573072D01*
X190320773Y-35573072D01*
X189968824Y-35643079D01*
X188888723Y-36090471D01*
X187916658Y-36739984D01*
X187089984Y-37566658D01*
X186510000Y-38434665D01*
X186510000Y-36117646D01*
X188639197Y-33988450D01*
X188667237Y-33965438D01*
X188690250Y-33937397D01*
X188690253Y-33937394D01*
X188745398Y-33870199D01*
X188786196Y-33910997D01*
G04 #@! TA.AperFunction,Conductor*
D21*
G36*
X188786196Y-33910997D02*
G01*
X188809999Y-33940001D01*
X188925724Y-34034974D01*
X189043979Y-34098183D01*
X189010498Y-34160820D01*
X188974188Y-34280518D01*
X188961928Y-34405000D01*
X188961928Y-34935000D01*
X188974188Y-35059482D01*
X189010498Y-35179180D01*
X189069463Y-35289494D01*
X189148815Y-35386185D01*
X189245506Y-35465537D01*
X189355820Y-35524502D01*
X189475518Y-35560812D01*
X189600000Y-35573072D01*
X190320773Y-35573072D01*
X189968824Y-35643079D01*
X188888723Y-36090471D01*
X187916658Y-36739984D01*
X187089984Y-37566658D01*
X186510000Y-38434665D01*
X186510000Y-36117646D01*
X188639197Y-33988450D01*
X188667237Y-33965438D01*
X188690250Y-33937397D01*
X188690253Y-33937394D01*
X188745398Y-33870199D01*
X188786196Y-33910997D01*
G37*
G04 #@! TD.AperFunction*
D20*
X195549188Y-30349482D02*
X195585498Y-30469180D01*
X195644463Y-30579494D01*
X195723815Y-30676185D01*
X195820506Y-30755537D01*
X195930820Y-30814502D01*
X196050518Y-30850812D01*
X196175000Y-30863072D01*
X196565002Y-30863072D01*
X196565002Y-37948271D01*
X196310016Y-37566658D01*
X195483342Y-36739984D01*
X194511277Y-36090471D01*
X193431176Y-35643079D01*
X193079227Y-35573072D01*
X193980000Y-35573072D01*
X194104482Y-35560812D01*
X194224180Y-35524502D01*
X194334494Y-35465537D01*
X194431185Y-35386185D01*
X194510537Y-35289494D01*
X194569502Y-35179180D01*
X194605812Y-35059482D01*
X194618072Y-34935000D01*
X194618072Y-34405000D01*
X194605812Y-34280518D01*
X194569502Y-34160820D01*
X194510537Y-34050506D01*
X194497812Y-34035000D01*
X194510537Y-34019494D01*
X194569502Y-33909180D01*
X194605812Y-33789482D01*
X194618072Y-33665000D01*
X194618072Y-33135000D01*
X194605812Y-33010518D01*
X194569502Y-32890820D01*
X194510537Y-32780506D01*
X194497812Y-32765000D01*
X194510537Y-32749494D01*
X194569502Y-32639180D01*
X194605812Y-32519482D01*
X194618072Y-32395000D01*
X194618072Y-31865000D01*
X194605812Y-31740518D01*
X194569502Y-31620820D01*
X194510537Y-31510506D01*
X194431185Y-31413815D01*
X194334494Y-31334463D01*
X194224180Y-31275498D01*
X194104482Y-31239188D01*
X193980000Y-31226928D01*
X192650000Y-31226928D01*
X192525518Y-31239188D01*
X192405820Y-31275498D01*
X192295506Y-31334463D01*
X192198815Y-31413815D01*
X192119463Y-31510506D01*
X192060498Y-31620820D01*
X192024188Y-31740518D01*
X192011928Y-31865000D01*
X192011928Y-32395000D01*
X192024188Y-32519482D01*
X192060498Y-32639180D01*
X192119463Y-32749494D01*
X192132188Y-32765000D01*
X192119463Y-32780506D01*
X192060498Y-32890820D01*
X192024188Y-33010518D01*
X192011928Y-33135000D01*
X192011928Y-33665000D01*
X192024188Y-33789482D01*
X192060498Y-33909180D01*
X192119463Y-34019494D01*
X192132188Y-34035000D01*
X192119463Y-34050506D01*
X192060498Y-34160820D01*
X192024188Y-34280518D01*
X192011928Y-34405000D01*
X192011928Y-34935000D01*
X192024188Y-35059482D01*
X192060498Y-35179180D01*
X192119463Y-35289494D01*
X192198815Y-35386185D01*
X192233926Y-35415000D01*
X191346074Y-35415000D01*
X191381185Y-35386185D01*
X191460537Y-35289494D01*
X191519502Y-35179180D01*
X191555812Y-35059482D01*
X191568072Y-34935000D01*
X191568072Y-34405000D01*
X191555812Y-34280518D01*
X191519502Y-34160820D01*
X191460537Y-34050506D01*
X191447812Y-34035000D01*
X191460537Y-34019494D01*
X191519502Y-33909180D01*
X191555812Y-33789482D01*
X191568072Y-33665000D01*
X191568072Y-33135000D01*
X191555812Y-33010518D01*
X191519502Y-32890820D01*
X191460537Y-32780506D01*
X191448124Y-32765381D01*
X191456765Y-32755076D01*
X191516890Y-32645391D01*
X191554462Y-32526083D01*
X191565000Y-32415750D01*
X191406250Y-32257000D01*
X190392000Y-32257000D01*
X190392000Y-32277000D01*
X190138000Y-32277000D01*
X190138000Y-32257000D01*
X190118000Y-32257000D01*
X190118000Y-32003000D01*
X190138000Y-32003000D01*
X190138000Y-31388750D01*
X190392000Y-31388750D01*
X190392000Y-32003000D01*
X191406250Y-32003000D01*
X191565000Y-31844250D01*
X191554462Y-31733917D01*
X191516890Y-31614609D01*
X191456765Y-31504924D01*
X191376396Y-31409076D01*
X191278872Y-31330749D01*
X191167941Y-31272953D01*
X191047867Y-31237909D01*
X190923262Y-31226964D01*
X190550750Y-31230000D01*
X190392000Y-31388750D01*
X190138000Y-31388750D01*
X189979250Y-31230000D01*
X189950000Y-31229762D01*
X189950000Y-30850655D01*
X190069180Y-30814502D01*
X190179494Y-30755537D01*
X190276185Y-30676185D01*
X190355537Y-30579494D01*
X190414502Y-30469180D01*
X190450812Y-30349482D01*
X190460000Y-30256192D01*
X190469188Y-30349482D01*
X190505498Y-30469180D01*
X190564463Y-30579494D01*
X190643815Y-30676185D01*
X190740506Y-30755537D01*
X190850820Y-30814502D01*
X190970518Y-30850812D01*
X191095000Y-30863072D01*
X192365000Y-30863072D01*
X192489482Y-30850812D01*
X192609180Y-30814502D01*
X192719494Y-30755537D01*
X192816185Y-30676185D01*
X192895537Y-30579494D01*
X192954502Y-30469180D01*
X192990812Y-30349482D01*
X193000000Y-30256192D01*
X193009188Y-30349482D01*
X193045498Y-30469180D01*
X193104463Y-30579494D01*
X193183815Y-30676185D01*
X193280506Y-30755537D01*
X193390820Y-30814502D01*
X193510518Y-30850812D01*
X193635000Y-30863072D01*
X194905000Y-30863072D01*
X195029482Y-30850812D01*
X195149180Y-30814502D01*
X195259494Y-30755537D01*
X195356185Y-30676185D01*
X195435537Y-30579494D01*
X195494502Y-30469180D01*
X195530812Y-30349482D01*
X195540000Y-30256192D01*
X195549188Y-30349482D01*
G04 #@! TA.AperFunction,Conductor*
D21*
G36*
X195549188Y-30349482D02*
G01*
X195585498Y-30469180D01*
X195644463Y-30579494D01*
X195723815Y-30676185D01*
X195820506Y-30755537D01*
X195930820Y-30814502D01*
X196050518Y-30850812D01*
X196175000Y-30863072D01*
X196565002Y-30863072D01*
X196565002Y-37948271D01*
X196310016Y-37566658D01*
X195483342Y-36739984D01*
X194511277Y-36090471D01*
X193431176Y-35643079D01*
X193079227Y-35573072D01*
X193980000Y-35573072D01*
X194104482Y-35560812D01*
X194224180Y-35524502D01*
X194334494Y-35465537D01*
X194431185Y-35386185D01*
X194510537Y-35289494D01*
X194569502Y-35179180D01*
X194605812Y-35059482D01*
X194618072Y-34935000D01*
X194618072Y-34405000D01*
X194605812Y-34280518D01*
X194569502Y-34160820D01*
X194510537Y-34050506D01*
X194497812Y-34035000D01*
X194510537Y-34019494D01*
X194569502Y-33909180D01*
X194605812Y-33789482D01*
X194618072Y-33665000D01*
X194618072Y-33135000D01*
X194605812Y-33010518D01*
X194569502Y-32890820D01*
X194510537Y-32780506D01*
X194497812Y-32765000D01*
X194510537Y-32749494D01*
X194569502Y-32639180D01*
X194605812Y-32519482D01*
X194618072Y-32395000D01*
X194618072Y-31865000D01*
X194605812Y-31740518D01*
X194569502Y-31620820D01*
X194510537Y-31510506D01*
X194431185Y-31413815D01*
X194334494Y-31334463D01*
X194224180Y-31275498D01*
X194104482Y-31239188D01*
X193980000Y-31226928D01*
X192650000Y-31226928D01*
X192525518Y-31239188D01*
X192405820Y-31275498D01*
X192295506Y-31334463D01*
X192198815Y-31413815D01*
X192119463Y-31510506D01*
X192060498Y-31620820D01*
X192024188Y-31740518D01*
X192011928Y-31865000D01*
X192011928Y-32395000D01*
X192024188Y-32519482D01*
X192060498Y-32639180D01*
X192119463Y-32749494D01*
X192132188Y-32765000D01*
X192119463Y-32780506D01*
X192060498Y-32890820D01*
X192024188Y-33010518D01*
X192011928Y-33135000D01*
X192011928Y-33665000D01*
X192024188Y-33789482D01*
X192060498Y-33909180D01*
X192119463Y-34019494D01*
X192132188Y-34035000D01*
X192119463Y-34050506D01*
X192060498Y-34160820D01*
X192024188Y-34280518D01*
X192011928Y-34405000D01*
X192011928Y-34935000D01*
X192024188Y-35059482D01*
X192060498Y-35179180D01*
X192119463Y-35289494D01*
X192198815Y-35386185D01*
X192233926Y-35415000D01*
X191346074Y-35415000D01*
X191381185Y-35386185D01*
X191460537Y-35289494D01*
X191519502Y-35179180D01*
X191555812Y-35059482D01*
X191568072Y-34935000D01*
X191568072Y-34405000D01*
X191555812Y-34280518D01*
X191519502Y-34160820D01*
X191460537Y-34050506D01*
X191447812Y-34035000D01*
X191460537Y-34019494D01*
X191519502Y-33909180D01*
X191555812Y-33789482D01*
X191568072Y-33665000D01*
X191568072Y-33135000D01*
X191555812Y-33010518D01*
X191519502Y-32890820D01*
X191460537Y-32780506D01*
X191448124Y-32765381D01*
X191456765Y-32755076D01*
X191516890Y-32645391D01*
X191554462Y-32526083D01*
X191565000Y-32415750D01*
X191406250Y-32257000D01*
X190392000Y-32257000D01*
X190392000Y-32277000D01*
X190138000Y-32277000D01*
X190138000Y-32257000D01*
X190118000Y-32257000D01*
X190118000Y-32003000D01*
X190138000Y-32003000D01*
X190138000Y-31388750D01*
X190392000Y-31388750D01*
X190392000Y-32003000D01*
X191406250Y-32003000D01*
X191565000Y-31844250D01*
X191554462Y-31733917D01*
X191516890Y-31614609D01*
X191456765Y-31504924D01*
X191376396Y-31409076D01*
X191278872Y-31330749D01*
X191167941Y-31272953D01*
X191047867Y-31237909D01*
X190923262Y-31226964D01*
X190550750Y-31230000D01*
X190392000Y-31388750D01*
X190138000Y-31388750D01*
X189979250Y-31230000D01*
X189950000Y-31229762D01*
X189950000Y-30850655D01*
X190069180Y-30814502D01*
X190179494Y-30755537D01*
X190276185Y-30676185D01*
X190355537Y-30579494D01*
X190414502Y-30469180D01*
X190450812Y-30349482D01*
X190460000Y-30256192D01*
X190469188Y-30349482D01*
X190505498Y-30469180D01*
X190564463Y-30579494D01*
X190643815Y-30676185D01*
X190740506Y-30755537D01*
X190850820Y-30814502D01*
X190970518Y-30850812D01*
X191095000Y-30863072D01*
X192365000Y-30863072D01*
X192489482Y-30850812D01*
X192609180Y-30814502D01*
X192719494Y-30755537D01*
X192816185Y-30676185D01*
X192895537Y-30579494D01*
X192954502Y-30469180D01*
X192990812Y-30349482D01*
X193000000Y-30256192D01*
X193009188Y-30349482D01*
X193045498Y-30469180D01*
X193104463Y-30579494D01*
X193183815Y-30676185D01*
X193280506Y-30755537D01*
X193390820Y-30814502D01*
X193510518Y-30850812D01*
X193635000Y-30863072D01*
X194905000Y-30863072D01*
X195029482Y-30850812D01*
X195149180Y-30814502D01*
X195259494Y-30755537D01*
X195356185Y-30676185D01*
X195435537Y-30579494D01*
X195494502Y-30469180D01*
X195530812Y-30349482D01*
X195540000Y-30256192D01*
X195549188Y-30349482D01*
G37*
G04 #@! TD.AperFunction*
D20*
X186777000Y-21416500D02*
X186797000Y-21416500D01*
X186797000Y-21670500D01*
X186777000Y-21670500D01*
X186777000Y-23144750D01*
X186935750Y-23303500D01*
X187285000Y-23306572D01*
X187409482Y-23294312D01*
X187529180Y-23258002D01*
X187639494Y-23199037D01*
X187736185Y-23119685D01*
X187815537Y-23022994D01*
X187874502Y-22912680D01*
X187910812Y-22792982D01*
X187920000Y-22699692D01*
X187929188Y-22792982D01*
X187965498Y-22912680D01*
X188024463Y-23022994D01*
X188103815Y-23119685D01*
X188200506Y-23199037D01*
X188310820Y-23258002D01*
X188430518Y-23294312D01*
X188555000Y-23306572D01*
X189825000Y-23306572D01*
X189949482Y-23294312D01*
X190069180Y-23258002D01*
X190179494Y-23199037D01*
X190276185Y-23119685D01*
X190355537Y-23022994D01*
X190414502Y-22912680D01*
X190450812Y-22792982D01*
X190459680Y-22702942D01*
X190469188Y-22799482D01*
X190505498Y-22919180D01*
X190564463Y-23029494D01*
X190643815Y-23126185D01*
X190740506Y-23205537D01*
X190850820Y-23264502D01*
X190970518Y-23300812D01*
X191095000Y-23313072D01*
X192365000Y-23313072D01*
X192489482Y-23300812D01*
X192609180Y-23264502D01*
X192719494Y-23205537D01*
X192816185Y-23126185D01*
X192895537Y-23029494D01*
X192954502Y-22919180D01*
X192990812Y-22799482D01*
X193000000Y-22706192D01*
X193009188Y-22799482D01*
X193045498Y-22919180D01*
X193104463Y-23029494D01*
X193183815Y-23126185D01*
X193280506Y-23205537D01*
X193390820Y-23264502D01*
X193510518Y-23300812D01*
X193635000Y-23313072D01*
X194905000Y-23313072D01*
X195029482Y-23300812D01*
X195149180Y-23264502D01*
X195259494Y-23205537D01*
X195356185Y-23126185D01*
X195435537Y-23029494D01*
X195494502Y-22919180D01*
X195530812Y-22799482D01*
X195540000Y-22706192D01*
X195549188Y-22799482D01*
X195585498Y-22919180D01*
X195644463Y-23029494D01*
X195675001Y-23066705D01*
X195675000Y-27583296D01*
X195644463Y-27620506D01*
X195585498Y-27730820D01*
X195549188Y-27850518D01*
X195540000Y-27943808D01*
X195530812Y-27850518D01*
X195494502Y-27730820D01*
X195435537Y-27620506D01*
X195356185Y-27523815D01*
X195259494Y-27444463D01*
X195149180Y-27385498D01*
X195029482Y-27349188D01*
X194905000Y-27336928D01*
X193635000Y-27336928D01*
X193554320Y-27344874D01*
X192260259Y-26050812D01*
X192237238Y-26022762D01*
X192125320Y-25930913D01*
X191997633Y-25862663D01*
X191859085Y-25820635D01*
X191751105Y-25810000D01*
X191715000Y-25806444D01*
X191678895Y-25810000D01*
X188632905Y-25810000D01*
X188596800Y-25806444D01*
X188560695Y-25810000D01*
X188452715Y-25820635D01*
X188314167Y-25862663D01*
X188186480Y-25930913D01*
X188074562Y-26022762D01*
X188051546Y-26050807D01*
X187200808Y-26901546D01*
X187172762Y-26924563D01*
X187080913Y-27036481D01*
X187012663Y-27164168D01*
X187002887Y-27196396D01*
X186970635Y-27302715D01*
X186966990Y-27339725D01*
X186935750Y-27340000D01*
X186777000Y-27498750D01*
X186777000Y-28973000D01*
X186797000Y-28973000D01*
X186797000Y-29227000D01*
X186777000Y-29227000D01*
X186777000Y-30701250D01*
X186935750Y-30860000D01*
X186960001Y-30860213D01*
X186960001Y-32952352D01*
X185660000Y-34252354D01*
X185660000Y-30755122D01*
X185660506Y-30755537D01*
X185770820Y-30814502D01*
X185890518Y-30850812D01*
X186015000Y-30863072D01*
X186364250Y-30860000D01*
X186523000Y-30701250D01*
X186523000Y-29227000D01*
X186503000Y-29227000D01*
X186503000Y-28973000D01*
X186523000Y-28973000D01*
X186523000Y-27498750D01*
X186364250Y-27340000D01*
X186015000Y-27336928D01*
X185890518Y-27349188D01*
X185770820Y-27385498D01*
X185660506Y-27444463D01*
X185660000Y-27444878D01*
X185660000Y-23198622D01*
X185660506Y-23199037D01*
X185770820Y-23258002D01*
X185890518Y-23294312D01*
X186015000Y-23306572D01*
X186364250Y-23303500D01*
X186523000Y-23144750D01*
X186523000Y-21670500D01*
X186503000Y-21670500D01*
X186503000Y-21416500D01*
X186523000Y-21416500D01*
X186523000Y-21396500D01*
X186777000Y-21396500D01*
X186777000Y-21416500D01*
G04 #@! TA.AperFunction,Conductor*
D21*
G36*
X186777000Y-21416500D02*
G01*
X186797000Y-21416500D01*
X186797000Y-21670500D01*
X186777000Y-21670500D01*
X186777000Y-23144750D01*
X186935750Y-23303500D01*
X187285000Y-23306572D01*
X187409482Y-23294312D01*
X187529180Y-23258002D01*
X187639494Y-23199037D01*
X187736185Y-23119685D01*
X187815537Y-23022994D01*
X187874502Y-22912680D01*
X187910812Y-22792982D01*
X187920000Y-22699692D01*
X187929188Y-22792982D01*
X187965498Y-22912680D01*
X188024463Y-23022994D01*
X188103815Y-23119685D01*
X188200506Y-23199037D01*
X188310820Y-23258002D01*
X188430518Y-23294312D01*
X188555000Y-23306572D01*
X189825000Y-23306572D01*
X189949482Y-23294312D01*
X190069180Y-23258002D01*
X190179494Y-23199037D01*
X190276185Y-23119685D01*
X190355537Y-23022994D01*
X190414502Y-22912680D01*
X190450812Y-22792982D01*
X190459680Y-22702942D01*
X190469188Y-22799482D01*
X190505498Y-22919180D01*
X190564463Y-23029494D01*
X190643815Y-23126185D01*
X190740506Y-23205537D01*
X190850820Y-23264502D01*
X190970518Y-23300812D01*
X191095000Y-23313072D01*
X192365000Y-23313072D01*
X192489482Y-23300812D01*
X192609180Y-23264502D01*
X192719494Y-23205537D01*
X192816185Y-23126185D01*
X192895537Y-23029494D01*
X192954502Y-22919180D01*
X192990812Y-22799482D01*
X193000000Y-22706192D01*
X193009188Y-22799482D01*
X193045498Y-22919180D01*
X193104463Y-23029494D01*
X193183815Y-23126185D01*
X193280506Y-23205537D01*
X193390820Y-23264502D01*
X193510518Y-23300812D01*
X193635000Y-23313072D01*
X194905000Y-23313072D01*
X195029482Y-23300812D01*
X195149180Y-23264502D01*
X195259494Y-23205537D01*
X195356185Y-23126185D01*
X195435537Y-23029494D01*
X195494502Y-22919180D01*
X195530812Y-22799482D01*
X195540000Y-22706192D01*
X195549188Y-22799482D01*
X195585498Y-22919180D01*
X195644463Y-23029494D01*
X195675001Y-23066705D01*
X195675000Y-27583296D01*
X195644463Y-27620506D01*
X195585498Y-27730820D01*
X195549188Y-27850518D01*
X195540000Y-27943808D01*
X195530812Y-27850518D01*
X195494502Y-27730820D01*
X195435537Y-27620506D01*
X195356185Y-27523815D01*
X195259494Y-27444463D01*
X195149180Y-27385498D01*
X195029482Y-27349188D01*
X194905000Y-27336928D01*
X193635000Y-27336928D01*
X193554320Y-27344874D01*
X192260259Y-26050812D01*
X192237238Y-26022762D01*
X192125320Y-25930913D01*
X191997633Y-25862663D01*
X191859085Y-25820635D01*
X191751105Y-25810000D01*
X191715000Y-25806444D01*
X191678895Y-25810000D01*
X188632905Y-25810000D01*
X188596800Y-25806444D01*
X188560695Y-25810000D01*
X188452715Y-25820635D01*
X188314167Y-25862663D01*
X188186480Y-25930913D01*
X188074562Y-26022762D01*
X188051546Y-26050807D01*
X187200808Y-26901546D01*
X187172762Y-26924563D01*
X187080913Y-27036481D01*
X187012663Y-27164168D01*
X187002887Y-27196396D01*
X186970635Y-27302715D01*
X186966990Y-27339725D01*
X186935750Y-27340000D01*
X186777000Y-27498750D01*
X186777000Y-28973000D01*
X186797000Y-28973000D01*
X186797000Y-29227000D01*
X186777000Y-29227000D01*
X186777000Y-30701250D01*
X186935750Y-30860000D01*
X186960001Y-30860213D01*
X186960001Y-32952352D01*
X185660000Y-34252354D01*
X185660000Y-30755122D01*
X185660506Y-30755537D01*
X185770820Y-30814502D01*
X185890518Y-30850812D01*
X186015000Y-30863072D01*
X186364250Y-30860000D01*
X186523000Y-30701250D01*
X186523000Y-29227000D01*
X186503000Y-29227000D01*
X186503000Y-28973000D01*
X186523000Y-28973000D01*
X186523000Y-27498750D01*
X186364250Y-27340000D01*
X186015000Y-27336928D01*
X185890518Y-27349188D01*
X185770820Y-27385498D01*
X185660506Y-27444463D01*
X185660000Y-27444878D01*
X185660000Y-23198622D01*
X185660506Y-23199037D01*
X185770820Y-23258002D01*
X185890518Y-23294312D01*
X186015000Y-23306572D01*
X186364250Y-23303500D01*
X186523000Y-23144750D01*
X186523000Y-21670500D01*
X186503000Y-21670500D01*
X186503000Y-21416500D01*
X186523000Y-21416500D01*
X186523000Y-21396500D01*
X186777000Y-21396500D01*
X186777000Y-21416500D01*
G37*
G04 #@! TD.AperFunction*
M02*
