G04 #@! TF.GenerationSoftware,KiCad,Pcbnew,5.1.9+dfsg1-1~bpo10+1*
G04 #@! TF.CreationDate,2021-03-28T14:26:41+00:00*
G04 #@! TF.ProjectId,feederFloor,66656564-6572-4466-9c6f-6f722e6b6963,rev?*
G04 #@! TF.SameCoordinates,Original*
G04 #@! TF.FileFunction,Legend,Top*
G04 #@! TF.FilePolarity,Positive*
%FSLAX46Y46*%
G04 Gerber Fmt 4.6, Leading zero omitted, Abs format (unit mm)*
G04 Created by KiCad (PCBNEW 5.1.9+dfsg1-1~bpo10+1) date 2021-03-28 14:26:41*
%MOMM*%
%LPD*%
G01*
G04 APERTURE LIST*
%ADD10C,0.300000*%
%ADD11C,0.100000*%
%ADD12C,0.120000*%
%ADD13C,0.150000*%
G04 APERTURE END LIST*
D10*
X186000000Y-57904761D02*
X186000000Y-55904761D01*
X186952380Y-57904761D02*
X186952380Y-55904761D01*
X187428571Y-55904761D01*
X187714285Y-56000000D01*
X187904761Y-56190476D01*
X188000000Y-56380952D01*
X188095238Y-56761904D01*
X188095238Y-57047619D01*
X188000000Y-57428571D01*
X187904761Y-57619047D01*
X187714285Y-57809523D01*
X187428571Y-57904761D01*
X186952380Y-57904761D01*
D11*
G36*
X198000000Y-62500000D02*
G01*
X185500000Y-62500000D01*
X185500000Y-58500000D01*
X198000000Y-58500000D01*
X198000000Y-62500000D01*
G37*
X198000000Y-62500000D02*
X185500000Y-62500000D01*
X185500000Y-58500000D01*
X198000000Y-58500000D01*
X198000000Y-62500000D01*
D12*
X191572936Y-50535000D02*
X192027064Y-50535000D01*
X191572936Y-49065000D02*
X192027064Y-49065000D01*
X185230900Y-30413500D02*
X198230900Y-30413500D01*
X198230900Y-30413500D02*
X198230900Y-20163500D01*
X198230900Y-20163500D02*
X185230900Y-20163500D01*
X185230900Y-20163500D02*
X185230900Y-30413500D01*
X191800000Y-30820000D02*
X193790000Y-30820000D01*
X193790000Y-30820000D02*
X193790000Y-31105000D01*
X189810000Y-34695000D02*
X189810000Y-34980000D01*
X189810000Y-34980000D02*
X193790000Y-34980000D01*
X193790000Y-34695000D02*
X193790000Y-34980000D01*
D13*
X191633333Y-48602380D02*
X191300000Y-48126190D01*
X191061904Y-48602380D02*
X191061904Y-47602380D01*
X191442857Y-47602380D01*
X191538095Y-47650000D01*
X191585714Y-47697619D01*
X191633333Y-47792857D01*
X191633333Y-47935714D01*
X191585714Y-48030952D01*
X191538095Y-48078571D01*
X191442857Y-48126190D01*
X191061904Y-48126190D01*
X192585714Y-48602380D02*
X192014285Y-48602380D01*
X192300000Y-48602380D02*
X192300000Y-47602380D01*
X192204761Y-47745238D01*
X192109523Y-47840476D01*
X192014285Y-47888095D01*
X194738095Y-33452380D02*
X194738095Y-34261904D01*
X194785714Y-34357142D01*
X194833333Y-34404761D01*
X194928571Y-34452380D01*
X195119047Y-34452380D01*
X195214285Y-34404761D01*
X195261904Y-34357142D01*
X195309523Y-34261904D01*
X195309523Y-33452380D01*
X196309523Y-34452380D02*
X195738095Y-34452380D01*
X196023809Y-34452380D02*
X196023809Y-33452380D01*
X195928571Y-33595238D01*
X195833333Y-33690476D01*
X195738095Y-33738095D01*
M02*
