G04 #@! TF.GenerationSoftware,KiCad,Pcbnew,5.1.9+dfsg1-1~bpo10+1*
G04 #@! TF.CreationDate,2021-05-15T01:04:46+00:00*
G04 #@! TF.ProjectId,feederFloor,66656564-6572-4466-9c6f-6f722e6b6963,rev?*
G04 #@! TF.SameCoordinates,Original*
G04 #@! TF.FileFunction,Legend,Top*
G04 #@! TF.FilePolarity,Positive*
%FSLAX46Y46*%
G04 Gerber Fmt 4.6, Leading zero omitted, Abs format (unit mm)*
G04 Created by KiCad (PCBNEW 5.1.9+dfsg1-1~bpo10+1) date 2021-05-15 01:04:46*
%MOMM*%
%LPD*%
G01*
G04 APERTURE LIST*
%ADD10C,0.100000*%
%ADD11C,0.120000*%
%ADD12C,0.150000*%
G04 APERTURE END LIST*
D10*
G36*
X198000000Y-62500000D02*
G01*
X185500000Y-62500000D01*
X185500000Y-58500000D01*
X198000000Y-58500000D01*
X198000000Y-62500000D01*
G37*
X198000000Y-62500000D02*
X185500000Y-62500000D01*
X185500000Y-58500000D01*
X198000000Y-58500000D01*
X198000000Y-62500000D01*
D11*
X192057064Y-50475000D02*
X191602936Y-50475000D01*
X192057064Y-49005000D02*
X191602936Y-49005000D01*
X185230900Y-30413500D02*
X198230900Y-30413500D01*
X198230900Y-30413500D02*
X198230900Y-20163500D01*
X198230900Y-20163500D02*
X185230900Y-20163500D01*
X185230900Y-20163500D02*
X185230900Y-30413500D01*
X193780000Y-35195000D02*
X193780000Y-35480000D01*
X189800000Y-35480000D02*
X193780000Y-35480000D01*
X189800000Y-35195000D02*
X189800000Y-35480000D01*
X193780000Y-31320000D02*
X193780000Y-31605000D01*
X191790000Y-31320000D02*
X193780000Y-31320000D01*
D12*
X195168095Y-47262380D02*
X195168095Y-46262380D01*
X195168095Y-46738571D02*
X195739523Y-46738571D01*
X195739523Y-47262380D02*
X195739523Y-46262380D01*
X196739523Y-47262380D02*
X196168095Y-47262380D01*
X196453809Y-47262380D02*
X196453809Y-46262380D01*
X196358571Y-46405238D01*
X196263333Y-46500476D01*
X196168095Y-46548095D01*
X191663333Y-48502380D02*
X191330000Y-48026190D01*
X191091904Y-48502380D02*
X191091904Y-47502380D01*
X191472857Y-47502380D01*
X191568095Y-47550000D01*
X191615714Y-47597619D01*
X191663333Y-47692857D01*
X191663333Y-47835714D01*
X191615714Y-47930952D01*
X191568095Y-47978571D01*
X191472857Y-48026190D01*
X191091904Y-48026190D01*
X192615714Y-48502380D02*
X192044285Y-48502380D01*
X192330000Y-48502380D02*
X192330000Y-47502380D01*
X192234761Y-47645238D01*
X192139523Y-47740476D01*
X192044285Y-47788095D01*
X194598095Y-34612380D02*
X194598095Y-35421904D01*
X194645714Y-35517142D01*
X194693333Y-35564761D01*
X194788571Y-35612380D01*
X194979047Y-35612380D01*
X195074285Y-35564761D01*
X195121904Y-35517142D01*
X195169523Y-35421904D01*
X195169523Y-34612380D01*
X196169523Y-35612380D02*
X195598095Y-35612380D01*
X195883809Y-35612380D02*
X195883809Y-34612380D01*
X195788571Y-34755238D01*
X195693333Y-34850476D01*
X195598095Y-34898095D01*
M02*
