G04 #@! TF.GenerationSoftware,KiCad,Pcbnew,5.1.8+dfsg1-1~bpo10+1*
G04 #@! TF.CreationDate,2021-01-29T11:49:21+00:00*
G04 #@! TF.ProjectId,feederFloor,66656564-6572-4466-9c6f-6f722e6b6963,rev?*
G04 #@! TF.SameCoordinates,Original*
G04 #@! TF.FileFunction,Legend,Bot*
G04 #@! TF.FilePolarity,Positive*
%FSLAX46Y46*%
G04 Gerber Fmt 4.6, Leading zero omitted, Abs format (unit mm)*
G04 Created by KiCad (PCBNEW 5.1.8+dfsg1-1~bpo10+1) date 2021-01-29 11:49:21*
%MOMM*%
%LPD*%
G01*
G04 APERTURE LIST*
%ADD10C,0.150000*%
%ADD11C,0.010000*%
%ADD12C,0.120000*%
G04 APERTURE END LIST*
D10*
X196726190Y-30603571D02*
X197059523Y-30603571D01*
X197059523Y-31127380D02*
X197059523Y-30127380D01*
X196583333Y-30127380D01*
X196202380Y-30603571D02*
X195869047Y-30603571D01*
X195726190Y-31127380D02*
X196202380Y-31127380D01*
X196202380Y-30127380D01*
X195726190Y-30127380D01*
X195297619Y-30603571D02*
X194964285Y-30603571D01*
X194821428Y-31127380D02*
X195297619Y-31127380D01*
X195297619Y-30127380D01*
X194821428Y-30127380D01*
X194392857Y-31127380D02*
X194392857Y-30127380D01*
X194154761Y-30127380D01*
X194011904Y-30175000D01*
X193916666Y-30270238D01*
X193869047Y-30365476D01*
X193821428Y-30555952D01*
X193821428Y-30698809D01*
X193869047Y-30889285D01*
X193916666Y-30984523D01*
X194011904Y-31079761D01*
X194154761Y-31127380D01*
X194392857Y-31127380D01*
X193392857Y-30603571D02*
X193059523Y-30603571D01*
X192916666Y-31127380D02*
X193392857Y-31127380D01*
X193392857Y-30127380D01*
X192916666Y-30127380D01*
X191916666Y-31127380D02*
X192250000Y-30651190D01*
X192488095Y-31127380D02*
X192488095Y-30127380D01*
X192107142Y-30127380D01*
X192011904Y-30175000D01*
X191964285Y-30222619D01*
X191916666Y-30317857D01*
X191916666Y-30460714D01*
X191964285Y-30555952D01*
X192011904Y-30603571D01*
X192107142Y-30651190D01*
X192488095Y-30651190D01*
X190392857Y-30603571D02*
X190726190Y-30603571D01*
X190726190Y-31127380D02*
X190726190Y-30127380D01*
X190250000Y-30127380D01*
X189392857Y-31127380D02*
X189869047Y-31127380D01*
X189869047Y-30127380D01*
X188869047Y-30127380D02*
X188678571Y-30127380D01*
X188583333Y-30175000D01*
X188488095Y-30270238D01*
X188440476Y-30460714D01*
X188440476Y-30794047D01*
X188488095Y-30984523D01*
X188583333Y-31079761D01*
X188678571Y-31127380D01*
X188869047Y-31127380D01*
X188964285Y-31079761D01*
X189059523Y-30984523D01*
X189107142Y-30794047D01*
X189107142Y-30460714D01*
X189059523Y-30270238D01*
X188964285Y-30175000D01*
X188869047Y-30127380D01*
X187821428Y-30127380D02*
X187630952Y-30127380D01*
X187535714Y-30175000D01*
X187440476Y-30270238D01*
X187392857Y-30460714D01*
X187392857Y-30794047D01*
X187440476Y-30984523D01*
X187535714Y-31079761D01*
X187630952Y-31127380D01*
X187821428Y-31127380D01*
X187916666Y-31079761D01*
X188011904Y-30984523D01*
X188059523Y-30794047D01*
X188059523Y-30460714D01*
X188011904Y-30270238D01*
X187916666Y-30175000D01*
X187821428Y-30127380D01*
X186392857Y-31127380D02*
X186726190Y-30651190D01*
X186964285Y-31127380D02*
X186964285Y-30127380D01*
X186583333Y-30127380D01*
X186488095Y-30175000D01*
X186440476Y-30222619D01*
X186392857Y-30317857D01*
X186392857Y-30460714D01*
X186440476Y-30555952D01*
X186488095Y-30603571D01*
X186583333Y-30651190D01*
X186964285Y-30651190D01*
X193273809Y-32777380D02*
X193607142Y-32301190D01*
X193845238Y-32777380D02*
X193845238Y-31777380D01*
X193464285Y-31777380D01*
X193369047Y-31825000D01*
X193321428Y-31872619D01*
X193273809Y-31967857D01*
X193273809Y-32110714D01*
X193321428Y-32205952D01*
X193369047Y-32253571D01*
X193464285Y-32301190D01*
X193845238Y-32301190D01*
X192845238Y-32253571D02*
X192511904Y-32253571D01*
X192369047Y-32777380D02*
X192845238Y-32777380D01*
X192845238Y-31777380D01*
X192369047Y-31777380D01*
X192083333Y-31777380D02*
X191750000Y-32777380D01*
X191416666Y-31777380D01*
X190892857Y-31777380D02*
X190797619Y-31777380D01*
X190702380Y-31825000D01*
X190654761Y-31872619D01*
X190607142Y-31967857D01*
X190559523Y-32158333D01*
X190559523Y-32396428D01*
X190607142Y-32586904D01*
X190654761Y-32682142D01*
X190702380Y-32729761D01*
X190797619Y-32777380D01*
X190892857Y-32777380D01*
X190988095Y-32729761D01*
X191035714Y-32682142D01*
X191083333Y-32586904D01*
X191130952Y-32396428D01*
X191130952Y-32158333D01*
X191083333Y-31967857D01*
X191035714Y-31872619D01*
X190988095Y-31825000D01*
X190892857Y-31777380D01*
X190178571Y-31872619D02*
X190130952Y-31825000D01*
X190035714Y-31777380D01*
X189797619Y-31777380D01*
X189702380Y-31825000D01*
X189654761Y-31872619D01*
X189607142Y-31967857D01*
X189607142Y-32063095D01*
X189654761Y-32205952D01*
X190226190Y-32777380D01*
X189607142Y-32777380D01*
D11*
G36*
X191627561Y-25057805D02*
G01*
X191623611Y-25237722D01*
X191443695Y-25241671D01*
X191263778Y-25245621D01*
X191263778Y-25568490D01*
X191443695Y-25572439D01*
X191623611Y-25576389D01*
X191627561Y-25756305D01*
X191631510Y-25936222D01*
X191954379Y-25936222D01*
X191958329Y-25756305D01*
X191962278Y-25576389D01*
X192142195Y-25572439D01*
X192322111Y-25568490D01*
X192322111Y-25245621D01*
X192142195Y-25241671D01*
X191962278Y-25237722D01*
X191958329Y-25057805D01*
X191954379Y-24877889D01*
X191631510Y-24877889D01*
X191627561Y-25057805D01*
G37*
X191627561Y-25057805D02*
X191623611Y-25237722D01*
X191443695Y-25241671D01*
X191263778Y-25245621D01*
X191263778Y-25568490D01*
X191443695Y-25572439D01*
X191623611Y-25576389D01*
X191627561Y-25756305D01*
X191631510Y-25936222D01*
X191954379Y-25936222D01*
X191958329Y-25756305D01*
X191962278Y-25576389D01*
X192142195Y-25572439D01*
X192322111Y-25568490D01*
X192322111Y-25245621D01*
X192142195Y-25241671D01*
X191962278Y-25237722D01*
X191958329Y-25057805D01*
X191954379Y-24877889D01*
X191631510Y-24877889D01*
X191627561Y-25057805D01*
G36*
X191630667Y-22856102D02*
G01*
X191536131Y-22865788D01*
X191277040Y-22906461D01*
X191021730Y-22975028D01*
X190770021Y-23071540D01*
X190649945Y-23128050D01*
X190507326Y-23203651D01*
X190380466Y-23281262D01*
X190262187Y-23366129D01*
X190145309Y-23463492D01*
X190022655Y-23578597D01*
X189993446Y-23607557D01*
X189873614Y-23732508D01*
X189772706Y-23850062D01*
X189685478Y-23967398D01*
X189606688Y-24091694D01*
X189531091Y-24230130D01*
X189513939Y-24264055D01*
X189403939Y-24514092D01*
X189321911Y-24767644D01*
X189267801Y-25024891D01*
X189251677Y-25150241D01*
X189241992Y-25244778D01*
X188949556Y-25244778D01*
X188949556Y-25569333D01*
X189242601Y-25569333D01*
X189252465Y-25664583D01*
X189292341Y-25921009D01*
X189358523Y-26171033D01*
X189451764Y-26417208D01*
X189513939Y-26550055D01*
X189589540Y-26692674D01*
X189667152Y-26819534D01*
X189752018Y-26937813D01*
X189849381Y-27054691D01*
X189964486Y-27177345D01*
X189993446Y-27206554D01*
X190118397Y-27326386D01*
X190235951Y-27427294D01*
X190353287Y-27514522D01*
X190477584Y-27593312D01*
X190616020Y-27668909D01*
X190649945Y-27686061D01*
X190899981Y-27796061D01*
X191153534Y-27878089D01*
X191410780Y-27932199D01*
X191536131Y-27948323D01*
X191630667Y-27958008D01*
X191630667Y-28250444D01*
X191955222Y-28250444D01*
X191955222Y-27958008D01*
X192049759Y-27948323D01*
X192308849Y-27907649D01*
X192564160Y-27839083D01*
X192815868Y-27742570D01*
X192935945Y-27686061D01*
X193078563Y-27610460D01*
X193205423Y-27532848D01*
X193323702Y-27447982D01*
X193440580Y-27350619D01*
X193563235Y-27235514D01*
X193592443Y-27206554D01*
X193712275Y-27081603D01*
X193813183Y-26964049D01*
X193900411Y-26846713D01*
X193979202Y-26722416D01*
X194054798Y-26583980D01*
X194071950Y-26550055D01*
X194181950Y-26300019D01*
X194263979Y-26046466D01*
X194318088Y-25789220D01*
X194334212Y-25663869D01*
X194343898Y-25569333D01*
X194636333Y-25569333D01*
X194636333Y-25244778D01*
X194343898Y-25244778D01*
X194005231Y-25244778D01*
X192590222Y-25244778D01*
X192590222Y-25569333D01*
X194005231Y-25569333D01*
X193995524Y-25664583D01*
X193959639Y-25884313D01*
X193897594Y-26104567D01*
X193811111Y-26321475D01*
X193701907Y-26531165D01*
X193571704Y-26729766D01*
X193459801Y-26870858D01*
X193306596Y-27028821D01*
X193131950Y-27173377D01*
X192940543Y-27301804D01*
X192737055Y-27411383D01*
X192526165Y-27499390D01*
X192312554Y-27563106D01*
X192243468Y-27578102D01*
X192170237Y-27592329D01*
X192117880Y-27601925D01*
X192079620Y-27607910D01*
X192048682Y-27611303D01*
X192018287Y-27613125D01*
X192008139Y-27613523D01*
X191955222Y-27615444D01*
X191955222Y-27121555D01*
X191630667Y-27121555D01*
X191630667Y-27619342D01*
X191535417Y-27609635D01*
X191316702Y-27573883D01*
X191097910Y-27512335D01*
X190883091Y-27427114D01*
X190676294Y-27320343D01*
X190481569Y-27194146D01*
X190302967Y-27050645D01*
X190144537Y-26891964D01*
X190126088Y-26870858D01*
X189981078Y-26683270D01*
X189855763Y-26481651D01*
X189751861Y-26269873D01*
X189671093Y-26051808D01*
X189615176Y-25831326D01*
X189590365Y-25664583D01*
X189580658Y-25569333D01*
X190078445Y-25569333D01*
X190078445Y-25244778D01*
X189580658Y-25244778D01*
X189590365Y-25149528D01*
X189626251Y-24929798D01*
X189688295Y-24709544D01*
X189774778Y-24492636D01*
X189883982Y-24282946D01*
X190014186Y-24084345D01*
X190126088Y-23943253D01*
X190281669Y-23782797D01*
X190457937Y-23637253D01*
X190650841Y-23508743D01*
X190856331Y-23399391D01*
X191070357Y-23311319D01*
X191288869Y-23246651D01*
X191507818Y-23207509D01*
X191535417Y-23204476D01*
X191630667Y-23194769D01*
X191630667Y-24609778D01*
X191955222Y-24609778D01*
X191955222Y-23194769D01*
X192050472Y-23204476D01*
X192269187Y-23240228D01*
X192487979Y-23301776D01*
X192702798Y-23386997D01*
X192909595Y-23493767D01*
X193104320Y-23619965D01*
X193282922Y-23763466D01*
X193441352Y-23922147D01*
X193459801Y-23943253D01*
X193604811Y-24130841D01*
X193730126Y-24332460D01*
X193834028Y-24544238D01*
X193914796Y-24762303D01*
X193970713Y-24982784D01*
X193995524Y-25149528D01*
X194005231Y-25244778D01*
X194343898Y-25244778D01*
X194334212Y-25150241D01*
X194293539Y-24891151D01*
X194224972Y-24635840D01*
X194128460Y-24384132D01*
X194071950Y-24264055D01*
X193996349Y-24121437D01*
X193918738Y-23994577D01*
X193833871Y-23876298D01*
X193736508Y-23759420D01*
X193621403Y-23636765D01*
X193592443Y-23607557D01*
X193467492Y-23487725D01*
X193349938Y-23386817D01*
X193232602Y-23299589D01*
X193108306Y-23220798D01*
X192969870Y-23145202D01*
X192935945Y-23128050D01*
X192685908Y-23018050D01*
X192432356Y-22936021D01*
X192175109Y-22881912D01*
X192049759Y-22865788D01*
X191955222Y-22856102D01*
X191955222Y-22563667D01*
X191630667Y-22563667D01*
X191630667Y-22856102D01*
G37*
X191630667Y-22856102D02*
X191536131Y-22865788D01*
X191277040Y-22906461D01*
X191021730Y-22975028D01*
X190770021Y-23071540D01*
X190649945Y-23128050D01*
X190507326Y-23203651D01*
X190380466Y-23281262D01*
X190262187Y-23366129D01*
X190145309Y-23463492D01*
X190022655Y-23578597D01*
X189993446Y-23607557D01*
X189873614Y-23732508D01*
X189772706Y-23850062D01*
X189685478Y-23967398D01*
X189606688Y-24091694D01*
X189531091Y-24230130D01*
X189513939Y-24264055D01*
X189403939Y-24514092D01*
X189321911Y-24767644D01*
X189267801Y-25024891D01*
X189251677Y-25150241D01*
X189241992Y-25244778D01*
X188949556Y-25244778D01*
X188949556Y-25569333D01*
X189242601Y-25569333D01*
X189252465Y-25664583D01*
X189292341Y-25921009D01*
X189358523Y-26171033D01*
X189451764Y-26417208D01*
X189513939Y-26550055D01*
X189589540Y-26692674D01*
X189667152Y-26819534D01*
X189752018Y-26937813D01*
X189849381Y-27054691D01*
X189964486Y-27177345D01*
X189993446Y-27206554D01*
X190118397Y-27326386D01*
X190235951Y-27427294D01*
X190353287Y-27514522D01*
X190477584Y-27593312D01*
X190616020Y-27668909D01*
X190649945Y-27686061D01*
X190899981Y-27796061D01*
X191153534Y-27878089D01*
X191410780Y-27932199D01*
X191536131Y-27948323D01*
X191630667Y-27958008D01*
X191630667Y-28250444D01*
X191955222Y-28250444D01*
X191955222Y-27958008D01*
X192049759Y-27948323D01*
X192308849Y-27907649D01*
X192564160Y-27839083D01*
X192815868Y-27742570D01*
X192935945Y-27686061D01*
X193078563Y-27610460D01*
X193205423Y-27532848D01*
X193323702Y-27447982D01*
X193440580Y-27350619D01*
X193563235Y-27235514D01*
X193592443Y-27206554D01*
X193712275Y-27081603D01*
X193813183Y-26964049D01*
X193900411Y-26846713D01*
X193979202Y-26722416D01*
X194054798Y-26583980D01*
X194071950Y-26550055D01*
X194181950Y-26300019D01*
X194263979Y-26046466D01*
X194318088Y-25789220D01*
X194334212Y-25663869D01*
X194343898Y-25569333D01*
X194636333Y-25569333D01*
X194636333Y-25244778D01*
X194343898Y-25244778D01*
X194005231Y-25244778D01*
X192590222Y-25244778D01*
X192590222Y-25569333D01*
X194005231Y-25569333D01*
X193995524Y-25664583D01*
X193959639Y-25884313D01*
X193897594Y-26104567D01*
X193811111Y-26321475D01*
X193701907Y-26531165D01*
X193571704Y-26729766D01*
X193459801Y-26870858D01*
X193306596Y-27028821D01*
X193131950Y-27173377D01*
X192940543Y-27301804D01*
X192737055Y-27411383D01*
X192526165Y-27499390D01*
X192312554Y-27563106D01*
X192243468Y-27578102D01*
X192170237Y-27592329D01*
X192117880Y-27601925D01*
X192079620Y-27607910D01*
X192048682Y-27611303D01*
X192018287Y-27613125D01*
X192008139Y-27613523D01*
X191955222Y-27615444D01*
X191955222Y-27121555D01*
X191630667Y-27121555D01*
X191630667Y-27619342D01*
X191535417Y-27609635D01*
X191316702Y-27573883D01*
X191097910Y-27512335D01*
X190883091Y-27427114D01*
X190676294Y-27320343D01*
X190481569Y-27194146D01*
X190302967Y-27050645D01*
X190144537Y-26891964D01*
X190126088Y-26870858D01*
X189981078Y-26683270D01*
X189855763Y-26481651D01*
X189751861Y-26269873D01*
X189671093Y-26051808D01*
X189615176Y-25831326D01*
X189590365Y-25664583D01*
X189580658Y-25569333D01*
X190078445Y-25569333D01*
X190078445Y-25244778D01*
X189580658Y-25244778D01*
X189590365Y-25149528D01*
X189626251Y-24929798D01*
X189688295Y-24709544D01*
X189774778Y-24492636D01*
X189883982Y-24282946D01*
X190014186Y-24084345D01*
X190126088Y-23943253D01*
X190281669Y-23782797D01*
X190457937Y-23637253D01*
X190650841Y-23508743D01*
X190856331Y-23399391D01*
X191070357Y-23311319D01*
X191288869Y-23246651D01*
X191507818Y-23207509D01*
X191535417Y-23204476D01*
X191630667Y-23194769D01*
X191630667Y-24609778D01*
X191955222Y-24609778D01*
X191955222Y-23194769D01*
X192050472Y-23204476D01*
X192269187Y-23240228D01*
X192487979Y-23301776D01*
X192702798Y-23386997D01*
X192909595Y-23493767D01*
X193104320Y-23619965D01*
X193282922Y-23763466D01*
X193441352Y-23922147D01*
X193459801Y-23943253D01*
X193604811Y-24130841D01*
X193730126Y-24332460D01*
X193834028Y-24544238D01*
X193914796Y-24762303D01*
X193970713Y-24982784D01*
X193995524Y-25149528D01*
X194005231Y-25244778D01*
X194343898Y-25244778D01*
X194334212Y-25150241D01*
X194293539Y-24891151D01*
X194224972Y-24635840D01*
X194128460Y-24384132D01*
X194071950Y-24264055D01*
X193996349Y-24121437D01*
X193918738Y-23994577D01*
X193833871Y-23876298D01*
X193736508Y-23759420D01*
X193621403Y-23636765D01*
X193592443Y-23607557D01*
X193467492Y-23487725D01*
X193349938Y-23386817D01*
X193232602Y-23299589D01*
X193108306Y-23220798D01*
X192969870Y-23145202D01*
X192935945Y-23128050D01*
X192685908Y-23018050D01*
X192432356Y-22936021D01*
X192175109Y-22881912D01*
X192049759Y-22865788D01*
X191955222Y-22856102D01*
X191955222Y-22563667D01*
X191630667Y-22563667D01*
X191630667Y-22856102D01*
D12*
X196445000Y-62550000D02*
X196445000Y-46770000D01*
X196445000Y-46770000D02*
X187095000Y-46770000D01*
X187095000Y-46770000D02*
X187095000Y-62550000D01*
X187095000Y-62550000D02*
X196445000Y-62550000D01*
X186845000Y-62800000D02*
X186845000Y-60260000D01*
X186845000Y-62800000D02*
X189385000Y-62800000D01*
D10*
X185352380Y-61566666D02*
X186066666Y-61566666D01*
X186209523Y-61519047D01*
X186304761Y-61423809D01*
X186352380Y-61280952D01*
X186352380Y-61185714D01*
X186352380Y-62566666D02*
X186352380Y-61995238D01*
X186352380Y-62280952D02*
X185352380Y-62280952D01*
X185495238Y-62185714D01*
X185590476Y-62090476D01*
X185638095Y-61995238D01*
M02*
