G04 #@! TF.GenerationSoftware,KiCad,Pcbnew,5.1.9+dfsg1-1~bpo10+1*
G04 #@! TF.CreationDate,2021-04-19T22:42:22+00:00*
G04 #@! TF.ProjectId,ringLight,72696e67-4c69-4676-9874-2e6b69636164,rev?*
G04 #@! TF.SameCoordinates,Original*
G04 #@! TF.FileFunction,Legend,Bot*
G04 #@! TF.FilePolarity,Positive*
%FSLAX46Y46*%
G04 Gerber Fmt 4.6, Leading zero omitted, Abs format (unit mm)*
G04 Created by KiCad (PCBNEW 5.1.9+dfsg1-1~bpo10+1) date 2021-04-19 22:42:22*
%MOMM*%
%LPD*%
G01*
G04 APERTURE LIST*
%ADD10C,0.150000*%
%ADD11C,0.120000*%
%ADD12C,0.010000*%
G04 APERTURE END LIST*
D10*
X3335714Y-15871428D02*
X2573809Y-15871428D01*
X2240476Y-15585714D02*
X1859523Y-15585714D01*
X2097619Y-16252380D02*
X2097619Y-15395238D01*
X2050000Y-15300000D01*
X1954761Y-15252380D01*
X1859523Y-15252380D01*
X1383333Y-15680952D02*
X1478571Y-15633333D01*
X1526190Y-15585714D01*
X1573809Y-15490476D01*
X1573809Y-15442857D01*
X1526190Y-15347619D01*
X1478571Y-15300000D01*
X1383333Y-15252380D01*
X1192857Y-15252380D01*
X1097619Y-15300000D01*
X1050000Y-15347619D01*
X1002380Y-15442857D01*
X1002380Y-15490476D01*
X1050000Y-15585714D01*
X1097619Y-15633333D01*
X1192857Y-15680952D01*
X1383333Y-15680952D01*
X1478571Y-15728571D01*
X1526190Y-15776190D01*
X1573809Y-15871428D01*
X1573809Y-16061904D01*
X1526190Y-16157142D01*
X1478571Y-16204761D01*
X1383333Y-16252380D01*
X1192857Y-16252380D01*
X1097619Y-16204761D01*
X1050000Y-16157142D01*
X1002380Y-16061904D01*
X1002380Y-15871428D01*
X1050000Y-15776190D01*
X1097619Y-15728571D01*
X1192857Y-15680952D01*
X573809Y-16252380D02*
X573809Y-15252380D01*
X573809Y-15633333D02*
X478571Y-15585714D01*
X288095Y-15585714D01*
X192857Y-15633333D01*
X145238Y-15680952D01*
X97619Y-15776190D01*
X97619Y-16061904D01*
X145238Y-16157142D01*
X192857Y-16204761D01*
X288095Y-16252380D01*
X478571Y-16252380D01*
X573809Y-16204761D01*
X-759523Y-16252380D02*
X-759523Y-15728571D01*
X-711904Y-15633333D01*
X-616666Y-15585714D01*
X-426190Y-15585714D01*
X-330952Y-15633333D01*
X-759523Y-16204761D02*
X-664285Y-16252380D01*
X-426190Y-16252380D01*
X-330952Y-16204761D01*
X-283333Y-16109523D01*
X-283333Y-16014285D01*
X-330952Y-15919047D01*
X-426190Y-15871428D01*
X-664285Y-15871428D01*
X-759523Y-15823809D01*
X-1092857Y-15585714D02*
X-1473809Y-15585714D01*
X-1235714Y-16252380D02*
X-1235714Y-15395238D01*
X-1283333Y-15300000D01*
X-1378571Y-15252380D01*
X-1473809Y-15252380D01*
X-1711904Y-15252380D02*
X-2330952Y-15252380D01*
X-1997619Y-15633333D01*
X-2140476Y-15633333D01*
X-2235714Y-15680952D01*
X-2283333Y-15728571D01*
X-2330952Y-15823809D01*
X-2330952Y-16061904D01*
X-2283333Y-16157142D01*
X-2235714Y-16204761D01*
X-2140476Y-16252380D01*
X-1854761Y-16252380D01*
X-1759523Y-16204761D01*
X-1711904Y-16157142D01*
X-2949999Y-15252380D02*
X-3045238Y-15252380D01*
X-3140476Y-15300000D01*
X-3188095Y-15347619D01*
X-3235714Y-15442857D01*
X-3283333Y-15633333D01*
X-3283333Y-15871428D01*
X-3235714Y-16061904D01*
X-3188095Y-16157142D01*
X-3140476Y-16204761D01*
X-3045238Y-16252380D01*
X-2949999Y-16252380D01*
X-2854761Y-16204761D01*
X-2807142Y-16157142D01*
X-2759523Y-16061904D01*
X-2711904Y-15871428D01*
X-2711904Y-15633333D01*
X-2759523Y-15442857D01*
X-2807142Y-15347619D01*
X-2854761Y-15300000D01*
X-2949999Y-15252380D01*
D11*
X5115000Y23980000D02*
X5115000Y23130000D01*
X5115000Y23130000D02*
X2790000Y23130000D01*
X2790000Y23130000D02*
X2790000Y20740000D01*
X-5055000Y23980000D02*
X-5055000Y23130000D01*
X-5055000Y23130000D02*
X-2730000Y23130000D01*
X5115000Y27500000D02*
X5115000Y28350000D01*
X5115000Y28350000D02*
X-5055000Y28350000D01*
X-5055000Y28350000D02*
X-5055000Y27500000D01*
D12*
G36*
X3800000Y-12650000D02*
G01*
X3900000Y-12660000D01*
X3990000Y-12690000D01*
X4090000Y-12720000D01*
X4180000Y-12770000D01*
X4270000Y-12820000D01*
X4350000Y-12880000D01*
X4420000Y-12950000D01*
X4490000Y-13020000D01*
X4550000Y-13110000D01*
X4600000Y-13200000D01*
X4640000Y-13290000D01*
X4680000Y-13380000D01*
X4700000Y-13480000D01*
X4710000Y-13580000D01*
X4710000Y-13680000D01*
X4710000Y-13790000D01*
X4690000Y-13890000D01*
X4660000Y-13980000D01*
X4620000Y-14080000D01*
X4580000Y-14170000D01*
X4520000Y-14250000D01*
X4460000Y-14330000D01*
X4390000Y-14410000D01*
X4310000Y-14470000D01*
X4230000Y-14530000D01*
X4140000Y-14580000D01*
X4040000Y-14620000D01*
X3950000Y-14650000D01*
X3850000Y-14660000D01*
X3750000Y-14670000D01*
X3650000Y-14680000D01*
X-3670000Y-14680000D01*
X-3770000Y-14670000D01*
X-3870000Y-14660000D01*
X-3970000Y-14640000D01*
X-4060000Y-14620000D01*
X-4160000Y-14580000D01*
X-4250000Y-14530000D01*
X-4330000Y-14470000D01*
X-4410000Y-14410000D01*
X-4480000Y-14330000D01*
X-4540000Y-14250000D01*
X-4600000Y-14170000D01*
X-4640000Y-14080000D01*
X-4680000Y-13980000D01*
X-4710000Y-13890000D01*
X-4730000Y-13790000D01*
X-4730000Y-13680000D01*
X-4730000Y-13580000D01*
X-4720000Y-13480000D01*
X-4700000Y-13380000D01*
X-4660000Y-13290000D01*
X-4620000Y-13190000D01*
X-4570000Y-13110000D01*
X-4510000Y-13020000D01*
X-4440000Y-12950000D01*
X-4370000Y-12880000D01*
X-4290000Y-12820000D01*
X-4200000Y-12770000D01*
X-4110000Y-12720000D01*
X-4010000Y-12690000D01*
X-3920000Y-12660000D01*
X-3820000Y-12650000D01*
X-3710000Y-12640000D01*
X3700000Y-12640000D01*
X3570000Y-12950000D01*
X3460000Y-12930000D01*
X3050000Y-12930000D01*
X2950000Y-12940000D01*
X2860000Y-12960000D01*
X2760000Y-13010000D01*
X2680000Y-13070000D01*
X2610000Y-13140000D01*
X2560000Y-13230000D01*
X2520000Y-13330000D01*
X2510000Y-13430000D01*
X2520000Y-13540000D01*
X2540000Y-13630000D01*
X2590000Y-13720000D01*
X2650000Y-13800000D01*
X2630000Y-13870000D01*
X2600000Y-13960000D01*
X2550000Y-14060000D01*
X2520000Y-14150000D01*
X2500000Y-14240000D01*
X2190000Y-14170000D01*
X2190000Y-13160000D01*
X2190000Y-13040000D01*
X2150000Y-12970000D01*
X2060000Y-12940000D01*
X1950000Y-12940000D01*
X1240000Y-12940000D01*
X1140000Y-12960000D01*
X1090000Y-13020000D01*
X1080000Y-13140000D01*
X810000Y-13140000D01*
X820000Y-13060000D01*
X750000Y-12990000D01*
X640000Y-12930000D01*
X550000Y-12940000D01*
X490000Y-13020000D01*
X460000Y-13090000D01*
X150000Y-13770000D01*
X100000Y-13880000D01*
X70000Y-13840000D01*
X-270000Y-13110000D01*
X-310000Y-13010000D01*
X-380000Y-12940000D01*
X-470000Y-12940000D01*
X-540000Y-12960000D01*
X-620000Y-13040000D01*
X-640000Y-13110000D01*
X-600000Y-13210000D01*
X-1010000Y-13310000D01*
X-1040000Y-13200000D01*
X-1090000Y-13120000D01*
X-1140000Y-13040000D01*
X-1200000Y-12980000D01*
X-1290000Y-12930000D01*
X-1390000Y-12900000D01*
X-1490000Y-12890000D01*
X-1600000Y-12890000D01*
X-1690000Y-12920000D01*
X-1780000Y-12970000D01*
X-1860000Y-13030000D01*
X-1920000Y-13110000D01*
X-1970000Y-13200000D01*
X-2000000Y-13290000D01*
X-2030000Y-13390000D01*
X-2040000Y-13490000D01*
X-2360000Y-13440000D01*
X-2370000Y-13340000D01*
X-2400000Y-13240000D01*
X-2440000Y-13150000D01*
X-2510000Y-13070000D01*
X-2580000Y-13000000D01*
X-2670000Y-12960000D01*
X-2760000Y-12930000D01*
X-2870000Y-12920000D01*
X-2980000Y-12930000D01*
X-3080000Y-12950000D01*
X-3170000Y-13000000D01*
X-3240000Y-13060000D01*
X-3310000Y-13140000D01*
X-3360000Y-13230000D01*
X-3390000Y-13320000D01*
X-3400000Y-13420000D01*
X-3400000Y-13530000D01*
X-3380000Y-13620000D01*
X-3330000Y-13720000D01*
X-3270000Y-13800000D01*
X-3190000Y-13870000D01*
X-3100000Y-13940000D01*
X-3020000Y-13980000D01*
X-2940000Y-14020000D01*
X-3030000Y-14030000D01*
X-3230000Y-14030000D01*
X-3290000Y-14030000D01*
X-3400000Y-14040000D01*
X-3460000Y-14110000D01*
X-3460000Y-14210000D01*
X-3450000Y-14310000D01*
X-3370000Y-14360000D01*
X-3270000Y-14370000D01*
X-2560000Y-14370000D01*
X-2460000Y-14360000D01*
X-2380000Y-14290000D01*
X-2360000Y-14190000D01*
X-2380000Y-14100000D01*
X-2430000Y-14010000D01*
X-2490000Y-13930000D01*
X-2580000Y-13870000D01*
X-2840000Y-13710000D01*
X-2920000Y-13650000D01*
X-2990000Y-13580000D01*
X-3050000Y-13490000D01*
X-3050000Y-13400000D01*
X-3010000Y-13310000D01*
X-2920000Y-13270000D01*
X-2810000Y-13270000D01*
X-2730000Y-13340000D01*
X-2710000Y-13430000D01*
X-2690000Y-13530000D01*
X-2650000Y-13600000D01*
X-2530000Y-13620000D01*
X-2410000Y-13600000D01*
X-2370000Y-13540000D01*
X-2360000Y-13440000D01*
X-2040000Y-13490000D01*
X-2050000Y-13590000D01*
X-2050000Y-13710000D01*
X-2040000Y-13820000D01*
X-2020000Y-13920000D01*
X-1990000Y-14020000D01*
X-1950000Y-14100000D01*
X-1910000Y-14180000D01*
X-1840000Y-14250000D01*
X-1760000Y-14310000D01*
X-1670000Y-14350000D01*
X-1570000Y-14370000D01*
X-1460000Y-14370000D01*
X-1360000Y-14350000D01*
X-1270000Y-14320000D01*
X-1180000Y-14260000D01*
X-1110000Y-14190000D01*
X-1060000Y-14110000D01*
X-1020000Y-14010000D01*
X-990000Y-13920000D01*
X-980000Y-13830000D01*
X-970000Y-13720000D01*
X-970000Y-13610000D01*
X-970000Y-13500000D01*
X-980000Y-13400000D01*
X-1010000Y-13310000D01*
X-600000Y-13220000D01*
X-110000Y-14220000D01*
X-60000Y-14310000D01*
X20000Y-14360000D01*
X120000Y-14370000D01*
X220000Y-14330000D01*
X270000Y-14240000D01*
X760000Y-13240000D01*
X810000Y-13140000D01*
X1080000Y-13150000D01*
X1110000Y-13250000D01*
X1180000Y-13280000D01*
X1290000Y-13280000D01*
X1790000Y-13280000D01*
X1850000Y-13330000D01*
X1850000Y-13430000D01*
X1800000Y-13490000D01*
X1400000Y-13490000D01*
X1320000Y-13530000D01*
X1290000Y-13630000D01*
X1300000Y-13750000D01*
X1370000Y-13810000D01*
X1460000Y-13830000D01*
X1770000Y-13830000D01*
X1850000Y-13850000D01*
X1850000Y-13950000D01*
X1810000Y-14030000D01*
X1300000Y-14030000D01*
X1200000Y-14030000D01*
X1110000Y-14060000D01*
X1080000Y-14150000D01*
X1090000Y-14280000D01*
X1130000Y-14350000D01*
X1220000Y-14370000D01*
X2050000Y-14370000D01*
X2150000Y-14340000D01*
X2190000Y-14280000D01*
X2190000Y-14170000D01*
X2500000Y-14240000D01*
X2560000Y-14310000D01*
X2670000Y-14360000D01*
X2760000Y-14360000D01*
X2820000Y-14310000D01*
X2930000Y-14040000D01*
X3020000Y-13960000D01*
X3220000Y-13960000D01*
X3270000Y-14020000D01*
X3270000Y-14220000D01*
X3290000Y-14310000D01*
X3370000Y-14350000D01*
X3500000Y-14360000D01*
X3590000Y-14320000D01*
X3620000Y-14240000D01*
X3620000Y-14130000D01*
X3620000Y-13120000D01*
X3620000Y-13020000D01*
X3570000Y-12950000D01*
X3700000Y-12640000D01*
X3800000Y-12650000D01*
G37*
X3800000Y-12650000D02*
X3900000Y-12660000D01*
X3990000Y-12690000D01*
X4090000Y-12720000D01*
X4180000Y-12770000D01*
X4270000Y-12820000D01*
X4350000Y-12880000D01*
X4420000Y-12950000D01*
X4490000Y-13020000D01*
X4550000Y-13110000D01*
X4600000Y-13200000D01*
X4640000Y-13290000D01*
X4680000Y-13380000D01*
X4700000Y-13480000D01*
X4710000Y-13580000D01*
X4710000Y-13680000D01*
X4710000Y-13790000D01*
X4690000Y-13890000D01*
X4660000Y-13980000D01*
X4620000Y-14080000D01*
X4580000Y-14170000D01*
X4520000Y-14250000D01*
X4460000Y-14330000D01*
X4390000Y-14410000D01*
X4310000Y-14470000D01*
X4230000Y-14530000D01*
X4140000Y-14580000D01*
X4040000Y-14620000D01*
X3950000Y-14650000D01*
X3850000Y-14660000D01*
X3750000Y-14670000D01*
X3650000Y-14680000D01*
X-3670000Y-14680000D01*
X-3770000Y-14670000D01*
X-3870000Y-14660000D01*
X-3970000Y-14640000D01*
X-4060000Y-14620000D01*
X-4160000Y-14580000D01*
X-4250000Y-14530000D01*
X-4330000Y-14470000D01*
X-4410000Y-14410000D01*
X-4480000Y-14330000D01*
X-4540000Y-14250000D01*
X-4600000Y-14170000D01*
X-4640000Y-14080000D01*
X-4680000Y-13980000D01*
X-4710000Y-13890000D01*
X-4730000Y-13790000D01*
X-4730000Y-13680000D01*
X-4730000Y-13580000D01*
X-4720000Y-13480000D01*
X-4700000Y-13380000D01*
X-4660000Y-13290000D01*
X-4620000Y-13190000D01*
X-4570000Y-13110000D01*
X-4510000Y-13020000D01*
X-4440000Y-12950000D01*
X-4370000Y-12880000D01*
X-4290000Y-12820000D01*
X-4200000Y-12770000D01*
X-4110000Y-12720000D01*
X-4010000Y-12690000D01*
X-3920000Y-12660000D01*
X-3820000Y-12650000D01*
X-3710000Y-12640000D01*
X3700000Y-12640000D01*
X3570000Y-12950000D01*
X3460000Y-12930000D01*
X3050000Y-12930000D01*
X2950000Y-12940000D01*
X2860000Y-12960000D01*
X2760000Y-13010000D01*
X2680000Y-13070000D01*
X2610000Y-13140000D01*
X2560000Y-13230000D01*
X2520000Y-13330000D01*
X2510000Y-13430000D01*
X2520000Y-13540000D01*
X2540000Y-13630000D01*
X2590000Y-13720000D01*
X2650000Y-13800000D01*
X2630000Y-13870000D01*
X2600000Y-13960000D01*
X2550000Y-14060000D01*
X2520000Y-14150000D01*
X2500000Y-14240000D01*
X2190000Y-14170000D01*
X2190000Y-13160000D01*
X2190000Y-13040000D01*
X2150000Y-12970000D01*
X2060000Y-12940000D01*
X1950000Y-12940000D01*
X1240000Y-12940000D01*
X1140000Y-12960000D01*
X1090000Y-13020000D01*
X1080000Y-13140000D01*
X810000Y-13140000D01*
X820000Y-13060000D01*
X750000Y-12990000D01*
X640000Y-12930000D01*
X550000Y-12940000D01*
X490000Y-13020000D01*
X460000Y-13090000D01*
X150000Y-13770000D01*
X100000Y-13880000D01*
X70000Y-13840000D01*
X-270000Y-13110000D01*
X-310000Y-13010000D01*
X-380000Y-12940000D01*
X-470000Y-12940000D01*
X-540000Y-12960000D01*
X-620000Y-13040000D01*
X-640000Y-13110000D01*
X-600000Y-13210000D01*
X-1010000Y-13310000D01*
X-1040000Y-13200000D01*
X-1090000Y-13120000D01*
X-1140000Y-13040000D01*
X-1200000Y-12980000D01*
X-1290000Y-12930000D01*
X-1390000Y-12900000D01*
X-1490000Y-12890000D01*
X-1600000Y-12890000D01*
X-1690000Y-12920000D01*
X-1780000Y-12970000D01*
X-1860000Y-13030000D01*
X-1920000Y-13110000D01*
X-1970000Y-13200000D01*
X-2000000Y-13290000D01*
X-2030000Y-13390000D01*
X-2040000Y-13490000D01*
X-2360000Y-13440000D01*
X-2370000Y-13340000D01*
X-2400000Y-13240000D01*
X-2440000Y-13150000D01*
X-2510000Y-13070000D01*
X-2580000Y-13000000D01*
X-2670000Y-12960000D01*
X-2760000Y-12930000D01*
X-2870000Y-12920000D01*
X-2980000Y-12930000D01*
X-3080000Y-12950000D01*
X-3170000Y-13000000D01*
X-3240000Y-13060000D01*
X-3310000Y-13140000D01*
X-3360000Y-13230000D01*
X-3390000Y-13320000D01*
X-3400000Y-13420000D01*
X-3400000Y-13530000D01*
X-3380000Y-13620000D01*
X-3330000Y-13720000D01*
X-3270000Y-13800000D01*
X-3190000Y-13870000D01*
X-3100000Y-13940000D01*
X-3020000Y-13980000D01*
X-2940000Y-14020000D01*
X-3030000Y-14030000D01*
X-3230000Y-14030000D01*
X-3290000Y-14030000D01*
X-3400000Y-14040000D01*
X-3460000Y-14110000D01*
X-3460000Y-14210000D01*
X-3450000Y-14310000D01*
X-3370000Y-14360000D01*
X-3270000Y-14370000D01*
X-2560000Y-14370000D01*
X-2460000Y-14360000D01*
X-2380000Y-14290000D01*
X-2360000Y-14190000D01*
X-2380000Y-14100000D01*
X-2430000Y-14010000D01*
X-2490000Y-13930000D01*
X-2580000Y-13870000D01*
X-2840000Y-13710000D01*
X-2920000Y-13650000D01*
X-2990000Y-13580000D01*
X-3050000Y-13490000D01*
X-3050000Y-13400000D01*
X-3010000Y-13310000D01*
X-2920000Y-13270000D01*
X-2810000Y-13270000D01*
X-2730000Y-13340000D01*
X-2710000Y-13430000D01*
X-2690000Y-13530000D01*
X-2650000Y-13600000D01*
X-2530000Y-13620000D01*
X-2410000Y-13600000D01*
X-2370000Y-13540000D01*
X-2360000Y-13440000D01*
X-2040000Y-13490000D01*
X-2050000Y-13590000D01*
X-2050000Y-13710000D01*
X-2040000Y-13820000D01*
X-2020000Y-13920000D01*
X-1990000Y-14020000D01*
X-1950000Y-14100000D01*
X-1910000Y-14180000D01*
X-1840000Y-14250000D01*
X-1760000Y-14310000D01*
X-1670000Y-14350000D01*
X-1570000Y-14370000D01*
X-1460000Y-14370000D01*
X-1360000Y-14350000D01*
X-1270000Y-14320000D01*
X-1180000Y-14260000D01*
X-1110000Y-14190000D01*
X-1060000Y-14110000D01*
X-1020000Y-14010000D01*
X-990000Y-13920000D01*
X-980000Y-13830000D01*
X-970000Y-13720000D01*
X-970000Y-13610000D01*
X-970000Y-13500000D01*
X-980000Y-13400000D01*
X-1010000Y-13310000D01*
X-600000Y-13220000D01*
X-110000Y-14220000D01*
X-60000Y-14310000D01*
X20000Y-14360000D01*
X120000Y-14370000D01*
X220000Y-14330000D01*
X270000Y-14240000D01*
X760000Y-13240000D01*
X810000Y-13140000D01*
X1080000Y-13150000D01*
X1110000Y-13250000D01*
X1180000Y-13280000D01*
X1290000Y-13280000D01*
X1790000Y-13280000D01*
X1850000Y-13330000D01*
X1850000Y-13430000D01*
X1800000Y-13490000D01*
X1400000Y-13490000D01*
X1320000Y-13530000D01*
X1290000Y-13630000D01*
X1300000Y-13750000D01*
X1370000Y-13810000D01*
X1460000Y-13830000D01*
X1770000Y-13830000D01*
X1850000Y-13850000D01*
X1850000Y-13950000D01*
X1810000Y-14030000D01*
X1300000Y-14030000D01*
X1200000Y-14030000D01*
X1110000Y-14060000D01*
X1080000Y-14150000D01*
X1090000Y-14280000D01*
X1130000Y-14350000D01*
X1220000Y-14370000D01*
X2050000Y-14370000D01*
X2150000Y-14340000D01*
X2190000Y-14280000D01*
X2190000Y-14170000D01*
X2500000Y-14240000D01*
X2560000Y-14310000D01*
X2670000Y-14360000D01*
X2760000Y-14360000D01*
X2820000Y-14310000D01*
X2930000Y-14040000D01*
X3020000Y-13960000D01*
X3220000Y-13960000D01*
X3270000Y-14020000D01*
X3270000Y-14220000D01*
X3290000Y-14310000D01*
X3370000Y-14350000D01*
X3500000Y-14360000D01*
X3590000Y-14320000D01*
X3620000Y-14240000D01*
X3620000Y-14130000D01*
X3620000Y-13120000D01*
X3620000Y-13020000D01*
X3570000Y-12950000D01*
X3700000Y-12640000D01*
X3800000Y-12650000D01*
G36*
X3220000Y-13620000D02*
G01*
X3010000Y-13620000D01*
X2920000Y-13580000D01*
X2860000Y-13510000D01*
X2860000Y-13400000D01*
X2910000Y-13320000D01*
X3010000Y-13280000D01*
X3210000Y-13270000D01*
X3270000Y-13310000D01*
X3270000Y-13620000D01*
X3220000Y-13620000D01*
G37*
X3220000Y-13620000D02*
X3010000Y-13620000D01*
X2920000Y-13580000D01*
X2860000Y-13510000D01*
X2860000Y-13400000D01*
X2910000Y-13320000D01*
X3010000Y-13280000D01*
X3210000Y-13270000D01*
X3270000Y-13310000D01*
X3270000Y-13620000D01*
X3220000Y-13620000D01*
G36*
X-1540000Y-14020000D02*
G01*
X-1610000Y-13990000D01*
X-1660000Y-13920000D01*
X-1690000Y-13820000D01*
X-1710000Y-13690000D01*
X-1700000Y-13540000D01*
X-1690000Y-13410000D01*
X-1650000Y-13320000D01*
X-1600000Y-13260000D01*
X-1530000Y-13230000D01*
X-1450000Y-13240000D01*
X-1390000Y-13280000D01*
X-1350000Y-13360000D01*
X-1320000Y-13470000D01*
X-1310000Y-13610000D01*
X-1320000Y-13760000D01*
X-1340000Y-13880000D01*
X-1380000Y-13960000D01*
X-1440000Y-14010000D01*
X-1540000Y-14020000D01*
G37*
X-1540000Y-14020000D02*
X-1610000Y-13990000D01*
X-1660000Y-13920000D01*
X-1690000Y-13820000D01*
X-1710000Y-13690000D01*
X-1700000Y-13540000D01*
X-1690000Y-13410000D01*
X-1650000Y-13320000D01*
X-1600000Y-13260000D01*
X-1530000Y-13230000D01*
X-1450000Y-13240000D01*
X-1390000Y-13280000D01*
X-1350000Y-13360000D01*
X-1320000Y-13470000D01*
X-1310000Y-13610000D01*
X-1320000Y-13760000D01*
X-1340000Y-13880000D01*
X-1380000Y-13960000D01*
X-1440000Y-14010000D01*
X-1540000Y-14020000D01*
G36*
X8780000Y13200000D02*
G01*
X8880000Y13190000D01*
X8980000Y13160000D01*
X9070000Y13130000D01*
X9160000Y13080000D01*
X9250000Y13030000D01*
X9330000Y12970000D01*
X9410000Y12900000D01*
X9470000Y12820000D01*
X9530000Y12740000D01*
X9580000Y12650000D01*
X9620000Y12560000D01*
X9660000Y12460000D01*
X9680000Y12360000D01*
X9690000Y12260000D01*
X9690000Y12160000D01*
X9680000Y12060000D01*
X9670000Y11960000D01*
X9640000Y11860000D01*
X9600000Y11770000D01*
X9550000Y11680000D01*
X9500000Y11590000D01*
X9440000Y11510000D01*
X9360000Y11440000D01*
X9290000Y11380000D01*
X9200000Y11320000D01*
X9110000Y11270000D01*
X9020000Y11230000D01*
X8920000Y11200000D01*
X8820000Y11180000D01*
X8720000Y11170000D01*
X-8760000Y11170000D01*
X-8860000Y11180000D01*
X-8960000Y11190000D01*
X-9060000Y11220000D01*
X-9150000Y11250000D01*
X-9240000Y11300000D01*
X-9330000Y11350000D01*
X-9410000Y11410000D01*
X-9490000Y11480000D01*
X-9550000Y11560000D01*
X-9610000Y11640000D01*
X-9660000Y11730000D01*
X-9700000Y11820000D01*
X-9740000Y11920000D01*
X-9760000Y12020000D01*
X-9770000Y12120000D01*
X-9770000Y12220000D01*
X-9760000Y12320000D01*
X-9750000Y12420000D01*
X-9720000Y12520000D01*
X-9680000Y12610000D01*
X-9630000Y12700000D01*
X-9580000Y12790000D01*
X-9520000Y12870000D01*
X-9440000Y12940000D01*
X-9370000Y13000000D01*
X-9280000Y13060000D01*
X-9190000Y13110000D01*
X-9100000Y13150000D01*
X-9000000Y13180000D01*
X-8900000Y13200000D01*
X-8800000Y13210000D01*
X8680000Y13210000D01*
X8540000Y12890000D01*
X8420000Y12910000D01*
X8310000Y12890000D01*
X8260000Y12830000D01*
X8250000Y12720000D01*
X8250000Y11710000D01*
X8250000Y11600000D01*
X7950000Y11600000D01*
X7950000Y12420000D01*
X7900000Y12480000D01*
X7780000Y12500000D01*
X7670000Y12490000D01*
X7620000Y12430000D01*
X7570000Y12430000D01*
X7490000Y12480000D01*
X7390000Y12500000D01*
X7370000Y12500000D01*
X7260000Y12490000D01*
X7170000Y12460000D01*
X7090000Y12400000D01*
X7020000Y12320000D01*
X6970000Y12240000D01*
X6940000Y12140000D01*
X6920000Y12040000D01*
X6630000Y12030000D01*
X6620000Y12130000D01*
X6580000Y12220000D01*
X6530000Y12310000D01*
X6460000Y12390000D01*
X6370000Y12450000D01*
X6280000Y12490000D01*
X6190000Y12500000D01*
X6080000Y12490000D01*
X5990000Y12450000D01*
X5940000Y12430000D01*
X5940000Y12840000D01*
X5930000Y12940000D01*
X5910000Y12960000D01*
X5810000Y12980000D01*
X5700000Y12980000D01*
X5620000Y12930000D01*
X5610000Y12830000D01*
X5610000Y11600000D01*
X5260000Y11770000D01*
X5300000Y11860000D01*
X5310000Y11960000D01*
X5310000Y12070000D01*
X5290000Y12170000D01*
X5260000Y12260000D01*
X5210000Y12340000D01*
X5140000Y12420000D01*
X5060000Y12470000D01*
X4970000Y12510000D01*
X4870000Y12540000D01*
X4760000Y12550000D01*
X4650000Y12540000D01*
X4550000Y12510000D01*
X4470000Y12460000D01*
X4400000Y12400000D01*
X4340000Y12320000D01*
X4310000Y12220000D01*
X4010000Y12350000D01*
X3970000Y12440000D01*
X3880000Y12520000D01*
X3800000Y12530000D01*
X3710000Y12470000D01*
X3500000Y12250000D01*
X3430000Y12300000D01*
X3290000Y12450000D01*
X3200000Y12520000D01*
X3120000Y12530000D01*
X3030000Y12460000D01*
X2970000Y12370000D01*
X2980000Y12290000D01*
X3050000Y12200000D01*
X3200000Y12060000D01*
X3200000Y11960000D01*
X3060000Y11810000D01*
X2990000Y11720000D01*
X2970000Y11650000D01*
X2100000Y11690000D01*
X2100000Y12800000D01*
X2070000Y12890000D01*
X1990000Y12920000D01*
X1870000Y12920000D01*
X1560000Y12920000D01*
X1460000Y12920000D01*
X1370000Y12900000D01*
X1280000Y12860000D01*
X1190000Y12800000D01*
X1110000Y12730000D01*
X1060000Y12640000D01*
X1020000Y12550000D01*
X680000Y12730000D01*
X680000Y12830000D01*
X670000Y12920000D01*
X610000Y12970000D01*
X470000Y12980000D01*
X380000Y12950000D01*
X350000Y12870000D01*
X350000Y12760000D01*
X370000Y12670000D01*
X410000Y12660000D01*
X510000Y12650000D01*
X470000Y12500000D01*
X380000Y12480000D01*
X350000Y12390000D01*
X40000Y12340000D01*
X30000Y12440000D01*
X-30000Y12490000D01*
X-160000Y12500000D01*
X-260000Y12480000D01*
X-290000Y12400000D01*
X-360000Y12440000D01*
X-440000Y12490000D01*
X-570000Y12500000D01*
X-670000Y12480000D01*
X-750000Y12440000D01*
X-830000Y12380000D01*
X-900000Y12300000D01*
X-950000Y12210000D01*
X-970000Y12120000D01*
X-980000Y12010000D01*
X-1260000Y12050000D01*
X-1280000Y12150000D01*
X-1310000Y12240000D01*
X-1370000Y12330000D01*
X-1440000Y12410000D01*
X-1530000Y12470000D01*
X-1620000Y12500000D01*
X-1710000Y12520000D01*
X-1810000Y12500000D01*
X-1910000Y12450000D01*
X-1960000Y12460000D01*
X-2020000Y12520000D01*
X-2140000Y12520000D01*
X-2230000Y12490000D01*
X-2270000Y12410000D01*
X-2280000Y12300000D01*
X-2280000Y11590000D01*
X-3120000Y11680000D01*
X-3120000Y12800000D01*
X-3150000Y12880000D01*
X-3240000Y12910000D01*
X-3370000Y12900000D01*
X-3450000Y12860000D01*
X-3460000Y12770000D01*
X-4440000Y12830000D01*
X-4450000Y12920000D01*
X-4520000Y12970000D01*
X-4650000Y12980000D01*
X-4740000Y12950000D01*
X-4770000Y12870000D01*
X-4770000Y12760000D01*
X-4750000Y12670000D01*
X-4710000Y12660000D01*
X-4610000Y12650000D01*
X-4650000Y12500000D01*
X-4740000Y12480000D01*
X-4770000Y12390000D01*
X-5090000Y12230000D01*
X-5140000Y12310000D01*
X-5220000Y12390000D01*
X-5300000Y12460000D01*
X-5390000Y12500000D01*
X-5490000Y12510000D01*
X-5590000Y12500000D01*
X-5680000Y12460000D01*
X-5740000Y12450000D01*
X-5800000Y12510000D01*
X-5910000Y12520000D01*
X-6000000Y12500000D01*
X-6060000Y12420000D01*
X-6060000Y12320000D01*
X-6060000Y11610000D01*
X-6400000Y11650000D01*
X-6400000Y12870000D01*
X-6430000Y12950000D01*
X-6530000Y12980000D01*
X-6660000Y12970000D01*
X-6720000Y12920000D01*
X-6740000Y12820000D01*
X-6740000Y12420000D01*
X-6790000Y12440000D01*
X-6870000Y12490000D01*
X-6970000Y12500000D01*
X-7000000Y12500000D01*
X-7100000Y12480000D01*
X-7190000Y12440000D01*
X-7270000Y12380000D01*
X-7330000Y12300000D01*
X-7380000Y12210000D01*
X-7400000Y12120000D01*
X-7690000Y12210000D01*
X-7670000Y12300000D01*
X-7680000Y12410000D01*
X-7730000Y12490000D01*
X-7830000Y12500000D01*
X-7850000Y12570000D01*
X-7850000Y12770000D01*
X-7900000Y12840000D01*
X-8020000Y12860000D01*
X-8130000Y12840000D01*
X-8180000Y12780000D01*
X-8190000Y12670000D01*
X-8190000Y12570000D01*
X-8220000Y12500000D01*
X-8320000Y12500000D01*
X-8410000Y12490000D01*
X-8470000Y12430000D01*
X-8480000Y12300000D01*
X-8460000Y12200000D01*
X-8380000Y12160000D01*
X-8310000Y12160000D01*
X-8210000Y12170000D01*
X-8190000Y12090000D01*
X-8190000Y11880000D01*
X-8230000Y11810000D01*
X-8340000Y11800000D01*
X-8410000Y11760000D01*
X-8430000Y11650000D01*
X-8410000Y11530000D01*
X-8340000Y11490000D01*
X-8240000Y11480000D01*
X-8120000Y11490000D01*
X-8030000Y11520000D01*
X-7960000Y11570000D01*
X-7900000Y11630000D01*
X-7870000Y11720000D01*
X-7850000Y11840000D01*
X-7850000Y12150000D01*
X-7770000Y12160000D01*
X-7690000Y12200000D01*
X-7400000Y12120000D01*
X-7420000Y12010000D01*
X-7420000Y11590000D01*
X-7390000Y11510000D01*
X-7300000Y11480000D01*
X-7170000Y11490000D01*
X-7100000Y11530000D01*
X-7080000Y11620000D01*
X-7080000Y11940000D01*
X-7080000Y12040000D01*
X-7030000Y12120000D01*
X-6940000Y12160000D01*
X-6840000Y12140000D01*
X-6760000Y12080000D01*
X-6740000Y11980000D01*
X-6740000Y11580000D01*
X-6690000Y11500000D01*
X-6590000Y11480000D01*
X-6460000Y11490000D01*
X-6410000Y11560000D01*
X-6400000Y11650000D01*
X-6060000Y11610000D01*
X-6060000Y11500000D01*
X-6050000Y11400000D01*
X-6010000Y11310000D01*
X-5960000Y11230000D01*
X-5880000Y11160000D01*
X-5790000Y11100000D01*
X-5700000Y11060000D01*
X-5600000Y11040000D01*
X-5500000Y11040000D01*
X-5400000Y11060000D01*
X-5310000Y11100000D01*
X-5200000Y11160000D01*
X-5140000Y11230000D01*
X-5150000Y11320000D01*
X-5210000Y11410000D01*
X-5290000Y11460000D01*
X-5380000Y11410000D01*
X-5470000Y11370000D01*
X-5570000Y11360000D01*
X-5660000Y11390000D01*
X-5720000Y11480000D01*
X-5730000Y11580000D01*
X-5660000Y11560000D01*
X-5570000Y11530000D01*
X-5460000Y11520000D01*
X-5370000Y11540000D01*
X-5280000Y11590000D01*
X-5190000Y11660000D01*
X-5130000Y11740000D01*
X-5080000Y11830000D01*
X-5060000Y11930000D01*
X-5050000Y12030000D01*
X-5060000Y12130000D01*
X-5090000Y12230000D01*
X-4770000Y12390000D01*
X-4770000Y11580000D01*
X-4730000Y11500000D01*
X-4630000Y11480000D01*
X-4500000Y11490000D01*
X-4440000Y11560000D01*
X-4440000Y11650000D01*
X-4440000Y12260000D01*
X-4440000Y12360000D01*
X-4460000Y12450000D01*
X-4520000Y12500000D01*
X-4650000Y12500000D01*
X-4610000Y12650000D01*
X-4510000Y12660000D01*
X-4440000Y12730000D01*
X-4440000Y12830000D01*
X-3460000Y12760000D01*
X-3460000Y11850000D01*
X-3560000Y11760000D01*
X-3970000Y11760000D01*
X-4070000Y11760000D01*
X-4130000Y11690000D01*
X-4130000Y11580000D01*
X-4090000Y11500000D01*
X-3990000Y11480000D01*
X-3270000Y11480000D01*
X-3160000Y11500000D01*
X-3120000Y11570000D01*
X-3120000Y11680000D01*
X-2280000Y11590000D01*
X-2270000Y11480000D01*
X-2250000Y11380000D01*
X-2210000Y11290000D01*
X-2150000Y11210000D01*
X-2070000Y11140000D01*
X-1990000Y11090000D01*
X-1890000Y11060000D01*
X-1800000Y11040000D01*
X-1690000Y11050000D01*
X-1600000Y11070000D01*
X-1500000Y11110000D01*
X-1390000Y11180000D01*
X-1350000Y11240000D01*
X-1370000Y11340000D01*
X-1440000Y11420000D01*
X-1520000Y11460000D01*
X-1610000Y11400000D01*
X-1700000Y11360000D01*
X-1800000Y11360000D01*
X-1890000Y11410000D01*
X-1930000Y11500000D01*
X-1940000Y11600000D01*
X-1930000Y11610000D01*
X-1860000Y11550000D01*
X-1760000Y11520000D01*
X-1650000Y11520000D01*
X-1560000Y11550000D01*
X-1470000Y11600000D01*
X-1390000Y11680000D01*
X-1330000Y11760000D01*
X-1290000Y11850000D01*
X-1260000Y11950000D01*
X-1260000Y12050000D01*
X-980000Y12010000D01*
X-980000Y11700000D01*
X-980000Y11600000D01*
X-950000Y11520000D01*
X-870000Y11480000D01*
X-730000Y11490000D01*
X-660000Y11530000D01*
X-640000Y11620000D01*
X-640000Y11930000D01*
X-640000Y12030000D01*
X-600000Y12120000D01*
X-510000Y12170000D01*
X-410000Y12160000D01*
X-330000Y12100000D01*
X-290000Y12000000D01*
X-290000Y11590000D01*
X-260000Y11510000D01*
X-180000Y11480000D01*
X-40000Y11490000D01*
X20000Y11530000D01*
X40000Y11630000D01*
X40000Y12340000D01*
X350000Y12390000D01*
X350000Y11580000D01*
X390000Y11500000D01*
X490000Y11480000D01*
X620000Y11490000D01*
X680000Y11560000D01*
X680000Y11650000D01*
X680000Y12260000D01*
X680000Y12360000D01*
X670000Y12450000D01*
X600000Y12490000D01*
X480000Y12500000D01*
X510000Y12650000D01*
X610000Y12660000D01*
X680000Y12730000D01*
X1020000Y12550000D01*
X1000000Y12450000D01*
X1000000Y12340000D01*
X1020000Y12240000D01*
X1060000Y12150000D01*
X1110000Y12070000D01*
X1130000Y12000000D01*
X1090000Y11920000D01*
X1050000Y11820000D01*
X990000Y11640000D01*
X1020000Y11560000D01*
X1120000Y11500000D01*
X1220000Y11480000D01*
X1300000Y11530000D01*
X1400000Y11760000D01*
X1470000Y11890000D01*
X1670000Y11890000D01*
X1760000Y11870000D01*
X1760000Y11660000D01*
X1770000Y11570000D01*
X1830000Y11500000D01*
X1950000Y11490000D01*
X2060000Y11510000D01*
X2100000Y11580000D01*
X2100000Y11680000D01*
X2970000Y11640000D01*
X3020000Y11560000D01*
X3120000Y11490000D01*
X3190000Y11490000D01*
X3280000Y11560000D01*
X3420000Y11700000D01*
X3500000Y11750000D01*
X3720000Y11540000D01*
X3810000Y11480000D01*
X3880000Y11500000D01*
X3980000Y11580000D01*
X4010000Y11660000D01*
X3980000Y11740000D01*
X3900000Y11830000D01*
X3760000Y11970000D01*
X3770000Y12050000D01*
X3910000Y12190000D01*
X3990000Y12270000D01*
X4010000Y12350000D01*
X4310000Y12220000D01*
X4300000Y12120000D01*
X4320000Y12000000D01*
X4390000Y11930000D01*
X4490000Y11910000D01*
X4900000Y11910000D01*
X4940000Y11860000D01*
X4860000Y11800000D01*
X4760000Y11770000D01*
X4650000Y11780000D01*
X4560000Y11800000D01*
X4470000Y11820000D01*
X4390000Y11770000D01*
X4350000Y11660000D01*
X4360000Y11600000D01*
X4410000Y11540000D01*
X4490000Y11510000D01*
X4610000Y11490000D01*
X4760000Y11480000D01*
X4870000Y11490000D01*
X4970000Y11510000D01*
X5060000Y11540000D01*
X5150000Y11600000D01*
X5210000Y11680000D01*
X5260000Y11770000D01*
X5610000Y11600000D01*
X5640000Y11520000D01*
X5710000Y11490000D01*
X5840000Y11480000D01*
X5970000Y11550000D01*
X6050000Y11500000D01*
X6160000Y11480000D01*
X6250000Y11490000D01*
X6340000Y11520000D01*
X6430000Y11580000D01*
X6510000Y11650000D01*
X6570000Y11740000D01*
X6610000Y11830000D01*
X6630000Y11930000D01*
X6630000Y12030000D01*
X6920000Y12040000D01*
X6920000Y11930000D01*
X6920000Y11620000D01*
X6940000Y11530000D01*
X7010000Y11490000D01*
X7140000Y11480000D01*
X7230000Y11520000D01*
X7260000Y11590000D01*
X7270000Y11700000D01*
X7270000Y12000000D01*
X7290000Y12100000D01*
X7370000Y12160000D01*
X7470000Y12170000D01*
X7560000Y12120000D01*
X7610000Y12030000D01*
X7610000Y11930000D01*
X7610000Y11620000D01*
X7630000Y11530000D01*
X7700000Y11490000D01*
X7830000Y11480000D01*
X7920000Y11520000D01*
X7950000Y11600000D01*
X8250000Y11600000D01*
X8280000Y11520000D01*
X8370000Y11480000D01*
X8500000Y11490000D01*
X8580000Y11530000D01*
X8600000Y11610000D01*
X8600000Y12740000D01*
X8590000Y12830000D01*
X8540000Y12890000D01*
X8680000Y13210000D01*
X8780000Y13200000D01*
G37*
X8780000Y13200000D02*
X8880000Y13190000D01*
X8980000Y13160000D01*
X9070000Y13130000D01*
X9160000Y13080000D01*
X9250000Y13030000D01*
X9330000Y12970000D01*
X9410000Y12900000D01*
X9470000Y12820000D01*
X9530000Y12740000D01*
X9580000Y12650000D01*
X9620000Y12560000D01*
X9660000Y12460000D01*
X9680000Y12360000D01*
X9690000Y12260000D01*
X9690000Y12160000D01*
X9680000Y12060000D01*
X9670000Y11960000D01*
X9640000Y11860000D01*
X9600000Y11770000D01*
X9550000Y11680000D01*
X9500000Y11590000D01*
X9440000Y11510000D01*
X9360000Y11440000D01*
X9290000Y11380000D01*
X9200000Y11320000D01*
X9110000Y11270000D01*
X9020000Y11230000D01*
X8920000Y11200000D01*
X8820000Y11180000D01*
X8720000Y11170000D01*
X-8760000Y11170000D01*
X-8860000Y11180000D01*
X-8960000Y11190000D01*
X-9060000Y11220000D01*
X-9150000Y11250000D01*
X-9240000Y11300000D01*
X-9330000Y11350000D01*
X-9410000Y11410000D01*
X-9490000Y11480000D01*
X-9550000Y11560000D01*
X-9610000Y11640000D01*
X-9660000Y11730000D01*
X-9700000Y11820000D01*
X-9740000Y11920000D01*
X-9760000Y12020000D01*
X-9770000Y12120000D01*
X-9770000Y12220000D01*
X-9760000Y12320000D01*
X-9750000Y12420000D01*
X-9720000Y12520000D01*
X-9680000Y12610000D01*
X-9630000Y12700000D01*
X-9580000Y12790000D01*
X-9520000Y12870000D01*
X-9440000Y12940000D01*
X-9370000Y13000000D01*
X-9280000Y13060000D01*
X-9190000Y13110000D01*
X-9100000Y13150000D01*
X-9000000Y13180000D01*
X-8900000Y13200000D01*
X-8800000Y13210000D01*
X8680000Y13210000D01*
X8540000Y12890000D01*
X8420000Y12910000D01*
X8310000Y12890000D01*
X8260000Y12830000D01*
X8250000Y12720000D01*
X8250000Y11710000D01*
X8250000Y11600000D01*
X7950000Y11600000D01*
X7950000Y12420000D01*
X7900000Y12480000D01*
X7780000Y12500000D01*
X7670000Y12490000D01*
X7620000Y12430000D01*
X7570000Y12430000D01*
X7490000Y12480000D01*
X7390000Y12500000D01*
X7370000Y12500000D01*
X7260000Y12490000D01*
X7170000Y12460000D01*
X7090000Y12400000D01*
X7020000Y12320000D01*
X6970000Y12240000D01*
X6940000Y12140000D01*
X6920000Y12040000D01*
X6630000Y12030000D01*
X6620000Y12130000D01*
X6580000Y12220000D01*
X6530000Y12310000D01*
X6460000Y12390000D01*
X6370000Y12450000D01*
X6280000Y12490000D01*
X6190000Y12500000D01*
X6080000Y12490000D01*
X5990000Y12450000D01*
X5940000Y12430000D01*
X5940000Y12840000D01*
X5930000Y12940000D01*
X5910000Y12960000D01*
X5810000Y12980000D01*
X5700000Y12980000D01*
X5620000Y12930000D01*
X5610000Y12830000D01*
X5610000Y11600000D01*
X5260000Y11770000D01*
X5300000Y11860000D01*
X5310000Y11960000D01*
X5310000Y12070000D01*
X5290000Y12170000D01*
X5260000Y12260000D01*
X5210000Y12340000D01*
X5140000Y12420000D01*
X5060000Y12470000D01*
X4970000Y12510000D01*
X4870000Y12540000D01*
X4760000Y12550000D01*
X4650000Y12540000D01*
X4550000Y12510000D01*
X4470000Y12460000D01*
X4400000Y12400000D01*
X4340000Y12320000D01*
X4310000Y12220000D01*
X4010000Y12350000D01*
X3970000Y12440000D01*
X3880000Y12520000D01*
X3800000Y12530000D01*
X3710000Y12470000D01*
X3500000Y12250000D01*
X3430000Y12300000D01*
X3290000Y12450000D01*
X3200000Y12520000D01*
X3120000Y12530000D01*
X3030000Y12460000D01*
X2970000Y12370000D01*
X2980000Y12290000D01*
X3050000Y12200000D01*
X3200000Y12060000D01*
X3200000Y11960000D01*
X3060000Y11810000D01*
X2990000Y11720000D01*
X2970000Y11650000D01*
X2100000Y11690000D01*
X2100000Y12800000D01*
X2070000Y12890000D01*
X1990000Y12920000D01*
X1870000Y12920000D01*
X1560000Y12920000D01*
X1460000Y12920000D01*
X1370000Y12900000D01*
X1280000Y12860000D01*
X1190000Y12800000D01*
X1110000Y12730000D01*
X1060000Y12640000D01*
X1020000Y12550000D01*
X680000Y12730000D01*
X680000Y12830000D01*
X670000Y12920000D01*
X610000Y12970000D01*
X470000Y12980000D01*
X380000Y12950000D01*
X350000Y12870000D01*
X350000Y12760000D01*
X370000Y12670000D01*
X410000Y12660000D01*
X510000Y12650000D01*
X470000Y12500000D01*
X380000Y12480000D01*
X350000Y12390000D01*
X40000Y12340000D01*
X30000Y12440000D01*
X-30000Y12490000D01*
X-160000Y12500000D01*
X-260000Y12480000D01*
X-290000Y12400000D01*
X-360000Y12440000D01*
X-440000Y12490000D01*
X-570000Y12500000D01*
X-670000Y12480000D01*
X-750000Y12440000D01*
X-830000Y12380000D01*
X-900000Y12300000D01*
X-950000Y12210000D01*
X-970000Y12120000D01*
X-980000Y12010000D01*
X-1260000Y12050000D01*
X-1280000Y12150000D01*
X-1310000Y12240000D01*
X-1370000Y12330000D01*
X-1440000Y12410000D01*
X-1530000Y12470000D01*
X-1620000Y12500000D01*
X-1710000Y12520000D01*
X-1810000Y12500000D01*
X-1910000Y12450000D01*
X-1960000Y12460000D01*
X-2020000Y12520000D01*
X-2140000Y12520000D01*
X-2230000Y12490000D01*
X-2270000Y12410000D01*
X-2280000Y12300000D01*
X-2280000Y11590000D01*
X-3120000Y11680000D01*
X-3120000Y12800000D01*
X-3150000Y12880000D01*
X-3240000Y12910000D01*
X-3370000Y12900000D01*
X-3450000Y12860000D01*
X-3460000Y12770000D01*
X-4440000Y12830000D01*
X-4450000Y12920000D01*
X-4520000Y12970000D01*
X-4650000Y12980000D01*
X-4740000Y12950000D01*
X-4770000Y12870000D01*
X-4770000Y12760000D01*
X-4750000Y12670000D01*
X-4710000Y12660000D01*
X-4610000Y12650000D01*
X-4650000Y12500000D01*
X-4740000Y12480000D01*
X-4770000Y12390000D01*
X-5090000Y12230000D01*
X-5140000Y12310000D01*
X-5220000Y12390000D01*
X-5300000Y12460000D01*
X-5390000Y12500000D01*
X-5490000Y12510000D01*
X-5590000Y12500000D01*
X-5680000Y12460000D01*
X-5740000Y12450000D01*
X-5800000Y12510000D01*
X-5910000Y12520000D01*
X-6000000Y12500000D01*
X-6060000Y12420000D01*
X-6060000Y12320000D01*
X-6060000Y11610000D01*
X-6400000Y11650000D01*
X-6400000Y12870000D01*
X-6430000Y12950000D01*
X-6530000Y12980000D01*
X-6660000Y12970000D01*
X-6720000Y12920000D01*
X-6740000Y12820000D01*
X-6740000Y12420000D01*
X-6790000Y12440000D01*
X-6870000Y12490000D01*
X-6970000Y12500000D01*
X-7000000Y12500000D01*
X-7100000Y12480000D01*
X-7190000Y12440000D01*
X-7270000Y12380000D01*
X-7330000Y12300000D01*
X-7380000Y12210000D01*
X-7400000Y12120000D01*
X-7690000Y12210000D01*
X-7670000Y12300000D01*
X-7680000Y12410000D01*
X-7730000Y12490000D01*
X-7830000Y12500000D01*
X-7850000Y12570000D01*
X-7850000Y12770000D01*
X-7900000Y12840000D01*
X-8020000Y12860000D01*
X-8130000Y12840000D01*
X-8180000Y12780000D01*
X-8190000Y12670000D01*
X-8190000Y12570000D01*
X-8220000Y12500000D01*
X-8320000Y12500000D01*
X-8410000Y12490000D01*
X-8470000Y12430000D01*
X-8480000Y12300000D01*
X-8460000Y12200000D01*
X-8380000Y12160000D01*
X-8310000Y12160000D01*
X-8210000Y12170000D01*
X-8190000Y12090000D01*
X-8190000Y11880000D01*
X-8230000Y11810000D01*
X-8340000Y11800000D01*
X-8410000Y11760000D01*
X-8430000Y11650000D01*
X-8410000Y11530000D01*
X-8340000Y11490000D01*
X-8240000Y11480000D01*
X-8120000Y11490000D01*
X-8030000Y11520000D01*
X-7960000Y11570000D01*
X-7900000Y11630000D01*
X-7870000Y11720000D01*
X-7850000Y11840000D01*
X-7850000Y12150000D01*
X-7770000Y12160000D01*
X-7690000Y12200000D01*
X-7400000Y12120000D01*
X-7420000Y12010000D01*
X-7420000Y11590000D01*
X-7390000Y11510000D01*
X-7300000Y11480000D01*
X-7170000Y11490000D01*
X-7100000Y11530000D01*
X-7080000Y11620000D01*
X-7080000Y11940000D01*
X-7080000Y12040000D01*
X-7030000Y12120000D01*
X-6940000Y12160000D01*
X-6840000Y12140000D01*
X-6760000Y12080000D01*
X-6740000Y11980000D01*
X-6740000Y11580000D01*
X-6690000Y11500000D01*
X-6590000Y11480000D01*
X-6460000Y11490000D01*
X-6410000Y11560000D01*
X-6400000Y11650000D01*
X-6060000Y11610000D01*
X-6060000Y11500000D01*
X-6050000Y11400000D01*
X-6010000Y11310000D01*
X-5960000Y11230000D01*
X-5880000Y11160000D01*
X-5790000Y11100000D01*
X-5700000Y11060000D01*
X-5600000Y11040000D01*
X-5500000Y11040000D01*
X-5400000Y11060000D01*
X-5310000Y11100000D01*
X-5200000Y11160000D01*
X-5140000Y11230000D01*
X-5150000Y11320000D01*
X-5210000Y11410000D01*
X-5290000Y11460000D01*
X-5380000Y11410000D01*
X-5470000Y11370000D01*
X-5570000Y11360000D01*
X-5660000Y11390000D01*
X-5720000Y11480000D01*
X-5730000Y11580000D01*
X-5660000Y11560000D01*
X-5570000Y11530000D01*
X-5460000Y11520000D01*
X-5370000Y11540000D01*
X-5280000Y11590000D01*
X-5190000Y11660000D01*
X-5130000Y11740000D01*
X-5080000Y11830000D01*
X-5060000Y11930000D01*
X-5050000Y12030000D01*
X-5060000Y12130000D01*
X-5090000Y12230000D01*
X-4770000Y12390000D01*
X-4770000Y11580000D01*
X-4730000Y11500000D01*
X-4630000Y11480000D01*
X-4500000Y11490000D01*
X-4440000Y11560000D01*
X-4440000Y11650000D01*
X-4440000Y12260000D01*
X-4440000Y12360000D01*
X-4460000Y12450000D01*
X-4520000Y12500000D01*
X-4650000Y12500000D01*
X-4610000Y12650000D01*
X-4510000Y12660000D01*
X-4440000Y12730000D01*
X-4440000Y12830000D01*
X-3460000Y12760000D01*
X-3460000Y11850000D01*
X-3560000Y11760000D01*
X-3970000Y11760000D01*
X-4070000Y11760000D01*
X-4130000Y11690000D01*
X-4130000Y11580000D01*
X-4090000Y11500000D01*
X-3990000Y11480000D01*
X-3270000Y11480000D01*
X-3160000Y11500000D01*
X-3120000Y11570000D01*
X-3120000Y11680000D01*
X-2280000Y11590000D01*
X-2270000Y11480000D01*
X-2250000Y11380000D01*
X-2210000Y11290000D01*
X-2150000Y11210000D01*
X-2070000Y11140000D01*
X-1990000Y11090000D01*
X-1890000Y11060000D01*
X-1800000Y11040000D01*
X-1690000Y11050000D01*
X-1600000Y11070000D01*
X-1500000Y11110000D01*
X-1390000Y11180000D01*
X-1350000Y11240000D01*
X-1370000Y11340000D01*
X-1440000Y11420000D01*
X-1520000Y11460000D01*
X-1610000Y11400000D01*
X-1700000Y11360000D01*
X-1800000Y11360000D01*
X-1890000Y11410000D01*
X-1930000Y11500000D01*
X-1940000Y11600000D01*
X-1930000Y11610000D01*
X-1860000Y11550000D01*
X-1760000Y11520000D01*
X-1650000Y11520000D01*
X-1560000Y11550000D01*
X-1470000Y11600000D01*
X-1390000Y11680000D01*
X-1330000Y11760000D01*
X-1290000Y11850000D01*
X-1260000Y11950000D01*
X-1260000Y12050000D01*
X-980000Y12010000D01*
X-980000Y11700000D01*
X-980000Y11600000D01*
X-950000Y11520000D01*
X-870000Y11480000D01*
X-730000Y11490000D01*
X-660000Y11530000D01*
X-640000Y11620000D01*
X-640000Y11930000D01*
X-640000Y12030000D01*
X-600000Y12120000D01*
X-510000Y12170000D01*
X-410000Y12160000D01*
X-330000Y12100000D01*
X-290000Y12000000D01*
X-290000Y11590000D01*
X-260000Y11510000D01*
X-180000Y11480000D01*
X-40000Y11490000D01*
X20000Y11530000D01*
X40000Y11630000D01*
X40000Y12340000D01*
X350000Y12390000D01*
X350000Y11580000D01*
X390000Y11500000D01*
X490000Y11480000D01*
X620000Y11490000D01*
X680000Y11560000D01*
X680000Y11650000D01*
X680000Y12260000D01*
X680000Y12360000D01*
X670000Y12450000D01*
X600000Y12490000D01*
X480000Y12500000D01*
X510000Y12650000D01*
X610000Y12660000D01*
X680000Y12730000D01*
X1020000Y12550000D01*
X1000000Y12450000D01*
X1000000Y12340000D01*
X1020000Y12240000D01*
X1060000Y12150000D01*
X1110000Y12070000D01*
X1130000Y12000000D01*
X1090000Y11920000D01*
X1050000Y11820000D01*
X990000Y11640000D01*
X1020000Y11560000D01*
X1120000Y11500000D01*
X1220000Y11480000D01*
X1300000Y11530000D01*
X1400000Y11760000D01*
X1470000Y11890000D01*
X1670000Y11890000D01*
X1760000Y11870000D01*
X1760000Y11660000D01*
X1770000Y11570000D01*
X1830000Y11500000D01*
X1950000Y11490000D01*
X2060000Y11510000D01*
X2100000Y11580000D01*
X2100000Y11680000D01*
X2970000Y11640000D01*
X3020000Y11560000D01*
X3120000Y11490000D01*
X3190000Y11490000D01*
X3280000Y11560000D01*
X3420000Y11700000D01*
X3500000Y11750000D01*
X3720000Y11540000D01*
X3810000Y11480000D01*
X3880000Y11500000D01*
X3980000Y11580000D01*
X4010000Y11660000D01*
X3980000Y11740000D01*
X3900000Y11830000D01*
X3760000Y11970000D01*
X3770000Y12050000D01*
X3910000Y12190000D01*
X3990000Y12270000D01*
X4010000Y12350000D01*
X4310000Y12220000D01*
X4300000Y12120000D01*
X4320000Y12000000D01*
X4390000Y11930000D01*
X4490000Y11910000D01*
X4900000Y11910000D01*
X4940000Y11860000D01*
X4860000Y11800000D01*
X4760000Y11770000D01*
X4650000Y11780000D01*
X4560000Y11800000D01*
X4470000Y11820000D01*
X4390000Y11770000D01*
X4350000Y11660000D01*
X4360000Y11600000D01*
X4410000Y11540000D01*
X4490000Y11510000D01*
X4610000Y11490000D01*
X4760000Y11480000D01*
X4870000Y11490000D01*
X4970000Y11510000D01*
X5060000Y11540000D01*
X5150000Y11600000D01*
X5210000Y11680000D01*
X5260000Y11770000D01*
X5610000Y11600000D01*
X5640000Y11520000D01*
X5710000Y11490000D01*
X5840000Y11480000D01*
X5970000Y11550000D01*
X6050000Y11500000D01*
X6160000Y11480000D01*
X6250000Y11490000D01*
X6340000Y11520000D01*
X6430000Y11580000D01*
X6510000Y11650000D01*
X6570000Y11740000D01*
X6610000Y11830000D01*
X6630000Y11930000D01*
X6630000Y12030000D01*
X6920000Y12040000D01*
X6920000Y11930000D01*
X6920000Y11620000D01*
X6940000Y11530000D01*
X7010000Y11490000D01*
X7140000Y11480000D01*
X7230000Y11520000D01*
X7260000Y11590000D01*
X7270000Y11700000D01*
X7270000Y12000000D01*
X7290000Y12100000D01*
X7370000Y12160000D01*
X7470000Y12170000D01*
X7560000Y12120000D01*
X7610000Y12030000D01*
X7610000Y11930000D01*
X7610000Y11620000D01*
X7630000Y11530000D01*
X7700000Y11490000D01*
X7830000Y11480000D01*
X7920000Y11520000D01*
X7950000Y11600000D01*
X8250000Y11600000D01*
X8280000Y11520000D01*
X8370000Y11480000D01*
X8500000Y11490000D01*
X8580000Y11530000D01*
X8600000Y11610000D01*
X8600000Y12740000D01*
X8590000Y12830000D01*
X8540000Y12890000D01*
X8680000Y13210000D01*
X8780000Y13200000D01*
G36*
X6120000Y11820000D02*
G01*
X6030000Y11850000D01*
X5970000Y11930000D01*
X5960000Y12030000D01*
X6010000Y12120000D01*
X6100000Y12160000D01*
X6200000Y12140000D01*
X6280000Y12080000D01*
X6300000Y11980000D01*
X6260000Y11890000D01*
X6120000Y11820000D01*
G37*
X6120000Y11820000D02*
X6030000Y11850000D01*
X5970000Y11930000D01*
X5960000Y12030000D01*
X6010000Y12120000D01*
X6100000Y12160000D01*
X6200000Y12140000D01*
X6280000Y12080000D01*
X6300000Y11980000D01*
X6260000Y11890000D01*
X6120000Y11820000D01*
G36*
X4700000Y12080000D02*
G01*
X4630000Y12130000D01*
X4680000Y12220000D01*
X4770000Y12240000D01*
X4870000Y12210000D01*
X4940000Y12130000D01*
X4900000Y12080000D01*
X4800000Y12080000D01*
X4700000Y12080000D01*
G37*
X4700000Y12080000D02*
X4630000Y12130000D01*
X4680000Y12220000D01*
X4770000Y12240000D01*
X4870000Y12210000D01*
X4940000Y12130000D01*
X4900000Y12080000D01*
X4800000Y12080000D01*
X4700000Y12080000D01*
G36*
X1730000Y12230000D02*
G01*
X1530000Y12230000D01*
X1430000Y12250000D01*
X1360000Y12320000D01*
X1340000Y12420000D01*
X1380000Y12510000D01*
X1460000Y12570000D01*
X1560000Y12580000D01*
X1660000Y12580000D01*
X1760000Y12570000D01*
X1760000Y12260000D01*
X1730000Y12230000D01*
G37*
X1730000Y12230000D02*
X1530000Y12230000D01*
X1430000Y12250000D01*
X1360000Y12320000D01*
X1340000Y12420000D01*
X1380000Y12510000D01*
X1460000Y12570000D01*
X1560000Y12580000D01*
X1660000Y12580000D01*
X1760000Y12570000D01*
X1760000Y12260000D01*
X1730000Y12230000D01*
G36*
X-1650000Y11900000D02*
G01*
X-1740000Y11860000D01*
X-1840000Y11870000D01*
X-1910000Y11950000D01*
X-1930000Y12040000D01*
X-1890000Y12130000D01*
X-1800000Y12190000D01*
X-1700000Y12180000D01*
X-1620000Y12110000D01*
X-1590000Y12020000D01*
X-1650000Y11900000D01*
G37*
X-1650000Y11900000D02*
X-1740000Y11860000D01*
X-1840000Y11870000D01*
X-1910000Y11950000D01*
X-1930000Y12040000D01*
X-1890000Y12130000D01*
X-1800000Y12190000D01*
X-1700000Y12180000D01*
X-1620000Y12110000D01*
X-1590000Y12020000D01*
X-1650000Y11900000D01*
G36*
X-5420000Y11910000D02*
G01*
X-5510000Y11860000D01*
X-5610000Y11870000D01*
X-5690000Y11930000D01*
X-5720000Y12020000D01*
X-5690000Y12110000D01*
X-5610000Y12180000D01*
X-5510000Y12180000D01*
X-5430000Y12130000D01*
X-5390000Y12040000D01*
X-5420000Y11910000D01*
G37*
X-5420000Y11910000D02*
X-5510000Y11860000D01*
X-5610000Y11870000D01*
X-5690000Y11930000D01*
X-5720000Y12020000D01*
X-5690000Y12110000D01*
X-5610000Y12180000D01*
X-5510000Y12180000D01*
X-5430000Y12130000D01*
X-5390000Y12040000D01*
X-5420000Y11910000D01*
G36*
X289333Y14236102D02*
G01*
X383869Y14245788D01*
X642960Y14286461D01*
X898270Y14355028D01*
X1149979Y14451540D01*
X1270055Y14508050D01*
X1412674Y14583651D01*
X1539534Y14661262D01*
X1657813Y14746129D01*
X1774691Y14843492D01*
X1897345Y14958597D01*
X1926554Y14987557D01*
X2046386Y15112508D01*
X2147294Y15230062D01*
X2234522Y15347398D01*
X2313312Y15471694D01*
X2388909Y15610130D01*
X2406061Y15644055D01*
X2516061Y15894092D01*
X2598089Y16147644D01*
X2652199Y16404891D01*
X2668323Y16530241D01*
X2678008Y16624778D01*
X2970444Y16624778D01*
X2970444Y16949333D01*
X2677399Y16949333D01*
X2667535Y17044583D01*
X2627659Y17301009D01*
X2561477Y17551033D01*
X2468236Y17797208D01*
X2406061Y17930055D01*
X2330460Y18072674D01*
X2252848Y18199534D01*
X2167982Y18317813D01*
X2070619Y18434691D01*
X1955514Y18557345D01*
X1926554Y18586554D01*
X1801603Y18706386D01*
X1684049Y18807294D01*
X1566713Y18894522D01*
X1442416Y18973312D01*
X1303980Y19048909D01*
X1270055Y19066061D01*
X1020019Y19176061D01*
X766466Y19258089D01*
X509220Y19312199D01*
X383869Y19328323D01*
X289333Y19338008D01*
X289333Y19630444D01*
X-35222Y19630444D01*
X-35222Y19338008D01*
X-129759Y19328323D01*
X-388849Y19287649D01*
X-644160Y19219083D01*
X-895868Y19122570D01*
X-1015945Y19066061D01*
X-1158563Y18990460D01*
X-1285423Y18912848D01*
X-1403702Y18827982D01*
X-1520580Y18730619D01*
X-1643235Y18615514D01*
X-1672443Y18586554D01*
X-1792275Y18461603D01*
X-1893183Y18344049D01*
X-1980411Y18226713D01*
X-2059202Y18102416D01*
X-2134798Y17963980D01*
X-2151950Y17930055D01*
X-2261950Y17680019D01*
X-2343979Y17426466D01*
X-2398088Y17169220D01*
X-2414212Y17043869D01*
X-2423898Y16949333D01*
X-2716333Y16949333D01*
X-2716333Y16624778D01*
X-2423898Y16624778D01*
X-2085231Y16624778D01*
X-670222Y16624778D01*
X-670222Y16949333D01*
X-2085231Y16949333D01*
X-2075524Y17044583D01*
X-2039639Y17264313D01*
X-1977594Y17484567D01*
X-1891111Y17701475D01*
X-1781907Y17911165D01*
X-1651704Y18109766D01*
X-1539801Y18250858D01*
X-1386596Y18408821D01*
X-1211950Y18553377D01*
X-1020543Y18681804D01*
X-817055Y18791383D01*
X-606165Y18879390D01*
X-392554Y18943106D01*
X-323468Y18958102D01*
X-250237Y18972329D01*
X-197880Y18981925D01*
X-159620Y18987910D01*
X-128682Y18991303D01*
X-98287Y18993125D01*
X-88139Y18993523D01*
X-35222Y18995444D01*
X-35222Y18501555D01*
X289333Y18501555D01*
X289333Y18999342D01*
X384583Y18989635D01*
X603298Y18953883D01*
X822090Y18892335D01*
X1036909Y18807114D01*
X1243706Y18700343D01*
X1438431Y18574146D01*
X1617033Y18430645D01*
X1775463Y18271964D01*
X1793912Y18250858D01*
X1938922Y18063270D01*
X2064237Y17861651D01*
X2168139Y17649873D01*
X2248907Y17431808D01*
X2304824Y17211326D01*
X2329635Y17044583D01*
X2339342Y16949333D01*
X1841555Y16949333D01*
X1841555Y16624778D01*
X2339342Y16624778D01*
X2329635Y16529528D01*
X2293749Y16309798D01*
X2231705Y16089544D01*
X2145222Y15872636D01*
X2036018Y15662946D01*
X1905814Y15464345D01*
X1793912Y15323253D01*
X1638331Y15162797D01*
X1462063Y15017253D01*
X1269159Y14888743D01*
X1063669Y14779391D01*
X849643Y14691319D01*
X631131Y14626651D01*
X412182Y14587509D01*
X384583Y14584476D01*
X289333Y14574769D01*
X289333Y15989778D01*
X-35222Y15989778D01*
X-35222Y14574769D01*
X-130472Y14584476D01*
X-349187Y14620228D01*
X-567979Y14681776D01*
X-782798Y14766997D01*
X-989595Y14873767D01*
X-1184320Y14999965D01*
X-1362922Y15143466D01*
X-1521352Y15302147D01*
X-1539801Y15323253D01*
X-1684811Y15510841D01*
X-1810126Y15712460D01*
X-1914028Y15924238D01*
X-1994796Y16142303D01*
X-2050713Y16362784D01*
X-2075524Y16529528D01*
X-2085231Y16624778D01*
X-2423898Y16624778D01*
X-2414212Y16530241D01*
X-2373539Y16271151D01*
X-2304972Y16015840D01*
X-2208460Y15764132D01*
X-2151950Y15644055D01*
X-2076349Y15501437D01*
X-1998738Y15374577D01*
X-1913871Y15256298D01*
X-1816508Y15139420D01*
X-1701403Y15016765D01*
X-1672443Y14987557D01*
X-1547492Y14867725D01*
X-1429938Y14766817D01*
X-1312602Y14679589D01*
X-1188306Y14600798D01*
X-1049870Y14525202D01*
X-1015945Y14508050D01*
X-765908Y14398050D01*
X-512356Y14316021D01*
X-255109Y14261912D01*
X-129759Y14245788D01*
X-35222Y14236102D01*
X-35222Y13943667D01*
X289333Y13943667D01*
X289333Y14236102D01*
G37*
X289333Y14236102D02*
X383869Y14245788D01*
X642960Y14286461D01*
X898270Y14355028D01*
X1149979Y14451540D01*
X1270055Y14508050D01*
X1412674Y14583651D01*
X1539534Y14661262D01*
X1657813Y14746129D01*
X1774691Y14843492D01*
X1897345Y14958597D01*
X1926554Y14987557D01*
X2046386Y15112508D01*
X2147294Y15230062D01*
X2234522Y15347398D01*
X2313312Y15471694D01*
X2388909Y15610130D01*
X2406061Y15644055D01*
X2516061Y15894092D01*
X2598089Y16147644D01*
X2652199Y16404891D01*
X2668323Y16530241D01*
X2678008Y16624778D01*
X2970444Y16624778D01*
X2970444Y16949333D01*
X2677399Y16949333D01*
X2667535Y17044583D01*
X2627659Y17301009D01*
X2561477Y17551033D01*
X2468236Y17797208D01*
X2406061Y17930055D01*
X2330460Y18072674D01*
X2252848Y18199534D01*
X2167982Y18317813D01*
X2070619Y18434691D01*
X1955514Y18557345D01*
X1926554Y18586554D01*
X1801603Y18706386D01*
X1684049Y18807294D01*
X1566713Y18894522D01*
X1442416Y18973312D01*
X1303980Y19048909D01*
X1270055Y19066061D01*
X1020019Y19176061D01*
X766466Y19258089D01*
X509220Y19312199D01*
X383869Y19328323D01*
X289333Y19338008D01*
X289333Y19630444D01*
X-35222Y19630444D01*
X-35222Y19338008D01*
X-129759Y19328323D01*
X-388849Y19287649D01*
X-644160Y19219083D01*
X-895868Y19122570D01*
X-1015945Y19066061D01*
X-1158563Y18990460D01*
X-1285423Y18912848D01*
X-1403702Y18827982D01*
X-1520580Y18730619D01*
X-1643235Y18615514D01*
X-1672443Y18586554D01*
X-1792275Y18461603D01*
X-1893183Y18344049D01*
X-1980411Y18226713D01*
X-2059202Y18102416D01*
X-2134798Y17963980D01*
X-2151950Y17930055D01*
X-2261950Y17680019D01*
X-2343979Y17426466D01*
X-2398088Y17169220D01*
X-2414212Y17043869D01*
X-2423898Y16949333D01*
X-2716333Y16949333D01*
X-2716333Y16624778D01*
X-2423898Y16624778D01*
X-2085231Y16624778D01*
X-670222Y16624778D01*
X-670222Y16949333D01*
X-2085231Y16949333D01*
X-2075524Y17044583D01*
X-2039639Y17264313D01*
X-1977594Y17484567D01*
X-1891111Y17701475D01*
X-1781907Y17911165D01*
X-1651704Y18109766D01*
X-1539801Y18250858D01*
X-1386596Y18408821D01*
X-1211950Y18553377D01*
X-1020543Y18681804D01*
X-817055Y18791383D01*
X-606165Y18879390D01*
X-392554Y18943106D01*
X-323468Y18958102D01*
X-250237Y18972329D01*
X-197880Y18981925D01*
X-159620Y18987910D01*
X-128682Y18991303D01*
X-98287Y18993125D01*
X-88139Y18993523D01*
X-35222Y18995444D01*
X-35222Y18501555D01*
X289333Y18501555D01*
X289333Y18999342D01*
X384583Y18989635D01*
X603298Y18953883D01*
X822090Y18892335D01*
X1036909Y18807114D01*
X1243706Y18700343D01*
X1438431Y18574146D01*
X1617033Y18430645D01*
X1775463Y18271964D01*
X1793912Y18250858D01*
X1938922Y18063270D01*
X2064237Y17861651D01*
X2168139Y17649873D01*
X2248907Y17431808D01*
X2304824Y17211326D01*
X2329635Y17044583D01*
X2339342Y16949333D01*
X1841555Y16949333D01*
X1841555Y16624778D01*
X2339342Y16624778D01*
X2329635Y16529528D01*
X2293749Y16309798D01*
X2231705Y16089544D01*
X2145222Y15872636D01*
X2036018Y15662946D01*
X1905814Y15464345D01*
X1793912Y15323253D01*
X1638331Y15162797D01*
X1462063Y15017253D01*
X1269159Y14888743D01*
X1063669Y14779391D01*
X849643Y14691319D01*
X631131Y14626651D01*
X412182Y14587509D01*
X384583Y14584476D01*
X289333Y14574769D01*
X289333Y15989778D01*
X-35222Y15989778D01*
X-35222Y14574769D01*
X-130472Y14584476D01*
X-349187Y14620228D01*
X-567979Y14681776D01*
X-782798Y14766997D01*
X-989595Y14873767D01*
X-1184320Y14999965D01*
X-1362922Y15143466D01*
X-1521352Y15302147D01*
X-1539801Y15323253D01*
X-1684811Y15510841D01*
X-1810126Y15712460D01*
X-1914028Y15924238D01*
X-1994796Y16142303D01*
X-2050713Y16362784D01*
X-2075524Y16529528D01*
X-2085231Y16624778D01*
X-2423898Y16624778D01*
X-2414212Y16530241D01*
X-2373539Y16271151D01*
X-2304972Y16015840D01*
X-2208460Y15764132D01*
X-2151950Y15644055D01*
X-2076349Y15501437D01*
X-1998738Y15374577D01*
X-1913871Y15256298D01*
X-1816508Y15139420D01*
X-1701403Y15016765D01*
X-1672443Y14987557D01*
X-1547492Y14867725D01*
X-1429938Y14766817D01*
X-1312602Y14679589D01*
X-1188306Y14600798D01*
X-1049870Y14525202D01*
X-1015945Y14508050D01*
X-765908Y14398050D01*
X-512356Y14316021D01*
X-255109Y14261912D01*
X-129759Y14245788D01*
X-35222Y14236102D01*
X-35222Y13943667D01*
X289333Y13943667D01*
X289333Y14236102D01*
G36*
X292439Y16437805D02*
G01*
X296389Y16617722D01*
X476305Y16621671D01*
X656222Y16625621D01*
X656222Y16948490D01*
X476305Y16952439D01*
X296389Y16956389D01*
X292439Y17136305D01*
X288490Y17316222D01*
X-34379Y17316222D01*
X-38329Y17136305D01*
X-42278Y16956389D01*
X-222195Y16952439D01*
X-402111Y16948490D01*
X-402111Y16625621D01*
X-222195Y16621671D01*
X-42278Y16617722D01*
X-38329Y16437805D01*
X-34379Y16257889D01*
X288490Y16257889D01*
X292439Y16437805D01*
G37*
X292439Y16437805D02*
X296389Y16617722D01*
X476305Y16621671D01*
X656222Y16625621D01*
X656222Y16948490D01*
X476305Y16952439D01*
X296389Y16956389D01*
X292439Y17136305D01*
X288490Y17316222D01*
X-34379Y17316222D01*
X-38329Y17136305D01*
X-42278Y16956389D01*
X-222195Y16952439D01*
X-402111Y16948490D01*
X-402111Y16625621D01*
X-222195Y16621671D01*
X-42278Y16617722D01*
X-38329Y16437805D01*
X-34379Y16257889D01*
X288490Y16257889D01*
X292439Y16437805D01*
D10*
X4413333Y22687619D02*
X4413333Y21973333D01*
X4460952Y21830476D01*
X4556190Y21735238D01*
X4699047Y21687619D01*
X4794285Y21687619D01*
X3413333Y21687619D02*
X3984761Y21687619D01*
X3699047Y21687619D02*
X3699047Y22687619D01*
X3794285Y22544761D01*
X3889523Y22449523D01*
X3984761Y22401904D01*
M02*
