G04 #@! TF.GenerationSoftware,KiCad,Pcbnew,5.1.9+dfsg1-1~bpo10+1*
G04 #@! TF.CreationDate,2021-04-13T01:38:27+00:00*
G04 #@! TF.ProjectId,ringLight,72696e67-4c69-4676-9874-2e6b69636164,rev?*
G04 #@! TF.SameCoordinates,Original*
G04 #@! TF.FileFunction,Copper,L1,Top*
G04 #@! TF.FilePolarity,Positive*
%FSLAX46Y46*%
G04 Gerber Fmt 4.6, Leading zero omitted, Abs format (unit mm)*
G04 Created by KiCad (PCBNEW 5.1.9+dfsg1-1~bpo10+1) date 2021-04-13 01:38:27*
%MOMM*%
%LPD*%
G01*
G04 APERTURE LIST*
G04 #@! TA.AperFunction,SMDPad,CuDef*
%ADD10C,0.500000*%
G04 #@! TD*
G04 #@! TA.AperFunction,SMDPad,CuDef*
%ADD11R,1.500000X1.000000*%
G04 #@! TD*
G04 #@! TA.AperFunction,SMDPad,CuDef*
%ADD12C,0.100000*%
G04 #@! TD*
G04 #@! TA.AperFunction,SMDPad,CuDef*
%ADD13R,1.000000X1.500000*%
G04 #@! TD*
G04 #@! TA.AperFunction,ViaPad*
%ADD14C,0.800000*%
G04 #@! TD*
G04 #@! TA.AperFunction,Conductor*
%ADD15C,0.500000*%
G04 #@! TD*
G04 #@! TA.AperFunction,Conductor*
%ADD16C,0.254000*%
G04 #@! TD*
G04 #@! TA.AperFunction,Conductor*
%ADD17C,0.100000*%
G04 #@! TD*
G04 APERTURE END LIST*
D10*
X5842000Y-15240000D03*
X-15000000Y-6250000D03*
X15000000Y6000000D03*
D11*
X2450000Y13400000D03*
X2450000Y16600000D03*
X-2450000Y13400000D03*
X-2450000Y16600000D03*
G04 #@! TA.AperFunction,SMDPad,CuDef*
D12*
G36*
X-14040559Y9515076D02*
G01*
X-14747665Y10222182D01*
X-13687005Y11282842D01*
X-12979899Y10575736D01*
X-14040559Y9515076D01*
G37*
G04 #@! TD.AperFunction*
G04 #@! TA.AperFunction,SMDPad,CuDef*
G36*
X-11777818Y7252335D02*
G01*
X-12484924Y7959441D01*
X-11424264Y9020101D01*
X-10717158Y8312995D01*
X-11777818Y7252335D01*
G37*
G04 #@! TD.AperFunction*
G04 #@! TA.AperFunction,SMDPad,CuDef*
G36*
X-10575736Y12979899D02*
G01*
X-11282842Y13687005D01*
X-10222182Y14747665D01*
X-9515076Y14040559D01*
X-10575736Y12979899D01*
G37*
G04 #@! TD.AperFunction*
G04 #@! TA.AperFunction,SMDPad,CuDef*
G36*
X-8312995Y10717158D02*
G01*
X-9020101Y11424264D01*
X-7959441Y12484924D01*
X-7252335Y11777818D01*
X-8312995Y10717158D01*
G37*
G04 #@! TD.AperFunction*
D13*
X-13400000Y2450000D03*
X-16600000Y2450000D03*
X-13400000Y-2450000D03*
X-16600000Y-2450000D03*
G04 #@! TA.AperFunction,SMDPad,CuDef*
D12*
G36*
X-9515076Y-14040559D02*
G01*
X-10222182Y-14747665D01*
X-11282842Y-13687005D01*
X-10575736Y-12979899D01*
X-9515076Y-14040559D01*
G37*
G04 #@! TD.AperFunction*
G04 #@! TA.AperFunction,SMDPad,CuDef*
G36*
X-7252335Y-11777818D02*
G01*
X-7959441Y-12484924D01*
X-9020101Y-11424264D01*
X-8312995Y-10717158D01*
X-7252335Y-11777818D01*
G37*
G04 #@! TD.AperFunction*
G04 #@! TA.AperFunction,SMDPad,CuDef*
G36*
X-12979899Y-10575736D02*
G01*
X-13687005Y-11282842D01*
X-14747665Y-10222182D01*
X-14040559Y-9515076D01*
X-12979899Y-10575736D01*
G37*
G04 #@! TD.AperFunction*
G04 #@! TA.AperFunction,SMDPad,CuDef*
G36*
X-10717158Y-8312995D02*
G01*
X-11424264Y-9020101D01*
X-12484924Y-7959441D01*
X-11777818Y-7252335D01*
X-10717158Y-8312995D01*
G37*
G04 #@! TD.AperFunction*
D11*
X-2450000Y-13400000D03*
X-2450000Y-16600000D03*
X2450000Y-13400000D03*
X2450000Y-16600000D03*
G04 #@! TA.AperFunction,SMDPad,CuDef*
D12*
G36*
X14040559Y-9515076D02*
G01*
X14747665Y-10222182D01*
X13687005Y-11282842D01*
X12979899Y-10575736D01*
X14040559Y-9515076D01*
G37*
G04 #@! TD.AperFunction*
G04 #@! TA.AperFunction,SMDPad,CuDef*
G36*
X11777818Y-7252335D02*
G01*
X12484924Y-7959441D01*
X11424264Y-9020101D01*
X10717158Y-8312995D01*
X11777818Y-7252335D01*
G37*
G04 #@! TD.AperFunction*
G04 #@! TA.AperFunction,SMDPad,CuDef*
G36*
X10575736Y-12979899D02*
G01*
X11282842Y-13687005D01*
X10222182Y-14747665D01*
X9515076Y-14040559D01*
X10575736Y-12979899D01*
G37*
G04 #@! TD.AperFunction*
G04 #@! TA.AperFunction,SMDPad,CuDef*
G36*
X8312995Y-10717158D02*
G01*
X9020101Y-11424264D01*
X7959441Y-12484924D01*
X7252335Y-11777818D01*
X8312995Y-10717158D01*
G37*
G04 #@! TD.AperFunction*
D13*
X13400000Y-2450000D03*
X16600000Y-2450000D03*
X13400000Y2450000D03*
X16600000Y2450000D03*
G04 #@! TA.AperFunction,SMDPad,CuDef*
D12*
G36*
X9515076Y14040559D02*
G01*
X10222182Y14747665D01*
X11282842Y13687005D01*
X10575736Y12979899D01*
X9515076Y14040559D01*
G37*
G04 #@! TD.AperFunction*
G04 #@! TA.AperFunction,SMDPad,CuDef*
G36*
X7252335Y11777818D02*
G01*
X7959441Y12484924D01*
X9020101Y11424264D01*
X8312995Y10717158D01*
X7252335Y11777818D01*
G37*
G04 #@! TD.AperFunction*
G04 #@! TA.AperFunction,SMDPad,CuDef*
G36*
X12979899Y10575736D02*
G01*
X13687005Y11282842D01*
X14747665Y10222182D01*
X14040559Y9515076D01*
X12979899Y10575736D01*
G37*
G04 #@! TD.AperFunction*
G04 #@! TA.AperFunction,SMDPad,CuDef*
G36*
X10717158Y8312995D02*
G01*
X11424264Y9020101D01*
X12484924Y7959441D01*
X11777818Y7252335D01*
X10717158Y8312995D01*
G37*
G04 #@! TD.AperFunction*
G04 #@! TA.AperFunction,SMDPad,CuDef*
G36*
G01*
X3600000Y24500000D02*
X3600000Y27000000D01*
G75*
G02*
X3850000Y27250000I250000J0D01*
G01*
X4950000Y27250000D01*
G75*
G02*
X5200000Y27000000I0J-250000D01*
G01*
X5200000Y24500000D01*
G75*
G02*
X4950000Y24250000I-250000J0D01*
G01*
X3850000Y24250000D01*
G75*
G02*
X3600000Y24500000I0J250000D01*
G01*
G37*
G04 #@! TD.AperFunction*
G04 #@! TA.AperFunction,SMDPad,CuDef*
G36*
G01*
X-5200000Y24500000D02*
X-5200000Y27000000D01*
G75*
G02*
X-4950000Y27250000I250000J0D01*
G01*
X-3850000Y27250000D01*
G75*
G02*
X-3600000Y27000000I0J-250000D01*
G01*
X-3600000Y24500000D01*
G75*
G02*
X-3850000Y24250000I-250000J0D01*
G01*
X-4950000Y24250000D01*
G75*
G02*
X-5200000Y24500000I0J250000D01*
G01*
G37*
G04 #@! TD.AperFunction*
G04 #@! TA.AperFunction,SMDPad,CuDef*
G36*
G01*
X1500000Y21000000D02*
X1500000Y26000000D01*
G75*
G02*
X1750000Y26250000I250000J0D01*
G01*
X2250000Y26250000D01*
G75*
G02*
X2500000Y26000000I0J-250000D01*
G01*
X2500000Y21000000D01*
G75*
G02*
X2250000Y20750000I-250000J0D01*
G01*
X1750000Y20750000D01*
G75*
G02*
X1500000Y21000000I0J250000D01*
G01*
G37*
G04 #@! TD.AperFunction*
G04 #@! TA.AperFunction,SMDPad,CuDef*
G36*
G01*
X-500000Y21000000D02*
X-500000Y26000000D01*
G75*
G02*
X-250000Y26250000I250000J0D01*
G01*
X250000Y26250000D01*
G75*
G02*
X500000Y26000000I0J-250000D01*
G01*
X500000Y21000000D01*
G75*
G02*
X250000Y20750000I-250000J0D01*
G01*
X-250000Y20750000D01*
G75*
G02*
X-500000Y21000000I0J250000D01*
G01*
G37*
G04 #@! TD.AperFunction*
G04 #@! TA.AperFunction,SMDPad,CuDef*
G36*
G01*
X-2500000Y21000000D02*
X-2500000Y26000000D01*
G75*
G02*
X-2250000Y26250000I250000J0D01*
G01*
X-1750000Y26250000D01*
G75*
G02*
X-1500000Y26000000I0J-250000D01*
G01*
X-1500000Y21000000D01*
G75*
G02*
X-1750000Y20750000I-250000J0D01*
G01*
X-2250000Y20750000D01*
G75*
G02*
X-2500000Y21000000I0J250000D01*
G01*
G37*
G04 #@! TD.AperFunction*
D14*
X4500000Y11500000D03*
X-4250000Y18750000D03*
D15*
X1200000Y16600000D02*
X2450000Y16600000D01*
X0Y17800000D02*
X1200000Y16600000D01*
X0Y23500000D02*
X0Y17800000D01*
X-9935177Y13400000D02*
X-10398959Y13863782D01*
X-2450000Y13400000D02*
X-9935177Y13400000D01*
X-2000000Y17050000D02*
X-2450000Y16600000D01*
X-2000000Y23500000D02*
X-2000000Y17050000D01*
X-2450000Y16600000D02*
X-9650000Y16600000D01*
X-13863782Y12386218D02*
X-13863782Y10398959D01*
X-9650000Y16600000D02*
X-13863782Y12386218D01*
X-13863782Y10398959D02*
X-18000000Y6262741D01*
X-17600000Y-2450000D02*
X-16600000Y-2450000D01*
X-18000000Y-2050000D02*
X-17600000Y-2450000D01*
X-18000000Y6262741D02*
X-18000000Y-2050000D01*
X-16600000Y-2450000D02*
X-16600000Y-9650000D01*
X-12386218Y-13863782D02*
X-10398959Y-13863782D01*
X-16600000Y-9650000D02*
X-12386218Y-13863782D01*
X-10398959Y-13863782D02*
X-6012741Y-18250000D01*
X2450000Y-17600000D02*
X2450000Y-16600000D01*
X1800000Y-18250000D02*
X2450000Y-17600000D01*
X-6012741Y-18250000D02*
X1800000Y-18250000D01*
X2450000Y-16600000D02*
X9650000Y-16600000D01*
X13863782Y-12386218D02*
X13863782Y-10398959D01*
X9650000Y-16600000D02*
X13863782Y-12386218D01*
X13863782Y-10398959D02*
X18000000Y-6262741D01*
X17600000Y2450000D02*
X16600000Y2450000D01*
X18000000Y2050000D02*
X17600000Y2450000D01*
X18000000Y-6262741D02*
X18000000Y2050000D01*
X16600000Y2450000D02*
X16600000Y9400000D01*
X12136218Y13863782D02*
X10398959Y13863782D01*
X16600000Y9400000D02*
X12136218Y13863782D01*
X-16600000Y3137259D02*
X-16600000Y2450000D01*
X-11601041Y8136218D02*
X-16600000Y3137259D01*
X-13400000Y-2450000D02*
X-13400000Y-9935177D01*
X-13400000Y-9935177D02*
X-13863782Y-10398959D01*
X-3137259Y-16600000D02*
X-2450000Y-16600000D01*
X-8136218Y-11601041D02*
X-3137259Y-16600000D01*
X9935177Y-13400000D02*
X10398959Y-13863782D01*
X2450000Y-13400000D02*
X9935177Y-13400000D01*
X16600000Y-3137259D02*
X16600000Y-2450000D01*
X11601041Y-8136218D02*
X16600000Y-3137259D01*
X13400000Y9935177D02*
X13863782Y10398959D01*
X13400000Y2450000D02*
X13400000Y9935177D01*
D16*
X5340001Y27793666D02*
X5289850Y27820472D01*
X5123254Y27871008D01*
X4950000Y27888072D01*
X3850000Y27888072D01*
X3676746Y27871008D01*
X3510150Y27820472D01*
X3356614Y27738405D01*
X3222038Y27627962D01*
X3111595Y27493386D01*
X3029528Y27339850D01*
X2978992Y27173254D01*
X2961928Y27000000D01*
X2961928Y26688095D01*
X2951185Y26701185D01*
X2854494Y26780537D01*
X2744180Y26839502D01*
X2624482Y26875812D01*
X2500000Y26888072D01*
X2285750Y26885000D01*
X2127000Y26726250D01*
X2127000Y23627000D01*
X2976250Y23627000D01*
X3135000Y23785750D01*
X3135239Y23977803D01*
X3222038Y23872038D01*
X3356614Y23761595D01*
X3510150Y23679528D01*
X3676746Y23628992D01*
X3850000Y23611928D01*
X4950000Y23611928D01*
X5123254Y23628992D01*
X5289850Y23679528D01*
X5339999Y23706334D01*
X5339998Y18967583D01*
X5349548Y18870619D01*
X5387288Y18746209D01*
X5448573Y18631552D01*
X5531050Y18531054D01*
X5631548Y18448577D01*
X5746205Y18387292D01*
X5790737Y18373783D01*
X7411073Y17781608D01*
X8962423Y17052406D01*
X10442804Y16188189D01*
X11840502Y15195792D01*
X12417748Y14703203D01*
X12309708Y14735977D01*
X12179695Y14748782D01*
X12179687Y14748782D01*
X12136218Y14753063D01*
X12092749Y14748782D01*
X11123435Y14748782D01*
X10673367Y15198850D01*
X10576676Y15278202D01*
X10466362Y15337167D01*
X10346664Y15373477D01*
X10222182Y15385737D01*
X10097700Y15373477D01*
X9978002Y15337167D01*
X9867688Y15278202D01*
X9770997Y15198850D01*
X9063891Y14491744D01*
X8984539Y14395053D01*
X8925574Y14284739D01*
X8889264Y14165041D01*
X8877004Y14040559D01*
X8889264Y13916077D01*
X8925574Y13796379D01*
X8984539Y13686065D01*
X9063891Y13589374D01*
X10124551Y12528714D01*
X10221242Y12449362D01*
X10331556Y12390397D01*
X10451254Y12354087D01*
X10575736Y12341827D01*
X10700218Y12354087D01*
X10819916Y12390397D01*
X10930230Y12449362D01*
X11026921Y12528714D01*
X11476989Y12978782D01*
X11769640Y12978782D01*
X13125107Y11623314D01*
X12528714Y11026921D01*
X12449362Y10930230D01*
X12390397Y10819916D01*
X12354087Y10700218D01*
X12341827Y10575736D01*
X12354087Y10451254D01*
X12390397Y10331556D01*
X12449362Y10221242D01*
X12528714Y10124551D01*
X12531714Y10121551D01*
X12527805Y10108667D01*
X12510719Y9935177D01*
X12515001Y9891698D01*
X12515001Y8736728D01*
X12381157Y8736728D01*
X11780646Y8136218D01*
X11794789Y8122076D01*
X11615184Y7942471D01*
X11601041Y7956613D01*
X11000531Y7356102D01*
X11000531Y7131596D01*
X11326633Y6801149D01*
X11423324Y6721797D01*
X11533638Y6662832D01*
X11653336Y6626523D01*
X11777818Y6614263D01*
X11902299Y6626523D01*
X12021997Y6662832D01*
X12132312Y6721797D01*
X12229003Y6801149D01*
X12378328Y6954819D01*
X12378328Y7179323D01*
X12490580Y7067071D01*
X12515001Y7091492D01*
X12515000Y3705502D01*
X12448815Y3651185D01*
X12369463Y3554494D01*
X12310498Y3444180D01*
X12274188Y3324482D01*
X12261928Y3200000D01*
X12261928Y1700000D01*
X12274188Y1575518D01*
X12310498Y1455820D01*
X12369463Y1345506D01*
X12448815Y1248815D01*
X12545506Y1169463D01*
X12655820Y1110498D01*
X12775518Y1074188D01*
X12900000Y1061928D01*
X13900000Y1061928D01*
X14024482Y1074188D01*
X14144180Y1110498D01*
X14254494Y1169463D01*
X14351185Y1248815D01*
X14430537Y1345506D01*
X14489502Y1455820D01*
X14525812Y1575518D01*
X14538072Y1700000D01*
X14538072Y3200000D01*
X14525812Y3324482D01*
X14489502Y3444180D01*
X14430537Y3554494D01*
X14351185Y3651185D01*
X14285000Y3705501D01*
X14285000Y5477115D01*
X14312576Y5435845D01*
X14435845Y5312576D01*
X14580795Y5215723D01*
X14741855Y5149010D01*
X14912835Y5115000D01*
X15087165Y5115000D01*
X15258145Y5149010D01*
X15419205Y5215723D01*
X15564155Y5312576D01*
X15687424Y5435845D01*
X15715000Y5477116D01*
X15715000Y3705502D01*
X15648815Y3651185D01*
X15569463Y3554494D01*
X15510498Y3444180D01*
X15474188Y3324482D01*
X15461928Y3200000D01*
X15461928Y1700000D01*
X15474188Y1575518D01*
X15510498Y1455820D01*
X15569463Y1345506D01*
X15648815Y1248815D01*
X15745506Y1169463D01*
X15855820Y1110498D01*
X15975518Y1074188D01*
X16100000Y1061928D01*
X17100000Y1061928D01*
X17115001Y1063405D01*
X17115001Y-1063405D01*
X17100000Y-1061928D01*
X16100000Y-1061928D01*
X15975518Y-1074188D01*
X15855820Y-1110498D01*
X15745506Y-1169463D01*
X15648815Y-1248815D01*
X15569463Y-1345506D01*
X15510498Y-1455820D01*
X15474188Y-1575518D01*
X15461928Y-1700000D01*
X15461928Y-3023752D01*
X11863026Y-6622655D01*
X11777818Y-6614263D01*
X11653336Y-6626523D01*
X11533638Y-6662833D01*
X11423324Y-6721798D01*
X11326633Y-6801150D01*
X10265973Y-7861810D01*
X10186621Y-7958501D01*
X10127656Y-8068815D01*
X10091346Y-8188513D01*
X10079086Y-8312995D01*
X10091346Y-8437477D01*
X10127656Y-8557175D01*
X10186621Y-8667489D01*
X10265973Y-8764180D01*
X10973079Y-9471286D01*
X11069770Y-9550638D01*
X11180084Y-9609603D01*
X11299782Y-9645913D01*
X11424264Y-9658173D01*
X11548746Y-9645913D01*
X11668444Y-9609603D01*
X11778758Y-9550638D01*
X11875449Y-9471286D01*
X12936109Y-8410626D01*
X13015461Y-8313935D01*
X13074426Y-8203621D01*
X13110736Y-8083923D01*
X13122996Y-7959441D01*
X13114604Y-7874233D01*
X17115000Y-3873838D01*
X17115000Y-5896162D01*
X14125767Y-8885396D01*
X14040559Y-8877004D01*
X13916077Y-8889264D01*
X13796379Y-8925574D01*
X13686065Y-8984539D01*
X13589374Y-9063891D01*
X12528714Y-10124551D01*
X12449362Y-10221242D01*
X12390397Y-10331556D01*
X12354087Y-10451254D01*
X12341827Y-10575736D01*
X12354087Y-10700218D01*
X12390397Y-10819916D01*
X12449362Y-10930230D01*
X12528714Y-11026921D01*
X12978782Y-11476989D01*
X12978782Y-12019639D01*
X11746907Y-13251514D01*
X11734027Y-13235820D01*
X11026921Y-12528714D01*
X10930230Y-12449362D01*
X10819916Y-12390397D01*
X10700218Y-12354087D01*
X10575736Y-12341827D01*
X10451254Y-12354087D01*
X10331556Y-12390397D01*
X10221242Y-12449362D01*
X10124551Y-12528714D01*
X10121551Y-12531714D01*
X10108667Y-12527805D01*
X9978654Y-12515000D01*
X9978646Y-12515000D01*
X9935177Y-12510719D01*
X9891708Y-12515000D01*
X8736728Y-12515000D01*
X8736728Y-12381157D01*
X8136218Y-11780646D01*
X8122076Y-11794789D01*
X7942471Y-11615184D01*
X7956613Y-11601041D01*
X8315823Y-11601041D01*
X8916334Y-12201551D01*
X9140840Y-12201551D01*
X9471287Y-11875449D01*
X9550639Y-11778758D01*
X9609604Y-11668444D01*
X9645913Y-11548746D01*
X9658173Y-11424264D01*
X9645913Y-11299783D01*
X9609604Y-11180085D01*
X9550639Y-11069770D01*
X9471287Y-10973079D01*
X9317617Y-10823754D01*
X9093110Y-10823754D01*
X8315823Y-11601041D01*
X7956613Y-11601041D01*
X7356102Y-11000531D01*
X7131596Y-11000531D01*
X6801149Y-11326633D01*
X6721797Y-11423324D01*
X6662832Y-11533638D01*
X6626523Y-11653336D01*
X6614263Y-11777818D01*
X6626523Y-11902299D01*
X6662832Y-12021997D01*
X6721797Y-12132312D01*
X6801149Y-12229003D01*
X6954819Y-12378328D01*
X7179323Y-12378328D01*
X7067071Y-12490580D01*
X7091491Y-12515000D01*
X3705501Y-12515000D01*
X3651185Y-12448815D01*
X3554494Y-12369463D01*
X3444180Y-12310498D01*
X3324482Y-12274188D01*
X3200000Y-12261928D01*
X1700000Y-12261928D01*
X1575518Y-12274188D01*
X1455820Y-12310498D01*
X1345506Y-12369463D01*
X1248815Y-12448815D01*
X1169463Y-12545506D01*
X1110498Y-12655820D01*
X1074188Y-12775518D01*
X1061928Y-12900000D01*
X1061928Y-13900000D01*
X1074188Y-14024482D01*
X1110498Y-14144180D01*
X1169463Y-14254494D01*
X1248815Y-14351185D01*
X1345506Y-14430537D01*
X1455820Y-14489502D01*
X1575518Y-14525812D01*
X1700000Y-14538072D01*
X3200000Y-14538072D01*
X3324482Y-14525812D01*
X3444180Y-14489502D01*
X3554494Y-14430537D01*
X3651185Y-14351185D01*
X3705501Y-14285000D01*
X8925714Y-14285000D01*
X8984539Y-14395053D01*
X9063891Y-14491744D01*
X9770997Y-15198850D01*
X9786692Y-15211730D01*
X9283422Y-15715000D01*
X6588996Y-15715000D01*
X6626277Y-15659205D01*
X6692990Y-15498145D01*
X6727000Y-15327165D01*
X6727000Y-15152835D01*
X6692990Y-14981855D01*
X6626277Y-14820795D01*
X6529424Y-14675845D01*
X6406155Y-14552576D01*
X6261205Y-14455723D01*
X6100145Y-14389010D01*
X5929165Y-14355000D01*
X5754835Y-14355000D01*
X5583855Y-14389010D01*
X5422795Y-14455723D01*
X5277845Y-14552576D01*
X5154576Y-14675845D01*
X5057723Y-14820795D01*
X4991010Y-14981855D01*
X4957000Y-15152835D01*
X4957000Y-15327165D01*
X4991010Y-15498145D01*
X5057723Y-15659205D01*
X5095004Y-15715000D01*
X3705501Y-15715000D01*
X3651185Y-15648815D01*
X3554494Y-15569463D01*
X3444180Y-15510498D01*
X3324482Y-15474188D01*
X3200000Y-15461928D01*
X1700000Y-15461928D01*
X1575518Y-15474188D01*
X1455820Y-15510498D01*
X1345506Y-15569463D01*
X1248815Y-15648815D01*
X1169463Y-15745506D01*
X1110498Y-15855820D01*
X1074188Y-15975518D01*
X1061928Y-16100000D01*
X1061928Y-17100000D01*
X1074188Y-17224482D01*
X1110498Y-17344180D01*
X1121627Y-17365000D01*
X-1121627Y-17365000D01*
X-1110498Y-17344180D01*
X-1074188Y-17224482D01*
X-1061928Y-17100000D01*
X-1061928Y-16100000D01*
X-1074188Y-15975518D01*
X-1110498Y-15855820D01*
X-1169463Y-15745506D01*
X-1248815Y-15648815D01*
X-1345506Y-15569463D01*
X-1455820Y-15510498D01*
X-1575518Y-15474188D01*
X-1700000Y-15461928D01*
X-3023752Y-15461928D01*
X-4585680Y-13900000D01*
X-3838072Y-13900000D01*
X-3825812Y-14024482D01*
X-3789502Y-14144180D01*
X-3730537Y-14254494D01*
X-3651185Y-14351185D01*
X-3554494Y-14430537D01*
X-3444180Y-14489502D01*
X-3324482Y-14525812D01*
X-3200000Y-14538072D01*
X-2735750Y-14535000D01*
X-2577000Y-14376250D01*
X-2577000Y-13527000D01*
X-2323000Y-13527000D01*
X-2323000Y-14376250D01*
X-2164250Y-14535000D01*
X-1700000Y-14538072D01*
X-1575518Y-14525812D01*
X-1455820Y-14489502D01*
X-1345506Y-14430537D01*
X-1248815Y-14351185D01*
X-1169463Y-14254494D01*
X-1110498Y-14144180D01*
X-1074188Y-14024482D01*
X-1061928Y-13900000D01*
X-1065000Y-13685750D01*
X-1223750Y-13527000D01*
X-2323000Y-13527000D01*
X-2577000Y-13527000D01*
X-3676250Y-13527000D01*
X-3835000Y-13685750D01*
X-3838072Y-13900000D01*
X-4585680Y-13900000D01*
X-5585680Y-12900000D01*
X-3838072Y-12900000D01*
X-3835000Y-13114250D01*
X-3676250Y-13273000D01*
X-2577000Y-13273000D01*
X-2577000Y-12423750D01*
X-2323000Y-12423750D01*
X-2323000Y-13273000D01*
X-1223750Y-13273000D01*
X-1065000Y-13114250D01*
X-1061928Y-12900000D01*
X-1074188Y-12775518D01*
X-1110498Y-12655820D01*
X-1169463Y-12545506D01*
X-1248815Y-12448815D01*
X-1345506Y-12369463D01*
X-1455820Y-12310498D01*
X-1575518Y-12274188D01*
X-1700000Y-12261928D01*
X-2164250Y-12265000D01*
X-2323000Y-12423750D01*
X-2577000Y-12423750D01*
X-2735750Y-12265000D01*
X-3200000Y-12261928D01*
X-3324482Y-12274188D01*
X-3444180Y-12310498D01*
X-3554494Y-12369463D01*
X-3651185Y-12448815D01*
X-3730537Y-12545506D01*
X-3789502Y-12655820D01*
X-3825812Y-12775518D01*
X-3838072Y-12900000D01*
X-5585680Y-12900000D01*
X-6622655Y-11863026D01*
X-6614263Y-11777818D01*
X-6626523Y-11653336D01*
X-6662833Y-11533638D01*
X-6721798Y-11423324D01*
X-6801150Y-11326633D01*
X-7861810Y-10265973D01*
X-7958501Y-10186621D01*
X-8068815Y-10127656D01*
X-8188513Y-10091346D01*
X-8312995Y-10079086D01*
X-8437477Y-10091346D01*
X-8557175Y-10127656D01*
X-8667489Y-10186621D01*
X-8764180Y-10265973D01*
X-9471286Y-10973079D01*
X-9550638Y-11069770D01*
X-9609603Y-11180084D01*
X-9645913Y-11299782D01*
X-9658173Y-11424264D01*
X-9645913Y-11548746D01*
X-9609603Y-11668444D01*
X-9550638Y-11778758D01*
X-9471286Y-11875449D01*
X-8410626Y-12936109D01*
X-8313935Y-13015461D01*
X-8203621Y-13074426D01*
X-8083923Y-13110736D01*
X-7959441Y-13122996D01*
X-7874233Y-13114604D01*
X-3832526Y-17156312D01*
X-3825812Y-17224482D01*
X-3789502Y-17344180D01*
X-3778373Y-17365000D01*
X-5646162Y-17365000D01*
X-8885396Y-14125767D01*
X-8877004Y-14040559D01*
X-8889264Y-13916077D01*
X-8925574Y-13796379D01*
X-8984539Y-13686065D01*
X-9063891Y-13589374D01*
X-10124551Y-12528714D01*
X-10221242Y-12449362D01*
X-10331556Y-12390397D01*
X-10451254Y-12354087D01*
X-10575736Y-12341827D01*
X-10700218Y-12354087D01*
X-10819916Y-12390397D01*
X-10930230Y-12449362D01*
X-11026921Y-12528714D01*
X-11476989Y-12978782D01*
X-12019639Y-12978782D01*
X-13251514Y-11746907D01*
X-13235820Y-11734027D01*
X-12528714Y-11026921D01*
X-12449362Y-10930230D01*
X-12390397Y-10819916D01*
X-12354087Y-10700218D01*
X-12341827Y-10575736D01*
X-12354087Y-10451254D01*
X-12390397Y-10331556D01*
X-12449362Y-10221242D01*
X-12528714Y-10124551D01*
X-12531714Y-10121551D01*
X-12527805Y-10108667D01*
X-12515000Y-9978654D01*
X-12515000Y-9978646D01*
X-12510719Y-9935177D01*
X-12515000Y-9891708D01*
X-12515000Y-8916334D01*
X-12201551Y-8916334D01*
X-12201551Y-9140840D01*
X-11875449Y-9471287D01*
X-11778758Y-9550639D01*
X-11668444Y-9609604D01*
X-11548746Y-9645913D01*
X-11424264Y-9658173D01*
X-11299783Y-9645913D01*
X-11180085Y-9609604D01*
X-11069770Y-9550639D01*
X-10973079Y-9471287D01*
X-10823754Y-9317617D01*
X-10823754Y-9093110D01*
X-11601041Y-8315823D01*
X-12201551Y-8916334D01*
X-12515000Y-8916334D01*
X-12515000Y-8736728D01*
X-12381157Y-8736728D01*
X-11780646Y-8136218D01*
X-11421436Y-8136218D01*
X-10644149Y-8913505D01*
X-10419642Y-8913505D01*
X-10265972Y-8764180D01*
X-10186620Y-8667489D01*
X-10127655Y-8557174D01*
X-10091346Y-8437476D01*
X-10079086Y-8312995D01*
X-10091346Y-8188513D01*
X-10127655Y-8068815D01*
X-10186620Y-7958501D01*
X-10265972Y-7861810D01*
X-10596419Y-7535708D01*
X-10820925Y-7535708D01*
X-11421436Y-8136218D01*
X-11780646Y-8136218D01*
X-11794789Y-8122076D01*
X-11615184Y-7942471D01*
X-11601041Y-7956613D01*
X-11000531Y-7356102D01*
X-11000531Y-7131596D01*
X-11326633Y-6801149D01*
X-11423324Y-6721797D01*
X-11533638Y-6662832D01*
X-11653336Y-6626523D01*
X-11777818Y-6614263D01*
X-11902299Y-6626523D01*
X-12021997Y-6662832D01*
X-12132312Y-6721797D01*
X-12229003Y-6801149D01*
X-12378328Y-6954819D01*
X-12378328Y-7179323D01*
X-12490580Y-7067071D01*
X-12515000Y-7091491D01*
X-12515000Y-3705501D01*
X-12448815Y-3651185D01*
X-12369463Y-3554494D01*
X-12310498Y-3444180D01*
X-12274188Y-3324482D01*
X-12261928Y-3200000D01*
X-12261928Y-1700000D01*
X-12274188Y-1575518D01*
X-12310498Y-1455820D01*
X-12369463Y-1345506D01*
X-12448815Y-1248815D01*
X-12545506Y-1169463D01*
X-12655820Y-1110498D01*
X-12775518Y-1074188D01*
X-12900000Y-1061928D01*
X-13900000Y-1061928D01*
X-14024482Y-1074188D01*
X-14144180Y-1110498D01*
X-14254494Y-1169463D01*
X-14351185Y-1248815D01*
X-14430537Y-1345506D01*
X-14489502Y-1455820D01*
X-14525812Y-1575518D01*
X-14538072Y-1700000D01*
X-14538072Y-3200000D01*
X-14525812Y-3324482D01*
X-14489502Y-3444180D01*
X-14430537Y-3554494D01*
X-14351185Y-3651185D01*
X-14285000Y-3705502D01*
X-14285000Y-5727116D01*
X-14312576Y-5685845D01*
X-14435845Y-5562576D01*
X-14580795Y-5465723D01*
X-14741855Y-5399010D01*
X-14912835Y-5365000D01*
X-15087165Y-5365000D01*
X-15258145Y-5399010D01*
X-15419205Y-5465723D01*
X-15564155Y-5562576D01*
X-15687424Y-5685845D01*
X-15715000Y-5727115D01*
X-15715000Y-3705501D01*
X-15648815Y-3651185D01*
X-15569463Y-3554494D01*
X-15510498Y-3444180D01*
X-15474188Y-3324482D01*
X-15461928Y-3200000D01*
X-15461928Y-1700000D01*
X-15474188Y-1575518D01*
X-15510498Y-1455820D01*
X-15569463Y-1345506D01*
X-15648815Y-1248815D01*
X-15745506Y-1169463D01*
X-15855820Y-1110498D01*
X-15975518Y-1074188D01*
X-16100000Y-1061928D01*
X-17100000Y-1061928D01*
X-17115000Y-1063405D01*
X-17115000Y670603D01*
X-10658925Y670603D01*
X-10658925Y-670603D01*
X-10490828Y-2001232D01*
X-10157284Y-3300301D01*
X-9663553Y-4547323D01*
X-9017422Y-5722630D01*
X-8229081Y-6807688D01*
X-7310963Y-7785385D01*
X-6277546Y-8640301D01*
X-5145129Y-9358955D01*
X-3931570Y-9930013D01*
X-2656008Y-10344468D01*
X-1338559Y-10595785D01*
X0Y-10680000D01*
X1328481Y-10596419D01*
X7535708Y-10596419D01*
X7535708Y-10820925D01*
X8136218Y-11421436D01*
X8913505Y-10644149D01*
X8913505Y-10419642D01*
X8764180Y-10265972D01*
X8667489Y-10186620D01*
X8557174Y-10127655D01*
X8437476Y-10091346D01*
X8312995Y-10079086D01*
X8188513Y-10091346D01*
X8068815Y-10127655D01*
X7958501Y-10186620D01*
X7861810Y-10265972D01*
X7535708Y-10596419D01*
X1328481Y-10596419D01*
X1338559Y-10595785D01*
X2656008Y-10344468D01*
X3931570Y-9930013D01*
X5145129Y-9358955D01*
X6277546Y-8640301D01*
X7310963Y-7785385D01*
X8229081Y-6807688D01*
X9017422Y-5722630D01*
X9663553Y-4547323D01*
X10157284Y-3300301D01*
X10183036Y-3200000D01*
X12261928Y-3200000D01*
X12274188Y-3324482D01*
X12310498Y-3444180D01*
X12369463Y-3554494D01*
X12448815Y-3651185D01*
X12545506Y-3730537D01*
X12655820Y-3789502D01*
X12775518Y-3825812D01*
X12900000Y-3838072D01*
X13114250Y-3835000D01*
X13273000Y-3676250D01*
X13273000Y-2577000D01*
X13527000Y-2577000D01*
X13527000Y-3676250D01*
X13685750Y-3835000D01*
X13900000Y-3838072D01*
X14024482Y-3825812D01*
X14144180Y-3789502D01*
X14254494Y-3730537D01*
X14351185Y-3651185D01*
X14430537Y-3554494D01*
X14489502Y-3444180D01*
X14525812Y-3324482D01*
X14538072Y-3200000D01*
X14535000Y-2735750D01*
X14376250Y-2577000D01*
X13527000Y-2577000D01*
X13273000Y-2577000D01*
X12423750Y-2577000D01*
X12265000Y-2735750D01*
X12261928Y-3200000D01*
X10183036Y-3200000D01*
X10490828Y-2001232D01*
X10528882Y-1700000D01*
X12261928Y-1700000D01*
X12265000Y-2164250D01*
X12423750Y-2323000D01*
X13273000Y-2323000D01*
X13273000Y-1223750D01*
X13527000Y-1223750D01*
X13527000Y-2323000D01*
X14376250Y-2323000D01*
X14535000Y-2164250D01*
X14538072Y-1700000D01*
X14525812Y-1575518D01*
X14489502Y-1455820D01*
X14430537Y-1345506D01*
X14351185Y-1248815D01*
X14254494Y-1169463D01*
X14144180Y-1110498D01*
X14024482Y-1074188D01*
X13900000Y-1061928D01*
X13685750Y-1065000D01*
X13527000Y-1223750D01*
X13273000Y-1223750D01*
X13114250Y-1065000D01*
X12900000Y-1061928D01*
X12775518Y-1074188D01*
X12655820Y-1110498D01*
X12545506Y-1169463D01*
X12448815Y-1248815D01*
X12369463Y-1345506D01*
X12310498Y-1455820D01*
X12274188Y-1575518D01*
X12261928Y-1700000D01*
X10528882Y-1700000D01*
X10658925Y-670603D01*
X10658925Y670603D01*
X10490828Y2001232D01*
X10157284Y3300301D01*
X9663553Y4547323D01*
X9017422Y5722630D01*
X8229081Y6807688D01*
X7310963Y7785385D01*
X6673192Y8312995D01*
X10079086Y8312995D01*
X10091346Y8188513D01*
X10127655Y8068815D01*
X10186620Y7958501D01*
X10265972Y7861810D01*
X10596419Y7535708D01*
X10820925Y7535708D01*
X11421436Y8136218D01*
X10644149Y8913505D01*
X10419642Y8913505D01*
X10265972Y8764180D01*
X10186620Y8667489D01*
X10127655Y8557174D01*
X10091346Y8437476D01*
X10079086Y8312995D01*
X6673192Y8312995D01*
X6277546Y8640301D01*
X5210268Y9317617D01*
X10823754Y9317617D01*
X10823754Y9093110D01*
X11601041Y8315823D01*
X12201551Y8916334D01*
X12201551Y9140840D01*
X11875449Y9471287D01*
X11778758Y9550639D01*
X11668444Y9609604D01*
X11548746Y9645913D01*
X11424264Y9658173D01*
X11299783Y9645913D01*
X11180085Y9609604D01*
X11069770Y9550639D01*
X10973079Y9471287D01*
X10823754Y9317617D01*
X5210268Y9317617D01*
X5145129Y9358955D01*
X3931570Y9930013D01*
X2656008Y10344468D01*
X1338559Y10595785D01*
X0Y10680000D01*
X-1338559Y10595785D01*
X-2656008Y10344468D01*
X-3931570Y9930013D01*
X-5145129Y9358955D01*
X-6277546Y8640301D01*
X-7310963Y7785385D01*
X-8229081Y6807688D01*
X-9017422Y5722630D01*
X-9663553Y4547323D01*
X-10157284Y3300301D01*
X-10490828Y2001232D01*
X-10658925Y670603D01*
X-17115000Y670603D01*
X-17115000Y1063405D01*
X-17100000Y1061928D01*
X-16100000Y1061928D01*
X-15975518Y1074188D01*
X-15855820Y1110498D01*
X-15745506Y1169463D01*
X-15648815Y1248815D01*
X-15569463Y1345506D01*
X-15510498Y1455820D01*
X-15474188Y1575518D01*
X-15461928Y1700000D01*
X-14538072Y1700000D01*
X-14525812Y1575518D01*
X-14489502Y1455820D01*
X-14430537Y1345506D01*
X-14351185Y1248815D01*
X-14254494Y1169463D01*
X-14144180Y1110498D01*
X-14024482Y1074188D01*
X-13900000Y1061928D01*
X-13685750Y1065000D01*
X-13527000Y1223750D01*
X-13527000Y2323000D01*
X-13273000Y2323000D01*
X-13273000Y1223750D01*
X-13114250Y1065000D01*
X-12900000Y1061928D01*
X-12775518Y1074188D01*
X-12655820Y1110498D01*
X-12545506Y1169463D01*
X-12448815Y1248815D01*
X-12369463Y1345506D01*
X-12310498Y1455820D01*
X-12274188Y1575518D01*
X-12261928Y1700000D01*
X-12265000Y2164250D01*
X-12423750Y2323000D01*
X-13273000Y2323000D01*
X-13527000Y2323000D01*
X-14376250Y2323000D01*
X-14535000Y2164250D01*
X-14538072Y1700000D01*
X-15461928Y1700000D01*
X-15461928Y3023753D01*
X-15285681Y3200000D01*
X-14538072Y3200000D01*
X-14535000Y2735750D01*
X-14376250Y2577000D01*
X-13527000Y2577000D01*
X-13527000Y3676250D01*
X-13273000Y3676250D01*
X-13273000Y2577000D01*
X-12423750Y2577000D01*
X-12265000Y2735750D01*
X-12261928Y3200000D01*
X-12274188Y3324482D01*
X-12310498Y3444180D01*
X-12369463Y3554494D01*
X-12448815Y3651185D01*
X-12545506Y3730537D01*
X-12655820Y3789502D01*
X-12775518Y3825812D01*
X-12900000Y3838072D01*
X-13114250Y3835000D01*
X-13273000Y3676250D01*
X-13527000Y3676250D01*
X-13685750Y3835000D01*
X-13900000Y3838072D01*
X-14024482Y3825812D01*
X-14144180Y3789502D01*
X-14254494Y3730537D01*
X-14351185Y3651185D01*
X-14430537Y3554494D01*
X-14489502Y3444180D01*
X-14525812Y3324482D01*
X-14538072Y3200000D01*
X-15285681Y3200000D01*
X-11863025Y6622655D01*
X-11777818Y6614263D01*
X-11653336Y6626523D01*
X-11533638Y6662833D01*
X-11423324Y6721798D01*
X-11326633Y6801150D01*
X-10265973Y7861810D01*
X-10186621Y7958501D01*
X-10127656Y8068815D01*
X-10091346Y8188513D01*
X-10079086Y8312995D01*
X-10091346Y8437477D01*
X-10127656Y8557175D01*
X-10186621Y8667489D01*
X-10265973Y8764180D01*
X-10973079Y9471286D01*
X-11069770Y9550638D01*
X-11180084Y9609603D01*
X-11299782Y9645913D01*
X-11424264Y9658173D01*
X-11548746Y9645913D01*
X-11668444Y9609603D01*
X-11778758Y9550638D01*
X-11875449Y9471286D01*
X-12936109Y8410626D01*
X-13015461Y8313935D01*
X-13074426Y8203621D01*
X-13110736Y8083923D01*
X-13122996Y7959441D01*
X-13114604Y7874234D01*
X-17115000Y3873837D01*
X-17115000Y5896163D01*
X-14125766Y8885396D01*
X-14040559Y8877004D01*
X-13916077Y8889264D01*
X-13796379Y8925574D01*
X-13686065Y8984539D01*
X-13589374Y9063891D01*
X-12528714Y10124551D01*
X-12449362Y10221242D01*
X-12390397Y10331556D01*
X-12354087Y10451254D01*
X-12341827Y10575736D01*
X-12348564Y10644149D01*
X-8913505Y10644149D01*
X-8913505Y10419642D01*
X-8764180Y10265972D01*
X-8667489Y10186620D01*
X-8557174Y10127655D01*
X-8437476Y10091346D01*
X-8312995Y10079086D01*
X-8188513Y10091346D01*
X-8068815Y10127655D01*
X-7958501Y10186620D01*
X-7861810Y10265972D01*
X-7535708Y10596419D01*
X-7535708Y10820925D01*
X-8136218Y11421436D01*
X-8913505Y10644149D01*
X-12348564Y10644149D01*
X-12354087Y10700218D01*
X-12390397Y10819916D01*
X-12449362Y10930230D01*
X-12528714Y11026921D01*
X-12926057Y11424264D01*
X-9658173Y11424264D01*
X-9645913Y11299783D01*
X-9609604Y11180085D01*
X-9550639Y11069770D01*
X-9471287Y10973079D01*
X-9317617Y10823754D01*
X-9093110Y10823754D01*
X-8315823Y11601041D01*
X-8916334Y12201551D01*
X-9140840Y12201551D01*
X-9471287Y11875449D01*
X-9550639Y11778758D01*
X-9609604Y11668444D01*
X-9645913Y11548746D01*
X-9658173Y11424264D01*
X-12926057Y11424264D01*
X-12978782Y11476989D01*
X-12978782Y12019640D01*
X-11746907Y13251515D01*
X-11734027Y13235820D01*
X-11026921Y12528714D01*
X-10930230Y12449362D01*
X-10819916Y12390397D01*
X-10700218Y12354087D01*
X-10575736Y12341827D01*
X-10451254Y12354087D01*
X-10331556Y12390397D01*
X-10221242Y12449362D01*
X-10124551Y12528714D01*
X-10121551Y12531714D01*
X-10108667Y12527805D01*
X-9978654Y12515000D01*
X-9978646Y12515000D01*
X-9935177Y12510719D01*
X-9891708Y12515000D01*
X-8736728Y12515000D01*
X-8736728Y12381157D01*
X-8136218Y11780646D01*
X-8122076Y11794789D01*
X-7942471Y11615184D01*
X-7956613Y11601041D01*
X-7356102Y11000531D01*
X-7131596Y11000531D01*
X-6801149Y11326633D01*
X-6721797Y11423324D01*
X-6662832Y11533638D01*
X-6626523Y11653336D01*
X-6614263Y11777818D01*
X6614263Y11777818D01*
X6626523Y11653336D01*
X6662833Y11533638D01*
X6721798Y11423324D01*
X6801150Y11326633D01*
X7861810Y10265973D01*
X7958501Y10186621D01*
X8068815Y10127656D01*
X8188513Y10091346D01*
X8312995Y10079086D01*
X8437477Y10091346D01*
X8557175Y10127656D01*
X8667489Y10186621D01*
X8764180Y10265973D01*
X9471286Y10973079D01*
X9550638Y11069770D01*
X9609603Y11180084D01*
X9645913Y11299782D01*
X9658173Y11424264D01*
X9645913Y11548746D01*
X9609603Y11668444D01*
X9550638Y11778758D01*
X9471286Y11875449D01*
X8410626Y12936109D01*
X8313935Y13015461D01*
X8203621Y13074426D01*
X8083923Y13110736D01*
X7959441Y13122996D01*
X7834959Y13110736D01*
X7715261Y13074426D01*
X7604947Y13015461D01*
X7508256Y12936109D01*
X6801150Y12229003D01*
X6721798Y12132312D01*
X6662833Y12021998D01*
X6626523Y11902300D01*
X6614263Y11777818D01*
X-6614263Y11777818D01*
X-6626523Y11902299D01*
X-6662832Y12021997D01*
X-6721797Y12132312D01*
X-6801149Y12229003D01*
X-6954819Y12378328D01*
X-7179323Y12378328D01*
X-7067071Y12490580D01*
X-7091491Y12515000D01*
X-3705501Y12515000D01*
X-3651185Y12448815D01*
X-3554494Y12369463D01*
X-3444180Y12310498D01*
X-3324482Y12274188D01*
X-3200000Y12261928D01*
X-1700000Y12261928D01*
X-1575518Y12274188D01*
X-1455820Y12310498D01*
X-1345506Y12369463D01*
X-1248815Y12448815D01*
X-1169463Y12545506D01*
X-1110498Y12655820D01*
X-1074188Y12775518D01*
X-1061928Y12900000D01*
X1061928Y12900000D01*
X1074188Y12775518D01*
X1110498Y12655820D01*
X1169463Y12545506D01*
X1248815Y12448815D01*
X1345506Y12369463D01*
X1455820Y12310498D01*
X1575518Y12274188D01*
X1700000Y12261928D01*
X2164250Y12265000D01*
X2323000Y12423750D01*
X2323000Y13273000D01*
X2577000Y13273000D01*
X2577000Y12423750D01*
X2735750Y12265000D01*
X3200000Y12261928D01*
X3324482Y12274188D01*
X3444180Y12310498D01*
X3554494Y12369463D01*
X3651185Y12448815D01*
X3730537Y12545506D01*
X3789502Y12655820D01*
X3825812Y12775518D01*
X3838072Y12900000D01*
X3835000Y13114250D01*
X3676250Y13273000D01*
X2577000Y13273000D01*
X2323000Y13273000D01*
X1223750Y13273000D01*
X1065000Y13114250D01*
X1061928Y12900000D01*
X-1061928Y12900000D01*
X-1061928Y13900000D01*
X1061928Y13900000D01*
X1065000Y13685750D01*
X1223750Y13527000D01*
X2323000Y13527000D01*
X2323000Y14376250D01*
X2577000Y14376250D01*
X2577000Y13527000D01*
X3676250Y13527000D01*
X3835000Y13685750D01*
X3838072Y13900000D01*
X3825812Y14024482D01*
X3789502Y14144180D01*
X3730537Y14254494D01*
X3651185Y14351185D01*
X3554494Y14430537D01*
X3444180Y14489502D01*
X3324482Y14525812D01*
X3200000Y14538072D01*
X2735750Y14535000D01*
X2577000Y14376250D01*
X2323000Y14376250D01*
X2164250Y14535000D01*
X1700000Y14538072D01*
X1575518Y14525812D01*
X1455820Y14489502D01*
X1345506Y14430537D01*
X1248815Y14351185D01*
X1169463Y14254494D01*
X1110498Y14144180D01*
X1074188Y14024482D01*
X1061928Y13900000D01*
X-1061928Y13900000D01*
X-1074188Y14024482D01*
X-1110498Y14144180D01*
X-1169463Y14254494D01*
X-1248815Y14351185D01*
X-1345506Y14430537D01*
X-1455820Y14489502D01*
X-1575518Y14525812D01*
X-1700000Y14538072D01*
X-3200000Y14538072D01*
X-3324482Y14525812D01*
X-3444180Y14489502D01*
X-3554494Y14430537D01*
X-3651185Y14351185D01*
X-3705501Y14285000D01*
X-8925714Y14285000D01*
X-8984539Y14395053D01*
X-9063891Y14491744D01*
X-9770997Y15198850D01*
X-9786691Y15211730D01*
X-9283421Y15715000D01*
X-3705501Y15715000D01*
X-3651185Y15648815D01*
X-3554494Y15569463D01*
X-3444180Y15510498D01*
X-3324482Y15474188D01*
X-3200000Y15461928D01*
X-1700000Y15461928D01*
X-1575518Y15474188D01*
X-1455820Y15510498D01*
X-1345506Y15569463D01*
X-1248815Y15648815D01*
X-1169463Y15745506D01*
X-1110498Y15855820D01*
X-1074188Y15975518D01*
X-1061928Y16100000D01*
X-1061928Y17100000D01*
X-1074188Y17224482D01*
X-1110498Y17344180D01*
X-1115000Y17352603D01*
X-1115000Y20380614D01*
X-1011595Y20506614D01*
X-1000000Y20528307D01*
X-988405Y20506614D01*
X-884999Y20380613D01*
X-884999Y17843479D01*
X-889281Y17800000D01*
X-872195Y17626510D01*
X-821588Y17459687D01*
X-739410Y17305941D01*
X-656532Y17204954D01*
X-656529Y17204951D01*
X-628816Y17171183D01*
X-595049Y17143471D01*
X543468Y16004953D01*
X571183Y15971183D01*
X604951Y15943470D01*
X604953Y15943468D01*
X628803Y15923895D01*
X705941Y15860589D01*
X859687Y15778411D01*
X1026510Y15727805D01*
X1156523Y15715000D01*
X1156533Y15715000D01*
X1197837Y15710932D01*
X1248815Y15648815D01*
X1345506Y15569463D01*
X1455820Y15510498D01*
X1575518Y15474188D01*
X1700000Y15461928D01*
X3200000Y15461928D01*
X3324482Y15474188D01*
X3444180Y15510498D01*
X3554494Y15569463D01*
X3651185Y15648815D01*
X3730537Y15745506D01*
X3789502Y15855820D01*
X3825812Y15975518D01*
X3838072Y16100000D01*
X3838072Y17100000D01*
X3825812Y17224482D01*
X3789502Y17344180D01*
X3730537Y17454494D01*
X3651185Y17551185D01*
X3554494Y17630537D01*
X3444180Y17689502D01*
X3324482Y17725812D01*
X3200000Y17738072D01*
X1700000Y17738072D01*
X1575518Y17725812D01*
X1455820Y17689502D01*
X1394730Y17656848D01*
X885000Y18166578D01*
X885000Y20380614D01*
X940969Y20448813D01*
X969463Y20395506D01*
X1048815Y20298815D01*
X1145506Y20219463D01*
X1255820Y20160498D01*
X1375518Y20124188D01*
X1500000Y20111928D01*
X1714250Y20115000D01*
X1873000Y20273750D01*
X1873000Y23373000D01*
X2127000Y23373000D01*
X2127000Y20273750D01*
X2285750Y20115000D01*
X2500000Y20111928D01*
X2624482Y20124188D01*
X2744180Y20160498D01*
X2854494Y20219463D01*
X2951185Y20298815D01*
X3030537Y20395506D01*
X3089502Y20505820D01*
X3125812Y20625518D01*
X3138072Y20750000D01*
X3135000Y23214250D01*
X2976250Y23373000D01*
X2127000Y23373000D01*
X1873000Y23373000D01*
X1853000Y23373000D01*
X1853000Y23627000D01*
X1873000Y23627000D01*
X1873000Y26726250D01*
X1714250Y26885000D01*
X1500000Y26888072D01*
X1375518Y26875812D01*
X1255820Y26839502D01*
X1145506Y26780537D01*
X1048815Y26701185D01*
X969463Y26604494D01*
X940969Y26551187D01*
X877962Y26627962D01*
X743386Y26738405D01*
X589850Y26820472D01*
X423254Y26871008D01*
X250000Y26888072D01*
X-250000Y26888072D01*
X-423254Y26871008D01*
X-589850Y26820472D01*
X-743386Y26738405D01*
X-877962Y26627962D01*
X-988405Y26493386D01*
X-1000000Y26471693D01*
X-1011595Y26493386D01*
X-1122038Y26627962D01*
X-1256614Y26738405D01*
X-1410150Y26820472D01*
X-1576746Y26871008D01*
X-1750000Y26888072D01*
X-2250000Y26888072D01*
X-2423254Y26871008D01*
X-2589850Y26820472D01*
X-2743386Y26738405D01*
X-2877962Y26627962D01*
X-2961928Y26525649D01*
X-2961928Y27000000D01*
X-2978992Y27173254D01*
X-3029528Y27339850D01*
X-3111595Y27493386D01*
X-3222038Y27627962D01*
X-3356614Y27738405D01*
X-3510150Y27820472D01*
X-3676746Y27871008D01*
X-3850000Y27888072D01*
X-4950000Y27888072D01*
X-5123254Y27871008D01*
X-5289850Y27820472D01*
X-5340000Y27793666D01*
X-5340000Y28340000D01*
X5340001Y28340000D01*
X5340001Y27793666D01*
G04 #@! TA.AperFunction,Conductor*
D17*
G36*
X5340001Y27793666D02*
G01*
X5289850Y27820472D01*
X5123254Y27871008D01*
X4950000Y27888072D01*
X3850000Y27888072D01*
X3676746Y27871008D01*
X3510150Y27820472D01*
X3356614Y27738405D01*
X3222038Y27627962D01*
X3111595Y27493386D01*
X3029528Y27339850D01*
X2978992Y27173254D01*
X2961928Y27000000D01*
X2961928Y26688095D01*
X2951185Y26701185D01*
X2854494Y26780537D01*
X2744180Y26839502D01*
X2624482Y26875812D01*
X2500000Y26888072D01*
X2285750Y26885000D01*
X2127000Y26726250D01*
X2127000Y23627000D01*
X2976250Y23627000D01*
X3135000Y23785750D01*
X3135239Y23977803D01*
X3222038Y23872038D01*
X3356614Y23761595D01*
X3510150Y23679528D01*
X3676746Y23628992D01*
X3850000Y23611928D01*
X4950000Y23611928D01*
X5123254Y23628992D01*
X5289850Y23679528D01*
X5339999Y23706334D01*
X5339998Y18967583D01*
X5349548Y18870619D01*
X5387288Y18746209D01*
X5448573Y18631552D01*
X5531050Y18531054D01*
X5631548Y18448577D01*
X5746205Y18387292D01*
X5790737Y18373783D01*
X7411073Y17781608D01*
X8962423Y17052406D01*
X10442804Y16188189D01*
X11840502Y15195792D01*
X12417748Y14703203D01*
X12309708Y14735977D01*
X12179695Y14748782D01*
X12179687Y14748782D01*
X12136218Y14753063D01*
X12092749Y14748782D01*
X11123435Y14748782D01*
X10673367Y15198850D01*
X10576676Y15278202D01*
X10466362Y15337167D01*
X10346664Y15373477D01*
X10222182Y15385737D01*
X10097700Y15373477D01*
X9978002Y15337167D01*
X9867688Y15278202D01*
X9770997Y15198850D01*
X9063891Y14491744D01*
X8984539Y14395053D01*
X8925574Y14284739D01*
X8889264Y14165041D01*
X8877004Y14040559D01*
X8889264Y13916077D01*
X8925574Y13796379D01*
X8984539Y13686065D01*
X9063891Y13589374D01*
X10124551Y12528714D01*
X10221242Y12449362D01*
X10331556Y12390397D01*
X10451254Y12354087D01*
X10575736Y12341827D01*
X10700218Y12354087D01*
X10819916Y12390397D01*
X10930230Y12449362D01*
X11026921Y12528714D01*
X11476989Y12978782D01*
X11769640Y12978782D01*
X13125107Y11623314D01*
X12528714Y11026921D01*
X12449362Y10930230D01*
X12390397Y10819916D01*
X12354087Y10700218D01*
X12341827Y10575736D01*
X12354087Y10451254D01*
X12390397Y10331556D01*
X12449362Y10221242D01*
X12528714Y10124551D01*
X12531714Y10121551D01*
X12527805Y10108667D01*
X12510719Y9935177D01*
X12515001Y9891698D01*
X12515001Y8736728D01*
X12381157Y8736728D01*
X11780646Y8136218D01*
X11794789Y8122076D01*
X11615184Y7942471D01*
X11601041Y7956613D01*
X11000531Y7356102D01*
X11000531Y7131596D01*
X11326633Y6801149D01*
X11423324Y6721797D01*
X11533638Y6662832D01*
X11653336Y6626523D01*
X11777818Y6614263D01*
X11902299Y6626523D01*
X12021997Y6662832D01*
X12132312Y6721797D01*
X12229003Y6801149D01*
X12378328Y6954819D01*
X12378328Y7179323D01*
X12490580Y7067071D01*
X12515001Y7091492D01*
X12515000Y3705502D01*
X12448815Y3651185D01*
X12369463Y3554494D01*
X12310498Y3444180D01*
X12274188Y3324482D01*
X12261928Y3200000D01*
X12261928Y1700000D01*
X12274188Y1575518D01*
X12310498Y1455820D01*
X12369463Y1345506D01*
X12448815Y1248815D01*
X12545506Y1169463D01*
X12655820Y1110498D01*
X12775518Y1074188D01*
X12900000Y1061928D01*
X13900000Y1061928D01*
X14024482Y1074188D01*
X14144180Y1110498D01*
X14254494Y1169463D01*
X14351185Y1248815D01*
X14430537Y1345506D01*
X14489502Y1455820D01*
X14525812Y1575518D01*
X14538072Y1700000D01*
X14538072Y3200000D01*
X14525812Y3324482D01*
X14489502Y3444180D01*
X14430537Y3554494D01*
X14351185Y3651185D01*
X14285000Y3705501D01*
X14285000Y5477115D01*
X14312576Y5435845D01*
X14435845Y5312576D01*
X14580795Y5215723D01*
X14741855Y5149010D01*
X14912835Y5115000D01*
X15087165Y5115000D01*
X15258145Y5149010D01*
X15419205Y5215723D01*
X15564155Y5312576D01*
X15687424Y5435845D01*
X15715000Y5477116D01*
X15715000Y3705502D01*
X15648815Y3651185D01*
X15569463Y3554494D01*
X15510498Y3444180D01*
X15474188Y3324482D01*
X15461928Y3200000D01*
X15461928Y1700000D01*
X15474188Y1575518D01*
X15510498Y1455820D01*
X15569463Y1345506D01*
X15648815Y1248815D01*
X15745506Y1169463D01*
X15855820Y1110498D01*
X15975518Y1074188D01*
X16100000Y1061928D01*
X17100000Y1061928D01*
X17115001Y1063405D01*
X17115001Y-1063405D01*
X17100000Y-1061928D01*
X16100000Y-1061928D01*
X15975518Y-1074188D01*
X15855820Y-1110498D01*
X15745506Y-1169463D01*
X15648815Y-1248815D01*
X15569463Y-1345506D01*
X15510498Y-1455820D01*
X15474188Y-1575518D01*
X15461928Y-1700000D01*
X15461928Y-3023752D01*
X11863026Y-6622655D01*
X11777818Y-6614263D01*
X11653336Y-6626523D01*
X11533638Y-6662833D01*
X11423324Y-6721798D01*
X11326633Y-6801150D01*
X10265973Y-7861810D01*
X10186621Y-7958501D01*
X10127656Y-8068815D01*
X10091346Y-8188513D01*
X10079086Y-8312995D01*
X10091346Y-8437477D01*
X10127656Y-8557175D01*
X10186621Y-8667489D01*
X10265973Y-8764180D01*
X10973079Y-9471286D01*
X11069770Y-9550638D01*
X11180084Y-9609603D01*
X11299782Y-9645913D01*
X11424264Y-9658173D01*
X11548746Y-9645913D01*
X11668444Y-9609603D01*
X11778758Y-9550638D01*
X11875449Y-9471286D01*
X12936109Y-8410626D01*
X13015461Y-8313935D01*
X13074426Y-8203621D01*
X13110736Y-8083923D01*
X13122996Y-7959441D01*
X13114604Y-7874233D01*
X17115000Y-3873838D01*
X17115000Y-5896162D01*
X14125767Y-8885396D01*
X14040559Y-8877004D01*
X13916077Y-8889264D01*
X13796379Y-8925574D01*
X13686065Y-8984539D01*
X13589374Y-9063891D01*
X12528714Y-10124551D01*
X12449362Y-10221242D01*
X12390397Y-10331556D01*
X12354087Y-10451254D01*
X12341827Y-10575736D01*
X12354087Y-10700218D01*
X12390397Y-10819916D01*
X12449362Y-10930230D01*
X12528714Y-11026921D01*
X12978782Y-11476989D01*
X12978782Y-12019639D01*
X11746907Y-13251514D01*
X11734027Y-13235820D01*
X11026921Y-12528714D01*
X10930230Y-12449362D01*
X10819916Y-12390397D01*
X10700218Y-12354087D01*
X10575736Y-12341827D01*
X10451254Y-12354087D01*
X10331556Y-12390397D01*
X10221242Y-12449362D01*
X10124551Y-12528714D01*
X10121551Y-12531714D01*
X10108667Y-12527805D01*
X9978654Y-12515000D01*
X9978646Y-12515000D01*
X9935177Y-12510719D01*
X9891708Y-12515000D01*
X8736728Y-12515000D01*
X8736728Y-12381157D01*
X8136218Y-11780646D01*
X8122076Y-11794789D01*
X7942471Y-11615184D01*
X7956613Y-11601041D01*
X8315823Y-11601041D01*
X8916334Y-12201551D01*
X9140840Y-12201551D01*
X9471287Y-11875449D01*
X9550639Y-11778758D01*
X9609604Y-11668444D01*
X9645913Y-11548746D01*
X9658173Y-11424264D01*
X9645913Y-11299783D01*
X9609604Y-11180085D01*
X9550639Y-11069770D01*
X9471287Y-10973079D01*
X9317617Y-10823754D01*
X9093110Y-10823754D01*
X8315823Y-11601041D01*
X7956613Y-11601041D01*
X7356102Y-11000531D01*
X7131596Y-11000531D01*
X6801149Y-11326633D01*
X6721797Y-11423324D01*
X6662832Y-11533638D01*
X6626523Y-11653336D01*
X6614263Y-11777818D01*
X6626523Y-11902299D01*
X6662832Y-12021997D01*
X6721797Y-12132312D01*
X6801149Y-12229003D01*
X6954819Y-12378328D01*
X7179323Y-12378328D01*
X7067071Y-12490580D01*
X7091491Y-12515000D01*
X3705501Y-12515000D01*
X3651185Y-12448815D01*
X3554494Y-12369463D01*
X3444180Y-12310498D01*
X3324482Y-12274188D01*
X3200000Y-12261928D01*
X1700000Y-12261928D01*
X1575518Y-12274188D01*
X1455820Y-12310498D01*
X1345506Y-12369463D01*
X1248815Y-12448815D01*
X1169463Y-12545506D01*
X1110498Y-12655820D01*
X1074188Y-12775518D01*
X1061928Y-12900000D01*
X1061928Y-13900000D01*
X1074188Y-14024482D01*
X1110498Y-14144180D01*
X1169463Y-14254494D01*
X1248815Y-14351185D01*
X1345506Y-14430537D01*
X1455820Y-14489502D01*
X1575518Y-14525812D01*
X1700000Y-14538072D01*
X3200000Y-14538072D01*
X3324482Y-14525812D01*
X3444180Y-14489502D01*
X3554494Y-14430537D01*
X3651185Y-14351185D01*
X3705501Y-14285000D01*
X8925714Y-14285000D01*
X8984539Y-14395053D01*
X9063891Y-14491744D01*
X9770997Y-15198850D01*
X9786692Y-15211730D01*
X9283422Y-15715000D01*
X6588996Y-15715000D01*
X6626277Y-15659205D01*
X6692990Y-15498145D01*
X6727000Y-15327165D01*
X6727000Y-15152835D01*
X6692990Y-14981855D01*
X6626277Y-14820795D01*
X6529424Y-14675845D01*
X6406155Y-14552576D01*
X6261205Y-14455723D01*
X6100145Y-14389010D01*
X5929165Y-14355000D01*
X5754835Y-14355000D01*
X5583855Y-14389010D01*
X5422795Y-14455723D01*
X5277845Y-14552576D01*
X5154576Y-14675845D01*
X5057723Y-14820795D01*
X4991010Y-14981855D01*
X4957000Y-15152835D01*
X4957000Y-15327165D01*
X4991010Y-15498145D01*
X5057723Y-15659205D01*
X5095004Y-15715000D01*
X3705501Y-15715000D01*
X3651185Y-15648815D01*
X3554494Y-15569463D01*
X3444180Y-15510498D01*
X3324482Y-15474188D01*
X3200000Y-15461928D01*
X1700000Y-15461928D01*
X1575518Y-15474188D01*
X1455820Y-15510498D01*
X1345506Y-15569463D01*
X1248815Y-15648815D01*
X1169463Y-15745506D01*
X1110498Y-15855820D01*
X1074188Y-15975518D01*
X1061928Y-16100000D01*
X1061928Y-17100000D01*
X1074188Y-17224482D01*
X1110498Y-17344180D01*
X1121627Y-17365000D01*
X-1121627Y-17365000D01*
X-1110498Y-17344180D01*
X-1074188Y-17224482D01*
X-1061928Y-17100000D01*
X-1061928Y-16100000D01*
X-1074188Y-15975518D01*
X-1110498Y-15855820D01*
X-1169463Y-15745506D01*
X-1248815Y-15648815D01*
X-1345506Y-15569463D01*
X-1455820Y-15510498D01*
X-1575518Y-15474188D01*
X-1700000Y-15461928D01*
X-3023752Y-15461928D01*
X-4585680Y-13900000D01*
X-3838072Y-13900000D01*
X-3825812Y-14024482D01*
X-3789502Y-14144180D01*
X-3730537Y-14254494D01*
X-3651185Y-14351185D01*
X-3554494Y-14430537D01*
X-3444180Y-14489502D01*
X-3324482Y-14525812D01*
X-3200000Y-14538072D01*
X-2735750Y-14535000D01*
X-2577000Y-14376250D01*
X-2577000Y-13527000D01*
X-2323000Y-13527000D01*
X-2323000Y-14376250D01*
X-2164250Y-14535000D01*
X-1700000Y-14538072D01*
X-1575518Y-14525812D01*
X-1455820Y-14489502D01*
X-1345506Y-14430537D01*
X-1248815Y-14351185D01*
X-1169463Y-14254494D01*
X-1110498Y-14144180D01*
X-1074188Y-14024482D01*
X-1061928Y-13900000D01*
X-1065000Y-13685750D01*
X-1223750Y-13527000D01*
X-2323000Y-13527000D01*
X-2577000Y-13527000D01*
X-3676250Y-13527000D01*
X-3835000Y-13685750D01*
X-3838072Y-13900000D01*
X-4585680Y-13900000D01*
X-5585680Y-12900000D01*
X-3838072Y-12900000D01*
X-3835000Y-13114250D01*
X-3676250Y-13273000D01*
X-2577000Y-13273000D01*
X-2577000Y-12423750D01*
X-2323000Y-12423750D01*
X-2323000Y-13273000D01*
X-1223750Y-13273000D01*
X-1065000Y-13114250D01*
X-1061928Y-12900000D01*
X-1074188Y-12775518D01*
X-1110498Y-12655820D01*
X-1169463Y-12545506D01*
X-1248815Y-12448815D01*
X-1345506Y-12369463D01*
X-1455820Y-12310498D01*
X-1575518Y-12274188D01*
X-1700000Y-12261928D01*
X-2164250Y-12265000D01*
X-2323000Y-12423750D01*
X-2577000Y-12423750D01*
X-2735750Y-12265000D01*
X-3200000Y-12261928D01*
X-3324482Y-12274188D01*
X-3444180Y-12310498D01*
X-3554494Y-12369463D01*
X-3651185Y-12448815D01*
X-3730537Y-12545506D01*
X-3789502Y-12655820D01*
X-3825812Y-12775518D01*
X-3838072Y-12900000D01*
X-5585680Y-12900000D01*
X-6622655Y-11863026D01*
X-6614263Y-11777818D01*
X-6626523Y-11653336D01*
X-6662833Y-11533638D01*
X-6721798Y-11423324D01*
X-6801150Y-11326633D01*
X-7861810Y-10265973D01*
X-7958501Y-10186621D01*
X-8068815Y-10127656D01*
X-8188513Y-10091346D01*
X-8312995Y-10079086D01*
X-8437477Y-10091346D01*
X-8557175Y-10127656D01*
X-8667489Y-10186621D01*
X-8764180Y-10265973D01*
X-9471286Y-10973079D01*
X-9550638Y-11069770D01*
X-9609603Y-11180084D01*
X-9645913Y-11299782D01*
X-9658173Y-11424264D01*
X-9645913Y-11548746D01*
X-9609603Y-11668444D01*
X-9550638Y-11778758D01*
X-9471286Y-11875449D01*
X-8410626Y-12936109D01*
X-8313935Y-13015461D01*
X-8203621Y-13074426D01*
X-8083923Y-13110736D01*
X-7959441Y-13122996D01*
X-7874233Y-13114604D01*
X-3832526Y-17156312D01*
X-3825812Y-17224482D01*
X-3789502Y-17344180D01*
X-3778373Y-17365000D01*
X-5646162Y-17365000D01*
X-8885396Y-14125767D01*
X-8877004Y-14040559D01*
X-8889264Y-13916077D01*
X-8925574Y-13796379D01*
X-8984539Y-13686065D01*
X-9063891Y-13589374D01*
X-10124551Y-12528714D01*
X-10221242Y-12449362D01*
X-10331556Y-12390397D01*
X-10451254Y-12354087D01*
X-10575736Y-12341827D01*
X-10700218Y-12354087D01*
X-10819916Y-12390397D01*
X-10930230Y-12449362D01*
X-11026921Y-12528714D01*
X-11476989Y-12978782D01*
X-12019639Y-12978782D01*
X-13251514Y-11746907D01*
X-13235820Y-11734027D01*
X-12528714Y-11026921D01*
X-12449362Y-10930230D01*
X-12390397Y-10819916D01*
X-12354087Y-10700218D01*
X-12341827Y-10575736D01*
X-12354087Y-10451254D01*
X-12390397Y-10331556D01*
X-12449362Y-10221242D01*
X-12528714Y-10124551D01*
X-12531714Y-10121551D01*
X-12527805Y-10108667D01*
X-12515000Y-9978654D01*
X-12515000Y-9978646D01*
X-12510719Y-9935177D01*
X-12515000Y-9891708D01*
X-12515000Y-8916334D01*
X-12201551Y-8916334D01*
X-12201551Y-9140840D01*
X-11875449Y-9471287D01*
X-11778758Y-9550639D01*
X-11668444Y-9609604D01*
X-11548746Y-9645913D01*
X-11424264Y-9658173D01*
X-11299783Y-9645913D01*
X-11180085Y-9609604D01*
X-11069770Y-9550639D01*
X-10973079Y-9471287D01*
X-10823754Y-9317617D01*
X-10823754Y-9093110D01*
X-11601041Y-8315823D01*
X-12201551Y-8916334D01*
X-12515000Y-8916334D01*
X-12515000Y-8736728D01*
X-12381157Y-8736728D01*
X-11780646Y-8136218D01*
X-11421436Y-8136218D01*
X-10644149Y-8913505D01*
X-10419642Y-8913505D01*
X-10265972Y-8764180D01*
X-10186620Y-8667489D01*
X-10127655Y-8557174D01*
X-10091346Y-8437476D01*
X-10079086Y-8312995D01*
X-10091346Y-8188513D01*
X-10127655Y-8068815D01*
X-10186620Y-7958501D01*
X-10265972Y-7861810D01*
X-10596419Y-7535708D01*
X-10820925Y-7535708D01*
X-11421436Y-8136218D01*
X-11780646Y-8136218D01*
X-11794789Y-8122076D01*
X-11615184Y-7942471D01*
X-11601041Y-7956613D01*
X-11000531Y-7356102D01*
X-11000531Y-7131596D01*
X-11326633Y-6801149D01*
X-11423324Y-6721797D01*
X-11533638Y-6662832D01*
X-11653336Y-6626523D01*
X-11777818Y-6614263D01*
X-11902299Y-6626523D01*
X-12021997Y-6662832D01*
X-12132312Y-6721797D01*
X-12229003Y-6801149D01*
X-12378328Y-6954819D01*
X-12378328Y-7179323D01*
X-12490580Y-7067071D01*
X-12515000Y-7091491D01*
X-12515000Y-3705501D01*
X-12448815Y-3651185D01*
X-12369463Y-3554494D01*
X-12310498Y-3444180D01*
X-12274188Y-3324482D01*
X-12261928Y-3200000D01*
X-12261928Y-1700000D01*
X-12274188Y-1575518D01*
X-12310498Y-1455820D01*
X-12369463Y-1345506D01*
X-12448815Y-1248815D01*
X-12545506Y-1169463D01*
X-12655820Y-1110498D01*
X-12775518Y-1074188D01*
X-12900000Y-1061928D01*
X-13900000Y-1061928D01*
X-14024482Y-1074188D01*
X-14144180Y-1110498D01*
X-14254494Y-1169463D01*
X-14351185Y-1248815D01*
X-14430537Y-1345506D01*
X-14489502Y-1455820D01*
X-14525812Y-1575518D01*
X-14538072Y-1700000D01*
X-14538072Y-3200000D01*
X-14525812Y-3324482D01*
X-14489502Y-3444180D01*
X-14430537Y-3554494D01*
X-14351185Y-3651185D01*
X-14285000Y-3705502D01*
X-14285000Y-5727116D01*
X-14312576Y-5685845D01*
X-14435845Y-5562576D01*
X-14580795Y-5465723D01*
X-14741855Y-5399010D01*
X-14912835Y-5365000D01*
X-15087165Y-5365000D01*
X-15258145Y-5399010D01*
X-15419205Y-5465723D01*
X-15564155Y-5562576D01*
X-15687424Y-5685845D01*
X-15715000Y-5727115D01*
X-15715000Y-3705501D01*
X-15648815Y-3651185D01*
X-15569463Y-3554494D01*
X-15510498Y-3444180D01*
X-15474188Y-3324482D01*
X-15461928Y-3200000D01*
X-15461928Y-1700000D01*
X-15474188Y-1575518D01*
X-15510498Y-1455820D01*
X-15569463Y-1345506D01*
X-15648815Y-1248815D01*
X-15745506Y-1169463D01*
X-15855820Y-1110498D01*
X-15975518Y-1074188D01*
X-16100000Y-1061928D01*
X-17100000Y-1061928D01*
X-17115000Y-1063405D01*
X-17115000Y670603D01*
X-10658925Y670603D01*
X-10658925Y-670603D01*
X-10490828Y-2001232D01*
X-10157284Y-3300301D01*
X-9663553Y-4547323D01*
X-9017422Y-5722630D01*
X-8229081Y-6807688D01*
X-7310963Y-7785385D01*
X-6277546Y-8640301D01*
X-5145129Y-9358955D01*
X-3931570Y-9930013D01*
X-2656008Y-10344468D01*
X-1338559Y-10595785D01*
X0Y-10680000D01*
X1328481Y-10596419D01*
X7535708Y-10596419D01*
X7535708Y-10820925D01*
X8136218Y-11421436D01*
X8913505Y-10644149D01*
X8913505Y-10419642D01*
X8764180Y-10265972D01*
X8667489Y-10186620D01*
X8557174Y-10127655D01*
X8437476Y-10091346D01*
X8312995Y-10079086D01*
X8188513Y-10091346D01*
X8068815Y-10127655D01*
X7958501Y-10186620D01*
X7861810Y-10265972D01*
X7535708Y-10596419D01*
X1328481Y-10596419D01*
X1338559Y-10595785D01*
X2656008Y-10344468D01*
X3931570Y-9930013D01*
X5145129Y-9358955D01*
X6277546Y-8640301D01*
X7310963Y-7785385D01*
X8229081Y-6807688D01*
X9017422Y-5722630D01*
X9663553Y-4547323D01*
X10157284Y-3300301D01*
X10183036Y-3200000D01*
X12261928Y-3200000D01*
X12274188Y-3324482D01*
X12310498Y-3444180D01*
X12369463Y-3554494D01*
X12448815Y-3651185D01*
X12545506Y-3730537D01*
X12655820Y-3789502D01*
X12775518Y-3825812D01*
X12900000Y-3838072D01*
X13114250Y-3835000D01*
X13273000Y-3676250D01*
X13273000Y-2577000D01*
X13527000Y-2577000D01*
X13527000Y-3676250D01*
X13685750Y-3835000D01*
X13900000Y-3838072D01*
X14024482Y-3825812D01*
X14144180Y-3789502D01*
X14254494Y-3730537D01*
X14351185Y-3651185D01*
X14430537Y-3554494D01*
X14489502Y-3444180D01*
X14525812Y-3324482D01*
X14538072Y-3200000D01*
X14535000Y-2735750D01*
X14376250Y-2577000D01*
X13527000Y-2577000D01*
X13273000Y-2577000D01*
X12423750Y-2577000D01*
X12265000Y-2735750D01*
X12261928Y-3200000D01*
X10183036Y-3200000D01*
X10490828Y-2001232D01*
X10528882Y-1700000D01*
X12261928Y-1700000D01*
X12265000Y-2164250D01*
X12423750Y-2323000D01*
X13273000Y-2323000D01*
X13273000Y-1223750D01*
X13527000Y-1223750D01*
X13527000Y-2323000D01*
X14376250Y-2323000D01*
X14535000Y-2164250D01*
X14538072Y-1700000D01*
X14525812Y-1575518D01*
X14489502Y-1455820D01*
X14430537Y-1345506D01*
X14351185Y-1248815D01*
X14254494Y-1169463D01*
X14144180Y-1110498D01*
X14024482Y-1074188D01*
X13900000Y-1061928D01*
X13685750Y-1065000D01*
X13527000Y-1223750D01*
X13273000Y-1223750D01*
X13114250Y-1065000D01*
X12900000Y-1061928D01*
X12775518Y-1074188D01*
X12655820Y-1110498D01*
X12545506Y-1169463D01*
X12448815Y-1248815D01*
X12369463Y-1345506D01*
X12310498Y-1455820D01*
X12274188Y-1575518D01*
X12261928Y-1700000D01*
X10528882Y-1700000D01*
X10658925Y-670603D01*
X10658925Y670603D01*
X10490828Y2001232D01*
X10157284Y3300301D01*
X9663553Y4547323D01*
X9017422Y5722630D01*
X8229081Y6807688D01*
X7310963Y7785385D01*
X6673192Y8312995D01*
X10079086Y8312995D01*
X10091346Y8188513D01*
X10127655Y8068815D01*
X10186620Y7958501D01*
X10265972Y7861810D01*
X10596419Y7535708D01*
X10820925Y7535708D01*
X11421436Y8136218D01*
X10644149Y8913505D01*
X10419642Y8913505D01*
X10265972Y8764180D01*
X10186620Y8667489D01*
X10127655Y8557174D01*
X10091346Y8437476D01*
X10079086Y8312995D01*
X6673192Y8312995D01*
X6277546Y8640301D01*
X5210268Y9317617D01*
X10823754Y9317617D01*
X10823754Y9093110D01*
X11601041Y8315823D01*
X12201551Y8916334D01*
X12201551Y9140840D01*
X11875449Y9471287D01*
X11778758Y9550639D01*
X11668444Y9609604D01*
X11548746Y9645913D01*
X11424264Y9658173D01*
X11299783Y9645913D01*
X11180085Y9609604D01*
X11069770Y9550639D01*
X10973079Y9471287D01*
X10823754Y9317617D01*
X5210268Y9317617D01*
X5145129Y9358955D01*
X3931570Y9930013D01*
X2656008Y10344468D01*
X1338559Y10595785D01*
X0Y10680000D01*
X-1338559Y10595785D01*
X-2656008Y10344468D01*
X-3931570Y9930013D01*
X-5145129Y9358955D01*
X-6277546Y8640301D01*
X-7310963Y7785385D01*
X-8229081Y6807688D01*
X-9017422Y5722630D01*
X-9663553Y4547323D01*
X-10157284Y3300301D01*
X-10490828Y2001232D01*
X-10658925Y670603D01*
X-17115000Y670603D01*
X-17115000Y1063405D01*
X-17100000Y1061928D01*
X-16100000Y1061928D01*
X-15975518Y1074188D01*
X-15855820Y1110498D01*
X-15745506Y1169463D01*
X-15648815Y1248815D01*
X-15569463Y1345506D01*
X-15510498Y1455820D01*
X-15474188Y1575518D01*
X-15461928Y1700000D01*
X-14538072Y1700000D01*
X-14525812Y1575518D01*
X-14489502Y1455820D01*
X-14430537Y1345506D01*
X-14351185Y1248815D01*
X-14254494Y1169463D01*
X-14144180Y1110498D01*
X-14024482Y1074188D01*
X-13900000Y1061928D01*
X-13685750Y1065000D01*
X-13527000Y1223750D01*
X-13527000Y2323000D01*
X-13273000Y2323000D01*
X-13273000Y1223750D01*
X-13114250Y1065000D01*
X-12900000Y1061928D01*
X-12775518Y1074188D01*
X-12655820Y1110498D01*
X-12545506Y1169463D01*
X-12448815Y1248815D01*
X-12369463Y1345506D01*
X-12310498Y1455820D01*
X-12274188Y1575518D01*
X-12261928Y1700000D01*
X-12265000Y2164250D01*
X-12423750Y2323000D01*
X-13273000Y2323000D01*
X-13527000Y2323000D01*
X-14376250Y2323000D01*
X-14535000Y2164250D01*
X-14538072Y1700000D01*
X-15461928Y1700000D01*
X-15461928Y3023753D01*
X-15285681Y3200000D01*
X-14538072Y3200000D01*
X-14535000Y2735750D01*
X-14376250Y2577000D01*
X-13527000Y2577000D01*
X-13527000Y3676250D01*
X-13273000Y3676250D01*
X-13273000Y2577000D01*
X-12423750Y2577000D01*
X-12265000Y2735750D01*
X-12261928Y3200000D01*
X-12274188Y3324482D01*
X-12310498Y3444180D01*
X-12369463Y3554494D01*
X-12448815Y3651185D01*
X-12545506Y3730537D01*
X-12655820Y3789502D01*
X-12775518Y3825812D01*
X-12900000Y3838072D01*
X-13114250Y3835000D01*
X-13273000Y3676250D01*
X-13527000Y3676250D01*
X-13685750Y3835000D01*
X-13900000Y3838072D01*
X-14024482Y3825812D01*
X-14144180Y3789502D01*
X-14254494Y3730537D01*
X-14351185Y3651185D01*
X-14430537Y3554494D01*
X-14489502Y3444180D01*
X-14525812Y3324482D01*
X-14538072Y3200000D01*
X-15285681Y3200000D01*
X-11863025Y6622655D01*
X-11777818Y6614263D01*
X-11653336Y6626523D01*
X-11533638Y6662833D01*
X-11423324Y6721798D01*
X-11326633Y6801150D01*
X-10265973Y7861810D01*
X-10186621Y7958501D01*
X-10127656Y8068815D01*
X-10091346Y8188513D01*
X-10079086Y8312995D01*
X-10091346Y8437477D01*
X-10127656Y8557175D01*
X-10186621Y8667489D01*
X-10265973Y8764180D01*
X-10973079Y9471286D01*
X-11069770Y9550638D01*
X-11180084Y9609603D01*
X-11299782Y9645913D01*
X-11424264Y9658173D01*
X-11548746Y9645913D01*
X-11668444Y9609603D01*
X-11778758Y9550638D01*
X-11875449Y9471286D01*
X-12936109Y8410626D01*
X-13015461Y8313935D01*
X-13074426Y8203621D01*
X-13110736Y8083923D01*
X-13122996Y7959441D01*
X-13114604Y7874234D01*
X-17115000Y3873837D01*
X-17115000Y5896163D01*
X-14125766Y8885396D01*
X-14040559Y8877004D01*
X-13916077Y8889264D01*
X-13796379Y8925574D01*
X-13686065Y8984539D01*
X-13589374Y9063891D01*
X-12528714Y10124551D01*
X-12449362Y10221242D01*
X-12390397Y10331556D01*
X-12354087Y10451254D01*
X-12341827Y10575736D01*
X-12348564Y10644149D01*
X-8913505Y10644149D01*
X-8913505Y10419642D01*
X-8764180Y10265972D01*
X-8667489Y10186620D01*
X-8557174Y10127655D01*
X-8437476Y10091346D01*
X-8312995Y10079086D01*
X-8188513Y10091346D01*
X-8068815Y10127655D01*
X-7958501Y10186620D01*
X-7861810Y10265972D01*
X-7535708Y10596419D01*
X-7535708Y10820925D01*
X-8136218Y11421436D01*
X-8913505Y10644149D01*
X-12348564Y10644149D01*
X-12354087Y10700218D01*
X-12390397Y10819916D01*
X-12449362Y10930230D01*
X-12528714Y11026921D01*
X-12926057Y11424264D01*
X-9658173Y11424264D01*
X-9645913Y11299783D01*
X-9609604Y11180085D01*
X-9550639Y11069770D01*
X-9471287Y10973079D01*
X-9317617Y10823754D01*
X-9093110Y10823754D01*
X-8315823Y11601041D01*
X-8916334Y12201551D01*
X-9140840Y12201551D01*
X-9471287Y11875449D01*
X-9550639Y11778758D01*
X-9609604Y11668444D01*
X-9645913Y11548746D01*
X-9658173Y11424264D01*
X-12926057Y11424264D01*
X-12978782Y11476989D01*
X-12978782Y12019640D01*
X-11746907Y13251515D01*
X-11734027Y13235820D01*
X-11026921Y12528714D01*
X-10930230Y12449362D01*
X-10819916Y12390397D01*
X-10700218Y12354087D01*
X-10575736Y12341827D01*
X-10451254Y12354087D01*
X-10331556Y12390397D01*
X-10221242Y12449362D01*
X-10124551Y12528714D01*
X-10121551Y12531714D01*
X-10108667Y12527805D01*
X-9978654Y12515000D01*
X-9978646Y12515000D01*
X-9935177Y12510719D01*
X-9891708Y12515000D01*
X-8736728Y12515000D01*
X-8736728Y12381157D01*
X-8136218Y11780646D01*
X-8122076Y11794789D01*
X-7942471Y11615184D01*
X-7956613Y11601041D01*
X-7356102Y11000531D01*
X-7131596Y11000531D01*
X-6801149Y11326633D01*
X-6721797Y11423324D01*
X-6662832Y11533638D01*
X-6626523Y11653336D01*
X-6614263Y11777818D01*
X6614263Y11777818D01*
X6626523Y11653336D01*
X6662833Y11533638D01*
X6721798Y11423324D01*
X6801150Y11326633D01*
X7861810Y10265973D01*
X7958501Y10186621D01*
X8068815Y10127656D01*
X8188513Y10091346D01*
X8312995Y10079086D01*
X8437477Y10091346D01*
X8557175Y10127656D01*
X8667489Y10186621D01*
X8764180Y10265973D01*
X9471286Y10973079D01*
X9550638Y11069770D01*
X9609603Y11180084D01*
X9645913Y11299782D01*
X9658173Y11424264D01*
X9645913Y11548746D01*
X9609603Y11668444D01*
X9550638Y11778758D01*
X9471286Y11875449D01*
X8410626Y12936109D01*
X8313935Y13015461D01*
X8203621Y13074426D01*
X8083923Y13110736D01*
X7959441Y13122996D01*
X7834959Y13110736D01*
X7715261Y13074426D01*
X7604947Y13015461D01*
X7508256Y12936109D01*
X6801150Y12229003D01*
X6721798Y12132312D01*
X6662833Y12021998D01*
X6626523Y11902300D01*
X6614263Y11777818D01*
X-6614263Y11777818D01*
X-6626523Y11902299D01*
X-6662832Y12021997D01*
X-6721797Y12132312D01*
X-6801149Y12229003D01*
X-6954819Y12378328D01*
X-7179323Y12378328D01*
X-7067071Y12490580D01*
X-7091491Y12515000D01*
X-3705501Y12515000D01*
X-3651185Y12448815D01*
X-3554494Y12369463D01*
X-3444180Y12310498D01*
X-3324482Y12274188D01*
X-3200000Y12261928D01*
X-1700000Y12261928D01*
X-1575518Y12274188D01*
X-1455820Y12310498D01*
X-1345506Y12369463D01*
X-1248815Y12448815D01*
X-1169463Y12545506D01*
X-1110498Y12655820D01*
X-1074188Y12775518D01*
X-1061928Y12900000D01*
X1061928Y12900000D01*
X1074188Y12775518D01*
X1110498Y12655820D01*
X1169463Y12545506D01*
X1248815Y12448815D01*
X1345506Y12369463D01*
X1455820Y12310498D01*
X1575518Y12274188D01*
X1700000Y12261928D01*
X2164250Y12265000D01*
X2323000Y12423750D01*
X2323000Y13273000D01*
X2577000Y13273000D01*
X2577000Y12423750D01*
X2735750Y12265000D01*
X3200000Y12261928D01*
X3324482Y12274188D01*
X3444180Y12310498D01*
X3554494Y12369463D01*
X3651185Y12448815D01*
X3730537Y12545506D01*
X3789502Y12655820D01*
X3825812Y12775518D01*
X3838072Y12900000D01*
X3835000Y13114250D01*
X3676250Y13273000D01*
X2577000Y13273000D01*
X2323000Y13273000D01*
X1223750Y13273000D01*
X1065000Y13114250D01*
X1061928Y12900000D01*
X-1061928Y12900000D01*
X-1061928Y13900000D01*
X1061928Y13900000D01*
X1065000Y13685750D01*
X1223750Y13527000D01*
X2323000Y13527000D01*
X2323000Y14376250D01*
X2577000Y14376250D01*
X2577000Y13527000D01*
X3676250Y13527000D01*
X3835000Y13685750D01*
X3838072Y13900000D01*
X3825812Y14024482D01*
X3789502Y14144180D01*
X3730537Y14254494D01*
X3651185Y14351185D01*
X3554494Y14430537D01*
X3444180Y14489502D01*
X3324482Y14525812D01*
X3200000Y14538072D01*
X2735750Y14535000D01*
X2577000Y14376250D01*
X2323000Y14376250D01*
X2164250Y14535000D01*
X1700000Y14538072D01*
X1575518Y14525812D01*
X1455820Y14489502D01*
X1345506Y14430537D01*
X1248815Y14351185D01*
X1169463Y14254494D01*
X1110498Y14144180D01*
X1074188Y14024482D01*
X1061928Y13900000D01*
X-1061928Y13900000D01*
X-1074188Y14024482D01*
X-1110498Y14144180D01*
X-1169463Y14254494D01*
X-1248815Y14351185D01*
X-1345506Y14430537D01*
X-1455820Y14489502D01*
X-1575518Y14525812D01*
X-1700000Y14538072D01*
X-3200000Y14538072D01*
X-3324482Y14525812D01*
X-3444180Y14489502D01*
X-3554494Y14430537D01*
X-3651185Y14351185D01*
X-3705501Y14285000D01*
X-8925714Y14285000D01*
X-8984539Y14395053D01*
X-9063891Y14491744D01*
X-9770997Y15198850D01*
X-9786691Y15211730D01*
X-9283421Y15715000D01*
X-3705501Y15715000D01*
X-3651185Y15648815D01*
X-3554494Y15569463D01*
X-3444180Y15510498D01*
X-3324482Y15474188D01*
X-3200000Y15461928D01*
X-1700000Y15461928D01*
X-1575518Y15474188D01*
X-1455820Y15510498D01*
X-1345506Y15569463D01*
X-1248815Y15648815D01*
X-1169463Y15745506D01*
X-1110498Y15855820D01*
X-1074188Y15975518D01*
X-1061928Y16100000D01*
X-1061928Y17100000D01*
X-1074188Y17224482D01*
X-1110498Y17344180D01*
X-1115000Y17352603D01*
X-1115000Y20380614D01*
X-1011595Y20506614D01*
X-1000000Y20528307D01*
X-988405Y20506614D01*
X-884999Y20380613D01*
X-884999Y17843479D01*
X-889281Y17800000D01*
X-872195Y17626510D01*
X-821588Y17459687D01*
X-739410Y17305941D01*
X-656532Y17204954D01*
X-656529Y17204951D01*
X-628816Y17171183D01*
X-595049Y17143471D01*
X543468Y16004953D01*
X571183Y15971183D01*
X604951Y15943470D01*
X604953Y15943468D01*
X628803Y15923895D01*
X705941Y15860589D01*
X859687Y15778411D01*
X1026510Y15727805D01*
X1156523Y15715000D01*
X1156533Y15715000D01*
X1197837Y15710932D01*
X1248815Y15648815D01*
X1345506Y15569463D01*
X1455820Y15510498D01*
X1575518Y15474188D01*
X1700000Y15461928D01*
X3200000Y15461928D01*
X3324482Y15474188D01*
X3444180Y15510498D01*
X3554494Y15569463D01*
X3651185Y15648815D01*
X3730537Y15745506D01*
X3789502Y15855820D01*
X3825812Y15975518D01*
X3838072Y16100000D01*
X3838072Y17100000D01*
X3825812Y17224482D01*
X3789502Y17344180D01*
X3730537Y17454494D01*
X3651185Y17551185D01*
X3554494Y17630537D01*
X3444180Y17689502D01*
X3324482Y17725812D01*
X3200000Y17738072D01*
X1700000Y17738072D01*
X1575518Y17725812D01*
X1455820Y17689502D01*
X1394730Y17656848D01*
X885000Y18166578D01*
X885000Y20380614D01*
X940969Y20448813D01*
X969463Y20395506D01*
X1048815Y20298815D01*
X1145506Y20219463D01*
X1255820Y20160498D01*
X1375518Y20124188D01*
X1500000Y20111928D01*
X1714250Y20115000D01*
X1873000Y20273750D01*
X1873000Y23373000D01*
X2127000Y23373000D01*
X2127000Y20273750D01*
X2285750Y20115000D01*
X2500000Y20111928D01*
X2624482Y20124188D01*
X2744180Y20160498D01*
X2854494Y20219463D01*
X2951185Y20298815D01*
X3030537Y20395506D01*
X3089502Y20505820D01*
X3125812Y20625518D01*
X3138072Y20750000D01*
X3135000Y23214250D01*
X2976250Y23373000D01*
X2127000Y23373000D01*
X1873000Y23373000D01*
X1853000Y23373000D01*
X1853000Y23627000D01*
X1873000Y23627000D01*
X1873000Y26726250D01*
X1714250Y26885000D01*
X1500000Y26888072D01*
X1375518Y26875812D01*
X1255820Y26839502D01*
X1145506Y26780537D01*
X1048815Y26701185D01*
X969463Y26604494D01*
X940969Y26551187D01*
X877962Y26627962D01*
X743386Y26738405D01*
X589850Y26820472D01*
X423254Y26871008D01*
X250000Y26888072D01*
X-250000Y26888072D01*
X-423254Y26871008D01*
X-589850Y26820472D01*
X-743386Y26738405D01*
X-877962Y26627962D01*
X-988405Y26493386D01*
X-1000000Y26471693D01*
X-1011595Y26493386D01*
X-1122038Y26627962D01*
X-1256614Y26738405D01*
X-1410150Y26820472D01*
X-1576746Y26871008D01*
X-1750000Y26888072D01*
X-2250000Y26888072D01*
X-2423254Y26871008D01*
X-2589850Y26820472D01*
X-2743386Y26738405D01*
X-2877962Y26627962D01*
X-2961928Y26525649D01*
X-2961928Y27000000D01*
X-2978992Y27173254D01*
X-3029528Y27339850D01*
X-3111595Y27493386D01*
X-3222038Y27627962D01*
X-3356614Y27738405D01*
X-3510150Y27820472D01*
X-3676746Y27871008D01*
X-3850000Y27888072D01*
X-4950000Y27888072D01*
X-5123254Y27871008D01*
X-5289850Y27820472D01*
X-5340000Y27793666D01*
X-5340000Y28340000D01*
X5340001Y28340000D01*
X5340001Y27793666D01*
G37*
G04 #@! TD.AperFunction*
D16*
X-3138072Y21000000D02*
X-3121008Y20826746D01*
X-3070472Y20660150D01*
X-2988405Y20506614D01*
X-2885000Y20380613D01*
X-2884999Y17738072D01*
X-3200000Y17738072D01*
X-3324482Y17725812D01*
X-3444180Y17689502D01*
X-3554494Y17630537D01*
X-3651185Y17551185D01*
X-3705501Y17485000D01*
X-8047377Y17485000D01*
X-6954566Y17965266D01*
X-5794749Y18372565D01*
X-5746208Y18387290D01*
X-5631551Y18448575D01*
X-5531052Y18531052D01*
X-5448575Y18631550D01*
X-5387290Y18746207D01*
X-5349550Y18870617D01*
X-5340000Y18967581D01*
X-5340000Y23706334D01*
X-5289850Y23679528D01*
X-5123254Y23628992D01*
X-4950000Y23611928D01*
X-3850000Y23611928D01*
X-3676746Y23628992D01*
X-3510150Y23679528D01*
X-3356614Y23761595D01*
X-3222038Y23872038D01*
X-3138072Y23974351D01*
X-3138072Y21000000D01*
G04 #@! TA.AperFunction,Conductor*
D17*
G36*
X-3138072Y21000000D02*
G01*
X-3121008Y20826746D01*
X-3070472Y20660150D01*
X-2988405Y20506614D01*
X-2885000Y20380613D01*
X-2884999Y17738072D01*
X-3200000Y17738072D01*
X-3324482Y17725812D01*
X-3444180Y17689502D01*
X-3554494Y17630537D01*
X-3651185Y17551185D01*
X-3705501Y17485000D01*
X-8047377Y17485000D01*
X-6954566Y17965266D01*
X-5794749Y18372565D01*
X-5746208Y18387290D01*
X-5631551Y18448575D01*
X-5531052Y18531052D01*
X-5448575Y18631550D01*
X-5387290Y18746207D01*
X-5349550Y18870617D01*
X-5340000Y18967581D01*
X-5340000Y23706334D01*
X-5289850Y23679528D01*
X-5123254Y23628992D01*
X-4950000Y23611928D01*
X-3850000Y23611928D01*
X-3676746Y23628992D01*
X-3510150Y23679528D01*
X-3356614Y23761595D01*
X-3222038Y23872038D01*
X-3138072Y23974351D01*
X-3138072Y21000000D01*
G37*
G04 #@! TD.AperFunction*
M02*
