G04 #@! TF.GenerationSoftware,KiCad,Pcbnew,5.1.9+dfsg1-1~bpo10+1*
G04 #@! TF.CreationDate,2021-06-05T17:10:26+00:00*
G04 #@! TF.ProjectId,ringLight,72696e67-4c69-4676-9874-2e6b69636164,rev?*
G04 #@! TF.SameCoordinates,Original*
G04 #@! TF.FileFunction,Soldermask,Top*
G04 #@! TF.FilePolarity,Negative*
%FSLAX46Y46*%
G04 Gerber Fmt 4.6, Leading zero omitted, Abs format (unit mm)*
G04 Created by KiCad (PCBNEW 5.1.9+dfsg1-1~bpo10+1) date 2021-06-05 17:10:26*
%MOMM*%
%LPD*%
G01*
G04 APERTURE LIST*
%ADD10C,1.000000*%
%ADD11R,1.500000X1.000000*%
%ADD12C,0.100000*%
%ADD13R,1.000000X1.500000*%
G04 APERTURE END LIST*
D10*
X5842000Y-15240000D03*
X-15000000Y-6250000D03*
X15000000Y6000000D03*
D11*
X2450000Y13400000D03*
X2450000Y16600000D03*
X-2450000Y13400000D03*
X-2450000Y16600000D03*
D12*
G36*
X-14040559Y9515076D02*
G01*
X-14747665Y10222182D01*
X-13687005Y11282842D01*
X-12979899Y10575736D01*
X-14040559Y9515076D01*
G37*
G36*
X-11777818Y7252335D02*
G01*
X-12484924Y7959441D01*
X-11424264Y9020101D01*
X-10717158Y8312995D01*
X-11777818Y7252335D01*
G37*
G36*
X-10575736Y12979899D02*
G01*
X-11282842Y13687005D01*
X-10222182Y14747665D01*
X-9515076Y14040559D01*
X-10575736Y12979899D01*
G37*
G36*
X-8312995Y10717158D02*
G01*
X-9020101Y11424264D01*
X-7959441Y12484924D01*
X-7252335Y11777818D01*
X-8312995Y10717158D01*
G37*
D13*
X-13400000Y2450000D03*
X-16600000Y2450000D03*
X-13400000Y-2450000D03*
X-16600000Y-2450000D03*
D12*
G36*
X-9515076Y-14040559D02*
G01*
X-10222182Y-14747665D01*
X-11282842Y-13687005D01*
X-10575736Y-12979899D01*
X-9515076Y-14040559D01*
G37*
G36*
X-7252335Y-11777818D02*
G01*
X-7959441Y-12484924D01*
X-9020101Y-11424264D01*
X-8312995Y-10717158D01*
X-7252335Y-11777818D01*
G37*
G36*
X-12979899Y-10575736D02*
G01*
X-13687005Y-11282842D01*
X-14747665Y-10222182D01*
X-14040559Y-9515076D01*
X-12979899Y-10575736D01*
G37*
G36*
X-10717158Y-8312995D02*
G01*
X-11424264Y-9020101D01*
X-12484924Y-7959441D01*
X-11777818Y-7252335D01*
X-10717158Y-8312995D01*
G37*
D11*
X-2450000Y-13400000D03*
X-2450000Y-16600000D03*
X2450000Y-13400000D03*
X2450000Y-16600000D03*
D12*
G36*
X14040559Y-9515076D02*
G01*
X14747665Y-10222182D01*
X13687005Y-11282842D01*
X12979899Y-10575736D01*
X14040559Y-9515076D01*
G37*
G36*
X11777818Y-7252335D02*
G01*
X12484924Y-7959441D01*
X11424264Y-9020101D01*
X10717158Y-8312995D01*
X11777818Y-7252335D01*
G37*
G36*
X10575736Y-12979899D02*
G01*
X11282842Y-13687005D01*
X10222182Y-14747665D01*
X9515076Y-14040559D01*
X10575736Y-12979899D01*
G37*
G36*
X8312995Y-10717158D02*
G01*
X9020101Y-11424264D01*
X7959441Y-12484924D01*
X7252335Y-11777818D01*
X8312995Y-10717158D01*
G37*
D13*
X13400000Y-2450000D03*
X16600000Y-2450000D03*
X13400000Y2450000D03*
X16600000Y2450000D03*
D12*
G36*
X9515076Y14040559D02*
G01*
X10222182Y14747665D01*
X11282842Y13687005D01*
X10575736Y12979899D01*
X9515076Y14040559D01*
G37*
G36*
X7252335Y11777818D02*
G01*
X7959441Y12484924D01*
X9020101Y11424264D01*
X8312995Y10717158D01*
X7252335Y11777818D01*
G37*
G36*
X12979899Y10575736D02*
G01*
X13687005Y11282842D01*
X14747665Y10222182D01*
X14040559Y9515076D01*
X12979899Y10575736D01*
G37*
G36*
X10717158Y8312995D02*
G01*
X11424264Y9020101D01*
X12484924Y7959441D01*
X11777818Y7252335D01*
X10717158Y8312995D01*
G37*
G36*
G01*
X3600000Y24500000D02*
X3600000Y27000000D01*
G75*
G02*
X3850000Y27250000I250000J0D01*
G01*
X4950000Y27250000D01*
G75*
G02*
X5200000Y27000000I0J-250000D01*
G01*
X5200000Y24500000D01*
G75*
G02*
X4950000Y24250000I-250000J0D01*
G01*
X3850000Y24250000D01*
G75*
G02*
X3600000Y24500000I0J250000D01*
G01*
G37*
G36*
G01*
X-5200000Y24500000D02*
X-5200000Y27000000D01*
G75*
G02*
X-4950000Y27250000I250000J0D01*
G01*
X-3850000Y27250000D01*
G75*
G02*
X-3600000Y27000000I0J-250000D01*
G01*
X-3600000Y24500000D01*
G75*
G02*
X-3850000Y24250000I-250000J0D01*
G01*
X-4950000Y24250000D01*
G75*
G02*
X-5200000Y24500000I0J250000D01*
G01*
G37*
G36*
G01*
X1500000Y21000000D02*
X1500000Y26000000D01*
G75*
G02*
X1750000Y26250000I250000J0D01*
G01*
X2250000Y26250000D01*
G75*
G02*
X2500000Y26000000I0J-250000D01*
G01*
X2500000Y21000000D01*
G75*
G02*
X2250000Y20750000I-250000J0D01*
G01*
X1750000Y20750000D01*
G75*
G02*
X1500000Y21000000I0J250000D01*
G01*
G37*
G36*
G01*
X-500000Y21000000D02*
X-500000Y26000000D01*
G75*
G02*
X-250000Y26250000I250000J0D01*
G01*
X250000Y26250000D01*
G75*
G02*
X500000Y26000000I0J-250000D01*
G01*
X500000Y21000000D01*
G75*
G02*
X250000Y20750000I-250000J0D01*
G01*
X-250000Y20750000D01*
G75*
G02*
X-500000Y21000000I0J250000D01*
G01*
G37*
G36*
G01*
X-2500000Y21000000D02*
X-2500000Y26000000D01*
G75*
G02*
X-2250000Y26250000I250000J0D01*
G01*
X-1750000Y26250000D01*
G75*
G02*
X-1500000Y26000000I0J-250000D01*
G01*
X-1500000Y21000000D01*
G75*
G02*
X-1750000Y20750000I-250000J0D01*
G01*
X-2250000Y20750000D01*
G75*
G02*
X-2500000Y21000000I0J250000D01*
G01*
G37*
M02*
