G04 #@! TF.GenerationSoftware,KiCad,Pcbnew,5.1.9+dfsg1-1~bpo10+1*
G04 #@! TF.CreationDate,2021-08-04T01:59:26+00:00*
G04 #@! TF.ProjectId,ringLight,72696e67-4c69-4676-9874-2e6b69636164,rev?*
G04 #@! TF.SameCoordinates,Original*
G04 #@! TF.FileFunction,Soldermask,Bot*
G04 #@! TF.FilePolarity,Negative*
%FSLAX46Y46*%
G04 Gerber Fmt 4.6, Leading zero omitted, Abs format (unit mm)*
G04 Created by KiCad (PCBNEW 5.1.9+dfsg1-1~bpo10+1) date 2021-08-04 01:59:26*
%MOMM*%
%LPD*%
G01*
G04 APERTURE LIST*
G04 APERTURE END LIST*
G36*
G01*
X-3570000Y26990000D02*
X-3570000Y24490000D01*
G75*
G02*
X-3820000Y24240000I-250000J0D01*
G01*
X-4920000Y24240000D01*
G75*
G02*
X-5170000Y24490000I0J250000D01*
G01*
X-5170000Y26990000D01*
G75*
G02*
X-4920000Y27240000I250000J0D01*
G01*
X-3820000Y27240000D01*
G75*
G02*
X-3570000Y26990000I0J-250000D01*
G01*
G37*
G36*
G01*
X5230000Y26990000D02*
X5230000Y24490000D01*
G75*
G02*
X4980000Y24240000I-250000J0D01*
G01*
X3880000Y24240000D01*
G75*
G02*
X3630000Y24490000I0J250000D01*
G01*
X3630000Y26990000D01*
G75*
G02*
X3880000Y27240000I250000J0D01*
G01*
X4980000Y27240000D01*
G75*
G02*
X5230000Y26990000I0J-250000D01*
G01*
G37*
G36*
G01*
X-1470000Y25990000D02*
X-1470000Y20990000D01*
G75*
G02*
X-1720000Y20740000I-250000J0D01*
G01*
X-2220000Y20740000D01*
G75*
G02*
X-2470000Y20990000I0J250000D01*
G01*
X-2470000Y25990000D01*
G75*
G02*
X-2220000Y26240000I250000J0D01*
G01*
X-1720000Y26240000D01*
G75*
G02*
X-1470000Y25990000I0J-250000D01*
G01*
G37*
G36*
G01*
X530000Y25990000D02*
X530000Y20990000D01*
G75*
G02*
X280000Y20740000I-250000J0D01*
G01*
X-220000Y20740000D01*
G75*
G02*
X-470000Y20990000I0J250000D01*
G01*
X-470000Y25990000D01*
G75*
G02*
X-220000Y26240000I250000J0D01*
G01*
X280000Y26240000D01*
G75*
G02*
X530000Y25990000I0J-250000D01*
G01*
G37*
G36*
G01*
X2530000Y25990000D02*
X2530000Y20990000D01*
G75*
G02*
X2280000Y20740000I-250000J0D01*
G01*
X1780000Y20740000D01*
G75*
G02*
X1530000Y20990000I0J250000D01*
G01*
X1530000Y25990000D01*
G75*
G02*
X1780000Y26240000I250000J0D01*
G01*
X2280000Y26240000D01*
G75*
G02*
X2530000Y25990000I0J-250000D01*
G01*
G37*
M02*
