G04 #@! TF.GenerationSoftware,KiCad,Pcbnew,5.1.9+dfsg1-1~bpo10+1*
G04 #@! TF.CreationDate,2021-03-14T21:48:30+00:00*
G04 #@! TF.ProjectId,ringLight,72696e67-4c69-4676-9874-2e6b69636164,rev?*
G04 #@! TF.SameCoordinates,Original*
G04 #@! TF.FileFunction,Soldermask,Top*
G04 #@! TF.FilePolarity,Negative*
%FSLAX46Y46*%
G04 Gerber Fmt 4.6, Leading zero omitted, Abs format (unit mm)*
G04 Created by KiCad (PCBNEW 5.1.9+dfsg1-1~bpo10+1) date 2021-03-14 21:48:30*
%MOMM*%
%LPD*%
G01*
G04 APERTURE LIST*
%ADD10C,1.000000*%
G04 APERTURE END LIST*
D10*
X5842000Y-15240000D03*
X-15000000Y-6250000D03*
X15000000Y6000000D03*
G36*
G01*
X1649000Y12900000D02*
X1649000Y13900000D01*
G75*
G02*
X1700000Y13951000I51000J0D01*
G01*
X3200000Y13951000D01*
G75*
G02*
X3251000Y13900000I0J-51000D01*
G01*
X3251000Y12900000D01*
G75*
G02*
X3200000Y12849000I-51000J0D01*
G01*
X1700000Y12849000D01*
G75*
G02*
X1649000Y12900000I0J51000D01*
G01*
G37*
G36*
G01*
X1649000Y16100000D02*
X1649000Y17100000D01*
G75*
G02*
X1700000Y17151000I51000J0D01*
G01*
X3200000Y17151000D01*
G75*
G02*
X3251000Y17100000I0J-51000D01*
G01*
X3251000Y16100000D01*
G75*
G02*
X3200000Y16049000I-51000J0D01*
G01*
X1700000Y16049000D01*
G75*
G02*
X1649000Y16100000I0J51000D01*
G01*
G37*
G36*
G01*
X-3251000Y12900000D02*
X-3251000Y13900000D01*
G75*
G02*
X-3200000Y13951000I51000J0D01*
G01*
X-1700000Y13951000D01*
G75*
G02*
X-1649000Y13900000I0J-51000D01*
G01*
X-1649000Y12900000D01*
G75*
G02*
X-1700000Y12849000I-51000J0D01*
G01*
X-3200000Y12849000D01*
G75*
G02*
X-3251000Y12900000I0J51000D01*
G01*
G37*
G36*
G01*
X-3251000Y16100000D02*
X-3251000Y17100000D01*
G75*
G02*
X-3200000Y17151000I51000J0D01*
G01*
X-1700000Y17151000D01*
G75*
G02*
X-1649000Y17100000I0J-51000D01*
G01*
X-1649000Y16100000D01*
G75*
G02*
X-1700000Y16049000I-51000J0D01*
G01*
X-3200000Y16049000D01*
G75*
G02*
X-3251000Y16100000I0J51000D01*
G01*
G37*
G36*
G01*
X-14076621Y9479014D02*
X-14783727Y10186120D01*
G75*
G02*
X-14783727Y10258244I36062J36062D01*
G01*
X-13723067Y11318904D01*
G75*
G02*
X-13650943Y11318904I36062J-36062D01*
G01*
X-12943837Y10611798D01*
G75*
G02*
X-12943837Y10539674I-36062J-36062D01*
G01*
X-14004497Y9479014D01*
G75*
G02*
X-14076621Y9479014I-36062J36062D01*
G01*
G37*
G36*
G01*
X-11813880Y7216273D02*
X-12520986Y7923379D01*
G75*
G02*
X-12520986Y7995503I36062J36062D01*
G01*
X-11460326Y9056163D01*
G75*
G02*
X-11388202Y9056163I36062J-36062D01*
G01*
X-10681096Y8349057D01*
G75*
G02*
X-10681096Y8276933I-36062J-36062D01*
G01*
X-11741756Y7216273D01*
G75*
G02*
X-11813880Y7216273I-36062J36062D01*
G01*
G37*
G36*
G01*
X-10611798Y12943837D02*
X-11318904Y13650943D01*
G75*
G02*
X-11318904Y13723067I36062J36062D01*
G01*
X-10258244Y14783727D01*
G75*
G02*
X-10186120Y14783727I36062J-36062D01*
G01*
X-9479014Y14076621D01*
G75*
G02*
X-9479014Y14004497I-36062J-36062D01*
G01*
X-10539674Y12943837D01*
G75*
G02*
X-10611798Y12943837I-36062J36062D01*
G01*
G37*
G36*
G01*
X-8349057Y10681096D02*
X-9056163Y11388202D01*
G75*
G02*
X-9056163Y11460326I36062J36062D01*
G01*
X-7995503Y12520986D01*
G75*
G02*
X-7923379Y12520986I36062J-36062D01*
G01*
X-7216273Y11813880D01*
G75*
G02*
X-7216273Y11741756I-36062J-36062D01*
G01*
X-8276933Y10681096D01*
G75*
G02*
X-8349057Y10681096I-36062J36062D01*
G01*
G37*
G36*
G01*
X-12900000Y1649000D02*
X-13900000Y1649000D01*
G75*
G02*
X-13951000Y1700000I0J51000D01*
G01*
X-13951000Y3200000D01*
G75*
G02*
X-13900000Y3251000I51000J0D01*
G01*
X-12900000Y3251000D01*
G75*
G02*
X-12849000Y3200000I0J-51000D01*
G01*
X-12849000Y1700000D01*
G75*
G02*
X-12900000Y1649000I-51000J0D01*
G01*
G37*
G36*
G01*
X-16100000Y1649000D02*
X-17100000Y1649000D01*
G75*
G02*
X-17151000Y1700000I0J51000D01*
G01*
X-17151000Y3200000D01*
G75*
G02*
X-17100000Y3251000I51000J0D01*
G01*
X-16100000Y3251000D01*
G75*
G02*
X-16049000Y3200000I0J-51000D01*
G01*
X-16049000Y1700000D01*
G75*
G02*
X-16100000Y1649000I-51000J0D01*
G01*
G37*
G36*
G01*
X-12900000Y-3251000D02*
X-13900000Y-3251000D01*
G75*
G02*
X-13951000Y-3200000I0J51000D01*
G01*
X-13951000Y-1700000D01*
G75*
G02*
X-13900000Y-1649000I51000J0D01*
G01*
X-12900000Y-1649000D01*
G75*
G02*
X-12849000Y-1700000I0J-51000D01*
G01*
X-12849000Y-3200000D01*
G75*
G02*
X-12900000Y-3251000I-51000J0D01*
G01*
G37*
G36*
G01*
X-16100000Y-3251000D02*
X-17100000Y-3251000D01*
G75*
G02*
X-17151000Y-3200000I0J51000D01*
G01*
X-17151000Y-1700000D01*
G75*
G02*
X-17100000Y-1649000I51000J0D01*
G01*
X-16100000Y-1649000D01*
G75*
G02*
X-16049000Y-1700000I0J-51000D01*
G01*
X-16049000Y-3200000D01*
G75*
G02*
X-16100000Y-3251000I-51000J0D01*
G01*
G37*
G36*
G01*
X-9479014Y-14076621D02*
X-10186120Y-14783727D01*
G75*
G02*
X-10258244Y-14783727I-36062J36062D01*
G01*
X-11318904Y-13723067D01*
G75*
G02*
X-11318904Y-13650943I36062J36062D01*
G01*
X-10611798Y-12943837D01*
G75*
G02*
X-10539674Y-12943837I36062J-36062D01*
G01*
X-9479014Y-14004497D01*
G75*
G02*
X-9479014Y-14076621I-36062J-36062D01*
G01*
G37*
G36*
G01*
X-7216273Y-11813880D02*
X-7923379Y-12520986D01*
G75*
G02*
X-7995503Y-12520986I-36062J36062D01*
G01*
X-9056163Y-11460326D01*
G75*
G02*
X-9056163Y-11388202I36062J36062D01*
G01*
X-8349057Y-10681096D01*
G75*
G02*
X-8276933Y-10681096I36062J-36062D01*
G01*
X-7216273Y-11741756D01*
G75*
G02*
X-7216273Y-11813880I-36062J-36062D01*
G01*
G37*
G36*
G01*
X-12943837Y-10611798D02*
X-13650943Y-11318904D01*
G75*
G02*
X-13723067Y-11318904I-36062J36062D01*
G01*
X-14783727Y-10258244D01*
G75*
G02*
X-14783727Y-10186120I36062J36062D01*
G01*
X-14076621Y-9479014D01*
G75*
G02*
X-14004497Y-9479014I36062J-36062D01*
G01*
X-12943837Y-10539674D01*
G75*
G02*
X-12943837Y-10611798I-36062J-36062D01*
G01*
G37*
G36*
G01*
X-10681096Y-8349057D02*
X-11388202Y-9056163D01*
G75*
G02*
X-11460326Y-9056163I-36062J36062D01*
G01*
X-12520986Y-7995503D01*
G75*
G02*
X-12520986Y-7923379I36062J36062D01*
G01*
X-11813880Y-7216273D01*
G75*
G02*
X-11741756Y-7216273I36062J-36062D01*
G01*
X-10681096Y-8276933D01*
G75*
G02*
X-10681096Y-8349057I-36062J-36062D01*
G01*
G37*
G36*
G01*
X-1649000Y-12900000D02*
X-1649000Y-13900000D01*
G75*
G02*
X-1700000Y-13951000I-51000J0D01*
G01*
X-3200000Y-13951000D01*
G75*
G02*
X-3251000Y-13900000I0J51000D01*
G01*
X-3251000Y-12900000D01*
G75*
G02*
X-3200000Y-12849000I51000J0D01*
G01*
X-1700000Y-12849000D01*
G75*
G02*
X-1649000Y-12900000I0J-51000D01*
G01*
G37*
G36*
G01*
X-1649000Y-16100000D02*
X-1649000Y-17100000D01*
G75*
G02*
X-1700000Y-17151000I-51000J0D01*
G01*
X-3200000Y-17151000D01*
G75*
G02*
X-3251000Y-17100000I0J51000D01*
G01*
X-3251000Y-16100000D01*
G75*
G02*
X-3200000Y-16049000I51000J0D01*
G01*
X-1700000Y-16049000D01*
G75*
G02*
X-1649000Y-16100000I0J-51000D01*
G01*
G37*
G36*
G01*
X3251000Y-12900000D02*
X3251000Y-13900000D01*
G75*
G02*
X3200000Y-13951000I-51000J0D01*
G01*
X1700000Y-13951000D01*
G75*
G02*
X1649000Y-13900000I0J51000D01*
G01*
X1649000Y-12900000D01*
G75*
G02*
X1700000Y-12849000I51000J0D01*
G01*
X3200000Y-12849000D01*
G75*
G02*
X3251000Y-12900000I0J-51000D01*
G01*
G37*
G36*
G01*
X3251000Y-16100000D02*
X3251000Y-17100000D01*
G75*
G02*
X3200000Y-17151000I-51000J0D01*
G01*
X1700000Y-17151000D01*
G75*
G02*
X1649000Y-17100000I0J51000D01*
G01*
X1649000Y-16100000D01*
G75*
G02*
X1700000Y-16049000I51000J0D01*
G01*
X3200000Y-16049000D01*
G75*
G02*
X3251000Y-16100000I0J-51000D01*
G01*
G37*
G36*
G01*
X14076621Y-9479014D02*
X14783727Y-10186120D01*
G75*
G02*
X14783727Y-10258244I-36062J-36062D01*
G01*
X13723067Y-11318904D01*
G75*
G02*
X13650943Y-11318904I-36062J36062D01*
G01*
X12943837Y-10611798D01*
G75*
G02*
X12943837Y-10539674I36062J36062D01*
G01*
X14004497Y-9479014D01*
G75*
G02*
X14076621Y-9479014I36062J-36062D01*
G01*
G37*
G36*
G01*
X11813880Y-7216273D02*
X12520986Y-7923379D01*
G75*
G02*
X12520986Y-7995503I-36062J-36062D01*
G01*
X11460326Y-9056163D01*
G75*
G02*
X11388202Y-9056163I-36062J36062D01*
G01*
X10681096Y-8349057D01*
G75*
G02*
X10681096Y-8276933I36062J36062D01*
G01*
X11741756Y-7216273D01*
G75*
G02*
X11813880Y-7216273I36062J-36062D01*
G01*
G37*
G36*
G01*
X10611798Y-12943837D02*
X11318904Y-13650943D01*
G75*
G02*
X11318904Y-13723067I-36062J-36062D01*
G01*
X10258244Y-14783727D01*
G75*
G02*
X10186120Y-14783727I-36062J36062D01*
G01*
X9479014Y-14076621D01*
G75*
G02*
X9479014Y-14004497I36062J36062D01*
G01*
X10539674Y-12943837D01*
G75*
G02*
X10611798Y-12943837I36062J-36062D01*
G01*
G37*
G36*
G01*
X8349057Y-10681096D02*
X9056163Y-11388202D01*
G75*
G02*
X9056163Y-11460326I-36062J-36062D01*
G01*
X7995503Y-12520986D01*
G75*
G02*
X7923379Y-12520986I-36062J36062D01*
G01*
X7216273Y-11813880D01*
G75*
G02*
X7216273Y-11741756I36062J36062D01*
G01*
X8276933Y-10681096D01*
G75*
G02*
X8349057Y-10681096I36062J-36062D01*
G01*
G37*
G36*
G01*
X12900000Y-1649000D02*
X13900000Y-1649000D01*
G75*
G02*
X13951000Y-1700000I0J-51000D01*
G01*
X13951000Y-3200000D01*
G75*
G02*
X13900000Y-3251000I-51000J0D01*
G01*
X12900000Y-3251000D01*
G75*
G02*
X12849000Y-3200000I0J51000D01*
G01*
X12849000Y-1700000D01*
G75*
G02*
X12900000Y-1649000I51000J0D01*
G01*
G37*
G36*
G01*
X16100000Y-1649000D02*
X17100000Y-1649000D01*
G75*
G02*
X17151000Y-1700000I0J-51000D01*
G01*
X17151000Y-3200000D01*
G75*
G02*
X17100000Y-3251000I-51000J0D01*
G01*
X16100000Y-3251000D01*
G75*
G02*
X16049000Y-3200000I0J51000D01*
G01*
X16049000Y-1700000D01*
G75*
G02*
X16100000Y-1649000I51000J0D01*
G01*
G37*
G36*
G01*
X12900000Y3251000D02*
X13900000Y3251000D01*
G75*
G02*
X13951000Y3200000I0J-51000D01*
G01*
X13951000Y1700000D01*
G75*
G02*
X13900000Y1649000I-51000J0D01*
G01*
X12900000Y1649000D01*
G75*
G02*
X12849000Y1700000I0J51000D01*
G01*
X12849000Y3200000D01*
G75*
G02*
X12900000Y3251000I51000J0D01*
G01*
G37*
G36*
G01*
X16100000Y3251000D02*
X17100000Y3251000D01*
G75*
G02*
X17151000Y3200000I0J-51000D01*
G01*
X17151000Y1700000D01*
G75*
G02*
X17100000Y1649000I-51000J0D01*
G01*
X16100000Y1649000D01*
G75*
G02*
X16049000Y1700000I0J51000D01*
G01*
X16049000Y3200000D01*
G75*
G02*
X16100000Y3251000I51000J0D01*
G01*
G37*
G36*
G01*
X9479014Y14076621D02*
X10186120Y14783727D01*
G75*
G02*
X10258244Y14783727I36062J-36062D01*
G01*
X11318904Y13723067D01*
G75*
G02*
X11318904Y13650943I-36062J-36062D01*
G01*
X10611798Y12943837D01*
G75*
G02*
X10539674Y12943837I-36062J36062D01*
G01*
X9479014Y14004497D01*
G75*
G02*
X9479014Y14076621I36062J36062D01*
G01*
G37*
G36*
G01*
X7216273Y11813880D02*
X7923379Y12520986D01*
G75*
G02*
X7995503Y12520986I36062J-36062D01*
G01*
X9056163Y11460326D01*
G75*
G02*
X9056163Y11388202I-36062J-36062D01*
G01*
X8349057Y10681096D01*
G75*
G02*
X8276933Y10681096I-36062J36062D01*
G01*
X7216273Y11741756D01*
G75*
G02*
X7216273Y11813880I36062J36062D01*
G01*
G37*
G36*
G01*
X12943837Y10611798D02*
X13650943Y11318904D01*
G75*
G02*
X13723067Y11318904I36062J-36062D01*
G01*
X14783727Y10258244D01*
G75*
G02*
X14783727Y10186120I-36062J-36062D01*
G01*
X14076621Y9479014D01*
G75*
G02*
X14004497Y9479014I-36062J36062D01*
G01*
X12943837Y10539674D01*
G75*
G02*
X12943837Y10611798I36062J36062D01*
G01*
G37*
G36*
G01*
X10681096Y8349057D02*
X11388202Y9056163D01*
G75*
G02*
X11460326Y9056163I36062J-36062D01*
G01*
X12520986Y7995503D01*
G75*
G02*
X12520986Y7923379I-36062J-36062D01*
G01*
X11813880Y7216273D01*
G75*
G02*
X11741756Y7216273I-36062J36062D01*
G01*
X10681096Y8276933D01*
G75*
G02*
X10681096Y8349057I36062J36062D01*
G01*
G37*
G36*
G01*
X3549000Y24464937D02*
X3549000Y27035063D01*
G75*
G02*
X3814937Y27301000I265937J0D01*
G01*
X4985063Y27301000D01*
G75*
G02*
X5251000Y27035063I0J-265937D01*
G01*
X5251000Y24464937D01*
G75*
G02*
X4985063Y24199000I-265937J0D01*
G01*
X3814937Y24199000D01*
G75*
G02*
X3549000Y24464937I0J265937D01*
G01*
G37*
G36*
G01*
X-5251000Y24464937D02*
X-5251000Y27035063D01*
G75*
G02*
X-4985063Y27301000I265937J0D01*
G01*
X-3814937Y27301000D01*
G75*
G02*
X-3549000Y27035063I0J-265937D01*
G01*
X-3549000Y24464937D01*
G75*
G02*
X-3814937Y24199000I-265937J0D01*
G01*
X-4985063Y24199000D01*
G75*
G02*
X-5251000Y24464937I0J265937D01*
G01*
G37*
G36*
G01*
X1449000Y20974500D02*
X1449000Y26025500D01*
G75*
G02*
X1724500Y26301000I275500J0D01*
G01*
X2275500Y26301000D01*
G75*
G02*
X2551000Y26025500I0J-275500D01*
G01*
X2551000Y20974500D01*
G75*
G02*
X2275500Y20699000I-275500J0D01*
G01*
X1724500Y20699000D01*
G75*
G02*
X1449000Y20974500I0J275500D01*
G01*
G37*
G36*
G01*
X-551000Y20974500D02*
X-551000Y26025500D01*
G75*
G02*
X-275500Y26301000I275500J0D01*
G01*
X275500Y26301000D01*
G75*
G02*
X551000Y26025500I0J-275500D01*
G01*
X551000Y20974500D01*
G75*
G02*
X275500Y20699000I-275500J0D01*
G01*
X-275500Y20699000D01*
G75*
G02*
X-551000Y20974500I0J275500D01*
G01*
G37*
G36*
G01*
X-2551000Y20974500D02*
X-2551000Y26025500D01*
G75*
G02*
X-2275500Y26301000I275500J0D01*
G01*
X-1724500Y26301000D01*
G75*
G02*
X-1449000Y26025500I0J-275500D01*
G01*
X-1449000Y20974500D01*
G75*
G02*
X-1724500Y20699000I-275500J0D01*
G01*
X-2275500Y20699000D01*
G75*
G02*
X-2551000Y20974500I0J275500D01*
G01*
G37*
M02*
