G04 #@! TF.GenerationSoftware,KiCad,Pcbnew,5.1.9+dfsg1-1~bpo10+1*
G04 #@! TF.CreationDate,2021-05-14T18:31:58+00:00*
G04 #@! TF.ProjectId,ringLight,72696e67-4c69-4676-9874-2e6b69636164,rev?*
G04 #@! TF.SameCoordinates,Original*
G04 #@! TF.FileFunction,Copper,L2,Bot*
G04 #@! TF.FilePolarity,Positive*
%FSLAX46Y46*%
G04 Gerber Fmt 4.6, Leading zero omitted, Abs format (unit mm)*
G04 Created by KiCad (PCBNEW 5.1.9+dfsg1-1~bpo10+1) date 2021-05-14 18:31:58*
%MOMM*%
%LPD*%
G01*
G04 APERTURE LIST*
G04 #@! TA.AperFunction,ViaPad*
%ADD10C,0.800000*%
G04 #@! TD*
G04 #@! TA.AperFunction,Conductor*
%ADD11C,0.500000*%
G04 #@! TD*
G04 #@! TA.AperFunction,Conductor*
%ADD12C,0.254000*%
G04 #@! TD*
G04 #@! TA.AperFunction,Conductor*
%ADD13C,0.100000*%
G04 #@! TD*
G04 APERTURE END LIST*
G04 #@! TA.AperFunction,SMDPad,CuDef*
G36*
G01*
X-3570000Y26990000D02*
X-3570000Y24490000D01*
G75*
G02*
X-3820000Y24240000I-250000J0D01*
G01*
X-4920000Y24240000D01*
G75*
G02*
X-5170000Y24490000I0J250000D01*
G01*
X-5170000Y26990000D01*
G75*
G02*
X-4920000Y27240000I250000J0D01*
G01*
X-3820000Y27240000D01*
G75*
G02*
X-3570000Y26990000I0J-250000D01*
G01*
G37*
G04 #@! TD.AperFunction*
G04 #@! TA.AperFunction,SMDPad,CuDef*
G36*
G01*
X5230000Y26990000D02*
X5230000Y24490000D01*
G75*
G02*
X4980000Y24240000I-250000J0D01*
G01*
X3880000Y24240000D01*
G75*
G02*
X3630000Y24490000I0J250000D01*
G01*
X3630000Y26990000D01*
G75*
G02*
X3880000Y27240000I250000J0D01*
G01*
X4980000Y27240000D01*
G75*
G02*
X5230000Y26990000I0J-250000D01*
G01*
G37*
G04 #@! TD.AperFunction*
G04 #@! TA.AperFunction,SMDPad,CuDef*
G36*
G01*
X-1470000Y25990000D02*
X-1470000Y20990000D01*
G75*
G02*
X-1720000Y20740000I-250000J0D01*
G01*
X-2220000Y20740000D01*
G75*
G02*
X-2470000Y20990000I0J250000D01*
G01*
X-2470000Y25990000D01*
G75*
G02*
X-2220000Y26240000I250000J0D01*
G01*
X-1720000Y26240000D01*
G75*
G02*
X-1470000Y25990000I0J-250000D01*
G01*
G37*
G04 #@! TD.AperFunction*
G04 #@! TA.AperFunction,SMDPad,CuDef*
G36*
G01*
X530000Y25990000D02*
X530000Y20990000D01*
G75*
G02*
X280000Y20740000I-250000J0D01*
G01*
X-220000Y20740000D01*
G75*
G02*
X-470000Y20990000I0J250000D01*
G01*
X-470000Y25990000D01*
G75*
G02*
X-220000Y26240000I250000J0D01*
G01*
X280000Y26240000D01*
G75*
G02*
X530000Y25990000I0J-250000D01*
G01*
G37*
G04 #@! TD.AperFunction*
G04 #@! TA.AperFunction,SMDPad,CuDef*
G36*
G01*
X2530000Y25990000D02*
X2530000Y20990000D01*
G75*
G02*
X2280000Y20740000I-250000J0D01*
G01*
X1780000Y20740000D01*
G75*
G02*
X1530000Y20990000I0J250000D01*
G01*
X1530000Y25990000D01*
G75*
G02*
X1780000Y26240000I250000J0D01*
G01*
X2280000Y26240000D01*
G75*
G02*
X2530000Y25990000I0J-250000D01*
G01*
G37*
G04 #@! TD.AperFunction*
D10*
X-4250000Y18750000D03*
X8000000Y8180000D03*
X0Y23500000D03*
X60000Y27410000D03*
D11*
X10000Y23490000D02*
X0Y23500000D01*
X30000Y23490000D02*
X10000Y23490000D01*
X2030000Y23490000D02*
X2030000Y26360000D01*
X980000Y27410000D02*
X60000Y27410000D01*
X2030000Y26360000D02*
X980000Y27410000D01*
D12*
X-430256Y28327205D02*
X-599774Y28213937D01*
X-743937Y28069774D01*
X-857205Y27900256D01*
X-935226Y27711898D01*
X-975000Y27511939D01*
X-975000Y27308061D01*
X-935226Y27108102D01*
X-857205Y26919744D01*
X-743937Y26750226D01*
X-718181Y26724470D01*
X-847962Y26617962D01*
X-910969Y26541187D01*
X-939463Y26594494D01*
X-1018815Y26691185D01*
X-1115506Y26770537D01*
X-1225820Y26829502D01*
X-1345518Y26865812D01*
X-1470000Y26878072D01*
X-1684250Y26875000D01*
X-1843000Y26716250D01*
X-1843000Y23617000D01*
X-1823000Y23617000D01*
X-1823000Y23363000D01*
X-1843000Y23363000D01*
X-1843000Y20263750D01*
X-1684250Y20105000D01*
X-1470000Y20101928D01*
X-1345518Y20114188D01*
X-1225820Y20150498D01*
X-1115506Y20209463D01*
X-1018815Y20288815D01*
X-939463Y20385506D01*
X-910969Y20438813D01*
X-847962Y20362038D01*
X-713386Y20251595D01*
X-559850Y20169528D01*
X-393254Y20118992D01*
X-220000Y20101928D01*
X280000Y20101928D01*
X453254Y20118992D01*
X619850Y20169528D01*
X773386Y20251595D01*
X907962Y20362038D01*
X1018405Y20496614D01*
X1030000Y20518307D01*
X1041595Y20496614D01*
X1152038Y20362038D01*
X1286614Y20251595D01*
X1440150Y20169528D01*
X1606746Y20118992D01*
X1780000Y20101928D01*
X2280000Y20101928D01*
X2453254Y20118992D01*
X2619850Y20169528D01*
X2773386Y20251595D01*
X2907962Y20362038D01*
X3018405Y20496614D01*
X3100472Y20650150D01*
X3151008Y20816746D01*
X3168072Y20990000D01*
X3168072Y23964351D01*
X3252038Y23862038D01*
X3386614Y23751595D01*
X3540150Y23669528D01*
X3706746Y23618992D01*
X3880000Y23601928D01*
X4980000Y23601928D01*
X5153254Y23618992D01*
X5319850Y23669528D01*
X5339999Y23680298D01*
X5339998Y18967583D01*
X5349548Y18870619D01*
X5387288Y18746209D01*
X5448573Y18631552D01*
X5531050Y18531054D01*
X5631548Y18448577D01*
X5746205Y18387292D01*
X5790737Y18373783D01*
X7411073Y17781608D01*
X8962423Y17052406D01*
X10442804Y16188189D01*
X11840502Y15195792D01*
X13144438Y14083087D01*
X14344311Y12858862D01*
X15430597Y11532835D01*
X16394715Y10115479D01*
X17229021Y8618030D01*
X17926904Y7052354D01*
X18482848Y5430834D01*
X18892446Y3766309D01*
X19152454Y2071982D01*
X19260818Y361228D01*
X19216677Y-1352378D01*
X19020381Y-3055273D01*
X18673484Y-4733982D01*
X18178733Y-6375206D01*
X17540044Y-7965957D01*
X16762475Y-9493631D01*
X15852184Y-10946134D01*
X14816380Y-12311965D01*
X13663254Y-13580321D01*
X12401957Y-14741136D01*
X11042452Y-15785241D01*
X9595515Y-16704361D01*
X8072609Y-17491214D01*
X6485782Y-18139576D01*
X4847595Y-18644313D01*
X3171033Y-19001425D01*
X1469356Y-19208087D01*
X-243937Y-19262661D01*
X-1955320Y-19164715D01*
X-3651213Y-18915027D01*
X-5318194Y-18515572D01*
X-6943063Y-17969515D01*
X-8512971Y-17281173D01*
X-10015468Y-16456002D01*
X-11438660Y-15500537D01*
X-12771287Y-14422338D01*
X-14002787Y-13229949D01*
X-15123419Y-11932803D01*
X-16124306Y-10541174D01*
X-16997520Y-9066087D01*
X-17736150Y-7519214D01*
X-18334348Y-5912804D01*
X-18787381Y-4259567D01*
X-19091653Y-2572622D01*
X-19244762Y-865298D01*
X-19245416Y670603D01*
X-10658925Y670603D01*
X-10658925Y-670603D01*
X-10490828Y-2001232D01*
X-10157284Y-3300301D01*
X-9663553Y-4547323D01*
X-9017422Y-5722630D01*
X-8229081Y-6807688D01*
X-7310963Y-7785385D01*
X-6277546Y-8640301D01*
X-5145129Y-9358955D01*
X-3931570Y-9930013D01*
X-2656008Y-10344468D01*
X-1338559Y-10595785D01*
X0Y-10680000D01*
X1338559Y-10595785D01*
X2656008Y-10344468D01*
X3931570Y-9930013D01*
X5145129Y-9358955D01*
X6277546Y-8640301D01*
X7310963Y-7785385D01*
X8229081Y-6807688D01*
X9017422Y-5722630D01*
X9663553Y-4547323D01*
X10157284Y-3300301D01*
X10490828Y-2001232D01*
X10658925Y-670603D01*
X10658925Y670603D01*
X10490828Y2001232D01*
X10157284Y3300301D01*
X9663553Y4547323D01*
X9017422Y5722630D01*
X8229081Y6807688D01*
X7310963Y7785385D01*
X6277546Y8640301D01*
X5145129Y9358955D01*
X3931570Y9930013D01*
X2656008Y10344468D01*
X1338559Y10595785D01*
X0Y10680000D01*
X-1338559Y10595785D01*
X-2656008Y10344468D01*
X-3931570Y9930013D01*
X-5145129Y9358955D01*
X-6277546Y8640301D01*
X-7310963Y7785385D01*
X-8229081Y6807688D01*
X-9017422Y5722630D01*
X-9663553Y4547323D01*
X-10157284Y3300301D01*
X-10490828Y2001232D01*
X-10658925Y670603D01*
X-19245416Y670603D01*
X-19245492Y848880D01*
X-19093841Y2556331D01*
X-18791005Y4243548D01*
X-18339388Y5897157D01*
X-17742557Y7504084D01*
X-17005244Y9051588D01*
X-16133286Y10527425D01*
X-15133592Y11919899D01*
X-14014069Y13217998D01*
X-12783581Y14411442D01*
X-11451878Y15490775D01*
X-10029504Y16447451D01*
X-8527704Y17273907D01*
X-6954566Y17965266D01*
X-5794749Y18372565D01*
X-5746208Y18387290D01*
X-5631551Y18448575D01*
X-5531052Y18531052D01*
X-5448575Y18631550D01*
X-5387290Y18746207D01*
X-5349550Y18870617D01*
X-5340000Y18967581D01*
X-5340000Y20740000D01*
X-3108072Y20740000D01*
X-3095812Y20615518D01*
X-3059502Y20495820D01*
X-3000537Y20385506D01*
X-2921185Y20288815D01*
X-2824494Y20209463D01*
X-2714180Y20150498D01*
X-2594482Y20114188D01*
X-2470000Y20101928D01*
X-2255750Y20105000D01*
X-2097000Y20263750D01*
X-2097000Y23363000D01*
X-2946250Y23363000D01*
X-3105000Y23204250D01*
X-3108072Y20740000D01*
X-5340000Y20740000D01*
X-5340000Y23712369D01*
X-5259850Y23669528D01*
X-5093254Y23618992D01*
X-4920000Y23601928D01*
X-3820000Y23601928D01*
X-3646746Y23618992D01*
X-3480150Y23669528D01*
X-3326614Y23751595D01*
X-3192038Y23862038D01*
X-3105239Y23967803D01*
X-3105000Y23775750D01*
X-2946250Y23617000D01*
X-2097000Y23617000D01*
X-2097000Y26716250D01*
X-2255750Y26875000D01*
X-2470000Y26878072D01*
X-2594482Y26865812D01*
X-2714180Y26829502D01*
X-2824494Y26770537D01*
X-2921185Y26691185D01*
X-2931928Y26678095D01*
X-2931928Y26990000D01*
X-2948992Y27163254D01*
X-2999528Y27329850D01*
X-3081595Y27483386D01*
X-3192038Y27617962D01*
X-3326614Y27728405D01*
X-3480150Y27810472D01*
X-3646746Y27861008D01*
X-3820000Y27878072D01*
X-4920000Y27878072D01*
X-5093254Y27861008D01*
X-5259850Y27810472D01*
X-5340000Y27767631D01*
X-5340000Y28340000D01*
X-399366Y28340000D01*
X-430256Y28327205D01*
G04 #@! TA.AperFunction,Conductor*
D13*
G36*
X-430256Y28327205D02*
G01*
X-599774Y28213937D01*
X-743937Y28069774D01*
X-857205Y27900256D01*
X-935226Y27711898D01*
X-975000Y27511939D01*
X-975000Y27308061D01*
X-935226Y27108102D01*
X-857205Y26919744D01*
X-743937Y26750226D01*
X-718181Y26724470D01*
X-847962Y26617962D01*
X-910969Y26541187D01*
X-939463Y26594494D01*
X-1018815Y26691185D01*
X-1115506Y26770537D01*
X-1225820Y26829502D01*
X-1345518Y26865812D01*
X-1470000Y26878072D01*
X-1684250Y26875000D01*
X-1843000Y26716250D01*
X-1843000Y23617000D01*
X-1823000Y23617000D01*
X-1823000Y23363000D01*
X-1843000Y23363000D01*
X-1843000Y20263750D01*
X-1684250Y20105000D01*
X-1470000Y20101928D01*
X-1345518Y20114188D01*
X-1225820Y20150498D01*
X-1115506Y20209463D01*
X-1018815Y20288815D01*
X-939463Y20385506D01*
X-910969Y20438813D01*
X-847962Y20362038D01*
X-713386Y20251595D01*
X-559850Y20169528D01*
X-393254Y20118992D01*
X-220000Y20101928D01*
X280000Y20101928D01*
X453254Y20118992D01*
X619850Y20169528D01*
X773386Y20251595D01*
X907962Y20362038D01*
X1018405Y20496614D01*
X1030000Y20518307D01*
X1041595Y20496614D01*
X1152038Y20362038D01*
X1286614Y20251595D01*
X1440150Y20169528D01*
X1606746Y20118992D01*
X1780000Y20101928D01*
X2280000Y20101928D01*
X2453254Y20118992D01*
X2619850Y20169528D01*
X2773386Y20251595D01*
X2907962Y20362038D01*
X3018405Y20496614D01*
X3100472Y20650150D01*
X3151008Y20816746D01*
X3168072Y20990000D01*
X3168072Y23964351D01*
X3252038Y23862038D01*
X3386614Y23751595D01*
X3540150Y23669528D01*
X3706746Y23618992D01*
X3880000Y23601928D01*
X4980000Y23601928D01*
X5153254Y23618992D01*
X5319850Y23669528D01*
X5339999Y23680298D01*
X5339998Y18967583D01*
X5349548Y18870619D01*
X5387288Y18746209D01*
X5448573Y18631552D01*
X5531050Y18531054D01*
X5631548Y18448577D01*
X5746205Y18387292D01*
X5790737Y18373783D01*
X7411073Y17781608D01*
X8962423Y17052406D01*
X10442804Y16188189D01*
X11840502Y15195792D01*
X13144438Y14083087D01*
X14344311Y12858862D01*
X15430597Y11532835D01*
X16394715Y10115479D01*
X17229021Y8618030D01*
X17926904Y7052354D01*
X18482848Y5430834D01*
X18892446Y3766309D01*
X19152454Y2071982D01*
X19260818Y361228D01*
X19216677Y-1352378D01*
X19020381Y-3055273D01*
X18673484Y-4733982D01*
X18178733Y-6375206D01*
X17540044Y-7965957D01*
X16762475Y-9493631D01*
X15852184Y-10946134D01*
X14816380Y-12311965D01*
X13663254Y-13580321D01*
X12401957Y-14741136D01*
X11042452Y-15785241D01*
X9595515Y-16704361D01*
X8072609Y-17491214D01*
X6485782Y-18139576D01*
X4847595Y-18644313D01*
X3171033Y-19001425D01*
X1469356Y-19208087D01*
X-243937Y-19262661D01*
X-1955320Y-19164715D01*
X-3651213Y-18915027D01*
X-5318194Y-18515572D01*
X-6943063Y-17969515D01*
X-8512971Y-17281173D01*
X-10015468Y-16456002D01*
X-11438660Y-15500537D01*
X-12771287Y-14422338D01*
X-14002787Y-13229949D01*
X-15123419Y-11932803D01*
X-16124306Y-10541174D01*
X-16997520Y-9066087D01*
X-17736150Y-7519214D01*
X-18334348Y-5912804D01*
X-18787381Y-4259567D01*
X-19091653Y-2572622D01*
X-19244762Y-865298D01*
X-19245416Y670603D01*
X-10658925Y670603D01*
X-10658925Y-670603D01*
X-10490828Y-2001232D01*
X-10157284Y-3300301D01*
X-9663553Y-4547323D01*
X-9017422Y-5722630D01*
X-8229081Y-6807688D01*
X-7310963Y-7785385D01*
X-6277546Y-8640301D01*
X-5145129Y-9358955D01*
X-3931570Y-9930013D01*
X-2656008Y-10344468D01*
X-1338559Y-10595785D01*
X0Y-10680000D01*
X1338559Y-10595785D01*
X2656008Y-10344468D01*
X3931570Y-9930013D01*
X5145129Y-9358955D01*
X6277546Y-8640301D01*
X7310963Y-7785385D01*
X8229081Y-6807688D01*
X9017422Y-5722630D01*
X9663553Y-4547323D01*
X10157284Y-3300301D01*
X10490828Y-2001232D01*
X10658925Y-670603D01*
X10658925Y670603D01*
X10490828Y2001232D01*
X10157284Y3300301D01*
X9663553Y4547323D01*
X9017422Y5722630D01*
X8229081Y6807688D01*
X7310963Y7785385D01*
X6277546Y8640301D01*
X5145129Y9358955D01*
X3931570Y9930013D01*
X2656008Y10344468D01*
X1338559Y10595785D01*
X0Y10680000D01*
X-1338559Y10595785D01*
X-2656008Y10344468D01*
X-3931570Y9930013D01*
X-5145129Y9358955D01*
X-6277546Y8640301D01*
X-7310963Y7785385D01*
X-8229081Y6807688D01*
X-9017422Y5722630D01*
X-9663553Y4547323D01*
X-10157284Y3300301D01*
X-10490828Y2001232D01*
X-10658925Y670603D01*
X-19245416Y670603D01*
X-19245492Y848880D01*
X-19093841Y2556331D01*
X-18791005Y4243548D01*
X-18339388Y5897157D01*
X-17742557Y7504084D01*
X-17005244Y9051588D01*
X-16133286Y10527425D01*
X-15133592Y11919899D01*
X-14014069Y13217998D01*
X-12783581Y14411442D01*
X-11451878Y15490775D01*
X-10029504Y16447451D01*
X-8527704Y17273907D01*
X-6954566Y17965266D01*
X-5794749Y18372565D01*
X-5746208Y18387290D01*
X-5631551Y18448575D01*
X-5531052Y18531052D01*
X-5448575Y18631550D01*
X-5387290Y18746207D01*
X-5349550Y18870617D01*
X-5340000Y18967581D01*
X-5340000Y20740000D01*
X-3108072Y20740000D01*
X-3095812Y20615518D01*
X-3059502Y20495820D01*
X-3000537Y20385506D01*
X-2921185Y20288815D01*
X-2824494Y20209463D01*
X-2714180Y20150498D01*
X-2594482Y20114188D01*
X-2470000Y20101928D01*
X-2255750Y20105000D01*
X-2097000Y20263750D01*
X-2097000Y23363000D01*
X-2946250Y23363000D01*
X-3105000Y23204250D01*
X-3108072Y20740000D01*
X-5340000Y20740000D01*
X-5340000Y23712369D01*
X-5259850Y23669528D01*
X-5093254Y23618992D01*
X-4920000Y23601928D01*
X-3820000Y23601928D01*
X-3646746Y23618992D01*
X-3480150Y23669528D01*
X-3326614Y23751595D01*
X-3192038Y23862038D01*
X-3105239Y23967803D01*
X-3105000Y23775750D01*
X-2946250Y23617000D01*
X-2097000Y23617000D01*
X-2097000Y26716250D01*
X-2255750Y26875000D01*
X-2470000Y26878072D01*
X-2594482Y26865812D01*
X-2714180Y26829502D01*
X-2824494Y26770537D01*
X-2921185Y26691185D01*
X-2931928Y26678095D01*
X-2931928Y26990000D01*
X-2948992Y27163254D01*
X-2999528Y27329850D01*
X-3081595Y27483386D01*
X-3192038Y27617962D01*
X-3326614Y27728405D01*
X-3480150Y27810472D01*
X-3646746Y27861008D01*
X-3820000Y27878072D01*
X-4920000Y27878072D01*
X-5093254Y27861008D01*
X-5259850Y27810472D01*
X-5340000Y27767631D01*
X-5340000Y28340000D01*
X-399366Y28340000D01*
X-430256Y28327205D01*
G37*
G04 #@! TD.AperFunction*
M02*
