G04 #@! TF.GenerationSoftware,KiCad,Pcbnew,5.1.9+dfsg1-1~bpo10+1*
G04 #@! TF.CreationDate,2021-09-14T11:02:12+00:00*
G04 #@! TF.ProjectId,ringLight,72696e67-4c69-4676-9874-2e6b69636164,rev?*
G04 #@! TF.SameCoordinates,Original*
G04 #@! TF.FileFunction,Legend,Top*
G04 #@! TF.FilePolarity,Positive*
%FSLAX46Y46*%
G04 Gerber Fmt 4.6, Leading zero omitted, Abs format (unit mm)*
G04 Created by KiCad (PCBNEW 5.1.9+dfsg1-1~bpo10+1) date 2021-09-14 11:02:12*
%MOMM*%
%LPD*%
G01*
G04 APERTURE LIST*
%ADD10C,0.120000*%
%ADD11C,0.150000*%
G04 APERTURE END LIST*
D10*
X154080000Y-94440000D02*
X154080000Y-93290000D01*
X146780000Y-94440000D02*
X154080000Y-94440000D01*
X146780000Y-88940000D02*
X154080000Y-88940000D01*
X134904517Y-96326396D02*
X140066396Y-91164517D01*
X138793604Y-100215483D02*
X143955483Y-95053604D01*
X143955483Y-95053604D02*
X143142311Y-94240431D01*
X138180000Y-103040000D02*
X137030000Y-103040000D01*
X138180000Y-110340000D02*
X138180000Y-103040000D01*
X132680000Y-110340000D02*
X132680000Y-103040000D01*
X140066396Y-122215483D02*
X134904517Y-117053604D01*
X143955483Y-118326396D02*
X138793604Y-113164517D01*
X138793604Y-113164517D02*
X137980431Y-113977689D01*
X146780000Y-118940000D02*
X146780000Y-120090000D01*
X154080000Y-118940000D02*
X146780000Y-118940000D01*
X154080000Y-124440000D02*
X146780000Y-124440000D01*
X165955483Y-117053604D02*
X160793604Y-122215483D01*
X162066396Y-113164517D02*
X156904517Y-118326396D01*
X156904517Y-118326396D02*
X157717689Y-119139569D01*
X162680000Y-110340000D02*
X163830000Y-110340000D01*
X162680000Y-103040000D02*
X162680000Y-110340000D01*
X168180000Y-103040000D02*
X168180000Y-110340000D01*
X160793604Y-91164517D02*
X165955483Y-96326396D01*
X156904517Y-95053604D02*
X162066396Y-100215483D01*
X162066396Y-100215483D02*
X162879569Y-99402311D01*
X150268748Y-87525000D02*
X150791252Y-87525000D01*
X150268748Y-86055000D02*
X150791252Y-86055000D01*
D11*
X149691904Y-92142380D02*
X149691904Y-91142380D01*
X149930000Y-91142380D01*
X150072857Y-91190000D01*
X150168095Y-91285238D01*
X150215714Y-91380476D01*
X150263333Y-91570952D01*
X150263333Y-91713809D01*
X150215714Y-91904285D01*
X150168095Y-91999523D01*
X150072857Y-92094761D01*
X149930000Y-92142380D01*
X149691904Y-92142380D01*
X151215714Y-92142380D02*
X150644285Y-92142380D01*
X150930000Y-92142380D02*
X150930000Y-91142380D01*
X150834761Y-91285238D01*
X150739523Y-91380476D01*
X150644285Y-91428095D01*
X139227969Y-96531793D02*
X138520862Y-95824687D01*
X138689221Y-95656328D01*
X138823908Y-95588984D01*
X138958595Y-95588984D01*
X139059610Y-95622656D01*
X139227969Y-95723671D01*
X139328984Y-95824687D01*
X139430000Y-95993045D01*
X139463671Y-96094061D01*
X139463671Y-96228748D01*
X139396328Y-96363435D01*
X139227969Y-96531793D01*
X139261641Y-95218595D02*
X139261641Y-95151251D01*
X139295312Y-95050236D01*
X139463671Y-94881877D01*
X139564687Y-94848206D01*
X139632030Y-94848206D01*
X139733045Y-94881877D01*
X139800389Y-94949221D01*
X139867732Y-95083908D01*
X139867732Y-95892030D01*
X140305465Y-95454297D01*
X135882380Y-107428095D02*
X134882380Y-107428095D01*
X134882380Y-107190000D01*
X134930000Y-107047142D01*
X135025238Y-106951904D01*
X135120476Y-106904285D01*
X135310952Y-106856666D01*
X135453809Y-106856666D01*
X135644285Y-106904285D01*
X135739523Y-106951904D01*
X135834761Y-107047142D01*
X135882380Y-107190000D01*
X135882380Y-107428095D01*
X134882380Y-106523333D02*
X134882380Y-105904285D01*
X135263333Y-106237619D01*
X135263333Y-106094761D01*
X135310952Y-105999523D01*
X135358571Y-105951904D01*
X135453809Y-105904285D01*
X135691904Y-105904285D01*
X135787142Y-105951904D01*
X135834761Y-105999523D01*
X135882380Y-106094761D01*
X135882380Y-106380476D01*
X135834761Y-106475714D01*
X135787142Y-106523333D01*
X138588206Y-117487969D02*
X139295312Y-116780862D01*
X139463671Y-116949221D01*
X139531015Y-117083908D01*
X139531015Y-117218595D01*
X139497343Y-117319610D01*
X139396328Y-117487969D01*
X139295312Y-117588984D01*
X139126954Y-117690000D01*
X139025938Y-117723671D01*
X138891251Y-117723671D01*
X138756564Y-117656328D01*
X138588206Y-117487969D01*
X140069763Y-118026717D02*
X139598358Y-118498122D01*
X140170778Y-117588984D02*
X139497343Y-117925702D01*
X139935076Y-118363435D01*
X149691904Y-122142380D02*
X149691904Y-121142380D01*
X149930000Y-121142380D01*
X150072857Y-121190000D01*
X150168095Y-121285238D01*
X150215714Y-121380476D01*
X150263333Y-121570952D01*
X150263333Y-121713809D01*
X150215714Y-121904285D01*
X150168095Y-121999523D01*
X150072857Y-122094761D01*
X149930000Y-122142380D01*
X149691904Y-122142380D01*
X151168095Y-121142380D02*
X150691904Y-121142380D01*
X150644285Y-121618571D01*
X150691904Y-121570952D01*
X150787142Y-121523333D01*
X151025238Y-121523333D01*
X151120476Y-121570952D01*
X151168095Y-121618571D01*
X151215714Y-121713809D01*
X151215714Y-121951904D01*
X151168095Y-122047142D01*
X151120476Y-122094761D01*
X151025238Y-122142380D01*
X150787142Y-122142380D01*
X150691904Y-122094761D01*
X150644285Y-122047142D01*
X161227969Y-118531793D02*
X160520862Y-117824687D01*
X160689221Y-117656328D01*
X160823908Y-117588984D01*
X160958595Y-117588984D01*
X161059610Y-117622656D01*
X161227969Y-117723671D01*
X161328984Y-117824687D01*
X161430000Y-117993045D01*
X161463671Y-118094061D01*
X161463671Y-118228748D01*
X161396328Y-118363435D01*
X161227969Y-118531793D01*
X161531015Y-116814534D02*
X161396328Y-116949221D01*
X161362656Y-117050236D01*
X161362656Y-117117580D01*
X161396328Y-117285938D01*
X161497343Y-117454297D01*
X161766717Y-117723671D01*
X161867732Y-117757343D01*
X161935076Y-117757343D01*
X162036091Y-117723671D01*
X162170778Y-117588984D01*
X162204450Y-117487969D01*
X162204450Y-117420625D01*
X162170778Y-117319610D01*
X162002419Y-117151251D01*
X161901404Y-117117580D01*
X161834061Y-117117580D01*
X161733045Y-117151251D01*
X161598358Y-117285938D01*
X161564687Y-117386954D01*
X161564687Y-117454297D01*
X161598358Y-117555312D01*
X165882380Y-107428095D02*
X164882380Y-107428095D01*
X164882380Y-107190000D01*
X164930000Y-107047142D01*
X165025238Y-106951904D01*
X165120476Y-106904285D01*
X165310952Y-106856666D01*
X165453809Y-106856666D01*
X165644285Y-106904285D01*
X165739523Y-106951904D01*
X165834761Y-107047142D01*
X165882380Y-107190000D01*
X165882380Y-107428095D01*
X164882380Y-106523333D02*
X164882380Y-105856666D01*
X165882380Y-106285238D01*
X160588206Y-95487969D02*
X161295312Y-94780862D01*
X161463671Y-94949221D01*
X161531015Y-95083908D01*
X161531015Y-95218595D01*
X161497343Y-95319610D01*
X161396328Y-95487969D01*
X161295312Y-95588984D01*
X161126954Y-95690000D01*
X161025938Y-95723671D01*
X160891251Y-95723671D01*
X160756564Y-95656328D01*
X160588206Y-95487969D01*
X161800389Y-95892030D02*
X161766717Y-95791015D01*
X161766717Y-95723671D01*
X161800389Y-95622656D01*
X161834061Y-95588984D01*
X161935076Y-95555312D01*
X162002419Y-95555312D01*
X162103435Y-95588984D01*
X162238122Y-95723671D01*
X162271793Y-95824687D01*
X162271793Y-95892030D01*
X162238122Y-95993045D01*
X162204450Y-96026717D01*
X162103435Y-96060389D01*
X162036091Y-96060389D01*
X161935076Y-96026717D01*
X161800389Y-95892030D01*
X161699374Y-95858358D01*
X161632030Y-95858358D01*
X161531015Y-95892030D01*
X161396328Y-96026717D01*
X161362656Y-96127732D01*
X161362656Y-96195076D01*
X161396328Y-96296091D01*
X161531015Y-96430778D01*
X161632030Y-96464450D01*
X161699374Y-96464450D01*
X161800389Y-96430778D01*
X161935076Y-96296091D01*
X161968748Y-96195076D01*
X161968748Y-96127732D01*
X161935076Y-96026717D01*
X164258571Y-98818571D02*
X163925238Y-98818571D01*
X163925238Y-99342380D02*
X163925238Y-98342380D01*
X164401428Y-98342380D01*
X164782380Y-99342380D02*
X164782380Y-98342380D01*
X165258571Y-99342380D02*
X165258571Y-98342380D01*
X165496666Y-98342380D01*
X165639523Y-98390000D01*
X165734761Y-98485238D01*
X165782380Y-98580476D01*
X165830000Y-98770952D01*
X165830000Y-98913809D01*
X165782380Y-99104285D01*
X165734761Y-99199523D01*
X165639523Y-99294761D01*
X165496666Y-99342380D01*
X165258571Y-99342380D01*
X166782380Y-99342380D02*
X166210952Y-99342380D01*
X166496666Y-99342380D02*
X166496666Y-98342380D01*
X166401428Y-98485238D01*
X166306190Y-98580476D01*
X166210952Y-98628095D01*
X134558571Y-110718571D02*
X134225238Y-110718571D01*
X134225238Y-111242380D02*
X134225238Y-110242380D01*
X134701428Y-110242380D01*
X135082380Y-111242380D02*
X135082380Y-110242380D01*
X135558571Y-111242380D02*
X135558571Y-110242380D01*
X135796666Y-110242380D01*
X135939523Y-110290000D01*
X136034761Y-110385238D01*
X136082380Y-110480476D01*
X136130000Y-110670952D01*
X136130000Y-110813809D01*
X136082380Y-111004285D01*
X136034761Y-111099523D01*
X135939523Y-111194761D01*
X135796666Y-111242380D01*
X135558571Y-111242380D01*
X136510952Y-110337619D02*
X136558571Y-110290000D01*
X136653809Y-110242380D01*
X136891904Y-110242380D01*
X136987142Y-110290000D01*
X137034761Y-110337619D01*
X137082380Y-110432857D01*
X137082380Y-110528095D01*
X137034761Y-110670952D01*
X136463333Y-111242380D01*
X137082380Y-111242380D01*
X155158571Y-119518571D02*
X154825238Y-119518571D01*
X154825238Y-120042380D02*
X154825238Y-119042380D01*
X155301428Y-119042380D01*
X155682380Y-120042380D02*
X155682380Y-119042380D01*
X156158571Y-120042380D02*
X156158571Y-119042380D01*
X156396666Y-119042380D01*
X156539523Y-119090000D01*
X156634761Y-119185238D01*
X156682380Y-119280476D01*
X156730000Y-119470952D01*
X156730000Y-119613809D01*
X156682380Y-119804285D01*
X156634761Y-119899523D01*
X156539523Y-119994761D01*
X156396666Y-120042380D01*
X156158571Y-120042380D01*
X157063333Y-119042380D02*
X157682380Y-119042380D01*
X157349047Y-119423333D01*
X157491904Y-119423333D01*
X157587142Y-119470952D01*
X157634761Y-119518571D01*
X157682380Y-119613809D01*
X157682380Y-119851904D01*
X157634761Y-119947142D01*
X157587142Y-119994761D01*
X157491904Y-120042380D01*
X157206190Y-120042380D01*
X157110952Y-119994761D01*
X157063333Y-119947142D01*
X147363333Y-87197142D02*
X147315714Y-87244761D01*
X147172857Y-87292380D01*
X147077619Y-87292380D01*
X146934761Y-87244761D01*
X146839523Y-87149523D01*
X146791904Y-87054285D01*
X146744285Y-86863809D01*
X146744285Y-86720952D01*
X146791904Y-86530476D01*
X146839523Y-86435238D01*
X146934761Y-86340000D01*
X147077619Y-86292380D01*
X147172857Y-86292380D01*
X147315714Y-86340000D01*
X147363333Y-86387619D01*
X148315714Y-87292380D02*
X147744285Y-87292380D01*
X148030000Y-87292380D02*
X148030000Y-86292380D01*
X147934761Y-86435238D01*
X147839523Y-86530476D01*
X147744285Y-86578095D01*
M02*
