G04 #@! TF.GenerationSoftware,KiCad,Pcbnew,5.1.9+dfsg1-1~bpo10+1*
G04 #@! TF.CreationDate,2021-09-14T11:02:12+00:00*
G04 #@! TF.ProjectId,ringLight,72696e67-4c69-4676-9874-2e6b69636164,rev?*
G04 #@! TF.SameCoordinates,Original*
G04 #@! TF.FileFunction,Copper,L1,Top*
G04 #@! TF.FilePolarity,Positive*
%FSLAX46Y46*%
G04 Gerber Fmt 4.6, Leading zero omitted, Abs format (unit mm)*
G04 Created by KiCad (PCBNEW 5.1.9+dfsg1-1~bpo10+1) date 2021-09-14 11:02:12*
%MOMM*%
%LPD*%
G01*
G04 APERTURE LIST*
G04 #@! TA.AperFunction,SMDPad,CuDef*
%ADD10R,1.500000X1.000000*%
G04 #@! TD*
G04 #@! TA.AperFunction,SMDPad,CuDef*
%ADD11C,0.100000*%
G04 #@! TD*
G04 #@! TA.AperFunction,SMDPad,CuDef*
%ADD12R,1.000000X1.500000*%
G04 #@! TD*
G04 #@! TA.AperFunction,ComponentPad*
%ADD13O,1.700000X1.950000*%
G04 #@! TD*
G04 #@! TA.AperFunction,SMDPad,CuDef*
%ADD14C,1.000000*%
G04 #@! TD*
G04 #@! TA.AperFunction,ViaPad*
%ADD15C,0.800000*%
G04 #@! TD*
G04 #@! TA.AperFunction,Conductor*
%ADD16C,0.500000*%
G04 #@! TD*
G04 #@! TA.AperFunction,Conductor*
%ADD17C,0.254000*%
G04 #@! TD*
G04 #@! TA.AperFunction,Conductor*
%ADD18C,0.100000*%
G04 #@! TD*
G04 APERTURE END LIST*
D10*
X152880000Y-93290000D03*
X152880000Y-90090000D03*
X147980000Y-93290000D03*
X147980000Y-90090000D03*
G04 #@! TA.AperFunction,SMDPad,CuDef*
D11*
G36*
X136389441Y-97174924D02*
G01*
X135682335Y-96467818D01*
X136742995Y-95407158D01*
X137450101Y-96114264D01*
X136389441Y-97174924D01*
G37*
G04 #@! TD.AperFunction*
G04 #@! TA.AperFunction,SMDPad,CuDef*
G36*
X138652182Y-99437665D02*
G01*
X137945076Y-98730559D01*
X139005736Y-97669899D01*
X139712842Y-98377005D01*
X138652182Y-99437665D01*
G37*
G04 #@! TD.AperFunction*
G04 #@! TA.AperFunction,SMDPad,CuDef*
G36*
X139854264Y-93710101D02*
G01*
X139147158Y-93002995D01*
X140207818Y-91942335D01*
X140914924Y-92649441D01*
X139854264Y-93710101D01*
G37*
G04 #@! TD.AperFunction*
G04 #@! TA.AperFunction,SMDPad,CuDef*
G36*
X142117005Y-95972842D02*
G01*
X141409899Y-95265736D01*
X142470559Y-94205076D01*
X143177665Y-94912182D01*
X142117005Y-95972842D01*
G37*
G04 #@! TD.AperFunction*
D12*
X137030000Y-104240000D03*
X133830000Y-104240000D03*
X137030000Y-109140000D03*
X133830000Y-109140000D03*
G04 #@! TA.AperFunction,SMDPad,CuDef*
D11*
G36*
X140914924Y-120730559D02*
G01*
X140207818Y-121437665D01*
X139147158Y-120377005D01*
X139854264Y-119669899D01*
X140914924Y-120730559D01*
G37*
G04 #@! TD.AperFunction*
G04 #@! TA.AperFunction,SMDPad,CuDef*
G36*
X143177665Y-118467818D02*
G01*
X142470559Y-119174924D01*
X141409899Y-118114264D01*
X142117005Y-117407158D01*
X143177665Y-118467818D01*
G37*
G04 #@! TD.AperFunction*
G04 #@! TA.AperFunction,SMDPad,CuDef*
G36*
X137450101Y-117265736D02*
G01*
X136742995Y-117972842D01*
X135682335Y-116912182D01*
X136389441Y-116205076D01*
X137450101Y-117265736D01*
G37*
G04 #@! TD.AperFunction*
G04 #@! TA.AperFunction,SMDPad,CuDef*
G36*
X139712842Y-115002995D02*
G01*
X139005736Y-115710101D01*
X137945076Y-114649441D01*
X138652182Y-113942335D01*
X139712842Y-115002995D01*
G37*
G04 #@! TD.AperFunction*
D10*
X147980000Y-120090000D03*
X147980000Y-123290000D03*
X152880000Y-120090000D03*
X152880000Y-123290000D03*
G04 #@! TA.AperFunction,SMDPad,CuDef*
D11*
G36*
X164470559Y-116205076D02*
G01*
X165177665Y-116912182D01*
X164117005Y-117972842D01*
X163409899Y-117265736D01*
X164470559Y-116205076D01*
G37*
G04 #@! TD.AperFunction*
G04 #@! TA.AperFunction,SMDPad,CuDef*
G36*
X162207818Y-113942335D02*
G01*
X162914924Y-114649441D01*
X161854264Y-115710101D01*
X161147158Y-115002995D01*
X162207818Y-113942335D01*
G37*
G04 #@! TD.AperFunction*
G04 #@! TA.AperFunction,SMDPad,CuDef*
G36*
X161005736Y-119669899D02*
G01*
X161712842Y-120377005D01*
X160652182Y-121437665D01*
X159945076Y-120730559D01*
X161005736Y-119669899D01*
G37*
G04 #@! TD.AperFunction*
G04 #@! TA.AperFunction,SMDPad,CuDef*
G36*
X158742995Y-117407158D02*
G01*
X159450101Y-118114264D01*
X158389441Y-119174924D01*
X157682335Y-118467818D01*
X158742995Y-117407158D01*
G37*
G04 #@! TD.AperFunction*
D12*
X163830000Y-109140000D03*
X167030000Y-109140000D03*
X163830000Y-104240000D03*
X167030000Y-104240000D03*
G04 #@! TA.AperFunction,SMDPad,CuDef*
D11*
G36*
X159945076Y-92649441D02*
G01*
X160652182Y-91942335D01*
X161712842Y-93002995D01*
X161005736Y-93710101D01*
X159945076Y-92649441D01*
G37*
G04 #@! TD.AperFunction*
G04 #@! TA.AperFunction,SMDPad,CuDef*
G36*
X157682335Y-94912182D02*
G01*
X158389441Y-94205076D01*
X159450101Y-95265736D01*
X158742995Y-95972842D01*
X157682335Y-94912182D01*
G37*
G04 #@! TD.AperFunction*
G04 #@! TA.AperFunction,SMDPad,CuDef*
G36*
X163409899Y-96114264D02*
G01*
X164117005Y-95407158D01*
X165177665Y-96467818D01*
X164470559Y-97174924D01*
X163409899Y-96114264D01*
G37*
G04 #@! TD.AperFunction*
G04 #@! TA.AperFunction,SMDPad,CuDef*
G36*
X161147158Y-98377005D02*
G01*
X161854264Y-97669899D01*
X162914924Y-98730559D01*
X162207818Y-99437665D01*
X161147158Y-98377005D01*
G37*
G04 #@! TD.AperFunction*
D13*
X147930000Y-81090000D03*
X150430000Y-81090000D03*
G04 #@! TA.AperFunction,ComponentPad*
G36*
G01*
X153780000Y-80365000D02*
X153780000Y-81815000D01*
G75*
G02*
X153530000Y-82065000I-250000J0D01*
G01*
X152330000Y-82065000D01*
G75*
G02*
X152080000Y-81815000I0J250000D01*
G01*
X152080000Y-80365000D01*
G75*
G02*
X152330000Y-80115000I250000J0D01*
G01*
X153530000Y-80115000D01*
G75*
G02*
X153780000Y-80365000I0J-250000D01*
G01*
G37*
G04 #@! TD.AperFunction*
D14*
X165330000Y-100890000D03*
X135630000Y-112790000D03*
X156230000Y-121590000D03*
G04 #@! TA.AperFunction,SMDPad,CuDef*
G36*
G01*
X149080000Y-87265000D02*
X149080000Y-86315000D01*
G75*
G02*
X149330000Y-86065000I250000J0D01*
G01*
X149830000Y-86065000D01*
G75*
G02*
X150080000Y-86315000I0J-250000D01*
G01*
X150080000Y-87265000D01*
G75*
G02*
X149830000Y-87515000I-250000J0D01*
G01*
X149330000Y-87515000D01*
G75*
G02*
X149080000Y-87265000I0J250000D01*
G01*
G37*
G04 #@! TD.AperFunction*
G04 #@! TA.AperFunction,SMDPad,CuDef*
G36*
G01*
X150980000Y-87265000D02*
X150980000Y-86315000D01*
G75*
G02*
X151230000Y-86065000I250000J0D01*
G01*
X151730000Y-86065000D01*
G75*
G02*
X151980000Y-86315000I0J-250000D01*
G01*
X151980000Y-87265000D01*
G75*
G02*
X151730000Y-87515000I-250000J0D01*
G01*
X151230000Y-87515000D01*
G75*
G02*
X150980000Y-87265000I0J250000D01*
G01*
G37*
G04 #@! TD.AperFunction*
D15*
X146180000Y-87940000D03*
X138030000Y-101690000D03*
X156830000Y-90790000D03*
X145330000Y-118490000D03*
X161830000Y-101490000D03*
D16*
X140494823Y-93290000D02*
X140031041Y-92826218D01*
X147980000Y-93290000D02*
X140494823Y-93290000D01*
X133830000Y-103552741D02*
X133830000Y-104240000D01*
X138828959Y-98553782D02*
X133830000Y-103552741D01*
X137430000Y-116225177D02*
X136566218Y-117088959D01*
X137430000Y-109540000D02*
X137430000Y-116225177D01*
X137030000Y-109140000D02*
X137430000Y-109540000D01*
X147292741Y-123290000D02*
X147980000Y-123290000D01*
X142293782Y-118291041D02*
X147292741Y-123290000D01*
X160065177Y-119790000D02*
X160828959Y-120553782D01*
X153180000Y-119790000D02*
X160065177Y-119790000D01*
X152880000Y-120090000D02*
X153180000Y-119790000D01*
X167030000Y-109827259D02*
X167030000Y-109140000D01*
X162031041Y-114826218D02*
X167030000Y-109827259D01*
X163530000Y-97054823D02*
X164293782Y-96291041D01*
X163530000Y-103940000D02*
X163530000Y-97054823D01*
X163830000Y-104240000D02*
X163530000Y-103940000D01*
X152930000Y-90040000D02*
X152880000Y-90090000D01*
X152930000Y-81090000D02*
X152930000Y-81740000D01*
X152880000Y-81140000D02*
X152930000Y-81090000D01*
X152880000Y-90090000D02*
X152880000Y-81140000D01*
X147980000Y-90090000D02*
X140780000Y-90090000D01*
X136566218Y-94303782D02*
X136566218Y-96291041D01*
X140780000Y-90090000D02*
X136566218Y-94303782D01*
X136566218Y-96291041D02*
X132430000Y-100427259D01*
X132830000Y-109140000D02*
X133830000Y-109140000D01*
X132430000Y-108740000D02*
X132830000Y-109140000D01*
X132430000Y-100427259D02*
X132430000Y-108740000D01*
X140031041Y-120553782D02*
X144417259Y-124940000D01*
X152880000Y-124290000D02*
X152880000Y-123290000D01*
X152230000Y-124940000D02*
X152880000Y-124290000D01*
X144417259Y-124940000D02*
X152230000Y-124940000D01*
X152880000Y-123290000D02*
X160080000Y-123290000D01*
X164293782Y-119076218D02*
X164293782Y-117088959D01*
X160080000Y-123290000D02*
X164293782Y-119076218D01*
X164293782Y-117088959D02*
X168430000Y-112952741D01*
X168030000Y-104240000D02*
X167030000Y-104240000D01*
X168430000Y-104640000D02*
X168030000Y-104240000D01*
X168430000Y-112952741D02*
X168430000Y-104640000D01*
X167030000Y-104240000D02*
X167030000Y-97290000D01*
X162566218Y-92826218D02*
X160828959Y-92826218D01*
X167030000Y-97290000D02*
X162566218Y-92826218D01*
X138043782Y-120553782D02*
X140031041Y-120553782D01*
X133730000Y-116240000D02*
X138043782Y-120553782D01*
X133730000Y-109240000D02*
X133730000Y-116240000D01*
X133830000Y-109140000D02*
X133730000Y-109240000D01*
X147980000Y-88390000D02*
X147980000Y-90090000D01*
X149580000Y-86790000D02*
X147980000Y-88390000D01*
X149580000Y-84340000D02*
X149580000Y-86790000D01*
X150430000Y-83490000D02*
X149580000Y-84340000D01*
X150430000Y-81090000D02*
X150430000Y-83490000D01*
X150330000Y-81190000D02*
X150430000Y-81090000D01*
X150330000Y-81390000D02*
X150330000Y-81190000D01*
D17*
X155769998Y-87722417D02*
X155779548Y-87819381D01*
X155817288Y-87943791D01*
X155878573Y-88058448D01*
X155961050Y-88158946D01*
X156061548Y-88241423D01*
X156176205Y-88302708D01*
X156220737Y-88316217D01*
X157841073Y-88908392D01*
X159392423Y-89637594D01*
X160872804Y-90501811D01*
X162270502Y-91494208D01*
X162847748Y-91986797D01*
X162739708Y-91954023D01*
X162609695Y-91941218D01*
X162609687Y-91941218D01*
X162566218Y-91936937D01*
X162522749Y-91941218D01*
X161553435Y-91941218D01*
X161103367Y-91491150D01*
X161006676Y-91411798D01*
X160896362Y-91352833D01*
X160776664Y-91316523D01*
X160652182Y-91304263D01*
X160527700Y-91316523D01*
X160408002Y-91352833D01*
X160297688Y-91411798D01*
X160200997Y-91491150D01*
X159493891Y-92198256D01*
X159414539Y-92294947D01*
X159355574Y-92405261D01*
X159319264Y-92524959D01*
X159307004Y-92649441D01*
X159319264Y-92773923D01*
X159355574Y-92893621D01*
X159414539Y-93003935D01*
X159493891Y-93100626D01*
X160554551Y-94161286D01*
X160651242Y-94240638D01*
X160761556Y-94299603D01*
X160881254Y-94335913D01*
X161005736Y-94348173D01*
X161130218Y-94335913D01*
X161249916Y-94299603D01*
X161360230Y-94240638D01*
X161456921Y-94161286D01*
X161906989Y-93711218D01*
X162199640Y-93711218D01*
X163555107Y-95066686D01*
X162958714Y-95663079D01*
X162879362Y-95759770D01*
X162820397Y-95870084D01*
X162784087Y-95989782D01*
X162771827Y-96114264D01*
X162784087Y-96238746D01*
X162820397Y-96358444D01*
X162874130Y-96458971D01*
X162873471Y-96459774D01*
X162873468Y-96459777D01*
X162790590Y-96560764D01*
X162708412Y-96714510D01*
X162657805Y-96881333D01*
X162640719Y-97054823D01*
X162645001Y-97098302D01*
X162645001Y-97760214D01*
X162631551Y-97773664D01*
X162631551Y-97549160D01*
X162305449Y-97218713D01*
X162208758Y-97139361D01*
X162098444Y-97080396D01*
X161978746Y-97044087D01*
X161854264Y-97031827D01*
X161729783Y-97044087D01*
X161610085Y-97080396D01*
X161499770Y-97139361D01*
X161403079Y-97218713D01*
X161253754Y-97372383D01*
X161253754Y-97596890D01*
X162031041Y-98374177D01*
X162045183Y-98360034D01*
X162224789Y-98539640D01*
X162210646Y-98553782D01*
X162224789Y-98567925D01*
X162045184Y-98747530D01*
X162031041Y-98733387D01*
X161430531Y-99333898D01*
X161430531Y-99558404D01*
X161756633Y-99888851D01*
X161853324Y-99968203D01*
X161963638Y-100027168D01*
X162083336Y-100063477D01*
X162207818Y-100075737D01*
X162332299Y-100063477D01*
X162451997Y-100027168D01*
X162562312Y-99968203D01*
X162645001Y-99900342D01*
X162645000Y-103896531D01*
X162640719Y-103940000D01*
X162645000Y-103983469D01*
X162645000Y-103983476D01*
X162653178Y-104066509D01*
X162657805Y-104113490D01*
X162667649Y-104145941D01*
X162691928Y-104225976D01*
X162691928Y-104990000D01*
X162704188Y-105114482D01*
X162740498Y-105234180D01*
X162799463Y-105344494D01*
X162878815Y-105441185D01*
X162975506Y-105520537D01*
X163085820Y-105579502D01*
X163205518Y-105615812D01*
X163330000Y-105628072D01*
X164330000Y-105628072D01*
X164454482Y-105615812D01*
X164574180Y-105579502D01*
X164684494Y-105520537D01*
X164781185Y-105441185D01*
X164860537Y-105344494D01*
X164919502Y-105234180D01*
X164955812Y-105114482D01*
X164968072Y-104990000D01*
X164968072Y-103490000D01*
X164955812Y-103365518D01*
X164919502Y-103245820D01*
X164860537Y-103135506D01*
X164781185Y-103038815D01*
X164684494Y-102959463D01*
X164574180Y-102900498D01*
X164454482Y-102864188D01*
X164415000Y-102860299D01*
X164415000Y-101563551D01*
X164448388Y-101613520D01*
X164606480Y-101771612D01*
X164792376Y-101895824D01*
X164998933Y-101981383D01*
X165218212Y-102025000D01*
X165441788Y-102025000D01*
X165661067Y-101981383D01*
X165867624Y-101895824D01*
X166053520Y-101771612D01*
X166145000Y-101680132D01*
X166145000Y-102984498D01*
X166078815Y-103038815D01*
X165999463Y-103135506D01*
X165940498Y-103245820D01*
X165904188Y-103365518D01*
X165891928Y-103490000D01*
X165891928Y-104990000D01*
X165904188Y-105114482D01*
X165940498Y-105234180D01*
X165999463Y-105344494D01*
X166078815Y-105441185D01*
X166175506Y-105520537D01*
X166285820Y-105579502D01*
X166405518Y-105615812D01*
X166530000Y-105628072D01*
X167530000Y-105628072D01*
X167545001Y-105626595D01*
X167545001Y-107753405D01*
X167530000Y-107751928D01*
X166530000Y-107751928D01*
X166405518Y-107764188D01*
X166285820Y-107800498D01*
X166175506Y-107859463D01*
X166078815Y-107938815D01*
X165999463Y-108035506D01*
X165940498Y-108145820D01*
X165904188Y-108265518D01*
X165891928Y-108390000D01*
X165891928Y-109713752D01*
X162293026Y-113312655D01*
X162207818Y-113304263D01*
X162083336Y-113316523D01*
X161963638Y-113352833D01*
X161853324Y-113411798D01*
X161756633Y-113491150D01*
X160695973Y-114551810D01*
X160616621Y-114648501D01*
X160557656Y-114758815D01*
X160521346Y-114878513D01*
X160509086Y-115002995D01*
X160521346Y-115127477D01*
X160557656Y-115247175D01*
X160616621Y-115357489D01*
X160695973Y-115454180D01*
X161403079Y-116161286D01*
X161499770Y-116240638D01*
X161610084Y-116299603D01*
X161729782Y-116335913D01*
X161854264Y-116348173D01*
X161978746Y-116335913D01*
X162098444Y-116299603D01*
X162208758Y-116240638D01*
X162305449Y-116161286D01*
X163366109Y-115100626D01*
X163445461Y-115003935D01*
X163504426Y-114893621D01*
X163540736Y-114773923D01*
X163552996Y-114649441D01*
X163544604Y-114564233D01*
X167545000Y-110563838D01*
X167545000Y-112586162D01*
X164555767Y-115575396D01*
X164470559Y-115567004D01*
X164346077Y-115579264D01*
X164226379Y-115615574D01*
X164116065Y-115674539D01*
X164019374Y-115753891D01*
X162958714Y-116814551D01*
X162879362Y-116911242D01*
X162820397Y-117021556D01*
X162784087Y-117141254D01*
X162771827Y-117265736D01*
X162784087Y-117390218D01*
X162820397Y-117509916D01*
X162879362Y-117620230D01*
X162958714Y-117716921D01*
X163408782Y-118166989D01*
X163408782Y-118709639D01*
X162176907Y-119941514D01*
X162164027Y-119925820D01*
X161456921Y-119218714D01*
X161360230Y-119139362D01*
X161249916Y-119080397D01*
X161130218Y-119044087D01*
X161005736Y-119031827D01*
X160881254Y-119044087D01*
X160761556Y-119080397D01*
X160661030Y-119134130D01*
X160559236Y-119050589D01*
X160405490Y-118968411D01*
X160238667Y-118917805D01*
X160108654Y-118905000D01*
X160108646Y-118905000D01*
X160065177Y-118900719D01*
X160021708Y-118905000D01*
X159359785Y-118905000D01*
X159346336Y-118891551D01*
X159570840Y-118891551D01*
X159901287Y-118565449D01*
X159980639Y-118468758D01*
X160039604Y-118358444D01*
X160075913Y-118238746D01*
X160088173Y-118114264D01*
X160075913Y-117989783D01*
X160039604Y-117870085D01*
X159980639Y-117759770D01*
X159901287Y-117663079D01*
X159747617Y-117513754D01*
X159523110Y-117513754D01*
X158745823Y-118291041D01*
X158759966Y-118305183D01*
X158580360Y-118484789D01*
X158566218Y-118470646D01*
X158552076Y-118484789D01*
X158372471Y-118305184D01*
X158386613Y-118291041D01*
X157786102Y-117690531D01*
X157561596Y-117690531D01*
X157231149Y-118016633D01*
X157151797Y-118113324D01*
X157092832Y-118223638D01*
X157056523Y-118343336D01*
X157044263Y-118467818D01*
X157056523Y-118592299D01*
X157092832Y-118711997D01*
X157151797Y-118822312D01*
X157219657Y-118905000D01*
X153223466Y-118905000D01*
X153179999Y-118900719D01*
X153136533Y-118905000D01*
X153136523Y-118905000D01*
X153006510Y-118917805D01*
X152894023Y-118951928D01*
X152130000Y-118951928D01*
X152005518Y-118964188D01*
X151885820Y-119000498D01*
X151775506Y-119059463D01*
X151678815Y-119138815D01*
X151599463Y-119235506D01*
X151540498Y-119345820D01*
X151504188Y-119465518D01*
X151491928Y-119590000D01*
X151491928Y-120590000D01*
X151504188Y-120714482D01*
X151540498Y-120834180D01*
X151599463Y-120944494D01*
X151678815Y-121041185D01*
X151775506Y-121120537D01*
X151885820Y-121179502D01*
X152005518Y-121215812D01*
X152130000Y-121228072D01*
X153630000Y-121228072D01*
X153754482Y-121215812D01*
X153874180Y-121179502D01*
X153984494Y-121120537D01*
X154081185Y-121041185D01*
X154160537Y-120944494D01*
X154219502Y-120834180D01*
X154255812Y-120714482D01*
X154259701Y-120675000D01*
X155556449Y-120675000D01*
X155506480Y-120708388D01*
X155348388Y-120866480D01*
X155224176Y-121052376D01*
X155138617Y-121258933D01*
X155095000Y-121478212D01*
X155095000Y-121701788D01*
X155138617Y-121921067D01*
X155224176Y-122127624D01*
X155348388Y-122313520D01*
X155439868Y-122405000D01*
X154135501Y-122405000D01*
X154081185Y-122338815D01*
X153984494Y-122259463D01*
X153874180Y-122200498D01*
X153754482Y-122164188D01*
X153630000Y-122151928D01*
X152130000Y-122151928D01*
X152005518Y-122164188D01*
X151885820Y-122200498D01*
X151775506Y-122259463D01*
X151678815Y-122338815D01*
X151599463Y-122435506D01*
X151540498Y-122545820D01*
X151504188Y-122665518D01*
X151491928Y-122790000D01*
X151491928Y-123790000D01*
X151504188Y-123914482D01*
X151540498Y-124034180D01*
X151551627Y-124055000D01*
X149308373Y-124055000D01*
X149319502Y-124034180D01*
X149355812Y-123914482D01*
X149368072Y-123790000D01*
X149368072Y-122790000D01*
X149355812Y-122665518D01*
X149319502Y-122545820D01*
X149260537Y-122435506D01*
X149181185Y-122338815D01*
X149084494Y-122259463D01*
X148974180Y-122200498D01*
X148854482Y-122164188D01*
X148730000Y-122151928D01*
X147406248Y-122151928D01*
X145844320Y-120590000D01*
X146591928Y-120590000D01*
X146604188Y-120714482D01*
X146640498Y-120834180D01*
X146699463Y-120944494D01*
X146778815Y-121041185D01*
X146875506Y-121120537D01*
X146985820Y-121179502D01*
X147105518Y-121215812D01*
X147230000Y-121228072D01*
X147694250Y-121225000D01*
X147853000Y-121066250D01*
X147853000Y-120217000D01*
X148107000Y-120217000D01*
X148107000Y-121066250D01*
X148265750Y-121225000D01*
X148730000Y-121228072D01*
X148854482Y-121215812D01*
X148974180Y-121179502D01*
X149084494Y-121120537D01*
X149181185Y-121041185D01*
X149260537Y-120944494D01*
X149319502Y-120834180D01*
X149355812Y-120714482D01*
X149368072Y-120590000D01*
X149365000Y-120375750D01*
X149206250Y-120217000D01*
X148107000Y-120217000D01*
X147853000Y-120217000D01*
X146753750Y-120217000D01*
X146595000Y-120375750D01*
X146591928Y-120590000D01*
X145844320Y-120590000D01*
X144844320Y-119590000D01*
X146591928Y-119590000D01*
X146595000Y-119804250D01*
X146753750Y-119963000D01*
X147853000Y-119963000D01*
X147853000Y-119113750D01*
X148107000Y-119113750D01*
X148107000Y-119963000D01*
X149206250Y-119963000D01*
X149365000Y-119804250D01*
X149368072Y-119590000D01*
X149355812Y-119465518D01*
X149319502Y-119345820D01*
X149260537Y-119235506D01*
X149181185Y-119138815D01*
X149084494Y-119059463D01*
X148974180Y-119000498D01*
X148854482Y-118964188D01*
X148730000Y-118951928D01*
X148265750Y-118955000D01*
X148107000Y-119113750D01*
X147853000Y-119113750D01*
X147694250Y-118955000D01*
X147230000Y-118951928D01*
X147105518Y-118964188D01*
X146985820Y-119000498D01*
X146875506Y-119059463D01*
X146778815Y-119138815D01*
X146699463Y-119235506D01*
X146640498Y-119345820D01*
X146604188Y-119465518D01*
X146591928Y-119590000D01*
X144844320Y-119590000D01*
X143807345Y-118553026D01*
X143815737Y-118467818D01*
X143803477Y-118343336D01*
X143767167Y-118223638D01*
X143708202Y-118113324D01*
X143628850Y-118016633D01*
X142568190Y-116955973D01*
X142471499Y-116876621D01*
X142361185Y-116817656D01*
X142241487Y-116781346D01*
X142117005Y-116769086D01*
X141992523Y-116781346D01*
X141872825Y-116817656D01*
X141762511Y-116876621D01*
X141665820Y-116955973D01*
X140958714Y-117663079D01*
X140879362Y-117759770D01*
X140820397Y-117870084D01*
X140784087Y-117989782D01*
X140771827Y-118114264D01*
X140784087Y-118238746D01*
X140820397Y-118358444D01*
X140879362Y-118468758D01*
X140958714Y-118565449D01*
X142019374Y-119626109D01*
X142116065Y-119705461D01*
X142226379Y-119764426D01*
X142346077Y-119800736D01*
X142470559Y-119812996D01*
X142555767Y-119804604D01*
X146597474Y-123846312D01*
X146604188Y-123914482D01*
X146640498Y-124034180D01*
X146651627Y-124055000D01*
X144783838Y-124055000D01*
X141544604Y-120815767D01*
X141552996Y-120730559D01*
X141540736Y-120606077D01*
X141504426Y-120486379D01*
X141445461Y-120376065D01*
X141366109Y-120279374D01*
X140305449Y-119218714D01*
X140208758Y-119139362D01*
X140098444Y-119080397D01*
X139978746Y-119044087D01*
X139854264Y-119031827D01*
X139729782Y-119044087D01*
X139610084Y-119080397D01*
X139499770Y-119139362D01*
X139403079Y-119218714D01*
X138953011Y-119668782D01*
X138410361Y-119668782D01*
X137178486Y-118436907D01*
X137194180Y-118424027D01*
X137901286Y-117716921D01*
X137980638Y-117620230D01*
X138039603Y-117509916D01*
X138075913Y-117390218D01*
X138088173Y-117265736D01*
X138075913Y-117141254D01*
X138039603Y-117021556D01*
X137985820Y-116920936D01*
X138025049Y-116881707D01*
X138058817Y-116853994D01*
X138088640Y-116817656D01*
X138166110Y-116723258D01*
X138169411Y-116719236D01*
X138251589Y-116565490D01*
X138302195Y-116398667D01*
X138315000Y-116268654D01*
X138315000Y-116268644D01*
X138319281Y-116225178D01*
X138315000Y-116181712D01*
X138315000Y-115918544D01*
X138554551Y-116161287D01*
X138651242Y-116240639D01*
X138761556Y-116299604D01*
X138881254Y-116335913D01*
X139005736Y-116348173D01*
X139130217Y-116335913D01*
X139249915Y-116299604D01*
X139360230Y-116240639D01*
X139456921Y-116161287D01*
X139606246Y-116007617D01*
X139606246Y-115783110D01*
X138828959Y-115005823D01*
X138814817Y-115019966D01*
X138635211Y-114840360D01*
X138649354Y-114826218D01*
X139008564Y-114826218D01*
X139785851Y-115603505D01*
X140010358Y-115603505D01*
X140164028Y-115454180D01*
X140243380Y-115357489D01*
X140302345Y-115247174D01*
X140338654Y-115127476D01*
X140350914Y-115002995D01*
X140338654Y-114878513D01*
X140302345Y-114758815D01*
X140243380Y-114648501D01*
X140164028Y-114551810D01*
X139833581Y-114225708D01*
X139609075Y-114225708D01*
X139008564Y-114826218D01*
X138649354Y-114826218D01*
X138635212Y-114812076D01*
X138814817Y-114632471D01*
X138828959Y-114646613D01*
X139429469Y-114046102D01*
X139429469Y-113821596D01*
X139103367Y-113491149D01*
X139006676Y-113411797D01*
X138896362Y-113352832D01*
X138776664Y-113316523D01*
X138652182Y-113304263D01*
X138527701Y-113316523D01*
X138408003Y-113352832D01*
X138315000Y-113402543D01*
X138315000Y-109583465D01*
X138319281Y-109539999D01*
X138315000Y-109496533D01*
X138315000Y-109496523D01*
X138302195Y-109366510D01*
X138251589Y-109199687D01*
X138169411Y-109045941D01*
X138168072Y-109044309D01*
X138168072Y-108390000D01*
X138155812Y-108265518D01*
X138119502Y-108145820D01*
X138060537Y-108035506D01*
X137981185Y-107938815D01*
X137884494Y-107859463D01*
X137774180Y-107800498D01*
X137654482Y-107764188D01*
X137530000Y-107751928D01*
X136530000Y-107751928D01*
X136405518Y-107764188D01*
X136285820Y-107800498D01*
X136175506Y-107859463D01*
X136078815Y-107938815D01*
X135999463Y-108035506D01*
X135940498Y-108145820D01*
X135904188Y-108265518D01*
X135891928Y-108390000D01*
X135891928Y-109890000D01*
X135904188Y-110014482D01*
X135940498Y-110134180D01*
X135999463Y-110244494D01*
X136078815Y-110341185D01*
X136175506Y-110420537D01*
X136285820Y-110479502D01*
X136405518Y-110515812D01*
X136530000Y-110528072D01*
X136545000Y-110528072D01*
X136545000Y-112116449D01*
X136511612Y-112066480D01*
X136353520Y-111908388D01*
X136167624Y-111784176D01*
X135961067Y-111698617D01*
X135741788Y-111655000D01*
X135518212Y-111655000D01*
X135298933Y-111698617D01*
X135092376Y-111784176D01*
X134906480Y-111908388D01*
X134748388Y-112066480D01*
X134624176Y-112252376D01*
X134615000Y-112274529D01*
X134615000Y-110457683D01*
X134684494Y-110420537D01*
X134781185Y-110341185D01*
X134860537Y-110244494D01*
X134919502Y-110134180D01*
X134955812Y-110014482D01*
X134968072Y-109890000D01*
X134968072Y-108390000D01*
X134955812Y-108265518D01*
X134919502Y-108145820D01*
X134860537Y-108035506D01*
X134781185Y-107938815D01*
X134684494Y-107859463D01*
X134574180Y-107800498D01*
X134454482Y-107764188D01*
X134330000Y-107751928D01*
X133330000Y-107751928D01*
X133315000Y-107753405D01*
X133315000Y-106019397D01*
X139771075Y-106019397D01*
X139771075Y-107360603D01*
X139939172Y-108691232D01*
X140272716Y-109990301D01*
X140766447Y-111237323D01*
X141412578Y-112412630D01*
X142200919Y-113497688D01*
X143119037Y-114475385D01*
X144152454Y-115330301D01*
X145284871Y-116048955D01*
X146498430Y-116620013D01*
X147773992Y-117034468D01*
X149091441Y-117285785D01*
X150430000Y-117370000D01*
X151758481Y-117286419D01*
X157965708Y-117286419D01*
X157965708Y-117510925D01*
X158566218Y-118111436D01*
X159343505Y-117334149D01*
X159343505Y-117109642D01*
X159194180Y-116955972D01*
X159097489Y-116876620D01*
X158987174Y-116817655D01*
X158867476Y-116781346D01*
X158742995Y-116769086D01*
X158618513Y-116781346D01*
X158498815Y-116817655D01*
X158388501Y-116876620D01*
X158291810Y-116955972D01*
X157965708Y-117286419D01*
X151758481Y-117286419D01*
X151768559Y-117285785D01*
X153086008Y-117034468D01*
X154361570Y-116620013D01*
X155575129Y-116048955D01*
X156707546Y-115330301D01*
X157740963Y-114475385D01*
X158659081Y-113497688D01*
X159447422Y-112412630D01*
X160093553Y-111237323D01*
X160587284Y-109990301D01*
X160613036Y-109890000D01*
X162691928Y-109890000D01*
X162704188Y-110014482D01*
X162740498Y-110134180D01*
X162799463Y-110244494D01*
X162878815Y-110341185D01*
X162975506Y-110420537D01*
X163085820Y-110479502D01*
X163205518Y-110515812D01*
X163330000Y-110528072D01*
X163544250Y-110525000D01*
X163703000Y-110366250D01*
X163703000Y-109267000D01*
X163957000Y-109267000D01*
X163957000Y-110366250D01*
X164115750Y-110525000D01*
X164330000Y-110528072D01*
X164454482Y-110515812D01*
X164574180Y-110479502D01*
X164684494Y-110420537D01*
X164781185Y-110341185D01*
X164860537Y-110244494D01*
X164919502Y-110134180D01*
X164955812Y-110014482D01*
X164968072Y-109890000D01*
X164965000Y-109425750D01*
X164806250Y-109267000D01*
X163957000Y-109267000D01*
X163703000Y-109267000D01*
X162853750Y-109267000D01*
X162695000Y-109425750D01*
X162691928Y-109890000D01*
X160613036Y-109890000D01*
X160920828Y-108691232D01*
X160958882Y-108390000D01*
X162691928Y-108390000D01*
X162695000Y-108854250D01*
X162853750Y-109013000D01*
X163703000Y-109013000D01*
X163703000Y-107913750D01*
X163957000Y-107913750D01*
X163957000Y-109013000D01*
X164806250Y-109013000D01*
X164965000Y-108854250D01*
X164968072Y-108390000D01*
X164955812Y-108265518D01*
X164919502Y-108145820D01*
X164860537Y-108035506D01*
X164781185Y-107938815D01*
X164684494Y-107859463D01*
X164574180Y-107800498D01*
X164454482Y-107764188D01*
X164330000Y-107751928D01*
X164115750Y-107755000D01*
X163957000Y-107913750D01*
X163703000Y-107913750D01*
X163544250Y-107755000D01*
X163330000Y-107751928D01*
X163205518Y-107764188D01*
X163085820Y-107800498D01*
X162975506Y-107859463D01*
X162878815Y-107938815D01*
X162799463Y-108035506D01*
X162740498Y-108145820D01*
X162704188Y-108265518D01*
X162691928Y-108390000D01*
X160958882Y-108390000D01*
X161088925Y-107360603D01*
X161088925Y-106019397D01*
X160920828Y-104688768D01*
X160587284Y-103389699D01*
X160093553Y-102142677D01*
X159447422Y-100967370D01*
X158659081Y-99882312D01*
X157740963Y-98904615D01*
X157103192Y-98377005D01*
X160509086Y-98377005D01*
X160521346Y-98501487D01*
X160557655Y-98621185D01*
X160616620Y-98731499D01*
X160695972Y-98828190D01*
X161026419Y-99154292D01*
X161250925Y-99154292D01*
X161851436Y-98553782D01*
X161074149Y-97776495D01*
X160849642Y-97776495D01*
X160695972Y-97925820D01*
X160616620Y-98022511D01*
X160557655Y-98132826D01*
X160521346Y-98252524D01*
X160509086Y-98377005D01*
X157103192Y-98377005D01*
X156707546Y-98049699D01*
X155575129Y-97331045D01*
X154361570Y-96759987D01*
X153086008Y-96345532D01*
X151768559Y-96094215D01*
X150430000Y-96010000D01*
X149091441Y-96094215D01*
X147773992Y-96345532D01*
X146498430Y-96759987D01*
X145284871Y-97331045D01*
X144152454Y-98049699D01*
X143119037Y-98904615D01*
X142200919Y-99882312D01*
X141412578Y-100967370D01*
X140766447Y-102142677D01*
X140272716Y-103389699D01*
X139939172Y-104688768D01*
X139771075Y-106019397D01*
X133315000Y-106019397D01*
X133315000Y-105626595D01*
X133330000Y-105628072D01*
X134330000Y-105628072D01*
X134454482Y-105615812D01*
X134574180Y-105579502D01*
X134684494Y-105520537D01*
X134781185Y-105441185D01*
X134860537Y-105344494D01*
X134919502Y-105234180D01*
X134955812Y-105114482D01*
X134968072Y-104990000D01*
X135891928Y-104990000D01*
X135904188Y-105114482D01*
X135940498Y-105234180D01*
X135999463Y-105344494D01*
X136078815Y-105441185D01*
X136175506Y-105520537D01*
X136285820Y-105579502D01*
X136405518Y-105615812D01*
X136530000Y-105628072D01*
X136744250Y-105625000D01*
X136903000Y-105466250D01*
X136903000Y-104367000D01*
X137157000Y-104367000D01*
X137157000Y-105466250D01*
X137315750Y-105625000D01*
X137530000Y-105628072D01*
X137654482Y-105615812D01*
X137774180Y-105579502D01*
X137884494Y-105520537D01*
X137981185Y-105441185D01*
X138060537Y-105344494D01*
X138119502Y-105234180D01*
X138155812Y-105114482D01*
X138168072Y-104990000D01*
X138165000Y-104525750D01*
X138006250Y-104367000D01*
X137157000Y-104367000D01*
X136903000Y-104367000D01*
X136053750Y-104367000D01*
X135895000Y-104525750D01*
X135891928Y-104990000D01*
X134968072Y-104990000D01*
X134968072Y-103666247D01*
X135144319Y-103490000D01*
X135891928Y-103490000D01*
X135895000Y-103954250D01*
X136053750Y-104113000D01*
X136903000Y-104113000D01*
X136903000Y-103013750D01*
X137157000Y-103013750D01*
X137157000Y-104113000D01*
X138006250Y-104113000D01*
X138165000Y-103954250D01*
X138168072Y-103490000D01*
X138155812Y-103365518D01*
X138119502Y-103245820D01*
X138060537Y-103135506D01*
X137981185Y-103038815D01*
X137884494Y-102959463D01*
X137774180Y-102900498D01*
X137654482Y-102864188D01*
X137530000Y-102851928D01*
X137315750Y-102855000D01*
X137157000Y-103013750D01*
X136903000Y-103013750D01*
X136744250Y-102855000D01*
X136530000Y-102851928D01*
X136405518Y-102864188D01*
X136285820Y-102900498D01*
X136175506Y-102959463D01*
X136078815Y-103038815D01*
X135999463Y-103135506D01*
X135940498Y-103245820D01*
X135904188Y-103365518D01*
X135891928Y-103490000D01*
X135144319Y-103490000D01*
X138566975Y-100067345D01*
X138652182Y-100075737D01*
X138776664Y-100063477D01*
X138896362Y-100027167D01*
X139006676Y-99968202D01*
X139103367Y-99888850D01*
X140164027Y-98828190D01*
X140243379Y-98731499D01*
X140302344Y-98621185D01*
X140338654Y-98501487D01*
X140350914Y-98377005D01*
X140338654Y-98252523D01*
X140302344Y-98132825D01*
X140243379Y-98022511D01*
X140164027Y-97925820D01*
X139456921Y-97218714D01*
X139360230Y-97139362D01*
X139249916Y-97080397D01*
X139130218Y-97044087D01*
X139005736Y-97031827D01*
X138881254Y-97044087D01*
X138761556Y-97080397D01*
X138651242Y-97139362D01*
X138554551Y-97218714D01*
X137493891Y-98279374D01*
X137414539Y-98376065D01*
X137355574Y-98486379D01*
X137319264Y-98606077D01*
X137307004Y-98730559D01*
X137315396Y-98815766D01*
X133315000Y-102816163D01*
X133315000Y-100793837D01*
X136304234Y-97804604D01*
X136389441Y-97812996D01*
X136513923Y-97800736D01*
X136633621Y-97764426D01*
X136743935Y-97705461D01*
X136840626Y-97626109D01*
X137901286Y-96565449D01*
X137980638Y-96468758D01*
X138039603Y-96358444D01*
X138075913Y-96238746D01*
X138088173Y-96114264D01*
X138081436Y-96045851D01*
X141516495Y-96045851D01*
X141516495Y-96270358D01*
X141665820Y-96424028D01*
X141762511Y-96503380D01*
X141872826Y-96562345D01*
X141992524Y-96598654D01*
X142117005Y-96610914D01*
X142241487Y-96598654D01*
X142361185Y-96562345D01*
X142471499Y-96503380D01*
X142568190Y-96424028D01*
X142894292Y-96093581D01*
X142894292Y-95869075D01*
X142293782Y-95268564D01*
X141516495Y-96045851D01*
X138081436Y-96045851D01*
X138075913Y-95989782D01*
X138039603Y-95870084D01*
X137980638Y-95759770D01*
X137901286Y-95663079D01*
X137503943Y-95265736D01*
X140771827Y-95265736D01*
X140784087Y-95390217D01*
X140820396Y-95509915D01*
X140879361Y-95620230D01*
X140958713Y-95716921D01*
X141112383Y-95866246D01*
X141336890Y-95866246D01*
X142114177Y-95088959D01*
X141513666Y-94488449D01*
X141289160Y-94488449D01*
X140958713Y-94814551D01*
X140879361Y-94911242D01*
X140820396Y-95021556D01*
X140784087Y-95141254D01*
X140771827Y-95265736D01*
X137503943Y-95265736D01*
X137451218Y-95213011D01*
X137451218Y-94670360D01*
X138683093Y-93438485D01*
X138695973Y-93454180D01*
X139403079Y-94161286D01*
X139499770Y-94240638D01*
X139610084Y-94299603D01*
X139729782Y-94335913D01*
X139854264Y-94348173D01*
X139978746Y-94335913D01*
X140098444Y-94299603D01*
X140208758Y-94240638D01*
X140305449Y-94161286D01*
X140308449Y-94158286D01*
X140321333Y-94162195D01*
X140451346Y-94175000D01*
X140451354Y-94175000D01*
X140494823Y-94179281D01*
X140538292Y-94175000D01*
X141693272Y-94175000D01*
X141693272Y-94308843D01*
X142293782Y-94909354D01*
X142307925Y-94895212D01*
X142487530Y-95074817D01*
X142473387Y-95088959D01*
X143073898Y-95689469D01*
X143298404Y-95689469D01*
X143628851Y-95363367D01*
X143708203Y-95266676D01*
X143767168Y-95156362D01*
X143803477Y-95036664D01*
X143815737Y-94912182D01*
X157044263Y-94912182D01*
X157056523Y-95036664D01*
X157092833Y-95156362D01*
X157151798Y-95266676D01*
X157231150Y-95363367D01*
X158291810Y-96424027D01*
X158388501Y-96503379D01*
X158498815Y-96562344D01*
X158618513Y-96598654D01*
X158742995Y-96610914D01*
X158867477Y-96598654D01*
X158987175Y-96562344D01*
X159097489Y-96503379D01*
X159194180Y-96424027D01*
X159901286Y-95716921D01*
X159980638Y-95620230D01*
X160039603Y-95509916D01*
X160075913Y-95390218D01*
X160088173Y-95265736D01*
X160075913Y-95141254D01*
X160039603Y-95021556D01*
X159980638Y-94911242D01*
X159901286Y-94814551D01*
X158840626Y-93753891D01*
X158743935Y-93674539D01*
X158633621Y-93615574D01*
X158513923Y-93579264D01*
X158389441Y-93567004D01*
X158264959Y-93579264D01*
X158145261Y-93615574D01*
X158034947Y-93674539D01*
X157938256Y-93753891D01*
X157231150Y-94460997D01*
X157151798Y-94557688D01*
X157092833Y-94668002D01*
X157056523Y-94787700D01*
X157044263Y-94912182D01*
X143815737Y-94912182D01*
X143803477Y-94787701D01*
X143767168Y-94668003D01*
X143708203Y-94557688D01*
X143628851Y-94460997D01*
X143475181Y-94311672D01*
X143250677Y-94311672D01*
X143362929Y-94199420D01*
X143338509Y-94175000D01*
X146724499Y-94175000D01*
X146778815Y-94241185D01*
X146875506Y-94320537D01*
X146985820Y-94379502D01*
X147105518Y-94415812D01*
X147230000Y-94428072D01*
X148730000Y-94428072D01*
X148854482Y-94415812D01*
X148974180Y-94379502D01*
X149084494Y-94320537D01*
X149181185Y-94241185D01*
X149260537Y-94144494D01*
X149319502Y-94034180D01*
X149355812Y-93914482D01*
X149368072Y-93790000D01*
X151491928Y-93790000D01*
X151504188Y-93914482D01*
X151540498Y-94034180D01*
X151599463Y-94144494D01*
X151678815Y-94241185D01*
X151775506Y-94320537D01*
X151885820Y-94379502D01*
X152005518Y-94415812D01*
X152130000Y-94428072D01*
X152594250Y-94425000D01*
X152753000Y-94266250D01*
X152753000Y-93417000D01*
X153007000Y-93417000D01*
X153007000Y-94266250D01*
X153165750Y-94425000D01*
X153630000Y-94428072D01*
X153754482Y-94415812D01*
X153874180Y-94379502D01*
X153984494Y-94320537D01*
X154081185Y-94241185D01*
X154160537Y-94144494D01*
X154219502Y-94034180D01*
X154255812Y-93914482D01*
X154268072Y-93790000D01*
X154265000Y-93575750D01*
X154106250Y-93417000D01*
X153007000Y-93417000D01*
X152753000Y-93417000D01*
X151653750Y-93417000D01*
X151495000Y-93575750D01*
X151491928Y-93790000D01*
X149368072Y-93790000D01*
X149368072Y-92790000D01*
X151491928Y-92790000D01*
X151495000Y-93004250D01*
X151653750Y-93163000D01*
X152753000Y-93163000D01*
X152753000Y-92313750D01*
X153007000Y-92313750D01*
X153007000Y-93163000D01*
X154106250Y-93163000D01*
X154265000Y-93004250D01*
X154268072Y-92790000D01*
X154255812Y-92665518D01*
X154219502Y-92545820D01*
X154160537Y-92435506D01*
X154081185Y-92338815D01*
X153984494Y-92259463D01*
X153874180Y-92200498D01*
X153754482Y-92164188D01*
X153630000Y-92151928D01*
X153165750Y-92155000D01*
X153007000Y-92313750D01*
X152753000Y-92313750D01*
X152594250Y-92155000D01*
X152130000Y-92151928D01*
X152005518Y-92164188D01*
X151885820Y-92200498D01*
X151775506Y-92259463D01*
X151678815Y-92338815D01*
X151599463Y-92435506D01*
X151540498Y-92545820D01*
X151504188Y-92665518D01*
X151491928Y-92790000D01*
X149368072Y-92790000D01*
X149355812Y-92665518D01*
X149319502Y-92545820D01*
X149260537Y-92435506D01*
X149181185Y-92338815D01*
X149084494Y-92259463D01*
X148974180Y-92200498D01*
X148854482Y-92164188D01*
X148730000Y-92151928D01*
X147230000Y-92151928D01*
X147105518Y-92164188D01*
X146985820Y-92200498D01*
X146875506Y-92259463D01*
X146778815Y-92338815D01*
X146724499Y-92405000D01*
X141504286Y-92405000D01*
X141445461Y-92294947D01*
X141366109Y-92198256D01*
X140659003Y-91491150D01*
X140643309Y-91478270D01*
X141146579Y-90975000D01*
X146724499Y-90975000D01*
X146778815Y-91041185D01*
X146875506Y-91120537D01*
X146985820Y-91179502D01*
X147105518Y-91215812D01*
X147230000Y-91228072D01*
X148730000Y-91228072D01*
X148854482Y-91215812D01*
X148974180Y-91179502D01*
X149084494Y-91120537D01*
X149181185Y-91041185D01*
X149260537Y-90944494D01*
X149319502Y-90834180D01*
X149355812Y-90714482D01*
X149368072Y-90590000D01*
X149368072Y-89590000D01*
X149355812Y-89465518D01*
X149319502Y-89345820D01*
X149260537Y-89235506D01*
X149181185Y-89138815D01*
X149084494Y-89059463D01*
X148974180Y-89000498D01*
X148865000Y-88967379D01*
X148865000Y-88756578D01*
X149468507Y-88153072D01*
X149830000Y-88153072D01*
X150003254Y-88136008D01*
X150169850Y-88085472D01*
X150323386Y-88003405D01*
X150457962Y-87892962D01*
X150463342Y-87886406D01*
X150528815Y-87966185D01*
X150625506Y-88045537D01*
X150735820Y-88104502D01*
X150855518Y-88140812D01*
X150980000Y-88153072D01*
X151194250Y-88150000D01*
X151353000Y-87991250D01*
X151353000Y-86917000D01*
X151333000Y-86917000D01*
X151333000Y-86663000D01*
X151353000Y-86663000D01*
X151353000Y-85588750D01*
X151194250Y-85430000D01*
X150980000Y-85426928D01*
X150855518Y-85439188D01*
X150735820Y-85475498D01*
X150625506Y-85534463D01*
X150528815Y-85613815D01*
X150465000Y-85691574D01*
X150465000Y-84706578D01*
X151025049Y-84146530D01*
X151058817Y-84118817D01*
X151156585Y-83999688D01*
X151169411Y-83984059D01*
X151251589Y-83830314D01*
X151302195Y-83663490D01*
X151308390Y-83600589D01*
X151315000Y-83533477D01*
X151315000Y-83533469D01*
X151319281Y-83490000D01*
X151315000Y-83446531D01*
X151315000Y-82409759D01*
X151485134Y-82270134D01*
X151537223Y-82206663D01*
X151591595Y-82308386D01*
X151702038Y-82442962D01*
X151836614Y-82553405D01*
X151990150Y-82635472D01*
X151995001Y-82636943D01*
X151995001Y-85428405D01*
X151980000Y-85426928D01*
X151765750Y-85430000D01*
X151607000Y-85588750D01*
X151607000Y-86663000D01*
X151627000Y-86663000D01*
X151627000Y-86917000D01*
X151607000Y-86917000D01*
X151607000Y-87991250D01*
X151765750Y-88150000D01*
X151980000Y-88153072D01*
X151995000Y-88151595D01*
X151995000Y-88967379D01*
X151885820Y-89000498D01*
X151775506Y-89059463D01*
X151678815Y-89138815D01*
X151599463Y-89235506D01*
X151540498Y-89345820D01*
X151504188Y-89465518D01*
X151491928Y-89590000D01*
X151491928Y-90590000D01*
X151504188Y-90714482D01*
X151540498Y-90834180D01*
X151599463Y-90944494D01*
X151678815Y-91041185D01*
X151775506Y-91120537D01*
X151885820Y-91179502D01*
X152005518Y-91215812D01*
X152130000Y-91228072D01*
X153630000Y-91228072D01*
X153754482Y-91215812D01*
X153874180Y-91179502D01*
X153984494Y-91120537D01*
X154081185Y-91041185D01*
X154160537Y-90944494D01*
X154219502Y-90834180D01*
X154255812Y-90714482D01*
X154268072Y-90590000D01*
X154268072Y-89590000D01*
X154255812Y-89465518D01*
X154219502Y-89345820D01*
X154160537Y-89235506D01*
X154081185Y-89138815D01*
X153984494Y-89059463D01*
X153874180Y-89000498D01*
X153765000Y-88967379D01*
X153765000Y-82667278D01*
X153869850Y-82635472D01*
X154023386Y-82553405D01*
X154157962Y-82442962D01*
X154268405Y-82308386D01*
X154350472Y-82154850D01*
X154401008Y-81988254D01*
X154418072Y-81815000D01*
X154418072Y-80365000D01*
X154401008Y-80191746D01*
X154350472Y-80025150D01*
X154268405Y-79871614D01*
X154157962Y-79737038D01*
X154023386Y-79626595D01*
X153869850Y-79544528D01*
X153703254Y-79493992D01*
X153530000Y-79476928D01*
X152330000Y-79476928D01*
X152156746Y-79493992D01*
X151990150Y-79544528D01*
X151836614Y-79626595D01*
X151702038Y-79737038D01*
X151591595Y-79871614D01*
X151537223Y-79973337D01*
X151485134Y-79909866D01*
X151259014Y-79724294D01*
X151001034Y-79586401D01*
X150721111Y-79501487D01*
X150430000Y-79472815D01*
X150138890Y-79501487D01*
X149858967Y-79586401D01*
X149600987Y-79724294D01*
X149374866Y-79909866D01*
X149189294Y-80135986D01*
X149175538Y-80161722D01*
X149019049Y-79955571D01*
X148801193Y-79762504D01*
X148549858Y-79615648D01*
X148286890Y-79523524D01*
X148057000Y-79644845D01*
X148057000Y-80963000D01*
X148077000Y-80963000D01*
X148077000Y-81217000D01*
X148057000Y-81217000D01*
X148057000Y-82535155D01*
X148286890Y-82656476D01*
X148549858Y-82564352D01*
X148801193Y-82417496D01*
X149019049Y-82224429D01*
X149175538Y-82018278D01*
X149189294Y-82044013D01*
X149374866Y-82270134D01*
X149545001Y-82409760D01*
X149545001Y-83123420D01*
X148984956Y-83683466D01*
X148951183Y-83711183D01*
X148840589Y-83845942D01*
X148758411Y-83999688D01*
X148707805Y-84166511D01*
X148695000Y-84296524D01*
X148695000Y-84296531D01*
X148690719Y-84340000D01*
X148695000Y-84383469D01*
X148695001Y-85695613D01*
X148591595Y-85821614D01*
X148509528Y-85975150D01*
X148458992Y-86141746D01*
X148441928Y-86315000D01*
X148441928Y-86676493D01*
X147384956Y-87733466D01*
X147351183Y-87761183D01*
X147240589Y-87895942D01*
X147158411Y-88049688D01*
X147128543Y-88148147D01*
X147111034Y-88205868D01*
X147107805Y-88216511D01*
X147095000Y-88346524D01*
X147095000Y-88346531D01*
X147090719Y-88390000D01*
X147095000Y-88433469D01*
X147095000Y-88967378D01*
X146985820Y-89000498D01*
X146875506Y-89059463D01*
X146778815Y-89138815D01*
X146724499Y-89205000D01*
X142382623Y-89205000D01*
X143475434Y-88724734D01*
X144635251Y-88317435D01*
X144683792Y-88302710D01*
X144798449Y-88241425D01*
X144898948Y-88158948D01*
X144981425Y-88058450D01*
X145042710Y-87943793D01*
X145080450Y-87819383D01*
X145090000Y-87722419D01*
X145090000Y-81449267D01*
X146463680Y-81449267D01*
X146537558Y-81730830D01*
X146664947Y-81992570D01*
X146840951Y-82224429D01*
X147058807Y-82417496D01*
X147310142Y-82564352D01*
X147573110Y-82656476D01*
X147803000Y-82535155D01*
X147803000Y-81217000D01*
X146603835Y-81217000D01*
X146463680Y-81449267D01*
X145090000Y-81449267D01*
X145090000Y-80730733D01*
X146463680Y-80730733D01*
X146603835Y-80963000D01*
X147803000Y-80963000D01*
X147803000Y-79644845D01*
X147573110Y-79523524D01*
X147310142Y-79615648D01*
X147058807Y-79762504D01*
X146840951Y-79955571D01*
X146664947Y-80187430D01*
X146537558Y-80449170D01*
X146463680Y-80730733D01*
X145090000Y-80730733D01*
X145090000Y-78350000D01*
X155770001Y-78350000D01*
X155769998Y-87722417D01*
G04 #@! TA.AperFunction,Conductor*
D18*
G36*
X155769998Y-87722417D02*
G01*
X155779548Y-87819381D01*
X155817288Y-87943791D01*
X155878573Y-88058448D01*
X155961050Y-88158946D01*
X156061548Y-88241423D01*
X156176205Y-88302708D01*
X156220737Y-88316217D01*
X157841073Y-88908392D01*
X159392423Y-89637594D01*
X160872804Y-90501811D01*
X162270502Y-91494208D01*
X162847748Y-91986797D01*
X162739708Y-91954023D01*
X162609695Y-91941218D01*
X162609687Y-91941218D01*
X162566218Y-91936937D01*
X162522749Y-91941218D01*
X161553435Y-91941218D01*
X161103367Y-91491150D01*
X161006676Y-91411798D01*
X160896362Y-91352833D01*
X160776664Y-91316523D01*
X160652182Y-91304263D01*
X160527700Y-91316523D01*
X160408002Y-91352833D01*
X160297688Y-91411798D01*
X160200997Y-91491150D01*
X159493891Y-92198256D01*
X159414539Y-92294947D01*
X159355574Y-92405261D01*
X159319264Y-92524959D01*
X159307004Y-92649441D01*
X159319264Y-92773923D01*
X159355574Y-92893621D01*
X159414539Y-93003935D01*
X159493891Y-93100626D01*
X160554551Y-94161286D01*
X160651242Y-94240638D01*
X160761556Y-94299603D01*
X160881254Y-94335913D01*
X161005736Y-94348173D01*
X161130218Y-94335913D01*
X161249916Y-94299603D01*
X161360230Y-94240638D01*
X161456921Y-94161286D01*
X161906989Y-93711218D01*
X162199640Y-93711218D01*
X163555107Y-95066686D01*
X162958714Y-95663079D01*
X162879362Y-95759770D01*
X162820397Y-95870084D01*
X162784087Y-95989782D01*
X162771827Y-96114264D01*
X162784087Y-96238746D01*
X162820397Y-96358444D01*
X162874130Y-96458971D01*
X162873471Y-96459774D01*
X162873468Y-96459777D01*
X162790590Y-96560764D01*
X162708412Y-96714510D01*
X162657805Y-96881333D01*
X162640719Y-97054823D01*
X162645001Y-97098302D01*
X162645001Y-97760214D01*
X162631551Y-97773664D01*
X162631551Y-97549160D01*
X162305449Y-97218713D01*
X162208758Y-97139361D01*
X162098444Y-97080396D01*
X161978746Y-97044087D01*
X161854264Y-97031827D01*
X161729783Y-97044087D01*
X161610085Y-97080396D01*
X161499770Y-97139361D01*
X161403079Y-97218713D01*
X161253754Y-97372383D01*
X161253754Y-97596890D01*
X162031041Y-98374177D01*
X162045183Y-98360034D01*
X162224789Y-98539640D01*
X162210646Y-98553782D01*
X162224789Y-98567925D01*
X162045184Y-98747530D01*
X162031041Y-98733387D01*
X161430531Y-99333898D01*
X161430531Y-99558404D01*
X161756633Y-99888851D01*
X161853324Y-99968203D01*
X161963638Y-100027168D01*
X162083336Y-100063477D01*
X162207818Y-100075737D01*
X162332299Y-100063477D01*
X162451997Y-100027168D01*
X162562312Y-99968203D01*
X162645001Y-99900342D01*
X162645000Y-103896531D01*
X162640719Y-103940000D01*
X162645000Y-103983469D01*
X162645000Y-103983476D01*
X162653178Y-104066509D01*
X162657805Y-104113490D01*
X162667649Y-104145941D01*
X162691928Y-104225976D01*
X162691928Y-104990000D01*
X162704188Y-105114482D01*
X162740498Y-105234180D01*
X162799463Y-105344494D01*
X162878815Y-105441185D01*
X162975506Y-105520537D01*
X163085820Y-105579502D01*
X163205518Y-105615812D01*
X163330000Y-105628072D01*
X164330000Y-105628072D01*
X164454482Y-105615812D01*
X164574180Y-105579502D01*
X164684494Y-105520537D01*
X164781185Y-105441185D01*
X164860537Y-105344494D01*
X164919502Y-105234180D01*
X164955812Y-105114482D01*
X164968072Y-104990000D01*
X164968072Y-103490000D01*
X164955812Y-103365518D01*
X164919502Y-103245820D01*
X164860537Y-103135506D01*
X164781185Y-103038815D01*
X164684494Y-102959463D01*
X164574180Y-102900498D01*
X164454482Y-102864188D01*
X164415000Y-102860299D01*
X164415000Y-101563551D01*
X164448388Y-101613520D01*
X164606480Y-101771612D01*
X164792376Y-101895824D01*
X164998933Y-101981383D01*
X165218212Y-102025000D01*
X165441788Y-102025000D01*
X165661067Y-101981383D01*
X165867624Y-101895824D01*
X166053520Y-101771612D01*
X166145000Y-101680132D01*
X166145000Y-102984498D01*
X166078815Y-103038815D01*
X165999463Y-103135506D01*
X165940498Y-103245820D01*
X165904188Y-103365518D01*
X165891928Y-103490000D01*
X165891928Y-104990000D01*
X165904188Y-105114482D01*
X165940498Y-105234180D01*
X165999463Y-105344494D01*
X166078815Y-105441185D01*
X166175506Y-105520537D01*
X166285820Y-105579502D01*
X166405518Y-105615812D01*
X166530000Y-105628072D01*
X167530000Y-105628072D01*
X167545001Y-105626595D01*
X167545001Y-107753405D01*
X167530000Y-107751928D01*
X166530000Y-107751928D01*
X166405518Y-107764188D01*
X166285820Y-107800498D01*
X166175506Y-107859463D01*
X166078815Y-107938815D01*
X165999463Y-108035506D01*
X165940498Y-108145820D01*
X165904188Y-108265518D01*
X165891928Y-108390000D01*
X165891928Y-109713752D01*
X162293026Y-113312655D01*
X162207818Y-113304263D01*
X162083336Y-113316523D01*
X161963638Y-113352833D01*
X161853324Y-113411798D01*
X161756633Y-113491150D01*
X160695973Y-114551810D01*
X160616621Y-114648501D01*
X160557656Y-114758815D01*
X160521346Y-114878513D01*
X160509086Y-115002995D01*
X160521346Y-115127477D01*
X160557656Y-115247175D01*
X160616621Y-115357489D01*
X160695973Y-115454180D01*
X161403079Y-116161286D01*
X161499770Y-116240638D01*
X161610084Y-116299603D01*
X161729782Y-116335913D01*
X161854264Y-116348173D01*
X161978746Y-116335913D01*
X162098444Y-116299603D01*
X162208758Y-116240638D01*
X162305449Y-116161286D01*
X163366109Y-115100626D01*
X163445461Y-115003935D01*
X163504426Y-114893621D01*
X163540736Y-114773923D01*
X163552996Y-114649441D01*
X163544604Y-114564233D01*
X167545000Y-110563838D01*
X167545000Y-112586162D01*
X164555767Y-115575396D01*
X164470559Y-115567004D01*
X164346077Y-115579264D01*
X164226379Y-115615574D01*
X164116065Y-115674539D01*
X164019374Y-115753891D01*
X162958714Y-116814551D01*
X162879362Y-116911242D01*
X162820397Y-117021556D01*
X162784087Y-117141254D01*
X162771827Y-117265736D01*
X162784087Y-117390218D01*
X162820397Y-117509916D01*
X162879362Y-117620230D01*
X162958714Y-117716921D01*
X163408782Y-118166989D01*
X163408782Y-118709639D01*
X162176907Y-119941514D01*
X162164027Y-119925820D01*
X161456921Y-119218714D01*
X161360230Y-119139362D01*
X161249916Y-119080397D01*
X161130218Y-119044087D01*
X161005736Y-119031827D01*
X160881254Y-119044087D01*
X160761556Y-119080397D01*
X160661030Y-119134130D01*
X160559236Y-119050589D01*
X160405490Y-118968411D01*
X160238667Y-118917805D01*
X160108654Y-118905000D01*
X160108646Y-118905000D01*
X160065177Y-118900719D01*
X160021708Y-118905000D01*
X159359785Y-118905000D01*
X159346336Y-118891551D01*
X159570840Y-118891551D01*
X159901287Y-118565449D01*
X159980639Y-118468758D01*
X160039604Y-118358444D01*
X160075913Y-118238746D01*
X160088173Y-118114264D01*
X160075913Y-117989783D01*
X160039604Y-117870085D01*
X159980639Y-117759770D01*
X159901287Y-117663079D01*
X159747617Y-117513754D01*
X159523110Y-117513754D01*
X158745823Y-118291041D01*
X158759966Y-118305183D01*
X158580360Y-118484789D01*
X158566218Y-118470646D01*
X158552076Y-118484789D01*
X158372471Y-118305184D01*
X158386613Y-118291041D01*
X157786102Y-117690531D01*
X157561596Y-117690531D01*
X157231149Y-118016633D01*
X157151797Y-118113324D01*
X157092832Y-118223638D01*
X157056523Y-118343336D01*
X157044263Y-118467818D01*
X157056523Y-118592299D01*
X157092832Y-118711997D01*
X157151797Y-118822312D01*
X157219657Y-118905000D01*
X153223466Y-118905000D01*
X153179999Y-118900719D01*
X153136533Y-118905000D01*
X153136523Y-118905000D01*
X153006510Y-118917805D01*
X152894023Y-118951928D01*
X152130000Y-118951928D01*
X152005518Y-118964188D01*
X151885820Y-119000498D01*
X151775506Y-119059463D01*
X151678815Y-119138815D01*
X151599463Y-119235506D01*
X151540498Y-119345820D01*
X151504188Y-119465518D01*
X151491928Y-119590000D01*
X151491928Y-120590000D01*
X151504188Y-120714482D01*
X151540498Y-120834180D01*
X151599463Y-120944494D01*
X151678815Y-121041185D01*
X151775506Y-121120537D01*
X151885820Y-121179502D01*
X152005518Y-121215812D01*
X152130000Y-121228072D01*
X153630000Y-121228072D01*
X153754482Y-121215812D01*
X153874180Y-121179502D01*
X153984494Y-121120537D01*
X154081185Y-121041185D01*
X154160537Y-120944494D01*
X154219502Y-120834180D01*
X154255812Y-120714482D01*
X154259701Y-120675000D01*
X155556449Y-120675000D01*
X155506480Y-120708388D01*
X155348388Y-120866480D01*
X155224176Y-121052376D01*
X155138617Y-121258933D01*
X155095000Y-121478212D01*
X155095000Y-121701788D01*
X155138617Y-121921067D01*
X155224176Y-122127624D01*
X155348388Y-122313520D01*
X155439868Y-122405000D01*
X154135501Y-122405000D01*
X154081185Y-122338815D01*
X153984494Y-122259463D01*
X153874180Y-122200498D01*
X153754482Y-122164188D01*
X153630000Y-122151928D01*
X152130000Y-122151928D01*
X152005518Y-122164188D01*
X151885820Y-122200498D01*
X151775506Y-122259463D01*
X151678815Y-122338815D01*
X151599463Y-122435506D01*
X151540498Y-122545820D01*
X151504188Y-122665518D01*
X151491928Y-122790000D01*
X151491928Y-123790000D01*
X151504188Y-123914482D01*
X151540498Y-124034180D01*
X151551627Y-124055000D01*
X149308373Y-124055000D01*
X149319502Y-124034180D01*
X149355812Y-123914482D01*
X149368072Y-123790000D01*
X149368072Y-122790000D01*
X149355812Y-122665518D01*
X149319502Y-122545820D01*
X149260537Y-122435506D01*
X149181185Y-122338815D01*
X149084494Y-122259463D01*
X148974180Y-122200498D01*
X148854482Y-122164188D01*
X148730000Y-122151928D01*
X147406248Y-122151928D01*
X145844320Y-120590000D01*
X146591928Y-120590000D01*
X146604188Y-120714482D01*
X146640498Y-120834180D01*
X146699463Y-120944494D01*
X146778815Y-121041185D01*
X146875506Y-121120537D01*
X146985820Y-121179502D01*
X147105518Y-121215812D01*
X147230000Y-121228072D01*
X147694250Y-121225000D01*
X147853000Y-121066250D01*
X147853000Y-120217000D01*
X148107000Y-120217000D01*
X148107000Y-121066250D01*
X148265750Y-121225000D01*
X148730000Y-121228072D01*
X148854482Y-121215812D01*
X148974180Y-121179502D01*
X149084494Y-121120537D01*
X149181185Y-121041185D01*
X149260537Y-120944494D01*
X149319502Y-120834180D01*
X149355812Y-120714482D01*
X149368072Y-120590000D01*
X149365000Y-120375750D01*
X149206250Y-120217000D01*
X148107000Y-120217000D01*
X147853000Y-120217000D01*
X146753750Y-120217000D01*
X146595000Y-120375750D01*
X146591928Y-120590000D01*
X145844320Y-120590000D01*
X144844320Y-119590000D01*
X146591928Y-119590000D01*
X146595000Y-119804250D01*
X146753750Y-119963000D01*
X147853000Y-119963000D01*
X147853000Y-119113750D01*
X148107000Y-119113750D01*
X148107000Y-119963000D01*
X149206250Y-119963000D01*
X149365000Y-119804250D01*
X149368072Y-119590000D01*
X149355812Y-119465518D01*
X149319502Y-119345820D01*
X149260537Y-119235506D01*
X149181185Y-119138815D01*
X149084494Y-119059463D01*
X148974180Y-119000498D01*
X148854482Y-118964188D01*
X148730000Y-118951928D01*
X148265750Y-118955000D01*
X148107000Y-119113750D01*
X147853000Y-119113750D01*
X147694250Y-118955000D01*
X147230000Y-118951928D01*
X147105518Y-118964188D01*
X146985820Y-119000498D01*
X146875506Y-119059463D01*
X146778815Y-119138815D01*
X146699463Y-119235506D01*
X146640498Y-119345820D01*
X146604188Y-119465518D01*
X146591928Y-119590000D01*
X144844320Y-119590000D01*
X143807345Y-118553026D01*
X143815737Y-118467818D01*
X143803477Y-118343336D01*
X143767167Y-118223638D01*
X143708202Y-118113324D01*
X143628850Y-118016633D01*
X142568190Y-116955973D01*
X142471499Y-116876621D01*
X142361185Y-116817656D01*
X142241487Y-116781346D01*
X142117005Y-116769086D01*
X141992523Y-116781346D01*
X141872825Y-116817656D01*
X141762511Y-116876621D01*
X141665820Y-116955973D01*
X140958714Y-117663079D01*
X140879362Y-117759770D01*
X140820397Y-117870084D01*
X140784087Y-117989782D01*
X140771827Y-118114264D01*
X140784087Y-118238746D01*
X140820397Y-118358444D01*
X140879362Y-118468758D01*
X140958714Y-118565449D01*
X142019374Y-119626109D01*
X142116065Y-119705461D01*
X142226379Y-119764426D01*
X142346077Y-119800736D01*
X142470559Y-119812996D01*
X142555767Y-119804604D01*
X146597474Y-123846312D01*
X146604188Y-123914482D01*
X146640498Y-124034180D01*
X146651627Y-124055000D01*
X144783838Y-124055000D01*
X141544604Y-120815767D01*
X141552996Y-120730559D01*
X141540736Y-120606077D01*
X141504426Y-120486379D01*
X141445461Y-120376065D01*
X141366109Y-120279374D01*
X140305449Y-119218714D01*
X140208758Y-119139362D01*
X140098444Y-119080397D01*
X139978746Y-119044087D01*
X139854264Y-119031827D01*
X139729782Y-119044087D01*
X139610084Y-119080397D01*
X139499770Y-119139362D01*
X139403079Y-119218714D01*
X138953011Y-119668782D01*
X138410361Y-119668782D01*
X137178486Y-118436907D01*
X137194180Y-118424027D01*
X137901286Y-117716921D01*
X137980638Y-117620230D01*
X138039603Y-117509916D01*
X138075913Y-117390218D01*
X138088173Y-117265736D01*
X138075913Y-117141254D01*
X138039603Y-117021556D01*
X137985820Y-116920936D01*
X138025049Y-116881707D01*
X138058817Y-116853994D01*
X138088640Y-116817656D01*
X138166110Y-116723258D01*
X138169411Y-116719236D01*
X138251589Y-116565490D01*
X138302195Y-116398667D01*
X138315000Y-116268654D01*
X138315000Y-116268644D01*
X138319281Y-116225178D01*
X138315000Y-116181712D01*
X138315000Y-115918544D01*
X138554551Y-116161287D01*
X138651242Y-116240639D01*
X138761556Y-116299604D01*
X138881254Y-116335913D01*
X139005736Y-116348173D01*
X139130217Y-116335913D01*
X139249915Y-116299604D01*
X139360230Y-116240639D01*
X139456921Y-116161287D01*
X139606246Y-116007617D01*
X139606246Y-115783110D01*
X138828959Y-115005823D01*
X138814817Y-115019966D01*
X138635211Y-114840360D01*
X138649354Y-114826218D01*
X139008564Y-114826218D01*
X139785851Y-115603505D01*
X140010358Y-115603505D01*
X140164028Y-115454180D01*
X140243380Y-115357489D01*
X140302345Y-115247174D01*
X140338654Y-115127476D01*
X140350914Y-115002995D01*
X140338654Y-114878513D01*
X140302345Y-114758815D01*
X140243380Y-114648501D01*
X140164028Y-114551810D01*
X139833581Y-114225708D01*
X139609075Y-114225708D01*
X139008564Y-114826218D01*
X138649354Y-114826218D01*
X138635212Y-114812076D01*
X138814817Y-114632471D01*
X138828959Y-114646613D01*
X139429469Y-114046102D01*
X139429469Y-113821596D01*
X139103367Y-113491149D01*
X139006676Y-113411797D01*
X138896362Y-113352832D01*
X138776664Y-113316523D01*
X138652182Y-113304263D01*
X138527701Y-113316523D01*
X138408003Y-113352832D01*
X138315000Y-113402543D01*
X138315000Y-109583465D01*
X138319281Y-109539999D01*
X138315000Y-109496533D01*
X138315000Y-109496523D01*
X138302195Y-109366510D01*
X138251589Y-109199687D01*
X138169411Y-109045941D01*
X138168072Y-109044309D01*
X138168072Y-108390000D01*
X138155812Y-108265518D01*
X138119502Y-108145820D01*
X138060537Y-108035506D01*
X137981185Y-107938815D01*
X137884494Y-107859463D01*
X137774180Y-107800498D01*
X137654482Y-107764188D01*
X137530000Y-107751928D01*
X136530000Y-107751928D01*
X136405518Y-107764188D01*
X136285820Y-107800498D01*
X136175506Y-107859463D01*
X136078815Y-107938815D01*
X135999463Y-108035506D01*
X135940498Y-108145820D01*
X135904188Y-108265518D01*
X135891928Y-108390000D01*
X135891928Y-109890000D01*
X135904188Y-110014482D01*
X135940498Y-110134180D01*
X135999463Y-110244494D01*
X136078815Y-110341185D01*
X136175506Y-110420537D01*
X136285820Y-110479502D01*
X136405518Y-110515812D01*
X136530000Y-110528072D01*
X136545000Y-110528072D01*
X136545000Y-112116449D01*
X136511612Y-112066480D01*
X136353520Y-111908388D01*
X136167624Y-111784176D01*
X135961067Y-111698617D01*
X135741788Y-111655000D01*
X135518212Y-111655000D01*
X135298933Y-111698617D01*
X135092376Y-111784176D01*
X134906480Y-111908388D01*
X134748388Y-112066480D01*
X134624176Y-112252376D01*
X134615000Y-112274529D01*
X134615000Y-110457683D01*
X134684494Y-110420537D01*
X134781185Y-110341185D01*
X134860537Y-110244494D01*
X134919502Y-110134180D01*
X134955812Y-110014482D01*
X134968072Y-109890000D01*
X134968072Y-108390000D01*
X134955812Y-108265518D01*
X134919502Y-108145820D01*
X134860537Y-108035506D01*
X134781185Y-107938815D01*
X134684494Y-107859463D01*
X134574180Y-107800498D01*
X134454482Y-107764188D01*
X134330000Y-107751928D01*
X133330000Y-107751928D01*
X133315000Y-107753405D01*
X133315000Y-106019397D01*
X139771075Y-106019397D01*
X139771075Y-107360603D01*
X139939172Y-108691232D01*
X140272716Y-109990301D01*
X140766447Y-111237323D01*
X141412578Y-112412630D01*
X142200919Y-113497688D01*
X143119037Y-114475385D01*
X144152454Y-115330301D01*
X145284871Y-116048955D01*
X146498430Y-116620013D01*
X147773992Y-117034468D01*
X149091441Y-117285785D01*
X150430000Y-117370000D01*
X151758481Y-117286419D01*
X157965708Y-117286419D01*
X157965708Y-117510925D01*
X158566218Y-118111436D01*
X159343505Y-117334149D01*
X159343505Y-117109642D01*
X159194180Y-116955972D01*
X159097489Y-116876620D01*
X158987174Y-116817655D01*
X158867476Y-116781346D01*
X158742995Y-116769086D01*
X158618513Y-116781346D01*
X158498815Y-116817655D01*
X158388501Y-116876620D01*
X158291810Y-116955972D01*
X157965708Y-117286419D01*
X151758481Y-117286419D01*
X151768559Y-117285785D01*
X153086008Y-117034468D01*
X154361570Y-116620013D01*
X155575129Y-116048955D01*
X156707546Y-115330301D01*
X157740963Y-114475385D01*
X158659081Y-113497688D01*
X159447422Y-112412630D01*
X160093553Y-111237323D01*
X160587284Y-109990301D01*
X160613036Y-109890000D01*
X162691928Y-109890000D01*
X162704188Y-110014482D01*
X162740498Y-110134180D01*
X162799463Y-110244494D01*
X162878815Y-110341185D01*
X162975506Y-110420537D01*
X163085820Y-110479502D01*
X163205518Y-110515812D01*
X163330000Y-110528072D01*
X163544250Y-110525000D01*
X163703000Y-110366250D01*
X163703000Y-109267000D01*
X163957000Y-109267000D01*
X163957000Y-110366250D01*
X164115750Y-110525000D01*
X164330000Y-110528072D01*
X164454482Y-110515812D01*
X164574180Y-110479502D01*
X164684494Y-110420537D01*
X164781185Y-110341185D01*
X164860537Y-110244494D01*
X164919502Y-110134180D01*
X164955812Y-110014482D01*
X164968072Y-109890000D01*
X164965000Y-109425750D01*
X164806250Y-109267000D01*
X163957000Y-109267000D01*
X163703000Y-109267000D01*
X162853750Y-109267000D01*
X162695000Y-109425750D01*
X162691928Y-109890000D01*
X160613036Y-109890000D01*
X160920828Y-108691232D01*
X160958882Y-108390000D01*
X162691928Y-108390000D01*
X162695000Y-108854250D01*
X162853750Y-109013000D01*
X163703000Y-109013000D01*
X163703000Y-107913750D01*
X163957000Y-107913750D01*
X163957000Y-109013000D01*
X164806250Y-109013000D01*
X164965000Y-108854250D01*
X164968072Y-108390000D01*
X164955812Y-108265518D01*
X164919502Y-108145820D01*
X164860537Y-108035506D01*
X164781185Y-107938815D01*
X164684494Y-107859463D01*
X164574180Y-107800498D01*
X164454482Y-107764188D01*
X164330000Y-107751928D01*
X164115750Y-107755000D01*
X163957000Y-107913750D01*
X163703000Y-107913750D01*
X163544250Y-107755000D01*
X163330000Y-107751928D01*
X163205518Y-107764188D01*
X163085820Y-107800498D01*
X162975506Y-107859463D01*
X162878815Y-107938815D01*
X162799463Y-108035506D01*
X162740498Y-108145820D01*
X162704188Y-108265518D01*
X162691928Y-108390000D01*
X160958882Y-108390000D01*
X161088925Y-107360603D01*
X161088925Y-106019397D01*
X160920828Y-104688768D01*
X160587284Y-103389699D01*
X160093553Y-102142677D01*
X159447422Y-100967370D01*
X158659081Y-99882312D01*
X157740963Y-98904615D01*
X157103192Y-98377005D01*
X160509086Y-98377005D01*
X160521346Y-98501487D01*
X160557655Y-98621185D01*
X160616620Y-98731499D01*
X160695972Y-98828190D01*
X161026419Y-99154292D01*
X161250925Y-99154292D01*
X161851436Y-98553782D01*
X161074149Y-97776495D01*
X160849642Y-97776495D01*
X160695972Y-97925820D01*
X160616620Y-98022511D01*
X160557655Y-98132826D01*
X160521346Y-98252524D01*
X160509086Y-98377005D01*
X157103192Y-98377005D01*
X156707546Y-98049699D01*
X155575129Y-97331045D01*
X154361570Y-96759987D01*
X153086008Y-96345532D01*
X151768559Y-96094215D01*
X150430000Y-96010000D01*
X149091441Y-96094215D01*
X147773992Y-96345532D01*
X146498430Y-96759987D01*
X145284871Y-97331045D01*
X144152454Y-98049699D01*
X143119037Y-98904615D01*
X142200919Y-99882312D01*
X141412578Y-100967370D01*
X140766447Y-102142677D01*
X140272716Y-103389699D01*
X139939172Y-104688768D01*
X139771075Y-106019397D01*
X133315000Y-106019397D01*
X133315000Y-105626595D01*
X133330000Y-105628072D01*
X134330000Y-105628072D01*
X134454482Y-105615812D01*
X134574180Y-105579502D01*
X134684494Y-105520537D01*
X134781185Y-105441185D01*
X134860537Y-105344494D01*
X134919502Y-105234180D01*
X134955812Y-105114482D01*
X134968072Y-104990000D01*
X135891928Y-104990000D01*
X135904188Y-105114482D01*
X135940498Y-105234180D01*
X135999463Y-105344494D01*
X136078815Y-105441185D01*
X136175506Y-105520537D01*
X136285820Y-105579502D01*
X136405518Y-105615812D01*
X136530000Y-105628072D01*
X136744250Y-105625000D01*
X136903000Y-105466250D01*
X136903000Y-104367000D01*
X137157000Y-104367000D01*
X137157000Y-105466250D01*
X137315750Y-105625000D01*
X137530000Y-105628072D01*
X137654482Y-105615812D01*
X137774180Y-105579502D01*
X137884494Y-105520537D01*
X137981185Y-105441185D01*
X138060537Y-105344494D01*
X138119502Y-105234180D01*
X138155812Y-105114482D01*
X138168072Y-104990000D01*
X138165000Y-104525750D01*
X138006250Y-104367000D01*
X137157000Y-104367000D01*
X136903000Y-104367000D01*
X136053750Y-104367000D01*
X135895000Y-104525750D01*
X135891928Y-104990000D01*
X134968072Y-104990000D01*
X134968072Y-103666247D01*
X135144319Y-103490000D01*
X135891928Y-103490000D01*
X135895000Y-103954250D01*
X136053750Y-104113000D01*
X136903000Y-104113000D01*
X136903000Y-103013750D01*
X137157000Y-103013750D01*
X137157000Y-104113000D01*
X138006250Y-104113000D01*
X138165000Y-103954250D01*
X138168072Y-103490000D01*
X138155812Y-103365518D01*
X138119502Y-103245820D01*
X138060537Y-103135506D01*
X137981185Y-103038815D01*
X137884494Y-102959463D01*
X137774180Y-102900498D01*
X137654482Y-102864188D01*
X137530000Y-102851928D01*
X137315750Y-102855000D01*
X137157000Y-103013750D01*
X136903000Y-103013750D01*
X136744250Y-102855000D01*
X136530000Y-102851928D01*
X136405518Y-102864188D01*
X136285820Y-102900498D01*
X136175506Y-102959463D01*
X136078815Y-103038815D01*
X135999463Y-103135506D01*
X135940498Y-103245820D01*
X135904188Y-103365518D01*
X135891928Y-103490000D01*
X135144319Y-103490000D01*
X138566975Y-100067345D01*
X138652182Y-100075737D01*
X138776664Y-100063477D01*
X138896362Y-100027167D01*
X139006676Y-99968202D01*
X139103367Y-99888850D01*
X140164027Y-98828190D01*
X140243379Y-98731499D01*
X140302344Y-98621185D01*
X140338654Y-98501487D01*
X140350914Y-98377005D01*
X140338654Y-98252523D01*
X140302344Y-98132825D01*
X140243379Y-98022511D01*
X140164027Y-97925820D01*
X139456921Y-97218714D01*
X139360230Y-97139362D01*
X139249916Y-97080397D01*
X139130218Y-97044087D01*
X139005736Y-97031827D01*
X138881254Y-97044087D01*
X138761556Y-97080397D01*
X138651242Y-97139362D01*
X138554551Y-97218714D01*
X137493891Y-98279374D01*
X137414539Y-98376065D01*
X137355574Y-98486379D01*
X137319264Y-98606077D01*
X137307004Y-98730559D01*
X137315396Y-98815766D01*
X133315000Y-102816163D01*
X133315000Y-100793837D01*
X136304234Y-97804604D01*
X136389441Y-97812996D01*
X136513923Y-97800736D01*
X136633621Y-97764426D01*
X136743935Y-97705461D01*
X136840626Y-97626109D01*
X137901286Y-96565449D01*
X137980638Y-96468758D01*
X138039603Y-96358444D01*
X138075913Y-96238746D01*
X138088173Y-96114264D01*
X138081436Y-96045851D01*
X141516495Y-96045851D01*
X141516495Y-96270358D01*
X141665820Y-96424028D01*
X141762511Y-96503380D01*
X141872826Y-96562345D01*
X141992524Y-96598654D01*
X142117005Y-96610914D01*
X142241487Y-96598654D01*
X142361185Y-96562345D01*
X142471499Y-96503380D01*
X142568190Y-96424028D01*
X142894292Y-96093581D01*
X142894292Y-95869075D01*
X142293782Y-95268564D01*
X141516495Y-96045851D01*
X138081436Y-96045851D01*
X138075913Y-95989782D01*
X138039603Y-95870084D01*
X137980638Y-95759770D01*
X137901286Y-95663079D01*
X137503943Y-95265736D01*
X140771827Y-95265736D01*
X140784087Y-95390217D01*
X140820396Y-95509915D01*
X140879361Y-95620230D01*
X140958713Y-95716921D01*
X141112383Y-95866246D01*
X141336890Y-95866246D01*
X142114177Y-95088959D01*
X141513666Y-94488449D01*
X141289160Y-94488449D01*
X140958713Y-94814551D01*
X140879361Y-94911242D01*
X140820396Y-95021556D01*
X140784087Y-95141254D01*
X140771827Y-95265736D01*
X137503943Y-95265736D01*
X137451218Y-95213011D01*
X137451218Y-94670360D01*
X138683093Y-93438485D01*
X138695973Y-93454180D01*
X139403079Y-94161286D01*
X139499770Y-94240638D01*
X139610084Y-94299603D01*
X139729782Y-94335913D01*
X139854264Y-94348173D01*
X139978746Y-94335913D01*
X140098444Y-94299603D01*
X140208758Y-94240638D01*
X140305449Y-94161286D01*
X140308449Y-94158286D01*
X140321333Y-94162195D01*
X140451346Y-94175000D01*
X140451354Y-94175000D01*
X140494823Y-94179281D01*
X140538292Y-94175000D01*
X141693272Y-94175000D01*
X141693272Y-94308843D01*
X142293782Y-94909354D01*
X142307925Y-94895212D01*
X142487530Y-95074817D01*
X142473387Y-95088959D01*
X143073898Y-95689469D01*
X143298404Y-95689469D01*
X143628851Y-95363367D01*
X143708203Y-95266676D01*
X143767168Y-95156362D01*
X143803477Y-95036664D01*
X143815737Y-94912182D01*
X157044263Y-94912182D01*
X157056523Y-95036664D01*
X157092833Y-95156362D01*
X157151798Y-95266676D01*
X157231150Y-95363367D01*
X158291810Y-96424027D01*
X158388501Y-96503379D01*
X158498815Y-96562344D01*
X158618513Y-96598654D01*
X158742995Y-96610914D01*
X158867477Y-96598654D01*
X158987175Y-96562344D01*
X159097489Y-96503379D01*
X159194180Y-96424027D01*
X159901286Y-95716921D01*
X159980638Y-95620230D01*
X160039603Y-95509916D01*
X160075913Y-95390218D01*
X160088173Y-95265736D01*
X160075913Y-95141254D01*
X160039603Y-95021556D01*
X159980638Y-94911242D01*
X159901286Y-94814551D01*
X158840626Y-93753891D01*
X158743935Y-93674539D01*
X158633621Y-93615574D01*
X158513923Y-93579264D01*
X158389441Y-93567004D01*
X158264959Y-93579264D01*
X158145261Y-93615574D01*
X158034947Y-93674539D01*
X157938256Y-93753891D01*
X157231150Y-94460997D01*
X157151798Y-94557688D01*
X157092833Y-94668002D01*
X157056523Y-94787700D01*
X157044263Y-94912182D01*
X143815737Y-94912182D01*
X143803477Y-94787701D01*
X143767168Y-94668003D01*
X143708203Y-94557688D01*
X143628851Y-94460997D01*
X143475181Y-94311672D01*
X143250677Y-94311672D01*
X143362929Y-94199420D01*
X143338509Y-94175000D01*
X146724499Y-94175000D01*
X146778815Y-94241185D01*
X146875506Y-94320537D01*
X146985820Y-94379502D01*
X147105518Y-94415812D01*
X147230000Y-94428072D01*
X148730000Y-94428072D01*
X148854482Y-94415812D01*
X148974180Y-94379502D01*
X149084494Y-94320537D01*
X149181185Y-94241185D01*
X149260537Y-94144494D01*
X149319502Y-94034180D01*
X149355812Y-93914482D01*
X149368072Y-93790000D01*
X151491928Y-93790000D01*
X151504188Y-93914482D01*
X151540498Y-94034180D01*
X151599463Y-94144494D01*
X151678815Y-94241185D01*
X151775506Y-94320537D01*
X151885820Y-94379502D01*
X152005518Y-94415812D01*
X152130000Y-94428072D01*
X152594250Y-94425000D01*
X152753000Y-94266250D01*
X152753000Y-93417000D01*
X153007000Y-93417000D01*
X153007000Y-94266250D01*
X153165750Y-94425000D01*
X153630000Y-94428072D01*
X153754482Y-94415812D01*
X153874180Y-94379502D01*
X153984494Y-94320537D01*
X154081185Y-94241185D01*
X154160537Y-94144494D01*
X154219502Y-94034180D01*
X154255812Y-93914482D01*
X154268072Y-93790000D01*
X154265000Y-93575750D01*
X154106250Y-93417000D01*
X153007000Y-93417000D01*
X152753000Y-93417000D01*
X151653750Y-93417000D01*
X151495000Y-93575750D01*
X151491928Y-93790000D01*
X149368072Y-93790000D01*
X149368072Y-92790000D01*
X151491928Y-92790000D01*
X151495000Y-93004250D01*
X151653750Y-93163000D01*
X152753000Y-93163000D01*
X152753000Y-92313750D01*
X153007000Y-92313750D01*
X153007000Y-93163000D01*
X154106250Y-93163000D01*
X154265000Y-93004250D01*
X154268072Y-92790000D01*
X154255812Y-92665518D01*
X154219502Y-92545820D01*
X154160537Y-92435506D01*
X154081185Y-92338815D01*
X153984494Y-92259463D01*
X153874180Y-92200498D01*
X153754482Y-92164188D01*
X153630000Y-92151928D01*
X153165750Y-92155000D01*
X153007000Y-92313750D01*
X152753000Y-92313750D01*
X152594250Y-92155000D01*
X152130000Y-92151928D01*
X152005518Y-92164188D01*
X151885820Y-92200498D01*
X151775506Y-92259463D01*
X151678815Y-92338815D01*
X151599463Y-92435506D01*
X151540498Y-92545820D01*
X151504188Y-92665518D01*
X151491928Y-92790000D01*
X149368072Y-92790000D01*
X149355812Y-92665518D01*
X149319502Y-92545820D01*
X149260537Y-92435506D01*
X149181185Y-92338815D01*
X149084494Y-92259463D01*
X148974180Y-92200498D01*
X148854482Y-92164188D01*
X148730000Y-92151928D01*
X147230000Y-92151928D01*
X147105518Y-92164188D01*
X146985820Y-92200498D01*
X146875506Y-92259463D01*
X146778815Y-92338815D01*
X146724499Y-92405000D01*
X141504286Y-92405000D01*
X141445461Y-92294947D01*
X141366109Y-92198256D01*
X140659003Y-91491150D01*
X140643309Y-91478270D01*
X141146579Y-90975000D01*
X146724499Y-90975000D01*
X146778815Y-91041185D01*
X146875506Y-91120537D01*
X146985820Y-91179502D01*
X147105518Y-91215812D01*
X147230000Y-91228072D01*
X148730000Y-91228072D01*
X148854482Y-91215812D01*
X148974180Y-91179502D01*
X149084494Y-91120537D01*
X149181185Y-91041185D01*
X149260537Y-90944494D01*
X149319502Y-90834180D01*
X149355812Y-90714482D01*
X149368072Y-90590000D01*
X149368072Y-89590000D01*
X149355812Y-89465518D01*
X149319502Y-89345820D01*
X149260537Y-89235506D01*
X149181185Y-89138815D01*
X149084494Y-89059463D01*
X148974180Y-89000498D01*
X148865000Y-88967379D01*
X148865000Y-88756578D01*
X149468507Y-88153072D01*
X149830000Y-88153072D01*
X150003254Y-88136008D01*
X150169850Y-88085472D01*
X150323386Y-88003405D01*
X150457962Y-87892962D01*
X150463342Y-87886406D01*
X150528815Y-87966185D01*
X150625506Y-88045537D01*
X150735820Y-88104502D01*
X150855518Y-88140812D01*
X150980000Y-88153072D01*
X151194250Y-88150000D01*
X151353000Y-87991250D01*
X151353000Y-86917000D01*
X151333000Y-86917000D01*
X151333000Y-86663000D01*
X151353000Y-86663000D01*
X151353000Y-85588750D01*
X151194250Y-85430000D01*
X150980000Y-85426928D01*
X150855518Y-85439188D01*
X150735820Y-85475498D01*
X150625506Y-85534463D01*
X150528815Y-85613815D01*
X150465000Y-85691574D01*
X150465000Y-84706578D01*
X151025049Y-84146530D01*
X151058817Y-84118817D01*
X151156585Y-83999688D01*
X151169411Y-83984059D01*
X151251589Y-83830314D01*
X151302195Y-83663490D01*
X151308390Y-83600589D01*
X151315000Y-83533477D01*
X151315000Y-83533469D01*
X151319281Y-83490000D01*
X151315000Y-83446531D01*
X151315000Y-82409759D01*
X151485134Y-82270134D01*
X151537223Y-82206663D01*
X151591595Y-82308386D01*
X151702038Y-82442962D01*
X151836614Y-82553405D01*
X151990150Y-82635472D01*
X151995001Y-82636943D01*
X151995001Y-85428405D01*
X151980000Y-85426928D01*
X151765750Y-85430000D01*
X151607000Y-85588750D01*
X151607000Y-86663000D01*
X151627000Y-86663000D01*
X151627000Y-86917000D01*
X151607000Y-86917000D01*
X151607000Y-87991250D01*
X151765750Y-88150000D01*
X151980000Y-88153072D01*
X151995000Y-88151595D01*
X151995000Y-88967379D01*
X151885820Y-89000498D01*
X151775506Y-89059463D01*
X151678815Y-89138815D01*
X151599463Y-89235506D01*
X151540498Y-89345820D01*
X151504188Y-89465518D01*
X151491928Y-89590000D01*
X151491928Y-90590000D01*
X151504188Y-90714482D01*
X151540498Y-90834180D01*
X151599463Y-90944494D01*
X151678815Y-91041185D01*
X151775506Y-91120537D01*
X151885820Y-91179502D01*
X152005518Y-91215812D01*
X152130000Y-91228072D01*
X153630000Y-91228072D01*
X153754482Y-91215812D01*
X153874180Y-91179502D01*
X153984494Y-91120537D01*
X154081185Y-91041185D01*
X154160537Y-90944494D01*
X154219502Y-90834180D01*
X154255812Y-90714482D01*
X154268072Y-90590000D01*
X154268072Y-89590000D01*
X154255812Y-89465518D01*
X154219502Y-89345820D01*
X154160537Y-89235506D01*
X154081185Y-89138815D01*
X153984494Y-89059463D01*
X153874180Y-89000498D01*
X153765000Y-88967379D01*
X153765000Y-82667278D01*
X153869850Y-82635472D01*
X154023386Y-82553405D01*
X154157962Y-82442962D01*
X154268405Y-82308386D01*
X154350472Y-82154850D01*
X154401008Y-81988254D01*
X154418072Y-81815000D01*
X154418072Y-80365000D01*
X154401008Y-80191746D01*
X154350472Y-80025150D01*
X154268405Y-79871614D01*
X154157962Y-79737038D01*
X154023386Y-79626595D01*
X153869850Y-79544528D01*
X153703254Y-79493992D01*
X153530000Y-79476928D01*
X152330000Y-79476928D01*
X152156746Y-79493992D01*
X151990150Y-79544528D01*
X151836614Y-79626595D01*
X151702038Y-79737038D01*
X151591595Y-79871614D01*
X151537223Y-79973337D01*
X151485134Y-79909866D01*
X151259014Y-79724294D01*
X151001034Y-79586401D01*
X150721111Y-79501487D01*
X150430000Y-79472815D01*
X150138890Y-79501487D01*
X149858967Y-79586401D01*
X149600987Y-79724294D01*
X149374866Y-79909866D01*
X149189294Y-80135986D01*
X149175538Y-80161722D01*
X149019049Y-79955571D01*
X148801193Y-79762504D01*
X148549858Y-79615648D01*
X148286890Y-79523524D01*
X148057000Y-79644845D01*
X148057000Y-80963000D01*
X148077000Y-80963000D01*
X148077000Y-81217000D01*
X148057000Y-81217000D01*
X148057000Y-82535155D01*
X148286890Y-82656476D01*
X148549858Y-82564352D01*
X148801193Y-82417496D01*
X149019049Y-82224429D01*
X149175538Y-82018278D01*
X149189294Y-82044013D01*
X149374866Y-82270134D01*
X149545001Y-82409760D01*
X149545001Y-83123420D01*
X148984956Y-83683466D01*
X148951183Y-83711183D01*
X148840589Y-83845942D01*
X148758411Y-83999688D01*
X148707805Y-84166511D01*
X148695000Y-84296524D01*
X148695000Y-84296531D01*
X148690719Y-84340000D01*
X148695000Y-84383469D01*
X148695001Y-85695613D01*
X148591595Y-85821614D01*
X148509528Y-85975150D01*
X148458992Y-86141746D01*
X148441928Y-86315000D01*
X148441928Y-86676493D01*
X147384956Y-87733466D01*
X147351183Y-87761183D01*
X147240589Y-87895942D01*
X147158411Y-88049688D01*
X147128543Y-88148147D01*
X147111034Y-88205868D01*
X147107805Y-88216511D01*
X147095000Y-88346524D01*
X147095000Y-88346531D01*
X147090719Y-88390000D01*
X147095000Y-88433469D01*
X147095000Y-88967378D01*
X146985820Y-89000498D01*
X146875506Y-89059463D01*
X146778815Y-89138815D01*
X146724499Y-89205000D01*
X142382623Y-89205000D01*
X143475434Y-88724734D01*
X144635251Y-88317435D01*
X144683792Y-88302710D01*
X144798449Y-88241425D01*
X144898948Y-88158948D01*
X144981425Y-88058450D01*
X145042710Y-87943793D01*
X145080450Y-87819383D01*
X145090000Y-87722419D01*
X145090000Y-81449267D01*
X146463680Y-81449267D01*
X146537558Y-81730830D01*
X146664947Y-81992570D01*
X146840951Y-82224429D01*
X147058807Y-82417496D01*
X147310142Y-82564352D01*
X147573110Y-82656476D01*
X147803000Y-82535155D01*
X147803000Y-81217000D01*
X146603835Y-81217000D01*
X146463680Y-81449267D01*
X145090000Y-81449267D01*
X145090000Y-80730733D01*
X146463680Y-80730733D01*
X146603835Y-80963000D01*
X147803000Y-80963000D01*
X147803000Y-79644845D01*
X147573110Y-79523524D01*
X147310142Y-79615648D01*
X147058807Y-79762504D01*
X146840951Y-79955571D01*
X146664947Y-80187430D01*
X146537558Y-80449170D01*
X146463680Y-80730733D01*
X145090000Y-80730733D01*
X145090000Y-78350000D01*
X155770001Y-78350000D01*
X155769998Y-87722417D01*
G37*
G04 #@! TD.AperFunction*
M02*
