M48
; DRILL file {KiCad (5.1.5-0-10_14)} date Sunday, February 02, 2020 at 04:00:00 PM
; FORMAT={-:-/ absolute / metric / decimal}
; #@! TF.CreationDate,2020-02-02T16:00:00-05:00
; #@! TF.GenerationSoftware,Kicad,Pcbnew,(5.1.5-0-10_14)
; #@! TF.FileFunction,Plated,1,2,PTH
FMAT,2
METRIC
T1C0.250
T2C0.400
T3C1.000
T4C1.100
%
G90
G05
T1
X121.547Y-142.24
X122.547Y-142.24
T2
X47.117Y-105.918
X49.53Y-101.219
X57.023Y-96.266
X61.214Y-89.662
X69.469Y-85.217
X120.015Y-142.24
X121.031Y-146.558
X122.301Y-145.288
X129.286Y-143.383
X129.286Y-163.703
X131.826Y-148.463
X134.747Y-149.86
X139.065Y-145.669
X139.319Y-147.32
X142.748Y-145.542
X144.399Y-137.033
X144.78Y-144.78
X145.034Y-146.177
X145.923Y-144.399
X146.431Y-147.955
X147.828Y-124.587
X147.828Y-140.462
X153.67Y-124.587
X157.734Y-155.575
X187.579Y-108.966
T3
X136.398Y-162.687
X138.938Y-162.687
X141.478Y-162.687
X144.018Y-162.687
X146.558Y-162.687
X149.098Y-162.687
X149.88Y-139.5
X152.42Y-139.5
X154.96Y-139.5
X157.5Y-139.5
X120.777Y-135.128
X123.317Y-135.128
X153.924Y-149.987
X153.924Y-152.527
X156.464Y-149.987
X156.464Y-152.527
X159.004Y-149.987
X159.004Y-152.527
T4
X56.578Y-106.3
X58.275Y-107.997
T0
M30
