<?xml version="1.0" encoding="UTF-8" standalone="no"?>
<svg
   xmlns:dc="http://purl.org/dc/elements/1.1/"
   xmlns:cc="http://creativecommons.org/ns#"
   xmlns:rdf="http://www.w3.org/1999/02/22-rdf-syntax-ns#"
   xmlns:svg="http://www.w3.org/2000/svg"
   xmlns="http://www.w3.org/2000/svg"
   xmlns:sodipodi="http://sodipodi.sourceforge.net/DTD/sodipodi-0.dtd"
   xmlns:inkscape="http://www.inkscape.org/namespaces/inkscape"
   version="1.0"
   width="50"
   height="50"
   viewBox="0 0 37.5 37.5"
   preserveAspectRatio="xMidYMid meet"
   id="svg2015"
   sodipodi:docname="logo.svg"
   inkscape:version="0.92.2 5c3e80d, 2017-08-06">
  <defs
     id="defs2019" />
  <sodipodi:namedview
     pagecolor="#ffffff"
     bordercolor="#666666"
     borderopacity="1"
     objecttolerance="10"
     gridtolerance="10"
     guidetolerance="10"
     inkscape:pageopacity="0"
     inkscape:pageshadow="2"
     inkscape:window-width="1736"
     inkscape:window-height="1074"
     id="namedview2017"
     showgrid="false"
     inkscape:zoom="17.22"
     inkscape:cx="25"
     inkscape:cy="25"
     inkscape:window-x="0"
     inkscape:window-y="0"
     inkscape:window-maximized="0"
     inkscape:current-layer="g2013"
     units="px" />
  <metadata
     id="metadata2003">
Created by potrace 1.16, written by Peter Selinger 2001-2019
<rdf:RDF>
  <cc:Work
     rdf:about="">
    <dc:format>image/svg+xml</dc:format>
    <dc:type
       rdf:resource="http://purl.org/dc/dcmitype/StillImage" />
    <dc:title></dc:title>
  </cc:Work>
</rdf:RDF>
</metadata>
  <g
     transform="matrix(0.1,0,0,-0.1,0,37.5)"
     id="g2013"
     style="fill:#000000;stroke:none">
    <path
       d="M 0,187.5 V 0 H 187.5 375 V 187.5 375 H 187.5 0 Z m 200.33333,171.16667 c 1,-1 1.33334,-3.08334 1.33334,-8.58334 V 342.75 l 5.25,-0.58333 c 23.25,-2.66667 51.41666,-13.58334 71.41666,-27.83334 10.16667,-7.16666 28,-25 35.16667,-35.16666 14.25,-20 25.16667,-48.16667 27.83333,-71.41667 l 0.58334,-5.25 H 349.25 c 10.08333,0 9.91667,0.25 9.91667,-14.58333 0,-14.83334 0.16666,-14.58334 -9.91667,-14.58334 h -7.33333 l -0.58334,-5.16666 c -1.75,-15.58334 -6.75,-32.16667 -14.25,-47.83334 C 311.66667,88.083333 288.83333,64.833333 256.75,48.75 c -15.08333,-7.5 -34,-13.25 -49.83333,-15 l -5.25,-0.583333 v -7.333334 c 0,-10.166666 0.25,-10 -14.58334,-10 C 172.25,15.833333 172.5,15.666667 172.5,25.75 v 7.333333 l -5.16667,0.583334 c -16.25,1.833333 -34.41666,7.5 -51.25,15.916666 C 99.833333,57.833333 90.25,64.75 77.083333,77.916667 63.916667,91.083333 57,100.66667 48.75,116.91667 40.166667,134 34.666667,151.83333 32.833333,168.16667 L 32.25,173.33333 H 24.916667 C 14.833333,173.33333 15,173.08333 15,187.91667 15,202.75 14.833333,202.5 24.916667,202.5 H 32.25 l 0.583333,5.25 c 1.833334,16.25 7.333334,34.08333 15.916667,51.16667 8.25,16.25 15.166667,25.83333 28.333333,39 C 90.25,311.08333 99.833333,318 116.08333,326.25 c 17,8.58333 34.58334,14 51.25,15.91667 L 172.5,342.75 v 7.33333 c 0,10.08334 -0.25,9.91667 14.58333,9.91667 9.75,0 12.16667,-0.25 13.25,-1.33333 z"
       id="path2005"
       style="fill:none;stroke-width:0.08333334"
       inkscape:connector-curvature="0" />
    <path
       d="m 177.5,347.08333 c 0,-9.91666 0.83333,-9.08333 -9.16667,-10 C 141.41667,334.5 110.25,320.5 87.833333,300.91667 61,277.58333 42.333333,242.83333 38.25,209 36.75,196.16667 38,197.5 27.916667,197.5 h -8.75 v -9.58333 -9.58334 h 8.75 c 10,0 8.833333,1.33334 10.333333,-11.33333 C 42.333333,132.91667 61.5,97.5 88.333333,74.416667 110.91667,55.083333 141.75,41.333333 168.33333,38.75 c 10,-0.916667 9.16667,-0.08333 9.16667,-10 V 20 h 9.58333 9.58334 v 8.75 c 0,10.083333 -1.33334,8.833333 11.5,10.333333 42.5,5.083334 84.25,32.416667 107.16666,70.249997 11,18.08334 19.16667,41.5 20.91667,59.83334 0.91667,10 0.0833,9.16666 10,9.16666 H 355 v 9.58334 9.58333 h -8.75 c -9.91667,0 -9.08333,-0.83333 -10,9.16667 -1.91667,20.08333 -11.75,46.5 -24.33333,65.16666 C 288.33333,307 248.5,331.91667 208.16667,336.75 c -12.83334,1.5 -11.5,0.25 -11.5,10.33333 v 8.75 H 187.08333 177.5 Z m 0,-70 V 235 h 9.58333 9.58334 v 42 42 l 4,-0.41667 C 221.33333,316.5 245,307.66667 262.58333,295.41667 c 9.83334,-6.83334 26.58334,-23.91667 33.16667,-33.75 12,-18.08334 20,-39.91667 22,-60.16667 l 0.41667,-4 H 303.25 288.33333 v -9.58333 -9.58334 h 15 15 L 318,176.5 c -0.25,-1.08333 -0.66667,-4.08333 -0.91667,-6.75 C 316.25,162 312.75,148.91667 309.16667,139.66667 296.25,106.66667 268.33333,78.75 235.33333,65.833333 226.08333,62.25 213,58.75 205.25,57.916667 202.58333,57.666667 199.58333,57.25 198.58333,57 l -1.91666,-0.333333 v 15 15 H 187.08333 177.5 v -15 -15 L 175.66667,57 c -1.08334,0.25 -4.08334,0.666667 -6.75,0.916667 C 166.25,58.25 160.25,59.416667 155.66667,60.5 106.83333,72.333333 68.166667,112.75 58.5,162.08333 c -0.916667,4.58334 -1.833333,10.08334 -2.083333,12.33334 L 56,178.33333 h 42 42 V 187.91667 197.5 H 98 55.916667 l 0.416666,3.16667 c 4.166667,32.25 15.5,56.58333 36.333334,78.16666 9.750003,10.08334 18.250003,16.66667 30.083333,23.5 13.5,7.75 32,13.91667 47.66667,15.91667 3.25,0.33333 6.08333,0.75 6.5,0.83333 0.33333,0 0.58333,-18.83333 0.58333,-42 z"
       id="path2007"
       style="fill:#ffffff;fill-opacity:1;stroke-width:0.08333334"
       inkscape:connector-curvature="0" />
    <path
       d="M 162.33333,311.66667 C 117.58333,302.25 80.666667,269.08333 66.833333,225.83333 64.75,219.16667 61.666667,205.91667 61.666667,203.25 c 0,-0.41667 17.166666,-0.75 39.916663,-0.75 35.25,0 40.08334,-0.16667 41.25,-1.33333 1.08334,-1.08334 1.33334,-3.5 1.33334,-13.25 0,-9.75 -0.25,-12.16667 -1.33334,-13.25 -1.16666,-1.16667 -6,-1.33334 -41.25,-1.33334 -22.749997,0 -39.916663,-0.33333 -39.916663,-0.75 0,-2.66666 3.083333,-15.91666 5.166666,-22.58333 C 79.166667,111.58333 110.75,80 149.16667,67.666667 155.83333,65.583333 169.08333,62.5 171.75,62.5 c 0.41667,0 0.75,6 0.75,13.25 0,11 0.25,13.5 1.33333,14.583333 1.91667,1.916667 24.58334,1.916667 26.5,0 C 201.41667,89.25 201.66667,86.75 201.66667,75.75 c 0,-7.25 0.33333,-13.25 0.75,-13.25 2.66666,0 15.91666,3.083333 22.58333,5.166667 C 263.41667,80 295,111.58333 307.33333,150 c 2.08334,6.66667 5.16667,19.91667 5.16667,22.58333 0,0.41667 -6,0.75 -13.25,0.75 -11,0 -13.5,0.25 -14.58333,1.33334 -1.08334,1.08333 -1.33334,3.5 -1.33334,13.25 0,9.75 0.25,12.16666 1.33334,13.25 C 285.75,202.25 288.25,202.5 299.25,202.5 c 7.25,0 13.25,0.33333 13.25,0.75 0,2.66667 -3.08333,15.91667 -5.16667,22.58333 -6.16666,19.25 -16.41666,35.83334 -31.41666,50.91667 C 260.83333,291.75 244.25,302 225,308.16667 c -6.66667,2.08333 -19.91667,5.16666 -22.58333,5.16666 -0.41667,0 -0.75,-17.16666 -0.75,-39.91666 0,-35.25 -0.16667,-40.08334 -1.33334,-41.25 -1.91666,-1.91667 -24.58333,-1.91667 -26.5,0 -1.16666,1.16666 -1.33333,6 -1.33333,41.25 0,37.5 -0.0833,39.91666 -1.41667,39.83333 -0.83333,0 -4.75,-0.75 -8.75,-1.58333 z m 38,-89.66667 c 1.08334,-1 1.33334,-3.25 1.33334,-10.41667 V 202.5 H 210.75 c 7.16667,0 9.41667,-0.25 10.41667,-1.33333 1.91666,-1.91667 1.91666,-24.58334 0,-26.5 -1,-1.08334 -3.25,-1.33334 -10.41667,-1.33334 h -9.08333 V 164.25 c 0,-7.16667 -0.25,-9.41667 -1.33334,-10.41667 -1.08333,-1.08333 -3.5,-1.33333 -13.25,-1.33333 -9.75,0 -12.16666,0.25 -13.25,1.33333 -1.08333,1 -1.33333,3.25 -1.33333,10.41667 v 9.08333 h -9.08333 c -7.16667,0 -9.41667,0.25 -10.41667,1.33334 -1.91667,1.91666 -1.91667,24.58333 0,26.5 1,1.08333 3.25,1.33333 10.41667,1.33333 H 172.5 v 9.08333 c 0,7.16667 0.25,9.41667 1.33333,10.41667 1.91667,1.91667 24.58334,1.91667 26.5,0 z"
       id="path2009"
       style="fill:none;stroke-width:0.08333334"
       inkscape:connector-curvature="0" />
    <path
       d="M 177.5,207.91667 V 197.5 h -10.41667 -10.41666 v -9.58333 -9.58334 H 167.08333 177.5 V 167.91667 157.5 h 9.58333 9.58334 v 10.41667 10.41666 H 207.08333 217.5 v 9.58334 9.58333 h -10.41667 -10.41666 v 10.41667 10.41666 H 187.08333 177.5 Z"
       id="path2011"
       inkscape:connector-curvature="0"
       style="stroke-width:0.08333334;fill:#ffffff;fill-opacity:1" />
  </g>
</svg>
