G04 #@! TF.GenerationSoftware,KiCad,Pcbnew,(5.1.5-0-10_14)*
G04 #@! TF.CreationDate,2020-04-05T13:02:15-04:00*
G04 #@! TF.ProjectId,indexingWheel,696e6465-7869-46e6-9757-6865656c2e6b,rev?*
G04 #@! TF.SameCoordinates,Original*
G04 #@! TF.FileFunction,Soldermask,Top*
G04 #@! TF.FilePolarity,Negative*
%FSLAX46Y46*%
G04 Gerber Fmt 4.6, Leading zero omitted, Abs format (unit mm)*
G04 Created by KiCad (PCBNEW (5.1.5-0-10_14)) date 2020-04-05 13:02:15*
%MOMM*%
%LPD*%
G04 APERTURE LIST*
%ADD10C,0.300000*%
G04 APERTURE END LIST*
D10*
X149200000Y-107303571D02*
X149200000Y-105803571D01*
X149914285Y-107303571D02*
X149914285Y-105803571D01*
X150771428Y-107303571D01*
X150771428Y-105803571D01*
X151485714Y-107303571D02*
X151485714Y-105803571D01*
X151842857Y-105803571D01*
X152057142Y-105875000D01*
X152200000Y-106017857D01*
X152271428Y-106160714D01*
X152342857Y-106446428D01*
X152342857Y-106660714D01*
X152271428Y-106946428D01*
X152200000Y-107089285D01*
X152057142Y-107232142D01*
X151842857Y-107303571D01*
X151485714Y-107303571D01*
X152985714Y-106517857D02*
X153485714Y-106517857D01*
X153700000Y-107303571D02*
X152985714Y-107303571D01*
X152985714Y-105803571D01*
X153700000Y-105803571D01*
X154200000Y-105803571D02*
X155200000Y-107303571D01*
X155200000Y-105803571D02*
X154200000Y-107303571D01*
X155771428Y-107303571D02*
X155771428Y-105803571D01*
X156485714Y-107303571D02*
X156485714Y-105803571D01*
X157342857Y-107303571D01*
X157342857Y-105803571D01*
X158842857Y-105875000D02*
X158700000Y-105803571D01*
X158485714Y-105803571D01*
X158271428Y-105875000D01*
X158128571Y-106017857D01*
X158057142Y-106160714D01*
X157985714Y-106446428D01*
X157985714Y-106660714D01*
X158057142Y-106946428D01*
X158128571Y-107089285D01*
X158271428Y-107232142D01*
X158485714Y-107303571D01*
X158628571Y-107303571D01*
X158842857Y-107232142D01*
X158914285Y-107160714D01*
X158914285Y-106660714D01*
X158628571Y-106660714D01*
X160557142Y-105803571D02*
X160914285Y-107303571D01*
X161200000Y-106232142D01*
X161485714Y-107303571D01*
X161842857Y-105803571D01*
X162414285Y-107303571D02*
X162414285Y-105803571D01*
X162414285Y-106517857D02*
X163271428Y-106517857D01*
X163271428Y-107303571D02*
X163271428Y-105803571D01*
X163985714Y-106517857D02*
X164485714Y-106517857D01*
X164700000Y-107303571D02*
X163985714Y-107303571D01*
X163985714Y-105803571D01*
X164700000Y-105803571D01*
X165342857Y-106517857D02*
X165842857Y-106517857D01*
X166057142Y-107303571D02*
X165342857Y-107303571D01*
X165342857Y-105803571D01*
X166057142Y-105803571D01*
X167414285Y-107303571D02*
X166700000Y-107303571D01*
X166700000Y-105803571D01*
X154985714Y-108853571D02*
X155342857Y-109853571D01*
X155700000Y-108853571D01*
X156557142Y-108353571D02*
X156700000Y-108353571D01*
X156842857Y-108425000D01*
X156914285Y-108496428D01*
X156985714Y-108639285D01*
X157057142Y-108925000D01*
X157057142Y-109282142D01*
X156985714Y-109567857D01*
X156914285Y-109710714D01*
X156842857Y-109782142D01*
X156700000Y-109853571D01*
X156557142Y-109853571D01*
X156414285Y-109782142D01*
X156342857Y-109710714D01*
X156271428Y-109567857D01*
X156200000Y-109282142D01*
X156200000Y-108925000D01*
X156271428Y-108639285D01*
X156342857Y-108496428D01*
X156414285Y-108425000D01*
X156557142Y-108353571D01*
X157700000Y-109710714D02*
X157771428Y-109782142D01*
X157700000Y-109853571D01*
X157628571Y-109782142D01*
X157700000Y-109710714D01*
X157700000Y-109853571D01*
X158342857Y-108496428D02*
X158414285Y-108425000D01*
X158557142Y-108353571D01*
X158914285Y-108353571D01*
X159057142Y-108425000D01*
X159128571Y-108496428D01*
X159200000Y-108639285D01*
X159200000Y-108782142D01*
X159128571Y-108996428D01*
X158271428Y-109853571D01*
X159200000Y-109853571D01*
X159842857Y-109710714D02*
X159914285Y-109782142D01*
X159842857Y-109853571D01*
X159771428Y-109782142D01*
X159842857Y-109710714D01*
X159842857Y-109853571D01*
X160842857Y-108353571D02*
X160985714Y-108353571D01*
X161128571Y-108425000D01*
X161200000Y-108496428D01*
X161271428Y-108639285D01*
X161342857Y-108925000D01*
X161342857Y-109282142D01*
X161271428Y-109567857D01*
X161200000Y-109710714D01*
X161128571Y-109782142D01*
X160985714Y-109853571D01*
X160842857Y-109853571D01*
X160700000Y-109782142D01*
X160628571Y-109710714D01*
X160557142Y-109567857D01*
X160485714Y-109282142D01*
X160485714Y-108925000D01*
X160557142Y-108639285D01*
X160628571Y-108496428D01*
X160700000Y-108425000D01*
X160842857Y-108353571D01*
M02*
