G04 #@! TF.GenerationSoftware,KiCad,Pcbnew,5.1.9+dfsg1-1~bpo10+1*
G04 #@! TF.CreationDate,2021-05-15T01:04:23+00:00*
G04 #@! TF.ProjectId,indexingWheel,696e6465-7869-46e6-9757-6865656c2e6b,rev?*
G04 #@! TF.SameCoordinates,Original*
G04 #@! TF.FileFunction,Legend,Bot*
G04 #@! TF.FilePolarity,Positive*
%FSLAX46Y46*%
G04 Gerber Fmt 4.6, Leading zero omitted, Abs format (unit mm)*
G04 Created by KiCad (PCBNEW 5.1.9+dfsg1-1~bpo10+1) date 2021-05-15 01:04:23*
%MOMM*%
%LPD*%
G01*
G04 APERTURE LIST*
%ADD10C,0.150000*%
%ADD11C,0.100000*%
%ADD12C,0.010000*%
G04 APERTURE END LIST*
D10*
X2423794Y-9152380D02*
X2298794Y-8152380D01*
X2417842Y-9104761D02*
X2519032Y-9152380D01*
X2709508Y-9152380D01*
X2798794Y-9104761D01*
X2840461Y-9057142D01*
X2876175Y-8961904D01*
X2840461Y-8676190D01*
X2780937Y-8580952D01*
X2727366Y-8533333D01*
X2626175Y-8485714D01*
X2435699Y-8485714D01*
X2346413Y-8533333D01*
X1513080Y-9104761D02*
X1614270Y-9152380D01*
X1804747Y-9152380D01*
X1894032Y-9104761D01*
X1935699Y-9057142D01*
X1971413Y-8961904D01*
X1935699Y-8676190D01*
X1876175Y-8580952D01*
X1822604Y-8533333D01*
X1721413Y-8485714D01*
X1530937Y-8485714D01*
X1441651Y-8533333D01*
X1042842Y-9152380D02*
X852366Y-9152380D01*
X751175Y-9104761D01*
X697604Y-9057142D01*
X584508Y-8914285D01*
X513080Y-8723809D01*
X465461Y-8342857D01*
X501175Y-8247619D01*
X542842Y-8200000D01*
X632127Y-8152380D01*
X822604Y-8152380D01*
X923794Y-8200000D01*
X977366Y-8247619D01*
X1036889Y-8342857D01*
X1066651Y-8580952D01*
X1030937Y-8676190D01*
X989270Y-8723809D01*
X899985Y-8771428D01*
X709508Y-8771428D01*
X608318Y-8723809D01*
X554747Y-8676190D01*
X495223Y-8580952D01*
X138080Y-9152380D02*
X13080Y-8152380D01*
X60699Y-8533333D02*
X-40491Y-8485714D01*
X-230967Y-8485714D01*
X-320252Y-8533333D01*
X-361919Y-8580952D01*
X-397633Y-8676190D01*
X-361919Y-8961904D01*
X-302395Y-9057142D01*
X-248824Y-9104761D01*
X-147633Y-9152380D01*
X42842Y-9152380D01*
X132127Y-9104761D01*
X-1201205Y-9104761D02*
X-1100014Y-9152380D01*
X-909538Y-9152380D01*
X-820252Y-9104761D01*
X-778586Y-9057142D01*
X-742872Y-8961904D01*
X-778586Y-8676190D01*
X-838110Y-8580952D01*
X-891681Y-8533333D01*
X-992872Y-8485714D01*
X-1183348Y-8485714D01*
X-1272633Y-8533333D01*
X-2225014Y-8152380D02*
X-1748824Y-8152380D01*
X-1641681Y-8628571D01*
X-1695252Y-8580952D01*
X-1796443Y-8533333D01*
X-2034538Y-8533333D01*
X-2123824Y-8580952D01*
X-2165491Y-8628571D01*
X-2201205Y-8723809D01*
X-2171443Y-8961904D01*
X-2111919Y-9057142D01*
X-2058348Y-9104761D01*
X-1957157Y-9152380D01*
X-1719062Y-9152380D01*
X-1629776Y-9104761D01*
X-1588110Y-9057142D01*
X-2790491Y-8580952D02*
X-2701205Y-8533333D01*
X-2659538Y-8485714D01*
X-2623824Y-8390476D01*
X-2629776Y-8342857D01*
X-2689300Y-8247619D01*
X-2742872Y-8200000D01*
X-2844062Y-8152380D01*
X-3034538Y-8152380D01*
X-3123824Y-8200000D01*
X-3165491Y-8247619D01*
X-3201205Y-8342857D01*
X-3195252Y-8390476D01*
X-3135729Y-8485714D01*
X-3082157Y-8533333D01*
X-2980967Y-8580952D01*
X-2790491Y-8580952D01*
X-2689300Y-8628571D01*
X-2635729Y-8676190D01*
X-2576205Y-8771428D01*
X-2552395Y-8961904D01*
X-2588110Y-9057142D01*
X-2629776Y-9104761D01*
X-2719062Y-9152380D01*
X-2909538Y-9152380D01*
X-3010729Y-9104761D01*
X-3064300Y-9057142D01*
X-3123824Y-8961904D01*
X-3147633Y-8771428D01*
X-3111919Y-8676190D01*
X-3070252Y-8628571D01*
X-2980967Y-8580952D01*
D11*
G36*
X2754150Y-6353330D02*
G01*
X2510310Y-6353330D01*
X2399820Y-6311420D01*
X2344575Y-6185690D01*
X2399820Y-6059007D01*
X2514120Y-6016145D01*
X2754150Y-6016145D01*
X2754150Y-6353330D01*
G37*
G36*
X-1318740Y-6762905D02*
G01*
X-1404584Y-6739569D01*
X-1465901Y-6669560D01*
X-1502692Y-6552879D01*
X-1514955Y-6389525D01*
X-1514955Y-6378095D01*
X-1502811Y-6210574D01*
X-1466377Y-6090916D01*
X-1405656Y-6019122D01*
X-1320645Y-5995190D01*
X-1235634Y-6019181D01*
X-1174912Y-6091154D01*
X-1138479Y-6211110D01*
X-1126335Y-6379047D01*
X-1138360Y-6546985D01*
X-1174436Y-6666941D01*
X-1234563Y-6738914D01*
X-1318740Y-6762905D01*
G37*
G36*
X3091335Y-5419880D02*
G01*
X2921790Y-5678960D01*
X2510310Y-5678960D01*
X2399608Y-5692507D01*
X2291023Y-5733147D01*
X2184555Y-5800880D01*
X2115023Y-5870412D01*
X2058825Y-5960900D01*
X2021678Y-6067580D01*
X2009295Y-6185690D01*
X2025170Y-6320733D01*
X1889280Y-6905780D01*
X1889280Y-5846600D01*
X1853085Y-5714202D01*
X1715925Y-5678960D01*
X965355Y-5678960D01*
X899633Y-5681817D01*
X849150Y-5699915D01*
X693416Y-5758017D01*
X609120Y-5699915D01*
X512918Y-5667530D01*
X462435Y-5675150D01*
X430050Y-5701820D01*
X398618Y-5752302D01*
X373138Y-5805642D01*
X325275Y-5910417D01*
X264077Y-6044958D01*
X198593Y-6187595D01*
X132870Y-6330232D01*
X70958Y-6464773D01*
X24047Y-6566452D01*
X3330Y-6610505D01*
X-377670Y-5776115D01*
X-404340Y-5718965D01*
X-488160Y-5667530D01*
X-600555Y-5699915D01*
X-684851Y-5758017D01*
X-712950Y-5821835D01*
X-684375Y-5913275D01*
X-881304Y-5931611D01*
X-933930Y-5839932D01*
X-1000367Y-5768971D01*
X-1089187Y-5710392D01*
X-1197058Y-5671102D01*
X-1320645Y-5658005D01*
X-1443756Y-5670864D01*
X-1550197Y-5709440D01*
X-1637827Y-5767066D01*
X-1704502Y-5837075D01*
X-1755223Y-5919942D01*
X-1794990Y-6016145D01*
X-1826740Y-6132773D01*
X-1845790Y-6254058D01*
X-1852140Y-6380000D01*
X-1842853Y-6543473D01*
X-1814992Y-6689086D01*
X-1768558Y-6816840D01*
X-1965249Y-6808863D01*
X-2018827Y-6718138D01*
X-2097647Y-6637651D01*
X-2191230Y-6569548D01*
X-2292195Y-6508111D01*
X-2393160Y-6447628D01*
X-2486743Y-6383572D01*
X-2565562Y-6311420D01*
X-2619141Y-6232839D01*
X-2637000Y-6149495D01*
X-2623665Y-6100917D01*
X-2594137Y-6049482D01*
X-2543655Y-6012335D01*
X-2448405Y-5995190D01*
X-2342677Y-6039957D01*
X-2292195Y-6128540D01*
X-2284575Y-6172355D01*
X-2284575Y-6183785D01*
X-2281717Y-6246650D01*
X-2263620Y-6294275D01*
X-2212185Y-6328565D01*
X-2115030Y-6339995D01*
X-2008826Y-6321897D01*
X-1956915Y-6267605D01*
X-1947390Y-6170450D01*
X-1963159Y-6042921D01*
X-2010467Y-5924493D01*
X-2089312Y-5815167D01*
X-2193664Y-5727855D01*
X-2317489Y-5675467D01*
X-2460787Y-5658005D01*
X-2604192Y-5675679D01*
X-2728334Y-5728702D01*
X-2833215Y-5817072D01*
X-2912590Y-5928092D01*
X-2960215Y-6049059D01*
X-2976090Y-6179975D01*
X-2964184Y-6285702D01*
X-2928465Y-6385715D01*
X-2876077Y-6473345D01*
X-2814165Y-6541925D01*
X-2680815Y-6647176D01*
X-2562705Y-6711470D01*
X-2515080Y-6730520D01*
X-2515080Y-6740045D01*
X-2863695Y-6740045D01*
X-2975137Y-6758143D01*
X-3019905Y-6813388D01*
X-3031335Y-6910543D01*
X-3018952Y-7006745D01*
X-2977995Y-7056275D01*
X-2859885Y-7079135D01*
X-2115030Y-7079135D01*
X-1996920Y-7027700D01*
X-1947390Y-6907685D01*
X-1965249Y-6808863D01*
X-1768558Y-6816840D01*
X-1703550Y-6926735D01*
X-1637589Y-6996268D01*
X-1550197Y-7052465D01*
X-1444232Y-7089613D01*
X-1322550Y-7101995D01*
X-1200392Y-7089374D01*
X-1092997Y-7051513D01*
X-1003939Y-6995077D01*
X-936787Y-6926735D01*
X-885591Y-6845296D01*
X-844395Y-6749570D01*
X-813703Y-6635482D01*
X-795288Y-6511657D01*
X-789150Y-6378095D01*
X-794124Y-6257233D01*
X-809047Y-6148648D01*
X-833917Y-6052340D01*
X-881304Y-5931611D01*
X-684375Y-5913275D01*
X-158595Y-6980075D01*
X-94777Y-7047703D01*
X-6195Y-7073420D01*
X12855Y-7073420D01*
X103343Y-7047703D01*
X167160Y-6980075D01*
X692940Y-5913275D01*
X721515Y-5821835D01*
X693416Y-5758017D01*
X849150Y-5699915D01*
X810574Y-5750397D01*
X797715Y-5848505D01*
X815336Y-5954232D01*
X868200Y-6004715D01*
X967260Y-6016145D01*
X1552095Y-6016145D01*
X1552095Y-6208550D01*
X1174905Y-6208550D01*
X1109183Y-6211407D01*
X1058700Y-6229505D01*
X1020124Y-6279987D01*
X1007265Y-6378095D01*
X1025363Y-6483823D01*
X1079655Y-6534305D01*
X1178715Y-6545735D01*
X1552095Y-6545735D01*
X1552095Y-6738140D01*
X965355Y-6738140D01*
X899633Y-6740998D01*
X849150Y-6759095D01*
X810574Y-6809578D01*
X797715Y-6907685D01*
X815336Y-7013413D01*
X868200Y-7063895D01*
X967260Y-7075325D01*
X1721640Y-7075325D01*
X1827368Y-7057228D01*
X1877850Y-7002935D01*
X1889280Y-6905780D01*
X2025170Y-6320733D01*
X2072795Y-6438843D01*
X2152170Y-6540020D01*
X2119150Y-6618125D01*
X2075970Y-6717820D01*
X2022630Y-6839105D01*
X1994055Y-6938165D01*
X2023583Y-7004840D01*
X2112165Y-7060085D01*
X2210273Y-7086755D01*
X2271233Y-7068658D01*
X2306475Y-7031510D01*
X2331452Y-6977112D01*
X2380982Y-6862177D01*
X2455065Y-6686705D01*
X2514120Y-6690515D01*
X2754150Y-6690515D01*
X2754150Y-6905780D01*
X2757008Y-6971503D01*
X2775105Y-7021985D01*
X2825588Y-7060561D01*
X2923695Y-7073420D01*
X3029423Y-7055799D01*
X3079905Y-7002935D01*
X3091335Y-6903875D01*
X3091335Y-5846600D01*
X3088478Y-5780877D01*
X3070380Y-5730395D01*
X3019898Y-5691819D01*
X2921790Y-5678960D01*
X3091335Y-5419880D01*
X3091494Y-5419880D01*
X3185602Y-5424503D01*
X3278804Y-5438328D01*
X3370202Y-5461222D01*
X3458916Y-5492965D01*
X3544091Y-5533250D01*
X3624908Y-5581689D01*
X3700587Y-5637817D01*
X3770401Y-5701093D01*
X3833677Y-5770906D01*
X3889804Y-5846586D01*
X3938244Y-5927403D01*
X3978529Y-6012578D01*
X4010271Y-6101292D01*
X4033165Y-6192690D01*
X4046991Y-6285892D01*
X4051614Y-6380000D01*
X4046991Y-6474108D01*
X4033165Y-6567310D01*
X4010271Y-6658708D01*
X3978529Y-6747422D01*
X3938244Y-6832597D01*
X3889804Y-6913414D01*
X3833677Y-6989094D01*
X3770401Y-7058907D01*
X3700587Y-7122183D01*
X3624908Y-7178311D01*
X3544091Y-7226750D01*
X3458916Y-7267035D01*
X3370202Y-7298778D01*
X3278804Y-7321672D01*
X3185602Y-7335497D01*
X3091494Y-7340120D01*
X3091335Y-7340120D01*
X-3031335Y-7340120D01*
X-3031494Y-7340120D01*
X-3125602Y-7335497D01*
X-3218804Y-7321672D01*
X-3310202Y-7298778D01*
X-3398916Y-7267035D01*
X-3484091Y-7226750D01*
X-3564908Y-7178311D01*
X-3640587Y-7122183D01*
X-3710401Y-7058907D01*
X-3773677Y-6989094D01*
X-3829804Y-6913414D01*
X-3878244Y-6832597D01*
X-3918529Y-6747422D01*
X-3950271Y-6658708D01*
X-3973165Y-6567310D01*
X-3986991Y-6474108D01*
X-3991614Y-6380000D01*
X-3986991Y-6285892D01*
X-3973165Y-6192690D01*
X-3950271Y-6101292D01*
X-3918529Y-6012578D01*
X-3878244Y-5927403D01*
X-3829804Y-5846586D01*
X-3773677Y-5770906D01*
X-3710401Y-5701093D01*
X-3640587Y-5637817D01*
X-3564908Y-5581689D01*
X-3484091Y-5533250D01*
X-3398916Y-5492965D01*
X-3310202Y-5461222D01*
X-3218804Y-5438328D01*
X-3125602Y-5424503D01*
X-3031494Y-5419880D01*
X-3031335Y-5419880D01*
X3091335Y-5419880D01*
G37*
G36*
X-8042910Y-4010020D02*
G01*
X-8115300Y-3949060D01*
X-8081963Y-3878575D01*
X-7986713Y-3851905D01*
X-7863840Y-3902388D01*
X-7802880Y-4010020D01*
X-8042910Y-4010020D01*
G37*
G36*
X-1451610Y-4010020D02*
G01*
X-1524000Y-3949060D01*
X-1490663Y-3878575D01*
X-1395413Y-3851905D01*
X-1272540Y-3902388D01*
X-1211580Y-4010020D01*
X-1451610Y-4010020D01*
G37*
G36*
X779145Y-4010020D02*
G01*
X706755Y-3949060D01*
X740092Y-3878575D01*
X835342Y-3851905D01*
X958215Y-3902388D01*
X1019175Y-4010020D01*
X779145Y-4010020D01*
G37*
G36*
X1870710Y-4010020D02*
G01*
X1798320Y-3949060D01*
X1831657Y-3878575D01*
X1926907Y-3851905D01*
X2049780Y-3902388D01*
X2110740Y-4010020D01*
X1870710Y-4010020D01*
G37*
G36*
X-6951345Y-4010020D02*
G01*
X-7023735Y-3949060D01*
X-6990398Y-3878575D01*
X-6895148Y-3851905D01*
X-6772275Y-3902388D01*
X-6711315Y-4010020D01*
X-6951345Y-4010020D01*
G37*
G36*
X5737860Y-4010020D02*
G01*
X5665470Y-3949060D01*
X5698807Y-3878575D01*
X5794057Y-3851905D01*
X5916930Y-3902388D01*
X5977890Y-4010020D01*
X5737860Y-4010020D01*
G37*
G36*
X-110490Y-4189090D02*
G01*
X-230505Y-4240525D01*
X-347663Y-4189090D01*
X-394335Y-4075743D01*
X-349568Y-3960490D01*
X-228600Y-3907150D01*
X-106680Y-3959538D01*
X-60960Y-4074790D01*
X-110490Y-4189090D01*
G37*
G36*
X7078980Y-4189090D02*
G01*
X6958965Y-4240525D01*
X6841807Y-4189090D01*
X6795135Y-4075743D01*
X6839902Y-3960490D01*
X6960870Y-3907150D01*
X7082790Y-3959538D01*
X7128510Y-4074790D01*
X7078980Y-4189090D01*
G37*
G36*
X9086850Y-2861305D02*
G01*
X9086850Y-3347080D01*
X9083992Y-3281357D01*
X9065895Y-3230875D01*
X9015412Y-3192299D01*
X8917305Y-3179440D01*
X8811101Y-3197061D01*
X8759190Y-3249925D01*
X6789420Y-3268975D01*
X6786562Y-3203252D01*
X6769417Y-3153722D01*
X6718935Y-3114670D01*
X6622732Y-3103240D01*
X6526530Y-3114670D01*
X6476047Y-3154675D01*
X6458902Y-3205157D01*
X6456045Y-3270880D01*
X6176962Y-3694742D01*
X6064885Y-3614838D01*
X5935662Y-3566896D01*
X5789295Y-3550915D01*
X5665708Y-3562583D01*
X5559742Y-3597588D01*
X5471398Y-3655928D01*
X5400675Y-3737605D01*
X5352097Y-3841189D01*
X5335905Y-3953823D01*
X5350431Y-4055740D01*
X5394007Y-4127178D01*
X5522595Y-4183375D01*
X5974080Y-4183375D01*
X5911215Y-4272910D01*
X5785485Y-4309105D01*
X5686901Y-4303390D01*
X5612130Y-4286245D01*
X5591175Y-4278625D01*
X5514975Y-4257670D01*
X5191125Y-4286245D01*
X4979670Y-4072885D01*
X5191125Y-3859525D01*
X5259705Y-3742367D01*
X5190172Y-3625210D01*
X5073967Y-3556630D01*
X4958715Y-3625210D01*
X4747260Y-3838570D01*
X4537710Y-3625210D01*
X4421505Y-3556630D01*
X4305300Y-3625210D01*
X4236720Y-3742367D01*
X4305300Y-3859525D01*
X4516755Y-4072885D01*
X4305300Y-4286245D01*
X4236720Y-4403403D01*
X4305300Y-4519608D01*
X4421505Y-4587235D01*
X4537710Y-4518655D01*
X4747260Y-4307200D01*
X4958715Y-4518655D01*
X5073967Y-4587235D01*
X5190172Y-4519608D01*
X5259705Y-4403403D01*
X5191125Y-4286245D01*
X5514975Y-4257670D01*
X5410200Y-4343395D01*
X5385435Y-4431025D01*
X5410795Y-4505201D01*
X5486876Y-4558184D01*
X5613678Y-4589973D01*
X5791200Y-4600570D01*
X5924312Y-4588426D01*
X6041707Y-4551993D01*
X6139101Y-4495557D01*
X6212205Y-4423405D01*
X6278880Y-4316513D01*
X6318885Y-4201578D01*
X6332220Y-4078600D01*
X6314969Y-3929269D01*
X6263217Y-3801317D01*
X6176962Y-3694742D01*
X6456045Y-3270880D01*
X6456045Y-4408165D01*
X6458902Y-4473888D01*
X6477000Y-4522465D01*
X6531531Y-4561041D01*
X6637972Y-4573900D01*
X6741081Y-4550564D01*
X6785610Y-4480555D01*
X6881336Y-4549135D01*
X7008495Y-4571995D01*
X7119408Y-4555379D01*
X7223548Y-4505532D01*
X7320915Y-4422453D01*
X7399232Y-4317254D01*
X7446222Y-4201049D01*
X7461885Y-4073838D01*
X7446116Y-3946520D01*
X7398808Y-3829997D01*
X7319962Y-3724270D01*
X7222278Y-3640662D01*
X7118456Y-3590497D01*
X7008495Y-3573775D01*
X6883241Y-3597588D01*
X6789420Y-3669025D01*
X6789420Y-3268975D01*
X8759190Y-3249925D01*
X8749665Y-3348985D01*
X8039100Y-3571870D01*
X7919191Y-3588062D01*
X7813463Y-3636640D01*
X7721917Y-3717602D01*
X7651538Y-3821848D01*
X7609311Y-3940276D01*
X7595235Y-4072885D01*
X7595235Y-4408165D01*
X7598092Y-4473888D01*
X7614285Y-4522465D01*
X7664767Y-4561041D01*
X7762875Y-4573900D01*
X7869555Y-4556279D01*
X7919085Y-4503415D01*
X7930515Y-4406260D01*
X7930515Y-4070980D01*
X7975282Y-3949060D01*
X8095297Y-3905245D01*
X8217217Y-3950965D01*
X8263890Y-4070980D01*
X8263890Y-4408165D01*
X8266747Y-4473888D01*
X8284845Y-4522465D01*
X8333899Y-4561041D01*
X8431530Y-4573900D01*
X8528209Y-4561041D01*
X8578215Y-4522465D01*
X8594407Y-4471983D01*
X8597265Y-4406260D01*
X8597265Y-3731890D01*
X8594407Y-3668072D01*
X8576310Y-3619495D01*
X8526304Y-3583776D01*
X8429625Y-3571870D01*
X8335804Y-3582824D01*
X8286750Y-3615685D01*
X8267700Y-3693790D01*
X8233410Y-3655690D01*
X8181975Y-3615685D01*
X8039100Y-3571870D01*
X8749665Y-3348985D01*
X8749665Y-4408165D01*
X8752522Y-4474840D01*
X8770620Y-4524370D01*
X8821102Y-4562946D01*
X8919210Y-4575805D01*
X9024937Y-4557708D01*
X9075420Y-4503415D01*
X9086850Y-4406260D01*
X9086850Y-3347080D01*
X9086850Y-2861305D01*
X9087009Y-2861305D01*
X9183918Y-2866066D01*
X9279893Y-2880302D01*
X9374012Y-2903878D01*
X9465366Y-2936565D01*
X9553076Y-2978049D01*
X9636298Y-3027930D01*
X9714230Y-3085728D01*
X9786122Y-3150887D01*
X9851280Y-3222779D01*
X9909078Y-3300710D01*
X9958960Y-3383932D01*
X10000444Y-3471643D01*
X10033131Y-3562997D01*
X10056706Y-3657115D01*
X10070943Y-3753091D01*
X10075704Y-3850000D01*
X10070943Y-3946909D01*
X10056706Y-4042885D01*
X10033131Y-4137003D01*
X10000444Y-4228357D01*
X9958960Y-4316068D01*
X9909078Y-4399290D01*
X9851280Y-4477221D01*
X9786122Y-4549113D01*
X9714230Y-4614272D01*
X9636298Y-4672070D01*
X9553076Y-4721951D01*
X9465366Y-4763435D01*
X9374012Y-4796122D01*
X9279893Y-4819698D01*
X9183918Y-4833934D01*
X9087009Y-4838695D01*
X9086850Y-4838695D01*
X-9086850Y-4838695D01*
X-9048750Y-4556755D01*
X-8964930Y-4576758D01*
X-8812530Y-4568185D01*
X-8691563Y-4534371D01*
X-8622030Y-4471030D01*
X-8582025Y-4350062D01*
X-8568690Y-4173850D01*
X-8568690Y-3267070D01*
X-8571548Y-3201347D01*
X-8587740Y-3150865D01*
X-8638223Y-3112289D01*
X-8736330Y-3099430D01*
X-8830628Y-3112289D01*
X-8881110Y-3150865D01*
X-8899208Y-3202300D01*
X-8902065Y-3268975D01*
X-8902065Y-4150990D01*
X-8913495Y-4237668D01*
X-8963978Y-4255765D01*
X-9016365Y-4258623D01*
X-9048750Y-4274815D01*
X-9086850Y-4410070D01*
X-9077325Y-4506749D01*
X-9048750Y-4556755D01*
X-9086850Y-4838695D01*
X-9087009Y-4838695D01*
X-9183918Y-4833934D01*
X-9279894Y-4819697D01*
X-9374012Y-4796122D01*
X-9465366Y-4763435D01*
X-9553076Y-4721951D01*
X-9636298Y-4672070D01*
X-9714230Y-4614271D01*
X-9786122Y-4549113D01*
X-9851280Y-4477221D01*
X-9909079Y-4399289D01*
X-9958960Y-4316068D01*
X-10000444Y-4228357D01*
X-10033131Y-4137003D01*
X-10056706Y-4042885D01*
X-10070943Y-3946909D01*
X-10075704Y-3850000D01*
X-10070943Y-3753091D01*
X-10056706Y-3657115D01*
X-10033131Y-3562997D01*
X-10000444Y-3471643D01*
X-9958960Y-3383932D01*
X-9909079Y-3300711D01*
X-9851280Y-3222779D01*
X-9786122Y-3150887D01*
X-9714230Y-3085729D01*
X-9636298Y-3027930D01*
X-9553076Y-2978049D01*
X-9465366Y-2936565D01*
X-733425Y-3270880D01*
X-733425Y-4408165D01*
X-977265Y-4423405D01*
X-910590Y-4316513D01*
X-870585Y-4201578D01*
X-857250Y-4078600D01*
X-874501Y-3929269D01*
X-926253Y-3801317D01*
X-1012508Y-3694742D01*
X-1124585Y-3614838D01*
X-1253808Y-3566896D01*
X-1400175Y-3550915D01*
X-1523762Y-3562583D01*
X-1629728Y-3597588D01*
X-1718072Y-3655928D01*
X-1788795Y-3737605D01*
X-1837373Y-3841189D01*
X-1853565Y-3953823D01*
X-1839039Y-4055740D01*
X-1795463Y-4127178D01*
X-1666875Y-4183375D01*
X-1977390Y-4406260D01*
X-1977390Y-3737605D01*
X-1980248Y-3671882D01*
X-1996440Y-3623305D01*
X-2046923Y-3584729D01*
X-2145030Y-3571870D01*
X-2237899Y-3582824D01*
X-2287905Y-3615685D01*
X-2308860Y-3678550D01*
X-2336483Y-3646165D01*
X-2413635Y-3594730D01*
X-2517458Y-3562345D01*
X-2592705Y-3567107D01*
X-2659380Y-3583300D01*
X-2719388Y-3622352D01*
X-2743200Y-3710935D01*
X-2707005Y-3844285D01*
X-2602230Y-3916675D01*
X-2536508Y-3901435D01*
X-2453640Y-3886195D01*
X-2357438Y-3922390D01*
X-2312670Y-4010020D01*
X-3670935Y-4459600D01*
X-3303270Y-3402325D01*
X-3282315Y-3308980D01*
X-3314224Y-3240876D01*
X-3409950Y-3188965D01*
X-3509963Y-3169915D01*
X-3578543Y-3200395D01*
X-3621405Y-3293740D01*
X-3830955Y-3930010D01*
X-4038600Y-3303265D01*
X-4076224Y-3235637D01*
X-4135755Y-3192775D01*
X-4214813Y-3179440D01*
X-4305300Y-3210872D01*
X-4358640Y-3272785D01*
X-4577715Y-3933820D01*
X-4787265Y-3293740D01*
X-4812030Y-3228970D01*
X-4847273Y-3188012D01*
X-4911090Y-3168010D01*
X-5000625Y-3187060D01*
X-5096351Y-3240400D01*
X-5128260Y-3308980D01*
X-5105400Y-3402325D01*
X-5233035Y-4408165D01*
X-5233035Y-3268975D01*
X-5235893Y-3203252D01*
X-5252085Y-3154675D01*
X-5302568Y-3116099D01*
X-5400675Y-3103240D01*
X-5496878Y-3116099D01*
X-5545455Y-3154675D01*
X-5563553Y-3205157D01*
X-5566410Y-3270880D01*
X-5566410Y-3691885D01*
X-5669756Y-3604731D01*
X-5789295Y-3575680D01*
X-5909204Y-3591767D01*
X-6014932Y-3640027D01*
X-6374236Y-3929269D01*
X-6425988Y-3801317D01*
X-6512243Y-3694742D01*
X-6624320Y-3614838D01*
X-6753543Y-3566896D01*
X-6899910Y-3550915D01*
X-7023497Y-3562583D01*
X-7129463Y-3597588D01*
X-7217807Y-3655928D01*
X-7288530Y-3737605D01*
X-7337108Y-3841189D01*
X-7465801Y-3929269D01*
X-7517553Y-3801317D01*
X-7603808Y-3694742D01*
X-7715885Y-3614838D01*
X-7845108Y-3566896D01*
X-7991475Y-3550915D01*
X-8115062Y-3562583D01*
X-8221028Y-3597588D01*
X-8309372Y-3655928D01*
X-8380095Y-3737605D01*
X-8428673Y-3841189D01*
X-8444865Y-3953823D01*
X-8430339Y-4055740D01*
X-8386763Y-4127178D01*
X-8258175Y-4183375D01*
X-7806690Y-4183375D01*
X-7869555Y-4272910D01*
X-7995285Y-4309105D01*
X-8093869Y-4303390D01*
X-8168640Y-4286245D01*
X-8189595Y-4278625D01*
X-8265795Y-4257670D01*
X-8370570Y-4343395D01*
X-8395335Y-4431025D01*
X-8369975Y-4505201D01*
X-8293894Y-4558184D01*
X-8167092Y-4589973D01*
X-7989570Y-4600570D01*
X-7856458Y-4588426D01*
X-7739063Y-4551993D01*
X-7641669Y-4495557D01*
X-7568565Y-4423405D01*
X-7501890Y-4316513D01*
X-7461885Y-4201578D01*
X-7448550Y-4078600D01*
X-7465801Y-3929269D01*
X-7337108Y-3841189D01*
X-7353300Y-3953823D01*
X-7338774Y-4055740D01*
X-7295198Y-4127178D01*
X-7166610Y-4183375D01*
X-6715125Y-4183375D01*
X-6777990Y-4272910D01*
X-6903720Y-4309105D01*
X-7002304Y-4303390D01*
X-7077075Y-4286245D01*
X-7098030Y-4278625D01*
X-7174230Y-4257670D01*
X-7279005Y-4343395D01*
X-7303770Y-4431025D01*
X-7278410Y-4505201D01*
X-7202329Y-4558184D01*
X-7075527Y-4589973D01*
X-6898005Y-4600570D01*
X-6764893Y-4588426D01*
X-6647498Y-4551993D01*
X-6550104Y-4495557D01*
X-6477000Y-4423405D01*
X-6410325Y-4316513D01*
X-6370320Y-4201578D01*
X-6356985Y-4078600D01*
X-6374236Y-3929269D01*
X-6014932Y-3640027D01*
X-6106478Y-3720460D01*
X-6176857Y-3824177D01*
X-6219084Y-3942287D01*
X-6233160Y-4074790D01*
X-6233160Y-4410070D01*
X-6230303Y-4475793D01*
X-6212205Y-4526275D01*
X-6163151Y-4563423D01*
X-6065520Y-4575805D01*
X-5971223Y-4563423D01*
X-5920740Y-4526275D01*
X-5902643Y-4474840D01*
X-5899785Y-4406260D01*
X-5899785Y-4072885D01*
X-5855970Y-3950965D01*
X-5744528Y-3907150D01*
X-5625465Y-3948108D01*
X-5566410Y-4040500D01*
X-5566410Y-4410070D01*
X-5563553Y-4475793D01*
X-5545455Y-4526275D01*
X-5496401Y-4563423D01*
X-5398770Y-4575805D01*
X-5302091Y-4562946D01*
X-5252085Y-4524370D01*
X-5235893Y-4474840D01*
X-5233035Y-4408165D01*
X-5105400Y-3402325D01*
X-4739640Y-4459600D01*
X-4726305Y-4491985D01*
X-4675823Y-4542468D01*
X-4578668Y-4573900D01*
X-4481513Y-4542468D01*
X-4427220Y-4480555D01*
X-4204335Y-3823330D01*
X-4128059Y-4048730D01*
X-4068394Y-4225056D01*
X-4025341Y-4352310D01*
X-3998900Y-4430492D01*
X-3989070Y-4459600D01*
X-3971925Y-4491985D01*
X-3941445Y-4530085D01*
X-3836670Y-4573900D01*
X-3736658Y-4545325D01*
X-3684270Y-4488175D01*
X-3670935Y-4459600D01*
X-2312670Y-4010020D01*
X-2312670Y-4410070D01*
X-2309813Y-4475793D01*
X-2291715Y-4526275D01*
X-2240280Y-4563423D01*
X-2143125Y-4575805D01*
X-2011680Y-4543420D01*
X-1977390Y-4461505D01*
X-1977390Y-4406260D01*
X-1666875Y-4183375D01*
X-1215390Y-4183375D01*
X-1278255Y-4272910D01*
X-1403985Y-4309105D01*
X-1502569Y-4303390D01*
X-1577340Y-4286245D01*
X-1598295Y-4278625D01*
X-1674495Y-4257670D01*
X-1779270Y-4343395D01*
X-1804035Y-4431025D01*
X-1778675Y-4505201D01*
X-1702594Y-4558184D01*
X-1575792Y-4589973D01*
X-1398270Y-4600570D01*
X-1265158Y-4588426D01*
X-1147763Y-4551993D01*
X-1050369Y-4495557D01*
X-977265Y-4423405D01*
X-733425Y-4408165D01*
X-730568Y-4473888D01*
X-712470Y-4522465D01*
X-657939Y-4561041D01*
X-551498Y-4573900D01*
X-448389Y-4550564D01*
X-403860Y-4480555D01*
X-308134Y-4549135D01*
X-180975Y-4571995D01*
X-70062Y-4555379D01*
X34078Y-4505532D01*
X131445Y-4422453D01*
X209762Y-4317254D01*
X256752Y-4201049D01*
X272415Y-4073838D01*
X256646Y-3946520D01*
X209338Y-3829997D01*
X130492Y-3724270D01*
X32808Y-3640662D01*
X-71014Y-3590497D01*
X-180975Y-3573775D01*
X-306229Y-3597588D01*
X-400050Y-3669025D01*
X-400050Y-3268975D01*
X-402908Y-3203252D01*
X-420053Y-3153722D01*
X-470535Y-3114670D01*
X-566738Y-3103240D01*
X-662940Y-3114670D01*
X-713423Y-3154675D01*
X-730568Y-3205157D01*
X-733425Y-3270880D01*
X-9465366Y-2936565D01*
X-9374012Y-2903878D01*
X-9279894Y-2880303D01*
X2726055Y-3179440D01*
X2660332Y-3182297D01*
X2610802Y-3200395D01*
X2571750Y-3251830D01*
X2560320Y-3348985D01*
X2571750Y-3446140D01*
X2611755Y-3496622D01*
X2662237Y-3513767D01*
X2729865Y-3516625D01*
X3312795Y-3516625D01*
X3312795Y-3709030D01*
X2937510Y-3709030D01*
X2869882Y-3711887D01*
X2819400Y-3729985D01*
X2782252Y-3781896D01*
X2769870Y-3880480D01*
X2787967Y-3986684D01*
X2842260Y-4038595D01*
X2939415Y-4048120D01*
X3312795Y-4048120D01*
X2451735Y-4201578D01*
X2465070Y-4078600D01*
X2447819Y-3929269D01*
X2396067Y-3801317D01*
X2309812Y-3694742D01*
X2197735Y-3614838D01*
X2068512Y-3566896D01*
X1922145Y-3550915D01*
X1798558Y-3562583D01*
X1692592Y-3597588D01*
X1604248Y-3655928D01*
X1533525Y-3737605D01*
X1484947Y-3841189D01*
X1468755Y-3953823D01*
X1483281Y-4055740D01*
X1373505Y-4078600D01*
X1356254Y-3929269D01*
X1304502Y-3801317D01*
X1218247Y-3694742D01*
X1106170Y-3614838D01*
X976947Y-3566896D01*
X830580Y-3550915D01*
X706993Y-3562583D01*
X601027Y-3597588D01*
X512683Y-3655928D01*
X441960Y-3737605D01*
X393382Y-3841189D01*
X377190Y-3953823D01*
X391716Y-4055740D01*
X435292Y-4127178D01*
X563880Y-4183375D01*
X1015365Y-4183375D01*
X952500Y-4272910D01*
X826770Y-4309105D01*
X728186Y-4303390D01*
X653415Y-4286245D01*
X632460Y-4278625D01*
X556260Y-4257670D01*
X451485Y-4343395D01*
X426720Y-4431025D01*
X452080Y-4505201D01*
X528161Y-4558184D01*
X654963Y-4589973D01*
X832485Y-4600570D01*
X965597Y-4588426D01*
X1082992Y-4551993D01*
X1180386Y-4495557D01*
X1253490Y-4423405D01*
X1320165Y-4316513D01*
X1360170Y-4201578D01*
X1373505Y-4078600D01*
X1483281Y-4055740D01*
X1526857Y-4127178D01*
X1655445Y-4183375D01*
X2106930Y-4183375D01*
X2044065Y-4272910D01*
X1918335Y-4309105D01*
X1819751Y-4303390D01*
X1744980Y-4286245D01*
X1724025Y-4278625D01*
X1647825Y-4257670D01*
X1543050Y-4343395D01*
X1518285Y-4431025D01*
X1543645Y-4505201D01*
X1619726Y-4558184D01*
X1746528Y-4589973D01*
X1924050Y-4600570D01*
X2057162Y-4588426D01*
X2174557Y-4551993D01*
X2271951Y-4495557D01*
X2345055Y-4423405D01*
X2411730Y-4316513D01*
X2451735Y-4201578D01*
X3312795Y-4048120D01*
X3312795Y-4408165D01*
X3315652Y-4474840D01*
X3333750Y-4524370D01*
X3384232Y-4562946D01*
X3482340Y-4575805D01*
X3588067Y-4557708D01*
X3638550Y-4503415D01*
X3649980Y-4406260D01*
X3649980Y-3347080D01*
X3613785Y-3214682D01*
X3476625Y-3179440D01*
X2726055Y-3179440D01*
X-9279894Y-2880303D01*
X-9183918Y-2866066D01*
X-9087009Y-2861305D01*
X-9086850Y-2861305D01*
X9086850Y-2861305D01*
G37*
D12*
G36*
X-112439Y6632195D02*
G01*
X-116389Y6452278D01*
X-296305Y6448329D01*
X-476222Y6444379D01*
X-476222Y6121510D01*
X-296305Y6117561D01*
X-116389Y6113611D01*
X-112439Y5933695D01*
X-108490Y5753778D01*
X214379Y5753778D01*
X218329Y5933695D01*
X222278Y6113611D01*
X402195Y6117561D01*
X582111Y6121510D01*
X582111Y6444379D01*
X402195Y6448329D01*
X222278Y6452278D01*
X218329Y6632195D01*
X214379Y6812111D01*
X-108490Y6812111D01*
X-112439Y6632195D01*
G37*
X-112439Y6632195D02*
X-116389Y6452278D01*
X-296305Y6448329D01*
X-476222Y6444379D01*
X-476222Y6121510D01*
X-296305Y6117561D01*
X-116389Y6113611D01*
X-112439Y5933695D01*
X-108490Y5753778D01*
X214379Y5753778D01*
X218329Y5933695D01*
X222278Y6113611D01*
X402195Y6117561D01*
X582111Y6121510D01*
X582111Y6444379D01*
X402195Y6448329D01*
X222278Y6452278D01*
X218329Y6632195D01*
X214379Y6812111D01*
X-108490Y6812111D01*
X-112439Y6632195D01*
G36*
X-109333Y8833898D02*
G01*
X-203869Y8824212D01*
X-462960Y8783539D01*
X-718270Y8714972D01*
X-969979Y8618460D01*
X-1090055Y8561950D01*
X-1232674Y8486349D01*
X-1359534Y8408738D01*
X-1477813Y8323871D01*
X-1594691Y8226508D01*
X-1717345Y8111403D01*
X-1746554Y8082443D01*
X-1866386Y7957492D01*
X-1967294Y7839938D01*
X-2054522Y7722602D01*
X-2133312Y7598306D01*
X-2208909Y7459870D01*
X-2226061Y7425945D01*
X-2336061Y7175908D01*
X-2418089Y6922356D01*
X-2472199Y6665109D01*
X-2488323Y6539759D01*
X-2498008Y6445222D01*
X-2790444Y6445222D01*
X-2790444Y6120667D01*
X-2497399Y6120667D01*
X-2487535Y6025417D01*
X-2447659Y5768991D01*
X-2381477Y5518967D01*
X-2288236Y5272792D01*
X-2226061Y5139945D01*
X-2150460Y4997326D01*
X-2072848Y4870466D01*
X-1987982Y4752187D01*
X-1890619Y4635309D01*
X-1775514Y4512655D01*
X-1746554Y4483446D01*
X-1621603Y4363614D01*
X-1504049Y4262706D01*
X-1386713Y4175478D01*
X-1262416Y4096688D01*
X-1123980Y4021091D01*
X-1090055Y4003939D01*
X-840019Y3893939D01*
X-586466Y3811911D01*
X-329220Y3757801D01*
X-203869Y3741677D01*
X-109333Y3731992D01*
X-109333Y3439556D01*
X215222Y3439556D01*
X215222Y3731992D01*
X309759Y3741677D01*
X568849Y3782351D01*
X824160Y3850917D01*
X1075868Y3947430D01*
X1195945Y4003939D01*
X1338563Y4079540D01*
X1465423Y4157152D01*
X1583702Y4242018D01*
X1700580Y4339381D01*
X1823235Y4454486D01*
X1852443Y4483446D01*
X1972275Y4608397D01*
X2073183Y4725951D01*
X2160411Y4843287D01*
X2239202Y4967584D01*
X2314798Y5106020D01*
X2331950Y5139945D01*
X2441950Y5389981D01*
X2523979Y5643534D01*
X2578088Y5900780D01*
X2594212Y6026131D01*
X2603898Y6120667D01*
X2896333Y6120667D01*
X2896333Y6445222D01*
X2603898Y6445222D01*
X2265231Y6445222D01*
X850222Y6445222D01*
X850222Y6120667D01*
X2265231Y6120667D01*
X2255524Y6025417D01*
X2219639Y5805687D01*
X2157594Y5585433D01*
X2071111Y5368525D01*
X1961907Y5158835D01*
X1831704Y4960234D01*
X1719801Y4819142D01*
X1566596Y4661179D01*
X1391950Y4516623D01*
X1200543Y4388196D01*
X997055Y4278617D01*
X786165Y4190610D01*
X572554Y4126894D01*
X503468Y4111898D01*
X430237Y4097671D01*
X377880Y4088075D01*
X339620Y4082090D01*
X308682Y4078697D01*
X278287Y4076875D01*
X268139Y4076477D01*
X215222Y4074556D01*
X215222Y4568445D01*
X-109333Y4568445D01*
X-109333Y4070658D01*
X-204583Y4080365D01*
X-423298Y4116117D01*
X-642090Y4177665D01*
X-856909Y4262886D01*
X-1063706Y4369657D01*
X-1258431Y4495854D01*
X-1437033Y4639355D01*
X-1595463Y4798036D01*
X-1613912Y4819142D01*
X-1758922Y5006730D01*
X-1884237Y5208349D01*
X-1988139Y5420127D01*
X-2068907Y5638192D01*
X-2124824Y5858674D01*
X-2149635Y6025417D01*
X-2159342Y6120667D01*
X-1661555Y6120667D01*
X-1661555Y6445222D01*
X-2159342Y6445222D01*
X-2149635Y6540472D01*
X-2113749Y6760202D01*
X-2051705Y6980456D01*
X-1965222Y7197364D01*
X-1856018Y7407054D01*
X-1725814Y7605655D01*
X-1613912Y7746747D01*
X-1458331Y7907203D01*
X-1282063Y8052747D01*
X-1089159Y8181257D01*
X-883669Y8290609D01*
X-669643Y8378681D01*
X-451131Y8443349D01*
X-232182Y8482491D01*
X-204583Y8485524D01*
X-109333Y8495231D01*
X-109333Y7080222D01*
X215222Y7080222D01*
X215222Y8495231D01*
X310472Y8485524D01*
X529187Y8449772D01*
X747979Y8388224D01*
X962798Y8303003D01*
X1169595Y8196233D01*
X1364320Y8070035D01*
X1542922Y7926534D01*
X1701352Y7767853D01*
X1719801Y7746747D01*
X1864811Y7559159D01*
X1990126Y7357540D01*
X2094028Y7145762D01*
X2174796Y6927697D01*
X2230713Y6707216D01*
X2255524Y6540472D01*
X2265231Y6445222D01*
X2603898Y6445222D01*
X2594212Y6539759D01*
X2553539Y6798849D01*
X2484972Y7054160D01*
X2388460Y7305868D01*
X2331950Y7425945D01*
X2256349Y7568563D01*
X2178738Y7695423D01*
X2093871Y7813702D01*
X1996508Y7930580D01*
X1881403Y8053235D01*
X1852443Y8082443D01*
X1727492Y8202275D01*
X1609938Y8303183D01*
X1492602Y8390411D01*
X1368306Y8469202D01*
X1229870Y8544798D01*
X1195945Y8561950D01*
X945908Y8671950D01*
X692356Y8753979D01*
X435109Y8808088D01*
X309759Y8824212D01*
X215222Y8833898D01*
X215222Y9126333D01*
X-109333Y9126333D01*
X-109333Y8833898D01*
G37*
X-109333Y8833898D02*
X-203869Y8824212D01*
X-462960Y8783539D01*
X-718270Y8714972D01*
X-969979Y8618460D01*
X-1090055Y8561950D01*
X-1232674Y8486349D01*
X-1359534Y8408738D01*
X-1477813Y8323871D01*
X-1594691Y8226508D01*
X-1717345Y8111403D01*
X-1746554Y8082443D01*
X-1866386Y7957492D01*
X-1967294Y7839938D01*
X-2054522Y7722602D01*
X-2133312Y7598306D01*
X-2208909Y7459870D01*
X-2226061Y7425945D01*
X-2336061Y7175908D01*
X-2418089Y6922356D01*
X-2472199Y6665109D01*
X-2488323Y6539759D01*
X-2498008Y6445222D01*
X-2790444Y6445222D01*
X-2790444Y6120667D01*
X-2497399Y6120667D01*
X-2487535Y6025417D01*
X-2447659Y5768991D01*
X-2381477Y5518967D01*
X-2288236Y5272792D01*
X-2226061Y5139945D01*
X-2150460Y4997326D01*
X-2072848Y4870466D01*
X-1987982Y4752187D01*
X-1890619Y4635309D01*
X-1775514Y4512655D01*
X-1746554Y4483446D01*
X-1621603Y4363614D01*
X-1504049Y4262706D01*
X-1386713Y4175478D01*
X-1262416Y4096688D01*
X-1123980Y4021091D01*
X-1090055Y4003939D01*
X-840019Y3893939D01*
X-586466Y3811911D01*
X-329220Y3757801D01*
X-203869Y3741677D01*
X-109333Y3731992D01*
X-109333Y3439556D01*
X215222Y3439556D01*
X215222Y3731992D01*
X309759Y3741677D01*
X568849Y3782351D01*
X824160Y3850917D01*
X1075868Y3947430D01*
X1195945Y4003939D01*
X1338563Y4079540D01*
X1465423Y4157152D01*
X1583702Y4242018D01*
X1700580Y4339381D01*
X1823235Y4454486D01*
X1852443Y4483446D01*
X1972275Y4608397D01*
X2073183Y4725951D01*
X2160411Y4843287D01*
X2239202Y4967584D01*
X2314798Y5106020D01*
X2331950Y5139945D01*
X2441950Y5389981D01*
X2523979Y5643534D01*
X2578088Y5900780D01*
X2594212Y6026131D01*
X2603898Y6120667D01*
X2896333Y6120667D01*
X2896333Y6445222D01*
X2603898Y6445222D01*
X2265231Y6445222D01*
X850222Y6445222D01*
X850222Y6120667D01*
X2265231Y6120667D01*
X2255524Y6025417D01*
X2219639Y5805687D01*
X2157594Y5585433D01*
X2071111Y5368525D01*
X1961907Y5158835D01*
X1831704Y4960234D01*
X1719801Y4819142D01*
X1566596Y4661179D01*
X1391950Y4516623D01*
X1200543Y4388196D01*
X997055Y4278617D01*
X786165Y4190610D01*
X572554Y4126894D01*
X503468Y4111898D01*
X430237Y4097671D01*
X377880Y4088075D01*
X339620Y4082090D01*
X308682Y4078697D01*
X278287Y4076875D01*
X268139Y4076477D01*
X215222Y4074556D01*
X215222Y4568445D01*
X-109333Y4568445D01*
X-109333Y4070658D01*
X-204583Y4080365D01*
X-423298Y4116117D01*
X-642090Y4177665D01*
X-856909Y4262886D01*
X-1063706Y4369657D01*
X-1258431Y4495854D01*
X-1437033Y4639355D01*
X-1595463Y4798036D01*
X-1613912Y4819142D01*
X-1758922Y5006730D01*
X-1884237Y5208349D01*
X-1988139Y5420127D01*
X-2068907Y5638192D01*
X-2124824Y5858674D01*
X-2149635Y6025417D01*
X-2159342Y6120667D01*
X-1661555Y6120667D01*
X-1661555Y6445222D01*
X-2159342Y6445222D01*
X-2149635Y6540472D01*
X-2113749Y6760202D01*
X-2051705Y6980456D01*
X-1965222Y7197364D01*
X-1856018Y7407054D01*
X-1725814Y7605655D01*
X-1613912Y7746747D01*
X-1458331Y7907203D01*
X-1282063Y8052747D01*
X-1089159Y8181257D01*
X-883669Y8290609D01*
X-669643Y8378681D01*
X-451131Y8443349D01*
X-232182Y8482491D01*
X-204583Y8485524D01*
X-109333Y8495231D01*
X-109333Y7080222D01*
X215222Y7080222D01*
X215222Y8495231D01*
X310472Y8485524D01*
X529187Y8449772D01*
X747979Y8388224D01*
X962798Y8303003D01*
X1169595Y8196233D01*
X1364320Y8070035D01*
X1542922Y7926534D01*
X1701352Y7767853D01*
X1719801Y7746747D01*
X1864811Y7559159D01*
X1990126Y7357540D01*
X2094028Y7145762D01*
X2174796Y6927697D01*
X2230713Y6707216D01*
X2255524Y6540472D01*
X2265231Y6445222D01*
X2603898Y6445222D01*
X2594212Y6539759D01*
X2553539Y6798849D01*
X2484972Y7054160D01*
X2388460Y7305868D01*
X2331950Y7425945D01*
X2256349Y7568563D01*
X2178738Y7695423D01*
X2093871Y7813702D01*
X1996508Y7930580D01*
X1881403Y8053235D01*
X1852443Y8082443D01*
X1727492Y8202275D01*
X1609938Y8303183D01*
X1492602Y8390411D01*
X1368306Y8469202D01*
X1229870Y8544798D01*
X1195945Y8561950D01*
X945908Y8671950D01*
X692356Y8753979D01*
X435109Y8808088D01*
X309759Y8824212D01*
X215222Y8833898D01*
X215222Y9126333D01*
X-109333Y9126333D01*
X-109333Y8833898D01*
M02*
