G04 #@! TF.GenerationSoftware,KiCad,Pcbnew,5.1.9+dfsg1-1~bpo10+1*
G04 #@! TF.CreationDate,2021-04-04T13:49:39+00:00*
G04 #@! TF.ProjectId,indexingWheel,696e6465-7869-46e6-9757-6865656c2e6b,rev?*
G04 #@! TF.SameCoordinates,Original*
G04 #@! TF.FileFunction,Soldermask,Top*
G04 #@! TF.FilePolarity,Negative*
%FSLAX46Y46*%
G04 Gerber Fmt 4.6, Leading zero omitted, Abs format (unit mm)*
G04 Created by KiCad (PCBNEW 5.1.9+dfsg1-1~bpo10+1) date 2021-04-04 13:49:39*
%MOMM*%
%LPD*%
G01*
G04 APERTURE LIST*
%ADD10C,0.300000*%
G04 APERTURE END LIST*
D10*
X-9000000Y-4928571D02*
X-9000000Y-3428571D01*
X-8285714Y-4928571D02*
X-8285714Y-3428571D01*
X-7428571Y-4928571D01*
X-7428571Y-3428571D01*
X-6714285Y-4928571D02*
X-6714285Y-3428571D01*
X-6357142Y-3428571D01*
X-6142857Y-3500000D01*
X-6000000Y-3642857D01*
X-5928571Y-3785714D01*
X-5857142Y-4071428D01*
X-5857142Y-4285714D01*
X-5928571Y-4571428D01*
X-6000000Y-4714285D01*
X-6142857Y-4857142D01*
X-6357142Y-4928571D01*
X-6714285Y-4928571D01*
X-5214285Y-4142857D02*
X-4714285Y-4142857D01*
X-4500000Y-4928571D02*
X-5214285Y-4928571D01*
X-5214285Y-3428571D01*
X-4500000Y-3428571D01*
X-3999999Y-3428571D02*
X-2999999Y-4928571D01*
X-2999999Y-3428571D02*
X-3999999Y-4928571D01*
X-2428571Y-4928571D02*
X-2428571Y-3428571D01*
X-1714285Y-4928571D02*
X-1714285Y-3428571D01*
X-857142Y-4928571D01*
X-857142Y-3428571D01*
X642857Y-3500000D02*
X500000Y-3428571D01*
X285714Y-3428571D01*
X71428Y-3500000D01*
X-71428Y-3642857D01*
X-142857Y-3785714D01*
X-214285Y-4071428D01*
X-214285Y-4285714D01*
X-142857Y-4571428D01*
X-71428Y-4714285D01*
X71428Y-4857142D01*
X285714Y-4928571D01*
X428571Y-4928571D01*
X642857Y-4857142D01*
X714285Y-4785714D01*
X714285Y-4285714D01*
X428571Y-4285714D01*
X2357142Y-3428571D02*
X2714285Y-4928571D01*
X3000000Y-3857142D01*
X3285714Y-4928571D01*
X3642857Y-3428571D01*
X4214285Y-4928571D02*
X4214285Y-3428571D01*
X4214285Y-4142857D02*
X5071428Y-4142857D01*
X5071428Y-4928571D02*
X5071428Y-3428571D01*
X5785714Y-4142857D02*
X6285714Y-4142857D01*
X6500000Y-4928571D02*
X5785714Y-4928571D01*
X5785714Y-3428571D01*
X6500000Y-3428571D01*
X7142857Y-4142857D02*
X7642857Y-4142857D01*
X7857142Y-4928571D02*
X7142857Y-4928571D01*
X7142857Y-3428571D01*
X7857142Y-3428571D01*
X9214285Y-4928571D02*
X8500000Y-4928571D01*
X8500000Y-3428571D01*
X-2285714Y-7478571D02*
X-2785714Y-6764285D01*
X-3142857Y-7478571D02*
X-3142857Y-5978571D01*
X-2571428Y-5978571D01*
X-2428571Y-6050000D01*
X-2357142Y-6121428D01*
X-2285714Y-6264285D01*
X-2285714Y-6478571D01*
X-2357142Y-6621428D01*
X-2428571Y-6692857D01*
X-2571428Y-6764285D01*
X-3142857Y-6764285D01*
X-1642857Y-6692857D02*
X-1142857Y-6692857D01*
X-928571Y-7478571D02*
X-1642857Y-7478571D01*
X-1642857Y-5978571D01*
X-928571Y-5978571D01*
X-500000Y-5978571D02*
X0Y-7478571D01*
X499999Y-5978571D01*
X1285714Y-5978571D02*
X1428571Y-5978571D01*
X1571428Y-6050000D01*
X1642857Y-6121428D01*
X1714285Y-6264285D01*
X1785714Y-6550000D01*
X1785714Y-6907142D01*
X1714285Y-7192857D01*
X1642857Y-7335714D01*
X1571428Y-7407142D01*
X1428571Y-7478571D01*
X1285714Y-7478571D01*
X1142857Y-7407142D01*
X1071428Y-7335714D01*
X1000000Y-7192857D01*
X928571Y-6907142D01*
X928571Y-6550000D01*
X1000000Y-6264285D01*
X1071428Y-6121428D01*
X1142857Y-6050000D01*
X1285714Y-5978571D01*
X2357142Y-6121428D02*
X2428571Y-6050000D01*
X2571428Y-5978571D01*
X2928571Y-5978571D01*
X3071428Y-6050000D01*
X3142857Y-6121428D01*
X3214285Y-6264285D01*
X3214285Y-6407142D01*
X3142857Y-6621428D01*
X2285714Y-7478571D01*
X3214285Y-7478571D01*
X-3892857Y-8528571D02*
X-4178571Y-8528571D01*
X-4321428Y-8600000D01*
X-4392857Y-8671428D01*
X-4535714Y-8885714D01*
X-4607142Y-9171428D01*
X-4607142Y-9742857D01*
X-4535714Y-9885714D01*
X-4464285Y-9957142D01*
X-4321428Y-10028571D01*
X-4035714Y-10028571D01*
X-3892857Y-9957142D01*
X-3821428Y-9885714D01*
X-3750000Y-9742857D01*
X-3750000Y-9385714D01*
X-3821428Y-9242857D01*
X-3892857Y-9171428D01*
X-4035714Y-9100000D01*
X-4321428Y-9100000D01*
X-4464285Y-9171428D01*
X-4535714Y-9242857D01*
X-4607142Y-9385714D01*
X-3250000Y-8528571D02*
X-2250000Y-8528571D01*
X-2892857Y-10028571D01*
X-1678571Y-10028571D02*
X-1678571Y-8528571D01*
X-1678571Y-9100000D02*
X-1535714Y-9028571D01*
X-1250000Y-9028571D01*
X-1107142Y-9100000D01*
X-1035714Y-9171428D01*
X-964285Y-9314285D01*
X-964285Y-9742857D01*
X-1035714Y-9885714D01*
X-1107142Y-9957142D01*
X-1250000Y-10028571D01*
X-1535714Y-10028571D01*
X-1678571Y-9957142D01*
X321428Y-8528571D02*
X35714Y-8528571D01*
X-107142Y-8600000D01*
X-178571Y-8671428D01*
X-321428Y-8885714D01*
X-392857Y-9171428D01*
X-392857Y-9742857D01*
X-321428Y-9885714D01*
X-250000Y-9957142D01*
X-107142Y-10028571D01*
X178571Y-10028571D01*
X321428Y-9957142D01*
X392857Y-9885714D01*
X464285Y-9742857D01*
X464285Y-9385714D01*
X392857Y-9242857D01*
X321428Y-9171428D01*
X178571Y-9100000D01*
X-107142Y-9100000D01*
X-250000Y-9171428D01*
X-321428Y-9242857D01*
X-392857Y-9385714D01*
X1678571Y-9957142D02*
X1535714Y-10028571D01*
X1249999Y-10028571D01*
X1107142Y-9957142D01*
X1035714Y-9814285D01*
X1035714Y-9242857D01*
X1107142Y-9100000D01*
X1249999Y-9028571D01*
X1535714Y-9028571D01*
X1678571Y-9100000D01*
X1749999Y-9242857D01*
X1749999Y-9385714D01*
X1035714Y-9528571D01*
X2249999Y-8528571D02*
X3249999Y-8528571D01*
X2607142Y-10028571D01*
X3678571Y-8528571D02*
X4607142Y-8528571D01*
X4107142Y-9100000D01*
X4321428Y-9100000D01*
X4464285Y-9171428D01*
X4535714Y-9242857D01*
X4607142Y-9385714D01*
X4607142Y-9742857D01*
X4535714Y-9885714D01*
X4464285Y-9957142D01*
X4321428Y-10028571D01*
X3892857Y-10028571D01*
X3749999Y-9957142D01*
X3678571Y-9885714D01*
X-9000000Y-4928571D02*
X-9000000Y-3428571D01*
X-8285714Y-4928571D02*
X-8285714Y-3428571D01*
X-7428571Y-4928571D01*
X-7428571Y-3428571D01*
X-6714285Y-4928571D02*
X-6714285Y-3428571D01*
X-6357142Y-3428571D01*
X-6142857Y-3500000D01*
X-6000000Y-3642857D01*
X-5928571Y-3785714D01*
X-5857142Y-4071428D01*
X-5857142Y-4285714D01*
X-5928571Y-4571428D01*
X-6000000Y-4714285D01*
X-6142857Y-4857142D01*
X-6357142Y-4928571D01*
X-6714285Y-4928571D01*
X-5214285Y-4142857D02*
X-4714285Y-4142857D01*
X-4500000Y-4928571D02*
X-5214285Y-4928571D01*
X-5214285Y-3428571D01*
X-4500000Y-3428571D01*
X-3999999Y-3428571D02*
X-2999999Y-4928571D01*
X-2999999Y-3428571D02*
X-3999999Y-4928571D01*
X-2428571Y-4928571D02*
X-2428571Y-3428571D01*
X-1714285Y-4928571D02*
X-1714285Y-3428571D01*
X-857142Y-4928571D01*
X-857142Y-3428571D01*
X642857Y-3500000D02*
X500000Y-3428571D01*
X285714Y-3428571D01*
X71428Y-3500000D01*
X-71428Y-3642857D01*
X-142857Y-3785714D01*
X-214285Y-4071428D01*
X-214285Y-4285714D01*
X-142857Y-4571428D01*
X-71428Y-4714285D01*
X71428Y-4857142D01*
X285714Y-4928571D01*
X428571Y-4928571D01*
X642857Y-4857142D01*
X714285Y-4785714D01*
X714285Y-4285714D01*
X428571Y-4285714D01*
X2357142Y-3428571D02*
X2714285Y-4928571D01*
X3000000Y-3857142D01*
X3285714Y-4928571D01*
X3642857Y-3428571D01*
X4214285Y-4928571D02*
X4214285Y-3428571D01*
X4214285Y-4142857D02*
X5071428Y-4142857D01*
X5071428Y-4928571D02*
X5071428Y-3428571D01*
X5785714Y-4142857D02*
X6285714Y-4142857D01*
X6500000Y-4928571D02*
X5785714Y-4928571D01*
X5785714Y-3428571D01*
X6500000Y-3428571D01*
X7142857Y-4142857D02*
X7642857Y-4142857D01*
X7857142Y-4928571D02*
X7142857Y-4928571D01*
X7142857Y-3428571D01*
X7857142Y-3428571D01*
X9214285Y-4928571D02*
X8500000Y-4928571D01*
X8500000Y-3428571D01*
X-2285714Y-7478571D02*
X-2785714Y-6764285D01*
X-3142857Y-7478571D02*
X-3142857Y-5978571D01*
X-2571428Y-5978571D01*
X-2428571Y-6050000D01*
X-2357142Y-6121428D01*
X-2285714Y-6264285D01*
X-2285714Y-6478571D01*
X-2357142Y-6621428D01*
X-2428571Y-6692857D01*
X-2571428Y-6764285D01*
X-3142857Y-6764285D01*
X-1642857Y-6692857D02*
X-1142857Y-6692857D01*
X-928571Y-7478571D02*
X-1642857Y-7478571D01*
X-1642857Y-5978571D01*
X-928571Y-5978571D01*
X-500000Y-5978571D02*
X0Y-7478571D01*
X499999Y-5978571D01*
X1285714Y-5978571D02*
X1428571Y-5978571D01*
X1571428Y-6050000D01*
X1642857Y-6121428D01*
X1714285Y-6264285D01*
X1785714Y-6550000D01*
X1785714Y-6907142D01*
X1714285Y-7192857D01*
X1642857Y-7335714D01*
X1571428Y-7407142D01*
X1428571Y-7478571D01*
X1285714Y-7478571D01*
X1142857Y-7407142D01*
X1071428Y-7335714D01*
X1000000Y-7192857D01*
X928571Y-6907142D01*
X928571Y-6550000D01*
X1000000Y-6264285D01*
X1071428Y-6121428D01*
X1142857Y-6050000D01*
X1285714Y-5978571D01*
X2357142Y-6121428D02*
X2428571Y-6050000D01*
X2571428Y-5978571D01*
X2928571Y-5978571D01*
X3071428Y-6050000D01*
X3142857Y-6121428D01*
X3214285Y-6264285D01*
X3214285Y-6407142D01*
X3142857Y-6621428D01*
X2285714Y-7478571D01*
X3214285Y-7478571D01*
X-3892857Y-8528571D02*
X-4178571Y-8528571D01*
X-4321428Y-8600000D01*
X-4392857Y-8671428D01*
X-4535714Y-8885714D01*
X-4607142Y-9171428D01*
X-4607142Y-9742857D01*
X-4535714Y-9885714D01*
X-4464285Y-9957142D01*
X-4321428Y-10028571D01*
X-4035714Y-10028571D01*
X-3892857Y-9957142D01*
X-3821428Y-9885714D01*
X-3750000Y-9742857D01*
X-3750000Y-9385714D01*
X-3821428Y-9242857D01*
X-3892857Y-9171428D01*
X-4035714Y-9100000D01*
X-4321428Y-9100000D01*
X-4464285Y-9171428D01*
X-4535714Y-9242857D01*
X-4607142Y-9385714D01*
X-3250000Y-8528571D02*
X-2250000Y-8528571D01*
X-2892857Y-10028571D01*
X-1678571Y-10028571D02*
X-1678571Y-8528571D01*
X-1678571Y-9100000D02*
X-1535714Y-9028571D01*
X-1250000Y-9028571D01*
X-1107142Y-9100000D01*
X-1035714Y-9171428D01*
X-964285Y-9314285D01*
X-964285Y-9742857D01*
X-1035714Y-9885714D01*
X-1107142Y-9957142D01*
X-1250000Y-10028571D01*
X-1535714Y-10028571D01*
X-1678571Y-9957142D01*
X321428Y-8528571D02*
X35714Y-8528571D01*
X-107142Y-8600000D01*
X-178571Y-8671428D01*
X-321428Y-8885714D01*
X-392857Y-9171428D01*
X-392857Y-9742857D01*
X-321428Y-9885714D01*
X-250000Y-9957142D01*
X-107142Y-10028571D01*
X178571Y-10028571D01*
X321428Y-9957142D01*
X392857Y-9885714D01*
X464285Y-9742857D01*
X464285Y-9385714D01*
X392857Y-9242857D01*
X321428Y-9171428D01*
X178571Y-9100000D01*
X-107142Y-9100000D01*
X-250000Y-9171428D01*
X-321428Y-9242857D01*
X-392857Y-9385714D01*
X1678571Y-9957142D02*
X1535714Y-10028571D01*
X1249999Y-10028571D01*
X1107142Y-9957142D01*
X1035714Y-9814285D01*
X1035714Y-9242857D01*
X1107142Y-9100000D01*
X1249999Y-9028571D01*
X1535714Y-9028571D01*
X1678571Y-9100000D01*
X1749999Y-9242857D01*
X1749999Y-9385714D01*
X1035714Y-9528571D01*
X2249999Y-8528571D02*
X3249999Y-8528571D01*
X2607142Y-10028571D01*
X3678571Y-8528571D02*
X4607142Y-8528571D01*
X4107142Y-9100000D01*
X4321428Y-9100000D01*
X4464285Y-9171428D01*
X4535714Y-9242857D01*
X4607142Y-9385714D01*
X4607142Y-9742857D01*
X4535714Y-9885714D01*
X4464285Y-9957142D01*
X4321428Y-10028571D01*
X3892857Y-10028571D01*
X3749999Y-9957142D01*
X3678571Y-9885714D01*
M02*
