<?xml version="1.0" encoding="UTF-8" standalone="no"?>
<!DOCTYPE svg PUBLIC "-//W3C//DTD SVG 1.1//EN"
 "http://www.w3.org/Graphics/SVG/1.1/DTD/svg11.dtd">
<!-- Generated by graphviz version 10.0.1 (20240210.2158)
 -->
<!-- Pages: 1 -->
<svg width="925pt" height="620pt"
 viewBox="0.00 0.00 925.00 620.25" xmlns="http://www.w3.org/2000/svg" xmlns:xlink="http://www.w3.org/1999/xlink">
<g id="graph0" class="graph" transform="scale(1 1) rotate(0) translate(4 616.25)">
<polygon fill="#ffffff" stroke="none" points="-4,4 -4,-616.25 921,-616.25 921,4 -4,4"/>
<!-- BL&#45;M -->
<g id="node1" class="node">
<title>BL&#45;M</title>
<polygon fill="#ffffff" stroke="black" points="172.5,-196.25 30.75,-196.25 30.75,0 172.5,0 172.5,-196.25"/>
<polygon fill="none" stroke="black" points="30.75,-172.5 30.75,-196.25 172.5,-196.25 172.5,-172.5 30.75,-172.5"/>
<text text-anchor="start" x="85.12" y="-178.95" font-family="arial" font-size="14.00">BL&#45;M</text>
<polygon fill="none" stroke="black" points="30.75,-148.75 30.75,-172.5 85.25,-172.5 85.25,-148.75 30.75,-148.75"/>
<text text-anchor="start" x="34.75" y="-155.2" font-family="arial" font-size="14.00">JST PH</text>
<polygon fill="none" stroke="black" points="85.25,-148.75 85.25,-172.5 134.5,-172.5 134.5,-148.75 85.25,-148.75"/>
<text text-anchor="start" x="89.25" y="-155.2" font-family="arial" font-size="14.00">female</text>
<polygon fill="none" stroke="black" points="134.5,-148.75 134.5,-172.5 172.5,-172.5 172.5,-148.75 134.5,-148.75"/>
<text text-anchor="start" x="138.5" y="-155.2" font-family="arial" font-size="14.00">3&#45;pin</text>
<polygon fill="none" stroke="black" points="30.75,-125.75 30.75,-148.75 113.12,-148.75 113.12,-125.75 30.75,-125.75"/>
<text text-anchor="start" x="59.94" y="-131.45" font-family="arial" font-size="14.00">SIG</text>
<polygon fill="none" stroke="black" points="113.12,-125.75 113.12,-148.75 172.5,-148.75 172.5,-125.75 113.12,-125.75"/>
<text text-anchor="start" x="139.06" y="-131.45" font-family="arial" font-size="14.00">1</text>
<polygon fill="none" stroke="black" points="30.75,-102.75 30.75,-125.75 113.12,-125.75 113.12,-102.75 30.75,-102.75"/>
<text text-anchor="start" x="57.69" y="-108.45" font-family="arial" font-size="14.00">VCC</text>
<polygon fill="none" stroke="black" points="113.12,-102.75 113.12,-125.75 172.5,-125.75 172.5,-102.75 113.12,-102.75"/>
<text text-anchor="start" x="139.06" y="-108.45" font-family="arial" font-size="14.00">2</text>
<polygon fill="none" stroke="black" points="30.75,-79.75 30.75,-102.75 113.12,-102.75 113.12,-79.75 30.75,-79.75"/>
<text text-anchor="start" x="56.56" y="-85.45" font-family="arial" font-size="14.00">GND</text>
<polygon fill="none" stroke="black" points="113.12,-79.75 113.12,-102.75 172.5,-102.75 172.5,-79.75 113.12,-79.75"/>
<text text-anchor="start" x="139.06" y="-85.45" font-family="arial" font-size="14.00">3</text>
<polyline fill="none" stroke="black" points="172.5,-23.75 172.5,-79.75 30.75,-79.75 30.75,-23.75"/>
<image xlink:href="../img/PH-3.jpeg" width="64px" height="48px" preserveAspectRatio="xMinYMin meet" x="69.625" y="-75.75"/>
<polyline fill="none" stroke="black" points="30.75,-23.75 30.75,0 172.5,0 172.5,-23.75"/>
<text text-anchor="start" x="60.75" y="-6.45" font-family="arial" font-size="14.00">JST PH 3&#45;Pin</text>
</g>
<!-- W1 -->
<g id="node3" class="node">
<title>W1</title>
<polygon fill="#ffffff" stroke="black" points="631.25,-227.25 347.25,-227.25 347.25,-43 631.25,-43 631.25,-227.25"/>
<polygon fill="none" stroke="black" points="347.25,-203.5 347.25,-227.25 631.25,-227.25 631.25,-203.5 347.25,-203.5"/>
<text text-anchor="start" x="478.75" y="-209.95" font-family="arial" font-size="14.00">W1</text>
<polygon fill="none" stroke="black" points="347.25,-179.75 347.25,-203.5 396.42,-203.5 396.42,-179.75 347.25,-179.75"/>
<text text-anchor="start" x="364.71" y="-186.2" font-family="arial" font-size="14.00">3x</text>
<polygon fill="none" stroke="black" points="396.42,-179.75 396.42,-203.5 554.33,-203.5 554.33,-179.75 396.42,-179.75"/>
<text text-anchor="start" x="413.88" y="-186.2" font-family="arial" font-size="14.00">24 AWG (0.25 mm²)</text>
<polygon fill="none" stroke="black" points="554.33,-179.75 554.33,-203.5 631.25,-203.5 631.25,-179.75 554.33,-179.75"/>
<text text-anchor="start" x="571.79" y="-186.2" font-family="arial" font-size="14.00">0.35 m</text>
<text text-anchor="start" x="395.38" y="-164.45" font-family="arial" font-size="14.00"> </text>
<text text-anchor="start" x="361.25" y="-145.45" font-family="arial" font-size="14.00">BL&#45;M:1:SIG</text>
<text text-anchor="start" x="458.75" y="-145.45" font-family="arial" font-size="14.00"> &#160;&#160;&#160;&#160;1:YE &#160;&#160;&#160;</text>
<text text-anchor="start" x="547.38" y="-145.45" font-family="arial" font-size="14.00">BL&#45;H:1:SIG</text>
<polygon fill="#000000" stroke="none" points="347.25,-139.75 347.25,-141.75 631.25,-141.75 631.25,-139.75 347.25,-139.75"/>
<polygon fill="#ffff00" stroke="none" points="347.25,-137.75 347.25,-139.75 631.25,-139.75 631.25,-137.75 347.25,-137.75"/>
<polygon fill="#000000" stroke="none" points="347.25,-135.75 347.25,-137.75 631.25,-137.75 631.25,-135.75 347.25,-135.75"/>
<text text-anchor="start" x="359" y="-120.45" font-family="arial" font-size="14.00">BL&#45;M:2:VCC</text>
<text text-anchor="start" x="458" y="-120.45" font-family="arial" font-size="14.00"> &#160;&#160;&#160;&#160;2:RD &#160;&#160;&#160;</text>
<text text-anchor="start" x="545.12" y="-120.45" font-family="arial" font-size="14.00">BL&#45;H:2:VCC</text>
<polygon fill="#000000" stroke="none" points="347.25,-114.75 347.25,-116.75 631.25,-116.75 631.25,-114.75 347.25,-114.75"/>
<polygon fill="#ff0000" stroke="none" points="347.25,-112.75 347.25,-114.75 631.25,-114.75 631.25,-112.75 347.25,-112.75"/>
<polygon fill="#000000" stroke="none" points="347.25,-110.75 347.25,-112.75 631.25,-112.75 631.25,-110.75 347.25,-110.75"/>
<text text-anchor="start" x="357.88" y="-95.45" font-family="arial" font-size="14.00">BL&#45;M:3:GND</text>
<text text-anchor="start" x="458.75" y="-95.45" font-family="arial" font-size="14.00"> &#160;&#160;&#160;&#160;3:BK &#160;&#160;&#160;</text>
<text text-anchor="start" x="544" y="-95.45" font-family="arial" font-size="14.00">BL&#45;H:3:GND</text>
<polygon fill="#000000" stroke="none" points="347.25,-89.75 347.25,-91.75 631.25,-91.75 631.25,-89.75 347.25,-89.75"/>
<polygon fill="#000000" stroke="none" points="347.25,-87.75 347.25,-89.75 631.25,-89.75 631.25,-87.75 347.25,-87.75"/>
<polygon fill="#000000" stroke="none" points="347.25,-85.75 347.25,-87.75 631.25,-87.75 631.25,-85.75 347.25,-85.75"/>
<text text-anchor="start" x="395.38" y="-70.45" font-family="arial" font-size="14.00"> </text>
<polygon fill="none" stroke="black" points="347.25,-43 347.25,-66.75 631.25,-66.75 631.25,-43 347.25,-43"/>
<text text-anchor="start" x="351.25" y="-49.45" font-family="arial" font-size="14.00">Stranded &#45; PVC Insulation &#45; Cable Color Black</text>
</g>
<!-- BL&#45;M&#45;&#45;W1 -->
<g id="edge1" class="edge">
<title>BL&#45;M:e&#45;&#45;W1:w</title>
<path fill="none" stroke="#000000" stroke-width="2" d="M173.62,-135.13C251,-135.14 270.28,-137.14 347.25,-137.13"/>
<path fill="none" stroke="#ffff00" stroke-width="2" d="M173.62,-137.13C250.8,-137.12 270.08,-139.12 347.25,-139.13"/>
<path fill="none" stroke="#000000" stroke-width="2" d="M173.62,-139.12C250.59,-139.11 269.87,-141.11 347.25,-141.12"/>
</g>
<!-- BL&#45;M&#45;&#45;W1 -->
<g id="edge3" class="edge">
<title>BL&#45;M:e&#45;&#45;W1:w</title>
<path fill="none" stroke="#000000" stroke-width="2" d="M173.62,-112.13C250.79,-112.12 270.08,-112.12 347.25,-112.13"/>
<path fill="none" stroke="#ff0000" stroke-width="2" d="M173.62,-114.12C250.79,-114.12 270.08,-114.12 347.25,-114.12"/>
<path fill="none" stroke="#000000" stroke-width="2" d="M173.62,-116.12C250.79,-116.12 270.08,-116.12 347.25,-116.12"/>
</g>
<!-- BL&#45;M&#45;&#45;W1 -->
<g id="edge5" class="edge">
<title>BL&#45;M:e&#45;&#45;W1:w</title>
<path fill="none" stroke="#000000" stroke-width="2" d="M173.62,-89.13C250.59,-89.14 269.87,-87.14 347.25,-87.13"/>
<path fill="none" stroke="#000000" stroke-width="2" d="M173.62,-91.12C250.8,-91.13 270.08,-89.13 347.25,-89.12"/>
<path fill="none" stroke="#000000" stroke-width="2" d="M173.62,-93.12C251,-93.11 270.28,-91.11 347.25,-91.12"/>
</g>
<!-- BL&#45;H -->
<g id="node2" class="node">
<title>BL&#45;H</title>
<polygon fill="#ffffff" stroke="black" points="917,-196.38 775.25,-196.38 775.25,-79.88 917,-79.88 917,-196.38"/>
<polygon fill="none" stroke="black" points="775.25,-172.62 775.25,-196.38 917,-196.38 917,-172.62 775.25,-172.62"/>
<text text-anchor="start" x="830.75" y="-179.07" font-family="arial" font-size="14.00">BL&#45;H</text>
<polygon fill="none" stroke="black" points="775.25,-148.88 775.25,-172.62 829.75,-172.62 829.75,-148.88 775.25,-148.88"/>
<text text-anchor="start" x="779.25" y="-155.32" font-family="arial" font-size="14.00">JST XH</text>
<polygon fill="none" stroke="black" points="829.75,-148.88 829.75,-172.62 879,-172.62 879,-148.88 829.75,-148.88"/>
<text text-anchor="start" x="833.75" y="-155.32" font-family="arial" font-size="14.00">female</text>
<polygon fill="none" stroke="black" points="879,-148.88 879,-172.62 917,-172.62 917,-148.88 879,-148.88"/>
<text text-anchor="start" x="883" y="-155.32" font-family="arial" font-size="14.00">3&#45;pin</text>
<polygon fill="none" stroke="black" points="775.25,-125.88 775.25,-148.88 834.62,-148.88 834.62,-125.88 775.25,-125.88"/>
<text text-anchor="start" x="801.19" y="-131.57" font-family="arial" font-size="14.00">1</text>
<polygon fill="none" stroke="black" points="834.62,-125.88 834.62,-148.88 917,-148.88 917,-125.88 834.62,-125.88"/>
<text text-anchor="start" x="863.81" y="-131.57" font-family="arial" font-size="14.00">SIG</text>
<polygon fill="none" stroke="black" points="775.25,-102.88 775.25,-125.88 834.62,-125.88 834.62,-102.88 775.25,-102.88"/>
<text text-anchor="start" x="801.19" y="-108.58" font-family="arial" font-size="14.00">2</text>
<polygon fill="none" stroke="black" points="834.62,-102.88 834.62,-125.88 917,-125.88 917,-102.88 834.62,-102.88"/>
<text text-anchor="start" x="861.56" y="-108.58" font-family="arial" font-size="14.00">VCC</text>
<polygon fill="none" stroke="black" points="775.25,-79.88 775.25,-102.88 834.62,-102.88 834.62,-79.88 775.25,-79.88"/>
<text text-anchor="start" x="801.19" y="-85.58" font-family="arial" font-size="14.00">3</text>
<polygon fill="none" stroke="black" points="834.62,-79.88 834.62,-102.88 917,-102.88 917,-79.88 834.62,-79.88"/>
<text text-anchor="start" x="860.44" y="-85.58" font-family="arial" font-size="14.00">GND</text>
</g>
<!-- W1&#45;&#45;BL&#45;H -->
<g id="edge2" class="edge">
<title>W1:e&#45;&#45;BL&#45;H:w</title>
<path fill="none" stroke="#000000" stroke-width="2" d="M631.25,-137.13C695.01,-137.14 711,-135.14 775.25,-135.13"/>
<path fill="none" stroke="#ffff00" stroke-width="2" d="M631.25,-139.12C695.26,-139.12 711.24,-137.12 775.25,-137.12"/>
<path fill="none" stroke="#000000" stroke-width="2" d="M631.25,-141.12C695.5,-141.11 711.49,-139.11 775.25,-139.12"/>
</g>
<!-- W1&#45;&#45;BL&#45;H -->
<g id="edge4" class="edge">
<title>W1:e&#45;&#45;BL&#45;H:w</title>
<path fill="none" stroke="#000000" stroke-width="2" d="M631.25,-112.13C695.25,-112.12 711.25,-112.12 775.25,-112.13"/>
<path fill="none" stroke="#ff0000" stroke-width="2" d="M631.25,-114.12C695.25,-114.12 711.25,-114.12 775.25,-114.12"/>
<path fill="none" stroke="#000000" stroke-width="2" d="M631.25,-116.12C695.25,-116.12 711.25,-116.12 775.25,-116.12"/>
</g>
<!-- W1&#45;&#45;BL&#45;H -->
<g id="edge6" class="edge">
<title>W1:e&#45;&#45;BL&#45;H:w</title>
<path fill="none" stroke="#000000" stroke-width="2" d="M631.25,-87.13C695.5,-87.14 711.49,-89.14 775.25,-89.13"/>
<path fill="none" stroke="#000000" stroke-width="2" d="M631.25,-89.12C695.26,-89.12 711.24,-91.12 775.25,-91.12"/>
<path fill="none" stroke="#000000" stroke-width="2" d="M631.25,-91.12C695.01,-91.11 711,-93.11 775.25,-93.12"/>
</g>
<!-- BL&#45;M&#45;CABLE -->
<g id="node4" class="node">
<title>BL&#45;M&#45;CABLE</title>
<polygon fill="#ffffff" stroke="black" stroke-dasharray="5,2" points="203.25,-404.25 0,-404.25 0,-220 203.25,-220 203.25,-404.25"/>
<polygon fill="none" stroke="black" points="0,-380.5 0,-404.25 203.25,-404.25 203.25,-380.5 0,-380.5"/>
<text text-anchor="start" x="60.75" y="-386.95" font-family="arial" font-size="14.00">BL&#45;M&#45;CABLE</text>
<polygon fill="none" stroke="black" points="0,-356.75 0,-380.5 22.25,-380.5 22.25,-356.75 0,-356.75"/>
<text text-anchor="start" x="4" y="-363.2" font-family="arial" font-size="14.00">3x</text>
<polygon fill="none" stroke="black" points="22.25,-356.75 22.25,-380.5 153.25,-380.5 153.25,-356.75 22.25,-356.75"/>
<text text-anchor="start" x="26.25" y="-363.2" font-family="arial" font-size="14.00">22 AWG (0.34 mm²)</text>
<polygon fill="none" stroke="black" points="153.25,-356.75 153.25,-380.5 203.25,-380.5 203.25,-356.75 153.25,-356.75"/>
<text text-anchor="start" x="157.25" y="-363.2" font-family="arial" font-size="14.00">1.55 m</text>
<text text-anchor="start" x="23.5" y="-341.45" font-family="arial" font-size="14.00"> </text>
<text text-anchor="start" x="74.62" y="-322.45" font-family="arial" font-size="14.00"> &#160;&#160;&#160;&#160;WH &#160;&#160;&#160;</text>
<polygon fill="#000000" stroke="none" points="0,-316.75 0,-318.75 203.25,-318.75 203.25,-316.75 0,-316.75"/>
<polygon fill="#ffffff" stroke="none" points="0,-314.75 0,-316.75 203.25,-316.75 203.25,-314.75 0,-314.75"/>
<polygon fill="#000000" stroke="none" points="0,-312.75 0,-314.75 203.25,-314.75 203.25,-312.75 0,-312.75"/>
<text text-anchor="start" x="76.5" y="-297.45" font-family="arial" font-size="14.00"> &#160;&#160;&#160;&#160;RD &#160;&#160;&#160;</text>
<polygon fill="#000000" stroke="none" points="0,-291.75 0,-293.75 203.25,-293.75 203.25,-291.75 0,-291.75"/>
<polygon fill="#ff0000" stroke="none" points="0,-289.75 0,-291.75 203.25,-291.75 203.25,-289.75 0,-289.75"/>
<polygon fill="#000000" stroke="none" points="0,-287.75 0,-289.75 203.25,-289.75 203.25,-287.75 0,-287.75"/>
<text text-anchor="start" x="77.25" y="-272.45" font-family="arial" font-size="14.00"> &#160;&#160;&#160;&#160;YE &#160;&#160;&#160;</text>
<polygon fill="#000000" stroke="none" points="0,-266.75 0,-268.75 203.25,-268.75 203.25,-266.75 0,-266.75"/>
<polygon fill="#ffff00" stroke="none" points="0,-264.75 0,-266.75 203.25,-266.75 203.25,-264.75 0,-264.75"/>
<polygon fill="#000000" stroke="none" points="0,-262.75 0,-264.75 203.25,-264.75 203.25,-262.75 0,-262.75"/>
<text text-anchor="start" x="23.5" y="-247.45" font-family="arial" font-size="14.00"> </text>
<polygon fill="none" stroke="black" points="0,-220 0,-243.75 203.25,-243.75 203.25,-220 0,-220"/>
<text text-anchor="start" x="23.62" y="-226.45" font-family="arial" font-size="14.00">Stranded &#45; PVC Insulation</text>
</g>
<!-- BL&#45;H&#45;CABLE -->
<g id="node5" class="node">
<title>BL&#45;H&#45;CABLE</title>
<polygon fill="#ffffff" stroke="black" stroke-dasharray="5,2" points="203.25,-612.25 0,-612.25 0,-428 203.25,-428 203.25,-612.25"/>
<polygon fill="none" stroke="black" points="0,-588.5 0,-612.25 203.25,-612.25 203.25,-588.5 0,-588.5"/>
<text text-anchor="start" x="61.88" y="-594.95" font-family="arial" font-size="14.00">BL&#45;H&#45;CABLE</text>
<polygon fill="none" stroke="black" points="0,-564.75 0,-588.5 22.25,-588.5 22.25,-564.75 0,-564.75"/>
<text text-anchor="start" x="4" y="-571.2" font-family="arial" font-size="14.00">3x</text>
<polygon fill="none" stroke="black" points="22.25,-564.75 22.25,-588.5 153.25,-588.5 153.25,-564.75 22.25,-564.75"/>
<text text-anchor="start" x="26.25" y="-571.2" font-family="arial" font-size="14.00">22 AWG (0.34 mm²)</text>
<polygon fill="none" stroke="black" points="153.25,-564.75 153.25,-588.5 203.25,-588.5 203.25,-564.75 153.25,-564.75"/>
<text text-anchor="start" x="157.25" y="-571.2" font-family="arial" font-size="14.00">1.55 m</text>
<text text-anchor="start" x="23.5" y="-549.45" font-family="arial" font-size="14.00"> </text>
<text text-anchor="start" x="74.62" y="-530.45" font-family="arial" font-size="14.00"> &#160;&#160;&#160;&#160;WH &#160;&#160;&#160;</text>
<polygon fill="#000000" stroke="none" points="0,-524.75 0,-526.75 203.25,-526.75 203.25,-524.75 0,-524.75"/>
<polygon fill="#ffffff" stroke="none" points="0,-522.75 0,-524.75 203.25,-524.75 203.25,-522.75 0,-522.75"/>
<polygon fill="#000000" stroke="none" points="0,-520.75 0,-522.75 203.25,-522.75 203.25,-520.75 0,-520.75"/>
<text text-anchor="start" x="76.5" y="-505.45" font-family="arial" font-size="14.00"> &#160;&#160;&#160;&#160;RD &#160;&#160;&#160;</text>
<polygon fill="#000000" stroke="none" points="0,-499.75 0,-501.75 203.25,-501.75 203.25,-499.75 0,-499.75"/>
<polygon fill="#ff0000" stroke="none" points="0,-497.75 0,-499.75 203.25,-499.75 203.25,-497.75 0,-497.75"/>
<polygon fill="#000000" stroke="none" points="0,-495.75 0,-497.75 203.25,-497.75 203.25,-495.75 0,-495.75"/>
<text text-anchor="start" x="77.25" y="-480.45" font-family="arial" font-size="14.00"> &#160;&#160;&#160;&#160;YE &#160;&#160;&#160;</text>
<polygon fill="#000000" stroke="none" points="0,-474.75 0,-476.75 203.25,-476.75 203.25,-474.75 0,-474.75"/>
<polygon fill="#ffff00" stroke="none" points="0,-472.75 0,-474.75 203.25,-474.75 203.25,-472.75 0,-472.75"/>
<polygon fill="#000000" stroke="none" points="0,-470.75 0,-472.75 203.25,-472.75 203.25,-470.75 0,-470.75"/>
<text text-anchor="start" x="23.5" y="-455.45" font-family="arial" font-size="14.00"> </text>
<polygon fill="none" stroke="black" points="0,-428 0,-451.75 203.25,-451.75 203.25,-428 0,-428"/>
<text text-anchor="start" x="23.62" y="-434.45" font-family="arial" font-size="14.00">Stranded &#45; PVC Insulation</text>
</g>
</g>
</svg>
