<?xml version="1.0" encoding="UTF-8" standalone="no"?>
<!-- Created with Inkscape (http://www.inkscape.org/) -->

<svg
   width="119.99999mm"
   height="12mm"
   viewBox="0 0 119.99999 12"
   version="1.1"
   id="svg5"
   xml:space="preserve"
   xmlns="http://www.w3.org/2000/svg"
   xmlns:svg="http://www.w3.org/2000/svg"><defs
     id="defs2" /><g
     id="layer1"
     style="display:inline"><rect
       style="display:inline;fill:#000000;stroke:#000000;stroke-width:0.249013;paint-order:stroke markers fill"
       id="rect3173-3"
       width="119.75098"
       height="11.750987"
       x="0.1245065"
       y="0.1245065" /><path
       id="path3189-3"
       style="display:inline;fill:#ffffff;fill-opacity:1;stroke:none;stroke-width:0.205029;stroke-opacity:1"
       d="m 116.74748,4.8324021 0.0509,-0.1778735 h 0.11304 v 0.4726595 h -0.0836 V 4.9869987 l 0.004,-0.2210999 -0.0621,0.2050359 h -0.0449 l -0.0554,-0.1961709 0.004,0.2122349 v 0.1401894 h -0.0836 V 4.6545286 h 0.11303 l 0.0449,0.1778735 M 116.39337,4.7293235 V 5.127746 h -0.0914 V 4.7293235 h -0.14407 v -0.074244 h 0.38122 v 0.074244 h -0.14573 M 95.017418,5.3719384 v 0.3535254 h 0.412248 v 0.4122617 h 0.353541 V 5.7254638 h 0.412295 V 5.3719384 H 95.783207 V 4.9596666 h -0.353541 v 0.4122718 h -0.412248 m 0.412248,-2.4087819 a 2.5910183,2.5910183 0 0 0 -2.40875,2.4087819 h 1.642955 v 0.3535254 h -1.642955 a 2.5910224,2.5910224 0 0 0 2.40875,2.408788 V 7.5513125 h 0.353541 v 0.5829393 a 2.5910909,2.5910909 0 0 0 2.408796,-2.408788 H 97.609064 V 5.3719384 h 0.582939 A 2.5910435,2.5910435 0 0 0 95.783207,2.9631565 v 1.642987 H 95.429666 V 2.9631565 M 95.783207,2.250001 v 0.3585228 a 2.9444523,2.9444523 0 0 1 2.762863,2.7628629 h 0.358515 V 5.7249035 H 98.54607 A 2.9456263,2.9456263 0 0 1 95.783207,8.4888838 V 8.8474075 H 95.429666 V 8.4888838 a 2.9453667,2.9453667 0 0 1 -2.762863,-2.76342 H 92.308287 V 5.3719384 h 0.358516 A 2.9444574,2.9444574 0 0 1 95.429666,2.6090678 V 2.250552 h 0.353541 m 16.295673,0.8927029 h 0.85669 a 13598.959,13598.959 0 0 1 0,4.808133 l -0.24787,4.099e-4 -0.28221,4.099e-4 -0.12745,1.395e-4 -0.10416,1.086e-4 -0.0703,6.96e-5 -0.0258,3.11e-5 2e-4,-0.1833135 2.1e-4,-0.2486172 1.9e-4,-0.3032643 1.5e-4,-0.347271 2.1e-4,-0.7840202 9e-5,-0.8323764 1e-5,-0.4077145 1e-5,-0.3878859 -2e-5,-0.3573984 v -0.316283 l -2e-5,-0.2645176 -2e-5,-0.2021207 -1e-5,-0.07433 -10e-6,-0.054748 v -0.033818 l -1e-5,-0.011562 m 3.56595,3.3141557 a 0.73469329,0.73469329 0 0 0 -0.71097,-0.7320077 0.73225035,0.73225035 0 0 0 -0.75524,0.7103875 0.7334223,0.7334223 0 0 0 0.71201,0.7541634 0.73588881,0.73588881 0 0 0 0.7542,-0.7325432 m -0.72979,1.4939164 a 1.5026483,1.5026483 0 0 1 -1.49781,-1.5509967 l 0.0365,-0.2827112 0.0897,-0.2693462 0.13892,-0.2480593 0.18409,-0.2188511 0.22517,-0.181735 0.26221,-0.1367014 0.29521,-0.083753 0.32414,-0.022891 0.28145,0.036607 0.26842,0.089696 0.24742,0.1387976 0.21841,0.1838791 0.18142,0.224973 0.13646,0.262069 0.0835,0.2951571 0.0226,0.324249 a 1.4984407,1.4984407 0 0 1 -1.4978,1.439618 m -3.38904,-0.00111 -0.86741,8.524e-4 -0.79884,8.524e-4 -0.26167,-0.026735 -0.22964,-0.076469 -0.19671,-0.1206312 -0.16291,-0.1592059 -0.12823,-0.1921869 -0.0927,-0.2195951 -0.0563,-0.2414105 -0.019,-0.2576449 -1.7e-4,-0.4995801 -4.1e-4,-0.5588007 -2.1e-4,-0.2506305 -1.8e-4,-0.204268 -6e-5,-0.078374 -6e-5,-0.059141 -4e-5,-0.037351 -2e-5,-0.013018 h 0.83506 v 0.012732 l -3e-5,0.036506 -6e-5,0.057801 -7e-5,0.0766 -1.7e-4,0.1996642 -2.1e-4,0.2450131 -4.1e-4,0.5463943 -1.7e-4,0.488777 0.01,0.1411758 0.0307,0.1187861 0.054,0.097508 0.08,0.077314 0.10833,0.05822 0.13925,0.040234 0.17265,0.023333 0.20856,0.00752 h 0.19684 0.13453 l -7.8e-4,-2.2275832 h 0.84666 l 1.2e-4,0.029765 9e-5,0.084474 7e-5,0.1319535 6e-5,0.1722028 9e-5,0.4362461 8e-5,0.5105142 4e-5,0.5269602 2e-5,0.4855765 v 0.2091964 l 1e-5,0.1771699 v 0.1379034 0.091424 M 106.0118,6.4325278 v 0.2222219 0.25225 0.1137733 0.092969 0.062698 0.023 l 0.0169,-1.233e-4 0.0466,-4.099e-4 0.0702,-4.1e-4 0.0877,-4.107e-4 0.20361,-0.001 0.20061,-4.1e-4 0.16082,-0.00924 0.15438,-0.029153 0.14331,-0.051129 0.12763,-0.075175 0.1073,-0.1013117 0.0824,-0.1295195 0.0529,-0.159804 0.0187,-0.1921708 -0.0164,-0.2061123 -0.0475,-0.169351 -0.0761,-0.1354321 -0.10207,-0.104389 -0.12545,-0.076206 -0.14622,-0.050888 -0.16445,-0.028432 -0.18006,-0.00883 -0.17606,-0.001 -0.20255,-2.053e-4 -0.0918,4.73e-5 -0.0752,9.22e-5 -0.0508,1.007e-4 -0.0187,3.88e-5 1e-5,0.022992 7e-5,0.062667 9e-5,0.092859 1.1e-4,0.1135803 1.8e-4,0.2514224 9e-5,0.2206179 m -0.85693,0.9118748 V 7.0175353 6.6416846 6.2455319 5.8575537 5.5062314 5.2200239 5.1102484 5.0274268 4.97512 4.956894 l 0.0443,2.4e-5 0.12079,5.35e-5 0.1793,6.97e-5 0.21974,6.2e-5 0.48881,3.02e-5 0.43436,-2.045e-4 0.362,0.031322 0.31655,0.08924 0.27023,0.1400972 0.22306,0.1838869 0.175,0.2206264 0.12608,0.2502763 0.0762,0.2728868 0.0257,0.2884076 -0.0256,0.311153 -0.0752,0.2873227 -0.12262,0.2580471 -0.16785,0.2233309 -0.21085,0.1831755 -0.25167,0.1375709 -0.29026,0.086541 -0.32666,0.030052 h -0.18137 -0.24558 -0.11757 -0.0985 -0.0677 -0.0252 l 7.8e-4,1.7981338 -0.85778,0.001 1e-5,-0.018389 5e-5,-0.052748 5e-5,-0.083521 6e-5,-0.1107038 1.8e-4,-0.2885634 2e-4,-0.3541523 2.1e-4,-0.390984 1.8e-4,-0.3990595 1.2e-4,-0.3783832 5e-5,-0.328952 m -2.90654,-3.4415909 -0.33644,0.035429 -0.30976,0.095889 -0.27788,0.1494892 -0.24082,0.1962235 -0.1986,0.2360945 -0.15118,0.2691061 -0.0986,0.2952407 -0.0408,0.3145239 0.012,0.2074598 0.0293,0.19384 0.0453,0.1802517 0.0603,0.1667325 0.16078,0.2930571 0.20697,0.2395267 0.24412,0.1863906 0.27222,0.1336429 0.29128,0.081272 0.30131,0.029315 0.30229,-0.022271 0.29424,-0.073462 0.27712,-0.1242587 0.25098,-0.1746591 0.21579,-0.2246863 0.17156,-0.2743049 0.0664,-0.1556404 0.0519,-0.1679035 0.0364,-0.1801122 0.0197,-0.1922792 a 1.6617582,1.6617582 0 0 0 -1.65581,-1.7139077 m 2.42865,1.6679154 -0.0344,0.3927741 -0.0905,0.3647462 -0.14091,0.3344446 -0.18584,0.3018927 -0.22523,0.2670679 -0.25918,0.2299797 -0.28753,0.1906372 -0.31038,0.1490156 -0.32769,0.1051415 -0.33947,0.059003 L 102.13003,7.97617 101.78358,7.936091 101.44191,7.843085 101.11058,7.694883 100.7951,7.4892194 100.501,7.2238268 100.3388,7.0429761 100.19919,6.8478142 100.0821,6.6404698 99.98749,6.4230662 99.9153,6.1977135 99.86552,5.9665482 99.83805,5.7316781 l -0.0056,-0.2364425 0.01697,-0.2358993 0.03909,-0.2332274 0.06122,-0.2284445 0.08324,-0.221527 0.10528,-0.2125053 0.1272,-0.2013372 0.14909,-0.1880722 0.17092,-0.1726676 0.29964,-0.245981 0.31814,-0.1877786 0.33144,-0.1318527 0.33951,-0.078211 0.34235,-0.026858 0.33999,0.022201 0.33239,0.068983 0.31956,0.113478 0.30152,0.1556869 0.27825,0.1956129 0.24975,0.2332421 0.21603,0.2686015 0.17711,0.3016672 0.13293,0.3324391 0.0835,0.3609414 0.0289,0.3871474" /><text
       xml:space="preserve"
       style="font-weight:bold;font-size:6.06771px;font-family:sans-serif;-inkscape-font-specification:'sans-serif, Bold';display:inline;fill:#ffffff;stroke:#000000;stroke-width:0.162539;paint-order:stroke markers fill"
       x="31.278759"
       y="7.2443538"
       id="text3179-9"><tspan
         id="tspan3177-0"
         style="font-style:normal;font-variant:normal;font-weight:bold;font-stretch:normal;font-size:6.06771px;font-family:'Roboto Mono';-inkscape-font-specification:'Roboto Mono, Bold';font-variant-ligatures:normal;font-variant-caps:normal;font-variant-numeric:normal;font-variant-east-asian:normal;fill:#ffffff;stroke-width:0.162539"
         x="31.278759"
         y="7.2443538"><tspan
           style="font-style:normal;font-variant:normal;font-weight:bold;font-stretch:normal;font-size:4.55078px;font-family:'Roboto Mono';-inkscape-font-specification:'Roboto Mono, Bold';font-variant-ligatures:normal;font-variant-caps:normal;font-variant-numeric:normal;font-variant-east-asian:normal;stroke-width:0.162539"
           id="tspan3175-5">LumenPnP Strip Feeder</tspan></tspan></text><rect
       style="display:inline;fill:#e74c3c;fill-opacity:1;stroke:none;stroke-width:0.121679;stroke-opacity:1;paint-order:stroke markers fill"
       id="rect441-0"
       width="27.999998"
       height="11.999999"
       x="2.0489097e-07"
       y="2.0608162e-07" /><text
       xml:space="preserve"
       style="font-weight:bold;font-size:13.1282px;font-family:sans-serif;-inkscape-font-specification:'sans-serif, Bold';display:inline;fill:#ffffff;stroke:none;stroke-width:0.351671;paint-order:stroke markers fill"
       x="5.0725689"
       y="9.499999"
       id="text605-4"><tspan
         id="tspan603-0"
         style="font-style:normal;font-variant:normal;font-weight:bold;font-stretch:normal;font-size:13.1282px;font-family:'Roboto Mono';-inkscape-font-specification:'Roboto Mono, Bold';font-variant-ligatures:normal;font-variant-caps:normal;font-variant-numeric:normal;font-variant-east-asian:normal;fill:#ffffff;stroke:none;stroke-width:0.351671"
         x="5.0725689"
         y="9.499999"><tspan
           style="font-style:normal;font-variant:normal;font-weight:bold;font-stretch:normal;font-size:9.84615px;font-family:'Roboto Mono';-inkscape-font-specification:'Roboto Mono, Bold';font-variant-ligatures:normal;font-variant-caps:normal;font-variant-numeric:normal;font-variant-east-asian:normal;stroke:none;stroke-width:0.351671"
           id="tspan709-5">8mm</tspan></tspan></text><path
       id="rect10442-7-1"
       clip-path="none"
       style="display:inline;fill:none;stroke:#ff0000;stroke-width:0.100508;stroke-dasharray:0.402031, 0.100508;stroke-dashoffset:0"
       d="M 0.250252,0.250254 V 11.749746 H 109.8 v -1.309131 h 9.94975 V 0.250254 Z" /></g></svg>
