<?xml version="1.0" encoding="UTF-8" standalone="no"?>
<!-- Created with Inkscape (http://www.inkscape.org/) -->

<svg
   width="120mm"
   height="12mm"
   viewBox="0 0 120 12"
   version="1.1"
   id="svg5"
   xml:space="preserve"
   inkscape:version="1.2.2 (b0a84865, 2022-12-01)"
   sodipodi:docname="strip-feeder-label-project.svg"
   xmlns:inkscape="http://www.inkscape.org/namespaces/inkscape"
   xmlns:sodipodi="http://sodipodi.sourceforge.net/DTD/sodipodi-0.dtd"
   xmlns="http://www.w3.org/2000/svg"
   xmlns:svg="http://www.w3.org/2000/svg"><sodipodi:namedview
     id="namedview7"
     pagecolor="#ffffff"
     bordercolor="#000000"
     borderopacity="0.25"
     inkscape:showpageshadow="2"
     inkscape:pageopacity="0.0"
     inkscape:pagecheckerboard="0"
     inkscape:deskcolor="#d1d1d1"
     inkscape:document-units="mm"
     showgrid="false"
     inkscape:zoom="2.4934469"
     inkscape:cx="215.76558"
     inkscape:cy="13.635743"
     inkscape:window-width="1800"
     inkscape:window-height="1098"
     inkscape:window-x="0"
     inkscape:window-y="-116"
     inkscape:window-maximized="0"
     inkscape:current-layer="g1852" /><defs
     id="defs2"><inkscape:path-effect
       effect="powerclip"
       id="path-effect11434"
       is_visible="true"
       lpeversion="1"
       inverse="true"
       flatten="false"
       hide_clip="false"
       message="Use fill-rule evenodd on &lt;b&gt;fill and stroke&lt;/b&gt; dialog if no flatten result after convert clip to paths." /><marker
       id="DistanceX"
       orient="auto"
       refX="0.0"
       refY="0.0"
       style="overflow:visible"><path
         d="M 3,-3 L -3,3 M 0,-5 L  0,5"
         style="stroke:#000000; stroke-width:0.5"
         id="path2495" /></marker><pattern
       id="Hatch"
       patternUnits="userSpaceOnUse"
       width="8"
       height="8"
       x="0"
       y="0"><path
         d="M8 4 l-4,4"
         stroke="#000000"
         stroke-width="0.25"
         linecap="square"
         id="path2498" /><path
         d="M6 2 l-4,4"
         stroke="#000000"
         stroke-width="0.25"
         linecap="square"
         id="path2500" /><path
         d="M4 0 l-4,4"
         stroke="#000000"
         stroke-width="0.25"
         linecap="square"
         id="path2502" /></pattern><symbol
       id="*MODEL_SPACE" /><symbol
       id="*PAPER_SPACE" /><marker
       id="DistanceX-8"
       orient="auto"
       refX="0.0"
       refY="0.0"
       style="overflow:visible"><path
         d="M 3,-3 L -3,3 M 0,-5 L  0,5"
         style="stroke:#000000; stroke-width:0.5"
         id="path9534" /></marker><pattern
       id="Hatch-3"
       patternUnits="userSpaceOnUse"
       width="8"
       height="8"
       x="0"
       y="0"><path
         d="M8 4 l-4,4"
         stroke="#000000"
         stroke-width="0.25"
         linecap="square"
         id="path9537" /><path
         d="M6 2 l-4,4"
         stroke="#000000"
         stroke-width="0.25"
         linecap="square"
         id="path9539" /><path
         d="M4 0 l-4,4"
         stroke="#000000"
         stroke-width="0.25"
         linecap="square"
         id="path9541" /></pattern><symbol
       id="*MODEL_SPACE-8" /><symbol
       id="*PAPER_SPACE-1" /><marker
       id="DistanceX-83"
       orient="auto"
       refX="0.0"
       refY="0.0"
       style="overflow:visible"><path
         d="M 3,-3 L -3,3 M 0,-5 L  0,5"
         style="stroke:#000000; stroke-width:0.5"
         id="path9683" /></marker><pattern
       id="Hatch-5"
       patternUnits="userSpaceOnUse"
       width="8"
       height="8"
       x="0"
       y="0"><path
         d="M8 4 l-4,4"
         stroke="#000000"
         stroke-width="0.25"
         linecap="square"
         id="path9686" /><path
         d="M6 2 l-4,4"
         stroke="#000000"
         stroke-width="0.25"
         linecap="square"
         id="path9688" /><path
         d="M4 0 l-4,4"
         stroke="#000000"
         stroke-width="0.25"
         linecap="square"
         id="path9690" /></pattern><symbol
       id="*MODEL_SPACE-2" /><symbol
       id="*PAPER_SPACE-2" /><filter
       id="mask-powermask-path-effect10778_inverse"
       inkscape:label="filtermask-powermask-path-effect10778"
       style="color-interpolation-filters:sRGB"
       height="100"
       width="100"
       x="-50"
       y="-50"><feColorMatrix
         id="mask-powermask-path-effect10778_primitive1"
         values="1"
         type="saturate"
         result="fbSourceGraphic" /><feColorMatrix
         id="mask-powermask-path-effect10778_primitive2"
         values="-1 0 0 0 1 0 -1 0 0 1 0 0 -1 0 1 0 0 0 1 0 "
         in="fbSourceGraphic" /></filter></defs><g
     inkscape:label="8mm"
     inkscape:groupmode="layer"
     id="layer1"
     style="display:inline"
     sodipodi:insensitive="true"><rect
       style="display:inline;fill:#000000;stroke:#000000;stroke-width:0.249013;paint-order:stroke markers fill"
       id="rect3173-3"
       width="119.75098"
       height="11.750987"
       x="0.1245065"
       y="0.1245065"
       inkscape:label="Black Background" /><path
       id="path3189-3"
       style="display:inline;fill:#ffffff;fill-opacity:1;stroke:none;stroke-width:0.205029;stroke-opacity:1"
       d="m 116.74748,4.8324021 0.0509,-0.1778735 h 0.11304 v 0.4726595 h -0.0836 V 4.9869987 l 0.004,-0.2210999 -0.0621,0.2050359 h -0.0449 l -0.0554,-0.1961709 0.004,0.2122349 v 0.1401894 h -0.0836 V 4.6545286 h 0.11303 l 0.0449,0.1778735 M 116.39337,4.7293235 V 5.127746 h -0.0914 V 4.7293235 h -0.14407 v -0.074244 h 0.38122 v 0.074244 h -0.14573 M 95.017418,5.3719384 v 0.3535254 h 0.412248 v 0.4122617 h 0.353541 V 5.7254638 h 0.412295 V 5.3719384 H 95.783207 V 4.9596666 h -0.353541 v 0.4122718 h -0.412248 m 0.412248,-2.4087819 a 2.5910183,2.5910183 0 0 0 -2.40875,2.4087819 h 1.642955 v 0.3535254 h -1.642955 a 2.5910224,2.5910224 0 0 0 2.40875,2.408788 V 7.5513125 h 0.353541 v 0.5829393 a 2.5910909,2.5910909 0 0 0 2.408796,-2.408788 H 97.609064 V 5.3719384 h 0.582939 A 2.5910435,2.5910435 0 0 0 95.783207,2.9631565 v 1.642987 H 95.429666 V 2.9631565 M 95.783207,2.250001 v 0.3585228 a 2.9444523,2.9444523 0 0 1 2.762863,2.7628629 h 0.358515 V 5.7249035 H 98.54607 A 2.9456263,2.9456263 0 0 1 95.783207,8.4888838 V 8.8474075 H 95.429666 V 8.4888838 a 2.9453667,2.9453667 0 0 1 -2.762863,-2.76342 H 92.308287 V 5.3719384 h 0.358516 A 2.9444574,2.9444574 0 0 1 95.429666,2.6090678 V 2.250552 h 0.353541 m 16.295673,0.8927029 h 0.85669 a 13598.959,13598.959 0 0 1 0,4.808133 l -0.24787,4.099e-4 -0.28221,4.099e-4 -0.12745,1.395e-4 -0.10416,1.086e-4 -0.0703,6.96e-5 -0.0258,3.11e-5 2e-4,-0.1833135 2.1e-4,-0.2486172 1.9e-4,-0.3032643 1.5e-4,-0.347271 2.1e-4,-0.7840202 9e-5,-0.8323764 1e-5,-0.4077145 1e-5,-0.3878859 -2e-5,-0.3573984 v -0.316283 l -2e-5,-0.2645176 -2e-5,-0.2021207 -1e-5,-0.07433 -10e-6,-0.054748 v -0.033818 l -1e-5,-0.011562 m 3.56595,3.3141557 a 0.73469329,0.73469329 0 0 0 -0.71097,-0.7320077 0.73225035,0.73225035 0 0 0 -0.75524,0.7103875 0.7334223,0.7334223 0 0 0 0.71201,0.7541634 0.73588881,0.73588881 0 0 0 0.7542,-0.7325432 m -0.72979,1.4939164 a 1.5026483,1.5026483 0 0 1 -1.49781,-1.5509967 l 0.0365,-0.2827112 0.0897,-0.2693462 0.13892,-0.2480593 0.18409,-0.2188511 0.22517,-0.181735 0.26221,-0.1367014 0.29521,-0.083753 0.32414,-0.022891 0.28145,0.036607 0.26842,0.089696 0.24742,0.1387976 0.21841,0.1838791 0.18142,0.224973 0.13646,0.262069 0.0835,0.2951571 0.0226,0.324249 a 1.4984407,1.4984407 0 0 1 -1.4978,1.439618 m -3.38904,-0.00111 -0.86741,8.524e-4 -0.79884,8.524e-4 -0.26167,-0.026735 -0.22964,-0.076469 -0.19671,-0.1206312 -0.16291,-0.1592059 -0.12823,-0.1921869 -0.0927,-0.2195951 -0.0563,-0.2414105 -0.019,-0.2576449 -1.7e-4,-0.4995801 -4.1e-4,-0.5588007 -2.1e-4,-0.2506305 -1.8e-4,-0.204268 -6e-5,-0.078374 -6e-5,-0.059141 -4e-5,-0.037351 -2e-5,-0.013018 h 0.83506 v 0.012732 l -3e-5,0.036506 -6e-5,0.057801 -7e-5,0.0766 -1.7e-4,0.1996642 -2.1e-4,0.2450131 -4.1e-4,0.5463943 -1.7e-4,0.488777 0.01,0.1411758 0.0307,0.1187861 0.054,0.097508 0.08,0.077314 0.10833,0.05822 0.13925,0.040234 0.17265,0.023333 0.20856,0.00752 h 0.19684 0.13453 l -7.8e-4,-2.2275832 h 0.84666 l 1.2e-4,0.029765 9e-5,0.084474 7e-5,0.1319535 6e-5,0.1722028 9e-5,0.4362461 8e-5,0.5105142 4e-5,0.5269602 2e-5,0.4855765 v 0.2091964 l 1e-5,0.1771699 v 0.1379034 0.091424 M 106.0118,6.4325278 v 0.2222219 0.25225 0.1137733 0.092969 0.062698 0.023 l 0.0169,-1.233e-4 0.0466,-4.099e-4 0.0702,-4.1e-4 0.0877,-4.107e-4 0.20361,-0.001 0.20061,-4.1e-4 0.16082,-0.00924 0.15438,-0.029153 0.14331,-0.051129 0.12763,-0.075175 0.1073,-0.1013117 0.0824,-0.1295195 0.0529,-0.159804 0.0187,-0.1921708 -0.0164,-0.2061123 -0.0475,-0.169351 -0.0761,-0.1354321 -0.10207,-0.104389 -0.12545,-0.076206 -0.14622,-0.050888 -0.16445,-0.028432 -0.18006,-0.00883 -0.17606,-0.001 -0.20255,-2.053e-4 -0.0918,4.73e-5 -0.0752,9.22e-5 -0.0508,1.007e-4 -0.0187,3.88e-5 1e-5,0.022992 7e-5,0.062667 9e-5,0.092859 1.1e-4,0.1135803 1.8e-4,0.2514224 9e-5,0.2206179 m -0.85693,0.9118748 V 7.0175353 6.6416846 6.2455319 5.8575537 5.5062314 5.2200239 5.1102484 5.0274268 4.97512 4.956894 l 0.0443,2.4e-5 0.12079,5.35e-5 0.1793,6.97e-5 0.21974,6.2e-5 0.48881,3.02e-5 0.43436,-2.045e-4 0.362,0.031322 0.31655,0.08924 0.27023,0.1400972 0.22306,0.1838869 0.175,0.2206264 0.12608,0.2502763 0.0762,0.2728868 0.0257,0.2884076 -0.0256,0.311153 -0.0752,0.2873227 -0.12262,0.2580471 -0.16785,0.2233309 -0.21085,0.1831755 -0.25167,0.1375709 -0.29026,0.086541 -0.32666,0.030052 h -0.18137 -0.24558 -0.11757 -0.0985 -0.0677 -0.0252 l 7.8e-4,1.7981338 -0.85778,0.001 1e-5,-0.018389 5e-5,-0.052748 5e-5,-0.083521 6e-5,-0.1107038 1.8e-4,-0.2885634 2e-4,-0.3541523 2.1e-4,-0.390984 1.8e-4,-0.3990595 1.2e-4,-0.3783832 5e-5,-0.328952 m -2.90654,-3.4415909 -0.33644,0.035429 -0.30976,0.095889 -0.27788,0.1494892 -0.24082,0.1962235 -0.1986,0.2360945 -0.15118,0.2691061 -0.0986,0.2952407 -0.0408,0.3145239 0.012,0.2074598 0.0293,0.19384 0.0453,0.1802517 0.0603,0.1667325 0.16078,0.2930571 0.20697,0.2395267 0.24412,0.1863906 0.27222,0.1336429 0.29128,0.081272 0.30131,0.029315 0.30229,-0.022271 0.29424,-0.073462 0.27712,-0.1242587 0.25098,-0.1746591 0.21579,-0.2246863 0.17156,-0.2743049 0.0664,-0.1556404 0.0519,-0.1679035 0.0364,-0.1801122 0.0197,-0.1922792 a 1.6617582,1.6617582 0 0 0 -1.65581,-1.7139077 m 2.42865,1.6679154 -0.0344,0.3927741 -0.0905,0.3647462 -0.14091,0.3344446 -0.18584,0.3018927 -0.22523,0.2670679 -0.25918,0.2299797 -0.28753,0.1906372 -0.31038,0.1490156 -0.32769,0.1051415 -0.33947,0.059003 L 102.13003,7.97617 101.78358,7.936091 101.44191,7.843085 101.11058,7.694883 100.7951,7.4892194 100.501,7.2238268 100.3388,7.0429761 100.19919,6.8478142 100.0821,6.6404698 99.98749,6.4230662 99.9153,6.1977135 99.86552,5.9665482 99.83805,5.7316781 l -0.0056,-0.2364425 0.01697,-0.2358993 0.03909,-0.2332274 0.06122,-0.2284445 0.08324,-0.221527 0.10528,-0.2125053 0.1272,-0.2013372 0.14909,-0.1880722 0.17092,-0.1726676 0.29964,-0.245981 0.31814,-0.1877786 0.33144,-0.1318527 0.33951,-0.078211 0.34235,-0.026858 0.33999,0.022201 0.33239,0.068983 0.31956,0.113478 0.30152,0.1556869 0.27825,0.1956129 0.24975,0.2332421 0.21603,0.2686015 0.17711,0.3016672 0.13293,0.3324391 0.0835,0.3609414 0.0289,0.3871474"
       inkscape:label="Opulo Logo" /><text
       xml:space="preserve"
       style="font-weight:bold;font-size:6.06771px;font-family:sans-serif;-inkscape-font-specification:'sans-serif, Bold';display:inline;fill:#ffffff;stroke:#000000;stroke-width:0.162539;paint-order:stroke markers fill"
       x="31.278759"
       y="7.2443538"
       id="text3179-9"
       inkscape:label="LumenPnP Strip Feeder"><tspan
         sodipodi:role="line"
         id="tspan3177-0"
         style="font-style:normal;font-variant:normal;font-weight:bold;font-stretch:normal;font-size:6.06771px;font-family:'Roboto Mono';-inkscape-font-specification:'Roboto Mono, Bold';font-variant-ligatures:normal;font-variant-caps:normal;font-variant-numeric:normal;font-variant-east-asian:normal;fill:#ffffff;stroke-width:0.162539"
         x="31.278759"
         y="7.2443538"><tspan
           style="font-style:normal;font-variant:normal;font-weight:bold;font-stretch:normal;font-size:4.55078px;font-family:'Roboto Mono';-inkscape-font-specification:'Roboto Mono, Bold';font-variant-ligatures:normal;font-variant-caps:normal;font-variant-numeric:normal;font-variant-east-asian:normal;stroke-width:0.162539"
           id="tspan3175-5">LumenPnP Strip Feeder</tspan></tspan></text><rect
       style="display:inline;fill:#e74c3c;fill-opacity:1;stroke:none;stroke-width:0.121679;stroke-opacity:1;paint-order:stroke markers fill"
       id="rect441-0"
       width="27.999998"
       height="11.999999"
       x="2.0489097e-07"
       y="2.0608162e-07"
       inkscape:label="Red Background" /><text
       xml:space="preserve"
       style="font-weight:bold;font-size:13.1282px;font-family:sans-serif;-inkscape-font-specification:'sans-serif, Bold';display:inline;fill:#ffffff;stroke:none;stroke-width:0.351671;paint-order:stroke markers fill"
       x="5.0725689"
       y="9.499999"
       id="text605-4"
       inkscape:label="8mm"><tspan
         sodipodi:role="line"
         id="tspan603-0"
         style="font-style:normal;font-variant:normal;font-weight:bold;font-stretch:normal;font-size:13.1282px;font-family:'Roboto Mono';-inkscape-font-specification:'Roboto Mono, Bold';font-variant-ligatures:normal;font-variant-caps:normal;font-variant-numeric:normal;font-variant-east-asian:normal;fill:#ffffff;stroke:none;stroke-width:0.351671"
         x="5.0725689"
         y="9.499999"><tspan
           style="font-style:normal;font-variant:normal;font-weight:bold;font-stretch:normal;font-size:9.84615px;font-family:'Roboto Mono';-inkscape-font-specification:'Roboto Mono, Bold';font-variant-ligatures:normal;font-variant-caps:normal;font-variant-numeric:normal;font-variant-east-asian:normal;stroke:none;stroke-width:0.351671"
           id="tspan709-5">8mm</tspan></tspan></text><path
       id="rect10442-7-1"
       clip-path="none"
       style="display:inline;fill:none;stroke:#ff0000;stroke-width:0.100508;stroke-dasharray:0.402031, 0.100508;stroke-dashoffset:0"
       inkscape:label="8mm cutout"
       d="M 0.250252,0.250254 V 11.749746 H 109.8 v -1.309131 h 9.94975 V 0.250254 Z"
       sodipodi:nodetypes="ccccccc" /></g><g
     inkscape:label="12mm"
     inkscape:groupmode="layer"
     id="g1852"
     style="display:inline"
     sodipodi:insensitive="true"><rect
       style="display:inline;fill:#000000;stroke:#000000;stroke-width:0.249013;paint-order:stroke markers fill"
       id="rect3173"
       width="119.75098"
       height="11.750987"
       x="0.1245065"
       y="0.1245065"
       inkscape:label="Black Background" /><path
       id="path3189"
       style="display:inline;fill:#ffffff;fill-opacity:1;stroke:none;stroke-width:0.205029;stroke-opacity:1"
       d="m 116.74748,4.8324021 0.0509,-0.1778735 h 0.11304 v 0.4726595 h -0.0836 V 4.9869987 l 0.004,-0.2210999 -0.0621,0.2050359 h -0.0449 l -0.0554,-0.1961709 0.004,0.2122349 v 0.1401894 h -0.0836 V 4.6545286 h 0.11303 l 0.0449,0.1778735 M 116.39337,4.7293235 V 5.127746 h -0.0914 V 4.7293235 h -0.14407 v -0.074244 h 0.38122 v 0.074244 h -0.14573 M 95.017418,5.3719384 v 0.3535254 h 0.412248 v 0.4122617 h 0.353541 V 5.7254638 h 0.412295 V 5.3719384 H 95.783207 V 4.9596666 h -0.353541 v 0.4122718 h -0.412248 m 0.412248,-2.4087819 a 2.5910183,2.5910183 0 0 0 -2.40875,2.4087819 h 1.642955 v 0.3535254 h -1.642955 a 2.5910224,2.5910224 0 0 0 2.40875,2.408788 V 7.5513125 h 0.353541 v 0.5829393 a 2.5910909,2.5910909 0 0 0 2.408796,-2.408788 H 97.609064 V 5.3719384 h 0.582939 A 2.5910435,2.5910435 0 0 0 95.783207,2.9631565 v 1.642987 H 95.429666 V 2.9631565 M 95.783207,2.250001 v 0.3585228 a 2.9444523,2.9444523 0 0 1 2.762863,2.7628629 h 0.358515 V 5.7249035 H 98.54607 A 2.9456263,2.9456263 0 0 1 95.783207,8.4888838 V 8.8474075 H 95.429666 V 8.4888838 a 2.9453667,2.9453667 0 0 1 -2.762863,-2.76342 H 92.308287 V 5.3719384 h 0.358516 A 2.9444574,2.9444574 0 0 1 95.429666,2.6090678 V 2.250552 h 0.353541 m 16.295673,0.8927029 h 0.85669 a 13598.959,13598.959 0 0 1 0,4.808133 l -0.24787,4.099e-4 -0.28221,4.099e-4 -0.12745,1.395e-4 -0.10416,1.086e-4 -0.0703,6.96e-5 -0.0258,3.11e-5 2e-4,-0.1833135 2.1e-4,-0.2486172 1.9e-4,-0.3032643 1.5e-4,-0.347271 2.1e-4,-0.7840202 9e-5,-0.8323764 1e-5,-0.4077145 1e-5,-0.3878859 -2e-5,-0.3573984 v -0.316283 l -2e-5,-0.2645176 -2e-5,-0.2021207 -1e-5,-0.07433 -10e-6,-0.054748 v -0.033818 l -1e-5,-0.011562 m 3.56595,3.3141557 a 0.73469329,0.73469329 0 0 0 -0.71097,-0.7320077 0.73225035,0.73225035 0 0 0 -0.75524,0.7103875 0.7334223,0.7334223 0 0 0 0.71201,0.7541634 0.73588881,0.73588881 0 0 0 0.7542,-0.7325432 m -0.72979,1.4939164 a 1.5026483,1.5026483 0 0 1 -1.49781,-1.5509967 l 0.0365,-0.2827112 0.0897,-0.2693462 0.13892,-0.2480593 0.18409,-0.2188511 0.22517,-0.181735 0.26221,-0.1367014 0.29521,-0.083753 0.32414,-0.022891 0.28145,0.036607 0.26842,0.089696 0.24742,0.1387976 0.21841,0.1838791 0.18142,0.224973 0.13646,0.262069 0.0835,0.2951571 0.0226,0.324249 a 1.4984407,1.4984407 0 0 1 -1.4978,1.439618 m -3.38904,-0.00111 -0.86741,8.524e-4 -0.79884,8.524e-4 -0.26167,-0.026735 -0.22964,-0.076469 -0.19671,-0.1206312 -0.16291,-0.1592059 -0.12823,-0.1921869 -0.0927,-0.2195951 -0.0563,-0.2414105 -0.019,-0.2576449 -1.7e-4,-0.4995801 -4.1e-4,-0.5588007 -2.1e-4,-0.2506305 -1.8e-4,-0.204268 -6e-5,-0.078374 -6e-5,-0.059141 -4e-5,-0.037351 -2e-5,-0.013018 h 0.83506 v 0.012732 l -3e-5,0.036506 -6e-5,0.057801 -7e-5,0.0766 -1.7e-4,0.1996642 -2.1e-4,0.2450131 -4.1e-4,0.5463943 -1.7e-4,0.488777 0.01,0.1411758 0.0307,0.1187861 0.054,0.097508 0.08,0.077314 0.10833,0.05822 0.13925,0.040234 0.17265,0.023333 0.20856,0.00752 h 0.19684 0.13453 l -7.8e-4,-2.2275832 h 0.84666 l 1.2e-4,0.029765 9e-5,0.084474 7e-5,0.1319535 6e-5,0.1722028 9e-5,0.4362461 8e-5,0.5105142 4e-5,0.5269602 2e-5,0.4855765 v 0.2091964 l 1e-5,0.1771699 v 0.1379034 0.091424 M 106.0118,6.4325278 v 0.2222219 0.25225 0.1137733 0.092969 0.062698 0.023 l 0.0169,-1.233e-4 0.0466,-4.099e-4 0.0702,-4.1e-4 0.0877,-4.107e-4 0.20361,-0.001 0.20061,-4.1e-4 0.16082,-0.00924 0.15438,-0.029153 0.14331,-0.051129 0.12763,-0.075175 0.1073,-0.1013117 0.0824,-0.1295195 0.0529,-0.159804 0.0187,-0.1921708 -0.0164,-0.2061123 -0.0475,-0.169351 -0.0761,-0.1354321 -0.10207,-0.104389 -0.12545,-0.076206 -0.14622,-0.050888 -0.16445,-0.028432 -0.18006,-0.00883 -0.17606,-0.001 -0.20255,-2.053e-4 -0.0918,4.73e-5 -0.0752,9.22e-5 -0.0508,1.007e-4 -0.0187,3.88e-5 1e-5,0.022992 7e-5,0.062667 9e-5,0.092859 1.1e-4,0.1135803 1.8e-4,0.2514224 9e-5,0.2206179 m -0.85693,0.9118748 V 7.0175353 6.6416846 6.2455319 5.8575537 5.5062314 5.2200239 5.1102484 5.0274268 4.97512 4.956894 l 0.0443,2.4e-5 0.12079,5.35e-5 0.1793,6.97e-5 0.21974,6.2e-5 0.48881,3.02e-5 0.43436,-2.045e-4 0.362,0.031322 0.31655,0.08924 0.27023,0.1400972 0.22306,0.1838869 0.175,0.2206264 0.12608,0.2502763 0.0762,0.2728868 0.0257,0.2884076 -0.0256,0.311153 -0.0752,0.2873227 -0.12262,0.2580471 -0.16785,0.2233309 -0.21085,0.1831755 -0.25167,0.1375709 -0.29026,0.086541 -0.32666,0.030052 h -0.18137 -0.24558 -0.11757 -0.0985 -0.0677 -0.0252 l 7.8e-4,1.7981338 -0.85778,0.001 1e-5,-0.018389 5e-5,-0.052748 5e-5,-0.083521 6e-5,-0.1107038 1.8e-4,-0.2885634 2e-4,-0.3541523 2.1e-4,-0.390984 1.8e-4,-0.3990595 1.2e-4,-0.3783832 5e-5,-0.328952 m -2.90654,-3.4415909 -0.33644,0.035429 -0.30976,0.095889 -0.27788,0.1494892 -0.24082,0.1962235 -0.1986,0.2360945 -0.15118,0.2691061 -0.0986,0.2952407 -0.0408,0.3145239 0.012,0.2074598 0.0293,0.19384 0.0453,0.1802517 0.0603,0.1667325 0.16078,0.2930571 0.20697,0.2395267 0.24412,0.1863906 0.27222,0.1336429 0.29128,0.081272 0.30131,0.029315 0.30229,-0.022271 0.29424,-0.073462 0.27712,-0.1242587 0.25098,-0.1746591 0.21579,-0.2246863 0.17156,-0.2743049 0.0664,-0.1556404 0.0519,-0.1679035 0.0364,-0.1801122 0.0197,-0.1922792 a 1.6617582,1.6617582 0 0 0 -1.65581,-1.7139077 m 2.42865,1.6679154 -0.0344,0.3927741 -0.0905,0.3647462 -0.14091,0.3344446 -0.18584,0.3018927 -0.22523,0.2670679 -0.25918,0.2299797 -0.28753,0.1906372 -0.31038,0.1490156 -0.32769,0.1051415 -0.33947,0.059003 L 102.13003,7.97617 101.78358,7.936091 101.44191,7.843085 101.11058,7.694883 100.7951,7.4892194 100.501,7.2238268 100.3388,7.0429761 100.19919,6.8478142 100.0821,6.6404698 99.98749,6.4230662 99.9153,6.1977135 99.86552,5.9665482 99.83805,5.7316781 l -0.0056,-0.2364425 0.01697,-0.2358993 0.03909,-0.2332274 0.06122,-0.2284445 0.08324,-0.221527 0.10528,-0.2125053 0.1272,-0.2013372 0.14909,-0.1880722 0.17092,-0.1726676 0.29964,-0.245981 0.31814,-0.1877786 0.33144,-0.1318527 0.33951,-0.078211 0.34235,-0.026858 0.33999,0.022201 0.33239,0.068983 0.31956,0.113478 0.30152,0.1556869 0.27825,0.1956129 0.24975,0.2332421 0.21603,0.2686015 0.17711,0.3016672 0.13293,0.3324391 0.0835,0.3609414 0.0289,0.3871474"
       inkscape:label="Opulo Logo" /><text
       xml:space="preserve"
       style="font-weight:bold;font-size:6.06771px;font-family:sans-serif;-inkscape-font-specification:'sans-serif, Bold';display:inline;fill:#ffffff;stroke:#000000;stroke-width:0.162539;paint-order:stroke markers fill"
       x="31.278759"
       y="7.2443538"
       id="text3179"
       inkscape:label="LumenPnP Strip Feeder"><tspan
         sodipodi:role="line"
         id="tspan3177"
         style="font-style:normal;font-variant:normal;font-weight:bold;font-stretch:normal;font-size:6.06771px;font-family:'Roboto Mono';-inkscape-font-specification:'Roboto Mono, Bold';font-variant-ligatures:normal;font-variant-caps:normal;font-variant-numeric:normal;font-variant-east-asian:normal;fill:#ffffff;stroke-width:0.162539"
         x="31.278759"
         y="7.2443538"><tspan
           style="font-style:normal;font-variant:normal;font-weight:bold;font-stretch:normal;font-size:4.55078px;font-family:'Roboto Mono';-inkscape-font-specification:'Roboto Mono, Bold';font-variant-ligatures:normal;font-variant-caps:normal;font-variant-numeric:normal;font-variant-east-asian:normal;stroke-width:0.162539"
           id="tspan3175">LumenPnP Strip Feeder</tspan></tspan></text><rect
       style="fill:#e67e22;fill-opacity:1;stroke:none;stroke-width:0.121679;stroke-opacity:1;paint-order:stroke markers fill"
       id="rect1838"
       width="27.999998"
       height="11.999999"
       x="2.0489097e-07"
       y="2.0608162e-07"
       inkscape:label="Orange Background" /><text
       xml:space="preserve"
       style="font-weight:bold;font-size:13.1282px;font-family:sans-serif;-inkscape-font-specification:'sans-serif, Bold';fill:#ffffff;stroke:none;stroke-width:0.351671;paint-order:stroke markers fill"
       x="1.8975687"
       y="9.5480757"
       id="text1844"
       inkscape:label="12mm"><tspan
         sodipodi:role="line"
         id="tspan1842"
         style="font-style:normal;font-variant:normal;font-weight:bold;font-stretch:normal;font-size:13.1282px;font-family:'Roboto Mono';-inkscape-font-specification:'Roboto Mono, Bold';font-variant-ligatures:normal;font-variant-caps:normal;font-variant-numeric:normal;font-variant-east-asian:normal;fill:#ffffff;stroke:none;stroke-width:0.351671"
         x="1.8975687"
         y="9.5480757"><tspan
           style="font-style:normal;font-variant:normal;font-weight:bold;font-stretch:normal;font-size:9.84615px;font-family:'Roboto Mono';-inkscape-font-specification:'Roboto Mono, Bold';font-variant-ligatures:normal;font-variant-caps:normal;font-variant-numeric:normal;font-variant-east-asian:normal;stroke:none;stroke-width:0.351671"
           id="tspan1840">12mm</tspan></tspan></text><path
       id="rect10442-7-19"
       clip-path="none"
       style="display:inline;fill:none;stroke:#ff0000;stroke-width:0.100508;stroke-dasharray:0.402031, 0.100508;stroke-dashoffset:0"
       inkscape:label="12mm cutout"
       d="M 0.250252,0.250254 V 11.749746 H 99.8 v -1.309131 h 19.94975 V 0.250254 Z"
       sodipodi:nodetypes="ccccccc" /></g><g
     inkscape:label="16mm"
     inkscape:groupmode="layer"
     id="g1876"
     style="display:none"
     sodipodi:insensitive="true"><rect
       style="display:inline;fill:#000000;stroke:#000000;stroke-width:0.249013;paint-order:stroke markers fill"
       id="rect3173-7"
       width="119.75098"
       height="11.750987"
       x="0.1245065"
       y="0.1245065"
       inkscape:label="Black Background" /><path
       id="path3189-6"
       style="display:inline;fill:#ffffff;fill-opacity:1;stroke:none;stroke-width:0.205029;stroke-opacity:1"
       d="m 116.74748,4.8324021 0.0509,-0.1778735 h 0.11304 v 0.4726595 h -0.0836 V 4.9869987 l 0.004,-0.2210999 -0.0621,0.2050359 h -0.0449 l -0.0554,-0.1961709 0.004,0.2122349 v 0.1401894 h -0.0836 V 4.6545286 h 0.11303 l 0.0449,0.1778735 M 116.39337,4.7293235 V 5.127746 h -0.0914 V 4.7293235 h -0.14407 v -0.074244 h 0.38122 v 0.074244 h -0.14573 M 95.017418,5.3719384 v 0.3535254 h 0.412248 v 0.4122617 h 0.353541 V 5.7254638 h 0.412295 V 5.3719384 H 95.783207 V 4.9596666 h -0.353541 v 0.4122718 h -0.412248 m 0.412248,-2.4087819 a 2.5910183,2.5910183 0 0 0 -2.40875,2.4087819 h 1.642955 v 0.3535254 h -1.642955 a 2.5910224,2.5910224 0 0 0 2.40875,2.408788 V 7.5513125 h 0.353541 v 0.5829393 a 2.5910909,2.5910909 0 0 0 2.408796,-2.408788 H 97.609064 V 5.3719384 h 0.582939 A 2.5910435,2.5910435 0 0 0 95.783207,2.9631565 v 1.642987 H 95.429666 V 2.9631565 M 95.783207,2.250001 v 0.3585228 a 2.9444523,2.9444523 0 0 1 2.762863,2.7628629 h 0.358515 V 5.7249035 H 98.54607 A 2.9456263,2.9456263 0 0 1 95.783207,8.4888838 V 8.8474075 H 95.429666 V 8.4888838 a 2.9453667,2.9453667 0 0 1 -2.762863,-2.76342 H 92.308287 V 5.3719384 h 0.358516 A 2.9444574,2.9444574 0 0 1 95.429666,2.6090678 V 2.250552 h 0.353541 m 16.295673,0.8927029 h 0.85669 a 13598.959,13598.959 0 0 1 0,4.808133 l -0.24787,4.099e-4 -0.28221,4.099e-4 -0.12745,1.395e-4 -0.10416,1.086e-4 -0.0703,6.96e-5 -0.0258,3.11e-5 2e-4,-0.1833135 2.1e-4,-0.2486172 1.9e-4,-0.3032643 1.5e-4,-0.347271 2.1e-4,-0.7840202 9e-5,-0.8323764 1e-5,-0.4077145 1e-5,-0.3878859 -2e-5,-0.3573984 v -0.316283 l -2e-5,-0.2645176 -2e-5,-0.2021207 -1e-5,-0.07433 -10e-6,-0.054748 v -0.033818 l -1e-5,-0.011562 m 3.56595,3.3141557 a 0.73469329,0.73469329 0 0 0 -0.71097,-0.7320077 0.73225035,0.73225035 0 0 0 -0.75524,0.7103875 0.7334223,0.7334223 0 0 0 0.71201,0.7541634 0.73588881,0.73588881 0 0 0 0.7542,-0.7325432 m -0.72979,1.4939164 a 1.5026483,1.5026483 0 0 1 -1.49781,-1.5509967 l 0.0365,-0.2827112 0.0897,-0.2693462 0.13892,-0.2480593 0.18409,-0.2188511 0.22517,-0.181735 0.26221,-0.1367014 0.29521,-0.083753 0.32414,-0.022891 0.28145,0.036607 0.26842,0.089696 0.24742,0.1387976 0.21841,0.1838791 0.18142,0.224973 0.13646,0.262069 0.0835,0.2951571 0.0226,0.324249 a 1.4984407,1.4984407 0 0 1 -1.4978,1.439618 m -3.38904,-0.00111 -0.86741,8.524e-4 -0.79884,8.524e-4 -0.26167,-0.026735 -0.22964,-0.076469 -0.19671,-0.1206312 -0.16291,-0.1592059 -0.12823,-0.1921869 -0.0927,-0.2195951 -0.0563,-0.2414105 -0.019,-0.2576449 -1.7e-4,-0.4995801 -4.1e-4,-0.5588007 -2.1e-4,-0.2506305 -1.8e-4,-0.204268 -6e-5,-0.078374 -6e-5,-0.059141 -4e-5,-0.037351 -2e-5,-0.013018 h 0.83506 v 0.012732 l -3e-5,0.036506 -6e-5,0.057801 -7e-5,0.0766 -1.7e-4,0.1996642 -2.1e-4,0.2450131 -4.1e-4,0.5463943 -1.7e-4,0.488777 0.01,0.1411758 0.0307,0.1187861 0.054,0.097508 0.08,0.077314 0.10833,0.05822 0.13925,0.040234 0.17265,0.023333 0.20856,0.00752 h 0.19684 0.13453 l -7.8e-4,-2.2275832 h 0.84666 l 1.2e-4,0.029765 9e-5,0.084474 7e-5,0.1319535 6e-5,0.1722028 9e-5,0.4362461 8e-5,0.5105142 4e-5,0.5269602 2e-5,0.4855765 v 0.2091964 l 1e-5,0.1771699 v 0.1379034 0.091424 M 106.0118,6.4325278 v 0.2222219 0.25225 0.1137733 0.092969 0.062698 0.023 l 0.0169,-1.233e-4 0.0466,-4.099e-4 0.0702,-4.1e-4 0.0877,-4.107e-4 0.20361,-0.001 0.20061,-4.1e-4 0.16082,-0.00924 0.15438,-0.029153 0.14331,-0.051129 0.12763,-0.075175 0.1073,-0.1013117 0.0824,-0.1295195 0.0529,-0.159804 0.0187,-0.1921708 -0.0164,-0.2061123 -0.0475,-0.169351 -0.0761,-0.1354321 -0.10207,-0.104389 -0.12545,-0.076206 -0.14622,-0.050888 -0.16445,-0.028432 -0.18006,-0.00883 -0.17606,-0.001 -0.20255,-2.053e-4 -0.0918,4.73e-5 -0.0752,9.22e-5 -0.0508,1.007e-4 -0.0187,3.88e-5 1e-5,0.022992 7e-5,0.062667 9e-5,0.092859 1.1e-4,0.1135803 1.8e-4,0.2514224 9e-5,0.2206179 m -0.85693,0.9118748 V 7.0175353 6.6416846 6.2455319 5.8575537 5.5062314 5.2200239 5.1102484 5.0274268 4.97512 4.956894 l 0.0443,2.4e-5 0.12079,5.35e-5 0.1793,6.97e-5 0.21974,6.2e-5 0.48881,3.02e-5 0.43436,-2.045e-4 0.362,0.031322 0.31655,0.08924 0.27023,0.1400972 0.22306,0.1838869 0.175,0.2206264 0.12608,0.2502763 0.0762,0.2728868 0.0257,0.2884076 -0.0256,0.311153 -0.0752,0.2873227 -0.12262,0.2580471 -0.16785,0.2233309 -0.21085,0.1831755 -0.25167,0.1375709 -0.29026,0.086541 -0.32666,0.030052 h -0.18137 -0.24558 -0.11757 -0.0985 -0.0677 -0.0252 l 7.8e-4,1.7981338 -0.85778,0.001 1e-5,-0.018389 5e-5,-0.052748 5e-5,-0.083521 6e-5,-0.1107038 1.8e-4,-0.2885634 2e-4,-0.3541523 2.1e-4,-0.390984 1.8e-4,-0.3990595 1.2e-4,-0.3783832 5e-5,-0.328952 m -2.90654,-3.4415909 -0.33644,0.035429 -0.30976,0.095889 -0.27788,0.1494892 -0.24082,0.1962235 -0.1986,0.2360945 -0.15118,0.2691061 -0.0986,0.2952407 -0.0408,0.3145239 0.012,0.2074598 0.0293,0.19384 0.0453,0.1802517 0.0603,0.1667325 0.16078,0.2930571 0.20697,0.2395267 0.24412,0.1863906 0.27222,0.1336429 0.29128,0.081272 0.30131,0.029315 0.30229,-0.022271 0.29424,-0.073462 0.27712,-0.1242587 0.25098,-0.1746591 0.21579,-0.2246863 0.17156,-0.2743049 0.0664,-0.1556404 0.0519,-0.1679035 0.0364,-0.1801122 0.0197,-0.1922792 a 1.6617582,1.6617582 0 0 0 -1.65581,-1.7139077 m 2.42865,1.6679154 -0.0344,0.3927741 -0.0905,0.3647462 -0.14091,0.3344446 -0.18584,0.3018927 -0.22523,0.2670679 -0.25918,0.2299797 -0.28753,0.1906372 -0.31038,0.1490156 -0.32769,0.1051415 -0.33947,0.059003 L 102.13003,7.97617 101.78358,7.936091 101.44191,7.843085 101.11058,7.694883 100.7951,7.4892194 100.501,7.2238268 100.3388,7.0429761 100.19919,6.8478142 100.0821,6.6404698 99.98749,6.4230662 99.9153,6.1977135 99.86552,5.9665482 99.83805,5.7316781 l -0.0056,-0.2364425 0.01697,-0.2358993 0.03909,-0.2332274 0.06122,-0.2284445 0.08324,-0.221527 0.10528,-0.2125053 0.1272,-0.2013372 0.14909,-0.1880722 0.17092,-0.1726676 0.29964,-0.245981 0.31814,-0.1877786 0.33144,-0.1318527 0.33951,-0.078211 0.34235,-0.026858 0.33999,0.022201 0.33239,0.068983 0.31956,0.113478 0.30152,0.1556869 0.27825,0.1956129 0.24975,0.2332421 0.21603,0.2686015 0.17711,0.3016672 0.13293,0.3324391 0.0835,0.3609414 0.0289,0.3871474"
       inkscape:label="Opulo Logo" /><text
       xml:space="preserve"
       style="font-weight:bold;font-size:6.06771px;font-family:sans-serif;-inkscape-font-specification:'sans-serif, Bold';display:inline;fill:#ffffff;stroke:#000000;stroke-width:0.162539;paint-order:stroke markers fill"
       x="31.278759"
       y="7.2443538"
       id="text3179-7"
       inkscape:label="LumenPnP Strip Feeder"><tspan
         sodipodi:role="line"
         id="tspan3177-1"
         style="font-style:normal;font-variant:normal;font-weight:bold;font-stretch:normal;font-size:6.06771px;font-family:'Roboto Mono';-inkscape-font-specification:'Roboto Mono, Bold';font-variant-ligatures:normal;font-variant-caps:normal;font-variant-numeric:normal;font-variant-east-asian:normal;fill:#ffffff;stroke-width:0.162539"
         x="31.278759"
         y="7.2443538"><tspan
           style="font-style:normal;font-variant:normal;font-weight:bold;font-stretch:normal;font-size:4.55078px;font-family:'Roboto Mono';-inkscape-font-specification:'Roboto Mono, Bold';font-variant-ligatures:normal;font-variant-caps:normal;font-variant-numeric:normal;font-variant-east-asian:normal;stroke-width:0.162539"
           id="tspan3175-4">LumenPnP Strip Feeder</tspan></tspan></text><rect
       style="display:inline;fill:#2ecc71;fill-opacity:1;stroke:none;stroke-width:0.121679;stroke-opacity:1;paint-order:stroke markers fill"
       id="rect1862"
       width="27.999998"
       height="11.999999"
       x="2.0489097e-07"
       y="2.0608162e-07"
       inkscape:label="Green Background" /><text
       xml:space="preserve"
       style="font-weight:bold;font-size:13.1282px;font-family:sans-serif;-inkscape-font-specification:'sans-serif, Bold';fill:#ffffff;stroke:none;stroke-width:0.351671;paint-order:stroke markers fill"
       x="1.8975687"
       y="9.4807682"
       id="text1868"
       inkscape:label="16mm"><tspan
         sodipodi:role="line"
         id="tspan1866"
         style="font-style:normal;font-variant:normal;font-weight:bold;font-stretch:normal;font-size:13.1282px;font-family:'Roboto Mono';-inkscape-font-specification:'Roboto Mono, Bold';font-variant-ligatures:normal;font-variant-caps:normal;font-variant-numeric:normal;font-variant-east-asian:normal;fill:#ffffff;stroke:none;stroke-width:0.351671"
         x="1.8975687"
         y="9.4807682"><tspan
           style="font-style:normal;font-variant:normal;font-weight:bold;font-stretch:normal;font-size:9.84615px;font-family:'Roboto Mono';-inkscape-font-specification:'Roboto Mono, Bold';font-variant-ligatures:normal;font-variant-caps:normal;font-variant-numeric:normal;font-variant-east-asian:normal;stroke:none;stroke-width:0.351671"
           id="tspan1864">16mm</tspan></tspan></text><path
       id="rect10442-7-19-4"
       clip-path="none"
       style="display:inline;fill:none;stroke:#ff0000;stroke-width:0.100508;stroke-dasharray:0.402031, 0.100508;stroke-dashoffset:0"
       inkscape:label="16mm cutout"
       d="M 0.250252,0.250254 V 11.749746 H 89.8 v -1.309131 h 29.94975 V 0.250254 Z"
       sodipodi:nodetypes="ccccccc" /></g><g
     inkscape:label="24mm"
     inkscape:groupmode="layer"
     id="g2943"
     style="display:none"
     sodipodi:insensitive="true"><rect
       style="display:none;fill:#000000;stroke:#000000;stroke-width:0.249013;paint-order:stroke markers fill"
       id="rect3173-1"
       width="119.75098"
       height="11.750987"
       x="0.1245065"
       y="0.1245065"
       inkscape:label="Black Background" /><path
       id="path3189-8"
       style="display:none;fill:#ffffff;fill-opacity:1;stroke:none;stroke-width:0.205029;stroke-opacity:1"
       d="m 116.74748,4.8324021 0.0509,-0.1778735 h 0.11304 v 0.4726595 h -0.0836 V 4.9869987 l 0.004,-0.2210999 -0.0621,0.2050359 h -0.0449 l -0.0554,-0.1961709 0.004,0.2122349 v 0.1401894 h -0.0836 V 4.6545286 h 0.11303 l 0.0449,0.1778735 M 116.39337,4.7293235 V 5.127746 h -0.0914 V 4.7293235 h -0.14407 v -0.074244 h 0.38122 v 0.074244 h -0.14573 M 95.017418,5.3719384 v 0.3535254 h 0.412248 v 0.4122617 h 0.353541 V 5.7254638 h 0.412295 V 5.3719384 H 95.783207 V 4.9596666 h -0.353541 v 0.4122718 h -0.412248 m 0.412248,-2.4087819 a 2.5910183,2.5910183 0 0 0 -2.40875,2.4087819 h 1.642955 v 0.3535254 h -1.642955 a 2.5910224,2.5910224 0 0 0 2.40875,2.408788 V 7.5513125 h 0.353541 v 0.5829393 a 2.5910909,2.5910909 0 0 0 2.408796,-2.408788 H 97.609064 V 5.3719384 h 0.582939 A 2.5910435,2.5910435 0 0 0 95.783207,2.9631565 v 1.642987 H 95.429666 V 2.9631565 M 95.783207,2.250001 v 0.3585228 a 2.9444523,2.9444523 0 0 1 2.762863,2.7628629 h 0.358515 V 5.7249035 H 98.54607 A 2.9456263,2.9456263 0 0 1 95.783207,8.4888838 V 8.8474075 H 95.429666 V 8.4888838 a 2.9453667,2.9453667 0 0 1 -2.762863,-2.76342 H 92.308287 V 5.3719384 h 0.358516 A 2.9444574,2.9444574 0 0 1 95.429666,2.6090678 V 2.250552 h 0.353541 m 16.295673,0.8927029 h 0.85669 a 13598.959,13598.959 0 0 1 0,4.808133 l -0.24787,4.099e-4 -0.28221,4.099e-4 -0.12745,1.395e-4 -0.10416,1.086e-4 -0.0703,6.96e-5 -0.0258,3.11e-5 2e-4,-0.1833135 2.1e-4,-0.2486172 1.9e-4,-0.3032643 1.5e-4,-0.347271 2.1e-4,-0.7840202 9e-5,-0.8323764 1e-5,-0.4077145 1e-5,-0.3878859 -2e-5,-0.3573984 v -0.316283 l -2e-5,-0.2645176 -2e-5,-0.2021207 -1e-5,-0.07433 -10e-6,-0.054748 v -0.033818 l -1e-5,-0.011562 m 3.56595,3.3141557 a 0.73469329,0.73469329 0 0 0 -0.71097,-0.7320077 0.73225035,0.73225035 0 0 0 -0.75524,0.7103875 0.7334223,0.7334223 0 0 0 0.71201,0.7541634 0.73588881,0.73588881 0 0 0 0.7542,-0.7325432 m -0.72979,1.4939164 a 1.5026483,1.5026483 0 0 1 -1.49781,-1.5509967 l 0.0365,-0.2827112 0.0897,-0.2693462 0.13892,-0.2480593 0.18409,-0.2188511 0.22517,-0.181735 0.26221,-0.1367014 0.29521,-0.083753 0.32414,-0.022891 0.28145,0.036607 0.26842,0.089696 0.24742,0.1387976 0.21841,0.1838791 0.18142,0.224973 0.13646,0.262069 0.0835,0.2951571 0.0226,0.324249 a 1.4984407,1.4984407 0 0 1 -1.4978,1.439618 m -3.38904,-0.00111 -0.86741,8.524e-4 -0.79884,8.524e-4 -0.26167,-0.026735 -0.22964,-0.076469 -0.19671,-0.1206312 -0.16291,-0.1592059 -0.12823,-0.1921869 -0.0927,-0.2195951 -0.0563,-0.2414105 -0.019,-0.2576449 -1.7e-4,-0.4995801 -4.1e-4,-0.5588007 -2.1e-4,-0.2506305 -1.8e-4,-0.204268 -6e-5,-0.078374 -6e-5,-0.059141 -4e-5,-0.037351 -2e-5,-0.013018 h 0.83506 v 0.012732 l -3e-5,0.036506 -6e-5,0.057801 -7e-5,0.0766 -1.7e-4,0.1996642 -2.1e-4,0.2450131 -4.1e-4,0.5463943 -1.7e-4,0.488777 0.01,0.1411758 0.0307,0.1187861 0.054,0.097508 0.08,0.077314 0.10833,0.05822 0.13925,0.040234 0.17265,0.023333 0.20856,0.00752 h 0.19684 0.13453 l -7.8e-4,-2.2275832 h 0.84666 l 1.2e-4,0.029765 9e-5,0.084474 7e-5,0.1319535 6e-5,0.1722028 9e-5,0.4362461 8e-5,0.5105142 4e-5,0.5269602 2e-5,0.4855765 v 0.2091964 l 1e-5,0.1771699 v 0.1379034 0.091424 M 106.0118,6.4325278 v 0.2222219 0.25225 0.1137733 0.092969 0.062698 0.023 l 0.0169,-1.233e-4 0.0466,-4.099e-4 0.0702,-4.1e-4 0.0877,-4.107e-4 0.20361,-0.001 0.20061,-4.1e-4 0.16082,-0.00924 0.15438,-0.029153 0.14331,-0.051129 0.12763,-0.075175 0.1073,-0.1013117 0.0824,-0.1295195 0.0529,-0.159804 0.0187,-0.1921708 -0.0164,-0.2061123 -0.0475,-0.169351 -0.0761,-0.1354321 -0.10207,-0.104389 -0.12545,-0.076206 -0.14622,-0.050888 -0.16445,-0.028432 -0.18006,-0.00883 -0.17606,-0.001 -0.20255,-2.053e-4 -0.0918,4.73e-5 -0.0752,9.22e-5 -0.0508,1.007e-4 -0.0187,3.88e-5 1e-5,0.022992 7e-5,0.062667 9e-5,0.092859 1.1e-4,0.1135803 1.8e-4,0.2514224 9e-5,0.2206179 m -0.85693,0.9118748 V 7.0175353 6.6416846 6.2455319 5.8575537 5.5062314 5.2200239 5.1102484 5.0274268 4.97512 4.956894 l 0.0443,2.4e-5 0.12079,5.35e-5 0.1793,6.97e-5 0.21974,6.2e-5 0.48881,3.02e-5 0.43436,-2.045e-4 0.362,0.031322 0.31655,0.08924 0.27023,0.1400972 0.22306,0.1838869 0.175,0.2206264 0.12608,0.2502763 0.0762,0.2728868 0.0257,0.2884076 -0.0256,0.311153 -0.0752,0.2873227 -0.12262,0.2580471 -0.16785,0.2233309 -0.21085,0.1831755 -0.25167,0.1375709 -0.29026,0.086541 -0.32666,0.030052 h -0.18137 -0.24558 -0.11757 -0.0985 -0.0677 -0.0252 l 7.8e-4,1.7981338 -0.85778,0.001 1e-5,-0.018389 5e-5,-0.052748 5e-5,-0.083521 6e-5,-0.1107038 1.8e-4,-0.2885634 2e-4,-0.3541523 2.1e-4,-0.390984 1.8e-4,-0.3990595 1.2e-4,-0.3783832 5e-5,-0.328952 m -2.90654,-3.4415909 -0.33644,0.035429 -0.30976,0.095889 -0.27788,0.1494892 -0.24082,0.1962235 -0.1986,0.2360945 -0.15118,0.2691061 -0.0986,0.2952407 -0.0408,0.3145239 0.012,0.2074598 0.0293,0.19384 0.0453,0.1802517 0.0603,0.1667325 0.16078,0.2930571 0.20697,0.2395267 0.24412,0.1863906 0.27222,0.1336429 0.29128,0.081272 0.30131,0.029315 0.30229,-0.022271 0.29424,-0.073462 0.27712,-0.1242587 0.25098,-0.1746591 0.21579,-0.2246863 0.17156,-0.2743049 0.0664,-0.1556404 0.0519,-0.1679035 0.0364,-0.1801122 0.0197,-0.1922792 a 1.6617582,1.6617582 0 0 0 -1.65581,-1.7139077 m 2.42865,1.6679154 -0.0344,0.3927741 -0.0905,0.3647462 -0.14091,0.3344446 -0.18584,0.3018927 -0.22523,0.2670679 -0.25918,0.2299797 -0.28753,0.1906372 -0.31038,0.1490156 -0.32769,0.1051415 -0.33947,0.059003 L 102.13003,7.97617 101.78358,7.936091 101.44191,7.843085 101.11058,7.694883 100.7951,7.4892194 100.501,7.2238268 100.3388,7.0429761 100.19919,6.8478142 100.0821,6.6404698 99.98749,6.4230662 99.9153,6.1977135 99.86552,5.9665482 99.83805,5.7316781 l -0.0056,-0.2364425 0.01697,-0.2358993 0.03909,-0.2332274 0.06122,-0.2284445 0.08324,-0.221527 0.10528,-0.2125053 0.1272,-0.2013372 0.14909,-0.1880722 0.17092,-0.1726676 0.29964,-0.245981 0.31814,-0.1877786 0.33144,-0.1318527 0.33951,-0.078211 0.34235,-0.026858 0.33999,0.022201 0.33239,0.068983 0.31956,0.113478 0.30152,0.1556869 0.27825,0.1956129 0.24975,0.2332421 0.21603,0.2686015 0.17711,0.3016672 0.13293,0.3324391 0.0835,0.3609414 0.0289,0.3871474"
       inkscape:label="Opulo Logo" /><text
       xml:space="preserve"
       style="font-weight:bold;font-size:6.06771px;font-family:sans-serif;-inkscape-font-specification:'sans-serif, Bold';display:none;fill:#ffffff;stroke:#000000;stroke-width:0.162539;paint-order:stroke markers fill"
       x="31.278759"
       y="7.2443538"
       id="text3179-5"
       inkscape:label="LumenPnP Strip Feeder"><tspan
         sodipodi:role="line"
         id="tspan3177-3"
         style="font-style:normal;font-variant:normal;font-weight:bold;font-stretch:normal;font-size:6.06771px;font-family:'Roboto Mono';-inkscape-font-specification:'Roboto Mono, Bold';font-variant-ligatures:normal;font-variant-caps:normal;font-variant-numeric:normal;font-variant-east-asian:normal;fill:#ffffff;stroke-width:0.162539"
         x="31.278759"
         y="7.2443538"><tspan
           style="font-style:normal;font-variant:normal;font-weight:bold;font-stretch:normal;font-size:4.55078px;font-family:'Roboto Mono';-inkscape-font-specification:'Roboto Mono, Bold';font-variant-ligatures:normal;font-variant-caps:normal;font-variant-numeric:normal;font-variant-east-asian:normal;stroke-width:0.162539"
           id="tspan3175-1">LumenPnP Strip Feeder</tspan></tspan></text><rect
       style="display:none;fill:#40e0d0;fill-opacity:1;stroke:none;stroke-width:0.121679;stroke-opacity:1;paint-order:stroke markers fill"
       id="rect2929"
       width="27.999998"
       height="11.999999"
       x="2.0489097e-07"
       y="2.0608162e-07"
       inkscape:label="Turquoise Background" /><text
       xml:space="preserve"
       style="font-weight:bold;font-size:13.1282px;font-family:sans-serif;-inkscape-font-specification:'sans-serif, Bold';display:none;fill:#ffffff;stroke:none;stroke-width:0.351671;paint-order:stroke markers fill"
       x="1.8975687"
       y="9.5480757"
       id="text2935"
       inkscape:label="24mm"><tspan
         sodipodi:role="line"
         id="tspan2933"
         style="font-style:normal;font-variant:normal;font-weight:bold;font-stretch:normal;font-size:13.1282px;font-family:'Roboto Mono';-inkscape-font-specification:'Roboto Mono, Bold';font-variant-ligatures:normal;font-variant-caps:normal;font-variant-numeric:normal;font-variant-east-asian:normal;fill:#ffffff;stroke:none;stroke-width:0.351671"
         x="1.8975687"
         y="9.5480757"><tspan
           style="font-style:normal;font-variant:normal;font-weight:bold;font-stretch:normal;font-size:9.84615px;font-family:'Roboto Mono';-inkscape-font-specification:'Roboto Mono, Bold';font-variant-ligatures:normal;font-variant-caps:normal;font-variant-numeric:normal;font-variant-east-asian:normal;stroke:none;stroke-width:0.351671"
           id="tspan2931">24mm</tspan></tspan></text><path
       id="rect10442-7-19-4-2"
       clip-path="none"
       style="display:none;fill:none;stroke:#ff0000;stroke-width:0.100508;stroke-dasharray:0.402031, 0.100508;stroke-dashoffset:0"
       inkscape:label="24mm cutout"
       d="M 0.250252,0.250254 V 11.749746 H 79.8 v -1.309131 h 39.94975 V 0.250254 Z"
       sodipodi:nodetypes="ccccccc" /></g><g
     inkscape:label="32mm"
     inkscape:groupmode="layer"
     id="g3069"
     style="display:none"
     sodipodi:insensitive="true"><rect
       style="display:inline;fill:#000000;stroke:#000000;stroke-width:0.249013;paint-order:stroke markers fill"
       id="rect3173-1-9"
       width="119.75098"
       height="11.750987"
       x="0.1245065"
       y="0.1245065"
       inkscape:label="Black Background" /><path
       id="path3189-8-1"
       style="display:inline;fill:#ffffff;fill-opacity:1;stroke:none;stroke-width:0.205029;stroke-opacity:1"
       d="m 116.74748,4.8324021 0.0509,-0.1778735 h 0.11304 v 0.4726595 h -0.0836 V 4.9869987 l 0.004,-0.2210999 -0.0621,0.2050359 h -0.0449 l -0.0554,-0.1961709 0.004,0.2122349 v 0.1401894 h -0.0836 V 4.6545286 h 0.11303 l 0.0449,0.1778735 M 116.39337,4.7293235 V 5.127746 h -0.0914 V 4.7293235 h -0.14407 v -0.074244 h 0.38122 v 0.074244 h -0.14573 M 95.017418,5.3719384 v 0.3535254 h 0.412248 v 0.4122617 h 0.353541 V 5.7254638 h 0.412295 V 5.3719384 H 95.783207 V 4.9596666 h -0.353541 v 0.4122718 h -0.412248 m 0.412248,-2.4087819 a 2.5910183,2.5910183 0 0 0 -2.40875,2.4087819 h 1.642955 v 0.3535254 h -1.642955 a 2.5910224,2.5910224 0 0 0 2.40875,2.408788 V 7.5513125 h 0.353541 v 0.5829393 a 2.5910909,2.5910909 0 0 0 2.408796,-2.408788 H 97.609064 V 5.3719384 h 0.582939 A 2.5910435,2.5910435 0 0 0 95.783207,2.9631565 v 1.642987 H 95.429666 V 2.9631565 M 95.783207,2.250001 v 0.3585228 a 2.9444523,2.9444523 0 0 1 2.762863,2.7628629 h 0.358515 V 5.7249035 H 98.54607 A 2.9456263,2.9456263 0 0 1 95.783207,8.4888838 V 8.8474075 H 95.429666 V 8.4888838 a 2.9453667,2.9453667 0 0 1 -2.762863,-2.76342 H 92.308287 V 5.3719384 h 0.358516 A 2.9444574,2.9444574 0 0 1 95.429666,2.6090678 V 2.250552 h 0.353541 m 16.295673,0.8927029 h 0.85669 a 13598.959,13598.959 0 0 1 0,4.808133 l -0.24787,4.099e-4 -0.28221,4.099e-4 -0.12745,1.395e-4 -0.10416,1.086e-4 -0.0703,6.96e-5 -0.0258,3.11e-5 2e-4,-0.1833135 2.1e-4,-0.2486172 1.9e-4,-0.3032643 1.5e-4,-0.347271 2.1e-4,-0.7840202 9e-5,-0.8323764 1e-5,-0.4077145 1e-5,-0.3878859 -2e-5,-0.3573984 v -0.316283 l -2e-5,-0.2645176 -2e-5,-0.2021207 -1e-5,-0.07433 -10e-6,-0.054748 v -0.033818 l -1e-5,-0.011562 m 3.56595,3.3141557 a 0.73469329,0.73469329 0 0 0 -0.71097,-0.7320077 0.73225035,0.73225035 0 0 0 -0.75524,0.7103875 0.7334223,0.7334223 0 0 0 0.71201,0.7541634 0.73588881,0.73588881 0 0 0 0.7542,-0.7325432 m -0.72979,1.4939164 a 1.5026483,1.5026483 0 0 1 -1.49781,-1.5509967 l 0.0365,-0.2827112 0.0897,-0.2693462 0.13892,-0.2480593 0.18409,-0.2188511 0.22517,-0.181735 0.26221,-0.1367014 0.29521,-0.083753 0.32414,-0.022891 0.28145,0.036607 0.26842,0.089696 0.24742,0.1387976 0.21841,0.1838791 0.18142,0.224973 0.13646,0.262069 0.0835,0.2951571 0.0226,0.324249 a 1.4984407,1.4984407 0 0 1 -1.4978,1.439618 m -3.38904,-0.00111 -0.86741,8.524e-4 -0.79884,8.524e-4 -0.26167,-0.026735 -0.22964,-0.076469 -0.19671,-0.1206312 -0.16291,-0.1592059 -0.12823,-0.1921869 -0.0927,-0.2195951 -0.0563,-0.2414105 -0.019,-0.2576449 -1.7e-4,-0.4995801 -4.1e-4,-0.5588007 -2.1e-4,-0.2506305 -1.8e-4,-0.204268 -6e-5,-0.078374 -6e-5,-0.059141 -4e-5,-0.037351 -2e-5,-0.013018 h 0.83506 v 0.012732 l -3e-5,0.036506 -6e-5,0.057801 -7e-5,0.0766 -1.7e-4,0.1996642 -2.1e-4,0.2450131 -4.1e-4,0.5463943 -1.7e-4,0.488777 0.01,0.1411758 0.0307,0.1187861 0.054,0.097508 0.08,0.077314 0.10833,0.05822 0.13925,0.040234 0.17265,0.023333 0.20856,0.00752 h 0.19684 0.13453 l -7.8e-4,-2.2275832 h 0.84666 l 1.2e-4,0.029765 9e-5,0.084474 7e-5,0.1319535 6e-5,0.1722028 9e-5,0.4362461 8e-5,0.5105142 4e-5,0.5269602 2e-5,0.4855765 v 0.2091964 l 1e-5,0.1771699 v 0.1379034 0.091424 M 106.0118,6.4325278 v 0.2222219 0.25225 0.1137733 0.092969 0.062698 0.023 l 0.0169,-1.233e-4 0.0466,-4.099e-4 0.0702,-4.1e-4 0.0877,-4.107e-4 0.20361,-0.001 0.20061,-4.1e-4 0.16082,-0.00924 0.15438,-0.029153 0.14331,-0.051129 0.12763,-0.075175 0.1073,-0.1013117 0.0824,-0.1295195 0.0529,-0.159804 0.0187,-0.1921708 -0.0164,-0.2061123 -0.0475,-0.169351 -0.0761,-0.1354321 -0.10207,-0.104389 -0.12545,-0.076206 -0.14622,-0.050888 -0.16445,-0.028432 -0.18006,-0.00883 -0.17606,-0.001 -0.20255,-2.053e-4 -0.0918,4.73e-5 -0.0752,9.22e-5 -0.0508,1.007e-4 -0.0187,3.88e-5 1e-5,0.022992 7e-5,0.062667 9e-5,0.092859 1.1e-4,0.1135803 1.8e-4,0.2514224 9e-5,0.2206179 m -0.85693,0.9118748 V 7.0175353 6.6416846 6.2455319 5.8575537 5.5062314 5.2200239 5.1102484 5.0274268 4.97512 4.956894 l 0.0443,2.4e-5 0.12079,5.35e-5 0.1793,6.97e-5 0.21974,6.2e-5 0.48881,3.02e-5 0.43436,-2.045e-4 0.362,0.031322 0.31655,0.08924 0.27023,0.1400972 0.22306,0.1838869 0.175,0.2206264 0.12608,0.2502763 0.0762,0.2728868 0.0257,0.2884076 -0.0256,0.311153 -0.0752,0.2873227 -0.12262,0.2580471 -0.16785,0.2233309 -0.21085,0.1831755 -0.25167,0.1375709 -0.29026,0.086541 -0.32666,0.030052 h -0.18137 -0.24558 -0.11757 -0.0985 -0.0677 -0.0252 l 7.8e-4,1.7981338 -0.85778,0.001 1e-5,-0.018389 5e-5,-0.052748 5e-5,-0.083521 6e-5,-0.1107038 1.8e-4,-0.2885634 2e-4,-0.3541523 2.1e-4,-0.390984 1.8e-4,-0.3990595 1.2e-4,-0.3783832 5e-5,-0.328952 m -2.90654,-3.4415909 -0.33644,0.035429 -0.30976,0.095889 -0.27788,0.1494892 -0.24082,0.1962235 -0.1986,0.2360945 -0.15118,0.2691061 -0.0986,0.2952407 -0.0408,0.3145239 0.012,0.2074598 0.0293,0.19384 0.0453,0.1802517 0.0603,0.1667325 0.16078,0.2930571 0.20697,0.2395267 0.24412,0.1863906 0.27222,0.1336429 0.29128,0.081272 0.30131,0.029315 0.30229,-0.022271 0.29424,-0.073462 0.27712,-0.1242587 0.25098,-0.1746591 0.21579,-0.2246863 0.17156,-0.2743049 0.0664,-0.1556404 0.0519,-0.1679035 0.0364,-0.1801122 0.0197,-0.1922792 a 1.6617582,1.6617582 0 0 0 -1.65581,-1.7139077 m 2.42865,1.6679154 -0.0344,0.3927741 -0.0905,0.3647462 -0.14091,0.3344446 -0.18584,0.3018927 -0.22523,0.2670679 -0.25918,0.2299797 -0.28753,0.1906372 -0.31038,0.1490156 -0.32769,0.1051415 -0.33947,0.059003 L 102.13003,7.97617 101.78358,7.936091 101.44191,7.843085 101.11058,7.694883 100.7951,7.4892194 100.501,7.2238268 100.3388,7.0429761 100.19919,6.8478142 100.0821,6.6404698 99.98749,6.4230662 99.9153,6.1977135 99.86552,5.9665482 99.83805,5.7316781 l -0.0056,-0.2364425 0.01697,-0.2358993 0.03909,-0.2332274 0.06122,-0.2284445 0.08324,-0.221527 0.10528,-0.2125053 0.1272,-0.2013372 0.14909,-0.1880722 0.17092,-0.1726676 0.29964,-0.245981 0.31814,-0.1877786 0.33144,-0.1318527 0.33951,-0.078211 0.34235,-0.026858 0.33999,0.022201 0.33239,0.068983 0.31956,0.113478 0.30152,0.1556869 0.27825,0.1956129 0.24975,0.2332421 0.21603,0.2686015 0.17711,0.3016672 0.13293,0.3324391 0.0835,0.3609414 0.0289,0.3871474"
       inkscape:label="Opulo Logo" /><text
       xml:space="preserve"
       style="font-weight:bold;font-size:6.06771px;font-family:sans-serif;-inkscape-font-specification:'sans-serif, Bold';display:inline;fill:#ffffff;stroke:none;stroke-width:0.162539;paint-order:stroke markers fill"
       x="31.278759"
       y="7.2443538"
       id="text3179-5-0"
       inkscape:label="LumenPnP Strip Feeder"><tspan
         sodipodi:role="line"
         id="tspan3177-3-4"
         style="font-style:normal;font-variant:normal;font-weight:bold;font-stretch:normal;font-size:6.06771px;font-family:'Roboto Mono';-inkscape-font-specification:'Roboto Mono, Bold';font-variant-ligatures:normal;font-variant-caps:normal;font-variant-numeric:normal;font-variant-east-asian:normal;fill:#ffffff;stroke:none;stroke-width:0.162539"
         x="31.278759"
         y="7.2443538"><tspan
           style="font-style:normal;font-variant:normal;font-weight:bold;font-stretch:normal;font-size:4.55078px;font-family:'Roboto Mono';-inkscape-font-specification:'Roboto Mono, Bold';font-variant-ligatures:normal;font-variant-caps:normal;font-variant-numeric:normal;font-variant-east-asian:normal;stroke:none;stroke-width:0.162539"
           id="tspan3175-1-9">LumenPnP Strip Feeder</tspan></tspan></text><rect
       style="display:inline;fill:#3498db;fill-opacity:1;stroke:none;stroke-width:0.121862;stroke-dasharray:none;stroke-opacity:1;paint-order:stroke markers fill"
       id="rect3055"
       width="27.999815"
       height="12"
       x="-6.9388939e-18"
       y="0"
       inkscape:label="Blue Background" /><text
       xml:space="preserve"
       style="font-weight:bold;font-size:13.1282px;font-family:sans-serif;-inkscape-font-specification:'sans-serif, Bold';display:inline;fill:#ffffff;stroke:none;stroke-width:0.351671;paint-order:stroke markers fill"
       x="1.8975687"
       y="9.499999"
       id="text3061"
       inkscape:label="32mm"><tspan
         sodipodi:role="line"
         id="tspan3059"
         style="font-style:normal;font-variant:normal;font-weight:bold;font-stretch:normal;font-size:13.1282px;font-family:'Roboto Mono';-inkscape-font-specification:'Roboto Mono, Bold';font-variant-ligatures:normal;font-variant-caps:normal;font-variant-numeric:normal;font-variant-east-asian:normal;fill:#ffffff;stroke:none;stroke-width:0.351671"
         x="1.8975687"
         y="9.499999"><tspan
           style="font-style:normal;font-variant:normal;font-weight:bold;font-stretch:normal;font-size:9.84615px;font-family:'Roboto Mono';-inkscape-font-specification:'Roboto Mono, Bold';font-variant-ligatures:normal;font-variant-caps:normal;font-variant-numeric:normal;font-variant-east-asian:normal;stroke:none;stroke-width:0.351671"
           id="tspan3057">32mm</tspan></tspan></text><path
       id="rect10442-7-19-4-2-2"
       clip-path="none"
       style="display:inline;fill:none;stroke:#ff0000;stroke-width:0.101;stroke-linecap:butt;stroke-linejoin:round;stroke-dasharray:0.403999, 0.101;stroke-dashoffset:0;paint-order:normal"
       inkscape:label="32mm cutout"
       d="M 0.250252,0.250254 V 11.749746 H 69.8 v -1.309131 h 49.94975 V 0.250254 Z"
       sodipodi:nodetypes="ccccccc" /></g><g
     id="g23090"
     inkscape:label="ADJ"
     transform="matrix(0.99999898,0,0,0.99999898,416.95041,-248.04977)"
     style="display:none"><path
       style="display:inline;fill:none;fill-opacity:1;fill-rule:evenodd;stroke:#ff0000;stroke-width:0.2;stroke-dasharray:0.800003, 0.2;stroke-dashoffset:0.180001;stroke-opacity:1;paint-order:stroke fill markers"
       d="m -416.75082,252.91816 4.05005,4.04908 v 2.88281 h 7.55005 v -2.75 h 6.3999 v 2.75 l 7.55206,6e-5 -0.002,-2.75006 h 8.5 v 2.75 h 7.55005 v -2.75 h 6.3999 v 2.75 h 7.55004 v -2.75 h 8.5 v 2.75 h 7.55005 v -2.75 h 6.3999 v 2.75 h 7.55005 v -2.75 h 8.5 v 2.75 h 7.55005 v -2.75 h 6.3999 v 2.75 h 7.55005 v -2.88281 l 4.05005,-4.04908 v -4.66821 h -119.6001 z"
       id="path16622"
       inkscape:label="Red Die Line" /><path
       style="display:inline;fill:#000000;fill-opacity:1;fill-rule:evenodd;stroke:none;stroke-width:0.2;stroke-dasharray:0.800003, 0.2;stroke-dashoffset:0.180001;stroke-opacity:1;paint-order:stroke fill markers"
       d="m -416.75082,252.91816 4.05005,4.04908 v 2.88281 h 7.55005 v -2.75 h 6.3999 v 2.75 l 7.55206,6e-5 -0.002,-2.75006 h 8.5 v 2.75 h 7.55005 v -2.75 h 6.3999 v 2.75 h 7.55004 v -2.75 h 8.5 v 2.75 h 7.55005 v -2.75 h 6.3999 v 2.75 h 7.55005 v -2.75 h 8.5 v 2.75 h 7.55005 v -2.75 h 6.3999 v 2.75 h 7.55005 v -2.88281 l 4.05005,-4.04908 v -4.66821 h -119.6001 z"
       id="path16622-1"
       inkscape:label="Black Background" /><text
       xml:space="preserve"
       style="font-weight:bold;font-size:6.06779px;font-family:sans-serif;-inkscape-font-specification:'sans-serif, Bold';display:inline;fill:#ffffff;stroke:none;stroke-width:0.162541;paint-order:stroke markers fill"
       x="-385.50348"
       y="253.91812"
       id="text3179-5-0-1"
       inkscape:label="LumenPnP Strip Feeder"><tspan
         sodipodi:role="line"
         id="tspan3177-3-4-3"
         style="font-style:normal;font-variant:normal;font-weight:bold;font-stretch:normal;font-size:6.06779px;font-family:'Roboto Mono';-inkscape-font-specification:'Roboto Mono, Bold';font-variant-ligatures:normal;font-variant-caps:normal;font-variant-numeric:normal;font-variant-east-asian:normal;fill:#ffffff;stroke:none;stroke-width:0.162541"
         x="-385.50348"
         y="253.91812"><tspan
           style="font-style:normal;font-variant:normal;font-weight:bold;font-stretch:normal;font-size:4.55084px;font-family:'Roboto Mono';-inkscape-font-specification:'Roboto Mono, Bold';font-variant-ligatures:normal;font-variant-caps:normal;font-variant-numeric:normal;font-variant-east-asian:normal;stroke:none;stroke-width:0.162541"
           id="tspan3175-1-9-6">LumenPnP Strip Feeder</tspan></tspan></text><path
       id="path3189-8-1-5"
       style="display:inline;fill:#ffffff;fill-opacity:1;stroke:none;stroke-width:0.205032;stroke-opacity:1"
       d="m -300.14082,251.5064 0.0509,-0.17788 h 0.11304 v 0.47267 h -0.0836 V 251.661 l 0.004,-0.22111 -0.0621,0.20504 h -0.0449 l -0.0554,-0.19617 0.004,0.21224 v 0.14019 h -0.0836 v -0.47267 h 0.11303 l 0.0449,0.17788 m -0.35439,-0.10308 v 0.39843 h -0.0914 v -0.39843 h -0.14407 v -0.0743 h 0.38123 v 0.0743 h -0.14574 m -21.37626,0.64262 v 0.35353 h 0.41225 v 0.41227 h 0.35355 v -0.41227 h 0.4123 v -0.35353 h -0.4123 v -0.41228 h -0.35355 v 0.41228 h -0.41225 m 0.41225,-2.40881 a 2.5910538,2.5910538 0 0 0 -2.40878,2.40881 h 1.64298 v 0.35353 h -1.64298 a 2.5910579,2.5910579 0 0 0 2.40878,2.40882 v -0.58294 h 0.35355 v 0.58294 a 2.5911264,2.5911264 0 0 0 2.40883,-2.40882 h -0.58295 v -0.35353 h 0.58295 a 2.591079,2.591079 0 0 0 -2.40883,-2.40881 v 1.64301 h -0.35355 v -1.64301 m 0.35355,-0.71317 v 0.35853 a 2.9444926,2.9444926 0 0 1 2.7629,2.7629 h 0.35852 v 0.35352 h -0.35852 a 2.9456667,2.9456667 0 0 1 -2.7629,2.76402 v 0.35853 h -0.35355 v -0.35853 a 2.9454071,2.9454071 0 0 1 -2.7629,-2.76346 h -0.35852 v -0.35353 h 0.35852 a 2.9444977,2.9444977 0 0 1 2.7629,-2.76291 v -0.35852 h 0.35355 m 16.2959,0.89272 h 0.8567 a 13599.145,13599.145 0 0 1 0,4.8082 l -0.24788,4.1e-4 -0.28221,4.1e-4 -0.12745,1.4e-4 -0.10416,1e-4 -0.0703,7e-5 -0.0258,4e-5 2e-4,-0.18332 2.1e-4,-0.24862 1.9e-4,-0.30327 1.5e-4,-0.34728 2.1e-4,-0.78403 9e-5,-0.83238 10e-6,-0.40772 1e-5,-0.3879 -2e-5,-0.3574 v -0.31629 l -2e-5,-0.26452 -2e-5,-0.20212 -10e-6,-0.0743 -1e-5,-0.0548 v -0.0338 l -10e-6,-0.0116 m 3.56599,3.3142 a 0.73470336,0.73470336 0 0 0 -0.71098,-0.73202 0.73226038,0.73226038 0 0 0 -0.75525,0.7104 0.73343235,0.73343235 0 0 0 0.71202,0.75417 0.73589889,0.73589889 0 0 0 0.75421,-0.73255 m -0.7298,1.49394 a 1.5026689,1.5026689 0 0 1 -1.49783,-1.55102 l 0.0365,-0.28272 0.0897,-0.26935 0.13892,-0.24806 0.18409,-0.21885 0.22517,-0.18174 0.26222,-0.1367 0.29521,-0.0838 0.32415,-0.0229 0.28145,0.0366 0.26842,0.0897 0.24743,0.1388 0.21841,0.18388 0.18142,0.22497 0.13646,0.26208 0.0835,0.29516 0.0226,0.32425 a 1.4984612,1.4984612 0 0 1 -1.49782,1.43964 m -3.38908,-0.001 -0.86742,8.5e-4 -0.79885,8.5e-4 -0.26168,-0.0267 -0.22964,-0.0765 -0.19671,-0.12064 -0.16292,-0.1592 -0.12823,-0.19219 -0.0927,-0.2196 -0.0563,-0.24142 -0.019,-0.25764 -1.7e-4,-0.49959 -4.1e-4,-0.55881 -2.1e-4,-0.25063 -1.8e-4,-0.20427 -6e-5,-0.0784 -6e-5,-0.0591 -4e-5,-0.0374 -2e-5,-0.013 h 0.83507 v 0.0127 l -3e-5,0.0365 -6e-5,0.0578 -7e-5,0.0766 -1.7e-4,0.19967 -2.1e-4,0.24501 -4.1e-4,0.54641 -1.7e-4,0.48878 0.01,0.14118 0.0307,0.11879 0.054,0.0975 0.08,0.0773 0.10833,0.0582 0.13926,0.0402 0.17265,0.0233 0.20856,0.008 h 0.19684 0.13454 l -7.8e-4,-2.22761 h 0.84667 l 1.2e-4,0.0298 9e-5,0.0845 7e-5,0.13195 6e-5,0.17221 9e-5,0.43625 8e-5,0.51052 4e-5,0.52697 2e-5,0.48558 v 0.2092 l 1e-5,0.17717 v 0.13791 0.0914 m -5.51487,-1.51781 v 0.22222 0.25225 0.11378 0.093 0.0627 0.023 l 0.0169,-1.2e-4 0.0466,-4.1e-4 0.0702,-4.1e-4 0.0877,-4.2e-4 0.20361,-0.001 0.20061,-4.1e-4 0.16082,-0.009 0.15439,-0.0291 0.14331,-0.0511 0.12763,-0.0752 0.1073,-0.10132 0.0824,-0.12952 0.0529,-0.15981 0.0187,-0.19217 -0.0164,-0.20611 -0.0475,-0.16936 -0.0761,-0.13543 -0.10207,-0.10439 -0.12545,-0.0762 -0.14622,-0.0509 -0.16446,-0.0284 -0.18006,-0.009 -0.17606,-0.001 -0.20255,-2e-4 -0.0918,4e-5 -0.0752,9e-5 -0.0508,1.1e-4 -0.0187,3e-5 10e-6,0.023 7e-5,0.0627 9e-5,0.0929 1.1e-4,0.11359 1.8e-4,0.25142 9e-5,0.22062 m -0.85694,0.91189 v -0.32709 -0.37585 -0.39616 -0.38799 -0.35132 -0.28621 -0.10978 -0.0828 -0.0523 -0.0182 l 0.0443,3e-5 0.12079,5e-5 0.17931,7e-5 0.21974,6e-5 0.48882,3e-5 0.43436,-2e-4 0.36201,0.0313 0.31655,0.0892 0.27023,0.1401 0.22307,0.18389 0.175,0.22063 0.12608,0.25028 0.0762,0.27289 0.0257,0.28841 -0.0256,0.31116 -0.0752,0.28732 -0.12262,0.25805 -0.16785,0.22334 -0.21086,0.18318 -0.25167,0.13757 -0.29026,0.0865 -0.32667,0.03 h -0.18137 -0.24558 -0.11758 -0.0985 -0.0677 -0.0252 l 7.8e-4,1.79816 -0.85779,10e-4 1e-5,-0.0184 5e-5,-0.0528 5e-5,-0.0835 6e-5,-0.1107 1.8e-4,-0.28857 2e-4,-0.35416 2.1e-4,-0.39099 1.8e-4,-0.39906 1.2e-4,-0.37839 5e-5,-0.32896 m -2.90658,-3.44163 -0.33644,0.0354 -0.30977,0.0959 -0.27788,0.14949 -0.24083,0.19622 -0.1986,0.2361 -0.15118,0.26911 -0.0986,0.29524 -0.0408,0.31453 0.012,0.20747 0.0293,0.19384 0.0453,0.18025 0.0603,0.16674 0.16078,0.29306 0.20698,0.23953 0.24412,0.18639 0.27222,0.13365 0.29129,0.0813 0.30131,0.0293 0.30229,-0.0223 0.29425,-0.0735 0.27712,-0.12426 0.25099,-0.17466 0.21579,-0.22469 0.17156,-0.27431 0.0664,-0.15564 0.0519,-0.16791 0.0364,-0.18011 0.0197,-0.19228 a 1.661781,1.661781 0 0 0 -1.65583,-1.71394 m 2.42868,1.66794 -0.0344,0.39278 -0.0905,0.36475 -0.14091,0.33445 -0.18584,0.3019 -0.22524,0.26707 -0.25918,0.22998 -0.28753,0.19064 -0.31039,0.14902 -0.32769,0.10514 -0.33948,0.059 -0.34574,0.0106 -0.34646,-0.0401 -0.34167,-0.093 -0.33133,-0.1482 -0.31549,-0.20567 -0.2941,-0.26539 -0.16221,-0.18086 -0.13961,-0.19516 -0.11709,-0.20735 -0.0946,-0.21741 -0.0722,-0.22535 -0.0498,-0.23117 -0.0275,-0.23487 -0.006,-0.23645 0.017,-0.2359 0.0391,-0.23323 0.0612,-0.22845 0.0832,-0.22153 0.10528,-0.21251 0.1272,-0.20134 0.1491,-0.18807 0.17092,-0.17267 0.29964,-0.24599 0.31815,-0.18778 0.33144,-0.13185 0.33952,-0.0782 0.34235,-0.0269 0.34,0.0222 0.33239,0.069 0.31956,0.11348 0.30153,0.15569 0.27825,0.19562 0.24976,0.23324 0.21603,0.26861 0.17711,0.30167 0.13293,0.33244 0.0835,0.36095 0.0289,0.38715"
       inkscape:label="Opulo Logo" /><path
       style="fill:#8e44ad;fill-opacity:1;fill-rule:evenodd;stroke:none"
       d="m -416.75078,252.92199 4.04798,4.04802 v 2.87998 h 7.552 V 257.098 h 6.40002 v 2.75199 h 7.552 V 257.098 h 2.31198 v -8.848 h -27.86398 z"
       id="path16624"
       inkscape:label="Purple Background" /><text
       xml:space="preserve"
       style="font-weight:bold;font-size:13.1284px;font-family:sans-serif;-inkscape-font-specification:'sans-serif, Bold';display:inline;fill:#ffffff;stroke:none;stroke-width:0.351676;paint-order:stroke markers fill"
       x="-410.67712"
       y="256.30203"
       id="text3187"
       inkscape:label="ADJ"><tspan
         sodipodi:role="line"
         id="tspan3185"
         style="font-style:normal;font-variant:normal;font-weight:bold;font-stretch:normal;font-size:13.1284px;font-family:'Roboto Mono';-inkscape-font-specification:'Roboto Mono, Bold';font-variant-ligatures:normal;font-variant-caps:normal;font-variant-numeric:normal;font-variant-east-asian:normal;fill:#ffffff;stroke:none;stroke-width:0.351676"
         x="-410.67712"
         y="256.30203"><tspan
           style="font-style:normal;font-variant:normal;font-weight:bold;font-stretch:normal;font-size:9.84628px;font-family:'Roboto Mono';-inkscape-font-specification:'Roboto Mono, Bold';font-variant-ligatures:normal;font-variant-caps:normal;font-variant-numeric:normal;font-variant-east-asian:normal;stroke:none;stroke-width:0.351676"
           id="tspan3183">ADJ</tspan></tspan></text></g></svg>
