M48
; DRILL file {KiCad (5.1.5-0-10_14)} date Monday, February 24, 2020 at 10:17:49 AM
; FORMAT={-:-/ absolute / metric / decimal}
; #@! TF.CreationDate,2020-02-24T10:17:49-05:00
; #@! TF.GenerationSoftware,Kicad,Pcbnew,(5.1.5-0-10_14)
; #@! TF.FileFunction,Plated,1,2,PTH
FMAT,2
METRIC
T1C0.400
T2C0.600
T3C0.750
T4C0.800
T5C0.850
T6C1.000
T7C1.300
%
G90
G05
T1
X50.0Y-104.5
X51.3Y-104.5
X52.6Y-104.5
X54.0Y-104.6
X55.4Y-104.6
X56.6Y-104.6
X57.9Y-104.6
X59.1Y-104.6
X64.2Y-108.7
X65.4Y-107.8
X68.7Y-109.6
X69.2Y-98.8
X69.2Y-102.4
X71.7Y-109.6
X77.9Y-104.6
X79.2Y-104.6
X80.5Y-104.6
X81.7Y-104.6
X83.0Y-104.6
X84.2Y-104.6
X85.5Y-104.6
X86.8Y-104.6
X92.2Y-108.7
X93.4Y-107.8
X96.4Y-109.6
X97.1Y-97.8
X97.1Y-102.1
X99.1Y-109.7
X105.9Y-104.4
X107.2Y-104.4
X108.4Y-104.4
X109.7Y-104.4
X111.0Y-104.4
X112.2Y-104.4
X113.5Y-104.4
X114.8Y-104.4
X120.1Y-108.7
X121.3Y-107.8
X124.6Y-109.6
X125.0Y-97.5
X125.0Y-102.2
X125.7Y-106.7
X131.3Y-126.0
X131.9Y-125.0
X132.5Y-124.0
X133.1Y-123.0
X133.7Y-122.0
X133.8Y-104.5
X134.3Y-121.0
X135.1Y-104.5
X136.4Y-104.5
X137.6Y-104.5
X138.9Y-104.5
X140.2Y-104.5
X141.5Y-104.5
X142.7Y-104.5
X143.0Y-115.9
X143.9Y-115.3
X144.4Y-138.7
X144.8Y-114.7
X144.8Y-128.9
X147.7Y-127.9
X148.0Y-108.7
X149.3Y-107.8
X149.6Y-110.2
X152.1Y-127.1
X152.2Y-124.7
X152.6Y-98.5
X153.0Y-123.9
X154.4Y-130.8
X156.9Y-104.2
X157.1Y-109.6
T3
X61.0Y-89.0
X63.0Y-89.0
X65.0Y-89.0
X67.0Y-89.0
X152.5Y-89.0
X154.5Y-89.0
X156.5Y-89.0
X158.5Y-89.0
X46.0Y-75.0
X48.0Y-75.0
X50.0Y-75.0
X52.0Y-75.0
X122.1Y-89.0
X124.1Y-89.0
X126.1Y-89.0
X128.1Y-89.0
X91.0Y-75.0
X93.0Y-75.0
X95.0Y-75.0
X97.0Y-75.0
X106.5Y-75.0
X108.5Y-75.0
X110.5Y-75.0
X112.5Y-75.0
X76.0Y-75.0
X78.0Y-75.0
X80.0Y-75.0
X82.0Y-75.0
X152.5Y-81.88
X154.5Y-81.88
X156.5Y-81.88
X158.5Y-81.88
X122.08Y-68.0
X124.08Y-68.0
X126.08Y-68.0
X128.08Y-68.0
X61.0Y-82.0
X63.0Y-82.0
X65.0Y-82.0
X67.0Y-82.0
X46.0Y-82.0
X48.0Y-82.0
X50.0Y-82.0
X52.0Y-82.0
X122.08Y-82.0
X124.08Y-82.0
X126.08Y-82.0
X128.08Y-82.0
X106.5Y-68.0
X108.5Y-68.0
X110.5Y-68.0
X112.5Y-68.0
X46.0Y-68.0
X48.0Y-68.0
X50.0Y-68.0
X52.0Y-68.0
X91.0Y-68.0
X93.0Y-68.0
X95.0Y-68.0
X97.0Y-68.0
X137.5Y-89.0
X139.5Y-89.0
X141.5Y-89.0
X143.5Y-89.0
X61.0Y-75.0
X63.0Y-75.0
X65.0Y-75.0
X67.0Y-75.0
X76.0Y-68.0
X78.0Y-68.0
X80.0Y-68.0
X82.0Y-68.0
X152.5Y-75.0
X154.5Y-75.0
X156.5Y-75.0
X158.5Y-75.0
X122.08Y-75.0
X124.08Y-75.0
X126.08Y-75.0
X128.08Y-75.0
X91.0Y-89.0
X93.0Y-89.0
X95.0Y-89.0
X97.0Y-89.0
X137.5Y-82.0
X139.5Y-82.0
X141.5Y-82.0
X143.5Y-82.0
X61.0Y-68.0
X63.0Y-68.0
X65.0Y-68.0
X67.0Y-68.0
X137.5Y-75.0
X139.5Y-75.0
X141.5Y-75.0
X143.5Y-75.0
X76.0Y-89.0
X78.0Y-89.0
X80.0Y-89.0
X82.0Y-89.0
X137.5Y-68.0
X139.5Y-68.0
X141.5Y-68.0
X143.5Y-68.0
X106.5Y-89.0
X108.5Y-89.0
X110.5Y-89.0
X112.5Y-89.0
X152.5Y-68.0
X154.5Y-68.0
X156.5Y-68.0
X158.5Y-68.0
X91.0Y-82.0
X93.0Y-82.0
X95.0Y-82.0
X97.0Y-82.0
X46.0Y-89.0
X48.0Y-89.0
X50.0Y-89.0
X52.0Y-89.0
X106.5Y-82.0
X108.5Y-82.0
X110.5Y-82.0
X112.5Y-82.0
X76.0Y-82.0
X78.0Y-82.0
X80.0Y-82.0
X82.0Y-82.0
T4
X84.76Y-117.44
X84.76Y-130.14
X87.3Y-117.44
X87.3Y-130.14
X89.84Y-117.44
X89.84Y-130.14
X92.38Y-117.44
X92.38Y-130.14
X94.92Y-117.44
X94.92Y-130.14
X97.46Y-117.44
X97.46Y-130.14
X100.0Y-117.44
X100.0Y-130.14
X102.54Y-117.44
X102.54Y-130.14
X110.16Y-117.44
X110.16Y-130.14
X112.7Y-117.44
X112.7Y-130.14
X115.24Y-117.44
X115.24Y-130.14
X117.78Y-117.44
X117.78Y-130.14
X120.32Y-117.44
X120.32Y-130.14
X122.86Y-117.44
X122.86Y-130.14
X125.4Y-117.44
X125.4Y-130.14
X127.94Y-117.44
X127.94Y-130.14
X100.04Y-137.76
X102.54Y-137.76
X59.36Y-117.44
X59.36Y-130.14
X61.9Y-117.44
X61.9Y-130.14
X64.44Y-117.44
X64.44Y-130.14
X66.98Y-117.44
X66.98Y-130.14
X69.52Y-117.44
X69.52Y-130.14
X72.06Y-117.44
X72.06Y-130.14
X74.6Y-117.44
X74.6Y-130.14
X77.14Y-117.44
X77.14Y-130.14
X125.44Y-137.76
X127.94Y-137.76
X74.64Y-137.76
X77.14Y-137.76
T5
X140.5Y-140.537
X145.5Y-140.537
T6
X151.7Y-135.6
X151.7Y-138.14
X151.7Y-140.68
X154.24Y-135.6
X154.24Y-138.14
X154.24Y-140.68
X87.3Y-137.76
X89.84Y-137.76
X92.38Y-137.76
X94.92Y-137.76
X61.9Y-137.76
X64.44Y-137.76
X66.98Y-137.76
X69.52Y-137.76
X161.5Y-119.0
X161.5Y-121.54
X161.5Y-124.08
X161.5Y-126.62
X161.5Y-129.16
X161.5Y-131.7
X112.7Y-137.76
X115.24Y-137.76
X117.78Y-137.76
X120.32Y-137.76
T7
X48.5Y-118.5
X48.5Y-123.58
X48.5Y-128.66
T2
G00X139.5Y-143.588
M15
G01X139.5Y-142.887
M16
G05
G00X146.5Y-142.887
M15
G01X146.5Y-143.588
M16
G05
T0
M30
