<?xml version="1.0" encoding="UTF-8" standalone="no"?>
<!DOCTYPE svg PUBLIC "-//W3C//DTD SVG 1.1//EN"
 "http://www.w3.org/Graphics/SVG/1.1/DTD/svg11.dtd">
<!-- Generated by graphviz version 10.0.1 (20240210.2158)
 -->
<!-- Pages: 1 -->
<svg width="811pt" height="260pt"
 viewBox="0.00 0.00 810.50 260.25" xmlns="http://www.w3.org/2000/svg" xmlns:xlink="http://www.w3.org/1999/xlink">
<g id="graph0" class="graph" transform="scale(1 1) rotate(0) translate(4 256.25)">
<polygon fill="#ffffff" stroke="none" points="-4,4 -4,-256.25 806.5,-256.25 806.5,4 -4,4"/>
<!-- MOBO -->
<g id="node1" class="node">
<title>MOBO</title>
<polygon fill="#ffffff" stroke="black" points="141.75,-219.25 0,-219.25 0,0 141.75,0 141.75,-219.25"/>
<polygon fill="none" stroke="black" points="0,-195.5 0,-219.25 141.75,-219.25 141.75,-195.5 0,-195.5"/>
<text text-anchor="start" x="49.12" y="-201.95" font-family="arial" font-size="14.00">MOBO</text>
<polygon fill="none" stroke="black" points="0,-171.75 0,-195.5 54.5,-195.5 54.5,-171.75 0,-171.75"/>
<text text-anchor="start" x="4" y="-178.2" font-family="arial" font-size="14.00">JST PH</text>
<polygon fill="none" stroke="black" points="54.5,-171.75 54.5,-195.5 103.75,-195.5 103.75,-171.75 54.5,-171.75"/>
<text text-anchor="start" x="58.5" y="-178.2" font-family="arial" font-size="14.00">female</text>
<polygon fill="none" stroke="black" points="103.75,-171.75 103.75,-195.5 141.75,-195.5 141.75,-171.75 103.75,-171.75"/>
<text text-anchor="start" x="107.75" y="-178.2" font-family="arial" font-size="14.00">4&#45;pin</text>
<polygon fill="none" stroke="black" points="0,-148.75 0,-171.75 82.38,-171.75 82.38,-148.75 0,-148.75"/>
<text text-anchor="start" x="25.81" y="-154.45" font-family="arial" font-size="14.00">GND</text>
<polygon fill="none" stroke="black" points="82.38,-148.75 82.38,-171.75 141.75,-171.75 141.75,-148.75 82.38,-148.75"/>
<text text-anchor="start" x="108.31" y="-154.45" font-family="arial" font-size="14.00">1</text>
<polygon fill="none" stroke="black" points="0,-125.75 0,-148.75 82.38,-148.75 82.38,-125.75 0,-125.75"/>
<text text-anchor="start" x="26.94" y="-131.45" font-family="arial" font-size="14.00">VDC</text>
<polygon fill="none" stroke="black" points="82.38,-125.75 82.38,-148.75 141.75,-148.75 141.75,-125.75 82.38,-125.75"/>
<text text-anchor="start" x="108.31" y="-131.45" font-family="arial" font-size="14.00">2</text>
<polygon fill="none" stroke="black" points="0,-102.75 0,-125.75 82.38,-125.75 82.38,-102.75 0,-102.75"/>
<text text-anchor="start" x="36.69" y="-108.45" font-family="arial" font-size="14.00">A</text>
<polygon fill="none" stroke="black" points="82.38,-102.75 82.38,-125.75 141.75,-125.75 141.75,-102.75 82.38,-102.75"/>
<text text-anchor="start" x="108.31" y="-108.45" font-family="arial" font-size="14.00">3</text>
<polygon fill="none" stroke="black" points="0,-79.75 0,-102.75 82.38,-102.75 82.38,-79.75 0,-79.75"/>
<text text-anchor="start" x="36.69" y="-85.45" font-family="arial" font-size="14.00">B</text>
<polygon fill="none" stroke="black" points="82.38,-79.75 82.38,-102.75 141.75,-102.75 141.75,-79.75 82.38,-79.75"/>
<text text-anchor="start" x="108.31" y="-85.45" font-family="arial" font-size="14.00">4</text>
<polyline fill="none" stroke="black" points="141.75,-23.75 141.75,-79.75 0,-79.75 0,-23.75"/>
<image xlink:href="../img/PH-4.jpeg" width="64px" height="48px" preserveAspectRatio="xMinYMin meet" x="38.875" y="-75.75"/>
<polyline fill="none" stroke="black" points="0,-23.75 0,0 141.75,0 141.75,-23.75"/>
<text text-anchor="start" x="30.75" y="-6.45" font-family="arial" font-size="14.00">JST PH 4&#45;pin</text>
</g>
<!-- W1 -->
<g id="node3" class="node">
<title>W1</title>
<polygon fill="#ffffff" stroke="black" points="516.75,-252.25 285.75,-252.25 285.75,-43 516.75,-43 516.75,-252.25"/>
<polygon fill="none" stroke="black" points="285.75,-228.5 285.75,-252.25 516.75,-252.25 516.75,-228.5 285.75,-228.5"/>
<text text-anchor="start" x="390.75" y="-234.95" font-family="arial" font-size="14.00">W1</text>
<polygon fill="none" stroke="black" points="285.75,-204.75 285.75,-228.5 319.75,-228.5 319.75,-204.75 285.75,-204.75"/>
<text text-anchor="start" x="295.62" y="-211.2" font-family="arial" font-size="14.00">4x</text>
<polygon fill="none" stroke="black" points="319.75,-204.75 319.75,-228.5 462.5,-228.5 462.5,-204.75 319.75,-204.75"/>
<text text-anchor="start" x="329.62" y="-211.2" font-family="arial" font-size="14.00">22 AWG (0.34 mm²)</text>
<polygon fill="none" stroke="black" points="462.5,-204.75 462.5,-228.5 516.75,-228.5 516.75,-204.75 462.5,-204.75"/>
<text text-anchor="start" x="472.38" y="-211.2" font-family="arial" font-size="14.00">0.8 m</text>
<text text-anchor="start" x="330.38" y="-189.45" font-family="arial" font-size="14.00"> </text>
<text text-anchor="start" x="287.62" y="-170.45" font-family="arial" font-size="14.00">MOBO:1:GND</text>
<text text-anchor="start" x="380.62" y="-170.45" font-family="arial" font-size="14.00"> &#160;&#160;&#160;&#160;1:WH &#160;&#160;&#160;</text>
<text text-anchor="start" x="452.62" y="-170.45" font-family="arial" font-size="14.00">B1:1:GND</text>
<polygon fill="#000000" stroke="none" points="285.75,-164.75 285.75,-166.75 516.75,-166.75 516.75,-164.75 285.75,-164.75"/>
<polygon fill="#ffffff" stroke="none" points="285.75,-162.75 285.75,-164.75 516.75,-164.75 516.75,-162.75 285.75,-162.75"/>
<polygon fill="#000000" stroke="none" points="285.75,-160.75 285.75,-162.75 516.75,-162.75 516.75,-160.75 285.75,-160.75"/>
<text text-anchor="start" x="288.75" y="-145.45" font-family="arial" font-size="14.00">MOBO:2:VDC</text>
<text text-anchor="start" x="382.5" y="-145.45" font-family="arial" font-size="14.00"> &#160;&#160;&#160;&#160;2:RD &#160;&#160;&#160;</text>
<text text-anchor="start" x="453.75" y="-145.45" font-family="arial" font-size="14.00">B1:2:VDC</text>
<polygon fill="#000000" stroke="none" points="285.75,-139.75 285.75,-141.75 516.75,-141.75 516.75,-139.75 285.75,-139.75"/>
<polygon fill="#ff0000" stroke="none" points="285.75,-137.75 285.75,-139.75 516.75,-139.75 516.75,-137.75 285.75,-137.75"/>
<polygon fill="#000000" stroke="none" points="285.75,-135.75 285.75,-137.75 516.75,-137.75 516.75,-135.75 285.75,-135.75"/>
<text text-anchor="start" x="298.5" y="-120.45" font-family="arial" font-size="14.00">MOBO:3:A</text>
<text text-anchor="start" x="383.25" y="-120.45" font-family="arial" font-size="14.00"> &#160;&#160;&#160;&#160;3:YE &#160;&#160;&#160;</text>
<text text-anchor="start" x="463.5" y="-120.45" font-family="arial" font-size="14.00">B1:3:A</text>
<polygon fill="#000000" stroke="none" points="285.75,-114.75 285.75,-116.75 516.75,-116.75 516.75,-114.75 285.75,-114.75"/>
<polygon fill="#ffff00" stroke="none" points="285.75,-112.75 285.75,-114.75 516.75,-114.75 516.75,-112.75 285.75,-112.75"/>
<polygon fill="#000000" stroke="none" points="285.75,-110.75 285.75,-112.75 516.75,-112.75 516.75,-110.75 285.75,-110.75"/>
<text text-anchor="start" x="298.5" y="-95.45" font-family="arial" font-size="14.00">MOBO:4:B</text>
<text text-anchor="start" x="383.25" y="-95.45" font-family="arial" font-size="14.00"> &#160;&#160;&#160;&#160;4:BK &#160;&#160;&#160;</text>
<text text-anchor="start" x="463.5" y="-95.45" font-family="arial" font-size="14.00">B1:4:B</text>
<polygon fill="#000000" stroke="none" points="285.75,-89.75 285.75,-91.75 516.75,-91.75 516.75,-89.75 285.75,-89.75"/>
<polygon fill="#000000" stroke="none" points="285.75,-87.75 285.75,-89.75 516.75,-89.75 516.75,-87.75 285.75,-87.75"/>
<polygon fill="#000000" stroke="none" points="285.75,-85.75 285.75,-87.75 516.75,-87.75 516.75,-85.75 285.75,-85.75"/>
<text text-anchor="start" x="330.38" y="-70.45" font-family="arial" font-size="14.00"> </text>
<polygon fill="none" stroke="black" points="285.75,-43 285.75,-66.75 516.75,-66.75 516.75,-43 285.75,-43"/>
<text text-anchor="start" x="323.25" y="-49.45" font-family="arial" font-size="14.00">Stranded &#45; PVC Insulation</text>
</g>
<!-- MOBO&#45;&#45;W1 -->
<g id="edge1" class="edge">
<title>MOBO:e&#45;&#45;W1:w</title>
<path fill="none" stroke="#000000" stroke-width="2" d="M141.75,-158.63C206.13,-158.66 222.11,-161.66 285.75,-161.63"/>
<path fill="none" stroke="#ffffff" stroke-width="2" d="M141.75,-160.62C205.76,-160.62 221.74,-163.62 285.75,-163.62"/>
<path fill="none" stroke="#000000" stroke-width="2" d="M141.75,-162.62C205.39,-162.59 221.37,-165.59 285.75,-165.62"/>
</g>
<!-- MOBO&#45;&#45;W1 -->
<g id="edge3" class="edge">
<title>MOBO:e&#45;&#45;W1:w</title>
<path fill="none" stroke="#000000" stroke-width="2" d="M141.75,-135.63C205.88,-135.63 221.87,-136.63 285.75,-136.63"/>
<path fill="none" stroke="#ff0000" stroke-width="2" d="M141.75,-137.62C205.75,-137.62 221.75,-138.62 285.75,-138.62"/>
<path fill="none" stroke="#000000" stroke-width="2" d="M141.75,-139.62C205.63,-139.62 221.62,-140.62 285.75,-140.62"/>
</g>
<!-- MOBO&#45;&#45;W1 -->
<g id="edge5" class="edge">
<title>MOBO:e&#45;&#45;W1:w</title>
<path fill="none" stroke="#000000" stroke-width="2" d="M141.75,-112.63C205.63,-112.63 221.62,-111.63 285.75,-111.63"/>
<path fill="none" stroke="#ffff00" stroke-width="2" d="M141.75,-114.62C205.75,-114.62 221.75,-113.62 285.75,-113.62"/>
<path fill="none" stroke="#000000" stroke-width="2" d="M141.75,-116.62C205.88,-116.62 221.87,-115.62 285.75,-115.62"/>
</g>
<!-- MOBO&#45;&#45;W1 -->
<g id="edge7" class="edge">
<title>MOBO:e&#45;&#45;W1:w</title>
<path fill="none" stroke="#000000" stroke-width="2" d="M141.75,-89.63C205.39,-89.66 221.37,-86.66 285.75,-86.63"/>
<path fill="none" stroke="#000000" stroke-width="2" d="M141.75,-91.62C205.76,-91.62 221.74,-88.62 285.75,-88.62"/>
<path fill="none" stroke="#000000" stroke-width="2" d="M141.75,-93.62C206.13,-93.59 222.11,-90.59 285.75,-90.62"/>
</g>
<!-- B1 -->
<g id="node2" class="node">
<title>B1</title>
<polygon fill="#ffffff" stroke="black" points="802.5,-219.25 660.75,-219.25 660.75,0 802.5,0 802.5,-219.25"/>
<polygon fill="none" stroke="black" points="660.75,-195.5 660.75,-219.25 802.5,-219.25 802.5,-195.5 660.75,-195.5"/>
<text text-anchor="start" x="723.38" y="-201.95" font-family="arial" font-size="14.00">B1</text>
<polygon fill="none" stroke="black" points="660.75,-171.75 660.75,-195.5 715.25,-195.5 715.25,-171.75 660.75,-171.75"/>
<text text-anchor="start" x="664.75" y="-178.2" font-family="arial" font-size="14.00">JST PH</text>
<polygon fill="none" stroke="black" points="715.25,-171.75 715.25,-195.5 764.5,-195.5 764.5,-171.75 715.25,-171.75"/>
<text text-anchor="start" x="719.25" y="-178.2" font-family="arial" font-size="14.00">female</text>
<polygon fill="none" stroke="black" points="764.5,-171.75 764.5,-195.5 802.5,-195.5 802.5,-171.75 764.5,-171.75"/>
<text text-anchor="start" x="768.5" y="-178.2" font-family="arial" font-size="14.00">4&#45;pin</text>
<polygon fill="none" stroke="black" points="660.75,-148.75 660.75,-171.75 720.12,-171.75 720.12,-148.75 660.75,-148.75"/>
<text text-anchor="start" x="686.69" y="-154.45" font-family="arial" font-size="14.00">1</text>
<polygon fill="none" stroke="black" points="720.12,-148.75 720.12,-171.75 802.5,-171.75 802.5,-148.75 720.12,-148.75"/>
<text text-anchor="start" x="745.94" y="-154.45" font-family="arial" font-size="14.00">GND</text>
<polygon fill="none" stroke="black" points="660.75,-125.75 660.75,-148.75 720.12,-148.75 720.12,-125.75 660.75,-125.75"/>
<text text-anchor="start" x="686.69" y="-131.45" font-family="arial" font-size="14.00">2</text>
<polygon fill="none" stroke="black" points="720.12,-125.75 720.12,-148.75 802.5,-148.75 802.5,-125.75 720.12,-125.75"/>
<text text-anchor="start" x="747.06" y="-131.45" font-family="arial" font-size="14.00">VDC</text>
<polygon fill="none" stroke="black" points="660.75,-102.75 660.75,-125.75 720.12,-125.75 720.12,-102.75 660.75,-102.75"/>
<text text-anchor="start" x="686.69" y="-108.45" font-family="arial" font-size="14.00">3</text>
<polygon fill="none" stroke="black" points="720.12,-102.75 720.12,-125.75 802.5,-125.75 802.5,-102.75 720.12,-102.75"/>
<text text-anchor="start" x="756.81" y="-108.45" font-family="arial" font-size="14.00">A</text>
<polygon fill="none" stroke="black" points="660.75,-79.75 660.75,-102.75 720.12,-102.75 720.12,-79.75 660.75,-79.75"/>
<text text-anchor="start" x="686.69" y="-85.45" font-family="arial" font-size="14.00">4</text>
<polygon fill="none" stroke="black" points="720.12,-79.75 720.12,-102.75 802.5,-102.75 802.5,-79.75 720.12,-79.75"/>
<text text-anchor="start" x="756.81" y="-85.45" font-family="arial" font-size="14.00">B</text>
<polyline fill="none" stroke="black" points="802.5,-23.75 802.5,-79.75 660.75,-79.75 660.75,-23.75"/>
<image xlink:href="../img/PH-4.jpeg" width="64px" height="48px" preserveAspectRatio="xMinYMin meet" x="699.625" y="-75.75"/>
<polyline fill="none" stroke="black" points="660.75,-23.75 660.75,0 802.5,0 802.5,-23.75"/>
<text text-anchor="start" x="691.5" y="-6.45" font-family="arial" font-size="14.00">JST PH 4&#45;pin</text>
</g>
<!-- W1&#45;&#45;B1 -->
<g id="edge2" class="edge">
<title>W1:e&#45;&#45;B1:w</title>
<path fill="none" stroke="#000000" stroke-width="2" d="M516.75,-161.63C580.39,-161.66 596.37,-158.66 660.75,-158.63"/>
<path fill="none" stroke="#ffffff" stroke-width="2" d="M516.75,-163.62C580.76,-163.62 596.74,-160.62 660.75,-160.62"/>
<path fill="none" stroke="#000000" stroke-width="2" d="M516.75,-165.62C581.13,-165.59 597.11,-162.59 660.75,-162.62"/>
</g>
<!-- W1&#45;&#45;B1 -->
<g id="edge4" class="edge">
<title>W1:e&#45;&#45;B1:w</title>
<path fill="none" stroke="#000000" stroke-width="2" d="M516.75,-136.63C580.63,-136.63 596.62,-135.63 660.75,-135.63"/>
<path fill="none" stroke="#ff0000" stroke-width="2" d="M516.75,-138.62C580.75,-138.62 596.75,-137.62 660.75,-137.62"/>
<path fill="none" stroke="#000000" stroke-width="2" d="M516.75,-140.62C580.88,-140.62 596.87,-139.62 660.75,-139.62"/>
</g>
<!-- W1&#45;&#45;B1 -->
<g id="edge6" class="edge">
<title>W1:e&#45;&#45;B1:w</title>
<path fill="none" stroke="#000000" stroke-width="2" d="M516.75,-111.63C580.88,-111.63 596.87,-112.63 660.75,-112.63"/>
<path fill="none" stroke="#ffff00" stroke-width="2" d="M516.75,-113.62C580.75,-113.62 596.75,-114.62 660.75,-114.62"/>
<path fill="none" stroke="#000000" stroke-width="2" d="M516.75,-115.62C580.63,-115.62 596.62,-116.62 660.75,-116.62"/>
</g>
<!-- W1&#45;&#45;B1 -->
<g id="edge8" class="edge">
<title>W1:e&#45;&#45;B1:w</title>
<path fill="none" stroke="#000000" stroke-width="2" d="M516.75,-86.63C581.13,-86.66 597.11,-89.66 660.75,-89.63"/>
<path fill="none" stroke="#000000" stroke-width="2" d="M516.75,-88.62C580.76,-88.62 596.74,-91.62 660.75,-91.62"/>
<path fill="none" stroke="#000000" stroke-width="2" d="M516.75,-90.62C580.39,-90.59 596.37,-93.59 660.75,-93.62"/>
</g>
</g>
</svg>
