<?xml version="1.0" encoding="UTF-8" standalone="no"?>
<!DOCTYPE svg PUBLIC "-//W3C//DTD SVG 1.1//EN"
 "http://www.w3.org/Graphics/SVG/1.1/DTD/svg11.dtd">
<!-- Generated by graphviz version 8.1.0 (20230707.0739)
 -->
<!-- Pages: 1 -->
<svg width="497pt" height="167pt"
 viewBox="0.00 0.00 497.00 167.25" xmlns="http://www.w3.org/2000/svg" xmlns:xlink="http://www.w3.org/1999/xlink">
<g id="graph0" class="graph" transform="scale(1 1) rotate(0) translate(4 163.25)">
<polygon fill="#ffffff" stroke="none" points="-4,4 -4,-163.25 493,-163.25 493,4 -4,4"/>
<!-- X1 -->
<g id="node1" class="node">
<title>X1</title>
<polygon fill="#ffffff" stroke="black" points="141.75,-128.38 0,-128.38 0,-34.88 141.75,-34.88 141.75,-128.38"/>
<polygon fill="none" stroke="black" points="0,-104.62 0,-128.38 141.75,-128.38 141.75,-104.62 0,-104.62"/>
<text text-anchor="start" x="62.62" y="-111.08" font-family="arial" font-size="14.00">X1</text>
<polygon fill="none" stroke="black" points="0,-80.88 0,-104.62 54.5,-104.62 54.5,-80.88 0,-80.88"/>
<text text-anchor="start" x="4" y="-87.33" font-family="arial" font-size="14.00">JST XH</text>
<polygon fill="none" stroke="black" points="54.5,-80.88 54.5,-104.62 103.75,-104.62 103.75,-80.88 54.5,-80.88"/>
<text text-anchor="start" x="58.5" y="-87.33" font-family="arial" font-size="14.00">female</text>
<polygon fill="none" stroke="black" points="103.75,-80.88 103.75,-104.62 141.75,-104.62 141.75,-80.88 103.75,-80.88"/>
<text text-anchor="start" x="107.75" y="-87.33" font-family="arial" font-size="14.00">2&#45;pin</text>
<polygon fill="none" stroke="black" points="0,-57.88 0,-80.88 71.88,-80.88 71.88,-57.88 0,-57.88"/>
<text text-anchor="start" x="31.44" y="-63.58" font-family="arial" font-size="14.00">A</text>
<polygon fill="none" stroke="black" points="71.88,-57.88 71.88,-80.88 141.75,-80.88 141.75,-57.88 71.88,-57.88"/>
<text text-anchor="start" x="103.06" y="-63.58" font-family="arial" font-size="14.00">1</text>
<polygon fill="none" stroke="black" points="0,-34.88 0,-57.88 71.88,-57.88 71.88,-34.88 0,-34.88"/>
<text text-anchor="start" x="31.44" y="-40.58" font-family="arial" font-size="14.00">B</text>
<polygon fill="none" stroke="black" points="71.88,-34.88 71.88,-57.88 141.75,-57.88 141.75,-34.88 71.88,-34.88"/>
<text text-anchor="start" x="103.06" y="-40.58" font-family="arial" font-size="14.00">2</text>
</g>
<!-- W1 -->
<g id="node2" class="node">
<title>W1</title>
<polygon fill="#ffffff" stroke="black" points="489,-159.25 285.75,-159.25 285.75,0 489,0 489,-159.25"/>
<polygon fill="none" stroke="black" points="285.75,-135.5 285.75,-159.25 489,-159.25 489,-135.5 285.75,-135.5"/>
<text text-anchor="start" x="376.88" y="-141.95" font-family="arial" font-size="14.00">W1</text>
<polygon fill="none" stroke="black" points="285.75,-111.75 285.75,-135.5 308,-135.5 308,-111.75 285.75,-111.75"/>
<text text-anchor="start" x="289.75" y="-118.2" font-family="arial" font-size="14.00">2x</text>
<polygon fill="none" stroke="black" points="308,-111.75 308,-135.5 439,-135.5 439,-111.75 308,-111.75"/>
<text text-anchor="start" x="312" y="-118.2" font-family="arial" font-size="14.00">22 AWG (0.34 mm²)</text>
<polygon fill="none" stroke="black" points="439,-111.75 439,-135.5 489,-135.5 489,-111.75 439,-111.75"/>
<text text-anchor="start" x="443" y="-118.2" font-family="arial" font-size="14.00">0.55 m</text>
<text text-anchor="start" x="320.42" y="-96.45" font-family="arial" font-size="14.00"> </text>
<text text-anchor="start" x="302.04" y="-77.45" font-family="arial" font-size="14.00">X1:1:A</text>
<text text-anchor="start" x="375.88" y="-77.45" font-family="arial" font-size="14.00"> &#160;&#160;&#160;&#160;1:BK &#160;&#160;&#160;</text>
<polygon fill="#000000" stroke="none" points="285.75,-71.75 285.75,-73.75 489,-73.75 489,-71.75 285.75,-71.75"/>
<polygon fill="#000000" stroke="none" points="285.75,-69.75 285.75,-71.75 489,-71.75 489,-69.75 285.75,-69.75"/>
<polygon fill="#000000" stroke="none" points="285.75,-67.75 285.75,-69.75 489,-69.75 489,-67.75 285.75,-67.75"/>
<text text-anchor="start" x="302.04" y="-52.45" font-family="arial" font-size="14.00">X1:2:B</text>
<text text-anchor="start" x="375.12" y="-52.45" font-family="arial" font-size="14.00"> &#160;&#160;&#160;&#160;2:RD &#160;&#160;&#160;</text>
<polygon fill="#000000" stroke="none" points="285.75,-46.75 285.75,-48.75 489,-48.75 489,-46.75 285.75,-46.75"/>
<polygon fill="#ff0000" stroke="none" points="285.75,-44.75 285.75,-46.75 489,-46.75 489,-44.75 285.75,-44.75"/>
<polygon fill="#000000" stroke="none" points="285.75,-42.75 285.75,-44.75 489,-44.75 489,-42.75 285.75,-42.75"/>
<text text-anchor="start" x="320.42" y="-27.45" font-family="arial" font-size="14.00"> </text>
<polygon fill="none" stroke="black" points="285.75,0 285.75,-23.75 489,-23.75 489,0 285.75,0"/>
<text text-anchor="start" x="309.38" y="-6.45" font-family="arial" font-size="14.00">Stranded &#45; PVC Insulation</text>
</g>
<!-- X1&#45;&#45;W1 -->
<g id="edge1" class="edge">
<title>X1:e&#45;&#45;W1:w</title>
<path fill="none" stroke="#000000" stroke-width="2" d="M141.75,-67.63C205.88,-67.63 221.87,-68.63 285.75,-68.63"/>
<path fill="none" stroke="#000000" stroke-width="2" d="M141.75,-69.62C205.75,-69.62 221.75,-70.62 285.75,-70.62"/>
<path fill="none" stroke="#000000" stroke-width="2" d="M141.75,-71.62C205.63,-71.62 221.62,-72.62 285.75,-72.62"/>
</g>
<!-- X1&#45;&#45;W1 -->
<g id="edge2" class="edge">
<title>X1:e&#45;&#45;W1:w</title>
<path fill="none" stroke="#000000" stroke-width="2" d="M141.75,-44.63C205.63,-44.63 221.62,-43.63 285.75,-43.63"/>
<path fill="none" stroke="#ff0000" stroke-width="2" d="M141.75,-46.62C205.75,-46.63 221.75,-45.63 285.75,-45.62"/>
<path fill="none" stroke="#000000" stroke-width="2" d="M141.75,-48.62C205.88,-48.62 221.87,-47.62 285.75,-47.62"/>
</g>
</g>
</svg>
