M48
INCH,TZ
T1C0.0157
T2C0.0394
%
G90
G05
T1
X8701Y-19449
X8701Y-20591
X11890Y-10669
X11890Y-11654
X11890Y-12638
X11890Y-13484
X11890Y-13937
X11890Y-14409
X11929Y-16890
X11929Y-17992
X12146Y-15354
X12520Y-20591
X12618Y-15354
X13130Y-15354
X13504Y-16693
X13504Y-18583
X14252Y-16693
X14252Y-18583
X15000Y-16693
X15000Y-18583
X15748Y-16693
X15748Y-18583
X16496Y-16693
X16496Y-18583
X17244Y-17402
X17559Y-18010
X18031Y-10669
X18031Y-11654
X18031Y-12638
X18031Y-13484
X18031Y-13937
X18031Y-14409
X18287Y-15354
X18760Y-15354
X19272Y-15354
X19646Y-16693
X19646Y-18583
X20394Y-16693
X20394Y-18583
X21142Y-16693
X21142Y-18583
X21890Y-16693
X21890Y-18583
X22638Y-16693
X22638Y-18583
X23386Y-17402
X23701Y-18010
X24173Y-10669
X24173Y-11654
X24173Y-12638
X24173Y-13484
X24173Y-13937
X24173Y-14409
X24429Y-15354
X24902Y-15354
X25413Y-15354
X25748Y-16693
X25748Y-18583
X26496Y-16693
X26496Y-18583
X27244Y-16693
X27244Y-18583
X27992Y-16693
X27992Y-18583
X28740Y-16693
X28740Y-18583
X29528Y-17402
X29843Y-18010
X30315Y-10669
X30315Y-11654
X30315Y-12638
X30315Y-13484
X30315Y-13937
X30315Y-14409
X30571Y-15354
X31043Y-15354
X31555Y-15354
X31890Y-16693
X31890Y-18583
X32638Y-16693
X32638Y-18583
X33386Y-16693
X33386Y-18583
X34134Y-16693
X34134Y-18583
X34882Y-16693
X34882Y-18583
X35669Y-17402
X35984Y-18010
X36457Y-10669
X36457Y-11654
X36457Y-12638
X36457Y-13484
X36457Y-13937
X36457Y-14409
X36713Y-15354
X37185Y-15354
X37697Y-15354
X38031Y-16693
X38031Y-18583
X38780Y-16693
X38780Y-18583
X39528Y-16693
X39528Y-18583
X40276Y-16693
X40276Y-18583
X41024Y-16693
X41024Y-18583
X41811Y-17402
X42126Y-18010
X42598Y-10669
X42598Y-11654
X42598Y-12638
X42598Y-13484
X42598Y-13937
X42598Y-14409
X42854Y-15354
X43327Y-15354
X43839Y-15354
X44173Y-16693
X44173Y-18583
X44921Y-16693
X44921Y-18583
X45669Y-16693
X45669Y-18583
X46417Y-16693
X46417Y-18583
X47165Y-16693
X47165Y-18583
X47953Y-17402
X48268Y-18010
X48740Y-10669
X48740Y-11654
X48740Y-12638
X48740Y-13484
X48740Y-13937
X48740Y-14409
X48996Y-15354
X49469Y-15354
X49980Y-15354
X50315Y-16693
X50315Y-18583
X51063Y-16693
X51063Y-18583
X51811Y-16693
X51811Y-18583
X52559Y-16693
X52559Y-18583
X53307Y-16693
X53307Y-18583
X54094Y-17402
X54409Y-18010
X54882Y-10669
X54882Y-11654
X54882Y-12638
X54882Y-13484
X54882Y-13937
X54882Y-14409
X55138Y-15354
X55610Y-15354
X56122Y-15354
X56457Y-16693
X56457Y-18583
X57205Y-16693
X57205Y-18583
X57953Y-16693
X57953Y-18583
X58701Y-16693
X58701Y-18583
X59449Y-16693
X59449Y-18583
X60236Y-17402
X60551Y-18010
X61024Y-10669
X61024Y-11654
X61024Y-12638
X61024Y-13484
X61024Y-13937
X61024Y-14409
X61280Y-15354
X61752Y-15354
X62264Y-15354
X62598Y-16693
X62598Y-18583
X63346Y-16693
X63346Y-18583
X64094Y-16693
X64094Y-18583
X64843Y-16693
X64843Y-18583
X65591Y-16693
X65591Y-18583
X66378Y-17402
X66693Y-18010
X67165Y-10669
X67165Y-11654
X67165Y-12638
X67165Y-13484
X67165Y-13937
X67165Y-14409
X67421Y-15354
X67894Y-15354
X68406Y-15354
X68740Y-16693
X68740Y-18583
X69488Y-16693
X69488Y-18583
X70236Y-16693
X70236Y-18583
X70984Y-16693
X70984Y-18583
X71732Y-16693
X71732Y-18583
X72520Y-17402
X72835Y-18010
X73307Y-10669
X73307Y-11654
X73307Y-12638
X73307Y-13484
X73307Y-13937
X73307Y-14409
X73563Y-15354
X74035Y-15354
X74547Y-15354
X74882Y-16693
X74882Y-18583
X75630Y-16693
X75630Y-18583
X76260Y-20591
X76378Y-16693
X76378Y-18583
X76969Y-17402
X79449Y-10669
X79449Y-11654
X79449Y-12638
X79449Y-13484
X79449Y-13937
X79449Y-14409
X79705Y-15354
X80059Y-19449
X80079Y-20591
X80177Y-15354
X80689Y-15354
T2
X10112Y-18010
X10112Y-19010
X10112Y-20010
X11112Y-18010
X11112Y-19010
X11112Y-20010
X77671Y-18010
X77671Y-19010
X77671Y-20010
X78671Y-18010
X78671Y-19010
X78671Y-20010
T0
M30
