G04 #@! TF.GenerationSoftware,KiCad,Pcbnew,7.0.2-0*
G04 #@! TF.CreationDate,2023-11-08T10:25:58-05:00*
G04 #@! TF.ProjectId,blade12_26-37,626c6164-6531-4325-9f32-362d33372e6b,rev?*
G04 #@! TF.SameCoordinates,Original*
G04 #@! TF.FileFunction,Copper,L2,Bot*
G04 #@! TF.FilePolarity,Positive*
%FSLAX46Y46*%
G04 Gerber Fmt 4.6, Leading zero omitted, Abs format (unit mm)*
G04 Created by KiCad (PCBNEW 7.0.2-0) date 2023-11-08 10:25:58*
%MOMM*%
%LPD*%
G01*
G04 APERTURE LIST*
G04 Aperture macros list*
%AMRoundRect*
0 Rectangle with rounded corners*
0 $1 Rounding radius*
0 $2 $3 $4 $5 $6 $7 $8 $9 X,Y pos of 4 corners*
0 Add a 4 corners polygon primitive as box body*
4,1,4,$2,$3,$4,$5,$6,$7,$8,$9,$2,$3,0*
0 Add four circle primitives for the rounded corners*
1,1,$1+$1,$2,$3*
1,1,$1+$1,$4,$5*
1,1,$1+$1,$6,$7*
1,1,$1+$1,$8,$9*
0 Add four rect primitives between the rounded corners*
20,1,$1+$1,$2,$3,$4,$5,0*
20,1,$1+$1,$4,$5,$6,$7,0*
20,1,$1+$1,$6,$7,$8,$9,0*
20,1,$1+$1,$8,$9,$2,$3,0*%
G04 Aperture macros list end*
G04 #@! TA.AperFunction,ComponentPad*
%ADD10R,1.700000X1.700000*%
G04 #@! TD*
G04 #@! TA.AperFunction,ComponentPad*
%ADD11O,1.700000X1.700000*%
G04 #@! TD*
G04 #@! TA.AperFunction,SMDPad,CuDef*
%ADD12RoundRect,0.475000X-1.025000X0.475000X-1.025000X-0.475000X1.025000X-0.475000X1.025000X0.475000X0*%
G04 #@! TD*
G04 #@! TA.AperFunction,ViaPad*
%ADD13C,0.800000*%
G04 #@! TD*
G04 #@! TA.AperFunction,Conductor*
%ADD14C,0.250000*%
G04 #@! TD*
G04 #@! TA.AperFunction,Conductor*
%ADD15C,1.000000*%
G04 #@! TD*
G04 #@! TA.AperFunction,Conductor*
%ADD16C,2.000000*%
G04 #@! TD*
G04 #@! TA.AperFunction,Conductor*
%ADD17C,0.200000*%
G04 #@! TD*
G04 #@! TA.AperFunction,Conductor*
%ADD18C,0.500000*%
G04 #@! TD*
G04 APERTURE END LIST*
D10*
X28225000Y-50825000D03*
D11*
X25685000Y-50825000D03*
X28225000Y-48285000D03*
X25685000Y-48285000D03*
X28225000Y-45745000D03*
X25685000Y-45745000D03*
D10*
X199825000Y-50825000D03*
D11*
X197285000Y-50825000D03*
X199825000Y-48285000D03*
X197285000Y-48285000D03*
X199825000Y-45745000D03*
X197285000Y-45745000D03*
D12*
X141750114Y-27113687D03*
X141750114Y-29613687D03*
X141750114Y-32113687D03*
X141750114Y-34613687D03*
X141750114Y-37113687D03*
X79350114Y-27113687D03*
X79350114Y-29613687D03*
X79350114Y-32113687D03*
X79350114Y-34613687D03*
X79350114Y-37113687D03*
X188550114Y-27113687D03*
X188550114Y-29613687D03*
X188550114Y-32113687D03*
X188550114Y-34613687D03*
X188550114Y-37113687D03*
X157350114Y-27113687D03*
X157350114Y-29613687D03*
X157350114Y-32113687D03*
X157350114Y-34613687D03*
X157350114Y-37113687D03*
X126150114Y-27113687D03*
X126150114Y-29613687D03*
X126150114Y-32113687D03*
X126150114Y-34613687D03*
X126150114Y-37113687D03*
X32550114Y-27113687D03*
X32550114Y-29613687D03*
X32550114Y-32113687D03*
X32550114Y-34613687D03*
X32550114Y-37113687D03*
X48150114Y-27113687D03*
X48150114Y-29613687D03*
X48150114Y-32113687D03*
X48150114Y-34613687D03*
X48150114Y-37113687D03*
X110550114Y-27113687D03*
X110550114Y-29613687D03*
X110550114Y-32113687D03*
X110550114Y-34613687D03*
X110550114Y-37113687D03*
X172950114Y-27113687D03*
X172950114Y-29613687D03*
X172950114Y-32113687D03*
X172950114Y-34613687D03*
X172950114Y-37113687D03*
X63750114Y-27113687D03*
X63750114Y-29613687D03*
X63750114Y-32113687D03*
X63750114Y-34613687D03*
X63750114Y-37113687D03*
X204150114Y-27113687D03*
X204150114Y-29613687D03*
X204150114Y-32113687D03*
X204150114Y-34613687D03*
X204150114Y-37113687D03*
X94950114Y-27113687D03*
X94950114Y-29613687D03*
X94950114Y-32113687D03*
X94950114Y-34613687D03*
X94950114Y-37113687D03*
D13*
X96600000Y-47200000D03*
X176500000Y-47200000D03*
X40000000Y-47200000D03*
X178400000Y-47200000D03*
X180300000Y-47200000D03*
X77000000Y-34250000D03*
X108200000Y-34250000D03*
X82900000Y-47200000D03*
X170600000Y-35400000D03*
X34300000Y-42400000D03*
X96600000Y-42400000D03*
X36200000Y-42400000D03*
X166600000Y-42400000D03*
X40000000Y-42400000D03*
X133500000Y-47200000D03*
X55600000Y-42400000D03*
X186200000Y-34250000D03*
X151000000Y-42400000D03*
X104200000Y-47200000D03*
X192100000Y-42400000D03*
X123800000Y-35400000D03*
X98500000Y-47200000D03*
X92600000Y-34250000D03*
X162800000Y-42400000D03*
X186200000Y-35400000D03*
X139400000Y-34250000D03*
X174600000Y-47200000D03*
X182200000Y-42400000D03*
X41900000Y-42400000D03*
X41900000Y-47200000D03*
X71100000Y-42400000D03*
X166600000Y-47200000D03*
X49900000Y-42400000D03*
X49900000Y-47200000D03*
X145300000Y-47200000D03*
X38100000Y-47200000D03*
X135400000Y-42400000D03*
X30200000Y-36600000D03*
X145300000Y-42400000D03*
X159000000Y-47200000D03*
X81000000Y-47200000D03*
X116000000Y-42400000D03*
X155000000Y-36600000D03*
X139400000Y-35400000D03*
X151000000Y-47200000D03*
X30200000Y-34250000D03*
X34300000Y-47200000D03*
X203400000Y-52300000D03*
X88600000Y-42400000D03*
X192100000Y-47200000D03*
X160900000Y-42400000D03*
X194000000Y-47200000D03*
X30200000Y-35400000D03*
X203350000Y-49400000D03*
X176500000Y-42400000D03*
X139400000Y-36600000D03*
X127800000Y-47200000D03*
X182200000Y-47200000D03*
X55600000Y-47200000D03*
X104200000Y-42400000D03*
X57500000Y-42400000D03*
X129700000Y-47200000D03*
X119800000Y-42400000D03*
X51800000Y-47200000D03*
X61400000Y-36600000D03*
X123800000Y-36600000D03*
X38100000Y-42400000D03*
X67300000Y-47200000D03*
X51800000Y-42400000D03*
X108200000Y-35400000D03*
X160900000Y-47200000D03*
X65400000Y-47200000D03*
X86700000Y-42400000D03*
X119800000Y-47200000D03*
X155000000Y-35400000D03*
X174600000Y-42400000D03*
X159000000Y-42400000D03*
X100400000Y-42400000D03*
X131600000Y-47200000D03*
X201800000Y-34250000D03*
X92600000Y-35400000D03*
X201800000Y-35400000D03*
X71100000Y-47200000D03*
X186200000Y-36600000D03*
X147200000Y-42400000D03*
X108200000Y-36600000D03*
X100400000Y-47200000D03*
X149100000Y-47200000D03*
X98500000Y-42400000D03*
X53700000Y-47200000D03*
X131600000Y-42400000D03*
X116000000Y-47200000D03*
X190200000Y-42400000D03*
X133500000Y-42400000D03*
X84800000Y-42400000D03*
X92600000Y-36600000D03*
X82900000Y-42400000D03*
X88600000Y-47200000D03*
X69200000Y-47200000D03*
X81000000Y-42400000D03*
X194000000Y-42400000D03*
X112200000Y-42400000D03*
X155000000Y-34250000D03*
X147200000Y-47200000D03*
X143400000Y-47200000D03*
X86700000Y-47200000D03*
X190200000Y-47200000D03*
X164700000Y-47200000D03*
X102300000Y-42400000D03*
X170600000Y-36600000D03*
X178400000Y-42400000D03*
X57500000Y-47200000D03*
X31800000Y-52300000D03*
X112200000Y-47200000D03*
X77000000Y-36600000D03*
X61400000Y-35400000D03*
X127800000Y-42400000D03*
X36200000Y-47200000D03*
X73000000Y-42400000D03*
X22100000Y-49400000D03*
X45800000Y-34250000D03*
X162800000Y-47200000D03*
X53700000Y-42400000D03*
X114100000Y-42400000D03*
X143400000Y-42400000D03*
X102300000Y-47200000D03*
X114100000Y-47200000D03*
X84800000Y-47200000D03*
X117900000Y-47200000D03*
X170600000Y-34250000D03*
X45800000Y-36600000D03*
X65400000Y-42400000D03*
X164700000Y-42400000D03*
X22100000Y-52300000D03*
X73000000Y-47200000D03*
X193700000Y-52300000D03*
X180300000Y-42400000D03*
X135400000Y-47200000D03*
X77000000Y-35400000D03*
X201800000Y-36600000D03*
X149100000Y-42400000D03*
X61400000Y-34250000D03*
X67300000Y-42400000D03*
X69200000Y-42400000D03*
X129700000Y-42400000D03*
X45800000Y-35400000D03*
X123800000Y-34250000D03*
X117900000Y-42400000D03*
X170600000Y-27100000D03*
X45800000Y-27100000D03*
X61400000Y-27100000D03*
X77000000Y-27100000D03*
X201800000Y-27100000D03*
X155000000Y-27100000D03*
X30200000Y-27100000D03*
X108200000Y-27100000D03*
X186200000Y-27100000D03*
X139400000Y-27100000D03*
X92600000Y-27100000D03*
X123800000Y-27100000D03*
X126950000Y-39000000D03*
X141250000Y-39000000D03*
X77650000Y-39000000D03*
X110050000Y-39000000D03*
X171250000Y-39000000D03*
X30850000Y-39000000D03*
X48950000Y-39000000D03*
X203650000Y-39000000D03*
X125650000Y-39000000D03*
X173750000Y-39000000D03*
X111350000Y-39000000D03*
X142550000Y-39000000D03*
X108850000Y-39000000D03*
X189350000Y-39000000D03*
X172450000Y-39000000D03*
X62050000Y-39000000D03*
X46450000Y-39000000D03*
X93250000Y-39000000D03*
X47650000Y-39000000D03*
X63250000Y-39000000D03*
X33350000Y-39000000D03*
X32050000Y-39000000D03*
X78850000Y-39000000D03*
X95750000Y-39000000D03*
X155650000Y-39000000D03*
X94450000Y-39000000D03*
X186850000Y-39000000D03*
X188050000Y-39000000D03*
X80150000Y-39000000D03*
X156850000Y-39000000D03*
X140050000Y-39000000D03*
X64550000Y-39000000D03*
X204950000Y-39000000D03*
X202450000Y-39000000D03*
X158150000Y-39000000D03*
X124450000Y-39000000D03*
X201800000Y-29600000D03*
X186200000Y-29600000D03*
X168600000Y-44200000D03*
X43800000Y-44200000D03*
X153000000Y-44200000D03*
X195500000Y-44200000D03*
X92600000Y-29600000D03*
X137400000Y-44200000D03*
X30200000Y-29600000D03*
X184200000Y-44200000D03*
X45800000Y-29600000D03*
X123800000Y-29600000D03*
X75000000Y-44200000D03*
X108200000Y-29600000D03*
X139400000Y-29600000D03*
X90600000Y-44200000D03*
X121800000Y-44200000D03*
X155000000Y-29600000D03*
X106200000Y-44200000D03*
X59400000Y-44200000D03*
X77000000Y-29600000D03*
X170600000Y-29600000D03*
X61400000Y-29600000D03*
X138200000Y-45745000D03*
X45800000Y-32100000D03*
X92600000Y-32100000D03*
X122600000Y-45745000D03*
X30300000Y-45700000D03*
X170600000Y-32100000D03*
X61400000Y-32100000D03*
X75800000Y-45745000D03*
X185000000Y-45745000D03*
X60200000Y-45745000D03*
X201800000Y-32100000D03*
X77000000Y-32100000D03*
X30300000Y-42900000D03*
X91400000Y-45745000D03*
X139400000Y-32100000D03*
X155000000Y-32100000D03*
X107000000Y-45745000D03*
X169400000Y-45745000D03*
X123800000Y-32100000D03*
X153800000Y-45745000D03*
X30200000Y-32100000D03*
X108200000Y-32100000D03*
X44600000Y-45745000D03*
X186200000Y-32100000D03*
D14*
X77000000Y-27100000D02*
X77013687Y-27113687D01*
X61400000Y-27100000D02*
X61413687Y-27113687D01*
X170613687Y-27113687D02*
X172950114Y-27113687D01*
X139400000Y-27100000D02*
X139413687Y-27113687D01*
X155013687Y-27113687D02*
X157350114Y-27113687D01*
X77013687Y-27113687D02*
X79350114Y-27113687D01*
X108200000Y-27100000D02*
X108213687Y-27113687D01*
X201800000Y-27100000D02*
X201813687Y-27113687D01*
X123813687Y-27113687D02*
X126150114Y-27113687D01*
X170600000Y-27100000D02*
X170613687Y-27113687D01*
X30213687Y-27113687D02*
X32550114Y-27113687D01*
X92613687Y-27113687D02*
X94950114Y-27113687D01*
X186213687Y-27113687D02*
X188550114Y-27113687D01*
X108213687Y-27113687D02*
X110550114Y-27113687D01*
X123800000Y-27100000D02*
X123813687Y-27113687D01*
X92600000Y-27100000D02*
X92613687Y-27113687D01*
X45813687Y-27113687D02*
X48150114Y-27113687D01*
X45800000Y-27100000D02*
X45813687Y-27113687D01*
X186200000Y-27100000D02*
X186213687Y-27113687D01*
X61413687Y-27113687D02*
X63750114Y-27113687D01*
X139413687Y-27113687D02*
X141750114Y-27113687D01*
X201813687Y-27113687D02*
X204150114Y-27113687D01*
X30200000Y-27100000D02*
X30213687Y-27113687D01*
X155000000Y-27100000D02*
X155013687Y-27113687D01*
D15*
X125650000Y-39000000D02*
X124750000Y-39000000D01*
X202750000Y-47550000D02*
X202015000Y-48285000D01*
D16*
X25685000Y-48285000D02*
X28225000Y-48285000D01*
D15*
X202750000Y-39000000D02*
X202750000Y-47550000D01*
X94450000Y-39000000D02*
X93550000Y-39000000D01*
X202015000Y-48285000D02*
X199825000Y-48285000D01*
X63250000Y-39000000D02*
X62350000Y-39000000D01*
X110050000Y-39000000D02*
X109150000Y-39000000D01*
X78850000Y-39000000D02*
X77950000Y-39000000D01*
X172450000Y-39000000D02*
X171550000Y-39000000D01*
X203650000Y-39000000D02*
X202750000Y-39000000D01*
X156850000Y-39000000D02*
X155950000Y-39000000D01*
X188050000Y-39000000D02*
X187150000Y-39000000D01*
X47650000Y-39000000D02*
X46750000Y-39000000D01*
X141250000Y-39000000D02*
X140350000Y-39000000D01*
D16*
X197285000Y-48285000D02*
X199825000Y-48285000D01*
D17*
X61413687Y-29613687D02*
X63750114Y-29613687D01*
X92613687Y-29613687D02*
X94950114Y-29613687D01*
X77013687Y-29613687D02*
X79350114Y-29613687D01*
X92600000Y-29600000D02*
X92613687Y-29613687D01*
X139400000Y-29600000D02*
X139413687Y-29613687D01*
D18*
X29770000Y-44200000D02*
X28225000Y-45745000D01*
D17*
X170613687Y-29613687D02*
X172950114Y-29613687D01*
X123800000Y-29600000D02*
X123813687Y-29613687D01*
X108200000Y-29600000D02*
X108213687Y-29613687D01*
X155000000Y-29600000D02*
X155013687Y-29613687D01*
X201813687Y-29613687D02*
X204150114Y-29613687D01*
D18*
X195500000Y-44200000D02*
X198280000Y-44200000D01*
D17*
X155013687Y-29613687D02*
X157350114Y-29613687D01*
X186200000Y-29600000D02*
X186213687Y-29613687D01*
X199825000Y-45745000D02*
X199800000Y-45720000D01*
X123813687Y-29613687D02*
X126150114Y-29613687D01*
X30213687Y-29613687D02*
X32550114Y-29613687D01*
X61400000Y-29600000D02*
X61413687Y-29613687D01*
X77000000Y-29600000D02*
X77013687Y-29613687D01*
X45800000Y-29600000D02*
X45813687Y-29613687D01*
X108213687Y-29613687D02*
X110550114Y-29613687D01*
X30200000Y-29600000D02*
X30213687Y-29613687D01*
X170600000Y-29600000D02*
X170613687Y-29613687D01*
D18*
X184200000Y-44200000D02*
X29770000Y-44200000D01*
D17*
X186213687Y-29613687D02*
X188550114Y-29613687D01*
X45813687Y-29613687D02*
X48150114Y-29613687D01*
D18*
X184200000Y-44200000D02*
X195500000Y-44200000D01*
X198280000Y-44200000D02*
X199825000Y-45745000D01*
D17*
X139413687Y-29613687D02*
X141750114Y-29613687D01*
X201800000Y-29600000D02*
X201813687Y-29613687D01*
X170600000Y-32100000D02*
X170613687Y-32113687D01*
X77000000Y-32100000D02*
X77013687Y-32113687D01*
X155000000Y-32100000D02*
X155013687Y-32113687D01*
X61400000Y-32100000D02*
X61413687Y-32113687D01*
X123800000Y-32100000D02*
X123813687Y-32113687D01*
X108213687Y-32113687D02*
X110550114Y-32113687D01*
X108200000Y-32100000D02*
X108213687Y-32113687D01*
X170613687Y-32113687D02*
X172950114Y-32113687D01*
X186213687Y-32113687D02*
X188550114Y-32113687D01*
X30200000Y-32100000D02*
X30213687Y-32113687D01*
X45813687Y-32113687D02*
X48150114Y-32113687D01*
X92600000Y-32100000D02*
X92613687Y-32113687D01*
D18*
X25685000Y-44215000D02*
X25685000Y-45745000D01*
D17*
X186200000Y-32100000D02*
X186213687Y-32113687D01*
D18*
X30345000Y-45745000D02*
X30300000Y-45700000D01*
D17*
X77013687Y-32113687D02*
X79350114Y-32113687D01*
X123813687Y-32113687D02*
X126150114Y-32113687D01*
D18*
X185000000Y-45745000D02*
X194555000Y-45745000D01*
D17*
X45800000Y-32100000D02*
X45813687Y-32113687D01*
D18*
X185000000Y-45745000D02*
X31355000Y-45745000D01*
D17*
X61413687Y-32113687D02*
X63750114Y-32113687D01*
X155013687Y-32113687D02*
X157350114Y-32113687D01*
D18*
X30300000Y-42900000D02*
X27000000Y-42900000D01*
D17*
X30213687Y-32113687D02*
X32550114Y-32113687D01*
X201800000Y-32100000D02*
X201813687Y-32113687D01*
X139400000Y-32100000D02*
X139413687Y-32113687D01*
X139413687Y-32113687D02*
X141750114Y-32113687D01*
X201813687Y-32113687D02*
X204150114Y-32113687D01*
D18*
X31355000Y-45745000D02*
X30345000Y-45745000D01*
X194555000Y-45745000D02*
X197285000Y-45745000D01*
X27000000Y-42900000D02*
X25685000Y-44215000D01*
D17*
X92613687Y-32113687D02*
X94950114Y-32113687D01*
G04 #@! TA.AperFunction,Conductor*
G36*
X27765507Y-50615156D02*
G01*
X27725000Y-50753111D01*
X27725000Y-50896889D01*
X27765507Y-51034844D01*
X27793884Y-51079000D01*
X26116116Y-51079000D01*
X26144493Y-51034844D01*
X26185000Y-50896889D01*
X26185000Y-50753111D01*
X26144493Y-50615156D01*
X26116116Y-50571000D01*
X27793884Y-50571000D01*
X27765507Y-50615156D01*
G37*
G04 #@! TD.AperFunction*
G04 #@! TA.AperFunction,Conductor*
G36*
X34566735Y-25159189D02*
G01*
X34613228Y-25212845D01*
X34624614Y-25265187D01*
X34624614Y-33516362D01*
X34604612Y-33584483D01*
X34550956Y-33630976D01*
X34480682Y-33641080D01*
X34416102Y-33611586D01*
X34400962Y-33595987D01*
X34273784Y-33440017D01*
X34118841Y-33313677D01*
X34065055Y-33285582D01*
X34013936Y-33236313D01*
X33997569Y-33167229D01*
X34021149Y-33100263D01*
X34034291Y-33084810D01*
X34110762Y-33008340D01*
X34195626Y-32867957D01*
X34244429Y-32711344D01*
X34250614Y-32643281D01*
X34250614Y-31584093D01*
X34244429Y-31516030D01*
X34195626Y-31359417D01*
X34110762Y-31219034D01*
X34110761Y-31219033D01*
X34110760Y-31219031D01*
X33994769Y-31103040D01*
X33854384Y-31018175D01*
X33744652Y-30983980D01*
X33685569Y-30944619D01*
X33657144Y-30879561D01*
X33668404Y-30809463D01*
X33715775Y-30756581D01*
X33744650Y-30743393D01*
X33854384Y-30709199D01*
X33994767Y-30624335D01*
X34110762Y-30508340D01*
X34195626Y-30367957D01*
X34244429Y-30211344D01*
X34250614Y-30143281D01*
X34250614Y-29084093D01*
X34244429Y-29016030D01*
X34195626Y-28859417D01*
X34110762Y-28719034D01*
X34110761Y-28719033D01*
X34110760Y-28719031D01*
X33994769Y-28603040D01*
X33854384Y-28518175D01*
X33854381Y-28518174D01*
X33744652Y-28483980D01*
X33685569Y-28444619D01*
X33657144Y-28379561D01*
X33668404Y-28309463D01*
X33715775Y-28256581D01*
X33744650Y-28243393D01*
X33854384Y-28209199D01*
X33994767Y-28124335D01*
X34110762Y-28008340D01*
X34195626Y-27867957D01*
X34244429Y-27711344D01*
X34250614Y-27643281D01*
X34250614Y-26584093D01*
X34244429Y-26516030D01*
X34195626Y-26359417D01*
X34110762Y-26219034D01*
X34110761Y-26219033D01*
X34110760Y-26219031D01*
X33994769Y-26103040D01*
X33854384Y-26018175D01*
X33697769Y-25969371D01*
X33632557Y-25963445D01*
X33632537Y-25963444D01*
X33629708Y-25963187D01*
X31470520Y-25963187D01*
X31467691Y-25963444D01*
X31467670Y-25963445D01*
X31402458Y-25969371D01*
X31245843Y-26018175D01*
X31105458Y-26103040D01*
X30989467Y-26219031D01*
X30904602Y-26359416D01*
X30855798Y-26516031D01*
X30849872Y-26581243D01*
X30849871Y-26581264D01*
X30849614Y-26584093D01*
X30849614Y-26586944D01*
X30849613Y-26586967D01*
X30849613Y-26589006D01*
X30849504Y-26589376D01*
X30849485Y-26589800D01*
X30849493Y-26589411D01*
X30829597Y-26657122D01*
X30775932Y-26703604D01*
X30705656Y-26713694D01*
X30641081Y-26684188D01*
X30632082Y-26674634D01*
X30502842Y-26575464D01*
X30356761Y-26514955D01*
X30200000Y-26494318D01*
X30043238Y-26514955D01*
X29897157Y-26575464D01*
X29771717Y-26671717D01*
X29675464Y-26797157D01*
X29614955Y-26943238D01*
X29594318Y-27100000D01*
X29614955Y-27256761D01*
X29675464Y-27402842D01*
X29771717Y-27528282D01*
X29897157Y-27624535D01*
X29897158Y-27624535D01*
X29897159Y-27624536D01*
X30043238Y-27685044D01*
X30200000Y-27705682D01*
X30356762Y-27685044D01*
X30502841Y-27624536D01*
X30628282Y-27528282D01*
X30628282Y-27528281D01*
X30641442Y-27518184D01*
X30642987Y-27520197D01*
X30680990Y-27492449D01*
X30751861Y-27488227D01*
X30813764Y-27522991D01*
X30847045Y-27585704D01*
X30849614Y-27611019D01*
X30849614Y-27643281D01*
X30849871Y-27646110D01*
X30849872Y-27646130D01*
X30855798Y-27711342D01*
X30904602Y-27867957D01*
X30989467Y-28008342D01*
X31105458Y-28124333D01*
X31105460Y-28124334D01*
X31105461Y-28124335D01*
X31245844Y-28209199D01*
X31355574Y-28243392D01*
X31414658Y-28282753D01*
X31443083Y-28347811D01*
X31431823Y-28417909D01*
X31384452Y-28470792D01*
X31355574Y-28483980D01*
X31245846Y-28518174D01*
X31105458Y-28603040D01*
X30989467Y-28719031D01*
X30904602Y-28859416D01*
X30855798Y-29016031D01*
X30849872Y-29081243D01*
X30849871Y-29081264D01*
X30849614Y-29084093D01*
X30849614Y-29086953D01*
X30849614Y-29086954D01*
X30849614Y-29088979D01*
X30849505Y-29089348D01*
X30849485Y-29089800D01*
X30849494Y-29089386D01*
X30829612Y-29157100D01*
X30775956Y-29203593D01*
X30705682Y-29213697D01*
X30641102Y-29184203D01*
X30632092Y-29174641D01*
X30502842Y-29075464D01*
X30356761Y-29014955D01*
X30200000Y-28994318D01*
X30043238Y-29014955D01*
X29897157Y-29075464D01*
X29771717Y-29171717D01*
X29675464Y-29297157D01*
X29614955Y-29443238D01*
X29594318Y-29600000D01*
X29614955Y-29756761D01*
X29675464Y-29902842D01*
X29771717Y-30028282D01*
X29897157Y-30124535D01*
X29897158Y-30124535D01*
X29897159Y-30124536D01*
X30043238Y-30185044D01*
X30200000Y-30205682D01*
X30356762Y-30185044D01*
X30502841Y-30124536D01*
X30628282Y-30028282D01*
X30628282Y-30028281D01*
X30641442Y-30018184D01*
X30642987Y-30020197D01*
X30680990Y-29992449D01*
X30751861Y-29988227D01*
X30813764Y-30022991D01*
X30847045Y-30085704D01*
X30849614Y-30111016D01*
X30849614Y-30143281D01*
X30849871Y-30146110D01*
X30849872Y-30146130D01*
X30855798Y-30211342D01*
X30904602Y-30367957D01*
X30989467Y-30508342D01*
X31105458Y-30624333D01*
X31105460Y-30624334D01*
X31105461Y-30624335D01*
X31245844Y-30709199D01*
X31355573Y-30743392D01*
X31414658Y-30782755D01*
X31443083Y-30847813D01*
X31431822Y-30917911D01*
X31384452Y-30970793D01*
X31355574Y-30983981D01*
X31308933Y-30998515D01*
X31245843Y-31018175D01*
X31105458Y-31103040D01*
X30989467Y-31219031D01*
X30904602Y-31359416D01*
X30855798Y-31516031D01*
X30849872Y-31581243D01*
X30849871Y-31581264D01*
X30849614Y-31584093D01*
X30849614Y-31586953D01*
X30849614Y-31586954D01*
X30849614Y-31588979D01*
X30849505Y-31589348D01*
X30849485Y-31589800D01*
X30849494Y-31589386D01*
X30829612Y-31657100D01*
X30775956Y-31703593D01*
X30705682Y-31713697D01*
X30641102Y-31684203D01*
X30632092Y-31674641D01*
X30502842Y-31575464D01*
X30356761Y-31514955D01*
X30200000Y-31494318D01*
X30043238Y-31514955D01*
X29897157Y-31575464D01*
X29771717Y-31671717D01*
X29675464Y-31797157D01*
X29614955Y-31943238D01*
X29594318Y-32100000D01*
X29614955Y-32256761D01*
X29675464Y-32402842D01*
X29771717Y-32528282D01*
X29897157Y-32624535D01*
X29897158Y-32624535D01*
X29897159Y-32624536D01*
X30043238Y-32685044D01*
X30200000Y-32705682D01*
X30356762Y-32685044D01*
X30502841Y-32624536D01*
X30628282Y-32528282D01*
X30628282Y-32528281D01*
X30641442Y-32518184D01*
X30642987Y-32520197D01*
X30680990Y-32492449D01*
X30751861Y-32488227D01*
X30813764Y-32522991D01*
X30847045Y-32585704D01*
X30849614Y-32611016D01*
X30849614Y-32643281D01*
X30849871Y-32646110D01*
X30849872Y-32646130D01*
X30855798Y-32711342D01*
X30904602Y-32867957D01*
X30989467Y-33008342D01*
X31065930Y-33084805D01*
X31099956Y-33147117D01*
X31094891Y-33217932D01*
X31052344Y-33274768D01*
X31035173Y-33285581D01*
X30981388Y-33313675D01*
X30826444Y-33440017D01*
X30736764Y-33550000D01*
X29500000Y-33550000D01*
X29500000Y-36950000D01*
X30600000Y-36950000D01*
X30824130Y-35784519D01*
X30826444Y-35787356D01*
X30896610Y-35844570D01*
X30936764Y-35903121D01*
X30938890Y-35974085D01*
X30922573Y-36002260D01*
X30926317Y-36004355D01*
X30917473Y-36020164D01*
X30917473Y-36020165D01*
X30897420Y-36056014D01*
X30872825Y-36099984D01*
X30852825Y-36168099D01*
X30844500Y-36226000D01*
X30844499Y-37825442D01*
X30824497Y-37893563D01*
X30813324Y-37908413D01*
X30644400Y-38101471D01*
X30584489Y-38139566D01*
X30549575Y-38144500D01*
X30226000Y-38144500D01*
X30222653Y-38144859D01*
X30222649Y-38144860D01*
X30185682Y-38148834D01*
X30185673Y-38148835D01*
X30182319Y-38149196D01*
X30179019Y-38149913D01*
X30179018Y-38149914D01*
X30129977Y-38160582D01*
X30128412Y-38160953D01*
X30119821Y-38163057D01*
X30039084Y-38206077D01*
X29986891Y-38251303D01*
X29986867Y-38251324D01*
X29985428Y-38252572D01*
X29984068Y-38253904D01*
X29984048Y-38253923D01*
X29967473Y-38270164D01*
X29922825Y-38349984D01*
X29902825Y-38418100D01*
X29902824Y-38418104D01*
X29894500Y-38476000D01*
X29894500Y-39524000D01*
X29899196Y-39567681D01*
X29899914Y-39570981D01*
X29910582Y-39620023D01*
X29910953Y-39621588D01*
X29913057Y-39630178D01*
X29956077Y-39710915D01*
X29988815Y-39748696D01*
X30002572Y-39764572D01*
X30020165Y-39782527D01*
X30099983Y-39827174D01*
X30168104Y-39847176D01*
X30226000Y-39855500D01*
X30226003Y-39855500D01*
X33920631Y-39855500D01*
X33924000Y-39855500D01*
X33967681Y-39850804D01*
X34020023Y-39839418D01*
X34021588Y-39839047D01*
X34030178Y-39836942D01*
X34030198Y-39836931D01*
X34030203Y-39836930D01*
X34089829Y-39805156D01*
X34110915Y-39793922D01*
X34143195Y-39765951D01*
X34164572Y-39747428D01*
X34182527Y-39729835D01*
X34227174Y-39650017D01*
X34247176Y-39581896D01*
X34255500Y-39524000D01*
X34255500Y-36226000D01*
X34250804Y-36182319D01*
X34239418Y-36129977D01*
X34239047Y-36128412D01*
X34236942Y-36119821D01*
X34236930Y-36119799D01*
X34236930Y-36119797D01*
X34217972Y-36084220D01*
X34193922Y-36039084D01*
X34184190Y-36027853D01*
X34154698Y-35963272D01*
X34164803Y-35892998D01*
X34199791Y-35847690D01*
X34273784Y-35787356D01*
X34400962Y-35631386D01*
X34459513Y-35591232D01*
X34530477Y-35589106D01*
X34591326Y-35625685D01*
X34622739Y-35689354D01*
X34624614Y-35711011D01*
X34624614Y-40569867D01*
X34622512Y-40580435D01*
X34622513Y-40599999D01*
X34624614Y-40605072D01*
X34630596Y-40619517D01*
X34650114Y-40627601D01*
X34669689Y-40627601D01*
X34680251Y-40625500D01*
X36819863Y-40625500D01*
X36830425Y-40627601D01*
X36850000Y-40627601D01*
X36869517Y-40619517D01*
X36875500Y-40605072D01*
X36876831Y-40601859D01*
X36881927Y-40589561D01*
X36875520Y-40569100D01*
X36875500Y-40566849D01*
X36875505Y-39981500D01*
X36875613Y-25265185D01*
X36895616Y-25197065D01*
X36949272Y-25150573D01*
X37001613Y-25139187D01*
X45245042Y-25139187D01*
X50098614Y-25139187D01*
X50166735Y-25159189D01*
X50213228Y-25212845D01*
X50224614Y-25265187D01*
X50224614Y-33516362D01*
X50204612Y-33584483D01*
X50150956Y-33630976D01*
X50080682Y-33641080D01*
X50016102Y-33611586D01*
X50000962Y-33595987D01*
X49873784Y-33440017D01*
X49718841Y-33313677D01*
X49665055Y-33285582D01*
X49613936Y-33236313D01*
X49597569Y-33167229D01*
X49621149Y-33100263D01*
X49634291Y-33084810D01*
X49710762Y-33008340D01*
X49795626Y-32867957D01*
X49844429Y-32711344D01*
X49850614Y-32643281D01*
X49850614Y-31584093D01*
X49844429Y-31516030D01*
X49795626Y-31359417D01*
X49710762Y-31219034D01*
X49710761Y-31219033D01*
X49710760Y-31219031D01*
X49594769Y-31103040D01*
X49454384Y-31018175D01*
X49454383Y-31018175D01*
X49344652Y-30983980D01*
X49285569Y-30944619D01*
X49257144Y-30879561D01*
X49268404Y-30809463D01*
X49315775Y-30756581D01*
X49344650Y-30743393D01*
X49454384Y-30709199D01*
X49594767Y-30624335D01*
X49710762Y-30508340D01*
X49795626Y-30367957D01*
X49844429Y-30211344D01*
X49850614Y-30143281D01*
X49850614Y-29084093D01*
X49844429Y-29016030D01*
X49795626Y-28859417D01*
X49710762Y-28719034D01*
X49710761Y-28719033D01*
X49710760Y-28719031D01*
X49594769Y-28603040D01*
X49454382Y-28518174D01*
X49344653Y-28483980D01*
X49285568Y-28444617D01*
X49257144Y-28379559D01*
X49268405Y-28309461D01*
X49315776Y-28256579D01*
X49344646Y-28243394D01*
X49454384Y-28209199D01*
X49594767Y-28124335D01*
X49710762Y-28008340D01*
X49795626Y-27867957D01*
X49844429Y-27711344D01*
X49850614Y-27643281D01*
X49850614Y-26584093D01*
X49844429Y-26516030D01*
X49795626Y-26359417D01*
X49710762Y-26219034D01*
X49710761Y-26219033D01*
X49710760Y-26219031D01*
X49594769Y-26103040D01*
X49454384Y-26018175D01*
X49297769Y-25969371D01*
X49232557Y-25963445D01*
X49232537Y-25963444D01*
X49229708Y-25963187D01*
X47070520Y-25963187D01*
X47067691Y-25963444D01*
X47067670Y-25963445D01*
X47002458Y-25969371D01*
X46845843Y-26018175D01*
X46705458Y-26103040D01*
X46589467Y-26219031D01*
X46504602Y-26359416D01*
X46455798Y-26516031D01*
X46449872Y-26581243D01*
X46449871Y-26581264D01*
X46449614Y-26584093D01*
X46449614Y-26586953D01*
X46449614Y-26586954D01*
X46449614Y-26588980D01*
X46449505Y-26589349D01*
X46449485Y-26589800D01*
X46449494Y-26589387D01*
X46429612Y-26657101D01*
X46375956Y-26703594D01*
X46305682Y-26713698D01*
X46241102Y-26684204D01*
X46232091Y-26674641D01*
X46228280Y-26671717D01*
X46199423Y-26649573D01*
X46102842Y-26575464D01*
X45956761Y-26514955D01*
X45800000Y-26494318D01*
X45643238Y-26514955D01*
X45497157Y-26575464D01*
X45371717Y-26671717D01*
X45275464Y-26797157D01*
X45214955Y-26943238D01*
X45194318Y-27100000D01*
X45214955Y-27256761D01*
X45275464Y-27402842D01*
X45371717Y-27528282D01*
X45497157Y-27624535D01*
X45497158Y-27624535D01*
X45497159Y-27624536D01*
X45643238Y-27685044D01*
X45800000Y-27705682D01*
X45956762Y-27685044D01*
X46102841Y-27624536D01*
X46228282Y-27528282D01*
X46228282Y-27528281D01*
X46241442Y-27518184D01*
X46242987Y-27520197D01*
X46280990Y-27492449D01*
X46351861Y-27488227D01*
X46413764Y-27522991D01*
X46447045Y-27585704D01*
X46449614Y-27611019D01*
X46449614Y-27643281D01*
X46449871Y-27646110D01*
X46449872Y-27646130D01*
X46455798Y-27711342D01*
X46504602Y-27867957D01*
X46589467Y-28008342D01*
X46705458Y-28124333D01*
X46705460Y-28124334D01*
X46705461Y-28124335D01*
X46845844Y-28209199D01*
X46955574Y-28243392D01*
X47014658Y-28282753D01*
X47043083Y-28347811D01*
X47031823Y-28417909D01*
X46984452Y-28470792D01*
X46955574Y-28483980D01*
X46845846Y-28518174D01*
X46705458Y-28603040D01*
X46589467Y-28719031D01*
X46504602Y-28859416D01*
X46455798Y-29016031D01*
X46449872Y-29081243D01*
X46449871Y-29081264D01*
X46449614Y-29084093D01*
X46449614Y-29086953D01*
X46449614Y-29086954D01*
X46449614Y-29088979D01*
X46449505Y-29089348D01*
X46449485Y-29089800D01*
X46449494Y-29089386D01*
X46429612Y-29157100D01*
X46375956Y-29203593D01*
X46305682Y-29213697D01*
X46241102Y-29184203D01*
X46232092Y-29174641D01*
X46102842Y-29075464D01*
X45956761Y-29014955D01*
X45800000Y-28994318D01*
X45643238Y-29014955D01*
X45497157Y-29075464D01*
X45371717Y-29171717D01*
X45275464Y-29297157D01*
X45214955Y-29443238D01*
X45194318Y-29600000D01*
X45214955Y-29756761D01*
X45275464Y-29902842D01*
X45371717Y-30028282D01*
X45497157Y-30124535D01*
X45497158Y-30124535D01*
X45497159Y-30124536D01*
X45643238Y-30185044D01*
X45800000Y-30205682D01*
X45956762Y-30185044D01*
X46102841Y-30124536D01*
X46228282Y-30028282D01*
X46228282Y-30028281D01*
X46241442Y-30018184D01*
X46242987Y-30020197D01*
X46280990Y-29992449D01*
X46351861Y-29988227D01*
X46413764Y-30022991D01*
X46447045Y-30085704D01*
X46449614Y-30111016D01*
X46449614Y-30143281D01*
X46449871Y-30146110D01*
X46449872Y-30146130D01*
X46455798Y-30211342D01*
X46504602Y-30367957D01*
X46589467Y-30508342D01*
X46705458Y-30624333D01*
X46705460Y-30624334D01*
X46705461Y-30624335D01*
X46845844Y-30709199D01*
X46955573Y-30743392D01*
X47014658Y-30782755D01*
X47043083Y-30847813D01*
X47031822Y-30917911D01*
X46984452Y-30970793D01*
X46955574Y-30983981D01*
X46908933Y-30998515D01*
X46845843Y-31018175D01*
X46705458Y-31103040D01*
X46589467Y-31219031D01*
X46504602Y-31359416D01*
X46455798Y-31516031D01*
X46449872Y-31581243D01*
X46449871Y-31581264D01*
X46449614Y-31584093D01*
X46449614Y-31586953D01*
X46449614Y-31586954D01*
X46449614Y-31588979D01*
X46449505Y-31589348D01*
X46449485Y-31589800D01*
X46449494Y-31589386D01*
X46429612Y-31657100D01*
X46375956Y-31703593D01*
X46305682Y-31713697D01*
X46241102Y-31684203D01*
X46232092Y-31674641D01*
X46102842Y-31575464D01*
X45956761Y-31514955D01*
X45800000Y-31494318D01*
X45643238Y-31514955D01*
X45497157Y-31575464D01*
X45371717Y-31671717D01*
X45275464Y-31797157D01*
X45214955Y-31943238D01*
X45194318Y-32100000D01*
X45214955Y-32256761D01*
X45275464Y-32402842D01*
X45371717Y-32528282D01*
X45497157Y-32624535D01*
X45497158Y-32624535D01*
X45497159Y-32624536D01*
X45643238Y-32685044D01*
X45800000Y-32705682D01*
X45956762Y-32685044D01*
X46102841Y-32624536D01*
X46228282Y-32528282D01*
X46228282Y-32528281D01*
X46241442Y-32518184D01*
X46242987Y-32520197D01*
X46280990Y-32492449D01*
X46351861Y-32488227D01*
X46413764Y-32522991D01*
X46447045Y-32585704D01*
X46449614Y-32611016D01*
X46449614Y-32643281D01*
X46449871Y-32646110D01*
X46449872Y-32646130D01*
X46455798Y-32711342D01*
X46504602Y-32867957D01*
X46589467Y-33008342D01*
X46665930Y-33084805D01*
X46699956Y-33147117D01*
X46694891Y-33217932D01*
X46652344Y-33274768D01*
X46635173Y-33285581D01*
X46581388Y-33313675D01*
X46426444Y-33440017D01*
X46336764Y-33550000D01*
X45100000Y-33550000D01*
X45100000Y-36950000D01*
X46200000Y-36950000D01*
X46424130Y-35784519D01*
X46426444Y-35787356D01*
X46496610Y-35844570D01*
X46536764Y-35903121D01*
X46538890Y-35974085D01*
X46522573Y-36002260D01*
X46526317Y-36004355D01*
X46517473Y-36020164D01*
X46517473Y-36020165D01*
X46497420Y-36056014D01*
X46472825Y-36099984D01*
X46452825Y-36168099D01*
X46452824Y-36168104D01*
X46450297Y-36185682D01*
X46444500Y-36226000D01*
X46444500Y-37825442D01*
X46424498Y-37893563D01*
X46413325Y-37908413D01*
X46244400Y-38101471D01*
X46184489Y-38139566D01*
X46149575Y-38144500D01*
X45826000Y-38144500D01*
X45822653Y-38144859D01*
X45822649Y-38144860D01*
X45785682Y-38148834D01*
X45785673Y-38148835D01*
X45782319Y-38149196D01*
X45779019Y-38149913D01*
X45779018Y-38149914D01*
X45729977Y-38160582D01*
X45728412Y-38160953D01*
X45719821Y-38163057D01*
X45639084Y-38206077D01*
X45586891Y-38251303D01*
X45586867Y-38251324D01*
X45585428Y-38252572D01*
X45584068Y-38253904D01*
X45584048Y-38253923D01*
X45567473Y-38270164D01*
X45522825Y-38349984D01*
X45502825Y-38418100D01*
X45502824Y-38418104D01*
X45494500Y-38476000D01*
X45494500Y-39524000D01*
X45499196Y-39567681D01*
X45499914Y-39570981D01*
X45510582Y-39620023D01*
X45510953Y-39621588D01*
X45513057Y-39630178D01*
X45556077Y-39710915D01*
X45588815Y-39748696D01*
X45602572Y-39764572D01*
X45620165Y-39782527D01*
X45699983Y-39827174D01*
X45768104Y-39847176D01*
X45826000Y-39855500D01*
X45826003Y-39855500D01*
X49520631Y-39855500D01*
X49524000Y-39855500D01*
X49567681Y-39850804D01*
X49620023Y-39839418D01*
X49621588Y-39839047D01*
X49630178Y-39836942D01*
X49630198Y-39836931D01*
X49630203Y-39836930D01*
X49689829Y-39805156D01*
X49710915Y-39793922D01*
X49743195Y-39765951D01*
X49764572Y-39747428D01*
X49782527Y-39729835D01*
X49827174Y-39650017D01*
X49847176Y-39581896D01*
X49855500Y-39524000D01*
X49855500Y-36226000D01*
X49850804Y-36182319D01*
X49839418Y-36129977D01*
X49839047Y-36128412D01*
X49836942Y-36119821D01*
X49836930Y-36119799D01*
X49836930Y-36119797D01*
X49817972Y-36084220D01*
X49793922Y-36039084D01*
X49784190Y-36027853D01*
X49754698Y-35963272D01*
X49764803Y-35892998D01*
X49799791Y-35847690D01*
X49873784Y-35787356D01*
X50000962Y-35631386D01*
X50059513Y-35591232D01*
X50130477Y-35589106D01*
X50191326Y-35625685D01*
X50222739Y-35689354D01*
X50224614Y-35711011D01*
X50224614Y-40569867D01*
X50222512Y-40580435D01*
X50222513Y-40599999D01*
X50224614Y-40605072D01*
X50230596Y-40619517D01*
X50250114Y-40627601D01*
X50269689Y-40627601D01*
X50280251Y-40625500D01*
X52419863Y-40625500D01*
X52430425Y-40627601D01*
X52450000Y-40627601D01*
X52469517Y-40619517D01*
X52475500Y-40605072D01*
X52476831Y-40601859D01*
X52481927Y-40589561D01*
X52475520Y-40569100D01*
X52475500Y-40566849D01*
X52475505Y-39981500D01*
X52475526Y-37067766D01*
X54545787Y-37067766D01*
X54575413Y-37337015D01*
X54575414Y-37337018D01*
X54643928Y-37599088D01*
X54749870Y-37848390D01*
X54890982Y-38079610D01*
X55064255Y-38287820D01*
X55064256Y-38287821D01*
X55064258Y-38287823D01*
X55265993Y-38468578D01*
X55265995Y-38468579D01*
X55265998Y-38468582D01*
X55491910Y-38618044D01*
X55624104Y-38680014D01*
X55737171Y-38733018D01*
X55737173Y-38733018D01*
X55737176Y-38733020D01*
X55996569Y-38811060D01*
X55996572Y-38811060D01*
X55996574Y-38811061D01*
X56264558Y-38850500D01*
X56264561Y-38850500D01*
X56465330Y-38850500D01*
X56467631Y-38850500D01*
X56670156Y-38835677D01*
X56934553Y-38776780D01*
X57187558Y-38680014D01*
X57423777Y-38547441D01*
X57638177Y-38381888D01*
X57826186Y-38186881D01*
X57983799Y-37966579D01*
X58107656Y-37725675D01*
X58195118Y-37469305D01*
X58244319Y-37202933D01*
X58254212Y-36932235D01*
X58224586Y-36662982D01*
X58156072Y-36400912D01*
X58050130Y-36151610D01*
X57909018Y-35920390D01*
X57735745Y-35712180D01*
X57734495Y-35711060D01*
X57534006Y-35531421D01*
X57534003Y-35531419D01*
X57534002Y-35531418D01*
X57308090Y-35381956D01*
X57308086Y-35381954D01*
X57062828Y-35266981D01*
X56803425Y-35188938D01*
X56535442Y-35149500D01*
X56535439Y-35149500D01*
X56332369Y-35149500D01*
X56330099Y-35149666D01*
X56330075Y-35149667D01*
X56129839Y-35164323D01*
X55865449Y-35223219D01*
X55612441Y-35319985D01*
X55376225Y-35452557D01*
X55161820Y-35618114D01*
X54973815Y-35813117D01*
X54816200Y-36033422D01*
X54692342Y-36274328D01*
X54604882Y-36530693D01*
X54555681Y-36797065D01*
X54545787Y-37067766D01*
X52475526Y-37067766D01*
X52475613Y-25265185D01*
X52495616Y-25197065D01*
X52549272Y-25150573D01*
X52601613Y-25139187D01*
X60845042Y-25139187D01*
X65698614Y-25139187D01*
X65766735Y-25159189D01*
X65813228Y-25212845D01*
X65824614Y-25265187D01*
X65824614Y-33516362D01*
X65804612Y-33584483D01*
X65750956Y-33630976D01*
X65680682Y-33641080D01*
X65616102Y-33611586D01*
X65600962Y-33595987D01*
X65473784Y-33440017D01*
X65318841Y-33313677D01*
X65265055Y-33285582D01*
X65213936Y-33236313D01*
X65197569Y-33167229D01*
X65221149Y-33100263D01*
X65234291Y-33084810D01*
X65310762Y-33008340D01*
X65395626Y-32867957D01*
X65444429Y-32711344D01*
X65450614Y-32643281D01*
X65450614Y-31584093D01*
X65444429Y-31516030D01*
X65395626Y-31359417D01*
X65310762Y-31219034D01*
X65310761Y-31219033D01*
X65310760Y-31219031D01*
X65194769Y-31103040D01*
X65054384Y-31018175D01*
X65054383Y-31018175D01*
X64944652Y-30983980D01*
X64885569Y-30944619D01*
X64857144Y-30879561D01*
X64868404Y-30809463D01*
X64915775Y-30756581D01*
X64944650Y-30743393D01*
X65054384Y-30709199D01*
X65194767Y-30624335D01*
X65310762Y-30508340D01*
X65395626Y-30367957D01*
X65444429Y-30211344D01*
X65450614Y-30143281D01*
X65450614Y-29084093D01*
X65444429Y-29016030D01*
X65395626Y-28859417D01*
X65310762Y-28719034D01*
X65310761Y-28719033D01*
X65310760Y-28719031D01*
X65194769Y-28603040D01*
X65054382Y-28518174D01*
X64944653Y-28483980D01*
X64885568Y-28444617D01*
X64857144Y-28379559D01*
X64868405Y-28309461D01*
X64915776Y-28256579D01*
X64944646Y-28243394D01*
X65054384Y-28209199D01*
X65194767Y-28124335D01*
X65310762Y-28008340D01*
X65395626Y-27867957D01*
X65444429Y-27711344D01*
X65450614Y-27643281D01*
X65450614Y-26584093D01*
X65444429Y-26516030D01*
X65395626Y-26359417D01*
X65310762Y-26219034D01*
X65310761Y-26219033D01*
X65310760Y-26219031D01*
X65194769Y-26103040D01*
X65054384Y-26018175D01*
X64897769Y-25969371D01*
X64832557Y-25963445D01*
X64832537Y-25963444D01*
X64829708Y-25963187D01*
X62670520Y-25963187D01*
X62667691Y-25963444D01*
X62667670Y-25963445D01*
X62602458Y-25969371D01*
X62445843Y-26018175D01*
X62305458Y-26103040D01*
X62189467Y-26219031D01*
X62104602Y-26359416D01*
X62055798Y-26516031D01*
X62049872Y-26581243D01*
X62049871Y-26581264D01*
X62049614Y-26584093D01*
X62049614Y-26586953D01*
X62049614Y-26586954D01*
X62049614Y-26588980D01*
X62049505Y-26589349D01*
X62049485Y-26589800D01*
X62049494Y-26589387D01*
X62029612Y-26657101D01*
X61975956Y-26703594D01*
X61905682Y-26713698D01*
X61841102Y-26684204D01*
X61832091Y-26674641D01*
X61828280Y-26671717D01*
X61799423Y-26649573D01*
X61702842Y-26575464D01*
X61556761Y-26514955D01*
X61400000Y-26494318D01*
X61243238Y-26514955D01*
X61097157Y-26575464D01*
X60971717Y-26671717D01*
X60875464Y-26797157D01*
X60814955Y-26943238D01*
X60794318Y-27100000D01*
X60814955Y-27256761D01*
X60875464Y-27402842D01*
X60971717Y-27528282D01*
X61097157Y-27624535D01*
X61097158Y-27624535D01*
X61097159Y-27624536D01*
X61243238Y-27685044D01*
X61400000Y-27705682D01*
X61556762Y-27685044D01*
X61702841Y-27624536D01*
X61828282Y-27528282D01*
X61828282Y-27528281D01*
X61841442Y-27518184D01*
X61842987Y-27520197D01*
X61880990Y-27492449D01*
X61951861Y-27488227D01*
X62013764Y-27522991D01*
X62047045Y-27585704D01*
X62049614Y-27611019D01*
X62049614Y-27643281D01*
X62049871Y-27646110D01*
X62049872Y-27646130D01*
X62055798Y-27711342D01*
X62104602Y-27867957D01*
X62189467Y-28008342D01*
X62305458Y-28124333D01*
X62305460Y-28124334D01*
X62305461Y-28124335D01*
X62445844Y-28209199D01*
X62555574Y-28243392D01*
X62614658Y-28282753D01*
X62643083Y-28347811D01*
X62631823Y-28417909D01*
X62584452Y-28470792D01*
X62555574Y-28483980D01*
X62445846Y-28518174D01*
X62305458Y-28603040D01*
X62189467Y-28719031D01*
X62104602Y-28859416D01*
X62055798Y-29016031D01*
X62049872Y-29081243D01*
X62049871Y-29081264D01*
X62049614Y-29084093D01*
X62049614Y-29086953D01*
X62049614Y-29086954D01*
X62049614Y-29088979D01*
X62049505Y-29089348D01*
X62049485Y-29089800D01*
X62049494Y-29089386D01*
X62029612Y-29157100D01*
X61975956Y-29203593D01*
X61905682Y-29213697D01*
X61841102Y-29184203D01*
X61832092Y-29174641D01*
X61702842Y-29075464D01*
X61556761Y-29014955D01*
X61400000Y-28994318D01*
X61243238Y-29014955D01*
X61097157Y-29075464D01*
X60971717Y-29171717D01*
X60875464Y-29297157D01*
X60814955Y-29443238D01*
X60794318Y-29599999D01*
X60814955Y-29756761D01*
X60875464Y-29902842D01*
X60971717Y-30028282D01*
X61097157Y-30124535D01*
X61097158Y-30124535D01*
X61097159Y-30124536D01*
X61243238Y-30185044D01*
X61400000Y-30205682D01*
X61556762Y-30185044D01*
X61702841Y-30124536D01*
X61828282Y-30028282D01*
X61828282Y-30028281D01*
X61841442Y-30018184D01*
X61842987Y-30020197D01*
X61880990Y-29992449D01*
X61951861Y-29988227D01*
X62013764Y-30022991D01*
X62047045Y-30085704D01*
X62049614Y-30111016D01*
X62049614Y-30143281D01*
X62049871Y-30146110D01*
X62049872Y-30146130D01*
X62055798Y-30211342D01*
X62104602Y-30367957D01*
X62189467Y-30508342D01*
X62305458Y-30624333D01*
X62305460Y-30624334D01*
X62305461Y-30624335D01*
X62445844Y-30709199D01*
X62555573Y-30743392D01*
X62614658Y-30782755D01*
X62643083Y-30847813D01*
X62631822Y-30917911D01*
X62584452Y-30970793D01*
X62555574Y-30983981D01*
X62508933Y-30998515D01*
X62445843Y-31018175D01*
X62305458Y-31103040D01*
X62189467Y-31219031D01*
X62104602Y-31359416D01*
X62055798Y-31516031D01*
X62049872Y-31581243D01*
X62049871Y-31581264D01*
X62049614Y-31584093D01*
X62049614Y-31586953D01*
X62049614Y-31586954D01*
X62049614Y-31588979D01*
X62049505Y-31589348D01*
X62049485Y-31589800D01*
X62049494Y-31589386D01*
X62029612Y-31657100D01*
X61975956Y-31703593D01*
X61905682Y-31713697D01*
X61841102Y-31684203D01*
X61832092Y-31674641D01*
X61702842Y-31575464D01*
X61556761Y-31514955D01*
X61400000Y-31494318D01*
X61243238Y-31514955D01*
X61097157Y-31575464D01*
X60971717Y-31671717D01*
X60875464Y-31797157D01*
X60814955Y-31943238D01*
X60794318Y-32100000D01*
X60814955Y-32256761D01*
X60875464Y-32402842D01*
X60971717Y-32528282D01*
X61097157Y-32624535D01*
X61097158Y-32624535D01*
X61097159Y-32624536D01*
X61243238Y-32685044D01*
X61400000Y-32705682D01*
X61556762Y-32685044D01*
X61702841Y-32624536D01*
X61828282Y-32528282D01*
X61828282Y-32528281D01*
X61841442Y-32518184D01*
X61842987Y-32520197D01*
X61880990Y-32492449D01*
X61951861Y-32488227D01*
X62013764Y-32522991D01*
X62047045Y-32585704D01*
X62049614Y-32611016D01*
X62049614Y-32643281D01*
X62049871Y-32646110D01*
X62049872Y-32646130D01*
X62055798Y-32711342D01*
X62104602Y-32867957D01*
X62189467Y-33008342D01*
X62265930Y-33084805D01*
X62299956Y-33147117D01*
X62294891Y-33217932D01*
X62252344Y-33274768D01*
X62235173Y-33285581D01*
X62181388Y-33313675D01*
X62026444Y-33440017D01*
X61936764Y-33550000D01*
X60700000Y-33550000D01*
X60700000Y-36950000D01*
X61800000Y-36950000D01*
X62024130Y-35784519D01*
X62026444Y-35787356D01*
X62096610Y-35844570D01*
X62136764Y-35903121D01*
X62138890Y-35974085D01*
X62122573Y-36002260D01*
X62126317Y-36004355D01*
X62117473Y-36020164D01*
X62117473Y-36020165D01*
X62097420Y-36056014D01*
X62072825Y-36099984D01*
X62052825Y-36168099D01*
X62052824Y-36168104D01*
X62050297Y-36185682D01*
X62044500Y-36226000D01*
X62044500Y-37825442D01*
X62024498Y-37893563D01*
X62013325Y-37908413D01*
X61844400Y-38101471D01*
X61784489Y-38139566D01*
X61749575Y-38144500D01*
X61426000Y-38144500D01*
X61422653Y-38144859D01*
X61422649Y-38144860D01*
X61385682Y-38148834D01*
X61385673Y-38148835D01*
X61382319Y-38149196D01*
X61379019Y-38149913D01*
X61379018Y-38149914D01*
X61329977Y-38160582D01*
X61328412Y-38160953D01*
X61319821Y-38163057D01*
X61239084Y-38206077D01*
X61186891Y-38251303D01*
X61186867Y-38251324D01*
X61185428Y-38252572D01*
X61184068Y-38253904D01*
X61184048Y-38253923D01*
X61167473Y-38270164D01*
X61122825Y-38349984D01*
X61102825Y-38418100D01*
X61102824Y-38418104D01*
X61094500Y-38476000D01*
X61094500Y-39524000D01*
X61099196Y-39567681D01*
X61099914Y-39570981D01*
X61110582Y-39620023D01*
X61110953Y-39621588D01*
X61113057Y-39630178D01*
X61156077Y-39710915D01*
X61188815Y-39748696D01*
X61202572Y-39764572D01*
X61220165Y-39782527D01*
X61299983Y-39827174D01*
X61368104Y-39847176D01*
X61426000Y-39855500D01*
X61426003Y-39855500D01*
X65120631Y-39855500D01*
X65124000Y-39855500D01*
X65167681Y-39850804D01*
X65220023Y-39839418D01*
X65221588Y-39839047D01*
X65230178Y-39836942D01*
X65230198Y-39836931D01*
X65230203Y-39836930D01*
X65289829Y-39805156D01*
X65310915Y-39793922D01*
X65343195Y-39765951D01*
X65364572Y-39747428D01*
X65382527Y-39729835D01*
X65427174Y-39650017D01*
X65447176Y-39581896D01*
X65455500Y-39524000D01*
X65455500Y-36226000D01*
X65450804Y-36182319D01*
X65439418Y-36129977D01*
X65439047Y-36128412D01*
X65436942Y-36119821D01*
X65436930Y-36119799D01*
X65436930Y-36119797D01*
X65417972Y-36084220D01*
X65393922Y-36039084D01*
X65384190Y-36027853D01*
X65354698Y-35963272D01*
X65364803Y-35892998D01*
X65399791Y-35847690D01*
X65473784Y-35787356D01*
X65600962Y-35631386D01*
X65659513Y-35591232D01*
X65730477Y-35589106D01*
X65791326Y-35625685D01*
X65822739Y-35689354D01*
X65824614Y-35711011D01*
X65824614Y-40569867D01*
X65822512Y-40580435D01*
X65822513Y-40599999D01*
X65824614Y-40605072D01*
X65830596Y-40619517D01*
X65850114Y-40627601D01*
X65869689Y-40627601D01*
X65880251Y-40625500D01*
X68019863Y-40625500D01*
X68030425Y-40627601D01*
X68050000Y-40627601D01*
X68069517Y-40619517D01*
X68075500Y-40605072D01*
X68076831Y-40601859D01*
X68081927Y-40589561D01*
X68075520Y-40569100D01*
X68075500Y-40566849D01*
X68075505Y-39981500D01*
X68075613Y-25265185D01*
X68095616Y-25197065D01*
X68149272Y-25150573D01*
X68201613Y-25139187D01*
X76445042Y-25139187D01*
X81298614Y-25139187D01*
X81366735Y-25159189D01*
X81413228Y-25212845D01*
X81424614Y-25265187D01*
X81424614Y-33516362D01*
X81404612Y-33584483D01*
X81350956Y-33630976D01*
X81280682Y-33641080D01*
X81216102Y-33611586D01*
X81200962Y-33595987D01*
X81073784Y-33440017D01*
X80918841Y-33313677D01*
X80865055Y-33285582D01*
X80813936Y-33236313D01*
X80797569Y-33167229D01*
X80821149Y-33100263D01*
X80834291Y-33084810D01*
X80910762Y-33008340D01*
X80995626Y-32867957D01*
X81044429Y-32711344D01*
X81050614Y-32643281D01*
X81050614Y-31584093D01*
X81044429Y-31516030D01*
X80995626Y-31359417D01*
X80910762Y-31219034D01*
X80910761Y-31219033D01*
X80910760Y-31219031D01*
X80794769Y-31103040D01*
X80654384Y-31018175D01*
X80654384Y-31018174D01*
X80544652Y-30983980D01*
X80485569Y-30944619D01*
X80457144Y-30879561D01*
X80468404Y-30809463D01*
X80515775Y-30756581D01*
X80544650Y-30743393D01*
X80654384Y-30709199D01*
X80794767Y-30624335D01*
X80910762Y-30508340D01*
X80995626Y-30367957D01*
X81044429Y-30211344D01*
X81050614Y-30143281D01*
X81050614Y-29084093D01*
X81044429Y-29016030D01*
X80995626Y-28859417D01*
X80910762Y-28719034D01*
X80910761Y-28719033D01*
X80910760Y-28719031D01*
X80794769Y-28603040D01*
X80654382Y-28518174D01*
X80544653Y-28483980D01*
X80485568Y-28444617D01*
X80457144Y-28379559D01*
X80468405Y-28309461D01*
X80515776Y-28256579D01*
X80544646Y-28243394D01*
X80654384Y-28209199D01*
X80794767Y-28124335D01*
X80910762Y-28008340D01*
X80995626Y-27867957D01*
X81044429Y-27711344D01*
X81050614Y-27643281D01*
X81050614Y-26584093D01*
X81044429Y-26516030D01*
X80995626Y-26359417D01*
X80910762Y-26219034D01*
X80910761Y-26219033D01*
X80910760Y-26219031D01*
X80794769Y-26103040D01*
X80654384Y-26018175D01*
X80497769Y-25969371D01*
X80432557Y-25963445D01*
X80432537Y-25963444D01*
X80429708Y-25963187D01*
X78270520Y-25963187D01*
X78267691Y-25963444D01*
X78267670Y-25963445D01*
X78202458Y-25969371D01*
X78045843Y-26018175D01*
X77905458Y-26103040D01*
X77789467Y-26219031D01*
X77704602Y-26359416D01*
X77655798Y-26516031D01*
X77649872Y-26581243D01*
X77649871Y-26581264D01*
X77649614Y-26584093D01*
X77649614Y-26586953D01*
X77649614Y-26586954D01*
X77649614Y-26588980D01*
X77649505Y-26589349D01*
X77649485Y-26589800D01*
X77649494Y-26589387D01*
X77629612Y-26657101D01*
X77575956Y-26703594D01*
X77505682Y-26713698D01*
X77441102Y-26684204D01*
X77432091Y-26674641D01*
X77428280Y-26671717D01*
X77399423Y-26649573D01*
X77302842Y-26575464D01*
X77156761Y-26514955D01*
X77000000Y-26494318D01*
X76843238Y-26514955D01*
X76697157Y-26575464D01*
X76571717Y-26671717D01*
X76475464Y-26797157D01*
X76414955Y-26943238D01*
X76394318Y-27100000D01*
X76414955Y-27256761D01*
X76475464Y-27402842D01*
X76571717Y-27528282D01*
X76697157Y-27624535D01*
X76697158Y-27624535D01*
X76697159Y-27624536D01*
X76843238Y-27685044D01*
X77000000Y-27705682D01*
X77156762Y-27685044D01*
X77302841Y-27624536D01*
X77428282Y-27528282D01*
X77428282Y-27528281D01*
X77441442Y-27518184D01*
X77442987Y-27520197D01*
X77480990Y-27492449D01*
X77551861Y-27488227D01*
X77613764Y-27522991D01*
X77647045Y-27585704D01*
X77649613Y-27611019D01*
X77649614Y-27643281D01*
X77649871Y-27646110D01*
X77649872Y-27646130D01*
X77655798Y-27711342D01*
X77704602Y-27867957D01*
X77789467Y-28008342D01*
X77905458Y-28124333D01*
X77905460Y-28124334D01*
X77905461Y-28124335D01*
X78045844Y-28209199D01*
X78155574Y-28243392D01*
X78214658Y-28282753D01*
X78243083Y-28347811D01*
X78231823Y-28417909D01*
X78184452Y-28470792D01*
X78155574Y-28483980D01*
X78045846Y-28518174D01*
X77905458Y-28603040D01*
X77789467Y-28719031D01*
X77704602Y-28859416D01*
X77655798Y-29016031D01*
X77649872Y-29081243D01*
X77649871Y-29081264D01*
X77649614Y-29084093D01*
X77649614Y-29086953D01*
X77649614Y-29086954D01*
X77649614Y-29088979D01*
X77649505Y-29089348D01*
X77649485Y-29089800D01*
X77649494Y-29089386D01*
X77629612Y-29157100D01*
X77575956Y-29203593D01*
X77505682Y-29213697D01*
X77441102Y-29184203D01*
X77432092Y-29174641D01*
X77302842Y-29075464D01*
X77156761Y-29014955D01*
X77000000Y-28994318D01*
X76843238Y-29014955D01*
X76697157Y-29075464D01*
X76571717Y-29171717D01*
X76475464Y-29297157D01*
X76414955Y-29443238D01*
X76394318Y-29600000D01*
X76414955Y-29756761D01*
X76475464Y-29902842D01*
X76571717Y-30028282D01*
X76697157Y-30124535D01*
X76697158Y-30124535D01*
X76697159Y-30124536D01*
X76843238Y-30185044D01*
X77000000Y-30205682D01*
X77156762Y-30185044D01*
X77302841Y-30124536D01*
X77428282Y-30028282D01*
X77428282Y-30028281D01*
X77441442Y-30018184D01*
X77442987Y-30020197D01*
X77480990Y-29992449D01*
X77551861Y-29988227D01*
X77613764Y-30022991D01*
X77647045Y-30085704D01*
X77649614Y-30111016D01*
X77649614Y-30143281D01*
X77649871Y-30146110D01*
X77649872Y-30146130D01*
X77655798Y-30211342D01*
X77704602Y-30367957D01*
X77789467Y-30508342D01*
X77905458Y-30624333D01*
X77905460Y-30624334D01*
X77905461Y-30624335D01*
X78045844Y-30709199D01*
X78155573Y-30743392D01*
X78214658Y-30782755D01*
X78243083Y-30847813D01*
X78231822Y-30917911D01*
X78184452Y-30970793D01*
X78155574Y-30983981D01*
X78108933Y-30998515D01*
X78045843Y-31018175D01*
X77905458Y-31103040D01*
X77789467Y-31219031D01*
X77704602Y-31359416D01*
X77655798Y-31516031D01*
X77649872Y-31581243D01*
X77649871Y-31581264D01*
X77649614Y-31584093D01*
X77649614Y-31586953D01*
X77649614Y-31586954D01*
X77649614Y-31588979D01*
X77649505Y-31589348D01*
X77649485Y-31589800D01*
X77649494Y-31589386D01*
X77629612Y-31657100D01*
X77575956Y-31703593D01*
X77505682Y-31713697D01*
X77441102Y-31684203D01*
X77432092Y-31674641D01*
X77302842Y-31575464D01*
X77156761Y-31514955D01*
X77000000Y-31494318D01*
X76843238Y-31514955D01*
X76697157Y-31575464D01*
X76571717Y-31671717D01*
X76475464Y-31797157D01*
X76414955Y-31943238D01*
X76394318Y-32100000D01*
X76414955Y-32256761D01*
X76475464Y-32402842D01*
X76571717Y-32528282D01*
X76697157Y-32624535D01*
X76697158Y-32624535D01*
X76697159Y-32624536D01*
X76843238Y-32685044D01*
X77000000Y-32705682D01*
X77156762Y-32685044D01*
X77302841Y-32624536D01*
X77428282Y-32528282D01*
X77428282Y-32528281D01*
X77441442Y-32518184D01*
X77442987Y-32520197D01*
X77480990Y-32492449D01*
X77551861Y-32488227D01*
X77613764Y-32522991D01*
X77647045Y-32585704D01*
X77649614Y-32611016D01*
X77649614Y-32643281D01*
X77649871Y-32646110D01*
X77649872Y-32646130D01*
X77655798Y-32711342D01*
X77704602Y-32867957D01*
X77789467Y-33008342D01*
X77865930Y-33084805D01*
X77899956Y-33147117D01*
X77894891Y-33217932D01*
X77852344Y-33274768D01*
X77835173Y-33285581D01*
X77781388Y-33313675D01*
X77626444Y-33440017D01*
X77536764Y-33550000D01*
X76300000Y-33550000D01*
X76300000Y-36950000D01*
X77400000Y-36950000D01*
X77624130Y-35784519D01*
X77626444Y-35787356D01*
X77696610Y-35844570D01*
X77736764Y-35903121D01*
X77738890Y-35974085D01*
X77722573Y-36002260D01*
X77726317Y-36004355D01*
X77717475Y-36020163D01*
X77717473Y-36020165D01*
X77672829Y-36099978D01*
X77672826Y-36099983D01*
X77652824Y-36168100D01*
X77644500Y-36226000D01*
X77644500Y-37825442D01*
X77624498Y-37893563D01*
X77613325Y-37908413D01*
X77444400Y-38101471D01*
X77384489Y-38139566D01*
X77349575Y-38144500D01*
X77026000Y-38144500D01*
X77022653Y-38144859D01*
X77022649Y-38144860D01*
X76985682Y-38148834D01*
X76985673Y-38148835D01*
X76982319Y-38149196D01*
X76979019Y-38149913D01*
X76979018Y-38149914D01*
X76929977Y-38160582D01*
X76928412Y-38160953D01*
X76919821Y-38163057D01*
X76839084Y-38206077D01*
X76786891Y-38251303D01*
X76786867Y-38251324D01*
X76785428Y-38252572D01*
X76784068Y-38253904D01*
X76784048Y-38253923D01*
X76767473Y-38270164D01*
X76722825Y-38349984D01*
X76702825Y-38418100D01*
X76702824Y-38418104D01*
X76694500Y-38476000D01*
X76694500Y-39524000D01*
X76699196Y-39567681D01*
X76699914Y-39570981D01*
X76710582Y-39620023D01*
X76710953Y-39621588D01*
X76713057Y-39630178D01*
X76756077Y-39710915D01*
X76788815Y-39748696D01*
X76802572Y-39764572D01*
X76820165Y-39782527D01*
X76899983Y-39827174D01*
X76968104Y-39847176D01*
X77026000Y-39855500D01*
X77026003Y-39855500D01*
X80720631Y-39855500D01*
X80724000Y-39855500D01*
X80767681Y-39850804D01*
X80820023Y-39839418D01*
X80821588Y-39839047D01*
X80830178Y-39836942D01*
X80830198Y-39836931D01*
X80830203Y-39836930D01*
X80889829Y-39805156D01*
X80910915Y-39793922D01*
X80943195Y-39765951D01*
X80964572Y-39747428D01*
X80982527Y-39729835D01*
X81027174Y-39650017D01*
X81047176Y-39581896D01*
X81055500Y-39524000D01*
X81055500Y-36226000D01*
X81050804Y-36182319D01*
X81039418Y-36129977D01*
X81039047Y-36128412D01*
X81036942Y-36119821D01*
X81036930Y-36119799D01*
X81036930Y-36119797D01*
X81017972Y-36084220D01*
X80993922Y-36039084D01*
X80984190Y-36027853D01*
X80954698Y-35963272D01*
X80964803Y-35892998D01*
X80999791Y-35847690D01*
X81073784Y-35787356D01*
X81200962Y-35631386D01*
X81259513Y-35591232D01*
X81330477Y-35589106D01*
X81391326Y-35625685D01*
X81422739Y-35689354D01*
X81424614Y-35711011D01*
X81424614Y-40569867D01*
X81422512Y-40580435D01*
X81422513Y-40599999D01*
X81424614Y-40605072D01*
X81430596Y-40619517D01*
X81450114Y-40627601D01*
X81469689Y-40627601D01*
X81480251Y-40625500D01*
X83619863Y-40625500D01*
X83630425Y-40627601D01*
X83650000Y-40627601D01*
X83669517Y-40619517D01*
X83675500Y-40605072D01*
X83676831Y-40601859D01*
X83681927Y-40589561D01*
X83675520Y-40569100D01*
X83675500Y-40566849D01*
X83675505Y-39981500D01*
X83675613Y-25265185D01*
X83695616Y-25197065D01*
X83749272Y-25150573D01*
X83801613Y-25139187D01*
X92045042Y-25139187D01*
X96898614Y-25139187D01*
X96966735Y-25159189D01*
X97013228Y-25212845D01*
X97024614Y-25265187D01*
X97024614Y-33516362D01*
X97004612Y-33584483D01*
X96950956Y-33630976D01*
X96880682Y-33641080D01*
X96816102Y-33611586D01*
X96800962Y-33595987D01*
X96673784Y-33440017D01*
X96518841Y-33313677D01*
X96465055Y-33285582D01*
X96413936Y-33236313D01*
X96397569Y-33167229D01*
X96421149Y-33100263D01*
X96434291Y-33084810D01*
X96510762Y-33008340D01*
X96595626Y-32867957D01*
X96644429Y-32711344D01*
X96650614Y-32643281D01*
X96650614Y-31584093D01*
X96644429Y-31516030D01*
X96595626Y-31359417D01*
X96510762Y-31219034D01*
X96510761Y-31219033D01*
X96510760Y-31219031D01*
X96394769Y-31103040D01*
X96254384Y-31018175D01*
X96144652Y-30983980D01*
X96085569Y-30944619D01*
X96057144Y-30879561D01*
X96068404Y-30809463D01*
X96115775Y-30756581D01*
X96144650Y-30743393D01*
X96254384Y-30709199D01*
X96394767Y-30624335D01*
X96510762Y-30508340D01*
X96595626Y-30367957D01*
X96644429Y-30211344D01*
X96650614Y-30143281D01*
X96650614Y-29084093D01*
X96644429Y-29016030D01*
X96595626Y-28859417D01*
X96510762Y-28719034D01*
X96510761Y-28719033D01*
X96510760Y-28719031D01*
X96394769Y-28603040D01*
X96254382Y-28518174D01*
X96144653Y-28483980D01*
X96085568Y-28444617D01*
X96057144Y-28379559D01*
X96068405Y-28309461D01*
X96115776Y-28256579D01*
X96144646Y-28243394D01*
X96254384Y-28209199D01*
X96394767Y-28124335D01*
X96510762Y-28008340D01*
X96595626Y-27867957D01*
X96644429Y-27711344D01*
X96650614Y-27643281D01*
X96650614Y-26584093D01*
X96644429Y-26516030D01*
X96595626Y-26359417D01*
X96510762Y-26219034D01*
X96510761Y-26219033D01*
X96510760Y-26219031D01*
X96394769Y-26103040D01*
X96254384Y-26018175D01*
X96097769Y-25969371D01*
X96032557Y-25963445D01*
X96032537Y-25963444D01*
X96029708Y-25963187D01*
X93870520Y-25963187D01*
X93867691Y-25963444D01*
X93867670Y-25963445D01*
X93802458Y-25969371D01*
X93645843Y-26018175D01*
X93505458Y-26103040D01*
X93389467Y-26219031D01*
X93304602Y-26359416D01*
X93255798Y-26516031D01*
X93249872Y-26581243D01*
X93249871Y-26581264D01*
X93249614Y-26584093D01*
X93249614Y-26586953D01*
X93249614Y-26586954D01*
X93249614Y-26588980D01*
X93249505Y-26589349D01*
X93249485Y-26589800D01*
X93249494Y-26589387D01*
X93229612Y-26657101D01*
X93175956Y-26703594D01*
X93105682Y-26713698D01*
X93041102Y-26684204D01*
X93032091Y-26674641D01*
X93028280Y-26671717D01*
X92999423Y-26649573D01*
X92902842Y-26575464D01*
X92756761Y-26514955D01*
X92600000Y-26494318D01*
X92443238Y-26514955D01*
X92297157Y-26575464D01*
X92171717Y-26671717D01*
X92075464Y-26797157D01*
X92014955Y-26943238D01*
X91994318Y-27100000D01*
X92014955Y-27256761D01*
X92075464Y-27402842D01*
X92171717Y-27528282D01*
X92297157Y-27624535D01*
X92297158Y-27624535D01*
X92297159Y-27624536D01*
X92443238Y-27685044D01*
X92600000Y-27705682D01*
X92756762Y-27685044D01*
X92902841Y-27624536D01*
X93028282Y-27528282D01*
X93028282Y-27528281D01*
X93041442Y-27518184D01*
X93042987Y-27520197D01*
X93080990Y-27492449D01*
X93151861Y-27488227D01*
X93213764Y-27522991D01*
X93247045Y-27585704D01*
X93249613Y-27611019D01*
X93249614Y-27643281D01*
X93249871Y-27646110D01*
X93249872Y-27646130D01*
X93255798Y-27711342D01*
X93304602Y-27867957D01*
X93389467Y-28008342D01*
X93505458Y-28124333D01*
X93505460Y-28124334D01*
X93505461Y-28124335D01*
X93645844Y-28209199D01*
X93755573Y-28243392D01*
X93814658Y-28282755D01*
X93843083Y-28347813D01*
X93831822Y-28417911D01*
X93784452Y-28470793D01*
X93755574Y-28483981D01*
X93708933Y-28498515D01*
X93645843Y-28518175D01*
X93505458Y-28603040D01*
X93389467Y-28719031D01*
X93304602Y-28859416D01*
X93255798Y-29016031D01*
X93249872Y-29081243D01*
X93249871Y-29081264D01*
X93249614Y-29084093D01*
X93249614Y-29086953D01*
X93249614Y-29086954D01*
X93249614Y-29088979D01*
X93249505Y-29089348D01*
X93249485Y-29089800D01*
X93249494Y-29089386D01*
X93229612Y-29157100D01*
X93175956Y-29203593D01*
X93105682Y-29213697D01*
X93041102Y-29184203D01*
X93032092Y-29174641D01*
X92902842Y-29075464D01*
X92756761Y-29014955D01*
X92600000Y-28994318D01*
X92443238Y-29014955D01*
X92297157Y-29075464D01*
X92171717Y-29171717D01*
X92075464Y-29297157D01*
X92014955Y-29443238D01*
X91994318Y-29600000D01*
X92014955Y-29756761D01*
X92075464Y-29902842D01*
X92171717Y-30028282D01*
X92297157Y-30124535D01*
X92297158Y-30124535D01*
X92297159Y-30124536D01*
X92443238Y-30185044D01*
X92600000Y-30205682D01*
X92756762Y-30185044D01*
X92902841Y-30124536D01*
X93028282Y-30028282D01*
X93028282Y-30028281D01*
X93041442Y-30018184D01*
X93042987Y-30020197D01*
X93080990Y-29992449D01*
X93151861Y-29988227D01*
X93213764Y-30022991D01*
X93247045Y-30085704D01*
X93249614Y-30111016D01*
X93249614Y-30143281D01*
X93249871Y-30146110D01*
X93249872Y-30146130D01*
X93255798Y-30211342D01*
X93304602Y-30367957D01*
X93389467Y-30508342D01*
X93505458Y-30624333D01*
X93505460Y-30624334D01*
X93505461Y-30624335D01*
X93645844Y-30709199D01*
X93755573Y-30743392D01*
X93814658Y-30782755D01*
X93843083Y-30847813D01*
X93831822Y-30917911D01*
X93784452Y-30970793D01*
X93755574Y-30983981D01*
X93708933Y-30998515D01*
X93645843Y-31018175D01*
X93505458Y-31103040D01*
X93389467Y-31219031D01*
X93304602Y-31359416D01*
X93255798Y-31516031D01*
X93249872Y-31581243D01*
X93249871Y-31581264D01*
X93249614Y-31584093D01*
X93249614Y-31586953D01*
X93249614Y-31586954D01*
X93249614Y-31588979D01*
X93249505Y-31589348D01*
X93249485Y-31589800D01*
X93249494Y-31589386D01*
X93229612Y-31657100D01*
X93175956Y-31703593D01*
X93105682Y-31713697D01*
X93041102Y-31684203D01*
X93032092Y-31674641D01*
X92902842Y-31575464D01*
X92756761Y-31514955D01*
X92600000Y-31494318D01*
X92443238Y-31514955D01*
X92297157Y-31575464D01*
X92171717Y-31671717D01*
X92075464Y-31797157D01*
X92014955Y-31943238D01*
X91994318Y-32100000D01*
X92014955Y-32256761D01*
X92075464Y-32402842D01*
X92171717Y-32528282D01*
X92297157Y-32624535D01*
X92297158Y-32624535D01*
X92297159Y-32624536D01*
X92443238Y-32685044D01*
X92600000Y-32705682D01*
X92756762Y-32685044D01*
X92902841Y-32624536D01*
X93028282Y-32528282D01*
X93028282Y-32528281D01*
X93041442Y-32518184D01*
X93042987Y-32520197D01*
X93080990Y-32492449D01*
X93151861Y-32488227D01*
X93213764Y-32522991D01*
X93247045Y-32585704D01*
X93249614Y-32611016D01*
X93249614Y-32643281D01*
X93249871Y-32646110D01*
X93249872Y-32646130D01*
X93255798Y-32711342D01*
X93304602Y-32867957D01*
X93389467Y-33008342D01*
X93465930Y-33084805D01*
X93499956Y-33147117D01*
X93494891Y-33217932D01*
X93452344Y-33274768D01*
X93435173Y-33285581D01*
X93381388Y-33313675D01*
X93226444Y-33440017D01*
X93136764Y-33550000D01*
X91900000Y-33550000D01*
X91900000Y-36950000D01*
X93000000Y-36950000D01*
X93224130Y-35784519D01*
X93226444Y-35787356D01*
X93296610Y-35844570D01*
X93336764Y-35903121D01*
X93338890Y-35974085D01*
X93322573Y-36002260D01*
X93326317Y-36004355D01*
X93317475Y-36020163D01*
X93317473Y-36020165D01*
X93272829Y-36099978D01*
X93272826Y-36099983D01*
X93252824Y-36168100D01*
X93244500Y-36226000D01*
X93244500Y-37825442D01*
X93224498Y-37893563D01*
X93213325Y-37908413D01*
X93044400Y-38101471D01*
X92984489Y-38139566D01*
X92949575Y-38144500D01*
X92626000Y-38144500D01*
X92622653Y-38144859D01*
X92622649Y-38144860D01*
X92585682Y-38148834D01*
X92585673Y-38148835D01*
X92582319Y-38149196D01*
X92579019Y-38149913D01*
X92579018Y-38149914D01*
X92529977Y-38160582D01*
X92528412Y-38160953D01*
X92519821Y-38163057D01*
X92439084Y-38206077D01*
X92386891Y-38251303D01*
X92386867Y-38251324D01*
X92385428Y-38252572D01*
X92384068Y-38253904D01*
X92384048Y-38253923D01*
X92367473Y-38270164D01*
X92322825Y-38349984D01*
X92302825Y-38418100D01*
X92302824Y-38418104D01*
X92294500Y-38476000D01*
X92294500Y-39524000D01*
X92299196Y-39567681D01*
X92299914Y-39570981D01*
X92310582Y-39620023D01*
X92310953Y-39621588D01*
X92313057Y-39630178D01*
X92356077Y-39710915D01*
X92388815Y-39748696D01*
X92402572Y-39764572D01*
X92420165Y-39782527D01*
X92499983Y-39827174D01*
X92568104Y-39847176D01*
X92626000Y-39855500D01*
X92626003Y-39855500D01*
X96320631Y-39855500D01*
X96324000Y-39855500D01*
X96367681Y-39850804D01*
X96420023Y-39839418D01*
X96421588Y-39839047D01*
X96430178Y-39836942D01*
X96430198Y-39836931D01*
X96430203Y-39836930D01*
X96489829Y-39805156D01*
X96510915Y-39793922D01*
X96543195Y-39765951D01*
X96564572Y-39747428D01*
X96582527Y-39729835D01*
X96627174Y-39650017D01*
X96647176Y-39581896D01*
X96655500Y-39524000D01*
X96655500Y-36226000D01*
X96650804Y-36182319D01*
X96639418Y-36129977D01*
X96639047Y-36128412D01*
X96636942Y-36119821D01*
X96636930Y-36119799D01*
X96636930Y-36119797D01*
X96617972Y-36084220D01*
X96593922Y-36039084D01*
X96584190Y-36027853D01*
X96554698Y-35963272D01*
X96564803Y-35892998D01*
X96599791Y-35847690D01*
X96673784Y-35787356D01*
X96800962Y-35631386D01*
X96859513Y-35591232D01*
X96930477Y-35589106D01*
X96991326Y-35625685D01*
X97022739Y-35689354D01*
X97024614Y-35711011D01*
X97024614Y-40569867D01*
X97022512Y-40580435D01*
X97022513Y-40599999D01*
X97024614Y-40605072D01*
X97030596Y-40619517D01*
X97050114Y-40627601D01*
X97069689Y-40627601D01*
X97080251Y-40625500D01*
X99219863Y-40625500D01*
X99230425Y-40627601D01*
X99250000Y-40627601D01*
X99269517Y-40619517D01*
X99275500Y-40605072D01*
X99276831Y-40601859D01*
X99281927Y-40589561D01*
X99275520Y-40569100D01*
X99275500Y-40566849D01*
X99275505Y-39981500D01*
X99275526Y-37067766D01*
X101345787Y-37067766D01*
X101375413Y-37337015D01*
X101375414Y-37337018D01*
X101443928Y-37599088D01*
X101549870Y-37848390D01*
X101690982Y-38079610D01*
X101864255Y-38287820D01*
X101864256Y-38287821D01*
X101864258Y-38287823D01*
X102065993Y-38468578D01*
X102065995Y-38468579D01*
X102065998Y-38468582D01*
X102291910Y-38618044D01*
X102424104Y-38680014D01*
X102537171Y-38733018D01*
X102537173Y-38733018D01*
X102537176Y-38733020D01*
X102796569Y-38811060D01*
X102796572Y-38811060D01*
X102796574Y-38811061D01*
X103064558Y-38850500D01*
X103064561Y-38850500D01*
X103265330Y-38850500D01*
X103267631Y-38850500D01*
X103470156Y-38835677D01*
X103734553Y-38776780D01*
X103987558Y-38680014D01*
X104223777Y-38547441D01*
X104438177Y-38381888D01*
X104626186Y-38186881D01*
X104783799Y-37966579D01*
X104907656Y-37725675D01*
X104995118Y-37469305D01*
X105044319Y-37202933D01*
X105054212Y-36932235D01*
X105024586Y-36662982D01*
X104956072Y-36400912D01*
X104850130Y-36151610D01*
X104709018Y-35920390D01*
X104535745Y-35712180D01*
X104534495Y-35711060D01*
X104334006Y-35531421D01*
X104334003Y-35531419D01*
X104334002Y-35531418D01*
X104108090Y-35381956D01*
X104108086Y-35381954D01*
X103862828Y-35266981D01*
X103603425Y-35188938D01*
X103335442Y-35149500D01*
X103335439Y-35149500D01*
X103132369Y-35149500D01*
X103130099Y-35149666D01*
X103130075Y-35149667D01*
X102929839Y-35164323D01*
X102665449Y-35223219D01*
X102412441Y-35319985D01*
X102176225Y-35452557D01*
X101961820Y-35618114D01*
X101773815Y-35813117D01*
X101616200Y-36033422D01*
X101492342Y-36274328D01*
X101404882Y-36530693D01*
X101355681Y-36797065D01*
X101345787Y-37067766D01*
X99275526Y-37067766D01*
X99275613Y-25265185D01*
X99295616Y-25197065D01*
X99349272Y-25150573D01*
X99401613Y-25139187D01*
X107645042Y-25139187D01*
X112498614Y-25139187D01*
X112566735Y-25159189D01*
X112613228Y-25212845D01*
X112624614Y-25265187D01*
X112624614Y-33516362D01*
X112604612Y-33584483D01*
X112550956Y-33630976D01*
X112480682Y-33641080D01*
X112416102Y-33611586D01*
X112400962Y-33595987D01*
X112273784Y-33440017D01*
X112118841Y-33313677D01*
X112065055Y-33285582D01*
X112013936Y-33236313D01*
X111997569Y-33167229D01*
X112021149Y-33100263D01*
X112034291Y-33084810D01*
X112110762Y-33008340D01*
X112195626Y-32867957D01*
X112244429Y-32711344D01*
X112250614Y-32643281D01*
X112250614Y-31584093D01*
X112244429Y-31516030D01*
X112195626Y-31359417D01*
X112110762Y-31219034D01*
X112110761Y-31219033D01*
X112110760Y-31219031D01*
X111994769Y-31103040D01*
X111854384Y-31018175D01*
X111854384Y-31018174D01*
X111744652Y-30983980D01*
X111685569Y-30944619D01*
X111657144Y-30879561D01*
X111668404Y-30809463D01*
X111715775Y-30756581D01*
X111744650Y-30743393D01*
X111854384Y-30709199D01*
X111994767Y-30624335D01*
X112110762Y-30508340D01*
X112195626Y-30367957D01*
X112244429Y-30211344D01*
X112250614Y-30143281D01*
X112250614Y-29084093D01*
X112244429Y-29016030D01*
X112195626Y-28859417D01*
X112110762Y-28719034D01*
X112110761Y-28719033D01*
X112110760Y-28719031D01*
X111994769Y-28603040D01*
X111854382Y-28518174D01*
X111744653Y-28483980D01*
X111685568Y-28444617D01*
X111657144Y-28379559D01*
X111668405Y-28309461D01*
X111715776Y-28256579D01*
X111744646Y-28243394D01*
X111854384Y-28209199D01*
X111994767Y-28124335D01*
X112110762Y-28008340D01*
X112195626Y-27867957D01*
X112244429Y-27711344D01*
X112250614Y-27643281D01*
X112250614Y-26584093D01*
X112244429Y-26516030D01*
X112195626Y-26359417D01*
X112110762Y-26219034D01*
X112110761Y-26219033D01*
X112110760Y-26219031D01*
X111994769Y-26103040D01*
X111854384Y-26018175D01*
X111697769Y-25969371D01*
X111632557Y-25963445D01*
X111632537Y-25963444D01*
X111629708Y-25963187D01*
X109470520Y-25963187D01*
X109467691Y-25963444D01*
X109467670Y-25963445D01*
X109402458Y-25969371D01*
X109245843Y-26018175D01*
X109105458Y-26103040D01*
X108989467Y-26219031D01*
X108904602Y-26359416D01*
X108855798Y-26516031D01*
X108849872Y-26581243D01*
X108849871Y-26581264D01*
X108849614Y-26584093D01*
X108849614Y-26586953D01*
X108849614Y-26586954D01*
X108849614Y-26588980D01*
X108849505Y-26589349D01*
X108849485Y-26589800D01*
X108849494Y-26589387D01*
X108829612Y-26657101D01*
X108775956Y-26703594D01*
X108705682Y-26713698D01*
X108641102Y-26684204D01*
X108632091Y-26674641D01*
X108628280Y-26671717D01*
X108599423Y-26649573D01*
X108502842Y-26575464D01*
X108356761Y-26514955D01*
X108200000Y-26494318D01*
X108043238Y-26514955D01*
X107897157Y-26575464D01*
X107771717Y-26671717D01*
X107675464Y-26797157D01*
X107614955Y-26943238D01*
X107594318Y-27100000D01*
X107614955Y-27256761D01*
X107675464Y-27402842D01*
X107771717Y-27528282D01*
X107897157Y-27624535D01*
X107897158Y-27624535D01*
X107897159Y-27624536D01*
X108043238Y-27685044D01*
X108200000Y-27705682D01*
X108356762Y-27685044D01*
X108502841Y-27624536D01*
X108628282Y-27528282D01*
X108628282Y-27528281D01*
X108641442Y-27518184D01*
X108642987Y-27520197D01*
X108680990Y-27492449D01*
X108751861Y-27488227D01*
X108813764Y-27522991D01*
X108847045Y-27585704D01*
X108849613Y-27611019D01*
X108849614Y-27643281D01*
X108849871Y-27646110D01*
X108849872Y-27646130D01*
X108855798Y-27711342D01*
X108904602Y-27867957D01*
X108989467Y-28008342D01*
X109105458Y-28124333D01*
X109105460Y-28124334D01*
X109105461Y-28124335D01*
X109245844Y-28209199D01*
X109355573Y-28243392D01*
X109414658Y-28282755D01*
X109443083Y-28347813D01*
X109431822Y-28417911D01*
X109384452Y-28470793D01*
X109355574Y-28483981D01*
X109308933Y-28498515D01*
X109245843Y-28518175D01*
X109105458Y-28603040D01*
X108989467Y-28719031D01*
X108904602Y-28859416D01*
X108855798Y-29016031D01*
X108849872Y-29081243D01*
X108849871Y-29081264D01*
X108849614Y-29084093D01*
X108849614Y-29086953D01*
X108849614Y-29086954D01*
X108849614Y-29088979D01*
X108849505Y-29089348D01*
X108849485Y-29089800D01*
X108849494Y-29089386D01*
X108829612Y-29157100D01*
X108775956Y-29203593D01*
X108705682Y-29213697D01*
X108641102Y-29184203D01*
X108632092Y-29174641D01*
X108502842Y-29075464D01*
X108356761Y-29014955D01*
X108200000Y-28994318D01*
X108043238Y-29014955D01*
X107897157Y-29075464D01*
X107771717Y-29171717D01*
X107675464Y-29297157D01*
X107614955Y-29443238D01*
X107594318Y-29600000D01*
X107614955Y-29756761D01*
X107675464Y-29902842D01*
X107771717Y-30028282D01*
X107897157Y-30124535D01*
X107897158Y-30124535D01*
X107897159Y-30124536D01*
X108043238Y-30185044D01*
X108200000Y-30205682D01*
X108356762Y-30185044D01*
X108502841Y-30124536D01*
X108628282Y-30028282D01*
X108628282Y-30028281D01*
X108641442Y-30018184D01*
X108642987Y-30020197D01*
X108680978Y-29992452D01*
X108751849Y-29988224D01*
X108813755Y-30022983D01*
X108847041Y-30085693D01*
X108849613Y-30111016D01*
X108849613Y-30140417D01*
X108849614Y-30140439D01*
X108849614Y-30143281D01*
X108849871Y-30146110D01*
X108849872Y-30146130D01*
X108855798Y-30211342D01*
X108904602Y-30367957D01*
X108989467Y-30508342D01*
X109105458Y-30624333D01*
X109105460Y-30624334D01*
X109105461Y-30624335D01*
X109245844Y-30709199D01*
X109355573Y-30743392D01*
X109414658Y-30782755D01*
X109443083Y-30847813D01*
X109431822Y-30917911D01*
X109384452Y-30970793D01*
X109355574Y-30983981D01*
X109308933Y-30998515D01*
X109245843Y-31018175D01*
X109105458Y-31103040D01*
X108989467Y-31219031D01*
X108904602Y-31359416D01*
X108855798Y-31516031D01*
X108849872Y-31581243D01*
X108849871Y-31581264D01*
X108849614Y-31584093D01*
X108849614Y-31586953D01*
X108849614Y-31586954D01*
X108849614Y-31588979D01*
X108849505Y-31589348D01*
X108849485Y-31589800D01*
X108849494Y-31589386D01*
X108829612Y-31657100D01*
X108775956Y-31703593D01*
X108705682Y-31713697D01*
X108641102Y-31684203D01*
X108632092Y-31674641D01*
X108502842Y-31575464D01*
X108356761Y-31514955D01*
X108200000Y-31494318D01*
X108043238Y-31514955D01*
X107897157Y-31575464D01*
X107771717Y-31671717D01*
X107675464Y-31797157D01*
X107614955Y-31943238D01*
X107594318Y-32100000D01*
X107614955Y-32256761D01*
X107675464Y-32402842D01*
X107771717Y-32528282D01*
X107897157Y-32624535D01*
X107897158Y-32624535D01*
X107897159Y-32624536D01*
X108043238Y-32685044D01*
X108200000Y-32705682D01*
X108356762Y-32685044D01*
X108502841Y-32624536D01*
X108628282Y-32528282D01*
X108628282Y-32528281D01*
X108641442Y-32518184D01*
X108642987Y-32520197D01*
X108680978Y-32492452D01*
X108751849Y-32488224D01*
X108813755Y-32522983D01*
X108847041Y-32585693D01*
X108849613Y-32611016D01*
X108849613Y-32640417D01*
X108849614Y-32640439D01*
X108849614Y-32643281D01*
X108849871Y-32646110D01*
X108849872Y-32646130D01*
X108855798Y-32711342D01*
X108904602Y-32867957D01*
X108989467Y-33008342D01*
X109065930Y-33084805D01*
X109099956Y-33147117D01*
X109094891Y-33217932D01*
X109052344Y-33274768D01*
X109035173Y-33285581D01*
X108981388Y-33313675D01*
X108826444Y-33440017D01*
X108736764Y-33550000D01*
X107500000Y-33550000D01*
X107500000Y-36950000D01*
X108600000Y-36950000D01*
X108824130Y-35784519D01*
X108826444Y-35787356D01*
X108896610Y-35844570D01*
X108936764Y-35903121D01*
X108938890Y-35974085D01*
X108922573Y-36002260D01*
X108926317Y-36004355D01*
X108917475Y-36020163D01*
X108917473Y-36020165D01*
X108872829Y-36099978D01*
X108872826Y-36099983D01*
X108852824Y-36168100D01*
X108844500Y-36226000D01*
X108844500Y-37825442D01*
X108824498Y-37893563D01*
X108813325Y-37908413D01*
X108644400Y-38101471D01*
X108584489Y-38139566D01*
X108549575Y-38144500D01*
X108226000Y-38144500D01*
X108222653Y-38144859D01*
X108222649Y-38144860D01*
X108185682Y-38148834D01*
X108185673Y-38148835D01*
X108182319Y-38149196D01*
X108179019Y-38149913D01*
X108179018Y-38149914D01*
X108129977Y-38160582D01*
X108128412Y-38160953D01*
X108119821Y-38163057D01*
X108039084Y-38206077D01*
X107986891Y-38251303D01*
X107986867Y-38251324D01*
X107985428Y-38252572D01*
X107984068Y-38253904D01*
X107984048Y-38253923D01*
X107967473Y-38270164D01*
X107922825Y-38349984D01*
X107902825Y-38418100D01*
X107902824Y-38418104D01*
X107894500Y-38476000D01*
X107894500Y-39524000D01*
X107899196Y-39567681D01*
X107899914Y-39570981D01*
X107910582Y-39620023D01*
X107910953Y-39621588D01*
X107913057Y-39630178D01*
X107956077Y-39710915D01*
X107988815Y-39748696D01*
X108002572Y-39764572D01*
X108020165Y-39782527D01*
X108099983Y-39827174D01*
X108168104Y-39847176D01*
X108226000Y-39855500D01*
X108226003Y-39855500D01*
X111920631Y-39855500D01*
X111924000Y-39855500D01*
X111967681Y-39850804D01*
X112020023Y-39839418D01*
X112021588Y-39839047D01*
X112030178Y-39836942D01*
X112030198Y-39836931D01*
X112030203Y-39836930D01*
X112089829Y-39805156D01*
X112110915Y-39793922D01*
X112143195Y-39765951D01*
X112164572Y-39747428D01*
X112182527Y-39729835D01*
X112227174Y-39650017D01*
X112247176Y-39581896D01*
X112255500Y-39524000D01*
X112255500Y-36226000D01*
X112250804Y-36182319D01*
X112239418Y-36129977D01*
X112239047Y-36128412D01*
X112236942Y-36119821D01*
X112236930Y-36119799D01*
X112236930Y-36119797D01*
X112217972Y-36084220D01*
X112193922Y-36039084D01*
X112184190Y-36027853D01*
X112154698Y-35963272D01*
X112164803Y-35892998D01*
X112199791Y-35847690D01*
X112273784Y-35787356D01*
X112400962Y-35631386D01*
X112459513Y-35591232D01*
X112530477Y-35589106D01*
X112591326Y-35625685D01*
X112622739Y-35689354D01*
X112624614Y-35711011D01*
X112624614Y-40569867D01*
X112622512Y-40580435D01*
X112622513Y-40599999D01*
X112624614Y-40605072D01*
X112630596Y-40619517D01*
X112650114Y-40627601D01*
X112669689Y-40627601D01*
X112680251Y-40625500D01*
X114819863Y-40625500D01*
X114830425Y-40627601D01*
X114850000Y-40627601D01*
X114869517Y-40619517D01*
X114875500Y-40605072D01*
X114876831Y-40601859D01*
X114881927Y-40589561D01*
X114875520Y-40569100D01*
X114875500Y-40566849D01*
X114875505Y-39981500D01*
X114875613Y-25265185D01*
X114895616Y-25197065D01*
X114949272Y-25150573D01*
X115001613Y-25139187D01*
X123245042Y-25139187D01*
X128098614Y-25139187D01*
X128166735Y-25159189D01*
X128213228Y-25212845D01*
X128224614Y-25265187D01*
X128224614Y-33516362D01*
X128204612Y-33584483D01*
X128150956Y-33630976D01*
X128080682Y-33641080D01*
X128016102Y-33611586D01*
X128000962Y-33595987D01*
X127873784Y-33440017D01*
X127718841Y-33313677D01*
X127665055Y-33285582D01*
X127613936Y-33236313D01*
X127597569Y-33167229D01*
X127621149Y-33100263D01*
X127634291Y-33084810D01*
X127710762Y-33008340D01*
X127795626Y-32867957D01*
X127844429Y-32711344D01*
X127850614Y-32643281D01*
X127850614Y-31584093D01*
X127844429Y-31516030D01*
X127795626Y-31359417D01*
X127710762Y-31219034D01*
X127710761Y-31219033D01*
X127710760Y-31219031D01*
X127594769Y-31103040D01*
X127454384Y-31018175D01*
X127454383Y-31018175D01*
X127344652Y-30983980D01*
X127285569Y-30944619D01*
X127257144Y-30879561D01*
X127268404Y-30809463D01*
X127315775Y-30756581D01*
X127344650Y-30743393D01*
X127454384Y-30709199D01*
X127594767Y-30624335D01*
X127710762Y-30508340D01*
X127795626Y-30367957D01*
X127844429Y-30211344D01*
X127850614Y-30143281D01*
X127850614Y-29084093D01*
X127844429Y-29016030D01*
X127795626Y-28859417D01*
X127710762Y-28719034D01*
X127710761Y-28719033D01*
X127710760Y-28719031D01*
X127594769Y-28603040D01*
X127454382Y-28518174D01*
X127344653Y-28483980D01*
X127285568Y-28444617D01*
X127257144Y-28379559D01*
X127268405Y-28309461D01*
X127315776Y-28256579D01*
X127344646Y-28243394D01*
X127454384Y-28209199D01*
X127594767Y-28124335D01*
X127710762Y-28008340D01*
X127795626Y-27867957D01*
X127844429Y-27711344D01*
X127850614Y-27643281D01*
X127850614Y-26584093D01*
X127844429Y-26516030D01*
X127795626Y-26359417D01*
X127710762Y-26219034D01*
X127710761Y-26219033D01*
X127710760Y-26219031D01*
X127594769Y-26103040D01*
X127454384Y-26018175D01*
X127297769Y-25969371D01*
X127232557Y-25963445D01*
X127232537Y-25963444D01*
X127229708Y-25963187D01*
X125070520Y-25963187D01*
X125067691Y-25963444D01*
X125067670Y-25963445D01*
X125002458Y-25969371D01*
X124845843Y-26018175D01*
X124705458Y-26103040D01*
X124589467Y-26219031D01*
X124504602Y-26359416D01*
X124455798Y-26516031D01*
X124449872Y-26581243D01*
X124449871Y-26581264D01*
X124449614Y-26584093D01*
X124449614Y-26586954D01*
X124449614Y-26588980D01*
X124449505Y-26589349D01*
X124449485Y-26589800D01*
X124449494Y-26589387D01*
X124429612Y-26657101D01*
X124375956Y-26703594D01*
X124305682Y-26713698D01*
X124241102Y-26684204D01*
X124232091Y-26674641D01*
X124228280Y-26671717D01*
X124199423Y-26649573D01*
X124102842Y-26575464D01*
X123956761Y-26514955D01*
X123800000Y-26494318D01*
X123643238Y-26514955D01*
X123497157Y-26575464D01*
X123371717Y-26671717D01*
X123275464Y-26797157D01*
X123214955Y-26943238D01*
X123194318Y-27100000D01*
X123214955Y-27256761D01*
X123275464Y-27402842D01*
X123371717Y-27528282D01*
X123497157Y-27624535D01*
X123497158Y-27624535D01*
X123497159Y-27624536D01*
X123643238Y-27685044D01*
X123800000Y-27705682D01*
X123956762Y-27685044D01*
X124102841Y-27624536D01*
X124228282Y-27528282D01*
X124228282Y-27528281D01*
X124241442Y-27518184D01*
X124242987Y-27520197D01*
X124280990Y-27492449D01*
X124351861Y-27488227D01*
X124413764Y-27522991D01*
X124447045Y-27585704D01*
X124449613Y-27611019D01*
X124449614Y-27643281D01*
X124449871Y-27646110D01*
X124449872Y-27646130D01*
X124455798Y-27711342D01*
X124504602Y-27867957D01*
X124589467Y-28008342D01*
X124705458Y-28124333D01*
X124705460Y-28124334D01*
X124705461Y-28124335D01*
X124845844Y-28209199D01*
X124955573Y-28243392D01*
X125014658Y-28282755D01*
X125043083Y-28347813D01*
X125031822Y-28417911D01*
X124984452Y-28470793D01*
X124955574Y-28483981D01*
X124908933Y-28498515D01*
X124845843Y-28518175D01*
X124705458Y-28603040D01*
X124589467Y-28719031D01*
X124504602Y-28859416D01*
X124455798Y-29016031D01*
X124449872Y-29081243D01*
X124449871Y-29081264D01*
X124449614Y-29084093D01*
X124449614Y-29086954D01*
X124449614Y-29088979D01*
X124449505Y-29089348D01*
X124449485Y-29089800D01*
X124449494Y-29089386D01*
X124429612Y-29157100D01*
X124375956Y-29203593D01*
X124305682Y-29213697D01*
X124241102Y-29184203D01*
X124232092Y-29174641D01*
X124102842Y-29075464D01*
X123956761Y-29014955D01*
X123800000Y-28994318D01*
X123643238Y-29014955D01*
X123497157Y-29075464D01*
X123371717Y-29171717D01*
X123275464Y-29297157D01*
X123214955Y-29443238D01*
X123194318Y-29600000D01*
X123214955Y-29756761D01*
X123275464Y-29902842D01*
X123371717Y-30028282D01*
X123497157Y-30124535D01*
X123497158Y-30124535D01*
X123497159Y-30124536D01*
X123643238Y-30185044D01*
X123800000Y-30205682D01*
X123956762Y-30185044D01*
X124102841Y-30124536D01*
X124228282Y-30028282D01*
X124228282Y-30028281D01*
X124241442Y-30018184D01*
X124242987Y-30020197D01*
X124280990Y-29992449D01*
X124351861Y-29988227D01*
X124413764Y-30022991D01*
X124447045Y-30085704D01*
X124449614Y-30111016D01*
X124449614Y-30143281D01*
X124449871Y-30146110D01*
X124449872Y-30146130D01*
X124455798Y-30211342D01*
X124504602Y-30367957D01*
X124589467Y-30508342D01*
X124705458Y-30624333D01*
X124705460Y-30624334D01*
X124705461Y-30624335D01*
X124845844Y-30709199D01*
X124955573Y-30743392D01*
X125014658Y-30782755D01*
X125043083Y-30847813D01*
X125031822Y-30917911D01*
X124984452Y-30970793D01*
X124955574Y-30983981D01*
X124908933Y-30998515D01*
X124845843Y-31018175D01*
X124705458Y-31103040D01*
X124589467Y-31219031D01*
X124504602Y-31359416D01*
X124455798Y-31516031D01*
X124449872Y-31581243D01*
X124449871Y-31581264D01*
X124449614Y-31584093D01*
X124449614Y-31586954D01*
X124449614Y-31588979D01*
X124449505Y-31589348D01*
X124449485Y-31589800D01*
X124449494Y-31589386D01*
X124429612Y-31657100D01*
X124375956Y-31703593D01*
X124305682Y-31713697D01*
X124241102Y-31684203D01*
X124232092Y-31674641D01*
X124102842Y-31575464D01*
X123956761Y-31514955D01*
X123800000Y-31494318D01*
X123643238Y-31514955D01*
X123497157Y-31575464D01*
X123371717Y-31671717D01*
X123275464Y-31797157D01*
X123214955Y-31943238D01*
X123194318Y-32100000D01*
X123214955Y-32256761D01*
X123275464Y-32402842D01*
X123371717Y-32528282D01*
X123497157Y-32624535D01*
X123497158Y-32624535D01*
X123497159Y-32624536D01*
X123643238Y-32685044D01*
X123800000Y-32705682D01*
X123956762Y-32685044D01*
X124102841Y-32624536D01*
X124228282Y-32528282D01*
X124228282Y-32528281D01*
X124241442Y-32518184D01*
X124242987Y-32520197D01*
X124280990Y-32492449D01*
X124351861Y-32488227D01*
X124413764Y-32522991D01*
X124447045Y-32585704D01*
X124449614Y-32611016D01*
X124449614Y-32643281D01*
X124449871Y-32646110D01*
X124449872Y-32646130D01*
X124455798Y-32711342D01*
X124504602Y-32867957D01*
X124589467Y-33008342D01*
X124665930Y-33084805D01*
X124699956Y-33147117D01*
X124694891Y-33217932D01*
X124652344Y-33274768D01*
X124635173Y-33285581D01*
X124581388Y-33313675D01*
X124426444Y-33440017D01*
X124336764Y-33550000D01*
X123100000Y-33550000D01*
X123100000Y-36950000D01*
X124200000Y-36950000D01*
X124424130Y-35784519D01*
X124426444Y-35787356D01*
X124496610Y-35844570D01*
X124536764Y-35903121D01*
X124538890Y-35974085D01*
X124522562Y-36002253D01*
X124526318Y-36004354D01*
X124472827Y-36099978D01*
X124452822Y-36168105D01*
X124444498Y-36225995D01*
X124444498Y-37825442D01*
X124424496Y-37893563D01*
X124413323Y-37908413D01*
X124244400Y-38101471D01*
X124184490Y-38139566D01*
X124149575Y-38144500D01*
X123826000Y-38144500D01*
X123822653Y-38144859D01*
X123822649Y-38144860D01*
X123785682Y-38148834D01*
X123785673Y-38148835D01*
X123782319Y-38149196D01*
X123779019Y-38149913D01*
X123779018Y-38149914D01*
X123729977Y-38160582D01*
X123728412Y-38160953D01*
X123719821Y-38163057D01*
X123639084Y-38206077D01*
X123586891Y-38251303D01*
X123586867Y-38251324D01*
X123585428Y-38252572D01*
X123584068Y-38253904D01*
X123584048Y-38253923D01*
X123567473Y-38270164D01*
X123522825Y-38349984D01*
X123502825Y-38418100D01*
X123502824Y-38418104D01*
X123494500Y-38476000D01*
X123494500Y-39524000D01*
X123499196Y-39567681D01*
X123499914Y-39570981D01*
X123510582Y-39620023D01*
X123510953Y-39621588D01*
X123513057Y-39630178D01*
X123556077Y-39710915D01*
X123588815Y-39748696D01*
X123602572Y-39764572D01*
X123620165Y-39782527D01*
X123699983Y-39827174D01*
X123768104Y-39847176D01*
X123826000Y-39855500D01*
X123826003Y-39855500D01*
X127520631Y-39855500D01*
X127524000Y-39855500D01*
X127567681Y-39850804D01*
X127620023Y-39839418D01*
X127621588Y-39839047D01*
X127630178Y-39836942D01*
X127630198Y-39836931D01*
X127630203Y-39836930D01*
X127689829Y-39805156D01*
X127710915Y-39793922D01*
X127743195Y-39765951D01*
X127764572Y-39747428D01*
X127782527Y-39729835D01*
X127827174Y-39650017D01*
X127847176Y-39581896D01*
X127855500Y-39524000D01*
X127855500Y-36226000D01*
X127850804Y-36182319D01*
X127839418Y-36129977D01*
X127839047Y-36128412D01*
X127836942Y-36119821D01*
X127836930Y-36119799D01*
X127836930Y-36119797D01*
X127817972Y-36084220D01*
X127793922Y-36039084D01*
X127784190Y-36027853D01*
X127754698Y-35963272D01*
X127764803Y-35892998D01*
X127799791Y-35847690D01*
X127873784Y-35787356D01*
X128000962Y-35631386D01*
X128059513Y-35591232D01*
X128130477Y-35589106D01*
X128191326Y-35625685D01*
X128222739Y-35689354D01*
X128224614Y-35711011D01*
X128224613Y-40569867D01*
X128222512Y-40580435D01*
X128222513Y-40599999D01*
X128224614Y-40605072D01*
X128230596Y-40619517D01*
X128250114Y-40627601D01*
X128269689Y-40627601D01*
X128280251Y-40625500D01*
X130419863Y-40625500D01*
X130430425Y-40627601D01*
X130450000Y-40627601D01*
X130469517Y-40619517D01*
X130475500Y-40605072D01*
X130476831Y-40601859D01*
X130481927Y-40589561D01*
X130475520Y-40569100D01*
X130475500Y-40566849D01*
X130475505Y-39981500D01*
X130475613Y-25265185D01*
X130495616Y-25197065D01*
X130549272Y-25150573D01*
X130601613Y-25139187D01*
X138845042Y-25139187D01*
X143698614Y-25139187D01*
X143766735Y-25159189D01*
X143813228Y-25212845D01*
X143824614Y-25265187D01*
X143824614Y-33516362D01*
X143804612Y-33584483D01*
X143750956Y-33630976D01*
X143680682Y-33641080D01*
X143616102Y-33611586D01*
X143600962Y-33595987D01*
X143473784Y-33440017D01*
X143318841Y-33313677D01*
X143265055Y-33285582D01*
X143213936Y-33236313D01*
X143197569Y-33167229D01*
X143221149Y-33100263D01*
X143234291Y-33084810D01*
X143310762Y-33008340D01*
X143395626Y-32867957D01*
X143444429Y-32711344D01*
X143450614Y-32643281D01*
X143450614Y-31584093D01*
X143444429Y-31516030D01*
X143395626Y-31359417D01*
X143310762Y-31219034D01*
X143310761Y-31219033D01*
X143310760Y-31219031D01*
X143194769Y-31103040D01*
X143054384Y-31018175D01*
X143054383Y-31018175D01*
X142944652Y-30983980D01*
X142885569Y-30944619D01*
X142857144Y-30879561D01*
X142868404Y-30809463D01*
X142915775Y-30756581D01*
X142944650Y-30743393D01*
X143054384Y-30709199D01*
X143194767Y-30624335D01*
X143310762Y-30508340D01*
X143395626Y-30367957D01*
X143444429Y-30211344D01*
X143450614Y-30143281D01*
X143450614Y-29084093D01*
X143444429Y-29016030D01*
X143395626Y-28859417D01*
X143310762Y-28719034D01*
X143310761Y-28719033D01*
X143310760Y-28719031D01*
X143194769Y-28603040D01*
X143054384Y-28518175D01*
X143054381Y-28518174D01*
X142944652Y-28483980D01*
X142885569Y-28444619D01*
X142857144Y-28379561D01*
X142868404Y-28309463D01*
X142915775Y-28256581D01*
X142944650Y-28243393D01*
X143054384Y-28209199D01*
X143194767Y-28124335D01*
X143310762Y-28008340D01*
X143395626Y-27867957D01*
X143444429Y-27711344D01*
X143450614Y-27643281D01*
X143450614Y-26584093D01*
X143444429Y-26516030D01*
X143395626Y-26359417D01*
X143310762Y-26219034D01*
X143310761Y-26219033D01*
X143310760Y-26219031D01*
X143194769Y-26103040D01*
X143054384Y-26018175D01*
X142897769Y-25969371D01*
X142832557Y-25963445D01*
X142832537Y-25963444D01*
X142829708Y-25963187D01*
X140670520Y-25963187D01*
X140667691Y-25963444D01*
X140667670Y-25963445D01*
X140602458Y-25969371D01*
X140445843Y-26018175D01*
X140305458Y-26103040D01*
X140189467Y-26219031D01*
X140104602Y-26359416D01*
X140055798Y-26516031D01*
X140049872Y-26581243D01*
X140049871Y-26581264D01*
X140049614Y-26584093D01*
X140049614Y-26586954D01*
X140049614Y-26588980D01*
X140049505Y-26589349D01*
X140049485Y-26589800D01*
X140049494Y-26589387D01*
X140029612Y-26657101D01*
X139975956Y-26703594D01*
X139905682Y-26713698D01*
X139841102Y-26684204D01*
X139832091Y-26674641D01*
X139828280Y-26671717D01*
X139799423Y-26649573D01*
X139702842Y-26575464D01*
X139556761Y-26514955D01*
X139400000Y-26494318D01*
X139243238Y-26514955D01*
X139097157Y-26575464D01*
X138971717Y-26671717D01*
X138875464Y-26797157D01*
X138814955Y-26943238D01*
X138794318Y-27100000D01*
X138814955Y-27256761D01*
X138875464Y-27402842D01*
X138971717Y-27528282D01*
X139097157Y-27624535D01*
X139097158Y-27624535D01*
X139097159Y-27624536D01*
X139243238Y-27685044D01*
X139400000Y-27705682D01*
X139556762Y-27685044D01*
X139702841Y-27624536D01*
X139828282Y-27528282D01*
X139828282Y-27528281D01*
X139841442Y-27518184D01*
X139842987Y-27520197D01*
X139880990Y-27492449D01*
X139951861Y-27488227D01*
X140013764Y-27522991D01*
X140047045Y-27585704D01*
X140049614Y-27611019D01*
X140049614Y-27643281D01*
X140049871Y-27646110D01*
X140049872Y-27646130D01*
X140055798Y-27711342D01*
X140104602Y-27867957D01*
X140189467Y-28008342D01*
X140305458Y-28124333D01*
X140305460Y-28124334D01*
X140305461Y-28124335D01*
X140445844Y-28209199D01*
X140555573Y-28243392D01*
X140614658Y-28282755D01*
X140643083Y-28347813D01*
X140631822Y-28417911D01*
X140584452Y-28470793D01*
X140555574Y-28483981D01*
X140508933Y-28498515D01*
X140445843Y-28518175D01*
X140305458Y-28603040D01*
X140189467Y-28719031D01*
X140104602Y-28859416D01*
X140055798Y-29016031D01*
X140049872Y-29081243D01*
X140049871Y-29081264D01*
X140049614Y-29084093D01*
X140049614Y-29086954D01*
X140049614Y-29088979D01*
X140049505Y-29089348D01*
X140049485Y-29089800D01*
X140049494Y-29089386D01*
X140029612Y-29157100D01*
X139975956Y-29203593D01*
X139905682Y-29213697D01*
X139841102Y-29184203D01*
X139832092Y-29174641D01*
X139702842Y-29075464D01*
X139556761Y-29014955D01*
X139400000Y-28994318D01*
X139243238Y-29014955D01*
X139097157Y-29075464D01*
X138971717Y-29171717D01*
X138875464Y-29297157D01*
X138814955Y-29443238D01*
X138794318Y-29600000D01*
X138814955Y-29756761D01*
X138875464Y-29902842D01*
X138971717Y-30028282D01*
X139097157Y-30124535D01*
X139097158Y-30124535D01*
X139097159Y-30124536D01*
X139243238Y-30185044D01*
X139400000Y-30205682D01*
X139556762Y-30185044D01*
X139702841Y-30124536D01*
X139828282Y-30028282D01*
X139828282Y-30028281D01*
X139841442Y-30018184D01*
X139842987Y-30020197D01*
X139880990Y-29992449D01*
X139951861Y-29988227D01*
X140013764Y-30022991D01*
X140047045Y-30085704D01*
X140049614Y-30111016D01*
X140049614Y-30143281D01*
X140049871Y-30146110D01*
X140049872Y-30146130D01*
X140055798Y-30211342D01*
X140104602Y-30367957D01*
X140189467Y-30508342D01*
X140305458Y-30624333D01*
X140305460Y-30624334D01*
X140305461Y-30624335D01*
X140445844Y-30709199D01*
X140555573Y-30743392D01*
X140614658Y-30782755D01*
X140643083Y-30847813D01*
X140631822Y-30917911D01*
X140584452Y-30970793D01*
X140555574Y-30983981D01*
X140508933Y-30998515D01*
X140445843Y-31018175D01*
X140305458Y-31103040D01*
X140189467Y-31219031D01*
X140104602Y-31359416D01*
X140055798Y-31516031D01*
X140049872Y-31581243D01*
X140049871Y-31581264D01*
X140049614Y-31584093D01*
X140049614Y-31586954D01*
X140049614Y-31588979D01*
X140049505Y-31589348D01*
X140049485Y-31589800D01*
X140049494Y-31589386D01*
X140029612Y-31657100D01*
X139975956Y-31703593D01*
X139905682Y-31713697D01*
X139841102Y-31684203D01*
X139832092Y-31674641D01*
X139702842Y-31575464D01*
X139556761Y-31514955D01*
X139400000Y-31494318D01*
X139243238Y-31514955D01*
X139097157Y-31575464D01*
X138971717Y-31671717D01*
X138875464Y-31797157D01*
X138814955Y-31943238D01*
X138794318Y-32099999D01*
X138814955Y-32256761D01*
X138875464Y-32402842D01*
X138971717Y-32528282D01*
X139097157Y-32624535D01*
X139097158Y-32624535D01*
X139097159Y-32624536D01*
X139243238Y-32685044D01*
X139400000Y-32705682D01*
X139556762Y-32685044D01*
X139702841Y-32624536D01*
X139828282Y-32528282D01*
X139828282Y-32528281D01*
X139841442Y-32518184D01*
X139842987Y-32520197D01*
X139880990Y-32492449D01*
X139951861Y-32488227D01*
X140013764Y-32522991D01*
X140047045Y-32585704D01*
X140049614Y-32611016D01*
X140049614Y-32643281D01*
X140049871Y-32646110D01*
X140049872Y-32646130D01*
X140055798Y-32711342D01*
X140104602Y-32867957D01*
X140189467Y-33008342D01*
X140265930Y-33084805D01*
X140299956Y-33147117D01*
X140294891Y-33217932D01*
X140252344Y-33274768D01*
X140235173Y-33285581D01*
X140181388Y-33313675D01*
X140026444Y-33440017D01*
X139936764Y-33550000D01*
X138700000Y-33550000D01*
X138700000Y-36950000D01*
X139800000Y-36950000D01*
X140024130Y-35784519D01*
X140026444Y-35787356D01*
X140096610Y-35844570D01*
X140136764Y-35903121D01*
X140138890Y-35974085D01*
X140122573Y-36002260D01*
X140126317Y-36004355D01*
X140117475Y-36020163D01*
X140117473Y-36020165D01*
X140072829Y-36099978D01*
X140072826Y-36099983D01*
X140052824Y-36168100D01*
X140044500Y-36226000D01*
X140044500Y-37825442D01*
X140024498Y-37893563D01*
X140013325Y-37908413D01*
X139844400Y-38101471D01*
X139784489Y-38139566D01*
X139749575Y-38144500D01*
X139426000Y-38144500D01*
X139422653Y-38144859D01*
X139422649Y-38144860D01*
X139385682Y-38148834D01*
X139385673Y-38148835D01*
X139382319Y-38149196D01*
X139379019Y-38149913D01*
X139379018Y-38149914D01*
X139329977Y-38160582D01*
X139328412Y-38160953D01*
X139319821Y-38163057D01*
X139239084Y-38206077D01*
X139186891Y-38251303D01*
X139186867Y-38251324D01*
X139185428Y-38252572D01*
X139184068Y-38253904D01*
X139184048Y-38253923D01*
X139167473Y-38270164D01*
X139122825Y-38349984D01*
X139102825Y-38418100D01*
X139102824Y-38418104D01*
X139094500Y-38476000D01*
X139094500Y-39524000D01*
X139099196Y-39567681D01*
X139099914Y-39570981D01*
X139110582Y-39620023D01*
X139110953Y-39621588D01*
X139113057Y-39630178D01*
X139156077Y-39710915D01*
X139188815Y-39748696D01*
X139202572Y-39764572D01*
X139220165Y-39782527D01*
X139299983Y-39827174D01*
X139368104Y-39847176D01*
X139426000Y-39855500D01*
X139426003Y-39855500D01*
X143120631Y-39855500D01*
X143124000Y-39855500D01*
X143167681Y-39850804D01*
X143220023Y-39839418D01*
X143221588Y-39839047D01*
X143230178Y-39836942D01*
X143230198Y-39836931D01*
X143230203Y-39836930D01*
X143289829Y-39805156D01*
X143310915Y-39793922D01*
X143343195Y-39765951D01*
X143364572Y-39747428D01*
X143382527Y-39729835D01*
X143427174Y-39650017D01*
X143447176Y-39581896D01*
X143455500Y-39524000D01*
X143455500Y-36226000D01*
X143450804Y-36182319D01*
X143439418Y-36129977D01*
X143439047Y-36128412D01*
X143436942Y-36119821D01*
X143436930Y-36119799D01*
X143436930Y-36119797D01*
X143417972Y-36084220D01*
X143393922Y-36039084D01*
X143384190Y-36027853D01*
X143354698Y-35963272D01*
X143364803Y-35892998D01*
X143399791Y-35847690D01*
X143473784Y-35787356D01*
X143600962Y-35631386D01*
X143659513Y-35591232D01*
X143730477Y-35589106D01*
X143791326Y-35625685D01*
X143822739Y-35689354D01*
X143824614Y-35711011D01*
X143824614Y-40569867D01*
X143822512Y-40580435D01*
X143822513Y-40599999D01*
X143824614Y-40605072D01*
X143830596Y-40619517D01*
X143850114Y-40627601D01*
X143869689Y-40627601D01*
X143880251Y-40625500D01*
X146019863Y-40625500D01*
X146030425Y-40627601D01*
X146050000Y-40627601D01*
X146069517Y-40619517D01*
X146075500Y-40605072D01*
X146076831Y-40601859D01*
X146081927Y-40589561D01*
X146075520Y-40569100D01*
X146075500Y-40566849D01*
X146075505Y-39981500D01*
X146075526Y-37067766D01*
X148145787Y-37067766D01*
X148175413Y-37337015D01*
X148175414Y-37337018D01*
X148243928Y-37599088D01*
X148349870Y-37848390D01*
X148490982Y-38079610D01*
X148664255Y-38287820D01*
X148664256Y-38287821D01*
X148664258Y-38287823D01*
X148865993Y-38468578D01*
X148865995Y-38468579D01*
X148865998Y-38468582D01*
X149091910Y-38618044D01*
X149224104Y-38680014D01*
X149337171Y-38733018D01*
X149337173Y-38733018D01*
X149337176Y-38733020D01*
X149596569Y-38811060D01*
X149596572Y-38811060D01*
X149596574Y-38811061D01*
X149864558Y-38850500D01*
X149864561Y-38850500D01*
X150065330Y-38850500D01*
X150067631Y-38850500D01*
X150270156Y-38835677D01*
X150534553Y-38776780D01*
X150787558Y-38680014D01*
X151023777Y-38547441D01*
X151238177Y-38381888D01*
X151426186Y-38186881D01*
X151583799Y-37966579D01*
X151707656Y-37725675D01*
X151795118Y-37469305D01*
X151844319Y-37202933D01*
X151854212Y-36932235D01*
X151824586Y-36662982D01*
X151756072Y-36400912D01*
X151650130Y-36151610D01*
X151509018Y-35920390D01*
X151335745Y-35712180D01*
X151334495Y-35711060D01*
X151134006Y-35531421D01*
X151134003Y-35531419D01*
X151134002Y-35531418D01*
X150908090Y-35381956D01*
X150908086Y-35381954D01*
X150662828Y-35266981D01*
X150403425Y-35188938D01*
X150135442Y-35149500D01*
X150135439Y-35149500D01*
X149932369Y-35149500D01*
X149930099Y-35149666D01*
X149930075Y-35149667D01*
X149729839Y-35164323D01*
X149465449Y-35223219D01*
X149212441Y-35319985D01*
X148976225Y-35452557D01*
X148761820Y-35618114D01*
X148573815Y-35813117D01*
X148416200Y-36033422D01*
X148292342Y-36274328D01*
X148204882Y-36530693D01*
X148155681Y-36797065D01*
X148145787Y-37067766D01*
X146075526Y-37067766D01*
X146075613Y-25265185D01*
X146095616Y-25197065D01*
X146149272Y-25150573D01*
X146201613Y-25139187D01*
X154445042Y-25139187D01*
X159298614Y-25139187D01*
X159366735Y-25159189D01*
X159413228Y-25212845D01*
X159424614Y-25265187D01*
X159424614Y-33516362D01*
X159404612Y-33584483D01*
X159350956Y-33630976D01*
X159280682Y-33641080D01*
X159216102Y-33611586D01*
X159200962Y-33595987D01*
X159073784Y-33440017D01*
X158918841Y-33313677D01*
X158865055Y-33285582D01*
X158813936Y-33236313D01*
X158797569Y-33167229D01*
X158821149Y-33100263D01*
X158834291Y-33084810D01*
X158910762Y-33008340D01*
X158995626Y-32867957D01*
X159044429Y-32711344D01*
X159050614Y-32643281D01*
X159050614Y-31584093D01*
X159044429Y-31516030D01*
X158995626Y-31359417D01*
X158910762Y-31219034D01*
X158910761Y-31219033D01*
X158910760Y-31219031D01*
X158794769Y-31103040D01*
X158654384Y-31018175D01*
X158544652Y-30983980D01*
X158485569Y-30944619D01*
X158457144Y-30879561D01*
X158468404Y-30809463D01*
X158515775Y-30756581D01*
X158544650Y-30743393D01*
X158654384Y-30709199D01*
X158794767Y-30624335D01*
X158910762Y-30508340D01*
X158995626Y-30367957D01*
X159044429Y-30211344D01*
X159050614Y-30143281D01*
X159050614Y-29084093D01*
X159044429Y-29016030D01*
X158995626Y-28859417D01*
X158910762Y-28719034D01*
X158910761Y-28719033D01*
X158910760Y-28719031D01*
X158794769Y-28603040D01*
X158654384Y-28518175D01*
X158654381Y-28518174D01*
X158544652Y-28483980D01*
X158485569Y-28444619D01*
X158457144Y-28379561D01*
X158468404Y-28309463D01*
X158515775Y-28256581D01*
X158544650Y-28243393D01*
X158654384Y-28209199D01*
X158794767Y-28124335D01*
X158910762Y-28008340D01*
X158995626Y-27867957D01*
X159044429Y-27711344D01*
X159050614Y-27643281D01*
X159050614Y-26584093D01*
X159044429Y-26516030D01*
X158995626Y-26359417D01*
X158910762Y-26219034D01*
X158910761Y-26219033D01*
X158910760Y-26219031D01*
X158794769Y-26103040D01*
X158654384Y-26018175D01*
X158497769Y-25969371D01*
X158432557Y-25963445D01*
X158432537Y-25963444D01*
X158429708Y-25963187D01*
X156270520Y-25963187D01*
X156267691Y-25963444D01*
X156267670Y-25963445D01*
X156202458Y-25969371D01*
X156045843Y-26018175D01*
X155905458Y-26103040D01*
X155789467Y-26219031D01*
X155704602Y-26359416D01*
X155655798Y-26516031D01*
X155649872Y-26581243D01*
X155649871Y-26581264D01*
X155649614Y-26584093D01*
X155649614Y-26586954D01*
X155649614Y-26588980D01*
X155649505Y-26589349D01*
X155649485Y-26589800D01*
X155649494Y-26589387D01*
X155629612Y-26657101D01*
X155575956Y-26703594D01*
X155505682Y-26713698D01*
X155441102Y-26684204D01*
X155432091Y-26674641D01*
X155428280Y-26671717D01*
X155399423Y-26649573D01*
X155302842Y-26575464D01*
X155156761Y-26514955D01*
X155000000Y-26494318D01*
X154843238Y-26514955D01*
X154697157Y-26575464D01*
X154571717Y-26671717D01*
X154475464Y-26797157D01*
X154414955Y-26943238D01*
X154394318Y-27099999D01*
X154414955Y-27256761D01*
X154475464Y-27402842D01*
X154571717Y-27528282D01*
X154697157Y-27624535D01*
X154697158Y-27624535D01*
X154697159Y-27624536D01*
X154843238Y-27685044D01*
X155000000Y-27705682D01*
X155156762Y-27685044D01*
X155302841Y-27624536D01*
X155428282Y-27528282D01*
X155428282Y-27528281D01*
X155441442Y-27518184D01*
X155442987Y-27520197D01*
X155480990Y-27492449D01*
X155551861Y-27488227D01*
X155613764Y-27522991D01*
X155647045Y-27585704D01*
X155649614Y-27611019D01*
X155649614Y-27643281D01*
X155649871Y-27646110D01*
X155649872Y-27646130D01*
X155655798Y-27711342D01*
X155704602Y-27867957D01*
X155789467Y-28008342D01*
X155905458Y-28124333D01*
X155905460Y-28124334D01*
X155905461Y-28124335D01*
X156045844Y-28209199D01*
X156155573Y-28243392D01*
X156214658Y-28282755D01*
X156243083Y-28347813D01*
X156231822Y-28417911D01*
X156184452Y-28470793D01*
X156155574Y-28483981D01*
X156108933Y-28498515D01*
X156045843Y-28518175D01*
X155905458Y-28603040D01*
X155789467Y-28719031D01*
X155704602Y-28859416D01*
X155655798Y-29016031D01*
X155649872Y-29081243D01*
X155649871Y-29081264D01*
X155649614Y-29084093D01*
X155649614Y-29086954D01*
X155649614Y-29088979D01*
X155649505Y-29089348D01*
X155649485Y-29089800D01*
X155649494Y-29089386D01*
X155629612Y-29157100D01*
X155575956Y-29203593D01*
X155505682Y-29213697D01*
X155441102Y-29184203D01*
X155432092Y-29174641D01*
X155302842Y-29075464D01*
X155156761Y-29014955D01*
X155000000Y-28994318D01*
X154843238Y-29014955D01*
X154697157Y-29075464D01*
X154571717Y-29171717D01*
X154475464Y-29297157D01*
X154414955Y-29443238D01*
X154394318Y-29600000D01*
X154414955Y-29756761D01*
X154475464Y-29902842D01*
X154571717Y-30028282D01*
X154697157Y-30124535D01*
X154697158Y-30124535D01*
X154697159Y-30124536D01*
X154843238Y-30185044D01*
X155000000Y-30205682D01*
X155156762Y-30185044D01*
X155302841Y-30124536D01*
X155428282Y-30028282D01*
X155428282Y-30028281D01*
X155441442Y-30018184D01*
X155442987Y-30020197D01*
X155480990Y-29992449D01*
X155551861Y-29988227D01*
X155613764Y-30022991D01*
X155647045Y-30085704D01*
X155649614Y-30111016D01*
X155649614Y-30143281D01*
X155649871Y-30146110D01*
X155649872Y-30146130D01*
X155655798Y-30211342D01*
X155704602Y-30367957D01*
X155789467Y-30508342D01*
X155905458Y-30624333D01*
X155905460Y-30624334D01*
X155905461Y-30624335D01*
X156045844Y-30709199D01*
X156155573Y-30743392D01*
X156214658Y-30782755D01*
X156243083Y-30847813D01*
X156231822Y-30917911D01*
X156184452Y-30970793D01*
X156155574Y-30983981D01*
X156108933Y-30998515D01*
X156045843Y-31018175D01*
X155905458Y-31103040D01*
X155789467Y-31219031D01*
X155704602Y-31359416D01*
X155655798Y-31516031D01*
X155649872Y-31581243D01*
X155649871Y-31581264D01*
X155649614Y-31584093D01*
X155649614Y-31586954D01*
X155649614Y-31588979D01*
X155649505Y-31589348D01*
X155649485Y-31589800D01*
X155649494Y-31589386D01*
X155629612Y-31657100D01*
X155575956Y-31703593D01*
X155505682Y-31713697D01*
X155441102Y-31684203D01*
X155432092Y-31674641D01*
X155302842Y-31575464D01*
X155156761Y-31514955D01*
X155000000Y-31494318D01*
X154843238Y-31514955D01*
X154697157Y-31575464D01*
X154571717Y-31671717D01*
X154475464Y-31797157D01*
X154414955Y-31943238D01*
X154394318Y-32100000D01*
X154414955Y-32256761D01*
X154475464Y-32402842D01*
X154571717Y-32528282D01*
X154697157Y-32624535D01*
X154697158Y-32624535D01*
X154697159Y-32624536D01*
X154843238Y-32685044D01*
X155000000Y-32705682D01*
X155156762Y-32685044D01*
X155302841Y-32624536D01*
X155428282Y-32528282D01*
X155428282Y-32528281D01*
X155441442Y-32518184D01*
X155442987Y-32520197D01*
X155480990Y-32492449D01*
X155551861Y-32488227D01*
X155613764Y-32522991D01*
X155647045Y-32585704D01*
X155649614Y-32611016D01*
X155649614Y-32643281D01*
X155649871Y-32646110D01*
X155649872Y-32646130D01*
X155655798Y-32711342D01*
X155704602Y-32867957D01*
X155789467Y-33008342D01*
X155865930Y-33084805D01*
X155899956Y-33147117D01*
X155894891Y-33217932D01*
X155852344Y-33274768D01*
X155835173Y-33285581D01*
X155781388Y-33313675D01*
X155626444Y-33440017D01*
X155536764Y-33550000D01*
X154300000Y-33550000D01*
X154300000Y-36950000D01*
X155400000Y-36950000D01*
X155624130Y-35784519D01*
X155626444Y-35787356D01*
X155696610Y-35844570D01*
X155736764Y-35903121D01*
X155738890Y-35974085D01*
X155722573Y-36002260D01*
X155726317Y-36004355D01*
X155717473Y-36020164D01*
X155717473Y-36020165D01*
X155697420Y-36056014D01*
X155672825Y-36099984D01*
X155652825Y-36168099D01*
X155652824Y-36168104D01*
X155650297Y-36185682D01*
X155644500Y-36226000D01*
X155644500Y-37825442D01*
X155624498Y-37893563D01*
X155613325Y-37908413D01*
X155444400Y-38101471D01*
X155384489Y-38139566D01*
X155349575Y-38144500D01*
X155026000Y-38144500D01*
X155022653Y-38144859D01*
X155022649Y-38144860D01*
X154985682Y-38148834D01*
X154985673Y-38148835D01*
X154982319Y-38149196D01*
X154979019Y-38149913D01*
X154979018Y-38149914D01*
X154929977Y-38160582D01*
X154928412Y-38160953D01*
X154919821Y-38163057D01*
X154839084Y-38206077D01*
X154786891Y-38251303D01*
X154786867Y-38251324D01*
X154785428Y-38252572D01*
X154784068Y-38253904D01*
X154784048Y-38253923D01*
X154767473Y-38270164D01*
X154722825Y-38349984D01*
X154702825Y-38418100D01*
X154702824Y-38418104D01*
X154694500Y-38476000D01*
X154694500Y-39524000D01*
X154699196Y-39567681D01*
X154699914Y-39570981D01*
X154710582Y-39620023D01*
X154710953Y-39621588D01*
X154713057Y-39630178D01*
X154756077Y-39710915D01*
X154788815Y-39748696D01*
X154802572Y-39764572D01*
X154820165Y-39782527D01*
X154899983Y-39827174D01*
X154968104Y-39847176D01*
X155026000Y-39855500D01*
X155026003Y-39855500D01*
X158720631Y-39855500D01*
X158724000Y-39855500D01*
X158767681Y-39850804D01*
X158820023Y-39839418D01*
X158821588Y-39839047D01*
X158830178Y-39836942D01*
X158830198Y-39836931D01*
X158830203Y-39836930D01*
X158889829Y-39805156D01*
X158910915Y-39793922D01*
X158943195Y-39765951D01*
X158964572Y-39747428D01*
X158982527Y-39729835D01*
X159027174Y-39650017D01*
X159047176Y-39581896D01*
X159055500Y-39524000D01*
X159055500Y-36226000D01*
X159050804Y-36182319D01*
X159039418Y-36129977D01*
X159039047Y-36128412D01*
X159036942Y-36119821D01*
X159036930Y-36119799D01*
X159036930Y-36119797D01*
X159017972Y-36084220D01*
X158993922Y-36039084D01*
X158984190Y-36027853D01*
X158954698Y-35963272D01*
X158964803Y-35892998D01*
X158999791Y-35847690D01*
X159073784Y-35787356D01*
X159200962Y-35631386D01*
X159259513Y-35591232D01*
X159330477Y-35589106D01*
X159391326Y-35625685D01*
X159422739Y-35689354D01*
X159424614Y-35711011D01*
X159424614Y-40569867D01*
X159422512Y-40580435D01*
X159422513Y-40599999D01*
X159424614Y-40605072D01*
X159430596Y-40619517D01*
X159450114Y-40627601D01*
X159469689Y-40627601D01*
X159480251Y-40625500D01*
X161619863Y-40625500D01*
X161630425Y-40627601D01*
X161650000Y-40627601D01*
X161669517Y-40619517D01*
X161675500Y-40605072D01*
X161676831Y-40601859D01*
X161681927Y-40589561D01*
X161675520Y-40569100D01*
X161675500Y-40566849D01*
X161675505Y-39981500D01*
X161675613Y-25265185D01*
X161695616Y-25197065D01*
X161749272Y-25150573D01*
X161801613Y-25139187D01*
X170045042Y-25139187D01*
X174898614Y-25139187D01*
X174966735Y-25159189D01*
X175013228Y-25212845D01*
X175024614Y-25265187D01*
X175024614Y-33516362D01*
X175004612Y-33584483D01*
X174950956Y-33630976D01*
X174880682Y-33641080D01*
X174816102Y-33611586D01*
X174800962Y-33595987D01*
X174673784Y-33440017D01*
X174518841Y-33313677D01*
X174465055Y-33285582D01*
X174413936Y-33236313D01*
X174397569Y-33167229D01*
X174421149Y-33100263D01*
X174434291Y-33084810D01*
X174510762Y-33008340D01*
X174595626Y-32867957D01*
X174644429Y-32711344D01*
X174650614Y-32643281D01*
X174650614Y-31584093D01*
X174644429Y-31516030D01*
X174595626Y-31359417D01*
X174510762Y-31219034D01*
X174510761Y-31219033D01*
X174510760Y-31219031D01*
X174394769Y-31103040D01*
X174254384Y-31018175D01*
X174144652Y-30983980D01*
X174085569Y-30944619D01*
X174057144Y-30879561D01*
X174068404Y-30809463D01*
X174115775Y-30756581D01*
X174144650Y-30743393D01*
X174254384Y-30709199D01*
X174394767Y-30624335D01*
X174510762Y-30508340D01*
X174595626Y-30367957D01*
X174644429Y-30211344D01*
X174650614Y-30143281D01*
X174650614Y-29084093D01*
X174644429Y-29016030D01*
X174595626Y-28859417D01*
X174510762Y-28719034D01*
X174510761Y-28719033D01*
X174510760Y-28719031D01*
X174394769Y-28603040D01*
X174254384Y-28518175D01*
X174254381Y-28518174D01*
X174144652Y-28483980D01*
X174085569Y-28444619D01*
X174057144Y-28379561D01*
X174068404Y-28309463D01*
X174115775Y-28256581D01*
X174144650Y-28243393D01*
X174254384Y-28209199D01*
X174394767Y-28124335D01*
X174510762Y-28008340D01*
X174595626Y-27867957D01*
X174644429Y-27711344D01*
X174650614Y-27643281D01*
X174650614Y-26584093D01*
X174644429Y-26516030D01*
X174595626Y-26359417D01*
X174510762Y-26219034D01*
X174510761Y-26219033D01*
X174510760Y-26219031D01*
X174394769Y-26103040D01*
X174254384Y-26018175D01*
X174097769Y-25969371D01*
X174032557Y-25963445D01*
X174032537Y-25963444D01*
X174029708Y-25963187D01*
X171870520Y-25963187D01*
X171867691Y-25963444D01*
X171867670Y-25963445D01*
X171802458Y-25969371D01*
X171645843Y-26018175D01*
X171505458Y-26103040D01*
X171389467Y-26219031D01*
X171304602Y-26359416D01*
X171255798Y-26516031D01*
X171249872Y-26581243D01*
X171249871Y-26581264D01*
X171249614Y-26584093D01*
X171249614Y-26586954D01*
X171249614Y-26588980D01*
X171249505Y-26589349D01*
X171249485Y-26589800D01*
X171249494Y-26589387D01*
X171229612Y-26657101D01*
X171175956Y-26703594D01*
X171105682Y-26713698D01*
X171041102Y-26684204D01*
X171032091Y-26674641D01*
X171028280Y-26671717D01*
X170999423Y-26649573D01*
X170902842Y-26575464D01*
X170756761Y-26514955D01*
X170600000Y-26494318D01*
X170443238Y-26514955D01*
X170297157Y-26575464D01*
X170171717Y-26671717D01*
X170075464Y-26797157D01*
X170014955Y-26943238D01*
X169994318Y-27100000D01*
X170014955Y-27256761D01*
X170075464Y-27402842D01*
X170171717Y-27528282D01*
X170297157Y-27624535D01*
X170297158Y-27624535D01*
X170297159Y-27624536D01*
X170443238Y-27685044D01*
X170600000Y-27705682D01*
X170756762Y-27685044D01*
X170902841Y-27624536D01*
X171028282Y-27528282D01*
X171028282Y-27528281D01*
X171041442Y-27518184D01*
X171042987Y-27520197D01*
X171080990Y-27492449D01*
X171151861Y-27488227D01*
X171213764Y-27522991D01*
X171247045Y-27585704D01*
X171249614Y-27611019D01*
X171249614Y-27643281D01*
X171249871Y-27646110D01*
X171249872Y-27646130D01*
X171255798Y-27711342D01*
X171304602Y-27867957D01*
X171389467Y-28008342D01*
X171505458Y-28124333D01*
X171505460Y-28124334D01*
X171505461Y-28124335D01*
X171645844Y-28209199D01*
X171755573Y-28243392D01*
X171814658Y-28282755D01*
X171843083Y-28347813D01*
X171831822Y-28417911D01*
X171784452Y-28470793D01*
X171755574Y-28483981D01*
X171708933Y-28498515D01*
X171645843Y-28518175D01*
X171505458Y-28603040D01*
X171389467Y-28719031D01*
X171304602Y-28859416D01*
X171255798Y-29016031D01*
X171249872Y-29081243D01*
X171249871Y-29081264D01*
X171249614Y-29084093D01*
X171249614Y-29086954D01*
X171249614Y-29088979D01*
X171249505Y-29089348D01*
X171249485Y-29089800D01*
X171249494Y-29089386D01*
X171229612Y-29157100D01*
X171175956Y-29203593D01*
X171105682Y-29213697D01*
X171041102Y-29184203D01*
X171032092Y-29174641D01*
X170902842Y-29075464D01*
X170756761Y-29014955D01*
X170600000Y-28994318D01*
X170443238Y-29014955D01*
X170297157Y-29075464D01*
X170171717Y-29171717D01*
X170075464Y-29297157D01*
X170014955Y-29443238D01*
X169994318Y-29600000D01*
X170014955Y-29756761D01*
X170075464Y-29902842D01*
X170171717Y-30028282D01*
X170297157Y-30124535D01*
X170297158Y-30124535D01*
X170297159Y-30124536D01*
X170443238Y-30185044D01*
X170600000Y-30205682D01*
X170756762Y-30185044D01*
X170902841Y-30124536D01*
X171028282Y-30028282D01*
X171028282Y-30028281D01*
X171041442Y-30018184D01*
X171042987Y-30020197D01*
X171080990Y-29992449D01*
X171151861Y-29988227D01*
X171213764Y-30022991D01*
X171247045Y-30085704D01*
X171249614Y-30111016D01*
X171249614Y-30143281D01*
X171249871Y-30146110D01*
X171249872Y-30146130D01*
X171255798Y-30211342D01*
X171304602Y-30367957D01*
X171389467Y-30508342D01*
X171505458Y-30624333D01*
X171505460Y-30624334D01*
X171505461Y-30624335D01*
X171645844Y-30709199D01*
X171755573Y-30743392D01*
X171814658Y-30782755D01*
X171843083Y-30847813D01*
X171831822Y-30917911D01*
X171784452Y-30970793D01*
X171755574Y-30983981D01*
X171708933Y-30998515D01*
X171645843Y-31018175D01*
X171505458Y-31103040D01*
X171389467Y-31219031D01*
X171304602Y-31359416D01*
X171255798Y-31516031D01*
X171249872Y-31581243D01*
X171249871Y-31581264D01*
X171249614Y-31584093D01*
X171249614Y-31586954D01*
X171249614Y-31588979D01*
X171249505Y-31589348D01*
X171249485Y-31589800D01*
X171249494Y-31589386D01*
X171229612Y-31657100D01*
X171175956Y-31703593D01*
X171105682Y-31713697D01*
X171041102Y-31684203D01*
X171032092Y-31674641D01*
X170902842Y-31575464D01*
X170756761Y-31514955D01*
X170600000Y-31494318D01*
X170443238Y-31514955D01*
X170297157Y-31575464D01*
X170171717Y-31671717D01*
X170075464Y-31797157D01*
X170014955Y-31943238D01*
X169994318Y-32099999D01*
X170014955Y-32256761D01*
X170075464Y-32402842D01*
X170171717Y-32528282D01*
X170297157Y-32624535D01*
X170297158Y-32624535D01*
X170297159Y-32624536D01*
X170443238Y-32685044D01*
X170600000Y-32705682D01*
X170756762Y-32685044D01*
X170902841Y-32624536D01*
X171028282Y-32528282D01*
X171028282Y-32528281D01*
X171041442Y-32518184D01*
X171042987Y-32520197D01*
X171080990Y-32492449D01*
X171151861Y-32488227D01*
X171213764Y-32522991D01*
X171247045Y-32585704D01*
X171249614Y-32611016D01*
X171249614Y-32643281D01*
X171249871Y-32646110D01*
X171249872Y-32646130D01*
X171255798Y-32711342D01*
X171304602Y-32867957D01*
X171389467Y-33008342D01*
X171465930Y-33084805D01*
X171499956Y-33147117D01*
X171494891Y-33217932D01*
X171452344Y-33274768D01*
X171435173Y-33285581D01*
X171381388Y-33313675D01*
X171226444Y-33440017D01*
X171136764Y-33550000D01*
X169900000Y-33550000D01*
X169900000Y-36950000D01*
X171000000Y-36950000D01*
X171224130Y-35784519D01*
X171226444Y-35787356D01*
X171296610Y-35844570D01*
X171336764Y-35903121D01*
X171338890Y-35974085D01*
X171322573Y-36002260D01*
X171326317Y-36004355D01*
X171317475Y-36020163D01*
X171317473Y-36020165D01*
X171272829Y-36099978D01*
X171272826Y-36099983D01*
X171252824Y-36168100D01*
X171244500Y-36226000D01*
X171244500Y-37825442D01*
X171224498Y-37893563D01*
X171213325Y-37908413D01*
X171044400Y-38101471D01*
X170984489Y-38139566D01*
X170949575Y-38144500D01*
X170626000Y-38144500D01*
X170622653Y-38144859D01*
X170622649Y-38144860D01*
X170585682Y-38148834D01*
X170585673Y-38148835D01*
X170582319Y-38149196D01*
X170579019Y-38149913D01*
X170579018Y-38149914D01*
X170529977Y-38160582D01*
X170528412Y-38160953D01*
X170519821Y-38163057D01*
X170439084Y-38206077D01*
X170386891Y-38251303D01*
X170386867Y-38251324D01*
X170385428Y-38252572D01*
X170384068Y-38253904D01*
X170384048Y-38253923D01*
X170367473Y-38270164D01*
X170322825Y-38349984D01*
X170302825Y-38418100D01*
X170302824Y-38418104D01*
X170294500Y-38476000D01*
X170294500Y-39524000D01*
X170299196Y-39567681D01*
X170299914Y-39570981D01*
X170310582Y-39620023D01*
X170310953Y-39621588D01*
X170313057Y-39630178D01*
X170356077Y-39710915D01*
X170388815Y-39748696D01*
X170402572Y-39764572D01*
X170420165Y-39782527D01*
X170499983Y-39827174D01*
X170568104Y-39847176D01*
X170626000Y-39855500D01*
X170626003Y-39855500D01*
X174320631Y-39855500D01*
X174324000Y-39855500D01*
X174367681Y-39850804D01*
X174420023Y-39839418D01*
X174421588Y-39839047D01*
X174430178Y-39836942D01*
X174430198Y-39836931D01*
X174430203Y-39836930D01*
X174489829Y-39805156D01*
X174510915Y-39793922D01*
X174543195Y-39765951D01*
X174564572Y-39747428D01*
X174582527Y-39729835D01*
X174627174Y-39650017D01*
X174647176Y-39581896D01*
X174655500Y-39524000D01*
X174655500Y-36226000D01*
X174650804Y-36182319D01*
X174639418Y-36129977D01*
X174639047Y-36128412D01*
X174636942Y-36119821D01*
X174636930Y-36119799D01*
X174636930Y-36119797D01*
X174617972Y-36084220D01*
X174593922Y-36039084D01*
X174584190Y-36027853D01*
X174554698Y-35963272D01*
X174564803Y-35892998D01*
X174599791Y-35847690D01*
X174673784Y-35787356D01*
X174800962Y-35631386D01*
X174859513Y-35591232D01*
X174930477Y-35589106D01*
X174991326Y-35625685D01*
X175022739Y-35689354D01*
X175024614Y-35711011D01*
X175024614Y-40569867D01*
X175022512Y-40580435D01*
X175022513Y-40599999D01*
X175024614Y-40605072D01*
X175030596Y-40619517D01*
X175050114Y-40627601D01*
X175069689Y-40627601D01*
X175080251Y-40625500D01*
X177219863Y-40625500D01*
X177230425Y-40627601D01*
X177250000Y-40627601D01*
X177269517Y-40619517D01*
X177275500Y-40605072D01*
X177276831Y-40601859D01*
X177281927Y-40589561D01*
X177275520Y-40569100D01*
X177275500Y-40566849D01*
X177275505Y-39981500D01*
X177275613Y-25265185D01*
X177295616Y-25197065D01*
X177349272Y-25150573D01*
X177401613Y-25139187D01*
X185645042Y-25139187D01*
X190498614Y-25139187D01*
X190566735Y-25159189D01*
X190613228Y-25212845D01*
X190624614Y-25265187D01*
X190624614Y-33516362D01*
X190604612Y-33584483D01*
X190550956Y-33630976D01*
X190480682Y-33641080D01*
X190416102Y-33611586D01*
X190400962Y-33595987D01*
X190273784Y-33440017D01*
X190118841Y-33313677D01*
X190065055Y-33285582D01*
X190013936Y-33236313D01*
X189997569Y-33167229D01*
X190021149Y-33100263D01*
X190034291Y-33084810D01*
X190110762Y-33008340D01*
X190195626Y-32867957D01*
X190244429Y-32711344D01*
X190250614Y-32643281D01*
X190250614Y-31584093D01*
X190244429Y-31516030D01*
X190195626Y-31359417D01*
X190110762Y-31219034D01*
X190110761Y-31219033D01*
X190110760Y-31219031D01*
X189994769Y-31103040D01*
X189854384Y-31018175D01*
X189854384Y-31018174D01*
X189744652Y-30983980D01*
X189685569Y-30944619D01*
X189657144Y-30879561D01*
X189668404Y-30809463D01*
X189715775Y-30756581D01*
X189744650Y-30743393D01*
X189854384Y-30709199D01*
X189994767Y-30624335D01*
X190110762Y-30508340D01*
X190195626Y-30367957D01*
X190244429Y-30211344D01*
X190250614Y-30143281D01*
X190250614Y-29084093D01*
X190244429Y-29016030D01*
X190195626Y-28859417D01*
X190110762Y-28719034D01*
X190110761Y-28719033D01*
X190110760Y-28719031D01*
X189994769Y-28603040D01*
X189854384Y-28518175D01*
X189854384Y-28518174D01*
X189744652Y-28483980D01*
X189685569Y-28444619D01*
X189657144Y-28379561D01*
X189668404Y-28309463D01*
X189715775Y-28256581D01*
X189744650Y-28243393D01*
X189854384Y-28209199D01*
X189994767Y-28124335D01*
X190110762Y-28008340D01*
X190195626Y-27867957D01*
X190244429Y-27711344D01*
X190250614Y-27643281D01*
X190250614Y-26584093D01*
X190244429Y-26516030D01*
X190195626Y-26359417D01*
X190110762Y-26219034D01*
X190110761Y-26219033D01*
X190110760Y-26219031D01*
X189994769Y-26103040D01*
X189854384Y-26018175D01*
X189697769Y-25969371D01*
X189632557Y-25963445D01*
X189632537Y-25963444D01*
X189629708Y-25963187D01*
X187470520Y-25963187D01*
X187467691Y-25963444D01*
X187467670Y-25963445D01*
X187402458Y-25969371D01*
X187245843Y-26018175D01*
X187105458Y-26103040D01*
X186989467Y-26219031D01*
X186904602Y-26359416D01*
X186855798Y-26516031D01*
X186849872Y-26581243D01*
X186849871Y-26581264D01*
X186849614Y-26584093D01*
X186849614Y-26586954D01*
X186849614Y-26588980D01*
X186849505Y-26589349D01*
X186849485Y-26589800D01*
X186849494Y-26589387D01*
X186829612Y-26657101D01*
X186775956Y-26703594D01*
X186705682Y-26713698D01*
X186641102Y-26684204D01*
X186632091Y-26674641D01*
X186628280Y-26671717D01*
X186599423Y-26649573D01*
X186502842Y-26575464D01*
X186356761Y-26514955D01*
X186200000Y-26494318D01*
X186043238Y-26514955D01*
X185897157Y-26575464D01*
X185771717Y-26671717D01*
X185675464Y-26797157D01*
X185614955Y-26943238D01*
X185594318Y-27100000D01*
X185614955Y-27256761D01*
X185675464Y-27402842D01*
X185771717Y-27528282D01*
X185897157Y-27624535D01*
X185897158Y-27624535D01*
X185897159Y-27624536D01*
X186043238Y-27685044D01*
X186200000Y-27705682D01*
X186356762Y-27685044D01*
X186502841Y-27624536D01*
X186628282Y-27528282D01*
X186628282Y-27528281D01*
X186641442Y-27518184D01*
X186642987Y-27520197D01*
X186680990Y-27492449D01*
X186751861Y-27488227D01*
X186813764Y-27522991D01*
X186847045Y-27585704D01*
X186849614Y-27611019D01*
X186849614Y-27643281D01*
X186849871Y-27646110D01*
X186849872Y-27646130D01*
X186855798Y-27711342D01*
X186904602Y-27867957D01*
X186989467Y-28008342D01*
X187105458Y-28124333D01*
X187105460Y-28124334D01*
X187105461Y-28124335D01*
X187245844Y-28209199D01*
X187355573Y-28243392D01*
X187414658Y-28282755D01*
X187443083Y-28347813D01*
X187431822Y-28417911D01*
X187384452Y-28470793D01*
X187355574Y-28483981D01*
X187308933Y-28498515D01*
X187245843Y-28518175D01*
X187105458Y-28603040D01*
X186989467Y-28719031D01*
X186904602Y-28859416D01*
X186855798Y-29016031D01*
X186849872Y-29081243D01*
X186849871Y-29081264D01*
X186849614Y-29084093D01*
X186849614Y-29086954D01*
X186849614Y-29088979D01*
X186849505Y-29089348D01*
X186849485Y-29089800D01*
X186849494Y-29089386D01*
X186829612Y-29157100D01*
X186775956Y-29203593D01*
X186705682Y-29213697D01*
X186641102Y-29184203D01*
X186632092Y-29174641D01*
X186502842Y-29075464D01*
X186356761Y-29014955D01*
X186200000Y-28994318D01*
X186043238Y-29014955D01*
X185897157Y-29075464D01*
X185771717Y-29171717D01*
X185675464Y-29297157D01*
X185614955Y-29443238D01*
X185594318Y-29600000D01*
X185614955Y-29756761D01*
X185675464Y-29902842D01*
X185771717Y-30028282D01*
X185897157Y-30124535D01*
X185897158Y-30124535D01*
X185897159Y-30124536D01*
X186043238Y-30185044D01*
X186200000Y-30205682D01*
X186356762Y-30185044D01*
X186502841Y-30124536D01*
X186628282Y-30028282D01*
X186628282Y-30028281D01*
X186641442Y-30018184D01*
X186642987Y-30020197D01*
X186680990Y-29992449D01*
X186751861Y-29988227D01*
X186813764Y-30022991D01*
X186847045Y-30085704D01*
X186849614Y-30111016D01*
X186849614Y-30143281D01*
X186849871Y-30146110D01*
X186849872Y-30146130D01*
X186855798Y-30211342D01*
X186904602Y-30367957D01*
X186989467Y-30508342D01*
X187105458Y-30624333D01*
X187105460Y-30624334D01*
X187105461Y-30624335D01*
X187245844Y-30709199D01*
X187355573Y-30743392D01*
X187414658Y-30782755D01*
X187443083Y-30847813D01*
X187431822Y-30917911D01*
X187384452Y-30970793D01*
X187355574Y-30983981D01*
X187308933Y-30998515D01*
X187245843Y-31018175D01*
X187105458Y-31103040D01*
X186989467Y-31219031D01*
X186904602Y-31359416D01*
X186855798Y-31516031D01*
X186849872Y-31581243D01*
X186849871Y-31581264D01*
X186849614Y-31584093D01*
X186849614Y-31586954D01*
X186849614Y-31588979D01*
X186849505Y-31589348D01*
X186849485Y-31589800D01*
X186849494Y-31589386D01*
X186829612Y-31657100D01*
X186775956Y-31703593D01*
X186705682Y-31713697D01*
X186641102Y-31684203D01*
X186632092Y-31674641D01*
X186502842Y-31575464D01*
X186356761Y-31514955D01*
X186200000Y-31494318D01*
X186043238Y-31514955D01*
X185897157Y-31575464D01*
X185771717Y-31671717D01*
X185675464Y-31797157D01*
X185614955Y-31943238D01*
X185594318Y-32099999D01*
X185614955Y-32256761D01*
X185675464Y-32402842D01*
X185771717Y-32528282D01*
X185897157Y-32624535D01*
X185897158Y-32624535D01*
X185897159Y-32624536D01*
X186043238Y-32685044D01*
X186200000Y-32705682D01*
X186356762Y-32685044D01*
X186502841Y-32624536D01*
X186628282Y-32528282D01*
X186628282Y-32528281D01*
X186641442Y-32518184D01*
X186642987Y-32520197D01*
X186680990Y-32492449D01*
X186751861Y-32488227D01*
X186813764Y-32522991D01*
X186847045Y-32585704D01*
X186849614Y-32611016D01*
X186849614Y-32643281D01*
X186849871Y-32646110D01*
X186849872Y-32646130D01*
X186855798Y-32711342D01*
X186904602Y-32867957D01*
X186989467Y-33008342D01*
X187065930Y-33084805D01*
X187099956Y-33147117D01*
X187094891Y-33217932D01*
X187052344Y-33274768D01*
X187035173Y-33285581D01*
X186981388Y-33313675D01*
X186826444Y-33440017D01*
X186736764Y-33550000D01*
X185500000Y-33550000D01*
X185500000Y-36950000D01*
X186600000Y-36950000D01*
X186824130Y-35784519D01*
X186826444Y-35787356D01*
X186896610Y-35844570D01*
X186936764Y-35903121D01*
X186938890Y-35974085D01*
X186922573Y-36002260D01*
X186926317Y-36004355D01*
X186917473Y-36020164D01*
X186917473Y-36020165D01*
X186897420Y-36056014D01*
X186872825Y-36099984D01*
X186852825Y-36168099D01*
X186852824Y-36168104D01*
X186850297Y-36185682D01*
X186844500Y-36226000D01*
X186844500Y-37825442D01*
X186824498Y-37893563D01*
X186813325Y-37908413D01*
X186644400Y-38101471D01*
X186584489Y-38139566D01*
X186549575Y-38144500D01*
X186226000Y-38144500D01*
X186222653Y-38144859D01*
X186222649Y-38144860D01*
X186185682Y-38148834D01*
X186185673Y-38148835D01*
X186182319Y-38149196D01*
X186179019Y-38149913D01*
X186179018Y-38149914D01*
X186129977Y-38160582D01*
X186128412Y-38160953D01*
X186119821Y-38163057D01*
X186039084Y-38206077D01*
X185986891Y-38251303D01*
X185986867Y-38251324D01*
X185985428Y-38252572D01*
X185984068Y-38253904D01*
X185984048Y-38253923D01*
X185967473Y-38270164D01*
X185922825Y-38349984D01*
X185902825Y-38418100D01*
X185902824Y-38418104D01*
X185894500Y-38476000D01*
X185894500Y-39524000D01*
X185899196Y-39567681D01*
X185899914Y-39570981D01*
X185910582Y-39620023D01*
X185910953Y-39621588D01*
X185913057Y-39630178D01*
X185956077Y-39710915D01*
X185988815Y-39748696D01*
X186002572Y-39764572D01*
X186020165Y-39782527D01*
X186099983Y-39827174D01*
X186168104Y-39847176D01*
X186226000Y-39855500D01*
X186226003Y-39855500D01*
X189920631Y-39855500D01*
X189924000Y-39855500D01*
X189967681Y-39850804D01*
X190020023Y-39839418D01*
X190021588Y-39839047D01*
X190030178Y-39836942D01*
X190030198Y-39836931D01*
X190030203Y-39836930D01*
X190089829Y-39805156D01*
X190110915Y-39793922D01*
X190143195Y-39765951D01*
X190164572Y-39747428D01*
X190182527Y-39729835D01*
X190227174Y-39650017D01*
X190247176Y-39581896D01*
X190255500Y-39524000D01*
X190255500Y-36226000D01*
X190250804Y-36182319D01*
X190239418Y-36129977D01*
X190239047Y-36128412D01*
X190236942Y-36119821D01*
X190236930Y-36119799D01*
X190236930Y-36119797D01*
X190217972Y-36084220D01*
X190193922Y-36039084D01*
X190184190Y-36027853D01*
X190154698Y-35963272D01*
X190164803Y-35892998D01*
X190199791Y-35847690D01*
X190273784Y-35787356D01*
X190400962Y-35631386D01*
X190459513Y-35591232D01*
X190530477Y-35589106D01*
X190591326Y-35625685D01*
X190622739Y-35689354D01*
X190624614Y-35711011D01*
X190624614Y-40569867D01*
X190622512Y-40580435D01*
X190622513Y-40599999D01*
X190624614Y-40605072D01*
X190630596Y-40619517D01*
X190650114Y-40627601D01*
X190669689Y-40627601D01*
X190680251Y-40625500D01*
X192819863Y-40625500D01*
X192830425Y-40627601D01*
X192850000Y-40627601D01*
X192869517Y-40619517D01*
X192875500Y-40605072D01*
X192876831Y-40601859D01*
X192881927Y-40589561D01*
X192875520Y-40569100D01*
X192875500Y-40566849D01*
X192875505Y-39981500D01*
X192875526Y-37067766D01*
X194945787Y-37067766D01*
X194975413Y-37337015D01*
X194975414Y-37337018D01*
X195043928Y-37599088D01*
X195149870Y-37848390D01*
X195290982Y-38079610D01*
X195464255Y-38287820D01*
X195464256Y-38287821D01*
X195464258Y-38287823D01*
X195665993Y-38468578D01*
X195665995Y-38468579D01*
X195665998Y-38468582D01*
X195891910Y-38618044D01*
X196024104Y-38680014D01*
X196137171Y-38733018D01*
X196137173Y-38733018D01*
X196137176Y-38733020D01*
X196396569Y-38811060D01*
X196396572Y-38811060D01*
X196396574Y-38811061D01*
X196664558Y-38850500D01*
X196664561Y-38850500D01*
X196865330Y-38850500D01*
X196867631Y-38850500D01*
X197070156Y-38835677D01*
X197334553Y-38776780D01*
X197587558Y-38680014D01*
X197823777Y-38547441D01*
X198038177Y-38381888D01*
X198226186Y-38186881D01*
X198383799Y-37966579D01*
X198507656Y-37725675D01*
X198595118Y-37469305D01*
X198644319Y-37202933D01*
X198654212Y-36932235D01*
X198624586Y-36662982D01*
X198556072Y-36400912D01*
X198450130Y-36151610D01*
X198309018Y-35920390D01*
X198135745Y-35712180D01*
X198134495Y-35711060D01*
X197934006Y-35531421D01*
X197934003Y-35531419D01*
X197934002Y-35531418D01*
X197708090Y-35381956D01*
X197708086Y-35381954D01*
X197462828Y-35266981D01*
X197203425Y-35188938D01*
X196935442Y-35149500D01*
X196935439Y-35149500D01*
X196732369Y-35149500D01*
X196730099Y-35149666D01*
X196730075Y-35149667D01*
X196529839Y-35164323D01*
X196265449Y-35223219D01*
X196012441Y-35319985D01*
X195776225Y-35452557D01*
X195561820Y-35618114D01*
X195373815Y-35813117D01*
X195216200Y-36033422D01*
X195092342Y-36274328D01*
X195004882Y-36530693D01*
X194955681Y-36797065D01*
X194945787Y-37067766D01*
X192875526Y-37067766D01*
X192875613Y-25265185D01*
X192895616Y-25197065D01*
X192949272Y-25150573D01*
X193001613Y-25139187D01*
X201245042Y-25139187D01*
X206098614Y-25139187D01*
X206166735Y-25159189D01*
X206213228Y-25212845D01*
X206224613Y-25265184D01*
X206224595Y-30085693D01*
X206224582Y-33516323D01*
X206204580Y-33584444D01*
X206150924Y-33630937D01*
X206080650Y-33641040D01*
X206016069Y-33611547D01*
X206000930Y-33595948D01*
X205873783Y-33440017D01*
X205718841Y-33313677D01*
X205665055Y-33285582D01*
X205613936Y-33236313D01*
X205597569Y-33167229D01*
X205621149Y-33100263D01*
X205634291Y-33084810D01*
X205710762Y-33008340D01*
X205795626Y-32867957D01*
X205844429Y-32711344D01*
X205850614Y-32643281D01*
X205850614Y-31584093D01*
X205844429Y-31516030D01*
X205795626Y-31359417D01*
X205710762Y-31219034D01*
X205710761Y-31219033D01*
X205710760Y-31219031D01*
X205594769Y-31103040D01*
X205454384Y-31018175D01*
X205454384Y-31018174D01*
X205344652Y-30983980D01*
X205285569Y-30944619D01*
X205257144Y-30879561D01*
X205268404Y-30809463D01*
X205315775Y-30756581D01*
X205344650Y-30743393D01*
X205454384Y-30709199D01*
X205594767Y-30624335D01*
X205710762Y-30508340D01*
X205795626Y-30367957D01*
X205844429Y-30211344D01*
X205850614Y-30143281D01*
X205850614Y-29084093D01*
X205844429Y-29016030D01*
X205795626Y-28859417D01*
X205710762Y-28719034D01*
X205710761Y-28719033D01*
X205710760Y-28719031D01*
X205594769Y-28603040D01*
X205454384Y-28518175D01*
X205454383Y-28518174D01*
X205344652Y-28483980D01*
X205285569Y-28444619D01*
X205257144Y-28379561D01*
X205268404Y-28309463D01*
X205315775Y-28256581D01*
X205344650Y-28243393D01*
X205454384Y-28209199D01*
X205594767Y-28124335D01*
X205710762Y-28008340D01*
X205795626Y-27867957D01*
X205844429Y-27711344D01*
X205850614Y-27643281D01*
X205850614Y-26584093D01*
X205844429Y-26516030D01*
X205795626Y-26359417D01*
X205710762Y-26219034D01*
X205710761Y-26219033D01*
X205710760Y-26219031D01*
X205594769Y-26103040D01*
X205454384Y-26018175D01*
X205297769Y-25969371D01*
X205232557Y-25963445D01*
X205232537Y-25963444D01*
X205229708Y-25963187D01*
X203070520Y-25963187D01*
X203067691Y-25963444D01*
X203067670Y-25963445D01*
X203002458Y-25969371D01*
X202845843Y-26018175D01*
X202705458Y-26103040D01*
X202589467Y-26219031D01*
X202504602Y-26359416D01*
X202455798Y-26516031D01*
X202449872Y-26581243D01*
X202449871Y-26581264D01*
X202449614Y-26584093D01*
X202449614Y-26586954D01*
X202449614Y-26588980D01*
X202449505Y-26589349D01*
X202449485Y-26589800D01*
X202449494Y-26589387D01*
X202429612Y-26657101D01*
X202375956Y-26703594D01*
X202305682Y-26713698D01*
X202241102Y-26684204D01*
X202232091Y-26674641D01*
X202228280Y-26671717D01*
X202199423Y-26649573D01*
X202102842Y-26575464D01*
X201956761Y-26514955D01*
X201800000Y-26494318D01*
X201643238Y-26514955D01*
X201497157Y-26575464D01*
X201371717Y-26671717D01*
X201275464Y-26797157D01*
X201214955Y-26943238D01*
X201194318Y-27099999D01*
X201214955Y-27256761D01*
X201275464Y-27402842D01*
X201371717Y-27528282D01*
X201497157Y-27624535D01*
X201497158Y-27624535D01*
X201497159Y-27624536D01*
X201643238Y-27685044D01*
X201800000Y-27705682D01*
X201956762Y-27685044D01*
X202102841Y-27624536D01*
X202228282Y-27528282D01*
X202228282Y-27528281D01*
X202241442Y-27518184D01*
X202242987Y-27520197D01*
X202280990Y-27492449D01*
X202351861Y-27488227D01*
X202413764Y-27522991D01*
X202447045Y-27585704D01*
X202449614Y-27611019D01*
X202449614Y-27643281D01*
X202449871Y-27646110D01*
X202449872Y-27646130D01*
X202455798Y-27711342D01*
X202504602Y-27867957D01*
X202589467Y-28008342D01*
X202705458Y-28124333D01*
X202705460Y-28124334D01*
X202705461Y-28124335D01*
X202845844Y-28209199D01*
X202955573Y-28243392D01*
X203014658Y-28282755D01*
X203043083Y-28347813D01*
X203031822Y-28417911D01*
X202984452Y-28470793D01*
X202955574Y-28483981D01*
X202908933Y-28498515D01*
X202845843Y-28518175D01*
X202705458Y-28603040D01*
X202589467Y-28719031D01*
X202504602Y-28859416D01*
X202455798Y-29016031D01*
X202449872Y-29081243D01*
X202449871Y-29081264D01*
X202449614Y-29084093D01*
X202449614Y-29086954D01*
X202449614Y-29088979D01*
X202449505Y-29089348D01*
X202449485Y-29089800D01*
X202449494Y-29089386D01*
X202429612Y-29157100D01*
X202375956Y-29203593D01*
X202305682Y-29213697D01*
X202241102Y-29184203D01*
X202232092Y-29174641D01*
X202102842Y-29075464D01*
X201956761Y-29014955D01*
X201800000Y-28994318D01*
X201643238Y-29014955D01*
X201497157Y-29075464D01*
X201371717Y-29171717D01*
X201275464Y-29297157D01*
X201214955Y-29443238D01*
X201194318Y-29600000D01*
X201214955Y-29756761D01*
X201275464Y-29902842D01*
X201371717Y-30028282D01*
X201497157Y-30124535D01*
X201497158Y-30124535D01*
X201497159Y-30124536D01*
X201643238Y-30185044D01*
X201800000Y-30205682D01*
X201956762Y-30185044D01*
X202102841Y-30124536D01*
X202228282Y-30028282D01*
X202228282Y-30028281D01*
X202241442Y-30018184D01*
X202242987Y-30020197D01*
X202280990Y-29992449D01*
X202351861Y-29988227D01*
X202413764Y-30022991D01*
X202447045Y-30085704D01*
X202449614Y-30111016D01*
X202449614Y-30143281D01*
X202449871Y-30146110D01*
X202449872Y-30146130D01*
X202455798Y-30211342D01*
X202504602Y-30367957D01*
X202589467Y-30508342D01*
X202705458Y-30624333D01*
X202705460Y-30624334D01*
X202705461Y-30624335D01*
X202845844Y-30709199D01*
X202955573Y-30743392D01*
X203014658Y-30782755D01*
X203043083Y-30847813D01*
X203031822Y-30917911D01*
X202984452Y-30970793D01*
X202955574Y-30983981D01*
X202908933Y-30998515D01*
X202845843Y-31018175D01*
X202705458Y-31103040D01*
X202589467Y-31219031D01*
X202504602Y-31359416D01*
X202455798Y-31516031D01*
X202449872Y-31581243D01*
X202449871Y-31581264D01*
X202449614Y-31584093D01*
X202449614Y-31586954D01*
X202449614Y-31588979D01*
X202449505Y-31589348D01*
X202449485Y-31589800D01*
X202449494Y-31589386D01*
X202429612Y-31657100D01*
X202375956Y-31703593D01*
X202305682Y-31713697D01*
X202241102Y-31684203D01*
X202232092Y-31674641D01*
X202102842Y-31575464D01*
X201956761Y-31514955D01*
X201800000Y-31494318D01*
X201643238Y-31514955D01*
X201497157Y-31575464D01*
X201371717Y-31671717D01*
X201275464Y-31797157D01*
X201214955Y-31943238D01*
X201194318Y-32100000D01*
X201214955Y-32256761D01*
X201275464Y-32402842D01*
X201371717Y-32528282D01*
X201497157Y-32624535D01*
X201497158Y-32624535D01*
X201497159Y-32624536D01*
X201643238Y-32685044D01*
X201800000Y-32705682D01*
X201956762Y-32685044D01*
X202102841Y-32624536D01*
X202228282Y-32528282D01*
X202228282Y-32528281D01*
X202241442Y-32518184D01*
X202242987Y-32520197D01*
X202280990Y-32492449D01*
X202351861Y-32488227D01*
X202413764Y-32522991D01*
X202447045Y-32585704D01*
X202449614Y-32611016D01*
X202449614Y-32643281D01*
X202449871Y-32646110D01*
X202449872Y-32646130D01*
X202455798Y-32711342D01*
X202504602Y-32867957D01*
X202589467Y-33008342D01*
X202665930Y-33084805D01*
X202699956Y-33147117D01*
X202694891Y-33217932D01*
X202652344Y-33274768D01*
X202635173Y-33285581D01*
X202581388Y-33313675D01*
X202426444Y-33440017D01*
X202336764Y-33550000D01*
X201100000Y-33550000D01*
X201100000Y-36950000D01*
X202200000Y-36950000D01*
X202424130Y-35784519D01*
X202426444Y-35787356D01*
X202496610Y-35844570D01*
X202536764Y-35903121D01*
X202538890Y-35974085D01*
X202522573Y-36002260D01*
X202526317Y-36004355D01*
X202517475Y-36020163D01*
X202517473Y-36020165D01*
X202472829Y-36099978D01*
X202472826Y-36099983D01*
X202452824Y-36168100D01*
X202444500Y-36226000D01*
X202444500Y-37825442D01*
X202424498Y-37893563D01*
X202413325Y-37908413D01*
X202244400Y-38101471D01*
X202184489Y-38139566D01*
X202149575Y-38144500D01*
X201826000Y-38144500D01*
X201822653Y-38144859D01*
X201822649Y-38144860D01*
X201785682Y-38148834D01*
X201785673Y-38148835D01*
X201782319Y-38149196D01*
X201779019Y-38149913D01*
X201779018Y-38149914D01*
X201729977Y-38160582D01*
X201728412Y-38160953D01*
X201719821Y-38163057D01*
X201639084Y-38206077D01*
X201586891Y-38251303D01*
X201586867Y-38251324D01*
X201585428Y-38252572D01*
X201584068Y-38253904D01*
X201584048Y-38253923D01*
X201567473Y-38270164D01*
X201522825Y-38349984D01*
X201502825Y-38418100D01*
X201494499Y-38476003D01*
X201494500Y-39520631D01*
X201494500Y-39524000D01*
X201499196Y-39567681D01*
X201499914Y-39570981D01*
X201510582Y-39620023D01*
X201510953Y-39621588D01*
X201513057Y-39630178D01*
X201556077Y-39710915D01*
X201588815Y-39748696D01*
X201602572Y-39764572D01*
X201620165Y-39782527D01*
X201699983Y-39827174D01*
X201768104Y-39847176D01*
X201826000Y-39855500D01*
X201923500Y-39855500D01*
X201991621Y-39875502D01*
X202038114Y-39929158D01*
X202049500Y-39981500D01*
X202049500Y-47207653D01*
X202029498Y-47275774D01*
X202012595Y-47296748D01*
X201761748Y-47547595D01*
X201699436Y-47581621D01*
X201672653Y-47584500D01*
X200866517Y-47584500D01*
X200798396Y-47564498D01*
X200773402Y-47543386D01*
X200637236Y-47394019D01*
X200459689Y-47259942D01*
X200459490Y-47259843D01*
X200260527Y-47160770D01*
X200046534Y-47099884D01*
X199883419Y-47084769D01*
X199883393Y-47084767D01*
X199880503Y-47084500D01*
X197229497Y-47084500D01*
X197226607Y-47084767D01*
X197226580Y-47084769D01*
X197063465Y-47099884D01*
X196849472Y-47160770D01*
X196650310Y-47259942D01*
X196472765Y-47394018D01*
X196322873Y-47558441D01*
X196205754Y-47747594D01*
X196125382Y-47955059D01*
X196122874Y-47968476D01*
X196084500Y-48173757D01*
X196084500Y-48396243D01*
X196125381Y-48614939D01*
X196125382Y-48614940D01*
X196205754Y-48822405D01*
X196322873Y-49011558D01*
X196322874Y-49011559D01*
X196322876Y-49011562D01*
X196472764Y-49175981D01*
X196558135Y-49240450D01*
X196650312Y-49310059D01*
X196735623Y-49352539D01*
X196787687Y-49400808D01*
X196805389Y-49469562D01*
X196783110Y-49536972D01*
X196739430Y-49576142D01*
X196539702Y-49684230D01*
X196362096Y-49822466D01*
X196209678Y-49988037D01*
X196086580Y-50176451D01*
X195996177Y-50382548D01*
X195948455Y-50570999D01*
X195948456Y-50571000D01*
X196853884Y-50571000D01*
X196825507Y-50615156D01*
X196785000Y-50753111D01*
X196785000Y-50896889D01*
X196825507Y-51034844D01*
X196853884Y-51079000D01*
X195948455Y-51079000D01*
X195996177Y-51267451D01*
X196086580Y-51473548D01*
X196209678Y-51661962D01*
X196362096Y-51827533D01*
X196539697Y-51965766D01*
X196737631Y-52072883D01*
X196950485Y-52145955D01*
X197031000Y-52159391D01*
X197031000Y-51258674D01*
X197142685Y-51309680D01*
X197249237Y-51325000D01*
X197320763Y-51325000D01*
X197427315Y-51309680D01*
X197539000Y-51258674D01*
X197539000Y-52159390D01*
X197619514Y-52145955D01*
X197832368Y-52072883D01*
X198030302Y-51965766D01*
X198207903Y-51827534D01*
X198269427Y-51760700D01*
X198330279Y-51724128D01*
X198401244Y-51726261D01*
X198459790Y-51766422D01*
X198480185Y-51802004D01*
X198524554Y-51920962D01*
X198612095Y-52037904D01*
X198729037Y-52125445D01*
X198865906Y-52176494D01*
X198923063Y-52182640D01*
X198929777Y-52183000D01*
X199571000Y-52183000D01*
X199571000Y-51258674D01*
X199682685Y-51309680D01*
X199789237Y-51325000D01*
X199860763Y-51325000D01*
X199967315Y-51309680D01*
X200079000Y-51258674D01*
X200079000Y-52183000D01*
X200720223Y-52183000D01*
X200726936Y-52182640D01*
X200784093Y-52176494D01*
X200920962Y-52125445D01*
X201037904Y-52037904D01*
X201125445Y-51920962D01*
X201176494Y-51784093D01*
X201182640Y-51726936D01*
X201183000Y-51720222D01*
X201183000Y-51079000D01*
X200256116Y-51079000D01*
X200284493Y-51034844D01*
X200325000Y-50896889D01*
X200325000Y-50753111D01*
X200284493Y-50615156D01*
X200256116Y-50571000D01*
X201183000Y-50571000D01*
X201183000Y-49929777D01*
X201182640Y-49923063D01*
X201176494Y-49865906D01*
X201125445Y-49729037D01*
X201037904Y-49612095D01*
X200920962Y-49524554D01*
X200784093Y-49473505D01*
X200726936Y-49467359D01*
X200720223Y-49467000D01*
X200627797Y-49467000D01*
X200559676Y-49446998D01*
X200513183Y-49393342D01*
X200503079Y-49323068D01*
X200532573Y-49258488D01*
X200551865Y-49240450D01*
X200637236Y-49175981D01*
X200773402Y-49026613D01*
X200834076Y-48989748D01*
X200866517Y-48985500D01*
X201990025Y-48985500D01*
X201997632Y-48985729D01*
X202027089Y-48987511D01*
X202057605Y-48989358D01*
X202057605Y-48989357D01*
X202057606Y-48989358D01*
X202116729Y-48978522D01*
X202124247Y-48977379D01*
X202183872Y-48970140D01*
X202193174Y-48966611D01*
X202215132Y-48960490D01*
X202224932Y-48958695D01*
X202279756Y-48934020D01*
X202286738Y-48931128D01*
X202342930Y-48909818D01*
X202351116Y-48904166D01*
X202370987Y-48892960D01*
X202375161Y-48891081D01*
X202380057Y-48888878D01*
X202427360Y-48851817D01*
X202433462Y-48847326D01*
X202482929Y-48813183D01*
X202522784Y-48768194D01*
X202527969Y-48762686D01*
X203227686Y-48062969D01*
X203233194Y-48057784D01*
X203278183Y-48017929D01*
X203312326Y-47968462D01*
X203316817Y-47962360D01*
X203353878Y-47915057D01*
X203357959Y-47905986D01*
X203369163Y-47886121D01*
X203374818Y-47877930D01*
X203396127Y-47821738D01*
X203399022Y-47814747D01*
X203423695Y-47759931D01*
X203425489Y-47750136D01*
X203431615Y-47728165D01*
X203435140Y-47718872D01*
X203442383Y-47659213D01*
X203443524Y-47651722D01*
X203454358Y-47592605D01*
X203450730Y-47532632D01*
X203450500Y-47525024D01*
X203450500Y-39981500D01*
X203470502Y-39913379D01*
X203524158Y-39866886D01*
X203576500Y-39855500D01*
X205520631Y-39855500D01*
X205524000Y-39855500D01*
X205567681Y-39850804D01*
X205620023Y-39839418D01*
X205621588Y-39839047D01*
X205630178Y-39836942D01*
X205630198Y-39836931D01*
X205630203Y-39836930D01*
X205689829Y-39805156D01*
X205710915Y-39793922D01*
X205743195Y-39765951D01*
X205764572Y-39747428D01*
X205782527Y-39729835D01*
X205827174Y-39650017D01*
X205847176Y-39581896D01*
X205855500Y-39524000D01*
X205855500Y-36226000D01*
X205850804Y-36182319D01*
X205839418Y-36129977D01*
X205839047Y-36128412D01*
X205836942Y-36119821D01*
X205836930Y-36119799D01*
X205836930Y-36119797D01*
X205817972Y-36084220D01*
X205793922Y-36039084D01*
X205784190Y-36027853D01*
X205754698Y-35963272D01*
X205764803Y-35892998D01*
X205799791Y-35847690D01*
X205873783Y-35787356D01*
X206000921Y-35631435D01*
X206059471Y-35591281D01*
X206130436Y-35589155D01*
X206191284Y-35625734D01*
X206222698Y-35689402D01*
X206224573Y-35711060D01*
X206224500Y-55137246D01*
X206204498Y-55205367D01*
X206187596Y-55226340D01*
X205276340Y-56137596D01*
X205214030Y-56171620D01*
X205187247Y-56174500D01*
X192912753Y-56174500D01*
X192844632Y-56154498D01*
X192823658Y-56137595D01*
X187889344Y-51203281D01*
X187883366Y-51194332D01*
X187869518Y-51180484D01*
X187869517Y-51180483D01*
X187864445Y-51178382D01*
X187850000Y-51172399D01*
X187849999Y-51172399D01*
X187830425Y-51172399D01*
X187819863Y-51174500D01*
X39680137Y-51174500D01*
X39669575Y-51172399D01*
X39649995Y-51172399D01*
X39630481Y-51180483D01*
X39616646Y-51194318D01*
X39610662Y-51203273D01*
X34676342Y-56137595D01*
X34614030Y-56171620D01*
X34587247Y-56174500D01*
X22312752Y-56174500D01*
X22244631Y-56154498D01*
X22223661Y-56137599D01*
X21312402Y-55226339D01*
X21278379Y-55164030D01*
X21275500Y-55137247D01*
X21275512Y-52145955D01*
X21275516Y-51079000D01*
X24348455Y-51079000D01*
X24396177Y-51267451D01*
X24486580Y-51473548D01*
X24609678Y-51661962D01*
X24762096Y-51827533D01*
X24939697Y-51965766D01*
X25137631Y-52072883D01*
X25350485Y-52145955D01*
X25430999Y-52159391D01*
X25430999Y-51258674D01*
X25542685Y-51309680D01*
X25649237Y-51325000D01*
X25720763Y-51325000D01*
X25827315Y-51309680D01*
X25939000Y-51258674D01*
X25939000Y-52159390D01*
X26019514Y-52145955D01*
X26232368Y-52072883D01*
X26430302Y-51965766D01*
X26607903Y-51827534D01*
X26669427Y-51760700D01*
X26730279Y-51724128D01*
X26801244Y-51726261D01*
X26859790Y-51766422D01*
X26880185Y-51802004D01*
X26924554Y-51920962D01*
X27012095Y-52037904D01*
X27129037Y-52125445D01*
X27265906Y-52176494D01*
X27323063Y-52182640D01*
X27329777Y-52183000D01*
X27971000Y-52183000D01*
X27971000Y-51258674D01*
X28082685Y-51309680D01*
X28189237Y-51325000D01*
X28260763Y-51325000D01*
X28367315Y-51309680D01*
X28479000Y-51258674D01*
X28479000Y-52183000D01*
X29120223Y-52183000D01*
X29126936Y-52182640D01*
X29184093Y-52176494D01*
X29320962Y-52125445D01*
X29437904Y-52037904D01*
X29525445Y-51920962D01*
X29576494Y-51784093D01*
X29582640Y-51726936D01*
X29583000Y-51720222D01*
X29583000Y-51079000D01*
X28656116Y-51079000D01*
X28684493Y-51034844D01*
X28725000Y-50896889D01*
X28725000Y-50753111D01*
X28684493Y-50615156D01*
X28656116Y-50571000D01*
X29583000Y-50571000D01*
X29583000Y-49929777D01*
X29582640Y-49923063D01*
X29576494Y-49865906D01*
X29525445Y-49729037D01*
X29437904Y-49612095D01*
X29320962Y-49524554D01*
X29184093Y-49473505D01*
X29126936Y-49467359D01*
X29120223Y-49467000D01*
X29027797Y-49467000D01*
X28959676Y-49446998D01*
X28913183Y-49393342D01*
X28903079Y-49323068D01*
X28932573Y-49258488D01*
X28951865Y-49240450D01*
X29037236Y-49175981D01*
X29187124Y-49011562D01*
X29260559Y-48892960D01*
X29304245Y-48822405D01*
X29325239Y-48768214D01*
X29384618Y-48614940D01*
X29425500Y-48396243D01*
X29425500Y-48173757D01*
X29384618Y-47955060D01*
X29304247Y-47747599D01*
X29304246Y-47747598D01*
X29304245Y-47747594D01*
X29187126Y-47558441D01*
X29187125Y-47558440D01*
X29187124Y-47558438D01*
X29037236Y-47394019D01*
X28859689Y-47259942D01*
X28859490Y-47259843D01*
X28660527Y-47160770D01*
X28446534Y-47099884D01*
X28283419Y-47084769D01*
X28283393Y-47084767D01*
X28280503Y-47084500D01*
X25629497Y-47084500D01*
X25626607Y-47084767D01*
X25626580Y-47084769D01*
X25463465Y-47099884D01*
X25249472Y-47160770D01*
X25050310Y-47259942D01*
X24872765Y-47394018D01*
X24722873Y-47558441D01*
X24605754Y-47747594D01*
X24525382Y-47955059D01*
X24522874Y-47968476D01*
X24484500Y-48173757D01*
X24484500Y-48396243D01*
X24525381Y-48614940D01*
X24525382Y-48614940D01*
X24605754Y-48822405D01*
X24722873Y-49011558D01*
X24722874Y-49011559D01*
X24722876Y-49011562D01*
X24872764Y-49175981D01*
X24958135Y-49240450D01*
X25050312Y-49310059D01*
X25135623Y-49352539D01*
X25187687Y-49400808D01*
X25205389Y-49469562D01*
X25183110Y-49536972D01*
X25139430Y-49576142D01*
X24939702Y-49684230D01*
X24762096Y-49822466D01*
X24609678Y-49988037D01*
X24486580Y-50176451D01*
X24396177Y-50382548D01*
X24348455Y-50570999D01*
X24348456Y-50571000D01*
X25253884Y-50571000D01*
X25225507Y-50615156D01*
X25185000Y-50753111D01*
X25185000Y-50896889D01*
X25225507Y-51034844D01*
X25253884Y-51079000D01*
X24348455Y-51079000D01*
X21275516Y-51079000D01*
X21275535Y-45745000D01*
X24629416Y-45745000D01*
X24649699Y-45950929D01*
X24649699Y-45950931D01*
X24649700Y-45950934D01*
X24709768Y-46148954D01*
X24709769Y-46148956D01*
X24807314Y-46331449D01*
X24938589Y-46491410D01*
X25098550Y-46622685D01*
X25281046Y-46720232D01*
X25479066Y-46780300D01*
X25685000Y-46800583D01*
X25890934Y-46780300D01*
X26088954Y-46720232D01*
X26271450Y-46622685D01*
X26431410Y-46491410D01*
X26562685Y-46331450D01*
X26660232Y-46148954D01*
X26720300Y-45950934D01*
X26740583Y-45745000D01*
X26740583Y-45744999D01*
X27169416Y-45744999D01*
X27189699Y-45950929D01*
X27189699Y-45950931D01*
X27189700Y-45950934D01*
X27249768Y-46148954D01*
X27249769Y-46148956D01*
X27347314Y-46331449D01*
X27478589Y-46491410D01*
X27638550Y-46622685D01*
X27821046Y-46720232D01*
X28019066Y-46780300D01*
X28183813Y-46796526D01*
X28224999Y-46800583D01*
X28224999Y-46800582D01*
X28225000Y-46800583D01*
X28430934Y-46780300D01*
X28628954Y-46720232D01*
X28811450Y-46622685D01*
X28971410Y-46491410D01*
X29102685Y-46331450D01*
X29200232Y-46148954D01*
X29260300Y-45950934D01*
X29280583Y-45745000D01*
X29260300Y-45539066D01*
X29237474Y-45463818D01*
X29236841Y-45392824D01*
X29268951Y-45338151D01*
X29919700Y-44687402D01*
X29982010Y-44653379D01*
X30008793Y-44650500D01*
X43357901Y-44650500D01*
X43426022Y-44670502D01*
X43434605Y-44676537D01*
X43451391Y-44689417D01*
X43497159Y-44724536D01*
X43643238Y-44785044D01*
X43800000Y-44805682D01*
X43956762Y-44785044D01*
X44102841Y-44724536D01*
X44165394Y-44676537D01*
X44231616Y-44650937D01*
X44242099Y-44650500D01*
X58957901Y-44650500D01*
X59026022Y-44670502D01*
X59034605Y-44676537D01*
X59051391Y-44689417D01*
X59097159Y-44724536D01*
X59243238Y-44785044D01*
X59400000Y-44805682D01*
X59556762Y-44785044D01*
X59702841Y-44724536D01*
X59765394Y-44676537D01*
X59831616Y-44650937D01*
X59842099Y-44650500D01*
X74557901Y-44650500D01*
X74626022Y-44670502D01*
X74634605Y-44676537D01*
X74651391Y-44689417D01*
X74697159Y-44724536D01*
X74843238Y-44785044D01*
X75000000Y-44805682D01*
X75156762Y-44785044D01*
X75302841Y-44724536D01*
X75365394Y-44676537D01*
X75431616Y-44650937D01*
X75442099Y-44650500D01*
X90157901Y-44650500D01*
X90226022Y-44670502D01*
X90234605Y-44676537D01*
X90251391Y-44689417D01*
X90297159Y-44724536D01*
X90443238Y-44785044D01*
X90600000Y-44805682D01*
X90756762Y-44785044D01*
X90902841Y-44724536D01*
X90965394Y-44676537D01*
X91031616Y-44650937D01*
X91042099Y-44650500D01*
X105757901Y-44650500D01*
X105826022Y-44670502D01*
X105834605Y-44676537D01*
X105851391Y-44689417D01*
X105897159Y-44724536D01*
X106043238Y-44785044D01*
X106200000Y-44805682D01*
X106356762Y-44785044D01*
X106502841Y-44724536D01*
X106565394Y-44676537D01*
X106631616Y-44650937D01*
X106642099Y-44650500D01*
X121357901Y-44650500D01*
X121426022Y-44670502D01*
X121434605Y-44676537D01*
X121451391Y-44689417D01*
X121497159Y-44724536D01*
X121643238Y-44785044D01*
X121800000Y-44805682D01*
X121956762Y-44785044D01*
X122102841Y-44724536D01*
X122165394Y-44676537D01*
X122231616Y-44650937D01*
X122242099Y-44650500D01*
X136957901Y-44650500D01*
X137026022Y-44670502D01*
X137034605Y-44676537D01*
X137051391Y-44689417D01*
X137097159Y-44724536D01*
X137243238Y-44785044D01*
X137400000Y-44805682D01*
X137556762Y-44785044D01*
X137702841Y-44724536D01*
X137765394Y-44676537D01*
X137831616Y-44650937D01*
X137842099Y-44650500D01*
X152557901Y-44650500D01*
X152626022Y-44670502D01*
X152634605Y-44676537D01*
X152651391Y-44689417D01*
X152697159Y-44724536D01*
X152843238Y-44785044D01*
X153000000Y-44805682D01*
X153156762Y-44785044D01*
X153302841Y-44724536D01*
X153365394Y-44676537D01*
X153431616Y-44650937D01*
X153442099Y-44650500D01*
X168157901Y-44650500D01*
X168226022Y-44670502D01*
X168234605Y-44676537D01*
X168251391Y-44689417D01*
X168297159Y-44724536D01*
X168443238Y-44785044D01*
X168600000Y-44805682D01*
X168756762Y-44785044D01*
X168902841Y-44724536D01*
X168965394Y-44676537D01*
X169031616Y-44650937D01*
X169042099Y-44650500D01*
X183757901Y-44650500D01*
X183826022Y-44670502D01*
X183834605Y-44676537D01*
X183851391Y-44689417D01*
X183897159Y-44724536D01*
X184043238Y-44785044D01*
X184200000Y-44805682D01*
X184356762Y-44785044D01*
X184502841Y-44724536D01*
X184565394Y-44676537D01*
X184631616Y-44650937D01*
X184642099Y-44650500D01*
X195057901Y-44650500D01*
X195126022Y-44670502D01*
X195134605Y-44676537D01*
X195151391Y-44689417D01*
X195197159Y-44724536D01*
X195343238Y-44785044D01*
X195500000Y-44805682D01*
X195656762Y-44785044D01*
X195802841Y-44724536D01*
X195865394Y-44676537D01*
X195931616Y-44650937D01*
X195942099Y-44650500D01*
X196610593Y-44650500D01*
X196678714Y-44670502D01*
X196725207Y-44724158D01*
X196735311Y-44794432D01*
X196705817Y-44859012D01*
X196690526Y-44873900D01*
X196538589Y-44998589D01*
X196407314Y-45158551D01*
X196370249Y-45227896D01*
X196320497Y-45278544D01*
X196259127Y-45294500D01*
X185442099Y-45294500D01*
X185373978Y-45274498D01*
X185365395Y-45268463D01*
X185302840Y-45220463D01*
X185156761Y-45159955D01*
X185000000Y-45139318D01*
X184843238Y-45159955D01*
X184697159Y-45220463D01*
X184634605Y-45268463D01*
X184568384Y-45294063D01*
X184557901Y-45294500D01*
X169842099Y-45294500D01*
X169773978Y-45274498D01*
X169765395Y-45268463D01*
X169702840Y-45220463D01*
X169556761Y-45159955D01*
X169400000Y-45139318D01*
X169243238Y-45159955D01*
X169097159Y-45220463D01*
X169034605Y-45268463D01*
X168968384Y-45294063D01*
X168957901Y-45294500D01*
X154242099Y-45294500D01*
X154173978Y-45274498D01*
X154165395Y-45268463D01*
X154102840Y-45220463D01*
X153956761Y-45159955D01*
X153800000Y-45139318D01*
X153643238Y-45159955D01*
X153497159Y-45220463D01*
X153434605Y-45268463D01*
X153368384Y-45294063D01*
X153357901Y-45294500D01*
X138642099Y-45294500D01*
X138573978Y-45274498D01*
X138565395Y-45268463D01*
X138502840Y-45220463D01*
X138356761Y-45159955D01*
X138200000Y-45139318D01*
X138043238Y-45159955D01*
X137897159Y-45220463D01*
X137834605Y-45268463D01*
X137768384Y-45294063D01*
X137757901Y-45294500D01*
X123042099Y-45294500D01*
X122973978Y-45274498D01*
X122965395Y-45268463D01*
X122902840Y-45220463D01*
X122756761Y-45159955D01*
X122600000Y-45139318D01*
X122443238Y-45159955D01*
X122297159Y-45220463D01*
X122234605Y-45268463D01*
X122168384Y-45294063D01*
X122157901Y-45294500D01*
X107442099Y-45294500D01*
X107373978Y-45274498D01*
X107365395Y-45268463D01*
X107302840Y-45220463D01*
X107156761Y-45159955D01*
X107000000Y-45139318D01*
X106843238Y-45159955D01*
X106697159Y-45220463D01*
X106634605Y-45268463D01*
X106568384Y-45294063D01*
X106557901Y-45294500D01*
X91842099Y-45294500D01*
X91773978Y-45274498D01*
X91765395Y-45268463D01*
X91702840Y-45220463D01*
X91556761Y-45159955D01*
X91400000Y-45139318D01*
X91243238Y-45159955D01*
X91097159Y-45220463D01*
X91034605Y-45268463D01*
X90968384Y-45294063D01*
X90957901Y-45294500D01*
X76242099Y-45294500D01*
X76173978Y-45274498D01*
X76165395Y-45268463D01*
X76102840Y-45220463D01*
X75956761Y-45159955D01*
X75800000Y-45139318D01*
X75643238Y-45159955D01*
X75497159Y-45220463D01*
X75434605Y-45268463D01*
X75368384Y-45294063D01*
X75357901Y-45294500D01*
X60642099Y-45294500D01*
X60573978Y-45274498D01*
X60565395Y-45268463D01*
X60502840Y-45220463D01*
X60356761Y-45159955D01*
X60200000Y-45139318D01*
X60043238Y-45159955D01*
X59897159Y-45220463D01*
X59834605Y-45268463D01*
X59768384Y-45294063D01*
X59757901Y-45294500D01*
X45042099Y-45294500D01*
X44973978Y-45274498D01*
X44965395Y-45268463D01*
X44902840Y-45220463D01*
X44756761Y-45159955D01*
X44600000Y-45139318D01*
X44443238Y-45159955D01*
X44297159Y-45220463D01*
X44234605Y-45268463D01*
X44168384Y-45294063D01*
X44157901Y-45294500D01*
X30800744Y-45294500D01*
X30732623Y-45274498D01*
X30724040Y-45268463D01*
X30602840Y-45175463D01*
X30456761Y-45114955D01*
X30300000Y-45094318D01*
X30143238Y-45114955D01*
X29997157Y-45175464D01*
X29871717Y-45271717D01*
X29775464Y-45397157D01*
X29714955Y-45543238D01*
X29694318Y-45700000D01*
X29714955Y-45856761D01*
X29775464Y-46002842D01*
X29871717Y-46128282D01*
X29997157Y-46224535D01*
X29997158Y-46224535D01*
X29997159Y-46224536D01*
X30143238Y-46285044D01*
X30300000Y-46305682D01*
X30456762Y-46285044D01*
X30602841Y-46224536D01*
X30606085Y-46222046D01*
X30606751Y-46221536D01*
X30672972Y-46195937D01*
X30683453Y-46195500D01*
X31287098Y-46195500D01*
X44157901Y-46195500D01*
X44226022Y-46215502D01*
X44234605Y-46221537D01*
X44287473Y-46262104D01*
X44297159Y-46269536D01*
X44443238Y-46330044D01*
X44600000Y-46350682D01*
X44756762Y-46330044D01*
X44902841Y-46269536D01*
X44954034Y-46230254D01*
X44965395Y-46221537D01*
X45031616Y-46195937D01*
X45042099Y-46195500D01*
X59757901Y-46195500D01*
X59826022Y-46215502D01*
X59834605Y-46221537D01*
X59887473Y-46262104D01*
X59897159Y-46269536D01*
X60043238Y-46330044D01*
X60200000Y-46350682D01*
X60356762Y-46330044D01*
X60502841Y-46269536D01*
X60554034Y-46230254D01*
X60565395Y-46221537D01*
X60631616Y-46195937D01*
X60642099Y-46195500D01*
X75357901Y-46195500D01*
X75426022Y-46215502D01*
X75434605Y-46221537D01*
X75487473Y-46262104D01*
X75497159Y-46269536D01*
X75643238Y-46330044D01*
X75800000Y-46350682D01*
X75956762Y-46330044D01*
X76102841Y-46269536D01*
X76154034Y-46230254D01*
X76165395Y-46221537D01*
X76231616Y-46195937D01*
X76242099Y-46195500D01*
X90957901Y-46195500D01*
X91026022Y-46215502D01*
X91034605Y-46221537D01*
X91087473Y-46262104D01*
X91097159Y-46269536D01*
X91243238Y-46330044D01*
X91400000Y-46350682D01*
X91556762Y-46330044D01*
X91702841Y-46269536D01*
X91754034Y-46230254D01*
X91765395Y-46221537D01*
X91831616Y-46195937D01*
X91842099Y-46195500D01*
X106557901Y-46195500D01*
X106626022Y-46215502D01*
X106634605Y-46221537D01*
X106687473Y-46262104D01*
X106697159Y-46269536D01*
X106843238Y-46330044D01*
X107000000Y-46350682D01*
X107156762Y-46330044D01*
X107302841Y-46269536D01*
X107354034Y-46230254D01*
X107365395Y-46221537D01*
X107431616Y-46195937D01*
X107442099Y-46195500D01*
X122157901Y-46195500D01*
X122226022Y-46215502D01*
X122234605Y-46221537D01*
X122287473Y-46262104D01*
X122297159Y-46269536D01*
X122443238Y-46330044D01*
X122600000Y-46350682D01*
X122756762Y-46330044D01*
X122902841Y-46269536D01*
X122954034Y-46230254D01*
X122965395Y-46221537D01*
X123031616Y-46195937D01*
X123042099Y-46195500D01*
X137757901Y-46195500D01*
X137826022Y-46215502D01*
X137834605Y-46221537D01*
X137887473Y-46262104D01*
X137897159Y-46269536D01*
X138043238Y-46330044D01*
X138200000Y-46350682D01*
X138356762Y-46330044D01*
X138502841Y-46269536D01*
X138554034Y-46230254D01*
X138565395Y-46221537D01*
X138631616Y-46195937D01*
X138642099Y-46195500D01*
X153357901Y-46195500D01*
X153426022Y-46215502D01*
X153434605Y-46221537D01*
X153487473Y-46262104D01*
X153497159Y-46269536D01*
X153643238Y-46330044D01*
X153800000Y-46350682D01*
X153956762Y-46330044D01*
X154102841Y-46269536D01*
X154154034Y-46230254D01*
X154165395Y-46221537D01*
X154231616Y-46195937D01*
X154242099Y-46195500D01*
X168957901Y-46195500D01*
X169026022Y-46215502D01*
X169034605Y-46221537D01*
X169087473Y-46262104D01*
X169097159Y-46269536D01*
X169243238Y-46330044D01*
X169400000Y-46350682D01*
X169556762Y-46330044D01*
X169702841Y-46269536D01*
X169754034Y-46230254D01*
X169765395Y-46221537D01*
X169831616Y-46195937D01*
X169842099Y-46195500D01*
X184557901Y-46195500D01*
X184626022Y-46215502D01*
X184634605Y-46221537D01*
X184687473Y-46262104D01*
X184697159Y-46269536D01*
X184843238Y-46330044D01*
X185000000Y-46350682D01*
X185156762Y-46330044D01*
X185302841Y-46269536D01*
X185354034Y-46230254D01*
X185365395Y-46221537D01*
X185431616Y-46195937D01*
X185442099Y-46195500D01*
X194487098Y-46195500D01*
X196259127Y-46195500D01*
X196327248Y-46215502D01*
X196370248Y-46262103D01*
X196407315Y-46331450D01*
X196458609Y-46393952D01*
X196538589Y-46491410D01*
X196698549Y-46622684D01*
X196698550Y-46622685D01*
X196881046Y-46720232D01*
X197079066Y-46780300D01*
X197285000Y-46800583D01*
X197490934Y-46780300D01*
X197688954Y-46720232D01*
X197871450Y-46622685D01*
X198031410Y-46491410D01*
X198162685Y-46331450D01*
X198260232Y-46148954D01*
X198320300Y-45950934D01*
X198340583Y-45745000D01*
X198320300Y-45539066D01*
X198260232Y-45341046D01*
X198162685Y-45158550D01*
X198126908Y-45114955D01*
X198031410Y-44998589D01*
X197879474Y-44873900D01*
X197839505Y-44815223D01*
X197837604Y-44744252D01*
X197874374Y-44683519D01*
X197938142Y-44652307D01*
X197959407Y-44650500D01*
X198041206Y-44650500D01*
X198109327Y-44670502D01*
X198130301Y-44687405D01*
X198781045Y-45338149D01*
X198815071Y-45400461D01*
X198812525Y-45463818D01*
X198789699Y-45539066D01*
X198769416Y-45745000D01*
X198789699Y-45950929D01*
X198789699Y-45950931D01*
X198789700Y-45950934D01*
X198849768Y-46148954D01*
X198849769Y-46148956D01*
X198947314Y-46331449D01*
X199078589Y-46491410D01*
X199238550Y-46622684D01*
X199238550Y-46622685D01*
X199421046Y-46720232D01*
X199619066Y-46780300D01*
X199825000Y-46800583D01*
X200030934Y-46780300D01*
X200228954Y-46720232D01*
X200411450Y-46622685D01*
X200571410Y-46491410D01*
X200702685Y-46331450D01*
X200800232Y-46148954D01*
X200860300Y-45950934D01*
X200880583Y-45745000D01*
X200860300Y-45539066D01*
X200800232Y-45341046D01*
X200702685Y-45158550D01*
X200666908Y-45114955D01*
X200571410Y-44998589D01*
X200411449Y-44867314D01*
X200228956Y-44769769D01*
X200228955Y-44769768D01*
X200228954Y-44769768D01*
X200030934Y-44709700D01*
X200030931Y-44709699D01*
X200030929Y-44709699D01*
X199825000Y-44689416D01*
X199619068Y-44709699D01*
X199543820Y-44732525D01*
X199472826Y-44733158D01*
X199418150Y-44701046D01*
X198621447Y-43904344D01*
X198612031Y-43893808D01*
X198597427Y-43875495D01*
X198589879Y-43866030D01*
X198589878Y-43866029D01*
X198589877Y-43866028D01*
X198542657Y-43833833D01*
X198538816Y-43831108D01*
X198536525Y-43829417D01*
X198492882Y-43797207D01*
X198492880Y-43797206D01*
X198487868Y-43793507D01*
X198483620Y-43791362D01*
X198459783Y-43784009D01*
X198423041Y-43772676D01*
X198418593Y-43771212D01*
X198358831Y-43750300D01*
X198354119Y-43749500D01*
X198347902Y-43749500D01*
X198290785Y-43749500D01*
X198286074Y-43749412D01*
X198222763Y-43747043D01*
X198204101Y-43749500D01*
X195942099Y-43749500D01*
X195873978Y-43729498D01*
X195865395Y-43723463D01*
X195802840Y-43675463D01*
X195656761Y-43614955D01*
X195500000Y-43594318D01*
X195343238Y-43614955D01*
X195197159Y-43675463D01*
X195134605Y-43723463D01*
X195068384Y-43749063D01*
X195057901Y-43749500D01*
X184642099Y-43749500D01*
X184573978Y-43729498D01*
X184565395Y-43723463D01*
X184502840Y-43675463D01*
X184356761Y-43614955D01*
X184200000Y-43594318D01*
X184043238Y-43614955D01*
X183897159Y-43675463D01*
X183834605Y-43723463D01*
X183768384Y-43749063D01*
X183757901Y-43749500D01*
X169042099Y-43749500D01*
X168973978Y-43729498D01*
X168965395Y-43723463D01*
X168902840Y-43675463D01*
X168756761Y-43614955D01*
X168600000Y-43594318D01*
X168443238Y-43614955D01*
X168297159Y-43675463D01*
X168234605Y-43723463D01*
X168168384Y-43749063D01*
X168157901Y-43749500D01*
X153442099Y-43749500D01*
X153373978Y-43729498D01*
X153365395Y-43723463D01*
X153302840Y-43675463D01*
X153156761Y-43614955D01*
X153000000Y-43594318D01*
X152843238Y-43614955D01*
X152697159Y-43675463D01*
X152634605Y-43723463D01*
X152568384Y-43749063D01*
X152557901Y-43749500D01*
X137842099Y-43749500D01*
X137773978Y-43729498D01*
X137765395Y-43723463D01*
X137702840Y-43675463D01*
X137556761Y-43614955D01*
X137400000Y-43594318D01*
X137243238Y-43614955D01*
X137097159Y-43675463D01*
X137034605Y-43723463D01*
X136968384Y-43749063D01*
X136957901Y-43749500D01*
X122242099Y-43749500D01*
X122173978Y-43729498D01*
X122165395Y-43723463D01*
X122102840Y-43675463D01*
X121956761Y-43614955D01*
X121800000Y-43594318D01*
X121643238Y-43614955D01*
X121497159Y-43675463D01*
X121434605Y-43723463D01*
X121368384Y-43749063D01*
X121357901Y-43749500D01*
X106642099Y-43749500D01*
X106573978Y-43729498D01*
X106565395Y-43723463D01*
X106502840Y-43675463D01*
X106356761Y-43614955D01*
X106220636Y-43597034D01*
X106200000Y-43594318D01*
X106199999Y-43594318D01*
X106043238Y-43614955D01*
X105897159Y-43675463D01*
X105834605Y-43723463D01*
X105768384Y-43749063D01*
X105757901Y-43749500D01*
X91042099Y-43749500D01*
X90973978Y-43729498D01*
X90965395Y-43723463D01*
X90902840Y-43675463D01*
X90756761Y-43614955D01*
X90620636Y-43597034D01*
X90600000Y-43594318D01*
X90599999Y-43594318D01*
X90443238Y-43614955D01*
X90297159Y-43675463D01*
X90234605Y-43723463D01*
X90168384Y-43749063D01*
X90157901Y-43749500D01*
X75442099Y-43749500D01*
X75373978Y-43729498D01*
X75365395Y-43723463D01*
X75302840Y-43675463D01*
X75156761Y-43614955D01*
X75000000Y-43594318D01*
X74843238Y-43614955D01*
X74697159Y-43675463D01*
X74634605Y-43723463D01*
X74568384Y-43749063D01*
X74557901Y-43749500D01*
X59842099Y-43749500D01*
X59773978Y-43729498D01*
X59765395Y-43723463D01*
X59702840Y-43675463D01*
X59556761Y-43614955D01*
X59400000Y-43594318D01*
X59243238Y-43614955D01*
X59097159Y-43675463D01*
X59034605Y-43723463D01*
X58968384Y-43749063D01*
X58957901Y-43749500D01*
X44242099Y-43749500D01*
X44173978Y-43729498D01*
X44165395Y-43723463D01*
X44102840Y-43675463D01*
X43956761Y-43614955D01*
X43800000Y-43594318D01*
X43643238Y-43614955D01*
X43497159Y-43675463D01*
X43434605Y-43723463D01*
X43368384Y-43749063D01*
X43357901Y-43749500D01*
X30370407Y-43749500D01*
X30302286Y-43729498D01*
X30298222Y-43724808D01*
X30249008Y-43747995D01*
X30229593Y-43749500D01*
X29802378Y-43749500D01*
X29788272Y-43748708D01*
X29752965Y-43744730D01*
X29752964Y-43744730D01*
X29696832Y-43755350D01*
X29692191Y-43756138D01*
X29629560Y-43765579D01*
X29625027Y-43767070D01*
X29569013Y-43796674D01*
X29564811Y-43798795D01*
X29507762Y-43826269D01*
X29503851Y-43829044D01*
X29459071Y-43873823D01*
X29455681Y-43877089D01*
X29409241Y-43920180D01*
X29397782Y-43935112D01*
X28631849Y-44701045D01*
X28569537Y-44735071D01*
X28506179Y-44732525D01*
X28478596Y-44724158D01*
X28430934Y-44709700D01*
X28430931Y-44709699D01*
X28224999Y-44689416D01*
X28019070Y-44709699D01*
X28019067Y-44709699D01*
X28019066Y-44709700D01*
X27821046Y-44769768D01*
X27821043Y-44769769D01*
X27638550Y-44867314D01*
X27478589Y-44998589D01*
X27347314Y-45158550D01*
X27249769Y-45341043D01*
X27189699Y-45539070D01*
X27169416Y-45744999D01*
X26740583Y-45744999D01*
X26720300Y-45539066D01*
X26660232Y-45341046D01*
X26562685Y-45158550D01*
X26526908Y-45114955D01*
X26431410Y-44998589D01*
X26271449Y-44867314D01*
X26202102Y-44830246D01*
X26151455Y-44780493D01*
X26135500Y-44719125D01*
X26135500Y-44453793D01*
X26155502Y-44385672D01*
X26172405Y-44364698D01*
X27149698Y-43387405D01*
X27212010Y-43353379D01*
X27238793Y-43350500D01*
X29857901Y-43350500D01*
X29926022Y-43370502D01*
X29934605Y-43376537D01*
X29997159Y-43424536D01*
X30143238Y-43485044D01*
X30246039Y-43498578D01*
X30302386Y-43523504D01*
X30334909Y-43502604D01*
X30353961Y-43498578D01*
X30387219Y-43494199D01*
X30456762Y-43485044D01*
X30602841Y-43424536D01*
X30728282Y-43328282D01*
X30824536Y-43202841D01*
X30885044Y-43056762D01*
X30905682Y-42900000D01*
X30885044Y-42743238D01*
X30824536Y-42597159D01*
X30824535Y-42597158D01*
X30824535Y-42597157D01*
X30728282Y-42471717D01*
X30602842Y-42375464D01*
X30456761Y-42314955D01*
X30300000Y-42294318D01*
X30143238Y-42314955D01*
X29997159Y-42375463D01*
X29934605Y-42423463D01*
X29868384Y-42449063D01*
X29857901Y-42449500D01*
X27032378Y-42449500D01*
X27018272Y-42448708D01*
X27015322Y-42448375D01*
X26982963Y-42444729D01*
X26926805Y-42455354D01*
X26922165Y-42456142D01*
X26859565Y-42465577D01*
X26855018Y-42467074D01*
X26798996Y-42496682D01*
X26794792Y-42498805D01*
X26737761Y-42526270D01*
X26733851Y-42529044D01*
X26689071Y-42573823D01*
X26685681Y-42577089D01*
X26639241Y-42620180D01*
X26627782Y-42635112D01*
X25389342Y-43873553D01*
X25378809Y-43882967D01*
X25351028Y-43905122D01*
X25318840Y-43952332D01*
X25316116Y-43956172D01*
X25278511Y-44007125D01*
X25276359Y-44011388D01*
X25257690Y-44071913D01*
X25256218Y-44076387D01*
X25235301Y-44136166D01*
X25234500Y-44140885D01*
X25234500Y-44204213D01*
X25234412Y-44208924D01*
X25232043Y-44272238D01*
X25234500Y-44290898D01*
X25234500Y-44719125D01*
X25214498Y-44787246D01*
X25167898Y-44830246D01*
X25098550Y-44867314D01*
X24938589Y-44998589D01*
X24807314Y-45158550D01*
X24709769Y-45341043D01*
X24649699Y-45539070D01*
X24629416Y-45745000D01*
X21275535Y-45745000D01*
X21275539Y-44787246D01*
X21275569Y-37067766D01*
X23345787Y-37067766D01*
X23375413Y-37337015D01*
X23375414Y-37337018D01*
X23443928Y-37599088D01*
X23549870Y-37848390D01*
X23690982Y-38079610D01*
X23864255Y-38287820D01*
X23864256Y-38287821D01*
X23864258Y-38287823D01*
X24065993Y-38468578D01*
X24065995Y-38468579D01*
X24065998Y-38468582D01*
X24291910Y-38618044D01*
X24424104Y-38680014D01*
X24537171Y-38733018D01*
X24537173Y-38733018D01*
X24537176Y-38733020D01*
X24796569Y-38811060D01*
X24796572Y-38811060D01*
X24796574Y-38811061D01*
X25064558Y-38850500D01*
X25064561Y-38850500D01*
X25265330Y-38850500D01*
X25267631Y-38850500D01*
X25470156Y-38835677D01*
X25734553Y-38776780D01*
X25987558Y-38680014D01*
X26223777Y-38547441D01*
X26438177Y-38381888D01*
X26626186Y-38186881D01*
X26783799Y-37966579D01*
X26907656Y-37725675D01*
X26995118Y-37469305D01*
X27044319Y-37202933D01*
X27054212Y-36932235D01*
X27024586Y-36662982D01*
X26956072Y-36400912D01*
X26850130Y-36151610D01*
X26709018Y-35920390D01*
X26535745Y-35712180D01*
X26534495Y-35711060D01*
X26334006Y-35531421D01*
X26334003Y-35531419D01*
X26334002Y-35531418D01*
X26108090Y-35381956D01*
X26108086Y-35381954D01*
X25862828Y-35266981D01*
X25603425Y-35188938D01*
X25335442Y-35149500D01*
X25335439Y-35149500D01*
X25132369Y-35149500D01*
X25130099Y-35149666D01*
X25130075Y-35149667D01*
X24929839Y-35164323D01*
X24665449Y-35223219D01*
X24412441Y-35319985D01*
X24176225Y-35452557D01*
X23961820Y-35618114D01*
X23773815Y-35813117D01*
X23616200Y-36033422D01*
X23492342Y-36274328D01*
X23404882Y-36530693D01*
X23355681Y-36797065D01*
X23345787Y-37067766D01*
X21275569Y-37067766D01*
X21275614Y-25265187D01*
X21295616Y-25197066D01*
X21349272Y-25150573D01*
X21401614Y-25139187D01*
X29645042Y-25139187D01*
X34498614Y-25139187D01*
X34566735Y-25159189D01*
G37*
G04 #@! TD.AperFunction*
G04 #@! TA.AperFunction,Conductor*
G36*
X199365507Y-50615156D02*
G01*
X199325000Y-50753111D01*
X199325000Y-50896889D01*
X199365507Y-51034844D01*
X199393884Y-51079000D01*
X197716116Y-51079000D01*
X197744493Y-51034844D01*
X197785000Y-50896889D01*
X197785000Y-50753111D01*
X197744493Y-50615156D01*
X197716116Y-50571000D01*
X199393884Y-50571000D01*
X199365507Y-50615156D01*
G37*
G04 #@! TD.AperFunction*
G04 #@! TA.AperFunction,Conductor*
G36*
X158900000Y-35650000D02*
G01*
X155650000Y-35650000D01*
X155400000Y-36950000D01*
X154300000Y-36950000D01*
X154300000Y-33550000D01*
X155650000Y-33550000D01*
X155950000Y-33550000D01*
X158900000Y-33550000D01*
X158900000Y-35650000D01*
G37*
G04 #@! TD.AperFunction*
G04 #@! TA.AperFunction,Conductor*
G36*
X65192121Y-36120002D02*
G01*
X65238614Y-36173658D01*
X65250000Y-36226000D01*
X65250000Y-39524000D01*
X65229998Y-39592121D01*
X65176342Y-39638614D01*
X65124000Y-39650000D01*
X61426000Y-39650000D01*
X61357879Y-39629998D01*
X61311386Y-39576342D01*
X61300000Y-39524000D01*
X61300000Y-38476000D01*
X61320002Y-38407879D01*
X61373658Y-38361386D01*
X61426000Y-38350000D01*
X61899999Y-38350000D01*
X61900000Y-38350000D01*
X62250000Y-37950000D01*
X62250000Y-36226000D01*
X62270002Y-36157879D01*
X62323658Y-36111386D01*
X62376000Y-36100000D01*
X65124000Y-36100000D01*
X65192121Y-36120002D01*
G37*
G04 #@! TD.AperFunction*
G04 #@! TA.AperFunction,Conductor*
G36*
X65300000Y-35650000D02*
G01*
X62050000Y-35650000D01*
X61800000Y-36950000D01*
X60700000Y-36950000D01*
X60700000Y-33550000D01*
X62050000Y-33550000D01*
X62350000Y-33550000D01*
X65300000Y-33550000D01*
X65300000Y-35650000D01*
G37*
G04 #@! TD.AperFunction*
G04 #@! TA.AperFunction,Conductor*
G36*
X190100000Y-35650000D02*
G01*
X186850000Y-35650000D01*
X186600000Y-36950000D01*
X185500000Y-36950000D01*
X185500000Y-33550000D01*
X186850000Y-33550000D01*
X187150000Y-33550000D01*
X190100000Y-33550000D01*
X190100000Y-35650000D01*
G37*
G04 #@! TD.AperFunction*
G04 #@! TA.AperFunction,Conductor*
G36*
X112100000Y-35650000D02*
G01*
X108850000Y-35650000D01*
X108600000Y-36950000D01*
X107500000Y-36950000D01*
X107500000Y-33550000D01*
X108850000Y-33550000D01*
X109150000Y-33550000D01*
X112100000Y-33550000D01*
X112100000Y-35650000D01*
G37*
G04 #@! TD.AperFunction*
G04 #@! TA.AperFunction,Conductor*
G36*
X49700000Y-35650000D02*
G01*
X46450000Y-35650000D01*
X46200000Y-36950000D01*
X45100000Y-36950000D01*
X45100000Y-33550000D01*
X46450000Y-33550000D01*
X46750000Y-33550000D01*
X49700000Y-33550000D01*
X49700000Y-35650000D01*
G37*
G04 #@! TD.AperFunction*
G04 #@! TA.AperFunction,Conductor*
G36*
X96392121Y-36120002D02*
G01*
X96438614Y-36173658D01*
X96450000Y-36226000D01*
X96450000Y-39524000D01*
X96429998Y-39592121D01*
X96376342Y-39638614D01*
X96324000Y-39650000D01*
X92626000Y-39650000D01*
X92557879Y-39629998D01*
X92511386Y-39576342D01*
X92500000Y-39524000D01*
X92500000Y-38476000D01*
X92520002Y-38407879D01*
X92573658Y-38361386D01*
X92626000Y-38350000D01*
X93099999Y-38350000D01*
X93100000Y-38350000D01*
X93450000Y-37950000D01*
X93450000Y-36225999D01*
X93470002Y-36157879D01*
X93523658Y-36111386D01*
X93576000Y-36100000D01*
X96324000Y-36100000D01*
X96392121Y-36120002D01*
G37*
G04 #@! TD.AperFunction*
G04 #@! TA.AperFunction,Conductor*
G36*
X127700000Y-35650000D02*
G01*
X124450000Y-35650000D01*
X124200000Y-36950000D01*
X123100000Y-36950000D01*
X123100000Y-33550000D01*
X124450000Y-33550000D01*
X124750000Y-33550000D01*
X127700000Y-33550000D01*
X127700000Y-35650000D01*
G37*
G04 #@! TD.AperFunction*
G04 #@! TA.AperFunction,Conductor*
G36*
X49592121Y-36120002D02*
G01*
X49638614Y-36173658D01*
X49650000Y-36226000D01*
X49650000Y-39524000D01*
X49629998Y-39592121D01*
X49576342Y-39638614D01*
X49524000Y-39650000D01*
X45826000Y-39650000D01*
X45757879Y-39629998D01*
X45711386Y-39576342D01*
X45700000Y-39524000D01*
X45700000Y-38476000D01*
X45720002Y-38407879D01*
X45773658Y-38361386D01*
X45826000Y-38350000D01*
X46299999Y-38350000D01*
X46300000Y-38350000D01*
X46650000Y-37950000D01*
X46650000Y-36226000D01*
X46670002Y-36157879D01*
X46723658Y-36111386D01*
X46776000Y-36100000D01*
X49524000Y-36100000D01*
X49592121Y-36120002D01*
G37*
G04 #@! TD.AperFunction*
G04 #@! TA.AperFunction,Conductor*
G36*
X205592121Y-36120002D02*
G01*
X205638614Y-36173658D01*
X205650000Y-36226000D01*
X205650000Y-39524000D01*
X205629998Y-39592121D01*
X205576342Y-39638614D01*
X205524000Y-39650000D01*
X201826000Y-39650000D01*
X201757879Y-39629998D01*
X201711386Y-39576342D01*
X201700000Y-39524000D01*
X201700000Y-38476000D01*
X201720002Y-38407879D01*
X201773658Y-38361386D01*
X201826000Y-38350000D01*
X202299999Y-38350000D01*
X202300000Y-38350000D01*
X202650000Y-37950000D01*
X202650000Y-36225999D01*
X202670002Y-36157879D01*
X202723658Y-36111386D01*
X202776000Y-36100000D01*
X205524000Y-36100000D01*
X205592121Y-36120002D01*
G37*
G04 #@! TD.AperFunction*
G04 #@! TA.AperFunction,Conductor*
G36*
X80792121Y-36120002D02*
G01*
X80838614Y-36173658D01*
X80850000Y-36226000D01*
X80850000Y-39524000D01*
X80829998Y-39592121D01*
X80776342Y-39638614D01*
X80724000Y-39650000D01*
X77026000Y-39650000D01*
X76957879Y-39629998D01*
X76911386Y-39576342D01*
X76900000Y-39524000D01*
X76900000Y-38476000D01*
X76920002Y-38407879D01*
X76973658Y-38361386D01*
X77026000Y-38350000D01*
X77499999Y-38350000D01*
X77500000Y-38350000D01*
X77850000Y-37950000D01*
X77850000Y-36225999D01*
X77870002Y-36157879D01*
X77923658Y-36111386D01*
X77976000Y-36100000D01*
X80724000Y-36100000D01*
X80792121Y-36120002D01*
G37*
G04 #@! TD.AperFunction*
G04 #@! TA.AperFunction,Conductor*
G36*
X34100000Y-35650000D02*
G01*
X30850000Y-35650000D01*
X30600000Y-36950000D01*
X29500000Y-36950000D01*
X29500000Y-33550000D01*
X30850000Y-33550000D01*
X31150000Y-33550000D01*
X34100000Y-33550000D01*
X34100000Y-35650000D01*
G37*
G04 #@! TD.AperFunction*
G04 #@! TA.AperFunction,Conductor*
G36*
X33992121Y-36120002D02*
G01*
X34038614Y-36173658D01*
X34050000Y-36226000D01*
X34050000Y-39524000D01*
X34029998Y-39592121D01*
X33976342Y-39638614D01*
X33924000Y-39650000D01*
X30226000Y-39650000D01*
X30157879Y-39629998D01*
X30111386Y-39576342D01*
X30100000Y-39524000D01*
X30100000Y-38476000D01*
X30120002Y-38407879D01*
X30173658Y-38361386D01*
X30226000Y-38350000D01*
X30699999Y-38350000D01*
X30700000Y-38350000D01*
X31050000Y-37950000D01*
X31050000Y-36226000D01*
X31070002Y-36157879D01*
X31123658Y-36111386D01*
X31176000Y-36100000D01*
X33924000Y-36100000D01*
X33992121Y-36120002D01*
G37*
G04 #@! TD.AperFunction*
G04 #@! TA.AperFunction,Conductor*
G36*
X174500000Y-35650000D02*
G01*
X171250000Y-35650000D01*
X171000000Y-36950000D01*
X169900000Y-36950000D01*
X169900000Y-33550000D01*
X171250000Y-33550000D01*
X171550000Y-33550000D01*
X174500000Y-33550000D01*
X174500000Y-35650000D01*
G37*
G04 #@! TD.AperFunction*
G04 #@! TA.AperFunction,Conductor*
G36*
X174392121Y-36120002D02*
G01*
X174438614Y-36173658D01*
X174450000Y-36226000D01*
X174450000Y-39524000D01*
X174429998Y-39592121D01*
X174376342Y-39638614D01*
X174324000Y-39650000D01*
X170626000Y-39650000D01*
X170557879Y-39629998D01*
X170511386Y-39576342D01*
X170500000Y-39524000D01*
X170500000Y-38476000D01*
X170520002Y-38407879D01*
X170573658Y-38361386D01*
X170626000Y-38350000D01*
X171099999Y-38350000D01*
X171100000Y-38350000D01*
X171450000Y-37950000D01*
X171450000Y-36225999D01*
X171470002Y-36157879D01*
X171523658Y-36111386D01*
X171576000Y-36100000D01*
X174324000Y-36100000D01*
X174392121Y-36120002D01*
G37*
G04 #@! TD.AperFunction*
G04 #@! TA.AperFunction,Conductor*
G36*
X205700000Y-35650000D02*
G01*
X202450000Y-35650000D01*
X202200000Y-36950000D01*
X201100000Y-36950000D01*
X201100000Y-33550000D01*
X202450000Y-33550000D01*
X202750000Y-33550000D01*
X205700000Y-33550000D01*
X205700000Y-35650000D01*
G37*
G04 #@! TD.AperFunction*
G04 #@! TA.AperFunction,Conductor*
G36*
X158792121Y-36120002D02*
G01*
X158838614Y-36173658D01*
X158850000Y-36226000D01*
X158850000Y-39524000D01*
X158829998Y-39592121D01*
X158776342Y-39638614D01*
X158724000Y-39650000D01*
X155026000Y-39650000D01*
X154957879Y-39629998D01*
X154911386Y-39576342D01*
X154900000Y-39524000D01*
X154900000Y-38476000D01*
X154920002Y-38407879D01*
X154973658Y-38361386D01*
X155026000Y-38350000D01*
X155499999Y-38350000D01*
X155500000Y-38350000D01*
X155850000Y-37950000D01*
X155850000Y-36226000D01*
X155870002Y-36157879D01*
X155923658Y-36111386D01*
X155976000Y-36100000D01*
X158724000Y-36100000D01*
X158792121Y-36120002D01*
G37*
G04 #@! TD.AperFunction*
G04 #@! TA.AperFunction,Conductor*
G36*
X96500000Y-35650000D02*
G01*
X93250000Y-35650000D01*
X93000000Y-36950000D01*
X91900000Y-36950000D01*
X91900000Y-33550000D01*
X93250000Y-33550000D01*
X93550000Y-33550000D01*
X96500000Y-33550000D01*
X96500000Y-35650000D01*
G37*
G04 #@! TD.AperFunction*
G04 #@! TA.AperFunction,Conductor*
G36*
X143300000Y-35650000D02*
G01*
X140050000Y-35650000D01*
X139800000Y-36950000D01*
X138700000Y-36950000D01*
X138700000Y-33550000D01*
X140050000Y-33550000D01*
X140350000Y-33550000D01*
X143300000Y-33550000D01*
X143300000Y-35650000D01*
G37*
G04 #@! TD.AperFunction*
G04 #@! TA.AperFunction,Conductor*
G36*
X127592121Y-36120002D02*
G01*
X127638614Y-36173658D01*
X127650000Y-36226000D01*
X127650000Y-39524000D01*
X127629998Y-39592121D01*
X127576342Y-39638614D01*
X127524000Y-39650000D01*
X123826000Y-39650000D01*
X123757879Y-39629998D01*
X123711386Y-39576342D01*
X123700000Y-39524000D01*
X123700000Y-38476000D01*
X123720002Y-38407879D01*
X123773658Y-38361386D01*
X123826000Y-38350000D01*
X124299999Y-38350000D01*
X124300000Y-38350000D01*
X124650000Y-37950000D01*
X124649999Y-36225999D01*
X124670002Y-36157879D01*
X124723658Y-36111386D01*
X124776000Y-36100000D01*
X127524000Y-36100000D01*
X127592121Y-36120002D01*
G37*
G04 #@! TD.AperFunction*
G04 #@! TA.AperFunction,Conductor*
G36*
X111992121Y-36120002D02*
G01*
X112038614Y-36173658D01*
X112050000Y-36226000D01*
X112050000Y-39524000D01*
X112029998Y-39592121D01*
X111976342Y-39638614D01*
X111924000Y-39650000D01*
X108226000Y-39650000D01*
X108157879Y-39629998D01*
X108111386Y-39576342D01*
X108100000Y-39524000D01*
X108100000Y-38476000D01*
X108120002Y-38407879D01*
X108173658Y-38361386D01*
X108226000Y-38350000D01*
X108699999Y-38350000D01*
X108700000Y-38350000D01*
X109050000Y-37950000D01*
X109050000Y-36225999D01*
X109070002Y-36157879D01*
X109123658Y-36111386D01*
X109176000Y-36100000D01*
X111924000Y-36100000D01*
X111992121Y-36120002D01*
G37*
G04 #@! TD.AperFunction*
G04 #@! TA.AperFunction,Conductor*
G36*
X80900000Y-35650000D02*
G01*
X77650000Y-35650000D01*
X77400000Y-36950000D01*
X76300000Y-36950000D01*
X76300000Y-33550000D01*
X77650000Y-33550000D01*
X77950000Y-33550000D01*
X80900000Y-33550000D01*
X80900000Y-35650000D01*
G37*
G04 #@! TD.AperFunction*
G04 #@! TA.AperFunction,Conductor*
G36*
X143192121Y-36120002D02*
G01*
X143238614Y-36173658D01*
X143250000Y-36226000D01*
X143250000Y-39524000D01*
X143229998Y-39592121D01*
X143176342Y-39638614D01*
X143124000Y-39650000D01*
X139426000Y-39650000D01*
X139357879Y-39629998D01*
X139311386Y-39576342D01*
X139300000Y-39524000D01*
X139300000Y-38476000D01*
X139320002Y-38407879D01*
X139373658Y-38361386D01*
X139426000Y-38350000D01*
X139899999Y-38350000D01*
X139900000Y-38350000D01*
X140250000Y-37950000D01*
X140250000Y-36225999D01*
X140270002Y-36157879D01*
X140323658Y-36111386D01*
X140376000Y-36100000D01*
X143124000Y-36100000D01*
X143192121Y-36120002D01*
G37*
G04 #@! TD.AperFunction*
G04 #@! TA.AperFunction,Conductor*
G36*
X189992121Y-36120002D02*
G01*
X190038614Y-36173658D01*
X190050000Y-36226000D01*
X190050000Y-39524000D01*
X190029998Y-39592121D01*
X189976342Y-39638614D01*
X189924000Y-39650000D01*
X186226000Y-39650000D01*
X186157879Y-39629998D01*
X186111386Y-39576342D01*
X186100000Y-39524000D01*
X186100000Y-38476000D01*
X186120002Y-38407879D01*
X186173658Y-38361386D01*
X186226000Y-38350000D01*
X186699999Y-38350000D01*
X186700000Y-38350000D01*
X187050000Y-37950000D01*
X187050000Y-36226000D01*
X187070002Y-36157879D01*
X187123658Y-36111386D01*
X187176000Y-36100000D01*
X189924000Y-36100000D01*
X189992121Y-36120002D01*
G37*
G04 #@! TD.AperFunction*
M02*
