<?xml version="1.0" encoding="UTF-8" standalone="no"?>
<!DOCTYPE svg PUBLIC "-//W3C//DTD SVG 1.1//EN"
 "http://www.w3.org/Graphics/SVG/1.1/DTD/svg11.dtd">
<!-- Generated by graphviz version 10.0.1 (20240210.2158)
 -->
<!-- Pages: 1 -->
<svg width="783pt" height="260pt"
 viewBox="0.00 0.00 782.75 260.25" xmlns="http://www.w3.org/2000/svg" xmlns:xlink="http://www.w3.org/1999/xlink">
<g id="graph0" class="graph" transform="scale(1 1) rotate(0) translate(4 256.25)">
<polygon fill="#ffffff" stroke="none" points="-4,4 -4,-256.25 778.75,-256.25 778.75,4 -4,4"/>
<!-- J1 -->
<g id="node1" class="node">
<title>J1</title>
<polygon fill="#ffffff" stroke="black" points="141.75,-219.25 0,-219.25 0,0 141.75,0 141.75,-219.25"/>
<polygon fill="none" stroke="black" points="0,-195.5 0,-219.25 141.75,-219.25 141.75,-195.5 0,-195.5"/>
<text text-anchor="start" x="63.75" y="-201.95" font-family="arial" font-size="14.00">J1</text>
<polygon fill="none" stroke="black" points="0,-171.75 0,-195.5 54.5,-195.5 54.5,-171.75 0,-171.75"/>
<text text-anchor="start" x="4" y="-178.2" font-family="arial" font-size="14.00">JST PH</text>
<polygon fill="none" stroke="black" points="54.5,-171.75 54.5,-195.5 103.75,-195.5 103.75,-171.75 54.5,-171.75"/>
<text text-anchor="start" x="58.5" y="-178.2" font-family="arial" font-size="14.00">female</text>
<polygon fill="none" stroke="black" points="103.75,-171.75 103.75,-195.5 141.75,-195.5 141.75,-171.75 103.75,-171.75"/>
<text text-anchor="start" x="107.75" y="-178.2" font-family="arial" font-size="14.00">4&#45;pin</text>
<polygon fill="none" stroke="black" points="0,-148.75 0,-171.75 82.38,-171.75 82.38,-148.75 0,-148.75"/>
<text text-anchor="start" x="25.81" y="-154.45" font-family="arial" font-size="14.00">GND</text>
<polygon fill="none" stroke="black" points="82.38,-148.75 82.38,-171.75 141.75,-171.75 141.75,-148.75 82.38,-148.75"/>
<text text-anchor="start" x="108.31" y="-154.45" font-family="arial" font-size="14.00">1</text>
<polygon fill="none" stroke="black" points="0,-125.75 0,-148.75 82.38,-148.75 82.38,-125.75 0,-125.75"/>
<text text-anchor="start" x="26.94" y="-131.45" font-family="arial" font-size="14.00">VDC</text>
<polygon fill="none" stroke="black" points="82.38,-125.75 82.38,-148.75 141.75,-148.75 141.75,-125.75 82.38,-125.75"/>
<text text-anchor="start" x="108.31" y="-131.45" font-family="arial" font-size="14.00">2</text>
<polygon fill="none" stroke="black" points="0,-102.75 0,-125.75 82.38,-125.75 82.38,-102.75 0,-102.75"/>
<text text-anchor="start" x="36.69" y="-108.45" font-family="arial" font-size="14.00">A</text>
<polygon fill="none" stroke="black" points="82.38,-102.75 82.38,-125.75 141.75,-125.75 141.75,-102.75 82.38,-102.75"/>
<text text-anchor="start" x="108.31" y="-108.45" font-family="arial" font-size="14.00">3</text>
<polygon fill="none" stroke="black" points="0,-79.75 0,-102.75 82.38,-102.75 82.38,-79.75 0,-79.75"/>
<text text-anchor="start" x="36.69" y="-85.45" font-family="arial" font-size="14.00">B</text>
<polygon fill="none" stroke="black" points="82.38,-79.75 82.38,-102.75 141.75,-102.75 141.75,-79.75 82.38,-79.75"/>
<text text-anchor="start" x="108.31" y="-85.45" font-family="arial" font-size="14.00">4</text>
<polyline fill="none" stroke="black" points="141.75,-23.75 141.75,-79.75 0,-79.75 0,-23.75"/>
<image xlink:href="../img/PH-4.jpeg" width="64px" height="48px" preserveAspectRatio="xMinYMin meet" x="38.875" y="-75.75"/>
<polyline fill="none" stroke="black" points="0,-23.75 0,0 141.75,0 141.75,-23.75"/>
<text text-anchor="start" x="30.75" y="-6.45" font-family="arial" font-size="14.00">JST PH 4&#45;pin</text>
</g>
<!-- W1 -->
<g id="node3" class="node">
<title>W1</title>
<polygon fill="#ffffff" stroke="black" points="489,-252.25 285.75,-252.25 285.75,-43 489,-43 489,-252.25"/>
<polygon fill="none" stroke="black" points="285.75,-228.5 285.75,-252.25 489,-252.25 489,-228.5 285.75,-228.5"/>
<text text-anchor="start" x="376.88" y="-234.95" font-family="arial" font-size="14.00">W1</text>
<polygon fill="none" stroke="black" points="285.75,-204.75 285.75,-228.5 308,-228.5 308,-204.75 285.75,-204.75"/>
<text text-anchor="start" x="289.75" y="-211.2" font-family="arial" font-size="14.00">4x</text>
<polygon fill="none" stroke="black" points="308,-204.75 308,-228.5 439,-228.5 439,-204.75 308,-204.75"/>
<text text-anchor="start" x="312" y="-211.2" font-family="arial" font-size="14.00">24 AWG (0.25 mm²)</text>
<polygon fill="none" stroke="black" points="439,-204.75 439,-228.5 489,-228.5 489,-204.75 439,-204.75"/>
<text text-anchor="start" x="443" y="-211.2" font-family="arial" font-size="14.00">0.04 m</text>
<text text-anchor="start" x="317.08" y="-189.45" font-family="arial" font-size="14.00"> </text>
<text text-anchor="start" x="288.96" y="-170.45" font-family="arial" font-size="14.00">J1:1:GND</text>
<text text-anchor="start" x="355.88" y="-170.45" font-family="arial" font-size="14.00"> &#160;&#160;&#160;&#160;1:BK &#160;&#160;&#160;</text>
<text text-anchor="start" x="425.79" y="-170.45" font-family="arial" font-size="14.00">J2:1:GND</text>
<polygon fill="#000000" stroke="none" points="285.75,-164.75 285.75,-166.75 489,-166.75 489,-164.75 285.75,-164.75"/>
<polygon fill="#000000" stroke="none" points="285.75,-162.75 285.75,-164.75 489,-164.75 489,-162.75 285.75,-162.75"/>
<polygon fill="#000000" stroke="none" points="285.75,-160.75 285.75,-162.75 489,-162.75 489,-160.75 285.75,-160.75"/>
<text text-anchor="start" x="290.08" y="-145.45" font-family="arial" font-size="14.00">J1:2:VDC</text>
<text text-anchor="start" x="355.12" y="-145.45" font-family="arial" font-size="14.00"> &#160;&#160;&#160;&#160;2:RD &#160;&#160;&#160;</text>
<text text-anchor="start" x="426.92" y="-145.45" font-family="arial" font-size="14.00">J2:2:VDC</text>
<polygon fill="#000000" stroke="none" points="285.75,-139.75 285.75,-141.75 489,-141.75 489,-139.75 285.75,-139.75"/>
<polygon fill="#ff0000" stroke="none" points="285.75,-137.75 285.75,-139.75 489,-139.75 489,-137.75 285.75,-137.75"/>
<polygon fill="#000000" stroke="none" points="285.75,-135.75 285.75,-137.75 489,-137.75 489,-135.75 285.75,-135.75"/>
<text text-anchor="start" x="299.83" y="-120.45" font-family="arial" font-size="14.00">J1:3:A</text>
<text text-anchor="start" x="355.88" y="-120.45" font-family="arial" font-size="14.00"> &#160;&#160;&#160;&#160;3:YE &#160;&#160;&#160;</text>
<text text-anchor="start" x="436.67" y="-120.45" font-family="arial" font-size="14.00">J2:3:A</text>
<polygon fill="#000000" stroke="none" points="285.75,-114.75 285.75,-116.75 489,-116.75 489,-114.75 285.75,-114.75"/>
<polygon fill="#ffff00" stroke="none" points="285.75,-112.75 285.75,-114.75 489,-114.75 489,-112.75 285.75,-112.75"/>
<polygon fill="#000000" stroke="none" points="285.75,-110.75 285.75,-112.75 489,-112.75 489,-110.75 285.75,-110.75"/>
<text text-anchor="start" x="299.83" y="-95.45" font-family="arial" font-size="14.00">J1:4:B</text>
<text text-anchor="start" x="355.5" y="-95.45" font-family="arial" font-size="14.00"> &#160;&#160;&#160;&#160;4:BU &#160;&#160;&#160;</text>
<text text-anchor="start" x="436.67" y="-95.45" font-family="arial" font-size="14.00">J2:4:B</text>
<polygon fill="#000000" stroke="none" points="285.75,-89.75 285.75,-91.75 489,-91.75 489,-89.75 285.75,-89.75"/>
<polygon fill="#0066ff" stroke="none" points="285.75,-87.75 285.75,-89.75 489,-89.75 489,-87.75 285.75,-87.75"/>
<polygon fill="#000000" stroke="none" points="285.75,-85.75 285.75,-87.75 489,-87.75 489,-85.75 285.75,-85.75"/>
<text text-anchor="start" x="317.08" y="-70.45" font-family="arial" font-size="14.00"> </text>
<polygon fill="none" stroke="black" points="285.75,-43 285.75,-66.75 489,-66.75 489,-43 285.75,-43"/>
<text text-anchor="start" x="309.38" y="-49.45" font-family="arial" font-size="14.00">Stranded &#45; PVC Insulation</text>
</g>
<!-- J1&#45;&#45;W1 -->
<g id="edge1" class="edge">
<title>J1:e&#45;&#45;W1:w</title>
<path fill="none" stroke="#000000" stroke-width="2" d="M141.75,-158.63C206.13,-158.66 222.11,-161.66 285.75,-161.63"/>
<path fill="none" stroke="#000000" stroke-width="2" d="M141.75,-160.62C205.76,-160.62 221.74,-163.62 285.75,-163.62"/>
<path fill="none" stroke="#000000" stroke-width="2" d="M141.75,-162.62C205.39,-162.59 221.37,-165.59 285.75,-165.62"/>
</g>
<!-- J1&#45;&#45;W1 -->
<g id="edge3" class="edge">
<title>J1:e&#45;&#45;W1:w</title>
<path fill="none" stroke="#000000" stroke-width="2" d="M141.75,-135.63C205.88,-135.63 221.87,-136.63 285.75,-136.63"/>
<path fill="none" stroke="#ff0000" stroke-width="2" d="M141.75,-137.62C205.75,-137.62 221.75,-138.62 285.75,-138.62"/>
<path fill="none" stroke="#000000" stroke-width="2" d="M141.75,-139.62C205.63,-139.62 221.62,-140.62 285.75,-140.62"/>
</g>
<!-- J1&#45;&#45;W1 -->
<g id="edge5" class="edge">
<title>J1:e&#45;&#45;W1:w</title>
<path fill="none" stroke="#000000" stroke-width="2" d="M141.75,-112.63C205.63,-112.63 221.62,-111.63 285.75,-111.63"/>
<path fill="none" stroke="#ffff00" stroke-width="2" d="M141.75,-114.62C205.75,-114.62 221.75,-113.62 285.75,-113.62"/>
<path fill="none" stroke="#000000" stroke-width="2" d="M141.75,-116.62C205.88,-116.62 221.87,-115.62 285.75,-115.62"/>
</g>
<!-- J1&#45;&#45;W1 -->
<g id="edge7" class="edge">
<title>J1:e&#45;&#45;W1:w</title>
<path fill="none" stroke="#000000" stroke-width="2" d="M141.75,-89.63C205.39,-89.66 221.37,-86.66 285.75,-86.63"/>
<path fill="none" stroke="#0066ff" stroke-width="2" d="M141.75,-91.62C205.76,-91.62 221.74,-88.62 285.75,-88.62"/>
<path fill="none" stroke="#000000" stroke-width="2" d="M141.75,-93.62C206.13,-93.59 222.11,-90.59 285.75,-90.62"/>
</g>
<!-- J2 -->
<g id="node2" class="node">
<title>J2</title>
<polygon fill="#ffffff" stroke="black" points="774.75,-219.25 633,-219.25 633,0 774.75,0 774.75,-219.25"/>
<polygon fill="none" stroke="black" points="633,-195.5 633,-219.25 774.75,-219.25 774.75,-195.5 633,-195.5"/>
<text text-anchor="start" x="696.75" y="-201.95" font-family="arial" font-size="14.00">J2</text>
<polygon fill="none" stroke="black" points="633,-171.75 633,-195.5 687.5,-195.5 687.5,-171.75 633,-171.75"/>
<text text-anchor="start" x="637" y="-178.2" font-family="arial" font-size="14.00">JST PH</text>
<polygon fill="none" stroke="black" points="687.5,-171.75 687.5,-195.5 736.75,-195.5 736.75,-171.75 687.5,-171.75"/>
<text text-anchor="start" x="691.5" y="-178.2" font-family="arial" font-size="14.00">female</text>
<polygon fill="none" stroke="black" points="736.75,-171.75 736.75,-195.5 774.75,-195.5 774.75,-171.75 736.75,-171.75"/>
<text text-anchor="start" x="740.75" y="-178.2" font-family="arial" font-size="14.00">4&#45;pin</text>
<polygon fill="none" stroke="black" points="633,-148.75 633,-171.75 692.38,-171.75 692.38,-148.75 633,-148.75"/>
<text text-anchor="start" x="658.94" y="-154.45" font-family="arial" font-size="14.00">1</text>
<polygon fill="none" stroke="black" points="692.38,-148.75 692.38,-171.75 774.75,-171.75 774.75,-148.75 692.38,-148.75"/>
<text text-anchor="start" x="718.19" y="-154.45" font-family="arial" font-size="14.00">GND</text>
<polygon fill="none" stroke="black" points="633,-125.75 633,-148.75 692.38,-148.75 692.38,-125.75 633,-125.75"/>
<text text-anchor="start" x="658.94" y="-131.45" font-family="arial" font-size="14.00">2</text>
<polygon fill="none" stroke="black" points="692.38,-125.75 692.38,-148.75 774.75,-148.75 774.75,-125.75 692.38,-125.75"/>
<text text-anchor="start" x="719.31" y="-131.45" font-family="arial" font-size="14.00">VDC</text>
<polygon fill="none" stroke="black" points="633,-102.75 633,-125.75 692.38,-125.75 692.38,-102.75 633,-102.75"/>
<text text-anchor="start" x="658.94" y="-108.45" font-family="arial" font-size="14.00">3</text>
<polygon fill="none" stroke="black" points="692.38,-102.75 692.38,-125.75 774.75,-125.75 774.75,-102.75 692.38,-102.75"/>
<text text-anchor="start" x="729.06" y="-108.45" font-family="arial" font-size="14.00">A</text>
<polygon fill="none" stroke="black" points="633,-79.75 633,-102.75 692.38,-102.75 692.38,-79.75 633,-79.75"/>
<text text-anchor="start" x="658.94" y="-85.45" font-family="arial" font-size="14.00">4</text>
<polygon fill="none" stroke="black" points="692.38,-79.75 692.38,-102.75 774.75,-102.75 774.75,-79.75 692.38,-79.75"/>
<text text-anchor="start" x="729.06" y="-85.45" font-family="arial" font-size="14.00">B</text>
<polyline fill="none" stroke="black" points="774.75,-23.75 774.75,-79.75 633,-79.75 633,-23.75"/>
<image xlink:href="../img/PH-4.jpeg" width="64px" height="48px" preserveAspectRatio="xMinYMin meet" x="671.875" y="-75.75"/>
<polyline fill="none" stroke="black" points="633,-23.75 633,0 774.75,0 774.75,-23.75"/>
<text text-anchor="start" x="663.75" y="-6.45" font-family="arial" font-size="14.00">JST PH 4&#45;pin</text>
</g>
<!-- W1&#45;&#45;J2 -->
<g id="edge2" class="edge">
<title>W1:e&#45;&#45;J2:w</title>
<path fill="none" stroke="#000000" stroke-width="2" d="M489,-161.63C552.64,-161.66 568.62,-158.66 633,-158.63"/>
<path fill="none" stroke="#000000" stroke-width="2" d="M489,-163.62C553.01,-163.62 568.99,-160.62 633,-160.62"/>
<path fill="none" stroke="#000000" stroke-width="2" d="M489,-165.62C553.38,-165.59 569.36,-162.59 633,-162.62"/>
</g>
<!-- W1&#45;&#45;J2 -->
<g id="edge4" class="edge">
<title>W1:e&#45;&#45;J2:w</title>
<path fill="none" stroke="#000000" stroke-width="2" d="M489,-136.63C552.88,-136.63 568.87,-135.63 633,-135.63"/>
<path fill="none" stroke="#ff0000" stroke-width="2" d="M489,-138.62C553,-138.62 569,-137.62 633,-137.62"/>
<path fill="none" stroke="#000000" stroke-width="2" d="M489,-140.62C553.13,-140.62 569.12,-139.62 633,-139.62"/>
</g>
<!-- W1&#45;&#45;J2 -->
<g id="edge6" class="edge">
<title>W1:e&#45;&#45;J2:w</title>
<path fill="none" stroke="#000000" stroke-width="2" d="M489,-111.63C553.13,-111.63 569.12,-112.63 633,-112.63"/>
<path fill="none" stroke="#ffff00" stroke-width="2" d="M489,-113.62C553,-113.62 569,-114.62 633,-114.62"/>
<path fill="none" stroke="#000000" stroke-width="2" d="M489,-115.62C552.88,-115.62 568.87,-116.62 633,-116.62"/>
</g>
<!-- W1&#45;&#45;J2 -->
<g id="edge8" class="edge">
<title>W1:e&#45;&#45;J2:w</title>
<path fill="none" stroke="#000000" stroke-width="2" d="M489,-86.63C553.38,-86.66 569.36,-89.66 633,-89.63"/>
<path fill="none" stroke="#0066ff" stroke-width="2" d="M489,-88.62C553.01,-88.62 568.99,-91.62 633,-91.62"/>
<path fill="none" stroke="#000000" stroke-width="2" d="M489,-90.62C552.64,-90.59 568.62,-93.59 633,-93.62"/>
</g>
</g>
</svg>
