M48
; DRILL file {KiCad 5.1.9+dfsg1-1~bpo10+1} date Sat May 15 01:04:01 2021
; FORMAT={-:-/ absolute / inch / decimal}
; #@! TF.CreationDate,2021-05-15T01:04:01+00:00
; #@! TF.GenerationSoftware,Kicad,Pcbnew,5.1.9+dfsg1-1~bpo10+1
FMAT,2
INCH
T1C0.0130
T2C0.0157
T3C0.0394
%
G90
G05
T1
X2.1514Y-2.7197
X2.1514Y-2.7788
X2.2104Y-2.7197
X2.2104Y-2.7788
X2.2695Y-2.7197
X2.2695Y-2.7788
T2
X0.29Y-0.87
X0.29Y-1.1
X0.4528Y-0.2756
X0.48Y-0.82
X0.5Y-1.24
X0.54Y-0.72
X0.57Y-1.47
X0.65Y-1.47
X0.6693Y-0.2756
X0.7Y-0.92
X0.8858Y-0.2756
X2.04Y-2.86
X2.07Y-2.9
X2.235Y-2.58
X2.25Y-2.935
X2.26Y-2.54
X2.26Y-3.06
X2.2825Y-2.5925
X2.31Y-2.565
X2.315Y-3.3587
X2.36Y-2.875
X2.405Y-2.895
X2.44Y-2.82
X2.4409Y-0.5472
X2.48Y-3.08
X2.525Y-3.56
X2.5394Y-3.7795
X2.56Y-3.635
X2.5984Y-3.7795
X2.5984Y-3.8543
X2.605Y-3.42
X2.6142Y-1.7953
X2.68Y-3.3
X2.6968Y-3.5264
X2.7008Y-3.5906
X2.7126Y-3.795
X2.72Y-3.6275
X2.745Y-3.12
X2.77Y-2.955
X2.8Y-2.985
X2.816Y-3.4161
X2.8189Y-3.6378
X2.8375Y-3.2925
X2.8409Y-3.4469
X2.8825Y-3.625
X2.9055Y-3.7913
X2.92Y-3.325
X2.96Y-3.385
X2.9646Y-3.7717
X2.97Y-3.32
X3.0039Y-3.7902
X3.01Y-3.38
X3.0118Y-2.2244
X3.0236Y-3.9547
X3.024Y-4.028
X3.0335Y-3.7303
X3.0386Y-3.4189
X3.0669Y-3.3079
X3.0839Y-3.4496
X3.0941Y-3.2429
X3.1354Y-3.7343
X3.3299Y-3.7283
X3.435Y-4.0004
X3.4894Y-3.3319
X3.54Y-3.485
X3.59Y-2.255
X3.7925Y-4.0886
X3.815Y-3.255
X3.8433Y-3.8165
X3.89Y-3.255
X3.9213Y-3.9252
X4.3785Y-4.0222
X4.385Y-3.35
X4.42Y-3.205
X4.435Y-1.84
X4.4821Y-3.5587
X4.5234Y-3.5587
X4.5343Y-3.7417
X5.4976Y-1.6493
X5.5268Y-1.62
X5.748Y-1.748
X6.2362Y-2.4055
T3
X0.9696Y-1.32
X1.0696Y-1.32
X3.33Y-3.54
X3.43Y-3.54
X4.0Y-4.075
X4.1Y-4.075
X4.2Y-4.075
X4.3Y-4.075
X4.4Y-4.075
X4.5Y-4.075
T0
M30
