G04 #@! TF.GenerationSoftware,KiCad,Pcbnew,5.1.8+dfsg1-1~bpo10+1*
G04 #@! TF.CreationDate,2021-01-28T17:28:13+00:00*
G04 #@! TF.ProjectId,mobo,6d6f626f-2e6b-4696-9361-645f70636258,rev?*
G04 #@! TF.SameCoordinates,Original*
G04 #@! TF.FileFunction,Legend,Top*
G04 #@! TF.FilePolarity,Positive*
%FSLAX46Y46*%
G04 Gerber Fmt 4.6, Leading zero omitted, Abs format (unit mm)*
G04 Created by KiCad (PCBNEW 5.1.8+dfsg1-1~bpo10+1) date 2021-01-28 17:28:13*
%MOMM*%
%LPD*%
G01*
G04 APERTURE LIST*
%ADD10C,0.150000*%
%ADD11C,0.120000*%
G04 APERTURE END LIST*
D10*
X81556000Y-101927428D02*
X81663142Y-101963142D01*
X81698857Y-101998857D01*
X81734571Y-102070285D01*
X81734571Y-102177428D01*
X81698857Y-102248857D01*
X81663142Y-102284571D01*
X81591714Y-102320285D01*
X81306000Y-102320285D01*
X81306000Y-101570285D01*
X81556000Y-101570285D01*
X81627428Y-101606000D01*
X81663142Y-101641714D01*
X81698857Y-101713142D01*
X81698857Y-101784571D01*
X81663142Y-101856000D01*
X81627428Y-101891714D01*
X81556000Y-101927428D01*
X81306000Y-101927428D01*
X82198857Y-101570285D02*
X82341714Y-101570285D01*
X82413142Y-101606000D01*
X82484571Y-101677428D01*
X82520285Y-101820285D01*
X82520285Y-102070285D01*
X82484571Y-102213142D01*
X82413142Y-102284571D01*
X82341714Y-102320285D01*
X82198857Y-102320285D01*
X82127428Y-102284571D01*
X82056000Y-102213142D01*
X82020285Y-102070285D01*
X82020285Y-101820285D01*
X82056000Y-101677428D01*
X82127428Y-101606000D01*
X82198857Y-101570285D01*
X82984571Y-101570285D02*
X83127428Y-101570285D01*
X83198857Y-101606000D01*
X83270285Y-101677428D01*
X83306000Y-101820285D01*
X83306000Y-102070285D01*
X83270285Y-102213142D01*
X83198857Y-102284571D01*
X83127428Y-102320285D01*
X82984571Y-102320285D01*
X82913142Y-102284571D01*
X82841714Y-102213142D01*
X82806000Y-102070285D01*
X82806000Y-101820285D01*
X82841714Y-101677428D01*
X82913142Y-101606000D01*
X82984571Y-101570285D01*
X83520285Y-101570285D02*
X83948857Y-101570285D01*
X83734571Y-102320285D02*
X83734571Y-101570285D01*
X84591714Y-102320285D02*
X84163142Y-102320285D01*
X84377428Y-102320285D02*
X84377428Y-101570285D01*
X84306000Y-101677428D01*
X84234571Y-101748857D01*
X84163142Y-101784571D01*
X76730000Y-101927428D02*
X76837142Y-101963142D01*
X76872857Y-101998857D01*
X76908571Y-102070285D01*
X76908571Y-102177428D01*
X76872857Y-102248857D01*
X76837142Y-102284571D01*
X76765714Y-102320285D01*
X76480000Y-102320285D01*
X76480000Y-101570285D01*
X76730000Y-101570285D01*
X76801428Y-101606000D01*
X76837142Y-101641714D01*
X76872857Y-101713142D01*
X76872857Y-101784571D01*
X76837142Y-101856000D01*
X76801428Y-101891714D01*
X76730000Y-101927428D01*
X76480000Y-101927428D01*
X77372857Y-101570285D02*
X77515714Y-101570285D01*
X77587142Y-101606000D01*
X77658571Y-101677428D01*
X77694285Y-101820285D01*
X77694285Y-102070285D01*
X77658571Y-102213142D01*
X77587142Y-102284571D01*
X77515714Y-102320285D01*
X77372857Y-102320285D01*
X77301428Y-102284571D01*
X77230000Y-102213142D01*
X77194285Y-102070285D01*
X77194285Y-101820285D01*
X77230000Y-101677428D01*
X77301428Y-101606000D01*
X77372857Y-101570285D01*
X78158571Y-101570285D02*
X78301428Y-101570285D01*
X78372857Y-101606000D01*
X78444285Y-101677428D01*
X78480000Y-101820285D01*
X78480000Y-102070285D01*
X78444285Y-102213142D01*
X78372857Y-102284571D01*
X78301428Y-102320285D01*
X78158571Y-102320285D01*
X78087142Y-102284571D01*
X78015714Y-102213142D01*
X77980000Y-102070285D01*
X77980000Y-101820285D01*
X78015714Y-101677428D01*
X78087142Y-101606000D01*
X78158571Y-101570285D01*
X78694285Y-101570285D02*
X79122857Y-101570285D01*
X78908571Y-102320285D02*
X78908571Y-101570285D01*
X79515714Y-101570285D02*
X79587142Y-101570285D01*
X79658571Y-101606000D01*
X79694285Y-101641714D01*
X79730000Y-101713142D01*
X79765714Y-101856000D01*
X79765714Y-102034571D01*
X79730000Y-102177428D01*
X79694285Y-102248857D01*
X79658571Y-102284571D01*
X79587142Y-102320285D01*
X79515714Y-102320285D01*
X79444285Y-102284571D01*
X79408571Y-102248857D01*
X79372857Y-102177428D01*
X79337142Y-102034571D01*
X79337142Y-101856000D01*
X79372857Y-101713142D01*
X79408571Y-101641714D01*
X79444285Y-101606000D01*
X79515714Y-101570285D01*
X148020000Y-52619904D02*
X147972380Y-52715142D01*
X147972380Y-52858000D01*
X148020000Y-53000857D01*
X148115238Y-53096095D01*
X148210476Y-53143714D01*
X148400952Y-53191333D01*
X148543809Y-53191333D01*
X148734285Y-53143714D01*
X148829523Y-53096095D01*
X148924761Y-53000857D01*
X148972380Y-52858000D01*
X148972380Y-52762761D01*
X148924761Y-52619904D01*
X148877142Y-52572285D01*
X148543809Y-52572285D01*
X148543809Y-52762761D01*
X148972380Y-52143714D02*
X147972380Y-52143714D01*
X148972380Y-51572285D01*
X147972380Y-51572285D01*
X148972380Y-51096095D02*
X147972380Y-51096095D01*
X147972380Y-50858000D01*
X148020000Y-50715142D01*
X148115238Y-50619904D01*
X148210476Y-50572285D01*
X148400952Y-50524666D01*
X148543809Y-50524666D01*
X148734285Y-50572285D01*
X148829523Y-50619904D01*
X148924761Y-50715142D01*
X148972380Y-50858000D01*
X148972380Y-51096095D01*
X146372380Y-52534190D02*
X146372380Y-53105619D01*
X146372380Y-52819904D02*
X145372380Y-52819904D01*
X145515238Y-52915142D01*
X145610476Y-53010380D01*
X145658095Y-53105619D01*
X145372380Y-52200857D02*
X146372380Y-51962761D01*
X145658095Y-51772285D01*
X146372380Y-51581809D01*
X145372380Y-51343714D01*
X146372380Y-50962761D02*
X145372380Y-50962761D01*
X146372380Y-49915142D02*
X145896190Y-50248476D01*
X146372380Y-50486571D02*
X145372380Y-50486571D01*
X145372380Y-50105619D01*
X145420000Y-50010380D01*
X145467619Y-49962761D01*
X145562857Y-49915142D01*
X145705714Y-49915142D01*
X145800952Y-49962761D01*
X145848571Y-50010380D01*
X145896190Y-50105619D01*
X145896190Y-50486571D01*
X145848571Y-49486571D02*
X145848571Y-49153238D01*
X146372380Y-49010380D02*
X146372380Y-49486571D01*
X145372380Y-49486571D01*
X145372380Y-49010380D01*
X143872380Y-52591333D02*
X143396190Y-52924666D01*
X143872380Y-53162761D02*
X142872380Y-53162761D01*
X142872380Y-52781809D01*
X142920000Y-52686571D01*
X142967619Y-52638952D01*
X143062857Y-52591333D01*
X143205714Y-52591333D01*
X143300952Y-52638952D01*
X143348571Y-52686571D01*
X143396190Y-52781809D01*
X143396190Y-53162761D01*
X143824761Y-52210380D02*
X143872380Y-52067523D01*
X143872380Y-51829428D01*
X143824761Y-51734190D01*
X143777142Y-51686571D01*
X143681904Y-51638952D01*
X143586666Y-51638952D01*
X143491428Y-51686571D01*
X143443809Y-51734190D01*
X143396190Y-51829428D01*
X143348571Y-52019904D01*
X143300952Y-52115142D01*
X143253333Y-52162761D01*
X143158095Y-52210380D01*
X143062857Y-52210380D01*
X142967619Y-52162761D01*
X142920000Y-52115142D01*
X142872380Y-52019904D01*
X142872380Y-51781809D01*
X142920000Y-51638952D01*
X143491428Y-51210380D02*
X143491428Y-50448476D01*
X143205714Y-49543714D02*
X143872380Y-49543714D01*
X142824761Y-49781809D02*
X143539047Y-50019904D01*
X143539047Y-49400857D01*
X143300952Y-48877047D02*
X143253333Y-48972285D01*
X143205714Y-49019904D01*
X143110476Y-49067523D01*
X143062857Y-49067523D01*
X142967619Y-49019904D01*
X142920000Y-48972285D01*
X142872380Y-48877047D01*
X142872380Y-48686571D01*
X142920000Y-48591333D01*
X142967619Y-48543714D01*
X143062857Y-48496095D01*
X143110476Y-48496095D01*
X143205714Y-48543714D01*
X143253333Y-48591333D01*
X143300952Y-48686571D01*
X143300952Y-48877047D01*
X143348571Y-48972285D01*
X143396190Y-49019904D01*
X143491428Y-49067523D01*
X143681904Y-49067523D01*
X143777142Y-49019904D01*
X143824761Y-48972285D01*
X143872380Y-48877047D01*
X143872380Y-48686571D01*
X143824761Y-48591333D01*
X143777142Y-48543714D01*
X143681904Y-48496095D01*
X143491428Y-48496095D01*
X143396190Y-48543714D01*
X143348571Y-48591333D01*
X143300952Y-48686571D01*
X142872380Y-47591333D02*
X142872380Y-48067523D01*
X143348571Y-48115142D01*
X143300952Y-48067523D01*
X143253333Y-47972285D01*
X143253333Y-47734190D01*
X143300952Y-47638952D01*
X143348571Y-47591333D01*
X143443809Y-47543714D01*
X143681904Y-47543714D01*
X143777142Y-47591333D01*
X143824761Y-47638952D01*
X143872380Y-47734190D01*
X143872380Y-47972285D01*
X143824761Y-48067523D01*
X143777142Y-48115142D01*
X143491428Y-47115142D02*
X143491428Y-46353238D01*
X141372380Y-52591333D02*
X140896190Y-52924666D01*
X141372380Y-53162761D02*
X140372380Y-53162761D01*
X140372380Y-52781809D01*
X140420000Y-52686571D01*
X140467619Y-52638952D01*
X140562857Y-52591333D01*
X140705714Y-52591333D01*
X140800952Y-52638952D01*
X140848571Y-52686571D01*
X140896190Y-52781809D01*
X140896190Y-53162761D01*
X141324761Y-52210380D02*
X141372380Y-52067523D01*
X141372380Y-51829428D01*
X141324761Y-51734190D01*
X141277142Y-51686571D01*
X141181904Y-51638952D01*
X141086666Y-51638952D01*
X140991428Y-51686571D01*
X140943809Y-51734190D01*
X140896190Y-51829428D01*
X140848571Y-52019904D01*
X140800952Y-52115142D01*
X140753333Y-52162761D01*
X140658095Y-52210380D01*
X140562857Y-52210380D01*
X140467619Y-52162761D01*
X140420000Y-52115142D01*
X140372380Y-52019904D01*
X140372380Y-51781809D01*
X140420000Y-51638952D01*
X140991428Y-51210380D02*
X140991428Y-50448476D01*
X140705714Y-49543714D02*
X141372380Y-49543714D01*
X140324761Y-49781809D02*
X141039047Y-50019904D01*
X141039047Y-49400857D01*
X140800952Y-48877047D02*
X140753333Y-48972285D01*
X140705714Y-49019904D01*
X140610476Y-49067523D01*
X140562857Y-49067523D01*
X140467619Y-49019904D01*
X140420000Y-48972285D01*
X140372380Y-48877047D01*
X140372380Y-48686571D01*
X140420000Y-48591333D01*
X140467619Y-48543714D01*
X140562857Y-48496095D01*
X140610476Y-48496095D01*
X140705714Y-48543714D01*
X140753333Y-48591333D01*
X140800952Y-48686571D01*
X140800952Y-48877047D01*
X140848571Y-48972285D01*
X140896190Y-49019904D01*
X140991428Y-49067523D01*
X141181904Y-49067523D01*
X141277142Y-49019904D01*
X141324761Y-48972285D01*
X141372380Y-48877047D01*
X141372380Y-48686571D01*
X141324761Y-48591333D01*
X141277142Y-48543714D01*
X141181904Y-48496095D01*
X140991428Y-48496095D01*
X140896190Y-48543714D01*
X140848571Y-48591333D01*
X140800952Y-48686571D01*
X140372380Y-47591333D02*
X140372380Y-48067523D01*
X140848571Y-48115142D01*
X140800952Y-48067523D01*
X140753333Y-47972285D01*
X140753333Y-47734190D01*
X140800952Y-47638952D01*
X140848571Y-47591333D01*
X140943809Y-47543714D01*
X141181904Y-47543714D01*
X141277142Y-47591333D01*
X141324761Y-47638952D01*
X141372380Y-47734190D01*
X141372380Y-47972285D01*
X141324761Y-48067523D01*
X141277142Y-48115142D01*
X140991428Y-47115142D02*
X140991428Y-46353238D01*
X141372380Y-46734190D02*
X140610476Y-46734190D01*
X137772380Y-53181809D02*
X138772380Y-52848476D01*
X137772380Y-52515142D01*
X138772380Y-52181809D02*
X138105714Y-52181809D01*
X137772380Y-52181809D02*
X137820000Y-52229428D01*
X137867619Y-52181809D01*
X137820000Y-52134190D01*
X137772380Y-52181809D01*
X137867619Y-52181809D01*
X138105714Y-51705619D02*
X138772380Y-51705619D01*
X138200952Y-51705619D02*
X138153333Y-51658000D01*
X138105714Y-51562761D01*
X138105714Y-51419904D01*
X138153333Y-51324666D01*
X138248571Y-51277047D01*
X138772380Y-51277047D01*
X114252380Y-72142857D02*
X114252380Y-72619047D01*
X114728571Y-72666666D01*
X114680952Y-72619047D01*
X114633333Y-72523809D01*
X114633333Y-72285714D01*
X114680952Y-72190476D01*
X114728571Y-72142857D01*
X114823809Y-72095238D01*
X115061904Y-72095238D01*
X115157142Y-72142857D01*
X115204761Y-72190476D01*
X115252380Y-72285714D01*
X115252380Y-72523809D01*
X115204761Y-72619047D01*
X115157142Y-72666666D01*
X114585714Y-71761904D02*
X115252380Y-71523809D01*
X114585714Y-71285714D01*
X112552380Y-72128571D02*
X112552380Y-72700000D01*
X112552380Y-72414285D02*
X111552380Y-72414285D01*
X111695238Y-72509523D01*
X111790476Y-72604761D01*
X111838095Y-72700000D01*
X111647619Y-71747619D02*
X111600000Y-71700000D01*
X111552380Y-71604761D01*
X111552380Y-71366666D01*
X111600000Y-71271428D01*
X111647619Y-71223809D01*
X111742857Y-71176190D01*
X111838095Y-71176190D01*
X111980952Y-71223809D01*
X112552380Y-71795238D01*
X112552380Y-71176190D01*
X111885714Y-70842857D02*
X112552380Y-70604761D01*
X111885714Y-70366666D01*
X111504761Y-69271428D02*
X112790476Y-70128571D01*
X111647619Y-68985714D02*
X111600000Y-68938095D01*
X111552380Y-68842857D01*
X111552380Y-68604761D01*
X111600000Y-68509523D01*
X111647619Y-68461904D01*
X111742857Y-68414285D01*
X111838095Y-68414285D01*
X111980952Y-68461904D01*
X112552380Y-69033333D01*
X112552380Y-68414285D01*
X111885714Y-67557142D02*
X112552380Y-67557142D01*
X111504761Y-67795238D02*
X112219047Y-68033333D01*
X112219047Y-67414285D01*
X111885714Y-67128571D02*
X112552380Y-66890476D01*
X111885714Y-66652380D01*
D11*
X84769500Y-56250000D02*
X87569500Y-56250000D01*
X84769500Y-52850000D02*
X88969500Y-52850000D01*
X71576000Y-81538578D02*
X71576000Y-81021422D01*
X70156000Y-81538578D02*
X70156000Y-81021422D01*
X73987922Y-79300000D02*
X74505078Y-79300000D01*
X73987922Y-80720000D02*
X74505078Y-80720000D01*
X73987922Y-83006000D02*
X74505078Y-83006000D01*
X73987922Y-81586000D02*
X74505078Y-81586000D01*
X62686000Y-84831422D02*
X62686000Y-85348578D01*
X61266000Y-84831422D02*
X61266000Y-85348578D01*
X54614578Y-75998000D02*
X54097422Y-75998000D01*
X54614578Y-77418000D02*
X54097422Y-77418000D01*
X66552578Y-78434000D02*
X66035422Y-78434000D01*
X66552578Y-77014000D02*
X66035422Y-77014000D01*
X62686000Y-81538578D02*
X62686000Y-81021422D01*
X61266000Y-81538578D02*
X61266000Y-81021422D01*
X58170578Y-75998000D02*
X57653422Y-75998000D01*
X58170578Y-77418000D02*
X57653422Y-77418000D01*
X61162000Y-69591422D02*
X61162000Y-70108578D01*
X59742000Y-69591422D02*
X59742000Y-70108578D01*
X97032578Y-87936000D02*
X96515422Y-87936000D01*
X97032578Y-89356000D02*
X96515422Y-89356000D01*
X98500000Y-99436422D02*
X98500000Y-99953578D01*
X97080000Y-99436422D02*
X97080000Y-99953578D01*
X73417500Y-98928422D02*
X73417500Y-99445578D01*
X71997500Y-98928422D02*
X71997500Y-99445578D01*
X75513000Y-98928422D02*
X75513000Y-99445578D01*
X74093000Y-98928422D02*
X74093000Y-99445578D01*
X113103922Y-91642000D02*
X113621078Y-91642000D01*
X113103922Y-90222000D02*
X113621078Y-90222000D01*
X112955000Y-79243422D02*
X112955000Y-79760578D01*
X114375000Y-79243422D02*
X114375000Y-79760578D01*
X110415000Y-79243422D02*
X110415000Y-79760578D01*
X111835000Y-79243422D02*
X111835000Y-79760578D01*
X108843578Y-88467000D02*
X108326422Y-88467000D01*
X108843578Y-87047000D02*
X108326422Y-87047000D01*
X98881000Y-85729578D02*
X98881000Y-85212422D01*
X97461000Y-85729578D02*
X97461000Y-85212422D01*
X94794000Y-85729578D02*
X94794000Y-85212422D01*
X96214000Y-85729578D02*
X96214000Y-85212422D01*
X8326000Y-21575500D02*
X8326000Y-18890500D01*
X6406000Y-21575500D02*
X8326000Y-21575500D01*
X6406000Y-18890500D02*
X6406000Y-21575500D01*
X6406000Y-24654000D02*
X6406000Y-27339000D01*
X6406000Y-27339000D02*
X8326000Y-27339000D01*
X8326000Y-27339000D02*
X8326000Y-24654000D01*
X105565000Y-82414000D02*
X98265000Y-82414000D01*
X105565000Y-78114000D02*
X98265000Y-78114000D01*
X105565000Y-82414000D02*
X105565000Y-78114000D01*
X110835000Y-91932000D02*
X106935000Y-91932000D01*
X110835000Y-89932000D02*
X106935000Y-89932000D01*
X110835000Y-91932000D02*
X110835000Y-89932000D01*
D10*
X137130000Y-63710000D02*
X137130000Y-54820000D01*
X149830000Y-63710000D02*
X149830000Y-54820000D01*
X137130000Y-54820000D02*
X149830000Y-54820000D01*
D11*
X81982000Y-101062000D02*
X81982000Y-101112000D01*
X79562000Y-101062000D02*
X79562000Y-101112000D01*
X81982000Y-95992000D02*
X81982000Y-96042000D01*
X79562000Y-95992000D02*
X79562000Y-96042000D01*
X78182000Y-96042000D02*
X79562000Y-96042000D01*
X79562000Y-101112000D02*
X81982000Y-101112000D01*
X79562000Y-95992000D02*
X81982000Y-95992000D01*
X112011000Y-73549000D02*
X114811000Y-73549000D01*
X115461000Y-74249000D02*
X115461000Y-74849000D01*
X114811000Y-75549000D02*
X112011000Y-75549000D01*
X111361000Y-74849000D02*
X111361000Y-74249000D01*
X112211000Y-75749000D02*
X111911000Y-76049000D01*
X111911000Y-76049000D02*
X112511000Y-76049000D01*
X112211000Y-75749000D02*
X112511000Y-76049000D01*
X114761000Y-73549000D02*
G75*
G02*
X115461000Y-74249000I0J-700000D01*
G01*
X115461000Y-74849000D02*
G75*
G02*
X114761000Y-75549000I-700000J0D01*
G01*
X112061000Y-75549000D02*
G75*
G02*
X111361000Y-74849000I0J700000D01*
G01*
X111361000Y-74249000D02*
G75*
G02*
X112061000Y-73549000I700000J0D01*
G01*
X100320000Y-84180000D02*
X100320000Y-91080000D01*
X105420000Y-84180000D02*
X105420000Y-91080000D01*
X83252000Y-91246000D02*
X83252000Y-89916000D01*
X84582000Y-91246000D02*
X83252000Y-91246000D01*
X85852000Y-91246000D02*
X85852000Y-88586000D01*
X85852000Y-88586000D02*
X88452000Y-88586000D01*
X85852000Y-91246000D02*
X88452000Y-91246000D01*
X88452000Y-91246000D02*
X88452000Y-88586000D01*
X28498000Y-34858000D02*
X28498000Y-32198000D01*
X25898000Y-34858000D02*
X28498000Y-34858000D01*
X25898000Y-32198000D02*
X28498000Y-32198000D01*
X25898000Y-34858000D02*
X25898000Y-32198000D01*
X24628000Y-34858000D02*
X23298000Y-34858000D01*
X23298000Y-34858000D02*
X23298000Y-33528000D01*
X10616000Y-25392748D02*
X10616000Y-25915252D01*
X9196000Y-25392748D02*
X9196000Y-25915252D01*
X9196000Y-19550748D02*
X9196000Y-20073252D01*
X10616000Y-19550748D02*
X10616000Y-20073252D01*
X62996578Y-87682000D02*
X62479422Y-87682000D01*
X62996578Y-89102000D02*
X62479422Y-89102000D01*
X81736000Y-54617252D02*
X81736000Y-54094748D01*
X80316000Y-54617252D02*
X80316000Y-54094748D01*
X90476000Y-54617252D02*
X90476000Y-54094748D01*
X91896000Y-54617252D02*
X91896000Y-54094748D01*
X112574000Y-87713078D02*
X112574000Y-87195922D01*
X113994000Y-87713078D02*
X113994000Y-87195922D01*
X112574000Y-83385922D02*
X112574000Y-83903078D01*
X113994000Y-83385922D02*
X113994000Y-83903078D01*
X6024000Y-13871000D02*
X6024000Y-14796000D01*
X8149000Y-9996000D02*
X7599000Y-9996000D01*
X8149000Y-14896000D02*
X7599000Y-14896000D01*
X9724000Y-10096000D02*
X9724000Y-14796000D01*
X6024000Y-10096000D02*
X6024000Y-11021000D01*
X6024000Y-31178000D02*
X6024000Y-32103000D01*
X9724000Y-31178000D02*
X9724000Y-35878000D01*
X8149000Y-35978000D02*
X7599000Y-35978000D01*
X8149000Y-31078000D02*
X7599000Y-31078000D01*
X6024000Y-34953000D02*
X6024000Y-35878000D01*
X93500000Y-103450000D02*
X94425000Y-103450000D01*
X89625000Y-101325000D02*
X89625000Y-101875000D01*
X94525000Y-101325000D02*
X94525000Y-101875000D01*
X89725000Y-99750000D02*
X94425000Y-99750000D01*
X89725000Y-103450000D02*
X90650000Y-103450000D01*
X64551000Y-8431000D02*
X62401000Y-8431000D01*
X64976000Y-11651000D02*
X62401000Y-11651000D01*
X62401000Y-9341000D02*
X62401000Y-8431000D01*
X62401000Y-11651000D02*
X62401000Y-10741000D01*
X109835000Y-97790000D02*
X109835000Y-101240000D01*
X109835000Y-97790000D02*
X109835000Y-95840000D01*
X114955000Y-97790000D02*
X114955000Y-99740000D01*
X114955000Y-97790000D02*
X114955000Y-95840000D01*
D10*
X58970000Y-66456000D02*
X58970000Y-72081000D01*
X53420000Y-67581000D02*
X53420000Y-72081000D01*
D11*
X108875000Y-101200000D02*
X102865000Y-101200000D01*
X106625000Y-94380000D02*
X102865000Y-94380000D01*
X102865000Y-101200000D02*
X102865000Y-99940000D01*
X102865000Y-94380000D02*
X102865000Y-95640000D01*
X70801802Y-85636887D02*
X69889634Y-84724719D01*
X71120000Y-85318689D02*
X70801802Y-85636887D01*
X71438198Y-85636887D02*
X71120000Y-85318689D01*
X76225311Y-90424000D02*
X75907113Y-90742198D01*
X75907113Y-90105802D02*
X76225311Y-90424000D01*
X66014689Y-90424000D02*
X66332887Y-90105802D01*
X66332887Y-90742198D02*
X66014689Y-90424000D01*
X71120000Y-95529311D02*
X71438198Y-95211113D01*
X70801802Y-95211113D02*
X71120000Y-95529311D01*
X107685000Y-85557000D02*
X110135000Y-85557000D01*
X109485000Y-82337000D02*
X107685000Y-82337000D01*
X68994000Y-79030000D02*
X63594000Y-79030000D01*
X68994000Y-83530000D02*
X68994000Y-79030000D01*
X12377500Y-7960000D02*
X15062500Y-7960000D01*
X12377500Y-6040000D02*
X12377500Y-7960000D01*
X15062500Y-6040000D02*
X12377500Y-6040000D01*
X20500000Y-6040000D02*
X17815000Y-6040000D01*
X17815000Y-6040000D02*
X17815000Y-7960000D01*
X17815000Y-7960000D02*
X20500000Y-7960000D01*
X23315000Y-7960000D02*
X26000000Y-7960000D01*
X23315000Y-6040000D02*
X23315000Y-7960000D01*
X26000000Y-6040000D02*
X23315000Y-6040000D01*
X14261252Y-10210000D02*
X13738748Y-10210000D01*
X14261252Y-8790000D02*
X13738748Y-8790000D01*
X19761252Y-8790000D02*
X19238748Y-8790000D01*
X19761252Y-10210000D02*
X19238748Y-10210000D01*
X25261252Y-8790000D02*
X24738748Y-8790000D01*
X25261252Y-10210000D02*
X24738748Y-10210000D01*
X76705000Y-102759000D02*
X79505000Y-102759000D01*
X80155000Y-103459000D02*
X80155000Y-104059000D01*
X79505000Y-104759000D02*
X76705000Y-104759000D01*
X76055000Y-104059000D02*
X76055000Y-103459000D01*
X76905000Y-104959000D02*
X76605000Y-105259000D01*
X76605000Y-105259000D02*
X77205000Y-105259000D01*
X76905000Y-104959000D02*
X77205000Y-105259000D01*
X79455000Y-102759000D02*
G75*
G02*
X80155000Y-103459000I0J-700000D01*
G01*
X80155000Y-104059000D02*
G75*
G02*
X79455000Y-104759000I-700000J0D01*
G01*
X76755000Y-104759000D02*
G75*
G02*
X76055000Y-104059000I0J700000D01*
G01*
X76055000Y-103459000D02*
G75*
G02*
X76755000Y-102759000I700000J0D01*
G01*
X81731000Y-104959000D02*
X82031000Y-105259000D01*
X81431000Y-105259000D02*
X82031000Y-105259000D01*
X81731000Y-104959000D02*
X81431000Y-105259000D01*
X80881000Y-104059000D02*
X80881000Y-103459000D01*
X84331000Y-104759000D02*
X81531000Y-104759000D01*
X84981000Y-103459000D02*
X84981000Y-104059000D01*
X81531000Y-102759000D02*
X84331000Y-102759000D01*
X80881000Y-103459000D02*
G75*
G02*
X81581000Y-102759000I700000J0D01*
G01*
X81581000Y-104759000D02*
G75*
G02*
X80881000Y-104059000I0J700000D01*
G01*
X84981000Y-104059000D02*
G75*
G02*
X84281000Y-104759000I-700000J0D01*
G01*
X84281000Y-102759000D02*
G75*
G02*
X84981000Y-103459000I0J-700000D01*
G01*
X72966078Y-102881500D02*
X72448922Y-102881500D01*
X72966078Y-101461500D02*
X72448922Y-101461500D01*
X71322000Y-99445578D02*
X71322000Y-98928422D01*
X69902000Y-99445578D02*
X69902000Y-98928422D01*
X102461252Y-35910000D02*
X101938748Y-35910000D01*
X102461252Y-34490000D02*
X101938748Y-34490000D01*
X101938748Y-42310000D02*
X102461252Y-42310000D01*
X101938748Y-40890000D02*
X102461252Y-40890000D01*
D10*
X100925000Y-39400000D02*
X103425000Y-39400000D01*
X100925000Y-37400000D02*
X100925000Y-39400000D01*
X103425000Y-37400000D02*
X100925000Y-37400000D01*
X103425000Y-39400000D02*
X103425000Y-37400000D01*
X85407595Y-51052380D02*
X85407595Y-51861904D01*
X85455214Y-51957142D01*
X85502833Y-52004761D01*
X85598071Y-52052380D01*
X85788547Y-52052380D01*
X85883785Y-52004761D01*
X85931404Y-51957142D01*
X85979023Y-51861904D01*
X85979023Y-51052380D01*
X86598071Y-51480952D02*
X86502833Y-51433333D01*
X86455214Y-51385714D01*
X86407595Y-51290476D01*
X86407595Y-51242857D01*
X86455214Y-51147619D01*
X86502833Y-51100000D01*
X86598071Y-51052380D01*
X86788547Y-51052380D01*
X86883785Y-51100000D01*
X86931404Y-51147619D01*
X86979023Y-51242857D01*
X86979023Y-51290476D01*
X86931404Y-51385714D01*
X86883785Y-51433333D01*
X86788547Y-51480952D01*
X86598071Y-51480952D01*
X86502833Y-51528571D01*
X86455214Y-51576190D01*
X86407595Y-51671428D01*
X86407595Y-51861904D01*
X86455214Y-51957142D01*
X86502833Y-52004761D01*
X86598071Y-52052380D01*
X86788547Y-52052380D01*
X86883785Y-52004761D01*
X86931404Y-51957142D01*
X86979023Y-51861904D01*
X86979023Y-51671428D01*
X86931404Y-51576190D01*
X86883785Y-51528571D01*
X86788547Y-51480952D01*
X70733333Y-79257142D02*
X70685714Y-79304761D01*
X70542857Y-79352380D01*
X70447619Y-79352380D01*
X70304761Y-79304761D01*
X70209523Y-79209523D01*
X70161904Y-79114285D01*
X70114285Y-78923809D01*
X70114285Y-78780952D01*
X70161904Y-78590476D01*
X70209523Y-78495238D01*
X70304761Y-78400000D01*
X70447619Y-78352380D01*
X70542857Y-78352380D01*
X70685714Y-78400000D01*
X70733333Y-78447619D01*
X71685714Y-79352380D02*
X71114285Y-79352380D01*
X71400000Y-79352380D02*
X71400000Y-78352380D01*
X71304761Y-78495238D01*
X71209523Y-78590476D01*
X71114285Y-78638095D01*
X76833333Y-80357142D02*
X76785714Y-80404761D01*
X76642857Y-80452380D01*
X76547619Y-80452380D01*
X76404761Y-80404761D01*
X76309523Y-80309523D01*
X76261904Y-80214285D01*
X76214285Y-80023809D01*
X76214285Y-79880952D01*
X76261904Y-79690476D01*
X76309523Y-79595238D01*
X76404761Y-79500000D01*
X76547619Y-79452380D01*
X76642857Y-79452380D01*
X76785714Y-79500000D01*
X76833333Y-79547619D01*
X77214285Y-79547619D02*
X77261904Y-79500000D01*
X77357142Y-79452380D01*
X77595238Y-79452380D01*
X77690476Y-79500000D01*
X77738095Y-79547619D01*
X77785714Y-79642857D01*
X77785714Y-79738095D01*
X77738095Y-79880952D01*
X77166666Y-80452380D01*
X77785714Y-80452380D01*
X76833333Y-82657142D02*
X76785714Y-82704761D01*
X76642857Y-82752380D01*
X76547619Y-82752380D01*
X76404761Y-82704761D01*
X76309523Y-82609523D01*
X76261904Y-82514285D01*
X76214285Y-82323809D01*
X76214285Y-82180952D01*
X76261904Y-81990476D01*
X76309523Y-81895238D01*
X76404761Y-81800000D01*
X76547619Y-81752380D01*
X76642857Y-81752380D01*
X76785714Y-81800000D01*
X76833333Y-81847619D01*
X77166666Y-81752380D02*
X77785714Y-81752380D01*
X77452380Y-82133333D01*
X77595238Y-82133333D01*
X77690476Y-82180952D01*
X77738095Y-82228571D01*
X77785714Y-82323809D01*
X77785714Y-82561904D01*
X77738095Y-82657142D01*
X77690476Y-82704761D01*
X77595238Y-82752380D01*
X77309523Y-82752380D01*
X77214285Y-82704761D01*
X77166666Y-82657142D01*
X60657142Y-85256666D02*
X60704761Y-85304285D01*
X60752380Y-85447142D01*
X60752380Y-85542380D01*
X60704761Y-85685238D01*
X60609523Y-85780476D01*
X60514285Y-85828095D01*
X60323809Y-85875714D01*
X60180952Y-85875714D01*
X59990476Y-85828095D01*
X59895238Y-85780476D01*
X59800000Y-85685238D01*
X59752380Y-85542380D01*
X59752380Y-85447142D01*
X59800000Y-85304285D01*
X59847619Y-85256666D01*
X60085714Y-84399523D02*
X60752380Y-84399523D01*
X59704761Y-84637619D02*
X60419047Y-84875714D01*
X60419047Y-84256666D01*
X54189333Y-78715142D02*
X54141714Y-78762761D01*
X53998857Y-78810380D01*
X53903619Y-78810380D01*
X53760761Y-78762761D01*
X53665523Y-78667523D01*
X53617904Y-78572285D01*
X53570285Y-78381809D01*
X53570285Y-78238952D01*
X53617904Y-78048476D01*
X53665523Y-77953238D01*
X53760761Y-77858000D01*
X53903619Y-77810380D01*
X53998857Y-77810380D01*
X54141714Y-77858000D01*
X54189333Y-77905619D01*
X55094095Y-77810380D02*
X54617904Y-77810380D01*
X54570285Y-78286571D01*
X54617904Y-78238952D01*
X54713142Y-78191333D01*
X54951238Y-78191333D01*
X55046476Y-78238952D01*
X55094095Y-78286571D01*
X55141714Y-78381809D01*
X55141714Y-78619904D01*
X55094095Y-78715142D01*
X55046476Y-78762761D01*
X54951238Y-78810380D01*
X54713142Y-78810380D01*
X54617904Y-78762761D01*
X54570285Y-78715142D01*
X66033333Y-76557142D02*
X65985714Y-76604761D01*
X65842857Y-76652380D01*
X65747619Y-76652380D01*
X65604761Y-76604761D01*
X65509523Y-76509523D01*
X65461904Y-76414285D01*
X65414285Y-76223809D01*
X65414285Y-76080952D01*
X65461904Y-75890476D01*
X65509523Y-75795238D01*
X65604761Y-75700000D01*
X65747619Y-75652380D01*
X65842857Y-75652380D01*
X65985714Y-75700000D01*
X66033333Y-75747619D01*
X66890476Y-75652380D02*
X66700000Y-75652380D01*
X66604761Y-75700000D01*
X66557142Y-75747619D01*
X66461904Y-75890476D01*
X66414285Y-76080952D01*
X66414285Y-76461904D01*
X66461904Y-76557142D01*
X66509523Y-76604761D01*
X66604761Y-76652380D01*
X66795238Y-76652380D01*
X66890476Y-76604761D01*
X66938095Y-76557142D01*
X66985714Y-76461904D01*
X66985714Y-76223809D01*
X66938095Y-76128571D01*
X66890476Y-76080952D01*
X66795238Y-76033333D01*
X66604761Y-76033333D01*
X66509523Y-76080952D01*
X66461904Y-76128571D01*
X66414285Y-76223809D01*
X60683142Y-81446666D02*
X60730761Y-81494285D01*
X60778380Y-81637142D01*
X60778380Y-81732380D01*
X60730761Y-81875238D01*
X60635523Y-81970476D01*
X60540285Y-82018095D01*
X60349809Y-82065714D01*
X60206952Y-82065714D01*
X60016476Y-82018095D01*
X59921238Y-81970476D01*
X59826000Y-81875238D01*
X59778380Y-81732380D01*
X59778380Y-81637142D01*
X59826000Y-81494285D01*
X59873619Y-81446666D01*
X59778380Y-81113333D02*
X59778380Y-80446666D01*
X60778380Y-80875238D01*
X57745333Y-78715142D02*
X57697714Y-78762761D01*
X57554857Y-78810380D01*
X57459619Y-78810380D01*
X57316761Y-78762761D01*
X57221523Y-78667523D01*
X57173904Y-78572285D01*
X57126285Y-78381809D01*
X57126285Y-78238952D01*
X57173904Y-78048476D01*
X57221523Y-77953238D01*
X57316761Y-77858000D01*
X57459619Y-77810380D01*
X57554857Y-77810380D01*
X57697714Y-77858000D01*
X57745333Y-77905619D01*
X58316761Y-78238952D02*
X58221523Y-78191333D01*
X58173904Y-78143714D01*
X58126285Y-78048476D01*
X58126285Y-78000857D01*
X58173904Y-77905619D01*
X58221523Y-77858000D01*
X58316761Y-77810380D01*
X58507238Y-77810380D01*
X58602476Y-77858000D01*
X58650095Y-77905619D01*
X58697714Y-78000857D01*
X58697714Y-78048476D01*
X58650095Y-78143714D01*
X58602476Y-78191333D01*
X58507238Y-78238952D01*
X58316761Y-78238952D01*
X58221523Y-78286571D01*
X58173904Y-78334190D01*
X58126285Y-78429428D01*
X58126285Y-78619904D01*
X58173904Y-78715142D01*
X58221523Y-78762761D01*
X58316761Y-78810380D01*
X58507238Y-78810380D01*
X58602476Y-78762761D01*
X58650095Y-78715142D01*
X58697714Y-78619904D01*
X58697714Y-78429428D01*
X58650095Y-78334190D01*
X58602476Y-78286571D01*
X58507238Y-78238952D01*
X62459142Y-70016666D02*
X62506761Y-70064285D01*
X62554380Y-70207142D01*
X62554380Y-70302380D01*
X62506761Y-70445238D01*
X62411523Y-70540476D01*
X62316285Y-70588095D01*
X62125809Y-70635714D01*
X61982952Y-70635714D01*
X61792476Y-70588095D01*
X61697238Y-70540476D01*
X61602000Y-70445238D01*
X61554380Y-70302380D01*
X61554380Y-70207142D01*
X61602000Y-70064285D01*
X61649619Y-70016666D01*
X62554380Y-69540476D02*
X62554380Y-69350000D01*
X62506761Y-69254761D01*
X62459142Y-69207142D01*
X62316285Y-69111904D01*
X62125809Y-69064285D01*
X61744857Y-69064285D01*
X61649619Y-69111904D01*
X61602000Y-69159523D01*
X61554380Y-69254761D01*
X61554380Y-69445238D01*
X61602000Y-69540476D01*
X61649619Y-69588095D01*
X61744857Y-69635714D01*
X61982952Y-69635714D01*
X62078190Y-69588095D01*
X62125809Y-69540476D01*
X62173428Y-69445238D01*
X62173428Y-69254761D01*
X62125809Y-69159523D01*
X62078190Y-69111904D01*
X61982952Y-69064285D01*
X96131142Y-90653142D02*
X96083523Y-90700761D01*
X95940666Y-90748380D01*
X95845428Y-90748380D01*
X95702571Y-90700761D01*
X95607333Y-90605523D01*
X95559714Y-90510285D01*
X95512095Y-90319809D01*
X95512095Y-90176952D01*
X95559714Y-89986476D01*
X95607333Y-89891238D01*
X95702571Y-89796000D01*
X95845428Y-89748380D01*
X95940666Y-89748380D01*
X96083523Y-89796000D01*
X96131142Y-89843619D01*
X97083523Y-90748380D02*
X96512095Y-90748380D01*
X96797809Y-90748380D02*
X96797809Y-89748380D01*
X96702571Y-89891238D01*
X96607333Y-89986476D01*
X96512095Y-90034095D01*
X97702571Y-89748380D02*
X97797809Y-89748380D01*
X97893047Y-89796000D01*
X97940666Y-89843619D01*
X97988285Y-89938857D01*
X98035904Y-90129333D01*
X98035904Y-90367428D01*
X97988285Y-90557904D01*
X97940666Y-90653142D01*
X97893047Y-90700761D01*
X97797809Y-90748380D01*
X97702571Y-90748380D01*
X97607333Y-90700761D01*
X97559714Y-90653142D01*
X97512095Y-90557904D01*
X97464476Y-90367428D01*
X97464476Y-90129333D01*
X97512095Y-89938857D01*
X97559714Y-89843619D01*
X97607333Y-89796000D01*
X97702571Y-89748380D01*
X99797142Y-100337857D02*
X99844761Y-100385476D01*
X99892380Y-100528333D01*
X99892380Y-100623571D01*
X99844761Y-100766428D01*
X99749523Y-100861666D01*
X99654285Y-100909285D01*
X99463809Y-100956904D01*
X99320952Y-100956904D01*
X99130476Y-100909285D01*
X99035238Y-100861666D01*
X98940000Y-100766428D01*
X98892380Y-100623571D01*
X98892380Y-100528333D01*
X98940000Y-100385476D01*
X98987619Y-100337857D01*
X99892380Y-99385476D02*
X99892380Y-99956904D01*
X99892380Y-99671190D02*
X98892380Y-99671190D01*
X99035238Y-99766428D01*
X99130476Y-99861666D01*
X99178095Y-99956904D01*
X99892380Y-98433095D02*
X99892380Y-99004523D01*
X99892380Y-98718809D02*
X98892380Y-98718809D01*
X99035238Y-98814047D01*
X99130476Y-98909285D01*
X99178095Y-99004523D01*
X72001142Y-97385142D02*
X71953523Y-97432761D01*
X71810666Y-97480380D01*
X71715428Y-97480380D01*
X71572571Y-97432761D01*
X71477333Y-97337523D01*
X71429714Y-97242285D01*
X71382095Y-97051809D01*
X71382095Y-96908952D01*
X71429714Y-96718476D01*
X71477333Y-96623238D01*
X71572571Y-96528000D01*
X71715428Y-96480380D01*
X71810666Y-96480380D01*
X71953523Y-96528000D01*
X72001142Y-96575619D01*
X72953523Y-97480380D02*
X72382095Y-97480380D01*
X72667809Y-97480380D02*
X72667809Y-96480380D01*
X72572571Y-96623238D01*
X72477333Y-96718476D01*
X72382095Y-96766095D01*
X73334476Y-96575619D02*
X73382095Y-96528000D01*
X73477333Y-96480380D01*
X73715428Y-96480380D01*
X73810666Y-96528000D01*
X73858285Y-96575619D01*
X73905904Y-96670857D01*
X73905904Y-96766095D01*
X73858285Y-96908952D01*
X73286857Y-97480380D01*
X73905904Y-97480380D01*
X76810142Y-99829857D02*
X76857761Y-99877476D01*
X76905380Y-100020333D01*
X76905380Y-100115571D01*
X76857761Y-100258428D01*
X76762523Y-100353666D01*
X76667285Y-100401285D01*
X76476809Y-100448904D01*
X76333952Y-100448904D01*
X76143476Y-100401285D01*
X76048238Y-100353666D01*
X75953000Y-100258428D01*
X75905380Y-100115571D01*
X75905380Y-100020333D01*
X75953000Y-99877476D01*
X76000619Y-99829857D01*
X76905380Y-98877476D02*
X76905380Y-99448904D01*
X76905380Y-99163190D02*
X75905380Y-99163190D01*
X76048238Y-99258428D01*
X76143476Y-99353666D01*
X76191095Y-99448904D01*
X75905380Y-98544142D02*
X75905380Y-97925095D01*
X76286333Y-98258428D01*
X76286333Y-98115571D01*
X76333952Y-98020333D01*
X76381571Y-97972714D01*
X76476809Y-97925095D01*
X76714904Y-97925095D01*
X76810142Y-97972714D01*
X76857761Y-98020333D01*
X76905380Y-98115571D01*
X76905380Y-98401285D01*
X76857761Y-98496523D01*
X76810142Y-98544142D01*
X111757142Y-92957142D02*
X111709523Y-93004761D01*
X111566666Y-93052380D01*
X111471428Y-93052380D01*
X111328571Y-93004761D01*
X111233333Y-92909523D01*
X111185714Y-92814285D01*
X111138095Y-92623809D01*
X111138095Y-92480952D01*
X111185714Y-92290476D01*
X111233333Y-92195238D01*
X111328571Y-92100000D01*
X111471428Y-92052380D01*
X111566666Y-92052380D01*
X111709523Y-92100000D01*
X111757142Y-92147619D01*
X112709523Y-93052380D02*
X112138095Y-93052380D01*
X112423809Y-93052380D02*
X112423809Y-92052380D01*
X112328571Y-92195238D01*
X112233333Y-92290476D01*
X112138095Y-92338095D01*
X113566666Y-92385714D02*
X113566666Y-93052380D01*
X113328571Y-92004761D02*
X113090476Y-92719047D01*
X113709523Y-92719047D01*
X115757142Y-80142857D02*
X115804761Y-80190476D01*
X115852380Y-80333333D01*
X115852380Y-80428571D01*
X115804761Y-80571428D01*
X115709523Y-80666666D01*
X115614285Y-80714285D01*
X115423809Y-80761904D01*
X115280952Y-80761904D01*
X115090476Y-80714285D01*
X114995238Y-80666666D01*
X114900000Y-80571428D01*
X114852380Y-80428571D01*
X114852380Y-80333333D01*
X114900000Y-80190476D01*
X114947619Y-80142857D01*
X115852380Y-79190476D02*
X115852380Y-79761904D01*
X115852380Y-79476190D02*
X114852380Y-79476190D01*
X114995238Y-79571428D01*
X115090476Y-79666666D01*
X115138095Y-79761904D01*
X114852380Y-78285714D02*
X114852380Y-78761904D01*
X115328571Y-78809523D01*
X115280952Y-78761904D01*
X115233333Y-78666666D01*
X115233333Y-78428571D01*
X115280952Y-78333333D01*
X115328571Y-78285714D01*
X115423809Y-78238095D01*
X115661904Y-78238095D01*
X115757142Y-78285714D01*
X115804761Y-78333333D01*
X115852380Y-78428571D01*
X115852380Y-78666666D01*
X115804761Y-78761904D01*
X115757142Y-78809523D01*
X109657142Y-80142857D02*
X109704761Y-80190476D01*
X109752380Y-80333333D01*
X109752380Y-80428571D01*
X109704761Y-80571428D01*
X109609523Y-80666666D01*
X109514285Y-80714285D01*
X109323809Y-80761904D01*
X109180952Y-80761904D01*
X108990476Y-80714285D01*
X108895238Y-80666666D01*
X108800000Y-80571428D01*
X108752380Y-80428571D01*
X108752380Y-80333333D01*
X108800000Y-80190476D01*
X108847619Y-80142857D01*
X109752380Y-79190476D02*
X109752380Y-79761904D01*
X109752380Y-79476190D02*
X108752380Y-79476190D01*
X108895238Y-79571428D01*
X108990476Y-79666666D01*
X109038095Y-79761904D01*
X108752380Y-78333333D02*
X108752380Y-78523809D01*
X108800000Y-78619047D01*
X108847619Y-78666666D01*
X108990476Y-78761904D01*
X109180952Y-78809523D01*
X109561904Y-78809523D01*
X109657142Y-78761904D01*
X109704761Y-78714285D01*
X109752380Y-78619047D01*
X109752380Y-78428571D01*
X109704761Y-78333333D01*
X109657142Y-78285714D01*
X109561904Y-78238095D01*
X109323809Y-78238095D01*
X109228571Y-78285714D01*
X109180952Y-78333333D01*
X109133333Y-78428571D01*
X109133333Y-78619047D01*
X109180952Y-78714285D01*
X109228571Y-78761904D01*
X109323809Y-78809523D01*
X107957142Y-89557142D02*
X107909523Y-89604761D01*
X107766666Y-89652380D01*
X107671428Y-89652380D01*
X107528571Y-89604761D01*
X107433333Y-89509523D01*
X107385714Y-89414285D01*
X107338095Y-89223809D01*
X107338095Y-89080952D01*
X107385714Y-88890476D01*
X107433333Y-88795238D01*
X107528571Y-88700000D01*
X107671428Y-88652380D01*
X107766666Y-88652380D01*
X107909523Y-88700000D01*
X107957142Y-88747619D01*
X108909523Y-89652380D02*
X108338095Y-89652380D01*
X108623809Y-89652380D02*
X108623809Y-88652380D01*
X108528571Y-88795238D01*
X108433333Y-88890476D01*
X108338095Y-88938095D01*
X109242857Y-88652380D02*
X109909523Y-88652380D01*
X109480952Y-89652380D01*
X97457142Y-83657142D02*
X97409523Y-83704761D01*
X97266666Y-83752380D01*
X97171428Y-83752380D01*
X97028571Y-83704761D01*
X96933333Y-83609523D01*
X96885714Y-83514285D01*
X96838095Y-83323809D01*
X96838095Y-83180952D01*
X96885714Y-82990476D01*
X96933333Y-82895238D01*
X97028571Y-82800000D01*
X97171428Y-82752380D01*
X97266666Y-82752380D01*
X97409523Y-82800000D01*
X97457142Y-82847619D01*
X98409523Y-83752380D02*
X97838095Y-83752380D01*
X98123809Y-83752380D02*
X98123809Y-82752380D01*
X98028571Y-82895238D01*
X97933333Y-82990476D01*
X97838095Y-83038095D01*
X98980952Y-83180952D02*
X98885714Y-83133333D01*
X98838095Y-83085714D01*
X98790476Y-82990476D01*
X98790476Y-82942857D01*
X98838095Y-82847619D01*
X98885714Y-82800000D01*
X98980952Y-82752380D01*
X99171428Y-82752380D01*
X99266666Y-82800000D01*
X99314285Y-82847619D01*
X99361904Y-82942857D01*
X99361904Y-82990476D01*
X99314285Y-83085714D01*
X99266666Y-83133333D01*
X99171428Y-83180952D01*
X98980952Y-83180952D01*
X98885714Y-83228571D01*
X98838095Y-83276190D01*
X98790476Y-83371428D01*
X98790476Y-83561904D01*
X98838095Y-83657142D01*
X98885714Y-83704761D01*
X98980952Y-83752380D01*
X99171428Y-83752380D01*
X99266666Y-83704761D01*
X99314285Y-83657142D01*
X99361904Y-83561904D01*
X99361904Y-83371428D01*
X99314285Y-83276190D01*
X99266666Y-83228571D01*
X99171428Y-83180952D01*
X94211142Y-86113857D02*
X94258761Y-86161476D01*
X94306380Y-86304333D01*
X94306380Y-86399571D01*
X94258761Y-86542428D01*
X94163523Y-86637666D01*
X94068285Y-86685285D01*
X93877809Y-86732904D01*
X93734952Y-86732904D01*
X93544476Y-86685285D01*
X93449238Y-86637666D01*
X93354000Y-86542428D01*
X93306380Y-86399571D01*
X93306380Y-86304333D01*
X93354000Y-86161476D01*
X93401619Y-86113857D01*
X94306380Y-85161476D02*
X94306380Y-85732904D01*
X94306380Y-85447190D02*
X93306380Y-85447190D01*
X93449238Y-85542428D01*
X93544476Y-85637666D01*
X93592095Y-85732904D01*
X94306380Y-84685285D02*
X94306380Y-84494809D01*
X94258761Y-84399571D01*
X94211142Y-84351952D01*
X94068285Y-84256714D01*
X93877809Y-84209095D01*
X93496857Y-84209095D01*
X93401619Y-84256714D01*
X93354000Y-84304333D01*
X93306380Y-84399571D01*
X93306380Y-84590047D01*
X93354000Y-84685285D01*
X93401619Y-84732904D01*
X93496857Y-84780523D01*
X93734952Y-84780523D01*
X93830190Y-84732904D01*
X93877809Y-84685285D01*
X93925428Y-84590047D01*
X93925428Y-84399571D01*
X93877809Y-84304333D01*
X93830190Y-84256714D01*
X93734952Y-84209095D01*
X6627904Y-17978380D02*
X6627904Y-16978380D01*
X6866000Y-16978380D01*
X7008857Y-17026000D01*
X7104095Y-17121238D01*
X7151714Y-17216476D01*
X7199333Y-17406952D01*
X7199333Y-17549809D01*
X7151714Y-17740285D01*
X7104095Y-17835523D01*
X7008857Y-17930761D01*
X6866000Y-17978380D01*
X6627904Y-17978380D01*
X8151714Y-17978380D02*
X7580285Y-17978380D01*
X7866000Y-17978380D02*
X7866000Y-16978380D01*
X7770761Y-17121238D01*
X7675523Y-17216476D01*
X7580285Y-17264095D01*
X6627904Y-23820380D02*
X6627904Y-22820380D01*
X6866000Y-22820380D01*
X7008857Y-22868000D01*
X7104095Y-22963238D01*
X7151714Y-23058476D01*
X7199333Y-23248952D01*
X7199333Y-23391809D01*
X7151714Y-23582285D01*
X7104095Y-23677523D01*
X7008857Y-23772761D01*
X6866000Y-23820380D01*
X6627904Y-23820380D01*
X7580285Y-22915619D02*
X7627904Y-22868000D01*
X7723142Y-22820380D01*
X7961238Y-22820380D01*
X8056476Y-22868000D01*
X8104095Y-22915619D01*
X8151714Y-23010857D01*
X8151714Y-23106095D01*
X8104095Y-23248952D01*
X7532666Y-23820380D01*
X8151714Y-23820380D01*
X104061904Y-77852380D02*
X104061904Y-76852380D01*
X104300000Y-76852380D01*
X104442857Y-76900000D01*
X104538095Y-76995238D01*
X104585714Y-77090476D01*
X104633333Y-77280952D01*
X104633333Y-77423809D01*
X104585714Y-77614285D01*
X104538095Y-77709523D01*
X104442857Y-77804761D01*
X104300000Y-77852380D01*
X104061904Y-77852380D01*
X104966666Y-76852380D02*
X105585714Y-76852380D01*
X105252380Y-77233333D01*
X105395238Y-77233333D01*
X105490476Y-77280952D01*
X105538095Y-77328571D01*
X105585714Y-77423809D01*
X105585714Y-77661904D01*
X105538095Y-77757142D01*
X105490476Y-77804761D01*
X105395238Y-77852380D01*
X105109523Y-77852380D01*
X105014285Y-77804761D01*
X104966666Y-77757142D01*
X107846904Y-93384380D02*
X107846904Y-92384380D01*
X108085000Y-92384380D01*
X108227857Y-92432000D01*
X108323095Y-92527238D01*
X108370714Y-92622476D01*
X108418333Y-92812952D01*
X108418333Y-92955809D01*
X108370714Y-93146285D01*
X108323095Y-93241523D01*
X108227857Y-93336761D01*
X108085000Y-93384380D01*
X107846904Y-93384380D01*
X109275476Y-92717714D02*
X109275476Y-93384380D01*
X109037380Y-92336761D02*
X108799285Y-93051047D01*
X109418333Y-93051047D01*
X55824571Y-96924571D02*
X55491238Y-96924571D01*
X55491238Y-97448380D02*
X55491238Y-96448380D01*
X55967428Y-96448380D01*
X56348380Y-97448380D02*
X56348380Y-96448380D01*
X56824571Y-97448380D02*
X56824571Y-96448380D01*
X57062666Y-96448380D01*
X57205523Y-96496000D01*
X57300761Y-96591238D01*
X57348380Y-96686476D01*
X57396000Y-96876952D01*
X57396000Y-97019809D01*
X57348380Y-97210285D01*
X57300761Y-97305523D01*
X57205523Y-97400761D01*
X57062666Y-97448380D01*
X56824571Y-97448380D01*
X58348380Y-97448380D02*
X57776952Y-97448380D01*
X58062666Y-97448380D02*
X58062666Y-96448380D01*
X57967428Y-96591238D01*
X57872190Y-96686476D01*
X57776952Y-96734095D01*
X24678571Y-22428571D02*
X24345238Y-22428571D01*
X24345238Y-22952380D02*
X24345238Y-21952380D01*
X24821428Y-21952380D01*
X25202380Y-22952380D02*
X25202380Y-21952380D01*
X25678571Y-22952380D02*
X25678571Y-21952380D01*
X25916666Y-21952380D01*
X26059523Y-22000000D01*
X26154761Y-22095238D01*
X26202380Y-22190476D01*
X26250000Y-22380952D01*
X26250000Y-22523809D01*
X26202380Y-22714285D01*
X26154761Y-22809523D01*
X26059523Y-22904761D01*
X25916666Y-22952380D01*
X25678571Y-22952380D01*
X26630952Y-22047619D02*
X26678571Y-22000000D01*
X26773809Y-21952380D01*
X27011904Y-21952380D01*
X27107142Y-22000000D01*
X27154761Y-22047619D01*
X27202380Y-22142857D01*
X27202380Y-22238095D01*
X27154761Y-22380952D01*
X26583333Y-22952380D01*
X27202380Y-22952380D01*
X107767571Y-62253571D02*
X107434238Y-62253571D01*
X107434238Y-62777380D02*
X107434238Y-61777380D01*
X107910428Y-61777380D01*
X108291380Y-62777380D02*
X108291380Y-61777380D01*
X108767571Y-62777380D02*
X108767571Y-61777380D01*
X109005666Y-61777380D01*
X109148523Y-61825000D01*
X109243761Y-61920238D01*
X109291380Y-62015476D01*
X109339000Y-62205952D01*
X109339000Y-62348809D01*
X109291380Y-62539285D01*
X109243761Y-62634523D01*
X109148523Y-62729761D01*
X109005666Y-62777380D01*
X108767571Y-62777380D01*
X109672333Y-61777380D02*
X110291380Y-61777380D01*
X109958047Y-62158333D01*
X110100904Y-62158333D01*
X110196142Y-62205952D01*
X110243761Y-62253571D01*
X110291380Y-62348809D01*
X110291380Y-62586904D01*
X110243761Y-62682142D01*
X110196142Y-62729761D01*
X110100904Y-62777380D01*
X109815190Y-62777380D01*
X109719952Y-62729761D01*
X109672333Y-62682142D01*
X80438666Y-94444380D02*
X80438666Y-95158666D01*
X80391047Y-95301523D01*
X80295809Y-95396761D01*
X80152952Y-95444380D01*
X80057714Y-95444380D01*
X80819619Y-94444380D02*
X81438666Y-94444380D01*
X81105333Y-94825333D01*
X81248190Y-94825333D01*
X81343428Y-94872952D01*
X81391047Y-94920571D01*
X81438666Y-95015809D01*
X81438666Y-95253904D01*
X81391047Y-95349142D01*
X81343428Y-95396761D01*
X81248190Y-95444380D01*
X80962476Y-95444380D01*
X80867238Y-95396761D01*
X80819619Y-95349142D01*
X102633333Y-92652380D02*
X102157142Y-92652380D01*
X102157142Y-91652380D01*
X103490476Y-92652380D02*
X102919047Y-92652380D01*
X103204761Y-92652380D02*
X103204761Y-91652380D01*
X103109523Y-91795238D01*
X103014285Y-91890476D01*
X102919047Y-91938095D01*
X84990476Y-87852380D02*
X84990476Y-86852380D01*
X85323809Y-87566666D01*
X85657142Y-86852380D01*
X85657142Y-87852380D01*
X86657142Y-87852380D02*
X86085714Y-87852380D01*
X86371428Y-87852380D02*
X86371428Y-86852380D01*
X86276190Y-86995238D01*
X86180952Y-87090476D01*
X86085714Y-87138095D01*
X25098476Y-36012380D02*
X25098476Y-35012380D01*
X25431809Y-35726666D01*
X25765142Y-35012380D01*
X25765142Y-36012380D01*
X26193714Y-35107619D02*
X26241333Y-35060000D01*
X26336571Y-35012380D01*
X26574666Y-35012380D01*
X26669904Y-35060000D01*
X26717523Y-35107619D01*
X26765142Y-35202857D01*
X26765142Y-35298095D01*
X26717523Y-35440952D01*
X26146095Y-36012380D01*
X26765142Y-36012380D01*
X9739333Y-23820380D02*
X9406000Y-23344190D01*
X9167904Y-23820380D02*
X9167904Y-22820380D01*
X9548857Y-22820380D01*
X9644095Y-22868000D01*
X9691714Y-22915619D01*
X9739333Y-23010857D01*
X9739333Y-23153714D01*
X9691714Y-23248952D01*
X9644095Y-23296571D01*
X9548857Y-23344190D01*
X9167904Y-23344190D01*
X10691714Y-23820380D02*
X10120285Y-23820380D01*
X10406000Y-23820380D02*
X10406000Y-22820380D01*
X10310761Y-22963238D01*
X10215523Y-23058476D01*
X10120285Y-23106095D01*
X9739333Y-17978380D02*
X9406000Y-17502190D01*
X9167904Y-17978380D02*
X9167904Y-16978380D01*
X9548857Y-16978380D01*
X9644095Y-17026000D01*
X9691714Y-17073619D01*
X9739333Y-17168857D01*
X9739333Y-17311714D01*
X9691714Y-17406952D01*
X9644095Y-17454571D01*
X9548857Y-17502190D01*
X9167904Y-17502190D01*
X10072666Y-16978380D02*
X10691714Y-16978380D01*
X10358380Y-17359333D01*
X10501238Y-17359333D01*
X10596476Y-17406952D01*
X10644095Y-17454571D01*
X10691714Y-17549809D01*
X10691714Y-17787904D01*
X10644095Y-17883142D01*
X10596476Y-17930761D01*
X10501238Y-17978380D01*
X10215523Y-17978380D01*
X10120285Y-17930761D01*
X10072666Y-17883142D01*
X62571333Y-90494380D02*
X62238000Y-90018190D01*
X61999904Y-90494380D02*
X61999904Y-89494380D01*
X62380857Y-89494380D01*
X62476095Y-89542000D01*
X62523714Y-89589619D01*
X62571333Y-89684857D01*
X62571333Y-89827714D01*
X62523714Y-89922952D01*
X62476095Y-89970571D01*
X62380857Y-90018190D01*
X61999904Y-90018190D01*
X63428476Y-89827714D02*
X63428476Y-90494380D01*
X63190380Y-89446761D02*
X62952285Y-90161047D01*
X63571333Y-90161047D01*
X80933333Y-52252380D02*
X80600000Y-51776190D01*
X80361904Y-52252380D02*
X80361904Y-51252380D01*
X80742857Y-51252380D01*
X80838095Y-51300000D01*
X80885714Y-51347619D01*
X80933333Y-51442857D01*
X80933333Y-51585714D01*
X80885714Y-51680952D01*
X80838095Y-51728571D01*
X80742857Y-51776190D01*
X80361904Y-51776190D01*
X81838095Y-51252380D02*
X81361904Y-51252380D01*
X81314285Y-51728571D01*
X81361904Y-51680952D01*
X81457142Y-51633333D01*
X81695238Y-51633333D01*
X81790476Y-51680952D01*
X81838095Y-51728571D01*
X81885714Y-51823809D01*
X81885714Y-52061904D01*
X81838095Y-52157142D01*
X81790476Y-52204761D01*
X81695238Y-52252380D01*
X81457142Y-52252380D01*
X81361904Y-52204761D01*
X81314285Y-52157142D01*
X91033333Y-52252380D02*
X90700000Y-51776190D01*
X90461904Y-52252380D02*
X90461904Y-51252380D01*
X90842857Y-51252380D01*
X90938095Y-51300000D01*
X90985714Y-51347619D01*
X91033333Y-51442857D01*
X91033333Y-51585714D01*
X90985714Y-51680952D01*
X90938095Y-51728571D01*
X90842857Y-51776190D01*
X90461904Y-51776190D01*
X91890476Y-51252380D02*
X91700000Y-51252380D01*
X91604761Y-51300000D01*
X91557142Y-51347619D01*
X91461904Y-51490476D01*
X91414285Y-51680952D01*
X91414285Y-52061904D01*
X91461904Y-52157142D01*
X91509523Y-52204761D01*
X91604761Y-52252380D01*
X91795238Y-52252380D01*
X91890476Y-52204761D01*
X91938095Y-52157142D01*
X91985714Y-52061904D01*
X91985714Y-51823809D01*
X91938095Y-51728571D01*
X91890476Y-51680952D01*
X91795238Y-51633333D01*
X91604761Y-51633333D01*
X91509523Y-51680952D01*
X91461904Y-51728571D01*
X91414285Y-51823809D01*
X115452380Y-87621166D02*
X114976190Y-87954500D01*
X115452380Y-88192595D02*
X114452380Y-88192595D01*
X114452380Y-87811642D01*
X114500000Y-87716404D01*
X114547619Y-87668785D01*
X114642857Y-87621166D01*
X114785714Y-87621166D01*
X114880952Y-87668785D01*
X114928571Y-87716404D01*
X114976190Y-87811642D01*
X114976190Y-88192595D01*
X114452380Y-87287833D02*
X114452380Y-86621166D01*
X115452380Y-87049738D01*
X115386380Y-83811166D02*
X114910190Y-84144500D01*
X115386380Y-84382595D02*
X114386380Y-84382595D01*
X114386380Y-84001642D01*
X114434000Y-83906404D01*
X114481619Y-83858785D01*
X114576857Y-83811166D01*
X114719714Y-83811166D01*
X114814952Y-83858785D01*
X114862571Y-83906404D01*
X114910190Y-84001642D01*
X114910190Y-84382595D01*
X114814952Y-83239738D02*
X114767333Y-83334976D01*
X114719714Y-83382595D01*
X114624476Y-83430214D01*
X114576857Y-83430214D01*
X114481619Y-83382595D01*
X114434000Y-83334976D01*
X114386380Y-83239738D01*
X114386380Y-83049261D01*
X114434000Y-82954023D01*
X114481619Y-82906404D01*
X114576857Y-82858785D01*
X114624476Y-82858785D01*
X114719714Y-82906404D01*
X114767333Y-82954023D01*
X114814952Y-83049261D01*
X114814952Y-83239738D01*
X114862571Y-83334976D01*
X114910190Y-83382595D01*
X115005428Y-83430214D01*
X115195904Y-83430214D01*
X115291142Y-83382595D01*
X115338761Y-83334976D01*
X115386380Y-83239738D01*
X115386380Y-83049261D01*
X115338761Y-82954023D01*
X115291142Y-82906404D01*
X115195904Y-82858785D01*
X115005428Y-82858785D01*
X114910190Y-82906404D01*
X114862571Y-82954023D01*
X114814952Y-83049261D01*
X8278761Y-13779333D02*
X8326380Y-13636476D01*
X8326380Y-13398380D01*
X8278761Y-13303142D01*
X8231142Y-13255523D01*
X8135904Y-13207904D01*
X8040666Y-13207904D01*
X7945428Y-13255523D01*
X7897809Y-13303142D01*
X7850190Y-13398380D01*
X7802571Y-13588857D01*
X7754952Y-13684095D01*
X7707333Y-13731714D01*
X7612095Y-13779333D01*
X7516857Y-13779333D01*
X7421619Y-13731714D01*
X7374000Y-13684095D01*
X7326380Y-13588857D01*
X7326380Y-13350761D01*
X7374000Y-13207904D01*
X7326380Y-12874571D02*
X8326380Y-12636476D01*
X7612095Y-12446000D01*
X8326380Y-12255523D01*
X7326380Y-12017428D01*
X8326380Y-11112666D02*
X8326380Y-11684095D01*
X8326380Y-11398380D02*
X7326380Y-11398380D01*
X7469238Y-11493619D01*
X7564476Y-11588857D01*
X7612095Y-11684095D01*
X8278761Y-34861333D02*
X8326380Y-34718476D01*
X8326380Y-34480380D01*
X8278761Y-34385142D01*
X8231142Y-34337523D01*
X8135904Y-34289904D01*
X8040666Y-34289904D01*
X7945428Y-34337523D01*
X7897809Y-34385142D01*
X7850190Y-34480380D01*
X7802571Y-34670857D01*
X7754952Y-34766095D01*
X7707333Y-34813714D01*
X7612095Y-34861333D01*
X7516857Y-34861333D01*
X7421619Y-34813714D01*
X7374000Y-34766095D01*
X7326380Y-34670857D01*
X7326380Y-34432761D01*
X7374000Y-34289904D01*
X7326380Y-33956571D02*
X8326380Y-33718476D01*
X7612095Y-33528000D01*
X8326380Y-33337523D01*
X7326380Y-33099428D01*
X7421619Y-32766095D02*
X7374000Y-32718476D01*
X7326380Y-32623238D01*
X7326380Y-32385142D01*
X7374000Y-32289904D01*
X7421619Y-32242285D01*
X7516857Y-32194666D01*
X7612095Y-32194666D01*
X7754952Y-32242285D01*
X8326380Y-32813714D01*
X8326380Y-32194666D01*
X90766666Y-102004761D02*
X90909523Y-102052380D01*
X91147619Y-102052380D01*
X91242857Y-102004761D01*
X91290476Y-101957142D01*
X91338095Y-101861904D01*
X91338095Y-101766666D01*
X91290476Y-101671428D01*
X91242857Y-101623809D01*
X91147619Y-101576190D01*
X90957142Y-101528571D01*
X90861904Y-101480952D01*
X90814285Y-101433333D01*
X90766666Y-101338095D01*
X90766666Y-101242857D01*
X90814285Y-101147619D01*
X90861904Y-101100000D01*
X90957142Y-101052380D01*
X91195238Y-101052380D01*
X91338095Y-101100000D01*
X91671428Y-101052380D02*
X91909523Y-102052380D01*
X92100000Y-101338095D01*
X92290476Y-102052380D01*
X92528571Y-101052380D01*
X92814285Y-101052380D02*
X93433333Y-101052380D01*
X93100000Y-101433333D01*
X93242857Y-101433333D01*
X93338095Y-101480952D01*
X93385714Y-101528571D01*
X93433333Y-101623809D01*
X93433333Y-101861904D01*
X93385714Y-101957142D01*
X93338095Y-102004761D01*
X93242857Y-102052380D01*
X92957142Y-102052380D01*
X92861904Y-102004761D01*
X92814285Y-101957142D01*
X62714095Y-11993380D02*
X62714095Y-12802904D01*
X62761714Y-12898142D01*
X62809333Y-12945761D01*
X62904571Y-12993380D01*
X63095047Y-12993380D01*
X63190285Y-12945761D01*
X63237904Y-12898142D01*
X63285523Y-12802904D01*
X63285523Y-11993380D01*
X64285523Y-12993380D02*
X63714095Y-12993380D01*
X63999809Y-12993380D02*
X63999809Y-11993380D01*
X63904571Y-12136238D01*
X63809333Y-12231476D01*
X63714095Y-12279095D01*
X114038095Y-93052380D02*
X114038095Y-93861904D01*
X114085714Y-93957142D01*
X114133333Y-94004761D01*
X114228571Y-94052380D01*
X114419047Y-94052380D01*
X114514285Y-94004761D01*
X114561904Y-93957142D01*
X114609523Y-93861904D01*
X114609523Y-93052380D01*
X114990476Y-93052380D02*
X115609523Y-93052380D01*
X115276190Y-93433333D01*
X115419047Y-93433333D01*
X115514285Y-93480952D01*
X115561904Y-93528571D01*
X115609523Y-93623809D01*
X115609523Y-93861904D01*
X115561904Y-93957142D01*
X115514285Y-94004761D01*
X115419047Y-94052380D01*
X115133333Y-94052380D01*
X115038095Y-94004761D01*
X114990476Y-93957142D01*
X52052380Y-70592904D02*
X52861904Y-70592904D01*
X52957142Y-70545285D01*
X53004761Y-70497666D01*
X53052380Y-70402428D01*
X53052380Y-70211952D01*
X53004761Y-70116714D01*
X52957142Y-70069095D01*
X52861904Y-70021476D01*
X52052380Y-70021476D01*
X52385714Y-69116714D02*
X53052380Y-69116714D01*
X52004761Y-69354809D02*
X52719047Y-69592904D01*
X52719047Y-68973857D01*
X100938095Y-94452380D02*
X100938095Y-95261904D01*
X100985714Y-95357142D01*
X101033333Y-95404761D01*
X101128571Y-95452380D01*
X101319047Y-95452380D01*
X101414285Y-95404761D01*
X101461904Y-95357142D01*
X101509523Y-95261904D01*
X101509523Y-94452380D01*
X102461904Y-94452380D02*
X101985714Y-94452380D01*
X101938095Y-94928571D01*
X101985714Y-94880952D01*
X102080952Y-94833333D01*
X102319047Y-94833333D01*
X102414285Y-94880952D01*
X102461904Y-94928571D01*
X102509523Y-95023809D01*
X102509523Y-95261904D01*
X102461904Y-95357142D01*
X102414285Y-95404761D01*
X102319047Y-95452380D01*
X102080952Y-95452380D01*
X101985714Y-95404761D01*
X101938095Y-95357142D01*
X70848477Y-83274026D02*
X70276057Y-83846446D01*
X70242385Y-83947461D01*
X70242385Y-84014805D01*
X70276057Y-84115820D01*
X70410744Y-84250507D01*
X70511759Y-84284179D01*
X70579103Y-84284179D01*
X70680118Y-84250507D01*
X71252538Y-83678087D01*
X71892301Y-84317851D02*
X71757614Y-84183164D01*
X71656599Y-84149492D01*
X71589255Y-84149492D01*
X71420896Y-84183164D01*
X71252538Y-84284179D01*
X70983164Y-84553553D01*
X70949492Y-84654568D01*
X70949492Y-84721912D01*
X70983164Y-84822927D01*
X71117851Y-84957614D01*
X71218866Y-84991286D01*
X71286209Y-84991286D01*
X71387225Y-84957614D01*
X71555583Y-84789255D01*
X71589255Y-84688240D01*
X71589255Y-84620896D01*
X71555583Y-84519881D01*
X71420896Y-84385194D01*
X71319881Y-84351522D01*
X71252538Y-84351522D01*
X71151522Y-84385194D01*
X110852380Y-84661904D02*
X111661904Y-84661904D01*
X111757142Y-84614285D01*
X111804761Y-84566666D01*
X111852380Y-84471428D01*
X111852380Y-84280952D01*
X111804761Y-84185714D01*
X111757142Y-84138095D01*
X111661904Y-84090476D01*
X110852380Y-84090476D01*
X110852380Y-83709523D02*
X110852380Y-83042857D01*
X111852380Y-83471428D01*
X67823809Y-84276190D02*
X67823809Y-84752380D01*
X67490476Y-83752380D02*
X67823809Y-84276190D01*
X68157142Y-83752380D01*
X69014285Y-84752380D02*
X68442857Y-84752380D01*
X68728571Y-84752380D02*
X68728571Y-83752380D01*
X68633333Y-83895238D01*
X68538095Y-83990476D01*
X68442857Y-84038095D01*
X16708380Y-7596095D02*
X15708380Y-7596095D01*
X15708380Y-7358000D01*
X15756000Y-7215142D01*
X15851238Y-7119904D01*
X15946476Y-7072285D01*
X16136952Y-7024666D01*
X16279809Y-7024666D01*
X16470285Y-7072285D01*
X16565523Y-7119904D01*
X16660761Y-7215142D01*
X16708380Y-7358000D01*
X16708380Y-7596095D01*
X15708380Y-6119904D02*
X15708380Y-6596095D01*
X16184571Y-6643714D01*
X16136952Y-6596095D01*
X16089333Y-6500857D01*
X16089333Y-6262761D01*
X16136952Y-6167523D01*
X16184571Y-6119904D01*
X16279809Y-6072285D01*
X16517904Y-6072285D01*
X16613142Y-6119904D01*
X16660761Y-6167523D01*
X16708380Y-6262761D01*
X16708380Y-6500857D01*
X16660761Y-6596095D01*
X16613142Y-6643714D01*
X22296380Y-7596095D02*
X21296380Y-7596095D01*
X21296380Y-7358000D01*
X21344000Y-7215142D01*
X21439238Y-7119904D01*
X21534476Y-7072285D01*
X21724952Y-7024666D01*
X21867809Y-7024666D01*
X22058285Y-7072285D01*
X22153523Y-7119904D01*
X22248761Y-7215142D01*
X22296380Y-7358000D01*
X22296380Y-7596095D01*
X21296380Y-6167523D02*
X21296380Y-6358000D01*
X21344000Y-6453238D01*
X21391619Y-6500857D01*
X21534476Y-6596095D01*
X21724952Y-6643714D01*
X22105904Y-6643714D01*
X22201142Y-6596095D01*
X22248761Y-6548476D01*
X22296380Y-6453238D01*
X22296380Y-6262761D01*
X22248761Y-6167523D01*
X22201142Y-6119904D01*
X22105904Y-6072285D01*
X21867809Y-6072285D01*
X21772571Y-6119904D01*
X21724952Y-6167523D01*
X21677333Y-6262761D01*
X21677333Y-6453238D01*
X21724952Y-6548476D01*
X21772571Y-6596095D01*
X21867809Y-6643714D01*
X27884380Y-7596095D02*
X26884380Y-7596095D01*
X26884380Y-7358000D01*
X26932000Y-7215142D01*
X27027238Y-7119904D01*
X27122476Y-7072285D01*
X27312952Y-7024666D01*
X27455809Y-7024666D01*
X27646285Y-7072285D01*
X27741523Y-7119904D01*
X27836761Y-7215142D01*
X27884380Y-7358000D01*
X27884380Y-7596095D01*
X26884380Y-6691333D02*
X26884380Y-6024666D01*
X27884380Y-6453238D01*
X13833333Y-11602380D02*
X13500000Y-11126190D01*
X13261904Y-11602380D02*
X13261904Y-10602380D01*
X13642857Y-10602380D01*
X13738095Y-10650000D01*
X13785714Y-10697619D01*
X13833333Y-10792857D01*
X13833333Y-10935714D01*
X13785714Y-11030952D01*
X13738095Y-11078571D01*
X13642857Y-11126190D01*
X13261904Y-11126190D01*
X14309523Y-11602380D02*
X14500000Y-11602380D01*
X14595238Y-11554761D01*
X14642857Y-11507142D01*
X14738095Y-11364285D01*
X14785714Y-11173809D01*
X14785714Y-10792857D01*
X14738095Y-10697619D01*
X14690476Y-10650000D01*
X14595238Y-10602380D01*
X14404761Y-10602380D01*
X14309523Y-10650000D01*
X14261904Y-10697619D01*
X14214285Y-10792857D01*
X14214285Y-11030952D01*
X14261904Y-11126190D01*
X14309523Y-11173809D01*
X14404761Y-11221428D01*
X14595238Y-11221428D01*
X14690476Y-11173809D01*
X14738095Y-11126190D01*
X14785714Y-11030952D01*
X18857142Y-11602380D02*
X18523809Y-11126190D01*
X18285714Y-11602380D02*
X18285714Y-10602380D01*
X18666666Y-10602380D01*
X18761904Y-10650000D01*
X18809523Y-10697619D01*
X18857142Y-10792857D01*
X18857142Y-10935714D01*
X18809523Y-11030952D01*
X18761904Y-11078571D01*
X18666666Y-11126190D01*
X18285714Y-11126190D01*
X19809523Y-11602380D02*
X19238095Y-11602380D01*
X19523809Y-11602380D02*
X19523809Y-10602380D01*
X19428571Y-10745238D01*
X19333333Y-10840476D01*
X19238095Y-10888095D01*
X20428571Y-10602380D02*
X20523809Y-10602380D01*
X20619047Y-10650000D01*
X20666666Y-10697619D01*
X20714285Y-10792857D01*
X20761904Y-10983333D01*
X20761904Y-11221428D01*
X20714285Y-11411904D01*
X20666666Y-11507142D01*
X20619047Y-11554761D01*
X20523809Y-11602380D01*
X20428571Y-11602380D01*
X20333333Y-11554761D01*
X20285714Y-11507142D01*
X20238095Y-11411904D01*
X20190476Y-11221428D01*
X20190476Y-10983333D01*
X20238095Y-10792857D01*
X20285714Y-10697619D01*
X20333333Y-10650000D01*
X20428571Y-10602380D01*
X24357142Y-11602380D02*
X24023809Y-11126190D01*
X23785714Y-11602380D02*
X23785714Y-10602380D01*
X24166666Y-10602380D01*
X24261904Y-10650000D01*
X24309523Y-10697619D01*
X24357142Y-10792857D01*
X24357142Y-10935714D01*
X24309523Y-11030952D01*
X24261904Y-11078571D01*
X24166666Y-11126190D01*
X23785714Y-11126190D01*
X25309523Y-11602380D02*
X24738095Y-11602380D01*
X25023809Y-11602380D02*
X25023809Y-10602380D01*
X24928571Y-10745238D01*
X24833333Y-10840476D01*
X24738095Y-10888095D01*
X26261904Y-11602380D02*
X25690476Y-11602380D01*
X25976190Y-11602380D02*
X25976190Y-10602380D01*
X25880952Y-10745238D01*
X25785714Y-10840476D01*
X25690476Y-10888095D01*
X72064642Y-104273880D02*
X71731309Y-103797690D01*
X71493214Y-104273880D02*
X71493214Y-103273880D01*
X71874166Y-103273880D01*
X71969404Y-103321500D01*
X72017023Y-103369119D01*
X72064642Y-103464357D01*
X72064642Y-103607214D01*
X72017023Y-103702452D01*
X71969404Y-103750071D01*
X71874166Y-103797690D01*
X71493214Y-103797690D01*
X73017023Y-104273880D02*
X72445595Y-104273880D01*
X72731309Y-104273880D02*
X72731309Y-103273880D01*
X72636071Y-103416738D01*
X72540833Y-103511976D01*
X72445595Y-103559595D01*
X73397976Y-103369119D02*
X73445595Y-103321500D01*
X73540833Y-103273880D01*
X73778928Y-103273880D01*
X73874166Y-103321500D01*
X73921785Y-103369119D01*
X73969404Y-103464357D01*
X73969404Y-103559595D01*
X73921785Y-103702452D01*
X73350357Y-104273880D01*
X73969404Y-104273880D01*
X69414380Y-99829857D02*
X68938190Y-100163190D01*
X69414380Y-100401285D02*
X68414380Y-100401285D01*
X68414380Y-100020333D01*
X68462000Y-99925095D01*
X68509619Y-99877476D01*
X68604857Y-99829857D01*
X68747714Y-99829857D01*
X68842952Y-99877476D01*
X68890571Y-99925095D01*
X68938190Y-100020333D01*
X68938190Y-100401285D01*
X69414380Y-98877476D02*
X69414380Y-99448904D01*
X69414380Y-99163190D02*
X68414380Y-99163190D01*
X68557238Y-99258428D01*
X68652476Y-99353666D01*
X68700095Y-99448904D01*
X68414380Y-98544142D02*
X68414380Y-97925095D01*
X68795333Y-98258428D01*
X68795333Y-98115571D01*
X68842952Y-98020333D01*
X68890571Y-97972714D01*
X68985809Y-97925095D01*
X69223904Y-97925095D01*
X69319142Y-97972714D01*
X69366761Y-98020333D01*
X69414380Y-98115571D01*
X69414380Y-98401285D01*
X69366761Y-98496523D01*
X69319142Y-98544142D01*
X101557142Y-33852380D02*
X101223809Y-33376190D01*
X100985714Y-33852380D02*
X100985714Y-32852380D01*
X101366666Y-32852380D01*
X101461904Y-32900000D01*
X101509523Y-32947619D01*
X101557142Y-33042857D01*
X101557142Y-33185714D01*
X101509523Y-33280952D01*
X101461904Y-33328571D01*
X101366666Y-33376190D01*
X100985714Y-33376190D01*
X102509523Y-33852380D02*
X101938095Y-33852380D01*
X102223809Y-33852380D02*
X102223809Y-32852380D01*
X102128571Y-32995238D01*
X102033333Y-33090476D01*
X101938095Y-33138095D01*
X103366666Y-33185714D02*
X103366666Y-33852380D01*
X103128571Y-32804761D02*
X102890476Y-33519047D01*
X103509523Y-33519047D01*
X101557142Y-43852380D02*
X101223809Y-43376190D01*
X100985714Y-43852380D02*
X100985714Y-42852380D01*
X101366666Y-42852380D01*
X101461904Y-42900000D01*
X101509523Y-42947619D01*
X101557142Y-43042857D01*
X101557142Y-43185714D01*
X101509523Y-43280952D01*
X101461904Y-43328571D01*
X101366666Y-43376190D01*
X100985714Y-43376190D01*
X102509523Y-43852380D02*
X101938095Y-43852380D01*
X102223809Y-43852380D02*
X102223809Y-42852380D01*
X102128571Y-42995238D01*
X102033333Y-43090476D01*
X101938095Y-43138095D01*
X103414285Y-42852380D02*
X102938095Y-42852380D01*
X102890476Y-43328571D01*
X102938095Y-43280952D01*
X103033333Y-43233333D01*
X103271428Y-43233333D01*
X103366666Y-43280952D01*
X103414285Y-43328571D01*
X103461904Y-43423809D01*
X103461904Y-43661904D01*
X103414285Y-43757142D01*
X103366666Y-43804761D01*
X103271428Y-43852380D01*
X103033333Y-43852380D01*
X102938095Y-43804761D01*
X102890476Y-43757142D01*
X104177380Y-39161904D02*
X104986904Y-39161904D01*
X105082142Y-39114285D01*
X105129761Y-39066666D01*
X105177380Y-38971428D01*
X105177380Y-38780952D01*
X105129761Y-38685714D01*
X105082142Y-38638095D01*
X104986904Y-38590476D01*
X104177380Y-38590476D01*
X104272619Y-38161904D02*
X104225000Y-38114285D01*
X104177380Y-38019047D01*
X104177380Y-37780952D01*
X104225000Y-37685714D01*
X104272619Y-37638095D01*
X104367857Y-37590476D01*
X104463095Y-37590476D01*
X104605952Y-37638095D01*
X105177380Y-38209523D01*
X105177380Y-37590476D01*
M02*
