G04 #@! TF.GenerationSoftware,KiCad,Pcbnew,5.1.8+dfsg1-1~bpo10+1*
G04 #@! TF.CreationDate,2021-01-27T21:56:32+00:00*
G04 #@! TF.ProjectId,mobo,6d6f626f-2e6b-4696-9361-645f70636258,rev?*
G04 #@! TF.SameCoordinates,Original*
G04 #@! TF.FileFunction,Soldermask,Top*
G04 #@! TF.FilePolarity,Negative*
%FSLAX46Y46*%
G04 Gerber Fmt 4.6, Leading zero omitted, Abs format (unit mm)*
G04 Created by KiCad (PCBNEW 5.1.8+dfsg1-1~bpo10+1) date 2021-01-27 21:56:32*
%MOMM*%
%LPD*%
G01*
G04 APERTURE LIST*
%ADD10C,2.000000*%
%ADD11C,0.100000*%
%ADD12O,1.780000X1.780000*%
%ADD13R,2.310000X2.460000*%
G04 APERTURE END LIST*
G36*
G01*
X88822000Y-55885000D02*
X87517000Y-55885000D01*
G75*
G02*
X87299500Y-55667500I0J217500D01*
G01*
X87299500Y-55232500D01*
G75*
G02*
X87517000Y-55015000I217500J0D01*
G01*
X88822000Y-55015000D01*
G75*
G02*
X89039500Y-55232500I0J-217500D01*
G01*
X89039500Y-55667500D01*
G75*
G02*
X88822000Y-55885000I-217500J0D01*
G01*
G37*
G36*
G01*
X88822000Y-54085000D02*
X87517000Y-54085000D01*
G75*
G02*
X87299500Y-53867500I0J217500D01*
G01*
X87299500Y-53432500D01*
G75*
G02*
X87517000Y-53215000I217500J0D01*
G01*
X88822000Y-53215000D01*
G75*
G02*
X89039500Y-53432500I0J-217500D01*
G01*
X89039500Y-53867500D01*
G75*
G02*
X88822000Y-54085000I-217500J0D01*
G01*
G37*
G36*
G01*
X84822000Y-54085000D02*
X83517000Y-54085000D01*
G75*
G02*
X83299500Y-53867500I0J217500D01*
G01*
X83299500Y-53432500D01*
G75*
G02*
X83517000Y-53215000I217500J0D01*
G01*
X84822000Y-53215000D01*
G75*
G02*
X85039500Y-53432500I0J-217500D01*
G01*
X85039500Y-53867500D01*
G75*
G02*
X84822000Y-54085000I-217500J0D01*
G01*
G37*
G36*
G01*
X84822000Y-55885000D02*
X83517000Y-55885000D01*
G75*
G02*
X83299500Y-55667500I0J217500D01*
G01*
X83299500Y-55232500D01*
G75*
G02*
X83517000Y-55015000I217500J0D01*
G01*
X84822000Y-55015000D01*
G75*
G02*
X85039500Y-55232500I0J-217500D01*
G01*
X85039500Y-55667500D01*
G75*
G02*
X84822000Y-55885000I-217500J0D01*
G01*
G37*
G36*
G01*
X71342250Y-82745000D02*
X70389750Y-82745000D01*
G75*
G02*
X70126000Y-82481250I0J263750D01*
G01*
X70126000Y-81953750D01*
G75*
G02*
X70389750Y-81690000I263750J0D01*
G01*
X71342250Y-81690000D01*
G75*
G02*
X71606000Y-81953750I0J-263750D01*
G01*
X71606000Y-82481250D01*
G75*
G02*
X71342250Y-82745000I-263750J0D01*
G01*
G37*
G36*
G01*
X71342250Y-80870000D02*
X70389750Y-80870000D01*
G75*
G02*
X70126000Y-80606250I0J263750D01*
G01*
X70126000Y-80078750D01*
G75*
G02*
X70389750Y-79815000I263750J0D01*
G01*
X71342250Y-79815000D01*
G75*
G02*
X71606000Y-80078750I0J-263750D01*
G01*
X71606000Y-80606250D01*
G75*
G02*
X71342250Y-80870000I-263750J0D01*
G01*
G37*
G36*
G01*
X74656500Y-80486250D02*
X74656500Y-79533750D01*
G75*
G02*
X74920250Y-79270000I263750J0D01*
G01*
X75447750Y-79270000D01*
G75*
G02*
X75711500Y-79533750I0J-263750D01*
G01*
X75711500Y-80486250D01*
G75*
G02*
X75447750Y-80750000I-263750J0D01*
G01*
X74920250Y-80750000D01*
G75*
G02*
X74656500Y-80486250I0J263750D01*
G01*
G37*
G36*
G01*
X72781500Y-80486250D02*
X72781500Y-79533750D01*
G75*
G02*
X73045250Y-79270000I263750J0D01*
G01*
X73572750Y-79270000D01*
G75*
G02*
X73836500Y-79533750I0J-263750D01*
G01*
X73836500Y-80486250D01*
G75*
G02*
X73572750Y-80750000I-263750J0D01*
G01*
X73045250Y-80750000D01*
G75*
G02*
X72781500Y-80486250I0J263750D01*
G01*
G37*
G36*
G01*
X72781500Y-82772250D02*
X72781500Y-81819750D01*
G75*
G02*
X73045250Y-81556000I263750J0D01*
G01*
X73572750Y-81556000D01*
G75*
G02*
X73836500Y-81819750I0J-263750D01*
G01*
X73836500Y-82772250D01*
G75*
G02*
X73572750Y-83036000I-263750J0D01*
G01*
X73045250Y-83036000D01*
G75*
G02*
X72781500Y-82772250I0J263750D01*
G01*
G37*
G36*
G01*
X74656500Y-82772250D02*
X74656500Y-81819750D01*
G75*
G02*
X74920250Y-81556000I263750J0D01*
G01*
X75447750Y-81556000D01*
G75*
G02*
X75711500Y-81819750I0J-263750D01*
G01*
X75711500Y-82772250D01*
G75*
G02*
X75447750Y-83036000I-263750J0D01*
G01*
X74920250Y-83036000D01*
G75*
G02*
X74656500Y-82772250I0J263750D01*
G01*
G37*
G36*
G01*
X61499750Y-85500000D02*
X62452250Y-85500000D01*
G75*
G02*
X62716000Y-85763750I0J-263750D01*
G01*
X62716000Y-86291250D01*
G75*
G02*
X62452250Y-86555000I-263750J0D01*
G01*
X61499750Y-86555000D01*
G75*
G02*
X61236000Y-86291250I0J263750D01*
G01*
X61236000Y-85763750D01*
G75*
G02*
X61499750Y-85500000I263750J0D01*
G01*
G37*
G36*
G01*
X61499750Y-83625000D02*
X62452250Y-83625000D01*
G75*
G02*
X62716000Y-83888750I0J-263750D01*
G01*
X62716000Y-84416250D01*
G75*
G02*
X62452250Y-84680000I-263750J0D01*
G01*
X61499750Y-84680000D01*
G75*
G02*
X61236000Y-84416250I0J263750D01*
G01*
X61236000Y-83888750D01*
G75*
G02*
X61499750Y-83625000I263750J0D01*
G01*
G37*
G36*
G01*
X55821000Y-76231750D02*
X55821000Y-77184250D01*
G75*
G02*
X55557250Y-77448000I-263750J0D01*
G01*
X55029750Y-77448000D01*
G75*
G02*
X54766000Y-77184250I0J263750D01*
G01*
X54766000Y-76231750D01*
G75*
G02*
X55029750Y-75968000I263750J0D01*
G01*
X55557250Y-75968000D01*
G75*
G02*
X55821000Y-76231750I0J-263750D01*
G01*
G37*
G36*
G01*
X53946000Y-76231750D02*
X53946000Y-77184250D01*
G75*
G02*
X53682250Y-77448000I-263750J0D01*
G01*
X53154750Y-77448000D01*
G75*
G02*
X52891000Y-77184250I0J263750D01*
G01*
X52891000Y-76231750D01*
G75*
G02*
X53154750Y-75968000I263750J0D01*
G01*
X53682250Y-75968000D01*
G75*
G02*
X53946000Y-76231750I0J-263750D01*
G01*
G37*
G36*
G01*
X65884000Y-77247750D02*
X65884000Y-78200250D01*
G75*
G02*
X65620250Y-78464000I-263750J0D01*
G01*
X65092750Y-78464000D01*
G75*
G02*
X64829000Y-78200250I0J263750D01*
G01*
X64829000Y-77247750D01*
G75*
G02*
X65092750Y-76984000I263750J0D01*
G01*
X65620250Y-76984000D01*
G75*
G02*
X65884000Y-77247750I0J-263750D01*
G01*
G37*
G36*
G01*
X67759000Y-77247750D02*
X67759000Y-78200250D01*
G75*
G02*
X67495250Y-78464000I-263750J0D01*
G01*
X66967750Y-78464000D01*
G75*
G02*
X66704000Y-78200250I0J263750D01*
G01*
X66704000Y-77247750D01*
G75*
G02*
X66967750Y-76984000I263750J0D01*
G01*
X67495250Y-76984000D01*
G75*
G02*
X67759000Y-77247750I0J-263750D01*
G01*
G37*
G36*
G01*
X62452250Y-82745000D02*
X61499750Y-82745000D01*
G75*
G02*
X61236000Y-82481250I0J263750D01*
G01*
X61236000Y-81953750D01*
G75*
G02*
X61499750Y-81690000I263750J0D01*
G01*
X62452250Y-81690000D01*
G75*
G02*
X62716000Y-81953750I0J-263750D01*
G01*
X62716000Y-82481250D01*
G75*
G02*
X62452250Y-82745000I-263750J0D01*
G01*
G37*
G36*
G01*
X62452250Y-80870000D02*
X61499750Y-80870000D01*
G75*
G02*
X61236000Y-80606250I0J263750D01*
G01*
X61236000Y-80078750D01*
G75*
G02*
X61499750Y-79815000I263750J0D01*
G01*
X62452250Y-79815000D01*
G75*
G02*
X62716000Y-80078750I0J-263750D01*
G01*
X62716000Y-80606250D01*
G75*
G02*
X62452250Y-80870000I-263750J0D01*
G01*
G37*
G36*
G01*
X59377000Y-76231750D02*
X59377000Y-77184250D01*
G75*
G02*
X59113250Y-77448000I-263750J0D01*
G01*
X58585750Y-77448000D01*
G75*
G02*
X58322000Y-77184250I0J263750D01*
G01*
X58322000Y-76231750D01*
G75*
G02*
X58585750Y-75968000I263750J0D01*
G01*
X59113250Y-75968000D01*
G75*
G02*
X59377000Y-76231750I0J-263750D01*
G01*
G37*
G36*
G01*
X57502000Y-76231750D02*
X57502000Y-77184250D01*
G75*
G02*
X57238250Y-77448000I-263750J0D01*
G01*
X56710750Y-77448000D01*
G75*
G02*
X56447000Y-77184250I0J263750D01*
G01*
X56447000Y-76231750D01*
G75*
G02*
X56710750Y-75968000I263750J0D01*
G01*
X57238250Y-75968000D01*
G75*
G02*
X57502000Y-76231750I0J-263750D01*
G01*
G37*
G36*
G01*
X59975750Y-70260000D02*
X60928250Y-70260000D01*
G75*
G02*
X61192000Y-70523750I0J-263750D01*
G01*
X61192000Y-71051250D01*
G75*
G02*
X60928250Y-71315000I-263750J0D01*
G01*
X59975750Y-71315000D01*
G75*
G02*
X59712000Y-71051250I0J263750D01*
G01*
X59712000Y-70523750D01*
G75*
G02*
X59975750Y-70260000I263750J0D01*
G01*
G37*
G36*
G01*
X59975750Y-68385000D02*
X60928250Y-68385000D01*
G75*
G02*
X61192000Y-68648750I0J-263750D01*
G01*
X61192000Y-69176250D01*
G75*
G02*
X60928250Y-69440000I-263750J0D01*
G01*
X59975750Y-69440000D01*
G75*
G02*
X59712000Y-69176250I0J263750D01*
G01*
X59712000Y-68648750D01*
G75*
G02*
X59975750Y-68385000I263750J0D01*
G01*
G37*
G36*
G01*
X98239000Y-88169750D02*
X98239000Y-89122250D01*
G75*
G02*
X97975250Y-89386000I-263750J0D01*
G01*
X97447750Y-89386000D01*
G75*
G02*
X97184000Y-89122250I0J263750D01*
G01*
X97184000Y-88169750D01*
G75*
G02*
X97447750Y-87906000I263750J0D01*
G01*
X97975250Y-87906000D01*
G75*
G02*
X98239000Y-88169750I0J-263750D01*
G01*
G37*
G36*
G01*
X96364000Y-88169750D02*
X96364000Y-89122250D01*
G75*
G02*
X96100250Y-89386000I-263750J0D01*
G01*
X95572750Y-89386000D01*
G75*
G02*
X95309000Y-89122250I0J263750D01*
G01*
X95309000Y-88169750D01*
G75*
G02*
X95572750Y-87906000I263750J0D01*
G01*
X96100250Y-87906000D01*
G75*
G02*
X96364000Y-88169750I0J-263750D01*
G01*
G37*
G36*
G01*
X97313750Y-100105000D02*
X98266250Y-100105000D01*
G75*
G02*
X98530000Y-100368750I0J-263750D01*
G01*
X98530000Y-100896250D01*
G75*
G02*
X98266250Y-101160000I-263750J0D01*
G01*
X97313750Y-101160000D01*
G75*
G02*
X97050000Y-100896250I0J263750D01*
G01*
X97050000Y-100368750D01*
G75*
G02*
X97313750Y-100105000I263750J0D01*
G01*
G37*
G36*
G01*
X97313750Y-98230000D02*
X98266250Y-98230000D01*
G75*
G02*
X98530000Y-98493750I0J-263750D01*
G01*
X98530000Y-99021250D01*
G75*
G02*
X98266250Y-99285000I-263750J0D01*
G01*
X97313750Y-99285000D01*
G75*
G02*
X97050000Y-99021250I0J263750D01*
G01*
X97050000Y-98493750D01*
G75*
G02*
X97313750Y-98230000I263750J0D01*
G01*
G37*
G36*
G01*
X72231250Y-99597000D02*
X73183750Y-99597000D01*
G75*
G02*
X73447500Y-99860750I0J-263750D01*
G01*
X73447500Y-100388250D01*
G75*
G02*
X73183750Y-100652000I-263750J0D01*
G01*
X72231250Y-100652000D01*
G75*
G02*
X71967500Y-100388250I0J263750D01*
G01*
X71967500Y-99860750D01*
G75*
G02*
X72231250Y-99597000I263750J0D01*
G01*
G37*
G36*
G01*
X72231250Y-97722000D02*
X73183750Y-97722000D01*
G75*
G02*
X73447500Y-97985750I0J-263750D01*
G01*
X73447500Y-98513250D01*
G75*
G02*
X73183750Y-98777000I-263750J0D01*
G01*
X72231250Y-98777000D01*
G75*
G02*
X71967500Y-98513250I0J263750D01*
G01*
X71967500Y-97985750D01*
G75*
G02*
X72231250Y-97722000I263750J0D01*
G01*
G37*
G36*
G01*
X74326750Y-99597000D02*
X75279250Y-99597000D01*
G75*
G02*
X75543000Y-99860750I0J-263750D01*
G01*
X75543000Y-100388250D01*
G75*
G02*
X75279250Y-100652000I-263750J0D01*
G01*
X74326750Y-100652000D01*
G75*
G02*
X74063000Y-100388250I0J263750D01*
G01*
X74063000Y-99860750D01*
G75*
G02*
X74326750Y-99597000I263750J0D01*
G01*
G37*
G36*
G01*
X74326750Y-97722000D02*
X75279250Y-97722000D01*
G75*
G02*
X75543000Y-97985750I0J-263750D01*
G01*
X75543000Y-98513250D01*
G75*
G02*
X75279250Y-98777000I-263750J0D01*
G01*
X74326750Y-98777000D01*
G75*
G02*
X74063000Y-98513250I0J263750D01*
G01*
X74063000Y-97985750D01*
G75*
G02*
X74326750Y-97722000I263750J0D01*
G01*
G37*
G36*
G01*
X111897500Y-91408250D02*
X111897500Y-90455750D01*
G75*
G02*
X112161250Y-90192000I263750J0D01*
G01*
X112688750Y-90192000D01*
G75*
G02*
X112952500Y-90455750I0J-263750D01*
G01*
X112952500Y-91408250D01*
G75*
G02*
X112688750Y-91672000I-263750J0D01*
G01*
X112161250Y-91672000D01*
G75*
G02*
X111897500Y-91408250I0J263750D01*
G01*
G37*
G36*
G01*
X113772500Y-91408250D02*
X113772500Y-90455750D01*
G75*
G02*
X114036250Y-90192000I263750J0D01*
G01*
X114563750Y-90192000D01*
G75*
G02*
X114827500Y-90455750I0J-263750D01*
G01*
X114827500Y-91408250D01*
G75*
G02*
X114563750Y-91672000I-263750J0D01*
G01*
X114036250Y-91672000D01*
G75*
G02*
X113772500Y-91408250I0J263750D01*
G01*
G37*
G36*
G01*
X113188750Y-78037000D02*
X114141250Y-78037000D01*
G75*
G02*
X114405000Y-78300750I0J-263750D01*
G01*
X114405000Y-78828250D01*
G75*
G02*
X114141250Y-79092000I-263750J0D01*
G01*
X113188750Y-79092000D01*
G75*
G02*
X112925000Y-78828250I0J263750D01*
G01*
X112925000Y-78300750D01*
G75*
G02*
X113188750Y-78037000I263750J0D01*
G01*
G37*
G36*
G01*
X113188750Y-79912000D02*
X114141250Y-79912000D01*
G75*
G02*
X114405000Y-80175750I0J-263750D01*
G01*
X114405000Y-80703250D01*
G75*
G02*
X114141250Y-80967000I-263750J0D01*
G01*
X113188750Y-80967000D01*
G75*
G02*
X112925000Y-80703250I0J263750D01*
G01*
X112925000Y-80175750D01*
G75*
G02*
X113188750Y-79912000I263750J0D01*
G01*
G37*
G36*
G01*
X110648750Y-78037000D02*
X111601250Y-78037000D01*
G75*
G02*
X111865000Y-78300750I0J-263750D01*
G01*
X111865000Y-78828250D01*
G75*
G02*
X111601250Y-79092000I-263750J0D01*
G01*
X110648750Y-79092000D01*
G75*
G02*
X110385000Y-78828250I0J263750D01*
G01*
X110385000Y-78300750D01*
G75*
G02*
X110648750Y-78037000I263750J0D01*
G01*
G37*
G36*
G01*
X110648750Y-79912000D02*
X111601250Y-79912000D01*
G75*
G02*
X111865000Y-80175750I0J-263750D01*
G01*
X111865000Y-80703250D01*
G75*
G02*
X111601250Y-80967000I-263750J0D01*
G01*
X110648750Y-80967000D01*
G75*
G02*
X110385000Y-80703250I0J263750D01*
G01*
X110385000Y-80175750D01*
G75*
G02*
X110648750Y-79912000I263750J0D01*
G01*
G37*
G36*
G01*
X108175000Y-87280750D02*
X108175000Y-88233250D01*
G75*
G02*
X107911250Y-88497000I-263750J0D01*
G01*
X107383750Y-88497000D01*
G75*
G02*
X107120000Y-88233250I0J263750D01*
G01*
X107120000Y-87280750D01*
G75*
G02*
X107383750Y-87017000I263750J0D01*
G01*
X107911250Y-87017000D01*
G75*
G02*
X108175000Y-87280750I0J-263750D01*
G01*
G37*
G36*
G01*
X110050000Y-87280750D02*
X110050000Y-88233250D01*
G75*
G02*
X109786250Y-88497000I-263750J0D01*
G01*
X109258750Y-88497000D01*
G75*
G02*
X108995000Y-88233250I0J263750D01*
G01*
X108995000Y-87280750D01*
G75*
G02*
X109258750Y-87017000I263750J0D01*
G01*
X109786250Y-87017000D01*
G75*
G02*
X110050000Y-87280750I0J-263750D01*
G01*
G37*
G36*
G01*
X98647250Y-86936000D02*
X97694750Y-86936000D01*
G75*
G02*
X97431000Y-86672250I0J263750D01*
G01*
X97431000Y-86144750D01*
G75*
G02*
X97694750Y-85881000I263750J0D01*
G01*
X98647250Y-85881000D01*
G75*
G02*
X98911000Y-86144750I0J-263750D01*
G01*
X98911000Y-86672250D01*
G75*
G02*
X98647250Y-86936000I-263750J0D01*
G01*
G37*
G36*
G01*
X98647250Y-85061000D02*
X97694750Y-85061000D01*
G75*
G02*
X97431000Y-84797250I0J263750D01*
G01*
X97431000Y-84269750D01*
G75*
G02*
X97694750Y-84006000I263750J0D01*
G01*
X98647250Y-84006000D01*
G75*
G02*
X98911000Y-84269750I0J-263750D01*
G01*
X98911000Y-84797250D01*
G75*
G02*
X98647250Y-85061000I-263750J0D01*
G01*
G37*
G36*
G01*
X95980250Y-85061000D02*
X95027750Y-85061000D01*
G75*
G02*
X94764000Y-84797250I0J263750D01*
G01*
X94764000Y-84269750D01*
G75*
G02*
X95027750Y-84006000I263750J0D01*
G01*
X95980250Y-84006000D01*
G75*
G02*
X96244000Y-84269750I0J-263750D01*
G01*
X96244000Y-84797250D01*
G75*
G02*
X95980250Y-85061000I-263750J0D01*
G01*
G37*
G36*
G01*
X95980250Y-86936000D02*
X95027750Y-86936000D01*
G75*
G02*
X94764000Y-86672250I0J263750D01*
G01*
X94764000Y-86144750D01*
G75*
G02*
X95027750Y-85881000I263750J0D01*
G01*
X95980250Y-85881000D01*
G75*
G02*
X96244000Y-86144750I0J-263750D01*
G01*
X96244000Y-86672250D01*
G75*
G02*
X95980250Y-86936000I-263750J0D01*
G01*
G37*
G36*
G01*
X7842250Y-21355500D02*
X6889750Y-21355500D01*
G75*
G02*
X6626000Y-21091750I0J263750D01*
G01*
X6626000Y-20564250D01*
G75*
G02*
X6889750Y-20300500I263750J0D01*
G01*
X7842250Y-20300500D01*
G75*
G02*
X8106000Y-20564250I0J-263750D01*
G01*
X8106000Y-21091750D01*
G75*
G02*
X7842250Y-21355500I-263750J0D01*
G01*
G37*
G36*
G01*
X7842250Y-19480500D02*
X6889750Y-19480500D01*
G75*
G02*
X6626000Y-19216750I0J263750D01*
G01*
X6626000Y-18689250D01*
G75*
G02*
X6889750Y-18425500I263750J0D01*
G01*
X7842250Y-18425500D01*
G75*
G02*
X8106000Y-18689250I0J-263750D01*
G01*
X8106000Y-19216750D01*
G75*
G02*
X7842250Y-19480500I-263750J0D01*
G01*
G37*
G36*
G01*
X7842250Y-25244000D02*
X6889750Y-25244000D01*
G75*
G02*
X6626000Y-24980250I0J263750D01*
G01*
X6626000Y-24452750D01*
G75*
G02*
X6889750Y-24189000I263750J0D01*
G01*
X7842250Y-24189000D01*
G75*
G02*
X8106000Y-24452750I0J-263750D01*
G01*
X8106000Y-24980250D01*
G75*
G02*
X7842250Y-25244000I-263750J0D01*
G01*
G37*
G36*
G01*
X7842250Y-27119000D02*
X6889750Y-27119000D01*
G75*
G02*
X6626000Y-26855250I0J263750D01*
G01*
X6626000Y-26327750D01*
G75*
G02*
X6889750Y-26064000I263750J0D01*
G01*
X7842250Y-26064000D01*
G75*
G02*
X8106000Y-26327750I0J-263750D01*
G01*
X8106000Y-26855250D01*
G75*
G02*
X7842250Y-27119000I-263750J0D01*
G01*
G37*
G36*
G01*
X105455000Y-79114000D02*
X105455000Y-81414000D01*
G75*
G02*
X105415000Y-81454000I-40000J0D01*
G01*
X101915000Y-81454000D01*
G75*
G02*
X101875000Y-81414000I0J40000D01*
G01*
X101875000Y-79114000D01*
G75*
G02*
X101915000Y-79074000I40000J0D01*
G01*
X105415000Y-79074000D01*
G75*
G02*
X105455000Y-79114000I0J-40000D01*
G01*
G37*
G36*
G01*
X100055000Y-79114000D02*
X100055000Y-81414000D01*
G75*
G02*
X100015000Y-81454000I-40000J0D01*
G01*
X96515000Y-81454000D01*
G75*
G02*
X96475000Y-81414000I0J40000D01*
G01*
X96475000Y-79114000D01*
G75*
G02*
X96515000Y-79074000I40000J0D01*
G01*
X100015000Y-79074000D01*
G75*
G02*
X100055000Y-79114000I0J-40000D01*
G01*
G37*
G36*
G01*
X110725000Y-90332000D02*
X110725000Y-91532000D01*
G75*
G02*
X110685000Y-91572000I-40000J0D01*
G01*
X109785000Y-91572000D01*
G75*
G02*
X109745000Y-91532000I0J40000D01*
G01*
X109745000Y-90332000D01*
G75*
G02*
X109785000Y-90292000I40000J0D01*
G01*
X110685000Y-90292000D01*
G75*
G02*
X110725000Y-90332000I0J-40000D01*
G01*
G37*
G36*
G01*
X107425000Y-90332000D02*
X107425000Y-91532000D01*
G75*
G02*
X107385000Y-91572000I-40000J0D01*
G01*
X106485000Y-91572000D01*
G75*
G02*
X106445000Y-91532000I0J40000D01*
G01*
X106445000Y-90332000D01*
G75*
G02*
X106485000Y-90292000I40000J0D01*
G01*
X107385000Y-90292000D01*
G75*
G02*
X107425000Y-90332000I0J-40000D01*
G01*
G37*
D10*
X56896000Y-94996000D03*
X25750000Y-20500000D03*
X108839000Y-60325000D03*
G36*
G01*
X137360000Y-64900000D02*
X137360000Y-54900000D01*
G75*
G02*
X137400000Y-54860000I40000J0D01*
G01*
X139400000Y-54860000D01*
G75*
G02*
X139440000Y-54900000I0J-40000D01*
G01*
X139440000Y-64900000D01*
G75*
G02*
X139400000Y-64940000I-40000J0D01*
G01*
X137400000Y-64940000D01*
G75*
G02*
X137360000Y-64900000I0J40000D01*
G01*
G37*
G36*
G01*
X139900000Y-64900000D02*
X139900000Y-54900000D01*
G75*
G02*
X139940000Y-54860000I40000J0D01*
G01*
X141940000Y-54860000D01*
G75*
G02*
X141980000Y-54900000I0J-40000D01*
G01*
X141980000Y-64900000D01*
G75*
G02*
X141940000Y-64940000I-40000J0D01*
G01*
X139940000Y-64940000D01*
G75*
G02*
X139900000Y-64900000I0J40000D01*
G01*
G37*
G36*
G01*
X142440000Y-64900000D02*
X142440000Y-54900000D01*
G75*
G02*
X142480000Y-54860000I40000J0D01*
G01*
X144480000Y-54860000D01*
G75*
G02*
X144520000Y-54900000I0J-40000D01*
G01*
X144520000Y-64900000D01*
G75*
G02*
X144480000Y-64940000I-40000J0D01*
G01*
X142480000Y-64940000D01*
G75*
G02*
X142440000Y-64900000I0J40000D01*
G01*
G37*
G36*
G01*
X144980000Y-64900000D02*
X144980000Y-54900000D01*
G75*
G02*
X145020000Y-54860000I40000J0D01*
G01*
X147020000Y-54860000D01*
G75*
G02*
X147060000Y-54900000I0J-40000D01*
G01*
X147060000Y-64900000D01*
G75*
G02*
X147020000Y-64940000I-40000J0D01*
G01*
X145020000Y-64940000D01*
G75*
G02*
X144980000Y-64900000I0J40000D01*
G01*
G37*
G36*
G01*
X147520000Y-64900000D02*
X147520000Y-54900000D01*
G75*
G02*
X147560000Y-54860000I40000J0D01*
G01*
X149560000Y-54860000D01*
G75*
G02*
X149600000Y-54900000I0J-40000D01*
G01*
X149600000Y-64900000D01*
G75*
G02*
X149560000Y-64940000I-40000J0D01*
G01*
X147560000Y-64940000D01*
G75*
G02*
X147520000Y-64900000I0J40000D01*
G01*
G37*
G36*
G01*
X78082000Y-96802000D02*
X78082000Y-96302000D01*
G75*
G02*
X78122000Y-96262000I40000J0D01*
G01*
X80122000Y-96262000D01*
G75*
G02*
X80162000Y-96302000I0J-40000D01*
G01*
X80162000Y-96802000D01*
G75*
G02*
X80122000Y-96842000I-40000J0D01*
G01*
X78122000Y-96842000D01*
G75*
G02*
X78082000Y-96802000I0J40000D01*
G01*
G37*
G36*
G01*
X81382000Y-96802000D02*
X81382000Y-96302000D01*
G75*
G02*
X81422000Y-96262000I40000J0D01*
G01*
X83422000Y-96262000D01*
G75*
G02*
X83462000Y-96302000I0J-40000D01*
G01*
X83462000Y-96802000D01*
G75*
G02*
X83422000Y-96842000I-40000J0D01*
G01*
X81422000Y-96842000D01*
G75*
G02*
X81382000Y-96802000I0J40000D01*
G01*
G37*
G36*
G01*
X78082000Y-97802000D02*
X78082000Y-97302000D01*
G75*
G02*
X78122000Y-97262000I40000J0D01*
G01*
X80122000Y-97262000D01*
G75*
G02*
X80162000Y-97302000I0J-40000D01*
G01*
X80162000Y-97802000D01*
G75*
G02*
X80122000Y-97842000I-40000J0D01*
G01*
X78122000Y-97842000D01*
G75*
G02*
X78082000Y-97802000I0J40000D01*
G01*
G37*
G36*
G01*
X81382000Y-97802000D02*
X81382000Y-97302000D01*
G75*
G02*
X81422000Y-97262000I40000J0D01*
G01*
X83422000Y-97262000D01*
G75*
G02*
X83462000Y-97302000I0J-40000D01*
G01*
X83462000Y-97802000D01*
G75*
G02*
X83422000Y-97842000I-40000J0D01*
G01*
X81422000Y-97842000D01*
G75*
G02*
X81382000Y-97802000I0J40000D01*
G01*
G37*
G36*
G01*
X78082000Y-98802000D02*
X78082000Y-98302000D01*
G75*
G02*
X78122000Y-98262000I40000J0D01*
G01*
X80122000Y-98262000D01*
G75*
G02*
X80162000Y-98302000I0J-40000D01*
G01*
X80162000Y-98802000D01*
G75*
G02*
X80122000Y-98842000I-40000J0D01*
G01*
X78122000Y-98842000D01*
G75*
G02*
X78082000Y-98802000I0J40000D01*
G01*
G37*
G36*
G01*
X81382000Y-98802000D02*
X81382000Y-98302000D01*
G75*
G02*
X81422000Y-98262000I40000J0D01*
G01*
X83422000Y-98262000D01*
G75*
G02*
X83462000Y-98302000I0J-40000D01*
G01*
X83462000Y-98802000D01*
G75*
G02*
X83422000Y-98842000I-40000J0D01*
G01*
X81422000Y-98842000D01*
G75*
G02*
X81382000Y-98802000I0J40000D01*
G01*
G37*
G36*
G01*
X78082000Y-99802000D02*
X78082000Y-99302000D01*
G75*
G02*
X78122000Y-99262000I40000J0D01*
G01*
X80122000Y-99262000D01*
G75*
G02*
X80162000Y-99302000I0J-40000D01*
G01*
X80162000Y-99802000D01*
G75*
G02*
X80122000Y-99842000I-40000J0D01*
G01*
X78122000Y-99842000D01*
G75*
G02*
X78082000Y-99802000I0J40000D01*
G01*
G37*
G36*
G01*
X81382000Y-99802000D02*
X81382000Y-99302000D01*
G75*
G02*
X81422000Y-99262000I40000J0D01*
G01*
X83422000Y-99262000D01*
G75*
G02*
X83462000Y-99302000I0J-40000D01*
G01*
X83462000Y-99802000D01*
G75*
G02*
X83422000Y-99842000I-40000J0D01*
G01*
X81422000Y-99842000D01*
G75*
G02*
X81382000Y-99802000I0J40000D01*
G01*
G37*
G36*
G01*
X78082000Y-100802000D02*
X78082000Y-100302000D01*
G75*
G02*
X78122000Y-100262000I40000J0D01*
G01*
X80122000Y-100262000D01*
G75*
G02*
X80162000Y-100302000I0J-40000D01*
G01*
X80162000Y-100802000D01*
G75*
G02*
X80122000Y-100842000I-40000J0D01*
G01*
X78122000Y-100842000D01*
G75*
G02*
X78082000Y-100802000I0J40000D01*
G01*
G37*
G36*
G01*
X81382000Y-100802000D02*
X81382000Y-100302000D01*
G75*
G02*
X81422000Y-100262000I40000J0D01*
G01*
X83422000Y-100262000D01*
G75*
G02*
X83462000Y-100302000I0J-40000D01*
G01*
X83462000Y-100802000D01*
G75*
G02*
X83422000Y-100842000I-40000J0D01*
G01*
X81422000Y-100842000D01*
G75*
G02*
X81382000Y-100802000I0J40000D01*
G01*
G37*
D11*
G36*
X112668804Y-73759769D02*
G01*
X112676307Y-73762045D01*
X112683223Y-73765741D01*
X112689284Y-73770716D01*
X112694259Y-73776777D01*
X112697955Y-73783693D01*
X112700231Y-73791196D01*
X112701000Y-73799000D01*
X112701000Y-75299000D01*
X112700231Y-75306804D01*
X112697955Y-75314307D01*
X112694259Y-75321223D01*
X112689284Y-75327284D01*
X112683223Y-75332259D01*
X112676307Y-75335955D01*
X112668804Y-75338231D01*
X112661000Y-75339000D01*
X112111000Y-75339000D01*
X112104891Y-75338398D01*
X112086466Y-75338398D01*
X112082545Y-75338205D01*
X112033714Y-75333395D01*
X112029832Y-75332820D01*
X111981707Y-75323248D01*
X111977898Y-75322294D01*
X111930943Y-75308050D01*
X111927248Y-75306727D01*
X111881915Y-75287950D01*
X111878365Y-75286271D01*
X111835092Y-75263140D01*
X111831727Y-75261123D01*
X111790928Y-75233863D01*
X111787774Y-75231524D01*
X111749845Y-75200396D01*
X111746937Y-75197760D01*
X111712240Y-75163063D01*
X111709604Y-75160155D01*
X111678476Y-75122226D01*
X111676137Y-75119072D01*
X111648877Y-75078273D01*
X111646860Y-75074908D01*
X111623729Y-75031635D01*
X111622050Y-75028085D01*
X111603273Y-74982752D01*
X111601950Y-74979057D01*
X111587706Y-74932102D01*
X111586752Y-74928293D01*
X111577180Y-74880168D01*
X111576605Y-74876286D01*
X111571795Y-74827455D01*
X111571602Y-74823534D01*
X111571602Y-74805109D01*
X111571000Y-74799000D01*
X111571000Y-74299000D01*
X111571602Y-74292891D01*
X111571602Y-74274466D01*
X111571795Y-74270545D01*
X111576605Y-74221714D01*
X111577180Y-74217832D01*
X111586752Y-74169707D01*
X111587706Y-74165898D01*
X111601950Y-74118943D01*
X111603273Y-74115248D01*
X111622050Y-74069915D01*
X111623729Y-74066365D01*
X111646860Y-74023092D01*
X111648877Y-74019727D01*
X111676137Y-73978928D01*
X111678476Y-73975774D01*
X111709604Y-73937845D01*
X111712240Y-73934937D01*
X111746937Y-73900240D01*
X111749845Y-73897604D01*
X111787774Y-73866476D01*
X111790928Y-73864137D01*
X111831727Y-73836877D01*
X111835092Y-73834860D01*
X111878365Y-73811729D01*
X111881915Y-73810050D01*
X111927248Y-73791273D01*
X111930943Y-73789950D01*
X111977898Y-73775706D01*
X111981707Y-73774752D01*
X112029832Y-73765180D01*
X112033714Y-73764605D01*
X112082545Y-73759795D01*
X112086466Y-73759602D01*
X112104891Y-73759602D01*
X112111000Y-73759000D01*
X112661000Y-73759000D01*
X112668804Y-73759769D01*
G37*
G36*
X114717109Y-73759602D02*
G01*
X114735534Y-73759602D01*
X114739455Y-73759795D01*
X114788286Y-73764605D01*
X114792168Y-73765180D01*
X114840293Y-73774752D01*
X114844102Y-73775706D01*
X114891057Y-73789950D01*
X114894752Y-73791273D01*
X114940085Y-73810050D01*
X114943635Y-73811729D01*
X114986908Y-73834860D01*
X114990273Y-73836877D01*
X115031072Y-73864137D01*
X115034226Y-73866476D01*
X115072155Y-73897604D01*
X115075063Y-73900240D01*
X115109760Y-73934937D01*
X115112396Y-73937845D01*
X115143524Y-73975774D01*
X115145863Y-73978928D01*
X115173123Y-74019727D01*
X115175140Y-74023092D01*
X115198271Y-74066365D01*
X115199950Y-74069915D01*
X115218727Y-74115248D01*
X115220050Y-74118943D01*
X115234294Y-74165898D01*
X115235248Y-74169707D01*
X115244820Y-74217832D01*
X115245395Y-74221714D01*
X115250205Y-74270545D01*
X115250398Y-74274466D01*
X115250398Y-74292891D01*
X115251000Y-74299000D01*
X115251000Y-74799000D01*
X115250398Y-74805109D01*
X115250398Y-74823534D01*
X115250205Y-74827455D01*
X115245395Y-74876286D01*
X115244820Y-74880168D01*
X115235248Y-74928293D01*
X115234294Y-74932102D01*
X115220050Y-74979057D01*
X115218727Y-74982752D01*
X115199950Y-75028085D01*
X115198271Y-75031635D01*
X115175140Y-75074908D01*
X115173123Y-75078273D01*
X115145863Y-75119072D01*
X115143524Y-75122226D01*
X115112396Y-75160155D01*
X115109760Y-75163063D01*
X115075063Y-75197760D01*
X115072155Y-75200396D01*
X115034226Y-75231524D01*
X115031072Y-75233863D01*
X114990273Y-75261123D01*
X114986908Y-75263140D01*
X114943635Y-75286271D01*
X114940085Y-75287950D01*
X114894752Y-75306727D01*
X114891057Y-75308050D01*
X114844102Y-75322294D01*
X114840293Y-75323248D01*
X114792168Y-75332820D01*
X114788286Y-75333395D01*
X114739455Y-75338205D01*
X114735534Y-75338398D01*
X114717109Y-75338398D01*
X114711000Y-75339000D01*
X114161000Y-75339000D01*
X114153196Y-75338231D01*
X114145693Y-75335955D01*
X114138777Y-75332259D01*
X114132716Y-75327284D01*
X114127741Y-75321223D01*
X114124045Y-75314307D01*
X114121769Y-75306804D01*
X114121000Y-75299000D01*
X114121000Y-73799000D01*
X114121769Y-73791196D01*
X114124045Y-73783693D01*
X114127741Y-73776777D01*
X114132716Y-73770716D01*
X114138777Y-73765741D01*
X114145693Y-73762045D01*
X114153196Y-73759769D01*
X114161000Y-73759000D01*
X114711000Y-73759000D01*
X114717109Y-73759602D01*
G37*
G36*
G01*
X112871000Y-75299000D02*
X112871000Y-73799000D01*
G75*
G02*
X112911000Y-73759000I40000J0D01*
G01*
X113911000Y-73759000D01*
G75*
G02*
X113951000Y-73799000I0J-40000D01*
G01*
X113951000Y-75299000D01*
G75*
G02*
X113911000Y-75339000I-40000J0D01*
G01*
X112911000Y-75339000D01*
G75*
G02*
X112871000Y-75299000I0J40000D01*
G01*
G37*
G36*
G01*
X100770000Y-84140000D02*
X104970000Y-84140000D01*
G75*
G02*
X105010000Y-84180000I0J-40000D01*
G01*
X105010000Y-86580000D01*
G75*
G02*
X104970000Y-86620000I-40000J0D01*
G01*
X100770000Y-86620000D01*
G75*
G02*
X100730000Y-86580000I0J40000D01*
G01*
X100730000Y-84180000D01*
G75*
G02*
X100770000Y-84140000I40000J0D01*
G01*
G37*
G36*
G01*
X100770000Y-88640000D02*
X104970000Y-88640000D01*
G75*
G02*
X105010000Y-88680000I0J-40000D01*
G01*
X105010000Y-91080000D01*
G75*
G02*
X104970000Y-91120000I-40000J0D01*
G01*
X100770000Y-91120000D01*
G75*
G02*
X100730000Y-91080000I0J40000D01*
G01*
X100730000Y-88680000D01*
G75*
G02*
X100770000Y-88640000I40000J0D01*
G01*
G37*
G36*
G01*
X85432000Y-90806000D02*
X83732000Y-90806000D01*
G75*
G02*
X83692000Y-90766000I0J40000D01*
G01*
X83692000Y-89066000D01*
G75*
G02*
X83732000Y-89026000I40000J0D01*
G01*
X85432000Y-89026000D01*
G75*
G02*
X85472000Y-89066000I0J-40000D01*
G01*
X85472000Y-90766000D01*
G75*
G02*
X85432000Y-90806000I-40000J0D01*
G01*
G37*
D12*
X87122000Y-89916000D03*
X27168000Y-33528000D03*
G36*
G01*
X25478000Y-34418000D02*
X23778000Y-34418000D01*
G75*
G02*
X23738000Y-34378000I0J40000D01*
G01*
X23738000Y-32678000D01*
G75*
G02*
X23778000Y-32638000I40000J0D01*
G01*
X25478000Y-32638000D01*
G75*
G02*
X25518000Y-32678000I0J-40000D01*
G01*
X25518000Y-34378000D01*
G75*
G02*
X25478000Y-34418000I-40000J0D01*
G01*
G37*
G36*
G01*
X9433390Y-26064000D02*
X10378610Y-26064000D01*
G75*
G02*
X10646000Y-26331390I0J-267390D01*
G01*
X10646000Y-27026610D01*
G75*
G02*
X10378610Y-27294000I-267390J0D01*
G01*
X9433390Y-27294000D01*
G75*
G02*
X9166000Y-27026610I0J267390D01*
G01*
X9166000Y-26331390D01*
G75*
G02*
X9433390Y-26064000I267390J0D01*
G01*
G37*
G36*
G01*
X9433390Y-24014000D02*
X10378610Y-24014000D01*
G75*
G02*
X10646000Y-24281390I0J-267390D01*
G01*
X10646000Y-24976610D01*
G75*
G02*
X10378610Y-25244000I-267390J0D01*
G01*
X9433390Y-25244000D01*
G75*
G02*
X9166000Y-24976610I0J267390D01*
G01*
X9166000Y-24281390D01*
G75*
G02*
X9433390Y-24014000I267390J0D01*
G01*
G37*
G36*
G01*
X9433390Y-18172000D02*
X10378610Y-18172000D01*
G75*
G02*
X10646000Y-18439390I0J-267390D01*
G01*
X10646000Y-19134610D01*
G75*
G02*
X10378610Y-19402000I-267390J0D01*
G01*
X9433390Y-19402000D01*
G75*
G02*
X9166000Y-19134610I0J267390D01*
G01*
X9166000Y-18439390D01*
G75*
G02*
X9433390Y-18172000I267390J0D01*
G01*
G37*
G36*
G01*
X9433390Y-20222000D02*
X10378610Y-20222000D01*
G75*
G02*
X10646000Y-20489390I0J-267390D01*
G01*
X10646000Y-21184610D01*
G75*
G02*
X10378610Y-21452000I-267390J0D01*
G01*
X9433390Y-21452000D01*
G75*
G02*
X9166000Y-21184610I0J267390D01*
G01*
X9166000Y-20489390D01*
G75*
G02*
X9433390Y-20222000I267390J0D01*
G01*
G37*
G36*
G01*
X64203000Y-87915750D02*
X64203000Y-88868250D01*
G75*
G02*
X63939250Y-89132000I-263750J0D01*
G01*
X63411750Y-89132000D01*
G75*
G02*
X63148000Y-88868250I0J263750D01*
G01*
X63148000Y-87915750D01*
G75*
G02*
X63411750Y-87652000I263750J0D01*
G01*
X63939250Y-87652000D01*
G75*
G02*
X64203000Y-87915750I0J-263750D01*
G01*
G37*
G36*
G01*
X62328000Y-87915750D02*
X62328000Y-88868250D01*
G75*
G02*
X62064250Y-89132000I-263750J0D01*
G01*
X61536750Y-89132000D01*
G75*
G02*
X61273000Y-88868250I0J263750D01*
G01*
X61273000Y-87915750D01*
G75*
G02*
X61536750Y-87652000I263750J0D01*
G01*
X62064250Y-87652000D01*
G75*
G02*
X62328000Y-87915750I0J-263750D01*
G01*
G37*
G36*
G01*
X81498610Y-55996000D02*
X80553390Y-55996000D01*
G75*
G02*
X80286000Y-55728610I0J267390D01*
G01*
X80286000Y-55033390D01*
G75*
G02*
X80553390Y-54766000I267390J0D01*
G01*
X81498610Y-54766000D01*
G75*
G02*
X81766000Y-55033390I0J-267390D01*
G01*
X81766000Y-55728610D01*
G75*
G02*
X81498610Y-55996000I-267390J0D01*
G01*
G37*
G36*
G01*
X81498610Y-53946000D02*
X80553390Y-53946000D01*
G75*
G02*
X80286000Y-53678610I0J267390D01*
G01*
X80286000Y-52983390D01*
G75*
G02*
X80553390Y-52716000I267390J0D01*
G01*
X81498610Y-52716000D01*
G75*
G02*
X81766000Y-52983390I0J-267390D01*
G01*
X81766000Y-53678610D01*
G75*
G02*
X81498610Y-53946000I-267390J0D01*
G01*
G37*
G36*
G01*
X91658610Y-53946000D02*
X90713390Y-53946000D01*
G75*
G02*
X90446000Y-53678610I0J267390D01*
G01*
X90446000Y-52983390D01*
G75*
G02*
X90713390Y-52716000I267390J0D01*
G01*
X91658610Y-52716000D01*
G75*
G02*
X91926000Y-52983390I0J-267390D01*
G01*
X91926000Y-53678610D01*
G75*
G02*
X91658610Y-53946000I-267390J0D01*
G01*
G37*
G36*
G01*
X91658610Y-55996000D02*
X90713390Y-55996000D01*
G75*
G02*
X90446000Y-55728610I0J267390D01*
G01*
X90446000Y-55033390D01*
G75*
G02*
X90713390Y-54766000I267390J0D01*
G01*
X91658610Y-54766000D01*
G75*
G02*
X91926000Y-55033390I0J-267390D01*
G01*
X91926000Y-55728610D01*
G75*
G02*
X91658610Y-55996000I-267390J0D01*
G01*
G37*
G36*
G01*
X113760250Y-87044500D02*
X112807750Y-87044500D01*
G75*
G02*
X112544000Y-86780750I0J263750D01*
G01*
X112544000Y-86253250D01*
G75*
G02*
X112807750Y-85989500I263750J0D01*
G01*
X113760250Y-85989500D01*
G75*
G02*
X114024000Y-86253250I0J-263750D01*
G01*
X114024000Y-86780750D01*
G75*
G02*
X113760250Y-87044500I-263750J0D01*
G01*
G37*
G36*
G01*
X113760250Y-88919500D02*
X112807750Y-88919500D01*
G75*
G02*
X112544000Y-88655750I0J263750D01*
G01*
X112544000Y-88128250D01*
G75*
G02*
X112807750Y-87864500I263750J0D01*
G01*
X113760250Y-87864500D01*
G75*
G02*
X114024000Y-88128250I0J-263750D01*
G01*
X114024000Y-88655750D01*
G75*
G02*
X113760250Y-88919500I-263750J0D01*
G01*
G37*
G36*
G01*
X112807750Y-82179500D02*
X113760250Y-82179500D01*
G75*
G02*
X114024000Y-82443250I0J-263750D01*
G01*
X114024000Y-82970750D01*
G75*
G02*
X113760250Y-83234500I-263750J0D01*
G01*
X112807750Y-83234500D01*
G75*
G02*
X112544000Y-82970750I0J263750D01*
G01*
X112544000Y-82443250D01*
G75*
G02*
X112807750Y-82179500I263750J0D01*
G01*
G37*
G36*
G01*
X112807750Y-84054500D02*
X113760250Y-84054500D01*
G75*
G02*
X114024000Y-84318250I0J-263750D01*
G01*
X114024000Y-84845750D01*
G75*
G02*
X113760250Y-85109500I-263750J0D01*
G01*
X112807750Y-85109500D01*
G75*
G02*
X112544000Y-84845750I0J263750D01*
G01*
X112544000Y-84318250D01*
G75*
G02*
X112807750Y-84054500I263750J0D01*
G01*
G37*
G36*
G01*
X8224000Y-9006000D02*
X9224000Y-9006000D01*
G75*
G02*
X9264000Y-9046000I0J-40000D01*
G01*
X9264000Y-10596000D01*
G75*
G02*
X9224000Y-10636000I-40000J0D01*
G01*
X8224000Y-10636000D01*
G75*
G02*
X8184000Y-10596000I0J40000D01*
G01*
X8184000Y-9046000D01*
G75*
G02*
X8224000Y-9006000I40000J0D01*
G01*
G37*
G36*
G01*
X8224000Y-14256000D02*
X9224000Y-14256000D01*
G75*
G02*
X9264000Y-14296000I0J-40000D01*
G01*
X9264000Y-15846000D01*
G75*
G02*
X9224000Y-15886000I-40000J0D01*
G01*
X8224000Y-15886000D01*
G75*
G02*
X8184000Y-15846000I0J40000D01*
G01*
X8184000Y-14296000D01*
G75*
G02*
X8224000Y-14256000I40000J0D01*
G01*
G37*
G36*
G01*
X6524000Y-14256000D02*
X7524000Y-14256000D01*
G75*
G02*
X7564000Y-14296000I0J-40000D01*
G01*
X7564000Y-15846000D01*
G75*
G02*
X7524000Y-15886000I-40000J0D01*
G01*
X6524000Y-15886000D01*
G75*
G02*
X6484000Y-15846000I0J40000D01*
G01*
X6484000Y-14296000D01*
G75*
G02*
X6524000Y-14256000I40000J0D01*
G01*
G37*
G36*
G01*
X6524000Y-9006000D02*
X7524000Y-9006000D01*
G75*
G02*
X7564000Y-9046000I0J-40000D01*
G01*
X7564000Y-10596000D01*
G75*
G02*
X7524000Y-10636000I-40000J0D01*
G01*
X6524000Y-10636000D01*
G75*
G02*
X6484000Y-10596000I0J40000D01*
G01*
X6484000Y-9046000D01*
G75*
G02*
X6524000Y-9006000I40000J0D01*
G01*
G37*
G36*
G01*
X6524000Y-30088000D02*
X7524000Y-30088000D01*
G75*
G02*
X7564000Y-30128000I0J-40000D01*
G01*
X7564000Y-31678000D01*
G75*
G02*
X7524000Y-31718000I-40000J0D01*
G01*
X6524000Y-31718000D01*
G75*
G02*
X6484000Y-31678000I0J40000D01*
G01*
X6484000Y-30128000D01*
G75*
G02*
X6524000Y-30088000I40000J0D01*
G01*
G37*
G36*
G01*
X6524000Y-35338000D02*
X7524000Y-35338000D01*
G75*
G02*
X7564000Y-35378000I0J-40000D01*
G01*
X7564000Y-36928000D01*
G75*
G02*
X7524000Y-36968000I-40000J0D01*
G01*
X6524000Y-36968000D01*
G75*
G02*
X6484000Y-36928000I0J40000D01*
G01*
X6484000Y-35378000D01*
G75*
G02*
X6524000Y-35338000I40000J0D01*
G01*
G37*
G36*
G01*
X8224000Y-35338000D02*
X9224000Y-35338000D01*
G75*
G02*
X9264000Y-35378000I0J-40000D01*
G01*
X9264000Y-36928000D01*
G75*
G02*
X9224000Y-36968000I-40000J0D01*
G01*
X8224000Y-36968000D01*
G75*
G02*
X8184000Y-36928000I0J40000D01*
G01*
X8184000Y-35378000D01*
G75*
G02*
X8224000Y-35338000I40000J0D01*
G01*
G37*
G36*
G01*
X8224000Y-30088000D02*
X9224000Y-30088000D01*
G75*
G02*
X9264000Y-30128000I0J-40000D01*
G01*
X9264000Y-31678000D01*
G75*
G02*
X9224000Y-31718000I-40000J0D01*
G01*
X8224000Y-31718000D01*
G75*
G02*
X8184000Y-31678000I0J40000D01*
G01*
X8184000Y-30128000D01*
G75*
G02*
X8224000Y-30088000I40000J0D01*
G01*
G37*
G36*
G01*
X88635000Y-101250000D02*
X88635000Y-100250000D01*
G75*
G02*
X88675000Y-100210000I40000J0D01*
G01*
X90225000Y-100210000D01*
G75*
G02*
X90265000Y-100250000I0J-40000D01*
G01*
X90265000Y-101250000D01*
G75*
G02*
X90225000Y-101290000I-40000J0D01*
G01*
X88675000Y-101290000D01*
G75*
G02*
X88635000Y-101250000I0J40000D01*
G01*
G37*
G36*
G01*
X93885000Y-101250000D02*
X93885000Y-100250000D01*
G75*
G02*
X93925000Y-100210000I40000J0D01*
G01*
X95475000Y-100210000D01*
G75*
G02*
X95515000Y-100250000I0J-40000D01*
G01*
X95515000Y-101250000D01*
G75*
G02*
X95475000Y-101290000I-40000J0D01*
G01*
X93925000Y-101290000D01*
G75*
G02*
X93885000Y-101250000I0J40000D01*
G01*
G37*
G36*
G01*
X93885000Y-102950000D02*
X93885000Y-101950000D01*
G75*
G02*
X93925000Y-101910000I40000J0D01*
G01*
X95475000Y-101910000D01*
G75*
G02*
X95515000Y-101950000I0J-40000D01*
G01*
X95515000Y-102950000D01*
G75*
G02*
X95475000Y-102990000I-40000J0D01*
G01*
X93925000Y-102990000D01*
G75*
G02*
X93885000Y-102950000I0J40000D01*
G01*
G37*
G36*
G01*
X88635000Y-102950000D02*
X88635000Y-101950000D01*
G75*
G02*
X88675000Y-101910000I40000J0D01*
G01*
X90225000Y-101910000D01*
G75*
G02*
X90265000Y-101950000I0J-40000D01*
G01*
X90265000Y-102950000D01*
G75*
G02*
X90225000Y-102990000I-40000J0D01*
G01*
X88675000Y-102990000D01*
G75*
G02*
X88635000Y-102950000I0J40000D01*
G01*
G37*
G36*
G01*
X65216000Y-10641000D02*
X65216000Y-11341000D01*
G75*
G02*
X65176000Y-11381000I-40000J0D01*
G01*
X64176000Y-11381000D01*
G75*
G02*
X64136000Y-11341000I0J40000D01*
G01*
X64136000Y-10641000D01*
G75*
G02*
X64176000Y-10601000I40000J0D01*
G01*
X65176000Y-10601000D01*
G75*
G02*
X65216000Y-10641000I0J-40000D01*
G01*
G37*
G36*
G01*
X65216000Y-8741000D02*
X65216000Y-9441000D01*
G75*
G02*
X65176000Y-9481000I-40000J0D01*
G01*
X64176000Y-9481000D01*
G75*
G02*
X64136000Y-9441000I0J40000D01*
G01*
X64136000Y-8741000D01*
G75*
G02*
X64176000Y-8701000I40000J0D01*
G01*
X65176000Y-8701000D01*
G75*
G02*
X65216000Y-8741000I0J-40000D01*
G01*
G37*
G36*
G01*
X62816000Y-9691000D02*
X62816000Y-10391000D01*
G75*
G02*
X62776000Y-10431000I-40000J0D01*
G01*
X61776000Y-10431000D01*
G75*
G02*
X61736000Y-10391000I0J40000D01*
G01*
X61736000Y-9691000D01*
G75*
G02*
X61776000Y-9651000I40000J0D01*
G01*
X62776000Y-9651000D01*
G75*
G02*
X62816000Y-9691000I0J-40000D01*
G01*
G37*
G36*
G01*
X110660000Y-101280000D02*
X110320000Y-101280000D01*
G75*
G02*
X110150000Y-101110000I0J170000D01*
G01*
X110150000Y-99420000D01*
G75*
G02*
X110320000Y-99250000I170000J0D01*
G01*
X110660000Y-99250000D01*
G75*
G02*
X110830000Y-99420000I0J-170000D01*
G01*
X110830000Y-101110000D01*
G75*
G02*
X110660000Y-101280000I-170000J0D01*
G01*
G37*
G36*
G01*
X111930000Y-101280000D02*
X111590000Y-101280000D01*
G75*
G02*
X111420000Y-101110000I0J170000D01*
G01*
X111420000Y-99420000D01*
G75*
G02*
X111590000Y-99250000I170000J0D01*
G01*
X111930000Y-99250000D01*
G75*
G02*
X112100000Y-99420000I0J-170000D01*
G01*
X112100000Y-101110000D01*
G75*
G02*
X111930000Y-101280000I-170000J0D01*
G01*
G37*
G36*
G01*
X113200000Y-101280000D02*
X112860000Y-101280000D01*
G75*
G02*
X112690000Y-101110000I0J170000D01*
G01*
X112690000Y-99420000D01*
G75*
G02*
X112860000Y-99250000I170000J0D01*
G01*
X113200000Y-99250000D01*
G75*
G02*
X113370000Y-99420000I0J-170000D01*
G01*
X113370000Y-101110000D01*
G75*
G02*
X113200000Y-101280000I-170000J0D01*
G01*
G37*
G36*
G01*
X114470000Y-101280000D02*
X114130000Y-101280000D01*
G75*
G02*
X113960000Y-101110000I0J170000D01*
G01*
X113960000Y-99420000D01*
G75*
G02*
X114130000Y-99250000I170000J0D01*
G01*
X114470000Y-99250000D01*
G75*
G02*
X114640000Y-99420000I0J-170000D01*
G01*
X114640000Y-101110000D01*
G75*
G02*
X114470000Y-101280000I-170000J0D01*
G01*
G37*
G36*
G01*
X114470000Y-96330000D02*
X114130000Y-96330000D01*
G75*
G02*
X113960000Y-96160000I0J170000D01*
G01*
X113960000Y-94470000D01*
G75*
G02*
X114130000Y-94300000I170000J0D01*
G01*
X114470000Y-94300000D01*
G75*
G02*
X114640000Y-94470000I0J-170000D01*
G01*
X114640000Y-96160000D01*
G75*
G02*
X114470000Y-96330000I-170000J0D01*
G01*
G37*
G36*
G01*
X113200000Y-96330000D02*
X112860000Y-96330000D01*
G75*
G02*
X112690000Y-96160000I0J170000D01*
G01*
X112690000Y-94470000D01*
G75*
G02*
X112860000Y-94300000I170000J0D01*
G01*
X113200000Y-94300000D01*
G75*
G02*
X113370000Y-94470000I0J-170000D01*
G01*
X113370000Y-96160000D01*
G75*
G02*
X113200000Y-96330000I-170000J0D01*
G01*
G37*
G36*
G01*
X111930000Y-96330000D02*
X111590000Y-96330000D01*
G75*
G02*
X111420000Y-96160000I0J170000D01*
G01*
X111420000Y-94470000D01*
G75*
G02*
X111590000Y-94300000I170000J0D01*
G01*
X111930000Y-94300000D01*
G75*
G02*
X112100000Y-94470000I0J-170000D01*
G01*
X112100000Y-96160000D01*
G75*
G02*
X111930000Y-96330000I-170000J0D01*
G01*
G37*
G36*
G01*
X110660000Y-96330000D02*
X110320000Y-96330000D01*
G75*
G02*
X110150000Y-96160000I0J170000D01*
G01*
X110150000Y-94470000D01*
G75*
G02*
X110320000Y-94300000I170000J0D01*
G01*
X110660000Y-94300000D01*
G75*
G02*
X110830000Y-94470000I0J-170000D01*
G01*
X110830000Y-96160000D01*
G75*
G02*
X110660000Y-96330000I-170000J0D01*
G01*
G37*
G36*
G01*
X58195000Y-66491000D02*
X58645000Y-66491000D01*
G75*
G02*
X58685000Y-66531000I0J-40000D01*
G01*
X58685000Y-67581000D01*
G75*
G02*
X58645000Y-67621000I-40000J0D01*
G01*
X58195000Y-67621000D01*
G75*
G02*
X58155000Y-67581000I0J40000D01*
G01*
X58155000Y-66531000D01*
G75*
G02*
X58195000Y-66491000I40000J0D01*
G01*
G37*
G36*
G01*
X57545000Y-66491000D02*
X57995000Y-66491000D01*
G75*
G02*
X58035000Y-66531000I0J-40000D01*
G01*
X58035000Y-67581000D01*
G75*
G02*
X57995000Y-67621000I-40000J0D01*
G01*
X57545000Y-67621000D01*
G75*
G02*
X57505000Y-67581000I0J40000D01*
G01*
X57505000Y-66531000D01*
G75*
G02*
X57545000Y-66491000I40000J0D01*
G01*
G37*
G36*
G01*
X56895000Y-66491000D02*
X57345000Y-66491000D01*
G75*
G02*
X57385000Y-66531000I0J-40000D01*
G01*
X57385000Y-67581000D01*
G75*
G02*
X57345000Y-67621000I-40000J0D01*
G01*
X56895000Y-67621000D01*
G75*
G02*
X56855000Y-67581000I0J40000D01*
G01*
X56855000Y-66531000D01*
G75*
G02*
X56895000Y-66491000I40000J0D01*
G01*
G37*
G36*
G01*
X56245000Y-66491000D02*
X56695000Y-66491000D01*
G75*
G02*
X56735000Y-66531000I0J-40000D01*
G01*
X56735000Y-67581000D01*
G75*
G02*
X56695000Y-67621000I-40000J0D01*
G01*
X56245000Y-67621000D01*
G75*
G02*
X56205000Y-67581000I0J40000D01*
G01*
X56205000Y-66531000D01*
G75*
G02*
X56245000Y-66491000I40000J0D01*
G01*
G37*
G36*
G01*
X55595000Y-66491000D02*
X56045000Y-66491000D01*
G75*
G02*
X56085000Y-66531000I0J-40000D01*
G01*
X56085000Y-67581000D01*
G75*
G02*
X56045000Y-67621000I-40000J0D01*
G01*
X55595000Y-67621000D01*
G75*
G02*
X55555000Y-67581000I0J40000D01*
G01*
X55555000Y-66531000D01*
G75*
G02*
X55595000Y-66491000I40000J0D01*
G01*
G37*
G36*
G01*
X54945000Y-66491000D02*
X55395000Y-66491000D01*
G75*
G02*
X55435000Y-66531000I0J-40000D01*
G01*
X55435000Y-67581000D01*
G75*
G02*
X55395000Y-67621000I-40000J0D01*
G01*
X54945000Y-67621000D01*
G75*
G02*
X54905000Y-67581000I0J40000D01*
G01*
X54905000Y-66531000D01*
G75*
G02*
X54945000Y-66491000I40000J0D01*
G01*
G37*
G36*
G01*
X54295000Y-66491000D02*
X54745000Y-66491000D01*
G75*
G02*
X54785000Y-66531000I0J-40000D01*
G01*
X54785000Y-67581000D01*
G75*
G02*
X54745000Y-67621000I-40000J0D01*
G01*
X54295000Y-67621000D01*
G75*
G02*
X54255000Y-67581000I0J40000D01*
G01*
X54255000Y-66531000D01*
G75*
G02*
X54295000Y-66491000I40000J0D01*
G01*
G37*
G36*
G01*
X53645000Y-66491000D02*
X54095000Y-66491000D01*
G75*
G02*
X54135000Y-66531000I0J-40000D01*
G01*
X54135000Y-67581000D01*
G75*
G02*
X54095000Y-67621000I-40000J0D01*
G01*
X53645000Y-67621000D01*
G75*
G02*
X53605000Y-67581000I0J40000D01*
G01*
X53605000Y-66531000D01*
G75*
G02*
X53645000Y-66491000I40000J0D01*
G01*
G37*
G36*
G01*
X53645000Y-72041000D02*
X54095000Y-72041000D01*
G75*
G02*
X54135000Y-72081000I0J-40000D01*
G01*
X54135000Y-73131000D01*
G75*
G02*
X54095000Y-73171000I-40000J0D01*
G01*
X53645000Y-73171000D01*
G75*
G02*
X53605000Y-73131000I0J40000D01*
G01*
X53605000Y-72081000D01*
G75*
G02*
X53645000Y-72041000I40000J0D01*
G01*
G37*
G36*
G01*
X54295000Y-72041000D02*
X54745000Y-72041000D01*
G75*
G02*
X54785000Y-72081000I0J-40000D01*
G01*
X54785000Y-73131000D01*
G75*
G02*
X54745000Y-73171000I-40000J0D01*
G01*
X54295000Y-73171000D01*
G75*
G02*
X54255000Y-73131000I0J40000D01*
G01*
X54255000Y-72081000D01*
G75*
G02*
X54295000Y-72041000I40000J0D01*
G01*
G37*
G36*
G01*
X54945000Y-72041000D02*
X55395000Y-72041000D01*
G75*
G02*
X55435000Y-72081000I0J-40000D01*
G01*
X55435000Y-73131000D01*
G75*
G02*
X55395000Y-73171000I-40000J0D01*
G01*
X54945000Y-73171000D01*
G75*
G02*
X54905000Y-73131000I0J40000D01*
G01*
X54905000Y-72081000D01*
G75*
G02*
X54945000Y-72041000I40000J0D01*
G01*
G37*
G36*
G01*
X55595000Y-72041000D02*
X56045000Y-72041000D01*
G75*
G02*
X56085000Y-72081000I0J-40000D01*
G01*
X56085000Y-73131000D01*
G75*
G02*
X56045000Y-73171000I-40000J0D01*
G01*
X55595000Y-73171000D01*
G75*
G02*
X55555000Y-73131000I0J40000D01*
G01*
X55555000Y-72081000D01*
G75*
G02*
X55595000Y-72041000I40000J0D01*
G01*
G37*
G36*
G01*
X56245000Y-72041000D02*
X56695000Y-72041000D01*
G75*
G02*
X56735000Y-72081000I0J-40000D01*
G01*
X56735000Y-73131000D01*
G75*
G02*
X56695000Y-73171000I-40000J0D01*
G01*
X56245000Y-73171000D01*
G75*
G02*
X56205000Y-73131000I0J40000D01*
G01*
X56205000Y-72081000D01*
G75*
G02*
X56245000Y-72041000I40000J0D01*
G01*
G37*
G36*
G01*
X56895000Y-72041000D02*
X57345000Y-72041000D01*
G75*
G02*
X57385000Y-72081000I0J-40000D01*
G01*
X57385000Y-73131000D01*
G75*
G02*
X57345000Y-73171000I-40000J0D01*
G01*
X56895000Y-73171000D01*
G75*
G02*
X56855000Y-73131000I0J40000D01*
G01*
X56855000Y-72081000D01*
G75*
G02*
X56895000Y-72041000I40000J0D01*
G01*
G37*
G36*
G01*
X57545000Y-72041000D02*
X57995000Y-72041000D01*
G75*
G02*
X58035000Y-72081000I0J-40000D01*
G01*
X58035000Y-73131000D01*
G75*
G02*
X57995000Y-73171000I-40000J0D01*
G01*
X57545000Y-73171000D01*
G75*
G02*
X57505000Y-73131000I0J40000D01*
G01*
X57505000Y-72081000D01*
G75*
G02*
X57545000Y-72041000I40000J0D01*
G01*
G37*
G36*
G01*
X58195000Y-72041000D02*
X58645000Y-72041000D01*
G75*
G02*
X58685000Y-72081000I0J-40000D01*
G01*
X58685000Y-73131000D01*
G75*
G02*
X58645000Y-73171000I-40000J0D01*
G01*
X58195000Y-73171000D01*
G75*
G02*
X58155000Y-73131000I0J40000D01*
G01*
X58155000Y-72081000D01*
G75*
G02*
X58195000Y-72041000I40000J0D01*
G01*
G37*
D13*
X56145000Y-69831000D03*
G36*
G01*
X102665000Y-95890000D02*
X102665000Y-99690000D01*
G75*
G02*
X102625000Y-99730000I-40000J0D01*
G01*
X100625000Y-99730000D01*
G75*
G02*
X100585000Y-99690000I0J40000D01*
G01*
X100585000Y-95890000D01*
G75*
G02*
X100625000Y-95850000I40000J0D01*
G01*
X102625000Y-95850000D01*
G75*
G02*
X102665000Y-95890000I0J-40000D01*
G01*
G37*
G36*
G01*
X108965000Y-97040000D02*
X108965000Y-98540000D01*
G75*
G02*
X108925000Y-98580000I-40000J0D01*
G01*
X106925000Y-98580000D01*
G75*
G02*
X106885000Y-98540000I0J40000D01*
G01*
X106885000Y-97040000D01*
G75*
G02*
X106925000Y-97000000I40000J0D01*
G01*
X108925000Y-97000000D01*
G75*
G02*
X108965000Y-97040000I0J-40000D01*
G01*
G37*
G36*
G01*
X108965000Y-94740000D02*
X108965000Y-96240000D01*
G75*
G02*
X108925000Y-96280000I-40000J0D01*
G01*
X106925000Y-96280000D01*
G75*
G02*
X106885000Y-96240000I0J40000D01*
G01*
X106885000Y-94740000D01*
G75*
G02*
X106925000Y-94700000I40000J0D01*
G01*
X108925000Y-94700000D01*
G75*
G02*
X108965000Y-94740000I0J-40000D01*
G01*
G37*
G36*
G01*
X108965000Y-99340000D02*
X108965000Y-100840000D01*
G75*
G02*
X108925000Y-100880000I-40000J0D01*
G01*
X106925000Y-100880000D01*
G75*
G02*
X106885000Y-100840000I0J40000D01*
G01*
X106885000Y-99340000D01*
G75*
G02*
X106925000Y-99300000I40000J0D01*
G01*
X108925000Y-99300000D01*
G75*
G02*
X108965000Y-99340000I0J-40000D01*
G01*
G37*
G36*
G01*
X69504261Y-85053524D02*
X69638612Y-84919173D01*
G75*
G02*
X69772962Y-84919173I67175J-67175D01*
G01*
X70738163Y-85884374D01*
G75*
G02*
X70738163Y-86018724I-67175J-67175D01*
G01*
X70603812Y-86153075D01*
G75*
G02*
X70469462Y-86153075I-67175J67175D01*
G01*
X69504261Y-85187874D01*
G75*
G02*
X69504261Y-85053524I67175J67175D01*
G01*
G37*
G36*
G01*
X69150707Y-85407078D02*
X69285058Y-85272727D01*
G75*
G02*
X69419408Y-85272727I67175J-67175D01*
G01*
X70384609Y-86237928D01*
G75*
G02*
X70384609Y-86372278I-67175J-67175D01*
G01*
X70250258Y-86506629D01*
G75*
G02*
X70115908Y-86506629I-67175J67175D01*
G01*
X69150707Y-85541428D01*
G75*
G02*
X69150707Y-85407078I67175J67175D01*
G01*
G37*
G36*
G01*
X68797154Y-85760631D02*
X68931505Y-85626280D01*
G75*
G02*
X69065855Y-85626280I67175J-67175D01*
G01*
X70031056Y-86591481D01*
G75*
G02*
X70031056Y-86725831I-67175J-67175D01*
G01*
X69896705Y-86860182D01*
G75*
G02*
X69762355Y-86860182I-67175J67175D01*
G01*
X68797154Y-85894981D01*
G75*
G02*
X68797154Y-85760631I67175J67175D01*
G01*
G37*
G36*
G01*
X68443600Y-86114185D02*
X68577951Y-85979834D01*
G75*
G02*
X68712301Y-85979834I67175J-67175D01*
G01*
X69677502Y-86945035D01*
G75*
G02*
X69677502Y-87079385I-67175J-67175D01*
G01*
X69543151Y-87213736D01*
G75*
G02*
X69408801Y-87213736I-67175J67175D01*
G01*
X68443600Y-86248535D01*
G75*
G02*
X68443600Y-86114185I67175J67175D01*
G01*
G37*
G36*
G01*
X68090047Y-86467738D02*
X68224398Y-86333387D01*
G75*
G02*
X68358748Y-86333387I67175J-67175D01*
G01*
X69323949Y-87298588D01*
G75*
G02*
X69323949Y-87432938I-67175J-67175D01*
G01*
X69189598Y-87567289D01*
G75*
G02*
X69055248Y-87567289I-67175J67175D01*
G01*
X68090047Y-86602088D01*
G75*
G02*
X68090047Y-86467738I67175J67175D01*
G01*
G37*
G36*
G01*
X67736494Y-86821291D02*
X67870845Y-86686940D01*
G75*
G02*
X68005195Y-86686940I67175J-67175D01*
G01*
X68970396Y-87652141D01*
G75*
G02*
X68970396Y-87786491I-67175J-67175D01*
G01*
X68836045Y-87920842D01*
G75*
G02*
X68701695Y-87920842I-67175J67175D01*
G01*
X67736494Y-86955641D01*
G75*
G02*
X67736494Y-86821291I67175J67175D01*
G01*
G37*
G36*
G01*
X67382940Y-87174845D02*
X67517291Y-87040494D01*
G75*
G02*
X67651641Y-87040494I67175J-67175D01*
G01*
X68616842Y-88005695D01*
G75*
G02*
X68616842Y-88140045I-67175J-67175D01*
G01*
X68482491Y-88274396D01*
G75*
G02*
X68348141Y-88274396I-67175J67175D01*
G01*
X67382940Y-87309195D01*
G75*
G02*
X67382940Y-87174845I67175J67175D01*
G01*
G37*
G36*
G01*
X67029387Y-87528398D02*
X67163738Y-87394047D01*
G75*
G02*
X67298088Y-87394047I67175J-67175D01*
G01*
X68263289Y-88359248D01*
G75*
G02*
X68263289Y-88493598I-67175J-67175D01*
G01*
X68128938Y-88627949D01*
G75*
G02*
X67994588Y-88627949I-67175J67175D01*
G01*
X67029387Y-87662748D01*
G75*
G02*
X67029387Y-87528398I67175J67175D01*
G01*
G37*
G36*
G01*
X66675834Y-87881951D02*
X66810185Y-87747600D01*
G75*
G02*
X66944535Y-87747600I67175J-67175D01*
G01*
X67909736Y-88712801D01*
G75*
G02*
X67909736Y-88847151I-67175J-67175D01*
G01*
X67775385Y-88981502D01*
G75*
G02*
X67641035Y-88981502I-67175J67175D01*
G01*
X66675834Y-88016301D01*
G75*
G02*
X66675834Y-87881951I67175J67175D01*
G01*
G37*
G36*
G01*
X66322280Y-88235505D02*
X66456631Y-88101154D01*
G75*
G02*
X66590981Y-88101154I67175J-67175D01*
G01*
X67556182Y-89066355D01*
G75*
G02*
X67556182Y-89200705I-67175J-67175D01*
G01*
X67421831Y-89335056D01*
G75*
G02*
X67287481Y-89335056I-67175J67175D01*
G01*
X66322280Y-88369855D01*
G75*
G02*
X66322280Y-88235505I67175J67175D01*
G01*
G37*
G36*
G01*
X65968727Y-88589058D02*
X66103078Y-88454707D01*
G75*
G02*
X66237428Y-88454707I67175J-67175D01*
G01*
X67202629Y-89419908D01*
G75*
G02*
X67202629Y-89554258I-67175J-67175D01*
G01*
X67068278Y-89688609D01*
G75*
G02*
X66933928Y-89688609I-67175J67175D01*
G01*
X65968727Y-88723408D01*
G75*
G02*
X65968727Y-88589058I67175J67175D01*
G01*
G37*
G36*
G01*
X65615173Y-88942612D02*
X65749524Y-88808261D01*
G75*
G02*
X65883874Y-88808261I67175J-67175D01*
G01*
X66849075Y-89773462D01*
G75*
G02*
X66849075Y-89907812I-67175J-67175D01*
G01*
X66714724Y-90042163D01*
G75*
G02*
X66580374Y-90042163I-67175J67175D01*
G01*
X65615173Y-89076962D01*
G75*
G02*
X65615173Y-88942612I67175J67175D01*
G01*
G37*
G36*
G01*
X65615173Y-91771038D02*
X66580374Y-90805837D01*
G75*
G02*
X66714724Y-90805837I67175J-67175D01*
G01*
X66849075Y-90940188D01*
G75*
G02*
X66849075Y-91074538I-67175J-67175D01*
G01*
X65883874Y-92039739D01*
G75*
G02*
X65749524Y-92039739I-67175J67175D01*
G01*
X65615173Y-91905388D01*
G75*
G02*
X65615173Y-91771038I67175J67175D01*
G01*
G37*
G36*
G01*
X65968727Y-92124592D02*
X66933928Y-91159391D01*
G75*
G02*
X67068278Y-91159391I67175J-67175D01*
G01*
X67202629Y-91293742D01*
G75*
G02*
X67202629Y-91428092I-67175J-67175D01*
G01*
X66237428Y-92393293D01*
G75*
G02*
X66103078Y-92393293I-67175J67175D01*
G01*
X65968727Y-92258942D01*
G75*
G02*
X65968727Y-92124592I67175J67175D01*
G01*
G37*
G36*
G01*
X66322280Y-92478145D02*
X67287481Y-91512944D01*
G75*
G02*
X67421831Y-91512944I67175J-67175D01*
G01*
X67556182Y-91647295D01*
G75*
G02*
X67556182Y-91781645I-67175J-67175D01*
G01*
X66590981Y-92746846D01*
G75*
G02*
X66456631Y-92746846I-67175J67175D01*
G01*
X66322280Y-92612495D01*
G75*
G02*
X66322280Y-92478145I67175J67175D01*
G01*
G37*
G36*
G01*
X66675834Y-92831699D02*
X67641035Y-91866498D01*
G75*
G02*
X67775385Y-91866498I67175J-67175D01*
G01*
X67909736Y-92000849D01*
G75*
G02*
X67909736Y-92135199I-67175J-67175D01*
G01*
X66944535Y-93100400D01*
G75*
G02*
X66810185Y-93100400I-67175J67175D01*
G01*
X66675834Y-92966049D01*
G75*
G02*
X66675834Y-92831699I67175J67175D01*
G01*
G37*
G36*
G01*
X67029387Y-93185252D02*
X67994588Y-92220051D01*
G75*
G02*
X68128938Y-92220051I67175J-67175D01*
G01*
X68263289Y-92354402D01*
G75*
G02*
X68263289Y-92488752I-67175J-67175D01*
G01*
X67298088Y-93453953D01*
G75*
G02*
X67163738Y-93453953I-67175J67175D01*
G01*
X67029387Y-93319602D01*
G75*
G02*
X67029387Y-93185252I67175J67175D01*
G01*
G37*
G36*
G01*
X67382940Y-93538805D02*
X68348141Y-92573604D01*
G75*
G02*
X68482491Y-92573604I67175J-67175D01*
G01*
X68616842Y-92707955D01*
G75*
G02*
X68616842Y-92842305I-67175J-67175D01*
G01*
X67651641Y-93807506D01*
G75*
G02*
X67517291Y-93807506I-67175J67175D01*
G01*
X67382940Y-93673155D01*
G75*
G02*
X67382940Y-93538805I67175J67175D01*
G01*
G37*
G36*
G01*
X67736494Y-93892359D02*
X68701695Y-92927158D01*
G75*
G02*
X68836045Y-92927158I67175J-67175D01*
G01*
X68970396Y-93061509D01*
G75*
G02*
X68970396Y-93195859I-67175J-67175D01*
G01*
X68005195Y-94161060D01*
G75*
G02*
X67870845Y-94161060I-67175J67175D01*
G01*
X67736494Y-94026709D01*
G75*
G02*
X67736494Y-93892359I67175J67175D01*
G01*
G37*
G36*
G01*
X68090047Y-94245912D02*
X69055248Y-93280711D01*
G75*
G02*
X69189598Y-93280711I67175J-67175D01*
G01*
X69323949Y-93415062D01*
G75*
G02*
X69323949Y-93549412I-67175J-67175D01*
G01*
X68358748Y-94514613D01*
G75*
G02*
X68224398Y-94514613I-67175J67175D01*
G01*
X68090047Y-94380262D01*
G75*
G02*
X68090047Y-94245912I67175J67175D01*
G01*
G37*
G36*
G01*
X68443600Y-94599465D02*
X69408801Y-93634264D01*
G75*
G02*
X69543151Y-93634264I67175J-67175D01*
G01*
X69677502Y-93768615D01*
G75*
G02*
X69677502Y-93902965I-67175J-67175D01*
G01*
X68712301Y-94868166D01*
G75*
G02*
X68577951Y-94868166I-67175J67175D01*
G01*
X68443600Y-94733815D01*
G75*
G02*
X68443600Y-94599465I67175J67175D01*
G01*
G37*
G36*
G01*
X68797154Y-94953019D02*
X69762355Y-93987818D01*
G75*
G02*
X69896705Y-93987818I67175J-67175D01*
G01*
X70031056Y-94122169D01*
G75*
G02*
X70031056Y-94256519I-67175J-67175D01*
G01*
X69065855Y-95221720D01*
G75*
G02*
X68931505Y-95221720I-67175J67175D01*
G01*
X68797154Y-95087369D01*
G75*
G02*
X68797154Y-94953019I67175J67175D01*
G01*
G37*
G36*
G01*
X69150707Y-95306572D02*
X70115908Y-94341371D01*
G75*
G02*
X70250258Y-94341371I67175J-67175D01*
G01*
X70384609Y-94475722D01*
G75*
G02*
X70384609Y-94610072I-67175J-67175D01*
G01*
X69419408Y-95575273D01*
G75*
G02*
X69285058Y-95575273I-67175J67175D01*
G01*
X69150707Y-95440922D01*
G75*
G02*
X69150707Y-95306572I67175J67175D01*
G01*
G37*
G36*
G01*
X69504261Y-95660126D02*
X70469462Y-94694925D01*
G75*
G02*
X70603812Y-94694925I67175J-67175D01*
G01*
X70738163Y-94829276D01*
G75*
G02*
X70738163Y-94963626I-67175J-67175D01*
G01*
X69772962Y-95928827D01*
G75*
G02*
X69638612Y-95928827I-67175J67175D01*
G01*
X69504261Y-95794476D01*
G75*
G02*
X69504261Y-95660126I67175J67175D01*
G01*
G37*
G36*
G01*
X71501837Y-94829276D02*
X71636188Y-94694925D01*
G75*
G02*
X71770538Y-94694925I67175J-67175D01*
G01*
X72735739Y-95660126D01*
G75*
G02*
X72735739Y-95794476I-67175J-67175D01*
G01*
X72601388Y-95928827D01*
G75*
G02*
X72467038Y-95928827I-67175J67175D01*
G01*
X71501837Y-94963626D01*
G75*
G02*
X71501837Y-94829276I67175J67175D01*
G01*
G37*
G36*
G01*
X71855391Y-94475722D02*
X71989742Y-94341371D01*
G75*
G02*
X72124092Y-94341371I67175J-67175D01*
G01*
X73089293Y-95306572D01*
G75*
G02*
X73089293Y-95440922I-67175J-67175D01*
G01*
X72954942Y-95575273D01*
G75*
G02*
X72820592Y-95575273I-67175J67175D01*
G01*
X71855391Y-94610072D01*
G75*
G02*
X71855391Y-94475722I67175J67175D01*
G01*
G37*
G36*
G01*
X72208944Y-94122169D02*
X72343295Y-93987818D01*
G75*
G02*
X72477645Y-93987818I67175J-67175D01*
G01*
X73442846Y-94953019D01*
G75*
G02*
X73442846Y-95087369I-67175J-67175D01*
G01*
X73308495Y-95221720D01*
G75*
G02*
X73174145Y-95221720I-67175J67175D01*
G01*
X72208944Y-94256519D01*
G75*
G02*
X72208944Y-94122169I67175J67175D01*
G01*
G37*
G36*
G01*
X72562498Y-93768615D02*
X72696849Y-93634264D01*
G75*
G02*
X72831199Y-93634264I67175J-67175D01*
G01*
X73796400Y-94599465D01*
G75*
G02*
X73796400Y-94733815I-67175J-67175D01*
G01*
X73662049Y-94868166D01*
G75*
G02*
X73527699Y-94868166I-67175J67175D01*
G01*
X72562498Y-93902965D01*
G75*
G02*
X72562498Y-93768615I67175J67175D01*
G01*
G37*
G36*
G01*
X72916051Y-93415062D02*
X73050402Y-93280711D01*
G75*
G02*
X73184752Y-93280711I67175J-67175D01*
G01*
X74149953Y-94245912D01*
G75*
G02*
X74149953Y-94380262I-67175J-67175D01*
G01*
X74015602Y-94514613D01*
G75*
G02*
X73881252Y-94514613I-67175J67175D01*
G01*
X72916051Y-93549412D01*
G75*
G02*
X72916051Y-93415062I67175J67175D01*
G01*
G37*
G36*
G01*
X73269604Y-93061509D02*
X73403955Y-92927158D01*
G75*
G02*
X73538305Y-92927158I67175J-67175D01*
G01*
X74503506Y-93892359D01*
G75*
G02*
X74503506Y-94026709I-67175J-67175D01*
G01*
X74369155Y-94161060D01*
G75*
G02*
X74234805Y-94161060I-67175J67175D01*
G01*
X73269604Y-93195859D01*
G75*
G02*
X73269604Y-93061509I67175J67175D01*
G01*
G37*
G36*
G01*
X73623158Y-92707955D02*
X73757509Y-92573604D01*
G75*
G02*
X73891859Y-92573604I67175J-67175D01*
G01*
X74857060Y-93538805D01*
G75*
G02*
X74857060Y-93673155I-67175J-67175D01*
G01*
X74722709Y-93807506D01*
G75*
G02*
X74588359Y-93807506I-67175J67175D01*
G01*
X73623158Y-92842305D01*
G75*
G02*
X73623158Y-92707955I67175J67175D01*
G01*
G37*
G36*
G01*
X73976711Y-92354402D02*
X74111062Y-92220051D01*
G75*
G02*
X74245412Y-92220051I67175J-67175D01*
G01*
X75210613Y-93185252D01*
G75*
G02*
X75210613Y-93319602I-67175J-67175D01*
G01*
X75076262Y-93453953D01*
G75*
G02*
X74941912Y-93453953I-67175J67175D01*
G01*
X73976711Y-92488752D01*
G75*
G02*
X73976711Y-92354402I67175J67175D01*
G01*
G37*
G36*
G01*
X74330264Y-92000849D02*
X74464615Y-91866498D01*
G75*
G02*
X74598965Y-91866498I67175J-67175D01*
G01*
X75564166Y-92831699D01*
G75*
G02*
X75564166Y-92966049I-67175J-67175D01*
G01*
X75429815Y-93100400D01*
G75*
G02*
X75295465Y-93100400I-67175J67175D01*
G01*
X74330264Y-92135199D01*
G75*
G02*
X74330264Y-92000849I67175J67175D01*
G01*
G37*
G36*
G01*
X74683818Y-91647295D02*
X74818169Y-91512944D01*
G75*
G02*
X74952519Y-91512944I67175J-67175D01*
G01*
X75917720Y-92478145D01*
G75*
G02*
X75917720Y-92612495I-67175J-67175D01*
G01*
X75783369Y-92746846D01*
G75*
G02*
X75649019Y-92746846I-67175J67175D01*
G01*
X74683818Y-91781645D01*
G75*
G02*
X74683818Y-91647295I67175J67175D01*
G01*
G37*
G36*
G01*
X75037371Y-91293742D02*
X75171722Y-91159391D01*
G75*
G02*
X75306072Y-91159391I67175J-67175D01*
G01*
X76271273Y-92124592D01*
G75*
G02*
X76271273Y-92258942I-67175J-67175D01*
G01*
X76136922Y-92393293D01*
G75*
G02*
X76002572Y-92393293I-67175J67175D01*
G01*
X75037371Y-91428092D01*
G75*
G02*
X75037371Y-91293742I67175J67175D01*
G01*
G37*
G36*
G01*
X75390925Y-90940188D02*
X75525276Y-90805837D01*
G75*
G02*
X75659626Y-90805837I67175J-67175D01*
G01*
X76624827Y-91771038D01*
G75*
G02*
X76624827Y-91905388I-67175J-67175D01*
G01*
X76490476Y-92039739D01*
G75*
G02*
X76356126Y-92039739I-67175J67175D01*
G01*
X75390925Y-91074538D01*
G75*
G02*
X75390925Y-90940188I67175J67175D01*
G01*
G37*
G36*
G01*
X75390925Y-89773462D02*
X76356126Y-88808261D01*
G75*
G02*
X76490476Y-88808261I67175J-67175D01*
G01*
X76624827Y-88942612D01*
G75*
G02*
X76624827Y-89076962I-67175J-67175D01*
G01*
X75659626Y-90042163D01*
G75*
G02*
X75525276Y-90042163I-67175J67175D01*
G01*
X75390925Y-89907812D01*
G75*
G02*
X75390925Y-89773462I67175J67175D01*
G01*
G37*
G36*
G01*
X75037371Y-89419908D02*
X76002572Y-88454707D01*
G75*
G02*
X76136922Y-88454707I67175J-67175D01*
G01*
X76271273Y-88589058D01*
G75*
G02*
X76271273Y-88723408I-67175J-67175D01*
G01*
X75306072Y-89688609D01*
G75*
G02*
X75171722Y-89688609I-67175J67175D01*
G01*
X75037371Y-89554258D01*
G75*
G02*
X75037371Y-89419908I67175J67175D01*
G01*
G37*
G36*
G01*
X74683818Y-89066355D02*
X75649019Y-88101154D01*
G75*
G02*
X75783369Y-88101154I67175J-67175D01*
G01*
X75917720Y-88235505D01*
G75*
G02*
X75917720Y-88369855I-67175J-67175D01*
G01*
X74952519Y-89335056D01*
G75*
G02*
X74818169Y-89335056I-67175J67175D01*
G01*
X74683818Y-89200705D01*
G75*
G02*
X74683818Y-89066355I67175J67175D01*
G01*
G37*
G36*
G01*
X74330264Y-88712801D02*
X75295465Y-87747600D01*
G75*
G02*
X75429815Y-87747600I67175J-67175D01*
G01*
X75564166Y-87881951D01*
G75*
G02*
X75564166Y-88016301I-67175J-67175D01*
G01*
X74598965Y-88981502D01*
G75*
G02*
X74464615Y-88981502I-67175J67175D01*
G01*
X74330264Y-88847151D01*
G75*
G02*
X74330264Y-88712801I67175J67175D01*
G01*
G37*
G36*
G01*
X73976711Y-88359248D02*
X74941912Y-87394047D01*
G75*
G02*
X75076262Y-87394047I67175J-67175D01*
G01*
X75210613Y-87528398D01*
G75*
G02*
X75210613Y-87662748I-67175J-67175D01*
G01*
X74245412Y-88627949D01*
G75*
G02*
X74111062Y-88627949I-67175J67175D01*
G01*
X73976711Y-88493598D01*
G75*
G02*
X73976711Y-88359248I67175J67175D01*
G01*
G37*
G36*
G01*
X73623158Y-88005695D02*
X74588359Y-87040494D01*
G75*
G02*
X74722709Y-87040494I67175J-67175D01*
G01*
X74857060Y-87174845D01*
G75*
G02*
X74857060Y-87309195I-67175J-67175D01*
G01*
X73891859Y-88274396D01*
G75*
G02*
X73757509Y-88274396I-67175J67175D01*
G01*
X73623158Y-88140045D01*
G75*
G02*
X73623158Y-88005695I67175J67175D01*
G01*
G37*
G36*
G01*
X73269604Y-87652141D02*
X74234805Y-86686940D01*
G75*
G02*
X74369155Y-86686940I67175J-67175D01*
G01*
X74503506Y-86821291D01*
G75*
G02*
X74503506Y-86955641I-67175J-67175D01*
G01*
X73538305Y-87920842D01*
G75*
G02*
X73403955Y-87920842I-67175J67175D01*
G01*
X73269604Y-87786491D01*
G75*
G02*
X73269604Y-87652141I67175J67175D01*
G01*
G37*
G36*
G01*
X72916051Y-87298588D02*
X73881252Y-86333387D01*
G75*
G02*
X74015602Y-86333387I67175J-67175D01*
G01*
X74149953Y-86467738D01*
G75*
G02*
X74149953Y-86602088I-67175J-67175D01*
G01*
X73184752Y-87567289D01*
G75*
G02*
X73050402Y-87567289I-67175J67175D01*
G01*
X72916051Y-87432938D01*
G75*
G02*
X72916051Y-87298588I67175J67175D01*
G01*
G37*
G36*
G01*
X72562498Y-86945035D02*
X73527699Y-85979834D01*
G75*
G02*
X73662049Y-85979834I67175J-67175D01*
G01*
X73796400Y-86114185D01*
G75*
G02*
X73796400Y-86248535I-67175J-67175D01*
G01*
X72831199Y-87213736D01*
G75*
G02*
X72696849Y-87213736I-67175J67175D01*
G01*
X72562498Y-87079385D01*
G75*
G02*
X72562498Y-86945035I67175J67175D01*
G01*
G37*
G36*
G01*
X72208944Y-86591481D02*
X73174145Y-85626280D01*
G75*
G02*
X73308495Y-85626280I67175J-67175D01*
G01*
X73442846Y-85760631D01*
G75*
G02*
X73442846Y-85894981I-67175J-67175D01*
G01*
X72477645Y-86860182D01*
G75*
G02*
X72343295Y-86860182I-67175J67175D01*
G01*
X72208944Y-86725831D01*
G75*
G02*
X72208944Y-86591481I67175J67175D01*
G01*
G37*
G36*
G01*
X71855391Y-86237928D02*
X72820592Y-85272727D01*
G75*
G02*
X72954942Y-85272727I67175J-67175D01*
G01*
X73089293Y-85407078D01*
G75*
G02*
X73089293Y-85541428I-67175J-67175D01*
G01*
X72124092Y-86506629D01*
G75*
G02*
X71989742Y-86506629I-67175J67175D01*
G01*
X71855391Y-86372278D01*
G75*
G02*
X71855391Y-86237928I67175J67175D01*
G01*
G37*
G36*
G01*
X71501837Y-85884374D02*
X72467038Y-84919173D01*
G75*
G02*
X72601388Y-84919173I67175J-67175D01*
G01*
X72735739Y-85053524D01*
G75*
G02*
X72735739Y-85187874I-67175J-67175D01*
G01*
X71770538Y-86153075D01*
G75*
G02*
X71636188Y-86153075I-67175J67175D01*
G01*
X71501837Y-86018724D01*
G75*
G02*
X71501837Y-85884374I67175J67175D01*
G01*
G37*
G36*
G01*
X110255000Y-84572000D02*
X110255000Y-85222000D01*
G75*
G02*
X110215000Y-85262000I-40000J0D01*
G01*
X109155000Y-85262000D01*
G75*
G02*
X109115000Y-85222000I0J40000D01*
G01*
X109115000Y-84572000D01*
G75*
G02*
X109155000Y-84532000I40000J0D01*
G01*
X110215000Y-84532000D01*
G75*
G02*
X110255000Y-84572000I0J-40000D01*
G01*
G37*
G36*
G01*
X110255000Y-83622000D02*
X110255000Y-84272000D01*
G75*
G02*
X110215000Y-84312000I-40000J0D01*
G01*
X109155000Y-84312000D01*
G75*
G02*
X109115000Y-84272000I0J40000D01*
G01*
X109115000Y-83622000D01*
G75*
G02*
X109155000Y-83582000I40000J0D01*
G01*
X110215000Y-83582000D01*
G75*
G02*
X110255000Y-83622000I0J-40000D01*
G01*
G37*
G36*
G01*
X110255000Y-82672000D02*
X110255000Y-83322000D01*
G75*
G02*
X110215000Y-83362000I-40000J0D01*
G01*
X109155000Y-83362000D01*
G75*
G02*
X109115000Y-83322000I0J40000D01*
G01*
X109115000Y-82672000D01*
G75*
G02*
X109155000Y-82632000I40000J0D01*
G01*
X110215000Y-82632000D01*
G75*
G02*
X110255000Y-82672000I0J-40000D01*
G01*
G37*
G36*
G01*
X108055000Y-82672000D02*
X108055000Y-83322000D01*
G75*
G02*
X108015000Y-83362000I-40000J0D01*
G01*
X106955000Y-83362000D01*
G75*
G02*
X106915000Y-83322000I0J40000D01*
G01*
X106915000Y-82672000D01*
G75*
G02*
X106955000Y-82632000I40000J0D01*
G01*
X108015000Y-82632000D01*
G75*
G02*
X108055000Y-82672000I0J-40000D01*
G01*
G37*
G36*
G01*
X108055000Y-84572000D02*
X108055000Y-85222000D01*
G75*
G02*
X108015000Y-85262000I-40000J0D01*
G01*
X106955000Y-85262000D01*
G75*
G02*
X106915000Y-85222000I0J40000D01*
G01*
X106915000Y-84572000D01*
G75*
G02*
X106955000Y-84532000I40000J0D01*
G01*
X108015000Y-84532000D01*
G75*
G02*
X108055000Y-84572000I0J-40000D01*
G01*
G37*
G36*
G01*
X108055000Y-83622000D02*
X108055000Y-84272000D01*
G75*
G02*
X108015000Y-84312000I-40000J0D01*
G01*
X106955000Y-84312000D01*
G75*
G02*
X106915000Y-84272000I0J40000D01*
G01*
X106915000Y-83622000D01*
G75*
G02*
X106955000Y-83582000I40000J0D01*
G01*
X108015000Y-83582000D01*
G75*
G02*
X108055000Y-83622000I0J-40000D01*
G01*
G37*
G36*
G01*
X68834000Y-79230000D02*
X68834000Y-81030000D01*
G75*
G02*
X68794000Y-81070000I-40000J0D01*
G01*
X66694000Y-81070000D01*
G75*
G02*
X66654000Y-81030000I0J40000D01*
G01*
X66654000Y-79230000D01*
G75*
G02*
X66694000Y-79190000I40000J0D01*
G01*
X68794000Y-79190000D01*
G75*
G02*
X68834000Y-79230000I0J-40000D01*
G01*
G37*
G36*
G01*
X65934000Y-79230000D02*
X65934000Y-81030000D01*
G75*
G02*
X65894000Y-81070000I-40000J0D01*
G01*
X63794000Y-81070000D01*
G75*
G02*
X63754000Y-81030000I0J40000D01*
G01*
X63754000Y-79230000D01*
G75*
G02*
X63794000Y-79190000I40000J0D01*
G01*
X65894000Y-79190000D01*
G75*
G02*
X65934000Y-79230000I0J-40000D01*
G01*
G37*
G36*
G01*
X65934000Y-81530000D02*
X65934000Y-83330000D01*
G75*
G02*
X65894000Y-83370000I-40000J0D01*
G01*
X63794000Y-83370000D01*
G75*
G02*
X63754000Y-83330000I0J40000D01*
G01*
X63754000Y-81530000D01*
G75*
G02*
X63794000Y-81490000I40000J0D01*
G01*
X65894000Y-81490000D01*
G75*
G02*
X65934000Y-81530000I0J-40000D01*
G01*
G37*
G36*
G01*
X68834000Y-81530000D02*
X68834000Y-83330000D01*
G75*
G02*
X68794000Y-83370000I-40000J0D01*
G01*
X66694000Y-83370000D01*
G75*
G02*
X66654000Y-83330000I0J40000D01*
G01*
X66654000Y-81530000D01*
G75*
G02*
X66694000Y-81490000I40000J0D01*
G01*
X68794000Y-81490000D01*
G75*
G02*
X68834000Y-81530000I0J-40000D01*
G01*
G37*
G36*
G01*
X100750000Y-102615000D02*
X102450000Y-102615000D01*
G75*
G02*
X102490000Y-102655000I0J-40000D01*
G01*
X102490000Y-104355000D01*
G75*
G02*
X102450000Y-104395000I-40000J0D01*
G01*
X100750000Y-104395000D01*
G75*
G02*
X100710000Y-104355000I0J40000D01*
G01*
X100710000Y-102655000D01*
G75*
G02*
X100750000Y-102615000I40000J0D01*
G01*
G37*
D12*
X104140000Y-103505000D03*
X106680000Y-103505000D03*
X109220000Y-103505000D03*
X111760000Y-103505000D03*
X114300000Y-103505000D03*
G36*
G01*
X12597500Y-7476250D02*
X12597500Y-6523750D01*
G75*
G02*
X12861250Y-6260000I263750J0D01*
G01*
X13388750Y-6260000D01*
G75*
G02*
X13652500Y-6523750I0J-263750D01*
G01*
X13652500Y-7476250D01*
G75*
G02*
X13388750Y-7740000I-263750J0D01*
G01*
X12861250Y-7740000D01*
G75*
G02*
X12597500Y-7476250I0J263750D01*
G01*
G37*
G36*
G01*
X14472500Y-7476250D02*
X14472500Y-6523750D01*
G75*
G02*
X14736250Y-6260000I263750J0D01*
G01*
X15263750Y-6260000D01*
G75*
G02*
X15527500Y-6523750I0J-263750D01*
G01*
X15527500Y-7476250D01*
G75*
G02*
X15263750Y-7740000I-263750J0D01*
G01*
X14736250Y-7740000D01*
G75*
G02*
X14472500Y-7476250I0J263750D01*
G01*
G37*
G36*
G01*
X19910000Y-7476250D02*
X19910000Y-6523750D01*
G75*
G02*
X20173750Y-6260000I263750J0D01*
G01*
X20701250Y-6260000D01*
G75*
G02*
X20965000Y-6523750I0J-263750D01*
G01*
X20965000Y-7476250D01*
G75*
G02*
X20701250Y-7740000I-263750J0D01*
G01*
X20173750Y-7740000D01*
G75*
G02*
X19910000Y-7476250I0J263750D01*
G01*
G37*
G36*
G01*
X18035000Y-7476250D02*
X18035000Y-6523750D01*
G75*
G02*
X18298750Y-6260000I263750J0D01*
G01*
X18826250Y-6260000D01*
G75*
G02*
X19090000Y-6523750I0J-263750D01*
G01*
X19090000Y-7476250D01*
G75*
G02*
X18826250Y-7740000I-263750J0D01*
G01*
X18298750Y-7740000D01*
G75*
G02*
X18035000Y-7476250I0J263750D01*
G01*
G37*
G36*
G01*
X23535000Y-7476250D02*
X23535000Y-6523750D01*
G75*
G02*
X23798750Y-6260000I263750J0D01*
G01*
X24326250Y-6260000D01*
G75*
G02*
X24590000Y-6523750I0J-263750D01*
G01*
X24590000Y-7476250D01*
G75*
G02*
X24326250Y-7740000I-263750J0D01*
G01*
X23798750Y-7740000D01*
G75*
G02*
X23535000Y-7476250I0J263750D01*
G01*
G37*
G36*
G01*
X25410000Y-7476250D02*
X25410000Y-6523750D01*
G75*
G02*
X25673750Y-6260000I263750J0D01*
G01*
X26201250Y-6260000D01*
G75*
G02*
X26465000Y-6523750I0J-263750D01*
G01*
X26465000Y-7476250D01*
G75*
G02*
X26201250Y-7740000I-263750J0D01*
G01*
X25673750Y-7740000D01*
G75*
G02*
X25410000Y-7476250I0J263750D01*
G01*
G37*
G36*
G01*
X13590000Y-9027390D02*
X13590000Y-9972610D01*
G75*
G02*
X13322610Y-10240000I-267390J0D01*
G01*
X12627390Y-10240000D01*
G75*
G02*
X12360000Y-9972610I0J267390D01*
G01*
X12360000Y-9027390D01*
G75*
G02*
X12627390Y-8760000I267390J0D01*
G01*
X13322610Y-8760000D01*
G75*
G02*
X13590000Y-9027390I0J-267390D01*
G01*
G37*
G36*
G01*
X15640000Y-9027390D02*
X15640000Y-9972610D01*
G75*
G02*
X15372610Y-10240000I-267390J0D01*
G01*
X14677390Y-10240000D01*
G75*
G02*
X14410000Y-9972610I0J267390D01*
G01*
X14410000Y-9027390D01*
G75*
G02*
X14677390Y-8760000I267390J0D01*
G01*
X15372610Y-8760000D01*
G75*
G02*
X15640000Y-9027390I0J-267390D01*
G01*
G37*
G36*
G01*
X21140000Y-9027390D02*
X21140000Y-9972610D01*
G75*
G02*
X20872610Y-10240000I-267390J0D01*
G01*
X20177390Y-10240000D01*
G75*
G02*
X19910000Y-9972610I0J267390D01*
G01*
X19910000Y-9027390D01*
G75*
G02*
X20177390Y-8760000I267390J0D01*
G01*
X20872610Y-8760000D01*
G75*
G02*
X21140000Y-9027390I0J-267390D01*
G01*
G37*
G36*
G01*
X19090000Y-9027390D02*
X19090000Y-9972610D01*
G75*
G02*
X18822610Y-10240000I-267390J0D01*
G01*
X18127390Y-10240000D01*
G75*
G02*
X17860000Y-9972610I0J267390D01*
G01*
X17860000Y-9027390D01*
G75*
G02*
X18127390Y-8760000I267390J0D01*
G01*
X18822610Y-8760000D01*
G75*
G02*
X19090000Y-9027390I0J-267390D01*
G01*
G37*
G36*
G01*
X26640000Y-9027390D02*
X26640000Y-9972610D01*
G75*
G02*
X26372610Y-10240000I-267390J0D01*
G01*
X25677390Y-10240000D01*
G75*
G02*
X25410000Y-9972610I0J267390D01*
G01*
X25410000Y-9027390D01*
G75*
G02*
X25677390Y-8760000I267390J0D01*
G01*
X26372610Y-8760000D01*
G75*
G02*
X26640000Y-9027390I0J-267390D01*
G01*
G37*
G36*
G01*
X24590000Y-9027390D02*
X24590000Y-9972610D01*
G75*
G02*
X24322610Y-10240000I-267390J0D01*
G01*
X23627390Y-10240000D01*
G75*
G02*
X23360000Y-9972610I0J267390D01*
G01*
X23360000Y-9027390D01*
G75*
G02*
X23627390Y-8760000I267390J0D01*
G01*
X24322610Y-8760000D01*
G75*
G02*
X24590000Y-9027390I0J-267390D01*
G01*
G37*
D11*
G36*
X77362804Y-102969769D02*
G01*
X77370307Y-102972045D01*
X77377223Y-102975741D01*
X77383284Y-102980716D01*
X77388259Y-102986777D01*
X77391955Y-102993693D01*
X77394231Y-103001196D01*
X77395000Y-103009000D01*
X77395000Y-104509000D01*
X77394231Y-104516804D01*
X77391955Y-104524307D01*
X77388259Y-104531223D01*
X77383284Y-104537284D01*
X77377223Y-104542259D01*
X77370307Y-104545955D01*
X77362804Y-104548231D01*
X77355000Y-104549000D01*
X76805000Y-104549000D01*
X76798891Y-104548398D01*
X76780466Y-104548398D01*
X76776545Y-104548205D01*
X76727714Y-104543395D01*
X76723832Y-104542820D01*
X76675707Y-104533248D01*
X76671898Y-104532294D01*
X76624943Y-104518050D01*
X76621248Y-104516727D01*
X76575915Y-104497950D01*
X76572365Y-104496271D01*
X76529092Y-104473140D01*
X76525727Y-104471123D01*
X76484928Y-104443863D01*
X76481774Y-104441524D01*
X76443845Y-104410396D01*
X76440937Y-104407760D01*
X76406240Y-104373063D01*
X76403604Y-104370155D01*
X76372476Y-104332226D01*
X76370137Y-104329072D01*
X76342877Y-104288273D01*
X76340860Y-104284908D01*
X76317729Y-104241635D01*
X76316050Y-104238085D01*
X76297273Y-104192752D01*
X76295950Y-104189057D01*
X76281706Y-104142102D01*
X76280752Y-104138293D01*
X76271180Y-104090168D01*
X76270605Y-104086286D01*
X76265795Y-104037455D01*
X76265602Y-104033534D01*
X76265602Y-104015109D01*
X76265000Y-104009000D01*
X76265000Y-103509000D01*
X76265602Y-103502891D01*
X76265602Y-103484466D01*
X76265795Y-103480545D01*
X76270605Y-103431714D01*
X76271180Y-103427832D01*
X76280752Y-103379707D01*
X76281706Y-103375898D01*
X76295950Y-103328943D01*
X76297273Y-103325248D01*
X76316050Y-103279915D01*
X76317729Y-103276365D01*
X76340860Y-103233092D01*
X76342877Y-103229727D01*
X76370137Y-103188928D01*
X76372476Y-103185774D01*
X76403604Y-103147845D01*
X76406240Y-103144937D01*
X76440937Y-103110240D01*
X76443845Y-103107604D01*
X76481774Y-103076476D01*
X76484928Y-103074137D01*
X76525727Y-103046877D01*
X76529092Y-103044860D01*
X76572365Y-103021729D01*
X76575915Y-103020050D01*
X76621248Y-103001273D01*
X76624943Y-102999950D01*
X76671898Y-102985706D01*
X76675707Y-102984752D01*
X76723832Y-102975180D01*
X76727714Y-102974605D01*
X76776545Y-102969795D01*
X76780466Y-102969602D01*
X76798891Y-102969602D01*
X76805000Y-102969000D01*
X77355000Y-102969000D01*
X77362804Y-102969769D01*
G37*
G36*
X79411109Y-102969602D02*
G01*
X79429534Y-102969602D01*
X79433455Y-102969795D01*
X79482286Y-102974605D01*
X79486168Y-102975180D01*
X79534293Y-102984752D01*
X79538102Y-102985706D01*
X79585057Y-102999950D01*
X79588752Y-103001273D01*
X79634085Y-103020050D01*
X79637635Y-103021729D01*
X79680908Y-103044860D01*
X79684273Y-103046877D01*
X79725072Y-103074137D01*
X79728226Y-103076476D01*
X79766155Y-103107604D01*
X79769063Y-103110240D01*
X79803760Y-103144937D01*
X79806396Y-103147845D01*
X79837524Y-103185774D01*
X79839863Y-103188928D01*
X79867123Y-103229727D01*
X79869140Y-103233092D01*
X79892271Y-103276365D01*
X79893950Y-103279915D01*
X79912727Y-103325248D01*
X79914050Y-103328943D01*
X79928294Y-103375898D01*
X79929248Y-103379707D01*
X79938820Y-103427832D01*
X79939395Y-103431714D01*
X79944205Y-103480545D01*
X79944398Y-103484466D01*
X79944398Y-103502891D01*
X79945000Y-103509000D01*
X79945000Y-104009000D01*
X79944398Y-104015109D01*
X79944398Y-104033534D01*
X79944205Y-104037455D01*
X79939395Y-104086286D01*
X79938820Y-104090168D01*
X79929248Y-104138293D01*
X79928294Y-104142102D01*
X79914050Y-104189057D01*
X79912727Y-104192752D01*
X79893950Y-104238085D01*
X79892271Y-104241635D01*
X79869140Y-104284908D01*
X79867123Y-104288273D01*
X79839863Y-104329072D01*
X79837524Y-104332226D01*
X79806396Y-104370155D01*
X79803760Y-104373063D01*
X79769063Y-104407760D01*
X79766155Y-104410396D01*
X79728226Y-104441524D01*
X79725072Y-104443863D01*
X79684273Y-104471123D01*
X79680908Y-104473140D01*
X79637635Y-104496271D01*
X79634085Y-104497950D01*
X79588752Y-104516727D01*
X79585057Y-104518050D01*
X79538102Y-104532294D01*
X79534293Y-104533248D01*
X79486168Y-104542820D01*
X79482286Y-104543395D01*
X79433455Y-104548205D01*
X79429534Y-104548398D01*
X79411109Y-104548398D01*
X79405000Y-104549000D01*
X78855000Y-104549000D01*
X78847196Y-104548231D01*
X78839693Y-104545955D01*
X78832777Y-104542259D01*
X78826716Y-104537284D01*
X78821741Y-104531223D01*
X78818045Y-104524307D01*
X78815769Y-104516804D01*
X78815000Y-104509000D01*
X78815000Y-103009000D01*
X78815769Y-103001196D01*
X78818045Y-102993693D01*
X78821741Y-102986777D01*
X78826716Y-102980716D01*
X78832777Y-102975741D01*
X78839693Y-102972045D01*
X78847196Y-102969769D01*
X78855000Y-102969000D01*
X79405000Y-102969000D01*
X79411109Y-102969602D01*
G37*
G36*
G01*
X77565000Y-104509000D02*
X77565000Y-103009000D01*
G75*
G02*
X77605000Y-102969000I40000J0D01*
G01*
X78605000Y-102969000D01*
G75*
G02*
X78645000Y-103009000I0J-40000D01*
G01*
X78645000Y-104509000D01*
G75*
G02*
X78605000Y-104549000I-40000J0D01*
G01*
X77605000Y-104549000D01*
G75*
G02*
X77565000Y-104509000I0J40000D01*
G01*
G37*
G36*
G01*
X82391000Y-104509000D02*
X82391000Y-103009000D01*
G75*
G02*
X82431000Y-102969000I40000J0D01*
G01*
X83431000Y-102969000D01*
G75*
G02*
X83471000Y-103009000I0J-40000D01*
G01*
X83471000Y-104509000D01*
G75*
G02*
X83431000Y-104549000I-40000J0D01*
G01*
X82431000Y-104549000D01*
G75*
G02*
X82391000Y-104509000I0J40000D01*
G01*
G37*
G36*
X84237109Y-102969602D02*
G01*
X84255534Y-102969602D01*
X84259455Y-102969795D01*
X84308286Y-102974605D01*
X84312168Y-102975180D01*
X84360293Y-102984752D01*
X84364102Y-102985706D01*
X84411057Y-102999950D01*
X84414752Y-103001273D01*
X84460085Y-103020050D01*
X84463635Y-103021729D01*
X84506908Y-103044860D01*
X84510273Y-103046877D01*
X84551072Y-103074137D01*
X84554226Y-103076476D01*
X84592155Y-103107604D01*
X84595063Y-103110240D01*
X84629760Y-103144937D01*
X84632396Y-103147845D01*
X84663524Y-103185774D01*
X84665863Y-103188928D01*
X84693123Y-103229727D01*
X84695140Y-103233092D01*
X84718271Y-103276365D01*
X84719950Y-103279915D01*
X84738727Y-103325248D01*
X84740050Y-103328943D01*
X84754294Y-103375898D01*
X84755248Y-103379707D01*
X84764820Y-103427832D01*
X84765395Y-103431714D01*
X84770205Y-103480545D01*
X84770398Y-103484466D01*
X84770398Y-103502891D01*
X84771000Y-103509000D01*
X84771000Y-104009000D01*
X84770398Y-104015109D01*
X84770398Y-104033534D01*
X84770205Y-104037455D01*
X84765395Y-104086286D01*
X84764820Y-104090168D01*
X84755248Y-104138293D01*
X84754294Y-104142102D01*
X84740050Y-104189057D01*
X84738727Y-104192752D01*
X84719950Y-104238085D01*
X84718271Y-104241635D01*
X84695140Y-104284908D01*
X84693123Y-104288273D01*
X84665863Y-104329072D01*
X84663524Y-104332226D01*
X84632396Y-104370155D01*
X84629760Y-104373063D01*
X84595063Y-104407760D01*
X84592155Y-104410396D01*
X84554226Y-104441524D01*
X84551072Y-104443863D01*
X84510273Y-104471123D01*
X84506908Y-104473140D01*
X84463635Y-104496271D01*
X84460085Y-104497950D01*
X84414752Y-104516727D01*
X84411057Y-104518050D01*
X84364102Y-104532294D01*
X84360293Y-104533248D01*
X84312168Y-104542820D01*
X84308286Y-104543395D01*
X84259455Y-104548205D01*
X84255534Y-104548398D01*
X84237109Y-104548398D01*
X84231000Y-104549000D01*
X83681000Y-104549000D01*
X83673196Y-104548231D01*
X83665693Y-104545955D01*
X83658777Y-104542259D01*
X83652716Y-104537284D01*
X83647741Y-104531223D01*
X83644045Y-104524307D01*
X83641769Y-104516804D01*
X83641000Y-104509000D01*
X83641000Y-103009000D01*
X83641769Y-103001196D01*
X83644045Y-102993693D01*
X83647741Y-102986777D01*
X83652716Y-102980716D01*
X83658777Y-102975741D01*
X83665693Y-102972045D01*
X83673196Y-102969769D01*
X83681000Y-102969000D01*
X84231000Y-102969000D01*
X84237109Y-102969602D01*
G37*
G36*
X82188804Y-102969769D02*
G01*
X82196307Y-102972045D01*
X82203223Y-102975741D01*
X82209284Y-102980716D01*
X82214259Y-102986777D01*
X82217955Y-102993693D01*
X82220231Y-103001196D01*
X82221000Y-103009000D01*
X82221000Y-104509000D01*
X82220231Y-104516804D01*
X82217955Y-104524307D01*
X82214259Y-104531223D01*
X82209284Y-104537284D01*
X82203223Y-104542259D01*
X82196307Y-104545955D01*
X82188804Y-104548231D01*
X82181000Y-104549000D01*
X81631000Y-104549000D01*
X81624891Y-104548398D01*
X81606466Y-104548398D01*
X81602545Y-104548205D01*
X81553714Y-104543395D01*
X81549832Y-104542820D01*
X81501707Y-104533248D01*
X81497898Y-104532294D01*
X81450943Y-104518050D01*
X81447248Y-104516727D01*
X81401915Y-104497950D01*
X81398365Y-104496271D01*
X81355092Y-104473140D01*
X81351727Y-104471123D01*
X81310928Y-104443863D01*
X81307774Y-104441524D01*
X81269845Y-104410396D01*
X81266937Y-104407760D01*
X81232240Y-104373063D01*
X81229604Y-104370155D01*
X81198476Y-104332226D01*
X81196137Y-104329072D01*
X81168877Y-104288273D01*
X81166860Y-104284908D01*
X81143729Y-104241635D01*
X81142050Y-104238085D01*
X81123273Y-104192752D01*
X81121950Y-104189057D01*
X81107706Y-104142102D01*
X81106752Y-104138293D01*
X81097180Y-104090168D01*
X81096605Y-104086286D01*
X81091795Y-104037455D01*
X81091602Y-104033534D01*
X81091602Y-104015109D01*
X81091000Y-104009000D01*
X81091000Y-103509000D01*
X81091602Y-103502891D01*
X81091602Y-103484466D01*
X81091795Y-103480545D01*
X81096605Y-103431714D01*
X81097180Y-103427832D01*
X81106752Y-103379707D01*
X81107706Y-103375898D01*
X81121950Y-103328943D01*
X81123273Y-103325248D01*
X81142050Y-103279915D01*
X81143729Y-103276365D01*
X81166860Y-103233092D01*
X81168877Y-103229727D01*
X81196137Y-103188928D01*
X81198476Y-103185774D01*
X81229604Y-103147845D01*
X81232240Y-103144937D01*
X81266937Y-103110240D01*
X81269845Y-103107604D01*
X81307774Y-103076476D01*
X81310928Y-103074137D01*
X81351727Y-103046877D01*
X81355092Y-103044860D01*
X81398365Y-103021729D01*
X81401915Y-103020050D01*
X81447248Y-103001273D01*
X81450943Y-102999950D01*
X81497898Y-102985706D01*
X81501707Y-102984752D01*
X81549832Y-102975180D01*
X81553714Y-102974605D01*
X81602545Y-102969795D01*
X81606466Y-102969602D01*
X81624891Y-102969602D01*
X81631000Y-102969000D01*
X82181000Y-102969000D01*
X82188804Y-102969769D01*
G37*
G36*
G01*
X72297500Y-101695250D02*
X72297500Y-102647750D01*
G75*
G02*
X72033750Y-102911500I-263750J0D01*
G01*
X71506250Y-102911500D01*
G75*
G02*
X71242500Y-102647750I0J263750D01*
G01*
X71242500Y-101695250D01*
G75*
G02*
X71506250Y-101431500I263750J0D01*
G01*
X72033750Y-101431500D01*
G75*
G02*
X72297500Y-101695250I0J-263750D01*
G01*
G37*
G36*
G01*
X74172500Y-101695250D02*
X74172500Y-102647750D01*
G75*
G02*
X73908750Y-102911500I-263750J0D01*
G01*
X73381250Y-102911500D01*
G75*
G02*
X73117500Y-102647750I0J263750D01*
G01*
X73117500Y-101695250D01*
G75*
G02*
X73381250Y-101431500I263750J0D01*
G01*
X73908750Y-101431500D01*
G75*
G02*
X74172500Y-101695250I0J-263750D01*
G01*
G37*
G36*
G01*
X71088250Y-100652000D02*
X70135750Y-100652000D01*
G75*
G02*
X69872000Y-100388250I0J263750D01*
G01*
X69872000Y-99860750D01*
G75*
G02*
X70135750Y-99597000I263750J0D01*
G01*
X71088250Y-99597000D01*
G75*
G02*
X71352000Y-99860750I0J-263750D01*
G01*
X71352000Y-100388250D01*
G75*
G02*
X71088250Y-100652000I-263750J0D01*
G01*
G37*
G36*
G01*
X71088250Y-98777000D02*
X70135750Y-98777000D01*
G75*
G02*
X69872000Y-98513250I0J263750D01*
G01*
X69872000Y-97985750D01*
G75*
G02*
X70135750Y-97722000I263750J0D01*
G01*
X71088250Y-97722000D01*
G75*
G02*
X71352000Y-97985750I0J-263750D01*
G01*
X71352000Y-98513250D01*
G75*
G02*
X71088250Y-98777000I-263750J0D01*
G01*
G37*
G36*
G01*
X101790000Y-34727390D02*
X101790000Y-35672610D01*
G75*
G02*
X101522610Y-35940000I-267390J0D01*
G01*
X100827390Y-35940000D01*
G75*
G02*
X100560000Y-35672610I0J267390D01*
G01*
X100560000Y-34727390D01*
G75*
G02*
X100827390Y-34460000I267390J0D01*
G01*
X101522610Y-34460000D01*
G75*
G02*
X101790000Y-34727390I0J-267390D01*
G01*
G37*
G36*
G01*
X103840000Y-34727390D02*
X103840000Y-35672610D01*
G75*
G02*
X103572610Y-35940000I-267390J0D01*
G01*
X102877390Y-35940000D01*
G75*
G02*
X102610000Y-35672610I0J267390D01*
G01*
X102610000Y-34727390D01*
G75*
G02*
X102877390Y-34460000I267390J0D01*
G01*
X103572610Y-34460000D01*
G75*
G02*
X103840000Y-34727390I0J-267390D01*
G01*
G37*
G36*
G01*
X100560000Y-42072610D02*
X100560000Y-41127390D01*
G75*
G02*
X100827390Y-40860000I267390J0D01*
G01*
X101522610Y-40860000D01*
G75*
G02*
X101790000Y-41127390I0J-267390D01*
G01*
X101790000Y-42072610D01*
G75*
G02*
X101522610Y-42340000I-267390J0D01*
G01*
X100827390Y-42340000D01*
G75*
G02*
X100560000Y-42072610I0J267390D01*
G01*
G37*
G36*
G01*
X102610000Y-42072610D02*
X102610000Y-41127390D01*
G75*
G02*
X102877390Y-40860000I267390J0D01*
G01*
X103572610Y-40860000D01*
G75*
G02*
X103840000Y-41127390I0J-267390D01*
G01*
X103840000Y-42072610D01*
G75*
G02*
X103572610Y-42340000I-267390J0D01*
G01*
X102877390Y-42340000D01*
G75*
G02*
X102610000Y-42072610I0J267390D01*
G01*
G37*
G36*
G01*
X101075000Y-38075000D02*
X101075000Y-37125000D01*
G75*
G02*
X101115000Y-37085000I40000J0D01*
G01*
X102085000Y-37085000D01*
G75*
G02*
X102125000Y-37125000I0J-40000D01*
G01*
X102125000Y-38075000D01*
G75*
G02*
X102085000Y-38115000I-40000J0D01*
G01*
X101115000Y-38115000D01*
G75*
G02*
X101075000Y-38075000I0J40000D01*
G01*
G37*
G36*
G01*
X101075000Y-39575000D02*
X101075000Y-38425000D01*
G75*
G02*
X101115000Y-38385000I40000J0D01*
G01*
X102085000Y-38385000D01*
G75*
G02*
X102125000Y-38425000I0J-40000D01*
G01*
X102125000Y-39575000D01*
G75*
G02*
X102085000Y-39615000I-40000J0D01*
G01*
X101115000Y-39615000D01*
G75*
G02*
X101075000Y-39575000I0J40000D01*
G01*
G37*
G36*
G01*
X103265000Y-37125000D02*
X103265000Y-38075000D01*
G75*
G02*
X103225000Y-38115000I-40000J0D01*
G01*
X102375000Y-38115000D01*
G75*
G02*
X102335000Y-38075000I0J40000D01*
G01*
X102335000Y-37125000D01*
G75*
G02*
X102375000Y-37085000I40000J0D01*
G01*
X103225000Y-37085000D01*
G75*
G02*
X103265000Y-37125000I0J-40000D01*
G01*
G37*
G36*
G01*
X102335000Y-39575000D02*
X102335000Y-38425000D01*
G75*
G02*
X102375000Y-38385000I40000J0D01*
G01*
X103225000Y-38385000D01*
G75*
G02*
X103265000Y-38425000I0J-40000D01*
G01*
X103265000Y-39575000D01*
G75*
G02*
X103225000Y-39615000I-40000J0D01*
G01*
X102375000Y-39615000D01*
G75*
G02*
X102335000Y-39575000I0J40000D01*
G01*
G37*
G36*
X77566732Y-102968000D02*
G01*
X77567000Y-102969000D01*
X77567000Y-104549000D01*
X77566000Y-104550732D01*
X77565000Y-104551000D01*
X77513318Y-104551000D01*
X77512049Y-104550546D01*
X77508331Y-104547494D01*
X77487067Y-104536129D01*
X77463992Y-104529129D01*
X77440001Y-104526766D01*
X77416058Y-104529125D01*
X77381894Y-104541348D01*
X77380549Y-104542067D01*
X77378550Y-104542001D01*
X77377607Y-104540238D01*
X77378337Y-104538757D01*
X77381863Y-104535863D01*
X77386588Y-104530107D01*
X77390098Y-104523538D01*
X77392261Y-104516409D01*
X77393000Y-104508905D01*
X77393000Y-103009095D01*
X77392261Y-103001591D01*
X77390098Y-102994462D01*
X77386588Y-102987893D01*
X77381863Y-102982137D01*
X77378337Y-102979243D01*
X77377633Y-102977371D01*
X77378902Y-102975825D01*
X77380549Y-102975933D01*
X77381938Y-102976675D01*
X77404301Y-102985938D01*
X77427952Y-102990641D01*
X77452058Y-102990641D01*
X77475708Y-102985935D01*
X77497982Y-102976708D01*
X77512007Y-102967337D01*
X77513118Y-102967000D01*
X77565000Y-102967000D01*
X77566732Y-102968000D01*
G37*
G36*
X82392732Y-102968000D02*
G01*
X82393000Y-102969000D01*
X82393000Y-104549000D01*
X82392000Y-104550732D01*
X82391000Y-104551000D01*
X82339318Y-104551000D01*
X82338049Y-104550546D01*
X82334331Y-104547494D01*
X82313067Y-104536129D01*
X82289992Y-104529129D01*
X82266001Y-104526766D01*
X82242058Y-104529125D01*
X82207894Y-104541348D01*
X82206549Y-104542067D01*
X82204550Y-104542001D01*
X82203607Y-104540238D01*
X82204337Y-104538757D01*
X82207863Y-104535863D01*
X82212588Y-104530107D01*
X82216098Y-104523538D01*
X82218261Y-104516409D01*
X82219000Y-104508905D01*
X82219000Y-103009095D01*
X82218261Y-103001591D01*
X82216098Y-102994462D01*
X82212588Y-102987893D01*
X82207863Y-102982137D01*
X82204337Y-102979243D01*
X82203633Y-102977371D01*
X82204902Y-102975825D01*
X82206549Y-102975933D01*
X82207938Y-102976675D01*
X82230301Y-102985938D01*
X82253952Y-102990641D01*
X82278058Y-102990641D01*
X82301708Y-102985935D01*
X82323982Y-102976708D01*
X82338007Y-102967337D01*
X82339118Y-102967000D01*
X82391000Y-102967000D01*
X82392732Y-102968000D01*
G37*
G36*
X78697951Y-102967454D02*
G01*
X78701669Y-102970506D01*
X78722933Y-102981871D01*
X78746008Y-102988871D01*
X78769999Y-102991234D01*
X78793942Y-102988875D01*
X78828106Y-102976652D01*
X78829451Y-102975933D01*
X78831450Y-102975999D01*
X78832393Y-102977762D01*
X78831663Y-102979243D01*
X78828137Y-102982137D01*
X78823412Y-102987893D01*
X78819902Y-102994462D01*
X78817739Y-103001591D01*
X78817000Y-103009095D01*
X78817000Y-104508905D01*
X78817739Y-104516409D01*
X78819902Y-104523538D01*
X78823412Y-104530107D01*
X78828137Y-104535863D01*
X78831663Y-104538757D01*
X78832367Y-104540629D01*
X78831098Y-104542175D01*
X78829451Y-104542067D01*
X78828062Y-104541325D01*
X78805699Y-104532062D01*
X78782048Y-104527359D01*
X78757942Y-104527359D01*
X78734292Y-104532065D01*
X78712018Y-104541292D01*
X78697993Y-104550663D01*
X78696882Y-104551000D01*
X78645000Y-104551000D01*
X78643268Y-104550000D01*
X78643000Y-104549000D01*
X78643000Y-102969000D01*
X78644000Y-102967268D01*
X78645000Y-102967000D01*
X78696682Y-102967000D01*
X78697951Y-102967454D01*
G37*
G36*
X83523951Y-102967454D02*
G01*
X83527669Y-102970506D01*
X83548933Y-102981871D01*
X83572008Y-102988871D01*
X83595999Y-102991234D01*
X83619942Y-102988875D01*
X83654106Y-102976652D01*
X83655451Y-102975933D01*
X83657450Y-102975999D01*
X83658393Y-102977762D01*
X83657663Y-102979243D01*
X83654137Y-102982137D01*
X83649412Y-102987893D01*
X83645902Y-102994462D01*
X83643739Y-103001591D01*
X83643000Y-103009095D01*
X83643000Y-104508905D01*
X83643739Y-104516409D01*
X83645902Y-104523538D01*
X83649412Y-104530107D01*
X83654137Y-104535863D01*
X83657663Y-104538757D01*
X83658367Y-104540629D01*
X83657098Y-104542175D01*
X83655451Y-104542067D01*
X83654062Y-104541325D01*
X83631699Y-104532062D01*
X83608048Y-104527359D01*
X83583942Y-104527359D01*
X83560292Y-104532065D01*
X83538018Y-104541292D01*
X83523993Y-104550663D01*
X83522882Y-104551000D01*
X83471000Y-104551000D01*
X83469268Y-104550000D01*
X83469000Y-104549000D01*
X83469000Y-102969000D01*
X83470000Y-102967268D01*
X83471000Y-102967000D01*
X83522682Y-102967000D01*
X83523951Y-102967454D01*
G37*
G36*
X70386023Y-94474308D02*
G01*
X70425878Y-94514163D01*
X70426010Y-94514308D01*
X70433886Y-94523905D01*
X70434104Y-94524231D01*
X70437054Y-94529750D01*
X70437204Y-94530112D01*
X70440717Y-94541692D01*
X70440765Y-94541883D01*
X70443238Y-94554312D01*
X70452465Y-94576586D01*
X70465860Y-94596633D01*
X70482908Y-94613679D01*
X70502955Y-94627073D01*
X70525230Y-94636299D01*
X70537657Y-94638771D01*
X70537848Y-94638819D01*
X70549422Y-94642330D01*
X70549784Y-94642480D01*
X70555303Y-94645430D01*
X70555629Y-94645648D01*
X70565226Y-94653524D01*
X70565371Y-94653656D01*
X70605226Y-94693511D01*
X70605744Y-94695443D01*
X70604330Y-94696857D01*
X70602543Y-94696471D01*
X70588300Y-94684781D01*
X70572223Y-94676188D01*
X70554776Y-94670895D01*
X70536637Y-94669109D01*
X70518498Y-94670895D01*
X70501051Y-94676188D01*
X70484974Y-94684781D01*
X70470804Y-94696411D01*
X69505747Y-95661468D01*
X69494117Y-95675638D01*
X69485524Y-95691715D01*
X69480231Y-95709162D01*
X69478445Y-95727301D01*
X69480231Y-95745440D01*
X69485524Y-95762887D01*
X69494117Y-95778964D01*
X69505807Y-95793207D01*
X69506133Y-95795180D01*
X69504587Y-95796449D01*
X69502847Y-95795890D01*
X69462992Y-95756035D01*
X69462860Y-95755890D01*
X69454984Y-95746293D01*
X69454766Y-95745967D01*
X69451816Y-95740448D01*
X69451666Y-95740086D01*
X69448153Y-95728506D01*
X69448105Y-95728315D01*
X69445632Y-95715886D01*
X69436405Y-95693612D01*
X69423010Y-95673565D01*
X69405962Y-95656519D01*
X69385915Y-95643125D01*
X69363640Y-95633899D01*
X69351213Y-95631427D01*
X69351022Y-95631379D01*
X69339448Y-95627868D01*
X69339086Y-95627718D01*
X69333567Y-95624768D01*
X69333241Y-95624550D01*
X69323644Y-95616674D01*
X69323499Y-95616542D01*
X69283644Y-95576687D01*
X69283126Y-95574755D01*
X69284540Y-95573341D01*
X69286327Y-95573727D01*
X69300570Y-95585417D01*
X69316647Y-95594010D01*
X69334094Y-95599303D01*
X69352233Y-95601089D01*
X69370372Y-95599303D01*
X69387819Y-95594010D01*
X69403896Y-95585417D01*
X69418066Y-95573787D01*
X70383123Y-94608730D01*
X70394753Y-94594560D01*
X70403346Y-94578483D01*
X70408639Y-94561036D01*
X70410425Y-94542897D01*
X70408639Y-94524758D01*
X70403346Y-94507311D01*
X70394753Y-94491234D01*
X70383063Y-94476991D01*
X70382737Y-94475018D01*
X70384283Y-94473749D01*
X70386023Y-94474308D01*
G37*
G36*
X71857323Y-94475204D02*
G01*
X71856937Y-94476991D01*
X71845247Y-94491234D01*
X71836654Y-94507311D01*
X71831361Y-94524758D01*
X71829575Y-94542897D01*
X71831361Y-94561036D01*
X71836654Y-94578483D01*
X71845247Y-94594560D01*
X71856877Y-94608730D01*
X72821934Y-95573787D01*
X72836104Y-95585417D01*
X72852181Y-95594010D01*
X72869628Y-95599303D01*
X72887767Y-95601089D01*
X72905906Y-95599303D01*
X72923353Y-95594010D01*
X72939430Y-95585417D01*
X72953673Y-95573727D01*
X72955646Y-95573401D01*
X72956915Y-95574947D01*
X72956356Y-95576687D01*
X72916501Y-95616542D01*
X72916356Y-95616674D01*
X72906759Y-95624550D01*
X72906433Y-95624768D01*
X72900914Y-95627718D01*
X72900552Y-95627868D01*
X72888972Y-95631381D01*
X72888781Y-95631429D01*
X72876352Y-95633902D01*
X72854078Y-95643129D01*
X72834031Y-95656524D01*
X72816985Y-95673572D01*
X72803591Y-95693619D01*
X72794365Y-95715894D01*
X72791893Y-95728321D01*
X72791845Y-95728512D01*
X72788334Y-95740086D01*
X72788184Y-95740448D01*
X72785234Y-95745967D01*
X72785016Y-95746293D01*
X72777140Y-95755890D01*
X72777008Y-95756035D01*
X72737153Y-95795890D01*
X72735221Y-95796408D01*
X72733807Y-95794994D01*
X72734193Y-95793207D01*
X72745883Y-95778964D01*
X72754476Y-95762887D01*
X72759769Y-95745440D01*
X72761555Y-95727301D01*
X72759769Y-95709162D01*
X72754476Y-95691715D01*
X72745883Y-95675638D01*
X72734253Y-95661468D01*
X71769196Y-94696411D01*
X71755026Y-94684781D01*
X71738949Y-94676188D01*
X71721502Y-94670895D01*
X71703363Y-94669109D01*
X71685224Y-94670895D01*
X71667777Y-94676188D01*
X71651700Y-94684781D01*
X71637457Y-94696471D01*
X71635484Y-94696797D01*
X71634215Y-94695251D01*
X71634774Y-94693511D01*
X71674629Y-94653656D01*
X71674774Y-94653524D01*
X71684371Y-94645648D01*
X71684697Y-94645430D01*
X71690216Y-94642480D01*
X71690578Y-94642330D01*
X71702158Y-94638817D01*
X71702349Y-94638769D01*
X71714778Y-94636296D01*
X71737052Y-94627069D01*
X71757099Y-94613674D01*
X71774145Y-94596626D01*
X71787539Y-94576579D01*
X71796765Y-94554304D01*
X71799237Y-94541877D01*
X71799285Y-94541686D01*
X71802796Y-94530112D01*
X71802946Y-94529750D01*
X71805896Y-94524231D01*
X71806114Y-94523905D01*
X71813990Y-94514308D01*
X71814122Y-94514163D01*
X71853977Y-94474308D01*
X71855909Y-94473790D01*
X71857323Y-94475204D01*
G37*
G36*
X70032470Y-94120755D02*
G01*
X70072325Y-94160610D01*
X70072457Y-94160755D01*
X70080333Y-94170352D01*
X70080551Y-94170678D01*
X70083501Y-94176197D01*
X70083651Y-94176559D01*
X70087163Y-94188138D01*
X70087211Y-94188329D01*
X70089684Y-94200758D01*
X70098914Y-94223035D01*
X70112308Y-94243080D01*
X70129356Y-94260126D01*
X70149404Y-94273520D01*
X70171678Y-94282745D01*
X70184102Y-94285217D01*
X70184293Y-94285265D01*
X70195868Y-94288776D01*
X70196230Y-94288926D01*
X70201749Y-94291876D01*
X70202075Y-94292094D01*
X70211672Y-94299970D01*
X70211817Y-94300102D01*
X70251672Y-94339957D01*
X70252190Y-94341889D01*
X70250776Y-94343303D01*
X70248989Y-94342917D01*
X70234746Y-94331227D01*
X70218669Y-94322634D01*
X70201222Y-94317341D01*
X70183083Y-94315555D01*
X70164944Y-94317341D01*
X70147497Y-94322634D01*
X70131420Y-94331227D01*
X70117250Y-94342857D01*
X69152193Y-95307914D01*
X69140563Y-95322084D01*
X69131970Y-95338161D01*
X69126677Y-95355608D01*
X69124891Y-95373747D01*
X69126677Y-95391886D01*
X69131970Y-95409333D01*
X69140563Y-95425410D01*
X69152253Y-95439653D01*
X69152579Y-95441626D01*
X69151033Y-95442895D01*
X69149293Y-95442336D01*
X69109438Y-95402481D01*
X69109306Y-95402336D01*
X69101430Y-95392739D01*
X69101212Y-95392413D01*
X69098262Y-95386894D01*
X69098112Y-95386532D01*
X69094600Y-95374953D01*
X69094552Y-95374762D01*
X69092079Y-95362333D01*
X69082849Y-95340056D01*
X69069455Y-95320011D01*
X69052407Y-95302965D01*
X69032359Y-95289571D01*
X69010085Y-95280346D01*
X68997661Y-95277874D01*
X68997470Y-95277826D01*
X68985895Y-95274315D01*
X68985533Y-95274165D01*
X68980014Y-95271215D01*
X68979688Y-95270997D01*
X68970091Y-95263121D01*
X68969946Y-95262989D01*
X68930091Y-95223134D01*
X68929573Y-95221202D01*
X68930987Y-95219788D01*
X68932774Y-95220174D01*
X68947017Y-95231864D01*
X68963094Y-95240457D01*
X68980541Y-95245750D01*
X68998680Y-95247536D01*
X69016819Y-95245750D01*
X69034266Y-95240457D01*
X69050343Y-95231864D01*
X69064513Y-95220234D01*
X70029570Y-94255177D01*
X70041200Y-94241007D01*
X70049793Y-94224930D01*
X70055086Y-94207483D01*
X70056872Y-94189344D01*
X70055086Y-94171205D01*
X70049793Y-94153758D01*
X70041200Y-94137681D01*
X70029510Y-94123438D01*
X70029184Y-94121465D01*
X70030730Y-94120196D01*
X70032470Y-94120755D01*
G37*
G36*
X72210876Y-94121651D02*
G01*
X72210490Y-94123438D01*
X72198800Y-94137681D01*
X72190207Y-94153758D01*
X72184914Y-94171205D01*
X72183128Y-94189344D01*
X72184914Y-94207483D01*
X72190207Y-94224930D01*
X72198800Y-94241007D01*
X72210430Y-94255177D01*
X73175487Y-95220234D01*
X73189657Y-95231864D01*
X73205734Y-95240457D01*
X73223181Y-95245750D01*
X73241320Y-95247536D01*
X73259459Y-95245750D01*
X73276906Y-95240457D01*
X73292983Y-95231864D01*
X73307226Y-95220174D01*
X73309199Y-95219848D01*
X73310468Y-95221394D01*
X73309909Y-95223134D01*
X73270054Y-95262989D01*
X73269909Y-95263121D01*
X73260312Y-95270997D01*
X73259986Y-95271215D01*
X73254467Y-95274165D01*
X73254105Y-95274315D01*
X73242526Y-95277827D01*
X73242335Y-95277875D01*
X73229906Y-95280348D01*
X73207629Y-95289578D01*
X73187584Y-95302972D01*
X73170538Y-95320020D01*
X73157144Y-95340068D01*
X73147919Y-95362342D01*
X73145447Y-95374766D01*
X73145399Y-95374957D01*
X73141888Y-95386532D01*
X73141738Y-95386894D01*
X73138788Y-95392413D01*
X73138570Y-95392739D01*
X73130694Y-95402336D01*
X73130562Y-95402481D01*
X73090707Y-95442336D01*
X73088775Y-95442854D01*
X73087361Y-95441440D01*
X73087747Y-95439653D01*
X73099437Y-95425410D01*
X73108030Y-95409333D01*
X73113323Y-95391886D01*
X73115109Y-95373747D01*
X73113323Y-95355608D01*
X73108030Y-95338161D01*
X73099437Y-95322084D01*
X73087807Y-95307914D01*
X72122750Y-94342857D01*
X72108580Y-94331227D01*
X72092503Y-94322634D01*
X72075056Y-94317341D01*
X72056917Y-94315555D01*
X72038778Y-94317341D01*
X72021331Y-94322634D01*
X72005254Y-94331227D01*
X71991011Y-94342917D01*
X71989038Y-94343243D01*
X71987769Y-94341697D01*
X71988328Y-94339957D01*
X72028183Y-94300102D01*
X72028328Y-94299970D01*
X72037925Y-94292094D01*
X72038251Y-94291876D01*
X72043770Y-94288926D01*
X72044132Y-94288776D01*
X72055711Y-94285264D01*
X72055902Y-94285216D01*
X72068331Y-94282743D01*
X72090608Y-94273513D01*
X72110653Y-94260119D01*
X72127699Y-94243071D01*
X72141093Y-94223023D01*
X72150318Y-94200749D01*
X72152790Y-94188325D01*
X72152838Y-94188134D01*
X72156349Y-94176559D01*
X72156499Y-94176197D01*
X72159449Y-94170678D01*
X72159667Y-94170352D01*
X72167543Y-94160755D01*
X72167675Y-94160610D01*
X72207530Y-94120755D01*
X72209462Y-94120237D01*
X72210876Y-94121651D01*
G37*
G36*
X69678916Y-93767201D02*
G01*
X69718771Y-93807056D01*
X69718903Y-93807201D01*
X69726779Y-93816798D01*
X69726997Y-93817124D01*
X69729947Y-93822643D01*
X69730097Y-93823005D01*
X69733610Y-93834585D01*
X69733658Y-93834776D01*
X69736131Y-93847205D01*
X69745358Y-93869479D01*
X69758753Y-93889526D01*
X69775801Y-93906572D01*
X69795848Y-93919966D01*
X69818123Y-93929192D01*
X69830550Y-93931664D01*
X69830741Y-93931712D01*
X69842315Y-93935223D01*
X69842677Y-93935373D01*
X69848196Y-93938323D01*
X69848522Y-93938541D01*
X69858119Y-93946417D01*
X69858264Y-93946549D01*
X69898119Y-93986404D01*
X69898637Y-93988336D01*
X69897223Y-93989750D01*
X69895436Y-93989364D01*
X69881193Y-93977674D01*
X69865116Y-93969081D01*
X69847669Y-93963788D01*
X69829530Y-93962002D01*
X69811391Y-93963788D01*
X69793944Y-93969081D01*
X69777867Y-93977674D01*
X69763697Y-93989304D01*
X68798640Y-94954361D01*
X68787010Y-94968531D01*
X68778417Y-94984608D01*
X68773124Y-95002055D01*
X68771338Y-95020194D01*
X68773124Y-95038333D01*
X68778417Y-95055780D01*
X68787010Y-95071857D01*
X68798700Y-95086100D01*
X68799026Y-95088073D01*
X68797480Y-95089342D01*
X68795740Y-95088783D01*
X68755885Y-95048928D01*
X68755753Y-95048783D01*
X68747877Y-95039186D01*
X68747659Y-95038860D01*
X68744709Y-95033341D01*
X68744559Y-95032979D01*
X68741046Y-95021399D01*
X68740998Y-95021208D01*
X68738525Y-95008779D01*
X68729298Y-94986505D01*
X68715903Y-94966458D01*
X68698855Y-94949412D01*
X68678808Y-94936018D01*
X68656533Y-94926792D01*
X68644106Y-94924320D01*
X68643915Y-94924272D01*
X68632341Y-94920761D01*
X68631979Y-94920611D01*
X68626460Y-94917661D01*
X68626134Y-94917443D01*
X68616537Y-94909567D01*
X68616392Y-94909435D01*
X68576537Y-94869580D01*
X68576019Y-94867648D01*
X68577433Y-94866234D01*
X68579220Y-94866620D01*
X68593463Y-94878310D01*
X68609540Y-94886903D01*
X68626987Y-94892196D01*
X68645126Y-94893982D01*
X68663265Y-94892196D01*
X68680712Y-94886903D01*
X68696789Y-94878310D01*
X68710959Y-94866680D01*
X69676016Y-93901623D01*
X69687646Y-93887453D01*
X69696239Y-93871376D01*
X69701532Y-93853929D01*
X69703318Y-93835790D01*
X69701532Y-93817651D01*
X69696239Y-93800204D01*
X69687646Y-93784127D01*
X69675956Y-93769884D01*
X69675630Y-93767911D01*
X69677176Y-93766642D01*
X69678916Y-93767201D01*
G37*
G36*
X72564430Y-93768097D02*
G01*
X72564044Y-93769884D01*
X72552354Y-93784127D01*
X72543761Y-93800204D01*
X72538468Y-93817651D01*
X72536682Y-93835790D01*
X72538468Y-93853929D01*
X72543761Y-93871376D01*
X72552354Y-93887453D01*
X72563984Y-93901623D01*
X73529041Y-94866680D01*
X73543211Y-94878310D01*
X73559288Y-94886903D01*
X73576735Y-94892196D01*
X73594874Y-94893982D01*
X73613013Y-94892196D01*
X73630460Y-94886903D01*
X73646537Y-94878310D01*
X73660780Y-94866620D01*
X73662753Y-94866294D01*
X73664022Y-94867840D01*
X73663463Y-94869580D01*
X73623608Y-94909435D01*
X73623463Y-94909567D01*
X73613866Y-94917443D01*
X73613540Y-94917661D01*
X73608021Y-94920611D01*
X73607659Y-94920761D01*
X73596079Y-94924274D01*
X73595888Y-94924322D01*
X73583459Y-94926795D01*
X73561185Y-94936022D01*
X73541138Y-94949417D01*
X73524092Y-94966465D01*
X73510698Y-94986512D01*
X73501472Y-95008787D01*
X73499000Y-95021214D01*
X73498952Y-95021405D01*
X73495441Y-95032979D01*
X73495291Y-95033341D01*
X73492341Y-95038860D01*
X73492123Y-95039186D01*
X73484247Y-95048783D01*
X73484115Y-95048928D01*
X73444260Y-95088783D01*
X73442328Y-95089301D01*
X73440914Y-95087887D01*
X73441300Y-95086100D01*
X73452990Y-95071857D01*
X73461583Y-95055780D01*
X73466876Y-95038333D01*
X73468662Y-95020194D01*
X73466876Y-95002055D01*
X73461583Y-94984608D01*
X73452990Y-94968531D01*
X73441360Y-94954361D01*
X72476303Y-93989304D01*
X72462133Y-93977674D01*
X72446056Y-93969081D01*
X72428609Y-93963788D01*
X72410470Y-93962002D01*
X72392331Y-93963788D01*
X72374884Y-93969081D01*
X72358807Y-93977674D01*
X72344564Y-93989364D01*
X72342591Y-93989690D01*
X72341322Y-93988144D01*
X72341881Y-93986404D01*
X72381736Y-93946549D01*
X72381881Y-93946417D01*
X72391478Y-93938541D01*
X72391804Y-93938323D01*
X72397323Y-93935373D01*
X72397685Y-93935223D01*
X72409265Y-93931710D01*
X72409456Y-93931662D01*
X72421885Y-93929189D01*
X72444159Y-93919962D01*
X72464206Y-93906567D01*
X72481252Y-93889519D01*
X72494646Y-93869472D01*
X72503872Y-93847197D01*
X72506344Y-93834770D01*
X72506392Y-93834579D01*
X72509903Y-93823005D01*
X72510053Y-93822643D01*
X72513003Y-93817124D01*
X72513221Y-93816798D01*
X72521097Y-93807201D01*
X72521229Y-93807056D01*
X72561084Y-93767201D01*
X72563016Y-93766683D01*
X72564430Y-93768097D01*
G37*
G36*
X69325363Y-93413648D02*
G01*
X69365218Y-93453503D01*
X69365350Y-93453648D01*
X69373226Y-93463245D01*
X69373444Y-93463571D01*
X69376394Y-93469090D01*
X69376544Y-93469452D01*
X69380056Y-93481031D01*
X69380104Y-93481222D01*
X69382577Y-93493651D01*
X69391807Y-93515928D01*
X69405201Y-93535973D01*
X69422249Y-93553019D01*
X69442297Y-93566413D01*
X69464571Y-93575638D01*
X69476995Y-93578110D01*
X69477186Y-93578158D01*
X69488761Y-93581669D01*
X69489123Y-93581819D01*
X69494642Y-93584769D01*
X69494968Y-93584987D01*
X69504565Y-93592863D01*
X69504710Y-93592995D01*
X69544565Y-93632850D01*
X69545083Y-93634782D01*
X69543669Y-93636196D01*
X69541882Y-93635810D01*
X69527639Y-93624120D01*
X69511562Y-93615527D01*
X69494115Y-93610234D01*
X69475976Y-93608448D01*
X69457837Y-93610234D01*
X69440390Y-93615527D01*
X69424313Y-93624120D01*
X69410143Y-93635750D01*
X68445086Y-94600807D01*
X68433456Y-94614977D01*
X68424863Y-94631054D01*
X68419570Y-94648501D01*
X68417784Y-94666640D01*
X68419570Y-94684779D01*
X68424863Y-94702226D01*
X68433456Y-94718303D01*
X68445146Y-94732546D01*
X68445472Y-94734519D01*
X68443926Y-94735788D01*
X68442186Y-94735229D01*
X68402331Y-94695374D01*
X68402199Y-94695229D01*
X68394323Y-94685632D01*
X68394105Y-94685306D01*
X68391155Y-94679787D01*
X68391005Y-94679425D01*
X68387493Y-94667846D01*
X68387445Y-94667655D01*
X68384972Y-94655226D01*
X68375742Y-94632949D01*
X68362348Y-94612904D01*
X68345300Y-94595858D01*
X68325252Y-94582464D01*
X68302978Y-94573239D01*
X68290554Y-94570767D01*
X68290363Y-94570719D01*
X68278788Y-94567208D01*
X68278426Y-94567058D01*
X68272907Y-94564108D01*
X68272581Y-94563890D01*
X68262984Y-94556014D01*
X68262839Y-94555882D01*
X68222984Y-94516027D01*
X68222466Y-94514095D01*
X68223880Y-94512681D01*
X68225667Y-94513067D01*
X68239910Y-94524757D01*
X68255987Y-94533350D01*
X68273434Y-94538643D01*
X68291573Y-94540429D01*
X68309712Y-94538643D01*
X68327159Y-94533350D01*
X68343236Y-94524757D01*
X68357406Y-94513127D01*
X69322463Y-93548070D01*
X69334093Y-93533900D01*
X69342686Y-93517823D01*
X69347979Y-93500376D01*
X69349765Y-93482237D01*
X69347979Y-93464098D01*
X69342686Y-93446651D01*
X69334093Y-93430574D01*
X69322403Y-93416331D01*
X69322077Y-93414358D01*
X69323623Y-93413089D01*
X69325363Y-93413648D01*
G37*
G36*
X72917983Y-93414544D02*
G01*
X72917597Y-93416331D01*
X72905907Y-93430574D01*
X72897314Y-93446651D01*
X72892021Y-93464098D01*
X72890235Y-93482237D01*
X72892021Y-93500376D01*
X72897314Y-93517823D01*
X72905907Y-93533900D01*
X72917537Y-93548070D01*
X73882594Y-94513127D01*
X73896764Y-94524757D01*
X73912841Y-94533350D01*
X73930288Y-94538643D01*
X73948427Y-94540429D01*
X73966566Y-94538643D01*
X73984013Y-94533350D01*
X74000090Y-94524757D01*
X74014333Y-94513067D01*
X74016306Y-94512741D01*
X74017575Y-94514287D01*
X74017016Y-94516027D01*
X73977161Y-94555882D01*
X73977016Y-94556014D01*
X73967419Y-94563890D01*
X73967093Y-94564108D01*
X73961574Y-94567058D01*
X73961212Y-94567208D01*
X73949633Y-94570720D01*
X73949442Y-94570768D01*
X73937013Y-94573241D01*
X73914736Y-94582471D01*
X73894691Y-94595865D01*
X73877645Y-94612913D01*
X73864251Y-94632961D01*
X73855026Y-94655235D01*
X73852554Y-94667659D01*
X73852506Y-94667850D01*
X73848995Y-94679425D01*
X73848845Y-94679787D01*
X73845895Y-94685306D01*
X73845677Y-94685632D01*
X73837801Y-94695229D01*
X73837669Y-94695374D01*
X73797814Y-94735229D01*
X73795882Y-94735747D01*
X73794468Y-94734333D01*
X73794854Y-94732546D01*
X73806544Y-94718303D01*
X73815137Y-94702226D01*
X73820430Y-94684779D01*
X73822216Y-94666640D01*
X73820430Y-94648501D01*
X73815137Y-94631054D01*
X73806544Y-94614977D01*
X73794914Y-94600807D01*
X72829857Y-93635750D01*
X72815687Y-93624120D01*
X72799610Y-93615527D01*
X72782163Y-93610234D01*
X72764024Y-93608448D01*
X72745885Y-93610234D01*
X72728438Y-93615527D01*
X72712361Y-93624120D01*
X72698118Y-93635810D01*
X72696145Y-93636136D01*
X72694876Y-93634590D01*
X72695435Y-93632850D01*
X72735290Y-93592995D01*
X72735435Y-93592863D01*
X72745032Y-93584987D01*
X72745358Y-93584769D01*
X72750877Y-93581819D01*
X72751239Y-93581669D01*
X72762818Y-93578157D01*
X72763009Y-93578109D01*
X72775438Y-93575636D01*
X72797715Y-93566406D01*
X72817760Y-93553012D01*
X72834806Y-93535964D01*
X72848200Y-93515916D01*
X72857425Y-93493642D01*
X72859897Y-93481218D01*
X72859945Y-93481027D01*
X72863456Y-93469452D01*
X72863606Y-93469090D01*
X72866556Y-93463571D01*
X72866774Y-93463245D01*
X72874650Y-93453648D01*
X72874782Y-93453503D01*
X72914637Y-93413648D01*
X72916569Y-93413130D01*
X72917983Y-93414544D01*
G37*
G36*
X68971810Y-93060095D02*
G01*
X69011665Y-93099950D01*
X69011797Y-93100095D01*
X69019673Y-93109692D01*
X69019891Y-93110018D01*
X69022841Y-93115537D01*
X69022991Y-93115899D01*
X69026503Y-93127478D01*
X69026551Y-93127669D01*
X69029024Y-93140098D01*
X69038254Y-93162375D01*
X69051648Y-93182420D01*
X69068696Y-93199466D01*
X69088744Y-93212860D01*
X69111018Y-93222085D01*
X69123442Y-93224557D01*
X69123633Y-93224605D01*
X69135208Y-93228116D01*
X69135570Y-93228266D01*
X69141089Y-93231216D01*
X69141415Y-93231434D01*
X69151012Y-93239310D01*
X69151157Y-93239442D01*
X69191012Y-93279297D01*
X69191530Y-93281229D01*
X69190116Y-93282643D01*
X69188329Y-93282257D01*
X69174086Y-93270567D01*
X69158009Y-93261974D01*
X69140562Y-93256681D01*
X69122423Y-93254895D01*
X69104284Y-93256681D01*
X69086837Y-93261974D01*
X69070760Y-93270567D01*
X69056590Y-93282197D01*
X68091533Y-94247254D01*
X68079903Y-94261424D01*
X68071310Y-94277501D01*
X68066017Y-94294948D01*
X68064231Y-94313087D01*
X68066017Y-94331226D01*
X68071310Y-94348673D01*
X68079903Y-94364750D01*
X68091593Y-94378993D01*
X68091919Y-94380966D01*
X68090373Y-94382235D01*
X68088633Y-94381676D01*
X68048778Y-94341821D01*
X68048646Y-94341676D01*
X68040770Y-94332079D01*
X68040552Y-94331753D01*
X68037602Y-94326234D01*
X68037452Y-94325872D01*
X68033940Y-94314293D01*
X68033892Y-94314102D01*
X68031419Y-94301673D01*
X68022189Y-94279396D01*
X68008795Y-94259351D01*
X67991747Y-94242305D01*
X67971699Y-94228911D01*
X67949425Y-94219686D01*
X67937001Y-94217214D01*
X67936810Y-94217166D01*
X67925235Y-94213655D01*
X67924873Y-94213505D01*
X67919354Y-94210555D01*
X67919028Y-94210337D01*
X67909431Y-94202461D01*
X67909286Y-94202329D01*
X67869431Y-94162474D01*
X67868913Y-94160542D01*
X67870327Y-94159128D01*
X67872114Y-94159514D01*
X67886357Y-94171204D01*
X67902434Y-94179797D01*
X67919881Y-94185090D01*
X67938020Y-94186876D01*
X67956159Y-94185090D01*
X67973606Y-94179797D01*
X67989683Y-94171204D01*
X68003853Y-94159574D01*
X68968910Y-93194517D01*
X68980540Y-93180347D01*
X68989133Y-93164270D01*
X68994426Y-93146823D01*
X68996212Y-93128684D01*
X68994426Y-93110545D01*
X68989133Y-93093098D01*
X68980540Y-93077021D01*
X68968850Y-93062778D01*
X68968524Y-93060805D01*
X68970070Y-93059536D01*
X68971810Y-93060095D01*
G37*
G36*
X73271536Y-93060991D02*
G01*
X73271150Y-93062778D01*
X73259460Y-93077021D01*
X73250867Y-93093098D01*
X73245574Y-93110545D01*
X73243788Y-93128684D01*
X73245574Y-93146823D01*
X73250867Y-93164270D01*
X73259460Y-93180347D01*
X73271090Y-93194517D01*
X74236147Y-94159574D01*
X74250317Y-94171204D01*
X74266394Y-94179797D01*
X74283841Y-94185090D01*
X74301980Y-94186876D01*
X74320119Y-94185090D01*
X74337566Y-94179797D01*
X74353643Y-94171204D01*
X74367886Y-94159514D01*
X74369859Y-94159188D01*
X74371128Y-94160734D01*
X74370569Y-94162474D01*
X74330714Y-94202329D01*
X74330569Y-94202461D01*
X74320972Y-94210337D01*
X74320646Y-94210555D01*
X74315127Y-94213505D01*
X74314765Y-94213655D01*
X74303186Y-94217167D01*
X74302995Y-94217215D01*
X74290566Y-94219688D01*
X74268289Y-94228918D01*
X74248244Y-94242312D01*
X74231198Y-94259360D01*
X74217804Y-94279408D01*
X74208579Y-94301682D01*
X74206107Y-94314106D01*
X74206059Y-94314297D01*
X74202548Y-94325872D01*
X74202398Y-94326234D01*
X74199448Y-94331753D01*
X74199230Y-94332079D01*
X74191354Y-94341676D01*
X74191222Y-94341821D01*
X74151367Y-94381676D01*
X74149435Y-94382194D01*
X74148021Y-94380780D01*
X74148407Y-94378993D01*
X74160097Y-94364750D01*
X74168690Y-94348673D01*
X74173983Y-94331226D01*
X74175769Y-94313087D01*
X74173983Y-94294948D01*
X74168690Y-94277501D01*
X74160097Y-94261424D01*
X74148467Y-94247254D01*
X73183410Y-93282197D01*
X73169240Y-93270567D01*
X73153163Y-93261974D01*
X73135716Y-93256681D01*
X73117577Y-93254895D01*
X73099438Y-93256681D01*
X73081991Y-93261974D01*
X73065914Y-93270567D01*
X73051671Y-93282257D01*
X73049698Y-93282583D01*
X73048429Y-93281037D01*
X73048988Y-93279297D01*
X73088843Y-93239442D01*
X73088988Y-93239310D01*
X73098585Y-93231434D01*
X73098911Y-93231216D01*
X73104430Y-93228266D01*
X73104792Y-93228116D01*
X73116371Y-93224604D01*
X73116562Y-93224556D01*
X73128991Y-93222083D01*
X73151268Y-93212853D01*
X73171313Y-93199459D01*
X73188359Y-93182411D01*
X73201753Y-93162363D01*
X73210978Y-93140089D01*
X73213450Y-93127665D01*
X73213498Y-93127474D01*
X73217009Y-93115899D01*
X73217159Y-93115537D01*
X73220109Y-93110018D01*
X73220327Y-93109692D01*
X73228203Y-93100095D01*
X73228335Y-93099950D01*
X73268190Y-93060095D01*
X73270122Y-93059577D01*
X73271536Y-93060991D01*
G37*
G36*
X68618256Y-92706541D02*
G01*
X68658111Y-92746396D01*
X68658243Y-92746541D01*
X68666119Y-92756138D01*
X68666337Y-92756464D01*
X68669287Y-92761983D01*
X68669437Y-92762345D01*
X68672950Y-92773925D01*
X68672998Y-92774116D01*
X68675471Y-92786545D01*
X68684698Y-92808819D01*
X68698093Y-92828866D01*
X68715141Y-92845912D01*
X68735188Y-92859306D01*
X68757463Y-92868532D01*
X68769890Y-92871004D01*
X68770081Y-92871052D01*
X68781655Y-92874563D01*
X68782017Y-92874713D01*
X68787536Y-92877663D01*
X68787862Y-92877881D01*
X68797459Y-92885757D01*
X68797604Y-92885889D01*
X68837459Y-92925744D01*
X68837977Y-92927676D01*
X68836563Y-92929090D01*
X68834776Y-92928704D01*
X68820533Y-92917014D01*
X68804456Y-92908421D01*
X68787009Y-92903128D01*
X68768870Y-92901342D01*
X68750731Y-92903128D01*
X68733284Y-92908421D01*
X68717207Y-92917014D01*
X68703037Y-92928644D01*
X67737980Y-93893701D01*
X67726350Y-93907871D01*
X67717757Y-93923948D01*
X67712464Y-93941395D01*
X67710678Y-93959534D01*
X67712464Y-93977673D01*
X67717757Y-93995120D01*
X67726350Y-94011197D01*
X67738040Y-94025440D01*
X67738366Y-94027413D01*
X67736820Y-94028682D01*
X67735080Y-94028123D01*
X67695225Y-93988268D01*
X67695093Y-93988123D01*
X67687217Y-93978526D01*
X67686999Y-93978200D01*
X67684049Y-93972681D01*
X67683899Y-93972319D01*
X67680386Y-93960739D01*
X67680338Y-93960548D01*
X67677865Y-93948119D01*
X67668638Y-93925845D01*
X67655243Y-93905798D01*
X67638195Y-93888752D01*
X67618148Y-93875358D01*
X67595873Y-93866132D01*
X67583446Y-93863660D01*
X67583255Y-93863612D01*
X67571681Y-93860101D01*
X67571319Y-93859951D01*
X67565800Y-93857001D01*
X67565474Y-93856783D01*
X67555877Y-93848907D01*
X67555732Y-93848775D01*
X67515877Y-93808920D01*
X67515359Y-93806988D01*
X67516773Y-93805574D01*
X67518560Y-93805960D01*
X67532803Y-93817650D01*
X67548880Y-93826243D01*
X67566327Y-93831536D01*
X67584466Y-93833322D01*
X67602605Y-93831536D01*
X67620052Y-93826243D01*
X67636129Y-93817650D01*
X67650299Y-93806020D01*
X68615356Y-92840963D01*
X68626986Y-92826793D01*
X68635579Y-92810716D01*
X68640872Y-92793269D01*
X68642658Y-92775130D01*
X68640872Y-92756991D01*
X68635579Y-92739544D01*
X68626986Y-92723467D01*
X68615296Y-92709224D01*
X68614970Y-92707251D01*
X68616516Y-92705982D01*
X68618256Y-92706541D01*
G37*
G36*
X73625090Y-92707437D02*
G01*
X73624704Y-92709224D01*
X73613014Y-92723467D01*
X73604421Y-92739544D01*
X73599128Y-92756991D01*
X73597342Y-92775130D01*
X73599128Y-92793269D01*
X73604421Y-92810716D01*
X73613014Y-92826793D01*
X73624644Y-92840963D01*
X74589701Y-93806020D01*
X74603871Y-93817650D01*
X74619948Y-93826243D01*
X74637395Y-93831536D01*
X74655534Y-93833322D01*
X74673673Y-93831536D01*
X74691120Y-93826243D01*
X74707197Y-93817650D01*
X74721440Y-93805960D01*
X74723413Y-93805634D01*
X74724682Y-93807180D01*
X74724123Y-93808920D01*
X74684268Y-93848775D01*
X74684123Y-93848907D01*
X74674526Y-93856783D01*
X74674200Y-93857001D01*
X74668681Y-93859951D01*
X74668319Y-93860101D01*
X74656739Y-93863614D01*
X74656548Y-93863662D01*
X74644119Y-93866135D01*
X74621845Y-93875362D01*
X74601798Y-93888757D01*
X74584752Y-93905805D01*
X74571358Y-93925852D01*
X74562132Y-93948127D01*
X74559660Y-93960554D01*
X74559612Y-93960745D01*
X74556101Y-93972319D01*
X74555951Y-93972681D01*
X74553001Y-93978200D01*
X74552783Y-93978526D01*
X74544907Y-93988123D01*
X74544775Y-93988268D01*
X74504920Y-94028123D01*
X74502988Y-94028641D01*
X74501574Y-94027227D01*
X74501960Y-94025440D01*
X74513650Y-94011197D01*
X74522243Y-93995120D01*
X74527536Y-93977673D01*
X74529322Y-93959534D01*
X74527536Y-93941395D01*
X74522243Y-93923948D01*
X74513650Y-93907871D01*
X74502020Y-93893701D01*
X73536963Y-92928644D01*
X73522793Y-92917014D01*
X73506716Y-92908421D01*
X73489269Y-92903128D01*
X73471130Y-92901342D01*
X73452991Y-92903128D01*
X73435544Y-92908421D01*
X73419467Y-92917014D01*
X73405224Y-92928704D01*
X73403251Y-92929030D01*
X73401982Y-92927484D01*
X73402541Y-92925744D01*
X73442396Y-92885889D01*
X73442541Y-92885757D01*
X73452138Y-92877881D01*
X73452464Y-92877663D01*
X73457983Y-92874713D01*
X73458345Y-92874563D01*
X73469925Y-92871050D01*
X73470116Y-92871002D01*
X73482545Y-92868529D01*
X73504819Y-92859302D01*
X73524866Y-92845907D01*
X73541912Y-92828859D01*
X73555306Y-92808812D01*
X73564532Y-92786537D01*
X73567004Y-92774110D01*
X73567052Y-92773919D01*
X73570563Y-92762345D01*
X73570713Y-92761983D01*
X73573663Y-92756464D01*
X73573881Y-92756138D01*
X73581757Y-92746541D01*
X73581889Y-92746396D01*
X73621744Y-92706541D01*
X73623676Y-92706023D01*
X73625090Y-92707437D01*
G37*
G36*
X68264703Y-92352988D02*
G01*
X68304558Y-92392843D01*
X68304690Y-92392988D01*
X68312566Y-92402585D01*
X68312784Y-92402911D01*
X68315734Y-92408430D01*
X68315884Y-92408792D01*
X68319396Y-92420371D01*
X68319444Y-92420562D01*
X68321917Y-92432991D01*
X68331147Y-92455268D01*
X68344541Y-92475313D01*
X68361589Y-92492359D01*
X68381637Y-92505753D01*
X68403911Y-92514978D01*
X68416335Y-92517450D01*
X68416526Y-92517498D01*
X68428101Y-92521009D01*
X68428463Y-92521159D01*
X68433982Y-92524109D01*
X68434308Y-92524327D01*
X68443905Y-92532203D01*
X68444050Y-92532335D01*
X68483905Y-92572190D01*
X68484423Y-92574122D01*
X68483009Y-92575536D01*
X68481222Y-92575150D01*
X68466979Y-92563460D01*
X68450902Y-92554867D01*
X68433455Y-92549574D01*
X68415316Y-92547788D01*
X68397177Y-92549574D01*
X68379730Y-92554867D01*
X68363653Y-92563460D01*
X68349483Y-92575090D01*
X67384426Y-93540147D01*
X67372796Y-93554317D01*
X67364203Y-93570394D01*
X67358910Y-93587841D01*
X67357124Y-93605980D01*
X67358910Y-93624119D01*
X67364203Y-93641566D01*
X67372796Y-93657643D01*
X67384486Y-93671886D01*
X67384812Y-93673859D01*
X67383266Y-93675128D01*
X67381526Y-93674569D01*
X67341671Y-93634714D01*
X67341539Y-93634569D01*
X67333663Y-93624972D01*
X67333445Y-93624646D01*
X67330495Y-93619127D01*
X67330345Y-93618765D01*
X67326833Y-93607186D01*
X67326785Y-93606995D01*
X67324312Y-93594566D01*
X67315082Y-93572289D01*
X67301688Y-93552244D01*
X67284640Y-93535198D01*
X67264592Y-93521804D01*
X67242318Y-93512579D01*
X67229894Y-93510107D01*
X67229703Y-93510059D01*
X67218128Y-93506548D01*
X67217766Y-93506398D01*
X67212247Y-93503448D01*
X67211921Y-93503230D01*
X67202324Y-93495354D01*
X67202179Y-93495222D01*
X67162324Y-93455367D01*
X67161806Y-93453435D01*
X67163220Y-93452021D01*
X67165007Y-93452407D01*
X67179250Y-93464097D01*
X67195327Y-93472690D01*
X67212774Y-93477983D01*
X67230913Y-93479769D01*
X67249052Y-93477983D01*
X67266499Y-93472690D01*
X67282576Y-93464097D01*
X67296746Y-93452467D01*
X68261803Y-92487410D01*
X68273433Y-92473240D01*
X68282026Y-92457163D01*
X68287319Y-92439716D01*
X68289105Y-92421577D01*
X68287319Y-92403438D01*
X68282026Y-92385991D01*
X68273433Y-92369914D01*
X68261743Y-92355671D01*
X68261417Y-92353698D01*
X68262963Y-92352429D01*
X68264703Y-92352988D01*
G37*
G36*
X73978643Y-92353884D02*
G01*
X73978257Y-92355671D01*
X73966567Y-92369914D01*
X73957974Y-92385991D01*
X73952681Y-92403438D01*
X73950895Y-92421577D01*
X73952681Y-92439716D01*
X73957974Y-92457163D01*
X73966567Y-92473240D01*
X73978197Y-92487410D01*
X74943254Y-93452467D01*
X74957424Y-93464097D01*
X74973501Y-93472690D01*
X74990948Y-93477983D01*
X75009087Y-93479769D01*
X75027226Y-93477983D01*
X75044673Y-93472690D01*
X75060750Y-93464097D01*
X75074993Y-93452407D01*
X75076966Y-93452081D01*
X75078235Y-93453627D01*
X75077676Y-93455367D01*
X75037821Y-93495222D01*
X75037676Y-93495354D01*
X75028079Y-93503230D01*
X75027753Y-93503448D01*
X75022234Y-93506398D01*
X75021872Y-93506548D01*
X75010293Y-93510060D01*
X75010102Y-93510108D01*
X74997673Y-93512581D01*
X74975396Y-93521811D01*
X74955351Y-93535205D01*
X74938305Y-93552253D01*
X74924911Y-93572301D01*
X74915686Y-93594575D01*
X74913214Y-93606999D01*
X74913166Y-93607190D01*
X74909655Y-93618765D01*
X74909505Y-93619127D01*
X74906555Y-93624646D01*
X74906337Y-93624972D01*
X74898461Y-93634569D01*
X74898329Y-93634714D01*
X74858474Y-93674569D01*
X74856542Y-93675087D01*
X74855128Y-93673673D01*
X74855514Y-93671886D01*
X74867204Y-93657643D01*
X74875797Y-93641566D01*
X74881090Y-93624119D01*
X74882876Y-93605980D01*
X74881090Y-93587841D01*
X74875797Y-93570394D01*
X74867204Y-93554317D01*
X74855574Y-93540147D01*
X73890517Y-92575090D01*
X73876347Y-92563460D01*
X73860270Y-92554867D01*
X73842823Y-92549574D01*
X73824684Y-92547788D01*
X73806545Y-92549574D01*
X73789098Y-92554867D01*
X73773021Y-92563460D01*
X73758778Y-92575150D01*
X73756805Y-92575476D01*
X73755536Y-92573930D01*
X73756095Y-92572190D01*
X73795950Y-92532335D01*
X73796095Y-92532203D01*
X73805692Y-92524327D01*
X73806018Y-92524109D01*
X73811537Y-92521159D01*
X73811899Y-92521009D01*
X73823478Y-92517497D01*
X73823669Y-92517449D01*
X73836098Y-92514976D01*
X73858375Y-92505746D01*
X73878420Y-92492352D01*
X73895466Y-92475304D01*
X73908860Y-92455256D01*
X73918085Y-92432982D01*
X73920557Y-92420558D01*
X73920605Y-92420367D01*
X73924116Y-92408792D01*
X73924266Y-92408430D01*
X73927216Y-92402911D01*
X73927434Y-92402585D01*
X73935310Y-92392988D01*
X73935442Y-92392843D01*
X73975297Y-92352988D01*
X73977229Y-92352470D01*
X73978643Y-92353884D01*
G37*
G36*
X67911150Y-91999435D02*
G01*
X67951005Y-92039290D01*
X67951137Y-92039435D01*
X67959013Y-92049032D01*
X67959231Y-92049358D01*
X67962181Y-92054877D01*
X67962331Y-92055239D01*
X67965843Y-92066818D01*
X67965891Y-92067009D01*
X67968364Y-92079438D01*
X67977594Y-92101715D01*
X67990988Y-92121760D01*
X68008036Y-92138806D01*
X68028084Y-92152200D01*
X68050358Y-92161425D01*
X68062782Y-92163897D01*
X68062973Y-92163945D01*
X68074548Y-92167456D01*
X68074910Y-92167606D01*
X68080429Y-92170556D01*
X68080755Y-92170774D01*
X68090352Y-92178650D01*
X68090497Y-92178782D01*
X68130352Y-92218637D01*
X68130870Y-92220569D01*
X68129456Y-92221983D01*
X68127669Y-92221597D01*
X68113426Y-92209907D01*
X68097349Y-92201314D01*
X68079902Y-92196021D01*
X68061763Y-92194235D01*
X68043624Y-92196021D01*
X68026177Y-92201314D01*
X68010100Y-92209907D01*
X67995930Y-92221537D01*
X67030873Y-93186594D01*
X67019243Y-93200764D01*
X67010650Y-93216841D01*
X67005357Y-93234288D01*
X67003571Y-93252427D01*
X67005357Y-93270566D01*
X67010650Y-93288013D01*
X67019243Y-93304090D01*
X67030933Y-93318333D01*
X67031259Y-93320306D01*
X67029713Y-93321575D01*
X67027973Y-93321016D01*
X66988118Y-93281161D01*
X66987986Y-93281016D01*
X66980110Y-93271419D01*
X66979892Y-93271093D01*
X66976942Y-93265574D01*
X66976792Y-93265212D01*
X66973280Y-93253633D01*
X66973232Y-93253442D01*
X66970759Y-93241013D01*
X66961529Y-93218736D01*
X66948135Y-93198691D01*
X66931087Y-93181645D01*
X66911039Y-93168251D01*
X66888765Y-93159026D01*
X66876341Y-93156554D01*
X66876150Y-93156506D01*
X66864575Y-93152995D01*
X66864213Y-93152845D01*
X66858694Y-93149895D01*
X66858368Y-93149677D01*
X66848771Y-93141801D01*
X66848626Y-93141669D01*
X66808771Y-93101814D01*
X66808253Y-93099882D01*
X66809667Y-93098468D01*
X66811454Y-93098854D01*
X66825697Y-93110544D01*
X66841774Y-93119137D01*
X66859221Y-93124430D01*
X66877360Y-93126216D01*
X66895499Y-93124430D01*
X66912946Y-93119137D01*
X66929023Y-93110544D01*
X66943193Y-93098914D01*
X67908250Y-92133857D01*
X67919880Y-92119687D01*
X67928473Y-92103610D01*
X67933766Y-92086163D01*
X67935552Y-92068024D01*
X67933766Y-92049885D01*
X67928473Y-92032438D01*
X67919880Y-92016361D01*
X67908190Y-92002118D01*
X67907864Y-92000145D01*
X67909410Y-91998876D01*
X67911150Y-91999435D01*
G37*
G36*
X74332196Y-92000331D02*
G01*
X74331810Y-92002118D01*
X74320120Y-92016361D01*
X74311527Y-92032438D01*
X74306234Y-92049885D01*
X74304448Y-92068024D01*
X74306234Y-92086163D01*
X74311527Y-92103610D01*
X74320120Y-92119687D01*
X74331750Y-92133857D01*
X75296807Y-93098914D01*
X75310977Y-93110544D01*
X75327054Y-93119137D01*
X75344501Y-93124430D01*
X75362640Y-93126216D01*
X75380779Y-93124430D01*
X75398226Y-93119137D01*
X75414303Y-93110544D01*
X75428546Y-93098854D01*
X75430519Y-93098528D01*
X75431788Y-93100074D01*
X75431229Y-93101814D01*
X75391374Y-93141669D01*
X75391229Y-93141801D01*
X75381632Y-93149677D01*
X75381306Y-93149895D01*
X75375787Y-93152845D01*
X75375425Y-93152995D01*
X75363846Y-93156507D01*
X75363655Y-93156555D01*
X75351226Y-93159028D01*
X75328949Y-93168258D01*
X75308904Y-93181652D01*
X75291858Y-93198700D01*
X75278464Y-93218748D01*
X75269239Y-93241022D01*
X75266767Y-93253446D01*
X75266719Y-93253637D01*
X75263208Y-93265212D01*
X75263058Y-93265574D01*
X75260108Y-93271093D01*
X75259890Y-93271419D01*
X75252014Y-93281016D01*
X75251882Y-93281161D01*
X75212027Y-93321016D01*
X75210095Y-93321534D01*
X75208681Y-93320120D01*
X75209067Y-93318333D01*
X75220757Y-93304090D01*
X75229350Y-93288013D01*
X75234643Y-93270566D01*
X75236429Y-93252427D01*
X75234643Y-93234288D01*
X75229350Y-93216841D01*
X75220757Y-93200764D01*
X75209127Y-93186594D01*
X74244070Y-92221537D01*
X74229900Y-92209907D01*
X74213823Y-92201314D01*
X74196376Y-92196021D01*
X74178237Y-92194235D01*
X74160098Y-92196021D01*
X74142651Y-92201314D01*
X74126574Y-92209907D01*
X74112331Y-92221597D01*
X74110358Y-92221923D01*
X74109089Y-92220377D01*
X74109648Y-92218637D01*
X74149503Y-92178782D01*
X74149648Y-92178650D01*
X74159245Y-92170774D01*
X74159571Y-92170556D01*
X74165090Y-92167606D01*
X74165452Y-92167456D01*
X74177031Y-92163944D01*
X74177222Y-92163896D01*
X74189651Y-92161423D01*
X74211928Y-92152193D01*
X74231973Y-92138799D01*
X74249019Y-92121751D01*
X74262413Y-92101703D01*
X74271638Y-92079429D01*
X74274110Y-92067005D01*
X74274158Y-92066814D01*
X74277669Y-92055239D01*
X74277819Y-92054877D01*
X74280769Y-92049358D01*
X74280987Y-92049032D01*
X74288863Y-92039435D01*
X74288995Y-92039290D01*
X74328850Y-91999435D01*
X74330782Y-91998917D01*
X74332196Y-92000331D01*
G37*
G36*
X67557596Y-91645881D02*
G01*
X67597451Y-91685736D01*
X67597583Y-91685881D01*
X67605459Y-91695478D01*
X67605677Y-91695804D01*
X67608627Y-91701323D01*
X67608777Y-91701685D01*
X67612290Y-91713265D01*
X67612338Y-91713456D01*
X67614811Y-91725885D01*
X67624038Y-91748159D01*
X67637433Y-91768206D01*
X67654481Y-91785252D01*
X67674528Y-91798646D01*
X67696803Y-91807872D01*
X67709230Y-91810344D01*
X67709421Y-91810392D01*
X67720995Y-91813903D01*
X67721357Y-91814053D01*
X67726876Y-91817003D01*
X67727202Y-91817221D01*
X67736799Y-91825097D01*
X67736944Y-91825229D01*
X67776799Y-91865084D01*
X67777317Y-91867016D01*
X67775903Y-91868430D01*
X67774116Y-91868044D01*
X67759873Y-91856354D01*
X67743796Y-91847761D01*
X67726349Y-91842468D01*
X67708210Y-91840682D01*
X67690071Y-91842468D01*
X67672624Y-91847761D01*
X67656547Y-91856354D01*
X67642377Y-91867984D01*
X66677320Y-92833041D01*
X66665690Y-92847211D01*
X66657097Y-92863288D01*
X66651804Y-92880735D01*
X66650018Y-92898874D01*
X66651804Y-92917013D01*
X66657097Y-92934460D01*
X66665690Y-92950537D01*
X66677380Y-92964780D01*
X66677706Y-92966753D01*
X66676160Y-92968022D01*
X66674420Y-92967463D01*
X66634565Y-92927608D01*
X66634433Y-92927463D01*
X66626557Y-92917866D01*
X66626339Y-92917540D01*
X66623389Y-92912021D01*
X66623239Y-92911659D01*
X66619726Y-92900079D01*
X66619678Y-92899888D01*
X66617205Y-92887459D01*
X66607978Y-92865185D01*
X66594583Y-92845138D01*
X66577535Y-92828092D01*
X66557488Y-92814698D01*
X66535213Y-92805472D01*
X66522786Y-92803000D01*
X66522595Y-92802952D01*
X66511021Y-92799441D01*
X66510659Y-92799291D01*
X66505140Y-92796341D01*
X66504814Y-92796123D01*
X66495217Y-92788247D01*
X66495072Y-92788115D01*
X66455217Y-92748260D01*
X66454699Y-92746328D01*
X66456113Y-92744914D01*
X66457900Y-92745300D01*
X66472143Y-92756990D01*
X66488220Y-92765583D01*
X66505667Y-92770876D01*
X66523806Y-92772662D01*
X66541945Y-92770876D01*
X66559392Y-92765583D01*
X66575469Y-92756990D01*
X66589639Y-92745360D01*
X67554696Y-91780303D01*
X67566326Y-91766133D01*
X67574919Y-91750056D01*
X67580212Y-91732609D01*
X67581998Y-91714470D01*
X67580212Y-91696331D01*
X67574919Y-91678884D01*
X67566326Y-91662807D01*
X67554636Y-91648564D01*
X67554310Y-91646591D01*
X67555856Y-91645322D01*
X67557596Y-91645881D01*
G37*
G36*
X74685750Y-91646777D02*
G01*
X74685364Y-91648564D01*
X74673674Y-91662807D01*
X74665081Y-91678884D01*
X74659788Y-91696331D01*
X74658002Y-91714470D01*
X74659788Y-91732609D01*
X74665081Y-91750056D01*
X74673674Y-91766133D01*
X74685304Y-91780303D01*
X75650361Y-92745360D01*
X75664531Y-92756990D01*
X75680608Y-92765583D01*
X75698055Y-92770876D01*
X75716194Y-92772662D01*
X75734333Y-92770876D01*
X75751780Y-92765583D01*
X75767857Y-92756990D01*
X75782100Y-92745300D01*
X75784073Y-92744974D01*
X75785342Y-92746520D01*
X75784783Y-92748260D01*
X75744928Y-92788115D01*
X75744783Y-92788247D01*
X75735186Y-92796123D01*
X75734860Y-92796341D01*
X75729341Y-92799291D01*
X75728979Y-92799441D01*
X75717399Y-92802954D01*
X75717208Y-92803002D01*
X75704779Y-92805475D01*
X75682505Y-92814702D01*
X75662458Y-92828097D01*
X75645412Y-92845145D01*
X75632018Y-92865192D01*
X75622792Y-92887467D01*
X75620320Y-92899894D01*
X75620272Y-92900085D01*
X75616761Y-92911659D01*
X75616611Y-92912021D01*
X75613661Y-92917540D01*
X75613443Y-92917866D01*
X75605567Y-92927463D01*
X75605435Y-92927608D01*
X75565580Y-92967463D01*
X75563648Y-92967981D01*
X75562234Y-92966567D01*
X75562620Y-92964780D01*
X75574310Y-92950537D01*
X75582903Y-92934460D01*
X75588196Y-92917013D01*
X75589982Y-92898874D01*
X75588196Y-92880735D01*
X75582903Y-92863288D01*
X75574310Y-92847211D01*
X75562680Y-92833041D01*
X74597623Y-91867984D01*
X74583453Y-91856354D01*
X74567376Y-91847761D01*
X74549929Y-91842468D01*
X74531790Y-91840682D01*
X74513651Y-91842468D01*
X74496204Y-91847761D01*
X74480127Y-91856354D01*
X74465884Y-91868044D01*
X74463911Y-91868370D01*
X74462642Y-91866824D01*
X74463201Y-91865084D01*
X74503056Y-91825229D01*
X74503201Y-91825097D01*
X74512798Y-91817221D01*
X74513124Y-91817003D01*
X74518643Y-91814053D01*
X74519005Y-91813903D01*
X74530585Y-91810390D01*
X74530776Y-91810342D01*
X74543205Y-91807869D01*
X74565479Y-91798642D01*
X74585526Y-91785247D01*
X74602572Y-91768199D01*
X74615966Y-91748152D01*
X74625192Y-91725877D01*
X74627664Y-91713450D01*
X74627712Y-91713259D01*
X74631223Y-91701685D01*
X74631373Y-91701323D01*
X74634323Y-91695804D01*
X74634541Y-91695478D01*
X74642417Y-91685881D01*
X74642549Y-91685736D01*
X74682404Y-91645881D01*
X74684336Y-91645363D01*
X74685750Y-91646777D01*
G37*
G36*
X67204043Y-91292328D02*
G01*
X67243898Y-91332183D01*
X67244030Y-91332328D01*
X67251906Y-91341925D01*
X67252124Y-91342251D01*
X67255074Y-91347770D01*
X67255224Y-91348132D01*
X67258736Y-91359711D01*
X67258784Y-91359902D01*
X67261257Y-91372331D01*
X67270487Y-91394608D01*
X67283881Y-91414653D01*
X67300929Y-91431699D01*
X67320977Y-91445093D01*
X67343251Y-91454318D01*
X67355675Y-91456790D01*
X67355866Y-91456838D01*
X67367441Y-91460349D01*
X67367803Y-91460499D01*
X67373322Y-91463449D01*
X67373648Y-91463667D01*
X67383245Y-91471543D01*
X67383390Y-91471675D01*
X67423245Y-91511530D01*
X67423763Y-91513462D01*
X67422349Y-91514876D01*
X67420562Y-91514490D01*
X67406319Y-91502800D01*
X67390242Y-91494207D01*
X67372795Y-91488914D01*
X67354656Y-91487128D01*
X67336517Y-91488914D01*
X67319070Y-91494207D01*
X67302993Y-91502800D01*
X67288823Y-91514430D01*
X66323766Y-92479487D01*
X66312136Y-92493657D01*
X66303543Y-92509734D01*
X66298250Y-92527181D01*
X66296464Y-92545320D01*
X66298250Y-92563459D01*
X66303543Y-92580906D01*
X66312136Y-92596983D01*
X66323826Y-92611226D01*
X66324152Y-92613199D01*
X66322606Y-92614468D01*
X66320866Y-92613909D01*
X66281011Y-92574054D01*
X66280879Y-92573909D01*
X66273003Y-92564312D01*
X66272785Y-92563986D01*
X66269835Y-92558467D01*
X66269685Y-92558105D01*
X66266173Y-92546526D01*
X66266125Y-92546335D01*
X66263652Y-92533906D01*
X66254422Y-92511629D01*
X66241028Y-92491584D01*
X66223980Y-92474538D01*
X66203932Y-92461144D01*
X66181658Y-92451919D01*
X66169234Y-92449447D01*
X66169043Y-92449399D01*
X66157468Y-92445888D01*
X66157106Y-92445738D01*
X66151587Y-92442788D01*
X66151261Y-92442570D01*
X66141664Y-92434694D01*
X66141519Y-92434562D01*
X66101664Y-92394707D01*
X66101146Y-92392775D01*
X66102560Y-92391361D01*
X66104347Y-92391747D01*
X66118590Y-92403437D01*
X66134667Y-92412030D01*
X66152114Y-92417323D01*
X66170253Y-92419109D01*
X66188392Y-92417323D01*
X66205839Y-92412030D01*
X66221916Y-92403437D01*
X66236086Y-92391807D01*
X67201143Y-91426750D01*
X67212773Y-91412580D01*
X67221366Y-91396503D01*
X67226659Y-91379056D01*
X67228445Y-91360917D01*
X67226659Y-91342778D01*
X67221366Y-91325331D01*
X67212773Y-91309254D01*
X67201083Y-91295011D01*
X67200757Y-91293038D01*
X67202303Y-91291769D01*
X67204043Y-91292328D01*
G37*
G36*
X75039303Y-91293224D02*
G01*
X75038917Y-91295011D01*
X75027227Y-91309254D01*
X75018634Y-91325331D01*
X75013341Y-91342778D01*
X75011555Y-91360917D01*
X75013341Y-91379056D01*
X75018634Y-91396503D01*
X75027227Y-91412580D01*
X75038857Y-91426750D01*
X76003914Y-92391807D01*
X76018084Y-92403437D01*
X76034161Y-92412030D01*
X76051608Y-92417323D01*
X76069747Y-92419109D01*
X76087886Y-92417323D01*
X76105333Y-92412030D01*
X76121410Y-92403437D01*
X76135653Y-92391747D01*
X76137626Y-92391421D01*
X76138895Y-92392967D01*
X76138336Y-92394707D01*
X76098481Y-92434562D01*
X76098336Y-92434694D01*
X76088739Y-92442570D01*
X76088413Y-92442788D01*
X76082894Y-92445738D01*
X76082532Y-92445888D01*
X76070953Y-92449400D01*
X76070762Y-92449448D01*
X76058333Y-92451921D01*
X76036056Y-92461151D01*
X76016011Y-92474545D01*
X75998965Y-92491593D01*
X75985571Y-92511641D01*
X75976346Y-92533915D01*
X75973874Y-92546339D01*
X75973826Y-92546530D01*
X75970315Y-92558105D01*
X75970165Y-92558467D01*
X75967215Y-92563986D01*
X75966997Y-92564312D01*
X75959121Y-92573909D01*
X75958989Y-92574054D01*
X75919134Y-92613909D01*
X75917202Y-92614427D01*
X75915788Y-92613013D01*
X75916174Y-92611226D01*
X75927864Y-92596983D01*
X75936457Y-92580906D01*
X75941750Y-92563459D01*
X75943536Y-92545320D01*
X75941750Y-92527181D01*
X75936457Y-92509734D01*
X75927864Y-92493657D01*
X75916234Y-92479487D01*
X74951177Y-91514430D01*
X74937007Y-91502800D01*
X74920930Y-91494207D01*
X74903483Y-91488914D01*
X74885344Y-91487128D01*
X74867205Y-91488914D01*
X74849758Y-91494207D01*
X74833681Y-91502800D01*
X74819438Y-91514490D01*
X74817465Y-91514816D01*
X74816196Y-91513270D01*
X74816755Y-91511530D01*
X74856610Y-91471675D01*
X74856755Y-91471543D01*
X74866352Y-91463667D01*
X74866678Y-91463449D01*
X74872197Y-91460499D01*
X74872559Y-91460349D01*
X74884138Y-91456837D01*
X74884329Y-91456789D01*
X74896758Y-91454316D01*
X74919035Y-91445086D01*
X74939080Y-91431692D01*
X74956126Y-91414644D01*
X74969520Y-91394596D01*
X74978745Y-91372322D01*
X74981217Y-91359898D01*
X74981265Y-91359707D01*
X74984776Y-91348132D01*
X74984926Y-91347770D01*
X74987876Y-91342251D01*
X74988094Y-91341925D01*
X74995970Y-91332328D01*
X74996102Y-91332183D01*
X75035957Y-91292328D01*
X75037889Y-91291810D01*
X75039303Y-91293224D01*
G37*
G36*
X66850489Y-90938774D02*
G01*
X66890344Y-90978629D01*
X66890476Y-90978774D01*
X66898352Y-90988371D01*
X66898570Y-90988697D01*
X66901520Y-90994216D01*
X66901670Y-90994578D01*
X66905183Y-91006158D01*
X66905231Y-91006349D01*
X66907704Y-91018778D01*
X66916931Y-91041052D01*
X66930326Y-91061099D01*
X66947374Y-91078145D01*
X66967421Y-91091539D01*
X66989696Y-91100765D01*
X67002123Y-91103237D01*
X67002314Y-91103285D01*
X67013888Y-91106796D01*
X67014250Y-91106946D01*
X67019769Y-91109896D01*
X67020095Y-91110114D01*
X67029692Y-91117990D01*
X67029837Y-91118122D01*
X67069692Y-91157977D01*
X67070210Y-91159909D01*
X67068796Y-91161323D01*
X67067009Y-91160937D01*
X67052766Y-91149247D01*
X67036689Y-91140654D01*
X67019242Y-91135361D01*
X67001103Y-91133575D01*
X66982964Y-91135361D01*
X66965517Y-91140654D01*
X66949440Y-91149247D01*
X66935270Y-91160877D01*
X65970213Y-92125934D01*
X65958583Y-92140104D01*
X65949990Y-92156181D01*
X65944697Y-92173628D01*
X65942911Y-92191767D01*
X65944697Y-92209906D01*
X65949990Y-92227353D01*
X65958583Y-92243430D01*
X65970273Y-92257673D01*
X65970599Y-92259646D01*
X65969053Y-92260915D01*
X65967313Y-92260356D01*
X65927458Y-92220501D01*
X65927326Y-92220356D01*
X65919450Y-92210759D01*
X65919232Y-92210433D01*
X65916282Y-92204914D01*
X65916132Y-92204552D01*
X65912619Y-92192972D01*
X65912571Y-92192781D01*
X65910098Y-92180352D01*
X65900871Y-92158078D01*
X65887476Y-92138031D01*
X65870428Y-92120985D01*
X65850381Y-92107591D01*
X65828106Y-92098365D01*
X65815679Y-92095893D01*
X65815488Y-92095845D01*
X65803914Y-92092334D01*
X65803552Y-92092184D01*
X65798033Y-92089234D01*
X65797707Y-92089016D01*
X65788110Y-92081140D01*
X65787965Y-92081008D01*
X65748110Y-92041153D01*
X65747592Y-92039221D01*
X65749006Y-92037807D01*
X65750793Y-92038193D01*
X65765036Y-92049883D01*
X65781113Y-92058476D01*
X65798560Y-92063769D01*
X65816699Y-92065555D01*
X65834838Y-92063769D01*
X65852285Y-92058476D01*
X65868362Y-92049883D01*
X65882532Y-92038253D01*
X66847589Y-91073196D01*
X66859219Y-91059026D01*
X66867812Y-91042949D01*
X66873105Y-91025502D01*
X66874891Y-91007363D01*
X66873105Y-90989224D01*
X66867812Y-90971777D01*
X66859219Y-90955700D01*
X66847529Y-90941457D01*
X66847203Y-90939484D01*
X66848749Y-90938215D01*
X66850489Y-90938774D01*
G37*
G36*
X75392857Y-90939670D02*
G01*
X75392471Y-90941457D01*
X75380781Y-90955700D01*
X75372188Y-90971777D01*
X75366895Y-90989224D01*
X75365109Y-91007363D01*
X75366895Y-91025502D01*
X75372188Y-91042949D01*
X75380781Y-91059026D01*
X75392411Y-91073196D01*
X76357468Y-92038253D01*
X76371638Y-92049883D01*
X76387715Y-92058476D01*
X76405162Y-92063769D01*
X76423301Y-92065555D01*
X76441440Y-92063769D01*
X76458887Y-92058476D01*
X76474964Y-92049883D01*
X76489207Y-92038193D01*
X76491180Y-92037867D01*
X76492449Y-92039413D01*
X76491890Y-92041153D01*
X76452035Y-92081008D01*
X76451890Y-92081140D01*
X76442293Y-92089016D01*
X76441967Y-92089234D01*
X76436448Y-92092184D01*
X76436086Y-92092334D01*
X76424506Y-92095847D01*
X76424315Y-92095895D01*
X76411886Y-92098368D01*
X76389612Y-92107595D01*
X76369565Y-92120990D01*
X76352519Y-92138038D01*
X76339125Y-92158085D01*
X76329899Y-92180360D01*
X76327427Y-92192787D01*
X76327379Y-92192978D01*
X76323868Y-92204552D01*
X76323718Y-92204914D01*
X76320768Y-92210433D01*
X76320550Y-92210759D01*
X76312674Y-92220356D01*
X76312542Y-92220501D01*
X76272687Y-92260356D01*
X76270755Y-92260874D01*
X76269341Y-92259460D01*
X76269727Y-92257673D01*
X76281417Y-92243430D01*
X76290010Y-92227353D01*
X76295303Y-92209906D01*
X76297089Y-92191767D01*
X76295303Y-92173628D01*
X76290010Y-92156181D01*
X76281417Y-92140104D01*
X76269787Y-92125934D01*
X75304730Y-91160877D01*
X75290560Y-91149247D01*
X75274483Y-91140654D01*
X75257036Y-91135361D01*
X75238897Y-91133575D01*
X75220758Y-91135361D01*
X75203311Y-91140654D01*
X75187234Y-91149247D01*
X75172991Y-91160937D01*
X75171018Y-91161263D01*
X75169749Y-91159717D01*
X75170308Y-91157977D01*
X75210163Y-91118122D01*
X75210308Y-91117990D01*
X75219905Y-91110114D01*
X75220231Y-91109896D01*
X75225750Y-91106946D01*
X75226112Y-91106796D01*
X75237692Y-91103283D01*
X75237883Y-91103235D01*
X75250312Y-91100762D01*
X75272586Y-91091535D01*
X75292633Y-91078140D01*
X75309679Y-91061092D01*
X75323073Y-91041045D01*
X75332299Y-91018770D01*
X75334771Y-91006343D01*
X75334819Y-91006152D01*
X75338330Y-90994578D01*
X75338480Y-90994216D01*
X75341430Y-90988697D01*
X75341648Y-90988371D01*
X75349524Y-90978774D01*
X75349656Y-90978629D01*
X75389511Y-90938774D01*
X75391443Y-90938256D01*
X75392857Y-90939670D01*
G37*
G36*
X76272687Y-88587644D02*
G01*
X76312542Y-88627499D01*
X76312674Y-88627644D01*
X76320550Y-88637241D01*
X76320768Y-88637567D01*
X76323718Y-88643086D01*
X76323868Y-88643448D01*
X76327381Y-88655028D01*
X76327429Y-88655219D01*
X76329902Y-88667648D01*
X76339129Y-88689922D01*
X76352524Y-88709969D01*
X76369572Y-88727015D01*
X76389619Y-88740409D01*
X76411894Y-88749635D01*
X76424321Y-88752107D01*
X76424512Y-88752155D01*
X76436086Y-88755666D01*
X76436448Y-88755816D01*
X76441967Y-88758766D01*
X76442293Y-88758984D01*
X76451890Y-88766860D01*
X76452035Y-88766992D01*
X76491890Y-88806847D01*
X76492408Y-88808779D01*
X76490994Y-88810193D01*
X76489207Y-88809807D01*
X76474964Y-88798117D01*
X76458887Y-88789524D01*
X76441440Y-88784231D01*
X76423301Y-88782445D01*
X76405162Y-88784231D01*
X76387715Y-88789524D01*
X76371638Y-88798117D01*
X76357468Y-88809747D01*
X75392411Y-89774804D01*
X75380781Y-89788974D01*
X75372188Y-89805051D01*
X75366895Y-89822498D01*
X75365109Y-89840637D01*
X75366895Y-89858776D01*
X75372188Y-89876223D01*
X75380781Y-89892300D01*
X75392471Y-89906543D01*
X75392797Y-89908516D01*
X75391251Y-89909785D01*
X75389511Y-89909226D01*
X75349656Y-89869371D01*
X75349524Y-89869226D01*
X75341648Y-89859629D01*
X75341430Y-89859303D01*
X75338480Y-89853784D01*
X75338330Y-89853422D01*
X75334817Y-89841842D01*
X75334769Y-89841651D01*
X75332296Y-89829222D01*
X75323069Y-89806948D01*
X75309674Y-89786901D01*
X75292626Y-89769855D01*
X75272579Y-89756461D01*
X75250304Y-89747235D01*
X75237877Y-89744763D01*
X75237686Y-89744715D01*
X75226112Y-89741204D01*
X75225750Y-89741054D01*
X75220231Y-89738104D01*
X75219905Y-89737886D01*
X75210308Y-89730010D01*
X75210163Y-89729878D01*
X75170308Y-89690023D01*
X75169790Y-89688091D01*
X75171204Y-89686677D01*
X75172991Y-89687063D01*
X75187234Y-89698753D01*
X75203311Y-89707346D01*
X75220758Y-89712639D01*
X75238897Y-89714425D01*
X75257036Y-89712639D01*
X75274483Y-89707346D01*
X75290560Y-89698753D01*
X75304730Y-89687123D01*
X76269787Y-88722066D01*
X76281417Y-88707896D01*
X76290010Y-88691819D01*
X76295303Y-88674372D01*
X76297089Y-88656233D01*
X76295303Y-88638094D01*
X76290010Y-88620647D01*
X76281417Y-88604570D01*
X76269727Y-88590327D01*
X76269401Y-88588354D01*
X76270947Y-88587085D01*
X76272687Y-88587644D01*
G37*
G36*
X65970659Y-88588540D02*
G01*
X65970273Y-88590327D01*
X65958583Y-88604570D01*
X65949990Y-88620647D01*
X65944697Y-88638094D01*
X65942911Y-88656233D01*
X65944697Y-88674372D01*
X65949990Y-88691819D01*
X65958583Y-88707896D01*
X65970213Y-88722066D01*
X66935270Y-89687123D01*
X66949440Y-89698753D01*
X66965517Y-89707346D01*
X66982964Y-89712639D01*
X67001103Y-89714425D01*
X67019242Y-89712639D01*
X67036689Y-89707346D01*
X67052766Y-89698753D01*
X67067009Y-89687063D01*
X67068982Y-89686737D01*
X67070251Y-89688283D01*
X67069692Y-89690023D01*
X67029837Y-89729878D01*
X67029692Y-89730010D01*
X67020095Y-89737886D01*
X67019769Y-89738104D01*
X67014250Y-89741054D01*
X67013888Y-89741204D01*
X67002308Y-89744717D01*
X67002117Y-89744765D01*
X66989688Y-89747238D01*
X66967414Y-89756465D01*
X66947367Y-89769860D01*
X66930321Y-89786908D01*
X66916927Y-89806955D01*
X66907701Y-89829230D01*
X66905229Y-89841657D01*
X66905181Y-89841848D01*
X66901670Y-89853422D01*
X66901520Y-89853784D01*
X66898570Y-89859303D01*
X66898352Y-89859629D01*
X66890476Y-89869226D01*
X66890344Y-89869371D01*
X66850489Y-89909226D01*
X66848557Y-89909744D01*
X66847143Y-89908330D01*
X66847529Y-89906543D01*
X66859219Y-89892300D01*
X66867812Y-89876223D01*
X66873105Y-89858776D01*
X66874891Y-89840637D01*
X66873105Y-89822498D01*
X66867812Y-89805051D01*
X66859219Y-89788974D01*
X66847589Y-89774804D01*
X65882532Y-88809747D01*
X65868362Y-88798117D01*
X65852285Y-88789524D01*
X65834838Y-88784231D01*
X65816699Y-88782445D01*
X65798560Y-88784231D01*
X65781113Y-88789524D01*
X65765036Y-88798117D01*
X65750793Y-88809807D01*
X65748820Y-88810133D01*
X65747551Y-88808587D01*
X65748110Y-88806847D01*
X65787965Y-88766992D01*
X65788110Y-88766860D01*
X65797707Y-88758984D01*
X65798033Y-88758766D01*
X65803552Y-88755816D01*
X65803914Y-88755666D01*
X65815494Y-88752153D01*
X65815685Y-88752105D01*
X65828114Y-88749632D01*
X65850388Y-88740405D01*
X65870435Y-88727010D01*
X65887481Y-88709962D01*
X65900875Y-88689915D01*
X65910101Y-88667640D01*
X65912573Y-88655213D01*
X65912621Y-88655022D01*
X65916132Y-88643448D01*
X65916282Y-88643086D01*
X65919232Y-88637567D01*
X65919450Y-88637241D01*
X65927326Y-88627644D01*
X65927458Y-88627499D01*
X65967313Y-88587644D01*
X65969245Y-88587126D01*
X65970659Y-88588540D01*
G37*
G36*
X75919134Y-88234091D02*
G01*
X75958989Y-88273946D01*
X75959121Y-88274091D01*
X75966997Y-88283688D01*
X75967215Y-88284014D01*
X75970165Y-88289533D01*
X75970315Y-88289895D01*
X75973827Y-88301474D01*
X75973875Y-88301665D01*
X75976348Y-88314094D01*
X75985578Y-88336371D01*
X75998972Y-88356416D01*
X76016020Y-88373462D01*
X76036068Y-88386856D01*
X76058342Y-88396081D01*
X76070766Y-88398553D01*
X76070957Y-88398601D01*
X76082532Y-88402112D01*
X76082894Y-88402262D01*
X76088413Y-88405212D01*
X76088739Y-88405430D01*
X76098336Y-88413306D01*
X76098481Y-88413438D01*
X76138336Y-88453293D01*
X76138854Y-88455225D01*
X76137440Y-88456639D01*
X76135653Y-88456253D01*
X76121410Y-88444563D01*
X76105333Y-88435970D01*
X76087886Y-88430677D01*
X76069747Y-88428891D01*
X76051608Y-88430677D01*
X76034161Y-88435970D01*
X76018084Y-88444563D01*
X76003914Y-88456193D01*
X75038857Y-89421250D01*
X75027227Y-89435420D01*
X75018634Y-89451497D01*
X75013341Y-89468944D01*
X75011555Y-89487083D01*
X75013341Y-89505222D01*
X75018634Y-89522669D01*
X75027227Y-89538746D01*
X75038917Y-89552989D01*
X75039243Y-89554962D01*
X75037697Y-89556231D01*
X75035957Y-89555672D01*
X74996102Y-89515817D01*
X74995970Y-89515672D01*
X74988094Y-89506075D01*
X74987876Y-89505749D01*
X74984926Y-89500230D01*
X74984776Y-89499868D01*
X74981264Y-89488289D01*
X74981216Y-89488098D01*
X74978743Y-89475669D01*
X74969513Y-89453392D01*
X74956119Y-89433347D01*
X74939071Y-89416301D01*
X74919023Y-89402907D01*
X74896749Y-89393682D01*
X74884325Y-89391210D01*
X74884134Y-89391162D01*
X74872559Y-89387651D01*
X74872197Y-89387501D01*
X74866678Y-89384551D01*
X74866352Y-89384333D01*
X74856755Y-89376457D01*
X74856610Y-89376325D01*
X74816755Y-89336470D01*
X74816237Y-89334538D01*
X74817651Y-89333124D01*
X74819438Y-89333510D01*
X74833681Y-89345200D01*
X74849758Y-89353793D01*
X74867205Y-89359086D01*
X74885344Y-89360872D01*
X74903483Y-89359086D01*
X74920930Y-89353793D01*
X74937007Y-89345200D01*
X74951177Y-89333570D01*
X75916234Y-88368513D01*
X75927864Y-88354343D01*
X75936457Y-88338266D01*
X75941750Y-88320819D01*
X75943536Y-88302680D01*
X75941750Y-88284541D01*
X75936457Y-88267094D01*
X75927864Y-88251017D01*
X75916174Y-88236774D01*
X75915848Y-88234801D01*
X75917394Y-88233532D01*
X75919134Y-88234091D01*
G37*
G36*
X66324212Y-88234987D02*
G01*
X66323826Y-88236774D01*
X66312136Y-88251017D01*
X66303543Y-88267094D01*
X66298250Y-88284541D01*
X66296464Y-88302680D01*
X66298250Y-88320819D01*
X66303543Y-88338266D01*
X66312136Y-88354343D01*
X66323766Y-88368513D01*
X67288823Y-89333570D01*
X67302993Y-89345200D01*
X67319070Y-89353793D01*
X67336517Y-89359086D01*
X67354656Y-89360872D01*
X67372795Y-89359086D01*
X67390242Y-89353793D01*
X67406319Y-89345200D01*
X67420562Y-89333510D01*
X67422535Y-89333184D01*
X67423804Y-89334730D01*
X67423245Y-89336470D01*
X67383390Y-89376325D01*
X67383245Y-89376457D01*
X67373648Y-89384333D01*
X67373322Y-89384551D01*
X67367803Y-89387501D01*
X67367441Y-89387651D01*
X67355862Y-89391163D01*
X67355671Y-89391211D01*
X67343242Y-89393684D01*
X67320965Y-89402914D01*
X67300920Y-89416308D01*
X67283874Y-89433356D01*
X67270480Y-89453404D01*
X67261255Y-89475678D01*
X67258783Y-89488102D01*
X67258735Y-89488293D01*
X67255224Y-89499868D01*
X67255074Y-89500230D01*
X67252124Y-89505749D01*
X67251906Y-89506075D01*
X67244030Y-89515672D01*
X67243898Y-89515817D01*
X67204043Y-89555672D01*
X67202111Y-89556190D01*
X67200697Y-89554776D01*
X67201083Y-89552989D01*
X67212773Y-89538746D01*
X67221366Y-89522669D01*
X67226659Y-89505222D01*
X67228445Y-89487083D01*
X67226659Y-89468944D01*
X67221366Y-89451497D01*
X67212773Y-89435420D01*
X67201143Y-89421250D01*
X66236086Y-88456193D01*
X66221916Y-88444563D01*
X66205839Y-88435970D01*
X66188392Y-88430677D01*
X66170253Y-88428891D01*
X66152114Y-88430677D01*
X66134667Y-88435970D01*
X66118590Y-88444563D01*
X66104347Y-88456253D01*
X66102374Y-88456579D01*
X66101105Y-88455033D01*
X66101664Y-88453293D01*
X66141519Y-88413438D01*
X66141664Y-88413306D01*
X66151261Y-88405430D01*
X66151587Y-88405212D01*
X66157106Y-88402262D01*
X66157468Y-88402112D01*
X66169047Y-88398600D01*
X66169238Y-88398552D01*
X66181667Y-88396079D01*
X66203944Y-88386849D01*
X66223989Y-88373455D01*
X66241035Y-88356407D01*
X66254429Y-88336359D01*
X66263654Y-88314085D01*
X66266126Y-88301661D01*
X66266174Y-88301470D01*
X66269685Y-88289895D01*
X66269835Y-88289533D01*
X66272785Y-88284014D01*
X66273003Y-88283688D01*
X66280879Y-88274091D01*
X66281011Y-88273946D01*
X66320866Y-88234091D01*
X66322798Y-88233573D01*
X66324212Y-88234987D01*
G37*
G36*
X75565580Y-87880537D02*
G01*
X75605435Y-87920392D01*
X75605567Y-87920537D01*
X75613443Y-87930134D01*
X75613661Y-87930460D01*
X75616611Y-87935979D01*
X75616761Y-87936341D01*
X75620274Y-87947921D01*
X75620322Y-87948112D01*
X75622795Y-87960541D01*
X75632022Y-87982815D01*
X75645417Y-88002862D01*
X75662465Y-88019908D01*
X75682512Y-88033302D01*
X75704787Y-88042528D01*
X75717214Y-88045000D01*
X75717405Y-88045048D01*
X75728979Y-88048559D01*
X75729341Y-88048709D01*
X75734860Y-88051659D01*
X75735186Y-88051877D01*
X75744783Y-88059753D01*
X75744928Y-88059885D01*
X75784783Y-88099740D01*
X75785301Y-88101672D01*
X75783887Y-88103086D01*
X75782100Y-88102700D01*
X75767857Y-88091010D01*
X75751780Y-88082417D01*
X75734333Y-88077124D01*
X75716194Y-88075338D01*
X75698055Y-88077124D01*
X75680608Y-88082417D01*
X75664531Y-88091010D01*
X75650361Y-88102640D01*
X74685304Y-89067697D01*
X74673674Y-89081867D01*
X74665081Y-89097944D01*
X74659788Y-89115391D01*
X74658002Y-89133530D01*
X74659788Y-89151669D01*
X74665081Y-89169116D01*
X74673674Y-89185193D01*
X74685364Y-89199436D01*
X74685690Y-89201409D01*
X74684144Y-89202678D01*
X74682404Y-89202119D01*
X74642549Y-89162264D01*
X74642417Y-89162119D01*
X74634541Y-89152522D01*
X74634323Y-89152196D01*
X74631373Y-89146677D01*
X74631223Y-89146315D01*
X74627710Y-89134735D01*
X74627662Y-89134544D01*
X74625189Y-89122115D01*
X74615962Y-89099841D01*
X74602567Y-89079794D01*
X74585519Y-89062748D01*
X74565472Y-89049354D01*
X74543197Y-89040128D01*
X74530770Y-89037656D01*
X74530579Y-89037608D01*
X74519005Y-89034097D01*
X74518643Y-89033947D01*
X74513124Y-89030997D01*
X74512798Y-89030779D01*
X74503201Y-89022903D01*
X74503056Y-89022771D01*
X74463201Y-88982916D01*
X74462683Y-88980984D01*
X74464097Y-88979570D01*
X74465884Y-88979956D01*
X74480127Y-88991646D01*
X74496204Y-89000239D01*
X74513651Y-89005532D01*
X74531790Y-89007318D01*
X74549929Y-89005532D01*
X74567376Y-89000239D01*
X74583453Y-88991646D01*
X74597623Y-88980016D01*
X75562680Y-88014959D01*
X75574310Y-88000789D01*
X75582903Y-87984712D01*
X75588196Y-87967265D01*
X75589982Y-87949126D01*
X75588196Y-87930987D01*
X75582903Y-87913540D01*
X75574310Y-87897463D01*
X75562620Y-87883220D01*
X75562294Y-87881247D01*
X75563840Y-87879978D01*
X75565580Y-87880537D01*
G37*
G36*
X66677766Y-87881433D02*
G01*
X66677380Y-87883220D01*
X66665690Y-87897463D01*
X66657097Y-87913540D01*
X66651804Y-87930987D01*
X66650018Y-87949126D01*
X66651804Y-87967265D01*
X66657097Y-87984712D01*
X66665690Y-88000789D01*
X66677320Y-88014959D01*
X67642377Y-88980016D01*
X67656547Y-88991646D01*
X67672624Y-89000239D01*
X67690071Y-89005532D01*
X67708210Y-89007318D01*
X67726349Y-89005532D01*
X67743796Y-89000239D01*
X67759873Y-88991646D01*
X67774116Y-88979956D01*
X67776089Y-88979630D01*
X67777358Y-88981176D01*
X67776799Y-88982916D01*
X67736944Y-89022771D01*
X67736799Y-89022903D01*
X67727202Y-89030779D01*
X67726876Y-89030997D01*
X67721357Y-89033947D01*
X67720995Y-89034097D01*
X67709415Y-89037610D01*
X67709224Y-89037658D01*
X67696795Y-89040131D01*
X67674521Y-89049358D01*
X67654474Y-89062753D01*
X67637428Y-89079801D01*
X67624034Y-89099848D01*
X67614808Y-89122123D01*
X67612336Y-89134550D01*
X67612288Y-89134741D01*
X67608777Y-89146315D01*
X67608627Y-89146677D01*
X67605677Y-89152196D01*
X67605459Y-89152522D01*
X67597583Y-89162119D01*
X67597451Y-89162264D01*
X67557596Y-89202119D01*
X67555664Y-89202637D01*
X67554250Y-89201223D01*
X67554636Y-89199436D01*
X67566326Y-89185193D01*
X67574919Y-89169116D01*
X67580212Y-89151669D01*
X67581998Y-89133530D01*
X67580212Y-89115391D01*
X67574919Y-89097944D01*
X67566326Y-89081867D01*
X67554696Y-89067697D01*
X66589639Y-88102640D01*
X66575469Y-88091010D01*
X66559392Y-88082417D01*
X66541945Y-88077124D01*
X66523806Y-88075338D01*
X66505667Y-88077124D01*
X66488220Y-88082417D01*
X66472143Y-88091010D01*
X66457900Y-88102700D01*
X66455927Y-88103026D01*
X66454658Y-88101480D01*
X66455217Y-88099740D01*
X66495072Y-88059885D01*
X66495217Y-88059753D01*
X66504814Y-88051877D01*
X66505140Y-88051659D01*
X66510659Y-88048709D01*
X66511021Y-88048559D01*
X66522601Y-88045046D01*
X66522792Y-88044998D01*
X66535221Y-88042525D01*
X66557495Y-88033298D01*
X66577542Y-88019903D01*
X66594588Y-88002855D01*
X66607982Y-87982808D01*
X66617208Y-87960533D01*
X66619680Y-87948106D01*
X66619728Y-87947915D01*
X66623239Y-87936341D01*
X66623389Y-87935979D01*
X66626339Y-87930460D01*
X66626557Y-87930134D01*
X66634433Y-87920537D01*
X66634565Y-87920392D01*
X66674420Y-87880537D01*
X66676352Y-87880019D01*
X66677766Y-87881433D01*
G37*
G36*
X75212027Y-87526984D02*
G01*
X75251882Y-87566839D01*
X75252014Y-87566984D01*
X75259890Y-87576581D01*
X75260108Y-87576907D01*
X75263058Y-87582426D01*
X75263208Y-87582788D01*
X75266720Y-87594367D01*
X75266768Y-87594558D01*
X75269241Y-87606987D01*
X75278471Y-87629264D01*
X75291865Y-87649309D01*
X75308913Y-87666355D01*
X75328961Y-87679749D01*
X75351235Y-87688974D01*
X75363659Y-87691446D01*
X75363850Y-87691494D01*
X75375425Y-87695005D01*
X75375787Y-87695155D01*
X75381306Y-87698105D01*
X75381632Y-87698323D01*
X75391229Y-87706199D01*
X75391374Y-87706331D01*
X75431229Y-87746186D01*
X75431747Y-87748118D01*
X75430333Y-87749532D01*
X75428546Y-87749146D01*
X75414303Y-87737456D01*
X75398226Y-87728863D01*
X75380779Y-87723570D01*
X75362640Y-87721784D01*
X75344501Y-87723570D01*
X75327054Y-87728863D01*
X75310977Y-87737456D01*
X75296807Y-87749086D01*
X74331750Y-88714143D01*
X74320120Y-88728313D01*
X74311527Y-88744390D01*
X74306234Y-88761837D01*
X74304448Y-88779976D01*
X74306234Y-88798115D01*
X74311527Y-88815562D01*
X74320120Y-88831639D01*
X74331810Y-88845882D01*
X74332136Y-88847855D01*
X74330590Y-88849124D01*
X74328850Y-88848565D01*
X74288995Y-88808710D01*
X74288863Y-88808565D01*
X74280987Y-88798968D01*
X74280769Y-88798642D01*
X74277819Y-88793123D01*
X74277669Y-88792761D01*
X74274157Y-88781182D01*
X74274109Y-88780991D01*
X74271636Y-88768562D01*
X74262406Y-88746285D01*
X74249012Y-88726240D01*
X74231964Y-88709194D01*
X74211916Y-88695800D01*
X74189642Y-88686575D01*
X74177218Y-88684103D01*
X74177027Y-88684055D01*
X74165452Y-88680544D01*
X74165090Y-88680394D01*
X74159571Y-88677444D01*
X74159245Y-88677226D01*
X74149648Y-88669350D01*
X74149503Y-88669218D01*
X74109648Y-88629363D01*
X74109130Y-88627431D01*
X74110544Y-88626017D01*
X74112331Y-88626403D01*
X74126574Y-88638093D01*
X74142651Y-88646686D01*
X74160098Y-88651979D01*
X74178237Y-88653765D01*
X74196376Y-88651979D01*
X74213823Y-88646686D01*
X74229900Y-88638093D01*
X74244070Y-88626463D01*
X75209127Y-87661406D01*
X75220757Y-87647236D01*
X75229350Y-87631159D01*
X75234643Y-87613712D01*
X75236429Y-87595573D01*
X75234643Y-87577434D01*
X75229350Y-87559987D01*
X75220757Y-87543910D01*
X75209067Y-87529667D01*
X75208741Y-87527694D01*
X75210287Y-87526425D01*
X75212027Y-87526984D01*
G37*
G36*
X67031319Y-87527880D02*
G01*
X67030933Y-87529667D01*
X67019243Y-87543910D01*
X67010650Y-87559987D01*
X67005357Y-87577434D01*
X67003571Y-87595573D01*
X67005357Y-87613712D01*
X67010650Y-87631159D01*
X67019243Y-87647236D01*
X67030873Y-87661406D01*
X67995930Y-88626463D01*
X68010100Y-88638093D01*
X68026177Y-88646686D01*
X68043624Y-88651979D01*
X68061763Y-88653765D01*
X68079902Y-88651979D01*
X68097349Y-88646686D01*
X68113426Y-88638093D01*
X68127669Y-88626403D01*
X68129642Y-88626077D01*
X68130911Y-88627623D01*
X68130352Y-88629363D01*
X68090497Y-88669218D01*
X68090352Y-88669350D01*
X68080755Y-88677226D01*
X68080429Y-88677444D01*
X68074910Y-88680394D01*
X68074548Y-88680544D01*
X68062969Y-88684056D01*
X68062778Y-88684104D01*
X68050349Y-88686577D01*
X68028072Y-88695807D01*
X68008027Y-88709201D01*
X67990981Y-88726249D01*
X67977587Y-88746297D01*
X67968362Y-88768571D01*
X67965890Y-88780995D01*
X67965842Y-88781186D01*
X67962331Y-88792761D01*
X67962181Y-88793123D01*
X67959231Y-88798642D01*
X67959013Y-88798968D01*
X67951137Y-88808565D01*
X67951005Y-88808710D01*
X67911150Y-88848565D01*
X67909218Y-88849083D01*
X67907804Y-88847669D01*
X67908190Y-88845882D01*
X67919880Y-88831639D01*
X67928473Y-88815562D01*
X67933766Y-88798115D01*
X67935552Y-88779976D01*
X67933766Y-88761837D01*
X67928473Y-88744390D01*
X67919880Y-88728313D01*
X67908250Y-88714143D01*
X66943193Y-87749086D01*
X66929023Y-87737456D01*
X66912946Y-87728863D01*
X66895499Y-87723570D01*
X66877360Y-87721784D01*
X66859221Y-87723570D01*
X66841774Y-87728863D01*
X66825697Y-87737456D01*
X66811454Y-87749146D01*
X66809481Y-87749472D01*
X66808212Y-87747926D01*
X66808771Y-87746186D01*
X66848626Y-87706331D01*
X66848771Y-87706199D01*
X66858368Y-87698323D01*
X66858694Y-87698105D01*
X66864213Y-87695155D01*
X66864575Y-87695005D01*
X66876154Y-87691493D01*
X66876345Y-87691445D01*
X66888774Y-87688972D01*
X66911051Y-87679742D01*
X66931096Y-87666348D01*
X66948142Y-87649300D01*
X66961536Y-87629252D01*
X66970761Y-87606978D01*
X66973233Y-87594554D01*
X66973281Y-87594363D01*
X66976792Y-87582788D01*
X66976942Y-87582426D01*
X66979892Y-87576907D01*
X66980110Y-87576581D01*
X66987986Y-87566984D01*
X66988118Y-87566839D01*
X67027973Y-87526984D01*
X67029905Y-87526466D01*
X67031319Y-87527880D01*
G37*
G36*
X74858474Y-87173431D02*
G01*
X74898329Y-87213286D01*
X74898461Y-87213431D01*
X74906337Y-87223028D01*
X74906555Y-87223354D01*
X74909505Y-87228873D01*
X74909655Y-87229235D01*
X74913167Y-87240814D01*
X74913215Y-87241005D01*
X74915688Y-87253434D01*
X74924918Y-87275711D01*
X74938312Y-87295756D01*
X74955360Y-87312802D01*
X74975408Y-87326196D01*
X74997682Y-87335421D01*
X75010106Y-87337893D01*
X75010297Y-87337941D01*
X75021872Y-87341452D01*
X75022234Y-87341602D01*
X75027753Y-87344552D01*
X75028079Y-87344770D01*
X75037676Y-87352646D01*
X75037821Y-87352778D01*
X75077676Y-87392633D01*
X75078194Y-87394565D01*
X75076780Y-87395979D01*
X75074993Y-87395593D01*
X75060750Y-87383903D01*
X75044673Y-87375310D01*
X75027226Y-87370017D01*
X75009087Y-87368231D01*
X74990948Y-87370017D01*
X74973501Y-87375310D01*
X74957424Y-87383903D01*
X74943254Y-87395533D01*
X73978197Y-88360590D01*
X73966567Y-88374760D01*
X73957974Y-88390837D01*
X73952681Y-88408284D01*
X73950895Y-88426423D01*
X73952681Y-88444562D01*
X73957974Y-88462009D01*
X73966567Y-88478086D01*
X73978257Y-88492329D01*
X73978583Y-88494302D01*
X73977037Y-88495571D01*
X73975297Y-88495012D01*
X73935442Y-88455157D01*
X73935310Y-88455012D01*
X73927434Y-88445415D01*
X73927216Y-88445089D01*
X73924266Y-88439570D01*
X73924116Y-88439208D01*
X73920604Y-88427629D01*
X73920556Y-88427438D01*
X73918083Y-88415009D01*
X73908853Y-88392732D01*
X73895459Y-88372687D01*
X73878411Y-88355641D01*
X73858363Y-88342247D01*
X73836089Y-88333022D01*
X73823665Y-88330550D01*
X73823474Y-88330502D01*
X73811899Y-88326991D01*
X73811537Y-88326841D01*
X73806018Y-88323891D01*
X73805692Y-88323673D01*
X73796095Y-88315797D01*
X73795950Y-88315665D01*
X73756095Y-88275810D01*
X73755577Y-88273878D01*
X73756991Y-88272464D01*
X73758778Y-88272850D01*
X73773021Y-88284540D01*
X73789098Y-88293133D01*
X73806545Y-88298426D01*
X73824684Y-88300212D01*
X73842823Y-88298426D01*
X73860270Y-88293133D01*
X73876347Y-88284540D01*
X73890517Y-88272910D01*
X74855574Y-87307853D01*
X74867204Y-87293683D01*
X74875797Y-87277606D01*
X74881090Y-87260159D01*
X74882876Y-87242020D01*
X74881090Y-87223881D01*
X74875797Y-87206434D01*
X74867204Y-87190357D01*
X74855514Y-87176114D01*
X74855188Y-87174141D01*
X74856734Y-87172872D01*
X74858474Y-87173431D01*
G37*
G36*
X67384872Y-87174327D02*
G01*
X67384486Y-87176114D01*
X67372796Y-87190357D01*
X67364203Y-87206434D01*
X67358910Y-87223881D01*
X67357124Y-87242020D01*
X67358910Y-87260159D01*
X67364203Y-87277606D01*
X67372796Y-87293683D01*
X67384426Y-87307853D01*
X68349483Y-88272910D01*
X68363653Y-88284540D01*
X68379730Y-88293133D01*
X68397177Y-88298426D01*
X68415316Y-88300212D01*
X68433455Y-88298426D01*
X68450902Y-88293133D01*
X68466979Y-88284540D01*
X68481222Y-88272850D01*
X68483195Y-88272524D01*
X68484464Y-88274070D01*
X68483905Y-88275810D01*
X68444050Y-88315665D01*
X68443905Y-88315797D01*
X68434308Y-88323673D01*
X68433982Y-88323891D01*
X68428463Y-88326841D01*
X68428101Y-88326991D01*
X68416522Y-88330503D01*
X68416331Y-88330551D01*
X68403902Y-88333024D01*
X68381625Y-88342254D01*
X68361580Y-88355648D01*
X68344534Y-88372696D01*
X68331140Y-88392744D01*
X68321915Y-88415018D01*
X68319443Y-88427442D01*
X68319395Y-88427633D01*
X68315884Y-88439208D01*
X68315734Y-88439570D01*
X68312784Y-88445089D01*
X68312566Y-88445415D01*
X68304690Y-88455012D01*
X68304558Y-88455157D01*
X68264703Y-88495012D01*
X68262771Y-88495530D01*
X68261357Y-88494116D01*
X68261743Y-88492329D01*
X68273433Y-88478086D01*
X68282026Y-88462009D01*
X68287319Y-88444562D01*
X68289105Y-88426423D01*
X68287319Y-88408284D01*
X68282026Y-88390837D01*
X68273433Y-88374760D01*
X68261803Y-88360590D01*
X67296746Y-87395533D01*
X67282576Y-87383903D01*
X67266499Y-87375310D01*
X67249052Y-87370017D01*
X67230913Y-87368231D01*
X67212774Y-87370017D01*
X67195327Y-87375310D01*
X67179250Y-87383903D01*
X67165007Y-87395593D01*
X67163034Y-87395919D01*
X67161765Y-87394373D01*
X67162324Y-87392633D01*
X67202179Y-87352778D01*
X67202324Y-87352646D01*
X67211921Y-87344770D01*
X67212247Y-87344552D01*
X67217766Y-87341602D01*
X67218128Y-87341452D01*
X67229707Y-87337940D01*
X67229898Y-87337892D01*
X67242327Y-87335419D01*
X67264604Y-87326189D01*
X67284649Y-87312795D01*
X67301695Y-87295747D01*
X67315089Y-87275699D01*
X67324314Y-87253425D01*
X67326786Y-87241001D01*
X67326834Y-87240810D01*
X67330345Y-87229235D01*
X67330495Y-87228873D01*
X67333445Y-87223354D01*
X67333663Y-87223028D01*
X67341539Y-87213431D01*
X67341671Y-87213286D01*
X67381526Y-87173431D01*
X67383458Y-87172913D01*
X67384872Y-87174327D01*
G37*
G36*
X74504920Y-86819877D02*
G01*
X74544775Y-86859732D01*
X74544907Y-86859877D01*
X74552783Y-86869474D01*
X74553001Y-86869800D01*
X74555951Y-86875319D01*
X74556101Y-86875681D01*
X74559614Y-86887261D01*
X74559662Y-86887452D01*
X74562135Y-86899881D01*
X74571362Y-86922155D01*
X74584757Y-86942202D01*
X74601805Y-86959248D01*
X74621852Y-86972642D01*
X74644127Y-86981868D01*
X74656554Y-86984340D01*
X74656745Y-86984388D01*
X74668319Y-86987899D01*
X74668681Y-86988049D01*
X74674200Y-86990999D01*
X74674526Y-86991217D01*
X74684123Y-86999093D01*
X74684268Y-86999225D01*
X74724123Y-87039080D01*
X74724641Y-87041012D01*
X74723227Y-87042426D01*
X74721440Y-87042040D01*
X74707197Y-87030350D01*
X74691120Y-87021757D01*
X74673673Y-87016464D01*
X74655534Y-87014678D01*
X74637395Y-87016464D01*
X74619948Y-87021757D01*
X74603871Y-87030350D01*
X74589701Y-87041980D01*
X73624644Y-88007037D01*
X73613014Y-88021207D01*
X73604421Y-88037284D01*
X73599128Y-88054731D01*
X73597342Y-88072870D01*
X73599128Y-88091009D01*
X73604421Y-88108456D01*
X73613014Y-88124533D01*
X73624704Y-88138776D01*
X73625030Y-88140749D01*
X73623484Y-88142018D01*
X73621744Y-88141459D01*
X73581889Y-88101604D01*
X73581757Y-88101459D01*
X73573881Y-88091862D01*
X73573663Y-88091536D01*
X73570713Y-88086017D01*
X73570563Y-88085655D01*
X73567050Y-88074075D01*
X73567002Y-88073884D01*
X73564529Y-88061455D01*
X73555302Y-88039181D01*
X73541907Y-88019134D01*
X73524859Y-88002088D01*
X73504812Y-87988694D01*
X73482537Y-87979468D01*
X73470110Y-87976996D01*
X73469919Y-87976948D01*
X73458345Y-87973437D01*
X73457983Y-87973287D01*
X73452464Y-87970337D01*
X73452138Y-87970119D01*
X73442541Y-87962243D01*
X73442396Y-87962111D01*
X73402541Y-87922256D01*
X73402023Y-87920324D01*
X73403437Y-87918910D01*
X73405224Y-87919296D01*
X73419467Y-87930986D01*
X73435544Y-87939579D01*
X73452991Y-87944872D01*
X73471130Y-87946658D01*
X73489269Y-87944872D01*
X73506716Y-87939579D01*
X73522793Y-87930986D01*
X73536963Y-87919356D01*
X74502020Y-86954299D01*
X74513650Y-86940129D01*
X74522243Y-86924052D01*
X74527536Y-86906605D01*
X74529322Y-86888466D01*
X74527536Y-86870327D01*
X74522243Y-86852880D01*
X74513650Y-86836803D01*
X74501960Y-86822560D01*
X74501634Y-86820587D01*
X74503180Y-86819318D01*
X74504920Y-86819877D01*
G37*
G36*
X67738426Y-86820773D02*
G01*
X67738040Y-86822560D01*
X67726350Y-86836803D01*
X67717757Y-86852880D01*
X67712464Y-86870327D01*
X67710678Y-86888466D01*
X67712464Y-86906605D01*
X67717757Y-86924052D01*
X67726350Y-86940129D01*
X67737980Y-86954299D01*
X68703037Y-87919356D01*
X68717207Y-87930986D01*
X68733284Y-87939579D01*
X68750731Y-87944872D01*
X68768870Y-87946658D01*
X68787009Y-87944872D01*
X68804456Y-87939579D01*
X68820533Y-87930986D01*
X68834776Y-87919296D01*
X68836749Y-87918970D01*
X68838018Y-87920516D01*
X68837459Y-87922256D01*
X68797604Y-87962111D01*
X68797459Y-87962243D01*
X68787862Y-87970119D01*
X68787536Y-87970337D01*
X68782017Y-87973287D01*
X68781655Y-87973437D01*
X68770075Y-87976950D01*
X68769884Y-87976998D01*
X68757455Y-87979471D01*
X68735181Y-87988698D01*
X68715134Y-88002093D01*
X68698088Y-88019141D01*
X68684694Y-88039188D01*
X68675468Y-88061463D01*
X68672996Y-88073890D01*
X68672948Y-88074081D01*
X68669437Y-88085655D01*
X68669287Y-88086017D01*
X68666337Y-88091536D01*
X68666119Y-88091862D01*
X68658243Y-88101459D01*
X68658111Y-88101604D01*
X68618256Y-88141459D01*
X68616324Y-88141977D01*
X68614910Y-88140563D01*
X68615296Y-88138776D01*
X68626986Y-88124533D01*
X68635579Y-88108456D01*
X68640872Y-88091009D01*
X68642658Y-88072870D01*
X68640872Y-88054731D01*
X68635579Y-88037284D01*
X68626986Y-88021207D01*
X68615356Y-88007037D01*
X67650299Y-87041980D01*
X67636129Y-87030350D01*
X67620052Y-87021757D01*
X67602605Y-87016464D01*
X67584466Y-87014678D01*
X67566327Y-87016464D01*
X67548880Y-87021757D01*
X67532803Y-87030350D01*
X67518560Y-87042040D01*
X67516587Y-87042366D01*
X67515318Y-87040820D01*
X67515877Y-87039080D01*
X67555732Y-86999225D01*
X67555877Y-86999093D01*
X67565474Y-86991217D01*
X67565800Y-86990999D01*
X67571319Y-86988049D01*
X67571681Y-86987899D01*
X67583261Y-86984386D01*
X67583452Y-86984338D01*
X67595881Y-86981865D01*
X67618155Y-86972638D01*
X67638202Y-86959243D01*
X67655248Y-86942195D01*
X67668642Y-86922148D01*
X67677868Y-86899873D01*
X67680340Y-86887446D01*
X67680388Y-86887255D01*
X67683899Y-86875681D01*
X67684049Y-86875319D01*
X67686999Y-86869800D01*
X67687217Y-86869474D01*
X67695093Y-86859877D01*
X67695225Y-86859732D01*
X67735080Y-86819877D01*
X67737012Y-86819359D01*
X67738426Y-86820773D01*
G37*
G36*
X74151367Y-86466324D02*
G01*
X74191222Y-86506179D01*
X74191354Y-86506324D01*
X74199230Y-86515921D01*
X74199448Y-86516247D01*
X74202398Y-86521766D01*
X74202548Y-86522128D01*
X74206060Y-86533707D01*
X74206108Y-86533898D01*
X74208581Y-86546327D01*
X74217811Y-86568604D01*
X74231205Y-86588649D01*
X74248253Y-86605695D01*
X74268301Y-86619089D01*
X74290575Y-86628314D01*
X74302999Y-86630786D01*
X74303190Y-86630834D01*
X74314765Y-86634345D01*
X74315127Y-86634495D01*
X74320646Y-86637445D01*
X74320972Y-86637663D01*
X74330569Y-86645539D01*
X74330714Y-86645671D01*
X74370569Y-86685526D01*
X74371087Y-86687458D01*
X74369673Y-86688872D01*
X74367886Y-86688486D01*
X74353643Y-86676796D01*
X74337566Y-86668203D01*
X74320119Y-86662910D01*
X74301980Y-86661124D01*
X74283841Y-86662910D01*
X74266394Y-86668203D01*
X74250317Y-86676796D01*
X74236147Y-86688426D01*
X73271090Y-87653483D01*
X73259460Y-87667653D01*
X73250867Y-87683730D01*
X73245574Y-87701177D01*
X73243788Y-87719316D01*
X73245574Y-87737455D01*
X73250867Y-87754902D01*
X73259460Y-87770979D01*
X73271150Y-87785222D01*
X73271476Y-87787195D01*
X73269930Y-87788464D01*
X73268190Y-87787905D01*
X73228335Y-87748050D01*
X73228203Y-87747905D01*
X73220327Y-87738308D01*
X73220109Y-87737982D01*
X73217159Y-87732463D01*
X73217009Y-87732101D01*
X73213497Y-87720522D01*
X73213449Y-87720331D01*
X73210976Y-87707902D01*
X73201746Y-87685625D01*
X73188352Y-87665580D01*
X73171304Y-87648534D01*
X73151256Y-87635140D01*
X73128982Y-87625915D01*
X73116558Y-87623443D01*
X73116367Y-87623395D01*
X73104792Y-87619884D01*
X73104430Y-87619734D01*
X73098911Y-87616784D01*
X73098585Y-87616566D01*
X73088988Y-87608690D01*
X73088843Y-87608558D01*
X73048988Y-87568703D01*
X73048470Y-87566771D01*
X73049884Y-87565357D01*
X73051671Y-87565743D01*
X73065914Y-87577433D01*
X73081991Y-87586026D01*
X73099438Y-87591319D01*
X73117577Y-87593105D01*
X73135716Y-87591319D01*
X73153163Y-87586026D01*
X73169240Y-87577433D01*
X73183410Y-87565803D01*
X74148467Y-86600746D01*
X74160097Y-86586576D01*
X74168690Y-86570499D01*
X74173983Y-86553052D01*
X74175769Y-86534913D01*
X74173983Y-86516774D01*
X74168690Y-86499327D01*
X74160097Y-86483250D01*
X74148407Y-86469007D01*
X74148081Y-86467034D01*
X74149627Y-86465765D01*
X74151367Y-86466324D01*
G37*
G36*
X68091979Y-86467220D02*
G01*
X68091593Y-86469007D01*
X68079903Y-86483250D01*
X68071310Y-86499327D01*
X68066017Y-86516774D01*
X68064231Y-86534913D01*
X68066017Y-86553052D01*
X68071310Y-86570499D01*
X68079903Y-86586576D01*
X68091533Y-86600746D01*
X69056590Y-87565803D01*
X69070760Y-87577433D01*
X69086837Y-87586026D01*
X69104284Y-87591319D01*
X69122423Y-87593105D01*
X69140562Y-87591319D01*
X69158009Y-87586026D01*
X69174086Y-87577433D01*
X69188329Y-87565743D01*
X69190302Y-87565417D01*
X69191571Y-87566963D01*
X69191012Y-87568703D01*
X69151157Y-87608558D01*
X69151012Y-87608690D01*
X69141415Y-87616566D01*
X69141089Y-87616784D01*
X69135570Y-87619734D01*
X69135208Y-87619884D01*
X69123629Y-87623396D01*
X69123438Y-87623444D01*
X69111009Y-87625917D01*
X69088732Y-87635147D01*
X69068687Y-87648541D01*
X69051641Y-87665589D01*
X69038247Y-87685637D01*
X69029022Y-87707911D01*
X69026550Y-87720335D01*
X69026502Y-87720526D01*
X69022991Y-87732101D01*
X69022841Y-87732463D01*
X69019891Y-87737982D01*
X69019673Y-87738308D01*
X69011797Y-87747905D01*
X69011665Y-87748050D01*
X68971810Y-87787905D01*
X68969878Y-87788423D01*
X68968464Y-87787009D01*
X68968850Y-87785222D01*
X68980540Y-87770979D01*
X68989133Y-87754902D01*
X68994426Y-87737455D01*
X68996212Y-87719316D01*
X68994426Y-87701177D01*
X68989133Y-87683730D01*
X68980540Y-87667653D01*
X68968910Y-87653483D01*
X68003853Y-86688426D01*
X67989683Y-86676796D01*
X67973606Y-86668203D01*
X67956159Y-86662910D01*
X67938020Y-86661124D01*
X67919881Y-86662910D01*
X67902434Y-86668203D01*
X67886357Y-86676796D01*
X67872114Y-86688486D01*
X67870141Y-86688812D01*
X67868872Y-86687266D01*
X67869431Y-86685526D01*
X67909286Y-86645671D01*
X67909431Y-86645539D01*
X67919028Y-86637663D01*
X67919354Y-86637445D01*
X67924873Y-86634495D01*
X67925235Y-86634345D01*
X67936814Y-86630833D01*
X67937005Y-86630785D01*
X67949434Y-86628312D01*
X67971711Y-86619082D01*
X67991756Y-86605688D01*
X68008802Y-86588640D01*
X68022196Y-86568592D01*
X68031421Y-86546318D01*
X68033893Y-86533894D01*
X68033941Y-86533703D01*
X68037452Y-86522128D01*
X68037602Y-86521766D01*
X68040552Y-86516247D01*
X68040770Y-86515921D01*
X68048646Y-86506324D01*
X68048778Y-86506179D01*
X68088633Y-86466324D01*
X68090565Y-86465806D01*
X68091979Y-86467220D01*
G37*
G36*
X73797814Y-86112771D02*
G01*
X73837669Y-86152626D01*
X73837801Y-86152771D01*
X73845677Y-86162368D01*
X73845895Y-86162694D01*
X73848845Y-86168213D01*
X73848995Y-86168575D01*
X73852507Y-86180154D01*
X73852555Y-86180345D01*
X73855028Y-86192774D01*
X73864258Y-86215051D01*
X73877652Y-86235096D01*
X73894700Y-86252142D01*
X73914748Y-86265536D01*
X73937022Y-86274761D01*
X73949446Y-86277233D01*
X73949637Y-86277281D01*
X73961212Y-86280792D01*
X73961574Y-86280942D01*
X73967093Y-86283892D01*
X73967419Y-86284110D01*
X73977016Y-86291986D01*
X73977161Y-86292118D01*
X74017016Y-86331973D01*
X74017534Y-86333905D01*
X74016120Y-86335319D01*
X74014333Y-86334933D01*
X74000090Y-86323243D01*
X73984013Y-86314650D01*
X73966566Y-86309357D01*
X73948427Y-86307571D01*
X73930288Y-86309357D01*
X73912841Y-86314650D01*
X73896764Y-86323243D01*
X73882594Y-86334873D01*
X72917537Y-87299930D01*
X72905907Y-87314100D01*
X72897314Y-87330177D01*
X72892021Y-87347624D01*
X72890235Y-87365763D01*
X72892021Y-87383902D01*
X72897314Y-87401349D01*
X72905907Y-87417426D01*
X72917597Y-87431669D01*
X72917923Y-87433642D01*
X72916377Y-87434911D01*
X72914637Y-87434352D01*
X72874782Y-87394497D01*
X72874650Y-87394352D01*
X72866774Y-87384755D01*
X72866556Y-87384429D01*
X72863606Y-87378910D01*
X72863456Y-87378548D01*
X72859944Y-87366969D01*
X72859896Y-87366778D01*
X72857423Y-87354349D01*
X72848193Y-87332072D01*
X72834799Y-87312027D01*
X72817751Y-87294981D01*
X72797703Y-87281587D01*
X72775429Y-87272362D01*
X72763005Y-87269890D01*
X72762814Y-87269842D01*
X72751239Y-87266331D01*
X72750877Y-87266181D01*
X72745358Y-87263231D01*
X72745032Y-87263013D01*
X72735435Y-87255137D01*
X72735290Y-87255005D01*
X72695435Y-87215150D01*
X72694917Y-87213218D01*
X72696331Y-87211804D01*
X72698118Y-87212190D01*
X72712361Y-87223880D01*
X72728438Y-87232473D01*
X72745885Y-87237766D01*
X72764024Y-87239552D01*
X72782163Y-87237766D01*
X72799610Y-87232473D01*
X72815687Y-87223880D01*
X72829857Y-87212250D01*
X73794914Y-86247193D01*
X73806544Y-86233023D01*
X73815137Y-86216946D01*
X73820430Y-86199499D01*
X73822216Y-86181360D01*
X73820430Y-86163221D01*
X73815137Y-86145774D01*
X73806544Y-86129697D01*
X73794854Y-86115454D01*
X73794528Y-86113481D01*
X73796074Y-86112212D01*
X73797814Y-86112771D01*
G37*
G36*
X68445532Y-86113667D02*
G01*
X68445146Y-86115454D01*
X68433456Y-86129697D01*
X68424863Y-86145774D01*
X68419570Y-86163221D01*
X68417784Y-86181360D01*
X68419570Y-86199499D01*
X68424863Y-86216946D01*
X68433456Y-86233023D01*
X68445086Y-86247193D01*
X69410143Y-87212250D01*
X69424313Y-87223880D01*
X69440390Y-87232473D01*
X69457837Y-87237766D01*
X69475976Y-87239552D01*
X69494115Y-87237766D01*
X69511562Y-87232473D01*
X69527639Y-87223880D01*
X69541882Y-87212190D01*
X69543855Y-87211864D01*
X69545124Y-87213410D01*
X69544565Y-87215150D01*
X69504710Y-87255005D01*
X69504565Y-87255137D01*
X69494968Y-87263013D01*
X69494642Y-87263231D01*
X69489123Y-87266181D01*
X69488761Y-87266331D01*
X69477182Y-87269843D01*
X69476991Y-87269891D01*
X69464562Y-87272364D01*
X69442285Y-87281594D01*
X69422240Y-87294988D01*
X69405194Y-87312036D01*
X69391800Y-87332084D01*
X69382575Y-87354358D01*
X69380103Y-87366782D01*
X69380055Y-87366973D01*
X69376544Y-87378548D01*
X69376394Y-87378910D01*
X69373444Y-87384429D01*
X69373226Y-87384755D01*
X69365350Y-87394352D01*
X69365218Y-87394497D01*
X69325363Y-87434352D01*
X69323431Y-87434870D01*
X69322017Y-87433456D01*
X69322403Y-87431669D01*
X69334093Y-87417426D01*
X69342686Y-87401349D01*
X69347979Y-87383902D01*
X69349765Y-87365763D01*
X69347979Y-87347624D01*
X69342686Y-87330177D01*
X69334093Y-87314100D01*
X69322463Y-87299930D01*
X68357406Y-86334873D01*
X68343236Y-86323243D01*
X68327159Y-86314650D01*
X68309712Y-86309357D01*
X68291573Y-86307571D01*
X68273434Y-86309357D01*
X68255987Y-86314650D01*
X68239910Y-86323243D01*
X68225667Y-86334933D01*
X68223694Y-86335259D01*
X68222425Y-86333713D01*
X68222984Y-86331973D01*
X68262839Y-86292118D01*
X68262984Y-86291986D01*
X68272581Y-86284110D01*
X68272907Y-86283892D01*
X68278426Y-86280942D01*
X68278788Y-86280792D01*
X68290367Y-86277280D01*
X68290558Y-86277232D01*
X68302987Y-86274759D01*
X68325264Y-86265529D01*
X68345309Y-86252135D01*
X68362355Y-86235087D01*
X68375749Y-86215039D01*
X68384974Y-86192765D01*
X68387446Y-86180341D01*
X68387494Y-86180150D01*
X68391005Y-86168575D01*
X68391155Y-86168213D01*
X68394105Y-86162694D01*
X68394323Y-86162368D01*
X68402199Y-86152771D01*
X68402331Y-86152626D01*
X68442186Y-86112771D01*
X68444118Y-86112253D01*
X68445532Y-86113667D01*
G37*
G36*
X73444260Y-85759217D02*
G01*
X73484115Y-85799072D01*
X73484247Y-85799217D01*
X73492123Y-85808814D01*
X73492341Y-85809140D01*
X73495291Y-85814659D01*
X73495441Y-85815021D01*
X73498954Y-85826601D01*
X73499002Y-85826792D01*
X73501475Y-85839221D01*
X73510702Y-85861495D01*
X73524097Y-85881542D01*
X73541145Y-85898588D01*
X73561192Y-85911982D01*
X73583467Y-85921208D01*
X73595894Y-85923680D01*
X73596085Y-85923728D01*
X73607659Y-85927239D01*
X73608021Y-85927389D01*
X73613540Y-85930339D01*
X73613866Y-85930557D01*
X73623463Y-85938433D01*
X73623608Y-85938565D01*
X73663463Y-85978420D01*
X73663981Y-85980352D01*
X73662567Y-85981766D01*
X73660780Y-85981380D01*
X73646537Y-85969690D01*
X73630460Y-85961097D01*
X73613013Y-85955804D01*
X73594874Y-85954018D01*
X73576735Y-85955804D01*
X73559288Y-85961097D01*
X73543211Y-85969690D01*
X73529041Y-85981320D01*
X72563984Y-86946377D01*
X72552354Y-86960547D01*
X72543761Y-86976624D01*
X72538468Y-86994071D01*
X72536682Y-87012210D01*
X72538468Y-87030349D01*
X72543761Y-87047796D01*
X72552354Y-87063873D01*
X72564044Y-87078116D01*
X72564370Y-87080089D01*
X72562824Y-87081358D01*
X72561084Y-87080799D01*
X72521229Y-87040944D01*
X72521097Y-87040799D01*
X72513221Y-87031202D01*
X72513003Y-87030876D01*
X72510053Y-87025357D01*
X72509903Y-87024995D01*
X72506390Y-87013415D01*
X72506342Y-87013224D01*
X72503869Y-87000795D01*
X72494642Y-86978521D01*
X72481247Y-86958474D01*
X72464199Y-86941428D01*
X72444152Y-86928034D01*
X72421877Y-86918808D01*
X72409450Y-86916336D01*
X72409259Y-86916288D01*
X72397685Y-86912777D01*
X72397323Y-86912627D01*
X72391804Y-86909677D01*
X72391478Y-86909459D01*
X72381881Y-86901583D01*
X72381736Y-86901451D01*
X72341881Y-86861596D01*
X72341363Y-86859664D01*
X72342777Y-86858250D01*
X72344564Y-86858636D01*
X72358807Y-86870326D01*
X72374884Y-86878919D01*
X72392331Y-86884212D01*
X72410470Y-86885998D01*
X72428609Y-86884212D01*
X72446056Y-86878919D01*
X72462133Y-86870326D01*
X72476303Y-86858696D01*
X73441360Y-85893639D01*
X73452990Y-85879469D01*
X73461583Y-85863392D01*
X73466876Y-85845945D01*
X73468662Y-85827806D01*
X73466876Y-85809667D01*
X73461583Y-85792220D01*
X73452990Y-85776143D01*
X73441300Y-85761900D01*
X73440974Y-85759927D01*
X73442520Y-85758658D01*
X73444260Y-85759217D01*
G37*
G36*
X68799086Y-85760113D02*
G01*
X68798700Y-85761900D01*
X68787010Y-85776143D01*
X68778417Y-85792220D01*
X68773124Y-85809667D01*
X68771338Y-85827806D01*
X68773124Y-85845945D01*
X68778417Y-85863392D01*
X68787010Y-85879469D01*
X68798640Y-85893639D01*
X69763697Y-86858696D01*
X69777867Y-86870326D01*
X69793944Y-86878919D01*
X69811391Y-86884212D01*
X69829530Y-86885998D01*
X69847669Y-86884212D01*
X69865116Y-86878919D01*
X69881193Y-86870326D01*
X69895436Y-86858636D01*
X69897409Y-86858310D01*
X69898678Y-86859856D01*
X69898119Y-86861596D01*
X69858264Y-86901451D01*
X69858119Y-86901583D01*
X69848522Y-86909459D01*
X69848196Y-86909677D01*
X69842677Y-86912627D01*
X69842315Y-86912777D01*
X69830735Y-86916290D01*
X69830544Y-86916338D01*
X69818115Y-86918811D01*
X69795841Y-86928038D01*
X69775794Y-86941433D01*
X69758748Y-86958481D01*
X69745354Y-86978528D01*
X69736128Y-87000803D01*
X69733656Y-87013230D01*
X69733608Y-87013421D01*
X69730097Y-87024995D01*
X69729947Y-87025357D01*
X69726997Y-87030876D01*
X69726779Y-87031202D01*
X69718903Y-87040799D01*
X69718771Y-87040944D01*
X69678916Y-87080799D01*
X69676984Y-87081317D01*
X69675570Y-87079903D01*
X69675956Y-87078116D01*
X69687646Y-87063873D01*
X69696239Y-87047796D01*
X69701532Y-87030349D01*
X69703318Y-87012210D01*
X69701532Y-86994071D01*
X69696239Y-86976624D01*
X69687646Y-86960547D01*
X69676016Y-86946377D01*
X68710959Y-85981320D01*
X68696789Y-85969690D01*
X68680712Y-85961097D01*
X68663265Y-85955804D01*
X68645126Y-85954018D01*
X68626987Y-85955804D01*
X68609540Y-85961097D01*
X68593463Y-85969690D01*
X68579220Y-85981380D01*
X68577247Y-85981706D01*
X68575978Y-85980160D01*
X68576537Y-85978420D01*
X68616392Y-85938565D01*
X68616537Y-85938433D01*
X68626134Y-85930557D01*
X68626460Y-85930339D01*
X68631979Y-85927389D01*
X68632341Y-85927239D01*
X68643921Y-85923726D01*
X68644112Y-85923678D01*
X68656541Y-85921205D01*
X68678815Y-85911978D01*
X68698862Y-85898583D01*
X68715908Y-85881535D01*
X68729302Y-85861488D01*
X68738528Y-85839213D01*
X68741000Y-85826786D01*
X68741048Y-85826595D01*
X68744559Y-85815021D01*
X68744709Y-85814659D01*
X68747659Y-85809140D01*
X68747877Y-85808814D01*
X68755753Y-85799217D01*
X68755885Y-85799072D01*
X68795740Y-85759217D01*
X68797672Y-85758699D01*
X68799086Y-85760113D01*
G37*
G36*
X73090707Y-85405664D02*
G01*
X73130562Y-85445519D01*
X73130694Y-85445664D01*
X73138570Y-85455261D01*
X73138788Y-85455587D01*
X73141738Y-85461106D01*
X73141888Y-85461468D01*
X73145400Y-85473047D01*
X73145448Y-85473238D01*
X73147921Y-85485667D01*
X73157151Y-85507944D01*
X73170545Y-85527989D01*
X73187593Y-85545035D01*
X73207641Y-85558429D01*
X73229915Y-85567654D01*
X73242339Y-85570126D01*
X73242530Y-85570174D01*
X73254105Y-85573685D01*
X73254467Y-85573835D01*
X73259986Y-85576785D01*
X73260312Y-85577003D01*
X73269909Y-85584879D01*
X73270054Y-85585011D01*
X73309909Y-85624866D01*
X73310427Y-85626798D01*
X73309013Y-85628212D01*
X73307226Y-85627826D01*
X73292983Y-85616136D01*
X73276906Y-85607543D01*
X73259459Y-85602250D01*
X73241320Y-85600464D01*
X73223181Y-85602250D01*
X73205734Y-85607543D01*
X73189657Y-85616136D01*
X73175487Y-85627766D01*
X72210430Y-86592823D01*
X72198800Y-86606993D01*
X72190207Y-86623070D01*
X72184914Y-86640517D01*
X72183128Y-86658656D01*
X72184914Y-86676795D01*
X72190207Y-86694242D01*
X72198800Y-86710319D01*
X72210490Y-86724562D01*
X72210816Y-86726535D01*
X72209270Y-86727804D01*
X72207530Y-86727245D01*
X72167675Y-86687390D01*
X72167543Y-86687245D01*
X72159667Y-86677648D01*
X72159449Y-86677322D01*
X72156499Y-86671803D01*
X72156349Y-86671441D01*
X72152837Y-86659862D01*
X72152789Y-86659671D01*
X72150316Y-86647242D01*
X72141086Y-86624965D01*
X72127692Y-86604920D01*
X72110644Y-86587874D01*
X72090596Y-86574480D01*
X72068322Y-86565255D01*
X72055898Y-86562783D01*
X72055707Y-86562735D01*
X72044132Y-86559224D01*
X72043770Y-86559074D01*
X72038251Y-86556124D01*
X72037925Y-86555906D01*
X72028328Y-86548030D01*
X72028183Y-86547898D01*
X71988328Y-86508043D01*
X71987810Y-86506111D01*
X71989224Y-86504697D01*
X71991011Y-86505083D01*
X72005254Y-86516773D01*
X72021331Y-86525366D01*
X72038778Y-86530659D01*
X72056917Y-86532445D01*
X72075056Y-86530659D01*
X72092503Y-86525366D01*
X72108580Y-86516773D01*
X72122750Y-86505143D01*
X73087807Y-85540086D01*
X73099437Y-85525916D01*
X73108030Y-85509839D01*
X73113323Y-85492392D01*
X73115109Y-85474253D01*
X73113323Y-85456114D01*
X73108030Y-85438667D01*
X73099437Y-85422590D01*
X73087747Y-85408347D01*
X73087421Y-85406374D01*
X73088967Y-85405105D01*
X73090707Y-85405664D01*
G37*
G36*
X69152639Y-85406560D02*
G01*
X69152253Y-85408347D01*
X69140563Y-85422590D01*
X69131970Y-85438667D01*
X69126677Y-85456114D01*
X69124891Y-85474253D01*
X69126677Y-85492392D01*
X69131970Y-85509839D01*
X69140563Y-85525916D01*
X69152193Y-85540086D01*
X70117250Y-86505143D01*
X70131420Y-86516773D01*
X70147497Y-86525366D01*
X70164944Y-86530659D01*
X70183083Y-86532445D01*
X70201222Y-86530659D01*
X70218669Y-86525366D01*
X70234746Y-86516773D01*
X70248989Y-86505083D01*
X70250962Y-86504757D01*
X70252231Y-86506303D01*
X70251672Y-86508043D01*
X70211817Y-86547898D01*
X70211672Y-86548030D01*
X70202075Y-86555906D01*
X70201749Y-86556124D01*
X70196230Y-86559074D01*
X70195868Y-86559224D01*
X70184289Y-86562736D01*
X70184098Y-86562784D01*
X70171669Y-86565257D01*
X70149392Y-86574487D01*
X70129347Y-86587881D01*
X70112301Y-86604929D01*
X70098907Y-86624977D01*
X70089682Y-86647251D01*
X70087210Y-86659675D01*
X70087162Y-86659866D01*
X70083651Y-86671441D01*
X70083501Y-86671803D01*
X70080551Y-86677322D01*
X70080333Y-86677648D01*
X70072457Y-86687245D01*
X70072325Y-86687390D01*
X70032470Y-86727245D01*
X70030538Y-86727763D01*
X70029124Y-86726349D01*
X70029510Y-86724562D01*
X70041200Y-86710319D01*
X70049793Y-86694242D01*
X70055086Y-86676795D01*
X70056872Y-86658656D01*
X70055086Y-86640517D01*
X70049793Y-86623070D01*
X70041200Y-86606993D01*
X70029570Y-86592823D01*
X69064513Y-85627766D01*
X69050343Y-85616136D01*
X69034266Y-85607543D01*
X69016819Y-85602250D01*
X68998680Y-85600464D01*
X68980541Y-85602250D01*
X68963094Y-85607543D01*
X68947017Y-85616136D01*
X68932774Y-85627826D01*
X68930801Y-85628152D01*
X68929532Y-85626606D01*
X68930091Y-85624866D01*
X68969946Y-85585011D01*
X68970091Y-85584879D01*
X68979688Y-85577003D01*
X68980014Y-85576785D01*
X68985533Y-85573835D01*
X68985895Y-85573685D01*
X68997474Y-85570173D01*
X68997665Y-85570125D01*
X69010094Y-85567652D01*
X69032371Y-85558422D01*
X69052416Y-85545028D01*
X69069462Y-85527980D01*
X69082856Y-85507932D01*
X69092081Y-85485658D01*
X69094553Y-85473234D01*
X69094601Y-85473043D01*
X69098112Y-85461468D01*
X69098262Y-85461106D01*
X69101212Y-85455587D01*
X69101430Y-85455261D01*
X69109306Y-85445664D01*
X69109438Y-85445519D01*
X69149293Y-85405664D01*
X69151225Y-85405146D01*
X69152639Y-85406560D01*
G37*
G36*
X72737153Y-85052110D02*
G01*
X72777008Y-85091965D01*
X72777140Y-85092110D01*
X72785016Y-85101707D01*
X72785234Y-85102033D01*
X72788184Y-85107552D01*
X72788334Y-85107914D01*
X72791847Y-85119494D01*
X72791895Y-85119685D01*
X72794368Y-85132114D01*
X72803595Y-85154388D01*
X72816990Y-85174435D01*
X72834038Y-85191481D01*
X72854085Y-85204875D01*
X72876360Y-85214101D01*
X72888787Y-85216573D01*
X72888978Y-85216621D01*
X72900552Y-85220132D01*
X72900914Y-85220282D01*
X72906433Y-85223232D01*
X72906759Y-85223450D01*
X72916356Y-85231326D01*
X72916501Y-85231458D01*
X72956356Y-85271313D01*
X72956874Y-85273245D01*
X72955460Y-85274659D01*
X72953673Y-85274273D01*
X72939430Y-85262583D01*
X72923353Y-85253990D01*
X72905906Y-85248697D01*
X72887767Y-85246911D01*
X72869628Y-85248697D01*
X72852181Y-85253990D01*
X72836104Y-85262583D01*
X72821934Y-85274213D01*
X71856877Y-86239270D01*
X71845247Y-86253440D01*
X71836654Y-86269517D01*
X71831361Y-86286964D01*
X71829575Y-86305103D01*
X71831361Y-86323242D01*
X71836654Y-86340689D01*
X71845247Y-86356766D01*
X71856937Y-86371009D01*
X71857263Y-86372982D01*
X71855717Y-86374251D01*
X71853977Y-86373692D01*
X71814122Y-86333837D01*
X71813990Y-86333692D01*
X71806114Y-86324095D01*
X71805896Y-86323769D01*
X71802946Y-86318250D01*
X71802796Y-86317888D01*
X71799283Y-86306308D01*
X71799235Y-86306117D01*
X71796762Y-86293688D01*
X71787535Y-86271414D01*
X71774140Y-86251367D01*
X71757092Y-86234321D01*
X71737045Y-86220927D01*
X71714770Y-86211701D01*
X71702343Y-86209229D01*
X71702152Y-86209181D01*
X71690578Y-86205670D01*
X71690216Y-86205520D01*
X71684697Y-86202570D01*
X71684371Y-86202352D01*
X71674774Y-86194476D01*
X71674629Y-86194344D01*
X71634774Y-86154489D01*
X71634256Y-86152557D01*
X71635670Y-86151143D01*
X71637457Y-86151529D01*
X71651700Y-86163219D01*
X71667777Y-86171812D01*
X71685224Y-86177105D01*
X71703363Y-86178891D01*
X71721502Y-86177105D01*
X71738949Y-86171812D01*
X71755026Y-86163219D01*
X71769196Y-86151589D01*
X72734253Y-85186532D01*
X72745883Y-85172362D01*
X72754476Y-85156285D01*
X72759769Y-85138838D01*
X72761555Y-85120699D01*
X72759769Y-85102560D01*
X72754476Y-85085113D01*
X72745883Y-85069036D01*
X72734193Y-85054793D01*
X72733867Y-85052820D01*
X72735413Y-85051551D01*
X72737153Y-85052110D01*
G37*
G36*
X69506193Y-85053006D02*
G01*
X69505807Y-85054793D01*
X69494117Y-85069036D01*
X69485524Y-85085113D01*
X69480231Y-85102560D01*
X69478445Y-85120699D01*
X69480231Y-85138838D01*
X69485524Y-85156285D01*
X69494117Y-85172362D01*
X69505747Y-85186532D01*
X70470804Y-86151589D01*
X70484974Y-86163219D01*
X70501051Y-86171812D01*
X70518498Y-86177105D01*
X70536637Y-86178891D01*
X70554776Y-86177105D01*
X70572223Y-86171812D01*
X70588300Y-86163219D01*
X70602543Y-86151529D01*
X70604516Y-86151203D01*
X70605785Y-86152749D01*
X70605226Y-86154489D01*
X70565371Y-86194344D01*
X70565226Y-86194476D01*
X70555629Y-86202352D01*
X70555303Y-86202570D01*
X70549784Y-86205520D01*
X70549422Y-86205670D01*
X70537842Y-86209183D01*
X70537651Y-86209231D01*
X70525222Y-86211704D01*
X70502948Y-86220931D01*
X70482901Y-86234326D01*
X70465855Y-86251374D01*
X70452461Y-86271421D01*
X70443235Y-86293696D01*
X70440763Y-86306123D01*
X70440715Y-86306314D01*
X70437204Y-86317888D01*
X70437054Y-86318250D01*
X70434104Y-86323769D01*
X70433886Y-86324095D01*
X70426010Y-86333692D01*
X70425878Y-86333837D01*
X70386023Y-86373692D01*
X70384091Y-86374210D01*
X70382677Y-86372796D01*
X70383063Y-86371009D01*
X70394753Y-86356766D01*
X70403346Y-86340689D01*
X70408639Y-86323242D01*
X70410425Y-86305103D01*
X70408639Y-86286964D01*
X70403346Y-86269517D01*
X70394753Y-86253440D01*
X70383123Y-86239270D01*
X69418066Y-85274213D01*
X69403896Y-85262583D01*
X69387819Y-85253990D01*
X69370372Y-85248697D01*
X69352233Y-85246911D01*
X69334094Y-85248697D01*
X69316647Y-85253990D01*
X69300570Y-85262583D01*
X69286327Y-85274273D01*
X69284354Y-85274599D01*
X69283085Y-85273053D01*
X69283644Y-85271313D01*
X69323499Y-85231458D01*
X69323644Y-85231326D01*
X69333241Y-85223450D01*
X69333567Y-85223232D01*
X69339086Y-85220282D01*
X69339448Y-85220132D01*
X69351028Y-85216619D01*
X69351219Y-85216571D01*
X69363648Y-85214098D01*
X69385922Y-85204871D01*
X69405969Y-85191476D01*
X69423015Y-85174428D01*
X69436409Y-85154381D01*
X69445635Y-85132106D01*
X69448107Y-85119679D01*
X69448155Y-85119488D01*
X69451666Y-85107914D01*
X69451816Y-85107552D01*
X69454766Y-85102033D01*
X69454984Y-85101707D01*
X69462860Y-85092110D01*
X69462992Y-85091965D01*
X69502847Y-85052110D01*
X69504779Y-85051592D01*
X69506193Y-85053006D01*
G37*
G36*
X108056732Y-84311000D02*
G01*
X108057000Y-84312000D01*
X108057000Y-84532000D01*
X108056000Y-84533732D01*
X108055000Y-84534000D01*
X106915000Y-84534000D01*
X106913268Y-84533000D01*
X106913000Y-84532000D01*
X106913000Y-84312000D01*
X106914000Y-84310268D01*
X106915000Y-84310000D01*
X108055000Y-84310000D01*
X108056732Y-84311000D01*
G37*
G36*
X110256732Y-84311000D02*
G01*
X110257000Y-84312000D01*
X110257000Y-84532000D01*
X110256000Y-84533732D01*
X110255000Y-84534000D01*
X109115000Y-84534000D01*
X109113268Y-84533000D01*
X109113000Y-84532000D01*
X109113000Y-84312000D01*
X109114000Y-84310268D01*
X109115000Y-84310000D01*
X110255000Y-84310000D01*
X110256732Y-84311000D01*
G37*
G36*
X108056732Y-83361000D02*
G01*
X108057000Y-83362000D01*
X108057000Y-83582000D01*
X108056000Y-83583732D01*
X108055000Y-83584000D01*
X106915000Y-83584000D01*
X106913268Y-83583000D01*
X106913000Y-83582000D01*
X106913000Y-83362000D01*
X106914000Y-83360268D01*
X106915000Y-83360000D01*
X108055000Y-83360000D01*
X108056732Y-83361000D01*
G37*
G36*
X110256732Y-83361000D02*
G01*
X110257000Y-83362000D01*
X110257000Y-83582000D01*
X110256000Y-83583732D01*
X110255000Y-83584000D01*
X109115000Y-83584000D01*
X109113268Y-83583000D01*
X109113000Y-83582000D01*
X109113000Y-83362000D01*
X109114000Y-83360268D01*
X109115000Y-83360000D01*
X110255000Y-83360000D01*
X110256732Y-83361000D01*
G37*
G36*
X112872732Y-73758000D02*
G01*
X112873000Y-73759000D01*
X112873000Y-75339000D01*
X112872000Y-75340732D01*
X112871000Y-75341000D01*
X112819318Y-75341000D01*
X112818049Y-75340546D01*
X112814331Y-75337494D01*
X112793067Y-75326129D01*
X112769992Y-75319129D01*
X112746001Y-75316766D01*
X112722058Y-75319125D01*
X112687894Y-75331348D01*
X112686549Y-75332067D01*
X112684550Y-75332001D01*
X112683607Y-75330238D01*
X112684337Y-75328757D01*
X112687863Y-75325863D01*
X112692588Y-75320107D01*
X112696098Y-75313538D01*
X112698261Y-75306409D01*
X112699000Y-75298905D01*
X112699000Y-73799095D01*
X112698261Y-73791591D01*
X112696098Y-73784462D01*
X112692588Y-73777893D01*
X112687863Y-73772137D01*
X112684337Y-73769243D01*
X112683633Y-73767371D01*
X112684902Y-73765825D01*
X112686549Y-73765933D01*
X112687938Y-73766675D01*
X112710301Y-73775938D01*
X112733952Y-73780641D01*
X112758058Y-73780641D01*
X112781708Y-73775935D01*
X112803982Y-73766708D01*
X112818007Y-73757337D01*
X112819118Y-73757000D01*
X112871000Y-73757000D01*
X112872732Y-73758000D01*
G37*
G36*
X114003951Y-73757454D02*
G01*
X114007669Y-73760506D01*
X114028933Y-73771871D01*
X114052008Y-73778871D01*
X114075999Y-73781234D01*
X114099942Y-73778875D01*
X114134106Y-73766652D01*
X114135451Y-73765933D01*
X114137450Y-73765999D01*
X114138393Y-73767762D01*
X114137663Y-73769243D01*
X114134137Y-73772137D01*
X114129412Y-73777893D01*
X114125902Y-73784462D01*
X114123739Y-73791591D01*
X114123000Y-73799095D01*
X114123000Y-75298905D01*
X114123739Y-75306409D01*
X114125902Y-75313538D01*
X114129412Y-75320107D01*
X114134137Y-75325863D01*
X114137663Y-75328757D01*
X114138367Y-75330629D01*
X114137098Y-75332175D01*
X114135451Y-75332067D01*
X114134062Y-75331325D01*
X114111699Y-75322062D01*
X114088048Y-75317359D01*
X114063942Y-75317359D01*
X114040292Y-75322065D01*
X114018018Y-75331292D01*
X114003993Y-75340663D01*
X114002882Y-75341000D01*
X113951000Y-75341000D01*
X113949268Y-75340000D01*
X113949000Y-75339000D01*
X113949000Y-73759000D01*
X113950000Y-73757268D01*
X113951000Y-73757000D01*
X114002682Y-73757000D01*
X114003951Y-73757454D01*
G37*
G36*
X58156732Y-72040000D02*
G01*
X58157000Y-72041000D01*
X58157000Y-73171000D01*
X58156000Y-73172732D01*
X58155000Y-73173000D01*
X58035000Y-73173000D01*
X58033268Y-73172000D01*
X58033000Y-73171000D01*
X58033000Y-72043000D01*
X57507000Y-72043000D01*
X57507000Y-73171000D01*
X57506000Y-73172732D01*
X57505000Y-73173000D01*
X57385000Y-73173000D01*
X57383268Y-73172000D01*
X57383000Y-73171000D01*
X57383000Y-72043000D01*
X56857000Y-72043000D01*
X56857000Y-73171000D01*
X56856000Y-73172732D01*
X56855000Y-73173000D01*
X56735000Y-73173000D01*
X56733268Y-73172000D01*
X56733000Y-73171000D01*
X56733000Y-72043000D01*
X56207000Y-72043000D01*
X56207000Y-73171000D01*
X56206000Y-73172732D01*
X56205000Y-73173000D01*
X56085000Y-73173000D01*
X56083268Y-73172000D01*
X56083000Y-73171000D01*
X56083000Y-72043000D01*
X55557000Y-72043000D01*
X55557000Y-73171000D01*
X55556000Y-73172732D01*
X55555000Y-73173000D01*
X55435000Y-73173000D01*
X55433268Y-73172000D01*
X55433000Y-73171000D01*
X55433000Y-72043000D01*
X54907000Y-72043000D01*
X54907000Y-73171000D01*
X54906000Y-73172732D01*
X54905000Y-73173000D01*
X54785000Y-73173000D01*
X54783268Y-73172000D01*
X54783000Y-73171000D01*
X54783000Y-72043000D01*
X54257000Y-72043000D01*
X54257000Y-73171000D01*
X54256000Y-73172732D01*
X54255000Y-73173000D01*
X54135000Y-73173000D01*
X54133268Y-73172000D01*
X54133000Y-73171000D01*
X54133000Y-72041000D01*
X54134000Y-72039268D01*
X54135000Y-72039000D01*
X58155000Y-72039000D01*
X58156732Y-72040000D01*
G37*
G36*
X58156732Y-66490000D02*
G01*
X58157000Y-66491000D01*
X58157000Y-67621000D01*
X58156000Y-67622732D01*
X58155000Y-67623000D01*
X58035000Y-67623000D01*
X58033268Y-67622000D01*
X58033000Y-67621000D01*
X58033000Y-66493000D01*
X57507000Y-66493000D01*
X57507000Y-67621000D01*
X57506000Y-67622732D01*
X57505000Y-67623000D01*
X57385000Y-67623000D01*
X57383268Y-67622000D01*
X57383000Y-67621000D01*
X57383000Y-66493000D01*
X56857000Y-66493000D01*
X56857000Y-67621000D01*
X56856000Y-67622732D01*
X56855000Y-67623000D01*
X56735000Y-67623000D01*
X56733268Y-67622000D01*
X56733000Y-67621000D01*
X56733000Y-66493000D01*
X56207000Y-66493000D01*
X56207000Y-67621000D01*
X56206000Y-67622732D01*
X56205000Y-67623000D01*
X56085000Y-67623000D01*
X56083268Y-67622000D01*
X56083000Y-67621000D01*
X56083000Y-66493000D01*
X55557000Y-66493000D01*
X55557000Y-67621000D01*
X55556000Y-67622732D01*
X55555000Y-67623000D01*
X55435000Y-67623000D01*
X55433268Y-67622000D01*
X55433000Y-67621000D01*
X55433000Y-66493000D01*
X54907000Y-66493000D01*
X54907000Y-67621000D01*
X54906000Y-67622732D01*
X54905000Y-67623000D01*
X54785000Y-67623000D01*
X54783268Y-67622000D01*
X54783000Y-67621000D01*
X54783000Y-66493000D01*
X54257000Y-66493000D01*
X54257000Y-67621000D01*
X54256000Y-67622732D01*
X54255000Y-67623000D01*
X54135000Y-67623000D01*
X54133268Y-67622000D01*
X54133000Y-67621000D01*
X54133000Y-66491000D01*
X54134000Y-66489268D01*
X54135000Y-66489000D01*
X58155000Y-66489000D01*
X58156732Y-66490000D01*
G37*
G36*
X102336732Y-38384000D02*
G01*
X102337000Y-38385000D01*
X102337000Y-39615000D01*
X102336000Y-39616732D01*
X102335000Y-39617000D01*
X102125000Y-39617000D01*
X102123268Y-39616000D01*
X102123000Y-39615000D01*
X102123000Y-38385000D01*
X102124000Y-38383268D01*
X102125000Y-38383000D01*
X102335000Y-38383000D01*
X102336732Y-38384000D01*
G37*
G36*
X102336732Y-37084000D02*
G01*
X102337000Y-37085000D01*
X102337000Y-38115000D01*
X102336000Y-38116732D01*
X102335000Y-38117000D01*
X102125000Y-38117000D01*
X102123268Y-38116000D01*
X102123000Y-38115000D01*
X102123000Y-37085000D01*
X102124000Y-37083268D01*
X102125000Y-37083000D01*
X102335000Y-37083000D01*
X102336732Y-37084000D01*
G37*
M02*
