G04 #@! TF.GenerationSoftware,KiCad,Pcbnew,5.1.9+dfsg1-1~bpo10+1*
G04 #@! TF.CreationDate,2021-05-15T01:04:01+00:00*
G04 #@! TF.ProjectId,mobo,6d6f626f-2e6b-4696-9361-645f70636258,rev?*
G04 #@! TF.SameCoordinates,Original*
G04 #@! TF.FileFunction,Soldermask,Top*
G04 #@! TF.FilePolarity,Negative*
%FSLAX46Y46*%
G04 Gerber Fmt 4.6, Leading zero omitted, Abs format (unit mm)*
G04 Created by KiCad (PCBNEW 5.1.9+dfsg1-1~bpo10+1) date 2021-05-15 01:04:01*
%MOMM*%
%LPD*%
G01*
G04 APERTURE LIST*
%ADD10R,1.550000X1.000000*%
%ADD11C,1.000000*%
%ADD12R,3.500000X2.300000*%
%ADD13R,0.900000X1.200000*%
%ADD14R,2.000000X10.000000*%
%ADD15R,4.200000X2.400000*%
%ADD16O,1.700000X1.700000*%
%ADD17R,1.700000X1.700000*%
%ADD18R,1.000000X1.550000*%
%ADD19R,1.000000X0.700000*%
%ADD20R,0.450000X1.050000*%
%ADD21R,2.310000X2.460000*%
%ADD22R,2.000000X1.500000*%
%ADD23R,2.000000X3.800000*%
%ADD24R,1.060000X0.650000*%
%ADD25R,2.100000X1.800000*%
%ADD26R,0.740000X2.400000*%
G04 APERTURE END LIST*
D10*
X69450000Y-100750000D03*
X74700000Y-100750000D03*
X74700000Y-102450000D03*
X69450000Y-102450000D03*
G36*
G01*
X82360000Y-84165000D02*
X82360000Y-85115000D01*
G75*
G02*
X82110000Y-85365000I-250000J0D01*
G01*
X81610000Y-85365000D01*
G75*
G02*
X81360000Y-85115000I0J250000D01*
G01*
X81360000Y-84165000D01*
G75*
G02*
X81610000Y-83915000I250000J0D01*
G01*
X82110000Y-83915000D01*
G75*
G02*
X82360000Y-84165000I0J-250000D01*
G01*
G37*
G36*
G01*
X80460000Y-84165000D02*
X80460000Y-85115000D01*
G75*
G02*
X80210000Y-85365000I-250000J0D01*
G01*
X79710000Y-85365000D01*
G75*
G02*
X79460000Y-85115000I0J250000D01*
G01*
X79460000Y-84165000D01*
G75*
G02*
X79710000Y-83915000I250000J0D01*
G01*
X80210000Y-83915000D01*
G75*
G02*
X80460000Y-84165000I0J-250000D01*
G01*
G37*
G36*
G01*
X80070000Y-90755000D02*
X80070000Y-89805000D01*
G75*
G02*
X80320000Y-89555000I250000J0D01*
G01*
X80820000Y-89555000D01*
G75*
G02*
X81070000Y-89805000I0J-250000D01*
G01*
X81070000Y-90755000D01*
G75*
G02*
X80820000Y-91005000I-250000J0D01*
G01*
X80320000Y-91005000D01*
G75*
G02*
X80070000Y-90755000I0J250000D01*
G01*
G37*
G36*
G01*
X78170000Y-90755000D02*
X78170000Y-89805000D01*
G75*
G02*
X78420000Y-89555000I250000J0D01*
G01*
X78920000Y-89555000D01*
G75*
G02*
X79170000Y-89805000I0J-250000D01*
G01*
X79170000Y-90755000D01*
G75*
G02*
X78920000Y-91005000I-250000J0D01*
G01*
X78420000Y-91005000D01*
G75*
G02*
X78170000Y-90755000I0J250000D01*
G01*
G37*
D11*
X202300000Y-60950000D03*
X32070000Y-9180000D03*
X66030000Y-101570000D03*
G36*
G01*
X81476001Y-55781000D02*
X80575999Y-55781000D01*
G75*
G02*
X80326000Y-55531001I0J249999D01*
G01*
X80326000Y-55005999D01*
G75*
G02*
X80575999Y-54756000I249999J0D01*
G01*
X81476001Y-54756000D01*
G75*
G02*
X81726000Y-55005999I0J-249999D01*
G01*
X81726000Y-55531001D01*
G75*
G02*
X81476001Y-55781000I-249999J0D01*
G01*
G37*
G36*
G01*
X81476001Y-53956000D02*
X80575999Y-53956000D01*
G75*
G02*
X80326000Y-53706001I0J249999D01*
G01*
X80326000Y-53180999D01*
G75*
G02*
X80575999Y-52931000I249999J0D01*
G01*
X81476001Y-52931000D01*
G75*
G02*
X81726000Y-53180999I0J-249999D01*
G01*
X81726000Y-53706001D01*
G75*
G02*
X81476001Y-53956000I-249999J0D01*
G01*
G37*
G36*
G01*
X26425000Y-9049999D02*
X26425000Y-9950001D01*
G75*
G02*
X26175001Y-10200000I-249999J0D01*
G01*
X25649999Y-10200000D01*
G75*
G02*
X25400000Y-9950001I0J249999D01*
G01*
X25400000Y-9049999D01*
G75*
G02*
X25649999Y-8800000I249999J0D01*
G01*
X26175001Y-8800000D01*
G75*
G02*
X26425000Y-9049999I0J-249999D01*
G01*
G37*
G36*
G01*
X24600000Y-9049999D02*
X24600000Y-9950001D01*
G75*
G02*
X24350001Y-10200000I-249999J0D01*
G01*
X23824999Y-10200000D01*
G75*
G02*
X23575000Y-9950001I0J249999D01*
G01*
X23575000Y-9049999D01*
G75*
G02*
X23824999Y-8800000I249999J0D01*
G01*
X24350001Y-8800000D01*
G75*
G02*
X24600000Y-9049999I0J-249999D01*
G01*
G37*
G36*
G01*
X20925000Y-9049999D02*
X20925000Y-9950001D01*
G75*
G02*
X20675001Y-10200000I-249999J0D01*
G01*
X20149999Y-10200000D01*
G75*
G02*
X19900000Y-9950001I0J249999D01*
G01*
X19900000Y-9049999D01*
G75*
G02*
X20149999Y-8800000I249999J0D01*
G01*
X20675001Y-8800000D01*
G75*
G02*
X20925000Y-9049999I0J-249999D01*
G01*
G37*
G36*
G01*
X19100000Y-9049999D02*
X19100000Y-9950001D01*
G75*
G02*
X18850001Y-10200000I-249999J0D01*
G01*
X18324999Y-10200000D01*
G75*
G02*
X18075000Y-9950001I0J249999D01*
G01*
X18075000Y-9049999D01*
G75*
G02*
X18324999Y-8800000I249999J0D01*
G01*
X18850001Y-8800000D01*
G75*
G02*
X19100000Y-9049999I0J-249999D01*
G01*
G37*
G36*
G01*
X15425000Y-9049999D02*
X15425000Y-9950001D01*
G75*
G02*
X15175001Y-10200000I-249999J0D01*
G01*
X14649999Y-10200000D01*
G75*
G02*
X14400000Y-9950001I0J249999D01*
G01*
X14400000Y-9049999D01*
G75*
G02*
X14649999Y-8800000I249999J0D01*
G01*
X15175001Y-8800000D01*
G75*
G02*
X15425000Y-9049999I0J-249999D01*
G01*
G37*
G36*
G01*
X13600000Y-9049999D02*
X13600000Y-9950001D01*
G75*
G02*
X13350001Y-10200000I-249999J0D01*
G01*
X12824999Y-10200000D01*
G75*
G02*
X12575000Y-9950001I0J249999D01*
G01*
X12575000Y-9049999D01*
G75*
G02*
X12824999Y-8800000I249999J0D01*
G01*
X13350001Y-8800000D01*
G75*
G02*
X13600000Y-9049999I0J-249999D01*
G01*
G37*
G36*
G01*
X91636001Y-55781000D02*
X90735999Y-55781000D01*
G75*
G02*
X90486000Y-55531001I0J249999D01*
G01*
X90486000Y-55005999D01*
G75*
G02*
X90735999Y-54756000I249999J0D01*
G01*
X91636001Y-54756000D01*
G75*
G02*
X91886000Y-55005999I0J-249999D01*
G01*
X91886000Y-55531001D01*
G75*
G02*
X91636001Y-55781000I-249999J0D01*
G01*
G37*
G36*
G01*
X91636001Y-53956000D02*
X90735999Y-53956000D01*
G75*
G02*
X90486000Y-53706001I0J249999D01*
G01*
X90486000Y-53180999D01*
G75*
G02*
X90735999Y-52931000I249999J0D01*
G01*
X91636001Y-52931000D01*
G75*
G02*
X91886000Y-53180999I0J-249999D01*
G01*
X91886000Y-53706001D01*
G75*
G02*
X91636001Y-53956000I-249999J0D01*
G01*
G37*
G36*
G01*
X9455999Y-18387000D02*
X10356001Y-18387000D01*
G75*
G02*
X10606000Y-18636999I0J-249999D01*
G01*
X10606000Y-19162001D01*
G75*
G02*
X10356001Y-19412000I-249999J0D01*
G01*
X9455999Y-19412000D01*
G75*
G02*
X9206000Y-19162001I0J249999D01*
G01*
X9206000Y-18636999D01*
G75*
G02*
X9455999Y-18387000I249999J0D01*
G01*
G37*
G36*
G01*
X9455999Y-20212000D02*
X10356001Y-20212000D01*
G75*
G02*
X10606000Y-20461999I0J-249999D01*
G01*
X10606000Y-20987001D01*
G75*
G02*
X10356001Y-21237000I-249999J0D01*
G01*
X9455999Y-21237000D01*
G75*
G02*
X9206000Y-20987001I0J249999D01*
G01*
X9206000Y-20461999D01*
G75*
G02*
X9455999Y-20212000I249999J0D01*
G01*
G37*
G36*
G01*
X9455999Y-24229000D02*
X10356001Y-24229000D01*
G75*
G02*
X10606000Y-24478999I0J-249999D01*
G01*
X10606000Y-25004001D01*
G75*
G02*
X10356001Y-25254000I-249999J0D01*
G01*
X9455999Y-25254000D01*
G75*
G02*
X9206000Y-25004001I0J249999D01*
G01*
X9206000Y-24478999D01*
G75*
G02*
X9455999Y-24229000I249999J0D01*
G01*
G37*
G36*
G01*
X9455999Y-26054000D02*
X10356001Y-26054000D01*
G75*
G02*
X10606000Y-26303999I0J-249999D01*
G01*
X10606000Y-26829001D01*
G75*
G02*
X10356001Y-27079000I-249999J0D01*
G01*
X9455999Y-27079000D01*
G75*
G02*
X9206000Y-26829001I0J249999D01*
G01*
X9206000Y-26303999D01*
G75*
G02*
X9455999Y-26054000I249999J0D01*
G01*
G37*
G36*
G01*
X84802000Y-55845000D02*
X83537000Y-55845000D01*
G75*
G02*
X83339500Y-55647500I0J197500D01*
G01*
X83339500Y-55252500D01*
G75*
G02*
X83537000Y-55055000I197500J0D01*
G01*
X84802000Y-55055000D01*
G75*
G02*
X84999500Y-55252500I0J-197500D01*
G01*
X84999500Y-55647500D01*
G75*
G02*
X84802000Y-55845000I-197500J0D01*
G01*
G37*
G36*
G01*
X84802000Y-54045000D02*
X83537000Y-54045000D01*
G75*
G02*
X83339500Y-53847500I0J197500D01*
G01*
X83339500Y-53452500D01*
G75*
G02*
X83537000Y-53255000I197500J0D01*
G01*
X84802000Y-53255000D01*
G75*
G02*
X84999500Y-53452500I0J-197500D01*
G01*
X84999500Y-53847500D01*
G75*
G02*
X84802000Y-54045000I-197500J0D01*
G01*
G37*
G36*
G01*
X88802000Y-54045000D02*
X87537000Y-54045000D01*
G75*
G02*
X87339500Y-53847500I0J197500D01*
G01*
X87339500Y-53452500D01*
G75*
G02*
X87537000Y-53255000I197500J0D01*
G01*
X88802000Y-53255000D01*
G75*
G02*
X88999500Y-53452500I0J-197500D01*
G01*
X88999500Y-53847500D01*
G75*
G02*
X88802000Y-54045000I-197500J0D01*
G01*
G37*
G36*
G01*
X88802000Y-55845000D02*
X87537000Y-55845000D01*
G75*
G02*
X87339500Y-55647500I0J197500D01*
G01*
X87339500Y-55252500D01*
G75*
G02*
X87537000Y-55055000I197500J0D01*
G01*
X88802000Y-55055000D01*
G75*
G02*
X88999500Y-55252500I0J-197500D01*
G01*
X88999500Y-55647500D01*
G75*
G02*
X88802000Y-55845000I-197500J0D01*
G01*
G37*
G36*
G01*
X71322250Y-80830000D02*
X70409750Y-80830000D01*
G75*
G02*
X70166000Y-80586250I0J243750D01*
G01*
X70166000Y-80098750D01*
G75*
G02*
X70409750Y-79855000I243750J0D01*
G01*
X71322250Y-79855000D01*
G75*
G02*
X71566000Y-80098750I0J-243750D01*
G01*
X71566000Y-80586250D01*
G75*
G02*
X71322250Y-80830000I-243750J0D01*
G01*
G37*
G36*
G01*
X71322250Y-82705000D02*
X70409750Y-82705000D01*
G75*
G02*
X70166000Y-82461250I0J243750D01*
G01*
X70166000Y-81973750D01*
G75*
G02*
X70409750Y-81730000I243750J0D01*
G01*
X71322250Y-81730000D01*
G75*
G02*
X71566000Y-81973750I0J-243750D01*
G01*
X71566000Y-82461250D01*
G75*
G02*
X71322250Y-82705000I-243750J0D01*
G01*
G37*
G36*
G01*
X72815000Y-80656250D02*
X72815000Y-79743750D01*
G75*
G02*
X73058750Y-79500000I243750J0D01*
G01*
X73546250Y-79500000D01*
G75*
G02*
X73790000Y-79743750I0J-243750D01*
G01*
X73790000Y-80656250D01*
G75*
G02*
X73546250Y-80900000I-243750J0D01*
G01*
X73058750Y-80900000D01*
G75*
G02*
X72815000Y-80656250I0J243750D01*
G01*
G37*
G36*
G01*
X74690000Y-80656250D02*
X74690000Y-79743750D01*
G75*
G02*
X74933750Y-79500000I243750J0D01*
G01*
X75421250Y-79500000D01*
G75*
G02*
X75665000Y-79743750I0J-243750D01*
G01*
X75665000Y-80656250D01*
G75*
G02*
X75421250Y-80900000I-243750J0D01*
G01*
X74933750Y-80900000D01*
G75*
G02*
X74690000Y-80656250I0J243750D01*
G01*
G37*
G36*
G01*
X74696500Y-82752250D02*
X74696500Y-81839750D01*
G75*
G02*
X74940250Y-81596000I243750J0D01*
G01*
X75427750Y-81596000D01*
G75*
G02*
X75671500Y-81839750I0J-243750D01*
G01*
X75671500Y-82752250D01*
G75*
G02*
X75427750Y-82996000I-243750J0D01*
G01*
X74940250Y-82996000D01*
G75*
G02*
X74696500Y-82752250I0J243750D01*
G01*
G37*
G36*
G01*
X72821500Y-82752250D02*
X72821500Y-81839750D01*
G75*
G02*
X73065250Y-81596000I243750J0D01*
G01*
X73552750Y-81596000D01*
G75*
G02*
X73796500Y-81839750I0J-243750D01*
G01*
X73796500Y-82752250D01*
G75*
G02*
X73552750Y-82996000I-243750J0D01*
G01*
X73065250Y-82996000D01*
G75*
G02*
X72821500Y-82752250I0J243750D01*
G01*
G37*
G36*
G01*
X61519750Y-83665000D02*
X62432250Y-83665000D01*
G75*
G02*
X62676000Y-83908750I0J-243750D01*
G01*
X62676000Y-84396250D01*
G75*
G02*
X62432250Y-84640000I-243750J0D01*
G01*
X61519750Y-84640000D01*
G75*
G02*
X61276000Y-84396250I0J243750D01*
G01*
X61276000Y-83908750D01*
G75*
G02*
X61519750Y-83665000I243750J0D01*
G01*
G37*
G36*
G01*
X61519750Y-85540000D02*
X62432250Y-85540000D01*
G75*
G02*
X62676000Y-85783750I0J-243750D01*
G01*
X62676000Y-86271250D01*
G75*
G02*
X62432250Y-86515000I-243750J0D01*
G01*
X61519750Y-86515000D01*
G75*
G02*
X61276000Y-86271250I0J243750D01*
G01*
X61276000Y-85783750D01*
G75*
G02*
X61519750Y-85540000I243750J0D01*
G01*
G37*
G36*
G01*
X53906000Y-76251750D02*
X53906000Y-77164250D01*
G75*
G02*
X53662250Y-77408000I-243750J0D01*
G01*
X53174750Y-77408000D01*
G75*
G02*
X52931000Y-77164250I0J243750D01*
G01*
X52931000Y-76251750D01*
G75*
G02*
X53174750Y-76008000I243750J0D01*
G01*
X53662250Y-76008000D01*
G75*
G02*
X53906000Y-76251750I0J-243750D01*
G01*
G37*
G36*
G01*
X55781000Y-76251750D02*
X55781000Y-77164250D01*
G75*
G02*
X55537250Y-77408000I-243750J0D01*
G01*
X55049750Y-77408000D01*
G75*
G02*
X54806000Y-77164250I0J243750D01*
G01*
X54806000Y-76251750D01*
G75*
G02*
X55049750Y-76008000I243750J0D01*
G01*
X55537250Y-76008000D01*
G75*
G02*
X55781000Y-76251750I0J-243750D01*
G01*
G37*
G36*
G01*
X67719000Y-77267750D02*
X67719000Y-78180250D01*
G75*
G02*
X67475250Y-78424000I-243750J0D01*
G01*
X66987750Y-78424000D01*
G75*
G02*
X66744000Y-78180250I0J243750D01*
G01*
X66744000Y-77267750D01*
G75*
G02*
X66987750Y-77024000I243750J0D01*
G01*
X67475250Y-77024000D01*
G75*
G02*
X67719000Y-77267750I0J-243750D01*
G01*
G37*
G36*
G01*
X65844000Y-77267750D02*
X65844000Y-78180250D01*
G75*
G02*
X65600250Y-78424000I-243750J0D01*
G01*
X65112750Y-78424000D01*
G75*
G02*
X64869000Y-78180250I0J243750D01*
G01*
X64869000Y-77267750D01*
G75*
G02*
X65112750Y-77024000I243750J0D01*
G01*
X65600250Y-77024000D01*
G75*
G02*
X65844000Y-77267750I0J-243750D01*
G01*
G37*
G36*
G01*
X62432250Y-80830000D02*
X61519750Y-80830000D01*
G75*
G02*
X61276000Y-80586250I0J243750D01*
G01*
X61276000Y-80098750D01*
G75*
G02*
X61519750Y-79855000I243750J0D01*
G01*
X62432250Y-79855000D01*
G75*
G02*
X62676000Y-80098750I0J-243750D01*
G01*
X62676000Y-80586250D01*
G75*
G02*
X62432250Y-80830000I-243750J0D01*
G01*
G37*
G36*
G01*
X62432250Y-82705000D02*
X61519750Y-82705000D01*
G75*
G02*
X61276000Y-82461250I0J243750D01*
G01*
X61276000Y-81973750D01*
G75*
G02*
X61519750Y-81730000I243750J0D01*
G01*
X62432250Y-81730000D01*
G75*
G02*
X62676000Y-81973750I0J-243750D01*
G01*
X62676000Y-82461250D01*
G75*
G02*
X62432250Y-82705000I-243750J0D01*
G01*
G37*
G36*
G01*
X57462000Y-76251750D02*
X57462000Y-77164250D01*
G75*
G02*
X57218250Y-77408000I-243750J0D01*
G01*
X56730750Y-77408000D01*
G75*
G02*
X56487000Y-77164250I0J243750D01*
G01*
X56487000Y-76251750D01*
G75*
G02*
X56730750Y-76008000I243750J0D01*
G01*
X57218250Y-76008000D01*
G75*
G02*
X57462000Y-76251750I0J-243750D01*
G01*
G37*
G36*
G01*
X59337000Y-76251750D02*
X59337000Y-77164250D01*
G75*
G02*
X59093250Y-77408000I-243750J0D01*
G01*
X58605750Y-77408000D01*
G75*
G02*
X58362000Y-77164250I0J243750D01*
G01*
X58362000Y-76251750D01*
G75*
G02*
X58605750Y-76008000I243750J0D01*
G01*
X59093250Y-76008000D01*
G75*
G02*
X59337000Y-76251750I0J-243750D01*
G01*
G37*
G36*
G01*
X59995750Y-68425000D02*
X60908250Y-68425000D01*
G75*
G02*
X61152000Y-68668750I0J-243750D01*
G01*
X61152000Y-69156250D01*
G75*
G02*
X60908250Y-69400000I-243750J0D01*
G01*
X59995750Y-69400000D01*
G75*
G02*
X59752000Y-69156250I0J243750D01*
G01*
X59752000Y-68668750D01*
G75*
G02*
X59995750Y-68425000I243750J0D01*
G01*
G37*
G36*
G01*
X59995750Y-70300000D02*
X60908250Y-70300000D01*
G75*
G02*
X61152000Y-70543750I0J-243750D01*
G01*
X61152000Y-71031250D01*
G75*
G02*
X60908250Y-71275000I-243750J0D01*
G01*
X59995750Y-71275000D01*
G75*
G02*
X59752000Y-71031250I0J243750D01*
G01*
X59752000Y-70543750D01*
G75*
G02*
X59995750Y-70300000I243750J0D01*
G01*
G37*
G36*
G01*
X97333750Y-98270000D02*
X98246250Y-98270000D01*
G75*
G02*
X98490000Y-98513750I0J-243750D01*
G01*
X98490000Y-99001250D01*
G75*
G02*
X98246250Y-99245000I-243750J0D01*
G01*
X97333750Y-99245000D01*
G75*
G02*
X97090000Y-99001250I0J243750D01*
G01*
X97090000Y-98513750D01*
G75*
G02*
X97333750Y-98270000I243750J0D01*
G01*
G37*
G36*
G01*
X97333750Y-100145000D02*
X98246250Y-100145000D01*
G75*
G02*
X98490000Y-100388750I0J-243750D01*
G01*
X98490000Y-100876250D01*
G75*
G02*
X98246250Y-101120000I-243750J0D01*
G01*
X97333750Y-101120000D01*
G75*
G02*
X97090000Y-100876250I0J243750D01*
G01*
X97090000Y-100388750D01*
G75*
G02*
X97333750Y-100145000I243750J0D01*
G01*
G37*
G36*
G01*
X79485000Y-82816250D02*
X79485000Y-81903750D01*
G75*
G02*
X79728750Y-81660000I243750J0D01*
G01*
X80216250Y-81660000D01*
G75*
G02*
X80460000Y-81903750I0J-243750D01*
G01*
X80460000Y-82816250D01*
G75*
G02*
X80216250Y-83060000I-243750J0D01*
G01*
X79728750Y-83060000D01*
G75*
G02*
X79485000Y-82816250I0J243750D01*
G01*
G37*
G36*
G01*
X81360000Y-82816250D02*
X81360000Y-81903750D01*
G75*
G02*
X81603750Y-81660000I243750J0D01*
G01*
X82091250Y-81660000D01*
G75*
G02*
X82335000Y-81903750I0J-243750D01*
G01*
X82335000Y-82816250D01*
G75*
G02*
X82091250Y-83060000I-243750J0D01*
G01*
X81603750Y-83060000D01*
G75*
G02*
X81360000Y-82816250I0J243750D01*
G01*
G37*
G36*
G01*
X79485000Y-80566250D02*
X79485000Y-79653750D01*
G75*
G02*
X79728750Y-79410000I243750J0D01*
G01*
X80216250Y-79410000D01*
G75*
G02*
X80460000Y-79653750I0J-243750D01*
G01*
X80460000Y-80566250D01*
G75*
G02*
X80216250Y-80810000I-243750J0D01*
G01*
X79728750Y-80810000D01*
G75*
G02*
X79485000Y-80566250I0J243750D01*
G01*
G37*
G36*
G01*
X81360000Y-80566250D02*
X81360000Y-79653750D01*
G75*
G02*
X81603750Y-79410000I243750J0D01*
G01*
X82091250Y-79410000D01*
G75*
G02*
X82335000Y-79653750I0J-243750D01*
G01*
X82335000Y-80566250D01*
G75*
G02*
X82091250Y-80810000I-243750J0D01*
G01*
X81603750Y-80810000D01*
G75*
G02*
X81360000Y-80566250I0J243750D01*
G01*
G37*
G36*
G01*
X112156250Y-88905000D02*
X111243750Y-88905000D01*
G75*
G02*
X111000000Y-88661250I0J243750D01*
G01*
X111000000Y-88173750D01*
G75*
G02*
X111243750Y-87930000I243750J0D01*
G01*
X112156250Y-87930000D01*
G75*
G02*
X112400000Y-88173750I0J-243750D01*
G01*
X112400000Y-88661250D01*
G75*
G02*
X112156250Y-88905000I-243750J0D01*
G01*
G37*
G36*
G01*
X112156250Y-87030000D02*
X111243750Y-87030000D01*
G75*
G02*
X111000000Y-86786250I0J243750D01*
G01*
X111000000Y-86298750D01*
G75*
G02*
X111243750Y-86055000I243750J0D01*
G01*
X112156250Y-86055000D01*
G75*
G02*
X112400000Y-86298750I0J-243750D01*
G01*
X112400000Y-86786250D01*
G75*
G02*
X112156250Y-87030000I-243750J0D01*
G01*
G37*
G36*
G01*
X113208750Y-79952000D02*
X114121250Y-79952000D01*
G75*
G02*
X114365000Y-80195750I0J-243750D01*
G01*
X114365000Y-80683250D01*
G75*
G02*
X114121250Y-80927000I-243750J0D01*
G01*
X113208750Y-80927000D01*
G75*
G02*
X112965000Y-80683250I0J243750D01*
G01*
X112965000Y-80195750D01*
G75*
G02*
X113208750Y-79952000I243750J0D01*
G01*
G37*
G36*
G01*
X113208750Y-78077000D02*
X114121250Y-78077000D01*
G75*
G02*
X114365000Y-78320750I0J-243750D01*
G01*
X114365000Y-78808250D01*
G75*
G02*
X114121250Y-79052000I-243750J0D01*
G01*
X113208750Y-79052000D01*
G75*
G02*
X112965000Y-78808250I0J243750D01*
G01*
X112965000Y-78320750D01*
G75*
G02*
X113208750Y-78077000I243750J0D01*
G01*
G37*
G36*
G01*
X110668750Y-79952000D02*
X111581250Y-79952000D01*
G75*
G02*
X111825000Y-80195750I0J-243750D01*
G01*
X111825000Y-80683250D01*
G75*
G02*
X111581250Y-80927000I-243750J0D01*
G01*
X110668750Y-80927000D01*
G75*
G02*
X110425000Y-80683250I0J243750D01*
G01*
X110425000Y-80195750D01*
G75*
G02*
X110668750Y-79952000I243750J0D01*
G01*
G37*
G36*
G01*
X110668750Y-78077000D02*
X111581250Y-78077000D01*
G75*
G02*
X111825000Y-78320750I0J-243750D01*
G01*
X111825000Y-78808250D01*
G75*
G02*
X111581250Y-79052000I-243750J0D01*
G01*
X110668750Y-79052000D01*
G75*
G02*
X110425000Y-78808250I0J243750D01*
G01*
X110425000Y-78320750D01*
G75*
G02*
X110668750Y-78077000I243750J0D01*
G01*
G37*
G36*
G01*
X110010000Y-87300750D02*
X110010000Y-88213250D01*
G75*
G02*
X109766250Y-88457000I-243750J0D01*
G01*
X109278750Y-88457000D01*
G75*
G02*
X109035000Y-88213250I0J243750D01*
G01*
X109035000Y-87300750D01*
G75*
G02*
X109278750Y-87057000I243750J0D01*
G01*
X109766250Y-87057000D01*
G75*
G02*
X110010000Y-87300750I0J-243750D01*
G01*
G37*
G36*
G01*
X108135000Y-87300750D02*
X108135000Y-88213250D01*
G75*
G02*
X107891250Y-88457000I-243750J0D01*
G01*
X107403750Y-88457000D01*
G75*
G02*
X107160000Y-88213250I0J243750D01*
G01*
X107160000Y-87300750D01*
G75*
G02*
X107403750Y-87057000I243750J0D01*
G01*
X107891250Y-87057000D01*
G75*
G02*
X108135000Y-87300750I0J-243750D01*
G01*
G37*
G36*
G01*
X98627250Y-85021000D02*
X97714750Y-85021000D01*
G75*
G02*
X97471000Y-84777250I0J243750D01*
G01*
X97471000Y-84289750D01*
G75*
G02*
X97714750Y-84046000I243750J0D01*
G01*
X98627250Y-84046000D01*
G75*
G02*
X98871000Y-84289750I0J-243750D01*
G01*
X98871000Y-84777250D01*
G75*
G02*
X98627250Y-85021000I-243750J0D01*
G01*
G37*
G36*
G01*
X98627250Y-86896000D02*
X97714750Y-86896000D01*
G75*
G02*
X97471000Y-86652250I0J243750D01*
G01*
X97471000Y-86164750D01*
G75*
G02*
X97714750Y-85921000I243750J0D01*
G01*
X98627250Y-85921000D01*
G75*
G02*
X98871000Y-86164750I0J-243750D01*
G01*
X98871000Y-86652250D01*
G75*
G02*
X98627250Y-86896000I-243750J0D01*
G01*
G37*
G36*
G01*
X95960250Y-86896000D02*
X95047750Y-86896000D01*
G75*
G02*
X94804000Y-86652250I0J243750D01*
G01*
X94804000Y-86164750D01*
G75*
G02*
X95047750Y-85921000I243750J0D01*
G01*
X95960250Y-85921000D01*
G75*
G02*
X96204000Y-86164750I0J-243750D01*
G01*
X96204000Y-86652250D01*
G75*
G02*
X95960250Y-86896000I-243750J0D01*
G01*
G37*
G36*
G01*
X95960250Y-85021000D02*
X95047750Y-85021000D01*
G75*
G02*
X94804000Y-84777250I0J243750D01*
G01*
X94804000Y-84289750D01*
G75*
G02*
X95047750Y-84046000I243750J0D01*
G01*
X95960250Y-84046000D01*
G75*
G02*
X96204000Y-84289750I0J-243750D01*
G01*
X96204000Y-84777250D01*
G75*
G02*
X95960250Y-85021000I-243750J0D01*
G01*
G37*
G36*
G01*
X7822250Y-19440500D02*
X6909750Y-19440500D01*
G75*
G02*
X6666000Y-19196750I0J243750D01*
G01*
X6666000Y-18709250D01*
G75*
G02*
X6909750Y-18465500I243750J0D01*
G01*
X7822250Y-18465500D01*
G75*
G02*
X8066000Y-18709250I0J-243750D01*
G01*
X8066000Y-19196750D01*
G75*
G02*
X7822250Y-19440500I-243750J0D01*
G01*
G37*
G36*
G01*
X7822250Y-21315500D02*
X6909750Y-21315500D01*
G75*
G02*
X6666000Y-21071750I0J243750D01*
G01*
X6666000Y-20584250D01*
G75*
G02*
X6909750Y-20340500I243750J0D01*
G01*
X7822250Y-20340500D01*
G75*
G02*
X8066000Y-20584250I0J-243750D01*
G01*
X8066000Y-21071750D01*
G75*
G02*
X7822250Y-21315500I-243750J0D01*
G01*
G37*
G36*
G01*
X7822250Y-27079000D02*
X6909750Y-27079000D01*
G75*
G02*
X6666000Y-26835250I0J243750D01*
G01*
X6666000Y-26347750D01*
G75*
G02*
X6909750Y-26104000I243750J0D01*
G01*
X7822250Y-26104000D01*
G75*
G02*
X8066000Y-26347750I0J-243750D01*
G01*
X8066000Y-26835250D01*
G75*
G02*
X7822250Y-27079000I-243750J0D01*
G01*
G37*
G36*
G01*
X7822250Y-25204000D02*
X6909750Y-25204000D01*
G75*
G02*
X6666000Y-24960250I0J243750D01*
G01*
X6666000Y-24472750D01*
G75*
G02*
X6909750Y-24229000I243750J0D01*
G01*
X7822250Y-24229000D01*
G75*
G02*
X8066000Y-24472750I0J-243750D01*
G01*
X8066000Y-24960250D01*
G75*
G02*
X7822250Y-25204000I-243750J0D01*
G01*
G37*
D12*
X98265000Y-80264000D03*
X103665000Y-80264000D03*
D13*
X106935000Y-90932000D03*
X110235000Y-90932000D03*
D14*
X148560000Y-59900000D03*
X146020000Y-59900000D03*
X143480000Y-59900000D03*
X140940000Y-59900000D03*
X138400000Y-59900000D03*
D15*
X102870000Y-89880000D03*
X102870000Y-85380000D03*
D16*
X87122000Y-89916000D03*
D17*
X84582000Y-89916000D03*
X24628000Y-33528000D03*
D16*
X27168000Y-33528000D03*
G36*
G01*
X62288000Y-87935750D02*
X62288000Y-88848250D01*
G75*
G02*
X62044250Y-89092000I-243750J0D01*
G01*
X61556750Y-89092000D01*
G75*
G02*
X61313000Y-88848250I0J243750D01*
G01*
X61313000Y-87935750D01*
G75*
G02*
X61556750Y-87692000I243750J0D01*
G01*
X62044250Y-87692000D01*
G75*
G02*
X62288000Y-87935750I0J-243750D01*
G01*
G37*
G36*
G01*
X64163000Y-87935750D02*
X64163000Y-88848250D01*
G75*
G02*
X63919250Y-89092000I-243750J0D01*
G01*
X63431750Y-89092000D01*
G75*
G02*
X63188000Y-88848250I0J243750D01*
G01*
X63188000Y-87935750D01*
G75*
G02*
X63431750Y-87692000I243750J0D01*
G01*
X63919250Y-87692000D01*
G75*
G02*
X64163000Y-87935750I0J-243750D01*
G01*
G37*
G36*
G01*
X114210250Y-87014500D02*
X113297750Y-87014500D01*
G75*
G02*
X113054000Y-86770750I0J243750D01*
G01*
X113054000Y-86283250D01*
G75*
G02*
X113297750Y-86039500I243750J0D01*
G01*
X114210250Y-86039500D01*
G75*
G02*
X114454000Y-86283250I0J-243750D01*
G01*
X114454000Y-86770750D01*
G75*
G02*
X114210250Y-87014500I-243750J0D01*
G01*
G37*
G36*
G01*
X114210250Y-88889500D02*
X113297750Y-88889500D01*
G75*
G02*
X113054000Y-88645750I0J243750D01*
G01*
X113054000Y-88158250D01*
G75*
G02*
X113297750Y-87914500I243750J0D01*
G01*
X114210250Y-87914500D01*
G75*
G02*
X114454000Y-88158250I0J-243750D01*
G01*
X114454000Y-88645750D01*
G75*
G02*
X114210250Y-88889500I-243750J0D01*
G01*
G37*
G36*
G01*
X112827750Y-84094500D02*
X113740250Y-84094500D01*
G75*
G02*
X113984000Y-84338250I0J-243750D01*
G01*
X113984000Y-84825750D01*
G75*
G02*
X113740250Y-85069500I-243750J0D01*
G01*
X112827750Y-85069500D01*
G75*
G02*
X112584000Y-84825750I0J243750D01*
G01*
X112584000Y-84338250D01*
G75*
G02*
X112827750Y-84094500I243750J0D01*
G01*
G37*
G36*
G01*
X112827750Y-82219500D02*
X113740250Y-82219500D01*
G75*
G02*
X113984000Y-82463250I0J-243750D01*
G01*
X113984000Y-82950750D01*
G75*
G02*
X113740250Y-83194500I-243750J0D01*
G01*
X112827750Y-83194500D01*
G75*
G02*
X112584000Y-82950750I0J243750D01*
G01*
X112584000Y-82463250D01*
G75*
G02*
X112827750Y-82219500I243750J0D01*
G01*
G37*
D18*
X7024000Y-9821000D03*
X7024000Y-15071000D03*
X8724000Y-15071000D03*
X8724000Y-9821000D03*
X8724000Y-30903000D03*
X8724000Y-36153000D03*
X7024000Y-36153000D03*
X7024000Y-30903000D03*
D10*
X89450000Y-102450000D03*
X94700000Y-102450000D03*
X94700000Y-100750000D03*
X89450000Y-100750000D03*
D19*
X62276000Y-10041000D03*
X64676000Y-9091000D03*
X64676000Y-10991000D03*
G36*
G01*
X110640000Y-96290000D02*
X110340000Y-96290000D01*
G75*
G02*
X110190000Y-96140000I0J150000D01*
G01*
X110190000Y-94490000D01*
G75*
G02*
X110340000Y-94340000I150000J0D01*
G01*
X110640000Y-94340000D01*
G75*
G02*
X110790000Y-94490000I0J-150000D01*
G01*
X110790000Y-96140000D01*
G75*
G02*
X110640000Y-96290000I-150000J0D01*
G01*
G37*
G36*
G01*
X111910000Y-96290000D02*
X111610000Y-96290000D01*
G75*
G02*
X111460000Y-96140000I0J150000D01*
G01*
X111460000Y-94490000D01*
G75*
G02*
X111610000Y-94340000I150000J0D01*
G01*
X111910000Y-94340000D01*
G75*
G02*
X112060000Y-94490000I0J-150000D01*
G01*
X112060000Y-96140000D01*
G75*
G02*
X111910000Y-96290000I-150000J0D01*
G01*
G37*
G36*
G01*
X113180000Y-96290000D02*
X112880000Y-96290000D01*
G75*
G02*
X112730000Y-96140000I0J150000D01*
G01*
X112730000Y-94490000D01*
G75*
G02*
X112880000Y-94340000I150000J0D01*
G01*
X113180000Y-94340000D01*
G75*
G02*
X113330000Y-94490000I0J-150000D01*
G01*
X113330000Y-96140000D01*
G75*
G02*
X113180000Y-96290000I-150000J0D01*
G01*
G37*
G36*
G01*
X114450000Y-96290000D02*
X114150000Y-96290000D01*
G75*
G02*
X114000000Y-96140000I0J150000D01*
G01*
X114000000Y-94490000D01*
G75*
G02*
X114150000Y-94340000I150000J0D01*
G01*
X114450000Y-94340000D01*
G75*
G02*
X114600000Y-94490000I0J-150000D01*
G01*
X114600000Y-96140000D01*
G75*
G02*
X114450000Y-96290000I-150000J0D01*
G01*
G37*
G36*
G01*
X114450000Y-101240000D02*
X114150000Y-101240000D01*
G75*
G02*
X114000000Y-101090000I0J150000D01*
G01*
X114000000Y-99440000D01*
G75*
G02*
X114150000Y-99290000I150000J0D01*
G01*
X114450000Y-99290000D01*
G75*
G02*
X114600000Y-99440000I0J-150000D01*
G01*
X114600000Y-101090000D01*
G75*
G02*
X114450000Y-101240000I-150000J0D01*
G01*
G37*
G36*
G01*
X113180000Y-101240000D02*
X112880000Y-101240000D01*
G75*
G02*
X112730000Y-101090000I0J150000D01*
G01*
X112730000Y-99440000D01*
G75*
G02*
X112880000Y-99290000I150000J0D01*
G01*
X113180000Y-99290000D01*
G75*
G02*
X113330000Y-99440000I0J-150000D01*
G01*
X113330000Y-101090000D01*
G75*
G02*
X113180000Y-101240000I-150000J0D01*
G01*
G37*
G36*
G01*
X111910000Y-101240000D02*
X111610000Y-101240000D01*
G75*
G02*
X111460000Y-101090000I0J150000D01*
G01*
X111460000Y-99440000D01*
G75*
G02*
X111610000Y-99290000I150000J0D01*
G01*
X111910000Y-99290000D01*
G75*
G02*
X112060000Y-99440000I0J-150000D01*
G01*
X112060000Y-101090000D01*
G75*
G02*
X111910000Y-101240000I-150000J0D01*
G01*
G37*
G36*
G01*
X110640000Y-101240000D02*
X110340000Y-101240000D01*
G75*
G02*
X110190000Y-101090000I0J150000D01*
G01*
X110190000Y-99440000D01*
G75*
G02*
X110340000Y-99290000I150000J0D01*
G01*
X110640000Y-99290000D01*
G75*
G02*
X110790000Y-99440000I0J-150000D01*
G01*
X110790000Y-101090000D01*
G75*
G02*
X110640000Y-101240000I-150000J0D01*
G01*
G37*
D20*
X58420000Y-67056000D03*
X57770000Y-67056000D03*
X57120000Y-67056000D03*
X56470000Y-67056000D03*
X55820000Y-67056000D03*
X55170000Y-67056000D03*
X54520000Y-67056000D03*
X53870000Y-67056000D03*
X53870000Y-72606000D03*
X54520000Y-72606000D03*
X55170000Y-72606000D03*
X55820000Y-72606000D03*
X56470000Y-72606000D03*
X57120000Y-72606000D03*
X57770000Y-72606000D03*
X58420000Y-72606000D03*
D21*
X56145000Y-69831000D03*
D22*
X107925000Y-100090000D03*
X107925000Y-95490000D03*
X107925000Y-97790000D03*
D23*
X101625000Y-97790000D03*
G36*
G01*
X69546688Y-85067666D02*
X69652754Y-84961600D01*
G75*
G02*
X69758820Y-84961600I53033J-53033D01*
G01*
X70695736Y-85898516D01*
G75*
G02*
X70695736Y-86004582I-53033J-53033D01*
G01*
X70589670Y-86110648D01*
G75*
G02*
X70483604Y-86110648I-53033J53033D01*
G01*
X69546688Y-85173732D01*
G75*
G02*
X69546688Y-85067666I53033J53033D01*
G01*
G37*
G36*
G01*
X69193134Y-85421220D02*
X69299200Y-85315154D01*
G75*
G02*
X69405266Y-85315154I53033J-53033D01*
G01*
X70342182Y-86252070D01*
G75*
G02*
X70342182Y-86358136I-53033J-53033D01*
G01*
X70236116Y-86464202D01*
G75*
G02*
X70130050Y-86464202I-53033J53033D01*
G01*
X69193134Y-85527286D01*
G75*
G02*
X69193134Y-85421220I53033J53033D01*
G01*
G37*
G36*
G01*
X68839581Y-85774773D02*
X68945647Y-85668707D01*
G75*
G02*
X69051713Y-85668707I53033J-53033D01*
G01*
X69988629Y-86605623D01*
G75*
G02*
X69988629Y-86711689I-53033J-53033D01*
G01*
X69882563Y-86817755D01*
G75*
G02*
X69776497Y-86817755I-53033J53033D01*
G01*
X68839581Y-85880839D01*
G75*
G02*
X68839581Y-85774773I53033J53033D01*
G01*
G37*
G36*
G01*
X68486027Y-86128327D02*
X68592093Y-86022261D01*
G75*
G02*
X68698159Y-86022261I53033J-53033D01*
G01*
X69635075Y-86959177D01*
G75*
G02*
X69635075Y-87065243I-53033J-53033D01*
G01*
X69529009Y-87171309D01*
G75*
G02*
X69422943Y-87171309I-53033J53033D01*
G01*
X68486027Y-86234393D01*
G75*
G02*
X68486027Y-86128327I53033J53033D01*
G01*
G37*
G36*
G01*
X68132474Y-86481880D02*
X68238540Y-86375814D01*
G75*
G02*
X68344606Y-86375814I53033J-53033D01*
G01*
X69281522Y-87312730D01*
G75*
G02*
X69281522Y-87418796I-53033J-53033D01*
G01*
X69175456Y-87524862D01*
G75*
G02*
X69069390Y-87524862I-53033J53033D01*
G01*
X68132474Y-86587946D01*
G75*
G02*
X68132474Y-86481880I53033J53033D01*
G01*
G37*
G36*
G01*
X67778921Y-86835433D02*
X67884987Y-86729367D01*
G75*
G02*
X67991053Y-86729367I53033J-53033D01*
G01*
X68927969Y-87666283D01*
G75*
G02*
X68927969Y-87772349I-53033J-53033D01*
G01*
X68821903Y-87878415D01*
G75*
G02*
X68715837Y-87878415I-53033J53033D01*
G01*
X67778921Y-86941499D01*
G75*
G02*
X67778921Y-86835433I53033J53033D01*
G01*
G37*
G36*
G01*
X67425367Y-87188987D02*
X67531433Y-87082921D01*
G75*
G02*
X67637499Y-87082921I53033J-53033D01*
G01*
X68574415Y-88019837D01*
G75*
G02*
X68574415Y-88125903I-53033J-53033D01*
G01*
X68468349Y-88231969D01*
G75*
G02*
X68362283Y-88231969I-53033J53033D01*
G01*
X67425367Y-87295053D01*
G75*
G02*
X67425367Y-87188987I53033J53033D01*
G01*
G37*
G36*
G01*
X67071814Y-87542540D02*
X67177880Y-87436474D01*
G75*
G02*
X67283946Y-87436474I53033J-53033D01*
G01*
X68220862Y-88373390D01*
G75*
G02*
X68220862Y-88479456I-53033J-53033D01*
G01*
X68114796Y-88585522D01*
G75*
G02*
X68008730Y-88585522I-53033J53033D01*
G01*
X67071814Y-87648606D01*
G75*
G02*
X67071814Y-87542540I53033J53033D01*
G01*
G37*
G36*
G01*
X66718261Y-87896093D02*
X66824327Y-87790027D01*
G75*
G02*
X66930393Y-87790027I53033J-53033D01*
G01*
X67867309Y-88726943D01*
G75*
G02*
X67867309Y-88833009I-53033J-53033D01*
G01*
X67761243Y-88939075D01*
G75*
G02*
X67655177Y-88939075I-53033J53033D01*
G01*
X66718261Y-88002159D01*
G75*
G02*
X66718261Y-87896093I53033J53033D01*
G01*
G37*
G36*
G01*
X66364707Y-88249647D02*
X66470773Y-88143581D01*
G75*
G02*
X66576839Y-88143581I53033J-53033D01*
G01*
X67513755Y-89080497D01*
G75*
G02*
X67513755Y-89186563I-53033J-53033D01*
G01*
X67407689Y-89292629D01*
G75*
G02*
X67301623Y-89292629I-53033J53033D01*
G01*
X66364707Y-88355713D01*
G75*
G02*
X66364707Y-88249647I53033J53033D01*
G01*
G37*
G36*
G01*
X66011154Y-88603200D02*
X66117220Y-88497134D01*
G75*
G02*
X66223286Y-88497134I53033J-53033D01*
G01*
X67160202Y-89434050D01*
G75*
G02*
X67160202Y-89540116I-53033J-53033D01*
G01*
X67054136Y-89646182D01*
G75*
G02*
X66948070Y-89646182I-53033J53033D01*
G01*
X66011154Y-88709266D01*
G75*
G02*
X66011154Y-88603200I53033J53033D01*
G01*
G37*
G36*
G01*
X65657600Y-88956754D02*
X65763666Y-88850688D01*
G75*
G02*
X65869732Y-88850688I53033J-53033D01*
G01*
X66806648Y-89787604D01*
G75*
G02*
X66806648Y-89893670I-53033J-53033D01*
G01*
X66700582Y-89999736D01*
G75*
G02*
X66594516Y-89999736I-53033J53033D01*
G01*
X65657600Y-89062820D01*
G75*
G02*
X65657600Y-88956754I53033J53033D01*
G01*
G37*
G36*
G01*
X65657600Y-91785180D02*
X66594516Y-90848264D01*
G75*
G02*
X66700582Y-90848264I53033J-53033D01*
G01*
X66806648Y-90954330D01*
G75*
G02*
X66806648Y-91060396I-53033J-53033D01*
G01*
X65869732Y-91997312D01*
G75*
G02*
X65763666Y-91997312I-53033J53033D01*
G01*
X65657600Y-91891246D01*
G75*
G02*
X65657600Y-91785180I53033J53033D01*
G01*
G37*
G36*
G01*
X66011154Y-92138734D02*
X66948070Y-91201818D01*
G75*
G02*
X67054136Y-91201818I53033J-53033D01*
G01*
X67160202Y-91307884D01*
G75*
G02*
X67160202Y-91413950I-53033J-53033D01*
G01*
X66223286Y-92350866D01*
G75*
G02*
X66117220Y-92350866I-53033J53033D01*
G01*
X66011154Y-92244800D01*
G75*
G02*
X66011154Y-92138734I53033J53033D01*
G01*
G37*
G36*
G01*
X66364707Y-92492287D02*
X67301623Y-91555371D01*
G75*
G02*
X67407689Y-91555371I53033J-53033D01*
G01*
X67513755Y-91661437D01*
G75*
G02*
X67513755Y-91767503I-53033J-53033D01*
G01*
X66576839Y-92704419D01*
G75*
G02*
X66470773Y-92704419I-53033J53033D01*
G01*
X66364707Y-92598353D01*
G75*
G02*
X66364707Y-92492287I53033J53033D01*
G01*
G37*
G36*
G01*
X66718261Y-92845841D02*
X67655177Y-91908925D01*
G75*
G02*
X67761243Y-91908925I53033J-53033D01*
G01*
X67867309Y-92014991D01*
G75*
G02*
X67867309Y-92121057I-53033J-53033D01*
G01*
X66930393Y-93057973D01*
G75*
G02*
X66824327Y-93057973I-53033J53033D01*
G01*
X66718261Y-92951907D01*
G75*
G02*
X66718261Y-92845841I53033J53033D01*
G01*
G37*
G36*
G01*
X67071814Y-93199394D02*
X68008730Y-92262478D01*
G75*
G02*
X68114796Y-92262478I53033J-53033D01*
G01*
X68220862Y-92368544D01*
G75*
G02*
X68220862Y-92474610I-53033J-53033D01*
G01*
X67283946Y-93411526D01*
G75*
G02*
X67177880Y-93411526I-53033J53033D01*
G01*
X67071814Y-93305460D01*
G75*
G02*
X67071814Y-93199394I53033J53033D01*
G01*
G37*
G36*
G01*
X67425367Y-93552947D02*
X68362283Y-92616031D01*
G75*
G02*
X68468349Y-92616031I53033J-53033D01*
G01*
X68574415Y-92722097D01*
G75*
G02*
X68574415Y-92828163I-53033J-53033D01*
G01*
X67637499Y-93765079D01*
G75*
G02*
X67531433Y-93765079I-53033J53033D01*
G01*
X67425367Y-93659013D01*
G75*
G02*
X67425367Y-93552947I53033J53033D01*
G01*
G37*
G36*
G01*
X67778921Y-93906501D02*
X68715837Y-92969585D01*
G75*
G02*
X68821903Y-92969585I53033J-53033D01*
G01*
X68927969Y-93075651D01*
G75*
G02*
X68927969Y-93181717I-53033J-53033D01*
G01*
X67991053Y-94118633D01*
G75*
G02*
X67884987Y-94118633I-53033J53033D01*
G01*
X67778921Y-94012567D01*
G75*
G02*
X67778921Y-93906501I53033J53033D01*
G01*
G37*
G36*
G01*
X68132474Y-94260054D02*
X69069390Y-93323138D01*
G75*
G02*
X69175456Y-93323138I53033J-53033D01*
G01*
X69281522Y-93429204D01*
G75*
G02*
X69281522Y-93535270I-53033J-53033D01*
G01*
X68344606Y-94472186D01*
G75*
G02*
X68238540Y-94472186I-53033J53033D01*
G01*
X68132474Y-94366120D01*
G75*
G02*
X68132474Y-94260054I53033J53033D01*
G01*
G37*
G36*
G01*
X68486027Y-94613607D02*
X69422943Y-93676691D01*
G75*
G02*
X69529009Y-93676691I53033J-53033D01*
G01*
X69635075Y-93782757D01*
G75*
G02*
X69635075Y-93888823I-53033J-53033D01*
G01*
X68698159Y-94825739D01*
G75*
G02*
X68592093Y-94825739I-53033J53033D01*
G01*
X68486027Y-94719673D01*
G75*
G02*
X68486027Y-94613607I53033J53033D01*
G01*
G37*
G36*
G01*
X68839581Y-94967161D02*
X69776497Y-94030245D01*
G75*
G02*
X69882563Y-94030245I53033J-53033D01*
G01*
X69988629Y-94136311D01*
G75*
G02*
X69988629Y-94242377I-53033J-53033D01*
G01*
X69051713Y-95179293D01*
G75*
G02*
X68945647Y-95179293I-53033J53033D01*
G01*
X68839581Y-95073227D01*
G75*
G02*
X68839581Y-94967161I53033J53033D01*
G01*
G37*
G36*
G01*
X69193134Y-95320714D02*
X70130050Y-94383798D01*
G75*
G02*
X70236116Y-94383798I53033J-53033D01*
G01*
X70342182Y-94489864D01*
G75*
G02*
X70342182Y-94595930I-53033J-53033D01*
G01*
X69405266Y-95532846D01*
G75*
G02*
X69299200Y-95532846I-53033J53033D01*
G01*
X69193134Y-95426780D01*
G75*
G02*
X69193134Y-95320714I53033J53033D01*
G01*
G37*
G36*
G01*
X69546688Y-95674268D02*
X70483604Y-94737352D01*
G75*
G02*
X70589670Y-94737352I53033J-53033D01*
G01*
X70695736Y-94843418D01*
G75*
G02*
X70695736Y-94949484I-53033J-53033D01*
G01*
X69758820Y-95886400D01*
G75*
G02*
X69652754Y-95886400I-53033J53033D01*
G01*
X69546688Y-95780334D01*
G75*
G02*
X69546688Y-95674268I53033J53033D01*
G01*
G37*
G36*
G01*
X71544264Y-94843418D02*
X71650330Y-94737352D01*
G75*
G02*
X71756396Y-94737352I53033J-53033D01*
G01*
X72693312Y-95674268D01*
G75*
G02*
X72693312Y-95780334I-53033J-53033D01*
G01*
X72587246Y-95886400D01*
G75*
G02*
X72481180Y-95886400I-53033J53033D01*
G01*
X71544264Y-94949484D01*
G75*
G02*
X71544264Y-94843418I53033J53033D01*
G01*
G37*
G36*
G01*
X71897818Y-94489864D02*
X72003884Y-94383798D01*
G75*
G02*
X72109950Y-94383798I53033J-53033D01*
G01*
X73046866Y-95320714D01*
G75*
G02*
X73046866Y-95426780I-53033J-53033D01*
G01*
X72940800Y-95532846D01*
G75*
G02*
X72834734Y-95532846I-53033J53033D01*
G01*
X71897818Y-94595930D01*
G75*
G02*
X71897818Y-94489864I53033J53033D01*
G01*
G37*
G36*
G01*
X72251371Y-94136311D02*
X72357437Y-94030245D01*
G75*
G02*
X72463503Y-94030245I53033J-53033D01*
G01*
X73400419Y-94967161D01*
G75*
G02*
X73400419Y-95073227I-53033J-53033D01*
G01*
X73294353Y-95179293D01*
G75*
G02*
X73188287Y-95179293I-53033J53033D01*
G01*
X72251371Y-94242377D01*
G75*
G02*
X72251371Y-94136311I53033J53033D01*
G01*
G37*
G36*
G01*
X72604925Y-93782757D02*
X72710991Y-93676691D01*
G75*
G02*
X72817057Y-93676691I53033J-53033D01*
G01*
X73753973Y-94613607D01*
G75*
G02*
X73753973Y-94719673I-53033J-53033D01*
G01*
X73647907Y-94825739D01*
G75*
G02*
X73541841Y-94825739I-53033J53033D01*
G01*
X72604925Y-93888823D01*
G75*
G02*
X72604925Y-93782757I53033J53033D01*
G01*
G37*
G36*
G01*
X72958478Y-93429204D02*
X73064544Y-93323138D01*
G75*
G02*
X73170610Y-93323138I53033J-53033D01*
G01*
X74107526Y-94260054D01*
G75*
G02*
X74107526Y-94366120I-53033J-53033D01*
G01*
X74001460Y-94472186D01*
G75*
G02*
X73895394Y-94472186I-53033J53033D01*
G01*
X72958478Y-93535270D01*
G75*
G02*
X72958478Y-93429204I53033J53033D01*
G01*
G37*
G36*
G01*
X73312031Y-93075651D02*
X73418097Y-92969585D01*
G75*
G02*
X73524163Y-92969585I53033J-53033D01*
G01*
X74461079Y-93906501D01*
G75*
G02*
X74461079Y-94012567I-53033J-53033D01*
G01*
X74355013Y-94118633D01*
G75*
G02*
X74248947Y-94118633I-53033J53033D01*
G01*
X73312031Y-93181717D01*
G75*
G02*
X73312031Y-93075651I53033J53033D01*
G01*
G37*
G36*
G01*
X73665585Y-92722097D02*
X73771651Y-92616031D01*
G75*
G02*
X73877717Y-92616031I53033J-53033D01*
G01*
X74814633Y-93552947D01*
G75*
G02*
X74814633Y-93659013I-53033J-53033D01*
G01*
X74708567Y-93765079D01*
G75*
G02*
X74602501Y-93765079I-53033J53033D01*
G01*
X73665585Y-92828163D01*
G75*
G02*
X73665585Y-92722097I53033J53033D01*
G01*
G37*
G36*
G01*
X74019138Y-92368544D02*
X74125204Y-92262478D01*
G75*
G02*
X74231270Y-92262478I53033J-53033D01*
G01*
X75168186Y-93199394D01*
G75*
G02*
X75168186Y-93305460I-53033J-53033D01*
G01*
X75062120Y-93411526D01*
G75*
G02*
X74956054Y-93411526I-53033J53033D01*
G01*
X74019138Y-92474610D01*
G75*
G02*
X74019138Y-92368544I53033J53033D01*
G01*
G37*
G36*
G01*
X74372691Y-92014991D02*
X74478757Y-91908925D01*
G75*
G02*
X74584823Y-91908925I53033J-53033D01*
G01*
X75521739Y-92845841D01*
G75*
G02*
X75521739Y-92951907I-53033J-53033D01*
G01*
X75415673Y-93057973D01*
G75*
G02*
X75309607Y-93057973I-53033J53033D01*
G01*
X74372691Y-92121057D01*
G75*
G02*
X74372691Y-92014991I53033J53033D01*
G01*
G37*
G36*
G01*
X74726245Y-91661437D02*
X74832311Y-91555371D01*
G75*
G02*
X74938377Y-91555371I53033J-53033D01*
G01*
X75875293Y-92492287D01*
G75*
G02*
X75875293Y-92598353I-53033J-53033D01*
G01*
X75769227Y-92704419D01*
G75*
G02*
X75663161Y-92704419I-53033J53033D01*
G01*
X74726245Y-91767503D01*
G75*
G02*
X74726245Y-91661437I53033J53033D01*
G01*
G37*
G36*
G01*
X75079798Y-91307884D02*
X75185864Y-91201818D01*
G75*
G02*
X75291930Y-91201818I53033J-53033D01*
G01*
X76228846Y-92138734D01*
G75*
G02*
X76228846Y-92244800I-53033J-53033D01*
G01*
X76122780Y-92350866D01*
G75*
G02*
X76016714Y-92350866I-53033J53033D01*
G01*
X75079798Y-91413950D01*
G75*
G02*
X75079798Y-91307884I53033J53033D01*
G01*
G37*
G36*
G01*
X75433352Y-90954330D02*
X75539418Y-90848264D01*
G75*
G02*
X75645484Y-90848264I53033J-53033D01*
G01*
X76582400Y-91785180D01*
G75*
G02*
X76582400Y-91891246I-53033J-53033D01*
G01*
X76476334Y-91997312D01*
G75*
G02*
X76370268Y-91997312I-53033J53033D01*
G01*
X75433352Y-91060396D01*
G75*
G02*
X75433352Y-90954330I53033J53033D01*
G01*
G37*
G36*
G01*
X75433352Y-89787604D02*
X76370268Y-88850688D01*
G75*
G02*
X76476334Y-88850688I53033J-53033D01*
G01*
X76582400Y-88956754D01*
G75*
G02*
X76582400Y-89062820I-53033J-53033D01*
G01*
X75645484Y-89999736D01*
G75*
G02*
X75539418Y-89999736I-53033J53033D01*
G01*
X75433352Y-89893670D01*
G75*
G02*
X75433352Y-89787604I53033J53033D01*
G01*
G37*
G36*
G01*
X75079798Y-89434050D02*
X76016714Y-88497134D01*
G75*
G02*
X76122780Y-88497134I53033J-53033D01*
G01*
X76228846Y-88603200D01*
G75*
G02*
X76228846Y-88709266I-53033J-53033D01*
G01*
X75291930Y-89646182D01*
G75*
G02*
X75185864Y-89646182I-53033J53033D01*
G01*
X75079798Y-89540116D01*
G75*
G02*
X75079798Y-89434050I53033J53033D01*
G01*
G37*
G36*
G01*
X74726245Y-89080497D02*
X75663161Y-88143581D01*
G75*
G02*
X75769227Y-88143581I53033J-53033D01*
G01*
X75875293Y-88249647D01*
G75*
G02*
X75875293Y-88355713I-53033J-53033D01*
G01*
X74938377Y-89292629D01*
G75*
G02*
X74832311Y-89292629I-53033J53033D01*
G01*
X74726245Y-89186563D01*
G75*
G02*
X74726245Y-89080497I53033J53033D01*
G01*
G37*
G36*
G01*
X74372691Y-88726943D02*
X75309607Y-87790027D01*
G75*
G02*
X75415673Y-87790027I53033J-53033D01*
G01*
X75521739Y-87896093D01*
G75*
G02*
X75521739Y-88002159I-53033J-53033D01*
G01*
X74584823Y-88939075D01*
G75*
G02*
X74478757Y-88939075I-53033J53033D01*
G01*
X74372691Y-88833009D01*
G75*
G02*
X74372691Y-88726943I53033J53033D01*
G01*
G37*
G36*
G01*
X74019138Y-88373390D02*
X74956054Y-87436474D01*
G75*
G02*
X75062120Y-87436474I53033J-53033D01*
G01*
X75168186Y-87542540D01*
G75*
G02*
X75168186Y-87648606I-53033J-53033D01*
G01*
X74231270Y-88585522D01*
G75*
G02*
X74125204Y-88585522I-53033J53033D01*
G01*
X74019138Y-88479456D01*
G75*
G02*
X74019138Y-88373390I53033J53033D01*
G01*
G37*
G36*
G01*
X73665585Y-88019837D02*
X74602501Y-87082921D01*
G75*
G02*
X74708567Y-87082921I53033J-53033D01*
G01*
X74814633Y-87188987D01*
G75*
G02*
X74814633Y-87295053I-53033J-53033D01*
G01*
X73877717Y-88231969D01*
G75*
G02*
X73771651Y-88231969I-53033J53033D01*
G01*
X73665585Y-88125903D01*
G75*
G02*
X73665585Y-88019837I53033J53033D01*
G01*
G37*
G36*
G01*
X73312031Y-87666283D02*
X74248947Y-86729367D01*
G75*
G02*
X74355013Y-86729367I53033J-53033D01*
G01*
X74461079Y-86835433D01*
G75*
G02*
X74461079Y-86941499I-53033J-53033D01*
G01*
X73524163Y-87878415D01*
G75*
G02*
X73418097Y-87878415I-53033J53033D01*
G01*
X73312031Y-87772349D01*
G75*
G02*
X73312031Y-87666283I53033J53033D01*
G01*
G37*
G36*
G01*
X72958478Y-87312730D02*
X73895394Y-86375814D01*
G75*
G02*
X74001460Y-86375814I53033J-53033D01*
G01*
X74107526Y-86481880D01*
G75*
G02*
X74107526Y-86587946I-53033J-53033D01*
G01*
X73170610Y-87524862D01*
G75*
G02*
X73064544Y-87524862I-53033J53033D01*
G01*
X72958478Y-87418796D01*
G75*
G02*
X72958478Y-87312730I53033J53033D01*
G01*
G37*
G36*
G01*
X72604925Y-86959177D02*
X73541841Y-86022261D01*
G75*
G02*
X73647907Y-86022261I53033J-53033D01*
G01*
X73753973Y-86128327D01*
G75*
G02*
X73753973Y-86234393I-53033J-53033D01*
G01*
X72817057Y-87171309D01*
G75*
G02*
X72710991Y-87171309I-53033J53033D01*
G01*
X72604925Y-87065243D01*
G75*
G02*
X72604925Y-86959177I53033J53033D01*
G01*
G37*
G36*
G01*
X72251371Y-86605623D02*
X73188287Y-85668707D01*
G75*
G02*
X73294353Y-85668707I53033J-53033D01*
G01*
X73400419Y-85774773D01*
G75*
G02*
X73400419Y-85880839I-53033J-53033D01*
G01*
X72463503Y-86817755D01*
G75*
G02*
X72357437Y-86817755I-53033J53033D01*
G01*
X72251371Y-86711689D01*
G75*
G02*
X72251371Y-86605623I53033J53033D01*
G01*
G37*
G36*
G01*
X71897818Y-86252070D02*
X72834734Y-85315154D01*
G75*
G02*
X72940800Y-85315154I53033J-53033D01*
G01*
X73046866Y-85421220D01*
G75*
G02*
X73046866Y-85527286I-53033J-53033D01*
G01*
X72109950Y-86464202D01*
G75*
G02*
X72003884Y-86464202I-53033J53033D01*
G01*
X71897818Y-86358136D01*
G75*
G02*
X71897818Y-86252070I53033J53033D01*
G01*
G37*
G36*
G01*
X71544264Y-85898516D02*
X72481180Y-84961600D01*
G75*
G02*
X72587246Y-84961600I53033J-53033D01*
G01*
X72693312Y-85067666D01*
G75*
G02*
X72693312Y-85173732I-53033J-53033D01*
G01*
X71756396Y-86110648D01*
G75*
G02*
X71650330Y-86110648I-53033J53033D01*
G01*
X71544264Y-86004582D01*
G75*
G02*
X71544264Y-85898516I53033J53033D01*
G01*
G37*
D24*
X107485000Y-83947000D03*
X107485000Y-84897000D03*
X107485000Y-82997000D03*
X109685000Y-82997000D03*
X109685000Y-83947000D03*
X109685000Y-84897000D03*
D25*
X67744000Y-82430000D03*
X64844000Y-82430000D03*
X64844000Y-80130000D03*
X67744000Y-80130000D03*
D16*
X114300000Y-103505000D03*
X111760000Y-103505000D03*
X109220000Y-103505000D03*
X106680000Y-103505000D03*
X104140000Y-103505000D03*
D17*
X101600000Y-103505000D03*
G36*
G01*
X14512500Y-7456250D02*
X14512500Y-6543750D01*
G75*
G02*
X14756250Y-6300000I243750J0D01*
G01*
X15243750Y-6300000D01*
G75*
G02*
X15487500Y-6543750I0J-243750D01*
G01*
X15487500Y-7456250D01*
G75*
G02*
X15243750Y-7700000I-243750J0D01*
G01*
X14756250Y-7700000D01*
G75*
G02*
X14512500Y-7456250I0J243750D01*
G01*
G37*
G36*
G01*
X12637500Y-7456250D02*
X12637500Y-6543750D01*
G75*
G02*
X12881250Y-6300000I243750J0D01*
G01*
X13368750Y-6300000D01*
G75*
G02*
X13612500Y-6543750I0J-243750D01*
G01*
X13612500Y-7456250D01*
G75*
G02*
X13368750Y-7700000I-243750J0D01*
G01*
X12881250Y-7700000D01*
G75*
G02*
X12637500Y-7456250I0J243750D01*
G01*
G37*
G36*
G01*
X18075000Y-7456250D02*
X18075000Y-6543750D01*
G75*
G02*
X18318750Y-6300000I243750J0D01*
G01*
X18806250Y-6300000D01*
G75*
G02*
X19050000Y-6543750I0J-243750D01*
G01*
X19050000Y-7456250D01*
G75*
G02*
X18806250Y-7700000I-243750J0D01*
G01*
X18318750Y-7700000D01*
G75*
G02*
X18075000Y-7456250I0J243750D01*
G01*
G37*
G36*
G01*
X19950000Y-7456250D02*
X19950000Y-6543750D01*
G75*
G02*
X20193750Y-6300000I243750J0D01*
G01*
X20681250Y-6300000D01*
G75*
G02*
X20925000Y-6543750I0J-243750D01*
G01*
X20925000Y-7456250D01*
G75*
G02*
X20681250Y-7700000I-243750J0D01*
G01*
X20193750Y-7700000D01*
G75*
G02*
X19950000Y-7456250I0J243750D01*
G01*
G37*
G36*
G01*
X25450000Y-7456250D02*
X25450000Y-6543750D01*
G75*
G02*
X25693750Y-6300000I243750J0D01*
G01*
X26181250Y-6300000D01*
G75*
G02*
X26425000Y-6543750I0J-243750D01*
G01*
X26425000Y-7456250D01*
G75*
G02*
X26181250Y-7700000I-243750J0D01*
G01*
X25693750Y-7700000D01*
G75*
G02*
X25450000Y-7456250I0J243750D01*
G01*
G37*
G36*
G01*
X23575000Y-7456250D02*
X23575000Y-6543750D01*
G75*
G02*
X23818750Y-6300000I243750J0D01*
G01*
X24306250Y-6300000D01*
G75*
G02*
X24550000Y-6543750I0J-243750D01*
G01*
X24550000Y-7456250D01*
G75*
G02*
X24306250Y-7700000I-243750J0D01*
G01*
X23818750Y-7700000D01*
G75*
G02*
X23575000Y-7456250I0J243750D01*
G01*
G37*
G36*
G01*
X79485000Y-87376250D02*
X79485000Y-86463750D01*
G75*
G02*
X79728750Y-86220000I243750J0D01*
G01*
X80216250Y-86220000D01*
G75*
G02*
X80460000Y-86463750I0J-243750D01*
G01*
X80460000Y-87376250D01*
G75*
G02*
X80216250Y-87620000I-243750J0D01*
G01*
X79728750Y-87620000D01*
G75*
G02*
X79485000Y-87376250I0J243750D01*
G01*
G37*
G36*
G01*
X81360000Y-87376250D02*
X81360000Y-86463750D01*
G75*
G02*
X81603750Y-86220000I243750J0D01*
G01*
X82091250Y-86220000D01*
G75*
G02*
X82335000Y-86463750I0J-243750D01*
G01*
X82335000Y-87376250D01*
G75*
G02*
X82091250Y-87620000I-243750J0D01*
G01*
X81603750Y-87620000D01*
G75*
G02*
X81360000Y-87376250I0J243750D01*
G01*
G37*
G36*
G01*
X57973750Y-81455000D02*
X58886250Y-81455000D01*
G75*
G02*
X59130000Y-81698750I0J-243750D01*
G01*
X59130000Y-82186250D01*
G75*
G02*
X58886250Y-82430000I-243750J0D01*
G01*
X57973750Y-82430000D01*
G75*
G02*
X57730000Y-82186250I0J243750D01*
G01*
X57730000Y-81698750D01*
G75*
G02*
X57973750Y-81455000I243750J0D01*
G01*
G37*
G36*
G01*
X57973750Y-83330000D02*
X58886250Y-83330000D01*
G75*
G02*
X59130000Y-83573750I0J-243750D01*
G01*
X59130000Y-84061250D01*
G75*
G02*
X58886250Y-84305000I-243750J0D01*
G01*
X57973750Y-84305000D01*
G75*
G02*
X57730000Y-84061250I0J243750D01*
G01*
X57730000Y-83573750D01*
G75*
G02*
X57973750Y-83330000I243750J0D01*
G01*
G37*
D26*
X84630000Y-96790000D03*
X84630000Y-100690000D03*
X83360000Y-96790000D03*
X83360000Y-100690000D03*
X82090000Y-96790000D03*
X82090000Y-100690000D03*
X80820000Y-96790000D03*
X80820000Y-100690000D03*
X79550000Y-96790000D03*
X79550000Y-100690000D03*
M02*
