G04 #@! TF.GenerationSoftware,KiCad,Pcbnew,5.1.9+dfsg1-1~bpo10+1*
G04 #@! TF.CreationDate,2021-04-19T23:46:23+00:00*
G04 #@! TF.ProjectId,mobo,6d6f626f-2e6b-4696-9361-645f70636258,rev?*
G04 #@! TF.SameCoordinates,Original*
G04 #@! TF.FileFunction,Legend,Bot*
G04 #@! TF.FilePolarity,Positive*
%FSLAX46Y46*%
G04 Gerber Fmt 4.6, Leading zero omitted, Abs format (unit mm)*
G04 Created by KiCad (PCBNEW 5.1.9+dfsg1-1~bpo10+1) date 2021-04-19 23:46:23*
%MOMM*%
%LPD*%
G01*
G04 APERTURE LIST*
%ADD10C,0.150000*%
%ADD11C,0.010000*%
%ADD12C,0.120000*%
G04 APERTURE END LIST*
D10*
X190959642Y-62078571D02*
X190822738Y-62126190D01*
X190781071Y-62173809D01*
X190745357Y-62269047D01*
X190763214Y-62411904D01*
X190822738Y-62507142D01*
X190876309Y-62554761D01*
X190977500Y-62602380D01*
X191358452Y-62602380D01*
X191233452Y-61602380D01*
X190900119Y-61602380D01*
X190810833Y-61650000D01*
X190769166Y-61697619D01*
X190733452Y-61792857D01*
X190745357Y-61888095D01*
X190804880Y-61983333D01*
X190858452Y-62030952D01*
X190959642Y-62078571D01*
X191292976Y-62078571D01*
X190292976Y-62078571D02*
X189959642Y-62078571D01*
X189882261Y-62602380D02*
X190358452Y-62602380D01*
X190233452Y-61602380D01*
X189757261Y-61602380D01*
X189471547Y-61602380D02*
X188900119Y-61602380D01*
X189310833Y-62602380D02*
X189185833Y-61602380D01*
X188703690Y-62316666D02*
X188227500Y-62316666D01*
X188834642Y-62602380D02*
X188376309Y-61602380D01*
X188167976Y-62602380D01*
X187787023Y-62221428D02*
X187025119Y-62221428D01*
X186162023Y-62554761D02*
X186263214Y-62602380D01*
X186453690Y-62602380D01*
X186542976Y-62554761D01*
X186584642Y-62507142D01*
X186620357Y-62411904D01*
X186584642Y-62126190D01*
X186525119Y-62030952D01*
X186471547Y-61983333D01*
X186370357Y-61935714D01*
X186179880Y-61935714D01*
X186090595Y-61983333D01*
X185691785Y-62602380D02*
X185501309Y-62602380D01*
X185400119Y-62554761D01*
X185346547Y-62507142D01*
X185233452Y-62364285D01*
X185162023Y-62173809D01*
X185114404Y-61792857D01*
X185150119Y-61697619D01*
X185191785Y-61650000D01*
X185281071Y-61602380D01*
X185471547Y-61602380D01*
X185572738Y-61650000D01*
X185626309Y-61697619D01*
X185685833Y-61792857D01*
X185715595Y-62030952D01*
X185679880Y-62126190D01*
X185638214Y-62173809D01*
X185548928Y-62221428D01*
X185358452Y-62221428D01*
X185257261Y-62173809D01*
X185203690Y-62126190D01*
X185144166Y-62030952D01*
X184739404Y-62602380D02*
X184548928Y-62602380D01*
X184447738Y-62554761D01*
X184394166Y-62507142D01*
X184281071Y-62364285D01*
X184209642Y-62173809D01*
X184162023Y-61792857D01*
X184197738Y-61697619D01*
X184239404Y-61650000D01*
X184328690Y-61602380D01*
X184519166Y-61602380D01*
X184620357Y-61650000D01*
X184673928Y-61697619D01*
X184733452Y-61792857D01*
X184763214Y-62030952D01*
X184727500Y-62126190D01*
X184685833Y-62173809D01*
X184596547Y-62221428D01*
X184406071Y-62221428D01*
X184304880Y-62173809D01*
X184251309Y-62126190D01*
X184191785Y-62030952D01*
X183281071Y-61602380D02*
X183471547Y-61602380D01*
X183572738Y-61650000D01*
X183626309Y-61697619D01*
X183739404Y-61840476D01*
X183810833Y-62030952D01*
X183858452Y-62411904D01*
X183822738Y-62507142D01*
X183781071Y-62554761D01*
X183691785Y-62602380D01*
X183501309Y-62602380D01*
X183400119Y-62554761D01*
X183346547Y-62507142D01*
X183287023Y-62411904D01*
X183257261Y-62173809D01*
X183292976Y-62078571D01*
X183334642Y-62030952D01*
X183423928Y-61983333D01*
X183614404Y-61983333D01*
X183715595Y-62030952D01*
X183769166Y-62078571D01*
X183828690Y-62173809D01*
X182370357Y-61935714D02*
X182453690Y-62602380D01*
X182560833Y-61554761D02*
X182888214Y-62269047D01*
X182269166Y-62269047D01*
X181882261Y-62602380D02*
X181691785Y-62602380D01*
X181590595Y-62554761D01*
X181537023Y-62507142D01*
X181423928Y-62364285D01*
X181352500Y-62173809D01*
X181304880Y-61792857D01*
X181340595Y-61697619D01*
X181382261Y-61650000D01*
X181471547Y-61602380D01*
X181662023Y-61602380D01*
X181763214Y-61650000D01*
X181816785Y-61697619D01*
X181876309Y-61792857D01*
X181906071Y-62030952D01*
X181870357Y-62126190D01*
X181828690Y-62173809D01*
X181739404Y-62221428D01*
X181548928Y-62221428D01*
X181447738Y-62173809D01*
X181394166Y-62126190D01*
X181334642Y-62030952D01*
X180947738Y-61602380D02*
X180281071Y-61602380D01*
X180834642Y-62602380D01*
D11*
G36*
X186120000Y-60450000D02*
G01*
X186060000Y-60410000D01*
X186010000Y-60340000D01*
X185980000Y-60240000D01*
X185970000Y-60100000D01*
X185970000Y-59960000D01*
X185990000Y-59830000D01*
X186030000Y-59740000D01*
X186080000Y-59690000D01*
X186150000Y-59660000D01*
X186230000Y-59670000D01*
X186290000Y-59720000D01*
X186330000Y-59800000D01*
X186350000Y-59910000D01*
X186360000Y-60050000D01*
X186360000Y-60200000D01*
X186330000Y-60320000D01*
X186290000Y-60400000D01*
X186230000Y-60440000D01*
X186120000Y-60450000D01*
G37*
X186120000Y-60450000D02*
X186060000Y-60410000D01*
X186010000Y-60340000D01*
X185980000Y-60240000D01*
X185970000Y-60100000D01*
X185970000Y-59960000D01*
X185990000Y-59830000D01*
X186030000Y-59740000D01*
X186080000Y-59690000D01*
X186150000Y-59660000D01*
X186230000Y-59670000D01*
X186290000Y-59720000D01*
X186330000Y-59800000D01*
X186350000Y-59910000D01*
X186360000Y-60050000D01*
X186360000Y-60200000D01*
X186330000Y-60320000D01*
X186290000Y-60400000D01*
X186230000Y-60440000D01*
X186120000Y-60450000D01*
G36*
X190890000Y-60050000D02*
G01*
X190680000Y-60050000D01*
X190590000Y-60010000D01*
X190540000Y-59930000D01*
X190540000Y-59820000D01*
X190590000Y-59750000D01*
X190680000Y-59710000D01*
X190780000Y-59700000D01*
X190880000Y-59700000D01*
X190950000Y-59740000D01*
X190950000Y-60050000D01*
X190890000Y-60050000D01*
G37*
X190890000Y-60050000D02*
X190680000Y-60050000D01*
X190590000Y-60010000D01*
X190540000Y-59930000D01*
X190540000Y-59820000D01*
X190590000Y-59750000D01*
X190680000Y-59710000D01*
X190780000Y-59700000D01*
X190880000Y-59700000D01*
X190950000Y-59740000D01*
X190950000Y-60050000D01*
X190890000Y-60050000D01*
G36*
X191470000Y-59080000D02*
G01*
X191570000Y-59090000D01*
X191670000Y-59120000D01*
X191770000Y-59150000D01*
X191860000Y-59200000D01*
X191950000Y-59250000D01*
X192030000Y-59310000D01*
X192100000Y-59380000D01*
X192170000Y-59460000D01*
X192230000Y-59540000D01*
X192280000Y-59630000D01*
X192320000Y-59720000D01*
X192350000Y-59820000D01*
X192370000Y-59920000D01*
X192390000Y-60020000D01*
X192390000Y-60120000D01*
X192380000Y-60220000D01*
X192360000Y-60320000D01*
X192330000Y-60420000D01*
X192300000Y-60510000D01*
X192250000Y-60600000D01*
X192190000Y-60690000D01*
X192130000Y-60770000D01*
X192060000Y-60840000D01*
X191980000Y-60900000D01*
X191900000Y-60960000D01*
X191810000Y-61010000D01*
X191720000Y-61050000D01*
X191620000Y-61080000D01*
X191520000Y-61100000D01*
X191420000Y-61100000D01*
X191320000Y-61110000D01*
X184110000Y-61110000D01*
X184010000Y-61100000D01*
X183910000Y-61090000D01*
X183810000Y-61060000D01*
X183710000Y-61030000D01*
X183620000Y-60980000D01*
X183530000Y-60930000D01*
X183450000Y-60870000D01*
X183380000Y-60800000D01*
X183310000Y-60720000D01*
X183250000Y-60640000D01*
X183200000Y-60550000D01*
X183160000Y-60460000D01*
X183130000Y-60360000D01*
X183110000Y-60260000D01*
X183090000Y-60160000D01*
X183090000Y-60060000D01*
X183100000Y-59960000D01*
X183120000Y-59860000D01*
X183150000Y-59760000D01*
X183180000Y-59670000D01*
X183230000Y-59580000D01*
X183290000Y-59490000D01*
X183350000Y-59410000D01*
X183420000Y-59340000D01*
X183500000Y-59280000D01*
X183580000Y-59220000D01*
X183670000Y-59170000D01*
X183770000Y-59130000D01*
X183860000Y-59100000D01*
X183960000Y-59080000D01*
X184060000Y-59070000D01*
X184160000Y-59070000D01*
X191370000Y-59070000D01*
X191240000Y-59380000D01*
X191120000Y-59360000D01*
X190720000Y-59360000D01*
X190620000Y-59370000D01*
X190530000Y-59390000D01*
X190430000Y-59440000D01*
X190350000Y-59510000D01*
X190280000Y-59580000D01*
X190230000Y-59670000D01*
X190200000Y-59760000D01*
X190180000Y-59860000D01*
X190190000Y-59970000D01*
X190220000Y-60070000D01*
X190260000Y-60160000D01*
X190330000Y-60230000D01*
X190310000Y-60300000D01*
X190270000Y-60390000D01*
X190220000Y-60500000D01*
X190190000Y-60590000D01*
X190180000Y-60670000D01*
X189860000Y-60700000D01*
X189870000Y-60590000D01*
X189870000Y-59580000D01*
X189860000Y-59470000D01*
X189820000Y-59400000D01*
X189730000Y-59370000D01*
X189620000Y-59370000D01*
X188900000Y-59370000D01*
X188810000Y-59390000D01*
X188760000Y-59450000D01*
X188750000Y-59580000D01*
X188490000Y-59560000D01*
X188490000Y-59480000D01*
X188420000Y-59410000D01*
X188310000Y-59360000D01*
X188220000Y-59380000D01*
X188160000Y-59450000D01*
X188130000Y-59520000D01*
X187820000Y-60210000D01*
X187770000Y-60310000D01*
X187740000Y-60270000D01*
X187400000Y-59530000D01*
X187360000Y-59430000D01*
X187290000Y-59360000D01*
X187200000Y-59370000D01*
X187130000Y-59400000D01*
X187050000Y-59470000D01*
X187040000Y-59550000D01*
X186670000Y-59730000D01*
X186630000Y-59630000D01*
X186580000Y-59540000D01*
X186530000Y-59460000D01*
X186460000Y-59410000D01*
X186370000Y-59360000D01*
X186280000Y-59330000D01*
X186180000Y-59320000D01*
X186070000Y-59330000D01*
X185970000Y-59350000D01*
X185880000Y-59400000D01*
X185810000Y-59470000D01*
X185750000Y-59540000D01*
X185700000Y-59630000D01*
X185670000Y-59730000D01*
X185640000Y-59830000D01*
X185630000Y-59930000D01*
X185620000Y-60030000D01*
X185620000Y-60150000D01*
X185320000Y-60100000D01*
X185300000Y-59960000D01*
X185240000Y-59490000D01*
X185190000Y-59400000D01*
X185110000Y-59350000D01*
X185060000Y-59340000D01*
X184550000Y-59340000D01*
X184460000Y-59360000D01*
X184420000Y-59430000D01*
X184410000Y-59560000D01*
X184450000Y-59650000D01*
X184530000Y-59680000D01*
X184840000Y-59680000D01*
X184920000Y-59700000D01*
X184930000Y-59810000D01*
X184740000Y-59840000D01*
X184650000Y-59880000D01*
X184560000Y-59930000D01*
X184490000Y-60010000D01*
X184430000Y-60090000D01*
X184400000Y-60180000D01*
X184380000Y-60290000D01*
X184390000Y-60390000D01*
X184420000Y-60490000D01*
X184460000Y-60570000D01*
X184530000Y-60660000D01*
X184600000Y-60720000D01*
X184690000Y-60770000D01*
X184790000Y-60790000D01*
X184890000Y-60800000D01*
X185000000Y-60790000D01*
X185090000Y-60760000D01*
X185180000Y-60720000D01*
X185260000Y-60660000D01*
X185330000Y-60570000D01*
X185330000Y-60500000D01*
X185260000Y-60400000D01*
X185170000Y-60350000D01*
X185090000Y-60360000D01*
X185000000Y-60430000D01*
X184910000Y-60460000D01*
X184800000Y-60440000D01*
X184740000Y-60370000D01*
X184730000Y-60270000D01*
X184800000Y-60190000D01*
X184900000Y-60170000D01*
X184990000Y-60210000D01*
X185070000Y-60250000D01*
X185170000Y-60230000D01*
X185270000Y-60170000D01*
X185320000Y-60110000D01*
X185620000Y-60150000D01*
X185640000Y-60260000D01*
X185660000Y-60360000D01*
X185680000Y-60450000D01*
X185720000Y-60540000D01*
X185770000Y-60610000D01*
X185840000Y-60690000D01*
X185920000Y-60740000D01*
X186010000Y-60780000D01*
X186110000Y-60800000D01*
X186220000Y-60800000D01*
X186320000Y-60780000D01*
X186410000Y-60740000D01*
X186500000Y-60690000D01*
X186570000Y-60620000D01*
X186620000Y-60540000D01*
X186660000Y-60440000D01*
X186680000Y-60350000D01*
X186700000Y-60250000D01*
X186710000Y-60140000D01*
X186710000Y-60030000D01*
X186700000Y-59920000D01*
X186690000Y-59820000D01*
X186670000Y-59730000D01*
X187040000Y-59550000D01*
X187070000Y-59650000D01*
X187570000Y-60650000D01*
X187620000Y-60740000D01*
X187700000Y-60790000D01*
X187800000Y-60800000D01*
X187890000Y-60750000D01*
X187950000Y-60660000D01*
X188440000Y-59660000D01*
X188490000Y-59560000D01*
X188750000Y-59580000D01*
X188780000Y-59680000D01*
X188860000Y-59710000D01*
X188970000Y-59710000D01*
X189470000Y-59710000D01*
X189520000Y-59770000D01*
X189520000Y-59870000D01*
X189470000Y-59920000D01*
X189070000Y-59920000D01*
X188990000Y-59960000D01*
X188960000Y-60060000D01*
X188980000Y-60190000D01*
X189040000Y-60240000D01*
X189140000Y-60260000D01*
X189450000Y-60260000D01*
X189520000Y-60290000D01*
X189520000Y-60390000D01*
X189470000Y-60460000D01*
X188970000Y-60460000D01*
X188860000Y-60460000D01*
X188780000Y-60490000D01*
X188750000Y-60590000D01*
X188760000Y-60720000D01*
X188810000Y-60790000D01*
X188900000Y-60800000D01*
X189730000Y-60800000D01*
X189830000Y-60770000D01*
X189860000Y-60710000D01*
X190180000Y-60670000D01*
X190240000Y-60740000D01*
X190350000Y-60790000D01*
X190440000Y-60790000D01*
X190490000Y-60740000D01*
X190610000Y-60470000D01*
X190700000Y-60390000D01*
X190900000Y-60390000D01*
X190950000Y-60450000D01*
X190950000Y-60660000D01*
X190970000Y-60750000D01*
X191050000Y-60790000D01*
X191180000Y-60790000D01*
X191270000Y-60750000D01*
X191290000Y-60660000D01*
X191290000Y-60560000D01*
X191290000Y-59540000D01*
X191290000Y-59440000D01*
X191240000Y-59380000D01*
X191370000Y-59070000D01*
X191470000Y-59080000D01*
G37*
X191470000Y-59080000D02*
X191570000Y-59090000D01*
X191670000Y-59120000D01*
X191770000Y-59150000D01*
X191860000Y-59200000D01*
X191950000Y-59250000D01*
X192030000Y-59310000D01*
X192100000Y-59380000D01*
X192170000Y-59460000D01*
X192230000Y-59540000D01*
X192280000Y-59630000D01*
X192320000Y-59720000D01*
X192350000Y-59820000D01*
X192370000Y-59920000D01*
X192390000Y-60020000D01*
X192390000Y-60120000D01*
X192380000Y-60220000D01*
X192360000Y-60320000D01*
X192330000Y-60420000D01*
X192300000Y-60510000D01*
X192250000Y-60600000D01*
X192190000Y-60690000D01*
X192130000Y-60770000D01*
X192060000Y-60840000D01*
X191980000Y-60900000D01*
X191900000Y-60960000D01*
X191810000Y-61010000D01*
X191720000Y-61050000D01*
X191620000Y-61080000D01*
X191520000Y-61100000D01*
X191420000Y-61100000D01*
X191320000Y-61110000D01*
X184110000Y-61110000D01*
X184010000Y-61100000D01*
X183910000Y-61090000D01*
X183810000Y-61060000D01*
X183710000Y-61030000D01*
X183620000Y-60980000D01*
X183530000Y-60930000D01*
X183450000Y-60870000D01*
X183380000Y-60800000D01*
X183310000Y-60720000D01*
X183250000Y-60640000D01*
X183200000Y-60550000D01*
X183160000Y-60460000D01*
X183130000Y-60360000D01*
X183110000Y-60260000D01*
X183090000Y-60160000D01*
X183090000Y-60060000D01*
X183100000Y-59960000D01*
X183120000Y-59860000D01*
X183150000Y-59760000D01*
X183180000Y-59670000D01*
X183230000Y-59580000D01*
X183290000Y-59490000D01*
X183350000Y-59410000D01*
X183420000Y-59340000D01*
X183500000Y-59280000D01*
X183580000Y-59220000D01*
X183670000Y-59170000D01*
X183770000Y-59130000D01*
X183860000Y-59100000D01*
X183960000Y-59080000D01*
X184060000Y-59070000D01*
X184160000Y-59070000D01*
X191370000Y-59070000D01*
X191240000Y-59380000D01*
X191120000Y-59360000D01*
X190720000Y-59360000D01*
X190620000Y-59370000D01*
X190530000Y-59390000D01*
X190430000Y-59440000D01*
X190350000Y-59510000D01*
X190280000Y-59580000D01*
X190230000Y-59670000D01*
X190200000Y-59760000D01*
X190180000Y-59860000D01*
X190190000Y-59970000D01*
X190220000Y-60070000D01*
X190260000Y-60160000D01*
X190330000Y-60230000D01*
X190310000Y-60300000D01*
X190270000Y-60390000D01*
X190220000Y-60500000D01*
X190190000Y-60590000D01*
X190180000Y-60670000D01*
X189860000Y-60700000D01*
X189870000Y-60590000D01*
X189870000Y-59580000D01*
X189860000Y-59470000D01*
X189820000Y-59400000D01*
X189730000Y-59370000D01*
X189620000Y-59370000D01*
X188900000Y-59370000D01*
X188810000Y-59390000D01*
X188760000Y-59450000D01*
X188750000Y-59580000D01*
X188490000Y-59560000D01*
X188490000Y-59480000D01*
X188420000Y-59410000D01*
X188310000Y-59360000D01*
X188220000Y-59380000D01*
X188160000Y-59450000D01*
X188130000Y-59520000D01*
X187820000Y-60210000D01*
X187770000Y-60310000D01*
X187740000Y-60270000D01*
X187400000Y-59530000D01*
X187360000Y-59430000D01*
X187290000Y-59360000D01*
X187200000Y-59370000D01*
X187130000Y-59400000D01*
X187050000Y-59470000D01*
X187040000Y-59550000D01*
X186670000Y-59730000D01*
X186630000Y-59630000D01*
X186580000Y-59540000D01*
X186530000Y-59460000D01*
X186460000Y-59410000D01*
X186370000Y-59360000D01*
X186280000Y-59330000D01*
X186180000Y-59320000D01*
X186070000Y-59330000D01*
X185970000Y-59350000D01*
X185880000Y-59400000D01*
X185810000Y-59470000D01*
X185750000Y-59540000D01*
X185700000Y-59630000D01*
X185670000Y-59730000D01*
X185640000Y-59830000D01*
X185630000Y-59930000D01*
X185620000Y-60030000D01*
X185620000Y-60150000D01*
X185320000Y-60100000D01*
X185300000Y-59960000D01*
X185240000Y-59490000D01*
X185190000Y-59400000D01*
X185110000Y-59350000D01*
X185060000Y-59340000D01*
X184550000Y-59340000D01*
X184460000Y-59360000D01*
X184420000Y-59430000D01*
X184410000Y-59560000D01*
X184450000Y-59650000D01*
X184530000Y-59680000D01*
X184840000Y-59680000D01*
X184920000Y-59700000D01*
X184930000Y-59810000D01*
X184740000Y-59840000D01*
X184650000Y-59880000D01*
X184560000Y-59930000D01*
X184490000Y-60010000D01*
X184430000Y-60090000D01*
X184400000Y-60180000D01*
X184380000Y-60290000D01*
X184390000Y-60390000D01*
X184420000Y-60490000D01*
X184460000Y-60570000D01*
X184530000Y-60660000D01*
X184600000Y-60720000D01*
X184690000Y-60770000D01*
X184790000Y-60790000D01*
X184890000Y-60800000D01*
X185000000Y-60790000D01*
X185090000Y-60760000D01*
X185180000Y-60720000D01*
X185260000Y-60660000D01*
X185330000Y-60570000D01*
X185330000Y-60500000D01*
X185260000Y-60400000D01*
X185170000Y-60350000D01*
X185090000Y-60360000D01*
X185000000Y-60430000D01*
X184910000Y-60460000D01*
X184800000Y-60440000D01*
X184740000Y-60370000D01*
X184730000Y-60270000D01*
X184800000Y-60190000D01*
X184900000Y-60170000D01*
X184990000Y-60210000D01*
X185070000Y-60250000D01*
X185170000Y-60230000D01*
X185270000Y-60170000D01*
X185320000Y-60110000D01*
X185620000Y-60150000D01*
X185640000Y-60260000D01*
X185660000Y-60360000D01*
X185680000Y-60450000D01*
X185720000Y-60540000D01*
X185770000Y-60610000D01*
X185840000Y-60690000D01*
X185920000Y-60740000D01*
X186010000Y-60780000D01*
X186110000Y-60800000D01*
X186220000Y-60800000D01*
X186320000Y-60780000D01*
X186410000Y-60740000D01*
X186500000Y-60690000D01*
X186570000Y-60620000D01*
X186620000Y-60540000D01*
X186660000Y-60440000D01*
X186680000Y-60350000D01*
X186700000Y-60250000D01*
X186710000Y-60140000D01*
X186710000Y-60030000D01*
X186700000Y-59920000D01*
X186690000Y-59820000D01*
X186670000Y-59730000D01*
X187040000Y-59550000D01*
X187070000Y-59650000D01*
X187570000Y-60650000D01*
X187620000Y-60740000D01*
X187700000Y-60790000D01*
X187800000Y-60800000D01*
X187890000Y-60750000D01*
X187950000Y-60660000D01*
X188440000Y-59660000D01*
X188490000Y-59560000D01*
X188750000Y-59580000D01*
X188780000Y-59680000D01*
X188860000Y-59710000D01*
X188970000Y-59710000D01*
X189470000Y-59710000D01*
X189520000Y-59770000D01*
X189520000Y-59870000D01*
X189470000Y-59920000D01*
X189070000Y-59920000D01*
X188990000Y-59960000D01*
X188960000Y-60060000D01*
X188980000Y-60190000D01*
X189040000Y-60240000D01*
X189140000Y-60260000D01*
X189450000Y-60260000D01*
X189520000Y-60290000D01*
X189520000Y-60390000D01*
X189470000Y-60460000D01*
X188970000Y-60460000D01*
X188860000Y-60460000D01*
X188780000Y-60490000D01*
X188750000Y-60590000D01*
X188760000Y-60720000D01*
X188810000Y-60790000D01*
X188900000Y-60800000D01*
X189730000Y-60800000D01*
X189830000Y-60770000D01*
X189860000Y-60710000D01*
X190180000Y-60670000D01*
X190240000Y-60740000D01*
X190350000Y-60790000D01*
X190440000Y-60790000D01*
X190490000Y-60740000D01*
X190610000Y-60470000D01*
X190700000Y-60390000D01*
X190900000Y-60390000D01*
X190950000Y-60450000D01*
X190950000Y-60660000D01*
X190970000Y-60750000D01*
X191050000Y-60790000D01*
X191180000Y-60790000D01*
X191270000Y-60750000D01*
X191290000Y-60660000D01*
X191290000Y-60560000D01*
X191290000Y-59540000D01*
X191290000Y-59440000D01*
X191240000Y-59380000D01*
X191370000Y-59070000D01*
X191470000Y-59080000D01*
G36*
X7890000Y-13460000D02*
G01*
X7790000Y-13450000D01*
X7690000Y-13440000D01*
X7590000Y-13410000D01*
X7500000Y-13370000D01*
X7410000Y-13320000D01*
X7330000Y-13260000D01*
X7250000Y-13190000D01*
X7180000Y-13120000D01*
X7110000Y-13040000D01*
X7060000Y-12960000D01*
X7010000Y-12870000D01*
X6980000Y-12770000D01*
X6950000Y-12670000D01*
X6930000Y-12570000D01*
X6920000Y-12470000D01*
X6930000Y-12370000D01*
X6940000Y-12270000D01*
X6960000Y-12170000D01*
X7000000Y-12070000D01*
X7040000Y-11980000D01*
X7090000Y-11890000D01*
X7150000Y-11810000D01*
X7220000Y-11740000D01*
X7290000Y-11670000D01*
X7370000Y-11610000D01*
X7460000Y-11550000D01*
X7550000Y-11510000D01*
X7650000Y-11480000D01*
X7750000Y-11450000D01*
X7850000Y-11440000D01*
X7950000Y-11430000D01*
X9170000Y-11430000D01*
X9270000Y-11440000D01*
X9380000Y-11450000D01*
X9470000Y-11470000D01*
X9570000Y-11500000D01*
X9660000Y-11550000D01*
X9750000Y-11600000D01*
X9830000Y-11660000D01*
X9910000Y-11720000D01*
X9980000Y-11800000D01*
X10040000Y-11880000D01*
X10090000Y-11970000D01*
X10140000Y-12060000D01*
X10170000Y-12150000D01*
X10200000Y-12250000D01*
X10210000Y-12350000D01*
X10220000Y-12460000D01*
X10210000Y-12560000D01*
X10190000Y-12660000D01*
X10170000Y-12760000D01*
X10130000Y-12850000D01*
X10090000Y-12940000D01*
X10030000Y-13030000D01*
X9970000Y-13110000D01*
X9900000Y-13180000D01*
X9830000Y-13250000D01*
X9740000Y-13310000D01*
X9650000Y-13360000D01*
X9560000Y-13400000D01*
X9460000Y-13430000D01*
X9360000Y-13450000D01*
X9260000Y-13460000D01*
X9160000Y-13470000D01*
X7940000Y-13470000D01*
X8430000Y-13000000D01*
X8530000Y-13000000D01*
X8580000Y-12950000D01*
X8580000Y-12650000D01*
X8580000Y-12590000D01*
X8890000Y-12590000D01*
X8970000Y-12570000D01*
X8970000Y-12470000D01*
X8900000Y-12430000D01*
X8600000Y-12430000D01*
X8580000Y-12350000D01*
X8580000Y-12040000D01*
X8530000Y-11990000D01*
X8420000Y-11990000D01*
X8400000Y-12070000D01*
X8400000Y-12370000D01*
X8350000Y-12430000D01*
X8050000Y-12430000D01*
X8010000Y-12500000D01*
X8020000Y-12590000D01*
X8320000Y-12590000D01*
X8400000Y-12620000D01*
X8400000Y-12920000D01*
X8420000Y-13000000D01*
X7940000Y-13470000D01*
X7890000Y-13460000D01*
G37*
X7890000Y-13460000D02*
X7790000Y-13450000D01*
X7690000Y-13440000D01*
X7590000Y-13410000D01*
X7500000Y-13370000D01*
X7410000Y-13320000D01*
X7330000Y-13260000D01*
X7250000Y-13190000D01*
X7180000Y-13120000D01*
X7110000Y-13040000D01*
X7060000Y-12960000D01*
X7010000Y-12870000D01*
X6980000Y-12770000D01*
X6950000Y-12670000D01*
X6930000Y-12570000D01*
X6920000Y-12470000D01*
X6930000Y-12370000D01*
X6940000Y-12270000D01*
X6960000Y-12170000D01*
X7000000Y-12070000D01*
X7040000Y-11980000D01*
X7090000Y-11890000D01*
X7150000Y-11810000D01*
X7220000Y-11740000D01*
X7290000Y-11670000D01*
X7370000Y-11610000D01*
X7460000Y-11550000D01*
X7550000Y-11510000D01*
X7650000Y-11480000D01*
X7750000Y-11450000D01*
X7850000Y-11440000D01*
X7950000Y-11430000D01*
X9170000Y-11430000D01*
X9270000Y-11440000D01*
X9380000Y-11450000D01*
X9470000Y-11470000D01*
X9570000Y-11500000D01*
X9660000Y-11550000D01*
X9750000Y-11600000D01*
X9830000Y-11660000D01*
X9910000Y-11720000D01*
X9980000Y-11800000D01*
X10040000Y-11880000D01*
X10090000Y-11970000D01*
X10140000Y-12060000D01*
X10170000Y-12150000D01*
X10200000Y-12250000D01*
X10210000Y-12350000D01*
X10220000Y-12460000D01*
X10210000Y-12560000D01*
X10190000Y-12660000D01*
X10170000Y-12760000D01*
X10130000Y-12850000D01*
X10090000Y-12940000D01*
X10030000Y-13030000D01*
X9970000Y-13110000D01*
X9900000Y-13180000D01*
X9830000Y-13250000D01*
X9740000Y-13310000D01*
X9650000Y-13360000D01*
X9560000Y-13400000D01*
X9460000Y-13430000D01*
X9360000Y-13450000D01*
X9260000Y-13460000D01*
X9160000Y-13470000D01*
X7940000Y-13470000D01*
X8430000Y-13000000D01*
X8530000Y-13000000D01*
X8580000Y-12950000D01*
X8580000Y-12650000D01*
X8580000Y-12590000D01*
X8890000Y-12590000D01*
X8970000Y-12570000D01*
X8970000Y-12470000D01*
X8900000Y-12430000D01*
X8600000Y-12430000D01*
X8580000Y-12350000D01*
X8580000Y-12040000D01*
X8530000Y-11990000D01*
X8420000Y-11990000D01*
X8400000Y-12070000D01*
X8400000Y-12370000D01*
X8350000Y-12430000D01*
X8050000Y-12430000D01*
X8010000Y-12500000D01*
X8020000Y-12590000D01*
X8320000Y-12590000D01*
X8400000Y-12620000D01*
X8400000Y-12920000D01*
X8420000Y-13000000D01*
X7940000Y-13470000D01*
X7890000Y-13460000D01*
G36*
X8170000Y-32640000D02*
G01*
X8260000Y-32650000D01*
X8340000Y-32660000D01*
X8420000Y-32680000D01*
X8500000Y-32710000D01*
X8580000Y-32750000D01*
X8650000Y-32790000D01*
X8720000Y-32840000D01*
X8780000Y-32900000D01*
X8840000Y-32960000D01*
X8880000Y-33030000D01*
X8930000Y-33110000D01*
X8960000Y-33180000D01*
X8990000Y-33260000D01*
X9010000Y-33350000D01*
X9020000Y-33430000D01*
X9020000Y-33520000D01*
X9010000Y-33600000D01*
X9000000Y-33680000D01*
X8970000Y-33760000D01*
X8940000Y-33840000D01*
X8900000Y-33920000D01*
X8860000Y-33990000D01*
X8800000Y-34050000D01*
X8740000Y-34120000D01*
X8680000Y-34170000D01*
X8610000Y-34220000D01*
X8530000Y-34260000D01*
X8450000Y-34290000D01*
X8370000Y-34310000D01*
X8290000Y-34330000D01*
X8210000Y-34340000D01*
X8120000Y-34340000D01*
X8100000Y-33620000D01*
X8150000Y-33580000D01*
X8150000Y-33500000D01*
X7810000Y-33500000D01*
X7760000Y-33530000D01*
X7760000Y-33620000D01*
X8090000Y-33620000D01*
X8120000Y-34340000D01*
X7530000Y-34340000D01*
X7440000Y-34330000D01*
X7360000Y-34320000D01*
X7280000Y-34300000D01*
X7200000Y-34270000D01*
X7120000Y-34230000D01*
X7050000Y-34190000D01*
X6980000Y-34140000D01*
X6920000Y-34080000D01*
X6860000Y-34020000D01*
X6820000Y-33950000D01*
X6770000Y-33870000D01*
X6740000Y-33800000D01*
X6710000Y-33720000D01*
X6690000Y-33630000D01*
X6680000Y-33550000D01*
X6680000Y-33460000D01*
X6690000Y-33380000D01*
X6700000Y-33300000D01*
X6730000Y-33220000D01*
X6760000Y-33140000D01*
X6800000Y-33060000D01*
X6840000Y-32990000D01*
X6900000Y-32930000D01*
X6960000Y-32870000D01*
X7020000Y-32810000D01*
X7090000Y-32760000D01*
X7170000Y-32720000D01*
X7250000Y-32690000D01*
X7330000Y-32670000D01*
X7410000Y-32650000D01*
X7490000Y-32640000D01*
X8170000Y-32640000D01*
G37*
X8170000Y-32640000D02*
X8260000Y-32650000D01*
X8340000Y-32660000D01*
X8420000Y-32680000D01*
X8500000Y-32710000D01*
X8580000Y-32750000D01*
X8650000Y-32790000D01*
X8720000Y-32840000D01*
X8780000Y-32900000D01*
X8840000Y-32960000D01*
X8880000Y-33030000D01*
X8930000Y-33110000D01*
X8960000Y-33180000D01*
X8990000Y-33260000D01*
X9010000Y-33350000D01*
X9020000Y-33430000D01*
X9020000Y-33520000D01*
X9010000Y-33600000D01*
X9000000Y-33680000D01*
X8970000Y-33760000D01*
X8940000Y-33840000D01*
X8900000Y-33920000D01*
X8860000Y-33990000D01*
X8800000Y-34050000D01*
X8740000Y-34120000D01*
X8680000Y-34170000D01*
X8610000Y-34220000D01*
X8530000Y-34260000D01*
X8450000Y-34290000D01*
X8370000Y-34310000D01*
X8290000Y-34330000D01*
X8210000Y-34340000D01*
X8120000Y-34340000D01*
X8100000Y-33620000D01*
X8150000Y-33580000D01*
X8150000Y-33500000D01*
X7810000Y-33500000D01*
X7760000Y-33530000D01*
X7760000Y-33620000D01*
X8090000Y-33620000D01*
X8120000Y-34340000D01*
X7530000Y-34340000D01*
X7440000Y-34330000D01*
X7360000Y-34320000D01*
X7280000Y-34300000D01*
X7200000Y-34270000D01*
X7120000Y-34230000D01*
X7050000Y-34190000D01*
X6980000Y-34140000D01*
X6920000Y-34080000D01*
X6860000Y-34020000D01*
X6820000Y-33950000D01*
X6770000Y-33870000D01*
X6740000Y-33800000D01*
X6710000Y-33720000D01*
X6690000Y-33630000D01*
X6680000Y-33550000D01*
X6680000Y-33460000D01*
X6690000Y-33380000D01*
X6700000Y-33300000D01*
X6730000Y-33220000D01*
X6760000Y-33140000D01*
X6800000Y-33060000D01*
X6840000Y-32990000D01*
X6900000Y-32930000D01*
X6960000Y-32870000D01*
X7020000Y-32810000D01*
X7090000Y-32760000D01*
X7170000Y-32720000D01*
X7250000Y-32690000D01*
X7330000Y-32670000D01*
X7410000Y-32650000D01*
X7490000Y-32640000D01*
X8170000Y-32640000D01*
G36*
X104920000Y-93070000D02*
G01*
X104820000Y-93060000D01*
X104740000Y-93000000D01*
X104700000Y-92910000D01*
X104700000Y-92800000D01*
X104760000Y-92720000D01*
X104850000Y-92680000D01*
X104950000Y-92690000D01*
X105030000Y-92750000D01*
X105070000Y-92840000D01*
X105060000Y-92950000D01*
X105000000Y-93030000D01*
X104920000Y-93070000D01*
G37*
X104920000Y-93070000D02*
X104820000Y-93060000D01*
X104740000Y-93000000D01*
X104700000Y-92910000D01*
X104700000Y-92800000D01*
X104760000Y-92720000D01*
X104850000Y-92680000D01*
X104950000Y-92690000D01*
X105030000Y-92750000D01*
X105070000Y-92840000D01*
X105060000Y-92950000D01*
X105000000Y-93030000D01*
X104920000Y-93070000D01*
G36*
X106120000Y-92650000D02*
G01*
X106050000Y-92580000D01*
X106040000Y-92480000D01*
X106070000Y-92390000D01*
X106160000Y-92330000D01*
X106260000Y-92320000D01*
X106360000Y-92320000D01*
X106450000Y-92330000D01*
X106450000Y-92640000D01*
X106380000Y-92670000D01*
X106180000Y-92670000D01*
X106120000Y-92650000D01*
G37*
X106120000Y-92650000D02*
X106050000Y-92580000D01*
X106040000Y-92480000D01*
X106070000Y-92390000D01*
X106160000Y-92330000D01*
X106260000Y-92320000D01*
X106360000Y-92320000D01*
X106450000Y-92330000D01*
X106450000Y-92640000D01*
X106380000Y-92670000D01*
X106180000Y-92670000D01*
X106120000Y-92650000D01*
G36*
X109130000Y-93010000D02*
G01*
X109040000Y-93060000D01*
X108940000Y-93060000D01*
X108860000Y-93000000D01*
X108830000Y-92900000D01*
X108850000Y-92810000D01*
X108920000Y-92740000D01*
X109020000Y-92720000D01*
X109110000Y-92770000D01*
X109170000Y-92850000D01*
X109170000Y-92950000D01*
X109130000Y-93010000D01*
G37*
X109130000Y-93010000D02*
X109040000Y-93060000D01*
X108940000Y-93060000D01*
X108860000Y-93000000D01*
X108830000Y-92900000D01*
X108850000Y-92810000D01*
X108920000Y-92740000D01*
X109020000Y-92720000D01*
X109110000Y-92770000D01*
X109170000Y-92850000D01*
X109170000Y-92950000D01*
X109130000Y-93010000D01*
G36*
X111890000Y-92790000D02*
G01*
X111900000Y-92690000D01*
X111980000Y-92650000D01*
X112080000Y-92670000D01*
X112170000Y-92740000D01*
X112180000Y-92810000D01*
X111970000Y-92810000D01*
X111890000Y-92790000D01*
G37*
X111890000Y-92790000D02*
X111900000Y-92690000D01*
X111980000Y-92650000D01*
X112080000Y-92670000D01*
X112170000Y-92740000D01*
X112180000Y-92810000D01*
X111970000Y-92810000D01*
X111890000Y-92790000D01*
G36*
X113960000Y-91680000D02*
G01*
X114060000Y-91690000D01*
X114160000Y-91710000D01*
X114260000Y-91730000D01*
X114350000Y-91770000D01*
X114440000Y-91810000D01*
X114530000Y-91860000D01*
X114610000Y-91930000D01*
X114680000Y-92000000D01*
X114750000Y-92070000D01*
X114810000Y-92160000D01*
X114860000Y-92240000D01*
X114900000Y-92340000D01*
X114930000Y-92430000D01*
X114950000Y-92530000D01*
X114960000Y-92630000D01*
X114970000Y-92740000D01*
X114960000Y-92840000D01*
X114940000Y-92940000D01*
X114910000Y-93030000D01*
X114870000Y-93130000D01*
X114820000Y-93220000D01*
X114770000Y-93300000D01*
X114700000Y-93380000D01*
X114630000Y-93450000D01*
X114550000Y-93520000D01*
X114470000Y-93570000D01*
X114380000Y-93620000D01*
X114280000Y-93660000D01*
X114190000Y-93690000D01*
X114090000Y-93710000D01*
X113980000Y-93720000D01*
X101890000Y-93720000D01*
X101790000Y-93710000D01*
X101690000Y-93700000D01*
X101590000Y-93670000D01*
X101490000Y-93630000D01*
X101400000Y-93590000D01*
X101310000Y-93540000D01*
X101230000Y-93470000D01*
X101160000Y-93410000D01*
X101090000Y-93330000D01*
X101030000Y-93250000D01*
X100980000Y-93160000D01*
X100940000Y-93060000D01*
X100910000Y-92970000D01*
X100890000Y-92870000D01*
X100880000Y-92770000D01*
X100870000Y-92670000D01*
X100880000Y-92570000D01*
X100900000Y-92470000D01*
X100930000Y-92370000D01*
X100970000Y-92270000D01*
X101020000Y-92180000D01*
X101070000Y-92100000D01*
X101140000Y-92020000D01*
X101210000Y-91950000D01*
X101290000Y-91880000D01*
X101370000Y-91830000D01*
X101460000Y-91780000D01*
X101550000Y-91740000D01*
X101650000Y-91710000D01*
X101750000Y-91690000D01*
X101850000Y-91680000D01*
X113950000Y-91680000D01*
X113710000Y-92030000D01*
X113630000Y-91980000D01*
X113530000Y-91950000D01*
X113420000Y-91940000D01*
X113310000Y-91940000D01*
X113220000Y-91960000D01*
X113110000Y-92000000D01*
X113040000Y-92050000D01*
X112960000Y-92120000D01*
X112950000Y-92200000D01*
X113020000Y-92300000D01*
X113090000Y-92360000D01*
X113180000Y-92350000D01*
X113270000Y-92290000D01*
X113360000Y-92250000D01*
X113470000Y-92270000D01*
X113530000Y-92340000D01*
X113510000Y-92430000D01*
X113430000Y-92480000D01*
X113230000Y-92530000D01*
X113130000Y-92570000D01*
X113040000Y-92600000D01*
X112960000Y-92660000D01*
X112900000Y-92750000D01*
X112870000Y-92840000D01*
X112860000Y-92950000D01*
X112550000Y-92960000D01*
X112560000Y-92860000D01*
X112550000Y-92750000D01*
X112520000Y-92660000D01*
X112470000Y-92570000D01*
X112410000Y-92500000D01*
X112330000Y-92440000D01*
X112240000Y-92390000D01*
X112150000Y-92360000D01*
X112040000Y-92350000D01*
X111930000Y-92350000D01*
X111830000Y-92370000D01*
X111740000Y-92410000D01*
X111660000Y-92470000D01*
X111600000Y-92550000D01*
X111560000Y-92640000D01*
X111210000Y-92510000D01*
X111180000Y-92430000D01*
X111110000Y-92390000D01*
X110970000Y-92390000D01*
X110890000Y-92420000D01*
X110860000Y-92480000D01*
X110780000Y-92420000D01*
X110680000Y-92380000D01*
X110580000Y-92380000D01*
X110480000Y-92400000D01*
X110440000Y-92460000D01*
X110100000Y-92190000D01*
X110120000Y-92100000D01*
X110120000Y-91990000D01*
X110070000Y-91930000D01*
X109950000Y-91910000D01*
X109840000Y-91930000D01*
X109790000Y-92000000D01*
X109780000Y-92100000D01*
X109800000Y-92190000D01*
X109820000Y-92220000D01*
X109910000Y-92240000D01*
X109950000Y-92390000D01*
X109840000Y-92400000D01*
X109790000Y-92470000D01*
X109780000Y-92570000D01*
X109480000Y-92720000D01*
X109440000Y-92630000D01*
X109380000Y-92550000D01*
X109300000Y-92470000D01*
X109210000Y-92420000D01*
X109120000Y-92390000D01*
X109020000Y-92390000D01*
X108920000Y-92410000D01*
X108840000Y-92470000D01*
X108790000Y-92430000D01*
X108700000Y-92390000D01*
X108580000Y-92390000D01*
X108500000Y-92430000D01*
X108470000Y-92520000D01*
X108470000Y-93240000D01*
X108120000Y-93220000D01*
X108130000Y-93130000D01*
X108140000Y-93000000D01*
X108140000Y-92080000D01*
X108140000Y-92000000D01*
X108100000Y-91920000D01*
X108000000Y-91900000D01*
X107870000Y-91910000D01*
X107810000Y-91970000D01*
X107800000Y-92070000D01*
X107800000Y-92980000D01*
X107780000Y-93070000D01*
X107680000Y-93080000D01*
X107620000Y-93150000D01*
X107610000Y-93270000D01*
X106800000Y-93260000D01*
X106800000Y-93160000D01*
X106800000Y-92140000D01*
X106790000Y-92040000D01*
X106730000Y-91990000D01*
X106600000Y-91980000D01*
X106200000Y-91980000D01*
X106100000Y-91990000D01*
X106010000Y-92020000D01*
X105920000Y-92080000D01*
X105840000Y-92140000D01*
X105770000Y-92220000D01*
X105720000Y-92310000D01*
X105690000Y-92410000D01*
X105690000Y-92520000D01*
X105700000Y-92620000D01*
X105420000Y-92710000D01*
X105370000Y-92600000D01*
X105220000Y-92460000D01*
X105130000Y-92410000D01*
X105040000Y-92370000D01*
X104940000Y-92350000D01*
X104840000Y-92350000D01*
X104740000Y-92360000D01*
X104650000Y-92390000D01*
X104560000Y-92450000D01*
X104480000Y-92520000D01*
X104420000Y-92590000D01*
X104380000Y-92680000D01*
X104010000Y-92550000D01*
X104010000Y-92460000D01*
X103950000Y-92400000D01*
X103820000Y-92390000D01*
X103720000Y-92410000D01*
X103680000Y-92490000D01*
X103620000Y-92440000D01*
X103520000Y-92390000D01*
X103420000Y-92380000D01*
X103320000Y-92390000D01*
X103260000Y-92430000D01*
X103230000Y-92530000D01*
X102980000Y-92580000D01*
X102970000Y-92470000D01*
X102920000Y-92400000D01*
X102820000Y-92390000D01*
X102790000Y-92320000D01*
X102790000Y-92120000D01*
X102740000Y-92050000D01*
X102630000Y-92030000D01*
X102510000Y-92050000D01*
X102470000Y-92110000D01*
X102460000Y-92220000D01*
X102460000Y-92320000D01*
X102420000Y-92390000D01*
X102330000Y-92390000D01*
X102230000Y-92400000D01*
X102180000Y-92460000D01*
X102170000Y-92590000D01*
X102190000Y-92690000D01*
X102270000Y-92730000D01*
X102340000Y-92730000D01*
X102440000Y-92720000D01*
X102460000Y-92800000D01*
X102460000Y-93010000D01*
X102420000Y-93080000D01*
X102310000Y-93090000D01*
X102230000Y-93130000D01*
X102220000Y-93240000D01*
X102240000Y-93360000D01*
X102310000Y-93400000D01*
X102410000Y-93410000D01*
X102520000Y-93400000D01*
X102620000Y-93370000D01*
X102690000Y-93320000D01*
X102740000Y-93260000D01*
X102780000Y-93170000D01*
X102790000Y-93050000D01*
X102790000Y-92740000D01*
X102880000Y-92730000D01*
X102960000Y-92690000D01*
X102980000Y-92590000D01*
X103230000Y-92530000D01*
X103250000Y-92620000D01*
X103300000Y-92720000D01*
X103400000Y-92740000D01*
X103490000Y-92700000D01*
X103590000Y-92710000D01*
X103670000Y-92780000D01*
X103680000Y-92880000D01*
X103680000Y-93290000D01*
X103710000Y-93370000D01*
X103790000Y-93410000D01*
X103920000Y-93410000D01*
X104000000Y-93370000D01*
X104010000Y-93270000D01*
X104010000Y-92550000D01*
X104380000Y-92680000D01*
X104360000Y-92780000D01*
X104350000Y-92890000D01*
X104360000Y-92990000D01*
X104390000Y-93090000D01*
X104440000Y-93180000D01*
X104500000Y-93260000D01*
X104580000Y-93320000D01*
X104670000Y-93370000D01*
X104770000Y-93400000D01*
X104870000Y-93410000D01*
X104970000Y-93400000D01*
X105060000Y-93380000D01*
X105160000Y-93330000D01*
X105240000Y-93270000D01*
X105310000Y-93200000D01*
X105360000Y-93110000D01*
X105400000Y-93020000D01*
X105410000Y-92920000D01*
X105420000Y-92710000D01*
X105700000Y-92620000D01*
X105730000Y-92710000D01*
X105780000Y-92800000D01*
X105850000Y-92880000D01*
X105940000Y-92940000D01*
X106030000Y-92980000D01*
X106130000Y-93010000D01*
X106220000Y-93010000D01*
X106430000Y-93010000D01*
X106450000Y-93090000D01*
X106450000Y-93190000D01*
X106460000Y-93300000D01*
X106490000Y-93380000D01*
X106580000Y-93410000D01*
X106710000Y-93400000D01*
X106780000Y-93350000D01*
X106800000Y-93260000D01*
X107610000Y-93280000D01*
X107640000Y-93370000D01*
X107690000Y-93410000D01*
X107790000Y-93410000D01*
X107930000Y-93390000D01*
X108030000Y-93360000D01*
X108090000Y-93300000D01*
X108110000Y-93230000D01*
X108470000Y-93240000D01*
X108490000Y-93340000D01*
X108550000Y-93400000D01*
X108670000Y-93410000D01*
X108760000Y-93390000D01*
X108810000Y-93310000D01*
X108870000Y-93360000D01*
X108960000Y-93400000D01*
X109070000Y-93410000D01*
X109160000Y-93390000D01*
X109250000Y-93350000D01*
X109340000Y-93290000D01*
X109410000Y-93200000D01*
X109460000Y-93120000D01*
X109490000Y-93020000D01*
X109510000Y-92920000D01*
X109510000Y-92820000D01*
X109480000Y-92730000D01*
X109780000Y-92570000D01*
X109780000Y-93290000D01*
X109810000Y-93370000D01*
X109890000Y-93410000D01*
X110030000Y-93410000D01*
X110100000Y-93360000D01*
X110120000Y-93270000D01*
X110120000Y-92660000D01*
X110120000Y-92470000D01*
X110070000Y-92400000D01*
X109950000Y-92390000D01*
X109910000Y-92240000D01*
X110030000Y-92240000D01*
X110100000Y-92190000D01*
X110440000Y-92460000D01*
X110430000Y-92560000D01*
X110460000Y-92660000D01*
X110520000Y-92730000D01*
X110620000Y-92730000D01*
X110720000Y-92700000D01*
X110810000Y-92730000D01*
X110870000Y-92810000D01*
X110870000Y-92910000D01*
X110870000Y-93320000D01*
X110920000Y-93390000D01*
X111030000Y-93410000D01*
X111140000Y-93400000D01*
X111200000Y-93340000D01*
X111210000Y-93230000D01*
X111210000Y-92510000D01*
X111560000Y-92640000D01*
X111540000Y-92740000D01*
X111540000Y-92840000D01*
X111610000Y-92940000D01*
X111700000Y-92980000D01*
X111800000Y-92980000D01*
X112100000Y-92980000D01*
X112190000Y-93000000D01*
X112130000Y-93080000D01*
X112040000Y-93110000D01*
X111930000Y-93110000D01*
X111830000Y-93100000D01*
X111740000Y-93070000D01*
X111660000Y-93090000D01*
X111600000Y-93200000D01*
X111600000Y-93270000D01*
X111630000Y-93330000D01*
X111700000Y-93370000D01*
X111810000Y-93400000D01*
X111950000Y-93410000D01*
X112080000Y-93410000D01*
X112180000Y-93390000D01*
X112270000Y-93360000D01*
X112370000Y-93310000D01*
X112430000Y-93240000D01*
X112490000Y-93150000D01*
X112530000Y-93060000D01*
X112550000Y-92960000D01*
X112860000Y-92950000D01*
X112870000Y-93050000D01*
X112910000Y-93150000D01*
X112960000Y-93230000D01*
X113030000Y-93300000D01*
X113120000Y-93350000D01*
X113220000Y-93390000D01*
X113310000Y-93410000D01*
X113420000Y-93410000D01*
X113520000Y-93400000D01*
X113620000Y-93370000D01*
X113710000Y-93320000D01*
X113790000Y-93250000D01*
X113890000Y-93120000D01*
X113890000Y-93040000D01*
X113820000Y-92950000D01*
X113730000Y-92900000D01*
X113650000Y-92920000D01*
X113560000Y-93000000D01*
X113480000Y-93060000D01*
X113380000Y-93090000D01*
X113270000Y-93060000D01*
X113210000Y-92990000D01*
X113220000Y-92900000D01*
X113300000Y-92840000D01*
X113500000Y-92790000D01*
X113600000Y-92760000D01*
X113690000Y-92720000D01*
X113770000Y-92660000D01*
X113830000Y-92570000D01*
X113870000Y-92480000D01*
X113880000Y-92380000D01*
X113870000Y-92280000D01*
X113840000Y-92180000D01*
X113780000Y-92100000D01*
X113710000Y-92030000D01*
X113950000Y-91680000D01*
X113960000Y-91680000D01*
G37*
X113960000Y-91680000D02*
X114060000Y-91690000D01*
X114160000Y-91710000D01*
X114260000Y-91730000D01*
X114350000Y-91770000D01*
X114440000Y-91810000D01*
X114530000Y-91860000D01*
X114610000Y-91930000D01*
X114680000Y-92000000D01*
X114750000Y-92070000D01*
X114810000Y-92160000D01*
X114860000Y-92240000D01*
X114900000Y-92340000D01*
X114930000Y-92430000D01*
X114950000Y-92530000D01*
X114960000Y-92630000D01*
X114970000Y-92740000D01*
X114960000Y-92840000D01*
X114940000Y-92940000D01*
X114910000Y-93030000D01*
X114870000Y-93130000D01*
X114820000Y-93220000D01*
X114770000Y-93300000D01*
X114700000Y-93380000D01*
X114630000Y-93450000D01*
X114550000Y-93520000D01*
X114470000Y-93570000D01*
X114380000Y-93620000D01*
X114280000Y-93660000D01*
X114190000Y-93690000D01*
X114090000Y-93710000D01*
X113980000Y-93720000D01*
X101890000Y-93720000D01*
X101790000Y-93710000D01*
X101690000Y-93700000D01*
X101590000Y-93670000D01*
X101490000Y-93630000D01*
X101400000Y-93590000D01*
X101310000Y-93540000D01*
X101230000Y-93470000D01*
X101160000Y-93410000D01*
X101090000Y-93330000D01*
X101030000Y-93250000D01*
X100980000Y-93160000D01*
X100940000Y-93060000D01*
X100910000Y-92970000D01*
X100890000Y-92870000D01*
X100880000Y-92770000D01*
X100870000Y-92670000D01*
X100880000Y-92570000D01*
X100900000Y-92470000D01*
X100930000Y-92370000D01*
X100970000Y-92270000D01*
X101020000Y-92180000D01*
X101070000Y-92100000D01*
X101140000Y-92020000D01*
X101210000Y-91950000D01*
X101290000Y-91880000D01*
X101370000Y-91830000D01*
X101460000Y-91780000D01*
X101550000Y-91740000D01*
X101650000Y-91710000D01*
X101750000Y-91690000D01*
X101850000Y-91680000D01*
X113950000Y-91680000D01*
X113710000Y-92030000D01*
X113630000Y-91980000D01*
X113530000Y-91950000D01*
X113420000Y-91940000D01*
X113310000Y-91940000D01*
X113220000Y-91960000D01*
X113110000Y-92000000D01*
X113040000Y-92050000D01*
X112960000Y-92120000D01*
X112950000Y-92200000D01*
X113020000Y-92300000D01*
X113090000Y-92360000D01*
X113180000Y-92350000D01*
X113270000Y-92290000D01*
X113360000Y-92250000D01*
X113470000Y-92270000D01*
X113530000Y-92340000D01*
X113510000Y-92430000D01*
X113430000Y-92480000D01*
X113230000Y-92530000D01*
X113130000Y-92570000D01*
X113040000Y-92600000D01*
X112960000Y-92660000D01*
X112900000Y-92750000D01*
X112870000Y-92840000D01*
X112860000Y-92950000D01*
X112550000Y-92960000D01*
X112560000Y-92860000D01*
X112550000Y-92750000D01*
X112520000Y-92660000D01*
X112470000Y-92570000D01*
X112410000Y-92500000D01*
X112330000Y-92440000D01*
X112240000Y-92390000D01*
X112150000Y-92360000D01*
X112040000Y-92350000D01*
X111930000Y-92350000D01*
X111830000Y-92370000D01*
X111740000Y-92410000D01*
X111660000Y-92470000D01*
X111600000Y-92550000D01*
X111560000Y-92640000D01*
X111210000Y-92510000D01*
X111180000Y-92430000D01*
X111110000Y-92390000D01*
X110970000Y-92390000D01*
X110890000Y-92420000D01*
X110860000Y-92480000D01*
X110780000Y-92420000D01*
X110680000Y-92380000D01*
X110580000Y-92380000D01*
X110480000Y-92400000D01*
X110440000Y-92460000D01*
X110100000Y-92190000D01*
X110120000Y-92100000D01*
X110120000Y-91990000D01*
X110070000Y-91930000D01*
X109950000Y-91910000D01*
X109840000Y-91930000D01*
X109790000Y-92000000D01*
X109780000Y-92100000D01*
X109800000Y-92190000D01*
X109820000Y-92220000D01*
X109910000Y-92240000D01*
X109950000Y-92390000D01*
X109840000Y-92400000D01*
X109790000Y-92470000D01*
X109780000Y-92570000D01*
X109480000Y-92720000D01*
X109440000Y-92630000D01*
X109380000Y-92550000D01*
X109300000Y-92470000D01*
X109210000Y-92420000D01*
X109120000Y-92390000D01*
X109020000Y-92390000D01*
X108920000Y-92410000D01*
X108840000Y-92470000D01*
X108790000Y-92430000D01*
X108700000Y-92390000D01*
X108580000Y-92390000D01*
X108500000Y-92430000D01*
X108470000Y-92520000D01*
X108470000Y-93240000D01*
X108120000Y-93220000D01*
X108130000Y-93130000D01*
X108140000Y-93000000D01*
X108140000Y-92080000D01*
X108140000Y-92000000D01*
X108100000Y-91920000D01*
X108000000Y-91900000D01*
X107870000Y-91910000D01*
X107810000Y-91970000D01*
X107800000Y-92070000D01*
X107800000Y-92980000D01*
X107780000Y-93070000D01*
X107680000Y-93080000D01*
X107620000Y-93150000D01*
X107610000Y-93270000D01*
X106800000Y-93260000D01*
X106800000Y-93160000D01*
X106800000Y-92140000D01*
X106790000Y-92040000D01*
X106730000Y-91990000D01*
X106600000Y-91980000D01*
X106200000Y-91980000D01*
X106100000Y-91990000D01*
X106010000Y-92020000D01*
X105920000Y-92080000D01*
X105840000Y-92140000D01*
X105770000Y-92220000D01*
X105720000Y-92310000D01*
X105690000Y-92410000D01*
X105690000Y-92520000D01*
X105700000Y-92620000D01*
X105420000Y-92710000D01*
X105370000Y-92600000D01*
X105220000Y-92460000D01*
X105130000Y-92410000D01*
X105040000Y-92370000D01*
X104940000Y-92350000D01*
X104840000Y-92350000D01*
X104740000Y-92360000D01*
X104650000Y-92390000D01*
X104560000Y-92450000D01*
X104480000Y-92520000D01*
X104420000Y-92590000D01*
X104380000Y-92680000D01*
X104010000Y-92550000D01*
X104010000Y-92460000D01*
X103950000Y-92400000D01*
X103820000Y-92390000D01*
X103720000Y-92410000D01*
X103680000Y-92490000D01*
X103620000Y-92440000D01*
X103520000Y-92390000D01*
X103420000Y-92380000D01*
X103320000Y-92390000D01*
X103260000Y-92430000D01*
X103230000Y-92530000D01*
X102980000Y-92580000D01*
X102970000Y-92470000D01*
X102920000Y-92400000D01*
X102820000Y-92390000D01*
X102790000Y-92320000D01*
X102790000Y-92120000D01*
X102740000Y-92050000D01*
X102630000Y-92030000D01*
X102510000Y-92050000D01*
X102470000Y-92110000D01*
X102460000Y-92220000D01*
X102460000Y-92320000D01*
X102420000Y-92390000D01*
X102330000Y-92390000D01*
X102230000Y-92400000D01*
X102180000Y-92460000D01*
X102170000Y-92590000D01*
X102190000Y-92690000D01*
X102270000Y-92730000D01*
X102340000Y-92730000D01*
X102440000Y-92720000D01*
X102460000Y-92800000D01*
X102460000Y-93010000D01*
X102420000Y-93080000D01*
X102310000Y-93090000D01*
X102230000Y-93130000D01*
X102220000Y-93240000D01*
X102240000Y-93360000D01*
X102310000Y-93400000D01*
X102410000Y-93410000D01*
X102520000Y-93400000D01*
X102620000Y-93370000D01*
X102690000Y-93320000D01*
X102740000Y-93260000D01*
X102780000Y-93170000D01*
X102790000Y-93050000D01*
X102790000Y-92740000D01*
X102880000Y-92730000D01*
X102960000Y-92690000D01*
X102980000Y-92590000D01*
X103230000Y-92530000D01*
X103250000Y-92620000D01*
X103300000Y-92720000D01*
X103400000Y-92740000D01*
X103490000Y-92700000D01*
X103590000Y-92710000D01*
X103670000Y-92780000D01*
X103680000Y-92880000D01*
X103680000Y-93290000D01*
X103710000Y-93370000D01*
X103790000Y-93410000D01*
X103920000Y-93410000D01*
X104000000Y-93370000D01*
X104010000Y-93270000D01*
X104010000Y-92550000D01*
X104380000Y-92680000D01*
X104360000Y-92780000D01*
X104350000Y-92890000D01*
X104360000Y-92990000D01*
X104390000Y-93090000D01*
X104440000Y-93180000D01*
X104500000Y-93260000D01*
X104580000Y-93320000D01*
X104670000Y-93370000D01*
X104770000Y-93400000D01*
X104870000Y-93410000D01*
X104970000Y-93400000D01*
X105060000Y-93380000D01*
X105160000Y-93330000D01*
X105240000Y-93270000D01*
X105310000Y-93200000D01*
X105360000Y-93110000D01*
X105400000Y-93020000D01*
X105410000Y-92920000D01*
X105420000Y-92710000D01*
X105700000Y-92620000D01*
X105730000Y-92710000D01*
X105780000Y-92800000D01*
X105850000Y-92880000D01*
X105940000Y-92940000D01*
X106030000Y-92980000D01*
X106130000Y-93010000D01*
X106220000Y-93010000D01*
X106430000Y-93010000D01*
X106450000Y-93090000D01*
X106450000Y-93190000D01*
X106460000Y-93300000D01*
X106490000Y-93380000D01*
X106580000Y-93410000D01*
X106710000Y-93400000D01*
X106780000Y-93350000D01*
X106800000Y-93260000D01*
X107610000Y-93280000D01*
X107640000Y-93370000D01*
X107690000Y-93410000D01*
X107790000Y-93410000D01*
X107930000Y-93390000D01*
X108030000Y-93360000D01*
X108090000Y-93300000D01*
X108110000Y-93230000D01*
X108470000Y-93240000D01*
X108490000Y-93340000D01*
X108550000Y-93400000D01*
X108670000Y-93410000D01*
X108760000Y-93390000D01*
X108810000Y-93310000D01*
X108870000Y-93360000D01*
X108960000Y-93400000D01*
X109070000Y-93410000D01*
X109160000Y-93390000D01*
X109250000Y-93350000D01*
X109340000Y-93290000D01*
X109410000Y-93200000D01*
X109460000Y-93120000D01*
X109490000Y-93020000D01*
X109510000Y-92920000D01*
X109510000Y-92820000D01*
X109480000Y-92730000D01*
X109780000Y-92570000D01*
X109780000Y-93290000D01*
X109810000Y-93370000D01*
X109890000Y-93410000D01*
X110030000Y-93410000D01*
X110100000Y-93360000D01*
X110120000Y-93270000D01*
X110120000Y-92660000D01*
X110120000Y-92470000D01*
X110070000Y-92400000D01*
X109950000Y-92390000D01*
X109910000Y-92240000D01*
X110030000Y-92240000D01*
X110100000Y-92190000D01*
X110440000Y-92460000D01*
X110430000Y-92560000D01*
X110460000Y-92660000D01*
X110520000Y-92730000D01*
X110620000Y-92730000D01*
X110720000Y-92700000D01*
X110810000Y-92730000D01*
X110870000Y-92810000D01*
X110870000Y-92910000D01*
X110870000Y-93320000D01*
X110920000Y-93390000D01*
X111030000Y-93410000D01*
X111140000Y-93400000D01*
X111200000Y-93340000D01*
X111210000Y-93230000D01*
X111210000Y-92510000D01*
X111560000Y-92640000D01*
X111540000Y-92740000D01*
X111540000Y-92840000D01*
X111610000Y-92940000D01*
X111700000Y-92980000D01*
X111800000Y-92980000D01*
X112100000Y-92980000D01*
X112190000Y-93000000D01*
X112130000Y-93080000D01*
X112040000Y-93110000D01*
X111930000Y-93110000D01*
X111830000Y-93100000D01*
X111740000Y-93070000D01*
X111660000Y-93090000D01*
X111600000Y-93200000D01*
X111600000Y-93270000D01*
X111630000Y-93330000D01*
X111700000Y-93370000D01*
X111810000Y-93400000D01*
X111950000Y-93410000D01*
X112080000Y-93410000D01*
X112180000Y-93390000D01*
X112270000Y-93360000D01*
X112370000Y-93310000D01*
X112430000Y-93240000D01*
X112490000Y-93150000D01*
X112530000Y-93060000D01*
X112550000Y-92960000D01*
X112860000Y-92950000D01*
X112870000Y-93050000D01*
X112910000Y-93150000D01*
X112960000Y-93230000D01*
X113030000Y-93300000D01*
X113120000Y-93350000D01*
X113220000Y-93390000D01*
X113310000Y-93410000D01*
X113420000Y-93410000D01*
X113520000Y-93400000D01*
X113620000Y-93370000D01*
X113710000Y-93320000D01*
X113790000Y-93250000D01*
X113890000Y-93120000D01*
X113890000Y-93040000D01*
X113820000Y-92950000D01*
X113730000Y-92900000D01*
X113650000Y-92920000D01*
X113560000Y-93000000D01*
X113480000Y-93060000D01*
X113380000Y-93090000D01*
X113270000Y-93060000D01*
X113210000Y-92990000D01*
X113220000Y-92900000D01*
X113300000Y-92840000D01*
X113500000Y-92790000D01*
X113600000Y-92760000D01*
X113690000Y-92720000D01*
X113770000Y-92660000D01*
X113830000Y-92570000D01*
X113870000Y-92480000D01*
X113880000Y-92380000D01*
X113870000Y-92280000D01*
X113840000Y-92180000D01*
X113780000Y-92100000D01*
X113710000Y-92030000D01*
X113950000Y-91680000D01*
X113960000Y-91680000D01*
G36*
X195737561Y-58457805D02*
G01*
X195733611Y-58637722D01*
X195553695Y-58641671D01*
X195373778Y-58645621D01*
X195373778Y-58968490D01*
X195553695Y-58972439D01*
X195733611Y-58976389D01*
X195737561Y-59156305D01*
X195741510Y-59336222D01*
X196064379Y-59336222D01*
X196068329Y-59156305D01*
X196072278Y-58976389D01*
X196252195Y-58972439D01*
X196432111Y-58968490D01*
X196432111Y-58645621D01*
X196252195Y-58641671D01*
X196072278Y-58637722D01*
X196068329Y-58457805D01*
X196064379Y-58277889D01*
X195741510Y-58277889D01*
X195737561Y-58457805D01*
G37*
X195737561Y-58457805D02*
X195733611Y-58637722D01*
X195553695Y-58641671D01*
X195373778Y-58645621D01*
X195373778Y-58968490D01*
X195553695Y-58972439D01*
X195733611Y-58976389D01*
X195737561Y-59156305D01*
X195741510Y-59336222D01*
X196064379Y-59336222D01*
X196068329Y-59156305D01*
X196072278Y-58976389D01*
X196252195Y-58972439D01*
X196432111Y-58968490D01*
X196432111Y-58645621D01*
X196252195Y-58641671D01*
X196072278Y-58637722D01*
X196068329Y-58457805D01*
X196064379Y-58277889D01*
X195741510Y-58277889D01*
X195737561Y-58457805D01*
G36*
X195740667Y-56256102D02*
G01*
X195646131Y-56265788D01*
X195387040Y-56306461D01*
X195131730Y-56375028D01*
X194880021Y-56471540D01*
X194759945Y-56528050D01*
X194617326Y-56603651D01*
X194490466Y-56681262D01*
X194372187Y-56766129D01*
X194255309Y-56863492D01*
X194132655Y-56978597D01*
X194103446Y-57007557D01*
X193983614Y-57132508D01*
X193882706Y-57250062D01*
X193795478Y-57367398D01*
X193716688Y-57491694D01*
X193641091Y-57630130D01*
X193623939Y-57664055D01*
X193513939Y-57914092D01*
X193431911Y-58167644D01*
X193377801Y-58424891D01*
X193361677Y-58550241D01*
X193351992Y-58644778D01*
X193059556Y-58644778D01*
X193059556Y-58969333D01*
X193352601Y-58969333D01*
X193362465Y-59064583D01*
X193402341Y-59321009D01*
X193468523Y-59571033D01*
X193561764Y-59817208D01*
X193623939Y-59950055D01*
X193699540Y-60092674D01*
X193777152Y-60219534D01*
X193862018Y-60337813D01*
X193959381Y-60454691D01*
X194074486Y-60577345D01*
X194103446Y-60606554D01*
X194228397Y-60726386D01*
X194345951Y-60827294D01*
X194463287Y-60914522D01*
X194587584Y-60993312D01*
X194726020Y-61068909D01*
X194759945Y-61086061D01*
X195009981Y-61196061D01*
X195263534Y-61278089D01*
X195520780Y-61332199D01*
X195646131Y-61348323D01*
X195740667Y-61358008D01*
X195740667Y-61650444D01*
X196065222Y-61650444D01*
X196065222Y-61358008D01*
X196159759Y-61348323D01*
X196418849Y-61307649D01*
X196674160Y-61239083D01*
X196925868Y-61142570D01*
X197045945Y-61086061D01*
X197188563Y-61010460D01*
X197315423Y-60932848D01*
X197433702Y-60847982D01*
X197550580Y-60750619D01*
X197673235Y-60635514D01*
X197702443Y-60606554D01*
X197822275Y-60481603D01*
X197923183Y-60364049D01*
X198010411Y-60246713D01*
X198089202Y-60122416D01*
X198164798Y-59983980D01*
X198181950Y-59950055D01*
X198291950Y-59700019D01*
X198373979Y-59446466D01*
X198428088Y-59189220D01*
X198444212Y-59063869D01*
X198453898Y-58969333D01*
X198746333Y-58969333D01*
X198746333Y-58644778D01*
X198453898Y-58644778D01*
X198115231Y-58644778D01*
X196700222Y-58644778D01*
X196700222Y-58969333D01*
X198115231Y-58969333D01*
X198105524Y-59064583D01*
X198069639Y-59284313D01*
X198007594Y-59504567D01*
X197921111Y-59721475D01*
X197811907Y-59931165D01*
X197681704Y-60129766D01*
X197569801Y-60270858D01*
X197416596Y-60428821D01*
X197241950Y-60573377D01*
X197050543Y-60701804D01*
X196847055Y-60811383D01*
X196636165Y-60899390D01*
X196422554Y-60963106D01*
X196353468Y-60978102D01*
X196280237Y-60992329D01*
X196227880Y-61001925D01*
X196189620Y-61007910D01*
X196158682Y-61011303D01*
X196128287Y-61013125D01*
X196118139Y-61013523D01*
X196065222Y-61015444D01*
X196065222Y-60521555D01*
X195740667Y-60521555D01*
X195740667Y-61019342D01*
X195645417Y-61009635D01*
X195426702Y-60973883D01*
X195207910Y-60912335D01*
X194993091Y-60827114D01*
X194786294Y-60720343D01*
X194591569Y-60594146D01*
X194412967Y-60450645D01*
X194254537Y-60291964D01*
X194236088Y-60270858D01*
X194091078Y-60083270D01*
X193965763Y-59881651D01*
X193861861Y-59669873D01*
X193781093Y-59451808D01*
X193725176Y-59231326D01*
X193700365Y-59064583D01*
X193690658Y-58969333D01*
X194188445Y-58969333D01*
X194188445Y-58644778D01*
X193690658Y-58644778D01*
X193700365Y-58549528D01*
X193736251Y-58329798D01*
X193798295Y-58109544D01*
X193884778Y-57892636D01*
X193993982Y-57682946D01*
X194124186Y-57484345D01*
X194236088Y-57343253D01*
X194391669Y-57182797D01*
X194567937Y-57037253D01*
X194760841Y-56908743D01*
X194966331Y-56799391D01*
X195180357Y-56711319D01*
X195398869Y-56646651D01*
X195617818Y-56607509D01*
X195645417Y-56604476D01*
X195740667Y-56594769D01*
X195740667Y-58009778D01*
X196065222Y-58009778D01*
X196065222Y-56594769D01*
X196160472Y-56604476D01*
X196379187Y-56640228D01*
X196597979Y-56701776D01*
X196812798Y-56786997D01*
X197019595Y-56893767D01*
X197214320Y-57019965D01*
X197392922Y-57163466D01*
X197551352Y-57322147D01*
X197569801Y-57343253D01*
X197714811Y-57530841D01*
X197840126Y-57732460D01*
X197944028Y-57944238D01*
X198024796Y-58162303D01*
X198080713Y-58382784D01*
X198105524Y-58549528D01*
X198115231Y-58644778D01*
X198453898Y-58644778D01*
X198444212Y-58550241D01*
X198403539Y-58291151D01*
X198334972Y-58035840D01*
X198238460Y-57784132D01*
X198181950Y-57664055D01*
X198106349Y-57521437D01*
X198028738Y-57394577D01*
X197943871Y-57276298D01*
X197846508Y-57159420D01*
X197731403Y-57036765D01*
X197702443Y-57007557D01*
X197577492Y-56887725D01*
X197459938Y-56786817D01*
X197342602Y-56699589D01*
X197218306Y-56620798D01*
X197079870Y-56545202D01*
X197045945Y-56528050D01*
X196795908Y-56418050D01*
X196542356Y-56336021D01*
X196285109Y-56281912D01*
X196159759Y-56265788D01*
X196065222Y-56256102D01*
X196065222Y-55963667D01*
X195740667Y-55963667D01*
X195740667Y-56256102D01*
G37*
X195740667Y-56256102D02*
X195646131Y-56265788D01*
X195387040Y-56306461D01*
X195131730Y-56375028D01*
X194880021Y-56471540D01*
X194759945Y-56528050D01*
X194617326Y-56603651D01*
X194490466Y-56681262D01*
X194372187Y-56766129D01*
X194255309Y-56863492D01*
X194132655Y-56978597D01*
X194103446Y-57007557D01*
X193983614Y-57132508D01*
X193882706Y-57250062D01*
X193795478Y-57367398D01*
X193716688Y-57491694D01*
X193641091Y-57630130D01*
X193623939Y-57664055D01*
X193513939Y-57914092D01*
X193431911Y-58167644D01*
X193377801Y-58424891D01*
X193361677Y-58550241D01*
X193351992Y-58644778D01*
X193059556Y-58644778D01*
X193059556Y-58969333D01*
X193352601Y-58969333D01*
X193362465Y-59064583D01*
X193402341Y-59321009D01*
X193468523Y-59571033D01*
X193561764Y-59817208D01*
X193623939Y-59950055D01*
X193699540Y-60092674D01*
X193777152Y-60219534D01*
X193862018Y-60337813D01*
X193959381Y-60454691D01*
X194074486Y-60577345D01*
X194103446Y-60606554D01*
X194228397Y-60726386D01*
X194345951Y-60827294D01*
X194463287Y-60914522D01*
X194587584Y-60993312D01*
X194726020Y-61068909D01*
X194759945Y-61086061D01*
X195009981Y-61196061D01*
X195263534Y-61278089D01*
X195520780Y-61332199D01*
X195646131Y-61348323D01*
X195740667Y-61358008D01*
X195740667Y-61650444D01*
X196065222Y-61650444D01*
X196065222Y-61358008D01*
X196159759Y-61348323D01*
X196418849Y-61307649D01*
X196674160Y-61239083D01*
X196925868Y-61142570D01*
X197045945Y-61086061D01*
X197188563Y-61010460D01*
X197315423Y-60932848D01*
X197433702Y-60847982D01*
X197550580Y-60750619D01*
X197673235Y-60635514D01*
X197702443Y-60606554D01*
X197822275Y-60481603D01*
X197923183Y-60364049D01*
X198010411Y-60246713D01*
X198089202Y-60122416D01*
X198164798Y-59983980D01*
X198181950Y-59950055D01*
X198291950Y-59700019D01*
X198373979Y-59446466D01*
X198428088Y-59189220D01*
X198444212Y-59063869D01*
X198453898Y-58969333D01*
X198746333Y-58969333D01*
X198746333Y-58644778D01*
X198453898Y-58644778D01*
X198115231Y-58644778D01*
X196700222Y-58644778D01*
X196700222Y-58969333D01*
X198115231Y-58969333D01*
X198105524Y-59064583D01*
X198069639Y-59284313D01*
X198007594Y-59504567D01*
X197921111Y-59721475D01*
X197811907Y-59931165D01*
X197681704Y-60129766D01*
X197569801Y-60270858D01*
X197416596Y-60428821D01*
X197241950Y-60573377D01*
X197050543Y-60701804D01*
X196847055Y-60811383D01*
X196636165Y-60899390D01*
X196422554Y-60963106D01*
X196353468Y-60978102D01*
X196280237Y-60992329D01*
X196227880Y-61001925D01*
X196189620Y-61007910D01*
X196158682Y-61011303D01*
X196128287Y-61013125D01*
X196118139Y-61013523D01*
X196065222Y-61015444D01*
X196065222Y-60521555D01*
X195740667Y-60521555D01*
X195740667Y-61019342D01*
X195645417Y-61009635D01*
X195426702Y-60973883D01*
X195207910Y-60912335D01*
X194993091Y-60827114D01*
X194786294Y-60720343D01*
X194591569Y-60594146D01*
X194412967Y-60450645D01*
X194254537Y-60291964D01*
X194236088Y-60270858D01*
X194091078Y-60083270D01*
X193965763Y-59881651D01*
X193861861Y-59669873D01*
X193781093Y-59451808D01*
X193725176Y-59231326D01*
X193700365Y-59064583D01*
X193690658Y-58969333D01*
X194188445Y-58969333D01*
X194188445Y-58644778D01*
X193690658Y-58644778D01*
X193700365Y-58549528D01*
X193736251Y-58329798D01*
X193798295Y-58109544D01*
X193884778Y-57892636D01*
X193993982Y-57682946D01*
X194124186Y-57484345D01*
X194236088Y-57343253D01*
X194391669Y-57182797D01*
X194567937Y-57037253D01*
X194760841Y-56908743D01*
X194966331Y-56799391D01*
X195180357Y-56711319D01*
X195398869Y-56646651D01*
X195617818Y-56607509D01*
X195645417Y-56604476D01*
X195740667Y-56594769D01*
X195740667Y-58009778D01*
X196065222Y-58009778D01*
X196065222Y-56594769D01*
X196160472Y-56604476D01*
X196379187Y-56640228D01*
X196597979Y-56701776D01*
X196812798Y-56786997D01*
X197019595Y-56893767D01*
X197214320Y-57019965D01*
X197392922Y-57163466D01*
X197551352Y-57322147D01*
X197569801Y-57343253D01*
X197714811Y-57530841D01*
X197840126Y-57732460D01*
X197944028Y-57944238D01*
X198024796Y-58162303D01*
X198080713Y-58382784D01*
X198105524Y-58549528D01*
X198115231Y-58644778D01*
X198453898Y-58644778D01*
X198444212Y-58550241D01*
X198403539Y-58291151D01*
X198334972Y-58035840D01*
X198238460Y-57784132D01*
X198181950Y-57664055D01*
X198106349Y-57521437D01*
X198028738Y-57394577D01*
X197943871Y-57276298D01*
X197846508Y-57159420D01*
X197731403Y-57036765D01*
X197702443Y-57007557D01*
X197577492Y-56887725D01*
X197459938Y-56786817D01*
X197342602Y-56699589D01*
X197218306Y-56620798D01*
X197079870Y-56545202D01*
X197045945Y-56528050D01*
X196795908Y-56418050D01*
X196542356Y-56336021D01*
X196285109Y-56281912D01*
X196159759Y-56265788D01*
X196065222Y-56256102D01*
X196065222Y-55963667D01*
X195740667Y-55963667D01*
X195740667Y-56256102D01*
G36*
X178780000Y-57670000D02*
G01*
X178810000Y-57570000D01*
X178910000Y-57550000D01*
X179000000Y-57580000D01*
X179080000Y-57660000D01*
X179060000Y-57710000D01*
X178850000Y-57710000D01*
X178780000Y-57670000D01*
G37*
X178780000Y-57670000D02*
X178810000Y-57570000D01*
X178910000Y-57550000D01*
X179000000Y-57580000D01*
X179080000Y-57660000D01*
X179060000Y-57710000D01*
X178850000Y-57710000D01*
X178780000Y-57670000D01*
G36*
X180280000Y-57970000D02*
G01*
X180180000Y-57940000D01*
X180120000Y-57870000D01*
X180100000Y-57770000D01*
X180140000Y-57680000D01*
X180230000Y-57630000D01*
X180330000Y-57640000D01*
X180410000Y-57700000D01*
X180450000Y-57800000D01*
X180420000Y-57890000D01*
X180340000Y-57960000D01*
X180280000Y-57970000D01*
G37*
X180280000Y-57970000D02*
X180180000Y-57940000D01*
X180120000Y-57870000D01*
X180100000Y-57770000D01*
X180140000Y-57680000D01*
X180230000Y-57630000D01*
X180330000Y-57640000D01*
X180410000Y-57700000D01*
X180450000Y-57800000D01*
X180420000Y-57890000D01*
X180340000Y-57960000D01*
X180280000Y-57970000D01*
G36*
X181440000Y-57680000D02*
G01*
X181450000Y-57590000D01*
X181540000Y-57550000D01*
X181630000Y-57570000D01*
X181720000Y-57640000D01*
X181730000Y-57710000D01*
X181530000Y-57710000D01*
X181440000Y-57680000D01*
G37*
X181440000Y-57680000D02*
X181450000Y-57590000D01*
X181540000Y-57550000D01*
X181630000Y-57570000D01*
X181720000Y-57640000D01*
X181730000Y-57710000D01*
X181530000Y-57710000D01*
X181440000Y-57680000D01*
G36*
X182770000Y-57700000D02*
G01*
X182760000Y-57610000D01*
X182830000Y-57550000D01*
X182940000Y-57560000D01*
X183030000Y-57620000D01*
X183070000Y-57710000D01*
X182970000Y-57710000D01*
X182870000Y-57710000D01*
X182770000Y-57700000D01*
G37*
X182770000Y-57700000D02*
X182760000Y-57610000D01*
X182830000Y-57550000D01*
X182940000Y-57560000D01*
X183030000Y-57620000D01*
X183070000Y-57710000D01*
X182970000Y-57710000D01*
X182870000Y-57710000D01*
X182770000Y-57700000D01*
G36*
X187370000Y-57700000D02*
G01*
X187360000Y-57600000D01*
X187440000Y-57550000D01*
X187540000Y-57560000D01*
X187630000Y-57620000D01*
X187670000Y-57710000D01*
X187470000Y-57710000D01*
X187370000Y-57700000D01*
G37*
X187370000Y-57700000D02*
X187360000Y-57600000D01*
X187440000Y-57550000D01*
X187540000Y-57560000D01*
X187630000Y-57620000D01*
X187670000Y-57710000D01*
X187470000Y-57710000D01*
X187370000Y-57700000D01*
G36*
X188900000Y-57970000D02*
G01*
X188790000Y-57960000D01*
X188710000Y-57900000D01*
X188680000Y-57810000D01*
X188700000Y-57720000D01*
X188770000Y-57650000D01*
X188870000Y-57630000D01*
X188960000Y-57670000D01*
X189010000Y-57760000D01*
X189010000Y-57850000D01*
X188950000Y-57940000D01*
X188900000Y-57970000D01*
G37*
X188900000Y-57970000D02*
X188790000Y-57960000D01*
X188710000Y-57900000D01*
X188680000Y-57810000D01*
X188700000Y-57720000D01*
X188770000Y-57650000D01*
X188870000Y-57630000D01*
X188960000Y-57670000D01*
X189010000Y-57760000D01*
X189010000Y-57850000D01*
X188950000Y-57940000D01*
X188900000Y-57970000D01*
G36*
X191440000Y-56580000D02*
G01*
X191540000Y-56590000D01*
X191640000Y-56610000D01*
X191740000Y-56640000D01*
X191830000Y-56680000D01*
X191920000Y-56730000D01*
X192010000Y-56790000D01*
X192080000Y-56850000D01*
X192150000Y-56920000D01*
X192220000Y-57000000D01*
X192270000Y-57090000D01*
X192320000Y-57180000D01*
X192360000Y-57270000D01*
X192390000Y-57370000D01*
X192400000Y-57470000D01*
X192410000Y-57570000D01*
X192410000Y-57670000D01*
X192400000Y-57770000D01*
X192380000Y-57870000D01*
X192340000Y-57970000D01*
X192300000Y-58060000D01*
X192250000Y-58150000D01*
X192190000Y-58230000D01*
X192130000Y-58310000D01*
X192050000Y-58380000D01*
X191970000Y-58440000D01*
X191890000Y-58490000D01*
X191790000Y-58540000D01*
X191700000Y-58570000D01*
X191600000Y-58600000D01*
X191500000Y-58610000D01*
X191400000Y-58620000D01*
X177080000Y-58620000D01*
X176980000Y-58610000D01*
X176880000Y-58590000D01*
X176780000Y-58560000D01*
X176690000Y-58530000D01*
X176600000Y-58480000D01*
X176510000Y-58430000D01*
X176430000Y-58360000D01*
X176360000Y-58290000D01*
X176290000Y-58220000D01*
X176240000Y-58130000D01*
X176190000Y-58040000D01*
X176150000Y-57950000D01*
X176120000Y-57850000D01*
X176100000Y-57750000D01*
X176090000Y-57650000D01*
X176090000Y-57550000D01*
X176100000Y-57450000D01*
X176120000Y-57350000D01*
X176150000Y-57250000D01*
X176190000Y-57160000D01*
X176240000Y-57070000D01*
X176290000Y-56990000D01*
X176360000Y-56910000D01*
X176430000Y-56840000D01*
X176510000Y-56770000D01*
X176600000Y-56720000D01*
X176690000Y-56670000D01*
X176780000Y-56640000D01*
X176880000Y-56610000D01*
X176980000Y-56590000D01*
X177080000Y-56580000D01*
X191400000Y-56580000D01*
X191220000Y-56880000D01*
X191090000Y-56880000D01*
X191000000Y-56920000D01*
X190970000Y-57000000D01*
X190970000Y-57110000D01*
X190970000Y-58120000D01*
X190670000Y-58140000D01*
X190670000Y-57420000D01*
X190640000Y-57330000D01*
X190580000Y-57290000D01*
X190440000Y-57290000D01*
X190360000Y-57320000D01*
X190330000Y-57410000D01*
X190250000Y-57340000D01*
X190160000Y-57290000D01*
X190040000Y-57290000D01*
X189940000Y-57310000D01*
X189850000Y-57360000D01*
X189780000Y-57430000D01*
X189710000Y-57510000D01*
X189670000Y-57600000D01*
X189650000Y-57700000D01*
X189640000Y-57800000D01*
X189360000Y-57810000D01*
X189350000Y-57710000D01*
X189320000Y-57610000D01*
X189280000Y-57520000D01*
X189220000Y-57440000D01*
X189140000Y-57370000D01*
X189050000Y-57320000D01*
X188960000Y-57290000D01*
X188850000Y-57290000D01*
X188760000Y-57310000D01*
X188680000Y-57370000D01*
X188660000Y-57310000D01*
X188660000Y-56900000D01*
X188580000Y-56810000D01*
X188470000Y-56810000D01*
X188380000Y-56830000D01*
X188330000Y-56910000D01*
X188330000Y-58130000D01*
X188000000Y-57970000D01*
X188030000Y-57880000D01*
X188030000Y-57780000D01*
X188020000Y-57670000D01*
X188000000Y-57570000D01*
X187950000Y-57480000D01*
X187890000Y-57410000D01*
X187820000Y-57340000D01*
X187730000Y-57300000D01*
X187640000Y-57260000D01*
X187530000Y-57250000D01*
X187420000Y-57250000D01*
X187320000Y-57260000D01*
X187230000Y-57300000D01*
X187150000Y-57360000D01*
X187080000Y-57430000D01*
X187040000Y-57520000D01*
X186730000Y-57470000D01*
X186720000Y-57390000D01*
X186640000Y-57300000D01*
X186550000Y-57250000D01*
X186480000Y-57280000D01*
X186390000Y-57360000D01*
X186250000Y-57510000D01*
X186180000Y-57520000D01*
X186040000Y-57370000D01*
X185960000Y-57290000D01*
X185880000Y-57250000D01*
X185800000Y-57290000D01*
X185710000Y-57380000D01*
X185690000Y-57460000D01*
X185740000Y-57550000D01*
X185960000Y-57770000D01*
X185950000Y-57800000D01*
X185740000Y-58030000D01*
X185690000Y-58110000D01*
X184820000Y-58090000D01*
X184820000Y-57080000D01*
X184820000Y-56970000D01*
X184770000Y-56900000D01*
X184670000Y-56880000D01*
X183950000Y-56880000D01*
X183820000Y-56880000D01*
X183740000Y-56930000D01*
X183710000Y-57020000D01*
X183710000Y-57130000D01*
X183760000Y-57210000D01*
X183350000Y-57490000D01*
X183290000Y-57410000D01*
X183220000Y-57350000D01*
X183130000Y-57300000D01*
X183040000Y-57260000D01*
X182940000Y-57250000D01*
X182820000Y-57250000D01*
X182720000Y-57260000D01*
X182630000Y-57300000D01*
X182550000Y-57350000D01*
X182480000Y-57430000D01*
X182440000Y-57520000D01*
X182420000Y-57620000D01*
X182420000Y-57720000D01*
X182110000Y-57750000D01*
X182100000Y-57650000D01*
X182070000Y-57550000D01*
X182020000Y-57470000D01*
X181960000Y-57390000D01*
X181880000Y-57330000D01*
X181790000Y-57290000D01*
X181700000Y-57260000D01*
X181590000Y-57250000D01*
X181480000Y-57250000D01*
X181380000Y-57270000D01*
X181290000Y-57310000D01*
X181210000Y-57370000D01*
X181150000Y-57450000D01*
X181110000Y-57540000D01*
X181100000Y-57640000D01*
X181100000Y-57740000D01*
X180780000Y-57770000D01*
X180770000Y-57670000D01*
X180730000Y-57580000D01*
X180680000Y-57490000D01*
X180610000Y-57410000D01*
X180530000Y-57340000D01*
X180440000Y-57300000D01*
X180340000Y-57290000D01*
X180240000Y-57290000D01*
X180150000Y-57330000D01*
X180090000Y-57370000D01*
X180090000Y-56960000D01*
X180080000Y-56860000D01*
X179970000Y-56810000D01*
X179860000Y-56810000D01*
X179770000Y-56850000D01*
X179750000Y-56950000D01*
X179750000Y-58180000D01*
X179400000Y-58030000D01*
X179440000Y-57940000D01*
X179460000Y-57840000D01*
X179460000Y-57730000D01*
X179440000Y-57630000D01*
X179410000Y-57530000D01*
X179360000Y-57450000D01*
X179290000Y-57380000D01*
X179210000Y-57320000D01*
X179120000Y-57280000D01*
X179020000Y-57250000D01*
X178920000Y-57240000D01*
X178810000Y-57250000D01*
X178710000Y-57280000D01*
X178620000Y-57320000D01*
X178550000Y-57380000D01*
X178490000Y-57470000D01*
X178450000Y-57560000D01*
X178110000Y-57390000D01*
X178070000Y-57310000D01*
X177970000Y-57290000D01*
X177840000Y-57300000D01*
X177780000Y-57350000D01*
X177740000Y-57360000D01*
X177650000Y-57300000D01*
X177560000Y-57270000D01*
X177460000Y-57280000D01*
X177380000Y-57310000D01*
X177330000Y-57390000D01*
X177330000Y-57490000D01*
X177380000Y-57590000D01*
X177460000Y-57640000D01*
X177550000Y-57610000D01*
X177650000Y-57600000D01*
X177740000Y-57650000D01*
X177770000Y-57740000D01*
X177770000Y-58150000D01*
X177780000Y-58250000D01*
X177850000Y-58300000D01*
X177970000Y-58310000D01*
X178070000Y-58290000D01*
X178110000Y-58200000D01*
X178110000Y-58100000D01*
X178110000Y-57390000D01*
X178450000Y-57560000D01*
X178440000Y-57660000D01*
X178440000Y-57760000D01*
X178460000Y-57790000D01*
X178530000Y-57860000D01*
X178630000Y-57880000D01*
X179030000Y-57880000D01*
X179090000Y-57920000D01*
X179010000Y-57990000D01*
X178910000Y-58020000D01*
X178800000Y-58010000D01*
X178710000Y-57990000D01*
X178620000Y-57970000D01*
X178540000Y-58020000D01*
X178500000Y-58120000D01*
X178510000Y-58190000D01*
X178550000Y-58240000D01*
X178630000Y-58280000D01*
X178750000Y-58300000D01*
X178900000Y-58310000D01*
X179010000Y-58310000D01*
X179110000Y-58290000D01*
X179200000Y-58250000D01*
X179290000Y-58190000D01*
X179350000Y-58120000D01*
X179400000Y-58030000D01*
X179750000Y-58180000D01*
X179780000Y-58260000D01*
X179850000Y-58300000D01*
X179980000Y-58310000D01*
X180070000Y-58270000D01*
X180110000Y-58230000D01*
X180190000Y-58290000D01*
X180290000Y-58310000D01*
X180390000Y-58310000D01*
X180480000Y-58280000D01*
X180570000Y-58220000D01*
X180650000Y-58140000D01*
X180710000Y-58060000D01*
X180750000Y-57970000D01*
X180770000Y-57870000D01*
X180780000Y-57770000D01*
X181100000Y-57740000D01*
X181170000Y-57840000D01*
X181260000Y-57880000D01*
X181360000Y-57880000D01*
X181660000Y-57880000D01*
X181740000Y-57900000D01*
X181680000Y-57980000D01*
X181580000Y-58010000D01*
X181470000Y-58010000D01*
X181380000Y-58000000D01*
X181290000Y-57970000D01*
X181210000Y-58000000D01*
X181150000Y-58100000D01*
X181150000Y-58180000D01*
X181190000Y-58230000D01*
X181260000Y-58270000D01*
X181370000Y-58300000D01*
X181510000Y-58310000D01*
X181640000Y-58310000D01*
X181740000Y-58290000D01*
X181830000Y-58260000D01*
X181920000Y-58210000D01*
X181990000Y-58140000D01*
X182050000Y-58050000D01*
X182080000Y-57960000D01*
X182110000Y-57860000D01*
X182110000Y-57760000D01*
X182420000Y-57720000D01*
X182470000Y-57830000D01*
X182560000Y-57880000D01*
X182660000Y-57880000D01*
X183060000Y-57880000D01*
X183020000Y-57970000D01*
X182930000Y-58010000D01*
X182820000Y-58020000D01*
X182720000Y-58000000D01*
X182630000Y-57970000D01*
X182550000Y-57980000D01*
X182480000Y-58080000D01*
X182470000Y-58160000D01*
X182500000Y-58220000D01*
X182560000Y-58270000D01*
X182660000Y-58290000D01*
X182800000Y-58310000D01*
X182940000Y-58310000D01*
X183040000Y-58300000D01*
X183130000Y-58270000D01*
X183220000Y-58220000D01*
X183300000Y-58150000D01*
X183360000Y-58070000D01*
X183400000Y-57980000D01*
X183420000Y-57880000D01*
X183430000Y-57780000D01*
X183420000Y-57670000D01*
X183400000Y-57570000D01*
X183350000Y-57490000D01*
X183770000Y-57210000D01*
X183860000Y-57220000D01*
X184470000Y-57220000D01*
X184480000Y-57320000D01*
X184480000Y-57420000D01*
X184380000Y-57430000D01*
X184070000Y-57430000D01*
X183980000Y-57450000D01*
X183940000Y-57520000D01*
X183930000Y-57640000D01*
X183970000Y-57740000D01*
X184040000Y-57770000D01*
X184150000Y-57770000D01*
X184460000Y-57770000D01*
X184480000Y-57850000D01*
X184480000Y-58160000D01*
X184500000Y-58250000D01*
X184560000Y-58300000D01*
X184690000Y-58310000D01*
X184790000Y-58280000D01*
X184820000Y-58210000D01*
X184820000Y-58100000D01*
X185690000Y-58110000D01*
X185710000Y-58190000D01*
X185800000Y-58280000D01*
X185880000Y-58310000D01*
X185960000Y-58270000D01*
X186040000Y-58190000D01*
X186180000Y-58050000D01*
X186260000Y-58080000D01*
X186400000Y-58220000D01*
X186490000Y-58290000D01*
X186570000Y-58310000D01*
X186660000Y-58250000D01*
X186730000Y-58160000D01*
X186720000Y-58090000D01*
X186650000Y-58000000D01*
X186510000Y-57850000D01*
X186460000Y-57780000D01*
X186670000Y-57560000D01*
X186730000Y-57470000D01*
X187040000Y-57530000D01*
X187020000Y-57620000D01*
X187020000Y-57720000D01*
X187080000Y-57830000D01*
X187160000Y-57880000D01*
X187260000Y-57880000D01*
X187570000Y-57880000D01*
X187670000Y-57890000D01*
X187620000Y-57970000D01*
X187520000Y-58010000D01*
X187420000Y-58010000D01*
X187320000Y-58000000D01*
X187220000Y-57970000D01*
X187150000Y-57990000D01*
X187080000Y-58080000D01*
X187070000Y-58170000D01*
X187100000Y-58220000D01*
X187170000Y-58270000D01*
X187270000Y-58300000D01*
X187410000Y-58310000D01*
X187540000Y-58310000D01*
X187640000Y-58290000D01*
X187740000Y-58270000D01*
X187830000Y-58220000D01*
X187900000Y-58150000D01*
X187960000Y-58070000D01*
X188000000Y-57970000D01*
X188330000Y-58130000D01*
X188330000Y-58230000D01*
X188390000Y-58290000D01*
X188500000Y-58310000D01*
X188610000Y-58290000D01*
X188660000Y-58220000D01*
X188730000Y-58270000D01*
X188820000Y-58300000D01*
X188930000Y-58310000D01*
X189020000Y-58290000D01*
X189110000Y-58250000D01*
X189190000Y-58180000D01*
X189260000Y-58090000D01*
X189310000Y-58010000D01*
X189340000Y-57910000D01*
X189350000Y-57810000D01*
X189640000Y-57800000D01*
X189640000Y-58110000D01*
X189640000Y-58210000D01*
X189680000Y-58280000D01*
X189790000Y-58310000D01*
X189910000Y-58300000D01*
X189970000Y-58240000D01*
X189990000Y-58150000D01*
X189990000Y-57840000D01*
X189990000Y-57740000D01*
X190040000Y-57660000D01*
X190140000Y-57620000D01*
X190240000Y-57640000D01*
X190310000Y-57710000D01*
X190330000Y-57810000D01*
X190330000Y-58210000D01*
X190370000Y-58290000D01*
X190470000Y-58310000D01*
X190600000Y-58300000D01*
X190660000Y-58240000D01*
X190670000Y-58140000D01*
X190970000Y-58130000D01*
X190980000Y-58220000D01*
X191030000Y-58290000D01*
X191140000Y-58310000D01*
X191260000Y-58290000D01*
X191310000Y-58230000D01*
X191320000Y-58130000D01*
X191320000Y-57110000D01*
X191320000Y-57010000D01*
X191290000Y-56920000D01*
X191220000Y-56880000D01*
X191400000Y-56580000D01*
X191440000Y-56580000D01*
G37*
X191440000Y-56580000D02*
X191540000Y-56590000D01*
X191640000Y-56610000D01*
X191740000Y-56640000D01*
X191830000Y-56680000D01*
X191920000Y-56730000D01*
X192010000Y-56790000D01*
X192080000Y-56850000D01*
X192150000Y-56920000D01*
X192220000Y-57000000D01*
X192270000Y-57090000D01*
X192320000Y-57180000D01*
X192360000Y-57270000D01*
X192390000Y-57370000D01*
X192400000Y-57470000D01*
X192410000Y-57570000D01*
X192410000Y-57670000D01*
X192400000Y-57770000D01*
X192380000Y-57870000D01*
X192340000Y-57970000D01*
X192300000Y-58060000D01*
X192250000Y-58150000D01*
X192190000Y-58230000D01*
X192130000Y-58310000D01*
X192050000Y-58380000D01*
X191970000Y-58440000D01*
X191890000Y-58490000D01*
X191790000Y-58540000D01*
X191700000Y-58570000D01*
X191600000Y-58600000D01*
X191500000Y-58610000D01*
X191400000Y-58620000D01*
X177080000Y-58620000D01*
X176980000Y-58610000D01*
X176880000Y-58590000D01*
X176780000Y-58560000D01*
X176690000Y-58530000D01*
X176600000Y-58480000D01*
X176510000Y-58430000D01*
X176430000Y-58360000D01*
X176360000Y-58290000D01*
X176290000Y-58220000D01*
X176240000Y-58130000D01*
X176190000Y-58040000D01*
X176150000Y-57950000D01*
X176120000Y-57850000D01*
X176100000Y-57750000D01*
X176090000Y-57650000D01*
X176090000Y-57550000D01*
X176100000Y-57450000D01*
X176120000Y-57350000D01*
X176150000Y-57250000D01*
X176190000Y-57160000D01*
X176240000Y-57070000D01*
X176290000Y-56990000D01*
X176360000Y-56910000D01*
X176430000Y-56840000D01*
X176510000Y-56770000D01*
X176600000Y-56720000D01*
X176690000Y-56670000D01*
X176780000Y-56640000D01*
X176880000Y-56610000D01*
X176980000Y-56590000D01*
X177080000Y-56580000D01*
X191400000Y-56580000D01*
X191220000Y-56880000D01*
X191090000Y-56880000D01*
X191000000Y-56920000D01*
X190970000Y-57000000D01*
X190970000Y-57110000D01*
X190970000Y-58120000D01*
X190670000Y-58140000D01*
X190670000Y-57420000D01*
X190640000Y-57330000D01*
X190580000Y-57290000D01*
X190440000Y-57290000D01*
X190360000Y-57320000D01*
X190330000Y-57410000D01*
X190250000Y-57340000D01*
X190160000Y-57290000D01*
X190040000Y-57290000D01*
X189940000Y-57310000D01*
X189850000Y-57360000D01*
X189780000Y-57430000D01*
X189710000Y-57510000D01*
X189670000Y-57600000D01*
X189650000Y-57700000D01*
X189640000Y-57800000D01*
X189360000Y-57810000D01*
X189350000Y-57710000D01*
X189320000Y-57610000D01*
X189280000Y-57520000D01*
X189220000Y-57440000D01*
X189140000Y-57370000D01*
X189050000Y-57320000D01*
X188960000Y-57290000D01*
X188850000Y-57290000D01*
X188760000Y-57310000D01*
X188680000Y-57370000D01*
X188660000Y-57310000D01*
X188660000Y-56900000D01*
X188580000Y-56810000D01*
X188470000Y-56810000D01*
X188380000Y-56830000D01*
X188330000Y-56910000D01*
X188330000Y-58130000D01*
X188000000Y-57970000D01*
X188030000Y-57880000D01*
X188030000Y-57780000D01*
X188020000Y-57670000D01*
X188000000Y-57570000D01*
X187950000Y-57480000D01*
X187890000Y-57410000D01*
X187820000Y-57340000D01*
X187730000Y-57300000D01*
X187640000Y-57260000D01*
X187530000Y-57250000D01*
X187420000Y-57250000D01*
X187320000Y-57260000D01*
X187230000Y-57300000D01*
X187150000Y-57360000D01*
X187080000Y-57430000D01*
X187040000Y-57520000D01*
X186730000Y-57470000D01*
X186720000Y-57390000D01*
X186640000Y-57300000D01*
X186550000Y-57250000D01*
X186480000Y-57280000D01*
X186390000Y-57360000D01*
X186250000Y-57510000D01*
X186180000Y-57520000D01*
X186040000Y-57370000D01*
X185960000Y-57290000D01*
X185880000Y-57250000D01*
X185800000Y-57290000D01*
X185710000Y-57380000D01*
X185690000Y-57460000D01*
X185740000Y-57550000D01*
X185960000Y-57770000D01*
X185950000Y-57800000D01*
X185740000Y-58030000D01*
X185690000Y-58110000D01*
X184820000Y-58090000D01*
X184820000Y-57080000D01*
X184820000Y-56970000D01*
X184770000Y-56900000D01*
X184670000Y-56880000D01*
X183950000Y-56880000D01*
X183820000Y-56880000D01*
X183740000Y-56930000D01*
X183710000Y-57020000D01*
X183710000Y-57130000D01*
X183760000Y-57210000D01*
X183350000Y-57490000D01*
X183290000Y-57410000D01*
X183220000Y-57350000D01*
X183130000Y-57300000D01*
X183040000Y-57260000D01*
X182940000Y-57250000D01*
X182820000Y-57250000D01*
X182720000Y-57260000D01*
X182630000Y-57300000D01*
X182550000Y-57350000D01*
X182480000Y-57430000D01*
X182440000Y-57520000D01*
X182420000Y-57620000D01*
X182420000Y-57720000D01*
X182110000Y-57750000D01*
X182100000Y-57650000D01*
X182070000Y-57550000D01*
X182020000Y-57470000D01*
X181960000Y-57390000D01*
X181880000Y-57330000D01*
X181790000Y-57290000D01*
X181700000Y-57260000D01*
X181590000Y-57250000D01*
X181480000Y-57250000D01*
X181380000Y-57270000D01*
X181290000Y-57310000D01*
X181210000Y-57370000D01*
X181150000Y-57450000D01*
X181110000Y-57540000D01*
X181100000Y-57640000D01*
X181100000Y-57740000D01*
X180780000Y-57770000D01*
X180770000Y-57670000D01*
X180730000Y-57580000D01*
X180680000Y-57490000D01*
X180610000Y-57410000D01*
X180530000Y-57340000D01*
X180440000Y-57300000D01*
X180340000Y-57290000D01*
X180240000Y-57290000D01*
X180150000Y-57330000D01*
X180090000Y-57370000D01*
X180090000Y-56960000D01*
X180080000Y-56860000D01*
X179970000Y-56810000D01*
X179860000Y-56810000D01*
X179770000Y-56850000D01*
X179750000Y-56950000D01*
X179750000Y-58180000D01*
X179400000Y-58030000D01*
X179440000Y-57940000D01*
X179460000Y-57840000D01*
X179460000Y-57730000D01*
X179440000Y-57630000D01*
X179410000Y-57530000D01*
X179360000Y-57450000D01*
X179290000Y-57380000D01*
X179210000Y-57320000D01*
X179120000Y-57280000D01*
X179020000Y-57250000D01*
X178920000Y-57240000D01*
X178810000Y-57250000D01*
X178710000Y-57280000D01*
X178620000Y-57320000D01*
X178550000Y-57380000D01*
X178490000Y-57470000D01*
X178450000Y-57560000D01*
X178110000Y-57390000D01*
X178070000Y-57310000D01*
X177970000Y-57290000D01*
X177840000Y-57300000D01*
X177780000Y-57350000D01*
X177740000Y-57360000D01*
X177650000Y-57300000D01*
X177560000Y-57270000D01*
X177460000Y-57280000D01*
X177380000Y-57310000D01*
X177330000Y-57390000D01*
X177330000Y-57490000D01*
X177380000Y-57590000D01*
X177460000Y-57640000D01*
X177550000Y-57610000D01*
X177650000Y-57600000D01*
X177740000Y-57650000D01*
X177770000Y-57740000D01*
X177770000Y-58150000D01*
X177780000Y-58250000D01*
X177850000Y-58300000D01*
X177970000Y-58310000D01*
X178070000Y-58290000D01*
X178110000Y-58200000D01*
X178110000Y-58100000D01*
X178110000Y-57390000D01*
X178450000Y-57560000D01*
X178440000Y-57660000D01*
X178440000Y-57760000D01*
X178460000Y-57790000D01*
X178530000Y-57860000D01*
X178630000Y-57880000D01*
X179030000Y-57880000D01*
X179090000Y-57920000D01*
X179010000Y-57990000D01*
X178910000Y-58020000D01*
X178800000Y-58010000D01*
X178710000Y-57990000D01*
X178620000Y-57970000D01*
X178540000Y-58020000D01*
X178500000Y-58120000D01*
X178510000Y-58190000D01*
X178550000Y-58240000D01*
X178630000Y-58280000D01*
X178750000Y-58300000D01*
X178900000Y-58310000D01*
X179010000Y-58310000D01*
X179110000Y-58290000D01*
X179200000Y-58250000D01*
X179290000Y-58190000D01*
X179350000Y-58120000D01*
X179400000Y-58030000D01*
X179750000Y-58180000D01*
X179780000Y-58260000D01*
X179850000Y-58300000D01*
X179980000Y-58310000D01*
X180070000Y-58270000D01*
X180110000Y-58230000D01*
X180190000Y-58290000D01*
X180290000Y-58310000D01*
X180390000Y-58310000D01*
X180480000Y-58280000D01*
X180570000Y-58220000D01*
X180650000Y-58140000D01*
X180710000Y-58060000D01*
X180750000Y-57970000D01*
X180770000Y-57870000D01*
X180780000Y-57770000D01*
X181100000Y-57740000D01*
X181170000Y-57840000D01*
X181260000Y-57880000D01*
X181360000Y-57880000D01*
X181660000Y-57880000D01*
X181740000Y-57900000D01*
X181680000Y-57980000D01*
X181580000Y-58010000D01*
X181470000Y-58010000D01*
X181380000Y-58000000D01*
X181290000Y-57970000D01*
X181210000Y-58000000D01*
X181150000Y-58100000D01*
X181150000Y-58180000D01*
X181190000Y-58230000D01*
X181260000Y-58270000D01*
X181370000Y-58300000D01*
X181510000Y-58310000D01*
X181640000Y-58310000D01*
X181740000Y-58290000D01*
X181830000Y-58260000D01*
X181920000Y-58210000D01*
X181990000Y-58140000D01*
X182050000Y-58050000D01*
X182080000Y-57960000D01*
X182110000Y-57860000D01*
X182110000Y-57760000D01*
X182420000Y-57720000D01*
X182470000Y-57830000D01*
X182560000Y-57880000D01*
X182660000Y-57880000D01*
X183060000Y-57880000D01*
X183020000Y-57970000D01*
X182930000Y-58010000D01*
X182820000Y-58020000D01*
X182720000Y-58000000D01*
X182630000Y-57970000D01*
X182550000Y-57980000D01*
X182480000Y-58080000D01*
X182470000Y-58160000D01*
X182500000Y-58220000D01*
X182560000Y-58270000D01*
X182660000Y-58290000D01*
X182800000Y-58310000D01*
X182940000Y-58310000D01*
X183040000Y-58300000D01*
X183130000Y-58270000D01*
X183220000Y-58220000D01*
X183300000Y-58150000D01*
X183360000Y-58070000D01*
X183400000Y-57980000D01*
X183420000Y-57880000D01*
X183430000Y-57780000D01*
X183420000Y-57670000D01*
X183400000Y-57570000D01*
X183350000Y-57490000D01*
X183770000Y-57210000D01*
X183860000Y-57220000D01*
X184470000Y-57220000D01*
X184480000Y-57320000D01*
X184480000Y-57420000D01*
X184380000Y-57430000D01*
X184070000Y-57430000D01*
X183980000Y-57450000D01*
X183940000Y-57520000D01*
X183930000Y-57640000D01*
X183970000Y-57740000D01*
X184040000Y-57770000D01*
X184150000Y-57770000D01*
X184460000Y-57770000D01*
X184480000Y-57850000D01*
X184480000Y-58160000D01*
X184500000Y-58250000D01*
X184560000Y-58300000D01*
X184690000Y-58310000D01*
X184790000Y-58280000D01*
X184820000Y-58210000D01*
X184820000Y-58100000D01*
X185690000Y-58110000D01*
X185710000Y-58190000D01*
X185800000Y-58280000D01*
X185880000Y-58310000D01*
X185960000Y-58270000D01*
X186040000Y-58190000D01*
X186180000Y-58050000D01*
X186260000Y-58080000D01*
X186400000Y-58220000D01*
X186490000Y-58290000D01*
X186570000Y-58310000D01*
X186660000Y-58250000D01*
X186730000Y-58160000D01*
X186720000Y-58090000D01*
X186650000Y-58000000D01*
X186510000Y-57850000D01*
X186460000Y-57780000D01*
X186670000Y-57560000D01*
X186730000Y-57470000D01*
X187040000Y-57530000D01*
X187020000Y-57620000D01*
X187020000Y-57720000D01*
X187080000Y-57830000D01*
X187160000Y-57880000D01*
X187260000Y-57880000D01*
X187570000Y-57880000D01*
X187670000Y-57890000D01*
X187620000Y-57970000D01*
X187520000Y-58010000D01*
X187420000Y-58010000D01*
X187320000Y-58000000D01*
X187220000Y-57970000D01*
X187150000Y-57990000D01*
X187080000Y-58080000D01*
X187070000Y-58170000D01*
X187100000Y-58220000D01*
X187170000Y-58270000D01*
X187270000Y-58300000D01*
X187410000Y-58310000D01*
X187540000Y-58310000D01*
X187640000Y-58290000D01*
X187740000Y-58270000D01*
X187830000Y-58220000D01*
X187900000Y-58150000D01*
X187960000Y-58070000D01*
X188000000Y-57970000D01*
X188330000Y-58130000D01*
X188330000Y-58230000D01*
X188390000Y-58290000D01*
X188500000Y-58310000D01*
X188610000Y-58290000D01*
X188660000Y-58220000D01*
X188730000Y-58270000D01*
X188820000Y-58300000D01*
X188930000Y-58310000D01*
X189020000Y-58290000D01*
X189110000Y-58250000D01*
X189190000Y-58180000D01*
X189260000Y-58090000D01*
X189310000Y-58010000D01*
X189340000Y-57910000D01*
X189350000Y-57810000D01*
X189640000Y-57800000D01*
X189640000Y-58110000D01*
X189640000Y-58210000D01*
X189680000Y-58280000D01*
X189790000Y-58310000D01*
X189910000Y-58300000D01*
X189970000Y-58240000D01*
X189990000Y-58150000D01*
X189990000Y-57840000D01*
X189990000Y-57740000D01*
X190040000Y-57660000D01*
X190140000Y-57620000D01*
X190240000Y-57640000D01*
X190310000Y-57710000D01*
X190330000Y-57810000D01*
X190330000Y-58210000D01*
X190370000Y-58290000D01*
X190470000Y-58310000D01*
X190600000Y-58300000D01*
X190660000Y-58240000D01*
X190670000Y-58140000D01*
X190970000Y-58130000D01*
X190980000Y-58220000D01*
X191030000Y-58290000D01*
X191140000Y-58310000D01*
X191260000Y-58290000D01*
X191310000Y-58230000D01*
X191320000Y-58130000D01*
X191320000Y-57110000D01*
X191320000Y-57010000D01*
X191290000Y-56920000D01*
X191220000Y-56880000D01*
X191400000Y-56580000D01*
X191440000Y-56580000D01*
G36*
X113340000Y-97400000D02*
G01*
X113340000Y-97000000D01*
X113430000Y-96980000D01*
X115360000Y-96980000D01*
X115380000Y-97060000D01*
X115380000Y-100920000D01*
X115320000Y-100990000D01*
X114410000Y-101440000D01*
X114320000Y-101450000D01*
X113420000Y-101000000D01*
X113340000Y-100940000D01*
X113340000Y-97490000D01*
X113650000Y-97650000D01*
X113640000Y-97830000D01*
X113640000Y-98140000D01*
X113650000Y-98240000D01*
X113680000Y-98330000D01*
X113720000Y-98420000D01*
X113770000Y-98510000D01*
X113840000Y-98590000D01*
X113910000Y-98660000D01*
X114000000Y-98720000D01*
X113790000Y-99110000D01*
X113690000Y-99140000D01*
X113650000Y-99200000D01*
X113640000Y-99320000D01*
X113640000Y-100030000D01*
X113640000Y-100130000D01*
X113680000Y-100200000D01*
X113790000Y-100230000D01*
X113910000Y-100220000D01*
X113970000Y-100160000D01*
X113980000Y-100060000D01*
X113980000Y-99560000D01*
X113990000Y-99460000D01*
X114090000Y-99460000D01*
X114190000Y-99460000D01*
X114190000Y-99870000D01*
X114210000Y-99960000D01*
X114280000Y-100010000D01*
X114410000Y-100010000D01*
X114490000Y-99970000D01*
X114530000Y-99890000D01*
X114530000Y-99780000D01*
X114530000Y-99480000D01*
X114610000Y-99460000D01*
X114710000Y-99460000D01*
X114730000Y-99460000D01*
X114730000Y-100070000D01*
X114740000Y-100170000D01*
X114800000Y-100220000D01*
X114930000Y-100230000D01*
X115030000Y-100200000D01*
X115070000Y-100130000D01*
X115070000Y-100020000D01*
X115070000Y-99310000D01*
X115060000Y-99190000D01*
X115010000Y-99130000D01*
X114920000Y-99110000D01*
X113790000Y-99110000D01*
X114000000Y-98720000D01*
X114090000Y-98760000D01*
X114180000Y-98790000D01*
X114280000Y-98800000D01*
X114390000Y-98810000D01*
X114490000Y-98790000D01*
X114590000Y-98770000D01*
X114680000Y-98730000D01*
X114760000Y-98680000D01*
X114840000Y-98610000D01*
X114920000Y-98540000D01*
X114970000Y-98450000D01*
X115020000Y-98370000D01*
X115050000Y-98270000D01*
X115070000Y-98170000D01*
X115070000Y-98070000D01*
X115070000Y-97760000D01*
X115060000Y-97650000D01*
X115010000Y-97580000D01*
X114910000Y-97570000D01*
X113790000Y-97570000D01*
X113700000Y-97580000D01*
X113650000Y-97650000D01*
X113340000Y-97490000D01*
X113340000Y-97400000D01*
G37*
X113340000Y-97400000D02*
X113340000Y-97000000D01*
X113430000Y-96980000D01*
X115360000Y-96980000D01*
X115380000Y-97060000D01*
X115380000Y-100920000D01*
X115320000Y-100990000D01*
X114410000Y-101440000D01*
X114320000Y-101450000D01*
X113420000Y-101000000D01*
X113340000Y-100940000D01*
X113340000Y-97490000D01*
X113650000Y-97650000D01*
X113640000Y-97830000D01*
X113640000Y-98140000D01*
X113650000Y-98240000D01*
X113680000Y-98330000D01*
X113720000Y-98420000D01*
X113770000Y-98510000D01*
X113840000Y-98590000D01*
X113910000Y-98660000D01*
X114000000Y-98720000D01*
X113790000Y-99110000D01*
X113690000Y-99140000D01*
X113650000Y-99200000D01*
X113640000Y-99320000D01*
X113640000Y-100030000D01*
X113640000Y-100130000D01*
X113680000Y-100200000D01*
X113790000Y-100230000D01*
X113910000Y-100220000D01*
X113970000Y-100160000D01*
X113980000Y-100060000D01*
X113980000Y-99560000D01*
X113990000Y-99460000D01*
X114090000Y-99460000D01*
X114190000Y-99460000D01*
X114190000Y-99870000D01*
X114210000Y-99960000D01*
X114280000Y-100010000D01*
X114410000Y-100010000D01*
X114490000Y-99970000D01*
X114530000Y-99890000D01*
X114530000Y-99780000D01*
X114530000Y-99480000D01*
X114610000Y-99460000D01*
X114710000Y-99460000D01*
X114730000Y-99460000D01*
X114730000Y-100070000D01*
X114740000Y-100170000D01*
X114800000Y-100220000D01*
X114930000Y-100230000D01*
X115030000Y-100200000D01*
X115070000Y-100130000D01*
X115070000Y-100020000D01*
X115070000Y-99310000D01*
X115060000Y-99190000D01*
X115010000Y-99130000D01*
X114920000Y-99110000D01*
X113790000Y-99110000D01*
X114000000Y-98720000D01*
X114090000Y-98760000D01*
X114180000Y-98790000D01*
X114280000Y-98800000D01*
X114390000Y-98810000D01*
X114490000Y-98790000D01*
X114590000Y-98770000D01*
X114680000Y-98730000D01*
X114760000Y-98680000D01*
X114840000Y-98610000D01*
X114920000Y-98540000D01*
X114970000Y-98450000D01*
X115020000Y-98370000D01*
X115050000Y-98270000D01*
X115070000Y-98170000D01*
X115070000Y-98070000D01*
X115070000Y-97760000D01*
X115060000Y-97650000D01*
X115010000Y-97580000D01*
X114910000Y-97570000D01*
X113790000Y-97570000D01*
X113700000Y-97580000D01*
X113650000Y-97650000D01*
X113340000Y-97490000D01*
X113340000Y-97400000D01*
G36*
X114710000Y-98260000D02*
G01*
X114640000Y-98330000D01*
X114560000Y-98400000D01*
X114470000Y-98440000D01*
X114370000Y-98460000D01*
X114270000Y-98450000D01*
X114170000Y-98420000D01*
X114090000Y-98360000D01*
X114030000Y-98280000D01*
X113990000Y-98190000D01*
X113980000Y-98080000D01*
X113980000Y-97980000D01*
X114020000Y-97910000D01*
X114630000Y-97910000D01*
X114730000Y-97920000D01*
X114730000Y-98220000D01*
X114710000Y-98260000D01*
G37*
X114710000Y-98260000D02*
X114640000Y-98330000D01*
X114560000Y-98400000D01*
X114470000Y-98440000D01*
X114370000Y-98460000D01*
X114270000Y-98450000D01*
X114170000Y-98420000D01*
X114090000Y-98360000D01*
X114030000Y-98280000D01*
X113990000Y-98190000D01*
X113980000Y-98080000D01*
X113980000Y-97980000D01*
X114020000Y-97910000D01*
X114630000Y-97910000D01*
X114730000Y-97920000D01*
X114730000Y-98220000D01*
X114710000Y-98260000D01*
G36*
X110780000Y-97040000D02*
G01*
X110780000Y-96630000D01*
X110840000Y-96590000D01*
X112770000Y-96590000D01*
X112820000Y-96640000D01*
X112820000Y-100900000D01*
X112770000Y-100970000D01*
X111870000Y-101430000D01*
X111780000Y-101450000D01*
X110870000Y-101000000D01*
X110780000Y-100950000D01*
X110780000Y-97090000D01*
X111080000Y-97220000D01*
X111080000Y-97360000D01*
X111080000Y-98380000D01*
X111110000Y-98470000D01*
X111210000Y-98490000D01*
X111230000Y-98790000D01*
X111150000Y-98810000D01*
X111070000Y-98900000D01*
X111030000Y-98990000D01*
X111060000Y-99060000D01*
X111130000Y-99150000D01*
X111520000Y-99480000D01*
X111460000Y-99540000D01*
X111150000Y-99810000D01*
X111070000Y-99890000D01*
X111030000Y-99970000D01*
X111060000Y-100050000D01*
X111140000Y-100140000D01*
X111220000Y-100170000D01*
X111310000Y-100130000D01*
X111390000Y-100060000D01*
X111770000Y-99720000D01*
X111770000Y-99710000D01*
X112140000Y-100060000D01*
X112220000Y-100130000D01*
X112310000Y-100170000D01*
X112390000Y-100140000D01*
X112480000Y-100060000D01*
X112510000Y-99970000D01*
X112470000Y-99890000D01*
X112010000Y-99490000D01*
X112080000Y-99420000D01*
X112380000Y-99160000D01*
X112470000Y-99080000D01*
X112510000Y-99000000D01*
X112480000Y-98920000D01*
X112400000Y-98830000D01*
X112320000Y-98790000D01*
X112240000Y-98830000D01*
X112150000Y-98900000D01*
X111780000Y-99240000D01*
X111700000Y-99190000D01*
X111320000Y-98850000D01*
X111230000Y-98790000D01*
X111210000Y-98490000D01*
X111310000Y-98480000D01*
X111360000Y-98400000D01*
X111360000Y-98290000D01*
X111360000Y-97990000D01*
X111460000Y-97980000D01*
X112380000Y-97980000D01*
X112470000Y-97950000D01*
X112510000Y-97870000D01*
X112510000Y-97760000D01*
X112480000Y-97670000D01*
X112390000Y-97640000D01*
X111370000Y-97640000D01*
X111360000Y-97540000D01*
X111360000Y-97230000D01*
X111330000Y-97150000D01*
X111230000Y-97120000D01*
X111130000Y-97140000D01*
X111080000Y-97220000D01*
X110780000Y-97090000D01*
X110780000Y-97040000D01*
G37*
X110780000Y-97040000D02*
X110780000Y-96630000D01*
X110840000Y-96590000D01*
X112770000Y-96590000D01*
X112820000Y-96640000D01*
X112820000Y-100900000D01*
X112770000Y-100970000D01*
X111870000Y-101430000D01*
X111780000Y-101450000D01*
X110870000Y-101000000D01*
X110780000Y-100950000D01*
X110780000Y-97090000D01*
X111080000Y-97220000D01*
X111080000Y-97360000D01*
X111080000Y-98380000D01*
X111110000Y-98470000D01*
X111210000Y-98490000D01*
X111230000Y-98790000D01*
X111150000Y-98810000D01*
X111070000Y-98900000D01*
X111030000Y-98990000D01*
X111060000Y-99060000D01*
X111130000Y-99150000D01*
X111520000Y-99480000D01*
X111460000Y-99540000D01*
X111150000Y-99810000D01*
X111070000Y-99890000D01*
X111030000Y-99970000D01*
X111060000Y-100050000D01*
X111140000Y-100140000D01*
X111220000Y-100170000D01*
X111310000Y-100130000D01*
X111390000Y-100060000D01*
X111770000Y-99720000D01*
X111770000Y-99710000D01*
X112140000Y-100060000D01*
X112220000Y-100130000D01*
X112310000Y-100170000D01*
X112390000Y-100140000D01*
X112480000Y-100060000D01*
X112510000Y-99970000D01*
X112470000Y-99890000D01*
X112010000Y-99490000D01*
X112080000Y-99420000D01*
X112380000Y-99160000D01*
X112470000Y-99080000D01*
X112510000Y-99000000D01*
X112480000Y-98920000D01*
X112400000Y-98830000D01*
X112320000Y-98790000D01*
X112240000Y-98830000D01*
X112150000Y-98900000D01*
X111780000Y-99240000D01*
X111700000Y-99190000D01*
X111320000Y-98850000D01*
X111230000Y-98790000D01*
X111210000Y-98490000D01*
X111310000Y-98480000D01*
X111360000Y-98400000D01*
X111360000Y-98290000D01*
X111360000Y-97990000D01*
X111460000Y-97980000D01*
X112380000Y-97980000D01*
X112470000Y-97950000D01*
X112510000Y-97870000D01*
X112510000Y-97760000D01*
X112480000Y-97670000D01*
X112390000Y-97640000D01*
X111370000Y-97640000D01*
X111360000Y-97540000D01*
X111360000Y-97230000D01*
X111330000Y-97150000D01*
X111230000Y-97120000D01*
X111130000Y-97140000D01*
X111080000Y-97220000D01*
X110780000Y-97090000D01*
X110780000Y-97040000D01*
G36*
X108220000Y-97270000D02*
G01*
X108220000Y-96860000D01*
X108290000Y-96830000D01*
X110220000Y-96830000D01*
X110260000Y-96890000D01*
X110260000Y-100950000D01*
X109260000Y-101450000D01*
X109170000Y-101420000D01*
X108260000Y-100970000D01*
X108220000Y-100890000D01*
X108220000Y-97340000D01*
X108540000Y-97450000D01*
X108510000Y-97540000D01*
X108510000Y-97650000D01*
X108510000Y-97960000D01*
X108510000Y-98060000D01*
X108530000Y-98150000D01*
X108570000Y-98240000D01*
X108630000Y-98330000D01*
X108700000Y-98410000D01*
X108790000Y-98460000D01*
X108880000Y-98500000D01*
X108980000Y-98520000D01*
X109090000Y-98520000D01*
X109190000Y-98500000D01*
X109280000Y-98460000D01*
X109360000Y-98410000D01*
X109430000Y-98390000D01*
X109510000Y-98430000D01*
X109610000Y-98470000D01*
X109700000Y-98500000D01*
X109790000Y-98530000D01*
X109760000Y-98790000D01*
X109680000Y-98830000D01*
X109590000Y-98900000D01*
X109210000Y-99240000D01*
X109140000Y-99180000D01*
X108750000Y-98840000D01*
X108670000Y-98790000D01*
X108590000Y-98810000D01*
X108510000Y-98900000D01*
X108470000Y-98990000D01*
X108500000Y-99070000D01*
X108580000Y-99150000D01*
X108960000Y-99480000D01*
X108890000Y-99540000D01*
X108590000Y-99810000D01*
X108510000Y-99890000D01*
X108470000Y-99970000D01*
X108500000Y-100050000D01*
X108590000Y-100140000D01*
X108660000Y-100170000D01*
X108750000Y-100120000D01*
X109130000Y-99780000D01*
X109210000Y-99710000D01*
X109580000Y-100060000D01*
X109660000Y-100130000D01*
X109750000Y-100170000D01*
X109830000Y-100140000D01*
X109920000Y-100050000D01*
X109950000Y-99970000D01*
X109910000Y-99890000D01*
X109450000Y-99480000D01*
X109520000Y-99420000D01*
X109820000Y-99150000D01*
X109910000Y-99080000D01*
X109950000Y-99000000D01*
X109920000Y-98920000D01*
X109840000Y-98820000D01*
X109760000Y-98790000D01*
X109800000Y-98530000D01*
X109870000Y-98500000D01*
X109930000Y-98390000D01*
X109950000Y-98300000D01*
X109900000Y-98220000D01*
X109660000Y-98120000D01*
X109540000Y-98050000D01*
X109540000Y-97840000D01*
X109570000Y-97760000D01*
X109770000Y-97760000D01*
X109870000Y-97750000D01*
X109930000Y-97690000D01*
X109940000Y-97570000D01*
X109920000Y-97460000D01*
X109850000Y-97420000D01*
X109740000Y-97420000D01*
X108620000Y-97420000D01*
X108540000Y-97450000D01*
X108220000Y-97330000D01*
X108220000Y-97270000D01*
G37*
X108220000Y-97270000D02*
X108220000Y-96860000D01*
X108290000Y-96830000D01*
X110220000Y-96830000D01*
X110260000Y-96890000D01*
X110260000Y-100950000D01*
X109260000Y-101450000D01*
X109170000Y-101420000D01*
X108260000Y-100970000D01*
X108220000Y-100890000D01*
X108220000Y-97340000D01*
X108540000Y-97450000D01*
X108510000Y-97540000D01*
X108510000Y-97650000D01*
X108510000Y-97960000D01*
X108510000Y-98060000D01*
X108530000Y-98150000D01*
X108570000Y-98240000D01*
X108630000Y-98330000D01*
X108700000Y-98410000D01*
X108790000Y-98460000D01*
X108880000Y-98500000D01*
X108980000Y-98520000D01*
X109090000Y-98520000D01*
X109190000Y-98500000D01*
X109280000Y-98460000D01*
X109360000Y-98410000D01*
X109430000Y-98390000D01*
X109510000Y-98430000D01*
X109610000Y-98470000D01*
X109700000Y-98500000D01*
X109790000Y-98530000D01*
X109760000Y-98790000D01*
X109680000Y-98830000D01*
X109590000Y-98900000D01*
X109210000Y-99240000D01*
X109140000Y-99180000D01*
X108750000Y-98840000D01*
X108670000Y-98790000D01*
X108590000Y-98810000D01*
X108510000Y-98900000D01*
X108470000Y-98990000D01*
X108500000Y-99070000D01*
X108580000Y-99150000D01*
X108960000Y-99480000D01*
X108890000Y-99540000D01*
X108590000Y-99810000D01*
X108510000Y-99890000D01*
X108470000Y-99970000D01*
X108500000Y-100050000D01*
X108590000Y-100140000D01*
X108660000Y-100170000D01*
X108750000Y-100120000D01*
X109130000Y-99780000D01*
X109210000Y-99710000D01*
X109580000Y-100060000D01*
X109660000Y-100130000D01*
X109750000Y-100170000D01*
X109830000Y-100140000D01*
X109920000Y-100050000D01*
X109950000Y-99970000D01*
X109910000Y-99890000D01*
X109450000Y-99480000D01*
X109520000Y-99420000D01*
X109820000Y-99150000D01*
X109910000Y-99080000D01*
X109950000Y-99000000D01*
X109920000Y-98920000D01*
X109840000Y-98820000D01*
X109760000Y-98790000D01*
X109800000Y-98530000D01*
X109870000Y-98500000D01*
X109930000Y-98390000D01*
X109950000Y-98300000D01*
X109900000Y-98220000D01*
X109660000Y-98120000D01*
X109540000Y-98050000D01*
X109540000Y-97840000D01*
X109570000Y-97760000D01*
X109770000Y-97760000D01*
X109870000Y-97750000D01*
X109930000Y-97690000D01*
X109940000Y-97570000D01*
X109920000Y-97460000D01*
X109850000Y-97420000D01*
X109740000Y-97420000D01*
X108620000Y-97420000D01*
X108540000Y-97450000D01*
X108220000Y-97330000D01*
X108220000Y-97270000D01*
G36*
X109200000Y-97790000D02*
G01*
X109200000Y-97990000D01*
X109180000Y-98090000D01*
X109120000Y-98160000D01*
X109010000Y-98180000D01*
X108920000Y-98140000D01*
X108860000Y-98060000D01*
X108850000Y-97960000D01*
X108850000Y-97860000D01*
X108860000Y-97760000D01*
X109160000Y-97760000D01*
X109200000Y-97790000D01*
G37*
X109200000Y-97790000D02*
X109200000Y-97990000D01*
X109180000Y-98090000D01*
X109120000Y-98160000D01*
X109010000Y-98180000D01*
X108920000Y-98140000D01*
X108860000Y-98060000D01*
X108850000Y-97960000D01*
X108850000Y-97860000D01*
X108860000Y-97760000D01*
X109160000Y-97760000D01*
X109200000Y-97790000D01*
G36*
X105660000Y-95230000D02*
G01*
X105670000Y-94720000D01*
X107600000Y-94720000D01*
X107700000Y-94720000D01*
X107700000Y-100930000D01*
X107630000Y-100990000D01*
X106720000Y-101450000D01*
X106630000Y-101440000D01*
X105720000Y-100990000D01*
X105660000Y-100920000D01*
X105660000Y-95230000D01*
X106030000Y-95480000D01*
X105980000Y-95560000D01*
X105940000Y-95660000D01*
X105920000Y-95750000D01*
X105920000Y-95860000D01*
X105920000Y-95960000D01*
X105970000Y-96110000D01*
X106040000Y-96180000D01*
X106120000Y-96250000D01*
X106210000Y-96300000D01*
X106300000Y-96330000D01*
X106400000Y-96330000D01*
X106500000Y-96310000D01*
X106570000Y-96240000D01*
X106630000Y-96200000D01*
X106700000Y-96280000D01*
X106780000Y-96340000D01*
X106880000Y-96370000D01*
X106980000Y-96360000D01*
X107090000Y-96690000D01*
X107040000Y-96760000D01*
X107030000Y-96880000D01*
X107050000Y-96980000D01*
X107120000Y-97030000D01*
X107070000Y-97360000D01*
X106960000Y-97340000D01*
X106890000Y-97360000D01*
X106840000Y-97440000D01*
X106830000Y-97570000D01*
X106870000Y-97650000D01*
X106960000Y-97700000D01*
X107030000Y-97760000D01*
X107060000Y-97870000D01*
X107040000Y-97980000D01*
X106990000Y-98060000D01*
X106900000Y-98080000D01*
X106820000Y-98020000D01*
X106790000Y-97930000D01*
X106780000Y-97830000D01*
X106740000Y-97750000D01*
X106630000Y-97730000D01*
X106510000Y-97750000D01*
X106460000Y-97800000D01*
X106450000Y-97910000D01*
X106420000Y-98020000D01*
X106350000Y-98050000D01*
X106270000Y-97990000D01*
X106250000Y-97890000D01*
X106280000Y-97790000D01*
X106350000Y-97720000D01*
X106430000Y-97660000D01*
X106440000Y-97570000D01*
X106390000Y-97470000D01*
X106310000Y-97410000D01*
X106240000Y-97410000D01*
X106130000Y-97450000D01*
X106050000Y-97520000D01*
X105990000Y-97600000D01*
X105950000Y-97700000D01*
X105920000Y-97790000D01*
X105920000Y-97900000D01*
X105920000Y-98100000D01*
X105950000Y-98160000D01*
X106020000Y-98230000D01*
X106100000Y-98300000D01*
X106180000Y-98360000D01*
X106280000Y-98390000D01*
X106160000Y-98730000D01*
X106080000Y-98720000D01*
X106010000Y-98780000D01*
X105950000Y-98890000D01*
X105960000Y-98980000D01*
X106040000Y-99040000D01*
X106100000Y-99080000D01*
X106790000Y-99390000D01*
X106900000Y-99440000D01*
X106860000Y-99470000D01*
X106130000Y-99810000D01*
X106030000Y-99850000D01*
X105960000Y-99920000D01*
X105960000Y-100010000D01*
X105980000Y-100070000D01*
X106050000Y-100160000D01*
X106130000Y-100180000D01*
X106230000Y-100140000D01*
X107230000Y-99650000D01*
X107320000Y-99600000D01*
X107380000Y-99520000D01*
X107390000Y-99420000D01*
X107350000Y-99320000D01*
X107260000Y-99270000D01*
X106260000Y-98770000D01*
X106160000Y-98730000D01*
X106280000Y-98390000D01*
X106380000Y-98400000D01*
X106480000Y-98380000D01*
X106560000Y-98320000D01*
X106620000Y-98250000D01*
X106690000Y-98320000D01*
X106760000Y-98390000D01*
X106860000Y-98420000D01*
X106960000Y-98430000D01*
X107060000Y-98410000D01*
X107150000Y-98370000D01*
X107230000Y-98300000D01*
X107290000Y-98230000D01*
X107340000Y-98140000D01*
X107370000Y-98050000D01*
X107390000Y-97940000D01*
X107390000Y-97830000D01*
X107380000Y-97730000D01*
X107350000Y-97630000D01*
X107300000Y-97550000D01*
X107240000Y-97470000D01*
X107160000Y-97410000D01*
X107070000Y-97360000D01*
X107130000Y-97030000D01*
X107240000Y-97040000D01*
X107330000Y-97010000D01*
X107380000Y-96950000D01*
X107390000Y-96820000D01*
X107370000Y-96720000D01*
X107300000Y-96680000D01*
X107180000Y-96670000D01*
X107090000Y-96690000D01*
X106990000Y-96360000D01*
X107080000Y-96340000D01*
X107170000Y-96290000D01*
X107250000Y-96220000D01*
X107310000Y-96140000D01*
X107350000Y-96060000D01*
X107380000Y-95960000D01*
X107390000Y-95860000D01*
X107390000Y-95740000D01*
X107370000Y-95640000D01*
X107340000Y-95550000D01*
X107290000Y-95470000D01*
X107220000Y-95390000D01*
X107140000Y-95330000D01*
X107040000Y-95300000D01*
X106940000Y-95280000D01*
X106870000Y-95310000D01*
X106840000Y-95410000D01*
X106840000Y-95540000D01*
X106880000Y-95600000D01*
X106980000Y-95640000D01*
X107040000Y-95730000D01*
X107060000Y-95830000D01*
X107040000Y-95940000D01*
X106970000Y-96010000D01*
X106880000Y-96010000D01*
X106810000Y-95940000D01*
X106780000Y-95740000D01*
X106720000Y-95680000D01*
X106600000Y-95670000D01*
X106490000Y-95690000D01*
X106450000Y-95760000D01*
X106440000Y-95880000D01*
X106410000Y-95970000D01*
X106330000Y-95980000D01*
X106260000Y-95910000D01*
X106260000Y-95800000D01*
X106300000Y-95710000D01*
X106380000Y-95650000D01*
X106440000Y-95580000D01*
X106430000Y-95480000D01*
X106370000Y-95390000D01*
X106290000Y-95340000D01*
X106210000Y-95350000D01*
X106120000Y-95400000D01*
X106030000Y-95480000D01*
X105660000Y-95230000D01*
G37*
X105660000Y-95230000D02*
X105670000Y-94720000D01*
X107600000Y-94720000D01*
X107700000Y-94720000D01*
X107700000Y-100930000D01*
X107630000Y-100990000D01*
X106720000Y-101450000D01*
X106630000Y-101440000D01*
X105720000Y-100990000D01*
X105660000Y-100920000D01*
X105660000Y-95230000D01*
X106030000Y-95480000D01*
X105980000Y-95560000D01*
X105940000Y-95660000D01*
X105920000Y-95750000D01*
X105920000Y-95860000D01*
X105920000Y-95960000D01*
X105970000Y-96110000D01*
X106040000Y-96180000D01*
X106120000Y-96250000D01*
X106210000Y-96300000D01*
X106300000Y-96330000D01*
X106400000Y-96330000D01*
X106500000Y-96310000D01*
X106570000Y-96240000D01*
X106630000Y-96200000D01*
X106700000Y-96280000D01*
X106780000Y-96340000D01*
X106880000Y-96370000D01*
X106980000Y-96360000D01*
X107090000Y-96690000D01*
X107040000Y-96760000D01*
X107030000Y-96880000D01*
X107050000Y-96980000D01*
X107120000Y-97030000D01*
X107070000Y-97360000D01*
X106960000Y-97340000D01*
X106890000Y-97360000D01*
X106840000Y-97440000D01*
X106830000Y-97570000D01*
X106870000Y-97650000D01*
X106960000Y-97700000D01*
X107030000Y-97760000D01*
X107060000Y-97870000D01*
X107040000Y-97980000D01*
X106990000Y-98060000D01*
X106900000Y-98080000D01*
X106820000Y-98020000D01*
X106790000Y-97930000D01*
X106780000Y-97830000D01*
X106740000Y-97750000D01*
X106630000Y-97730000D01*
X106510000Y-97750000D01*
X106460000Y-97800000D01*
X106450000Y-97910000D01*
X106420000Y-98020000D01*
X106350000Y-98050000D01*
X106270000Y-97990000D01*
X106250000Y-97890000D01*
X106280000Y-97790000D01*
X106350000Y-97720000D01*
X106430000Y-97660000D01*
X106440000Y-97570000D01*
X106390000Y-97470000D01*
X106310000Y-97410000D01*
X106240000Y-97410000D01*
X106130000Y-97450000D01*
X106050000Y-97520000D01*
X105990000Y-97600000D01*
X105950000Y-97700000D01*
X105920000Y-97790000D01*
X105920000Y-97900000D01*
X105920000Y-98100000D01*
X105950000Y-98160000D01*
X106020000Y-98230000D01*
X106100000Y-98300000D01*
X106180000Y-98360000D01*
X106280000Y-98390000D01*
X106160000Y-98730000D01*
X106080000Y-98720000D01*
X106010000Y-98780000D01*
X105950000Y-98890000D01*
X105960000Y-98980000D01*
X106040000Y-99040000D01*
X106100000Y-99080000D01*
X106790000Y-99390000D01*
X106900000Y-99440000D01*
X106860000Y-99470000D01*
X106130000Y-99810000D01*
X106030000Y-99850000D01*
X105960000Y-99920000D01*
X105960000Y-100010000D01*
X105980000Y-100070000D01*
X106050000Y-100160000D01*
X106130000Y-100180000D01*
X106230000Y-100140000D01*
X107230000Y-99650000D01*
X107320000Y-99600000D01*
X107380000Y-99520000D01*
X107390000Y-99420000D01*
X107350000Y-99320000D01*
X107260000Y-99270000D01*
X106260000Y-98770000D01*
X106160000Y-98730000D01*
X106280000Y-98390000D01*
X106380000Y-98400000D01*
X106480000Y-98380000D01*
X106560000Y-98320000D01*
X106620000Y-98250000D01*
X106690000Y-98320000D01*
X106760000Y-98390000D01*
X106860000Y-98420000D01*
X106960000Y-98430000D01*
X107060000Y-98410000D01*
X107150000Y-98370000D01*
X107230000Y-98300000D01*
X107290000Y-98230000D01*
X107340000Y-98140000D01*
X107370000Y-98050000D01*
X107390000Y-97940000D01*
X107390000Y-97830000D01*
X107380000Y-97730000D01*
X107350000Y-97630000D01*
X107300000Y-97550000D01*
X107240000Y-97470000D01*
X107160000Y-97410000D01*
X107070000Y-97360000D01*
X107130000Y-97030000D01*
X107240000Y-97040000D01*
X107330000Y-97010000D01*
X107380000Y-96950000D01*
X107390000Y-96820000D01*
X107370000Y-96720000D01*
X107300000Y-96680000D01*
X107180000Y-96670000D01*
X107090000Y-96690000D01*
X106990000Y-96360000D01*
X107080000Y-96340000D01*
X107170000Y-96290000D01*
X107250000Y-96220000D01*
X107310000Y-96140000D01*
X107350000Y-96060000D01*
X107380000Y-95960000D01*
X107390000Y-95860000D01*
X107390000Y-95740000D01*
X107370000Y-95640000D01*
X107340000Y-95550000D01*
X107290000Y-95470000D01*
X107220000Y-95390000D01*
X107140000Y-95330000D01*
X107040000Y-95300000D01*
X106940000Y-95280000D01*
X106870000Y-95310000D01*
X106840000Y-95410000D01*
X106840000Y-95540000D01*
X106880000Y-95600000D01*
X106980000Y-95640000D01*
X107040000Y-95730000D01*
X107060000Y-95830000D01*
X107040000Y-95940000D01*
X106970000Y-96010000D01*
X106880000Y-96010000D01*
X106810000Y-95940000D01*
X106780000Y-95740000D01*
X106720000Y-95680000D01*
X106600000Y-95670000D01*
X106490000Y-95690000D01*
X106450000Y-95760000D01*
X106440000Y-95880000D01*
X106410000Y-95970000D01*
X106330000Y-95980000D01*
X106260000Y-95910000D01*
X106260000Y-95800000D01*
X106300000Y-95710000D01*
X106380000Y-95650000D01*
X106440000Y-95580000D01*
X106430000Y-95480000D01*
X106370000Y-95390000D01*
X106290000Y-95340000D01*
X106210000Y-95350000D01*
X106120000Y-95400000D01*
X106030000Y-95480000D01*
X105660000Y-95230000D01*
G36*
X103100000Y-97330000D02*
G01*
X103100000Y-96920000D01*
X103140000Y-96860000D01*
X105070000Y-96860000D01*
X105140000Y-96890000D01*
X105140000Y-100950000D01*
X105060000Y-101000000D01*
X104150000Y-101450000D01*
X104060000Y-101440000D01*
X103150000Y-100990000D01*
X103100000Y-100920000D01*
X103100000Y-97370000D01*
X103440000Y-97480000D01*
X103400000Y-97570000D01*
X103400000Y-97680000D01*
X103440000Y-97760000D01*
X103540000Y-97840000D01*
X103950000Y-98140000D01*
X104200000Y-98330000D01*
X104200000Y-98350000D01*
X103590000Y-98350000D01*
X103480000Y-98360000D01*
X103420000Y-98400000D01*
X103400000Y-98500000D01*
X103410000Y-98600000D01*
X103460000Y-98670000D01*
X103560000Y-98700000D01*
X103730000Y-99060000D01*
X103650000Y-99120000D01*
X103580000Y-99180000D01*
X103510000Y-99260000D01*
X103460000Y-99350000D01*
X103420000Y-99450000D01*
X103390000Y-99540000D01*
X103370000Y-99640000D01*
X103370000Y-99740000D01*
X103380000Y-99840000D01*
X103410000Y-99950000D01*
X103440000Y-100040000D01*
X103500000Y-100120000D01*
X103570000Y-100190000D01*
X103660000Y-100190000D01*
X103760000Y-100120000D01*
X103820000Y-100050000D01*
X103810000Y-99970000D01*
X103750000Y-99880000D01*
X103720000Y-99790000D01*
X103710000Y-99680000D01*
X103730000Y-99580000D01*
X103780000Y-99490000D01*
X103840000Y-99410000D01*
X103920000Y-99350000D01*
X104020000Y-99320000D01*
X104120000Y-99320000D01*
X104220000Y-99330000D01*
X104320000Y-99370000D01*
X104390000Y-99440000D01*
X104440000Y-99530000D01*
X104480000Y-99620000D01*
X104490000Y-99720000D01*
X104470000Y-99820000D01*
X104430000Y-99900000D01*
X104380000Y-100000000D01*
X104390000Y-100060000D01*
X104470000Y-100140000D01*
X104570000Y-100190000D01*
X104660000Y-100160000D01*
X104720000Y-100080000D01*
X104760000Y-100010000D01*
X104800000Y-99900000D01*
X104830000Y-99800000D01*
X104830000Y-99700000D01*
X104820000Y-99600000D01*
X104800000Y-99500000D01*
X104760000Y-99410000D01*
X104710000Y-99320000D01*
X104660000Y-99230000D01*
X104590000Y-99160000D01*
X104510000Y-99100000D01*
X104420000Y-99050000D01*
X104330000Y-99010000D01*
X104230000Y-98980000D01*
X104130000Y-98970000D01*
X104020000Y-98970000D01*
X103920000Y-98990000D01*
X103830000Y-99020000D01*
X103730000Y-99060000D01*
X103560000Y-98700000D01*
X104690000Y-98700000D01*
X104770000Y-98670000D01*
X104820000Y-98610000D01*
X104830000Y-98480000D01*
X104810000Y-98390000D01*
X104710000Y-98310000D01*
X104050000Y-97810000D01*
X104040000Y-97780000D01*
X104640000Y-97780000D01*
X104740000Y-97780000D01*
X104810000Y-97730000D01*
X104830000Y-97620000D01*
X104810000Y-97500000D01*
X104740000Y-97450000D01*
X104650000Y-97450000D01*
X103630000Y-97450000D01*
X103520000Y-97450000D01*
X103440000Y-97480000D01*
X103100000Y-97360000D01*
X103100000Y-97330000D01*
G37*
X103100000Y-97330000D02*
X103100000Y-96920000D01*
X103140000Y-96860000D01*
X105070000Y-96860000D01*
X105140000Y-96890000D01*
X105140000Y-100950000D01*
X105060000Y-101000000D01*
X104150000Y-101450000D01*
X104060000Y-101440000D01*
X103150000Y-100990000D01*
X103100000Y-100920000D01*
X103100000Y-97370000D01*
X103440000Y-97480000D01*
X103400000Y-97570000D01*
X103400000Y-97680000D01*
X103440000Y-97760000D01*
X103540000Y-97840000D01*
X103950000Y-98140000D01*
X104200000Y-98330000D01*
X104200000Y-98350000D01*
X103590000Y-98350000D01*
X103480000Y-98360000D01*
X103420000Y-98400000D01*
X103400000Y-98500000D01*
X103410000Y-98600000D01*
X103460000Y-98670000D01*
X103560000Y-98700000D01*
X103730000Y-99060000D01*
X103650000Y-99120000D01*
X103580000Y-99180000D01*
X103510000Y-99260000D01*
X103460000Y-99350000D01*
X103420000Y-99450000D01*
X103390000Y-99540000D01*
X103370000Y-99640000D01*
X103370000Y-99740000D01*
X103380000Y-99840000D01*
X103410000Y-99950000D01*
X103440000Y-100040000D01*
X103500000Y-100120000D01*
X103570000Y-100190000D01*
X103660000Y-100190000D01*
X103760000Y-100120000D01*
X103820000Y-100050000D01*
X103810000Y-99970000D01*
X103750000Y-99880000D01*
X103720000Y-99790000D01*
X103710000Y-99680000D01*
X103730000Y-99580000D01*
X103780000Y-99490000D01*
X103840000Y-99410000D01*
X103920000Y-99350000D01*
X104020000Y-99320000D01*
X104120000Y-99320000D01*
X104220000Y-99330000D01*
X104320000Y-99370000D01*
X104390000Y-99440000D01*
X104440000Y-99530000D01*
X104480000Y-99620000D01*
X104490000Y-99720000D01*
X104470000Y-99820000D01*
X104430000Y-99900000D01*
X104380000Y-100000000D01*
X104390000Y-100060000D01*
X104470000Y-100140000D01*
X104570000Y-100190000D01*
X104660000Y-100160000D01*
X104720000Y-100080000D01*
X104760000Y-100010000D01*
X104800000Y-99900000D01*
X104830000Y-99800000D01*
X104830000Y-99700000D01*
X104820000Y-99600000D01*
X104800000Y-99500000D01*
X104760000Y-99410000D01*
X104710000Y-99320000D01*
X104660000Y-99230000D01*
X104590000Y-99160000D01*
X104510000Y-99100000D01*
X104420000Y-99050000D01*
X104330000Y-99010000D01*
X104230000Y-98980000D01*
X104130000Y-98970000D01*
X104020000Y-98970000D01*
X103920000Y-98990000D01*
X103830000Y-99020000D01*
X103730000Y-99060000D01*
X103560000Y-98700000D01*
X104690000Y-98700000D01*
X104770000Y-98670000D01*
X104820000Y-98610000D01*
X104830000Y-98480000D01*
X104810000Y-98390000D01*
X104710000Y-98310000D01*
X104050000Y-97810000D01*
X104040000Y-97780000D01*
X104640000Y-97780000D01*
X104740000Y-97780000D01*
X104810000Y-97730000D01*
X104830000Y-97620000D01*
X104810000Y-97500000D01*
X104740000Y-97450000D01*
X104650000Y-97450000D01*
X103630000Y-97450000D01*
X103520000Y-97450000D01*
X103440000Y-97480000D01*
X103100000Y-97360000D01*
X103100000Y-97330000D01*
G36*
X100540000Y-95760000D02*
G01*
X100540000Y-95350000D01*
X100560000Y-95270000D01*
X102490000Y-95270000D01*
X102580000Y-95290000D01*
X102580000Y-100880000D01*
X102550000Y-100960000D01*
X101640000Y-101420000D01*
X101550000Y-101450000D01*
X100550000Y-100950000D01*
X100540000Y-100860000D01*
X100540000Y-95780000D01*
X100960000Y-96100000D01*
X100900000Y-96180000D01*
X100860000Y-96270000D01*
X100820000Y-96360000D01*
X100800000Y-96460000D01*
X100800000Y-96560000D01*
X100810000Y-96660000D01*
X100830000Y-96760000D01*
X100860000Y-96850000D01*
X100910000Y-96940000D01*
X100980000Y-97030000D01*
X101070000Y-97040000D01*
X101170000Y-96990000D01*
X101230000Y-96910000D01*
X101240000Y-96830000D01*
X101190000Y-96730000D01*
X101150000Y-96640000D01*
X101140000Y-96540000D01*
X101160000Y-96440000D01*
X101200000Y-96350000D01*
X101260000Y-96270000D01*
X101340000Y-96210000D01*
X101440000Y-96180000D01*
X101550000Y-96180000D01*
X101650000Y-96190000D01*
X101740000Y-96230000D01*
X101820000Y-96300000D01*
X101880000Y-96380000D01*
X101920000Y-96480000D01*
X101930000Y-96580000D01*
X101910000Y-96680000D01*
X101860000Y-96740000D01*
X101760000Y-96740000D01*
X101670000Y-96730000D01*
X101670000Y-96620000D01*
X101660000Y-96520000D01*
X101590000Y-96470000D01*
X101480000Y-96470000D01*
X101400000Y-96520000D01*
X101390000Y-96630000D01*
X101390000Y-96930000D01*
X101420000Y-97040000D01*
X101480000Y-97080000D01*
X101590000Y-97090000D01*
X102000000Y-97090000D01*
X102100000Y-97420000D01*
X100970000Y-97430000D01*
X100890000Y-97450000D01*
X100840000Y-97530000D01*
X100840000Y-97640000D01*
X100880000Y-97730000D01*
X100970000Y-97810000D01*
X101380000Y-98110000D01*
X101640000Y-98300000D01*
X101650000Y-98330000D01*
X101040000Y-98330000D01*
X100930000Y-98330000D01*
X100840000Y-98450000D01*
X100840000Y-98560000D01*
X100880000Y-98640000D01*
X100970000Y-98670000D01*
X101080000Y-98670000D01*
X102100000Y-98670000D01*
X102090000Y-98980000D01*
X100970000Y-98980000D01*
X100880000Y-99000000D01*
X100840000Y-99070000D01*
X100840000Y-99150000D01*
X100840000Y-99460000D01*
X100840000Y-99560000D01*
X100850000Y-99660000D01*
X100880000Y-99750000D01*
X100920000Y-99840000D01*
X100980000Y-99930000D01*
X101050000Y-100010000D01*
X101120000Y-100080000D01*
X101210000Y-100130000D01*
X101300000Y-100180000D01*
X101390000Y-100200000D01*
X101490000Y-100220000D01*
X101600000Y-100220000D01*
X101700000Y-100200000D01*
X101800000Y-100180000D01*
X101890000Y-100140000D01*
X101970000Y-100080000D01*
X102050000Y-100010000D01*
X102120000Y-99940000D01*
X102180000Y-99850000D01*
X102220000Y-99760000D01*
X102250000Y-99670000D01*
X102270000Y-99570000D01*
X102270000Y-99470000D01*
X102270000Y-99160000D01*
X102260000Y-99050000D01*
X102200000Y-98990000D01*
X102100000Y-98980000D01*
X102100000Y-98670000D01*
X102190000Y-98660000D01*
X102260000Y-98600000D01*
X102270000Y-98480000D01*
X102260000Y-98380000D01*
X102170000Y-98300000D01*
X101690000Y-97930000D01*
X101460000Y-97760000D01*
X102170000Y-97760000D01*
X102240000Y-97720000D01*
X102270000Y-97620000D01*
X102260000Y-97490000D01*
X102200000Y-97430000D01*
X102100000Y-97420000D01*
X102000000Y-97090000D01*
X102090000Y-97050000D01*
X102150000Y-96980000D01*
X102200000Y-96900000D01*
X102240000Y-96810000D01*
X102260000Y-96710000D01*
X102270000Y-96590000D01*
X102270000Y-96480000D01*
X102250000Y-96380000D01*
X102220000Y-96290000D01*
X102180000Y-96200000D01*
X102120000Y-96120000D01*
X102050000Y-96040000D01*
X101970000Y-95970000D01*
X101890000Y-95920000D01*
X101800000Y-95880000D01*
X101700000Y-95850000D01*
X101600000Y-95830000D01*
X101490000Y-95830000D01*
X101390000Y-95840000D01*
X101290000Y-95860000D01*
X101200000Y-95900000D01*
X101120000Y-95950000D01*
X101040000Y-96020000D01*
X100970000Y-96090000D01*
X100540000Y-95780000D01*
X100540000Y-95760000D01*
G37*
X100540000Y-95760000D02*
X100540000Y-95350000D01*
X100560000Y-95270000D01*
X102490000Y-95270000D01*
X102580000Y-95290000D01*
X102580000Y-100880000D01*
X102550000Y-100960000D01*
X101640000Y-101420000D01*
X101550000Y-101450000D01*
X100550000Y-100950000D01*
X100540000Y-100860000D01*
X100540000Y-95780000D01*
X100960000Y-96100000D01*
X100900000Y-96180000D01*
X100860000Y-96270000D01*
X100820000Y-96360000D01*
X100800000Y-96460000D01*
X100800000Y-96560000D01*
X100810000Y-96660000D01*
X100830000Y-96760000D01*
X100860000Y-96850000D01*
X100910000Y-96940000D01*
X100980000Y-97030000D01*
X101070000Y-97040000D01*
X101170000Y-96990000D01*
X101230000Y-96910000D01*
X101240000Y-96830000D01*
X101190000Y-96730000D01*
X101150000Y-96640000D01*
X101140000Y-96540000D01*
X101160000Y-96440000D01*
X101200000Y-96350000D01*
X101260000Y-96270000D01*
X101340000Y-96210000D01*
X101440000Y-96180000D01*
X101550000Y-96180000D01*
X101650000Y-96190000D01*
X101740000Y-96230000D01*
X101820000Y-96300000D01*
X101880000Y-96380000D01*
X101920000Y-96480000D01*
X101930000Y-96580000D01*
X101910000Y-96680000D01*
X101860000Y-96740000D01*
X101760000Y-96740000D01*
X101670000Y-96730000D01*
X101670000Y-96620000D01*
X101660000Y-96520000D01*
X101590000Y-96470000D01*
X101480000Y-96470000D01*
X101400000Y-96520000D01*
X101390000Y-96630000D01*
X101390000Y-96930000D01*
X101420000Y-97040000D01*
X101480000Y-97080000D01*
X101590000Y-97090000D01*
X102000000Y-97090000D01*
X102100000Y-97420000D01*
X100970000Y-97430000D01*
X100890000Y-97450000D01*
X100840000Y-97530000D01*
X100840000Y-97640000D01*
X100880000Y-97730000D01*
X100970000Y-97810000D01*
X101380000Y-98110000D01*
X101640000Y-98300000D01*
X101650000Y-98330000D01*
X101040000Y-98330000D01*
X100930000Y-98330000D01*
X100840000Y-98450000D01*
X100840000Y-98560000D01*
X100880000Y-98640000D01*
X100970000Y-98670000D01*
X101080000Y-98670000D01*
X102100000Y-98670000D01*
X102090000Y-98980000D01*
X100970000Y-98980000D01*
X100880000Y-99000000D01*
X100840000Y-99070000D01*
X100840000Y-99150000D01*
X100840000Y-99460000D01*
X100840000Y-99560000D01*
X100850000Y-99660000D01*
X100880000Y-99750000D01*
X100920000Y-99840000D01*
X100980000Y-99930000D01*
X101050000Y-100010000D01*
X101120000Y-100080000D01*
X101210000Y-100130000D01*
X101300000Y-100180000D01*
X101390000Y-100200000D01*
X101490000Y-100220000D01*
X101600000Y-100220000D01*
X101700000Y-100200000D01*
X101800000Y-100180000D01*
X101890000Y-100140000D01*
X101970000Y-100080000D01*
X102050000Y-100010000D01*
X102120000Y-99940000D01*
X102180000Y-99850000D01*
X102220000Y-99760000D01*
X102250000Y-99670000D01*
X102270000Y-99570000D01*
X102270000Y-99470000D01*
X102270000Y-99160000D01*
X102260000Y-99050000D01*
X102200000Y-98990000D01*
X102100000Y-98980000D01*
X102100000Y-98670000D01*
X102190000Y-98660000D01*
X102260000Y-98600000D01*
X102270000Y-98480000D01*
X102260000Y-98380000D01*
X102170000Y-98300000D01*
X101690000Y-97930000D01*
X101460000Y-97760000D01*
X102170000Y-97760000D01*
X102240000Y-97720000D01*
X102270000Y-97620000D01*
X102260000Y-97490000D01*
X102200000Y-97430000D01*
X102100000Y-97420000D01*
X102000000Y-97090000D01*
X102090000Y-97050000D01*
X102150000Y-96980000D01*
X102200000Y-96900000D01*
X102240000Y-96810000D01*
X102260000Y-96710000D01*
X102270000Y-96590000D01*
X102270000Y-96480000D01*
X102250000Y-96380000D01*
X102220000Y-96290000D01*
X102180000Y-96200000D01*
X102120000Y-96120000D01*
X102050000Y-96040000D01*
X101970000Y-95970000D01*
X101890000Y-95920000D01*
X101800000Y-95880000D01*
X101700000Y-95850000D01*
X101600000Y-95830000D01*
X101490000Y-95830000D01*
X101390000Y-95840000D01*
X101290000Y-95860000D01*
X101200000Y-95900000D01*
X101120000Y-95950000D01*
X101040000Y-96020000D01*
X100970000Y-96090000D01*
X100540000Y-95780000D01*
X100540000Y-95760000D01*
G36*
X101900000Y-99680000D02*
G01*
X101830000Y-99750000D01*
X101750000Y-99820000D01*
X101660000Y-99860000D01*
X101560000Y-99870000D01*
X101450000Y-99860000D01*
X101360000Y-99820000D01*
X101280000Y-99760000D01*
X101220000Y-99680000D01*
X101190000Y-99580000D01*
X101180000Y-99480000D01*
X101180000Y-99380000D01*
X101230000Y-99320000D01*
X101840000Y-99320000D01*
X101930000Y-99340000D01*
X101930000Y-99650000D01*
X101900000Y-99680000D01*
G37*
X101900000Y-99680000D02*
X101830000Y-99750000D01*
X101750000Y-99820000D01*
X101660000Y-99860000D01*
X101560000Y-99870000D01*
X101450000Y-99860000D01*
X101360000Y-99820000D01*
X101280000Y-99760000D01*
X101220000Y-99680000D01*
X101190000Y-99580000D01*
X101180000Y-99480000D01*
X101180000Y-99380000D01*
X101230000Y-99320000D01*
X101840000Y-99320000D01*
X101930000Y-99340000D01*
X101930000Y-99650000D01*
X101900000Y-99680000D01*
G36*
X95330000Y-100680000D02*
G01*
X95430000Y-100690000D01*
X95530000Y-100710000D01*
X95630000Y-100750000D01*
X95720000Y-100790000D01*
X95810000Y-100840000D01*
X95890000Y-100900000D01*
X95970000Y-100970000D01*
X96030000Y-101040000D01*
X96090000Y-101130000D01*
X96150000Y-101210000D01*
X96190000Y-101300000D01*
X96220000Y-101400000D01*
X96250000Y-101500000D01*
X96260000Y-101600000D01*
X96270000Y-101700000D01*
X96260000Y-101800000D01*
X96240000Y-101900000D01*
X96220000Y-102000000D01*
X96180000Y-102090000D01*
X96140000Y-102190000D01*
X96080000Y-102270000D01*
X96020000Y-102350000D01*
X95950000Y-102430000D01*
X95870000Y-102490000D01*
X95790000Y-102550000D01*
X95700000Y-102600000D01*
X95610000Y-102640000D01*
X95510000Y-102670000D01*
X95410000Y-102690000D01*
X95310000Y-102700000D01*
X95210000Y-102710000D01*
X88920000Y-102710000D01*
X88820000Y-102700000D01*
X88720000Y-102690000D01*
X88620000Y-102660000D01*
X88520000Y-102630000D01*
X88430000Y-102590000D01*
X88340000Y-102530000D01*
X88260000Y-102470000D01*
X88190000Y-102400000D01*
X88120000Y-102330000D01*
X88060000Y-102250000D01*
X88010000Y-102160000D01*
X87970000Y-102070000D01*
X87930000Y-101970000D01*
X87910000Y-101870000D01*
X87900000Y-101770000D01*
X87890000Y-101670000D01*
X87900000Y-101570000D01*
X87920000Y-101470000D01*
X87950000Y-101370000D01*
X87980000Y-101280000D01*
X88030000Y-101190000D01*
X88080000Y-101100000D01*
X88150000Y-101020000D01*
X88220000Y-100950000D01*
X88290000Y-100880000D01*
X88380000Y-100830000D01*
X88470000Y-100780000D01*
X88560000Y-100740000D01*
X88660000Y-100710000D01*
X88750000Y-100690000D01*
X88860000Y-100680000D01*
X88960000Y-100670000D01*
X95250000Y-100670000D01*
X95130000Y-100980000D01*
X95020000Y-100960000D01*
X94610000Y-100960000D01*
X94510000Y-100960000D01*
X94420000Y-100990000D01*
X94330000Y-101030000D01*
X94240000Y-101100000D01*
X94170000Y-101160000D01*
X94110000Y-101250000D01*
X94080000Y-101350000D01*
X94060000Y-101450000D01*
X94070000Y-101550000D01*
X94090000Y-101650000D01*
X93750000Y-101690000D01*
X93710000Y-101610000D01*
X93660000Y-101520000D01*
X93590000Y-101460000D01*
X93510000Y-101400000D01*
X93420000Y-101360000D01*
X93320000Y-101340000D01*
X93210000Y-101330000D01*
X93100000Y-101350000D01*
X93000000Y-101380000D01*
X92920000Y-101420000D01*
X92850000Y-101490000D01*
X92800000Y-101580000D01*
X92770000Y-101670000D01*
X92430000Y-101640000D01*
X92410000Y-101540000D01*
X92380000Y-101470000D01*
X92310000Y-101410000D01*
X92230000Y-101370000D01*
X92120000Y-101340000D01*
X91990000Y-101330000D01*
X91890000Y-101340000D01*
X91790000Y-101370000D01*
X91690000Y-101410000D01*
X91640000Y-101480000D01*
X91680000Y-101580000D01*
X91760000Y-101660000D01*
X91840000Y-101640000D01*
X91940000Y-101600000D01*
X92060000Y-101600000D01*
X92120000Y-101650000D01*
X92070000Y-101700000D01*
X91950000Y-101730000D01*
X91850000Y-101750000D01*
X91750000Y-101780000D01*
X91670000Y-101840000D01*
X91620000Y-101920000D01*
X91600000Y-102020000D01*
X91280000Y-102020000D01*
X91300000Y-101920000D01*
X91300000Y-101810000D01*
X91280000Y-101710000D01*
X91240000Y-101620000D01*
X91190000Y-101540000D01*
X91120000Y-101470000D01*
X91040000Y-101410000D01*
X90950000Y-101370000D01*
X90850000Y-101340000D01*
X90750000Y-101330000D01*
X90640000Y-101340000D01*
X90540000Y-101370000D01*
X90450000Y-101410000D01*
X90380000Y-101480000D01*
X90320000Y-101560000D01*
X90290000Y-101660000D01*
X90000000Y-101580000D01*
X89990000Y-101470000D01*
X89940000Y-101390000D01*
X89840000Y-101380000D01*
X89810000Y-101310000D01*
X89810000Y-101110000D01*
X89770000Y-101040000D01*
X89650000Y-101020000D01*
X89540000Y-101040000D01*
X89490000Y-101100000D01*
X89480000Y-101210000D01*
X89480000Y-101310000D01*
X89450000Y-101380000D01*
X89350000Y-101380000D01*
X89260000Y-101390000D01*
X89200000Y-101450000D01*
X89180000Y-101570000D01*
X89210000Y-101670000D01*
X89280000Y-101710000D01*
X89360000Y-101720000D01*
X89460000Y-101710000D01*
X89480000Y-101790000D01*
X89480000Y-102000000D01*
X89440000Y-102070000D01*
X89330000Y-102080000D01*
X89250000Y-102120000D01*
X89240000Y-102230000D01*
X89250000Y-102340000D01*
X89320000Y-102390000D01*
X89430000Y-102400000D01*
X89540000Y-102390000D01*
X89640000Y-102360000D01*
X89710000Y-102310000D01*
X89760000Y-102250000D01*
X89800000Y-102160000D01*
X89810000Y-102050000D01*
X89810000Y-101730000D01*
X89890000Y-101720000D01*
X89980000Y-101680000D01*
X90000000Y-101580000D01*
X90290000Y-101660000D01*
X90280000Y-101760000D01*
X90280000Y-101860000D01*
X90300000Y-101880000D01*
X90380000Y-101950000D01*
X90470000Y-101970000D01*
X90880000Y-101970000D01*
X90920000Y-102020000D01*
X90840000Y-102080000D01*
X90740000Y-102110000D01*
X90630000Y-102100000D01*
X90540000Y-102080000D01*
X90450000Y-102060000D01*
X90370000Y-102110000D01*
X90330000Y-102220000D01*
X90350000Y-102280000D01*
X90390000Y-102340000D01*
X90480000Y-102370000D01*
X90590000Y-102390000D01*
X90750000Y-102400000D01*
X90850000Y-102390000D01*
X90950000Y-102370000D01*
X91050000Y-102340000D01*
X91130000Y-102280000D01*
X91190000Y-102200000D01*
X91250000Y-102110000D01*
X91280000Y-102020000D01*
X91600000Y-102030000D01*
X91610000Y-102140000D01*
X91640000Y-102230000D01*
X91700000Y-102310000D01*
X91780000Y-102360000D01*
X91870000Y-102380000D01*
X91970000Y-102400000D01*
X92080000Y-102400000D01*
X92180000Y-102390000D01*
X92280000Y-102360000D01*
X92370000Y-102320000D01*
X92430000Y-102290000D01*
X92450000Y-102200000D01*
X92420000Y-102120000D01*
X92350000Y-102030000D01*
X92260000Y-102040000D01*
X92150000Y-102090000D01*
X92060000Y-102130000D01*
X91940000Y-102110000D01*
X91920000Y-102060000D01*
X92030000Y-102030000D01*
X92130000Y-102010000D01*
X92230000Y-101970000D01*
X92310000Y-101920000D01*
X92370000Y-101840000D01*
X92410000Y-101740000D01*
X92430000Y-101640000D01*
X92770000Y-101670000D01*
X92760000Y-101770000D01*
X92790000Y-101890000D01*
X92870000Y-101960000D01*
X92970000Y-101970000D01*
X93380000Y-101970000D01*
X93390000Y-102030000D01*
X93300000Y-102090000D01*
X93200000Y-102110000D01*
X93090000Y-102100000D01*
X93000000Y-102070000D01*
X92920000Y-102060000D01*
X92840000Y-102130000D01*
X92810000Y-102230000D01*
X92830000Y-102290000D01*
X92880000Y-102340000D01*
X92970000Y-102380000D01*
X93100000Y-102400000D01*
X93240000Y-102400000D01*
X93350000Y-102390000D01*
X93450000Y-102370000D01*
X93540000Y-102330000D01*
X93620000Y-102270000D01*
X93680000Y-102190000D01*
X93730000Y-102100000D01*
X93760000Y-102000000D01*
X93780000Y-101910000D01*
X93770000Y-101800000D01*
X93750000Y-101700000D01*
X94090000Y-101650000D01*
X94130000Y-101740000D01*
X94190000Y-101820000D01*
X94190000Y-101890000D01*
X94150000Y-101980000D01*
X94110000Y-102080000D01*
X94070000Y-102170000D01*
X94050000Y-102260000D01*
X94100000Y-102330000D01*
X94210000Y-102390000D01*
X94300000Y-102400000D01*
X94370000Y-102350000D01*
X94480000Y-102090000D01*
X94560000Y-101990000D01*
X94760000Y-101990000D01*
X94820000Y-102030000D01*
X94820000Y-102240000D01*
X94840000Y-102340000D01*
X94910000Y-102380000D01*
X95040000Y-102390000D01*
X95140000Y-102360000D01*
X95170000Y-102280000D01*
X95170000Y-102170000D01*
X95170000Y-101060000D01*
X95130000Y-100990000D01*
X95250000Y-100670000D01*
X95330000Y-100680000D01*
G37*
X95330000Y-100680000D02*
X95430000Y-100690000D01*
X95530000Y-100710000D01*
X95630000Y-100750000D01*
X95720000Y-100790000D01*
X95810000Y-100840000D01*
X95890000Y-100900000D01*
X95970000Y-100970000D01*
X96030000Y-101040000D01*
X96090000Y-101130000D01*
X96150000Y-101210000D01*
X96190000Y-101300000D01*
X96220000Y-101400000D01*
X96250000Y-101500000D01*
X96260000Y-101600000D01*
X96270000Y-101700000D01*
X96260000Y-101800000D01*
X96240000Y-101900000D01*
X96220000Y-102000000D01*
X96180000Y-102090000D01*
X96140000Y-102190000D01*
X96080000Y-102270000D01*
X96020000Y-102350000D01*
X95950000Y-102430000D01*
X95870000Y-102490000D01*
X95790000Y-102550000D01*
X95700000Y-102600000D01*
X95610000Y-102640000D01*
X95510000Y-102670000D01*
X95410000Y-102690000D01*
X95310000Y-102700000D01*
X95210000Y-102710000D01*
X88920000Y-102710000D01*
X88820000Y-102700000D01*
X88720000Y-102690000D01*
X88620000Y-102660000D01*
X88520000Y-102630000D01*
X88430000Y-102590000D01*
X88340000Y-102530000D01*
X88260000Y-102470000D01*
X88190000Y-102400000D01*
X88120000Y-102330000D01*
X88060000Y-102250000D01*
X88010000Y-102160000D01*
X87970000Y-102070000D01*
X87930000Y-101970000D01*
X87910000Y-101870000D01*
X87900000Y-101770000D01*
X87890000Y-101670000D01*
X87900000Y-101570000D01*
X87920000Y-101470000D01*
X87950000Y-101370000D01*
X87980000Y-101280000D01*
X88030000Y-101190000D01*
X88080000Y-101100000D01*
X88150000Y-101020000D01*
X88220000Y-100950000D01*
X88290000Y-100880000D01*
X88380000Y-100830000D01*
X88470000Y-100780000D01*
X88560000Y-100740000D01*
X88660000Y-100710000D01*
X88750000Y-100690000D01*
X88860000Y-100680000D01*
X88960000Y-100670000D01*
X95250000Y-100670000D01*
X95130000Y-100980000D01*
X95020000Y-100960000D01*
X94610000Y-100960000D01*
X94510000Y-100960000D01*
X94420000Y-100990000D01*
X94330000Y-101030000D01*
X94240000Y-101100000D01*
X94170000Y-101160000D01*
X94110000Y-101250000D01*
X94080000Y-101350000D01*
X94060000Y-101450000D01*
X94070000Y-101550000D01*
X94090000Y-101650000D01*
X93750000Y-101690000D01*
X93710000Y-101610000D01*
X93660000Y-101520000D01*
X93590000Y-101460000D01*
X93510000Y-101400000D01*
X93420000Y-101360000D01*
X93320000Y-101340000D01*
X93210000Y-101330000D01*
X93100000Y-101350000D01*
X93000000Y-101380000D01*
X92920000Y-101420000D01*
X92850000Y-101490000D01*
X92800000Y-101580000D01*
X92770000Y-101670000D01*
X92430000Y-101640000D01*
X92410000Y-101540000D01*
X92380000Y-101470000D01*
X92310000Y-101410000D01*
X92230000Y-101370000D01*
X92120000Y-101340000D01*
X91990000Y-101330000D01*
X91890000Y-101340000D01*
X91790000Y-101370000D01*
X91690000Y-101410000D01*
X91640000Y-101480000D01*
X91680000Y-101580000D01*
X91760000Y-101660000D01*
X91840000Y-101640000D01*
X91940000Y-101600000D01*
X92060000Y-101600000D01*
X92120000Y-101650000D01*
X92070000Y-101700000D01*
X91950000Y-101730000D01*
X91850000Y-101750000D01*
X91750000Y-101780000D01*
X91670000Y-101840000D01*
X91620000Y-101920000D01*
X91600000Y-102020000D01*
X91280000Y-102020000D01*
X91300000Y-101920000D01*
X91300000Y-101810000D01*
X91280000Y-101710000D01*
X91240000Y-101620000D01*
X91190000Y-101540000D01*
X91120000Y-101470000D01*
X91040000Y-101410000D01*
X90950000Y-101370000D01*
X90850000Y-101340000D01*
X90750000Y-101330000D01*
X90640000Y-101340000D01*
X90540000Y-101370000D01*
X90450000Y-101410000D01*
X90380000Y-101480000D01*
X90320000Y-101560000D01*
X90290000Y-101660000D01*
X90000000Y-101580000D01*
X89990000Y-101470000D01*
X89940000Y-101390000D01*
X89840000Y-101380000D01*
X89810000Y-101310000D01*
X89810000Y-101110000D01*
X89770000Y-101040000D01*
X89650000Y-101020000D01*
X89540000Y-101040000D01*
X89490000Y-101100000D01*
X89480000Y-101210000D01*
X89480000Y-101310000D01*
X89450000Y-101380000D01*
X89350000Y-101380000D01*
X89260000Y-101390000D01*
X89200000Y-101450000D01*
X89180000Y-101570000D01*
X89210000Y-101670000D01*
X89280000Y-101710000D01*
X89360000Y-101720000D01*
X89460000Y-101710000D01*
X89480000Y-101790000D01*
X89480000Y-102000000D01*
X89440000Y-102070000D01*
X89330000Y-102080000D01*
X89250000Y-102120000D01*
X89240000Y-102230000D01*
X89250000Y-102340000D01*
X89320000Y-102390000D01*
X89430000Y-102400000D01*
X89540000Y-102390000D01*
X89640000Y-102360000D01*
X89710000Y-102310000D01*
X89760000Y-102250000D01*
X89800000Y-102160000D01*
X89810000Y-102050000D01*
X89810000Y-101730000D01*
X89890000Y-101720000D01*
X89980000Y-101680000D01*
X90000000Y-101580000D01*
X90290000Y-101660000D01*
X90280000Y-101760000D01*
X90280000Y-101860000D01*
X90300000Y-101880000D01*
X90380000Y-101950000D01*
X90470000Y-101970000D01*
X90880000Y-101970000D01*
X90920000Y-102020000D01*
X90840000Y-102080000D01*
X90740000Y-102110000D01*
X90630000Y-102100000D01*
X90540000Y-102080000D01*
X90450000Y-102060000D01*
X90370000Y-102110000D01*
X90330000Y-102220000D01*
X90350000Y-102280000D01*
X90390000Y-102340000D01*
X90480000Y-102370000D01*
X90590000Y-102390000D01*
X90750000Y-102400000D01*
X90850000Y-102390000D01*
X90950000Y-102370000D01*
X91050000Y-102340000D01*
X91130000Y-102280000D01*
X91190000Y-102200000D01*
X91250000Y-102110000D01*
X91280000Y-102020000D01*
X91600000Y-102030000D01*
X91610000Y-102140000D01*
X91640000Y-102230000D01*
X91700000Y-102310000D01*
X91780000Y-102360000D01*
X91870000Y-102380000D01*
X91970000Y-102400000D01*
X92080000Y-102400000D01*
X92180000Y-102390000D01*
X92280000Y-102360000D01*
X92370000Y-102320000D01*
X92430000Y-102290000D01*
X92450000Y-102200000D01*
X92420000Y-102120000D01*
X92350000Y-102030000D01*
X92260000Y-102040000D01*
X92150000Y-102090000D01*
X92060000Y-102130000D01*
X91940000Y-102110000D01*
X91920000Y-102060000D01*
X92030000Y-102030000D01*
X92130000Y-102010000D01*
X92230000Y-101970000D01*
X92310000Y-101920000D01*
X92370000Y-101840000D01*
X92410000Y-101740000D01*
X92430000Y-101640000D01*
X92770000Y-101670000D01*
X92760000Y-101770000D01*
X92790000Y-101890000D01*
X92870000Y-101960000D01*
X92970000Y-101970000D01*
X93380000Y-101970000D01*
X93390000Y-102030000D01*
X93300000Y-102090000D01*
X93200000Y-102110000D01*
X93090000Y-102100000D01*
X93000000Y-102070000D01*
X92920000Y-102060000D01*
X92840000Y-102130000D01*
X92810000Y-102230000D01*
X92830000Y-102290000D01*
X92880000Y-102340000D01*
X92970000Y-102380000D01*
X93100000Y-102400000D01*
X93240000Y-102400000D01*
X93350000Y-102390000D01*
X93450000Y-102370000D01*
X93540000Y-102330000D01*
X93620000Y-102270000D01*
X93680000Y-102190000D01*
X93730000Y-102100000D01*
X93760000Y-102000000D01*
X93780000Y-101910000D01*
X93770000Y-101800000D01*
X93750000Y-101700000D01*
X94090000Y-101650000D01*
X94130000Y-101740000D01*
X94190000Y-101820000D01*
X94190000Y-101890000D01*
X94150000Y-101980000D01*
X94110000Y-102080000D01*
X94070000Y-102170000D01*
X94050000Y-102260000D01*
X94100000Y-102330000D01*
X94210000Y-102390000D01*
X94300000Y-102400000D01*
X94370000Y-102350000D01*
X94480000Y-102090000D01*
X94560000Y-101990000D01*
X94760000Y-101990000D01*
X94820000Y-102030000D01*
X94820000Y-102240000D01*
X94840000Y-102340000D01*
X94910000Y-102380000D01*
X95040000Y-102390000D01*
X95140000Y-102360000D01*
X95170000Y-102280000D01*
X95170000Y-102170000D01*
X95170000Y-101060000D01*
X95130000Y-100990000D01*
X95250000Y-100670000D01*
X95330000Y-100680000D01*
G36*
X94780000Y-101650000D02*
G01*
X94580000Y-101650000D01*
X94480000Y-101620000D01*
X94420000Y-101550000D01*
X94410000Y-101440000D01*
X94450000Y-101360000D01*
X94540000Y-101310000D01*
X94640000Y-101300000D01*
X94750000Y-101300000D01*
X94820000Y-101330000D01*
X94820000Y-101630000D01*
X94780000Y-101650000D01*
G37*
X94780000Y-101650000D02*
X94580000Y-101650000D01*
X94480000Y-101620000D01*
X94420000Y-101550000D01*
X94410000Y-101440000D01*
X94450000Y-101360000D01*
X94540000Y-101310000D01*
X94640000Y-101300000D01*
X94750000Y-101300000D01*
X94820000Y-101330000D01*
X94820000Y-101630000D01*
X94780000Y-101650000D01*
G36*
X93150000Y-101800000D02*
G01*
X93100000Y-101730000D01*
X93150000Y-101650000D01*
X93250000Y-101640000D01*
X93340000Y-101680000D01*
X93400000Y-101760000D01*
X93350000Y-101800000D01*
X93250000Y-101800000D01*
X93150000Y-101800000D01*
G37*
X93150000Y-101800000D02*
X93100000Y-101730000D01*
X93150000Y-101650000D01*
X93250000Y-101640000D01*
X93340000Y-101680000D01*
X93400000Y-101760000D01*
X93350000Y-101800000D01*
X93250000Y-101800000D01*
X93150000Y-101800000D01*
G36*
X90620000Y-101750000D02*
G01*
X90660000Y-101660000D01*
X90750000Y-101640000D01*
X90850000Y-101670000D01*
X90920000Y-101750000D01*
X90890000Y-101800000D01*
X90790000Y-101800000D01*
X90620000Y-101750000D01*
G37*
X90620000Y-101750000D02*
X90660000Y-101660000D01*
X90750000Y-101640000D01*
X90850000Y-101670000D01*
X90920000Y-101750000D01*
X90890000Y-101800000D01*
X90790000Y-101800000D01*
X90620000Y-101750000D01*
G36*
X74780000Y-100670000D02*
G01*
X74880000Y-100680000D01*
X74980000Y-100700000D01*
X75080000Y-100730000D01*
X75170000Y-100760000D01*
X75260000Y-100810000D01*
X75350000Y-100860000D01*
X75430000Y-100930000D01*
X75500000Y-101000000D01*
X75560000Y-101070000D01*
X75620000Y-101160000D01*
X75670000Y-101250000D01*
X75710000Y-101340000D01*
X75740000Y-101440000D01*
X75760000Y-101540000D01*
X75770000Y-101640000D01*
X75770000Y-101740000D01*
X75760000Y-101840000D01*
X75740000Y-101940000D01*
X75710000Y-102040000D01*
X75670000Y-102130000D01*
X75620000Y-102220000D01*
X75570000Y-102300000D01*
X75500000Y-102380000D01*
X75430000Y-102450000D01*
X75350000Y-102510000D01*
X75270000Y-102570000D01*
X75180000Y-102620000D01*
X75080000Y-102650000D01*
X74980000Y-102680000D01*
X74880000Y-102700000D01*
X74780000Y-102710000D01*
X74680000Y-102710000D01*
X74560000Y-102400000D01*
X74650000Y-102360000D01*
X74670000Y-102280000D01*
X74680000Y-102170000D01*
X74680000Y-101160000D01*
X74670000Y-101060000D01*
X74630000Y-100990000D01*
X74510000Y-100970000D01*
X74000000Y-100970000D01*
X73900000Y-100980000D01*
X73810000Y-101020000D01*
X73720000Y-101080000D01*
X73660000Y-101160000D01*
X73610000Y-101250000D01*
X73590000Y-101340000D01*
X73590000Y-101450000D01*
X73610000Y-101540000D01*
X73660000Y-101640000D01*
X73610000Y-101700000D01*
X73570000Y-101790000D01*
X73550000Y-101890000D01*
X73270000Y-101870000D01*
X73270000Y-101660000D01*
X73270000Y-101630000D01*
X73120000Y-101490000D01*
X73040000Y-101430000D01*
X72950000Y-101380000D01*
X72860000Y-101350000D01*
X72760000Y-101330000D01*
X72660000Y-101340000D01*
X72560000Y-101360000D01*
X72470000Y-101400000D01*
X72380000Y-101460000D01*
X72310000Y-101540000D01*
X72260000Y-101620000D01*
X72230000Y-101710000D01*
X72210000Y-101810000D01*
X71900000Y-101840000D01*
X71900000Y-101640000D01*
X71880000Y-101610000D01*
X71730000Y-101470000D01*
X71650000Y-101410000D01*
X71560000Y-101370000D01*
X71460000Y-101340000D01*
X71360000Y-101330000D01*
X71260000Y-101340000D01*
X71160000Y-101370000D01*
X71070000Y-101420000D01*
X70990000Y-101480000D01*
X70930000Y-101560000D01*
X70880000Y-101640000D01*
X70850000Y-101740000D01*
X70530000Y-101680000D01*
X70550000Y-101580000D01*
X70540000Y-101470000D01*
X70490000Y-101390000D01*
X70400000Y-101380000D01*
X70370000Y-101310000D01*
X70370000Y-101110000D01*
X70320000Y-101040000D01*
X70210000Y-101020000D01*
X70090000Y-101040000D01*
X70040000Y-101100000D01*
X70030000Y-101210000D01*
X70030000Y-101310000D01*
X70000000Y-101380000D01*
X69910000Y-101380000D01*
X69810000Y-101390000D01*
X69750000Y-101450000D01*
X69740000Y-101570000D01*
X69760000Y-101670000D01*
X69840000Y-101720000D01*
X69910000Y-101720000D01*
X70010000Y-101710000D01*
X70030000Y-101790000D01*
X70030000Y-102000000D01*
X69990000Y-102070000D01*
X69880000Y-102080000D01*
X69810000Y-102120000D01*
X69790000Y-102230000D01*
X69810000Y-102350000D01*
X69880000Y-102390000D01*
X69980000Y-102400000D01*
X70090000Y-102390000D01*
X70190000Y-102360000D01*
X70260000Y-102310000D01*
X70320000Y-102250000D01*
X70350000Y-102160000D01*
X70370000Y-102050000D01*
X70370000Y-101730000D01*
X70450000Y-101720000D01*
X70530000Y-101680000D01*
X70850000Y-101740000D01*
X70840000Y-101840000D01*
X70840000Y-101950000D01*
X70860000Y-102050000D01*
X70910000Y-102140000D01*
X70970000Y-102220000D01*
X71040000Y-102290000D01*
X71120000Y-102340000D01*
X71220000Y-102380000D01*
X71320000Y-102400000D01*
X71420000Y-102400000D01*
X71520000Y-102380000D01*
X71610000Y-102340000D01*
X71700000Y-102280000D01*
X71770000Y-102210000D01*
X71830000Y-102130000D01*
X71870000Y-102040000D01*
X71900000Y-101940000D01*
X71900000Y-101840000D01*
X72210000Y-101810000D01*
X72210000Y-101920000D01*
X72230000Y-102020000D01*
X72270000Y-102110000D01*
X72320000Y-102200000D01*
X72390000Y-102270000D01*
X72470000Y-102330000D01*
X72570000Y-102370000D01*
X72660000Y-102400000D01*
X72760000Y-102400000D01*
X72860000Y-102390000D01*
X72960000Y-102350000D01*
X73050000Y-102300000D01*
X73120000Y-102230000D01*
X73190000Y-102150000D01*
X73240000Y-102070000D01*
X73260000Y-101970000D01*
X73270000Y-101870000D01*
X73550000Y-101890000D01*
X73550000Y-101990000D01*
X73570000Y-102090000D01*
X73610000Y-102180000D01*
X73670000Y-102260000D01*
X73750000Y-102330000D01*
X73840000Y-102370000D01*
X73940000Y-102400000D01*
X74040000Y-102400000D01*
X74450000Y-102400000D01*
X74560000Y-102400000D01*
X74680000Y-102710000D01*
X69500000Y-102710000D01*
X69400000Y-102700000D01*
X69300000Y-102690000D01*
X69200000Y-102670000D01*
X69110000Y-102640000D01*
X69010000Y-102600000D01*
X68920000Y-102550000D01*
X68840000Y-102490000D01*
X68760000Y-102430000D01*
X68690000Y-102350000D01*
X68630000Y-102270000D01*
X68580000Y-102190000D01*
X68530000Y-102100000D01*
X68500000Y-102000000D01*
X68470000Y-101900000D01*
X68450000Y-101800000D01*
X68450000Y-101700000D01*
X68450000Y-101600000D01*
X68470000Y-101500000D01*
X68490000Y-101400000D01*
X68520000Y-101310000D01*
X68570000Y-101210000D01*
X68620000Y-101130000D01*
X68680000Y-101050000D01*
X68750000Y-100970000D01*
X68820000Y-100900000D01*
X68900000Y-100840000D01*
X68990000Y-100790000D01*
X69080000Y-100750000D01*
X69180000Y-100710000D01*
X69280000Y-100690000D01*
X69380000Y-100680000D01*
X69480000Y-100670000D01*
X74760000Y-100670000D01*
X74780000Y-100670000D01*
G37*
X74780000Y-100670000D02*
X74880000Y-100680000D01*
X74980000Y-100700000D01*
X75080000Y-100730000D01*
X75170000Y-100760000D01*
X75260000Y-100810000D01*
X75350000Y-100860000D01*
X75430000Y-100930000D01*
X75500000Y-101000000D01*
X75560000Y-101070000D01*
X75620000Y-101160000D01*
X75670000Y-101250000D01*
X75710000Y-101340000D01*
X75740000Y-101440000D01*
X75760000Y-101540000D01*
X75770000Y-101640000D01*
X75770000Y-101740000D01*
X75760000Y-101840000D01*
X75740000Y-101940000D01*
X75710000Y-102040000D01*
X75670000Y-102130000D01*
X75620000Y-102220000D01*
X75570000Y-102300000D01*
X75500000Y-102380000D01*
X75430000Y-102450000D01*
X75350000Y-102510000D01*
X75270000Y-102570000D01*
X75180000Y-102620000D01*
X75080000Y-102650000D01*
X74980000Y-102680000D01*
X74880000Y-102700000D01*
X74780000Y-102710000D01*
X74680000Y-102710000D01*
X74560000Y-102400000D01*
X74650000Y-102360000D01*
X74670000Y-102280000D01*
X74680000Y-102170000D01*
X74680000Y-101160000D01*
X74670000Y-101060000D01*
X74630000Y-100990000D01*
X74510000Y-100970000D01*
X74000000Y-100970000D01*
X73900000Y-100980000D01*
X73810000Y-101020000D01*
X73720000Y-101080000D01*
X73660000Y-101160000D01*
X73610000Y-101250000D01*
X73590000Y-101340000D01*
X73590000Y-101450000D01*
X73610000Y-101540000D01*
X73660000Y-101640000D01*
X73610000Y-101700000D01*
X73570000Y-101790000D01*
X73550000Y-101890000D01*
X73270000Y-101870000D01*
X73270000Y-101660000D01*
X73270000Y-101630000D01*
X73120000Y-101490000D01*
X73040000Y-101430000D01*
X72950000Y-101380000D01*
X72860000Y-101350000D01*
X72760000Y-101330000D01*
X72660000Y-101340000D01*
X72560000Y-101360000D01*
X72470000Y-101400000D01*
X72380000Y-101460000D01*
X72310000Y-101540000D01*
X72260000Y-101620000D01*
X72230000Y-101710000D01*
X72210000Y-101810000D01*
X71900000Y-101840000D01*
X71900000Y-101640000D01*
X71880000Y-101610000D01*
X71730000Y-101470000D01*
X71650000Y-101410000D01*
X71560000Y-101370000D01*
X71460000Y-101340000D01*
X71360000Y-101330000D01*
X71260000Y-101340000D01*
X71160000Y-101370000D01*
X71070000Y-101420000D01*
X70990000Y-101480000D01*
X70930000Y-101560000D01*
X70880000Y-101640000D01*
X70850000Y-101740000D01*
X70530000Y-101680000D01*
X70550000Y-101580000D01*
X70540000Y-101470000D01*
X70490000Y-101390000D01*
X70400000Y-101380000D01*
X70370000Y-101310000D01*
X70370000Y-101110000D01*
X70320000Y-101040000D01*
X70210000Y-101020000D01*
X70090000Y-101040000D01*
X70040000Y-101100000D01*
X70030000Y-101210000D01*
X70030000Y-101310000D01*
X70000000Y-101380000D01*
X69910000Y-101380000D01*
X69810000Y-101390000D01*
X69750000Y-101450000D01*
X69740000Y-101570000D01*
X69760000Y-101670000D01*
X69840000Y-101720000D01*
X69910000Y-101720000D01*
X70010000Y-101710000D01*
X70030000Y-101790000D01*
X70030000Y-102000000D01*
X69990000Y-102070000D01*
X69880000Y-102080000D01*
X69810000Y-102120000D01*
X69790000Y-102230000D01*
X69810000Y-102350000D01*
X69880000Y-102390000D01*
X69980000Y-102400000D01*
X70090000Y-102390000D01*
X70190000Y-102360000D01*
X70260000Y-102310000D01*
X70320000Y-102250000D01*
X70350000Y-102160000D01*
X70370000Y-102050000D01*
X70370000Y-101730000D01*
X70450000Y-101720000D01*
X70530000Y-101680000D01*
X70850000Y-101740000D01*
X70840000Y-101840000D01*
X70840000Y-101950000D01*
X70860000Y-102050000D01*
X70910000Y-102140000D01*
X70970000Y-102220000D01*
X71040000Y-102290000D01*
X71120000Y-102340000D01*
X71220000Y-102380000D01*
X71320000Y-102400000D01*
X71420000Y-102400000D01*
X71520000Y-102380000D01*
X71610000Y-102340000D01*
X71700000Y-102280000D01*
X71770000Y-102210000D01*
X71830000Y-102130000D01*
X71870000Y-102040000D01*
X71900000Y-101940000D01*
X71900000Y-101840000D01*
X72210000Y-101810000D01*
X72210000Y-101920000D01*
X72230000Y-102020000D01*
X72270000Y-102110000D01*
X72320000Y-102200000D01*
X72390000Y-102270000D01*
X72470000Y-102330000D01*
X72570000Y-102370000D01*
X72660000Y-102400000D01*
X72760000Y-102400000D01*
X72860000Y-102390000D01*
X72960000Y-102350000D01*
X73050000Y-102300000D01*
X73120000Y-102230000D01*
X73190000Y-102150000D01*
X73240000Y-102070000D01*
X73260000Y-101970000D01*
X73270000Y-101870000D01*
X73550000Y-101890000D01*
X73550000Y-101990000D01*
X73570000Y-102090000D01*
X73610000Y-102180000D01*
X73670000Y-102260000D01*
X73750000Y-102330000D01*
X73840000Y-102370000D01*
X73940000Y-102400000D01*
X74040000Y-102400000D01*
X74450000Y-102400000D01*
X74560000Y-102400000D01*
X74680000Y-102710000D01*
X69500000Y-102710000D01*
X69400000Y-102700000D01*
X69300000Y-102690000D01*
X69200000Y-102670000D01*
X69110000Y-102640000D01*
X69010000Y-102600000D01*
X68920000Y-102550000D01*
X68840000Y-102490000D01*
X68760000Y-102430000D01*
X68690000Y-102350000D01*
X68630000Y-102270000D01*
X68580000Y-102190000D01*
X68530000Y-102100000D01*
X68500000Y-102000000D01*
X68470000Y-101900000D01*
X68450000Y-101800000D01*
X68450000Y-101700000D01*
X68450000Y-101600000D01*
X68470000Y-101500000D01*
X68490000Y-101400000D01*
X68520000Y-101310000D01*
X68570000Y-101210000D01*
X68620000Y-101130000D01*
X68680000Y-101050000D01*
X68750000Y-100970000D01*
X68820000Y-100900000D01*
X68900000Y-100840000D01*
X68990000Y-100790000D01*
X69080000Y-100750000D01*
X69180000Y-100710000D01*
X69280000Y-100690000D01*
X69380000Y-100680000D01*
X69480000Y-100670000D01*
X74760000Y-100670000D01*
X74780000Y-100670000D01*
G36*
X73910000Y-101830000D02*
G01*
X74000000Y-101790000D01*
X74110000Y-101780000D01*
X74180000Y-101730000D01*
X74190000Y-101610000D01*
X74150000Y-101540000D01*
X74050000Y-101520000D01*
X73940000Y-101490000D01*
X73930000Y-101400000D01*
X73990000Y-101320000D01*
X74090000Y-101310000D01*
X74290000Y-101310000D01*
X74330000Y-101380000D01*
X74330000Y-101990000D01*
X74300000Y-102060000D01*
X74090000Y-102060000D01*
X73990000Y-102050000D01*
X73910000Y-102010000D01*
X73910000Y-101830000D01*
G37*
X73910000Y-101830000D02*
X74000000Y-101790000D01*
X74110000Y-101780000D01*
X74180000Y-101730000D01*
X74190000Y-101610000D01*
X74150000Y-101540000D01*
X74050000Y-101520000D01*
X73940000Y-101490000D01*
X73930000Y-101400000D01*
X73990000Y-101320000D01*
X74090000Y-101310000D01*
X74290000Y-101310000D01*
X74330000Y-101380000D01*
X74330000Y-101990000D01*
X74300000Y-102060000D01*
X74090000Y-102060000D01*
X73990000Y-102050000D01*
X73910000Y-102010000D01*
X73910000Y-101830000D01*
G36*
X72740000Y-102060000D02*
G01*
X72650000Y-102030000D01*
X72570000Y-101960000D01*
X72550000Y-101860000D01*
X72580000Y-101760000D01*
X72650000Y-101690000D01*
X72750000Y-101670000D01*
X72840000Y-101700000D01*
X72910000Y-101770000D01*
X72930000Y-101880000D01*
X72900000Y-101970000D01*
X72830000Y-102040000D01*
X72740000Y-102060000D01*
G37*
X72740000Y-102060000D02*
X72650000Y-102030000D01*
X72570000Y-101960000D01*
X72550000Y-101860000D01*
X72580000Y-101760000D01*
X72650000Y-101690000D01*
X72750000Y-101670000D01*
X72840000Y-101700000D01*
X72910000Y-101770000D01*
X72930000Y-101880000D01*
X72900000Y-101970000D01*
X72830000Y-102040000D01*
X72740000Y-102060000D01*
G36*
X71340000Y-102050000D02*
G01*
X71250000Y-102010000D01*
X71190000Y-101930000D01*
X71180000Y-101830000D01*
X71220000Y-101740000D01*
X71300000Y-101680000D01*
X71400000Y-101670000D01*
X71490000Y-101720000D01*
X71550000Y-101800000D01*
X71550000Y-101910000D01*
X71510000Y-101990000D01*
X71340000Y-102050000D01*
G37*
X71340000Y-102050000D02*
X71250000Y-102010000D01*
X71190000Y-101930000D01*
X71180000Y-101830000D01*
X71220000Y-101740000D01*
X71300000Y-101680000D01*
X71400000Y-101670000D01*
X71490000Y-101720000D01*
X71550000Y-101800000D01*
X71550000Y-101910000D01*
X71510000Y-101990000D01*
X71340000Y-102050000D01*
D12*
X115630000Y-102175000D02*
X115630000Y-104835000D01*
X102870000Y-102175000D02*
X115630000Y-102175000D01*
X102870000Y-104835000D02*
X115630000Y-104835000D01*
X102870000Y-102175000D02*
X102870000Y-104835000D01*
X101600000Y-102175000D02*
X100270000Y-102175000D01*
X100270000Y-102175000D02*
X100270000Y-103505000D01*
D10*
X98533333Y-103052380D02*
X98533333Y-103766666D01*
X98580952Y-103909523D01*
X98676190Y-104004761D01*
X98819047Y-104052380D01*
X98914285Y-104052380D01*
X98104761Y-103147619D02*
X98057142Y-103100000D01*
X97961904Y-103052380D01*
X97723809Y-103052380D01*
X97628571Y-103100000D01*
X97580952Y-103147619D01*
X97533333Y-103242857D01*
X97533333Y-103338095D01*
X97580952Y-103480952D01*
X98152380Y-104052380D01*
X97533333Y-104052380D01*
M02*
