G04 #@! TF.GenerationSoftware,KiCad,Pcbnew,(5.1.5-0-10_14)*
G04 #@! TF.CreationDate,2020-04-05T12:42:30-04:00*
G04 #@! TF.ProjectId,mobo,6d6f626f-2e6b-4696-9361-645f70636258,rev?*
G04 #@! TF.SameCoordinates,Original*
G04 #@! TF.FileFunction,Paste,Top*
G04 #@! TF.FilePolarity,Positive*
%FSLAX46Y46*%
G04 Gerber Fmt 4.6, Leading zero omitted, Abs format (unit mm)*
G04 Created by KiCad (PCBNEW (5.1.5-0-10_14)) date 2020-04-05 12:42:30*
%MOMM*%
%LPD*%
G04 APERTURE LIST*
%ADD10C,0.100000*%
%ADD11R,1.600000X0.550000*%
%ADD12R,0.550000X1.600000*%
%ADD13R,0.950000X0.970000*%
%ADD14R,1.150000X0.970000*%
%ADD15R,0.950000X0.850000*%
%ADD16R,1.150000X0.850000*%
%ADD17R,1.900000X0.400000*%
%ADD18R,2.000000X10.000000*%
%ADD19R,0.250000X0.500000*%
%ADD20R,0.650000X0.750000*%
%ADD21R,1.550000X1.000000*%
G04 APERTURE END LIST*
D10*
G36*
X160480142Y-160651174D02*
G01*
X160503803Y-160654684D01*
X160527007Y-160660496D01*
X160549529Y-160668554D01*
X160571153Y-160678782D01*
X160591670Y-160691079D01*
X160610883Y-160705329D01*
X160628607Y-160721393D01*
X160644671Y-160739117D01*
X160658921Y-160758330D01*
X160671218Y-160778847D01*
X160681446Y-160800471D01*
X160689504Y-160822993D01*
X160695316Y-160846197D01*
X160698826Y-160869858D01*
X160700000Y-160893750D01*
X160700000Y-161381250D01*
X160698826Y-161405142D01*
X160695316Y-161428803D01*
X160689504Y-161452007D01*
X160681446Y-161474529D01*
X160671218Y-161496153D01*
X160658921Y-161516670D01*
X160644671Y-161535883D01*
X160628607Y-161553607D01*
X160610883Y-161569671D01*
X160591670Y-161583921D01*
X160571153Y-161596218D01*
X160549529Y-161606446D01*
X160527007Y-161614504D01*
X160503803Y-161620316D01*
X160480142Y-161623826D01*
X160456250Y-161625000D01*
X159543750Y-161625000D01*
X159519858Y-161623826D01*
X159496197Y-161620316D01*
X159472993Y-161614504D01*
X159450471Y-161606446D01*
X159428847Y-161596218D01*
X159408330Y-161583921D01*
X159389117Y-161569671D01*
X159371393Y-161553607D01*
X159355329Y-161535883D01*
X159341079Y-161516670D01*
X159328782Y-161496153D01*
X159318554Y-161474529D01*
X159310496Y-161452007D01*
X159304684Y-161428803D01*
X159301174Y-161405142D01*
X159300000Y-161381250D01*
X159300000Y-160893750D01*
X159301174Y-160869858D01*
X159304684Y-160846197D01*
X159310496Y-160822993D01*
X159318554Y-160800471D01*
X159328782Y-160778847D01*
X159341079Y-160758330D01*
X159355329Y-160739117D01*
X159371393Y-160721393D01*
X159389117Y-160705329D01*
X159408330Y-160691079D01*
X159428847Y-160678782D01*
X159450471Y-160668554D01*
X159472993Y-160660496D01*
X159496197Y-160654684D01*
X159519858Y-160651174D01*
X159543750Y-160650000D01*
X160456250Y-160650000D01*
X160480142Y-160651174D01*
G37*
G36*
X160480142Y-158776174D02*
G01*
X160503803Y-158779684D01*
X160527007Y-158785496D01*
X160549529Y-158793554D01*
X160571153Y-158803782D01*
X160591670Y-158816079D01*
X160610883Y-158830329D01*
X160628607Y-158846393D01*
X160644671Y-158864117D01*
X160658921Y-158883330D01*
X160671218Y-158903847D01*
X160681446Y-158925471D01*
X160689504Y-158947993D01*
X160695316Y-158971197D01*
X160698826Y-158994858D01*
X160700000Y-159018750D01*
X160700000Y-159506250D01*
X160698826Y-159530142D01*
X160695316Y-159553803D01*
X160689504Y-159577007D01*
X160681446Y-159599529D01*
X160671218Y-159621153D01*
X160658921Y-159641670D01*
X160644671Y-159660883D01*
X160628607Y-159678607D01*
X160610883Y-159694671D01*
X160591670Y-159708921D01*
X160571153Y-159721218D01*
X160549529Y-159731446D01*
X160527007Y-159739504D01*
X160503803Y-159745316D01*
X160480142Y-159748826D01*
X160456250Y-159750000D01*
X159543750Y-159750000D01*
X159519858Y-159748826D01*
X159496197Y-159745316D01*
X159472993Y-159739504D01*
X159450471Y-159731446D01*
X159428847Y-159721218D01*
X159408330Y-159708921D01*
X159389117Y-159694671D01*
X159371393Y-159678607D01*
X159355329Y-159660883D01*
X159341079Y-159641670D01*
X159328782Y-159621153D01*
X159318554Y-159599529D01*
X159310496Y-159577007D01*
X159304684Y-159553803D01*
X159301174Y-159530142D01*
X159300000Y-159506250D01*
X159300000Y-159018750D01*
X159301174Y-158994858D01*
X159304684Y-158971197D01*
X159310496Y-158947993D01*
X159318554Y-158925471D01*
X159328782Y-158903847D01*
X159341079Y-158883330D01*
X159355329Y-158864117D01*
X159371393Y-158846393D01*
X159389117Y-158830329D01*
X159408330Y-158816079D01*
X159428847Y-158803782D01*
X159450471Y-158793554D01*
X159472993Y-158785496D01*
X159496197Y-158779684D01*
X159519858Y-158776174D01*
X159543750Y-158775000D01*
X160456250Y-158775000D01*
X160480142Y-158776174D01*
G37*
G36*
X85551650Y-110443324D02*
G01*
X86258757Y-111150431D01*
X85162742Y-112246446D01*
X84455635Y-111539339D01*
X85551650Y-110443324D01*
G37*
G36*
X81839339Y-114155635D02*
G01*
X82546446Y-114862742D01*
X81450431Y-115958757D01*
X80743324Y-115251650D01*
X81839339Y-114155635D01*
G37*
G36*
X80637258Y-112953554D02*
G01*
X81344365Y-113660661D01*
X80248350Y-114756676D01*
X79541243Y-114049569D01*
X80637258Y-112953554D01*
G37*
G36*
X84349569Y-109241243D02*
G01*
X85056676Y-109948350D01*
X83960661Y-111044365D01*
X83253554Y-110337258D01*
X84349569Y-109241243D01*
G37*
G36*
X145430142Y-159301174D02*
G01*
X145453803Y-159304684D01*
X145477007Y-159310496D01*
X145499529Y-159318554D01*
X145521153Y-159328782D01*
X145541670Y-159341079D01*
X145560883Y-159355329D01*
X145578607Y-159371393D01*
X145594671Y-159389117D01*
X145608921Y-159408330D01*
X145621218Y-159428847D01*
X145631446Y-159450471D01*
X145639504Y-159472993D01*
X145645316Y-159496197D01*
X145648826Y-159519858D01*
X145650000Y-159543750D01*
X145650000Y-160456250D01*
X145648826Y-160480142D01*
X145645316Y-160503803D01*
X145639504Y-160527007D01*
X145631446Y-160549529D01*
X145621218Y-160571153D01*
X145608921Y-160591670D01*
X145594671Y-160610883D01*
X145578607Y-160628607D01*
X145560883Y-160644671D01*
X145541670Y-160658921D01*
X145521153Y-160671218D01*
X145499529Y-160681446D01*
X145477007Y-160689504D01*
X145453803Y-160695316D01*
X145430142Y-160698826D01*
X145406250Y-160700000D01*
X144918750Y-160700000D01*
X144894858Y-160698826D01*
X144871197Y-160695316D01*
X144847993Y-160689504D01*
X144825471Y-160681446D01*
X144803847Y-160671218D01*
X144783330Y-160658921D01*
X144764117Y-160644671D01*
X144746393Y-160628607D01*
X144730329Y-160610883D01*
X144716079Y-160591670D01*
X144703782Y-160571153D01*
X144693554Y-160549529D01*
X144685496Y-160527007D01*
X144679684Y-160503803D01*
X144676174Y-160480142D01*
X144675000Y-160456250D01*
X144675000Y-159543750D01*
X144676174Y-159519858D01*
X144679684Y-159496197D01*
X144685496Y-159472993D01*
X144693554Y-159450471D01*
X144703782Y-159428847D01*
X144716079Y-159408330D01*
X144730329Y-159389117D01*
X144746393Y-159371393D01*
X144764117Y-159355329D01*
X144783330Y-159341079D01*
X144803847Y-159328782D01*
X144825471Y-159318554D01*
X144847993Y-159310496D01*
X144871197Y-159304684D01*
X144894858Y-159301174D01*
X144918750Y-159300000D01*
X145406250Y-159300000D01*
X145430142Y-159301174D01*
G37*
G36*
X147305142Y-159301174D02*
G01*
X147328803Y-159304684D01*
X147352007Y-159310496D01*
X147374529Y-159318554D01*
X147396153Y-159328782D01*
X147416670Y-159341079D01*
X147435883Y-159355329D01*
X147453607Y-159371393D01*
X147469671Y-159389117D01*
X147483921Y-159408330D01*
X147496218Y-159428847D01*
X147506446Y-159450471D01*
X147514504Y-159472993D01*
X147520316Y-159496197D01*
X147523826Y-159519858D01*
X147525000Y-159543750D01*
X147525000Y-160456250D01*
X147523826Y-160480142D01*
X147520316Y-160503803D01*
X147514504Y-160527007D01*
X147506446Y-160549529D01*
X147496218Y-160571153D01*
X147483921Y-160591670D01*
X147469671Y-160610883D01*
X147453607Y-160628607D01*
X147435883Y-160644671D01*
X147416670Y-160658921D01*
X147396153Y-160671218D01*
X147374529Y-160681446D01*
X147352007Y-160689504D01*
X147328803Y-160695316D01*
X147305142Y-160698826D01*
X147281250Y-160700000D01*
X146793750Y-160700000D01*
X146769858Y-160698826D01*
X146746197Y-160695316D01*
X146722993Y-160689504D01*
X146700471Y-160681446D01*
X146678847Y-160671218D01*
X146658330Y-160658921D01*
X146639117Y-160644671D01*
X146621393Y-160628607D01*
X146605329Y-160610883D01*
X146591079Y-160591670D01*
X146578782Y-160571153D01*
X146568554Y-160549529D01*
X146560496Y-160527007D01*
X146554684Y-160503803D01*
X146551174Y-160480142D01*
X146550000Y-160456250D01*
X146550000Y-159543750D01*
X146551174Y-159519858D01*
X146554684Y-159496197D01*
X146560496Y-159472993D01*
X146568554Y-159450471D01*
X146578782Y-159428847D01*
X146591079Y-159408330D01*
X146605329Y-159389117D01*
X146621393Y-159371393D01*
X146639117Y-159355329D01*
X146658330Y-159341079D01*
X146678847Y-159328782D01*
X146700471Y-159318554D01*
X146722993Y-159310496D01*
X146746197Y-159304684D01*
X146769858Y-159301174D01*
X146793750Y-159300000D01*
X147281250Y-159300000D01*
X147305142Y-159301174D01*
G37*
G36*
X144060142Y-167459174D02*
G01*
X144083803Y-167462684D01*
X144107007Y-167468496D01*
X144129529Y-167476554D01*
X144151153Y-167486782D01*
X144171670Y-167499079D01*
X144190883Y-167513329D01*
X144208607Y-167529393D01*
X144224671Y-167547117D01*
X144238921Y-167566330D01*
X144251218Y-167586847D01*
X144261446Y-167608471D01*
X144269504Y-167630993D01*
X144275316Y-167654197D01*
X144278826Y-167677858D01*
X144280000Y-167701750D01*
X144280000Y-168614250D01*
X144278826Y-168638142D01*
X144275316Y-168661803D01*
X144269504Y-168685007D01*
X144261446Y-168707529D01*
X144251218Y-168729153D01*
X144238921Y-168749670D01*
X144224671Y-168768883D01*
X144208607Y-168786607D01*
X144190883Y-168802671D01*
X144171670Y-168816921D01*
X144151153Y-168829218D01*
X144129529Y-168839446D01*
X144107007Y-168847504D01*
X144083803Y-168853316D01*
X144060142Y-168856826D01*
X144036250Y-168858000D01*
X143548750Y-168858000D01*
X143524858Y-168856826D01*
X143501197Y-168853316D01*
X143477993Y-168847504D01*
X143455471Y-168839446D01*
X143433847Y-168829218D01*
X143413330Y-168816921D01*
X143394117Y-168802671D01*
X143376393Y-168786607D01*
X143360329Y-168768883D01*
X143346079Y-168749670D01*
X143333782Y-168729153D01*
X143323554Y-168707529D01*
X143315496Y-168685007D01*
X143309684Y-168661803D01*
X143306174Y-168638142D01*
X143305000Y-168614250D01*
X143305000Y-167701750D01*
X143306174Y-167677858D01*
X143309684Y-167654197D01*
X143315496Y-167630993D01*
X143323554Y-167608471D01*
X143333782Y-167586847D01*
X143346079Y-167566330D01*
X143360329Y-167547117D01*
X143376393Y-167529393D01*
X143394117Y-167513329D01*
X143413330Y-167499079D01*
X143433847Y-167486782D01*
X143455471Y-167476554D01*
X143477993Y-167468496D01*
X143501197Y-167462684D01*
X143524858Y-167459174D01*
X143548750Y-167458000D01*
X144036250Y-167458000D01*
X144060142Y-167459174D01*
G37*
G36*
X142185142Y-167459174D02*
G01*
X142208803Y-167462684D01*
X142232007Y-167468496D01*
X142254529Y-167476554D01*
X142276153Y-167486782D01*
X142296670Y-167499079D01*
X142315883Y-167513329D01*
X142333607Y-167529393D01*
X142349671Y-167547117D01*
X142363921Y-167566330D01*
X142376218Y-167586847D01*
X142386446Y-167608471D01*
X142394504Y-167630993D01*
X142400316Y-167654197D01*
X142403826Y-167677858D01*
X142405000Y-167701750D01*
X142405000Y-168614250D01*
X142403826Y-168638142D01*
X142400316Y-168661803D01*
X142394504Y-168685007D01*
X142386446Y-168707529D01*
X142376218Y-168729153D01*
X142363921Y-168749670D01*
X142349671Y-168768883D01*
X142333607Y-168786607D01*
X142315883Y-168802671D01*
X142296670Y-168816921D01*
X142276153Y-168829218D01*
X142254529Y-168839446D01*
X142232007Y-168847504D01*
X142208803Y-168853316D01*
X142185142Y-168856826D01*
X142161250Y-168858000D01*
X141673750Y-168858000D01*
X141649858Y-168856826D01*
X141626197Y-168853316D01*
X141602993Y-168847504D01*
X141580471Y-168839446D01*
X141558847Y-168829218D01*
X141538330Y-168816921D01*
X141519117Y-168802671D01*
X141501393Y-168786607D01*
X141485329Y-168768883D01*
X141471079Y-168749670D01*
X141458782Y-168729153D01*
X141448554Y-168707529D01*
X141440496Y-168685007D01*
X141434684Y-168661803D01*
X141431174Y-168638142D01*
X141430000Y-168614250D01*
X141430000Y-167701750D01*
X141431174Y-167677858D01*
X141434684Y-167654197D01*
X141440496Y-167630993D01*
X141448554Y-167608471D01*
X141458782Y-167586847D01*
X141471079Y-167566330D01*
X141485329Y-167547117D01*
X141501393Y-167529393D01*
X141519117Y-167513329D01*
X141538330Y-167499079D01*
X141558847Y-167486782D01*
X141580471Y-167476554D01*
X141602993Y-167468496D01*
X141626197Y-167462684D01*
X141649858Y-167459174D01*
X141673750Y-167458000D01*
X142161250Y-167458000D01*
X142185142Y-167459174D01*
G37*
G36*
X78655128Y-119451174D02*
G01*
X78678789Y-119454684D01*
X78701993Y-119460496D01*
X78724515Y-119468554D01*
X78746139Y-119478782D01*
X78766656Y-119491079D01*
X78785869Y-119505329D01*
X78803593Y-119521393D01*
X78819657Y-119539117D01*
X78833907Y-119558330D01*
X78846204Y-119578847D01*
X78856432Y-119600471D01*
X78864490Y-119622993D01*
X78870302Y-119646197D01*
X78873812Y-119669858D01*
X78874986Y-119693750D01*
X78874986Y-120181250D01*
X78873812Y-120205142D01*
X78870302Y-120228803D01*
X78864490Y-120252007D01*
X78856432Y-120274529D01*
X78846204Y-120296153D01*
X78833907Y-120316670D01*
X78819657Y-120335883D01*
X78803593Y-120353607D01*
X78785869Y-120369671D01*
X78766656Y-120383921D01*
X78746139Y-120396218D01*
X78724515Y-120406446D01*
X78701993Y-120414504D01*
X78678789Y-120420316D01*
X78655128Y-120423826D01*
X78631236Y-120425000D01*
X77718736Y-120425000D01*
X77694844Y-120423826D01*
X77671183Y-120420316D01*
X77647979Y-120414504D01*
X77625457Y-120406446D01*
X77603833Y-120396218D01*
X77583316Y-120383921D01*
X77564103Y-120369671D01*
X77546379Y-120353607D01*
X77530315Y-120335883D01*
X77516065Y-120316670D01*
X77503768Y-120296153D01*
X77493540Y-120274529D01*
X77485482Y-120252007D01*
X77479670Y-120228803D01*
X77476160Y-120205142D01*
X77474986Y-120181250D01*
X77474986Y-119693750D01*
X77476160Y-119669858D01*
X77479670Y-119646197D01*
X77485482Y-119622993D01*
X77493540Y-119600471D01*
X77503768Y-119578847D01*
X77516065Y-119558330D01*
X77530315Y-119539117D01*
X77546379Y-119521393D01*
X77564103Y-119505329D01*
X77583316Y-119491079D01*
X77603833Y-119478782D01*
X77625457Y-119468554D01*
X77647979Y-119460496D01*
X77671183Y-119454684D01*
X77694844Y-119451174D01*
X77718736Y-119450000D01*
X78631236Y-119450000D01*
X78655128Y-119451174D01*
G37*
G36*
X78655128Y-117576174D02*
G01*
X78678789Y-117579684D01*
X78701993Y-117585496D01*
X78724515Y-117593554D01*
X78746139Y-117603782D01*
X78766656Y-117616079D01*
X78785869Y-117630329D01*
X78803593Y-117646393D01*
X78819657Y-117664117D01*
X78833907Y-117683330D01*
X78846204Y-117703847D01*
X78856432Y-117725471D01*
X78864490Y-117747993D01*
X78870302Y-117771197D01*
X78873812Y-117794858D01*
X78874986Y-117818750D01*
X78874986Y-118306250D01*
X78873812Y-118330142D01*
X78870302Y-118353803D01*
X78864490Y-118377007D01*
X78856432Y-118399529D01*
X78846204Y-118421153D01*
X78833907Y-118441670D01*
X78819657Y-118460883D01*
X78803593Y-118478607D01*
X78785869Y-118494671D01*
X78766656Y-118508921D01*
X78746139Y-118521218D01*
X78724515Y-118531446D01*
X78701993Y-118539504D01*
X78678789Y-118545316D01*
X78655128Y-118548826D01*
X78631236Y-118550000D01*
X77718736Y-118550000D01*
X77694844Y-118548826D01*
X77671183Y-118545316D01*
X77647979Y-118539504D01*
X77625457Y-118531446D01*
X77603833Y-118521218D01*
X77583316Y-118508921D01*
X77564103Y-118494671D01*
X77546379Y-118478607D01*
X77530315Y-118460883D01*
X77516065Y-118441670D01*
X77503768Y-118421153D01*
X77493540Y-118399529D01*
X77485482Y-118377007D01*
X77479670Y-118353803D01*
X77476160Y-118330142D01*
X77474986Y-118306250D01*
X77474986Y-117818750D01*
X77476160Y-117794858D01*
X77479670Y-117771197D01*
X77485482Y-117747993D01*
X77493540Y-117725471D01*
X77503768Y-117703847D01*
X77516065Y-117683330D01*
X77530315Y-117664117D01*
X77546379Y-117646393D01*
X77564103Y-117630329D01*
X77583316Y-117616079D01*
X77603833Y-117603782D01*
X77625457Y-117593554D01*
X77647979Y-117585496D01*
X77671183Y-117579684D01*
X77694844Y-117576174D01*
X77718736Y-117575000D01*
X78631236Y-117575000D01*
X78655128Y-117576174D01*
G37*
G36*
X78637168Y-121576174D02*
G01*
X78660829Y-121579684D01*
X78684033Y-121585496D01*
X78706555Y-121593554D01*
X78728179Y-121603782D01*
X78748696Y-121616079D01*
X78767909Y-121630329D01*
X78785633Y-121646393D01*
X78801697Y-121664117D01*
X78815947Y-121683330D01*
X78828244Y-121703847D01*
X78838472Y-121725471D01*
X78846530Y-121747993D01*
X78852342Y-121771197D01*
X78855852Y-121794858D01*
X78857026Y-121818750D01*
X78857026Y-122306250D01*
X78855852Y-122330142D01*
X78852342Y-122353803D01*
X78846530Y-122377007D01*
X78838472Y-122399529D01*
X78828244Y-122421153D01*
X78815947Y-122441670D01*
X78801697Y-122460883D01*
X78785633Y-122478607D01*
X78767909Y-122494671D01*
X78748696Y-122508921D01*
X78728179Y-122521218D01*
X78706555Y-122531446D01*
X78684033Y-122539504D01*
X78660829Y-122545316D01*
X78637168Y-122548826D01*
X78613276Y-122550000D01*
X77700776Y-122550000D01*
X77676884Y-122548826D01*
X77653223Y-122545316D01*
X77630019Y-122539504D01*
X77607497Y-122531446D01*
X77585873Y-122521218D01*
X77565356Y-122508921D01*
X77546143Y-122494671D01*
X77528419Y-122478607D01*
X77512355Y-122460883D01*
X77498105Y-122441670D01*
X77485808Y-122421153D01*
X77475580Y-122399529D01*
X77467522Y-122377007D01*
X77461710Y-122353803D01*
X77458200Y-122330142D01*
X77457026Y-122306250D01*
X77457026Y-121818750D01*
X77458200Y-121794858D01*
X77461710Y-121771197D01*
X77467522Y-121747993D01*
X77475580Y-121725471D01*
X77485808Y-121703847D01*
X77498105Y-121683330D01*
X77512355Y-121664117D01*
X77528419Y-121646393D01*
X77546143Y-121630329D01*
X77565356Y-121616079D01*
X77585873Y-121603782D01*
X77607497Y-121593554D01*
X77630019Y-121585496D01*
X77653223Y-121579684D01*
X77676884Y-121576174D01*
X77700776Y-121575000D01*
X78613276Y-121575000D01*
X78637168Y-121576174D01*
G37*
G36*
X78637168Y-123451174D02*
G01*
X78660829Y-123454684D01*
X78684033Y-123460496D01*
X78706555Y-123468554D01*
X78728179Y-123478782D01*
X78748696Y-123491079D01*
X78767909Y-123505329D01*
X78785633Y-123521393D01*
X78801697Y-123539117D01*
X78815947Y-123558330D01*
X78828244Y-123578847D01*
X78838472Y-123600471D01*
X78846530Y-123622993D01*
X78852342Y-123646197D01*
X78855852Y-123669858D01*
X78857026Y-123693750D01*
X78857026Y-124181250D01*
X78855852Y-124205142D01*
X78852342Y-124228803D01*
X78846530Y-124252007D01*
X78838472Y-124274529D01*
X78828244Y-124296153D01*
X78815947Y-124316670D01*
X78801697Y-124335883D01*
X78785633Y-124353607D01*
X78767909Y-124369671D01*
X78748696Y-124383921D01*
X78728179Y-124396218D01*
X78706555Y-124406446D01*
X78684033Y-124414504D01*
X78660829Y-124420316D01*
X78637168Y-124423826D01*
X78613276Y-124425000D01*
X77700776Y-124425000D01*
X77676884Y-124423826D01*
X77653223Y-124420316D01*
X77630019Y-124414504D01*
X77607497Y-124406446D01*
X77585873Y-124396218D01*
X77565356Y-124383921D01*
X77546143Y-124369671D01*
X77528419Y-124353607D01*
X77512355Y-124335883D01*
X77498105Y-124316670D01*
X77485808Y-124296153D01*
X77475580Y-124274529D01*
X77467522Y-124252007D01*
X77461710Y-124228803D01*
X77458200Y-124205142D01*
X77457026Y-124181250D01*
X77457026Y-123693750D01*
X77458200Y-123669858D01*
X77461710Y-123646197D01*
X77467522Y-123622993D01*
X77475580Y-123600471D01*
X77485808Y-123578847D01*
X77498105Y-123558330D01*
X77512355Y-123539117D01*
X77528419Y-123521393D01*
X77546143Y-123505329D01*
X77565356Y-123491079D01*
X77585873Y-123478782D01*
X77607497Y-123468554D01*
X77630019Y-123460496D01*
X77653223Y-123454684D01*
X77676884Y-123451174D01*
X77700776Y-123450000D01*
X78613276Y-123450000D01*
X78637168Y-123451174D01*
G37*
G36*
X80974505Y-119451204D02*
G01*
X80998773Y-119454804D01*
X81022572Y-119460765D01*
X81045671Y-119469030D01*
X81067850Y-119479520D01*
X81088893Y-119492132D01*
X81108599Y-119506747D01*
X81126777Y-119523223D01*
X81143253Y-119541401D01*
X81157868Y-119561107D01*
X81170480Y-119582150D01*
X81180970Y-119604329D01*
X81189235Y-119627428D01*
X81195196Y-119651227D01*
X81198796Y-119675495D01*
X81200000Y-119699999D01*
X81200000Y-120350001D01*
X81198796Y-120374505D01*
X81195196Y-120398773D01*
X81189235Y-120422572D01*
X81180970Y-120445671D01*
X81170480Y-120467850D01*
X81157868Y-120488893D01*
X81143253Y-120508599D01*
X81126777Y-120526777D01*
X81108599Y-120543253D01*
X81088893Y-120557868D01*
X81067850Y-120570480D01*
X81045671Y-120580970D01*
X81022572Y-120589235D01*
X80998773Y-120595196D01*
X80974505Y-120598796D01*
X80950001Y-120600000D01*
X80049999Y-120600000D01*
X80025495Y-120598796D01*
X80001227Y-120595196D01*
X79977428Y-120589235D01*
X79954329Y-120580970D01*
X79932150Y-120570480D01*
X79911107Y-120557868D01*
X79891401Y-120543253D01*
X79873223Y-120526777D01*
X79856747Y-120508599D01*
X79842132Y-120488893D01*
X79829520Y-120467850D01*
X79819030Y-120445671D01*
X79810765Y-120422572D01*
X79804804Y-120398773D01*
X79801204Y-120374505D01*
X79800000Y-120350001D01*
X79800000Y-119699999D01*
X79801204Y-119675495D01*
X79804804Y-119651227D01*
X79810765Y-119627428D01*
X79819030Y-119604329D01*
X79829520Y-119582150D01*
X79842132Y-119561107D01*
X79856747Y-119541401D01*
X79873223Y-119523223D01*
X79891401Y-119506747D01*
X79911107Y-119492132D01*
X79932150Y-119479520D01*
X79954329Y-119469030D01*
X79977428Y-119460765D01*
X80001227Y-119454804D01*
X80025495Y-119451204D01*
X80049999Y-119450000D01*
X80950001Y-119450000D01*
X80974505Y-119451204D01*
G37*
G36*
X80974505Y-117401204D02*
G01*
X80998773Y-117404804D01*
X81022572Y-117410765D01*
X81045671Y-117419030D01*
X81067850Y-117429520D01*
X81088893Y-117442132D01*
X81108599Y-117456747D01*
X81126777Y-117473223D01*
X81143253Y-117491401D01*
X81157868Y-117511107D01*
X81170480Y-117532150D01*
X81180970Y-117554329D01*
X81189235Y-117577428D01*
X81195196Y-117601227D01*
X81198796Y-117625495D01*
X81200000Y-117649999D01*
X81200000Y-118300001D01*
X81198796Y-118324505D01*
X81195196Y-118348773D01*
X81189235Y-118372572D01*
X81180970Y-118395671D01*
X81170480Y-118417850D01*
X81157868Y-118438893D01*
X81143253Y-118458599D01*
X81126777Y-118476777D01*
X81108599Y-118493253D01*
X81088893Y-118507868D01*
X81067850Y-118520480D01*
X81045671Y-118530970D01*
X81022572Y-118539235D01*
X80998773Y-118545196D01*
X80974505Y-118548796D01*
X80950001Y-118550000D01*
X80049999Y-118550000D01*
X80025495Y-118548796D01*
X80001227Y-118545196D01*
X79977428Y-118539235D01*
X79954329Y-118530970D01*
X79932150Y-118520480D01*
X79911107Y-118507868D01*
X79891401Y-118493253D01*
X79873223Y-118476777D01*
X79856747Y-118458599D01*
X79842132Y-118438893D01*
X79829520Y-118417850D01*
X79819030Y-118395671D01*
X79810765Y-118372572D01*
X79804804Y-118348773D01*
X79801204Y-118324505D01*
X79800000Y-118300001D01*
X79800000Y-117649999D01*
X79801204Y-117625495D01*
X79804804Y-117601227D01*
X79810765Y-117577428D01*
X79819030Y-117554329D01*
X79829520Y-117532150D01*
X79842132Y-117511107D01*
X79856747Y-117491401D01*
X79873223Y-117473223D01*
X79891401Y-117456747D01*
X79911107Y-117442132D01*
X79932150Y-117429520D01*
X79954329Y-117419030D01*
X79977428Y-117410765D01*
X80001227Y-117404804D01*
X80025495Y-117401204D01*
X80049999Y-117400000D01*
X80950001Y-117400000D01*
X80974505Y-117401204D01*
G37*
G36*
X80984358Y-121401204D02*
G01*
X81008626Y-121404804D01*
X81032425Y-121410765D01*
X81055524Y-121419030D01*
X81077703Y-121429520D01*
X81098746Y-121442132D01*
X81118452Y-121456747D01*
X81136630Y-121473223D01*
X81153106Y-121491401D01*
X81167721Y-121511107D01*
X81180333Y-121532150D01*
X81190823Y-121554329D01*
X81199088Y-121577428D01*
X81205049Y-121601227D01*
X81208649Y-121625495D01*
X81209853Y-121649999D01*
X81209853Y-122300001D01*
X81208649Y-122324505D01*
X81205049Y-122348773D01*
X81199088Y-122372572D01*
X81190823Y-122395671D01*
X81180333Y-122417850D01*
X81167721Y-122438893D01*
X81153106Y-122458599D01*
X81136630Y-122476777D01*
X81118452Y-122493253D01*
X81098746Y-122507868D01*
X81077703Y-122520480D01*
X81055524Y-122530970D01*
X81032425Y-122539235D01*
X81008626Y-122545196D01*
X80984358Y-122548796D01*
X80959854Y-122550000D01*
X80059852Y-122550000D01*
X80035348Y-122548796D01*
X80011080Y-122545196D01*
X79987281Y-122539235D01*
X79964182Y-122530970D01*
X79942003Y-122520480D01*
X79920960Y-122507868D01*
X79901254Y-122493253D01*
X79883076Y-122476777D01*
X79866600Y-122458599D01*
X79851985Y-122438893D01*
X79839373Y-122417850D01*
X79828883Y-122395671D01*
X79820618Y-122372572D01*
X79814657Y-122348773D01*
X79811057Y-122324505D01*
X79809853Y-122300001D01*
X79809853Y-121649999D01*
X79811057Y-121625495D01*
X79814657Y-121601227D01*
X79820618Y-121577428D01*
X79828883Y-121554329D01*
X79839373Y-121532150D01*
X79851985Y-121511107D01*
X79866600Y-121491401D01*
X79883076Y-121473223D01*
X79901254Y-121456747D01*
X79920960Y-121442132D01*
X79942003Y-121429520D01*
X79964182Y-121419030D01*
X79987281Y-121410765D01*
X80011080Y-121404804D01*
X80035348Y-121401204D01*
X80059852Y-121400000D01*
X80959854Y-121400000D01*
X80984358Y-121401204D01*
G37*
G36*
X80984358Y-123451204D02*
G01*
X81008626Y-123454804D01*
X81032425Y-123460765D01*
X81055524Y-123469030D01*
X81077703Y-123479520D01*
X81098746Y-123492132D01*
X81118452Y-123506747D01*
X81136630Y-123523223D01*
X81153106Y-123541401D01*
X81167721Y-123561107D01*
X81180333Y-123582150D01*
X81190823Y-123604329D01*
X81199088Y-123627428D01*
X81205049Y-123651227D01*
X81208649Y-123675495D01*
X81209853Y-123699999D01*
X81209853Y-124350001D01*
X81208649Y-124374505D01*
X81205049Y-124398773D01*
X81199088Y-124422572D01*
X81190823Y-124445671D01*
X81180333Y-124467850D01*
X81167721Y-124488893D01*
X81153106Y-124508599D01*
X81136630Y-124526777D01*
X81118452Y-124543253D01*
X81098746Y-124557868D01*
X81077703Y-124570480D01*
X81055524Y-124580970D01*
X81032425Y-124589235D01*
X81008626Y-124595196D01*
X80984358Y-124598796D01*
X80959854Y-124600000D01*
X80059852Y-124600000D01*
X80035348Y-124598796D01*
X80011080Y-124595196D01*
X79987281Y-124589235D01*
X79964182Y-124580970D01*
X79942003Y-124570480D01*
X79920960Y-124557868D01*
X79901254Y-124543253D01*
X79883076Y-124526777D01*
X79866600Y-124508599D01*
X79851985Y-124488893D01*
X79839373Y-124467850D01*
X79828883Y-124445671D01*
X79820618Y-124422572D01*
X79814657Y-124398773D01*
X79811057Y-124374505D01*
X79809853Y-124350001D01*
X79809853Y-123699999D01*
X79811057Y-123675495D01*
X79814657Y-123651227D01*
X79820618Y-123627428D01*
X79828883Y-123604329D01*
X79839373Y-123582150D01*
X79851985Y-123561107D01*
X79866600Y-123541401D01*
X79883076Y-123523223D01*
X79901254Y-123506747D01*
X79920960Y-123492132D01*
X79942003Y-123479520D01*
X79964182Y-123469030D01*
X79987281Y-123460765D01*
X80011080Y-123454804D01*
X80035348Y-123451204D01*
X80059852Y-123450000D01*
X80959854Y-123450000D01*
X80984358Y-123451204D01*
G37*
G36*
X129874505Y-139151204D02*
G01*
X129898773Y-139154804D01*
X129922572Y-139160765D01*
X129945671Y-139169030D01*
X129967850Y-139179520D01*
X129988893Y-139192132D01*
X130008599Y-139206747D01*
X130026777Y-139223223D01*
X130043253Y-139241401D01*
X130057868Y-139261107D01*
X130070480Y-139282150D01*
X130080970Y-139304329D01*
X130089235Y-139327428D01*
X130095196Y-139351227D01*
X130098796Y-139375495D01*
X130100000Y-139399999D01*
X130100000Y-140050001D01*
X130098796Y-140074505D01*
X130095196Y-140098773D01*
X130089235Y-140122572D01*
X130080970Y-140145671D01*
X130070480Y-140167850D01*
X130057868Y-140188893D01*
X130043253Y-140208599D01*
X130026777Y-140226777D01*
X130008599Y-140243253D01*
X129988893Y-140257868D01*
X129967850Y-140270480D01*
X129945671Y-140280970D01*
X129922572Y-140289235D01*
X129898773Y-140295196D01*
X129874505Y-140298796D01*
X129850001Y-140300000D01*
X128949999Y-140300000D01*
X128925495Y-140298796D01*
X128901227Y-140295196D01*
X128877428Y-140289235D01*
X128854329Y-140280970D01*
X128832150Y-140270480D01*
X128811107Y-140257868D01*
X128791401Y-140243253D01*
X128773223Y-140226777D01*
X128756747Y-140208599D01*
X128742132Y-140188893D01*
X128729520Y-140167850D01*
X128719030Y-140145671D01*
X128710765Y-140122572D01*
X128704804Y-140098773D01*
X128701204Y-140074505D01*
X128700000Y-140050001D01*
X128700000Y-139399999D01*
X128701204Y-139375495D01*
X128704804Y-139351227D01*
X128710765Y-139327428D01*
X128719030Y-139304329D01*
X128729520Y-139282150D01*
X128742132Y-139261107D01*
X128756747Y-139241401D01*
X128773223Y-139223223D01*
X128791401Y-139206747D01*
X128811107Y-139192132D01*
X128832150Y-139179520D01*
X128854329Y-139169030D01*
X128877428Y-139160765D01*
X128901227Y-139154804D01*
X128925495Y-139151204D01*
X128949999Y-139150000D01*
X129850001Y-139150000D01*
X129874505Y-139151204D01*
G37*
G36*
X129874505Y-141201204D02*
G01*
X129898773Y-141204804D01*
X129922572Y-141210765D01*
X129945671Y-141219030D01*
X129967850Y-141229520D01*
X129988893Y-141242132D01*
X130008599Y-141256747D01*
X130026777Y-141273223D01*
X130043253Y-141291401D01*
X130057868Y-141311107D01*
X130070480Y-141332150D01*
X130080970Y-141354329D01*
X130089235Y-141377428D01*
X130095196Y-141401227D01*
X130098796Y-141425495D01*
X130100000Y-141449999D01*
X130100000Y-142100001D01*
X130098796Y-142124505D01*
X130095196Y-142148773D01*
X130089235Y-142172572D01*
X130080970Y-142195671D01*
X130070480Y-142217850D01*
X130057868Y-142238893D01*
X130043253Y-142258599D01*
X130026777Y-142276777D01*
X130008599Y-142293253D01*
X129988893Y-142307868D01*
X129967850Y-142320480D01*
X129945671Y-142330970D01*
X129922572Y-142339235D01*
X129898773Y-142345196D01*
X129874505Y-142348796D01*
X129850001Y-142350000D01*
X128949999Y-142350000D01*
X128925495Y-142348796D01*
X128901227Y-142345196D01*
X128877428Y-142339235D01*
X128854329Y-142330970D01*
X128832150Y-142320480D01*
X128811107Y-142307868D01*
X128791401Y-142293253D01*
X128773223Y-142276777D01*
X128756747Y-142258599D01*
X128742132Y-142238893D01*
X128729520Y-142217850D01*
X128719030Y-142195671D01*
X128710765Y-142172572D01*
X128704804Y-142148773D01*
X128701204Y-142124505D01*
X128700000Y-142100001D01*
X128700000Y-141449999D01*
X128701204Y-141425495D01*
X128704804Y-141401227D01*
X128710765Y-141377428D01*
X128719030Y-141354329D01*
X128729520Y-141332150D01*
X128742132Y-141311107D01*
X128756747Y-141291401D01*
X128773223Y-141273223D01*
X128791401Y-141256747D01*
X128811107Y-141242132D01*
X128832150Y-141229520D01*
X128854329Y-141219030D01*
X128877428Y-141210765D01*
X128901227Y-141204804D01*
X128925495Y-141201204D01*
X128949999Y-141200000D01*
X129850001Y-141200000D01*
X129874505Y-141201204D01*
G37*
G36*
X136224505Y-141151204D02*
G01*
X136248773Y-141154804D01*
X136272572Y-141160765D01*
X136295671Y-141169030D01*
X136317850Y-141179520D01*
X136338893Y-141192132D01*
X136358599Y-141206747D01*
X136376777Y-141223223D01*
X136393253Y-141241401D01*
X136407868Y-141261107D01*
X136420480Y-141282150D01*
X136430970Y-141304329D01*
X136439235Y-141327428D01*
X136445196Y-141351227D01*
X136448796Y-141375495D01*
X136450000Y-141399999D01*
X136450000Y-142050001D01*
X136448796Y-142074505D01*
X136445196Y-142098773D01*
X136439235Y-142122572D01*
X136430970Y-142145671D01*
X136420480Y-142167850D01*
X136407868Y-142188893D01*
X136393253Y-142208599D01*
X136376777Y-142226777D01*
X136358599Y-142243253D01*
X136338893Y-142257868D01*
X136317850Y-142270480D01*
X136295671Y-142280970D01*
X136272572Y-142289235D01*
X136248773Y-142295196D01*
X136224505Y-142298796D01*
X136200001Y-142300000D01*
X135299999Y-142300000D01*
X135275495Y-142298796D01*
X135251227Y-142295196D01*
X135227428Y-142289235D01*
X135204329Y-142280970D01*
X135182150Y-142270480D01*
X135161107Y-142257868D01*
X135141401Y-142243253D01*
X135123223Y-142226777D01*
X135106747Y-142208599D01*
X135092132Y-142188893D01*
X135079520Y-142167850D01*
X135069030Y-142145671D01*
X135060765Y-142122572D01*
X135054804Y-142098773D01*
X135051204Y-142074505D01*
X135050000Y-142050001D01*
X135050000Y-141399999D01*
X135051204Y-141375495D01*
X135054804Y-141351227D01*
X135060765Y-141327428D01*
X135069030Y-141304329D01*
X135079520Y-141282150D01*
X135092132Y-141261107D01*
X135106747Y-141241401D01*
X135123223Y-141223223D01*
X135141401Y-141206747D01*
X135161107Y-141192132D01*
X135182150Y-141179520D01*
X135204329Y-141169030D01*
X135227428Y-141160765D01*
X135251227Y-141154804D01*
X135275495Y-141151204D01*
X135299999Y-141150000D01*
X136200001Y-141150000D01*
X136224505Y-141151204D01*
G37*
G36*
X136224505Y-139101204D02*
G01*
X136248773Y-139104804D01*
X136272572Y-139110765D01*
X136295671Y-139119030D01*
X136317850Y-139129520D01*
X136338893Y-139142132D01*
X136358599Y-139156747D01*
X136376777Y-139173223D01*
X136393253Y-139191401D01*
X136407868Y-139211107D01*
X136420480Y-139232150D01*
X136430970Y-139254329D01*
X136439235Y-139277428D01*
X136445196Y-139301227D01*
X136448796Y-139325495D01*
X136450000Y-139349999D01*
X136450000Y-140000001D01*
X136448796Y-140024505D01*
X136445196Y-140048773D01*
X136439235Y-140072572D01*
X136430970Y-140095671D01*
X136420480Y-140117850D01*
X136407868Y-140138893D01*
X136393253Y-140158599D01*
X136376777Y-140176777D01*
X136358599Y-140193253D01*
X136338893Y-140207868D01*
X136317850Y-140220480D01*
X136295671Y-140230970D01*
X136272572Y-140239235D01*
X136248773Y-140245196D01*
X136224505Y-140248796D01*
X136200001Y-140250000D01*
X135299999Y-140250000D01*
X135275495Y-140248796D01*
X135251227Y-140245196D01*
X135227428Y-140239235D01*
X135204329Y-140230970D01*
X135182150Y-140220480D01*
X135161107Y-140207868D01*
X135141401Y-140193253D01*
X135123223Y-140176777D01*
X135106747Y-140158599D01*
X135092132Y-140138893D01*
X135079520Y-140117850D01*
X135069030Y-140095671D01*
X135060765Y-140072572D01*
X135054804Y-140048773D01*
X135051204Y-140024505D01*
X135050000Y-140000001D01*
X135050000Y-139349999D01*
X135051204Y-139325495D01*
X135054804Y-139301227D01*
X135060765Y-139277428D01*
X135069030Y-139254329D01*
X135079520Y-139232150D01*
X135092132Y-139211107D01*
X135106747Y-139191401D01*
X135123223Y-139173223D01*
X135141401Y-139156747D01*
X135161107Y-139142132D01*
X135182150Y-139129520D01*
X135204329Y-139119030D01*
X135227428Y-139110765D01*
X135251227Y-139104804D01*
X135275495Y-139101204D01*
X135299999Y-139100000D01*
X136200001Y-139100000D01*
X136224505Y-139101204D01*
G37*
G36*
X139911505Y-167459204D02*
G01*
X139935773Y-167462804D01*
X139959572Y-167468765D01*
X139982671Y-167477030D01*
X140004850Y-167487520D01*
X140025893Y-167500132D01*
X140045599Y-167514747D01*
X140063777Y-167531223D01*
X140080253Y-167549401D01*
X140094868Y-167569107D01*
X140107480Y-167590150D01*
X140117970Y-167612329D01*
X140126235Y-167635428D01*
X140132196Y-167659227D01*
X140135796Y-167683495D01*
X140137000Y-167707999D01*
X140137000Y-168608001D01*
X140135796Y-168632505D01*
X140132196Y-168656773D01*
X140126235Y-168680572D01*
X140117970Y-168703671D01*
X140107480Y-168725850D01*
X140094868Y-168746893D01*
X140080253Y-168766599D01*
X140063777Y-168784777D01*
X140045599Y-168801253D01*
X140025893Y-168815868D01*
X140004850Y-168828480D01*
X139982671Y-168838970D01*
X139959572Y-168847235D01*
X139935773Y-168853196D01*
X139911505Y-168856796D01*
X139887001Y-168858000D01*
X139236999Y-168858000D01*
X139212495Y-168856796D01*
X139188227Y-168853196D01*
X139164428Y-168847235D01*
X139141329Y-168838970D01*
X139119150Y-168828480D01*
X139098107Y-168815868D01*
X139078401Y-168801253D01*
X139060223Y-168784777D01*
X139043747Y-168766599D01*
X139029132Y-168746893D01*
X139016520Y-168725850D01*
X139006030Y-168703671D01*
X138997765Y-168680572D01*
X138991804Y-168656773D01*
X138988204Y-168632505D01*
X138987000Y-168608001D01*
X138987000Y-167707999D01*
X138988204Y-167683495D01*
X138991804Y-167659227D01*
X138997765Y-167635428D01*
X139006030Y-167612329D01*
X139016520Y-167590150D01*
X139029132Y-167569107D01*
X139043747Y-167549401D01*
X139060223Y-167531223D01*
X139078401Y-167514747D01*
X139098107Y-167500132D01*
X139119150Y-167487520D01*
X139141329Y-167477030D01*
X139164428Y-167468765D01*
X139188227Y-167462804D01*
X139212495Y-167459204D01*
X139236999Y-167458000D01*
X139887001Y-167458000D01*
X139911505Y-167459204D01*
G37*
G36*
X137861505Y-167459204D02*
G01*
X137885773Y-167462804D01*
X137909572Y-167468765D01*
X137932671Y-167477030D01*
X137954850Y-167487520D01*
X137975893Y-167500132D01*
X137995599Y-167514747D01*
X138013777Y-167531223D01*
X138030253Y-167549401D01*
X138044868Y-167569107D01*
X138057480Y-167590150D01*
X138067970Y-167612329D01*
X138076235Y-167635428D01*
X138082196Y-167659227D01*
X138085796Y-167683495D01*
X138087000Y-167707999D01*
X138087000Y-168608001D01*
X138085796Y-168632505D01*
X138082196Y-168656773D01*
X138076235Y-168680572D01*
X138067970Y-168703671D01*
X138057480Y-168725850D01*
X138044868Y-168746893D01*
X138030253Y-168766599D01*
X138013777Y-168784777D01*
X137995599Y-168801253D01*
X137975893Y-168815868D01*
X137954850Y-168828480D01*
X137932671Y-168838970D01*
X137909572Y-168847235D01*
X137885773Y-168853196D01*
X137861505Y-168856796D01*
X137837001Y-168858000D01*
X137186999Y-168858000D01*
X137162495Y-168856796D01*
X137138227Y-168853196D01*
X137114428Y-168847235D01*
X137091329Y-168838970D01*
X137069150Y-168828480D01*
X137048107Y-168815868D01*
X137028401Y-168801253D01*
X137010223Y-168784777D01*
X136993747Y-168766599D01*
X136979132Y-168746893D01*
X136966520Y-168725850D01*
X136956030Y-168703671D01*
X136947765Y-168680572D01*
X136941804Y-168656773D01*
X136938204Y-168632505D01*
X136937000Y-168608001D01*
X136937000Y-167707999D01*
X136938204Y-167683495D01*
X136941804Y-167659227D01*
X136947765Y-167635428D01*
X136956030Y-167612329D01*
X136966520Y-167590150D01*
X136979132Y-167569107D01*
X136993747Y-167549401D01*
X137010223Y-167531223D01*
X137028401Y-167514747D01*
X137048107Y-167500132D01*
X137069150Y-167487520D01*
X137091329Y-167477030D01*
X137114428Y-167468765D01*
X137138227Y-167462804D01*
X137162495Y-167459204D01*
X137186999Y-167458000D01*
X137837001Y-167458000D01*
X137861505Y-167459204D01*
G37*
D11*
X149350000Y-157600000D03*
X149350000Y-158400000D03*
X149350000Y-159200000D03*
X149350000Y-160000000D03*
X149350000Y-160800000D03*
X149350000Y-161600000D03*
X149350000Y-162400000D03*
X149350000Y-163200000D03*
D12*
X150800000Y-164650000D03*
X151600000Y-164650000D03*
X152400000Y-164650000D03*
X153200000Y-164650000D03*
X154000000Y-164650000D03*
X154800000Y-164650000D03*
X155600000Y-164650000D03*
X156400000Y-164650000D03*
D11*
X157850000Y-163200000D03*
X157850000Y-162400000D03*
X157850000Y-161600000D03*
X157850000Y-160800000D03*
X157850000Y-160000000D03*
X157850000Y-159200000D03*
X157850000Y-158400000D03*
X157850000Y-157600000D03*
D12*
X156400000Y-156150000D03*
X155600000Y-156150000D03*
X154800000Y-156150000D03*
X154000000Y-156150000D03*
X153200000Y-156150000D03*
X152400000Y-156150000D03*
X151600000Y-156150000D03*
X150800000Y-156150000D03*
D13*
X131800000Y-141325000D03*
D14*
X133200000Y-141325000D03*
D15*
X131800000Y-140125000D03*
D16*
X133200000Y-140125000D03*
D17*
X145733000Y-164298000D03*
X145733000Y-163098000D03*
X145733000Y-161898000D03*
D18*
X184785000Y-132500000D03*
X187325000Y-132500000D03*
X189865000Y-132500000D03*
X192405000Y-132500000D03*
D10*
G36*
X89949569Y-103641243D02*
G01*
X90656676Y-104348350D01*
X89560661Y-105444365D01*
X88853554Y-104737258D01*
X89949569Y-103641243D01*
G37*
G36*
X86237258Y-107353554D02*
G01*
X86944365Y-108060661D01*
X85848350Y-109156676D01*
X85141243Y-108449569D01*
X86237258Y-107353554D01*
G37*
G36*
X87439339Y-108555635D02*
G01*
X88146446Y-109262742D01*
X87050431Y-110358757D01*
X86343324Y-109651650D01*
X87439339Y-108555635D01*
G37*
G36*
X91151650Y-104843324D02*
G01*
X91858757Y-105550431D01*
X90762742Y-106646446D01*
X90055635Y-105939339D01*
X91151650Y-104843324D01*
G37*
G36*
X138061142Y-160591174D02*
G01*
X138084803Y-160594684D01*
X138108007Y-160600496D01*
X138130529Y-160608554D01*
X138152153Y-160618782D01*
X138172670Y-160631079D01*
X138191883Y-160645329D01*
X138209607Y-160661393D01*
X138225671Y-160679117D01*
X138239921Y-160698330D01*
X138252218Y-160718847D01*
X138262446Y-160740471D01*
X138270504Y-160762993D01*
X138276316Y-160786197D01*
X138279826Y-160809858D01*
X138281000Y-160833750D01*
X138281000Y-161321250D01*
X138279826Y-161345142D01*
X138276316Y-161368803D01*
X138270504Y-161392007D01*
X138262446Y-161414529D01*
X138252218Y-161436153D01*
X138239921Y-161456670D01*
X138225671Y-161475883D01*
X138209607Y-161493607D01*
X138191883Y-161509671D01*
X138172670Y-161523921D01*
X138152153Y-161536218D01*
X138130529Y-161546446D01*
X138108007Y-161554504D01*
X138084803Y-161560316D01*
X138061142Y-161563826D01*
X138037250Y-161565000D01*
X137124750Y-161565000D01*
X137100858Y-161563826D01*
X137077197Y-161560316D01*
X137053993Y-161554504D01*
X137031471Y-161546446D01*
X137009847Y-161536218D01*
X136989330Y-161523921D01*
X136970117Y-161509671D01*
X136952393Y-161493607D01*
X136936329Y-161475883D01*
X136922079Y-161456670D01*
X136909782Y-161436153D01*
X136899554Y-161414529D01*
X136891496Y-161392007D01*
X136885684Y-161368803D01*
X136882174Y-161345142D01*
X136881000Y-161321250D01*
X136881000Y-160833750D01*
X136882174Y-160809858D01*
X136885684Y-160786197D01*
X136891496Y-160762993D01*
X136899554Y-160740471D01*
X136909782Y-160718847D01*
X136922079Y-160698330D01*
X136936329Y-160679117D01*
X136952393Y-160661393D01*
X136970117Y-160645329D01*
X136989330Y-160631079D01*
X137009847Y-160618782D01*
X137031471Y-160608554D01*
X137053993Y-160600496D01*
X137077197Y-160594684D01*
X137100858Y-160591174D01*
X137124750Y-160590000D01*
X138037250Y-160590000D01*
X138061142Y-160591174D01*
G37*
G36*
X138061142Y-158716174D02*
G01*
X138084803Y-158719684D01*
X138108007Y-158725496D01*
X138130529Y-158733554D01*
X138152153Y-158743782D01*
X138172670Y-158756079D01*
X138191883Y-158770329D01*
X138209607Y-158786393D01*
X138225671Y-158804117D01*
X138239921Y-158823330D01*
X138252218Y-158843847D01*
X138262446Y-158865471D01*
X138270504Y-158887993D01*
X138276316Y-158911197D01*
X138279826Y-158934858D01*
X138281000Y-158958750D01*
X138281000Y-159446250D01*
X138279826Y-159470142D01*
X138276316Y-159493803D01*
X138270504Y-159517007D01*
X138262446Y-159539529D01*
X138252218Y-159561153D01*
X138239921Y-159581670D01*
X138225671Y-159600883D01*
X138209607Y-159618607D01*
X138191883Y-159634671D01*
X138172670Y-159648921D01*
X138152153Y-159661218D01*
X138130529Y-159671446D01*
X138108007Y-159679504D01*
X138084803Y-159685316D01*
X138061142Y-159688826D01*
X138037250Y-159690000D01*
X137124750Y-159690000D01*
X137100858Y-159688826D01*
X137077197Y-159685316D01*
X137053993Y-159679504D01*
X137031471Y-159671446D01*
X137009847Y-159661218D01*
X136989330Y-159648921D01*
X136970117Y-159634671D01*
X136952393Y-159618607D01*
X136936329Y-159600883D01*
X136922079Y-159581670D01*
X136909782Y-159561153D01*
X136899554Y-159539529D01*
X136891496Y-159517007D01*
X136885684Y-159493803D01*
X136882174Y-159470142D01*
X136881000Y-159446250D01*
X136881000Y-158958750D01*
X136882174Y-158934858D01*
X136885684Y-158911197D01*
X136891496Y-158887993D01*
X136899554Y-158865471D01*
X136909782Y-158843847D01*
X136922079Y-158823330D01*
X136936329Y-158804117D01*
X136952393Y-158786393D01*
X136970117Y-158770329D01*
X136989330Y-158756079D01*
X137009847Y-158743782D01*
X137031471Y-158733554D01*
X137053993Y-158725496D01*
X137077197Y-158719684D01*
X137100858Y-158716174D01*
X137124750Y-158715000D01*
X138037250Y-158715000D01*
X138061142Y-158716174D01*
G37*
G36*
X135521142Y-160591174D02*
G01*
X135544803Y-160594684D01*
X135568007Y-160600496D01*
X135590529Y-160608554D01*
X135612153Y-160618782D01*
X135632670Y-160631079D01*
X135651883Y-160645329D01*
X135669607Y-160661393D01*
X135685671Y-160679117D01*
X135699921Y-160698330D01*
X135712218Y-160718847D01*
X135722446Y-160740471D01*
X135730504Y-160762993D01*
X135736316Y-160786197D01*
X135739826Y-160809858D01*
X135741000Y-160833750D01*
X135741000Y-161321250D01*
X135739826Y-161345142D01*
X135736316Y-161368803D01*
X135730504Y-161392007D01*
X135722446Y-161414529D01*
X135712218Y-161436153D01*
X135699921Y-161456670D01*
X135685671Y-161475883D01*
X135669607Y-161493607D01*
X135651883Y-161509671D01*
X135632670Y-161523921D01*
X135612153Y-161536218D01*
X135590529Y-161546446D01*
X135568007Y-161554504D01*
X135544803Y-161560316D01*
X135521142Y-161563826D01*
X135497250Y-161565000D01*
X134584750Y-161565000D01*
X134560858Y-161563826D01*
X134537197Y-161560316D01*
X134513993Y-161554504D01*
X134491471Y-161546446D01*
X134469847Y-161536218D01*
X134449330Y-161523921D01*
X134430117Y-161509671D01*
X134412393Y-161493607D01*
X134396329Y-161475883D01*
X134382079Y-161456670D01*
X134369782Y-161436153D01*
X134359554Y-161414529D01*
X134351496Y-161392007D01*
X134345684Y-161368803D01*
X134342174Y-161345142D01*
X134341000Y-161321250D01*
X134341000Y-160833750D01*
X134342174Y-160809858D01*
X134345684Y-160786197D01*
X134351496Y-160762993D01*
X134359554Y-160740471D01*
X134369782Y-160718847D01*
X134382079Y-160698330D01*
X134396329Y-160679117D01*
X134412393Y-160661393D01*
X134430117Y-160645329D01*
X134449330Y-160631079D01*
X134469847Y-160618782D01*
X134491471Y-160608554D01*
X134513993Y-160600496D01*
X134537197Y-160594684D01*
X134560858Y-160591174D01*
X134584750Y-160590000D01*
X135497250Y-160590000D01*
X135521142Y-160591174D01*
G37*
G36*
X135521142Y-158716174D02*
G01*
X135544803Y-158719684D01*
X135568007Y-158725496D01*
X135590529Y-158733554D01*
X135612153Y-158743782D01*
X135632670Y-158756079D01*
X135651883Y-158770329D01*
X135669607Y-158786393D01*
X135685671Y-158804117D01*
X135699921Y-158823330D01*
X135712218Y-158843847D01*
X135722446Y-158865471D01*
X135730504Y-158887993D01*
X135736316Y-158911197D01*
X135739826Y-158934858D01*
X135741000Y-158958750D01*
X135741000Y-159446250D01*
X135739826Y-159470142D01*
X135736316Y-159493803D01*
X135730504Y-159517007D01*
X135722446Y-159539529D01*
X135712218Y-159561153D01*
X135699921Y-159581670D01*
X135685671Y-159600883D01*
X135669607Y-159618607D01*
X135651883Y-159634671D01*
X135632670Y-159648921D01*
X135612153Y-159661218D01*
X135590529Y-159671446D01*
X135568007Y-159679504D01*
X135544803Y-159685316D01*
X135521142Y-159688826D01*
X135497250Y-159690000D01*
X134584750Y-159690000D01*
X134560858Y-159688826D01*
X134537197Y-159685316D01*
X134513993Y-159679504D01*
X134491471Y-159671446D01*
X134469847Y-159661218D01*
X134449330Y-159648921D01*
X134430117Y-159634671D01*
X134412393Y-159618607D01*
X134396329Y-159600883D01*
X134382079Y-159581670D01*
X134369782Y-159561153D01*
X134359554Y-159539529D01*
X134351496Y-159517007D01*
X134345684Y-159493803D01*
X134342174Y-159470142D01*
X134341000Y-159446250D01*
X134341000Y-158958750D01*
X134342174Y-158934858D01*
X134345684Y-158911197D01*
X134351496Y-158887993D01*
X134359554Y-158865471D01*
X134369782Y-158843847D01*
X134382079Y-158823330D01*
X134396329Y-158804117D01*
X134412393Y-158786393D01*
X134430117Y-158770329D01*
X134449330Y-158756079D01*
X134469847Y-158743782D01*
X134491471Y-158733554D01*
X134513993Y-158725496D01*
X134537197Y-158719684D01*
X134560858Y-158716174D01*
X134584750Y-158715000D01*
X135497250Y-158715000D01*
X135521142Y-158716174D01*
G37*
D19*
X131997000Y-159190000D03*
X132497000Y-161090000D03*
X132997000Y-161090000D03*
X132997000Y-159190000D03*
X132497000Y-159190000D03*
X131497000Y-159190000D03*
X131497000Y-161090000D03*
X131997000Y-161090000D03*
D20*
X131847000Y-160140000D03*
X132647000Y-160140000D03*
D21*
X147075000Y-169250000D03*
X152325000Y-169250000D03*
X152325000Y-170950000D03*
X147075000Y-170950000D03*
D10*
G36*
X98641600Y-126531192D02*
G01*
X97368808Y-125258400D01*
X98429468Y-124197740D01*
X99702260Y-125470532D01*
X98641600Y-126531192D01*
G37*
G36*
X95106066Y-130066726D02*
G01*
X93833274Y-128793934D01*
X94893934Y-127733274D01*
X96166726Y-129006066D01*
X95106066Y-130066726D01*
G37*
G36*
X96873833Y-128298959D02*
G01*
X95601041Y-127026167D01*
X96661701Y-125965507D01*
X97934493Y-127238299D01*
X96873833Y-128298959D01*
G37*
M02*
