G04 #@! TF.GenerationSoftware,KiCad,Pcbnew,(5.1.5-0-10_14)*
G04 #@! TF.CreationDate,2020-04-05T12:42:30-04:00*
G04 #@! TF.ProjectId,mobo,6d6f626f-2e6b-4696-9361-645f70636258,rev?*
G04 #@! TF.SameCoordinates,Original*
G04 #@! TF.FileFunction,Copper,L2,Bot*
G04 #@! TF.FilePolarity,Positive*
%FSLAX46Y46*%
G04 Gerber Fmt 4.6, Leading zero omitted, Abs format (unit mm)*
G04 Created by KiCad (PCBNEW (5.1.5-0-10_14)) date 2020-04-05 12:42:30*
%MOMM*%
%LPD*%
G04 APERTURE LIST*
%ADD10R,1.700000X1.700000*%
%ADD11O,1.700000X1.700000*%
%ADD12C,0.600000*%
%ADD13R,1.600000X0.900000*%
%ADD14C,0.800000*%
%ADD15C,0.300000*%
%ADD16C,0.500000*%
%ADD17C,1.000000*%
%ADD18C,0.200000*%
G04 APERTURE END LIST*
D10*
X155600000Y-171000000D03*
D11*
X155600000Y-168460000D03*
X158140000Y-171000000D03*
X158140000Y-168460000D03*
X160680000Y-171000000D03*
X160680000Y-168460000D03*
D10*
X143798000Y-171087000D03*
D11*
X141258000Y-171087000D03*
X138718000Y-171087000D03*
X136178000Y-171087000D03*
X133638000Y-171087000D03*
X131098000Y-171087000D03*
D10*
X133500000Y-155500000D03*
D11*
X130960000Y-155500000D03*
D12*
X132747000Y-160140000D03*
X131747000Y-160140000D03*
D13*
X132247000Y-160140000D03*
D14*
X130215000Y-160140000D03*
X151000000Y-160000000D03*
X143900000Y-161400000D03*
X88300000Y-113200000D03*
X83300000Y-116000000D03*
X155600000Y-162400000D03*
X137600000Y-162050000D03*
X161500000Y-155600000D03*
X161500000Y-156600000D03*
X140500000Y-155600000D03*
X141400000Y-155600000D03*
X149900000Y-141700000D03*
X161500000Y-141700000D03*
X82500000Y-118000000D03*
X154100000Y-159300000D03*
X153800000Y-171000000D03*
X153200000Y-158600000D03*
X152400000Y-157800000D03*
X154500000Y-154000000D03*
X154500000Y-149100000D03*
X153400000Y-154500000D03*
X153400000Y-148200000D03*
X157000000Y-166200000D03*
X143400000Y-159700000D03*
X145400000Y-157600000D03*
D15*
X132247000Y-161664000D02*
X132247000Y-160140000D01*
X132120000Y-161791000D02*
X132247000Y-161664000D01*
X131300315Y-161791000D02*
X132120000Y-161791000D01*
X130215000Y-160705685D02*
X131300315Y-161791000D01*
X130215000Y-160140000D02*
X130215000Y-160705685D01*
X130215000Y-160140000D02*
X130215000Y-159632000D01*
X130215000Y-159632000D02*
X131358000Y-158489000D01*
X131358000Y-158489000D02*
X132120000Y-158489000D01*
X132120000Y-158489000D02*
X132247000Y-158616000D01*
X132247000Y-158616000D02*
X132247000Y-160140000D01*
D16*
X155600000Y-168460000D02*
X155600000Y-162400000D01*
D15*
X136178000Y-163472000D02*
X136178000Y-171087000D01*
X137600000Y-162050000D02*
X136178000Y-163472000D01*
D17*
X161500000Y-155600000D02*
X141400000Y-155600000D01*
X161500000Y-156600000D02*
X161500000Y-155600000D01*
X140500000Y-155600000D02*
X140500000Y-155600000D01*
X141400000Y-155600000D02*
X140500000Y-155600000D01*
D16*
X149900000Y-141700000D02*
X161500000Y-141700000D01*
X140500000Y-155600000D02*
X136900000Y-152000000D01*
X136900000Y-152000000D02*
X113500000Y-152000000D01*
X113500000Y-152000000D02*
X91000000Y-129500000D01*
X91000000Y-129500000D02*
X85400000Y-123900000D01*
X85400000Y-123900000D02*
X82500000Y-121000000D01*
X82500000Y-121000000D02*
X82500000Y-118000000D01*
D15*
X154100000Y-170700000D02*
X153800000Y-171000000D01*
X154100000Y-159300000D02*
X154100000Y-170700000D01*
X141258000Y-169842000D02*
X141258000Y-171087000D01*
X153200000Y-160100000D02*
X144000000Y-169300000D01*
X141800000Y-169300000D02*
X141258000Y-169842000D01*
X144000000Y-169300000D02*
X141800000Y-169300000D01*
X153200000Y-158600000D02*
X153200000Y-160100000D01*
X152400000Y-159710002D02*
X144010002Y-168100000D01*
X152400000Y-157800000D02*
X152400000Y-159710002D01*
X144010002Y-168100000D02*
X139900000Y-168100000D01*
X138718000Y-169282000D02*
X138718000Y-171087000D01*
X139900000Y-168100000D02*
X138718000Y-169282000D01*
X154500000Y-154000000D02*
X154500000Y-149100000D01*
X153400000Y-154500000D02*
X153400000Y-148200000D01*
X156900000Y-169700000D02*
X155600000Y-171000000D01*
X156900000Y-166300000D02*
X156900000Y-169700000D01*
X157000000Y-166200000D02*
X156900000Y-166300000D01*
X143400000Y-159600000D02*
X145400000Y-157600000D01*
X143400000Y-159700000D02*
X143400000Y-159600000D01*
D18*
G36*
X182622647Y-103480000D02*
G01*
X185269114Y-103558546D01*
X187898957Y-103793252D01*
X190510226Y-104183510D01*
X193093757Y-104727944D01*
X195640483Y-105424649D01*
X198141380Y-106271156D01*
X200587663Y-107264489D01*
X202970764Y-108401169D01*
X205282227Y-109677165D01*
X207513961Y-111088011D01*
X209658091Y-112628723D01*
X211707069Y-114293882D01*
X213653700Y-116077641D01*
X215491099Y-117973689D01*
X217212820Y-119975375D01*
X218812804Y-122075654D01*
X220285408Y-124267120D01*
X221625450Y-126542060D01*
X222828222Y-128892482D01*
X223889478Y-131310090D01*
X224805487Y-133786386D01*
X225573683Y-136314817D01*
X225864623Y-137479999D01*
X183129999Y-137479999D01*
X183129999Y-133782004D01*
X201903998Y-133782004D01*
X201903998Y-134177994D01*
X201981252Y-134566374D01*
X202132790Y-134932220D01*
X202352790Y-135261473D01*
X202632797Y-135541480D01*
X202962050Y-135761480D01*
X203327896Y-135913018D01*
X203716276Y-135990272D01*
X204112266Y-135990272D01*
X204500646Y-135913018D01*
X204866492Y-135761480D01*
X205195745Y-135541480D01*
X205475752Y-135261473D01*
X205695752Y-134932220D01*
X205847290Y-134566374D01*
X205924544Y-134177994D01*
X205924544Y-133782004D01*
X205847290Y-133393624D01*
X205695752Y-133027778D01*
X205475752Y-132698525D01*
X205195745Y-132418518D01*
X204866492Y-132198518D01*
X204500646Y-132046980D01*
X204112266Y-131969726D01*
X203716276Y-131969726D01*
X203327896Y-132046980D01*
X202962050Y-132198518D01*
X202632797Y-132418518D01*
X202352790Y-132698525D01*
X202132790Y-133027778D01*
X201981252Y-133393624D01*
X201903998Y-133782004D01*
X183129999Y-133782004D01*
X183129999Y-118004560D01*
X183132418Y-117980000D01*
X183122764Y-117881983D01*
X183094174Y-117787733D01*
X183047745Y-117700871D01*
X182985263Y-117624736D01*
X182909128Y-117562254D01*
X182822266Y-117515825D01*
X182728016Y-117487235D01*
X182654559Y-117480000D01*
X182629999Y-117477581D01*
X182605439Y-117480000D01*
X162654560Y-117480000D01*
X162630000Y-117477581D01*
X162605440Y-117480000D01*
X162531983Y-117487235D01*
X162437733Y-117515825D01*
X162350871Y-117562254D01*
X162274736Y-117624736D01*
X162212254Y-117700871D01*
X162165825Y-117787733D01*
X162137235Y-117881983D01*
X162127581Y-117980000D01*
X162130000Y-118004560D01*
X162130000Y-141202900D01*
X162121401Y-141190030D01*
X162009970Y-141078599D01*
X161878942Y-140991049D01*
X161733351Y-140930743D01*
X161578793Y-140900000D01*
X161421207Y-140900000D01*
X161266649Y-140930743D01*
X161121058Y-140991049D01*
X161032831Y-141050000D01*
X157596585Y-141050000D01*
X157854800Y-140877466D01*
X158134807Y-140597459D01*
X158354807Y-140268206D01*
X158506345Y-139902360D01*
X158583599Y-139513980D01*
X158583599Y-139117990D01*
X158506345Y-138729610D01*
X158354807Y-138363764D01*
X158134807Y-138034511D01*
X157854800Y-137754504D01*
X157525547Y-137534504D01*
X157159701Y-137382966D01*
X156771321Y-137305712D01*
X156375331Y-137305712D01*
X155986951Y-137382966D01*
X155621105Y-137534504D01*
X155291852Y-137754504D01*
X155011845Y-138034511D01*
X154791845Y-138363764D01*
X154640307Y-138729610D01*
X154563053Y-139117990D01*
X154563053Y-139513980D01*
X154640307Y-139902360D01*
X154791845Y-140268206D01*
X155011845Y-140597459D01*
X155291852Y-140877466D01*
X155550067Y-141050000D01*
X150367169Y-141050000D01*
X150278942Y-140991049D01*
X150133351Y-140930743D01*
X149978793Y-140900000D01*
X149821207Y-140900000D01*
X149666649Y-140930743D01*
X149521058Y-140991049D01*
X149390030Y-141078599D01*
X149278599Y-141190030D01*
X149191049Y-141321058D01*
X149130743Y-141466649D01*
X149100000Y-141621207D01*
X149100000Y-141778793D01*
X149130743Y-141933351D01*
X149191049Y-142078942D01*
X149278599Y-142209970D01*
X149390030Y-142321401D01*
X149521058Y-142408951D01*
X149666649Y-142469257D01*
X149821207Y-142500000D01*
X149978793Y-142500000D01*
X150133351Y-142469257D01*
X150278942Y-142408951D01*
X150367169Y-142350000D01*
X161032831Y-142350000D01*
X161121058Y-142408951D01*
X161266649Y-142469257D01*
X161421207Y-142500000D01*
X161578793Y-142500000D01*
X161733351Y-142469257D01*
X161878942Y-142408951D01*
X162009970Y-142321401D01*
X162121401Y-142209970D01*
X162130000Y-142197100D01*
X162130001Y-154952750D01*
X162002432Y-154848057D01*
X161846081Y-154764486D01*
X161676431Y-154713023D01*
X161544207Y-154700000D01*
X161500000Y-154695646D01*
X161455794Y-154700000D01*
X154892338Y-154700000D01*
X155009970Y-154621401D01*
X155121401Y-154509970D01*
X155208951Y-154378942D01*
X155269257Y-154233351D01*
X155300000Y-154078793D01*
X155300000Y-153921207D01*
X155269257Y-153766649D01*
X155208951Y-153621058D01*
X155121401Y-153490030D01*
X155050000Y-153418629D01*
X155050000Y-149681371D01*
X155121401Y-149609970D01*
X155208951Y-149478942D01*
X155269257Y-149333351D01*
X155300000Y-149178793D01*
X155300000Y-149021207D01*
X155269257Y-148866649D01*
X155208951Y-148721058D01*
X155121401Y-148590030D01*
X155009970Y-148478599D01*
X154878942Y-148391049D01*
X154733351Y-148330743D01*
X154578793Y-148300000D01*
X154421207Y-148300000D01*
X154266649Y-148330743D01*
X154182755Y-148365493D01*
X154200000Y-148278793D01*
X154200000Y-148121207D01*
X154169257Y-147966649D01*
X154108951Y-147821058D01*
X154021401Y-147690030D01*
X153909970Y-147578599D01*
X153778942Y-147491049D01*
X153633351Y-147430743D01*
X153478793Y-147400000D01*
X153321207Y-147400000D01*
X153166649Y-147430743D01*
X153021058Y-147491049D01*
X152890030Y-147578599D01*
X152778599Y-147690030D01*
X152691049Y-147821058D01*
X152630743Y-147966649D01*
X152600000Y-148121207D01*
X152600000Y-148278793D01*
X152630743Y-148433351D01*
X152691049Y-148578942D01*
X152778599Y-148709970D01*
X152850001Y-148781372D01*
X152850000Y-153918629D01*
X152778599Y-153990030D01*
X152691049Y-154121058D01*
X152630743Y-154266649D01*
X152600000Y-154421207D01*
X152600000Y-154578793D01*
X152624109Y-154700000D01*
X140519238Y-154700000D01*
X137382200Y-151562962D01*
X137361843Y-151538157D01*
X137262868Y-151456930D01*
X137149948Y-151396573D01*
X137027422Y-151359405D01*
X136931932Y-151350000D01*
X136931921Y-151350000D01*
X136900000Y-151346856D01*
X136868079Y-151350000D01*
X113769239Y-151350000D01*
X109769908Y-147350669D01*
X113243926Y-147350669D01*
X113243926Y-147746659D01*
X113321180Y-148135039D01*
X113472718Y-148500885D01*
X113692718Y-148830138D01*
X113972725Y-149110145D01*
X114301978Y-149330145D01*
X114667824Y-149481683D01*
X115056204Y-149558937D01*
X115452194Y-149558937D01*
X115840574Y-149481683D01*
X116206420Y-149330145D01*
X116535673Y-149110145D01*
X116815680Y-148830138D01*
X117035680Y-148500885D01*
X117187218Y-148135039D01*
X117232548Y-147907149D01*
X147239372Y-147907149D01*
X147239372Y-148303139D01*
X147316626Y-148691519D01*
X147468164Y-149057365D01*
X147688164Y-149386618D01*
X147968171Y-149666625D01*
X148297424Y-149886625D01*
X148663270Y-150038163D01*
X149051650Y-150115417D01*
X149447640Y-150115417D01*
X149836020Y-150038163D01*
X150201866Y-149886625D01*
X150531119Y-149666625D01*
X150811126Y-149386618D01*
X151031126Y-149057365D01*
X151182664Y-148691519D01*
X151259918Y-148303139D01*
X151259918Y-147907149D01*
X151182664Y-147518769D01*
X151031126Y-147152923D01*
X150811126Y-146823670D01*
X150531119Y-146543663D01*
X150201866Y-146323663D01*
X149836020Y-146172125D01*
X149447640Y-146094871D01*
X149051650Y-146094871D01*
X148663270Y-146172125D01*
X148297424Y-146323663D01*
X147968171Y-146543663D01*
X147688164Y-146823670D01*
X147468164Y-147152923D01*
X147316626Y-147518769D01*
X147239372Y-147907149D01*
X117232548Y-147907149D01*
X117264472Y-147746659D01*
X117264472Y-147350669D01*
X117187218Y-146962289D01*
X117035680Y-146596443D01*
X116815680Y-146267190D01*
X116535673Y-145987183D01*
X116206420Y-145767183D01*
X115840574Y-145615645D01*
X115452194Y-145538391D01*
X115056204Y-145538391D01*
X114667824Y-145615645D01*
X114301978Y-145767183D01*
X113972725Y-145987183D01*
X113692718Y-146267190D01*
X113472718Y-146596443D01*
X113321180Y-146962289D01*
X113243926Y-147350669D01*
X109769908Y-147350669D01*
X100745756Y-138326517D01*
X106211835Y-138326517D01*
X106211835Y-138722507D01*
X106289089Y-139110887D01*
X106440627Y-139476733D01*
X106660627Y-139805986D01*
X106940634Y-140085993D01*
X107269887Y-140305993D01*
X107635733Y-140457531D01*
X108024113Y-140534785D01*
X108420103Y-140534785D01*
X108808483Y-140457531D01*
X109174329Y-140305993D01*
X109503582Y-140085993D01*
X109783589Y-139805986D01*
X110003589Y-139476733D01*
X110155127Y-139110887D01*
X110232381Y-138722507D01*
X110232381Y-138326517D01*
X110155127Y-137938137D01*
X110003589Y-137572291D01*
X109783589Y-137243038D01*
X109503582Y-136963031D01*
X109174329Y-136743031D01*
X108808483Y-136591493D01*
X108420103Y-136514239D01*
X108024113Y-136514239D01*
X107635733Y-136591493D01*
X107269887Y-136743031D01*
X106940634Y-136963031D01*
X106660627Y-137243038D01*
X106440627Y-137572291D01*
X106289089Y-137938137D01*
X106211835Y-138326517D01*
X100745756Y-138326517D01*
X91482203Y-129062965D01*
X91482198Y-129062959D01*
X86951243Y-124532004D01*
X130619728Y-124532004D01*
X130619728Y-124927994D01*
X130696982Y-125316374D01*
X130848520Y-125682220D01*
X131068520Y-126011473D01*
X131348527Y-126291480D01*
X131677780Y-126511480D01*
X132043626Y-126663018D01*
X132432006Y-126740272D01*
X132827996Y-126740272D01*
X133216376Y-126663018D01*
X133582222Y-126511480D01*
X133911475Y-126291480D01*
X134191482Y-126011473D01*
X134411482Y-125682220D01*
X134563020Y-125316374D01*
X134640274Y-124927994D01*
X134640274Y-124532004D01*
X134563020Y-124143624D01*
X134411482Y-123777778D01*
X134191482Y-123448525D01*
X133911475Y-123168518D01*
X133582222Y-122948518D01*
X133216376Y-122796980D01*
X132827996Y-122719726D01*
X132432006Y-122719726D01*
X132043626Y-122796980D01*
X131677780Y-122948518D01*
X131348527Y-123168518D01*
X131068520Y-123448525D01*
X130848520Y-123777778D01*
X130696982Y-124143624D01*
X130619728Y-124532004D01*
X86951243Y-124532004D01*
X85882203Y-123462965D01*
X85882198Y-123462959D01*
X84201244Y-121782005D01*
X156619727Y-121782005D01*
X156619727Y-122177995D01*
X156696981Y-122566375D01*
X156848519Y-122932221D01*
X157068519Y-123261474D01*
X157348526Y-123541481D01*
X157677779Y-123761481D01*
X158043625Y-123913019D01*
X158432005Y-123990273D01*
X158827995Y-123990273D01*
X159216375Y-123913019D01*
X159582221Y-123761481D01*
X159911474Y-123541481D01*
X160191481Y-123261474D01*
X160411481Y-122932221D01*
X160563019Y-122566375D01*
X160640273Y-122177995D01*
X160640273Y-121782005D01*
X160563019Y-121393625D01*
X160411481Y-121027779D01*
X160191481Y-120698526D01*
X159911474Y-120418519D01*
X159582221Y-120198519D01*
X159216375Y-120046981D01*
X158827995Y-119969727D01*
X158432005Y-119969727D01*
X158043625Y-120046981D01*
X157677779Y-120198519D01*
X157348526Y-120418519D01*
X157068519Y-120698526D01*
X156848519Y-121027779D01*
X156696981Y-121393625D01*
X156619727Y-121782005D01*
X84201244Y-121782005D01*
X83150000Y-120730762D01*
X83150000Y-118467169D01*
X83208951Y-118378942D01*
X83269257Y-118233351D01*
X83300000Y-118078793D01*
X83300000Y-117921207D01*
X83269257Y-117766649D01*
X83208951Y-117621058D01*
X83121401Y-117490030D01*
X83009970Y-117378599D01*
X82878942Y-117291049D01*
X82733351Y-117230743D01*
X82578793Y-117200000D01*
X82421207Y-117200000D01*
X82266649Y-117230743D01*
X82121058Y-117291049D01*
X81990030Y-117378599D01*
X81878599Y-117490030D01*
X81791049Y-117621058D01*
X81730743Y-117766649D01*
X81700000Y-117921207D01*
X81700000Y-118078793D01*
X81730743Y-118233351D01*
X81791049Y-118378942D01*
X81850001Y-118467170D01*
X81850000Y-120968078D01*
X81846856Y-121000000D01*
X81850000Y-121031921D01*
X81850000Y-121031931D01*
X81859405Y-121127421D01*
X81883542Y-121206990D01*
X81896573Y-121249947D01*
X81956930Y-121362868D01*
X81969696Y-121378423D01*
X82038157Y-121461843D01*
X82062962Y-121482200D01*
X84962959Y-124382198D01*
X84962965Y-124382203D01*
X90562959Y-129982198D01*
X90562965Y-129982203D01*
X113017804Y-152437043D01*
X113038157Y-152461843D01*
X113062957Y-152482196D01*
X113062959Y-152482198D01*
X113115836Y-152525593D01*
X113137132Y-152543070D01*
X113250052Y-152603427D01*
X113372578Y-152640595D01*
X113468068Y-152650000D01*
X113468078Y-152650000D01*
X113499999Y-152653144D01*
X113531920Y-152650000D01*
X136630762Y-152650000D01*
X139597272Y-155616510D01*
X139613023Y-155776431D01*
X139664486Y-155946081D01*
X139748057Y-156102432D01*
X139860525Y-156239475D01*
X139997568Y-156351943D01*
X140153919Y-156435514D01*
X140323569Y-156486977D01*
X140455793Y-156500000D01*
X160600000Y-156500000D01*
X160600000Y-156644206D01*
X160613023Y-156776430D01*
X160664486Y-156946080D01*
X160748057Y-157102431D01*
X160860525Y-157239475D01*
X160997568Y-157351943D01*
X161153919Y-157435514D01*
X161323569Y-157486977D01*
X161500000Y-157504354D01*
X161676430Y-157486977D01*
X161846080Y-157435514D01*
X162002431Y-157351943D01*
X162130001Y-157247250D01*
X162130001Y-168305998D01*
X161977851Y-168305998D01*
X162087909Y-168081089D01*
X161986935Y-167813700D01*
X161835736Y-167571148D01*
X161640122Y-167362754D01*
X161407611Y-167196527D01*
X161147139Y-167078854D01*
X161058910Y-167052097D01*
X160834000Y-167163111D01*
X160834000Y-168306000D01*
X160854000Y-168306000D01*
X160854000Y-168614000D01*
X160834000Y-168614000D01*
X160834000Y-168634000D01*
X160526000Y-168634000D01*
X160526000Y-168614000D01*
X160506000Y-168614000D01*
X160506000Y-168306000D01*
X160526000Y-168306000D01*
X160526000Y-167163111D01*
X160301090Y-167052097D01*
X160212861Y-167078854D01*
X159952389Y-167196527D01*
X159719878Y-167362754D01*
X159524264Y-167571148D01*
X159373065Y-167813700D01*
X159302588Y-168000330D01*
X159247735Y-167867903D01*
X159110938Y-167663172D01*
X158936828Y-167489062D01*
X158732097Y-167352265D01*
X158504611Y-167258037D01*
X158263114Y-167210000D01*
X158016886Y-167210000D01*
X157775389Y-167258037D01*
X157547903Y-167352265D01*
X157450000Y-167417682D01*
X157450000Y-166861472D01*
X157509970Y-166821401D01*
X157621401Y-166709970D01*
X157708951Y-166578942D01*
X157769257Y-166433351D01*
X157800000Y-166278793D01*
X157800000Y-166121207D01*
X157769257Y-165966649D01*
X157708951Y-165821058D01*
X157621401Y-165690030D01*
X157509970Y-165578599D01*
X157378942Y-165491049D01*
X157233351Y-165430743D01*
X157078793Y-165400000D01*
X156921207Y-165400000D01*
X156766649Y-165430743D01*
X156621058Y-165491049D01*
X156490030Y-165578599D01*
X156378599Y-165690030D01*
X156291049Y-165821058D01*
X156250000Y-165920159D01*
X156250000Y-162867169D01*
X156308951Y-162778942D01*
X156369257Y-162633351D01*
X156400000Y-162478793D01*
X156400000Y-162321207D01*
X156369257Y-162166649D01*
X156308951Y-162021058D01*
X156221401Y-161890030D01*
X156109970Y-161778599D01*
X155978942Y-161691049D01*
X155833351Y-161630743D01*
X155678793Y-161600000D01*
X155521207Y-161600000D01*
X155366649Y-161630743D01*
X155221058Y-161691049D01*
X155090030Y-161778599D01*
X154978599Y-161890030D01*
X154891049Y-162021058D01*
X154830743Y-162166649D01*
X154800000Y-162321207D01*
X154800000Y-162478793D01*
X154830743Y-162633351D01*
X154891049Y-162778942D01*
X154950001Y-162867170D01*
X154950000Y-167390954D01*
X154803172Y-167489062D01*
X154650000Y-167642234D01*
X154650000Y-159881371D01*
X154721401Y-159809970D01*
X154808951Y-159678942D01*
X154869257Y-159533351D01*
X154900000Y-159378793D01*
X154900000Y-159221207D01*
X154869257Y-159066649D01*
X154808951Y-158921058D01*
X154721401Y-158790030D01*
X154609970Y-158678599D01*
X154478942Y-158591049D01*
X154333351Y-158530743D01*
X154178793Y-158500000D01*
X154021207Y-158500000D01*
X153996749Y-158504865D01*
X153969257Y-158366649D01*
X153908951Y-158221058D01*
X153821401Y-158090030D01*
X153709970Y-157978599D01*
X153578942Y-157891049D01*
X153433351Y-157830743D01*
X153278793Y-157800000D01*
X153200000Y-157800000D01*
X153200000Y-157721207D01*
X153169257Y-157566649D01*
X153108951Y-157421058D01*
X153021401Y-157290030D01*
X152909970Y-157178599D01*
X152778942Y-157091049D01*
X152633351Y-157030743D01*
X152478793Y-157000000D01*
X152321207Y-157000000D01*
X152166649Y-157030743D01*
X152021058Y-157091049D01*
X151890030Y-157178599D01*
X151778599Y-157290030D01*
X151691049Y-157421058D01*
X151630743Y-157566649D01*
X151600000Y-157721207D01*
X151600000Y-157878793D01*
X151630743Y-158033351D01*
X151691049Y-158178942D01*
X151778599Y-158309970D01*
X151850000Y-158381371D01*
X151850001Y-159482183D01*
X143782185Y-167550000D01*
X139927007Y-167550000D01*
X139899999Y-167547340D01*
X139872991Y-167550000D01*
X139872982Y-167550000D01*
X139792181Y-167557958D01*
X139688506Y-167589408D01*
X139592958Y-167640479D01*
X139592956Y-167640480D01*
X139592957Y-167640480D01*
X139530195Y-167691987D01*
X139530190Y-167691992D01*
X139509210Y-167709210D01*
X139491992Y-167730190D01*
X138348196Y-168873987D01*
X138327210Y-168891210D01*
X138258479Y-168974958D01*
X138207408Y-169070507D01*
X138175958Y-169174182D01*
X138168000Y-169254983D01*
X138168000Y-169254992D01*
X138165340Y-169282000D01*
X138168000Y-169309008D01*
X138168000Y-169961828D01*
X138125903Y-169979265D01*
X137921172Y-170116062D01*
X137747062Y-170290172D01*
X137610265Y-170494903D01*
X137516037Y-170722389D01*
X137468000Y-170963886D01*
X137468000Y-171210114D01*
X137516037Y-171451611D01*
X137610265Y-171679097D01*
X137747062Y-171883828D01*
X137921172Y-172057938D01*
X138125903Y-172194735D01*
X138353389Y-172288963D01*
X138594886Y-172337000D01*
X138841114Y-172337000D01*
X139082611Y-172288963D01*
X139310097Y-172194735D01*
X139514828Y-172057938D01*
X139688938Y-171883828D01*
X139825735Y-171679097D01*
X139919963Y-171451611D01*
X139968000Y-171210114D01*
X139968000Y-170963886D01*
X139919963Y-170722389D01*
X139825735Y-170494903D01*
X139688938Y-170290172D01*
X139514828Y-170116062D01*
X139310097Y-169979265D01*
X139268000Y-169961828D01*
X139268000Y-169509817D01*
X140127818Y-168650000D01*
X143872183Y-168650000D01*
X143772183Y-168750000D01*
X141827011Y-168750000D01*
X141800000Y-168747340D01*
X141772989Y-168750000D01*
X141772982Y-168750000D01*
X141692181Y-168757958D01*
X141588505Y-168789408D01*
X141526634Y-168822479D01*
X141492958Y-168840479D01*
X141409210Y-168909210D01*
X141391987Y-168930196D01*
X140888196Y-169433987D01*
X140867210Y-169451210D01*
X140798479Y-169534958D01*
X140747408Y-169630507D01*
X140715958Y-169734182D01*
X140708000Y-169814983D01*
X140708000Y-169814992D01*
X140705340Y-169842000D01*
X140708000Y-169869008D01*
X140708000Y-169961828D01*
X140665903Y-169979265D01*
X140461172Y-170116062D01*
X140287062Y-170290172D01*
X140150265Y-170494903D01*
X140056037Y-170722389D01*
X140008000Y-170963886D01*
X140008000Y-171210114D01*
X140056037Y-171451611D01*
X140150265Y-171679097D01*
X140287062Y-171883828D01*
X140461172Y-172057938D01*
X140665903Y-172194735D01*
X140893389Y-172288963D01*
X141134886Y-172337000D01*
X141381114Y-172337000D01*
X141622611Y-172288963D01*
X141850097Y-172194735D01*
X142054828Y-172057938D01*
X142228938Y-171883828D01*
X142365735Y-171679097D01*
X142459963Y-171451611D01*
X142508000Y-171210114D01*
X142508000Y-170963886D01*
X142459963Y-170722389D01*
X142365735Y-170494903D01*
X142228938Y-170290172D01*
X142054828Y-170116062D01*
X141879144Y-169998673D01*
X142027817Y-169850000D01*
X142845811Y-169850000D01*
X142794186Y-169865660D01*
X142724697Y-169902803D01*
X142663789Y-169952789D01*
X142613803Y-170013697D01*
X142576660Y-170083186D01*
X142553788Y-170158586D01*
X142546065Y-170237000D01*
X142546065Y-171937000D01*
X142553788Y-172015414D01*
X142576660Y-172090814D01*
X142613803Y-172160303D01*
X142663789Y-172221211D01*
X142724697Y-172271197D01*
X142794186Y-172308340D01*
X142869586Y-172331212D01*
X142948000Y-172338935D01*
X144648000Y-172338935D01*
X144726414Y-172331212D01*
X144801814Y-172308340D01*
X144871303Y-172271197D01*
X144932211Y-172221211D01*
X144982197Y-172160303D01*
X145019340Y-172090814D01*
X145042212Y-172015414D01*
X145049935Y-171937000D01*
X145049935Y-170237000D01*
X145042212Y-170158586D01*
X145019340Y-170083186D01*
X144982197Y-170013697D01*
X144932211Y-169952789D01*
X144871303Y-169902803D01*
X144801814Y-169865660D01*
X144726414Y-169842788D01*
X144648000Y-169835065D01*
X144130819Y-169835065D01*
X144211494Y-169810592D01*
X144307042Y-169759521D01*
X144390790Y-169690790D01*
X144408013Y-169669804D01*
X153550000Y-160527817D01*
X153550001Y-170237639D01*
X153421058Y-170291049D01*
X153290030Y-170378599D01*
X153178599Y-170490030D01*
X153091049Y-170621058D01*
X153030743Y-170766649D01*
X153000000Y-170921207D01*
X153000000Y-171078793D01*
X153030743Y-171233351D01*
X153091049Y-171378942D01*
X153178599Y-171509970D01*
X153290030Y-171621401D01*
X153421058Y-171708951D01*
X153566649Y-171769257D01*
X153721207Y-171800000D01*
X153878793Y-171800000D01*
X154033351Y-171769257D01*
X154178942Y-171708951D01*
X154309970Y-171621401D01*
X154348065Y-171583306D01*
X154348065Y-171850000D01*
X154355788Y-171928414D01*
X154378660Y-172003814D01*
X154415803Y-172073303D01*
X154465789Y-172134211D01*
X154526697Y-172184197D01*
X154596186Y-172221340D01*
X154671586Y-172244212D01*
X154750000Y-172251935D01*
X156450000Y-172251935D01*
X156528414Y-172244212D01*
X156603814Y-172221340D01*
X156673303Y-172184197D01*
X156734211Y-172134211D01*
X156784197Y-172073303D01*
X156821340Y-172003814D01*
X156844212Y-171928414D01*
X156851935Y-171850000D01*
X156851935Y-170525882D01*
X157157820Y-170219997D01*
X157032265Y-170407903D01*
X156938037Y-170635389D01*
X156890000Y-170876886D01*
X156890000Y-171123114D01*
X156938037Y-171364611D01*
X157032265Y-171592097D01*
X157169062Y-171796828D01*
X157343172Y-171970938D01*
X157547903Y-172107735D01*
X157775389Y-172201963D01*
X158016886Y-172250000D01*
X158263114Y-172250000D01*
X158504611Y-172201963D01*
X158732097Y-172107735D01*
X158936828Y-171970938D01*
X159110938Y-171796828D01*
X159247735Y-171592097D01*
X159341963Y-171364611D01*
X159390000Y-171123114D01*
X159390000Y-170876886D01*
X159341963Y-170635389D01*
X159247735Y-170407903D01*
X159110938Y-170203172D01*
X158936828Y-170029062D01*
X158732097Y-169892265D01*
X158504611Y-169798037D01*
X158263114Y-169750000D01*
X158016886Y-169750000D01*
X157775389Y-169798037D01*
X157547903Y-169892265D01*
X157343172Y-170029062D01*
X157333566Y-170038668D01*
X157359521Y-170007042D01*
X157410592Y-169911494D01*
X157442042Y-169807819D01*
X157450000Y-169727018D01*
X157450000Y-169727011D01*
X157452660Y-169700000D01*
X157450000Y-169672989D01*
X157450000Y-169502318D01*
X157547903Y-169567735D01*
X157775389Y-169661963D01*
X158016886Y-169710000D01*
X158263114Y-169710000D01*
X158504611Y-169661963D01*
X158732097Y-169567735D01*
X158936828Y-169430938D01*
X159110938Y-169256828D01*
X159247735Y-169052097D01*
X159302588Y-168919670D01*
X159373065Y-169106300D01*
X159524264Y-169348852D01*
X159719878Y-169557246D01*
X159952389Y-169723473D01*
X160212121Y-169840812D01*
X160087903Y-169892265D01*
X159883172Y-170029062D01*
X159709062Y-170203172D01*
X159572265Y-170407903D01*
X159478037Y-170635389D01*
X159430000Y-170876886D01*
X159430000Y-171123114D01*
X159478037Y-171364611D01*
X159572265Y-171592097D01*
X159709062Y-171796828D01*
X159883172Y-171970938D01*
X160087903Y-172107735D01*
X160315389Y-172201963D01*
X160556886Y-172250000D01*
X160803114Y-172250000D01*
X161044611Y-172201963D01*
X161272097Y-172107735D01*
X161476828Y-171970938D01*
X161650938Y-171796828D01*
X161787735Y-171592097D01*
X161881963Y-171364611D01*
X161930000Y-171123114D01*
X161930000Y-170876886D01*
X161881963Y-170635389D01*
X161787735Y-170407903D01*
X161650938Y-170203172D01*
X161476828Y-170029062D01*
X161272097Y-169892265D01*
X161147879Y-169840812D01*
X161407611Y-169723473D01*
X161640122Y-169557246D01*
X161835736Y-169348852D01*
X161986935Y-169106300D01*
X162087909Y-168838911D01*
X161977851Y-168614002D01*
X162130001Y-168614002D01*
X162130001Y-172479998D01*
X134066055Y-172479999D01*
X134105139Y-172468146D01*
X134365611Y-172350473D01*
X134598122Y-172184246D01*
X134793736Y-171975852D01*
X134944935Y-171733300D01*
X135015412Y-171546670D01*
X135070265Y-171679097D01*
X135207062Y-171883828D01*
X135381172Y-172057938D01*
X135585903Y-172194735D01*
X135813389Y-172288963D01*
X136054886Y-172337000D01*
X136301114Y-172337000D01*
X136542611Y-172288963D01*
X136770097Y-172194735D01*
X136974828Y-172057938D01*
X137148938Y-171883828D01*
X137285735Y-171679097D01*
X137379963Y-171451611D01*
X137428000Y-171210114D01*
X137428000Y-170963886D01*
X137379963Y-170722389D01*
X137285735Y-170494903D01*
X137148938Y-170290172D01*
X136974828Y-170116062D01*
X136770097Y-169979265D01*
X136728000Y-169961828D01*
X136728000Y-163699817D01*
X137577817Y-162850000D01*
X137678793Y-162850000D01*
X137833351Y-162819257D01*
X137978942Y-162758951D01*
X138109970Y-162671401D01*
X138221401Y-162559970D01*
X138308951Y-162428942D01*
X138369257Y-162283351D01*
X138400000Y-162128793D01*
X138400000Y-161971207D01*
X138369257Y-161816649D01*
X138308951Y-161671058D01*
X138221401Y-161540030D01*
X138109970Y-161428599D01*
X137978942Y-161341049D01*
X137833351Y-161280743D01*
X137678793Y-161250000D01*
X137521207Y-161250000D01*
X137366649Y-161280743D01*
X137221058Y-161341049D01*
X137090030Y-161428599D01*
X136978599Y-161540030D01*
X136891049Y-161671058D01*
X136830743Y-161816649D01*
X136800000Y-161971207D01*
X136800000Y-162072183D01*
X135808196Y-163063987D01*
X135787210Y-163081210D01*
X135718479Y-163164958D01*
X135667408Y-163260507D01*
X135635958Y-163364182D01*
X135628000Y-163444983D01*
X135628000Y-163444992D01*
X135625340Y-163472000D01*
X135628000Y-163499008D01*
X135628001Y-169961827D01*
X135585903Y-169979265D01*
X135381172Y-170116062D01*
X135207062Y-170290172D01*
X135070265Y-170494903D01*
X135015412Y-170627330D01*
X134944935Y-170440700D01*
X134793736Y-170198148D01*
X134598122Y-169989754D01*
X134365611Y-169823527D01*
X134105139Y-169705854D01*
X134016910Y-169679097D01*
X133792000Y-169790111D01*
X133792000Y-170933000D01*
X133812000Y-170933000D01*
X133812000Y-171241000D01*
X133792000Y-171241000D01*
X133792000Y-171261000D01*
X133484000Y-171261000D01*
X133484000Y-171241000D01*
X131252000Y-171241000D01*
X131252000Y-171261000D01*
X130944000Y-171261000D01*
X130944000Y-171241000D01*
X129800150Y-171241000D01*
X129690091Y-171465911D01*
X129791065Y-171733300D01*
X129942264Y-171975852D01*
X130137878Y-172184246D01*
X130370389Y-172350473D01*
X130630861Y-172468146D01*
X130669945Y-172479999D01*
X97837108Y-172480000D01*
X94139112Y-168782004D01*
X97276582Y-168782004D01*
X97276582Y-169177994D01*
X97353836Y-169566374D01*
X97505374Y-169932220D01*
X97725374Y-170261473D01*
X98005381Y-170541480D01*
X98334634Y-170761480D01*
X98700480Y-170913018D01*
X99088860Y-170990272D01*
X99484850Y-170990272D01*
X99873230Y-170913018D01*
X100239076Y-170761480D01*
X100318981Y-170708089D01*
X129690091Y-170708089D01*
X129800150Y-170933000D01*
X130944000Y-170933000D01*
X130944000Y-169790111D01*
X131252000Y-169790111D01*
X131252000Y-170933000D01*
X133484000Y-170933000D01*
X133484000Y-169790111D01*
X133259090Y-169679097D01*
X133170861Y-169705854D01*
X132910389Y-169823527D01*
X132677878Y-169989754D01*
X132482264Y-170198148D01*
X132368000Y-170381449D01*
X132253736Y-170198148D01*
X132058122Y-169989754D01*
X131825611Y-169823527D01*
X131565139Y-169705854D01*
X131476910Y-169679097D01*
X131252000Y-169790111D01*
X130944000Y-169790111D01*
X130719090Y-169679097D01*
X130630861Y-169705854D01*
X130370389Y-169823527D01*
X130137878Y-169989754D01*
X129942264Y-170198148D01*
X129791065Y-170440700D01*
X129690091Y-170708089D01*
X100318981Y-170708089D01*
X100568329Y-170541480D01*
X100848336Y-170261473D01*
X101068336Y-169932220D01*
X101219874Y-169566374D01*
X101297128Y-169177994D01*
X101297128Y-168782004D01*
X101219874Y-168393624D01*
X101068336Y-168027778D01*
X100848336Y-167698525D01*
X100568329Y-167418518D01*
X100239076Y-167198518D01*
X99873230Y-167046980D01*
X99484850Y-166969726D01*
X99088860Y-166969726D01*
X98700480Y-167046980D01*
X98334634Y-167198518D01*
X98005381Y-167418518D01*
X97725374Y-167698525D01*
X97505374Y-168027778D01*
X97353836Y-168393624D01*
X97276582Y-168782004D01*
X94139112Y-168782004D01*
X88130001Y-162772894D01*
X88130001Y-161125149D01*
X89619727Y-161125149D01*
X89619727Y-161521139D01*
X89696981Y-161909519D01*
X89848519Y-162275365D01*
X90068519Y-162604618D01*
X90348526Y-162884625D01*
X90677779Y-163104625D01*
X91043625Y-163256163D01*
X91432005Y-163333417D01*
X91827995Y-163333417D01*
X92216375Y-163256163D01*
X92582221Y-163104625D01*
X92911474Y-162884625D01*
X93191481Y-162604618D01*
X93411481Y-162275365D01*
X93563019Y-161909519D01*
X93640273Y-161521139D01*
X93640273Y-161125149D01*
X93563019Y-160736769D01*
X93411481Y-160370923D01*
X93191481Y-160041670D01*
X92911474Y-159761663D01*
X92804223Y-159690000D01*
X130836058Y-159690000D01*
X130839000Y-159834000D01*
X130877474Y-159872474D01*
X130865832Y-159903353D01*
X130852139Y-159985998D01*
X130839000Y-159985998D01*
X130839000Y-160065298D01*
X130836596Y-160079807D01*
X130839000Y-160154548D01*
X130839000Y-160294002D01*
X130850585Y-160294002D01*
X130877079Y-160407921D01*
X130839000Y-160446000D01*
X130836058Y-160590000D01*
X130847797Y-160709189D01*
X130882563Y-160823797D01*
X130939020Y-160929421D01*
X131014999Y-161022001D01*
X131107579Y-161097980D01*
X131213203Y-161154437D01*
X131327811Y-161189203D01*
X131447000Y-161200942D01*
X131941000Y-161198000D01*
X132093000Y-161046000D01*
X132093000Y-160982097D01*
X132151008Y-160958070D01*
X132159651Y-160842287D01*
X132211078Y-160893714D01*
X132247000Y-160857792D01*
X132282922Y-160893714D01*
X132334349Y-160842287D01*
X132342992Y-160958070D01*
X132401000Y-160979940D01*
X132401000Y-161046000D01*
X132553000Y-161198000D01*
X133047000Y-161200942D01*
X133166189Y-161189203D01*
X133280797Y-161154437D01*
X133386421Y-161097980D01*
X133479001Y-161022001D01*
X133554980Y-160929421D01*
X133611437Y-160823797D01*
X133646203Y-160709189D01*
X133657942Y-160590000D01*
X133655000Y-160446000D01*
X133616526Y-160407526D01*
X133628168Y-160376647D01*
X133641861Y-160294002D01*
X133655000Y-160294002D01*
X133655000Y-160214702D01*
X133657404Y-160200193D01*
X133655000Y-160125452D01*
X133655000Y-159985998D01*
X133643415Y-159985998D01*
X133616921Y-159872079D01*
X133655000Y-159834000D01*
X133657942Y-159690000D01*
X133651167Y-159621207D01*
X142600000Y-159621207D01*
X142600000Y-159778793D01*
X142630743Y-159933351D01*
X142691049Y-160078942D01*
X142778599Y-160209970D01*
X142890030Y-160321401D01*
X143021058Y-160408951D01*
X143166649Y-160469257D01*
X143321207Y-160500000D01*
X143478793Y-160500000D01*
X143633351Y-160469257D01*
X143778942Y-160408951D01*
X143909970Y-160321401D01*
X144021401Y-160209970D01*
X144108951Y-160078942D01*
X144169257Y-159933351D01*
X144200000Y-159778793D01*
X144200000Y-159621207D01*
X144192801Y-159585016D01*
X145377818Y-158400000D01*
X145478793Y-158400000D01*
X145633351Y-158369257D01*
X145778942Y-158308951D01*
X145909970Y-158221401D01*
X146021401Y-158109970D01*
X146108951Y-157978942D01*
X146169257Y-157833351D01*
X146200000Y-157678793D01*
X146200000Y-157521207D01*
X146169257Y-157366649D01*
X146108951Y-157221058D01*
X146021401Y-157090030D01*
X145909970Y-156978599D01*
X145778942Y-156891049D01*
X145633351Y-156830743D01*
X145478793Y-156800000D01*
X145321207Y-156800000D01*
X145166649Y-156830743D01*
X145021058Y-156891049D01*
X144890030Y-156978599D01*
X144778599Y-157090030D01*
X144691049Y-157221058D01*
X144630743Y-157366649D01*
X144600000Y-157521207D01*
X144600000Y-157622182D01*
X143322183Y-158900000D01*
X143321207Y-158900000D01*
X143166649Y-158930743D01*
X143021058Y-158991049D01*
X142890030Y-159078599D01*
X142778599Y-159190030D01*
X142691049Y-159321058D01*
X142630743Y-159466649D01*
X142600000Y-159621207D01*
X133651167Y-159621207D01*
X133646203Y-159570811D01*
X133611437Y-159456203D01*
X133554980Y-159350579D01*
X133479001Y-159257999D01*
X133386421Y-159182020D01*
X133280797Y-159125563D01*
X133166189Y-159090797D01*
X133047000Y-159079058D01*
X132553000Y-159082000D01*
X132401000Y-159234000D01*
X132401000Y-159297903D01*
X132342992Y-159321930D01*
X132334349Y-159437713D01*
X132282922Y-159386286D01*
X132247000Y-159422208D01*
X132211078Y-159386286D01*
X132159651Y-159437713D01*
X132151008Y-159321930D01*
X132093000Y-159300060D01*
X132093000Y-159234000D01*
X131941000Y-159082000D01*
X131447000Y-159079058D01*
X131327811Y-159090797D01*
X131213203Y-159125563D01*
X131107579Y-159182020D01*
X131014999Y-159257999D01*
X130939020Y-159350579D01*
X130882563Y-159456203D01*
X130847797Y-159570811D01*
X130836058Y-159690000D01*
X92804223Y-159690000D01*
X92582221Y-159541663D01*
X92216375Y-159390125D01*
X91827995Y-159312871D01*
X91432005Y-159312871D01*
X91043625Y-159390125D01*
X90677779Y-159541663D01*
X90348526Y-159761663D01*
X90068519Y-160041670D01*
X89848519Y-160370923D01*
X89696981Y-160736769D01*
X89619727Y-161125149D01*
X88130001Y-161125149D01*
X88130001Y-155376886D01*
X129710000Y-155376886D01*
X129710000Y-155623114D01*
X129758037Y-155864611D01*
X129852265Y-156092097D01*
X129989062Y-156296828D01*
X130163172Y-156470938D01*
X130367903Y-156607735D01*
X130595389Y-156701963D01*
X130836886Y-156750000D01*
X131083114Y-156750000D01*
X131324611Y-156701963D01*
X131552097Y-156607735D01*
X131756828Y-156470938D01*
X131930938Y-156296828D01*
X132067735Y-156092097D01*
X132161963Y-155864611D01*
X132210000Y-155623114D01*
X132210000Y-155376886D01*
X132161963Y-155135389D01*
X132067735Y-154907903D01*
X131930938Y-154703172D01*
X131877766Y-154650000D01*
X132248065Y-154650000D01*
X132248065Y-156350000D01*
X132255788Y-156428414D01*
X132278660Y-156503814D01*
X132315803Y-156573303D01*
X132365789Y-156634211D01*
X132426697Y-156684197D01*
X132496186Y-156721340D01*
X132571586Y-156744212D01*
X132650000Y-156751935D01*
X134350000Y-156751935D01*
X134428414Y-156744212D01*
X134503814Y-156721340D01*
X134573303Y-156684197D01*
X134634211Y-156634211D01*
X134684197Y-156573303D01*
X134721340Y-156503814D01*
X134744212Y-156428414D01*
X134751935Y-156350000D01*
X134751935Y-154650000D01*
X134744212Y-154571586D01*
X134721340Y-154496186D01*
X134684197Y-154426697D01*
X134634211Y-154365789D01*
X134573303Y-154315803D01*
X134503814Y-154278660D01*
X134428414Y-154255788D01*
X134350000Y-154248065D01*
X132650000Y-154248065D01*
X132571586Y-154255788D01*
X132496186Y-154278660D01*
X132426697Y-154315803D01*
X132365789Y-154365789D01*
X132315803Y-154426697D01*
X132278660Y-154496186D01*
X132255788Y-154571586D01*
X132248065Y-154650000D01*
X131877766Y-154650000D01*
X131756828Y-154529062D01*
X131552097Y-154392265D01*
X131324611Y-154298037D01*
X131083114Y-154250000D01*
X130836886Y-154250000D01*
X130595389Y-154298037D01*
X130367903Y-154392265D01*
X130163172Y-154529062D01*
X129989062Y-154703172D01*
X129852265Y-154907903D01*
X129758037Y-155135389D01*
X129710000Y-155376886D01*
X88130001Y-155376886D01*
X88130000Y-145355597D01*
X90619727Y-145355597D01*
X90619727Y-145751587D01*
X90696981Y-146139967D01*
X90848519Y-146505813D01*
X91068519Y-146835066D01*
X91348526Y-147115073D01*
X91677779Y-147335073D01*
X92043625Y-147486611D01*
X92432005Y-147563865D01*
X92827995Y-147563865D01*
X93216375Y-147486611D01*
X93582221Y-147335073D01*
X93911474Y-147115073D01*
X94191481Y-146835066D01*
X94411481Y-146505813D01*
X94563019Y-146139967D01*
X94640273Y-145751587D01*
X94640273Y-145355597D01*
X94563019Y-144967217D01*
X94411481Y-144601371D01*
X94191481Y-144272118D01*
X93911474Y-143992111D01*
X93582221Y-143772111D01*
X93216375Y-143620573D01*
X92827995Y-143543319D01*
X92432005Y-143543319D01*
X92043625Y-143620573D01*
X91677779Y-143772111D01*
X91348526Y-143992111D01*
X91068519Y-144272118D01*
X90848519Y-144601371D01*
X90696981Y-144967217D01*
X90619727Y-145355597D01*
X88130000Y-145355597D01*
X88129999Y-140578162D01*
X88132419Y-140553592D01*
X88122765Y-140455574D01*
X88094174Y-140361324D01*
X88047745Y-140274463D01*
X88000919Y-140217405D01*
X87985263Y-140198328D01*
X87966186Y-140182672D01*
X77523399Y-129739886D01*
X77523399Y-116011960D01*
X87753356Y-105782004D01*
X96783965Y-105782004D01*
X96783965Y-106177994D01*
X96861219Y-106566374D01*
X97012757Y-106932220D01*
X97232757Y-107261473D01*
X97512764Y-107541480D01*
X97842017Y-107761480D01*
X98207863Y-107913018D01*
X98596243Y-107990272D01*
X98992233Y-107990272D01*
X99380613Y-107913018D01*
X99746459Y-107761480D01*
X100075712Y-107541480D01*
X100355719Y-107261473D01*
X100575719Y-106932220D01*
X100727257Y-106566374D01*
X100804511Y-106177994D01*
X100804511Y-105782004D01*
X100727257Y-105393624D01*
X100575719Y-105027778D01*
X100355719Y-104698525D01*
X100075712Y-104418518D01*
X99746459Y-104198518D01*
X99380613Y-104046980D01*
X98992233Y-103969726D01*
X98596243Y-103969726D01*
X98207863Y-104046980D01*
X97842017Y-104198518D01*
X97512764Y-104418518D01*
X97232757Y-104698525D01*
X97012757Y-105027778D01*
X96861219Y-105393624D01*
X96783965Y-105782004D01*
X87753356Y-105782004D01*
X90055363Y-103479998D01*
X182622647Y-103480000D01*
G37*
X182622647Y-103480000D02*
X185269114Y-103558546D01*
X187898957Y-103793252D01*
X190510226Y-104183510D01*
X193093757Y-104727944D01*
X195640483Y-105424649D01*
X198141380Y-106271156D01*
X200587663Y-107264489D01*
X202970764Y-108401169D01*
X205282227Y-109677165D01*
X207513961Y-111088011D01*
X209658091Y-112628723D01*
X211707069Y-114293882D01*
X213653700Y-116077641D01*
X215491099Y-117973689D01*
X217212820Y-119975375D01*
X218812804Y-122075654D01*
X220285408Y-124267120D01*
X221625450Y-126542060D01*
X222828222Y-128892482D01*
X223889478Y-131310090D01*
X224805487Y-133786386D01*
X225573683Y-136314817D01*
X225864623Y-137479999D01*
X183129999Y-137479999D01*
X183129999Y-133782004D01*
X201903998Y-133782004D01*
X201903998Y-134177994D01*
X201981252Y-134566374D01*
X202132790Y-134932220D01*
X202352790Y-135261473D01*
X202632797Y-135541480D01*
X202962050Y-135761480D01*
X203327896Y-135913018D01*
X203716276Y-135990272D01*
X204112266Y-135990272D01*
X204500646Y-135913018D01*
X204866492Y-135761480D01*
X205195745Y-135541480D01*
X205475752Y-135261473D01*
X205695752Y-134932220D01*
X205847290Y-134566374D01*
X205924544Y-134177994D01*
X205924544Y-133782004D01*
X205847290Y-133393624D01*
X205695752Y-133027778D01*
X205475752Y-132698525D01*
X205195745Y-132418518D01*
X204866492Y-132198518D01*
X204500646Y-132046980D01*
X204112266Y-131969726D01*
X203716276Y-131969726D01*
X203327896Y-132046980D01*
X202962050Y-132198518D01*
X202632797Y-132418518D01*
X202352790Y-132698525D01*
X202132790Y-133027778D01*
X201981252Y-133393624D01*
X201903998Y-133782004D01*
X183129999Y-133782004D01*
X183129999Y-118004560D01*
X183132418Y-117980000D01*
X183122764Y-117881983D01*
X183094174Y-117787733D01*
X183047745Y-117700871D01*
X182985263Y-117624736D01*
X182909128Y-117562254D01*
X182822266Y-117515825D01*
X182728016Y-117487235D01*
X182654559Y-117480000D01*
X182629999Y-117477581D01*
X182605439Y-117480000D01*
X162654560Y-117480000D01*
X162630000Y-117477581D01*
X162605440Y-117480000D01*
X162531983Y-117487235D01*
X162437733Y-117515825D01*
X162350871Y-117562254D01*
X162274736Y-117624736D01*
X162212254Y-117700871D01*
X162165825Y-117787733D01*
X162137235Y-117881983D01*
X162127581Y-117980000D01*
X162130000Y-118004560D01*
X162130000Y-141202900D01*
X162121401Y-141190030D01*
X162009970Y-141078599D01*
X161878942Y-140991049D01*
X161733351Y-140930743D01*
X161578793Y-140900000D01*
X161421207Y-140900000D01*
X161266649Y-140930743D01*
X161121058Y-140991049D01*
X161032831Y-141050000D01*
X157596585Y-141050000D01*
X157854800Y-140877466D01*
X158134807Y-140597459D01*
X158354807Y-140268206D01*
X158506345Y-139902360D01*
X158583599Y-139513980D01*
X158583599Y-139117990D01*
X158506345Y-138729610D01*
X158354807Y-138363764D01*
X158134807Y-138034511D01*
X157854800Y-137754504D01*
X157525547Y-137534504D01*
X157159701Y-137382966D01*
X156771321Y-137305712D01*
X156375331Y-137305712D01*
X155986951Y-137382966D01*
X155621105Y-137534504D01*
X155291852Y-137754504D01*
X155011845Y-138034511D01*
X154791845Y-138363764D01*
X154640307Y-138729610D01*
X154563053Y-139117990D01*
X154563053Y-139513980D01*
X154640307Y-139902360D01*
X154791845Y-140268206D01*
X155011845Y-140597459D01*
X155291852Y-140877466D01*
X155550067Y-141050000D01*
X150367169Y-141050000D01*
X150278942Y-140991049D01*
X150133351Y-140930743D01*
X149978793Y-140900000D01*
X149821207Y-140900000D01*
X149666649Y-140930743D01*
X149521058Y-140991049D01*
X149390030Y-141078599D01*
X149278599Y-141190030D01*
X149191049Y-141321058D01*
X149130743Y-141466649D01*
X149100000Y-141621207D01*
X149100000Y-141778793D01*
X149130743Y-141933351D01*
X149191049Y-142078942D01*
X149278599Y-142209970D01*
X149390030Y-142321401D01*
X149521058Y-142408951D01*
X149666649Y-142469257D01*
X149821207Y-142500000D01*
X149978793Y-142500000D01*
X150133351Y-142469257D01*
X150278942Y-142408951D01*
X150367169Y-142350000D01*
X161032831Y-142350000D01*
X161121058Y-142408951D01*
X161266649Y-142469257D01*
X161421207Y-142500000D01*
X161578793Y-142500000D01*
X161733351Y-142469257D01*
X161878942Y-142408951D01*
X162009970Y-142321401D01*
X162121401Y-142209970D01*
X162130000Y-142197100D01*
X162130001Y-154952750D01*
X162002432Y-154848057D01*
X161846081Y-154764486D01*
X161676431Y-154713023D01*
X161544207Y-154700000D01*
X161500000Y-154695646D01*
X161455794Y-154700000D01*
X154892338Y-154700000D01*
X155009970Y-154621401D01*
X155121401Y-154509970D01*
X155208951Y-154378942D01*
X155269257Y-154233351D01*
X155300000Y-154078793D01*
X155300000Y-153921207D01*
X155269257Y-153766649D01*
X155208951Y-153621058D01*
X155121401Y-153490030D01*
X155050000Y-153418629D01*
X155050000Y-149681371D01*
X155121401Y-149609970D01*
X155208951Y-149478942D01*
X155269257Y-149333351D01*
X155300000Y-149178793D01*
X155300000Y-149021207D01*
X155269257Y-148866649D01*
X155208951Y-148721058D01*
X155121401Y-148590030D01*
X155009970Y-148478599D01*
X154878942Y-148391049D01*
X154733351Y-148330743D01*
X154578793Y-148300000D01*
X154421207Y-148300000D01*
X154266649Y-148330743D01*
X154182755Y-148365493D01*
X154200000Y-148278793D01*
X154200000Y-148121207D01*
X154169257Y-147966649D01*
X154108951Y-147821058D01*
X154021401Y-147690030D01*
X153909970Y-147578599D01*
X153778942Y-147491049D01*
X153633351Y-147430743D01*
X153478793Y-147400000D01*
X153321207Y-147400000D01*
X153166649Y-147430743D01*
X153021058Y-147491049D01*
X152890030Y-147578599D01*
X152778599Y-147690030D01*
X152691049Y-147821058D01*
X152630743Y-147966649D01*
X152600000Y-148121207D01*
X152600000Y-148278793D01*
X152630743Y-148433351D01*
X152691049Y-148578942D01*
X152778599Y-148709970D01*
X152850001Y-148781372D01*
X152850000Y-153918629D01*
X152778599Y-153990030D01*
X152691049Y-154121058D01*
X152630743Y-154266649D01*
X152600000Y-154421207D01*
X152600000Y-154578793D01*
X152624109Y-154700000D01*
X140519238Y-154700000D01*
X137382200Y-151562962D01*
X137361843Y-151538157D01*
X137262868Y-151456930D01*
X137149948Y-151396573D01*
X137027422Y-151359405D01*
X136931932Y-151350000D01*
X136931921Y-151350000D01*
X136900000Y-151346856D01*
X136868079Y-151350000D01*
X113769239Y-151350000D01*
X109769908Y-147350669D01*
X113243926Y-147350669D01*
X113243926Y-147746659D01*
X113321180Y-148135039D01*
X113472718Y-148500885D01*
X113692718Y-148830138D01*
X113972725Y-149110145D01*
X114301978Y-149330145D01*
X114667824Y-149481683D01*
X115056204Y-149558937D01*
X115452194Y-149558937D01*
X115840574Y-149481683D01*
X116206420Y-149330145D01*
X116535673Y-149110145D01*
X116815680Y-148830138D01*
X117035680Y-148500885D01*
X117187218Y-148135039D01*
X117232548Y-147907149D01*
X147239372Y-147907149D01*
X147239372Y-148303139D01*
X147316626Y-148691519D01*
X147468164Y-149057365D01*
X147688164Y-149386618D01*
X147968171Y-149666625D01*
X148297424Y-149886625D01*
X148663270Y-150038163D01*
X149051650Y-150115417D01*
X149447640Y-150115417D01*
X149836020Y-150038163D01*
X150201866Y-149886625D01*
X150531119Y-149666625D01*
X150811126Y-149386618D01*
X151031126Y-149057365D01*
X151182664Y-148691519D01*
X151259918Y-148303139D01*
X151259918Y-147907149D01*
X151182664Y-147518769D01*
X151031126Y-147152923D01*
X150811126Y-146823670D01*
X150531119Y-146543663D01*
X150201866Y-146323663D01*
X149836020Y-146172125D01*
X149447640Y-146094871D01*
X149051650Y-146094871D01*
X148663270Y-146172125D01*
X148297424Y-146323663D01*
X147968171Y-146543663D01*
X147688164Y-146823670D01*
X147468164Y-147152923D01*
X147316626Y-147518769D01*
X147239372Y-147907149D01*
X117232548Y-147907149D01*
X117264472Y-147746659D01*
X117264472Y-147350669D01*
X117187218Y-146962289D01*
X117035680Y-146596443D01*
X116815680Y-146267190D01*
X116535673Y-145987183D01*
X116206420Y-145767183D01*
X115840574Y-145615645D01*
X115452194Y-145538391D01*
X115056204Y-145538391D01*
X114667824Y-145615645D01*
X114301978Y-145767183D01*
X113972725Y-145987183D01*
X113692718Y-146267190D01*
X113472718Y-146596443D01*
X113321180Y-146962289D01*
X113243926Y-147350669D01*
X109769908Y-147350669D01*
X100745756Y-138326517D01*
X106211835Y-138326517D01*
X106211835Y-138722507D01*
X106289089Y-139110887D01*
X106440627Y-139476733D01*
X106660627Y-139805986D01*
X106940634Y-140085993D01*
X107269887Y-140305993D01*
X107635733Y-140457531D01*
X108024113Y-140534785D01*
X108420103Y-140534785D01*
X108808483Y-140457531D01*
X109174329Y-140305993D01*
X109503582Y-140085993D01*
X109783589Y-139805986D01*
X110003589Y-139476733D01*
X110155127Y-139110887D01*
X110232381Y-138722507D01*
X110232381Y-138326517D01*
X110155127Y-137938137D01*
X110003589Y-137572291D01*
X109783589Y-137243038D01*
X109503582Y-136963031D01*
X109174329Y-136743031D01*
X108808483Y-136591493D01*
X108420103Y-136514239D01*
X108024113Y-136514239D01*
X107635733Y-136591493D01*
X107269887Y-136743031D01*
X106940634Y-136963031D01*
X106660627Y-137243038D01*
X106440627Y-137572291D01*
X106289089Y-137938137D01*
X106211835Y-138326517D01*
X100745756Y-138326517D01*
X91482203Y-129062965D01*
X91482198Y-129062959D01*
X86951243Y-124532004D01*
X130619728Y-124532004D01*
X130619728Y-124927994D01*
X130696982Y-125316374D01*
X130848520Y-125682220D01*
X131068520Y-126011473D01*
X131348527Y-126291480D01*
X131677780Y-126511480D01*
X132043626Y-126663018D01*
X132432006Y-126740272D01*
X132827996Y-126740272D01*
X133216376Y-126663018D01*
X133582222Y-126511480D01*
X133911475Y-126291480D01*
X134191482Y-126011473D01*
X134411482Y-125682220D01*
X134563020Y-125316374D01*
X134640274Y-124927994D01*
X134640274Y-124532004D01*
X134563020Y-124143624D01*
X134411482Y-123777778D01*
X134191482Y-123448525D01*
X133911475Y-123168518D01*
X133582222Y-122948518D01*
X133216376Y-122796980D01*
X132827996Y-122719726D01*
X132432006Y-122719726D01*
X132043626Y-122796980D01*
X131677780Y-122948518D01*
X131348527Y-123168518D01*
X131068520Y-123448525D01*
X130848520Y-123777778D01*
X130696982Y-124143624D01*
X130619728Y-124532004D01*
X86951243Y-124532004D01*
X85882203Y-123462965D01*
X85882198Y-123462959D01*
X84201244Y-121782005D01*
X156619727Y-121782005D01*
X156619727Y-122177995D01*
X156696981Y-122566375D01*
X156848519Y-122932221D01*
X157068519Y-123261474D01*
X157348526Y-123541481D01*
X157677779Y-123761481D01*
X158043625Y-123913019D01*
X158432005Y-123990273D01*
X158827995Y-123990273D01*
X159216375Y-123913019D01*
X159582221Y-123761481D01*
X159911474Y-123541481D01*
X160191481Y-123261474D01*
X160411481Y-122932221D01*
X160563019Y-122566375D01*
X160640273Y-122177995D01*
X160640273Y-121782005D01*
X160563019Y-121393625D01*
X160411481Y-121027779D01*
X160191481Y-120698526D01*
X159911474Y-120418519D01*
X159582221Y-120198519D01*
X159216375Y-120046981D01*
X158827995Y-119969727D01*
X158432005Y-119969727D01*
X158043625Y-120046981D01*
X157677779Y-120198519D01*
X157348526Y-120418519D01*
X157068519Y-120698526D01*
X156848519Y-121027779D01*
X156696981Y-121393625D01*
X156619727Y-121782005D01*
X84201244Y-121782005D01*
X83150000Y-120730762D01*
X83150000Y-118467169D01*
X83208951Y-118378942D01*
X83269257Y-118233351D01*
X83300000Y-118078793D01*
X83300000Y-117921207D01*
X83269257Y-117766649D01*
X83208951Y-117621058D01*
X83121401Y-117490030D01*
X83009970Y-117378599D01*
X82878942Y-117291049D01*
X82733351Y-117230743D01*
X82578793Y-117200000D01*
X82421207Y-117200000D01*
X82266649Y-117230743D01*
X82121058Y-117291049D01*
X81990030Y-117378599D01*
X81878599Y-117490030D01*
X81791049Y-117621058D01*
X81730743Y-117766649D01*
X81700000Y-117921207D01*
X81700000Y-118078793D01*
X81730743Y-118233351D01*
X81791049Y-118378942D01*
X81850001Y-118467170D01*
X81850000Y-120968078D01*
X81846856Y-121000000D01*
X81850000Y-121031921D01*
X81850000Y-121031931D01*
X81859405Y-121127421D01*
X81883542Y-121206990D01*
X81896573Y-121249947D01*
X81956930Y-121362868D01*
X81969696Y-121378423D01*
X82038157Y-121461843D01*
X82062962Y-121482200D01*
X84962959Y-124382198D01*
X84962965Y-124382203D01*
X90562959Y-129982198D01*
X90562965Y-129982203D01*
X113017804Y-152437043D01*
X113038157Y-152461843D01*
X113062957Y-152482196D01*
X113062959Y-152482198D01*
X113115836Y-152525593D01*
X113137132Y-152543070D01*
X113250052Y-152603427D01*
X113372578Y-152640595D01*
X113468068Y-152650000D01*
X113468078Y-152650000D01*
X113499999Y-152653144D01*
X113531920Y-152650000D01*
X136630762Y-152650000D01*
X139597272Y-155616510D01*
X139613023Y-155776431D01*
X139664486Y-155946081D01*
X139748057Y-156102432D01*
X139860525Y-156239475D01*
X139997568Y-156351943D01*
X140153919Y-156435514D01*
X140323569Y-156486977D01*
X140455793Y-156500000D01*
X160600000Y-156500000D01*
X160600000Y-156644206D01*
X160613023Y-156776430D01*
X160664486Y-156946080D01*
X160748057Y-157102431D01*
X160860525Y-157239475D01*
X160997568Y-157351943D01*
X161153919Y-157435514D01*
X161323569Y-157486977D01*
X161500000Y-157504354D01*
X161676430Y-157486977D01*
X161846080Y-157435514D01*
X162002431Y-157351943D01*
X162130001Y-157247250D01*
X162130001Y-168305998D01*
X161977851Y-168305998D01*
X162087909Y-168081089D01*
X161986935Y-167813700D01*
X161835736Y-167571148D01*
X161640122Y-167362754D01*
X161407611Y-167196527D01*
X161147139Y-167078854D01*
X161058910Y-167052097D01*
X160834000Y-167163111D01*
X160834000Y-168306000D01*
X160854000Y-168306000D01*
X160854000Y-168614000D01*
X160834000Y-168614000D01*
X160834000Y-168634000D01*
X160526000Y-168634000D01*
X160526000Y-168614000D01*
X160506000Y-168614000D01*
X160506000Y-168306000D01*
X160526000Y-168306000D01*
X160526000Y-167163111D01*
X160301090Y-167052097D01*
X160212861Y-167078854D01*
X159952389Y-167196527D01*
X159719878Y-167362754D01*
X159524264Y-167571148D01*
X159373065Y-167813700D01*
X159302588Y-168000330D01*
X159247735Y-167867903D01*
X159110938Y-167663172D01*
X158936828Y-167489062D01*
X158732097Y-167352265D01*
X158504611Y-167258037D01*
X158263114Y-167210000D01*
X158016886Y-167210000D01*
X157775389Y-167258037D01*
X157547903Y-167352265D01*
X157450000Y-167417682D01*
X157450000Y-166861472D01*
X157509970Y-166821401D01*
X157621401Y-166709970D01*
X157708951Y-166578942D01*
X157769257Y-166433351D01*
X157800000Y-166278793D01*
X157800000Y-166121207D01*
X157769257Y-165966649D01*
X157708951Y-165821058D01*
X157621401Y-165690030D01*
X157509970Y-165578599D01*
X157378942Y-165491049D01*
X157233351Y-165430743D01*
X157078793Y-165400000D01*
X156921207Y-165400000D01*
X156766649Y-165430743D01*
X156621058Y-165491049D01*
X156490030Y-165578599D01*
X156378599Y-165690030D01*
X156291049Y-165821058D01*
X156250000Y-165920159D01*
X156250000Y-162867169D01*
X156308951Y-162778942D01*
X156369257Y-162633351D01*
X156400000Y-162478793D01*
X156400000Y-162321207D01*
X156369257Y-162166649D01*
X156308951Y-162021058D01*
X156221401Y-161890030D01*
X156109970Y-161778599D01*
X155978942Y-161691049D01*
X155833351Y-161630743D01*
X155678793Y-161600000D01*
X155521207Y-161600000D01*
X155366649Y-161630743D01*
X155221058Y-161691049D01*
X155090030Y-161778599D01*
X154978599Y-161890030D01*
X154891049Y-162021058D01*
X154830743Y-162166649D01*
X154800000Y-162321207D01*
X154800000Y-162478793D01*
X154830743Y-162633351D01*
X154891049Y-162778942D01*
X154950001Y-162867170D01*
X154950000Y-167390954D01*
X154803172Y-167489062D01*
X154650000Y-167642234D01*
X154650000Y-159881371D01*
X154721401Y-159809970D01*
X154808951Y-159678942D01*
X154869257Y-159533351D01*
X154900000Y-159378793D01*
X154900000Y-159221207D01*
X154869257Y-159066649D01*
X154808951Y-158921058D01*
X154721401Y-158790030D01*
X154609970Y-158678599D01*
X154478942Y-158591049D01*
X154333351Y-158530743D01*
X154178793Y-158500000D01*
X154021207Y-158500000D01*
X153996749Y-158504865D01*
X153969257Y-158366649D01*
X153908951Y-158221058D01*
X153821401Y-158090030D01*
X153709970Y-157978599D01*
X153578942Y-157891049D01*
X153433351Y-157830743D01*
X153278793Y-157800000D01*
X153200000Y-157800000D01*
X153200000Y-157721207D01*
X153169257Y-157566649D01*
X153108951Y-157421058D01*
X153021401Y-157290030D01*
X152909970Y-157178599D01*
X152778942Y-157091049D01*
X152633351Y-157030743D01*
X152478793Y-157000000D01*
X152321207Y-157000000D01*
X152166649Y-157030743D01*
X152021058Y-157091049D01*
X151890030Y-157178599D01*
X151778599Y-157290030D01*
X151691049Y-157421058D01*
X151630743Y-157566649D01*
X151600000Y-157721207D01*
X151600000Y-157878793D01*
X151630743Y-158033351D01*
X151691049Y-158178942D01*
X151778599Y-158309970D01*
X151850000Y-158381371D01*
X151850001Y-159482183D01*
X143782185Y-167550000D01*
X139927007Y-167550000D01*
X139899999Y-167547340D01*
X139872991Y-167550000D01*
X139872982Y-167550000D01*
X139792181Y-167557958D01*
X139688506Y-167589408D01*
X139592958Y-167640479D01*
X139592956Y-167640480D01*
X139592957Y-167640480D01*
X139530195Y-167691987D01*
X139530190Y-167691992D01*
X139509210Y-167709210D01*
X139491992Y-167730190D01*
X138348196Y-168873987D01*
X138327210Y-168891210D01*
X138258479Y-168974958D01*
X138207408Y-169070507D01*
X138175958Y-169174182D01*
X138168000Y-169254983D01*
X138168000Y-169254992D01*
X138165340Y-169282000D01*
X138168000Y-169309008D01*
X138168000Y-169961828D01*
X138125903Y-169979265D01*
X137921172Y-170116062D01*
X137747062Y-170290172D01*
X137610265Y-170494903D01*
X137516037Y-170722389D01*
X137468000Y-170963886D01*
X137468000Y-171210114D01*
X137516037Y-171451611D01*
X137610265Y-171679097D01*
X137747062Y-171883828D01*
X137921172Y-172057938D01*
X138125903Y-172194735D01*
X138353389Y-172288963D01*
X138594886Y-172337000D01*
X138841114Y-172337000D01*
X139082611Y-172288963D01*
X139310097Y-172194735D01*
X139514828Y-172057938D01*
X139688938Y-171883828D01*
X139825735Y-171679097D01*
X139919963Y-171451611D01*
X139968000Y-171210114D01*
X139968000Y-170963886D01*
X139919963Y-170722389D01*
X139825735Y-170494903D01*
X139688938Y-170290172D01*
X139514828Y-170116062D01*
X139310097Y-169979265D01*
X139268000Y-169961828D01*
X139268000Y-169509817D01*
X140127818Y-168650000D01*
X143872183Y-168650000D01*
X143772183Y-168750000D01*
X141827011Y-168750000D01*
X141800000Y-168747340D01*
X141772989Y-168750000D01*
X141772982Y-168750000D01*
X141692181Y-168757958D01*
X141588505Y-168789408D01*
X141526634Y-168822479D01*
X141492958Y-168840479D01*
X141409210Y-168909210D01*
X141391987Y-168930196D01*
X140888196Y-169433987D01*
X140867210Y-169451210D01*
X140798479Y-169534958D01*
X140747408Y-169630507D01*
X140715958Y-169734182D01*
X140708000Y-169814983D01*
X140708000Y-169814992D01*
X140705340Y-169842000D01*
X140708000Y-169869008D01*
X140708000Y-169961828D01*
X140665903Y-169979265D01*
X140461172Y-170116062D01*
X140287062Y-170290172D01*
X140150265Y-170494903D01*
X140056037Y-170722389D01*
X140008000Y-170963886D01*
X140008000Y-171210114D01*
X140056037Y-171451611D01*
X140150265Y-171679097D01*
X140287062Y-171883828D01*
X140461172Y-172057938D01*
X140665903Y-172194735D01*
X140893389Y-172288963D01*
X141134886Y-172337000D01*
X141381114Y-172337000D01*
X141622611Y-172288963D01*
X141850097Y-172194735D01*
X142054828Y-172057938D01*
X142228938Y-171883828D01*
X142365735Y-171679097D01*
X142459963Y-171451611D01*
X142508000Y-171210114D01*
X142508000Y-170963886D01*
X142459963Y-170722389D01*
X142365735Y-170494903D01*
X142228938Y-170290172D01*
X142054828Y-170116062D01*
X141879144Y-169998673D01*
X142027817Y-169850000D01*
X142845811Y-169850000D01*
X142794186Y-169865660D01*
X142724697Y-169902803D01*
X142663789Y-169952789D01*
X142613803Y-170013697D01*
X142576660Y-170083186D01*
X142553788Y-170158586D01*
X142546065Y-170237000D01*
X142546065Y-171937000D01*
X142553788Y-172015414D01*
X142576660Y-172090814D01*
X142613803Y-172160303D01*
X142663789Y-172221211D01*
X142724697Y-172271197D01*
X142794186Y-172308340D01*
X142869586Y-172331212D01*
X142948000Y-172338935D01*
X144648000Y-172338935D01*
X144726414Y-172331212D01*
X144801814Y-172308340D01*
X144871303Y-172271197D01*
X144932211Y-172221211D01*
X144982197Y-172160303D01*
X145019340Y-172090814D01*
X145042212Y-172015414D01*
X145049935Y-171937000D01*
X145049935Y-170237000D01*
X145042212Y-170158586D01*
X145019340Y-170083186D01*
X144982197Y-170013697D01*
X144932211Y-169952789D01*
X144871303Y-169902803D01*
X144801814Y-169865660D01*
X144726414Y-169842788D01*
X144648000Y-169835065D01*
X144130819Y-169835065D01*
X144211494Y-169810592D01*
X144307042Y-169759521D01*
X144390790Y-169690790D01*
X144408013Y-169669804D01*
X153550000Y-160527817D01*
X153550001Y-170237639D01*
X153421058Y-170291049D01*
X153290030Y-170378599D01*
X153178599Y-170490030D01*
X153091049Y-170621058D01*
X153030743Y-170766649D01*
X153000000Y-170921207D01*
X153000000Y-171078793D01*
X153030743Y-171233351D01*
X153091049Y-171378942D01*
X153178599Y-171509970D01*
X153290030Y-171621401D01*
X153421058Y-171708951D01*
X153566649Y-171769257D01*
X153721207Y-171800000D01*
X153878793Y-171800000D01*
X154033351Y-171769257D01*
X154178942Y-171708951D01*
X154309970Y-171621401D01*
X154348065Y-171583306D01*
X154348065Y-171850000D01*
X154355788Y-171928414D01*
X154378660Y-172003814D01*
X154415803Y-172073303D01*
X154465789Y-172134211D01*
X154526697Y-172184197D01*
X154596186Y-172221340D01*
X154671586Y-172244212D01*
X154750000Y-172251935D01*
X156450000Y-172251935D01*
X156528414Y-172244212D01*
X156603814Y-172221340D01*
X156673303Y-172184197D01*
X156734211Y-172134211D01*
X156784197Y-172073303D01*
X156821340Y-172003814D01*
X156844212Y-171928414D01*
X156851935Y-171850000D01*
X156851935Y-170525882D01*
X157157820Y-170219997D01*
X157032265Y-170407903D01*
X156938037Y-170635389D01*
X156890000Y-170876886D01*
X156890000Y-171123114D01*
X156938037Y-171364611D01*
X157032265Y-171592097D01*
X157169062Y-171796828D01*
X157343172Y-171970938D01*
X157547903Y-172107735D01*
X157775389Y-172201963D01*
X158016886Y-172250000D01*
X158263114Y-172250000D01*
X158504611Y-172201963D01*
X158732097Y-172107735D01*
X158936828Y-171970938D01*
X159110938Y-171796828D01*
X159247735Y-171592097D01*
X159341963Y-171364611D01*
X159390000Y-171123114D01*
X159390000Y-170876886D01*
X159341963Y-170635389D01*
X159247735Y-170407903D01*
X159110938Y-170203172D01*
X158936828Y-170029062D01*
X158732097Y-169892265D01*
X158504611Y-169798037D01*
X158263114Y-169750000D01*
X158016886Y-169750000D01*
X157775389Y-169798037D01*
X157547903Y-169892265D01*
X157343172Y-170029062D01*
X157333566Y-170038668D01*
X157359521Y-170007042D01*
X157410592Y-169911494D01*
X157442042Y-169807819D01*
X157450000Y-169727018D01*
X157450000Y-169727011D01*
X157452660Y-169700000D01*
X157450000Y-169672989D01*
X157450000Y-169502318D01*
X157547903Y-169567735D01*
X157775389Y-169661963D01*
X158016886Y-169710000D01*
X158263114Y-169710000D01*
X158504611Y-169661963D01*
X158732097Y-169567735D01*
X158936828Y-169430938D01*
X159110938Y-169256828D01*
X159247735Y-169052097D01*
X159302588Y-168919670D01*
X159373065Y-169106300D01*
X159524264Y-169348852D01*
X159719878Y-169557246D01*
X159952389Y-169723473D01*
X160212121Y-169840812D01*
X160087903Y-169892265D01*
X159883172Y-170029062D01*
X159709062Y-170203172D01*
X159572265Y-170407903D01*
X159478037Y-170635389D01*
X159430000Y-170876886D01*
X159430000Y-171123114D01*
X159478037Y-171364611D01*
X159572265Y-171592097D01*
X159709062Y-171796828D01*
X159883172Y-171970938D01*
X160087903Y-172107735D01*
X160315389Y-172201963D01*
X160556886Y-172250000D01*
X160803114Y-172250000D01*
X161044611Y-172201963D01*
X161272097Y-172107735D01*
X161476828Y-171970938D01*
X161650938Y-171796828D01*
X161787735Y-171592097D01*
X161881963Y-171364611D01*
X161930000Y-171123114D01*
X161930000Y-170876886D01*
X161881963Y-170635389D01*
X161787735Y-170407903D01*
X161650938Y-170203172D01*
X161476828Y-170029062D01*
X161272097Y-169892265D01*
X161147879Y-169840812D01*
X161407611Y-169723473D01*
X161640122Y-169557246D01*
X161835736Y-169348852D01*
X161986935Y-169106300D01*
X162087909Y-168838911D01*
X161977851Y-168614002D01*
X162130001Y-168614002D01*
X162130001Y-172479998D01*
X134066055Y-172479999D01*
X134105139Y-172468146D01*
X134365611Y-172350473D01*
X134598122Y-172184246D01*
X134793736Y-171975852D01*
X134944935Y-171733300D01*
X135015412Y-171546670D01*
X135070265Y-171679097D01*
X135207062Y-171883828D01*
X135381172Y-172057938D01*
X135585903Y-172194735D01*
X135813389Y-172288963D01*
X136054886Y-172337000D01*
X136301114Y-172337000D01*
X136542611Y-172288963D01*
X136770097Y-172194735D01*
X136974828Y-172057938D01*
X137148938Y-171883828D01*
X137285735Y-171679097D01*
X137379963Y-171451611D01*
X137428000Y-171210114D01*
X137428000Y-170963886D01*
X137379963Y-170722389D01*
X137285735Y-170494903D01*
X137148938Y-170290172D01*
X136974828Y-170116062D01*
X136770097Y-169979265D01*
X136728000Y-169961828D01*
X136728000Y-163699817D01*
X137577817Y-162850000D01*
X137678793Y-162850000D01*
X137833351Y-162819257D01*
X137978942Y-162758951D01*
X138109970Y-162671401D01*
X138221401Y-162559970D01*
X138308951Y-162428942D01*
X138369257Y-162283351D01*
X138400000Y-162128793D01*
X138400000Y-161971207D01*
X138369257Y-161816649D01*
X138308951Y-161671058D01*
X138221401Y-161540030D01*
X138109970Y-161428599D01*
X137978942Y-161341049D01*
X137833351Y-161280743D01*
X137678793Y-161250000D01*
X137521207Y-161250000D01*
X137366649Y-161280743D01*
X137221058Y-161341049D01*
X137090030Y-161428599D01*
X136978599Y-161540030D01*
X136891049Y-161671058D01*
X136830743Y-161816649D01*
X136800000Y-161971207D01*
X136800000Y-162072183D01*
X135808196Y-163063987D01*
X135787210Y-163081210D01*
X135718479Y-163164958D01*
X135667408Y-163260507D01*
X135635958Y-163364182D01*
X135628000Y-163444983D01*
X135628000Y-163444992D01*
X135625340Y-163472000D01*
X135628000Y-163499008D01*
X135628001Y-169961827D01*
X135585903Y-169979265D01*
X135381172Y-170116062D01*
X135207062Y-170290172D01*
X135070265Y-170494903D01*
X135015412Y-170627330D01*
X134944935Y-170440700D01*
X134793736Y-170198148D01*
X134598122Y-169989754D01*
X134365611Y-169823527D01*
X134105139Y-169705854D01*
X134016910Y-169679097D01*
X133792000Y-169790111D01*
X133792000Y-170933000D01*
X133812000Y-170933000D01*
X133812000Y-171241000D01*
X133792000Y-171241000D01*
X133792000Y-171261000D01*
X133484000Y-171261000D01*
X133484000Y-171241000D01*
X131252000Y-171241000D01*
X131252000Y-171261000D01*
X130944000Y-171261000D01*
X130944000Y-171241000D01*
X129800150Y-171241000D01*
X129690091Y-171465911D01*
X129791065Y-171733300D01*
X129942264Y-171975852D01*
X130137878Y-172184246D01*
X130370389Y-172350473D01*
X130630861Y-172468146D01*
X130669945Y-172479999D01*
X97837108Y-172480000D01*
X94139112Y-168782004D01*
X97276582Y-168782004D01*
X97276582Y-169177994D01*
X97353836Y-169566374D01*
X97505374Y-169932220D01*
X97725374Y-170261473D01*
X98005381Y-170541480D01*
X98334634Y-170761480D01*
X98700480Y-170913018D01*
X99088860Y-170990272D01*
X99484850Y-170990272D01*
X99873230Y-170913018D01*
X100239076Y-170761480D01*
X100318981Y-170708089D01*
X129690091Y-170708089D01*
X129800150Y-170933000D01*
X130944000Y-170933000D01*
X130944000Y-169790111D01*
X131252000Y-169790111D01*
X131252000Y-170933000D01*
X133484000Y-170933000D01*
X133484000Y-169790111D01*
X133259090Y-169679097D01*
X133170861Y-169705854D01*
X132910389Y-169823527D01*
X132677878Y-169989754D01*
X132482264Y-170198148D01*
X132368000Y-170381449D01*
X132253736Y-170198148D01*
X132058122Y-169989754D01*
X131825611Y-169823527D01*
X131565139Y-169705854D01*
X131476910Y-169679097D01*
X131252000Y-169790111D01*
X130944000Y-169790111D01*
X130719090Y-169679097D01*
X130630861Y-169705854D01*
X130370389Y-169823527D01*
X130137878Y-169989754D01*
X129942264Y-170198148D01*
X129791065Y-170440700D01*
X129690091Y-170708089D01*
X100318981Y-170708089D01*
X100568329Y-170541480D01*
X100848336Y-170261473D01*
X101068336Y-169932220D01*
X101219874Y-169566374D01*
X101297128Y-169177994D01*
X101297128Y-168782004D01*
X101219874Y-168393624D01*
X101068336Y-168027778D01*
X100848336Y-167698525D01*
X100568329Y-167418518D01*
X100239076Y-167198518D01*
X99873230Y-167046980D01*
X99484850Y-166969726D01*
X99088860Y-166969726D01*
X98700480Y-167046980D01*
X98334634Y-167198518D01*
X98005381Y-167418518D01*
X97725374Y-167698525D01*
X97505374Y-168027778D01*
X97353836Y-168393624D01*
X97276582Y-168782004D01*
X94139112Y-168782004D01*
X88130001Y-162772894D01*
X88130001Y-161125149D01*
X89619727Y-161125149D01*
X89619727Y-161521139D01*
X89696981Y-161909519D01*
X89848519Y-162275365D01*
X90068519Y-162604618D01*
X90348526Y-162884625D01*
X90677779Y-163104625D01*
X91043625Y-163256163D01*
X91432005Y-163333417D01*
X91827995Y-163333417D01*
X92216375Y-163256163D01*
X92582221Y-163104625D01*
X92911474Y-162884625D01*
X93191481Y-162604618D01*
X93411481Y-162275365D01*
X93563019Y-161909519D01*
X93640273Y-161521139D01*
X93640273Y-161125149D01*
X93563019Y-160736769D01*
X93411481Y-160370923D01*
X93191481Y-160041670D01*
X92911474Y-159761663D01*
X92804223Y-159690000D01*
X130836058Y-159690000D01*
X130839000Y-159834000D01*
X130877474Y-159872474D01*
X130865832Y-159903353D01*
X130852139Y-159985998D01*
X130839000Y-159985998D01*
X130839000Y-160065298D01*
X130836596Y-160079807D01*
X130839000Y-160154548D01*
X130839000Y-160294002D01*
X130850585Y-160294002D01*
X130877079Y-160407921D01*
X130839000Y-160446000D01*
X130836058Y-160590000D01*
X130847797Y-160709189D01*
X130882563Y-160823797D01*
X130939020Y-160929421D01*
X131014999Y-161022001D01*
X131107579Y-161097980D01*
X131213203Y-161154437D01*
X131327811Y-161189203D01*
X131447000Y-161200942D01*
X131941000Y-161198000D01*
X132093000Y-161046000D01*
X132093000Y-160982097D01*
X132151008Y-160958070D01*
X132159651Y-160842287D01*
X132211078Y-160893714D01*
X132247000Y-160857792D01*
X132282922Y-160893714D01*
X132334349Y-160842287D01*
X132342992Y-160958070D01*
X132401000Y-160979940D01*
X132401000Y-161046000D01*
X132553000Y-161198000D01*
X133047000Y-161200942D01*
X133166189Y-161189203D01*
X133280797Y-161154437D01*
X133386421Y-161097980D01*
X133479001Y-161022001D01*
X133554980Y-160929421D01*
X133611437Y-160823797D01*
X133646203Y-160709189D01*
X133657942Y-160590000D01*
X133655000Y-160446000D01*
X133616526Y-160407526D01*
X133628168Y-160376647D01*
X133641861Y-160294002D01*
X133655000Y-160294002D01*
X133655000Y-160214702D01*
X133657404Y-160200193D01*
X133655000Y-160125452D01*
X133655000Y-159985998D01*
X133643415Y-159985998D01*
X133616921Y-159872079D01*
X133655000Y-159834000D01*
X133657942Y-159690000D01*
X133651167Y-159621207D01*
X142600000Y-159621207D01*
X142600000Y-159778793D01*
X142630743Y-159933351D01*
X142691049Y-160078942D01*
X142778599Y-160209970D01*
X142890030Y-160321401D01*
X143021058Y-160408951D01*
X143166649Y-160469257D01*
X143321207Y-160500000D01*
X143478793Y-160500000D01*
X143633351Y-160469257D01*
X143778942Y-160408951D01*
X143909970Y-160321401D01*
X144021401Y-160209970D01*
X144108951Y-160078942D01*
X144169257Y-159933351D01*
X144200000Y-159778793D01*
X144200000Y-159621207D01*
X144192801Y-159585016D01*
X145377818Y-158400000D01*
X145478793Y-158400000D01*
X145633351Y-158369257D01*
X145778942Y-158308951D01*
X145909970Y-158221401D01*
X146021401Y-158109970D01*
X146108951Y-157978942D01*
X146169257Y-157833351D01*
X146200000Y-157678793D01*
X146200000Y-157521207D01*
X146169257Y-157366649D01*
X146108951Y-157221058D01*
X146021401Y-157090030D01*
X145909970Y-156978599D01*
X145778942Y-156891049D01*
X145633351Y-156830743D01*
X145478793Y-156800000D01*
X145321207Y-156800000D01*
X145166649Y-156830743D01*
X145021058Y-156891049D01*
X144890030Y-156978599D01*
X144778599Y-157090030D01*
X144691049Y-157221058D01*
X144630743Y-157366649D01*
X144600000Y-157521207D01*
X144600000Y-157622182D01*
X143322183Y-158900000D01*
X143321207Y-158900000D01*
X143166649Y-158930743D01*
X143021058Y-158991049D01*
X142890030Y-159078599D01*
X142778599Y-159190030D01*
X142691049Y-159321058D01*
X142630743Y-159466649D01*
X142600000Y-159621207D01*
X133651167Y-159621207D01*
X133646203Y-159570811D01*
X133611437Y-159456203D01*
X133554980Y-159350579D01*
X133479001Y-159257999D01*
X133386421Y-159182020D01*
X133280797Y-159125563D01*
X133166189Y-159090797D01*
X133047000Y-159079058D01*
X132553000Y-159082000D01*
X132401000Y-159234000D01*
X132401000Y-159297903D01*
X132342992Y-159321930D01*
X132334349Y-159437713D01*
X132282922Y-159386286D01*
X132247000Y-159422208D01*
X132211078Y-159386286D01*
X132159651Y-159437713D01*
X132151008Y-159321930D01*
X132093000Y-159300060D01*
X132093000Y-159234000D01*
X131941000Y-159082000D01*
X131447000Y-159079058D01*
X131327811Y-159090797D01*
X131213203Y-159125563D01*
X131107579Y-159182020D01*
X131014999Y-159257999D01*
X130939020Y-159350579D01*
X130882563Y-159456203D01*
X130847797Y-159570811D01*
X130836058Y-159690000D01*
X92804223Y-159690000D01*
X92582221Y-159541663D01*
X92216375Y-159390125D01*
X91827995Y-159312871D01*
X91432005Y-159312871D01*
X91043625Y-159390125D01*
X90677779Y-159541663D01*
X90348526Y-159761663D01*
X90068519Y-160041670D01*
X89848519Y-160370923D01*
X89696981Y-160736769D01*
X89619727Y-161125149D01*
X88130001Y-161125149D01*
X88130001Y-155376886D01*
X129710000Y-155376886D01*
X129710000Y-155623114D01*
X129758037Y-155864611D01*
X129852265Y-156092097D01*
X129989062Y-156296828D01*
X130163172Y-156470938D01*
X130367903Y-156607735D01*
X130595389Y-156701963D01*
X130836886Y-156750000D01*
X131083114Y-156750000D01*
X131324611Y-156701963D01*
X131552097Y-156607735D01*
X131756828Y-156470938D01*
X131930938Y-156296828D01*
X132067735Y-156092097D01*
X132161963Y-155864611D01*
X132210000Y-155623114D01*
X132210000Y-155376886D01*
X132161963Y-155135389D01*
X132067735Y-154907903D01*
X131930938Y-154703172D01*
X131877766Y-154650000D01*
X132248065Y-154650000D01*
X132248065Y-156350000D01*
X132255788Y-156428414D01*
X132278660Y-156503814D01*
X132315803Y-156573303D01*
X132365789Y-156634211D01*
X132426697Y-156684197D01*
X132496186Y-156721340D01*
X132571586Y-156744212D01*
X132650000Y-156751935D01*
X134350000Y-156751935D01*
X134428414Y-156744212D01*
X134503814Y-156721340D01*
X134573303Y-156684197D01*
X134634211Y-156634211D01*
X134684197Y-156573303D01*
X134721340Y-156503814D01*
X134744212Y-156428414D01*
X134751935Y-156350000D01*
X134751935Y-154650000D01*
X134744212Y-154571586D01*
X134721340Y-154496186D01*
X134684197Y-154426697D01*
X134634211Y-154365789D01*
X134573303Y-154315803D01*
X134503814Y-154278660D01*
X134428414Y-154255788D01*
X134350000Y-154248065D01*
X132650000Y-154248065D01*
X132571586Y-154255788D01*
X132496186Y-154278660D01*
X132426697Y-154315803D01*
X132365789Y-154365789D01*
X132315803Y-154426697D01*
X132278660Y-154496186D01*
X132255788Y-154571586D01*
X132248065Y-154650000D01*
X131877766Y-154650000D01*
X131756828Y-154529062D01*
X131552097Y-154392265D01*
X131324611Y-154298037D01*
X131083114Y-154250000D01*
X130836886Y-154250000D01*
X130595389Y-154298037D01*
X130367903Y-154392265D01*
X130163172Y-154529062D01*
X129989062Y-154703172D01*
X129852265Y-154907903D01*
X129758037Y-155135389D01*
X129710000Y-155376886D01*
X88130001Y-155376886D01*
X88130000Y-145355597D01*
X90619727Y-145355597D01*
X90619727Y-145751587D01*
X90696981Y-146139967D01*
X90848519Y-146505813D01*
X91068519Y-146835066D01*
X91348526Y-147115073D01*
X91677779Y-147335073D01*
X92043625Y-147486611D01*
X92432005Y-147563865D01*
X92827995Y-147563865D01*
X93216375Y-147486611D01*
X93582221Y-147335073D01*
X93911474Y-147115073D01*
X94191481Y-146835066D01*
X94411481Y-146505813D01*
X94563019Y-146139967D01*
X94640273Y-145751587D01*
X94640273Y-145355597D01*
X94563019Y-144967217D01*
X94411481Y-144601371D01*
X94191481Y-144272118D01*
X93911474Y-143992111D01*
X93582221Y-143772111D01*
X93216375Y-143620573D01*
X92827995Y-143543319D01*
X92432005Y-143543319D01*
X92043625Y-143620573D01*
X91677779Y-143772111D01*
X91348526Y-143992111D01*
X91068519Y-144272118D01*
X90848519Y-144601371D01*
X90696981Y-144967217D01*
X90619727Y-145355597D01*
X88130000Y-145355597D01*
X88129999Y-140578162D01*
X88132419Y-140553592D01*
X88122765Y-140455574D01*
X88094174Y-140361324D01*
X88047745Y-140274463D01*
X88000919Y-140217405D01*
X87985263Y-140198328D01*
X87966186Y-140182672D01*
X77523399Y-129739886D01*
X77523399Y-116011960D01*
X87753356Y-105782004D01*
X96783965Y-105782004D01*
X96783965Y-106177994D01*
X96861219Y-106566374D01*
X97012757Y-106932220D01*
X97232757Y-107261473D01*
X97512764Y-107541480D01*
X97842017Y-107761480D01*
X98207863Y-107913018D01*
X98596243Y-107990272D01*
X98992233Y-107990272D01*
X99380613Y-107913018D01*
X99746459Y-107761480D01*
X100075712Y-107541480D01*
X100355719Y-107261473D01*
X100575719Y-106932220D01*
X100727257Y-106566374D01*
X100804511Y-106177994D01*
X100804511Y-105782004D01*
X100727257Y-105393624D01*
X100575719Y-105027778D01*
X100355719Y-104698525D01*
X100075712Y-104418518D01*
X99746459Y-104198518D01*
X99380613Y-104046980D01*
X98992233Y-103969726D01*
X98596243Y-103969726D01*
X98207863Y-104046980D01*
X97842017Y-104198518D01*
X97512764Y-104418518D01*
X97232757Y-104698525D01*
X97012757Y-105027778D01*
X96861219Y-105393624D01*
X96783965Y-105782004D01*
X87753356Y-105782004D01*
X90055363Y-103479998D01*
X182622647Y-103480000D01*
M02*
