G04 #@! TF.GenerationSoftware,KiCad,Pcbnew,(5.1.5-0-10_14)*
G04 #@! TF.CreationDate,2020-04-05T12:42:30-04:00*
G04 #@! TF.ProjectId,mobo,6d6f626f-2e6b-4696-9361-645f70636258,rev?*
G04 #@! TF.SameCoordinates,Original*
G04 #@! TF.FileFunction,Soldermask,Top*
G04 #@! TF.FilePolarity,Negative*
%FSLAX46Y46*%
G04 Gerber Fmt 4.6, Leading zero omitted, Abs format (unit mm)*
G04 Created by KiCad (PCBNEW (5.1.5-0-10_14)) date 2020-04-05 12:42:30*
%MOMM*%
%LPD*%
G04 APERTURE LIST*
%ADD10C,0.100000*%
G04 APERTURE END LIST*
D10*
G36*
X144699000Y-171988000D02*
G01*
X142897000Y-171988000D01*
X142897000Y-170186000D01*
X144699000Y-170186000D01*
X144699000Y-171988000D01*
G37*
G36*
X141371512Y-170190927D02*
G01*
X141520812Y-170220624D01*
X141684784Y-170288544D01*
X141832354Y-170387147D01*
X141957853Y-170512646D01*
X142056456Y-170660216D01*
X142124376Y-170824188D01*
X142159000Y-170998259D01*
X142159000Y-171175741D01*
X142124376Y-171349812D01*
X142056456Y-171513784D01*
X141957853Y-171661354D01*
X141832354Y-171786853D01*
X141684784Y-171885456D01*
X141520812Y-171953376D01*
X141371512Y-171983073D01*
X141346742Y-171988000D01*
X141169258Y-171988000D01*
X141144488Y-171983073D01*
X140995188Y-171953376D01*
X140831216Y-171885456D01*
X140683646Y-171786853D01*
X140558147Y-171661354D01*
X140459544Y-171513784D01*
X140391624Y-171349812D01*
X140357000Y-171175741D01*
X140357000Y-170998259D01*
X140391624Y-170824188D01*
X140459544Y-170660216D01*
X140558147Y-170512646D01*
X140683646Y-170387147D01*
X140831216Y-170288544D01*
X140995188Y-170220624D01*
X141144488Y-170190927D01*
X141169258Y-170186000D01*
X141346742Y-170186000D01*
X141371512Y-170190927D01*
G37*
G36*
X138831512Y-170190927D02*
G01*
X138980812Y-170220624D01*
X139144784Y-170288544D01*
X139292354Y-170387147D01*
X139417853Y-170512646D01*
X139516456Y-170660216D01*
X139584376Y-170824188D01*
X139619000Y-170998259D01*
X139619000Y-171175741D01*
X139584376Y-171349812D01*
X139516456Y-171513784D01*
X139417853Y-171661354D01*
X139292354Y-171786853D01*
X139144784Y-171885456D01*
X138980812Y-171953376D01*
X138831512Y-171983073D01*
X138806742Y-171988000D01*
X138629258Y-171988000D01*
X138604488Y-171983073D01*
X138455188Y-171953376D01*
X138291216Y-171885456D01*
X138143646Y-171786853D01*
X138018147Y-171661354D01*
X137919544Y-171513784D01*
X137851624Y-171349812D01*
X137817000Y-171175741D01*
X137817000Y-170998259D01*
X137851624Y-170824188D01*
X137919544Y-170660216D01*
X138018147Y-170512646D01*
X138143646Y-170387147D01*
X138291216Y-170288544D01*
X138455188Y-170220624D01*
X138604488Y-170190927D01*
X138629258Y-170186000D01*
X138806742Y-170186000D01*
X138831512Y-170190927D01*
G37*
G36*
X136291512Y-170190927D02*
G01*
X136440812Y-170220624D01*
X136604784Y-170288544D01*
X136752354Y-170387147D01*
X136877853Y-170512646D01*
X136976456Y-170660216D01*
X137044376Y-170824188D01*
X137079000Y-170998259D01*
X137079000Y-171175741D01*
X137044376Y-171349812D01*
X136976456Y-171513784D01*
X136877853Y-171661354D01*
X136752354Y-171786853D01*
X136604784Y-171885456D01*
X136440812Y-171953376D01*
X136291512Y-171983073D01*
X136266742Y-171988000D01*
X136089258Y-171988000D01*
X136064488Y-171983073D01*
X135915188Y-171953376D01*
X135751216Y-171885456D01*
X135603646Y-171786853D01*
X135478147Y-171661354D01*
X135379544Y-171513784D01*
X135311624Y-171349812D01*
X135277000Y-171175741D01*
X135277000Y-170998259D01*
X135311624Y-170824188D01*
X135379544Y-170660216D01*
X135478147Y-170512646D01*
X135603646Y-170387147D01*
X135751216Y-170288544D01*
X135915188Y-170220624D01*
X136064488Y-170190927D01*
X136089258Y-170186000D01*
X136266742Y-170186000D01*
X136291512Y-170190927D01*
G37*
G36*
X133751512Y-170190927D02*
G01*
X133900812Y-170220624D01*
X134064784Y-170288544D01*
X134212354Y-170387147D01*
X134337853Y-170512646D01*
X134436456Y-170660216D01*
X134504376Y-170824188D01*
X134539000Y-170998259D01*
X134539000Y-171175741D01*
X134504376Y-171349812D01*
X134436456Y-171513784D01*
X134337853Y-171661354D01*
X134212354Y-171786853D01*
X134064784Y-171885456D01*
X133900812Y-171953376D01*
X133751512Y-171983073D01*
X133726742Y-171988000D01*
X133549258Y-171988000D01*
X133524488Y-171983073D01*
X133375188Y-171953376D01*
X133211216Y-171885456D01*
X133063646Y-171786853D01*
X132938147Y-171661354D01*
X132839544Y-171513784D01*
X132771624Y-171349812D01*
X132737000Y-171175741D01*
X132737000Y-170998259D01*
X132771624Y-170824188D01*
X132839544Y-170660216D01*
X132938147Y-170512646D01*
X133063646Y-170387147D01*
X133211216Y-170288544D01*
X133375188Y-170220624D01*
X133524488Y-170190927D01*
X133549258Y-170186000D01*
X133726742Y-170186000D01*
X133751512Y-170190927D01*
G37*
G36*
X131211512Y-170190927D02*
G01*
X131360812Y-170220624D01*
X131524784Y-170288544D01*
X131672354Y-170387147D01*
X131797853Y-170512646D01*
X131896456Y-170660216D01*
X131964376Y-170824188D01*
X131999000Y-170998259D01*
X131999000Y-171175741D01*
X131964376Y-171349812D01*
X131896456Y-171513784D01*
X131797853Y-171661354D01*
X131672354Y-171786853D01*
X131524784Y-171885456D01*
X131360812Y-171953376D01*
X131211512Y-171983073D01*
X131186742Y-171988000D01*
X131009258Y-171988000D01*
X130984488Y-171983073D01*
X130835188Y-171953376D01*
X130671216Y-171885456D01*
X130523646Y-171786853D01*
X130398147Y-171661354D01*
X130299544Y-171513784D01*
X130231624Y-171349812D01*
X130197000Y-171175741D01*
X130197000Y-170998259D01*
X130231624Y-170824188D01*
X130299544Y-170660216D01*
X130398147Y-170512646D01*
X130523646Y-170387147D01*
X130671216Y-170288544D01*
X130835188Y-170220624D01*
X130984488Y-170190927D01*
X131009258Y-170186000D01*
X131186742Y-170186000D01*
X131211512Y-170190927D01*
G37*
G36*
X160793512Y-170103927D02*
G01*
X160942812Y-170133624D01*
X161106784Y-170201544D01*
X161254354Y-170300147D01*
X161379853Y-170425646D01*
X161478456Y-170573216D01*
X161546376Y-170737188D01*
X161581000Y-170911259D01*
X161581000Y-171088741D01*
X161546376Y-171262812D01*
X161478456Y-171426784D01*
X161379853Y-171574354D01*
X161254354Y-171699853D01*
X161106784Y-171798456D01*
X160942812Y-171866376D01*
X160793512Y-171896073D01*
X160768742Y-171901000D01*
X160591258Y-171901000D01*
X160566488Y-171896073D01*
X160417188Y-171866376D01*
X160253216Y-171798456D01*
X160105646Y-171699853D01*
X159980147Y-171574354D01*
X159881544Y-171426784D01*
X159813624Y-171262812D01*
X159779000Y-171088741D01*
X159779000Y-170911259D01*
X159813624Y-170737188D01*
X159881544Y-170573216D01*
X159980147Y-170425646D01*
X160105646Y-170300147D01*
X160253216Y-170201544D01*
X160417188Y-170133624D01*
X160566488Y-170103927D01*
X160591258Y-170099000D01*
X160768742Y-170099000D01*
X160793512Y-170103927D01*
G37*
G36*
X158253512Y-170103927D02*
G01*
X158402812Y-170133624D01*
X158566784Y-170201544D01*
X158714354Y-170300147D01*
X158839853Y-170425646D01*
X158938456Y-170573216D01*
X159006376Y-170737188D01*
X159041000Y-170911259D01*
X159041000Y-171088741D01*
X159006376Y-171262812D01*
X158938456Y-171426784D01*
X158839853Y-171574354D01*
X158714354Y-171699853D01*
X158566784Y-171798456D01*
X158402812Y-171866376D01*
X158253512Y-171896073D01*
X158228742Y-171901000D01*
X158051258Y-171901000D01*
X158026488Y-171896073D01*
X157877188Y-171866376D01*
X157713216Y-171798456D01*
X157565646Y-171699853D01*
X157440147Y-171574354D01*
X157341544Y-171426784D01*
X157273624Y-171262812D01*
X157239000Y-171088741D01*
X157239000Y-170911259D01*
X157273624Y-170737188D01*
X157341544Y-170573216D01*
X157440147Y-170425646D01*
X157565646Y-170300147D01*
X157713216Y-170201544D01*
X157877188Y-170133624D01*
X158026488Y-170103927D01*
X158051258Y-170099000D01*
X158228742Y-170099000D01*
X158253512Y-170103927D01*
G37*
G36*
X156501000Y-171901000D02*
G01*
X154699000Y-171901000D01*
X154699000Y-170099000D01*
X156501000Y-170099000D01*
X156501000Y-171901000D01*
G37*
G36*
X153151000Y-171501000D02*
G01*
X151499000Y-171501000D01*
X151499000Y-170399000D01*
X153151000Y-170399000D01*
X153151000Y-171501000D01*
G37*
G36*
X147901000Y-171501000D02*
G01*
X146249000Y-171501000D01*
X146249000Y-170399000D01*
X147901000Y-170399000D01*
X147901000Y-171501000D01*
G37*
G36*
X153151000Y-169801000D02*
G01*
X151499000Y-169801000D01*
X151499000Y-168699000D01*
X153151000Y-168699000D01*
X153151000Y-169801000D01*
G37*
G36*
X147901000Y-169801000D02*
G01*
X146249000Y-169801000D01*
X146249000Y-168699000D01*
X147901000Y-168699000D01*
X147901000Y-169801000D01*
G37*
G36*
X160793512Y-167563927D02*
G01*
X160942812Y-167593624D01*
X161106784Y-167661544D01*
X161254354Y-167760147D01*
X161379853Y-167885646D01*
X161478456Y-168033216D01*
X161546376Y-168197188D01*
X161581000Y-168371259D01*
X161581000Y-168548741D01*
X161546376Y-168722812D01*
X161478456Y-168886784D01*
X161379853Y-169034354D01*
X161254354Y-169159853D01*
X161106784Y-169258456D01*
X160942812Y-169326376D01*
X160793512Y-169356073D01*
X160768742Y-169361000D01*
X160591258Y-169361000D01*
X160566488Y-169356073D01*
X160417188Y-169326376D01*
X160253216Y-169258456D01*
X160105646Y-169159853D01*
X159980147Y-169034354D01*
X159881544Y-168886784D01*
X159813624Y-168722812D01*
X159779000Y-168548741D01*
X159779000Y-168371259D01*
X159813624Y-168197188D01*
X159881544Y-168033216D01*
X159980147Y-167885646D01*
X160105646Y-167760147D01*
X160253216Y-167661544D01*
X160417188Y-167593624D01*
X160566488Y-167563927D01*
X160591258Y-167559000D01*
X160768742Y-167559000D01*
X160793512Y-167563927D01*
G37*
G36*
X158253512Y-167563927D02*
G01*
X158402812Y-167593624D01*
X158566784Y-167661544D01*
X158714354Y-167760147D01*
X158839853Y-167885646D01*
X158938456Y-168033216D01*
X159006376Y-168197188D01*
X159041000Y-168371259D01*
X159041000Y-168548741D01*
X159006376Y-168722812D01*
X158938456Y-168886784D01*
X158839853Y-169034354D01*
X158714354Y-169159853D01*
X158566784Y-169258456D01*
X158402812Y-169326376D01*
X158253512Y-169356073D01*
X158228742Y-169361000D01*
X158051258Y-169361000D01*
X158026488Y-169356073D01*
X157877188Y-169326376D01*
X157713216Y-169258456D01*
X157565646Y-169159853D01*
X157440147Y-169034354D01*
X157341544Y-168886784D01*
X157273624Y-168722812D01*
X157239000Y-168548741D01*
X157239000Y-168371259D01*
X157273624Y-168197188D01*
X157341544Y-168033216D01*
X157440147Y-167885646D01*
X157565646Y-167760147D01*
X157713216Y-167661544D01*
X157877188Y-167593624D01*
X158026488Y-167563927D01*
X158051258Y-167559000D01*
X158228742Y-167559000D01*
X158253512Y-167563927D01*
G37*
G36*
X155713512Y-167563927D02*
G01*
X155862812Y-167593624D01*
X156026784Y-167661544D01*
X156174354Y-167760147D01*
X156299853Y-167885646D01*
X156398456Y-168033216D01*
X156466376Y-168197188D01*
X156501000Y-168371259D01*
X156501000Y-168548741D01*
X156466376Y-168722812D01*
X156398456Y-168886784D01*
X156299853Y-169034354D01*
X156174354Y-169159853D01*
X156026784Y-169258456D01*
X155862812Y-169326376D01*
X155713512Y-169356073D01*
X155688742Y-169361000D01*
X155511258Y-169361000D01*
X155486488Y-169356073D01*
X155337188Y-169326376D01*
X155173216Y-169258456D01*
X155025646Y-169159853D01*
X154900147Y-169034354D01*
X154801544Y-168886784D01*
X154733624Y-168722812D01*
X154699000Y-168548741D01*
X154699000Y-168371259D01*
X154733624Y-168197188D01*
X154801544Y-168033216D01*
X154900147Y-167885646D01*
X155025646Y-167760147D01*
X155173216Y-167661544D01*
X155337188Y-167593624D01*
X155486488Y-167563927D01*
X155511258Y-167559000D01*
X155688742Y-167559000D01*
X155713512Y-167563927D01*
G37*
G36*
X140025674Y-167411465D02*
G01*
X140063367Y-167422899D01*
X140098103Y-167441466D01*
X140128548Y-167466452D01*
X140153534Y-167496897D01*
X140172101Y-167531633D01*
X140183535Y-167569326D01*
X140188000Y-167614661D01*
X140188000Y-168701339D01*
X140183535Y-168746674D01*
X140172101Y-168784367D01*
X140153534Y-168819103D01*
X140128548Y-168849548D01*
X140098103Y-168874534D01*
X140063367Y-168893101D01*
X140025674Y-168904535D01*
X139980339Y-168909000D01*
X139143661Y-168909000D01*
X139098326Y-168904535D01*
X139060633Y-168893101D01*
X139025897Y-168874534D01*
X138995452Y-168849548D01*
X138970466Y-168819103D01*
X138951899Y-168784367D01*
X138940465Y-168746674D01*
X138936000Y-168701339D01*
X138936000Y-167614661D01*
X138940465Y-167569326D01*
X138951899Y-167531633D01*
X138970466Y-167496897D01*
X138995452Y-167466452D01*
X139025897Y-167441466D01*
X139060633Y-167422899D01*
X139098326Y-167411465D01*
X139143661Y-167407000D01*
X139980339Y-167407000D01*
X140025674Y-167411465D01*
G37*
G36*
X137975674Y-167411465D02*
G01*
X138013367Y-167422899D01*
X138048103Y-167441466D01*
X138078548Y-167466452D01*
X138103534Y-167496897D01*
X138122101Y-167531633D01*
X138133535Y-167569326D01*
X138138000Y-167614661D01*
X138138000Y-168701339D01*
X138133535Y-168746674D01*
X138122101Y-168784367D01*
X138103534Y-168819103D01*
X138078548Y-168849548D01*
X138048103Y-168874534D01*
X138013367Y-168893101D01*
X137975674Y-168904535D01*
X137930339Y-168909000D01*
X137093661Y-168909000D01*
X137048326Y-168904535D01*
X137010633Y-168893101D01*
X136975897Y-168874534D01*
X136945452Y-168849548D01*
X136920466Y-168819103D01*
X136901899Y-168784367D01*
X136890465Y-168746674D01*
X136886000Y-168701339D01*
X136886000Y-167614661D01*
X136890465Y-167569326D01*
X136901899Y-167531633D01*
X136920466Y-167496897D01*
X136945452Y-167466452D01*
X136975897Y-167441466D01*
X137010633Y-167422899D01*
X137048326Y-167411465D01*
X137093661Y-167407000D01*
X137930339Y-167407000D01*
X137975674Y-167411465D01*
G37*
G36*
X142289468Y-167411565D02*
G01*
X142328138Y-167423296D01*
X142363777Y-167442346D01*
X142395017Y-167467983D01*
X142420654Y-167499223D01*
X142439704Y-167534862D01*
X142451435Y-167573532D01*
X142456000Y-167619888D01*
X142456000Y-168696112D01*
X142451435Y-168742468D01*
X142439704Y-168781138D01*
X142420654Y-168816777D01*
X142395017Y-168848017D01*
X142363777Y-168873654D01*
X142328138Y-168892704D01*
X142289468Y-168904435D01*
X142243112Y-168909000D01*
X141591888Y-168909000D01*
X141545532Y-168904435D01*
X141506862Y-168892704D01*
X141471223Y-168873654D01*
X141439983Y-168848017D01*
X141414346Y-168816777D01*
X141395296Y-168781138D01*
X141383565Y-168742468D01*
X141379000Y-168696112D01*
X141379000Y-167619888D01*
X141383565Y-167573532D01*
X141395296Y-167534862D01*
X141414346Y-167499223D01*
X141439983Y-167467983D01*
X141471223Y-167442346D01*
X141506862Y-167423296D01*
X141545532Y-167411565D01*
X141591888Y-167407000D01*
X142243112Y-167407000D01*
X142289468Y-167411565D01*
G37*
G36*
X144164468Y-167411565D02*
G01*
X144203138Y-167423296D01*
X144238777Y-167442346D01*
X144270017Y-167467983D01*
X144295654Y-167499223D01*
X144314704Y-167534862D01*
X144326435Y-167573532D01*
X144331000Y-167619888D01*
X144331000Y-168696112D01*
X144326435Y-168742468D01*
X144314704Y-168781138D01*
X144295654Y-168816777D01*
X144270017Y-168848017D01*
X144238777Y-168873654D01*
X144203138Y-168892704D01*
X144164468Y-168904435D01*
X144118112Y-168909000D01*
X143466888Y-168909000D01*
X143420532Y-168904435D01*
X143381862Y-168892704D01*
X143346223Y-168873654D01*
X143314983Y-168848017D01*
X143289346Y-168816777D01*
X143270296Y-168781138D01*
X143258565Y-168742468D01*
X143254000Y-168696112D01*
X143254000Y-167619888D01*
X143258565Y-167573532D01*
X143270296Y-167534862D01*
X143289346Y-167499223D01*
X143314983Y-167467983D01*
X143346223Y-167442346D01*
X143381862Y-167423296D01*
X143420532Y-167411565D01*
X143466888Y-167407000D01*
X144118112Y-167407000D01*
X144164468Y-167411565D01*
G37*
G36*
X156726000Y-165501000D02*
G01*
X150474000Y-165501000D01*
X150474000Y-163799000D01*
X156726000Y-163799000D01*
X156726000Y-165501000D01*
G37*
G36*
X146734000Y-164549000D02*
G01*
X144732000Y-164549000D01*
X144732000Y-164047000D01*
X146734000Y-164047000D01*
X146734000Y-164549000D01*
G37*
G36*
X128559999Y-162299737D02*
G01*
X128569608Y-162302652D01*
X128578472Y-162307390D01*
X128586237Y-162313763D01*
X128596448Y-162326206D01*
X128603378Y-162336575D01*
X128620705Y-162353902D01*
X128641080Y-162367515D01*
X128663720Y-162376891D01*
X128687753Y-162381671D01*
X128712257Y-162381670D01*
X128736290Y-162376888D01*
X128758929Y-162367510D01*
X128779302Y-162353895D01*
X128796629Y-162336568D01*
X128803558Y-162326198D01*
X128813763Y-162313763D01*
X128821528Y-162307390D01*
X128830392Y-162302652D01*
X128840001Y-162299737D01*
X128856140Y-162298148D01*
X129343861Y-162298148D01*
X129362199Y-162299954D01*
X129374450Y-162300556D01*
X129392869Y-162300556D01*
X129415149Y-162302750D01*
X129499233Y-162319476D01*
X129520660Y-162325976D01*
X129599858Y-162358780D01*
X129605303Y-162361691D01*
X129605309Y-162361693D01*
X129614169Y-162366429D01*
X129614173Y-162366432D01*
X129619614Y-162369340D01*
X129690899Y-162416971D01*
X129708204Y-162431172D01*
X129768828Y-162491796D01*
X129783029Y-162509101D01*
X129830660Y-162580386D01*
X129833568Y-162585827D01*
X129833571Y-162585831D01*
X129838307Y-162594691D01*
X129838309Y-162594697D01*
X129841220Y-162600142D01*
X129874024Y-162679340D01*
X129880524Y-162700767D01*
X129897250Y-162784851D01*
X129899444Y-162807131D01*
X129899444Y-162825550D01*
X129900046Y-162837801D01*
X129901852Y-162856139D01*
X129901852Y-163343862D01*
X129900046Y-163362199D01*
X129899444Y-163374450D01*
X129899444Y-163392869D01*
X129897250Y-163415149D01*
X129880524Y-163499233D01*
X129874024Y-163520660D01*
X129841220Y-163599858D01*
X129838309Y-163605303D01*
X129838307Y-163605309D01*
X129833571Y-163614169D01*
X129833568Y-163614173D01*
X129830660Y-163619614D01*
X129783029Y-163690899D01*
X129768828Y-163708204D01*
X129708204Y-163768828D01*
X129690899Y-163783029D01*
X129619614Y-163830660D01*
X129614173Y-163833568D01*
X129614169Y-163833571D01*
X129605309Y-163838307D01*
X129605303Y-163838309D01*
X129599858Y-163841220D01*
X129520660Y-163874024D01*
X129499233Y-163880524D01*
X129415149Y-163897250D01*
X129392869Y-163899444D01*
X129374450Y-163899444D01*
X129362199Y-163900046D01*
X129343862Y-163901852D01*
X128856140Y-163901852D01*
X128840001Y-163900263D01*
X128830392Y-163897348D01*
X128821528Y-163892610D01*
X128813763Y-163886237D01*
X128803552Y-163873794D01*
X128796622Y-163863425D01*
X128779295Y-163846098D01*
X128758920Y-163832485D01*
X128736280Y-163823109D01*
X128712247Y-163818329D01*
X128687743Y-163818330D01*
X128663710Y-163823112D01*
X128641071Y-163832490D01*
X128620698Y-163846105D01*
X128603371Y-163863432D01*
X128596442Y-163873802D01*
X128586237Y-163886237D01*
X128578472Y-163892610D01*
X128569608Y-163897348D01*
X128559999Y-163900263D01*
X128543860Y-163901852D01*
X128056138Y-163901852D01*
X128037801Y-163900046D01*
X128025550Y-163899444D01*
X128007131Y-163899444D01*
X127984851Y-163897250D01*
X127900767Y-163880524D01*
X127879340Y-163874024D01*
X127800142Y-163841220D01*
X127794697Y-163838309D01*
X127794691Y-163838307D01*
X127785831Y-163833571D01*
X127785827Y-163833568D01*
X127780386Y-163830660D01*
X127709101Y-163783029D01*
X127691796Y-163768828D01*
X127631172Y-163708204D01*
X127616971Y-163690899D01*
X127569340Y-163619614D01*
X127566432Y-163614173D01*
X127566429Y-163614169D01*
X127561693Y-163605309D01*
X127561691Y-163605303D01*
X127558780Y-163599858D01*
X127525976Y-163520660D01*
X127519476Y-163499233D01*
X127502750Y-163415149D01*
X127500556Y-163392869D01*
X127500556Y-163374450D01*
X127499954Y-163362199D01*
X127498148Y-163343862D01*
X127498148Y-162856139D01*
X127499954Y-162837801D01*
X127500556Y-162825550D01*
X127500556Y-162807131D01*
X127502750Y-162784851D01*
X127519476Y-162700767D01*
X127525976Y-162679340D01*
X127558780Y-162600142D01*
X127561691Y-162594697D01*
X127561693Y-162594691D01*
X127566429Y-162585831D01*
X127566432Y-162585827D01*
X127569340Y-162580386D01*
X127616971Y-162509101D01*
X127631172Y-162491796D01*
X127691796Y-162431172D01*
X127709101Y-162416971D01*
X127780386Y-162369340D01*
X127785827Y-162366432D01*
X127785831Y-162366429D01*
X127794691Y-162361693D01*
X127794697Y-162361691D01*
X127800142Y-162358780D01*
X127879340Y-162325976D01*
X127900767Y-162319476D01*
X127984851Y-162302750D01*
X128007131Y-162300556D01*
X128025550Y-162300556D01*
X128037801Y-162299954D01*
X128056139Y-162298148D01*
X128543860Y-162298148D01*
X128559999Y-162299737D01*
G37*
G36*
X150201000Y-163526000D02*
G01*
X148499000Y-163526000D01*
X148499000Y-157274000D01*
X150201000Y-157274000D01*
X150201000Y-163526000D01*
G37*
G36*
X158701000Y-163526000D02*
G01*
X156999000Y-163526000D01*
X156999000Y-157274000D01*
X158701000Y-157274000D01*
X158701000Y-163526000D01*
G37*
G36*
X146734000Y-163349000D02*
G01*
X144732000Y-163349000D01*
X144732000Y-162847000D01*
X146734000Y-162847000D01*
X146734000Y-163349000D01*
G37*
G36*
X146734000Y-162149000D02*
G01*
X144732000Y-162149000D01*
X144732000Y-161647000D01*
X146734000Y-161647000D01*
X146734000Y-162149000D01*
G37*
G36*
X160584468Y-160603565D02*
G01*
X160623138Y-160615296D01*
X160658777Y-160634346D01*
X160690017Y-160659983D01*
X160715654Y-160691223D01*
X160734704Y-160726862D01*
X160746435Y-160765532D01*
X160751000Y-160811888D01*
X160751000Y-161463112D01*
X160746435Y-161509468D01*
X160734704Y-161548138D01*
X160715654Y-161583777D01*
X160690017Y-161615017D01*
X160658777Y-161640654D01*
X160623138Y-161659704D01*
X160584468Y-161671435D01*
X160538112Y-161676000D01*
X159461888Y-161676000D01*
X159415532Y-161671435D01*
X159376862Y-161659704D01*
X159341223Y-161640654D01*
X159309983Y-161615017D01*
X159284346Y-161583777D01*
X159265296Y-161548138D01*
X159253565Y-161509468D01*
X159249000Y-161463112D01*
X159249000Y-160811888D01*
X159253565Y-160765532D01*
X159265296Y-160726862D01*
X159284346Y-160691223D01*
X159309983Y-160659983D01*
X159341223Y-160634346D01*
X159376862Y-160615296D01*
X159415532Y-160603565D01*
X159461888Y-160599000D01*
X160538112Y-160599000D01*
X160584468Y-160603565D01*
G37*
G36*
X135625468Y-160543565D02*
G01*
X135664138Y-160555296D01*
X135699777Y-160574346D01*
X135731017Y-160599983D01*
X135756654Y-160631223D01*
X135775704Y-160666862D01*
X135787435Y-160705532D01*
X135792000Y-160751888D01*
X135792000Y-161403112D01*
X135787435Y-161449468D01*
X135775704Y-161488138D01*
X135756654Y-161523777D01*
X135731017Y-161555017D01*
X135699777Y-161580654D01*
X135664138Y-161599704D01*
X135625468Y-161611435D01*
X135579112Y-161616000D01*
X134502888Y-161616000D01*
X134456532Y-161611435D01*
X134417862Y-161599704D01*
X134382223Y-161580654D01*
X134350983Y-161555017D01*
X134325346Y-161523777D01*
X134306296Y-161488138D01*
X134294565Y-161449468D01*
X134290000Y-161403112D01*
X134290000Y-160751888D01*
X134294565Y-160705532D01*
X134306296Y-160666862D01*
X134325346Y-160631223D01*
X134350983Y-160599983D01*
X134382223Y-160574346D01*
X134417862Y-160555296D01*
X134456532Y-160543565D01*
X134502888Y-160539000D01*
X135579112Y-160539000D01*
X135625468Y-160543565D01*
G37*
G36*
X138165468Y-160543565D02*
G01*
X138204138Y-160555296D01*
X138239777Y-160574346D01*
X138271017Y-160599983D01*
X138296654Y-160631223D01*
X138315704Y-160666862D01*
X138327435Y-160705532D01*
X138332000Y-160751888D01*
X138332000Y-161403112D01*
X138327435Y-161449468D01*
X138315704Y-161488138D01*
X138296654Y-161523777D01*
X138271017Y-161555017D01*
X138239777Y-161580654D01*
X138204138Y-161599704D01*
X138165468Y-161611435D01*
X138119112Y-161616000D01*
X137042888Y-161616000D01*
X136996532Y-161611435D01*
X136957862Y-161599704D01*
X136922223Y-161580654D01*
X136890983Y-161555017D01*
X136865346Y-161523777D01*
X136846296Y-161488138D01*
X136834565Y-161449468D01*
X136830000Y-161403112D01*
X136830000Y-160751888D01*
X136834565Y-160705532D01*
X136846296Y-160666862D01*
X136865346Y-160631223D01*
X136890983Y-160599983D01*
X136922223Y-160574346D01*
X136957862Y-160555296D01*
X136996532Y-160543565D01*
X137042888Y-160539000D01*
X138119112Y-160539000D01*
X138165468Y-160543565D01*
G37*
G36*
X133173000Y-159501672D02*
G01*
X133153553Y-159512066D01*
X133134611Y-159527611D01*
X133119066Y-159546553D01*
X133107515Y-159568164D01*
X133100402Y-159591613D01*
X133098000Y-159615999D01*
X133098000Y-160664001D01*
X133100402Y-160688387D01*
X133107515Y-160711836D01*
X133119066Y-160733447D01*
X133134611Y-160752389D01*
X133153553Y-160767934D01*
X133173000Y-160778328D01*
X133173000Y-161391000D01*
X131321000Y-161391000D01*
X131321000Y-160778328D01*
X131340447Y-160767934D01*
X131359389Y-160752389D01*
X131374934Y-160733447D01*
X131386485Y-160711836D01*
X131393598Y-160688387D01*
X131396000Y-160664001D01*
X131396000Y-159615999D01*
X131393598Y-159591613D01*
X131386485Y-159568164D01*
X131374934Y-159546553D01*
X131359389Y-159527611D01*
X131340447Y-159512066D01*
X131321000Y-159501672D01*
X131321000Y-158889000D01*
X133173000Y-158889000D01*
X133173000Y-159501672D01*
G37*
G36*
X145534468Y-159253565D02*
G01*
X145573138Y-159265296D01*
X145608777Y-159284346D01*
X145640017Y-159309983D01*
X145665654Y-159341223D01*
X145684704Y-159376862D01*
X145696435Y-159415532D01*
X145701000Y-159461888D01*
X145701000Y-160538112D01*
X145696435Y-160584468D01*
X145684704Y-160623138D01*
X145665654Y-160658777D01*
X145640017Y-160690017D01*
X145608777Y-160715654D01*
X145573138Y-160734704D01*
X145534468Y-160746435D01*
X145488112Y-160751000D01*
X144836888Y-160751000D01*
X144790532Y-160746435D01*
X144751862Y-160734704D01*
X144716223Y-160715654D01*
X144684983Y-160690017D01*
X144659346Y-160658777D01*
X144640296Y-160623138D01*
X144628565Y-160584468D01*
X144624000Y-160538112D01*
X144624000Y-159461888D01*
X144628565Y-159415532D01*
X144640296Y-159376862D01*
X144659346Y-159341223D01*
X144684983Y-159309983D01*
X144716223Y-159284346D01*
X144751862Y-159265296D01*
X144790532Y-159253565D01*
X144836888Y-159249000D01*
X145488112Y-159249000D01*
X145534468Y-159253565D01*
G37*
G36*
X147409468Y-159253565D02*
G01*
X147448138Y-159265296D01*
X147483777Y-159284346D01*
X147515017Y-159309983D01*
X147540654Y-159341223D01*
X147559704Y-159376862D01*
X147571435Y-159415532D01*
X147576000Y-159461888D01*
X147576000Y-160538112D01*
X147571435Y-160584468D01*
X147559704Y-160623138D01*
X147540654Y-160658777D01*
X147515017Y-160690017D01*
X147483777Y-160715654D01*
X147448138Y-160734704D01*
X147409468Y-160746435D01*
X147363112Y-160751000D01*
X146711888Y-160751000D01*
X146665532Y-160746435D01*
X146626862Y-160734704D01*
X146591223Y-160715654D01*
X146559983Y-160690017D01*
X146534346Y-160658777D01*
X146515296Y-160623138D01*
X146503565Y-160584468D01*
X146499000Y-160538112D01*
X146499000Y-159461888D01*
X146503565Y-159415532D01*
X146515296Y-159376862D01*
X146534346Y-159341223D01*
X146559983Y-159309983D01*
X146591223Y-159284346D01*
X146626862Y-159265296D01*
X146665532Y-159253565D01*
X146711888Y-159249000D01*
X147363112Y-159249000D01*
X147409468Y-159253565D01*
G37*
G36*
X160584468Y-158728565D02*
G01*
X160623138Y-158740296D01*
X160658777Y-158759346D01*
X160690017Y-158784983D01*
X160715654Y-158816223D01*
X160734704Y-158851862D01*
X160746435Y-158890532D01*
X160751000Y-158936888D01*
X160751000Y-159588112D01*
X160746435Y-159634468D01*
X160734704Y-159673138D01*
X160715654Y-159708777D01*
X160690017Y-159740017D01*
X160658777Y-159765654D01*
X160623138Y-159784704D01*
X160584468Y-159796435D01*
X160538112Y-159801000D01*
X159461888Y-159801000D01*
X159415532Y-159796435D01*
X159376862Y-159784704D01*
X159341223Y-159765654D01*
X159309983Y-159740017D01*
X159284346Y-159708777D01*
X159265296Y-159673138D01*
X159253565Y-159634468D01*
X159249000Y-159588112D01*
X159249000Y-158936888D01*
X159253565Y-158890532D01*
X159265296Y-158851862D01*
X159284346Y-158816223D01*
X159309983Y-158784983D01*
X159341223Y-158759346D01*
X159376862Y-158740296D01*
X159415532Y-158728565D01*
X159461888Y-158724000D01*
X160538112Y-158724000D01*
X160584468Y-158728565D01*
G37*
G36*
X138165468Y-158668565D02*
G01*
X138204138Y-158680296D01*
X138239777Y-158699346D01*
X138271017Y-158724983D01*
X138296654Y-158756223D01*
X138315704Y-158791862D01*
X138327435Y-158830532D01*
X138332000Y-158876888D01*
X138332000Y-159528112D01*
X138327435Y-159574468D01*
X138315704Y-159613138D01*
X138296654Y-159648777D01*
X138271017Y-159680017D01*
X138239777Y-159705654D01*
X138204138Y-159724704D01*
X138165468Y-159736435D01*
X138119112Y-159741000D01*
X137042888Y-159741000D01*
X136996532Y-159736435D01*
X136957862Y-159724704D01*
X136922223Y-159705654D01*
X136890983Y-159680017D01*
X136865346Y-159648777D01*
X136846296Y-159613138D01*
X136834565Y-159574468D01*
X136830000Y-159528112D01*
X136830000Y-158876888D01*
X136834565Y-158830532D01*
X136846296Y-158791862D01*
X136865346Y-158756223D01*
X136890983Y-158724983D01*
X136922223Y-158699346D01*
X136957862Y-158680296D01*
X136996532Y-158668565D01*
X137042888Y-158664000D01*
X138119112Y-158664000D01*
X138165468Y-158668565D01*
G37*
G36*
X135625468Y-158668565D02*
G01*
X135664138Y-158680296D01*
X135699777Y-158699346D01*
X135731017Y-158724983D01*
X135756654Y-158756223D01*
X135775704Y-158791862D01*
X135787435Y-158830532D01*
X135792000Y-158876888D01*
X135792000Y-159528112D01*
X135787435Y-159574468D01*
X135775704Y-159613138D01*
X135756654Y-159648777D01*
X135731017Y-159680017D01*
X135699777Y-159705654D01*
X135664138Y-159724704D01*
X135625468Y-159736435D01*
X135579112Y-159741000D01*
X134502888Y-159741000D01*
X134456532Y-159736435D01*
X134417862Y-159724704D01*
X134382223Y-159705654D01*
X134350983Y-159680017D01*
X134325346Y-159648777D01*
X134306296Y-159613138D01*
X134294565Y-159574468D01*
X134290000Y-159528112D01*
X134290000Y-158876888D01*
X134294565Y-158830532D01*
X134306296Y-158791862D01*
X134325346Y-158756223D01*
X134350983Y-158724983D01*
X134382223Y-158699346D01*
X134417862Y-158680296D01*
X134456532Y-158668565D01*
X134502888Y-158664000D01*
X135579112Y-158664000D01*
X135625468Y-158668565D01*
G37*
G36*
X156726000Y-157001000D02*
G01*
X150474000Y-157001000D01*
X150474000Y-155299000D01*
X156726000Y-155299000D01*
X156726000Y-157001000D01*
G37*
G36*
X134401000Y-156401000D02*
G01*
X132599000Y-156401000D01*
X132599000Y-154599000D01*
X134401000Y-154599000D01*
X134401000Y-156401000D01*
G37*
G36*
X131073512Y-154603927D02*
G01*
X131222812Y-154633624D01*
X131386784Y-154701544D01*
X131534354Y-154800147D01*
X131659853Y-154925646D01*
X131758456Y-155073216D01*
X131826376Y-155237188D01*
X131861000Y-155411259D01*
X131861000Y-155588741D01*
X131826376Y-155762812D01*
X131758456Y-155926784D01*
X131659853Y-156074354D01*
X131534354Y-156199853D01*
X131386784Y-156298456D01*
X131222812Y-156366376D01*
X131073512Y-156396073D01*
X131048742Y-156401000D01*
X130871258Y-156401000D01*
X130846488Y-156396073D01*
X130697188Y-156366376D01*
X130533216Y-156298456D01*
X130385646Y-156199853D01*
X130260147Y-156074354D01*
X130161544Y-155926784D01*
X130093624Y-155762812D01*
X130059000Y-155588741D01*
X130059000Y-155411259D01*
X130093624Y-155237188D01*
X130161544Y-155073216D01*
X130260147Y-154925646D01*
X130385646Y-154800147D01*
X130533216Y-154701544D01*
X130697188Y-154633624D01*
X130846488Y-154603927D01*
X130871258Y-154599000D01*
X131048742Y-154599000D01*
X131073512Y-154603927D01*
G37*
G36*
X129988674Y-141153465D02*
G01*
X130026367Y-141164899D01*
X130061103Y-141183466D01*
X130091548Y-141208452D01*
X130116534Y-141238897D01*
X130135101Y-141273633D01*
X130146535Y-141311326D01*
X130151000Y-141356661D01*
X130151000Y-142193339D01*
X130146535Y-142238674D01*
X130135101Y-142276367D01*
X130116534Y-142311103D01*
X130091548Y-142341548D01*
X130061103Y-142366534D01*
X130026367Y-142385101D01*
X129988674Y-142396535D01*
X129943339Y-142401000D01*
X128856661Y-142401000D01*
X128811326Y-142396535D01*
X128773633Y-142385101D01*
X128738897Y-142366534D01*
X128708452Y-142341548D01*
X128683466Y-142311103D01*
X128664899Y-142276367D01*
X128653465Y-142238674D01*
X128649000Y-142193339D01*
X128649000Y-141356661D01*
X128653465Y-141311326D01*
X128664899Y-141273633D01*
X128683466Y-141238897D01*
X128708452Y-141208452D01*
X128738897Y-141183466D01*
X128773633Y-141164899D01*
X128811326Y-141153465D01*
X128856661Y-141149000D01*
X129943339Y-141149000D01*
X129988674Y-141153465D01*
G37*
G36*
X136338674Y-141103465D02*
G01*
X136376367Y-141114899D01*
X136411103Y-141133466D01*
X136441548Y-141158452D01*
X136466534Y-141188897D01*
X136485101Y-141223633D01*
X136496535Y-141261326D01*
X136501000Y-141306661D01*
X136501000Y-142143339D01*
X136496535Y-142188674D01*
X136485101Y-142226367D01*
X136466534Y-142261103D01*
X136441548Y-142291548D01*
X136411103Y-142316534D01*
X136376367Y-142335101D01*
X136338674Y-142346535D01*
X136293339Y-142351000D01*
X135206661Y-142351000D01*
X135161326Y-142346535D01*
X135123633Y-142335101D01*
X135088897Y-142316534D01*
X135058452Y-142291548D01*
X135033466Y-142261103D01*
X135014899Y-142226367D01*
X135003465Y-142188674D01*
X134999000Y-142143339D01*
X134999000Y-141306661D01*
X135003465Y-141261326D01*
X135014899Y-141223633D01*
X135033466Y-141188897D01*
X135058452Y-141158452D01*
X135088897Y-141133466D01*
X135123633Y-141114899D01*
X135161326Y-141103465D01*
X135206661Y-141099000D01*
X136293339Y-141099000D01*
X136338674Y-141103465D01*
G37*
G36*
X133826000Y-141861000D02*
G01*
X131274000Y-141861000D01*
X131274000Y-139649000D01*
X133826000Y-139649000D01*
X133826000Y-141861000D01*
G37*
G36*
X129988674Y-139103465D02*
G01*
X130026367Y-139114899D01*
X130061103Y-139133466D01*
X130091548Y-139158452D01*
X130116534Y-139188897D01*
X130135101Y-139223633D01*
X130146535Y-139261326D01*
X130151000Y-139306661D01*
X130151000Y-140143339D01*
X130146535Y-140188674D01*
X130135101Y-140226367D01*
X130116534Y-140261103D01*
X130091548Y-140291548D01*
X130061103Y-140316534D01*
X130026367Y-140335101D01*
X129988674Y-140346535D01*
X129943339Y-140351000D01*
X128856661Y-140351000D01*
X128811326Y-140346535D01*
X128773633Y-140335101D01*
X128738897Y-140316534D01*
X128708452Y-140291548D01*
X128683466Y-140261103D01*
X128664899Y-140226367D01*
X128653465Y-140188674D01*
X128649000Y-140143339D01*
X128649000Y-139306661D01*
X128653465Y-139261326D01*
X128664899Y-139223633D01*
X128683466Y-139188897D01*
X128708452Y-139158452D01*
X128738897Y-139133466D01*
X128773633Y-139114899D01*
X128811326Y-139103465D01*
X128856661Y-139099000D01*
X129943339Y-139099000D01*
X129988674Y-139103465D01*
G37*
G36*
X136338674Y-139053465D02*
G01*
X136376367Y-139064899D01*
X136411103Y-139083466D01*
X136441548Y-139108452D01*
X136466534Y-139138897D01*
X136485101Y-139173633D01*
X136496535Y-139211326D01*
X136501000Y-139256661D01*
X136501000Y-140093339D01*
X136496535Y-140138674D01*
X136485101Y-140176367D01*
X136466534Y-140211103D01*
X136441548Y-140241548D01*
X136411103Y-140266534D01*
X136376367Y-140285101D01*
X136338674Y-140296535D01*
X136293339Y-140301000D01*
X135206661Y-140301000D01*
X135161326Y-140296535D01*
X135123633Y-140285101D01*
X135088897Y-140266534D01*
X135058452Y-140241548D01*
X135033466Y-140211103D01*
X135014899Y-140176367D01*
X135003465Y-140138674D01*
X134999000Y-140093339D01*
X134999000Y-139256661D01*
X135003465Y-139211326D01*
X135014899Y-139173633D01*
X135033466Y-139138897D01*
X135058452Y-139108452D01*
X135088897Y-139083466D01*
X135123633Y-139064899D01*
X135161326Y-139053465D01*
X135206661Y-139049000D01*
X136293339Y-139049000D01*
X136338674Y-139053465D01*
G37*
G36*
X185836000Y-137551000D02*
G01*
X183734000Y-137551000D01*
X183734000Y-127449000D01*
X185836000Y-127449000D01*
X185836000Y-137551000D01*
G37*
G36*
X188376000Y-137551000D02*
G01*
X186274000Y-137551000D01*
X186274000Y-127449000D01*
X188376000Y-127449000D01*
X188376000Y-137551000D01*
G37*
G36*
X190916000Y-137551000D02*
G01*
X188814000Y-137551000D01*
X188814000Y-127449000D01*
X190916000Y-127449000D01*
X190916000Y-137551000D01*
G37*
G36*
X193456000Y-137551000D02*
G01*
X191354000Y-137551000D01*
X191354000Y-127449000D01*
X193456000Y-127449000D01*
X193456000Y-137551000D01*
G37*
G36*
X96238851Y-129006066D02*
G01*
X95106066Y-130138851D01*
X93761149Y-128793934D01*
X94893934Y-127661149D01*
X96238851Y-129006066D01*
G37*
G36*
X98006618Y-127238299D02*
G01*
X96873833Y-128371084D01*
X95528916Y-127026167D01*
X96661701Y-125893382D01*
X98006618Y-127238299D01*
G37*
G36*
X99774385Y-125470532D02*
G01*
X98641600Y-126603317D01*
X97296683Y-125258400D01*
X98429468Y-124125615D01*
X99774385Y-125470532D01*
G37*
G36*
X81098527Y-123403465D02*
G01*
X81136220Y-123414899D01*
X81170956Y-123433466D01*
X81201401Y-123458452D01*
X81226387Y-123488897D01*
X81244954Y-123523633D01*
X81256388Y-123561326D01*
X81260853Y-123606661D01*
X81260853Y-124443339D01*
X81256388Y-124488674D01*
X81244954Y-124526367D01*
X81226387Y-124561103D01*
X81201401Y-124591548D01*
X81170956Y-124616534D01*
X81136220Y-124635101D01*
X81098527Y-124646535D01*
X81053192Y-124651000D01*
X79966514Y-124651000D01*
X79921179Y-124646535D01*
X79883486Y-124635101D01*
X79848750Y-124616534D01*
X79818305Y-124591548D01*
X79793319Y-124561103D01*
X79774752Y-124526367D01*
X79763318Y-124488674D01*
X79758853Y-124443339D01*
X79758853Y-123606661D01*
X79763318Y-123561326D01*
X79774752Y-123523633D01*
X79793319Y-123488897D01*
X79818305Y-123458452D01*
X79848750Y-123433466D01*
X79883486Y-123414899D01*
X79921179Y-123403465D01*
X79966514Y-123399000D01*
X81053192Y-123399000D01*
X81098527Y-123403465D01*
G37*
G36*
X78741494Y-123403565D02*
G01*
X78780164Y-123415296D01*
X78815803Y-123434346D01*
X78847043Y-123459983D01*
X78872680Y-123491223D01*
X78891730Y-123526862D01*
X78903461Y-123565532D01*
X78908026Y-123611888D01*
X78908026Y-124263112D01*
X78903461Y-124309468D01*
X78891730Y-124348138D01*
X78872680Y-124383777D01*
X78847043Y-124415017D01*
X78815803Y-124440654D01*
X78780164Y-124459704D01*
X78741494Y-124471435D01*
X78695138Y-124476000D01*
X77618914Y-124476000D01*
X77572558Y-124471435D01*
X77533888Y-124459704D01*
X77498249Y-124440654D01*
X77467009Y-124415017D01*
X77441372Y-124383777D01*
X77422322Y-124348138D01*
X77410591Y-124309468D01*
X77406026Y-124263112D01*
X77406026Y-123611888D01*
X77410591Y-123565532D01*
X77422322Y-123526862D01*
X77441372Y-123491223D01*
X77467009Y-123459983D01*
X77498249Y-123434346D01*
X77533888Y-123415296D01*
X77572558Y-123403565D01*
X77618914Y-123399000D01*
X78695138Y-123399000D01*
X78741494Y-123403565D01*
G37*
G36*
X78741494Y-121528565D02*
G01*
X78780164Y-121540296D01*
X78815803Y-121559346D01*
X78847043Y-121584983D01*
X78872680Y-121616223D01*
X78891730Y-121651862D01*
X78903461Y-121690532D01*
X78908026Y-121736888D01*
X78908026Y-122388112D01*
X78903461Y-122434468D01*
X78891730Y-122473138D01*
X78872680Y-122508777D01*
X78847043Y-122540017D01*
X78815803Y-122565654D01*
X78780164Y-122584704D01*
X78741494Y-122596435D01*
X78695138Y-122601000D01*
X77618914Y-122601000D01*
X77572558Y-122596435D01*
X77533888Y-122584704D01*
X77498249Y-122565654D01*
X77467009Y-122540017D01*
X77441372Y-122508777D01*
X77422322Y-122473138D01*
X77410591Y-122434468D01*
X77406026Y-122388112D01*
X77406026Y-121736888D01*
X77410591Y-121690532D01*
X77422322Y-121651862D01*
X77441372Y-121616223D01*
X77467009Y-121584983D01*
X77498249Y-121559346D01*
X77533888Y-121540296D01*
X77572558Y-121528565D01*
X77618914Y-121524000D01*
X78695138Y-121524000D01*
X78741494Y-121528565D01*
G37*
G36*
X81098527Y-121353465D02*
G01*
X81136220Y-121364899D01*
X81170956Y-121383466D01*
X81201401Y-121408452D01*
X81226387Y-121438897D01*
X81244954Y-121473633D01*
X81256388Y-121511326D01*
X81260853Y-121556661D01*
X81260853Y-122393339D01*
X81256388Y-122438674D01*
X81244954Y-122476367D01*
X81226387Y-122511103D01*
X81201401Y-122541548D01*
X81170956Y-122566534D01*
X81136220Y-122585101D01*
X81098527Y-122596535D01*
X81053192Y-122601000D01*
X79966514Y-122601000D01*
X79921179Y-122596535D01*
X79883486Y-122585101D01*
X79848750Y-122566534D01*
X79818305Y-122541548D01*
X79793319Y-122511103D01*
X79774752Y-122476367D01*
X79763318Y-122438674D01*
X79758853Y-122393339D01*
X79758853Y-121556661D01*
X79763318Y-121511326D01*
X79774752Y-121473633D01*
X79793319Y-121438897D01*
X79818305Y-121408452D01*
X79848750Y-121383466D01*
X79883486Y-121364899D01*
X79921179Y-121353465D01*
X79966514Y-121349000D01*
X81053192Y-121349000D01*
X81098527Y-121353465D01*
G37*
G36*
X81088674Y-119403465D02*
G01*
X81126367Y-119414899D01*
X81161103Y-119433466D01*
X81191548Y-119458452D01*
X81216534Y-119488897D01*
X81235101Y-119523633D01*
X81246535Y-119561326D01*
X81251000Y-119606661D01*
X81251000Y-120443339D01*
X81246535Y-120488674D01*
X81235101Y-120526367D01*
X81216534Y-120561103D01*
X81191548Y-120591548D01*
X81161103Y-120616534D01*
X81126367Y-120635101D01*
X81088674Y-120646535D01*
X81043339Y-120651000D01*
X79956661Y-120651000D01*
X79911326Y-120646535D01*
X79873633Y-120635101D01*
X79838897Y-120616534D01*
X79808452Y-120591548D01*
X79783466Y-120561103D01*
X79764899Y-120526367D01*
X79753465Y-120488674D01*
X79749000Y-120443339D01*
X79749000Y-119606661D01*
X79753465Y-119561326D01*
X79764899Y-119523633D01*
X79783466Y-119488897D01*
X79808452Y-119458452D01*
X79838897Y-119433466D01*
X79873633Y-119414899D01*
X79911326Y-119403465D01*
X79956661Y-119399000D01*
X81043339Y-119399000D01*
X81088674Y-119403465D01*
G37*
G36*
X78759454Y-119403565D02*
G01*
X78798124Y-119415296D01*
X78833763Y-119434346D01*
X78865003Y-119459983D01*
X78890640Y-119491223D01*
X78909690Y-119526862D01*
X78921421Y-119565532D01*
X78925986Y-119611888D01*
X78925986Y-120263112D01*
X78921421Y-120309468D01*
X78909690Y-120348138D01*
X78890640Y-120383777D01*
X78865003Y-120415017D01*
X78833763Y-120440654D01*
X78798124Y-120459704D01*
X78759454Y-120471435D01*
X78713098Y-120476000D01*
X77636874Y-120476000D01*
X77590518Y-120471435D01*
X77551848Y-120459704D01*
X77516209Y-120440654D01*
X77484969Y-120415017D01*
X77459332Y-120383777D01*
X77440282Y-120348138D01*
X77428551Y-120309468D01*
X77423986Y-120263112D01*
X77423986Y-119611888D01*
X77428551Y-119565532D01*
X77440282Y-119526862D01*
X77459332Y-119491223D01*
X77484969Y-119459983D01*
X77516209Y-119434346D01*
X77551848Y-119415296D01*
X77590518Y-119403565D01*
X77636874Y-119399000D01*
X78713098Y-119399000D01*
X78759454Y-119403565D01*
G37*
G36*
X78759454Y-117528565D02*
G01*
X78798124Y-117540296D01*
X78833763Y-117559346D01*
X78865003Y-117584983D01*
X78890640Y-117616223D01*
X78909690Y-117651862D01*
X78921421Y-117690532D01*
X78925986Y-117736888D01*
X78925986Y-118388112D01*
X78921421Y-118434468D01*
X78909690Y-118473138D01*
X78890640Y-118508777D01*
X78865003Y-118540017D01*
X78833763Y-118565654D01*
X78798124Y-118584704D01*
X78759454Y-118596435D01*
X78713098Y-118601000D01*
X77636874Y-118601000D01*
X77590518Y-118596435D01*
X77551848Y-118584704D01*
X77516209Y-118565654D01*
X77484969Y-118540017D01*
X77459332Y-118508777D01*
X77440282Y-118473138D01*
X77428551Y-118434468D01*
X77423986Y-118388112D01*
X77423986Y-117736888D01*
X77428551Y-117690532D01*
X77440282Y-117651862D01*
X77459332Y-117616223D01*
X77484969Y-117584983D01*
X77516209Y-117559346D01*
X77551848Y-117540296D01*
X77590518Y-117528565D01*
X77636874Y-117524000D01*
X78713098Y-117524000D01*
X78759454Y-117528565D01*
G37*
G36*
X81088674Y-117353465D02*
G01*
X81126367Y-117364899D01*
X81161103Y-117383466D01*
X81191548Y-117408452D01*
X81216534Y-117438897D01*
X81235101Y-117473633D01*
X81246535Y-117511326D01*
X81251000Y-117556661D01*
X81251000Y-118393339D01*
X81246535Y-118438674D01*
X81235101Y-118476367D01*
X81216534Y-118511103D01*
X81191548Y-118541548D01*
X81161103Y-118566534D01*
X81126367Y-118585101D01*
X81088674Y-118596535D01*
X81043339Y-118601000D01*
X79956661Y-118601000D01*
X79911326Y-118596535D01*
X79873633Y-118585101D01*
X79838897Y-118566534D01*
X79808452Y-118541548D01*
X79783466Y-118511103D01*
X79764899Y-118476367D01*
X79753465Y-118438674D01*
X79749000Y-118393339D01*
X79749000Y-117556661D01*
X79753465Y-117511326D01*
X79764899Y-117473633D01*
X79783466Y-117438897D01*
X79808452Y-117408452D01*
X79838897Y-117383466D01*
X79873633Y-117364899D01*
X79911326Y-117353465D01*
X79956661Y-117349000D01*
X81043339Y-117349000D01*
X81088674Y-117353465D01*
G37*
G36*
X82618571Y-114862742D02*
G01*
X81450431Y-116030882D01*
X80671199Y-115251650D01*
X81839339Y-114083510D01*
X82618571Y-114862742D01*
G37*
G36*
X81416490Y-113660661D02*
G01*
X80248350Y-114828801D01*
X79469118Y-114049569D01*
X80637258Y-112881429D01*
X81416490Y-113660661D01*
G37*
G36*
X86330882Y-111150431D02*
G01*
X85162742Y-112318571D01*
X84383510Y-111539339D01*
X85551650Y-110371199D01*
X86330882Y-111150431D01*
G37*
G36*
X85128801Y-109948350D02*
G01*
X83960661Y-111116490D01*
X83181429Y-110337258D01*
X84349569Y-109169118D01*
X85128801Y-109948350D01*
G37*
G36*
X88218571Y-109262742D02*
G01*
X87050431Y-110430882D01*
X86271199Y-109651650D01*
X87439339Y-108483510D01*
X88218571Y-109262742D01*
G37*
G36*
X87016490Y-108060661D02*
G01*
X85848350Y-109228801D01*
X85069118Y-108449569D01*
X86237258Y-107281429D01*
X87016490Y-108060661D01*
G37*
G36*
X91930882Y-105550431D02*
G01*
X90762742Y-106718571D01*
X89983510Y-105939339D01*
X91151650Y-104771199D01*
X91930882Y-105550431D01*
G37*
G36*
X90728801Y-104348350D02*
G01*
X89560661Y-105516490D01*
X88781429Y-104737258D01*
X89949569Y-103569118D01*
X90728801Y-104348350D01*
G37*
M02*
