M48
; DRILL file {KiCad 5.1.9+dfsg1-1~bpo10+1} date Sun Feb 14 17:20:47 2021
; FORMAT={-:-/ absolute / inch / decimal}
; #@! TF.CreationDate,2021-02-14T17:20:47+00:00
; #@! TF.GenerationSoftware,Kicad,Pcbnew,5.1.9+dfsg1-1~bpo10+1
FMAT,2
INCH
T1C0.0118
T2C0.0197
T3C0.0236
T4C0.0315
T5C0.0362
T6C0.0374
T7C0.0390
T8C0.0394
T9C0.0512
T10C0.0906
T11C0.1260
T12C0.1654
T13C0.0236
%
G90
G05
T1
X10.8528Y-2.4362
X10.8528Y-2.4835
X10.8528Y-2.5346
X10.8528Y-2.578
X10.9Y-2.4362
X10.9Y-2.4835
X10.9Y-2.5346
X10.9Y-2.578
T2
X10.9933Y-3.048
X11.1169Y-2.8157
X11.1185Y-2.6764
T4
X3.0949Y-2.9673
X3.0949Y-3.4673
X3.0949Y-3.8728
X3.0949Y-4.3728
X3.1949Y-2.9673
X3.1949Y-3.4673
X3.1949Y-3.8728
X3.1949Y-4.3728
X3.2949Y-2.9673
X3.2949Y-3.4673
X3.2949Y-3.8728
X3.2949Y-4.3728
X3.3949Y-2.9673
X3.3949Y-3.4673
X3.3949Y-3.8728
X3.3949Y-4.3728
X3.4949Y-2.9673
X3.4949Y-3.4673
X3.4949Y-3.8728
X3.4949Y-4.3728
X3.5949Y-2.9673
X3.5949Y-3.4673
X3.5949Y-3.8728
X3.5949Y-4.3728
X3.6949Y-2.9673
X3.6949Y-3.4673
X3.6949Y-3.8728
X3.6949Y-4.3728
X3.7949Y-2.9673
X3.7949Y-3.4673
X3.7949Y-3.8728
X3.7949Y-4.3728
X3.9217Y-2.9673
X3.9217Y-3.4673
X3.9217Y-3.8728
X3.9217Y-4.3728
X4.0217Y-2.9673
X4.0217Y-3.4673
X4.0217Y-3.8728
X4.0217Y-4.3728
X4.1217Y-2.9673
X4.1217Y-3.4673
X4.1217Y-3.8728
X4.1217Y-4.3728
X4.2217Y-2.9673
X4.2217Y-3.4673
X4.2217Y-3.8728
X4.2217Y-4.3728
X4.3217Y-2.9673
X4.3217Y-3.4673
X4.3217Y-3.8728
X4.3217Y-4.3728
X4.4217Y-2.9673
X4.4217Y-3.4673
X4.4217Y-3.8728
X4.4217Y-4.3728
X4.5217Y-2.9673
X4.5217Y-3.4673
X4.5217Y-3.8728
X4.5217Y-4.3728
X4.6217Y-2.9673
X4.6217Y-3.4673
X4.6217Y-3.8728
X4.6217Y-4.3728
X4.7484Y-2.9673
X4.7484Y-3.4673
X4.7484Y-3.8728
X4.7484Y-4.3728
X4.8484Y-2.9673
X4.8484Y-3.4673
X4.8484Y-3.8728
X4.8484Y-4.3728
X4.9484Y-2.9673
X4.9484Y-3.4673
X4.9484Y-3.8728
X4.9484Y-4.3728
X5.0484Y-2.9673
X5.0484Y-3.4673
X5.0484Y-3.8728
X5.0484Y-4.3728
X5.1484Y-2.9673
X5.1484Y-3.4673
X5.1484Y-3.8728
X5.1484Y-4.3728
X5.2484Y-2.9673
X5.2484Y-3.4673
X5.2484Y-3.8728
X5.2484Y-4.3728
X5.3484Y-2.9673
X5.3484Y-3.4673
X5.3484Y-3.8728
X5.3484Y-4.3728
X5.4484Y-2.9673
X5.4484Y-3.4673
X5.4484Y-3.8728
X5.4484Y-4.3728
X5.5752Y-2.9673
X5.5752Y-3.4673
X5.5752Y-3.8728
X5.5752Y-4.3728
X5.6752Y-2.9673
X5.6752Y-3.4673
X5.6752Y-3.8728
X5.6752Y-4.3728
X5.7752Y-2.9673
X5.7752Y-3.4673
X5.7752Y-3.8728
X5.7752Y-4.3728
X5.8752Y-2.9673
X5.8752Y-3.4673
X5.8752Y-3.8728
X5.8752Y-4.3728
X5.9752Y-2.9673
X5.9752Y-3.4673
X5.9752Y-3.8728
X5.9752Y-4.3728
X6.0752Y-2.9673
X6.0752Y-3.4673
X6.0752Y-3.8728
X6.0752Y-4.3728
X6.1752Y-2.9673
X6.1752Y-3.4673
X6.1752Y-3.8728
X6.1752Y-4.3728
X6.2752Y-2.9673
X6.2752Y-3.4673
X6.2752Y-3.8728
X6.2752Y-4.3728
T5
X7.2587Y-3.8079
X7.2587Y-3.911
X7.3571Y-3.8079
X7.3571Y-3.911
X7.4358Y-3.8079
X7.4358Y-3.911
X7.5343Y-3.8079
X7.5343Y-3.911
X7.9748Y-3.8079
X7.9748Y-3.911
X8.0732Y-3.8079
X8.0732Y-3.911
X8.152Y-3.8079
X8.152Y-3.911
X8.2504Y-3.8079
X8.2504Y-3.911
T6
X2.9917Y-3.6484
X3.0902Y-3.6484
X3.1886Y-3.6484
X3.287Y-3.6484
X3.3146Y-2.7665
X3.413Y-2.7665
X3.5114Y-2.7665
X3.5272Y-3.6484
X3.6098Y-2.7665
X3.6256Y-3.6484
X3.724Y-3.6484
X3.8224Y-3.6484
X4.1217Y-2.7665
X4.2201Y-2.7665
X4.3185Y-2.7665
X4.4169Y-2.7665
X5.7634Y-3.6917
X5.8618Y-3.6917
X5.9602Y-3.6917
X6.0587Y-3.6917
X7.1752Y-3.3933
X7.1752Y-5.511
X7.2736Y-3.3933
X7.2736Y-5.511
X7.372Y-3.3933
X7.372Y-5.511
X7.6457Y-3.3933
X7.6457Y-5.7157
X7.6551Y-5.1016
X7.6551Y-5.4087
X7.7441Y-3.3933
X7.7441Y-5.7157
X7.7535Y-5.1016
X7.7535Y-5.4087
X7.8425Y-3.3933
X7.8425Y-5.7157
X7.852Y-5.1016
X7.852Y-5.4087
X8.1185Y-3.1937
X8.1256Y-5.1016
X8.1256Y-5.4087
X8.2169Y-3.1937
X8.224Y-5.1016
X8.224Y-5.4087
X8.3154Y-3.1937
X8.3224Y-5.1016
X8.3224Y-5.4087
X8.5902Y-2.511
X8.6886Y-2.511
X8.787Y-2.511
X9.0937Y-5.1016
X9.1921Y-5.1016
X9.2906Y-5.1016
X9.389Y-5.1016
X11.1335Y-3.7213
X11.2319Y-3.7213
X11.3303Y-3.7213
X11.4287Y-3.7213
X11.4835Y-2.511
X11.5819Y-2.511
X11.6803Y-2.511
X11.7787Y-2.511
X12.9843Y-2.511
X13.0827Y-2.511
X13.1811Y-2.511
X13.2795Y-2.511
T7
X10.0583Y-3.9467
X10.2354Y-3.9467
T8
X4.2949Y-3.1008
X4.2949Y-3.2008
X4.2949Y-3.3008
X4.4051Y-3.1008
X4.4051Y-3.2008
X4.4051Y-3.3008
X4.5154Y-3.1008
X4.5154Y-3.2008
X4.5154Y-3.3008
X4.624Y-3.1008
X4.624Y-3.2008
X4.624Y-3.3008
X5.9287Y-4.0224
X5.9287Y-4.1224
X5.9287Y-4.2224
X7.2447Y-2.6193
X7.2447Y-2.7193
X7.2447Y-2.8193
X7.2447Y-2.9193
X7.2447Y-3.0193
X7.3447Y-2.6193
X7.3447Y-2.7193
X7.3447Y-2.8193
X7.3447Y-2.9193
X7.3447Y-3.0193
X7.6535Y-6.2327
X7.7163Y-2.6193
X7.7163Y-2.7193
X7.7163Y-2.8193
X7.7163Y-2.9193
X7.7163Y-3.0193
X7.752Y-6.2327
X7.8163Y-2.6193
X7.8163Y-2.7193
X7.8163Y-2.8193
X7.8163Y-2.9193
X7.8163Y-3.0193
X8.188Y-2.6193
X8.188Y-2.7193
X8.188Y-2.8193
X8.288Y-2.6193
X8.288Y-2.7193
X8.288Y-2.8193
X9.4598Y-5.4421
X9.4598Y-5.5421
X9.4598Y-5.6421
X9.4598Y-5.9563
X9.4598Y-6.0563
X9.4598Y-6.1563
X9.6173Y-5.0602
X9.6173Y-5.1602
X9.6173Y-5.2602
X9.6429Y-5.9563
X9.6429Y-6.0563
X9.6429Y-6.1563
X9.8004Y-5.0602
X9.8004Y-5.1602
X9.8004Y-5.2602
X9.826Y-5.9563
X9.826Y-6.0563
X9.826Y-6.1563
X9.9835Y-5.0602
X9.9835Y-5.1602
X9.9835Y-5.2602
X10.0091Y-5.9563
X10.0091Y-6.0563
X10.0091Y-6.1563
X10.448Y-3.7862
X10.448Y-3.8862
X11.1437Y-4.8421
X11.1437Y-4.9421
X11.1437Y-5.0421
X11.3268Y-4.8421
X11.3268Y-4.9421
X11.3268Y-5.0421
X11.4996Y-4.0618
X11.4996Y-4.1618
X11.4996Y-4.2618
X11.5098Y-4.8421
X11.5098Y-4.9421
X11.5098Y-5.0421
X11.6571Y-3.6799
X11.6571Y-3.7799
X11.6571Y-3.8799
X11.8402Y-3.6799
X11.8402Y-3.7799
X11.8402Y-3.8799
X11.8496Y-2.8516
X11.8496Y-2.9516
X11.8496Y-3.0516
X12.0071Y-2.4697
X12.0071Y-2.5697
X12.0071Y-2.6697
X12.0232Y-3.6799
X12.0232Y-3.7799
X12.0232Y-3.8799
X12.1902Y-2.4697
X12.1902Y-2.5697
X12.1902Y-2.6697
X12.3575Y-4.8252
X12.3732Y-2.4697
X12.3732Y-2.5697
X12.3732Y-2.6697
X12.4559Y-4.8252
X13.0004Y-3.3657
X13.0004Y-3.4657
X13.0004Y-3.5657
X13.1126Y-4.1815
X13.1835Y-3.3657
X13.1835Y-3.4657
X13.1835Y-3.5657
X13.211Y-4.1815
X13.3504Y-2.8516
X13.3504Y-2.9516
X13.3504Y-3.0516
X13.3665Y-3.3657
X13.3665Y-3.4657
X13.3665Y-3.5657
X13.5079Y-2.4697
X13.5079Y-2.5697
X13.5079Y-2.6697
X13.5496Y-3.3657
X13.5496Y-3.4657
X13.5496Y-3.5657
X13.6909Y-2.4697
X13.6909Y-2.5697
X13.6909Y-2.6697
X13.874Y-2.4697
X13.874Y-2.5697
X13.874Y-2.6697
X14.3972Y-3.4071
X14.4957Y-3.4071
T9
X9.426Y-3.1768
X9.6228Y-3.1768
X10.0091Y-4.0447
X10.285Y-4.0447
T10
X7.1378Y-3.7941
X7.1378Y-4.0177
X7.6551Y-3.7941
X7.6551Y-4.0177
X7.8539Y-3.7941
X7.8539Y-4.0177
X8.3713Y-3.7941
X8.3713Y-4.0177
T11
X2.9142Y-2.7965
X2.9142Y-6.3398
X6.4575Y-2.7965
X6.4575Y-6.3398
T12
X7.2783Y-5.0711
X7.2783Y-5.2758
T13
X8.585Y-3.7996
X8.8126Y-3.7996
X9.9547Y-2.4831
X10.1823Y-2.4831
T3
G00X8.5287Y-3.8024
M15
G01X8.5287Y-3.7591
M16
G05
G00X8.5287Y-3.9606
M15
G01X8.5287Y-3.9291
M16
G05
G00X8.8689Y-3.8024
M15
G01X8.8689Y-3.7591
M16
G05
G00X8.8689Y-3.9606
M15
G01X8.8689Y-3.9291
M16
G05
G00X9.8984Y-2.4858
M15
G01X9.8984Y-2.4425
M16
G05
G00X9.8984Y-2.6441
M15
G01X9.8984Y-2.6126
M16
G05
G00X10.2386Y-2.4858
M15
G01X10.2386Y-2.4425
M16
G05
G00X10.2386Y-2.6441
M15
G01X10.2386Y-2.6126
M16
G05
T0
M30
