G04 #@! TF.GenerationSoftware,KiCad,Pcbnew,5.1.9+dfsg1-1~bpo10+1*
G04 #@! TF.CreationDate,2021-03-15T02:48:26+00:00*
G04 #@! TF.ProjectId,mobo,6d6f626f-2e6b-4696-9361-645f70636258,rev?*
G04 #@! TF.SameCoordinates,Original*
G04 #@! TF.FileFunction,Soldermask,Top*
G04 #@! TF.FilePolarity,Negative*
%FSLAX46Y46*%
G04 Gerber Fmt 4.6, Leading zero omitted, Abs format (unit mm)*
G04 Created by KiCad (PCBNEW 5.1.9+dfsg1-1~bpo10+1) date 2021-03-15 02:48:26*
%MOMM*%
%LPD*%
G01*
G04 APERTURE LIST*
%ADD10C,0.250000*%
%ADD11C,0.010000*%
%ADD12O,1.700000X1.950000*%
%ADD13R,0.600000X0.450000*%
%ADD14R,0.450000X0.600000*%
%ADD15R,1.200000X1.400000*%
%ADD16R,0.800000X0.900000*%
%ADD17R,1.100000X1.100000*%
%ADD18C,1.600000*%
%ADD19R,1.600000X1.600000*%
%ADD20C,3.000000*%
%ADD21O,1.700000X2.000000*%
%ADD22O,1.700000X1.700000*%
%ADD23R,1.700000X1.700000*%
%ADD24R,2.400000X0.740000*%
%ADD25C,1.000000*%
%ADD26C,2.000000*%
%ADD27R,2.000000X2.000000*%
%ADD28C,1.700000*%
%ADD29R,2.000000X3.800000*%
%ADD30R,2.000000X1.500000*%
%ADD31C,4.200000*%
%ADD32R,0.900000X0.800000*%
%ADD33R,1.160000X0.600000*%
%ADD34C,0.600000*%
%ADD35R,1.160000X0.300000*%
%ADD36O,1.700000X0.900000*%
%ADD37O,2.000000X0.900000*%
%ADD38R,2.000000X3.400000*%
%ADD39R,1.550000X0.600000*%
%ADD40R,2.600000X3.100000*%
%ADD41R,2.300000X2.500000*%
%ADD42O,1.600000X1.600000*%
%ADD43R,2.600000X2.600000*%
%ADD44C,2.600000*%
%ADD45C,5.600000*%
G04 APERTURE END LIST*
D10*
X129708214Y-156777857D02*
X129708214Y-155577857D01*
X130279642Y-155977857D02*
X130279642Y-156777857D01*
X130279642Y-156092142D02*
X130336785Y-156035000D01*
X130451071Y-155977857D01*
X130622500Y-155977857D01*
X130736785Y-156035000D01*
X130793928Y-156149285D01*
X130793928Y-156777857D01*
X131879642Y-156777857D02*
X131879642Y-155577857D01*
X131879642Y-156720714D02*
X131765357Y-156777857D01*
X131536785Y-156777857D01*
X131422500Y-156720714D01*
X131365357Y-156663571D01*
X131308214Y-156549285D01*
X131308214Y-156206428D01*
X131365357Y-156092142D01*
X131422500Y-156035000D01*
X131536785Y-155977857D01*
X131765357Y-155977857D01*
X131879642Y-156035000D01*
X132908214Y-156720714D02*
X132793928Y-156777857D01*
X132565357Y-156777857D01*
X132451071Y-156720714D01*
X132393928Y-156606428D01*
X132393928Y-156149285D01*
X132451071Y-156035000D01*
X132565357Y-155977857D01*
X132793928Y-155977857D01*
X132908214Y-156035000D01*
X132965357Y-156149285D01*
X132965357Y-156263571D01*
X132393928Y-156377857D01*
X133365357Y-156777857D02*
X133993928Y-155977857D01*
X133365357Y-155977857D02*
X133993928Y-156777857D01*
X135365357Y-156777857D02*
X135365357Y-155577857D01*
X135765357Y-156435000D01*
X136165357Y-155577857D01*
X136165357Y-156777857D01*
X136908214Y-156777857D02*
X136793928Y-156720714D01*
X136736785Y-156663571D01*
X136679642Y-156549285D01*
X136679642Y-156206428D01*
X136736785Y-156092142D01*
X136793928Y-156035000D01*
X136908214Y-155977857D01*
X137079642Y-155977857D01*
X137193928Y-156035000D01*
X137251071Y-156092142D01*
X137308214Y-156206428D01*
X137308214Y-156549285D01*
X137251071Y-156663571D01*
X137193928Y-156720714D01*
X137079642Y-156777857D01*
X136908214Y-156777857D01*
X137822500Y-156777857D02*
X137822500Y-155577857D01*
X137822500Y-156035000D02*
X137936785Y-155977857D01*
X138165357Y-155977857D01*
X138279642Y-156035000D01*
X138336785Y-156092142D01*
X138393928Y-156206428D01*
X138393928Y-156549285D01*
X138336785Y-156663571D01*
X138279642Y-156720714D01*
X138165357Y-156777857D01*
X137936785Y-156777857D01*
X137822500Y-156720714D01*
X139079642Y-156777857D02*
X138965357Y-156720714D01*
X138908214Y-156663571D01*
X138851071Y-156549285D01*
X138851071Y-156206428D01*
X138908214Y-156092142D01*
X138965357Y-156035000D01*
X139079642Y-155977857D01*
X139251071Y-155977857D01*
X139365357Y-156035000D01*
X139422500Y-156092142D01*
X139479642Y-156206428D01*
X139479642Y-156549285D01*
X139422500Y-156663571D01*
X139365357Y-156720714D01*
X139251071Y-156777857D01*
X139079642Y-156777857D01*
X130393928Y-158827857D02*
X129993928Y-158256428D01*
X129708214Y-158827857D02*
X129708214Y-157627857D01*
X130165357Y-157627857D01*
X130279642Y-157685000D01*
X130336785Y-157742142D01*
X130393928Y-157856428D01*
X130393928Y-158027857D01*
X130336785Y-158142142D01*
X130279642Y-158199285D01*
X130165357Y-158256428D01*
X129708214Y-158256428D01*
X130908214Y-158199285D02*
X131308214Y-158199285D01*
X131479642Y-158827857D02*
X130908214Y-158827857D01*
X130908214Y-157627857D01*
X131479642Y-157627857D01*
X131822500Y-157627857D02*
X132222500Y-158827857D01*
X132622500Y-157627857D01*
X133251071Y-157627857D02*
X133365357Y-157627857D01*
X133479642Y-157685000D01*
X133536785Y-157742142D01*
X133593928Y-157856428D01*
X133651071Y-158085000D01*
X133651071Y-158370714D01*
X133593928Y-158599285D01*
X133536785Y-158713571D01*
X133479642Y-158770714D01*
X133365357Y-158827857D01*
X133251071Y-158827857D01*
X133136785Y-158770714D01*
X133079642Y-158713571D01*
X133022500Y-158599285D01*
X132965357Y-158370714D01*
X132965357Y-158085000D01*
X133022500Y-157856428D01*
X133079642Y-157742142D01*
X133136785Y-157685000D01*
X133251071Y-157627857D01*
X134393928Y-157627857D02*
X134508214Y-157627857D01*
X134622500Y-157685000D01*
X134679642Y-157742142D01*
X134736785Y-157856428D01*
X134793928Y-158085000D01*
X134793928Y-158370714D01*
X134736785Y-158599285D01*
X134679642Y-158713571D01*
X134622500Y-158770714D01*
X134508214Y-158827857D01*
X134393928Y-158827857D01*
X134279642Y-158770714D01*
X134222500Y-158713571D01*
X134165357Y-158599285D01*
X134108214Y-158370714D01*
X134108214Y-158085000D01*
X134165357Y-157856428D01*
X134222500Y-157742142D01*
X134279642Y-157685000D01*
X134393928Y-157627857D01*
X135193928Y-157627857D02*
X135936785Y-157627857D01*
X135536785Y-158085000D01*
X135708214Y-158085000D01*
X135822500Y-158142142D01*
X135879642Y-158199285D01*
X135936785Y-158313571D01*
X135936785Y-158599285D01*
X135879642Y-158713571D01*
X135822500Y-158770714D01*
X135708214Y-158827857D01*
X135365357Y-158827857D01*
X135251071Y-158770714D01*
X135193928Y-158713571D01*
X136451071Y-158370714D02*
X137365357Y-158370714D01*
X138165357Y-157627857D02*
X138279642Y-157627857D01*
X138393928Y-157685000D01*
X138451071Y-157742142D01*
X138508214Y-157856428D01*
X138565357Y-158085000D01*
X138565357Y-158370714D01*
X138508214Y-158599285D01*
X138451071Y-158713571D01*
X138393928Y-158770714D01*
X138279642Y-158827857D01*
X138165357Y-158827857D01*
X138051071Y-158770714D01*
X137993928Y-158713571D01*
X137936785Y-158599285D01*
X137879642Y-158370714D01*
X137879642Y-158085000D01*
X137936785Y-157856428D01*
X137993928Y-157742142D01*
X138051071Y-157685000D01*
X138165357Y-157627857D01*
X139593928Y-157627857D02*
X139365357Y-157627857D01*
X139251071Y-157685000D01*
X139193928Y-157742142D01*
X139079642Y-157913571D01*
X139022500Y-158142142D01*
X139022500Y-158599285D01*
X139079642Y-158713571D01*
X139136785Y-158770714D01*
X139251071Y-158827857D01*
X139479642Y-158827857D01*
X139593928Y-158770714D01*
X139651071Y-158713571D01*
X139708214Y-158599285D01*
X139708214Y-158313571D01*
X139651071Y-158199285D01*
X139593928Y-158142142D01*
X139479642Y-158085000D01*
X139251071Y-158085000D01*
X139136785Y-158142142D01*
X139079642Y-158199285D01*
X139022500Y-158313571D01*
X140736785Y-158827857D02*
X140736785Y-158199285D01*
X140679642Y-158085000D01*
X140565357Y-158027857D01*
X140336785Y-158027857D01*
X140222500Y-158085000D01*
X140736785Y-158770714D02*
X140622500Y-158827857D01*
X140336785Y-158827857D01*
X140222500Y-158770714D01*
X140165357Y-158656428D01*
X140165357Y-158542142D01*
X140222500Y-158427857D01*
X140336785Y-158370714D01*
X140622500Y-158370714D01*
X140736785Y-158313571D01*
X141936785Y-158827857D02*
X141251071Y-158827857D01*
X141593928Y-158827857D02*
X141593928Y-157627857D01*
X141479642Y-157799285D01*
X141365357Y-157913571D01*
X141251071Y-157970714D01*
X142336785Y-157627857D02*
X143136785Y-157627857D01*
X142622500Y-158827857D01*
X143822500Y-157627857D02*
X143936785Y-157627857D01*
X144051071Y-157685000D01*
X144108214Y-157742142D01*
X144165357Y-157856428D01*
X144222500Y-158085000D01*
X144222500Y-158370714D01*
X144165357Y-158599285D01*
X144108214Y-158713571D01*
X144051071Y-158770714D01*
X143936785Y-158827857D01*
X143822500Y-158827857D01*
X143708214Y-158770714D01*
X143651071Y-158713571D01*
X143593928Y-158599285D01*
X143536785Y-158370714D01*
X143536785Y-158085000D01*
X143593928Y-157856428D01*
X143651071Y-157742142D01*
X143708214Y-157685000D01*
X143822500Y-157627857D01*
X144965357Y-157627857D02*
X145079642Y-157627857D01*
X145193928Y-157685000D01*
X145251071Y-157742142D01*
X145308214Y-157856428D01*
X145365357Y-158085000D01*
X145365357Y-158370714D01*
X145308214Y-158599285D01*
X145251071Y-158713571D01*
X145193928Y-158770714D01*
X145079642Y-158827857D01*
X144965357Y-158827857D01*
X144851071Y-158770714D01*
X144793928Y-158713571D01*
X144736785Y-158599285D01*
X144679642Y-158370714D01*
X144679642Y-158085000D01*
X144736785Y-157856428D01*
X144793928Y-157742142D01*
X144851071Y-157685000D01*
X144965357Y-157627857D01*
D11*
G36*
X125972439Y-156897805D02*
G01*
X125976389Y-157077722D01*
X126156305Y-157081671D01*
X126336222Y-157085621D01*
X126336222Y-157408490D01*
X126156305Y-157412439D01*
X125976389Y-157416389D01*
X125972439Y-157596305D01*
X125968490Y-157776222D01*
X125645621Y-157776222D01*
X125641671Y-157596305D01*
X125637722Y-157416389D01*
X125457805Y-157412439D01*
X125277889Y-157408490D01*
X125277889Y-157085621D01*
X125457805Y-157081671D01*
X125637722Y-157077722D01*
X125641671Y-156897805D01*
X125645621Y-156717889D01*
X125968490Y-156717889D01*
X125972439Y-156897805D01*
G37*
X125972439Y-156897805D02*
X125976389Y-157077722D01*
X126156305Y-157081671D01*
X126336222Y-157085621D01*
X126336222Y-157408490D01*
X126156305Y-157412439D01*
X125976389Y-157416389D01*
X125972439Y-157596305D01*
X125968490Y-157776222D01*
X125645621Y-157776222D01*
X125641671Y-157596305D01*
X125637722Y-157416389D01*
X125457805Y-157412439D01*
X125277889Y-157408490D01*
X125277889Y-157085621D01*
X125457805Y-157081671D01*
X125637722Y-157077722D01*
X125641671Y-156897805D01*
X125645621Y-156717889D01*
X125968490Y-156717889D01*
X125972439Y-156897805D01*
G36*
X125969333Y-154696102D02*
G01*
X126063869Y-154705788D01*
X126322960Y-154746461D01*
X126578270Y-154815028D01*
X126829979Y-154911540D01*
X126950055Y-154968050D01*
X127092674Y-155043651D01*
X127219534Y-155121262D01*
X127337813Y-155206129D01*
X127454691Y-155303492D01*
X127577345Y-155418597D01*
X127606554Y-155447557D01*
X127726386Y-155572508D01*
X127827294Y-155690062D01*
X127914522Y-155807398D01*
X127993312Y-155931694D01*
X128068909Y-156070130D01*
X128086061Y-156104055D01*
X128196061Y-156354092D01*
X128278089Y-156607644D01*
X128332199Y-156864891D01*
X128348323Y-156990241D01*
X128358008Y-157084778D01*
X128650444Y-157084778D01*
X128650444Y-157409333D01*
X128357399Y-157409333D01*
X128347535Y-157504583D01*
X128307659Y-157761009D01*
X128241477Y-158011033D01*
X128148236Y-158257208D01*
X128086061Y-158390055D01*
X128010460Y-158532674D01*
X127932848Y-158659534D01*
X127847982Y-158777813D01*
X127750619Y-158894691D01*
X127635514Y-159017345D01*
X127606554Y-159046554D01*
X127481603Y-159166386D01*
X127364049Y-159267294D01*
X127246713Y-159354522D01*
X127122416Y-159433312D01*
X126983980Y-159508909D01*
X126950055Y-159526061D01*
X126700019Y-159636061D01*
X126446466Y-159718089D01*
X126189220Y-159772199D01*
X126063869Y-159788323D01*
X125969333Y-159798008D01*
X125969333Y-160090444D01*
X125644778Y-160090444D01*
X125644778Y-159798008D01*
X125550241Y-159788323D01*
X125291151Y-159747649D01*
X125035840Y-159679083D01*
X124784132Y-159582570D01*
X124664055Y-159526061D01*
X124521437Y-159450460D01*
X124394577Y-159372848D01*
X124276298Y-159287982D01*
X124159420Y-159190619D01*
X124036765Y-159075514D01*
X124007557Y-159046554D01*
X123887725Y-158921603D01*
X123786817Y-158804049D01*
X123699589Y-158686713D01*
X123620798Y-158562416D01*
X123545202Y-158423980D01*
X123528050Y-158390055D01*
X123418050Y-158140019D01*
X123336021Y-157886466D01*
X123281912Y-157629220D01*
X123265788Y-157503869D01*
X123256102Y-157409333D01*
X122963667Y-157409333D01*
X122963667Y-157084778D01*
X123256102Y-157084778D01*
X123594769Y-157084778D01*
X125009778Y-157084778D01*
X125009778Y-157409333D01*
X123594769Y-157409333D01*
X123604476Y-157504583D01*
X123640361Y-157724313D01*
X123702406Y-157944567D01*
X123788889Y-158161475D01*
X123898093Y-158371165D01*
X124028296Y-158569766D01*
X124140199Y-158710858D01*
X124293404Y-158868821D01*
X124468050Y-159013377D01*
X124659457Y-159141804D01*
X124862945Y-159251383D01*
X125073835Y-159339390D01*
X125287446Y-159403106D01*
X125356532Y-159418102D01*
X125429763Y-159432329D01*
X125482120Y-159441925D01*
X125520380Y-159447910D01*
X125551318Y-159451303D01*
X125581713Y-159453125D01*
X125591861Y-159453523D01*
X125644778Y-159455444D01*
X125644778Y-158961555D01*
X125969333Y-158961555D01*
X125969333Y-159459342D01*
X126064583Y-159449635D01*
X126283298Y-159413883D01*
X126502090Y-159352335D01*
X126716909Y-159267114D01*
X126923706Y-159160343D01*
X127118431Y-159034146D01*
X127297033Y-158890645D01*
X127455463Y-158731964D01*
X127473912Y-158710858D01*
X127618922Y-158523270D01*
X127744237Y-158321651D01*
X127848139Y-158109873D01*
X127928907Y-157891808D01*
X127984824Y-157671326D01*
X128009635Y-157504583D01*
X128019342Y-157409333D01*
X127521555Y-157409333D01*
X127521555Y-157084778D01*
X128019342Y-157084778D01*
X128009635Y-156989528D01*
X127973749Y-156769798D01*
X127911705Y-156549544D01*
X127825222Y-156332636D01*
X127716018Y-156122946D01*
X127585814Y-155924345D01*
X127473912Y-155783253D01*
X127318331Y-155622797D01*
X127142063Y-155477253D01*
X126949159Y-155348743D01*
X126743669Y-155239391D01*
X126529643Y-155151319D01*
X126311131Y-155086651D01*
X126092182Y-155047509D01*
X126064583Y-155044476D01*
X125969333Y-155034769D01*
X125969333Y-156449778D01*
X125644778Y-156449778D01*
X125644778Y-155034769D01*
X125549528Y-155044476D01*
X125330813Y-155080228D01*
X125112021Y-155141776D01*
X124897202Y-155226997D01*
X124690405Y-155333767D01*
X124495680Y-155459965D01*
X124317078Y-155603466D01*
X124158648Y-155762147D01*
X124140199Y-155783253D01*
X123995189Y-155970841D01*
X123869874Y-156172460D01*
X123765972Y-156384238D01*
X123685204Y-156602303D01*
X123629287Y-156822784D01*
X123604476Y-156989528D01*
X123594769Y-157084778D01*
X123256102Y-157084778D01*
X123265788Y-156990241D01*
X123306461Y-156731151D01*
X123375028Y-156475840D01*
X123471540Y-156224132D01*
X123528050Y-156104055D01*
X123603651Y-155961437D01*
X123681262Y-155834577D01*
X123766129Y-155716298D01*
X123863492Y-155599420D01*
X123978597Y-155476765D01*
X124007557Y-155447557D01*
X124132508Y-155327725D01*
X124250062Y-155226817D01*
X124367398Y-155139589D01*
X124491694Y-155060798D01*
X124630130Y-154985202D01*
X124664055Y-154968050D01*
X124914092Y-154858050D01*
X125167644Y-154776021D01*
X125424891Y-154721912D01*
X125550241Y-154705788D01*
X125644778Y-154696102D01*
X125644778Y-154403667D01*
X125969333Y-154403667D01*
X125969333Y-154696102D01*
G37*
X125969333Y-154696102D02*
X126063869Y-154705788D01*
X126322960Y-154746461D01*
X126578270Y-154815028D01*
X126829979Y-154911540D01*
X126950055Y-154968050D01*
X127092674Y-155043651D01*
X127219534Y-155121262D01*
X127337813Y-155206129D01*
X127454691Y-155303492D01*
X127577345Y-155418597D01*
X127606554Y-155447557D01*
X127726386Y-155572508D01*
X127827294Y-155690062D01*
X127914522Y-155807398D01*
X127993312Y-155931694D01*
X128068909Y-156070130D01*
X128086061Y-156104055D01*
X128196061Y-156354092D01*
X128278089Y-156607644D01*
X128332199Y-156864891D01*
X128348323Y-156990241D01*
X128358008Y-157084778D01*
X128650444Y-157084778D01*
X128650444Y-157409333D01*
X128357399Y-157409333D01*
X128347535Y-157504583D01*
X128307659Y-157761009D01*
X128241477Y-158011033D01*
X128148236Y-158257208D01*
X128086061Y-158390055D01*
X128010460Y-158532674D01*
X127932848Y-158659534D01*
X127847982Y-158777813D01*
X127750619Y-158894691D01*
X127635514Y-159017345D01*
X127606554Y-159046554D01*
X127481603Y-159166386D01*
X127364049Y-159267294D01*
X127246713Y-159354522D01*
X127122416Y-159433312D01*
X126983980Y-159508909D01*
X126950055Y-159526061D01*
X126700019Y-159636061D01*
X126446466Y-159718089D01*
X126189220Y-159772199D01*
X126063869Y-159788323D01*
X125969333Y-159798008D01*
X125969333Y-160090444D01*
X125644778Y-160090444D01*
X125644778Y-159798008D01*
X125550241Y-159788323D01*
X125291151Y-159747649D01*
X125035840Y-159679083D01*
X124784132Y-159582570D01*
X124664055Y-159526061D01*
X124521437Y-159450460D01*
X124394577Y-159372848D01*
X124276298Y-159287982D01*
X124159420Y-159190619D01*
X124036765Y-159075514D01*
X124007557Y-159046554D01*
X123887725Y-158921603D01*
X123786817Y-158804049D01*
X123699589Y-158686713D01*
X123620798Y-158562416D01*
X123545202Y-158423980D01*
X123528050Y-158390055D01*
X123418050Y-158140019D01*
X123336021Y-157886466D01*
X123281912Y-157629220D01*
X123265788Y-157503869D01*
X123256102Y-157409333D01*
X122963667Y-157409333D01*
X122963667Y-157084778D01*
X123256102Y-157084778D01*
X123594769Y-157084778D01*
X125009778Y-157084778D01*
X125009778Y-157409333D01*
X123594769Y-157409333D01*
X123604476Y-157504583D01*
X123640361Y-157724313D01*
X123702406Y-157944567D01*
X123788889Y-158161475D01*
X123898093Y-158371165D01*
X124028296Y-158569766D01*
X124140199Y-158710858D01*
X124293404Y-158868821D01*
X124468050Y-159013377D01*
X124659457Y-159141804D01*
X124862945Y-159251383D01*
X125073835Y-159339390D01*
X125287446Y-159403106D01*
X125356532Y-159418102D01*
X125429763Y-159432329D01*
X125482120Y-159441925D01*
X125520380Y-159447910D01*
X125551318Y-159451303D01*
X125581713Y-159453125D01*
X125591861Y-159453523D01*
X125644778Y-159455444D01*
X125644778Y-158961555D01*
X125969333Y-158961555D01*
X125969333Y-159459342D01*
X126064583Y-159449635D01*
X126283298Y-159413883D01*
X126502090Y-159352335D01*
X126716909Y-159267114D01*
X126923706Y-159160343D01*
X127118431Y-159034146D01*
X127297033Y-158890645D01*
X127455463Y-158731964D01*
X127473912Y-158710858D01*
X127618922Y-158523270D01*
X127744237Y-158321651D01*
X127848139Y-158109873D01*
X127928907Y-157891808D01*
X127984824Y-157671326D01*
X128009635Y-157504583D01*
X128019342Y-157409333D01*
X127521555Y-157409333D01*
X127521555Y-157084778D01*
X128019342Y-157084778D01*
X128009635Y-156989528D01*
X127973749Y-156769798D01*
X127911705Y-156549544D01*
X127825222Y-156332636D01*
X127716018Y-156122946D01*
X127585814Y-155924345D01*
X127473912Y-155783253D01*
X127318331Y-155622797D01*
X127142063Y-155477253D01*
X126949159Y-155348743D01*
X126743669Y-155239391D01*
X126529643Y-155151319D01*
X126311131Y-155086651D01*
X126092182Y-155047509D01*
X126064583Y-155044476D01*
X125969333Y-155034769D01*
X125969333Y-156449778D01*
X125644778Y-156449778D01*
X125644778Y-155034769D01*
X125549528Y-155044476D01*
X125330813Y-155080228D01*
X125112021Y-155141776D01*
X124897202Y-155226997D01*
X124690405Y-155333767D01*
X124495680Y-155459965D01*
X124317078Y-155603466D01*
X124158648Y-155762147D01*
X124140199Y-155783253D01*
X123995189Y-155970841D01*
X123869874Y-156172460D01*
X123765972Y-156384238D01*
X123685204Y-156602303D01*
X123629287Y-156822784D01*
X123604476Y-156989528D01*
X123594769Y-157084778D01*
X123256102Y-157084778D01*
X123265788Y-156990241D01*
X123306461Y-156731151D01*
X123375028Y-156475840D01*
X123471540Y-156224132D01*
X123528050Y-156104055D01*
X123603651Y-155961437D01*
X123681262Y-155834577D01*
X123766129Y-155716298D01*
X123863492Y-155599420D01*
X123978597Y-155476765D01*
X124007557Y-155447557D01*
X124132508Y-155327725D01*
X124250062Y-155226817D01*
X124367398Y-155139589D01*
X124491694Y-155060798D01*
X124630130Y-154985202D01*
X124664055Y-154968050D01*
X124914092Y-154858050D01*
X125167644Y-154776021D01*
X125424891Y-154721912D01*
X125550241Y-154705788D01*
X125644778Y-154696102D01*
X125644778Y-154403667D01*
X125969333Y-154403667D01*
X125969333Y-154696102D01*
G36*
G01*
X113437500Y-148699999D02*
X113437500Y-149600001D01*
G75*
G02*
X113187501Y-149850000I-249999J0D01*
G01*
X112662499Y-149850000D01*
G75*
G02*
X112412500Y-149600001I0J249999D01*
G01*
X112412500Y-148699999D01*
G75*
G02*
X112662499Y-148450000I249999J0D01*
G01*
X113187501Y-148450000D01*
G75*
G02*
X113437500Y-148699999I0J-249999D01*
G01*
G37*
G36*
G01*
X115262500Y-148699999D02*
X115262500Y-149600001D01*
G75*
G02*
X115012501Y-149850000I-249999J0D01*
G01*
X114487499Y-149850000D01*
G75*
G02*
X114237500Y-149600001I0J249999D01*
G01*
X114237500Y-148699999D01*
G75*
G02*
X114487499Y-148450000I249999J0D01*
G01*
X115012501Y-148450000D01*
G75*
G02*
X115262500Y-148699999I0J-249999D01*
G01*
G37*
G36*
G01*
X134770000Y-135175000D02*
X134770000Y-134225000D01*
G75*
G02*
X135020000Y-133975000I250000J0D01*
G01*
X135520000Y-133975000D01*
G75*
G02*
X135770000Y-134225000I0J-250000D01*
G01*
X135770000Y-135175000D01*
G75*
G02*
X135520000Y-135425000I-250000J0D01*
G01*
X135020000Y-135425000D01*
G75*
G02*
X134770000Y-135175000I0J250000D01*
G01*
G37*
G36*
G01*
X132870000Y-135175000D02*
X132870000Y-134225000D01*
G75*
G02*
X133120000Y-133975000I250000J0D01*
G01*
X133620000Y-133975000D01*
G75*
G02*
X133870000Y-134225000I0J-250000D01*
G01*
X133870000Y-135175000D01*
G75*
G02*
X133620000Y-135425000I-250000J0D01*
G01*
X133120000Y-135425000D01*
G75*
G02*
X132870000Y-135175000I0J250000D01*
G01*
G37*
D12*
X122370000Y-116280000D03*
X119870000Y-116280000D03*
G36*
G01*
X116520000Y-117005000D02*
X116520000Y-115555000D01*
G75*
G02*
X116770000Y-115305000I250000J0D01*
G01*
X117970000Y-115305000D01*
G75*
G02*
X118220000Y-115555000I0J-250000D01*
G01*
X118220000Y-117005000D01*
G75*
G02*
X117970000Y-117255000I-250000J0D01*
G01*
X116770000Y-117255000D01*
G75*
G02*
X116520000Y-117005000I0J250000D01*
G01*
G37*
G36*
G01*
X102660000Y-164555000D02*
X102660000Y-165505000D01*
G75*
G02*
X102410000Y-165755000I-250000J0D01*
G01*
X101910000Y-165755000D01*
G75*
G02*
X101660000Y-165505000I0J250000D01*
G01*
X101660000Y-164555000D01*
G75*
G02*
X101910000Y-164305000I250000J0D01*
G01*
X102410000Y-164305000D01*
G75*
G02*
X102660000Y-164555000I0J-250000D01*
G01*
G37*
G36*
G01*
X104560000Y-164555000D02*
X104560000Y-165505000D01*
G75*
G02*
X104310000Y-165755000I-250000J0D01*
G01*
X103810000Y-165755000D01*
G75*
G02*
X103560000Y-165505000I0J250000D01*
G01*
X103560000Y-164555000D01*
G75*
G02*
X103810000Y-164305000I250000J0D01*
G01*
X104310000Y-164305000D01*
G75*
G02*
X104560000Y-164555000I0J-250000D01*
G01*
G37*
G36*
G01*
X89930000Y-121134999D02*
X89930000Y-121985001D01*
G75*
G02*
X89680001Y-122235000I-249999J0D01*
G01*
X88779999Y-122235000D01*
G75*
G02*
X88530000Y-121985001I0J249999D01*
G01*
X88530000Y-121134999D01*
G75*
G02*
X88779999Y-120885000I249999J0D01*
G01*
X89680001Y-120885000D01*
G75*
G02*
X89930000Y-121134999I0J-249999D01*
G01*
G37*
G36*
G01*
X92630000Y-121134999D02*
X92630000Y-121985001D01*
G75*
G02*
X92380001Y-122235000I-249999J0D01*
G01*
X91479999Y-122235000D01*
G75*
G02*
X91230000Y-121985001I0J249999D01*
G01*
X91230000Y-121134999D01*
G75*
G02*
X91479999Y-120885000I249999J0D01*
G01*
X92380001Y-120885000D01*
G75*
G02*
X92630000Y-121134999I0J-249999D01*
G01*
G37*
G36*
G01*
X78510001Y-118080000D02*
X77609999Y-118080000D01*
G75*
G02*
X77360000Y-117830001I0J249999D01*
G01*
X77360000Y-117304999D01*
G75*
G02*
X77609999Y-117055000I249999J0D01*
G01*
X78510001Y-117055000D01*
G75*
G02*
X78760000Y-117304999I0J-249999D01*
G01*
X78760000Y-117830001D01*
G75*
G02*
X78510001Y-118080000I-249999J0D01*
G01*
G37*
G36*
G01*
X78510001Y-119905000D02*
X77609999Y-119905000D01*
G75*
G02*
X77360000Y-119655001I0J249999D01*
G01*
X77360000Y-119129999D01*
G75*
G02*
X77609999Y-118880000I249999J0D01*
G01*
X78510001Y-118880000D01*
G75*
G02*
X78760000Y-119129999I0J-249999D01*
G01*
X78760000Y-119655001D01*
G75*
G02*
X78510001Y-119905000I-249999J0D01*
G01*
G37*
G36*
G01*
X80440001Y-118080000D02*
X79539999Y-118080000D01*
G75*
G02*
X79290000Y-117830001I0J249999D01*
G01*
X79290000Y-117304999D01*
G75*
G02*
X79539999Y-117055000I249999J0D01*
G01*
X80440001Y-117055000D01*
G75*
G02*
X80690000Y-117304999I0J-249999D01*
G01*
X80690000Y-117830001D01*
G75*
G02*
X80440001Y-118080000I-249999J0D01*
G01*
G37*
G36*
G01*
X80440001Y-119905000D02*
X79539999Y-119905000D01*
G75*
G02*
X79290000Y-119655001I0J249999D01*
G01*
X79290000Y-119129999D01*
G75*
G02*
X79539999Y-118880000I249999J0D01*
G01*
X80440001Y-118880000D01*
G75*
G02*
X80690000Y-119129999I0J-249999D01*
G01*
X80690000Y-119655001D01*
G75*
G02*
X80440001Y-119905000I-249999J0D01*
G01*
G37*
D13*
X168370000Y-130820000D03*
X166270000Y-130820000D03*
D14*
X87190000Y-123150000D03*
X87190000Y-121050000D03*
G36*
G01*
X151060000Y-150845000D02*
X151060000Y-150695000D01*
G75*
G02*
X151135000Y-150620000I75000J0D01*
G01*
X152460000Y-150620000D01*
G75*
G02*
X152535000Y-150695000I0J-75000D01*
G01*
X152535000Y-150845000D01*
G75*
G02*
X152460000Y-150920000I-75000J0D01*
G01*
X151135000Y-150920000D01*
G75*
G02*
X151060000Y-150845000I0J75000D01*
G01*
G37*
G36*
G01*
X151060000Y-151345000D02*
X151060000Y-151195000D01*
G75*
G02*
X151135000Y-151120000I75000J0D01*
G01*
X152460000Y-151120000D01*
G75*
G02*
X152535000Y-151195000I0J-75000D01*
G01*
X152535000Y-151345000D01*
G75*
G02*
X152460000Y-151420000I-75000J0D01*
G01*
X151135000Y-151420000D01*
G75*
G02*
X151060000Y-151345000I0J75000D01*
G01*
G37*
G36*
G01*
X151060000Y-151845000D02*
X151060000Y-151695000D01*
G75*
G02*
X151135000Y-151620000I75000J0D01*
G01*
X152460000Y-151620000D01*
G75*
G02*
X152535000Y-151695000I0J-75000D01*
G01*
X152535000Y-151845000D01*
G75*
G02*
X152460000Y-151920000I-75000J0D01*
G01*
X151135000Y-151920000D01*
G75*
G02*
X151060000Y-151845000I0J75000D01*
G01*
G37*
G36*
G01*
X151060000Y-152345000D02*
X151060000Y-152195000D01*
G75*
G02*
X151135000Y-152120000I75000J0D01*
G01*
X152460000Y-152120000D01*
G75*
G02*
X152535000Y-152195000I0J-75000D01*
G01*
X152535000Y-152345000D01*
G75*
G02*
X152460000Y-152420000I-75000J0D01*
G01*
X151135000Y-152420000D01*
G75*
G02*
X151060000Y-152345000I0J75000D01*
G01*
G37*
G36*
G01*
X151060000Y-152845000D02*
X151060000Y-152695000D01*
G75*
G02*
X151135000Y-152620000I75000J0D01*
G01*
X152460000Y-152620000D01*
G75*
G02*
X152535000Y-152695000I0J-75000D01*
G01*
X152535000Y-152845000D01*
G75*
G02*
X152460000Y-152920000I-75000J0D01*
G01*
X151135000Y-152920000D01*
G75*
G02*
X151060000Y-152845000I0J75000D01*
G01*
G37*
G36*
G01*
X151060000Y-153345000D02*
X151060000Y-153195000D01*
G75*
G02*
X151135000Y-153120000I75000J0D01*
G01*
X152460000Y-153120000D01*
G75*
G02*
X152535000Y-153195000I0J-75000D01*
G01*
X152535000Y-153345000D01*
G75*
G02*
X152460000Y-153420000I-75000J0D01*
G01*
X151135000Y-153420000D01*
G75*
G02*
X151060000Y-153345000I0J75000D01*
G01*
G37*
G36*
G01*
X151060000Y-153845000D02*
X151060000Y-153695000D01*
G75*
G02*
X151135000Y-153620000I75000J0D01*
G01*
X152460000Y-153620000D01*
G75*
G02*
X152535000Y-153695000I0J-75000D01*
G01*
X152535000Y-153845000D01*
G75*
G02*
X152460000Y-153920000I-75000J0D01*
G01*
X151135000Y-153920000D01*
G75*
G02*
X151060000Y-153845000I0J75000D01*
G01*
G37*
G36*
G01*
X151060000Y-154345000D02*
X151060000Y-154195000D01*
G75*
G02*
X151135000Y-154120000I75000J0D01*
G01*
X152460000Y-154120000D01*
G75*
G02*
X152535000Y-154195000I0J-75000D01*
G01*
X152535000Y-154345000D01*
G75*
G02*
X152460000Y-154420000I-75000J0D01*
G01*
X151135000Y-154420000D01*
G75*
G02*
X151060000Y-154345000I0J75000D01*
G01*
G37*
G36*
G01*
X151060000Y-154845000D02*
X151060000Y-154695000D01*
G75*
G02*
X151135000Y-154620000I75000J0D01*
G01*
X152460000Y-154620000D01*
G75*
G02*
X152535000Y-154695000I0J-75000D01*
G01*
X152535000Y-154845000D01*
G75*
G02*
X152460000Y-154920000I-75000J0D01*
G01*
X151135000Y-154920000D01*
G75*
G02*
X151060000Y-154845000I0J75000D01*
G01*
G37*
G36*
G01*
X151060000Y-155345000D02*
X151060000Y-155195000D01*
G75*
G02*
X151135000Y-155120000I75000J0D01*
G01*
X152460000Y-155120000D01*
G75*
G02*
X152535000Y-155195000I0J-75000D01*
G01*
X152535000Y-155345000D01*
G75*
G02*
X152460000Y-155420000I-75000J0D01*
G01*
X151135000Y-155420000D01*
G75*
G02*
X151060000Y-155345000I0J75000D01*
G01*
G37*
G36*
G01*
X151060000Y-155845000D02*
X151060000Y-155695000D01*
G75*
G02*
X151135000Y-155620000I75000J0D01*
G01*
X152460000Y-155620000D01*
G75*
G02*
X152535000Y-155695000I0J-75000D01*
G01*
X152535000Y-155845000D01*
G75*
G02*
X152460000Y-155920000I-75000J0D01*
G01*
X151135000Y-155920000D01*
G75*
G02*
X151060000Y-155845000I0J75000D01*
G01*
G37*
G36*
G01*
X151060000Y-156345000D02*
X151060000Y-156195000D01*
G75*
G02*
X151135000Y-156120000I75000J0D01*
G01*
X152460000Y-156120000D01*
G75*
G02*
X152535000Y-156195000I0J-75000D01*
G01*
X152535000Y-156345000D01*
G75*
G02*
X152460000Y-156420000I-75000J0D01*
G01*
X151135000Y-156420000D01*
G75*
G02*
X151060000Y-156345000I0J75000D01*
G01*
G37*
G36*
G01*
X153060000Y-158345000D02*
X153060000Y-157020000D01*
G75*
G02*
X153135000Y-156945000I75000J0D01*
G01*
X153285000Y-156945000D01*
G75*
G02*
X153360000Y-157020000I0J-75000D01*
G01*
X153360000Y-158345000D01*
G75*
G02*
X153285000Y-158420000I-75000J0D01*
G01*
X153135000Y-158420000D01*
G75*
G02*
X153060000Y-158345000I0J75000D01*
G01*
G37*
G36*
G01*
X153560000Y-158345000D02*
X153560000Y-157020000D01*
G75*
G02*
X153635000Y-156945000I75000J0D01*
G01*
X153785000Y-156945000D01*
G75*
G02*
X153860000Y-157020000I0J-75000D01*
G01*
X153860000Y-158345000D01*
G75*
G02*
X153785000Y-158420000I-75000J0D01*
G01*
X153635000Y-158420000D01*
G75*
G02*
X153560000Y-158345000I0J75000D01*
G01*
G37*
G36*
G01*
X154060000Y-158345000D02*
X154060000Y-157020000D01*
G75*
G02*
X154135000Y-156945000I75000J0D01*
G01*
X154285000Y-156945000D01*
G75*
G02*
X154360000Y-157020000I0J-75000D01*
G01*
X154360000Y-158345000D01*
G75*
G02*
X154285000Y-158420000I-75000J0D01*
G01*
X154135000Y-158420000D01*
G75*
G02*
X154060000Y-158345000I0J75000D01*
G01*
G37*
G36*
G01*
X154560000Y-158345000D02*
X154560000Y-157020000D01*
G75*
G02*
X154635000Y-156945000I75000J0D01*
G01*
X154785000Y-156945000D01*
G75*
G02*
X154860000Y-157020000I0J-75000D01*
G01*
X154860000Y-158345000D01*
G75*
G02*
X154785000Y-158420000I-75000J0D01*
G01*
X154635000Y-158420000D01*
G75*
G02*
X154560000Y-158345000I0J75000D01*
G01*
G37*
G36*
G01*
X155060000Y-158345000D02*
X155060000Y-157020000D01*
G75*
G02*
X155135000Y-156945000I75000J0D01*
G01*
X155285000Y-156945000D01*
G75*
G02*
X155360000Y-157020000I0J-75000D01*
G01*
X155360000Y-158345000D01*
G75*
G02*
X155285000Y-158420000I-75000J0D01*
G01*
X155135000Y-158420000D01*
G75*
G02*
X155060000Y-158345000I0J75000D01*
G01*
G37*
G36*
G01*
X155560000Y-158345000D02*
X155560000Y-157020000D01*
G75*
G02*
X155635000Y-156945000I75000J0D01*
G01*
X155785000Y-156945000D01*
G75*
G02*
X155860000Y-157020000I0J-75000D01*
G01*
X155860000Y-158345000D01*
G75*
G02*
X155785000Y-158420000I-75000J0D01*
G01*
X155635000Y-158420000D01*
G75*
G02*
X155560000Y-158345000I0J75000D01*
G01*
G37*
G36*
G01*
X156060000Y-158345000D02*
X156060000Y-157020000D01*
G75*
G02*
X156135000Y-156945000I75000J0D01*
G01*
X156285000Y-156945000D01*
G75*
G02*
X156360000Y-157020000I0J-75000D01*
G01*
X156360000Y-158345000D01*
G75*
G02*
X156285000Y-158420000I-75000J0D01*
G01*
X156135000Y-158420000D01*
G75*
G02*
X156060000Y-158345000I0J75000D01*
G01*
G37*
G36*
G01*
X156560000Y-158345000D02*
X156560000Y-157020000D01*
G75*
G02*
X156635000Y-156945000I75000J0D01*
G01*
X156785000Y-156945000D01*
G75*
G02*
X156860000Y-157020000I0J-75000D01*
G01*
X156860000Y-158345000D01*
G75*
G02*
X156785000Y-158420000I-75000J0D01*
G01*
X156635000Y-158420000D01*
G75*
G02*
X156560000Y-158345000I0J75000D01*
G01*
G37*
G36*
G01*
X157060000Y-158345000D02*
X157060000Y-157020000D01*
G75*
G02*
X157135000Y-156945000I75000J0D01*
G01*
X157285000Y-156945000D01*
G75*
G02*
X157360000Y-157020000I0J-75000D01*
G01*
X157360000Y-158345000D01*
G75*
G02*
X157285000Y-158420000I-75000J0D01*
G01*
X157135000Y-158420000D01*
G75*
G02*
X157060000Y-158345000I0J75000D01*
G01*
G37*
G36*
G01*
X157560000Y-158345000D02*
X157560000Y-157020000D01*
G75*
G02*
X157635000Y-156945000I75000J0D01*
G01*
X157785000Y-156945000D01*
G75*
G02*
X157860000Y-157020000I0J-75000D01*
G01*
X157860000Y-158345000D01*
G75*
G02*
X157785000Y-158420000I-75000J0D01*
G01*
X157635000Y-158420000D01*
G75*
G02*
X157560000Y-158345000I0J75000D01*
G01*
G37*
G36*
G01*
X158060000Y-158345000D02*
X158060000Y-157020000D01*
G75*
G02*
X158135000Y-156945000I75000J0D01*
G01*
X158285000Y-156945000D01*
G75*
G02*
X158360000Y-157020000I0J-75000D01*
G01*
X158360000Y-158345000D01*
G75*
G02*
X158285000Y-158420000I-75000J0D01*
G01*
X158135000Y-158420000D01*
G75*
G02*
X158060000Y-158345000I0J75000D01*
G01*
G37*
G36*
G01*
X158560000Y-158345000D02*
X158560000Y-157020000D01*
G75*
G02*
X158635000Y-156945000I75000J0D01*
G01*
X158785000Y-156945000D01*
G75*
G02*
X158860000Y-157020000I0J-75000D01*
G01*
X158860000Y-158345000D01*
G75*
G02*
X158785000Y-158420000I-75000J0D01*
G01*
X158635000Y-158420000D01*
G75*
G02*
X158560000Y-158345000I0J75000D01*
G01*
G37*
G36*
G01*
X159385000Y-156345000D02*
X159385000Y-156195000D01*
G75*
G02*
X159460000Y-156120000I75000J0D01*
G01*
X160785000Y-156120000D01*
G75*
G02*
X160860000Y-156195000I0J-75000D01*
G01*
X160860000Y-156345000D01*
G75*
G02*
X160785000Y-156420000I-75000J0D01*
G01*
X159460000Y-156420000D01*
G75*
G02*
X159385000Y-156345000I0J75000D01*
G01*
G37*
G36*
G01*
X159385000Y-155845000D02*
X159385000Y-155695000D01*
G75*
G02*
X159460000Y-155620000I75000J0D01*
G01*
X160785000Y-155620000D01*
G75*
G02*
X160860000Y-155695000I0J-75000D01*
G01*
X160860000Y-155845000D01*
G75*
G02*
X160785000Y-155920000I-75000J0D01*
G01*
X159460000Y-155920000D01*
G75*
G02*
X159385000Y-155845000I0J75000D01*
G01*
G37*
G36*
G01*
X159385000Y-155345000D02*
X159385000Y-155195000D01*
G75*
G02*
X159460000Y-155120000I75000J0D01*
G01*
X160785000Y-155120000D01*
G75*
G02*
X160860000Y-155195000I0J-75000D01*
G01*
X160860000Y-155345000D01*
G75*
G02*
X160785000Y-155420000I-75000J0D01*
G01*
X159460000Y-155420000D01*
G75*
G02*
X159385000Y-155345000I0J75000D01*
G01*
G37*
G36*
G01*
X159385000Y-154845000D02*
X159385000Y-154695000D01*
G75*
G02*
X159460000Y-154620000I75000J0D01*
G01*
X160785000Y-154620000D01*
G75*
G02*
X160860000Y-154695000I0J-75000D01*
G01*
X160860000Y-154845000D01*
G75*
G02*
X160785000Y-154920000I-75000J0D01*
G01*
X159460000Y-154920000D01*
G75*
G02*
X159385000Y-154845000I0J75000D01*
G01*
G37*
G36*
G01*
X159385000Y-154345000D02*
X159385000Y-154195000D01*
G75*
G02*
X159460000Y-154120000I75000J0D01*
G01*
X160785000Y-154120000D01*
G75*
G02*
X160860000Y-154195000I0J-75000D01*
G01*
X160860000Y-154345000D01*
G75*
G02*
X160785000Y-154420000I-75000J0D01*
G01*
X159460000Y-154420000D01*
G75*
G02*
X159385000Y-154345000I0J75000D01*
G01*
G37*
G36*
G01*
X159385000Y-153845000D02*
X159385000Y-153695000D01*
G75*
G02*
X159460000Y-153620000I75000J0D01*
G01*
X160785000Y-153620000D01*
G75*
G02*
X160860000Y-153695000I0J-75000D01*
G01*
X160860000Y-153845000D01*
G75*
G02*
X160785000Y-153920000I-75000J0D01*
G01*
X159460000Y-153920000D01*
G75*
G02*
X159385000Y-153845000I0J75000D01*
G01*
G37*
G36*
G01*
X159385000Y-153345000D02*
X159385000Y-153195000D01*
G75*
G02*
X159460000Y-153120000I75000J0D01*
G01*
X160785000Y-153120000D01*
G75*
G02*
X160860000Y-153195000I0J-75000D01*
G01*
X160860000Y-153345000D01*
G75*
G02*
X160785000Y-153420000I-75000J0D01*
G01*
X159460000Y-153420000D01*
G75*
G02*
X159385000Y-153345000I0J75000D01*
G01*
G37*
G36*
G01*
X159385000Y-152845000D02*
X159385000Y-152695000D01*
G75*
G02*
X159460000Y-152620000I75000J0D01*
G01*
X160785000Y-152620000D01*
G75*
G02*
X160860000Y-152695000I0J-75000D01*
G01*
X160860000Y-152845000D01*
G75*
G02*
X160785000Y-152920000I-75000J0D01*
G01*
X159460000Y-152920000D01*
G75*
G02*
X159385000Y-152845000I0J75000D01*
G01*
G37*
G36*
G01*
X159385000Y-152345000D02*
X159385000Y-152195000D01*
G75*
G02*
X159460000Y-152120000I75000J0D01*
G01*
X160785000Y-152120000D01*
G75*
G02*
X160860000Y-152195000I0J-75000D01*
G01*
X160860000Y-152345000D01*
G75*
G02*
X160785000Y-152420000I-75000J0D01*
G01*
X159460000Y-152420000D01*
G75*
G02*
X159385000Y-152345000I0J75000D01*
G01*
G37*
G36*
G01*
X159385000Y-151845000D02*
X159385000Y-151695000D01*
G75*
G02*
X159460000Y-151620000I75000J0D01*
G01*
X160785000Y-151620000D01*
G75*
G02*
X160860000Y-151695000I0J-75000D01*
G01*
X160860000Y-151845000D01*
G75*
G02*
X160785000Y-151920000I-75000J0D01*
G01*
X159460000Y-151920000D01*
G75*
G02*
X159385000Y-151845000I0J75000D01*
G01*
G37*
G36*
G01*
X159385000Y-151345000D02*
X159385000Y-151195000D01*
G75*
G02*
X159460000Y-151120000I75000J0D01*
G01*
X160785000Y-151120000D01*
G75*
G02*
X160860000Y-151195000I0J-75000D01*
G01*
X160860000Y-151345000D01*
G75*
G02*
X160785000Y-151420000I-75000J0D01*
G01*
X159460000Y-151420000D01*
G75*
G02*
X159385000Y-151345000I0J75000D01*
G01*
G37*
G36*
G01*
X159385000Y-150845000D02*
X159385000Y-150695000D01*
G75*
G02*
X159460000Y-150620000I75000J0D01*
G01*
X160785000Y-150620000D01*
G75*
G02*
X160860000Y-150695000I0J-75000D01*
G01*
X160860000Y-150845000D01*
G75*
G02*
X160785000Y-150920000I-75000J0D01*
G01*
X159460000Y-150920000D01*
G75*
G02*
X159385000Y-150845000I0J75000D01*
G01*
G37*
G36*
G01*
X158560000Y-150020000D02*
X158560000Y-148695000D01*
G75*
G02*
X158635000Y-148620000I75000J0D01*
G01*
X158785000Y-148620000D01*
G75*
G02*
X158860000Y-148695000I0J-75000D01*
G01*
X158860000Y-150020000D01*
G75*
G02*
X158785000Y-150095000I-75000J0D01*
G01*
X158635000Y-150095000D01*
G75*
G02*
X158560000Y-150020000I0J75000D01*
G01*
G37*
G36*
G01*
X158060000Y-150020000D02*
X158060000Y-148695000D01*
G75*
G02*
X158135000Y-148620000I75000J0D01*
G01*
X158285000Y-148620000D01*
G75*
G02*
X158360000Y-148695000I0J-75000D01*
G01*
X158360000Y-150020000D01*
G75*
G02*
X158285000Y-150095000I-75000J0D01*
G01*
X158135000Y-150095000D01*
G75*
G02*
X158060000Y-150020000I0J75000D01*
G01*
G37*
G36*
G01*
X157560000Y-150020000D02*
X157560000Y-148695000D01*
G75*
G02*
X157635000Y-148620000I75000J0D01*
G01*
X157785000Y-148620000D01*
G75*
G02*
X157860000Y-148695000I0J-75000D01*
G01*
X157860000Y-150020000D01*
G75*
G02*
X157785000Y-150095000I-75000J0D01*
G01*
X157635000Y-150095000D01*
G75*
G02*
X157560000Y-150020000I0J75000D01*
G01*
G37*
G36*
G01*
X157060000Y-150020000D02*
X157060000Y-148695000D01*
G75*
G02*
X157135000Y-148620000I75000J0D01*
G01*
X157285000Y-148620000D01*
G75*
G02*
X157360000Y-148695000I0J-75000D01*
G01*
X157360000Y-150020000D01*
G75*
G02*
X157285000Y-150095000I-75000J0D01*
G01*
X157135000Y-150095000D01*
G75*
G02*
X157060000Y-150020000I0J75000D01*
G01*
G37*
G36*
G01*
X156560000Y-150020000D02*
X156560000Y-148695000D01*
G75*
G02*
X156635000Y-148620000I75000J0D01*
G01*
X156785000Y-148620000D01*
G75*
G02*
X156860000Y-148695000I0J-75000D01*
G01*
X156860000Y-150020000D01*
G75*
G02*
X156785000Y-150095000I-75000J0D01*
G01*
X156635000Y-150095000D01*
G75*
G02*
X156560000Y-150020000I0J75000D01*
G01*
G37*
G36*
G01*
X156060000Y-150020000D02*
X156060000Y-148695000D01*
G75*
G02*
X156135000Y-148620000I75000J0D01*
G01*
X156285000Y-148620000D01*
G75*
G02*
X156360000Y-148695000I0J-75000D01*
G01*
X156360000Y-150020000D01*
G75*
G02*
X156285000Y-150095000I-75000J0D01*
G01*
X156135000Y-150095000D01*
G75*
G02*
X156060000Y-150020000I0J75000D01*
G01*
G37*
G36*
G01*
X155560000Y-150020000D02*
X155560000Y-148695000D01*
G75*
G02*
X155635000Y-148620000I75000J0D01*
G01*
X155785000Y-148620000D01*
G75*
G02*
X155860000Y-148695000I0J-75000D01*
G01*
X155860000Y-150020000D01*
G75*
G02*
X155785000Y-150095000I-75000J0D01*
G01*
X155635000Y-150095000D01*
G75*
G02*
X155560000Y-150020000I0J75000D01*
G01*
G37*
G36*
G01*
X155060000Y-150020000D02*
X155060000Y-148695000D01*
G75*
G02*
X155135000Y-148620000I75000J0D01*
G01*
X155285000Y-148620000D01*
G75*
G02*
X155360000Y-148695000I0J-75000D01*
G01*
X155360000Y-150020000D01*
G75*
G02*
X155285000Y-150095000I-75000J0D01*
G01*
X155135000Y-150095000D01*
G75*
G02*
X155060000Y-150020000I0J75000D01*
G01*
G37*
G36*
G01*
X154560000Y-150020000D02*
X154560000Y-148695000D01*
G75*
G02*
X154635000Y-148620000I75000J0D01*
G01*
X154785000Y-148620000D01*
G75*
G02*
X154860000Y-148695000I0J-75000D01*
G01*
X154860000Y-150020000D01*
G75*
G02*
X154785000Y-150095000I-75000J0D01*
G01*
X154635000Y-150095000D01*
G75*
G02*
X154560000Y-150020000I0J75000D01*
G01*
G37*
G36*
G01*
X154060000Y-150020000D02*
X154060000Y-148695000D01*
G75*
G02*
X154135000Y-148620000I75000J0D01*
G01*
X154285000Y-148620000D01*
G75*
G02*
X154360000Y-148695000I0J-75000D01*
G01*
X154360000Y-150020000D01*
G75*
G02*
X154285000Y-150095000I-75000J0D01*
G01*
X154135000Y-150095000D01*
G75*
G02*
X154060000Y-150020000I0J75000D01*
G01*
G37*
G36*
G01*
X153560000Y-150020000D02*
X153560000Y-148695000D01*
G75*
G02*
X153635000Y-148620000I75000J0D01*
G01*
X153785000Y-148620000D01*
G75*
G02*
X153860000Y-148695000I0J-75000D01*
G01*
X153860000Y-150020000D01*
G75*
G02*
X153785000Y-150095000I-75000J0D01*
G01*
X153635000Y-150095000D01*
G75*
G02*
X153560000Y-150020000I0J75000D01*
G01*
G37*
G36*
G01*
X153060000Y-150020000D02*
X153060000Y-148695000D01*
G75*
G02*
X153135000Y-148620000I75000J0D01*
G01*
X153285000Y-148620000D01*
G75*
G02*
X153360000Y-148695000I0J-75000D01*
G01*
X153360000Y-150020000D01*
G75*
G02*
X153285000Y-150095000I-75000J0D01*
G01*
X153135000Y-150095000D01*
G75*
G02*
X153060000Y-150020000I0J75000D01*
G01*
G37*
D15*
X149700000Y-153660000D03*
X149700000Y-155860000D03*
X148000000Y-155860000D03*
X148000000Y-153660000D03*
G36*
G01*
X95060001Y-147960000D02*
X94159999Y-147960000D01*
G75*
G02*
X93910000Y-147710001I0J249999D01*
G01*
X93910000Y-147184999D01*
G75*
G02*
X94159999Y-146935000I249999J0D01*
G01*
X95060001Y-146935000D01*
G75*
G02*
X95310000Y-147184999I0J-249999D01*
G01*
X95310000Y-147710001D01*
G75*
G02*
X95060001Y-147960000I-249999J0D01*
G01*
G37*
G36*
G01*
X95060001Y-149785000D02*
X94159999Y-149785000D01*
G75*
G02*
X93910000Y-149535001I0J249999D01*
G01*
X93910000Y-149009999D01*
G75*
G02*
X94159999Y-148760000I249999J0D01*
G01*
X95060001Y-148760000D01*
G75*
G02*
X95310000Y-149009999I0J-249999D01*
G01*
X95310000Y-149535001D01*
G75*
G02*
X95060001Y-149785000I-249999J0D01*
G01*
G37*
G36*
G01*
X97020001Y-147960000D02*
X96119999Y-147960000D01*
G75*
G02*
X95870000Y-147710001I0J249999D01*
G01*
X95870000Y-147184999D01*
G75*
G02*
X96119999Y-146935000I249999J0D01*
G01*
X97020001Y-146935000D01*
G75*
G02*
X97270000Y-147184999I0J-249999D01*
G01*
X97270000Y-147710001D01*
G75*
G02*
X97020001Y-147960000I-249999J0D01*
G01*
G37*
G36*
G01*
X97020001Y-149785000D02*
X96119999Y-149785000D01*
G75*
G02*
X95870000Y-149535001I0J249999D01*
G01*
X95870000Y-149009999D01*
G75*
G02*
X96119999Y-148760000I249999J0D01*
G01*
X97020001Y-148760000D01*
G75*
G02*
X97270000Y-149009999I0J-249999D01*
G01*
X97270000Y-149535001D01*
G75*
G02*
X97020001Y-149785000I-249999J0D01*
G01*
G37*
G36*
G01*
X94169999Y-138720000D02*
X95070001Y-138720000D01*
G75*
G02*
X95320000Y-138969999I0J-249999D01*
G01*
X95320000Y-139495001D01*
G75*
G02*
X95070001Y-139745000I-249999J0D01*
G01*
X94169999Y-139745000D01*
G75*
G02*
X93920000Y-139495001I0J249999D01*
G01*
X93920000Y-138969999D01*
G75*
G02*
X94169999Y-138720000I249999J0D01*
G01*
G37*
G36*
G01*
X94169999Y-136895000D02*
X95070001Y-136895000D01*
G75*
G02*
X95320000Y-137144999I0J-249999D01*
G01*
X95320000Y-137670001D01*
G75*
G02*
X95070001Y-137920000I-249999J0D01*
G01*
X94169999Y-137920000D01*
G75*
G02*
X93920000Y-137670001I0J249999D01*
G01*
X93920000Y-137144999D01*
G75*
G02*
X94169999Y-136895000I249999J0D01*
G01*
G37*
G36*
G01*
X96119999Y-137390000D02*
X97020001Y-137390000D01*
G75*
G02*
X97270000Y-137639999I0J-249999D01*
G01*
X97270000Y-138165001D01*
G75*
G02*
X97020001Y-138415000I-249999J0D01*
G01*
X96119999Y-138415000D01*
G75*
G02*
X95870000Y-138165001I0J249999D01*
G01*
X95870000Y-137639999D01*
G75*
G02*
X96119999Y-137390000I249999J0D01*
G01*
G37*
G36*
G01*
X96119999Y-135565000D02*
X97020001Y-135565000D01*
G75*
G02*
X97270000Y-135814999I0J-249999D01*
G01*
X97270000Y-136340001D01*
G75*
G02*
X97020001Y-136590000I-249999J0D01*
G01*
X96119999Y-136590000D01*
G75*
G02*
X95870000Y-136340001I0J249999D01*
G01*
X95870000Y-135814999D01*
G75*
G02*
X96119999Y-135565000I249999J0D01*
G01*
G37*
G36*
G01*
X95070001Y-141350000D02*
X94169999Y-141350000D01*
G75*
G02*
X93920000Y-141100001I0J249999D01*
G01*
X93920000Y-140574999D01*
G75*
G02*
X94169999Y-140325000I249999J0D01*
G01*
X95070001Y-140325000D01*
G75*
G02*
X95320000Y-140574999I0J-249999D01*
G01*
X95320000Y-141100001D01*
G75*
G02*
X95070001Y-141350000I-249999J0D01*
G01*
G37*
G36*
G01*
X95070001Y-143175000D02*
X94169999Y-143175000D01*
G75*
G02*
X93920000Y-142925001I0J249999D01*
G01*
X93920000Y-142399999D01*
G75*
G02*
X94169999Y-142150000I249999J0D01*
G01*
X95070001Y-142150000D01*
G75*
G02*
X95320000Y-142399999I0J-249999D01*
G01*
X95320000Y-142925001D01*
G75*
G02*
X95070001Y-143175000I-249999J0D01*
G01*
G37*
G36*
G01*
X97010001Y-140000000D02*
X96109999Y-140000000D01*
G75*
G02*
X95860000Y-139750001I0J249999D01*
G01*
X95860000Y-139224999D01*
G75*
G02*
X96109999Y-138975000I249999J0D01*
G01*
X97010001Y-138975000D01*
G75*
G02*
X97260000Y-139224999I0J-249999D01*
G01*
X97260000Y-139750001D01*
G75*
G02*
X97010001Y-140000000I-249999J0D01*
G01*
G37*
G36*
G01*
X97010001Y-141825000D02*
X96109999Y-141825000D01*
G75*
G02*
X95860000Y-141575001I0J249999D01*
G01*
X95860000Y-141049999D01*
G75*
G02*
X96109999Y-140800000I249999J0D01*
G01*
X97010001Y-140800000D01*
G75*
G02*
X97260000Y-141049999I0J-249999D01*
G01*
X97260000Y-141575001D01*
G75*
G02*
X97010001Y-141825000I-249999J0D01*
G01*
G37*
G36*
G01*
X95250001Y-129760000D02*
X94349999Y-129760000D01*
G75*
G02*
X94100000Y-129510001I0J249999D01*
G01*
X94100000Y-128984999D01*
G75*
G02*
X94349999Y-128735000I249999J0D01*
G01*
X95250001Y-128735000D01*
G75*
G02*
X95500000Y-128984999I0J-249999D01*
G01*
X95500000Y-129510001D01*
G75*
G02*
X95250001Y-129760000I-249999J0D01*
G01*
G37*
G36*
G01*
X95250001Y-131585000D02*
X94349999Y-131585000D01*
G75*
G02*
X94100000Y-131335001I0J249999D01*
G01*
X94100000Y-130809999D01*
G75*
G02*
X94349999Y-130560000I249999J0D01*
G01*
X95250001Y-130560000D01*
G75*
G02*
X95500000Y-130809999I0J-249999D01*
G01*
X95500000Y-131335001D01*
G75*
G02*
X95250001Y-131585000I-249999J0D01*
G01*
G37*
G36*
G01*
X97160001Y-129760000D02*
X96259999Y-129760000D01*
G75*
G02*
X96010000Y-129510001I0J249999D01*
G01*
X96010000Y-128984999D01*
G75*
G02*
X96259999Y-128735000I249999J0D01*
G01*
X97160001Y-128735000D01*
G75*
G02*
X97410000Y-128984999I0J-249999D01*
G01*
X97410000Y-129510001D01*
G75*
G02*
X97160001Y-129760000I-249999J0D01*
G01*
G37*
G36*
G01*
X97160001Y-131585000D02*
X96259999Y-131585000D01*
G75*
G02*
X96010000Y-131335001I0J249999D01*
G01*
X96010000Y-130809999D01*
G75*
G02*
X96259999Y-130560000I249999J0D01*
G01*
X97160001Y-130560000D01*
G75*
G02*
X97410000Y-130809999I0J-249999D01*
G01*
X97410000Y-131335001D01*
G75*
G02*
X97160001Y-131585000I-249999J0D01*
G01*
G37*
G36*
G01*
X100279999Y-123390000D02*
X101180001Y-123390000D01*
G75*
G02*
X101430000Y-123639999I0J-249999D01*
G01*
X101430000Y-124165001D01*
G75*
G02*
X101180001Y-124415000I-249999J0D01*
G01*
X100279999Y-124415000D01*
G75*
G02*
X100030000Y-124165001I0J249999D01*
G01*
X100030000Y-123639999D01*
G75*
G02*
X100279999Y-123390000I249999J0D01*
G01*
G37*
G36*
G01*
X100279999Y-121565000D02*
X101180001Y-121565000D01*
G75*
G02*
X101430000Y-121814999I0J-249999D01*
G01*
X101430000Y-122340001D01*
G75*
G02*
X101180001Y-122590000I-249999J0D01*
G01*
X100279999Y-122590000D01*
G75*
G02*
X100030000Y-122340001I0J249999D01*
G01*
X100030000Y-121814999D01*
G75*
G02*
X100279999Y-121565000I249999J0D01*
G01*
G37*
G36*
G01*
X101200001Y-126010000D02*
X100299999Y-126010000D01*
G75*
G02*
X100050000Y-125760001I0J249999D01*
G01*
X100050000Y-125234999D01*
G75*
G02*
X100299999Y-124985000I249999J0D01*
G01*
X101200001Y-124985000D01*
G75*
G02*
X101450000Y-125234999I0J-249999D01*
G01*
X101450000Y-125760001D01*
G75*
G02*
X101200001Y-126010000I-249999J0D01*
G01*
G37*
G36*
G01*
X101200001Y-127835000D02*
X100299999Y-127835000D01*
G75*
G02*
X100050000Y-127585001I0J249999D01*
G01*
X100050000Y-127059999D01*
G75*
G02*
X100299999Y-126810000I249999J0D01*
G01*
X101200001Y-126810000D01*
G75*
G02*
X101450000Y-127059999I0J-249999D01*
G01*
X101450000Y-127585001D01*
G75*
G02*
X101200001Y-127835000I-249999J0D01*
G01*
G37*
G36*
G01*
X92299999Y-124730000D02*
X93200001Y-124730000D01*
G75*
G02*
X93450000Y-124979999I0J-249999D01*
G01*
X93450000Y-125505001D01*
G75*
G02*
X93200001Y-125755000I-249999J0D01*
G01*
X92299999Y-125755000D01*
G75*
G02*
X92050000Y-125505001I0J249999D01*
G01*
X92050000Y-124979999D01*
G75*
G02*
X92299999Y-124730000I249999J0D01*
G01*
G37*
G36*
G01*
X92299999Y-122905000D02*
X93200001Y-122905000D01*
G75*
G02*
X93450000Y-123154999I0J-249999D01*
G01*
X93450000Y-123680001D01*
G75*
G02*
X93200001Y-123930000I-249999J0D01*
G01*
X92299999Y-123930000D01*
G75*
G02*
X92050000Y-123680001I0J249999D01*
G01*
X92050000Y-123154999D01*
G75*
G02*
X92299999Y-122905000I249999J0D01*
G01*
G37*
G36*
G01*
X94239999Y-124730000D02*
X95140001Y-124730000D01*
G75*
G02*
X95390000Y-124979999I0J-249999D01*
G01*
X95390000Y-125505001D01*
G75*
G02*
X95140001Y-125755000I-249999J0D01*
G01*
X94239999Y-125755000D01*
G75*
G02*
X93990000Y-125505001I0J249999D01*
G01*
X93990000Y-124979999D01*
G75*
G02*
X94239999Y-124730000I249999J0D01*
G01*
G37*
G36*
G01*
X94239999Y-122905000D02*
X95140001Y-122905000D01*
G75*
G02*
X95390000Y-123154999I0J-249999D01*
G01*
X95390000Y-123680001D01*
G75*
G02*
X95140001Y-123930000I-249999J0D01*
G01*
X94239999Y-123930000D01*
G75*
G02*
X93990000Y-123680001I0J249999D01*
G01*
X93990000Y-123154999D01*
G75*
G02*
X94239999Y-122905000I249999J0D01*
G01*
G37*
G36*
G01*
X81370000Y-122730001D02*
X81370000Y-121829999D01*
G75*
G02*
X81619999Y-121580000I249999J0D01*
G01*
X82145001Y-121580000D01*
G75*
G02*
X82395000Y-121829999I0J-249999D01*
G01*
X82395000Y-122730001D01*
G75*
G02*
X82145001Y-122980000I-249999J0D01*
G01*
X81619999Y-122980000D01*
G75*
G02*
X81370000Y-122730001I0J249999D01*
G01*
G37*
G36*
G01*
X79545000Y-122730001D02*
X79545000Y-121829999D01*
G75*
G02*
X79794999Y-121580000I249999J0D01*
G01*
X80320001Y-121580000D01*
G75*
G02*
X80570000Y-121829999I0J-249999D01*
G01*
X80570000Y-122730001D01*
G75*
G02*
X80320001Y-122980000I-249999J0D01*
G01*
X79794999Y-122980000D01*
G75*
G02*
X79545000Y-122730001I0J249999D01*
G01*
G37*
G36*
G01*
X81370000Y-124660001D02*
X81370000Y-123759999D01*
G75*
G02*
X81619999Y-123510000I249999J0D01*
G01*
X82145001Y-123510000D01*
G75*
G02*
X82395000Y-123759999I0J-249999D01*
G01*
X82395000Y-124660001D01*
G75*
G02*
X82145001Y-124910000I-249999J0D01*
G01*
X81619999Y-124910000D01*
G75*
G02*
X81370000Y-124660001I0J249999D01*
G01*
G37*
G36*
G01*
X79545000Y-124660001D02*
X79545000Y-123759999D01*
G75*
G02*
X79794999Y-123510000I249999J0D01*
G01*
X80320001Y-123510000D01*
G75*
G02*
X80570000Y-123759999I0J-249999D01*
G01*
X80570000Y-124660001D01*
G75*
G02*
X80320001Y-124910000I-249999J0D01*
G01*
X79794999Y-124910000D01*
G75*
G02*
X79545000Y-124660001I0J249999D01*
G01*
G37*
G36*
G01*
X134290001Y-152160000D02*
X133389999Y-152160000D01*
G75*
G02*
X133140000Y-151910001I0J249999D01*
G01*
X133140000Y-151384999D01*
G75*
G02*
X133389999Y-151135000I249999J0D01*
G01*
X134290001Y-151135000D01*
G75*
G02*
X134540000Y-151384999I0J-249999D01*
G01*
X134540000Y-151910001D01*
G75*
G02*
X134290001Y-152160000I-249999J0D01*
G01*
G37*
G36*
G01*
X134290001Y-153985000D02*
X133389999Y-153985000D01*
G75*
G02*
X133140000Y-153735001I0J249999D01*
G01*
X133140000Y-153209999D01*
G75*
G02*
X133389999Y-152960000I249999J0D01*
G01*
X134290001Y-152960000D01*
G75*
G02*
X134540000Y-153209999I0J-249999D01*
G01*
X134540000Y-153735001D01*
G75*
G02*
X134290001Y-153985000I-249999J0D01*
G01*
G37*
G36*
G01*
X136270001Y-152120000D02*
X135369999Y-152120000D01*
G75*
G02*
X135120000Y-151870001I0J249999D01*
G01*
X135120000Y-151344999D01*
G75*
G02*
X135369999Y-151095000I249999J0D01*
G01*
X136270001Y-151095000D01*
G75*
G02*
X136520000Y-151344999I0J-249999D01*
G01*
X136520000Y-151870001D01*
G75*
G02*
X136270001Y-152120000I-249999J0D01*
G01*
G37*
G36*
G01*
X136270001Y-153945000D02*
X135369999Y-153945000D01*
G75*
G02*
X135120000Y-153695001I0J249999D01*
G01*
X135120000Y-153169999D01*
G75*
G02*
X135369999Y-152920000I249999J0D01*
G01*
X136270001Y-152920000D01*
G75*
G02*
X136520000Y-153169999I0J-249999D01*
G01*
X136520000Y-153695001D01*
G75*
G02*
X136270001Y-153945000I-249999J0D01*
G01*
G37*
G36*
G01*
X99340001Y-129750000D02*
X98439999Y-129750000D01*
G75*
G02*
X98190000Y-129500001I0J249999D01*
G01*
X98190000Y-128974999D01*
G75*
G02*
X98439999Y-128725000I249999J0D01*
G01*
X99340001Y-128725000D01*
G75*
G02*
X99590000Y-128974999I0J-249999D01*
G01*
X99590000Y-129500001D01*
G75*
G02*
X99340001Y-129750000I-249999J0D01*
G01*
G37*
G36*
G01*
X99340001Y-131575000D02*
X98439999Y-131575000D01*
G75*
G02*
X98190000Y-131325001I0J249999D01*
G01*
X98190000Y-130799999D01*
G75*
G02*
X98439999Y-130550000I249999J0D01*
G01*
X99340001Y-130550000D01*
G75*
G02*
X99590000Y-130799999I0J-249999D01*
G01*
X99590000Y-131325001D01*
G75*
G02*
X99340001Y-131575000I-249999J0D01*
G01*
G37*
G36*
G01*
X101360001Y-129740000D02*
X100459999Y-129740000D01*
G75*
G02*
X100210000Y-129490001I0J249999D01*
G01*
X100210000Y-128964999D01*
G75*
G02*
X100459999Y-128715000I249999J0D01*
G01*
X101360001Y-128715000D01*
G75*
G02*
X101610000Y-128964999I0J-249999D01*
G01*
X101610000Y-129490001D01*
G75*
G02*
X101360001Y-129740000I-249999J0D01*
G01*
G37*
G36*
G01*
X101360001Y-131565000D02*
X100459999Y-131565000D01*
G75*
G02*
X100210000Y-131315001I0J249999D01*
G01*
X100210000Y-130789999D01*
G75*
G02*
X100459999Y-130540000I249999J0D01*
G01*
X101360001Y-130540000D01*
G75*
G02*
X101610000Y-130789999I0J-249999D01*
G01*
X101610000Y-131315001D01*
G75*
G02*
X101360001Y-131565000I-249999J0D01*
G01*
G37*
G36*
G01*
X157499999Y-141770000D02*
X158400001Y-141770000D01*
G75*
G02*
X158650000Y-142019999I0J-249999D01*
G01*
X158650000Y-142545001D01*
G75*
G02*
X158400001Y-142795000I-249999J0D01*
G01*
X157499999Y-142795000D01*
G75*
G02*
X157250000Y-142545001I0J249999D01*
G01*
X157250000Y-142019999D01*
G75*
G02*
X157499999Y-141770000I249999J0D01*
G01*
G37*
G36*
G01*
X157499999Y-139945000D02*
X158400001Y-139945000D01*
G75*
G02*
X158650000Y-140194999I0J-249999D01*
G01*
X158650000Y-140720001D01*
G75*
G02*
X158400001Y-140970000I-249999J0D01*
G01*
X157499999Y-140970000D01*
G75*
G02*
X157250000Y-140720001I0J249999D01*
G01*
X157250000Y-140194999D01*
G75*
G02*
X157499999Y-139945000I249999J0D01*
G01*
G37*
G36*
G01*
X157439999Y-145200000D02*
X158340001Y-145200000D01*
G75*
G02*
X158590000Y-145449999I0J-249999D01*
G01*
X158590000Y-145975001D01*
G75*
G02*
X158340001Y-146225000I-249999J0D01*
G01*
X157439999Y-146225000D01*
G75*
G02*
X157190000Y-145975001I0J249999D01*
G01*
X157190000Y-145449999D01*
G75*
G02*
X157439999Y-145200000I249999J0D01*
G01*
G37*
G36*
G01*
X157439999Y-143375000D02*
X158340001Y-143375000D01*
G75*
G02*
X158590000Y-143624999I0J-249999D01*
G01*
X158590000Y-144150001D01*
G75*
G02*
X158340001Y-144400000I-249999J0D01*
G01*
X157439999Y-144400000D01*
G75*
G02*
X157190000Y-144150001I0J249999D01*
G01*
X157190000Y-143624999D01*
G75*
G02*
X157439999Y-143375000I249999J0D01*
G01*
G37*
G36*
G01*
X156310001Y-144420000D02*
X155409999Y-144420000D01*
G75*
G02*
X155160000Y-144170001I0J249999D01*
G01*
X155160000Y-143644999D01*
G75*
G02*
X155409999Y-143395000I249999J0D01*
G01*
X156310001Y-143395000D01*
G75*
G02*
X156560000Y-143644999I0J-249999D01*
G01*
X156560000Y-144170001D01*
G75*
G02*
X156310001Y-144420000I-249999J0D01*
G01*
G37*
G36*
G01*
X156310001Y-146245000D02*
X155409999Y-146245000D01*
G75*
G02*
X155160000Y-145995001I0J249999D01*
G01*
X155160000Y-145469999D01*
G75*
G02*
X155409999Y-145220000I249999J0D01*
G01*
X156310001Y-145220000D01*
G75*
G02*
X156560000Y-145469999I0J-249999D01*
G01*
X156560000Y-145995001D01*
G75*
G02*
X156310001Y-146245000I-249999J0D01*
G01*
G37*
G36*
G01*
X159569999Y-145200000D02*
X160470001Y-145200000D01*
G75*
G02*
X160720000Y-145449999I0J-249999D01*
G01*
X160720000Y-145975001D01*
G75*
G02*
X160470001Y-146225000I-249999J0D01*
G01*
X159569999Y-146225000D01*
G75*
G02*
X159320000Y-145975001I0J249999D01*
G01*
X159320000Y-145449999D01*
G75*
G02*
X159569999Y-145200000I249999J0D01*
G01*
G37*
G36*
G01*
X159569999Y-143375000D02*
X160470001Y-143375000D01*
G75*
G02*
X160720000Y-143624999I0J-249999D01*
G01*
X160720000Y-144150001D01*
G75*
G02*
X160470001Y-144400000I-249999J0D01*
G01*
X159569999Y-144400000D01*
G75*
G02*
X159320000Y-144150001I0J249999D01*
G01*
X159320000Y-143624999D01*
G75*
G02*
X159569999Y-143375000I249999J0D01*
G01*
G37*
G36*
G01*
X112979999Y-152370000D02*
X113880001Y-152370000D01*
G75*
G02*
X114130000Y-152619999I0J-249999D01*
G01*
X114130000Y-153145001D01*
G75*
G02*
X113880001Y-153395000I-249999J0D01*
G01*
X112979999Y-153395000D01*
G75*
G02*
X112730000Y-153145001I0J249999D01*
G01*
X112730000Y-152619999D01*
G75*
G02*
X112979999Y-152370000I249999J0D01*
G01*
G37*
G36*
G01*
X112979999Y-150545000D02*
X113880001Y-150545000D01*
G75*
G02*
X114130000Y-150794999I0J-249999D01*
G01*
X114130000Y-151320001D01*
G75*
G02*
X113880001Y-151570000I-249999J0D01*
G01*
X112979999Y-151570000D01*
G75*
G02*
X112730000Y-151320001I0J249999D01*
G01*
X112730000Y-150794999D01*
G75*
G02*
X112979999Y-150545000I249999J0D01*
G01*
G37*
G36*
G01*
X102730000Y-158689999D02*
X102730000Y-159590001D01*
G75*
G02*
X102480001Y-159840000I-249999J0D01*
G01*
X101954999Y-159840000D01*
G75*
G02*
X101705000Y-159590001I0J249999D01*
G01*
X101705000Y-158689999D01*
G75*
G02*
X101954999Y-158440000I249999J0D01*
G01*
X102480001Y-158440000D01*
G75*
G02*
X102730000Y-158689999I0J-249999D01*
G01*
G37*
G36*
G01*
X104555000Y-158689999D02*
X104555000Y-159590001D01*
G75*
G02*
X104305001Y-159840000I-249999J0D01*
G01*
X103779999Y-159840000D01*
G75*
G02*
X103530000Y-159590001I0J249999D01*
G01*
X103530000Y-158689999D01*
G75*
G02*
X103779999Y-158440000I249999J0D01*
G01*
X104305001Y-158440000D01*
G75*
G02*
X104555000Y-158689999I0J-249999D01*
G01*
G37*
G36*
G01*
X103540000Y-161540001D02*
X103540000Y-160639999D01*
G75*
G02*
X103789999Y-160390000I249999J0D01*
G01*
X104315001Y-160390000D01*
G75*
G02*
X104565000Y-160639999I0J-249999D01*
G01*
X104565000Y-161540001D01*
G75*
G02*
X104315001Y-161790000I-249999J0D01*
G01*
X103789999Y-161790000D01*
G75*
G02*
X103540000Y-161540001I0J249999D01*
G01*
G37*
G36*
G01*
X101715000Y-161540001D02*
X101715000Y-160639999D01*
G75*
G02*
X101964999Y-160390000I249999J0D01*
G01*
X102490001Y-160390000D01*
G75*
G02*
X102740000Y-160639999I0J-249999D01*
G01*
X102740000Y-161540001D01*
G75*
G02*
X102490001Y-161790000I-249999J0D01*
G01*
X101964999Y-161790000D01*
G75*
G02*
X101715000Y-161540001I0J249999D01*
G01*
G37*
G36*
G01*
X96940000Y-142739999D02*
X96940000Y-143640001D01*
G75*
G02*
X96690001Y-143890000I-249999J0D01*
G01*
X96164999Y-143890000D01*
G75*
G02*
X95915000Y-143640001I0J249999D01*
G01*
X95915000Y-142739999D01*
G75*
G02*
X96164999Y-142490000I249999J0D01*
G01*
X96690001Y-142490000D01*
G75*
G02*
X96940000Y-142739999I0J-249999D01*
G01*
G37*
G36*
G01*
X98765000Y-142739999D02*
X98765000Y-143640001D01*
G75*
G02*
X98515001Y-143890000I-249999J0D01*
G01*
X97989999Y-143890000D01*
G75*
G02*
X97740000Y-143640001I0J249999D01*
G01*
X97740000Y-142739999D01*
G75*
G02*
X97989999Y-142490000I249999J0D01*
G01*
X98515001Y-142490000D01*
G75*
G02*
X98765000Y-142739999I0J-249999D01*
G01*
G37*
G36*
G01*
X131419999Y-152480000D02*
X132320001Y-152480000D01*
G75*
G02*
X132570000Y-152729999I0J-249999D01*
G01*
X132570000Y-153255001D01*
G75*
G02*
X132320001Y-153505000I-249999J0D01*
G01*
X131419999Y-153505000D01*
G75*
G02*
X131170000Y-153255001I0J249999D01*
G01*
X131170000Y-152729999D01*
G75*
G02*
X131419999Y-152480000I249999J0D01*
G01*
G37*
G36*
G01*
X131419999Y-150655000D02*
X132320001Y-150655000D01*
G75*
G02*
X132570000Y-150904999I0J-249999D01*
G01*
X132570000Y-151430001D01*
G75*
G02*
X132320001Y-151680000I-249999J0D01*
G01*
X131419999Y-151680000D01*
G75*
G02*
X131170000Y-151430001I0J249999D01*
G01*
X131170000Y-150904999D01*
G75*
G02*
X131419999Y-150655000I249999J0D01*
G01*
G37*
D16*
X91850000Y-147360000D03*
X92800000Y-149360000D03*
X90900000Y-149360000D03*
X91840000Y-137320000D03*
X92790000Y-139320000D03*
X90890000Y-139320000D03*
X91850000Y-142800000D03*
X90900000Y-140800000D03*
X92800000Y-140800000D03*
X92050000Y-131190000D03*
X91100000Y-129190000D03*
X93000000Y-129190000D03*
X97720000Y-125350000D03*
X96770000Y-123350000D03*
X98670000Y-123350000D03*
X90000000Y-125370000D03*
X89050000Y-123370000D03*
X90950000Y-123370000D03*
X96320000Y-132580000D03*
X97270000Y-134580000D03*
X95370000Y-134580000D03*
G36*
G01*
X113028750Y-156125000D02*
X113791250Y-156125000D01*
G75*
G02*
X114010000Y-156343750I0J-218750D01*
G01*
X114010000Y-156781250D01*
G75*
G02*
X113791250Y-157000000I-218750J0D01*
G01*
X113028750Y-157000000D01*
G75*
G02*
X112810000Y-156781250I0J218750D01*
G01*
X112810000Y-156343750D01*
G75*
G02*
X113028750Y-156125000I218750J0D01*
G01*
G37*
G36*
G01*
X113028750Y-154000000D02*
X113791250Y-154000000D01*
G75*
G02*
X114010000Y-154218750I0J-218750D01*
G01*
X114010000Y-154656250D01*
G75*
G02*
X113791250Y-154875000I-218750J0D01*
G01*
X113028750Y-154875000D01*
G75*
G02*
X112810000Y-154656250I0J218750D01*
G01*
X112810000Y-154218750D01*
G75*
G02*
X113028750Y-154000000I218750J0D01*
G01*
G37*
D17*
X98170000Y-145470000D03*
X95370000Y-145470000D03*
X90910000Y-135430000D03*
X93710000Y-135430000D03*
X90900000Y-145470000D03*
X93700000Y-145470000D03*
X90910000Y-133100000D03*
X93710000Y-133100000D03*
X98860000Y-127220000D03*
X96060000Y-127220000D03*
X91230000Y-127260000D03*
X94030000Y-127260000D03*
G36*
G01*
X159493750Y-141840000D02*
X160406250Y-141840000D01*
G75*
G02*
X160650000Y-142083750I0J-243750D01*
G01*
X160650000Y-142571250D01*
G75*
G02*
X160406250Y-142815000I-243750J0D01*
G01*
X159493750Y-142815000D01*
G75*
G02*
X159250000Y-142571250I0J243750D01*
G01*
X159250000Y-142083750D01*
G75*
G02*
X159493750Y-141840000I243750J0D01*
G01*
G37*
G36*
G01*
X159493750Y-139965000D02*
X160406250Y-139965000D01*
G75*
G02*
X160650000Y-140208750I0J-243750D01*
G01*
X160650000Y-140696250D01*
G75*
G02*
X160406250Y-140940000I-243750J0D01*
G01*
X159493750Y-140940000D01*
G75*
G02*
X159250000Y-140696250I0J243750D01*
G01*
X159250000Y-140208750D01*
G75*
G02*
X159493750Y-139965000I243750J0D01*
G01*
G37*
G36*
G01*
X145315000Y-147270000D02*
X146265000Y-147270000D01*
G75*
G02*
X146515000Y-147520000I0J-250000D01*
G01*
X146515000Y-148020000D01*
G75*
G02*
X146265000Y-148270000I-250000J0D01*
G01*
X145315000Y-148270000D01*
G75*
G02*
X145065000Y-148020000I0J250000D01*
G01*
X145065000Y-147520000D01*
G75*
G02*
X145315000Y-147270000I250000J0D01*
G01*
G37*
G36*
G01*
X145315000Y-145370000D02*
X146265000Y-145370000D01*
G75*
G02*
X146515000Y-145620000I0J-250000D01*
G01*
X146515000Y-146120000D01*
G75*
G02*
X146265000Y-146370000I-250000J0D01*
G01*
X145315000Y-146370000D01*
G75*
G02*
X145065000Y-146120000I0J250000D01*
G01*
X145065000Y-145620000D01*
G75*
G02*
X145315000Y-145370000I250000J0D01*
G01*
G37*
G36*
G01*
X159625000Y-160590000D02*
X160575000Y-160590000D01*
G75*
G02*
X160825000Y-160840000I0J-250000D01*
G01*
X160825000Y-161340000D01*
G75*
G02*
X160575000Y-161590000I-250000J0D01*
G01*
X159625000Y-161590000D01*
G75*
G02*
X159375000Y-161340000I0J250000D01*
G01*
X159375000Y-160840000D01*
G75*
G02*
X159625000Y-160590000I250000J0D01*
G01*
G37*
G36*
G01*
X159625000Y-158690000D02*
X160575000Y-158690000D01*
G75*
G02*
X160825000Y-158940000I0J-250000D01*
G01*
X160825000Y-159440000D01*
G75*
G02*
X160575000Y-159690000I-250000J0D01*
G01*
X159625000Y-159690000D01*
G75*
G02*
X159375000Y-159440000I0J250000D01*
G01*
X159375000Y-158940000D01*
G75*
G02*
X159625000Y-158690000I250000J0D01*
G01*
G37*
G36*
G01*
X116580000Y-151805000D02*
X116580000Y-150855000D01*
G75*
G02*
X116830000Y-150605000I250000J0D01*
G01*
X117330000Y-150605000D01*
G75*
G02*
X117580000Y-150855000I0J-250000D01*
G01*
X117580000Y-151805000D01*
G75*
G02*
X117330000Y-152055000I-250000J0D01*
G01*
X116830000Y-152055000D01*
G75*
G02*
X116580000Y-151805000I0J250000D01*
G01*
G37*
G36*
G01*
X114680000Y-151805000D02*
X114680000Y-150855000D01*
G75*
G02*
X114930000Y-150605000I250000J0D01*
G01*
X115430000Y-150605000D01*
G75*
G02*
X115680000Y-150855000I0J-250000D01*
G01*
X115680000Y-151805000D01*
G75*
G02*
X115430000Y-152055000I-250000J0D01*
G01*
X114930000Y-152055000D01*
G75*
G02*
X114680000Y-151805000I0J250000D01*
G01*
G37*
G36*
G01*
X110410000Y-149485001D02*
X110410000Y-148634999D01*
G75*
G02*
X110659999Y-148385000I249999J0D01*
G01*
X111560001Y-148385000D01*
G75*
G02*
X111810000Y-148634999I0J-249999D01*
G01*
X111810000Y-149485001D01*
G75*
G02*
X111560001Y-149735000I-249999J0D01*
G01*
X110659999Y-149735000D01*
G75*
G02*
X110410000Y-149485001I0J249999D01*
G01*
G37*
G36*
G01*
X107710000Y-149485001D02*
X107710000Y-148634999D01*
G75*
G02*
X107959999Y-148385000I249999J0D01*
G01*
X108860001Y-148385000D01*
G75*
G02*
X109110000Y-148634999I0J-249999D01*
G01*
X109110000Y-149485001D01*
G75*
G02*
X108860001Y-149735000I-249999J0D01*
G01*
X107959999Y-149735000D01*
G75*
G02*
X107710000Y-149485001I0J249999D01*
G01*
G37*
G36*
G01*
X120160000Y-151815000D02*
X120160000Y-150865000D01*
G75*
G02*
X120410000Y-150615000I250000J0D01*
G01*
X120910000Y-150615000D01*
G75*
G02*
X121160000Y-150865000I0J-250000D01*
G01*
X121160000Y-151815000D01*
G75*
G02*
X120910000Y-152065000I-250000J0D01*
G01*
X120410000Y-152065000D01*
G75*
G02*
X120160000Y-151815000I0J250000D01*
G01*
G37*
G36*
G01*
X118260000Y-151815000D02*
X118260000Y-150865000D01*
G75*
G02*
X118510000Y-150615000I250000J0D01*
G01*
X119010000Y-150615000D01*
G75*
G02*
X119260000Y-150865000I0J-250000D01*
G01*
X119260000Y-151815000D01*
G75*
G02*
X119010000Y-152065000I-250000J0D01*
G01*
X118510000Y-152065000D01*
G75*
G02*
X118260000Y-151815000I0J250000D01*
G01*
G37*
G36*
G01*
X109440000Y-146495000D02*
X109440000Y-147445000D01*
G75*
G02*
X109190000Y-147695000I-250000J0D01*
G01*
X108690000Y-147695000D01*
G75*
G02*
X108440000Y-147445000I0J250000D01*
G01*
X108440000Y-146495000D01*
G75*
G02*
X108690000Y-146245000I250000J0D01*
G01*
X109190000Y-146245000D01*
G75*
G02*
X109440000Y-146495000I0J-250000D01*
G01*
G37*
G36*
G01*
X111340000Y-146495000D02*
X111340000Y-147445000D01*
G75*
G02*
X111090000Y-147695000I-250000J0D01*
G01*
X110590000Y-147695000D01*
G75*
G02*
X110340000Y-147445000I0J250000D01*
G01*
X110340000Y-146495000D01*
G75*
G02*
X110590000Y-146245000I250000J0D01*
G01*
X111090000Y-146245000D01*
G75*
G02*
X111340000Y-146495000I0J-250000D01*
G01*
G37*
G36*
G01*
X111440000Y-144525000D02*
X111440000Y-145475000D01*
G75*
G02*
X111190000Y-145725000I-250000J0D01*
G01*
X110690000Y-145725000D01*
G75*
G02*
X110440000Y-145475000I0J250000D01*
G01*
X110440000Y-144525000D01*
G75*
G02*
X110690000Y-144275000I250000J0D01*
G01*
X111190000Y-144275000D01*
G75*
G02*
X111440000Y-144525000I0J-250000D01*
G01*
G37*
G36*
G01*
X113340000Y-144525000D02*
X113340000Y-145475000D01*
G75*
G02*
X113090000Y-145725000I-250000J0D01*
G01*
X112590000Y-145725000D01*
G75*
G02*
X112340000Y-145475000I0J250000D01*
G01*
X112340000Y-144525000D01*
G75*
G02*
X112590000Y-144275000I250000J0D01*
G01*
X113090000Y-144275000D01*
G75*
G02*
X113340000Y-144525000I0J-250000D01*
G01*
G37*
G36*
G01*
X129405000Y-152530000D02*
X130355000Y-152530000D01*
G75*
G02*
X130605000Y-152780000I0J-250000D01*
G01*
X130605000Y-153280000D01*
G75*
G02*
X130355000Y-153530000I-250000J0D01*
G01*
X129405000Y-153530000D01*
G75*
G02*
X129155000Y-153280000I0J250000D01*
G01*
X129155000Y-152780000D01*
G75*
G02*
X129405000Y-152530000I250000J0D01*
G01*
G37*
G36*
G01*
X129405000Y-150630000D02*
X130355000Y-150630000D01*
G75*
G02*
X130605000Y-150880000I0J-250000D01*
G01*
X130605000Y-151380000D01*
G75*
G02*
X130355000Y-151630000I-250000J0D01*
G01*
X129405000Y-151630000D01*
G75*
G02*
X129155000Y-151380000I0J250000D01*
G01*
X129155000Y-150880000D01*
G75*
G02*
X129405000Y-150630000I250000J0D01*
G01*
G37*
G36*
G01*
X134780000Y-133165000D02*
X134780000Y-132215000D01*
G75*
G02*
X135030000Y-131965000I250000J0D01*
G01*
X135530000Y-131965000D01*
G75*
G02*
X135780000Y-132215000I0J-250000D01*
G01*
X135780000Y-133165000D01*
G75*
G02*
X135530000Y-133415000I-250000J0D01*
G01*
X135030000Y-133415000D01*
G75*
G02*
X134780000Y-133165000I0J250000D01*
G01*
G37*
G36*
G01*
X132880000Y-133165000D02*
X132880000Y-132215000D01*
G75*
G02*
X133130000Y-131965000I250000J0D01*
G01*
X133630000Y-131965000D01*
G75*
G02*
X133880000Y-132215000I0J-250000D01*
G01*
X133880000Y-133165000D01*
G75*
G02*
X133630000Y-133415000I-250000J0D01*
G01*
X133130000Y-133415000D01*
G75*
G02*
X132880000Y-133165000I0J250000D01*
G01*
G37*
G36*
G01*
X127385000Y-152520000D02*
X128335000Y-152520000D01*
G75*
G02*
X128585000Y-152770000I0J-250000D01*
G01*
X128585000Y-153270000D01*
G75*
G02*
X128335000Y-153520000I-250000J0D01*
G01*
X127385000Y-153520000D01*
G75*
G02*
X127135000Y-153270000I0J250000D01*
G01*
X127135000Y-152770000D01*
G75*
G02*
X127385000Y-152520000I250000J0D01*
G01*
G37*
G36*
G01*
X127385000Y-150620000D02*
X128335000Y-150620000D01*
G75*
G02*
X128585000Y-150870000I0J-250000D01*
G01*
X128585000Y-151370000D01*
G75*
G02*
X128335000Y-151620000I-250000J0D01*
G01*
X127385000Y-151620000D01*
G75*
G02*
X127135000Y-151370000I0J250000D01*
G01*
X127135000Y-150870000D01*
G75*
G02*
X127385000Y-150620000I250000J0D01*
G01*
G37*
G36*
G01*
X131210000Y-149815000D02*
X131210000Y-148865000D01*
G75*
G02*
X131460000Y-148615000I250000J0D01*
G01*
X131960000Y-148615000D01*
G75*
G02*
X132210000Y-148865000I0J-250000D01*
G01*
X132210000Y-149815000D01*
G75*
G02*
X131960000Y-150065000I-250000J0D01*
G01*
X131460000Y-150065000D01*
G75*
G02*
X131210000Y-149815000I0J250000D01*
G01*
G37*
G36*
G01*
X129310000Y-149815000D02*
X129310000Y-148865000D01*
G75*
G02*
X129560000Y-148615000I250000J0D01*
G01*
X130060000Y-148615000D01*
G75*
G02*
X130310000Y-148865000I0J-250000D01*
G01*
X130310000Y-149815000D01*
G75*
G02*
X130060000Y-150065000I-250000J0D01*
G01*
X129560000Y-150065000D01*
G75*
G02*
X129310000Y-149815000I0J250000D01*
G01*
G37*
G36*
G01*
X123560000Y-151805000D02*
X123560000Y-150855000D01*
G75*
G02*
X123810000Y-150605000I250000J0D01*
G01*
X124310000Y-150605000D01*
G75*
G02*
X124560000Y-150855000I0J-250000D01*
G01*
X124560000Y-151805000D01*
G75*
G02*
X124310000Y-152055000I-250000J0D01*
G01*
X123810000Y-152055000D01*
G75*
G02*
X123560000Y-151805000I0J250000D01*
G01*
G37*
G36*
G01*
X121660000Y-151805000D02*
X121660000Y-150855000D01*
G75*
G02*
X121910000Y-150605000I250000J0D01*
G01*
X122410000Y-150605000D01*
G75*
G02*
X122660000Y-150855000I0J-250000D01*
G01*
X122660000Y-151805000D01*
G75*
G02*
X122410000Y-152055000I-250000J0D01*
G01*
X121910000Y-152055000D01*
G75*
G02*
X121660000Y-151805000I0J250000D01*
G01*
G37*
G36*
G01*
X108715000Y-144530000D02*
X109665000Y-144530000D01*
G75*
G02*
X109915000Y-144780000I0J-250000D01*
G01*
X109915000Y-145280000D01*
G75*
G02*
X109665000Y-145530000I-250000J0D01*
G01*
X108715000Y-145530000D01*
G75*
G02*
X108465000Y-145280000I0J250000D01*
G01*
X108465000Y-144780000D01*
G75*
G02*
X108715000Y-144530000I250000J0D01*
G01*
G37*
G36*
G01*
X108715000Y-142630000D02*
X109665000Y-142630000D01*
G75*
G02*
X109915000Y-142880000I0J-250000D01*
G01*
X109915000Y-143380000D01*
G75*
G02*
X109665000Y-143630000I-250000J0D01*
G01*
X108715000Y-143630000D01*
G75*
G02*
X108465000Y-143380000I0J250000D01*
G01*
X108465000Y-142880000D01*
G75*
G02*
X108715000Y-142630000I250000J0D01*
G01*
G37*
G36*
G01*
X125355000Y-152520000D02*
X126305000Y-152520000D01*
G75*
G02*
X126555000Y-152770000I0J-250000D01*
G01*
X126555000Y-153270000D01*
G75*
G02*
X126305000Y-153520000I-250000J0D01*
G01*
X125355000Y-153520000D01*
G75*
G02*
X125105000Y-153270000I0J250000D01*
G01*
X125105000Y-152770000D01*
G75*
G02*
X125355000Y-152520000I250000J0D01*
G01*
G37*
G36*
G01*
X125355000Y-150620000D02*
X126305000Y-150620000D01*
G75*
G02*
X126555000Y-150870000I0J-250000D01*
G01*
X126555000Y-151370000D01*
G75*
G02*
X126305000Y-151620000I-250000J0D01*
G01*
X125355000Y-151620000D01*
G75*
G02*
X125105000Y-151370000I0J250000D01*
G01*
X125105000Y-150870000D01*
G75*
G02*
X125355000Y-150620000I250000J0D01*
G01*
G37*
G36*
G01*
X113120000Y-132165000D02*
X113120000Y-133115000D01*
G75*
G02*
X112870000Y-133365000I-250000J0D01*
G01*
X112370000Y-133365000D01*
G75*
G02*
X112120000Y-133115000I0J250000D01*
G01*
X112120000Y-132165000D01*
G75*
G02*
X112370000Y-131915000I250000J0D01*
G01*
X112870000Y-131915000D01*
G75*
G02*
X113120000Y-132165000I0J-250000D01*
G01*
G37*
G36*
G01*
X115020000Y-132165000D02*
X115020000Y-133115000D01*
G75*
G02*
X114770000Y-133365000I-250000J0D01*
G01*
X114270000Y-133365000D01*
G75*
G02*
X114020000Y-133115000I0J250000D01*
G01*
X114020000Y-132165000D01*
G75*
G02*
X114270000Y-131915000I250000J0D01*
G01*
X114770000Y-131915000D01*
G75*
G02*
X115020000Y-132165000I0J-250000D01*
G01*
G37*
G36*
G01*
X111440000Y-134135000D02*
X111440000Y-135085000D01*
G75*
G02*
X111190000Y-135335000I-250000J0D01*
G01*
X110690000Y-135335000D01*
G75*
G02*
X110440000Y-135085000I0J250000D01*
G01*
X110440000Y-134135000D01*
G75*
G02*
X110690000Y-133885000I250000J0D01*
G01*
X111190000Y-133885000D01*
G75*
G02*
X111440000Y-134135000I0J-250000D01*
G01*
G37*
G36*
G01*
X113340000Y-134135000D02*
X113340000Y-135085000D01*
G75*
G02*
X113090000Y-135335000I-250000J0D01*
G01*
X112590000Y-135335000D01*
G75*
G02*
X112340000Y-135085000I0J250000D01*
G01*
X112340000Y-134135000D01*
G75*
G02*
X112590000Y-133885000I250000J0D01*
G01*
X113090000Y-133885000D01*
G75*
G02*
X113340000Y-134135000I0J-250000D01*
G01*
G37*
D18*
X164230000Y-146980000D03*
X164230000Y-149480000D03*
X164230000Y-151480000D03*
D19*
X164230000Y-153980000D03*
D20*
X166940000Y-157050000D03*
X166940000Y-143910000D03*
D21*
X119860000Y-155210000D03*
G36*
G01*
X116510000Y-155960000D02*
X116510000Y-154460000D01*
G75*
G02*
X116760000Y-154210000I250000J0D01*
G01*
X117960000Y-154210000D01*
G75*
G02*
X118210000Y-154460000I0J-250000D01*
G01*
X118210000Y-155960000D01*
G75*
G02*
X117960000Y-156210000I-250000J0D01*
G01*
X116760000Y-156210000D01*
G75*
G02*
X116510000Y-155960000I0J250000D01*
G01*
G37*
X119860000Y-161990000D03*
G36*
G01*
X116510000Y-162740000D02*
X116510000Y-161240000D01*
G75*
G02*
X116760000Y-160990000I250000J0D01*
G01*
X117960000Y-160990000D01*
G75*
G02*
X118210000Y-161240000I0J-250000D01*
G01*
X118210000Y-162740000D01*
G75*
G02*
X117960000Y-162990000I-250000J0D01*
G01*
X116760000Y-162990000D01*
G75*
G02*
X116510000Y-162740000I0J250000D01*
G01*
G37*
D15*
X112740000Y-138610000D03*
X112740000Y-140810000D03*
X111040000Y-140810000D03*
X111040000Y-138610000D03*
G36*
G01*
X149980000Y-140605000D02*
X149980000Y-140305000D01*
G75*
G02*
X150130000Y-140155000I150000J0D01*
G01*
X151780000Y-140155000D01*
G75*
G02*
X151930000Y-140305000I0J-150000D01*
G01*
X151930000Y-140605000D01*
G75*
G02*
X151780000Y-140755000I-150000J0D01*
G01*
X150130000Y-140755000D01*
G75*
G02*
X149980000Y-140605000I0J150000D01*
G01*
G37*
G36*
G01*
X149980000Y-141875000D02*
X149980000Y-141575000D01*
G75*
G02*
X150130000Y-141425000I150000J0D01*
G01*
X151780000Y-141425000D01*
G75*
G02*
X151930000Y-141575000I0J-150000D01*
G01*
X151930000Y-141875000D01*
G75*
G02*
X151780000Y-142025000I-150000J0D01*
G01*
X150130000Y-142025000D01*
G75*
G02*
X149980000Y-141875000I0J150000D01*
G01*
G37*
G36*
G01*
X149980000Y-143145000D02*
X149980000Y-142845000D01*
G75*
G02*
X150130000Y-142695000I150000J0D01*
G01*
X151780000Y-142695000D01*
G75*
G02*
X151930000Y-142845000I0J-150000D01*
G01*
X151930000Y-143145000D01*
G75*
G02*
X151780000Y-143295000I-150000J0D01*
G01*
X150130000Y-143295000D01*
G75*
G02*
X149980000Y-143145000I0J150000D01*
G01*
G37*
G36*
G01*
X149980000Y-144415000D02*
X149980000Y-144115000D01*
G75*
G02*
X150130000Y-143965000I150000J0D01*
G01*
X151780000Y-143965000D01*
G75*
G02*
X151930000Y-144115000I0J-150000D01*
G01*
X151930000Y-144415000D01*
G75*
G02*
X151780000Y-144565000I-150000J0D01*
G01*
X150130000Y-144565000D01*
G75*
G02*
X149980000Y-144415000I0J150000D01*
G01*
G37*
G36*
G01*
X145030000Y-144415000D02*
X145030000Y-144115000D01*
G75*
G02*
X145180000Y-143965000I150000J0D01*
G01*
X146830000Y-143965000D01*
G75*
G02*
X146980000Y-144115000I0J-150000D01*
G01*
X146980000Y-144415000D01*
G75*
G02*
X146830000Y-144565000I-150000J0D01*
G01*
X145180000Y-144565000D01*
G75*
G02*
X145030000Y-144415000I0J150000D01*
G01*
G37*
G36*
G01*
X145030000Y-143145000D02*
X145030000Y-142845000D01*
G75*
G02*
X145180000Y-142695000I150000J0D01*
G01*
X146830000Y-142695000D01*
G75*
G02*
X146980000Y-142845000I0J-150000D01*
G01*
X146980000Y-143145000D01*
G75*
G02*
X146830000Y-143295000I-150000J0D01*
G01*
X145180000Y-143295000D01*
G75*
G02*
X145030000Y-143145000I0J150000D01*
G01*
G37*
G36*
G01*
X145030000Y-141875000D02*
X145030000Y-141575000D01*
G75*
G02*
X145180000Y-141425000I150000J0D01*
G01*
X146830000Y-141425000D01*
G75*
G02*
X146980000Y-141575000I0J-150000D01*
G01*
X146980000Y-141875000D01*
G75*
G02*
X146830000Y-142025000I-150000J0D01*
G01*
X145180000Y-142025000D01*
G75*
G02*
X145030000Y-141875000I0J150000D01*
G01*
G37*
G36*
G01*
X145030000Y-140605000D02*
X145030000Y-140305000D01*
G75*
G02*
X145180000Y-140155000I150000J0D01*
G01*
X146830000Y-140155000D01*
G75*
G02*
X146980000Y-140305000I0J-150000D01*
G01*
X146980000Y-140605000D01*
G75*
G02*
X146830000Y-140755000I-150000J0D01*
G01*
X145180000Y-140755000D01*
G75*
G02*
X145030000Y-140605000I0J150000D01*
G01*
G37*
G36*
G01*
X111530000Y-155870000D02*
X111830000Y-155870000D01*
G75*
G02*
X111980000Y-156020000I0J-150000D01*
G01*
X111980000Y-157670000D01*
G75*
G02*
X111830000Y-157820000I-150000J0D01*
G01*
X111530000Y-157820000D01*
G75*
G02*
X111380000Y-157670000I0J150000D01*
G01*
X111380000Y-156020000D01*
G75*
G02*
X111530000Y-155870000I150000J0D01*
G01*
G37*
G36*
G01*
X110260000Y-155870000D02*
X110560000Y-155870000D01*
G75*
G02*
X110710000Y-156020000I0J-150000D01*
G01*
X110710000Y-157670000D01*
G75*
G02*
X110560000Y-157820000I-150000J0D01*
G01*
X110260000Y-157820000D01*
G75*
G02*
X110110000Y-157670000I0J150000D01*
G01*
X110110000Y-156020000D01*
G75*
G02*
X110260000Y-155870000I150000J0D01*
G01*
G37*
G36*
G01*
X108990000Y-155870000D02*
X109290000Y-155870000D01*
G75*
G02*
X109440000Y-156020000I0J-150000D01*
G01*
X109440000Y-157670000D01*
G75*
G02*
X109290000Y-157820000I-150000J0D01*
G01*
X108990000Y-157820000D01*
G75*
G02*
X108840000Y-157670000I0J150000D01*
G01*
X108840000Y-156020000D01*
G75*
G02*
X108990000Y-155870000I150000J0D01*
G01*
G37*
G36*
G01*
X107720000Y-155870000D02*
X108020000Y-155870000D01*
G75*
G02*
X108170000Y-156020000I0J-150000D01*
G01*
X108170000Y-157670000D01*
G75*
G02*
X108020000Y-157820000I-150000J0D01*
G01*
X107720000Y-157820000D01*
G75*
G02*
X107570000Y-157670000I0J150000D01*
G01*
X107570000Y-156020000D01*
G75*
G02*
X107720000Y-155870000I150000J0D01*
G01*
G37*
G36*
G01*
X106450000Y-155870000D02*
X106750000Y-155870000D01*
G75*
G02*
X106900000Y-156020000I0J-150000D01*
G01*
X106900000Y-157670000D01*
G75*
G02*
X106750000Y-157820000I-150000J0D01*
G01*
X106450000Y-157820000D01*
G75*
G02*
X106300000Y-157670000I0J150000D01*
G01*
X106300000Y-156020000D01*
G75*
G02*
X106450000Y-155870000I150000J0D01*
G01*
G37*
G36*
G01*
X105180000Y-155870000D02*
X105480000Y-155870000D01*
G75*
G02*
X105630000Y-156020000I0J-150000D01*
G01*
X105630000Y-157670000D01*
G75*
G02*
X105480000Y-157820000I-150000J0D01*
G01*
X105180000Y-157820000D01*
G75*
G02*
X105030000Y-157670000I0J150000D01*
G01*
X105030000Y-156020000D01*
G75*
G02*
X105180000Y-155870000I150000J0D01*
G01*
G37*
G36*
G01*
X103910000Y-155870000D02*
X104210000Y-155870000D01*
G75*
G02*
X104360000Y-156020000I0J-150000D01*
G01*
X104360000Y-157670000D01*
G75*
G02*
X104210000Y-157820000I-150000J0D01*
G01*
X103910000Y-157820000D01*
G75*
G02*
X103760000Y-157670000I0J150000D01*
G01*
X103760000Y-156020000D01*
G75*
G02*
X103910000Y-155870000I150000J0D01*
G01*
G37*
G36*
G01*
X103910000Y-150920000D02*
X104210000Y-150920000D01*
G75*
G02*
X104360000Y-151070000I0J-150000D01*
G01*
X104360000Y-152720000D01*
G75*
G02*
X104210000Y-152870000I-150000J0D01*
G01*
X103910000Y-152870000D01*
G75*
G02*
X103760000Y-152720000I0J150000D01*
G01*
X103760000Y-151070000D01*
G75*
G02*
X103910000Y-150920000I150000J0D01*
G01*
G37*
G36*
G01*
X105180000Y-150920000D02*
X105480000Y-150920000D01*
G75*
G02*
X105630000Y-151070000I0J-150000D01*
G01*
X105630000Y-152720000D01*
G75*
G02*
X105480000Y-152870000I-150000J0D01*
G01*
X105180000Y-152870000D01*
G75*
G02*
X105030000Y-152720000I0J150000D01*
G01*
X105030000Y-151070000D01*
G75*
G02*
X105180000Y-150920000I150000J0D01*
G01*
G37*
G36*
G01*
X106450000Y-150920000D02*
X106750000Y-150920000D01*
G75*
G02*
X106900000Y-151070000I0J-150000D01*
G01*
X106900000Y-152720000D01*
G75*
G02*
X106750000Y-152870000I-150000J0D01*
G01*
X106450000Y-152870000D01*
G75*
G02*
X106300000Y-152720000I0J150000D01*
G01*
X106300000Y-151070000D01*
G75*
G02*
X106450000Y-150920000I150000J0D01*
G01*
G37*
G36*
G01*
X107720000Y-150920000D02*
X108020000Y-150920000D01*
G75*
G02*
X108170000Y-151070000I0J-150000D01*
G01*
X108170000Y-152720000D01*
G75*
G02*
X108020000Y-152870000I-150000J0D01*
G01*
X107720000Y-152870000D01*
G75*
G02*
X107570000Y-152720000I0J150000D01*
G01*
X107570000Y-151070000D01*
G75*
G02*
X107720000Y-150920000I150000J0D01*
G01*
G37*
G36*
G01*
X108990000Y-150920000D02*
X109290000Y-150920000D01*
G75*
G02*
X109440000Y-151070000I0J-150000D01*
G01*
X109440000Y-152720000D01*
G75*
G02*
X109290000Y-152870000I-150000J0D01*
G01*
X108990000Y-152870000D01*
G75*
G02*
X108840000Y-152720000I0J150000D01*
G01*
X108840000Y-151070000D01*
G75*
G02*
X108990000Y-150920000I150000J0D01*
G01*
G37*
G36*
G01*
X110260000Y-150920000D02*
X110560000Y-150920000D01*
G75*
G02*
X110710000Y-151070000I0J-150000D01*
G01*
X110710000Y-152720000D01*
G75*
G02*
X110560000Y-152870000I-150000J0D01*
G01*
X110260000Y-152870000D01*
G75*
G02*
X110110000Y-152720000I0J150000D01*
G01*
X110110000Y-151070000D01*
G75*
G02*
X110260000Y-150920000I150000J0D01*
G01*
G37*
G36*
G01*
X111530000Y-150920000D02*
X111830000Y-150920000D01*
G75*
G02*
X111980000Y-151070000I0J-150000D01*
G01*
X111980000Y-152720000D01*
G75*
G02*
X111830000Y-152870000I-150000J0D01*
G01*
X111530000Y-152870000D01*
G75*
G02*
X111380000Y-152720000I0J150000D01*
G01*
X111380000Y-151070000D01*
G75*
G02*
X111530000Y-150920000I150000J0D01*
G01*
G37*
G36*
G01*
X98719000Y-152672000D02*
X98419000Y-152672000D01*
G75*
G02*
X98269000Y-152522000I0J150000D01*
G01*
X98269000Y-150872000D01*
G75*
G02*
X98419000Y-150722000I150000J0D01*
G01*
X98719000Y-150722000D01*
G75*
G02*
X98869000Y-150872000I0J-150000D01*
G01*
X98869000Y-152522000D01*
G75*
G02*
X98719000Y-152672000I-150000J0D01*
G01*
G37*
G36*
G01*
X99989000Y-152672000D02*
X99689000Y-152672000D01*
G75*
G02*
X99539000Y-152522000I0J150000D01*
G01*
X99539000Y-150872000D01*
G75*
G02*
X99689000Y-150722000I150000J0D01*
G01*
X99989000Y-150722000D01*
G75*
G02*
X100139000Y-150872000I0J-150000D01*
G01*
X100139000Y-152522000D01*
G75*
G02*
X99989000Y-152672000I-150000J0D01*
G01*
G37*
G36*
G01*
X101259000Y-152672000D02*
X100959000Y-152672000D01*
G75*
G02*
X100809000Y-152522000I0J150000D01*
G01*
X100809000Y-150872000D01*
G75*
G02*
X100959000Y-150722000I150000J0D01*
G01*
X101259000Y-150722000D01*
G75*
G02*
X101409000Y-150872000I0J-150000D01*
G01*
X101409000Y-152522000D01*
G75*
G02*
X101259000Y-152672000I-150000J0D01*
G01*
G37*
G36*
G01*
X102529000Y-152672000D02*
X102229000Y-152672000D01*
G75*
G02*
X102079000Y-152522000I0J150000D01*
G01*
X102079000Y-150872000D01*
G75*
G02*
X102229000Y-150722000I150000J0D01*
G01*
X102529000Y-150722000D01*
G75*
G02*
X102679000Y-150872000I0J-150000D01*
G01*
X102679000Y-152522000D01*
G75*
G02*
X102529000Y-152672000I-150000J0D01*
G01*
G37*
G36*
G01*
X102529000Y-157622000D02*
X102229000Y-157622000D01*
G75*
G02*
X102079000Y-157472000I0J150000D01*
G01*
X102079000Y-155822000D01*
G75*
G02*
X102229000Y-155672000I150000J0D01*
G01*
X102529000Y-155672000D01*
G75*
G02*
X102679000Y-155822000I0J-150000D01*
G01*
X102679000Y-157472000D01*
G75*
G02*
X102529000Y-157622000I-150000J0D01*
G01*
G37*
G36*
G01*
X101259000Y-157622000D02*
X100959000Y-157622000D01*
G75*
G02*
X100809000Y-157472000I0J150000D01*
G01*
X100809000Y-155822000D01*
G75*
G02*
X100959000Y-155672000I150000J0D01*
G01*
X101259000Y-155672000D01*
G75*
G02*
X101409000Y-155822000I0J-150000D01*
G01*
X101409000Y-157472000D01*
G75*
G02*
X101259000Y-157622000I-150000J0D01*
G01*
G37*
G36*
G01*
X99989000Y-157622000D02*
X99689000Y-157622000D01*
G75*
G02*
X99539000Y-157472000I0J150000D01*
G01*
X99539000Y-155822000D01*
G75*
G02*
X99689000Y-155672000I150000J0D01*
G01*
X99989000Y-155672000D01*
G75*
G02*
X100139000Y-155822000I0J-150000D01*
G01*
X100139000Y-157472000D01*
G75*
G02*
X99989000Y-157622000I-150000J0D01*
G01*
G37*
G36*
G01*
X98719000Y-157622000D02*
X98419000Y-157622000D01*
G75*
G02*
X98269000Y-157472000I0J150000D01*
G01*
X98269000Y-155822000D01*
G75*
G02*
X98419000Y-155672000I150000J0D01*
G01*
X98719000Y-155672000D01*
G75*
G02*
X98869000Y-155822000I0J-150000D01*
G01*
X98869000Y-157472000D01*
G75*
G02*
X98719000Y-157622000I-150000J0D01*
G01*
G37*
G36*
G01*
X94765000Y-155660000D02*
X95065000Y-155660000D01*
G75*
G02*
X95215000Y-155810000I0J-150000D01*
G01*
X95215000Y-157460000D01*
G75*
G02*
X95065000Y-157610000I-150000J0D01*
G01*
X94765000Y-157610000D01*
G75*
G02*
X94615000Y-157460000I0J150000D01*
G01*
X94615000Y-155810000D01*
G75*
G02*
X94765000Y-155660000I150000J0D01*
G01*
G37*
G36*
G01*
X93495000Y-155660000D02*
X93795000Y-155660000D01*
G75*
G02*
X93945000Y-155810000I0J-150000D01*
G01*
X93945000Y-157460000D01*
G75*
G02*
X93795000Y-157610000I-150000J0D01*
G01*
X93495000Y-157610000D01*
G75*
G02*
X93345000Y-157460000I0J150000D01*
G01*
X93345000Y-155810000D01*
G75*
G02*
X93495000Y-155660000I150000J0D01*
G01*
G37*
G36*
G01*
X92225000Y-155660000D02*
X92525000Y-155660000D01*
G75*
G02*
X92675000Y-155810000I0J-150000D01*
G01*
X92675000Y-157460000D01*
G75*
G02*
X92525000Y-157610000I-150000J0D01*
G01*
X92225000Y-157610000D01*
G75*
G02*
X92075000Y-157460000I0J150000D01*
G01*
X92075000Y-155810000D01*
G75*
G02*
X92225000Y-155660000I150000J0D01*
G01*
G37*
G36*
G01*
X90955000Y-155660000D02*
X91255000Y-155660000D01*
G75*
G02*
X91405000Y-155810000I0J-150000D01*
G01*
X91405000Y-157460000D01*
G75*
G02*
X91255000Y-157610000I-150000J0D01*
G01*
X90955000Y-157610000D01*
G75*
G02*
X90805000Y-157460000I0J150000D01*
G01*
X90805000Y-155810000D01*
G75*
G02*
X90955000Y-155660000I150000J0D01*
G01*
G37*
G36*
G01*
X90955000Y-150710000D02*
X91255000Y-150710000D01*
G75*
G02*
X91405000Y-150860000I0J-150000D01*
G01*
X91405000Y-152510000D01*
G75*
G02*
X91255000Y-152660000I-150000J0D01*
G01*
X90955000Y-152660000D01*
G75*
G02*
X90805000Y-152510000I0J150000D01*
G01*
X90805000Y-150860000D01*
G75*
G02*
X90955000Y-150710000I150000J0D01*
G01*
G37*
G36*
G01*
X92225000Y-150710000D02*
X92525000Y-150710000D01*
G75*
G02*
X92675000Y-150860000I0J-150000D01*
G01*
X92675000Y-152510000D01*
G75*
G02*
X92525000Y-152660000I-150000J0D01*
G01*
X92225000Y-152660000D01*
G75*
G02*
X92075000Y-152510000I0J150000D01*
G01*
X92075000Y-150860000D01*
G75*
G02*
X92225000Y-150710000I150000J0D01*
G01*
G37*
G36*
G01*
X93495000Y-150710000D02*
X93795000Y-150710000D01*
G75*
G02*
X93945000Y-150860000I0J-150000D01*
G01*
X93945000Y-152510000D01*
G75*
G02*
X93795000Y-152660000I-150000J0D01*
G01*
X93495000Y-152660000D01*
G75*
G02*
X93345000Y-152510000I0J150000D01*
G01*
X93345000Y-150860000D01*
G75*
G02*
X93495000Y-150710000I150000J0D01*
G01*
G37*
G36*
G01*
X94765000Y-150710000D02*
X95065000Y-150710000D01*
G75*
G02*
X95215000Y-150860000I0J-150000D01*
G01*
X95215000Y-152510000D01*
G75*
G02*
X95065000Y-152660000I-150000J0D01*
G01*
X94765000Y-152660000D01*
G75*
G02*
X94615000Y-152510000I0J150000D01*
G01*
X94615000Y-150860000D01*
G75*
G02*
X94765000Y-150710000I150000J0D01*
G01*
G37*
G36*
G01*
X97214001Y-151712000D02*
X96313999Y-151712000D01*
G75*
G02*
X96064000Y-151462001I0J249999D01*
G01*
X96064000Y-150936999D01*
G75*
G02*
X96313999Y-150687000I249999J0D01*
G01*
X97214001Y-150687000D01*
G75*
G02*
X97464000Y-150936999I0J-249999D01*
G01*
X97464000Y-151462001D01*
G75*
G02*
X97214001Y-151712000I-249999J0D01*
G01*
G37*
G36*
G01*
X97214001Y-153537000D02*
X96313999Y-153537000D01*
G75*
G02*
X96064000Y-153287001I0J249999D01*
G01*
X96064000Y-152761999D01*
G75*
G02*
X96313999Y-152512000I249999J0D01*
G01*
X97214001Y-152512000D01*
G75*
G02*
X97464000Y-152761999I0J-249999D01*
G01*
X97464000Y-153287001D01*
G75*
G02*
X97214001Y-153537000I-249999J0D01*
G01*
G37*
G36*
G01*
X96309999Y-156557500D02*
X97210001Y-156557500D01*
G75*
G02*
X97460000Y-156807499I0J-249999D01*
G01*
X97460000Y-157332501D01*
G75*
G02*
X97210001Y-157582500I-249999J0D01*
G01*
X96309999Y-157582500D01*
G75*
G02*
X96060000Y-157332501I0J249999D01*
G01*
X96060000Y-156807499D01*
G75*
G02*
X96309999Y-156557500I249999J0D01*
G01*
G37*
G36*
G01*
X96309999Y-154732500D02*
X97210001Y-154732500D01*
G75*
G02*
X97460000Y-154982499I0J-249999D01*
G01*
X97460000Y-155507501D01*
G75*
G02*
X97210001Y-155757500I-249999J0D01*
G01*
X96309999Y-155757500D01*
G75*
G02*
X96060000Y-155507501I0J249999D01*
G01*
X96060000Y-154982499D01*
G75*
G02*
X96309999Y-154732500I249999J0D01*
G01*
G37*
G36*
G01*
X110370000Y-159580001D02*
X110370000Y-158679999D01*
G75*
G02*
X110619999Y-158430000I249999J0D01*
G01*
X111145001Y-158430000D01*
G75*
G02*
X111395000Y-158679999I0J-249999D01*
G01*
X111395000Y-159580001D01*
G75*
G02*
X111145001Y-159830000I-249999J0D01*
G01*
X110619999Y-159830000D01*
G75*
G02*
X110370000Y-159580001I0J249999D01*
G01*
G37*
G36*
G01*
X108545000Y-159580001D02*
X108545000Y-158679999D01*
G75*
G02*
X108794999Y-158430000I249999J0D01*
G01*
X109320001Y-158430000D01*
G75*
G02*
X109570000Y-158679999I0J-249999D01*
G01*
X109570000Y-159580001D01*
G75*
G02*
X109320001Y-159830000I-249999J0D01*
G01*
X108794999Y-159830000D01*
G75*
G02*
X108545000Y-159580001I0J249999D01*
G01*
G37*
G36*
G01*
X106980000Y-159580001D02*
X106980000Y-158679999D01*
G75*
G02*
X107229999Y-158430000I249999J0D01*
G01*
X107755001Y-158430000D01*
G75*
G02*
X108005000Y-158679999I0J-249999D01*
G01*
X108005000Y-159580001D01*
G75*
G02*
X107755001Y-159830000I-249999J0D01*
G01*
X107229999Y-159830000D01*
G75*
G02*
X106980000Y-159580001I0J249999D01*
G01*
G37*
G36*
G01*
X105155000Y-159580001D02*
X105155000Y-158679999D01*
G75*
G02*
X105404999Y-158430000I249999J0D01*
G01*
X105930001Y-158430000D01*
G75*
G02*
X106180000Y-158679999I0J-249999D01*
G01*
X106180000Y-159580001D01*
G75*
G02*
X105930001Y-159830000I-249999J0D01*
G01*
X105404999Y-159830000D01*
G75*
G02*
X105155000Y-159580001I0J249999D01*
G01*
G37*
G36*
G01*
X96229999Y-119510000D02*
X97530001Y-119510000D01*
G75*
G02*
X97780000Y-119759999I0J-249999D01*
G01*
X97780000Y-120460001D01*
G75*
G02*
X97530001Y-120710000I-249999J0D01*
G01*
X96229999Y-120710000D01*
G75*
G02*
X95980000Y-120460001I0J249999D01*
G01*
X95980000Y-119759999D01*
G75*
G02*
X96229999Y-119510000I249999J0D01*
G01*
G37*
G36*
G01*
X96229999Y-113910000D02*
X97530001Y-113910000D01*
G75*
G02*
X97780000Y-114159999I0J-249999D01*
G01*
X97780000Y-114860001D01*
G75*
G02*
X97530001Y-115110000I-249999J0D01*
G01*
X96229999Y-115110000D01*
G75*
G02*
X95980000Y-114860001I0J249999D01*
G01*
X95980000Y-114159999D01*
G75*
G02*
X96229999Y-113910000I249999J0D01*
G01*
G37*
G36*
G01*
X93730000Y-118510000D02*
X94980000Y-118510000D01*
G75*
G02*
X95130000Y-118660000I0J-150000D01*
G01*
X95130000Y-118960000D01*
G75*
G02*
X94980000Y-119110000I-150000J0D01*
G01*
X93730000Y-119110000D01*
G75*
G02*
X93580000Y-118960000I0J150000D01*
G01*
X93580000Y-118660000D01*
G75*
G02*
X93730000Y-118510000I150000J0D01*
G01*
G37*
G36*
G01*
X93730000Y-117510000D02*
X94980000Y-117510000D01*
G75*
G02*
X95130000Y-117660000I0J-150000D01*
G01*
X95130000Y-117960000D01*
G75*
G02*
X94980000Y-118110000I-150000J0D01*
G01*
X93730000Y-118110000D01*
G75*
G02*
X93580000Y-117960000I0J150000D01*
G01*
X93580000Y-117660000D01*
G75*
G02*
X93730000Y-117510000I150000J0D01*
G01*
G37*
G36*
G01*
X93730000Y-116510000D02*
X94980000Y-116510000D01*
G75*
G02*
X95130000Y-116660000I0J-150000D01*
G01*
X95130000Y-116960000D01*
G75*
G02*
X94980000Y-117110000I-150000J0D01*
G01*
X93730000Y-117110000D01*
G75*
G02*
X93580000Y-116960000I0J150000D01*
G01*
X93580000Y-116660000D01*
G75*
G02*
X93730000Y-116510000I150000J0D01*
G01*
G37*
G36*
G01*
X93730000Y-115510000D02*
X94980000Y-115510000D01*
G75*
G02*
X95130000Y-115660000I0J-150000D01*
G01*
X95130000Y-115960000D01*
G75*
G02*
X94980000Y-116110000I-150000J0D01*
G01*
X93730000Y-116110000D01*
G75*
G02*
X93580000Y-115960000I0J150000D01*
G01*
X93580000Y-115660000D01*
G75*
G02*
X93730000Y-115510000I150000J0D01*
G01*
G37*
G36*
G01*
X101429999Y-119500000D02*
X102730001Y-119500000D01*
G75*
G02*
X102980000Y-119749999I0J-249999D01*
G01*
X102980000Y-120450001D01*
G75*
G02*
X102730001Y-120700000I-249999J0D01*
G01*
X101429999Y-120700000D01*
G75*
G02*
X101180000Y-120450001I0J249999D01*
G01*
X101180000Y-119749999D01*
G75*
G02*
X101429999Y-119500000I249999J0D01*
G01*
G37*
G36*
G01*
X101429999Y-113900000D02*
X102730001Y-113900000D01*
G75*
G02*
X102980000Y-114149999I0J-249999D01*
G01*
X102980000Y-114850001D01*
G75*
G02*
X102730001Y-115100000I-249999J0D01*
G01*
X101429999Y-115100000D01*
G75*
G02*
X101180000Y-114850001I0J249999D01*
G01*
X101180000Y-114149999D01*
G75*
G02*
X101429999Y-113900000I249999J0D01*
G01*
G37*
G36*
G01*
X98930000Y-118500000D02*
X100180000Y-118500000D01*
G75*
G02*
X100330000Y-118650000I0J-150000D01*
G01*
X100330000Y-118950000D01*
G75*
G02*
X100180000Y-119100000I-150000J0D01*
G01*
X98930000Y-119100000D01*
G75*
G02*
X98780000Y-118950000I0J150000D01*
G01*
X98780000Y-118650000D01*
G75*
G02*
X98930000Y-118500000I150000J0D01*
G01*
G37*
G36*
G01*
X98930000Y-117500000D02*
X100180000Y-117500000D01*
G75*
G02*
X100330000Y-117650000I0J-150000D01*
G01*
X100330000Y-117950000D01*
G75*
G02*
X100180000Y-118100000I-150000J0D01*
G01*
X98930000Y-118100000D01*
G75*
G02*
X98780000Y-117950000I0J150000D01*
G01*
X98780000Y-117650000D01*
G75*
G02*
X98930000Y-117500000I150000J0D01*
G01*
G37*
G36*
G01*
X98930000Y-116500000D02*
X100180000Y-116500000D01*
G75*
G02*
X100330000Y-116650000I0J-150000D01*
G01*
X100330000Y-116950000D01*
G75*
G02*
X100180000Y-117100000I-150000J0D01*
G01*
X98930000Y-117100000D01*
G75*
G02*
X98780000Y-116950000I0J150000D01*
G01*
X98780000Y-116650000D01*
G75*
G02*
X98930000Y-116500000I150000J0D01*
G01*
G37*
G36*
G01*
X98930000Y-115500000D02*
X100180000Y-115500000D01*
G75*
G02*
X100330000Y-115650000I0J-150000D01*
G01*
X100330000Y-115950000D01*
G75*
G02*
X100180000Y-116100000I-150000J0D01*
G01*
X98930000Y-116100000D01*
G75*
G02*
X98780000Y-115950000I0J150000D01*
G01*
X98780000Y-115650000D01*
G75*
G02*
X98930000Y-115500000I150000J0D01*
G01*
G37*
D12*
X141750000Y-140000000D03*
X139250000Y-140000000D03*
G36*
G01*
X135900000Y-140725000D02*
X135900000Y-139275000D01*
G75*
G02*
X136150000Y-139025000I250000J0D01*
G01*
X137350000Y-139025000D01*
G75*
G02*
X137600000Y-139275000I0J-250000D01*
G01*
X137600000Y-140725000D01*
G75*
G02*
X137350000Y-140975000I-250000J0D01*
G01*
X136150000Y-140975000D01*
G75*
G02*
X135900000Y-140725000I0J250000D01*
G01*
G37*
X141750000Y-146940000D03*
X139250000Y-146940000D03*
G36*
G01*
X135900000Y-147665000D02*
X135900000Y-146215000D01*
G75*
G02*
X136150000Y-145965000I250000J0D01*
G01*
X137350000Y-145965000D01*
G75*
G02*
X137600000Y-146215000I0J-250000D01*
G01*
X137600000Y-147665000D01*
G75*
G02*
X137350000Y-147915000I-250000J0D01*
G01*
X136150000Y-147915000D01*
G75*
G02*
X135900000Y-147665000I0J250000D01*
G01*
G37*
D22*
X100490000Y-145980000D03*
X103030000Y-145980000D03*
D23*
X105570000Y-145980000D03*
D24*
X138490000Y-130880000D03*
X142390000Y-130880000D03*
X138490000Y-132150000D03*
X142390000Y-132150000D03*
X138490000Y-133420000D03*
X142390000Y-133420000D03*
X138490000Y-134690000D03*
X142390000Y-134690000D03*
X138490000Y-135960000D03*
X142390000Y-135960000D03*
D22*
X100490000Y-148800000D03*
X103030000Y-148800000D03*
D23*
X105570000Y-148800000D03*
D25*
X143980000Y-161000000D03*
G36*
G01*
X111430000Y-142325000D02*
X111430000Y-143275000D01*
G75*
G02*
X111180000Y-143525000I-250000J0D01*
G01*
X110680000Y-143525000D01*
G75*
G02*
X110430000Y-143275000I0J250000D01*
G01*
X110430000Y-142325000D01*
G75*
G02*
X110680000Y-142075000I250000J0D01*
G01*
X111180000Y-142075000D01*
G75*
G02*
X111430000Y-142325000I0J-250000D01*
G01*
G37*
G36*
G01*
X113330000Y-142325000D02*
X113330000Y-143275000D01*
G75*
G02*
X113080000Y-143525000I-250000J0D01*
G01*
X112580000Y-143525000D01*
G75*
G02*
X112330000Y-143275000I0J250000D01*
G01*
X112330000Y-142325000D01*
G75*
G02*
X112580000Y-142075000I250000J0D01*
G01*
X113080000Y-142075000D01*
G75*
G02*
X113330000Y-142325000I0J-250000D01*
G01*
G37*
G36*
G01*
X112340000Y-137075000D02*
X112340000Y-136125000D01*
G75*
G02*
X112590000Y-135875000I250000J0D01*
G01*
X113090000Y-135875000D01*
G75*
G02*
X113340000Y-136125000I0J-250000D01*
G01*
X113340000Y-137075000D01*
G75*
G02*
X113090000Y-137325000I-250000J0D01*
G01*
X112590000Y-137325000D01*
G75*
G02*
X112340000Y-137075000I0J250000D01*
G01*
G37*
G36*
G01*
X110440000Y-137075000D02*
X110440000Y-136125000D01*
G75*
G02*
X110690000Y-135875000I250000J0D01*
G01*
X111190000Y-135875000D01*
G75*
G02*
X111440000Y-136125000I0J-250000D01*
G01*
X111440000Y-137075000D01*
G75*
G02*
X111190000Y-137325000I-250000J0D01*
G01*
X110690000Y-137325000D01*
G75*
G02*
X110440000Y-137075000I0J250000D01*
G01*
G37*
D26*
X103800000Y-134120000D03*
D27*
X103800000Y-141720000D03*
D28*
X130500000Y-125420000D03*
X127960000Y-125420000D03*
X125420000Y-125420000D03*
X122880000Y-125420000D03*
X120340000Y-125420000D03*
X117800000Y-125420000D03*
X115260000Y-125420000D03*
X112720000Y-125420000D03*
X110180000Y-125420000D03*
X107640000Y-125420000D03*
X130500000Y-127960000D03*
X127960000Y-127960000D03*
X125420000Y-127960000D03*
X122880000Y-127960000D03*
X120340000Y-127960000D03*
X117800000Y-127960000D03*
X115260000Y-127960000D03*
X112720000Y-127960000D03*
X110180000Y-127960000D03*
G36*
G01*
X108240000Y-128810000D02*
X107040000Y-128810000D01*
G75*
G02*
X106790000Y-128560000I0J250000D01*
G01*
X106790000Y-127360000D01*
G75*
G02*
X107040000Y-127110000I250000J0D01*
G01*
X108240000Y-127110000D01*
G75*
G02*
X108490000Y-127360000I0J-250000D01*
G01*
X108490000Y-128560000D01*
G75*
G02*
X108240000Y-128810000I-250000J0D01*
G01*
G37*
G36*
G01*
X153720001Y-141040000D02*
X152819999Y-141040000D01*
G75*
G02*
X152570000Y-140790001I0J249999D01*
G01*
X152570000Y-140264999D01*
G75*
G02*
X152819999Y-140015000I249999J0D01*
G01*
X153720001Y-140015000D01*
G75*
G02*
X153970000Y-140264999I0J-249999D01*
G01*
X153970000Y-140790001D01*
G75*
G02*
X153720001Y-141040000I-249999J0D01*
G01*
G37*
G36*
G01*
X153720001Y-142865000D02*
X152819999Y-142865000D01*
G75*
G02*
X152570000Y-142615001I0J249999D01*
G01*
X152570000Y-142089999D01*
G75*
G02*
X152819999Y-141840000I249999J0D01*
G01*
X153720001Y-141840000D01*
G75*
G02*
X153970000Y-142089999I0J-249999D01*
G01*
X153970000Y-142615001D01*
G75*
G02*
X153720001Y-142865000I-249999J0D01*
G01*
G37*
X155440000Y-133380000D03*
X152900000Y-133380000D03*
X150360000Y-133380000D03*
X155440000Y-135920000D03*
X152900000Y-135920000D03*
G36*
G01*
X150960000Y-136770000D02*
X149760000Y-136770000D01*
G75*
G02*
X149510000Y-136520000I0J250000D01*
G01*
X149510000Y-135320000D01*
G75*
G02*
X149760000Y-135070000I250000J0D01*
G01*
X150960000Y-135070000D01*
G75*
G02*
X151210000Y-135320000I0J-250000D01*
G01*
X151210000Y-136520000D01*
G75*
G02*
X150960000Y-136770000I-250000J0D01*
G01*
G37*
D12*
X111450000Y-116280000D03*
X108950000Y-116280000D03*
G36*
G01*
X105600000Y-117005000D02*
X105600000Y-115555000D01*
G75*
G02*
X105850000Y-115305000I250000J0D01*
G01*
X107050000Y-115305000D01*
G75*
G02*
X107300000Y-115555000I0J-250000D01*
G01*
X107300000Y-117005000D01*
G75*
G02*
X107050000Y-117255000I-250000J0D01*
G01*
X105850000Y-117255000D01*
G75*
G02*
X105600000Y-117005000I0J250000D01*
G01*
G37*
X155030000Y-124430000D03*
X152530000Y-124430000D03*
G36*
G01*
X149180000Y-125155000D02*
X149180000Y-123705000D01*
G75*
G02*
X149430000Y-123455000I250000J0D01*
G01*
X150630000Y-123455000D01*
G75*
G02*
X150880000Y-123705000I0J-250000D01*
G01*
X150880000Y-125155000D01*
G75*
G02*
X150630000Y-125405000I-250000J0D01*
G01*
X149430000Y-125405000D01*
G75*
G02*
X149180000Y-125155000I0J250000D01*
G01*
G37*
X165970000Y-124430000D03*
X163470000Y-124430000D03*
G36*
G01*
X160120000Y-125155000D02*
X160120000Y-123705000D01*
G75*
G02*
X160370000Y-123455000I250000J0D01*
G01*
X161570000Y-123455000D01*
G75*
G02*
X161820000Y-123705000I0J-250000D01*
G01*
X161820000Y-125155000D01*
G75*
G02*
X161570000Y-125405000I-250000J0D01*
G01*
X160370000Y-125405000D01*
G75*
G02*
X160120000Y-125155000I0J250000D01*
G01*
G37*
X144090000Y-124430000D03*
X141590000Y-124430000D03*
G36*
G01*
X138240000Y-125155000D02*
X138240000Y-123705000D01*
G75*
G02*
X138490000Y-123455000I250000J0D01*
G01*
X139690000Y-123455000D01*
G75*
G02*
X139940000Y-123705000I0J-250000D01*
G01*
X139940000Y-125155000D01*
G75*
G02*
X139690000Y-125405000I-250000J0D01*
G01*
X138490000Y-125405000D01*
G75*
G02*
X138240000Y-125155000I0J250000D01*
G01*
G37*
X166050000Y-116260000D03*
X163550000Y-116260000D03*
G36*
G01*
X160200000Y-116985000D02*
X160200000Y-115535000D01*
G75*
G02*
X160450000Y-115285000I250000J0D01*
G01*
X161650000Y-115285000D01*
G75*
G02*
X161900000Y-115535000I0J-250000D01*
G01*
X161900000Y-116985000D01*
G75*
G02*
X161650000Y-117235000I-250000J0D01*
G01*
X160450000Y-117235000D01*
G75*
G02*
X160200000Y-116985000I0J250000D01*
G01*
G37*
X155120000Y-116260000D03*
X152620000Y-116260000D03*
G36*
G01*
X149270000Y-116985000D02*
X149270000Y-115535000D01*
G75*
G02*
X149520000Y-115285000I250000J0D01*
G01*
X150720000Y-115285000D01*
G75*
G02*
X150970000Y-115535000I0J-250000D01*
G01*
X150970000Y-116985000D01*
G75*
G02*
X150720000Y-117235000I-250000J0D01*
G01*
X149520000Y-117235000D01*
G75*
G02*
X149270000Y-116985000I0J250000D01*
G01*
G37*
X144200000Y-116250000D03*
X141700000Y-116250000D03*
G36*
G01*
X138350000Y-116975000D02*
X138350000Y-115525000D01*
G75*
G02*
X138600000Y-115275000I250000J0D01*
G01*
X139800000Y-115275000D01*
G75*
G02*
X140050000Y-115525000I0J-250000D01*
G01*
X140050000Y-116975000D01*
G75*
G02*
X139800000Y-117225000I-250000J0D01*
G01*
X138600000Y-117225000D01*
G75*
G02*
X138350000Y-116975000I0J250000D01*
G01*
G37*
X133290000Y-116280000D03*
X130790000Y-116280000D03*
G36*
G01*
X127440000Y-117005000D02*
X127440000Y-115555000D01*
G75*
G02*
X127690000Y-115305000I250000J0D01*
G01*
X128890000Y-115305000D01*
G75*
G02*
X129140000Y-115555000I0J-250000D01*
G01*
X129140000Y-117005000D01*
G75*
G02*
X128890000Y-117255000I-250000J0D01*
G01*
X127690000Y-117255000D01*
G75*
G02*
X127440000Y-117005000I0J250000D01*
G01*
G37*
D18*
X156200000Y-161100000D03*
X153700000Y-161100000D03*
X151700000Y-161100000D03*
D19*
X149200000Y-161100000D03*
D20*
X146130000Y-163810000D03*
X159270000Y-163810000D03*
D18*
X138780000Y-161080000D03*
X136280000Y-161080000D03*
X134280000Y-161080000D03*
D19*
X131780000Y-161080000D03*
D20*
X128710000Y-163790000D03*
X141850000Y-163790000D03*
G36*
G01*
X87695000Y-159337500D02*
X87695000Y-158862500D01*
G75*
G02*
X87932500Y-158625000I237500J0D01*
G01*
X88682500Y-158625000D01*
G75*
G02*
X88920000Y-158862500I0J-237500D01*
G01*
X88920000Y-159337500D01*
G75*
G02*
X88682500Y-159575000I-237500J0D01*
G01*
X87932500Y-159575000D01*
G75*
G02*
X87695000Y-159337500I0J237500D01*
G01*
G37*
G36*
G01*
X87695000Y-161877500D02*
X87695000Y-161402500D01*
G75*
G02*
X87932500Y-161165000I237500J0D01*
G01*
X88682500Y-161165000D01*
G75*
G02*
X88920000Y-161402500I0J-237500D01*
G01*
X88920000Y-161877500D01*
G75*
G02*
X88682500Y-162115000I-237500J0D01*
G01*
X87932500Y-162115000D01*
G75*
G02*
X87695000Y-161877500I0J237500D01*
G01*
G37*
G36*
G01*
X87695000Y-164417500D02*
X87695000Y-163942500D01*
G75*
G02*
X87932500Y-163705000I237500J0D01*
G01*
X88682500Y-163705000D01*
G75*
G02*
X88920000Y-163942500I0J-237500D01*
G01*
X88920000Y-164417500D01*
G75*
G02*
X88682500Y-164655000I-237500J0D01*
G01*
X87932500Y-164655000D01*
G75*
G02*
X87695000Y-164417500I0J237500D01*
G01*
G37*
G36*
G01*
X77720000Y-164417500D02*
X77720000Y-163942500D01*
G75*
G02*
X77957500Y-163705000I237500J0D01*
G01*
X78707500Y-163705000D01*
G75*
G02*
X78945000Y-163942500I0J-237500D01*
G01*
X78945000Y-164417500D01*
G75*
G02*
X78707500Y-164655000I-237500J0D01*
G01*
X77957500Y-164655000D01*
G75*
G02*
X77720000Y-164417500I0J237500D01*
G01*
G37*
G36*
G01*
X77720000Y-161877500D02*
X77720000Y-161402500D01*
G75*
G02*
X77957500Y-161165000I237500J0D01*
G01*
X78707500Y-161165000D01*
G75*
G02*
X78945000Y-161402500I0J-237500D01*
G01*
X78945000Y-161877500D01*
G75*
G02*
X78707500Y-162115000I-237500J0D01*
G01*
X77957500Y-162115000D01*
G75*
G02*
X77720000Y-161877500I0J237500D01*
G01*
G37*
G36*
G01*
X77720000Y-159337500D02*
X77720000Y-158862500D01*
G75*
G02*
X77957500Y-158625000I237500J0D01*
G01*
X78707500Y-158625000D01*
G75*
G02*
X78945000Y-158862500I0J-237500D01*
G01*
X78945000Y-159337500D01*
G75*
G02*
X78707500Y-159575000I-237500J0D01*
G01*
X77957500Y-159575000D01*
G75*
G02*
X77720000Y-159337500I0J237500D01*
G01*
G37*
G36*
G01*
X99865000Y-159387500D02*
X99865000Y-158912500D01*
G75*
G02*
X100102500Y-158675000I237500J0D01*
G01*
X100852500Y-158675000D01*
G75*
G02*
X101090000Y-158912500I0J-237500D01*
G01*
X101090000Y-159387500D01*
G75*
G02*
X100852500Y-159625000I-237500J0D01*
G01*
X100102500Y-159625000D01*
G75*
G02*
X99865000Y-159387500I0J237500D01*
G01*
G37*
G36*
G01*
X99865000Y-161927500D02*
X99865000Y-161452500D01*
G75*
G02*
X100102500Y-161215000I237500J0D01*
G01*
X100852500Y-161215000D01*
G75*
G02*
X101090000Y-161452500I0J-237500D01*
G01*
X101090000Y-161927500D01*
G75*
G02*
X100852500Y-162165000I-237500J0D01*
G01*
X100102500Y-162165000D01*
G75*
G02*
X99865000Y-161927500I0J237500D01*
G01*
G37*
G36*
G01*
X99865000Y-164467500D02*
X99865000Y-163992500D01*
G75*
G02*
X100102500Y-163755000I237500J0D01*
G01*
X100852500Y-163755000D01*
G75*
G02*
X101090000Y-163992500I0J-237500D01*
G01*
X101090000Y-164467500D01*
G75*
G02*
X100852500Y-164705000I-237500J0D01*
G01*
X100102500Y-164705000D01*
G75*
G02*
X99865000Y-164467500I0J237500D01*
G01*
G37*
G36*
G01*
X89890000Y-164467500D02*
X89890000Y-163992500D01*
G75*
G02*
X90127500Y-163755000I237500J0D01*
G01*
X90877500Y-163755000D01*
G75*
G02*
X91115000Y-163992500I0J-237500D01*
G01*
X91115000Y-164467500D01*
G75*
G02*
X90877500Y-164705000I-237500J0D01*
G01*
X90127500Y-164705000D01*
G75*
G02*
X89890000Y-164467500I0J237500D01*
G01*
G37*
G36*
G01*
X89890000Y-161927500D02*
X89890000Y-161452500D01*
G75*
G02*
X90127500Y-161215000I237500J0D01*
G01*
X90877500Y-161215000D01*
G75*
G02*
X91115000Y-161452500I0J-237500D01*
G01*
X91115000Y-161927500D01*
G75*
G02*
X90877500Y-162165000I-237500J0D01*
G01*
X90127500Y-162165000D01*
G75*
G02*
X89890000Y-161927500I0J237500D01*
G01*
G37*
G36*
G01*
X89890000Y-159387500D02*
X89890000Y-158912500D01*
G75*
G02*
X90127500Y-158675000I237500J0D01*
G01*
X90877500Y-158675000D01*
G75*
G02*
X91115000Y-158912500I0J-237500D01*
G01*
X91115000Y-159387500D01*
G75*
G02*
X90877500Y-159625000I-237500J0D01*
G01*
X90127500Y-159625000D01*
G75*
G02*
X89890000Y-159387500I0J237500D01*
G01*
G37*
D21*
X85070000Y-137450000D03*
G36*
G01*
X81720000Y-138200000D02*
X81720000Y-136700000D01*
G75*
G02*
X81970000Y-136450000I250000J0D01*
G01*
X83170000Y-136450000D01*
G75*
G02*
X83420000Y-136700000I0J-250000D01*
G01*
X83420000Y-138200000D01*
G75*
G02*
X83170000Y-138450000I-250000J0D01*
G01*
X81970000Y-138450000D01*
G75*
G02*
X81720000Y-138200000I0J250000D01*
G01*
G37*
G36*
G01*
X107100000Y-164655000D02*
X107100000Y-164955000D01*
G75*
G02*
X106950000Y-165105000I-150000J0D01*
G01*
X105300000Y-165105000D01*
G75*
G02*
X105150000Y-164955000I0J150000D01*
G01*
X105150000Y-164655000D01*
G75*
G02*
X105300000Y-164505000I150000J0D01*
G01*
X106950000Y-164505000D01*
G75*
G02*
X107100000Y-164655000I0J-150000D01*
G01*
G37*
G36*
G01*
X107100000Y-163385000D02*
X107100000Y-163685000D01*
G75*
G02*
X106950000Y-163835000I-150000J0D01*
G01*
X105300000Y-163835000D01*
G75*
G02*
X105150000Y-163685000I0J150000D01*
G01*
X105150000Y-163385000D01*
G75*
G02*
X105300000Y-163235000I150000J0D01*
G01*
X106950000Y-163235000D01*
G75*
G02*
X107100000Y-163385000I0J-150000D01*
G01*
G37*
G36*
G01*
X107100000Y-162115000D02*
X107100000Y-162415000D01*
G75*
G02*
X106950000Y-162565000I-150000J0D01*
G01*
X105300000Y-162565000D01*
G75*
G02*
X105150000Y-162415000I0J150000D01*
G01*
X105150000Y-162115000D01*
G75*
G02*
X105300000Y-161965000I150000J0D01*
G01*
X106950000Y-161965000D01*
G75*
G02*
X107100000Y-162115000I0J-150000D01*
G01*
G37*
G36*
G01*
X107100000Y-160845000D02*
X107100000Y-161145000D01*
G75*
G02*
X106950000Y-161295000I-150000J0D01*
G01*
X105300000Y-161295000D01*
G75*
G02*
X105150000Y-161145000I0J150000D01*
G01*
X105150000Y-160845000D01*
G75*
G02*
X105300000Y-160695000I150000J0D01*
G01*
X106950000Y-160695000D01*
G75*
G02*
X107100000Y-160845000I0J-150000D01*
G01*
G37*
G36*
G01*
X112050000Y-160845000D02*
X112050000Y-161145000D01*
G75*
G02*
X111900000Y-161295000I-150000J0D01*
G01*
X110250000Y-161295000D01*
G75*
G02*
X110100000Y-161145000I0J150000D01*
G01*
X110100000Y-160845000D01*
G75*
G02*
X110250000Y-160695000I150000J0D01*
G01*
X111900000Y-160695000D01*
G75*
G02*
X112050000Y-160845000I0J-150000D01*
G01*
G37*
G36*
G01*
X112050000Y-162115000D02*
X112050000Y-162415000D01*
G75*
G02*
X111900000Y-162565000I-150000J0D01*
G01*
X110250000Y-162565000D01*
G75*
G02*
X110100000Y-162415000I0J150000D01*
G01*
X110100000Y-162115000D01*
G75*
G02*
X110250000Y-161965000I150000J0D01*
G01*
X111900000Y-161965000D01*
G75*
G02*
X112050000Y-162115000I0J-150000D01*
G01*
G37*
G36*
G01*
X112050000Y-163385000D02*
X112050000Y-163685000D01*
G75*
G02*
X111900000Y-163835000I-150000J0D01*
G01*
X110250000Y-163835000D01*
G75*
G02*
X110100000Y-163685000I0J150000D01*
G01*
X110100000Y-163385000D01*
G75*
G02*
X110250000Y-163235000I150000J0D01*
G01*
X111900000Y-163235000D01*
G75*
G02*
X112050000Y-163385000I0J-150000D01*
G01*
G37*
G36*
G01*
X112050000Y-164655000D02*
X112050000Y-164955000D01*
G75*
G02*
X111900000Y-165105000I-150000J0D01*
G01*
X110250000Y-165105000D01*
G75*
G02*
X110100000Y-164955000I0J150000D01*
G01*
X110100000Y-164655000D01*
G75*
G02*
X110250000Y-164505000I150000J0D01*
G01*
X111900000Y-164505000D01*
G75*
G02*
X112050000Y-164655000I0J-150000D01*
G01*
G37*
G36*
G01*
X89550001Y-151860000D02*
X88649999Y-151860000D01*
G75*
G02*
X88400000Y-151610001I0J249999D01*
G01*
X88400000Y-151084999D01*
G75*
G02*
X88649999Y-150835000I249999J0D01*
G01*
X89550001Y-150835000D01*
G75*
G02*
X89800000Y-151084999I0J-249999D01*
G01*
X89800000Y-151610001D01*
G75*
G02*
X89550001Y-151860000I-249999J0D01*
G01*
G37*
G36*
G01*
X89550001Y-153685000D02*
X88649999Y-153685000D01*
G75*
G02*
X88400000Y-153435001I0J249999D01*
G01*
X88400000Y-152909999D01*
G75*
G02*
X88649999Y-152660000I249999J0D01*
G01*
X89550001Y-152660000D01*
G75*
G02*
X89800000Y-152909999I0J-249999D01*
G01*
X89800000Y-153435001D01*
G75*
G02*
X89550001Y-153685000I-249999J0D01*
G01*
G37*
G36*
G01*
X89570001Y-143880000D02*
X88669999Y-143880000D01*
G75*
G02*
X88420000Y-143630001I0J249999D01*
G01*
X88420000Y-143104999D01*
G75*
G02*
X88669999Y-142855000I249999J0D01*
G01*
X89570001Y-142855000D01*
G75*
G02*
X89820000Y-143104999I0J-249999D01*
G01*
X89820000Y-143630001D01*
G75*
G02*
X89570001Y-143880000I-249999J0D01*
G01*
G37*
G36*
G01*
X89570001Y-145705000D02*
X88669999Y-145705000D01*
G75*
G02*
X88420000Y-145455001I0J249999D01*
G01*
X88420000Y-144929999D01*
G75*
G02*
X88669999Y-144680000I249999J0D01*
G01*
X89570001Y-144680000D01*
G75*
G02*
X89820000Y-144929999I0J-249999D01*
G01*
X89820000Y-145455001D01*
G75*
G02*
X89570001Y-145705000I-249999J0D01*
G01*
G37*
G36*
G01*
X79030001Y-151900000D02*
X78129999Y-151900000D01*
G75*
G02*
X77880000Y-151650001I0J249999D01*
G01*
X77880000Y-151124999D01*
G75*
G02*
X78129999Y-150875000I249999J0D01*
G01*
X79030001Y-150875000D01*
G75*
G02*
X79280000Y-151124999I0J-249999D01*
G01*
X79280000Y-151650001D01*
G75*
G02*
X79030001Y-151900000I-249999J0D01*
G01*
G37*
G36*
G01*
X79030001Y-153725000D02*
X78129999Y-153725000D01*
G75*
G02*
X77880000Y-153475001I0J249999D01*
G01*
X77880000Y-152949999D01*
G75*
G02*
X78129999Y-152700000I249999J0D01*
G01*
X79030001Y-152700000D01*
G75*
G02*
X79280000Y-152949999I0J-249999D01*
G01*
X79280000Y-153475001D01*
G75*
G02*
X79030001Y-153725000I-249999J0D01*
G01*
G37*
G36*
G01*
X79010001Y-143880000D02*
X78109999Y-143880000D01*
G75*
G02*
X77860000Y-143630001I0J249999D01*
G01*
X77860000Y-143104999D01*
G75*
G02*
X78109999Y-142855000I249999J0D01*
G01*
X79010001Y-142855000D01*
G75*
G02*
X79260000Y-143104999I0J-249999D01*
G01*
X79260000Y-143630001D01*
G75*
G02*
X79010001Y-143880000I-249999J0D01*
G01*
G37*
G36*
G01*
X79010001Y-145705000D02*
X78109999Y-145705000D01*
G75*
G02*
X77860000Y-145455001I0J249999D01*
G01*
X77860000Y-144929999D01*
G75*
G02*
X78109999Y-144680000I249999J0D01*
G01*
X79010001Y-144680000D01*
G75*
G02*
X79260000Y-144929999I0J-249999D01*
G01*
X79260000Y-145455001D01*
G75*
G02*
X79010001Y-145705000I-249999J0D01*
G01*
G37*
G36*
G01*
X89500001Y-135890000D02*
X88599999Y-135890000D01*
G75*
G02*
X88350000Y-135640001I0J249999D01*
G01*
X88350000Y-135114999D01*
G75*
G02*
X88599999Y-134865000I249999J0D01*
G01*
X89500001Y-134865000D01*
G75*
G02*
X89750000Y-135114999I0J-249999D01*
G01*
X89750000Y-135640001D01*
G75*
G02*
X89500001Y-135890000I-249999J0D01*
G01*
G37*
G36*
G01*
X89500001Y-137715000D02*
X88599999Y-137715000D01*
G75*
G02*
X88350000Y-137465001I0J249999D01*
G01*
X88350000Y-136939999D01*
G75*
G02*
X88599999Y-136690000I249999J0D01*
G01*
X89500001Y-136690000D01*
G75*
G02*
X89750000Y-136939999I0J-249999D01*
G01*
X89750000Y-137465001D01*
G75*
G02*
X89500001Y-137715000I-249999J0D01*
G01*
G37*
G36*
G01*
X79000001Y-135860000D02*
X78099999Y-135860000D01*
G75*
G02*
X77850000Y-135610001I0J249999D01*
G01*
X77850000Y-135084999D01*
G75*
G02*
X78099999Y-134835000I249999J0D01*
G01*
X79000001Y-134835000D01*
G75*
G02*
X79250000Y-135084999I0J-249999D01*
G01*
X79250000Y-135610001D01*
G75*
G02*
X79000001Y-135860000I-249999J0D01*
G01*
G37*
G36*
G01*
X79000001Y-137685000D02*
X78099999Y-137685000D01*
G75*
G02*
X77850000Y-137435001I0J249999D01*
G01*
X77850000Y-136909999D01*
G75*
G02*
X78099999Y-136660000I249999J0D01*
G01*
X79000001Y-136660000D01*
G75*
G02*
X79250000Y-136909999I0J-249999D01*
G01*
X79250000Y-137435001D01*
G75*
G02*
X79000001Y-137685000I-249999J0D01*
G01*
G37*
G36*
G01*
X89520001Y-127900000D02*
X88619999Y-127900000D01*
G75*
G02*
X88370000Y-127650001I0J249999D01*
G01*
X88370000Y-127124999D01*
G75*
G02*
X88619999Y-126875000I249999J0D01*
G01*
X89520001Y-126875000D01*
G75*
G02*
X89770000Y-127124999I0J-249999D01*
G01*
X89770000Y-127650001D01*
G75*
G02*
X89520001Y-127900000I-249999J0D01*
G01*
G37*
G36*
G01*
X89520001Y-129725000D02*
X88619999Y-129725000D01*
G75*
G02*
X88370000Y-129475001I0J249999D01*
G01*
X88370000Y-128949999D01*
G75*
G02*
X88619999Y-128700000I249999J0D01*
G01*
X89520001Y-128700000D01*
G75*
G02*
X89770000Y-128949999I0J-249999D01*
G01*
X89770000Y-129475001D01*
G75*
G02*
X89520001Y-129725000I-249999J0D01*
G01*
G37*
G36*
G01*
X78990001Y-127910000D02*
X78089999Y-127910000D01*
G75*
G02*
X77840000Y-127660001I0J249999D01*
G01*
X77840000Y-127134999D01*
G75*
G02*
X78089999Y-126885000I249999J0D01*
G01*
X78990001Y-126885000D01*
G75*
G02*
X79240000Y-127134999I0J-249999D01*
G01*
X79240000Y-127660001D01*
G75*
G02*
X78990001Y-127910000I-249999J0D01*
G01*
G37*
G36*
G01*
X78990001Y-129735000D02*
X78089999Y-129735000D01*
G75*
G02*
X77840000Y-129485001I0J249999D01*
G01*
X77840000Y-128959999D01*
G75*
G02*
X78089999Y-128710000I249999J0D01*
G01*
X78990001Y-128710000D01*
G75*
G02*
X79240000Y-128959999I0J-249999D01*
G01*
X79240000Y-129485001D01*
G75*
G02*
X78990001Y-129735000I-249999J0D01*
G01*
G37*
G36*
G01*
X102740000Y-162609999D02*
X102740000Y-163510001D01*
G75*
G02*
X102490001Y-163760000I-249999J0D01*
G01*
X101964999Y-163760000D01*
G75*
G02*
X101715000Y-163510001I0J249999D01*
G01*
X101715000Y-162609999D01*
G75*
G02*
X101964999Y-162360000I249999J0D01*
G01*
X102490001Y-162360000D01*
G75*
G02*
X102740000Y-162609999I0J-249999D01*
G01*
G37*
G36*
G01*
X104565000Y-162609999D02*
X104565000Y-163510001D01*
G75*
G02*
X104315001Y-163760000I-249999J0D01*
G01*
X103789999Y-163760000D01*
G75*
G02*
X103540000Y-163510001I0J249999D01*
G01*
X103540000Y-162609999D01*
G75*
G02*
X103789999Y-162360000I249999J0D01*
G01*
X104315001Y-162360000D01*
G75*
G02*
X104565000Y-162609999I0J-249999D01*
G01*
G37*
G36*
G01*
X112799999Y-164660000D02*
X113700001Y-164660000D01*
G75*
G02*
X113950000Y-164909999I0J-249999D01*
G01*
X113950000Y-165435001D01*
G75*
G02*
X113700001Y-165685000I-249999J0D01*
G01*
X112799999Y-165685000D01*
G75*
G02*
X112550000Y-165435001I0J249999D01*
G01*
X112550000Y-164909999D01*
G75*
G02*
X112799999Y-164660000I249999J0D01*
G01*
G37*
G36*
G01*
X112799999Y-162835000D02*
X113700001Y-162835000D01*
G75*
G02*
X113950000Y-163084999I0J-249999D01*
G01*
X113950000Y-163610001D01*
G75*
G02*
X113700001Y-163860000I-249999J0D01*
G01*
X112799999Y-163860000D01*
G75*
G02*
X112550000Y-163610001I0J249999D01*
G01*
X112550000Y-163084999D01*
G75*
G02*
X112799999Y-162835000I249999J0D01*
G01*
G37*
G36*
G01*
X89556250Y-155220000D02*
X88643750Y-155220000D01*
G75*
G02*
X88400000Y-154976250I0J243750D01*
G01*
X88400000Y-154488750D01*
G75*
G02*
X88643750Y-154245000I243750J0D01*
G01*
X89556250Y-154245000D01*
G75*
G02*
X89800000Y-154488750I0J-243750D01*
G01*
X89800000Y-154976250D01*
G75*
G02*
X89556250Y-155220000I-243750J0D01*
G01*
G37*
G36*
G01*
X89556250Y-157095000D02*
X88643750Y-157095000D01*
G75*
G02*
X88400000Y-156851250I0J243750D01*
G01*
X88400000Y-156363750D01*
G75*
G02*
X88643750Y-156120000I243750J0D01*
G01*
X89556250Y-156120000D01*
G75*
G02*
X89800000Y-156363750I0J-243750D01*
G01*
X89800000Y-156851250D01*
G75*
G02*
X89556250Y-157095000I-243750J0D01*
G01*
G37*
G36*
G01*
X89566250Y-147240000D02*
X88653750Y-147240000D01*
G75*
G02*
X88410000Y-146996250I0J243750D01*
G01*
X88410000Y-146508750D01*
G75*
G02*
X88653750Y-146265000I243750J0D01*
G01*
X89566250Y-146265000D01*
G75*
G02*
X89810000Y-146508750I0J-243750D01*
G01*
X89810000Y-146996250D01*
G75*
G02*
X89566250Y-147240000I-243750J0D01*
G01*
G37*
G36*
G01*
X89566250Y-149115000D02*
X88653750Y-149115000D01*
G75*
G02*
X88410000Y-148871250I0J243750D01*
G01*
X88410000Y-148383750D01*
G75*
G02*
X88653750Y-148140000I243750J0D01*
G01*
X89566250Y-148140000D01*
G75*
G02*
X89810000Y-148383750I0J-243750D01*
G01*
X89810000Y-148871250D01*
G75*
G02*
X89566250Y-149115000I-243750J0D01*
G01*
G37*
G36*
G01*
X79036250Y-155280000D02*
X78123750Y-155280000D01*
G75*
G02*
X77880000Y-155036250I0J243750D01*
G01*
X77880000Y-154548750D01*
G75*
G02*
X78123750Y-154305000I243750J0D01*
G01*
X79036250Y-154305000D01*
G75*
G02*
X79280000Y-154548750I0J-243750D01*
G01*
X79280000Y-155036250D01*
G75*
G02*
X79036250Y-155280000I-243750J0D01*
G01*
G37*
G36*
G01*
X79036250Y-157155000D02*
X78123750Y-157155000D01*
G75*
G02*
X77880000Y-156911250I0J243750D01*
G01*
X77880000Y-156423750D01*
G75*
G02*
X78123750Y-156180000I243750J0D01*
G01*
X79036250Y-156180000D01*
G75*
G02*
X79280000Y-156423750I0J-243750D01*
G01*
X79280000Y-156911250D01*
G75*
G02*
X79036250Y-157155000I-243750J0D01*
G01*
G37*
G36*
G01*
X79016250Y-147260000D02*
X78103750Y-147260000D01*
G75*
G02*
X77860000Y-147016250I0J243750D01*
G01*
X77860000Y-146528750D01*
G75*
G02*
X78103750Y-146285000I243750J0D01*
G01*
X79016250Y-146285000D01*
G75*
G02*
X79260000Y-146528750I0J-243750D01*
G01*
X79260000Y-147016250D01*
G75*
G02*
X79016250Y-147260000I-243750J0D01*
G01*
G37*
G36*
G01*
X79016250Y-149135000D02*
X78103750Y-149135000D01*
G75*
G02*
X77860000Y-148891250I0J243750D01*
G01*
X77860000Y-148403750D01*
G75*
G02*
X78103750Y-148160000I243750J0D01*
G01*
X79016250Y-148160000D01*
G75*
G02*
X79260000Y-148403750I0J-243750D01*
G01*
X79260000Y-148891250D01*
G75*
G02*
X79016250Y-149135000I-243750J0D01*
G01*
G37*
G36*
G01*
X89506250Y-139252500D02*
X88593750Y-139252500D01*
G75*
G02*
X88350000Y-139008750I0J243750D01*
G01*
X88350000Y-138521250D01*
G75*
G02*
X88593750Y-138277500I243750J0D01*
G01*
X89506250Y-138277500D01*
G75*
G02*
X89750000Y-138521250I0J-243750D01*
G01*
X89750000Y-139008750D01*
G75*
G02*
X89506250Y-139252500I-243750J0D01*
G01*
G37*
G36*
G01*
X89506250Y-141127500D02*
X88593750Y-141127500D01*
G75*
G02*
X88350000Y-140883750I0J243750D01*
G01*
X88350000Y-140396250D01*
G75*
G02*
X88593750Y-140152500I243750J0D01*
G01*
X89506250Y-140152500D01*
G75*
G02*
X89750000Y-140396250I0J-243750D01*
G01*
X89750000Y-140883750D01*
G75*
G02*
X89506250Y-141127500I-243750J0D01*
G01*
G37*
G36*
G01*
X79006250Y-139230000D02*
X78093750Y-139230000D01*
G75*
G02*
X77850000Y-138986250I0J243750D01*
G01*
X77850000Y-138498750D01*
G75*
G02*
X78093750Y-138255000I243750J0D01*
G01*
X79006250Y-138255000D01*
G75*
G02*
X79250000Y-138498750I0J-243750D01*
G01*
X79250000Y-138986250D01*
G75*
G02*
X79006250Y-139230000I-243750J0D01*
G01*
G37*
G36*
G01*
X79006250Y-141105000D02*
X78093750Y-141105000D01*
G75*
G02*
X77850000Y-140861250I0J243750D01*
G01*
X77850000Y-140373750D01*
G75*
G02*
X78093750Y-140130000I243750J0D01*
G01*
X79006250Y-140130000D01*
G75*
G02*
X79250000Y-140373750I0J-243750D01*
G01*
X79250000Y-140861250D01*
G75*
G02*
X79006250Y-141105000I-243750J0D01*
G01*
G37*
G36*
G01*
X89526250Y-131270000D02*
X88613750Y-131270000D01*
G75*
G02*
X88370000Y-131026250I0J243750D01*
G01*
X88370000Y-130538750D01*
G75*
G02*
X88613750Y-130295000I243750J0D01*
G01*
X89526250Y-130295000D01*
G75*
G02*
X89770000Y-130538750I0J-243750D01*
G01*
X89770000Y-131026250D01*
G75*
G02*
X89526250Y-131270000I-243750J0D01*
G01*
G37*
G36*
G01*
X89526250Y-133145000D02*
X88613750Y-133145000D01*
G75*
G02*
X88370000Y-132901250I0J243750D01*
G01*
X88370000Y-132413750D01*
G75*
G02*
X88613750Y-132170000I243750J0D01*
G01*
X89526250Y-132170000D01*
G75*
G02*
X89770000Y-132413750I0J-243750D01*
G01*
X89770000Y-132901250D01*
G75*
G02*
X89526250Y-133145000I-243750J0D01*
G01*
G37*
G36*
G01*
X78996250Y-131280000D02*
X78083750Y-131280000D01*
G75*
G02*
X77840000Y-131036250I0J243750D01*
G01*
X77840000Y-130548750D01*
G75*
G02*
X78083750Y-130305000I243750J0D01*
G01*
X78996250Y-130305000D01*
G75*
G02*
X79240000Y-130548750I0J-243750D01*
G01*
X79240000Y-131036250D01*
G75*
G02*
X78996250Y-131280000I-243750J0D01*
G01*
G37*
G36*
G01*
X78996250Y-133155000D02*
X78083750Y-133155000D01*
G75*
G02*
X77840000Y-132911250I0J243750D01*
G01*
X77840000Y-132423750D01*
G75*
G02*
X78083750Y-132180000I243750J0D01*
G01*
X78996250Y-132180000D01*
G75*
G02*
X79240000Y-132423750I0J-243750D01*
G01*
X79240000Y-132911250D01*
G75*
G02*
X78996250Y-133155000I-243750J0D01*
G01*
G37*
D29*
X91810000Y-116870000D03*
D30*
X85510000Y-116870000D03*
X85510000Y-119170000D03*
X85510000Y-114570000D03*
D31*
X83310000Y-161630000D03*
X95490000Y-161670000D03*
G36*
G01*
X116400000Y-133460000D02*
X116400000Y-132010000D01*
G75*
G02*
X116475000Y-131935000I75000J0D01*
G01*
X116625000Y-131935000D01*
G75*
G02*
X116700000Y-132010000I0J-75000D01*
G01*
X116700000Y-133460000D01*
G75*
G02*
X116625000Y-133535000I-75000J0D01*
G01*
X116475000Y-133535000D01*
G75*
G02*
X116400000Y-133460000I0J75000D01*
G01*
G37*
G36*
G01*
X116900000Y-133460000D02*
X116900000Y-132010000D01*
G75*
G02*
X116975000Y-131935000I75000J0D01*
G01*
X117125000Y-131935000D01*
G75*
G02*
X117200000Y-132010000I0J-75000D01*
G01*
X117200000Y-133460000D01*
G75*
G02*
X117125000Y-133535000I-75000J0D01*
G01*
X116975000Y-133535000D01*
G75*
G02*
X116900000Y-133460000I0J75000D01*
G01*
G37*
G36*
G01*
X117400000Y-133460000D02*
X117400000Y-132010000D01*
G75*
G02*
X117475000Y-131935000I75000J0D01*
G01*
X117625000Y-131935000D01*
G75*
G02*
X117700000Y-132010000I0J-75000D01*
G01*
X117700000Y-133460000D01*
G75*
G02*
X117625000Y-133535000I-75000J0D01*
G01*
X117475000Y-133535000D01*
G75*
G02*
X117400000Y-133460000I0J75000D01*
G01*
G37*
G36*
G01*
X117900000Y-133460000D02*
X117900000Y-132010000D01*
G75*
G02*
X117975000Y-131935000I75000J0D01*
G01*
X118125000Y-131935000D01*
G75*
G02*
X118200000Y-132010000I0J-75000D01*
G01*
X118200000Y-133460000D01*
G75*
G02*
X118125000Y-133535000I-75000J0D01*
G01*
X117975000Y-133535000D01*
G75*
G02*
X117900000Y-133460000I0J75000D01*
G01*
G37*
G36*
G01*
X118400000Y-133460000D02*
X118400000Y-132010000D01*
G75*
G02*
X118475000Y-131935000I75000J0D01*
G01*
X118625000Y-131935000D01*
G75*
G02*
X118700000Y-132010000I0J-75000D01*
G01*
X118700000Y-133460000D01*
G75*
G02*
X118625000Y-133535000I-75000J0D01*
G01*
X118475000Y-133535000D01*
G75*
G02*
X118400000Y-133460000I0J75000D01*
G01*
G37*
G36*
G01*
X118900000Y-133460000D02*
X118900000Y-132010000D01*
G75*
G02*
X118975000Y-131935000I75000J0D01*
G01*
X119125000Y-131935000D01*
G75*
G02*
X119200000Y-132010000I0J-75000D01*
G01*
X119200000Y-133460000D01*
G75*
G02*
X119125000Y-133535000I-75000J0D01*
G01*
X118975000Y-133535000D01*
G75*
G02*
X118900000Y-133460000I0J75000D01*
G01*
G37*
G36*
G01*
X119400000Y-133460000D02*
X119400000Y-132010000D01*
G75*
G02*
X119475000Y-131935000I75000J0D01*
G01*
X119625000Y-131935000D01*
G75*
G02*
X119700000Y-132010000I0J-75000D01*
G01*
X119700000Y-133460000D01*
G75*
G02*
X119625000Y-133535000I-75000J0D01*
G01*
X119475000Y-133535000D01*
G75*
G02*
X119400000Y-133460000I0J75000D01*
G01*
G37*
G36*
G01*
X119900000Y-133460000D02*
X119900000Y-132010000D01*
G75*
G02*
X119975000Y-131935000I75000J0D01*
G01*
X120125000Y-131935000D01*
G75*
G02*
X120200000Y-132010000I0J-75000D01*
G01*
X120200000Y-133460000D01*
G75*
G02*
X120125000Y-133535000I-75000J0D01*
G01*
X119975000Y-133535000D01*
G75*
G02*
X119900000Y-133460000I0J75000D01*
G01*
G37*
G36*
G01*
X120400000Y-133460000D02*
X120400000Y-132010000D01*
G75*
G02*
X120475000Y-131935000I75000J0D01*
G01*
X120625000Y-131935000D01*
G75*
G02*
X120700000Y-132010000I0J-75000D01*
G01*
X120700000Y-133460000D01*
G75*
G02*
X120625000Y-133535000I-75000J0D01*
G01*
X120475000Y-133535000D01*
G75*
G02*
X120400000Y-133460000I0J75000D01*
G01*
G37*
G36*
G01*
X120900000Y-133460000D02*
X120900000Y-132010000D01*
G75*
G02*
X120975000Y-131935000I75000J0D01*
G01*
X121125000Y-131935000D01*
G75*
G02*
X121200000Y-132010000I0J-75000D01*
G01*
X121200000Y-133460000D01*
G75*
G02*
X121125000Y-133535000I-75000J0D01*
G01*
X120975000Y-133535000D01*
G75*
G02*
X120900000Y-133460000I0J75000D01*
G01*
G37*
G36*
G01*
X121400000Y-133460000D02*
X121400000Y-132010000D01*
G75*
G02*
X121475000Y-131935000I75000J0D01*
G01*
X121625000Y-131935000D01*
G75*
G02*
X121700000Y-132010000I0J-75000D01*
G01*
X121700000Y-133460000D01*
G75*
G02*
X121625000Y-133535000I-75000J0D01*
G01*
X121475000Y-133535000D01*
G75*
G02*
X121400000Y-133460000I0J75000D01*
G01*
G37*
G36*
G01*
X121900000Y-133460000D02*
X121900000Y-132010000D01*
G75*
G02*
X121975000Y-131935000I75000J0D01*
G01*
X122125000Y-131935000D01*
G75*
G02*
X122200000Y-132010000I0J-75000D01*
G01*
X122200000Y-133460000D01*
G75*
G02*
X122125000Y-133535000I-75000J0D01*
G01*
X121975000Y-133535000D01*
G75*
G02*
X121900000Y-133460000I0J75000D01*
G01*
G37*
G36*
G01*
X122400000Y-133460000D02*
X122400000Y-132010000D01*
G75*
G02*
X122475000Y-131935000I75000J0D01*
G01*
X122625000Y-131935000D01*
G75*
G02*
X122700000Y-132010000I0J-75000D01*
G01*
X122700000Y-133460000D01*
G75*
G02*
X122625000Y-133535000I-75000J0D01*
G01*
X122475000Y-133535000D01*
G75*
G02*
X122400000Y-133460000I0J75000D01*
G01*
G37*
G36*
G01*
X122900000Y-133460000D02*
X122900000Y-132010000D01*
G75*
G02*
X122975000Y-131935000I75000J0D01*
G01*
X123125000Y-131935000D01*
G75*
G02*
X123200000Y-132010000I0J-75000D01*
G01*
X123200000Y-133460000D01*
G75*
G02*
X123125000Y-133535000I-75000J0D01*
G01*
X122975000Y-133535000D01*
G75*
G02*
X122900000Y-133460000I0J75000D01*
G01*
G37*
G36*
G01*
X123400000Y-133460000D02*
X123400000Y-132010000D01*
G75*
G02*
X123475000Y-131935000I75000J0D01*
G01*
X123625000Y-131935000D01*
G75*
G02*
X123700000Y-132010000I0J-75000D01*
G01*
X123700000Y-133460000D01*
G75*
G02*
X123625000Y-133535000I-75000J0D01*
G01*
X123475000Y-133535000D01*
G75*
G02*
X123400000Y-133460000I0J75000D01*
G01*
G37*
G36*
G01*
X123900000Y-133460000D02*
X123900000Y-132010000D01*
G75*
G02*
X123975000Y-131935000I75000J0D01*
G01*
X124125000Y-131935000D01*
G75*
G02*
X124200000Y-132010000I0J-75000D01*
G01*
X124200000Y-133460000D01*
G75*
G02*
X124125000Y-133535000I-75000J0D01*
G01*
X123975000Y-133535000D01*
G75*
G02*
X123900000Y-133460000I0J75000D01*
G01*
G37*
G36*
G01*
X124400000Y-133460000D02*
X124400000Y-132010000D01*
G75*
G02*
X124475000Y-131935000I75000J0D01*
G01*
X124625000Y-131935000D01*
G75*
G02*
X124700000Y-132010000I0J-75000D01*
G01*
X124700000Y-133460000D01*
G75*
G02*
X124625000Y-133535000I-75000J0D01*
G01*
X124475000Y-133535000D01*
G75*
G02*
X124400000Y-133460000I0J75000D01*
G01*
G37*
G36*
G01*
X124900000Y-133460000D02*
X124900000Y-132010000D01*
G75*
G02*
X124975000Y-131935000I75000J0D01*
G01*
X125125000Y-131935000D01*
G75*
G02*
X125200000Y-132010000I0J-75000D01*
G01*
X125200000Y-133460000D01*
G75*
G02*
X125125000Y-133535000I-75000J0D01*
G01*
X124975000Y-133535000D01*
G75*
G02*
X124900000Y-133460000I0J75000D01*
G01*
G37*
G36*
G01*
X125400000Y-133460000D02*
X125400000Y-132010000D01*
G75*
G02*
X125475000Y-131935000I75000J0D01*
G01*
X125625000Y-131935000D01*
G75*
G02*
X125700000Y-132010000I0J-75000D01*
G01*
X125700000Y-133460000D01*
G75*
G02*
X125625000Y-133535000I-75000J0D01*
G01*
X125475000Y-133535000D01*
G75*
G02*
X125400000Y-133460000I0J75000D01*
G01*
G37*
G36*
G01*
X125900000Y-133460000D02*
X125900000Y-132010000D01*
G75*
G02*
X125975000Y-131935000I75000J0D01*
G01*
X126125000Y-131935000D01*
G75*
G02*
X126200000Y-132010000I0J-75000D01*
G01*
X126200000Y-133460000D01*
G75*
G02*
X126125000Y-133535000I-75000J0D01*
G01*
X125975000Y-133535000D01*
G75*
G02*
X125900000Y-133460000I0J75000D01*
G01*
G37*
G36*
G01*
X126400000Y-133460000D02*
X126400000Y-132010000D01*
G75*
G02*
X126475000Y-131935000I75000J0D01*
G01*
X126625000Y-131935000D01*
G75*
G02*
X126700000Y-132010000I0J-75000D01*
G01*
X126700000Y-133460000D01*
G75*
G02*
X126625000Y-133535000I-75000J0D01*
G01*
X126475000Y-133535000D01*
G75*
G02*
X126400000Y-133460000I0J75000D01*
G01*
G37*
G36*
G01*
X126900000Y-133460000D02*
X126900000Y-132010000D01*
G75*
G02*
X126975000Y-131935000I75000J0D01*
G01*
X127125000Y-131935000D01*
G75*
G02*
X127200000Y-132010000I0J-75000D01*
G01*
X127200000Y-133460000D01*
G75*
G02*
X127125000Y-133535000I-75000J0D01*
G01*
X126975000Y-133535000D01*
G75*
G02*
X126900000Y-133460000I0J75000D01*
G01*
G37*
G36*
G01*
X127400000Y-133460000D02*
X127400000Y-132010000D01*
G75*
G02*
X127475000Y-131935000I75000J0D01*
G01*
X127625000Y-131935000D01*
G75*
G02*
X127700000Y-132010000I0J-75000D01*
G01*
X127700000Y-133460000D01*
G75*
G02*
X127625000Y-133535000I-75000J0D01*
G01*
X127475000Y-133535000D01*
G75*
G02*
X127400000Y-133460000I0J75000D01*
G01*
G37*
G36*
G01*
X127900000Y-133460000D02*
X127900000Y-132010000D01*
G75*
G02*
X127975000Y-131935000I75000J0D01*
G01*
X128125000Y-131935000D01*
G75*
G02*
X128200000Y-132010000I0J-75000D01*
G01*
X128200000Y-133460000D01*
G75*
G02*
X128125000Y-133535000I-75000J0D01*
G01*
X127975000Y-133535000D01*
G75*
G02*
X127900000Y-133460000I0J75000D01*
G01*
G37*
G36*
G01*
X128400000Y-133460000D02*
X128400000Y-132010000D01*
G75*
G02*
X128475000Y-131935000I75000J0D01*
G01*
X128625000Y-131935000D01*
G75*
G02*
X128700000Y-132010000I0J-75000D01*
G01*
X128700000Y-133460000D01*
G75*
G02*
X128625000Y-133535000I-75000J0D01*
G01*
X128475000Y-133535000D01*
G75*
G02*
X128400000Y-133460000I0J75000D01*
G01*
G37*
G36*
G01*
X129425000Y-134485000D02*
X129425000Y-134335000D01*
G75*
G02*
X129500000Y-134260000I75000J0D01*
G01*
X130950000Y-134260000D01*
G75*
G02*
X131025000Y-134335000I0J-75000D01*
G01*
X131025000Y-134485000D01*
G75*
G02*
X130950000Y-134560000I-75000J0D01*
G01*
X129500000Y-134560000D01*
G75*
G02*
X129425000Y-134485000I0J75000D01*
G01*
G37*
G36*
G01*
X129425000Y-134985000D02*
X129425000Y-134835000D01*
G75*
G02*
X129500000Y-134760000I75000J0D01*
G01*
X130950000Y-134760000D01*
G75*
G02*
X131025000Y-134835000I0J-75000D01*
G01*
X131025000Y-134985000D01*
G75*
G02*
X130950000Y-135060000I-75000J0D01*
G01*
X129500000Y-135060000D01*
G75*
G02*
X129425000Y-134985000I0J75000D01*
G01*
G37*
G36*
G01*
X129425000Y-135485000D02*
X129425000Y-135335000D01*
G75*
G02*
X129500000Y-135260000I75000J0D01*
G01*
X130950000Y-135260000D01*
G75*
G02*
X131025000Y-135335000I0J-75000D01*
G01*
X131025000Y-135485000D01*
G75*
G02*
X130950000Y-135560000I-75000J0D01*
G01*
X129500000Y-135560000D01*
G75*
G02*
X129425000Y-135485000I0J75000D01*
G01*
G37*
G36*
G01*
X129425000Y-135985000D02*
X129425000Y-135835000D01*
G75*
G02*
X129500000Y-135760000I75000J0D01*
G01*
X130950000Y-135760000D01*
G75*
G02*
X131025000Y-135835000I0J-75000D01*
G01*
X131025000Y-135985000D01*
G75*
G02*
X130950000Y-136060000I-75000J0D01*
G01*
X129500000Y-136060000D01*
G75*
G02*
X129425000Y-135985000I0J75000D01*
G01*
G37*
G36*
G01*
X129425000Y-136485000D02*
X129425000Y-136335000D01*
G75*
G02*
X129500000Y-136260000I75000J0D01*
G01*
X130950000Y-136260000D01*
G75*
G02*
X131025000Y-136335000I0J-75000D01*
G01*
X131025000Y-136485000D01*
G75*
G02*
X130950000Y-136560000I-75000J0D01*
G01*
X129500000Y-136560000D01*
G75*
G02*
X129425000Y-136485000I0J75000D01*
G01*
G37*
G36*
G01*
X129425000Y-136985000D02*
X129425000Y-136835000D01*
G75*
G02*
X129500000Y-136760000I75000J0D01*
G01*
X130950000Y-136760000D01*
G75*
G02*
X131025000Y-136835000I0J-75000D01*
G01*
X131025000Y-136985000D01*
G75*
G02*
X130950000Y-137060000I-75000J0D01*
G01*
X129500000Y-137060000D01*
G75*
G02*
X129425000Y-136985000I0J75000D01*
G01*
G37*
G36*
G01*
X129425000Y-137485000D02*
X129425000Y-137335000D01*
G75*
G02*
X129500000Y-137260000I75000J0D01*
G01*
X130950000Y-137260000D01*
G75*
G02*
X131025000Y-137335000I0J-75000D01*
G01*
X131025000Y-137485000D01*
G75*
G02*
X130950000Y-137560000I-75000J0D01*
G01*
X129500000Y-137560000D01*
G75*
G02*
X129425000Y-137485000I0J75000D01*
G01*
G37*
G36*
G01*
X129425000Y-137985000D02*
X129425000Y-137835000D01*
G75*
G02*
X129500000Y-137760000I75000J0D01*
G01*
X130950000Y-137760000D01*
G75*
G02*
X131025000Y-137835000I0J-75000D01*
G01*
X131025000Y-137985000D01*
G75*
G02*
X130950000Y-138060000I-75000J0D01*
G01*
X129500000Y-138060000D01*
G75*
G02*
X129425000Y-137985000I0J75000D01*
G01*
G37*
G36*
G01*
X129425000Y-138485000D02*
X129425000Y-138335000D01*
G75*
G02*
X129500000Y-138260000I75000J0D01*
G01*
X130950000Y-138260000D01*
G75*
G02*
X131025000Y-138335000I0J-75000D01*
G01*
X131025000Y-138485000D01*
G75*
G02*
X130950000Y-138560000I-75000J0D01*
G01*
X129500000Y-138560000D01*
G75*
G02*
X129425000Y-138485000I0J75000D01*
G01*
G37*
G36*
G01*
X129425000Y-138985000D02*
X129425000Y-138835000D01*
G75*
G02*
X129500000Y-138760000I75000J0D01*
G01*
X130950000Y-138760000D01*
G75*
G02*
X131025000Y-138835000I0J-75000D01*
G01*
X131025000Y-138985000D01*
G75*
G02*
X130950000Y-139060000I-75000J0D01*
G01*
X129500000Y-139060000D01*
G75*
G02*
X129425000Y-138985000I0J75000D01*
G01*
G37*
G36*
G01*
X129425000Y-139485000D02*
X129425000Y-139335000D01*
G75*
G02*
X129500000Y-139260000I75000J0D01*
G01*
X130950000Y-139260000D01*
G75*
G02*
X131025000Y-139335000I0J-75000D01*
G01*
X131025000Y-139485000D01*
G75*
G02*
X130950000Y-139560000I-75000J0D01*
G01*
X129500000Y-139560000D01*
G75*
G02*
X129425000Y-139485000I0J75000D01*
G01*
G37*
G36*
G01*
X129425000Y-139985000D02*
X129425000Y-139835000D01*
G75*
G02*
X129500000Y-139760000I75000J0D01*
G01*
X130950000Y-139760000D01*
G75*
G02*
X131025000Y-139835000I0J-75000D01*
G01*
X131025000Y-139985000D01*
G75*
G02*
X130950000Y-140060000I-75000J0D01*
G01*
X129500000Y-140060000D01*
G75*
G02*
X129425000Y-139985000I0J75000D01*
G01*
G37*
G36*
G01*
X129425000Y-140485000D02*
X129425000Y-140335000D01*
G75*
G02*
X129500000Y-140260000I75000J0D01*
G01*
X130950000Y-140260000D01*
G75*
G02*
X131025000Y-140335000I0J-75000D01*
G01*
X131025000Y-140485000D01*
G75*
G02*
X130950000Y-140560000I-75000J0D01*
G01*
X129500000Y-140560000D01*
G75*
G02*
X129425000Y-140485000I0J75000D01*
G01*
G37*
G36*
G01*
X129425000Y-140985000D02*
X129425000Y-140835000D01*
G75*
G02*
X129500000Y-140760000I75000J0D01*
G01*
X130950000Y-140760000D01*
G75*
G02*
X131025000Y-140835000I0J-75000D01*
G01*
X131025000Y-140985000D01*
G75*
G02*
X130950000Y-141060000I-75000J0D01*
G01*
X129500000Y-141060000D01*
G75*
G02*
X129425000Y-140985000I0J75000D01*
G01*
G37*
G36*
G01*
X129425000Y-141485000D02*
X129425000Y-141335000D01*
G75*
G02*
X129500000Y-141260000I75000J0D01*
G01*
X130950000Y-141260000D01*
G75*
G02*
X131025000Y-141335000I0J-75000D01*
G01*
X131025000Y-141485000D01*
G75*
G02*
X130950000Y-141560000I-75000J0D01*
G01*
X129500000Y-141560000D01*
G75*
G02*
X129425000Y-141485000I0J75000D01*
G01*
G37*
G36*
G01*
X129425000Y-141985000D02*
X129425000Y-141835000D01*
G75*
G02*
X129500000Y-141760000I75000J0D01*
G01*
X130950000Y-141760000D01*
G75*
G02*
X131025000Y-141835000I0J-75000D01*
G01*
X131025000Y-141985000D01*
G75*
G02*
X130950000Y-142060000I-75000J0D01*
G01*
X129500000Y-142060000D01*
G75*
G02*
X129425000Y-141985000I0J75000D01*
G01*
G37*
G36*
G01*
X129425000Y-142485000D02*
X129425000Y-142335000D01*
G75*
G02*
X129500000Y-142260000I75000J0D01*
G01*
X130950000Y-142260000D01*
G75*
G02*
X131025000Y-142335000I0J-75000D01*
G01*
X131025000Y-142485000D01*
G75*
G02*
X130950000Y-142560000I-75000J0D01*
G01*
X129500000Y-142560000D01*
G75*
G02*
X129425000Y-142485000I0J75000D01*
G01*
G37*
G36*
G01*
X129425000Y-142985000D02*
X129425000Y-142835000D01*
G75*
G02*
X129500000Y-142760000I75000J0D01*
G01*
X130950000Y-142760000D01*
G75*
G02*
X131025000Y-142835000I0J-75000D01*
G01*
X131025000Y-142985000D01*
G75*
G02*
X130950000Y-143060000I-75000J0D01*
G01*
X129500000Y-143060000D01*
G75*
G02*
X129425000Y-142985000I0J75000D01*
G01*
G37*
G36*
G01*
X129425000Y-143485000D02*
X129425000Y-143335000D01*
G75*
G02*
X129500000Y-143260000I75000J0D01*
G01*
X130950000Y-143260000D01*
G75*
G02*
X131025000Y-143335000I0J-75000D01*
G01*
X131025000Y-143485000D01*
G75*
G02*
X130950000Y-143560000I-75000J0D01*
G01*
X129500000Y-143560000D01*
G75*
G02*
X129425000Y-143485000I0J75000D01*
G01*
G37*
G36*
G01*
X129425000Y-143985000D02*
X129425000Y-143835000D01*
G75*
G02*
X129500000Y-143760000I75000J0D01*
G01*
X130950000Y-143760000D01*
G75*
G02*
X131025000Y-143835000I0J-75000D01*
G01*
X131025000Y-143985000D01*
G75*
G02*
X130950000Y-144060000I-75000J0D01*
G01*
X129500000Y-144060000D01*
G75*
G02*
X129425000Y-143985000I0J75000D01*
G01*
G37*
G36*
G01*
X129425000Y-144485000D02*
X129425000Y-144335000D01*
G75*
G02*
X129500000Y-144260000I75000J0D01*
G01*
X130950000Y-144260000D01*
G75*
G02*
X131025000Y-144335000I0J-75000D01*
G01*
X131025000Y-144485000D01*
G75*
G02*
X130950000Y-144560000I-75000J0D01*
G01*
X129500000Y-144560000D01*
G75*
G02*
X129425000Y-144485000I0J75000D01*
G01*
G37*
G36*
G01*
X129425000Y-144985000D02*
X129425000Y-144835000D01*
G75*
G02*
X129500000Y-144760000I75000J0D01*
G01*
X130950000Y-144760000D01*
G75*
G02*
X131025000Y-144835000I0J-75000D01*
G01*
X131025000Y-144985000D01*
G75*
G02*
X130950000Y-145060000I-75000J0D01*
G01*
X129500000Y-145060000D01*
G75*
G02*
X129425000Y-144985000I0J75000D01*
G01*
G37*
G36*
G01*
X129425000Y-145485000D02*
X129425000Y-145335000D01*
G75*
G02*
X129500000Y-145260000I75000J0D01*
G01*
X130950000Y-145260000D01*
G75*
G02*
X131025000Y-145335000I0J-75000D01*
G01*
X131025000Y-145485000D01*
G75*
G02*
X130950000Y-145560000I-75000J0D01*
G01*
X129500000Y-145560000D01*
G75*
G02*
X129425000Y-145485000I0J75000D01*
G01*
G37*
G36*
G01*
X129425000Y-145985000D02*
X129425000Y-145835000D01*
G75*
G02*
X129500000Y-145760000I75000J0D01*
G01*
X130950000Y-145760000D01*
G75*
G02*
X131025000Y-145835000I0J-75000D01*
G01*
X131025000Y-145985000D01*
G75*
G02*
X130950000Y-146060000I-75000J0D01*
G01*
X129500000Y-146060000D01*
G75*
G02*
X129425000Y-145985000I0J75000D01*
G01*
G37*
G36*
G01*
X129425000Y-146485000D02*
X129425000Y-146335000D01*
G75*
G02*
X129500000Y-146260000I75000J0D01*
G01*
X130950000Y-146260000D01*
G75*
G02*
X131025000Y-146335000I0J-75000D01*
G01*
X131025000Y-146485000D01*
G75*
G02*
X130950000Y-146560000I-75000J0D01*
G01*
X129500000Y-146560000D01*
G75*
G02*
X129425000Y-146485000I0J75000D01*
G01*
G37*
G36*
G01*
X128400000Y-148810000D02*
X128400000Y-147360000D01*
G75*
G02*
X128475000Y-147285000I75000J0D01*
G01*
X128625000Y-147285000D01*
G75*
G02*
X128700000Y-147360000I0J-75000D01*
G01*
X128700000Y-148810000D01*
G75*
G02*
X128625000Y-148885000I-75000J0D01*
G01*
X128475000Y-148885000D01*
G75*
G02*
X128400000Y-148810000I0J75000D01*
G01*
G37*
G36*
G01*
X127900000Y-148810000D02*
X127900000Y-147360000D01*
G75*
G02*
X127975000Y-147285000I75000J0D01*
G01*
X128125000Y-147285000D01*
G75*
G02*
X128200000Y-147360000I0J-75000D01*
G01*
X128200000Y-148810000D01*
G75*
G02*
X128125000Y-148885000I-75000J0D01*
G01*
X127975000Y-148885000D01*
G75*
G02*
X127900000Y-148810000I0J75000D01*
G01*
G37*
G36*
G01*
X127400000Y-148810000D02*
X127400000Y-147360000D01*
G75*
G02*
X127475000Y-147285000I75000J0D01*
G01*
X127625000Y-147285000D01*
G75*
G02*
X127700000Y-147360000I0J-75000D01*
G01*
X127700000Y-148810000D01*
G75*
G02*
X127625000Y-148885000I-75000J0D01*
G01*
X127475000Y-148885000D01*
G75*
G02*
X127400000Y-148810000I0J75000D01*
G01*
G37*
G36*
G01*
X126900000Y-148810000D02*
X126900000Y-147360000D01*
G75*
G02*
X126975000Y-147285000I75000J0D01*
G01*
X127125000Y-147285000D01*
G75*
G02*
X127200000Y-147360000I0J-75000D01*
G01*
X127200000Y-148810000D01*
G75*
G02*
X127125000Y-148885000I-75000J0D01*
G01*
X126975000Y-148885000D01*
G75*
G02*
X126900000Y-148810000I0J75000D01*
G01*
G37*
G36*
G01*
X126400000Y-148810000D02*
X126400000Y-147360000D01*
G75*
G02*
X126475000Y-147285000I75000J0D01*
G01*
X126625000Y-147285000D01*
G75*
G02*
X126700000Y-147360000I0J-75000D01*
G01*
X126700000Y-148810000D01*
G75*
G02*
X126625000Y-148885000I-75000J0D01*
G01*
X126475000Y-148885000D01*
G75*
G02*
X126400000Y-148810000I0J75000D01*
G01*
G37*
G36*
G01*
X125900000Y-148810000D02*
X125900000Y-147360000D01*
G75*
G02*
X125975000Y-147285000I75000J0D01*
G01*
X126125000Y-147285000D01*
G75*
G02*
X126200000Y-147360000I0J-75000D01*
G01*
X126200000Y-148810000D01*
G75*
G02*
X126125000Y-148885000I-75000J0D01*
G01*
X125975000Y-148885000D01*
G75*
G02*
X125900000Y-148810000I0J75000D01*
G01*
G37*
G36*
G01*
X125400000Y-148810000D02*
X125400000Y-147360000D01*
G75*
G02*
X125475000Y-147285000I75000J0D01*
G01*
X125625000Y-147285000D01*
G75*
G02*
X125700000Y-147360000I0J-75000D01*
G01*
X125700000Y-148810000D01*
G75*
G02*
X125625000Y-148885000I-75000J0D01*
G01*
X125475000Y-148885000D01*
G75*
G02*
X125400000Y-148810000I0J75000D01*
G01*
G37*
G36*
G01*
X124900000Y-148810000D02*
X124900000Y-147360000D01*
G75*
G02*
X124975000Y-147285000I75000J0D01*
G01*
X125125000Y-147285000D01*
G75*
G02*
X125200000Y-147360000I0J-75000D01*
G01*
X125200000Y-148810000D01*
G75*
G02*
X125125000Y-148885000I-75000J0D01*
G01*
X124975000Y-148885000D01*
G75*
G02*
X124900000Y-148810000I0J75000D01*
G01*
G37*
G36*
G01*
X124400000Y-148810000D02*
X124400000Y-147360000D01*
G75*
G02*
X124475000Y-147285000I75000J0D01*
G01*
X124625000Y-147285000D01*
G75*
G02*
X124700000Y-147360000I0J-75000D01*
G01*
X124700000Y-148810000D01*
G75*
G02*
X124625000Y-148885000I-75000J0D01*
G01*
X124475000Y-148885000D01*
G75*
G02*
X124400000Y-148810000I0J75000D01*
G01*
G37*
G36*
G01*
X123900000Y-148810000D02*
X123900000Y-147360000D01*
G75*
G02*
X123975000Y-147285000I75000J0D01*
G01*
X124125000Y-147285000D01*
G75*
G02*
X124200000Y-147360000I0J-75000D01*
G01*
X124200000Y-148810000D01*
G75*
G02*
X124125000Y-148885000I-75000J0D01*
G01*
X123975000Y-148885000D01*
G75*
G02*
X123900000Y-148810000I0J75000D01*
G01*
G37*
G36*
G01*
X123400000Y-148810000D02*
X123400000Y-147360000D01*
G75*
G02*
X123475000Y-147285000I75000J0D01*
G01*
X123625000Y-147285000D01*
G75*
G02*
X123700000Y-147360000I0J-75000D01*
G01*
X123700000Y-148810000D01*
G75*
G02*
X123625000Y-148885000I-75000J0D01*
G01*
X123475000Y-148885000D01*
G75*
G02*
X123400000Y-148810000I0J75000D01*
G01*
G37*
G36*
G01*
X122900000Y-148810000D02*
X122900000Y-147360000D01*
G75*
G02*
X122975000Y-147285000I75000J0D01*
G01*
X123125000Y-147285000D01*
G75*
G02*
X123200000Y-147360000I0J-75000D01*
G01*
X123200000Y-148810000D01*
G75*
G02*
X123125000Y-148885000I-75000J0D01*
G01*
X122975000Y-148885000D01*
G75*
G02*
X122900000Y-148810000I0J75000D01*
G01*
G37*
G36*
G01*
X122400000Y-148810000D02*
X122400000Y-147360000D01*
G75*
G02*
X122475000Y-147285000I75000J0D01*
G01*
X122625000Y-147285000D01*
G75*
G02*
X122700000Y-147360000I0J-75000D01*
G01*
X122700000Y-148810000D01*
G75*
G02*
X122625000Y-148885000I-75000J0D01*
G01*
X122475000Y-148885000D01*
G75*
G02*
X122400000Y-148810000I0J75000D01*
G01*
G37*
G36*
G01*
X121900000Y-148810000D02*
X121900000Y-147360000D01*
G75*
G02*
X121975000Y-147285000I75000J0D01*
G01*
X122125000Y-147285000D01*
G75*
G02*
X122200000Y-147360000I0J-75000D01*
G01*
X122200000Y-148810000D01*
G75*
G02*
X122125000Y-148885000I-75000J0D01*
G01*
X121975000Y-148885000D01*
G75*
G02*
X121900000Y-148810000I0J75000D01*
G01*
G37*
G36*
G01*
X121400000Y-148810000D02*
X121400000Y-147360000D01*
G75*
G02*
X121475000Y-147285000I75000J0D01*
G01*
X121625000Y-147285000D01*
G75*
G02*
X121700000Y-147360000I0J-75000D01*
G01*
X121700000Y-148810000D01*
G75*
G02*
X121625000Y-148885000I-75000J0D01*
G01*
X121475000Y-148885000D01*
G75*
G02*
X121400000Y-148810000I0J75000D01*
G01*
G37*
G36*
G01*
X120900000Y-148810000D02*
X120900000Y-147360000D01*
G75*
G02*
X120975000Y-147285000I75000J0D01*
G01*
X121125000Y-147285000D01*
G75*
G02*
X121200000Y-147360000I0J-75000D01*
G01*
X121200000Y-148810000D01*
G75*
G02*
X121125000Y-148885000I-75000J0D01*
G01*
X120975000Y-148885000D01*
G75*
G02*
X120900000Y-148810000I0J75000D01*
G01*
G37*
G36*
G01*
X120400000Y-148810000D02*
X120400000Y-147360000D01*
G75*
G02*
X120475000Y-147285000I75000J0D01*
G01*
X120625000Y-147285000D01*
G75*
G02*
X120700000Y-147360000I0J-75000D01*
G01*
X120700000Y-148810000D01*
G75*
G02*
X120625000Y-148885000I-75000J0D01*
G01*
X120475000Y-148885000D01*
G75*
G02*
X120400000Y-148810000I0J75000D01*
G01*
G37*
G36*
G01*
X119900000Y-148810000D02*
X119900000Y-147360000D01*
G75*
G02*
X119975000Y-147285000I75000J0D01*
G01*
X120125000Y-147285000D01*
G75*
G02*
X120200000Y-147360000I0J-75000D01*
G01*
X120200000Y-148810000D01*
G75*
G02*
X120125000Y-148885000I-75000J0D01*
G01*
X119975000Y-148885000D01*
G75*
G02*
X119900000Y-148810000I0J75000D01*
G01*
G37*
G36*
G01*
X119400000Y-148810000D02*
X119400000Y-147360000D01*
G75*
G02*
X119475000Y-147285000I75000J0D01*
G01*
X119625000Y-147285000D01*
G75*
G02*
X119700000Y-147360000I0J-75000D01*
G01*
X119700000Y-148810000D01*
G75*
G02*
X119625000Y-148885000I-75000J0D01*
G01*
X119475000Y-148885000D01*
G75*
G02*
X119400000Y-148810000I0J75000D01*
G01*
G37*
G36*
G01*
X118900000Y-148810000D02*
X118900000Y-147360000D01*
G75*
G02*
X118975000Y-147285000I75000J0D01*
G01*
X119125000Y-147285000D01*
G75*
G02*
X119200000Y-147360000I0J-75000D01*
G01*
X119200000Y-148810000D01*
G75*
G02*
X119125000Y-148885000I-75000J0D01*
G01*
X118975000Y-148885000D01*
G75*
G02*
X118900000Y-148810000I0J75000D01*
G01*
G37*
G36*
G01*
X118400000Y-148810000D02*
X118400000Y-147360000D01*
G75*
G02*
X118475000Y-147285000I75000J0D01*
G01*
X118625000Y-147285000D01*
G75*
G02*
X118700000Y-147360000I0J-75000D01*
G01*
X118700000Y-148810000D01*
G75*
G02*
X118625000Y-148885000I-75000J0D01*
G01*
X118475000Y-148885000D01*
G75*
G02*
X118400000Y-148810000I0J75000D01*
G01*
G37*
G36*
G01*
X117900000Y-148810000D02*
X117900000Y-147360000D01*
G75*
G02*
X117975000Y-147285000I75000J0D01*
G01*
X118125000Y-147285000D01*
G75*
G02*
X118200000Y-147360000I0J-75000D01*
G01*
X118200000Y-148810000D01*
G75*
G02*
X118125000Y-148885000I-75000J0D01*
G01*
X117975000Y-148885000D01*
G75*
G02*
X117900000Y-148810000I0J75000D01*
G01*
G37*
G36*
G01*
X117400000Y-148810000D02*
X117400000Y-147360000D01*
G75*
G02*
X117475000Y-147285000I75000J0D01*
G01*
X117625000Y-147285000D01*
G75*
G02*
X117700000Y-147360000I0J-75000D01*
G01*
X117700000Y-148810000D01*
G75*
G02*
X117625000Y-148885000I-75000J0D01*
G01*
X117475000Y-148885000D01*
G75*
G02*
X117400000Y-148810000I0J75000D01*
G01*
G37*
G36*
G01*
X116900000Y-148810000D02*
X116900000Y-147360000D01*
G75*
G02*
X116975000Y-147285000I75000J0D01*
G01*
X117125000Y-147285000D01*
G75*
G02*
X117200000Y-147360000I0J-75000D01*
G01*
X117200000Y-148810000D01*
G75*
G02*
X117125000Y-148885000I-75000J0D01*
G01*
X116975000Y-148885000D01*
G75*
G02*
X116900000Y-148810000I0J75000D01*
G01*
G37*
G36*
G01*
X116400000Y-148810000D02*
X116400000Y-147360000D01*
G75*
G02*
X116475000Y-147285000I75000J0D01*
G01*
X116625000Y-147285000D01*
G75*
G02*
X116700000Y-147360000I0J-75000D01*
G01*
X116700000Y-148810000D01*
G75*
G02*
X116625000Y-148885000I-75000J0D01*
G01*
X116475000Y-148885000D01*
G75*
G02*
X116400000Y-148810000I0J75000D01*
G01*
G37*
G36*
G01*
X114075000Y-146485000D02*
X114075000Y-146335000D01*
G75*
G02*
X114150000Y-146260000I75000J0D01*
G01*
X115600000Y-146260000D01*
G75*
G02*
X115675000Y-146335000I0J-75000D01*
G01*
X115675000Y-146485000D01*
G75*
G02*
X115600000Y-146560000I-75000J0D01*
G01*
X114150000Y-146560000D01*
G75*
G02*
X114075000Y-146485000I0J75000D01*
G01*
G37*
G36*
G01*
X114075000Y-145985000D02*
X114075000Y-145835000D01*
G75*
G02*
X114150000Y-145760000I75000J0D01*
G01*
X115600000Y-145760000D01*
G75*
G02*
X115675000Y-145835000I0J-75000D01*
G01*
X115675000Y-145985000D01*
G75*
G02*
X115600000Y-146060000I-75000J0D01*
G01*
X114150000Y-146060000D01*
G75*
G02*
X114075000Y-145985000I0J75000D01*
G01*
G37*
G36*
G01*
X114075000Y-145485000D02*
X114075000Y-145335000D01*
G75*
G02*
X114150000Y-145260000I75000J0D01*
G01*
X115600000Y-145260000D01*
G75*
G02*
X115675000Y-145335000I0J-75000D01*
G01*
X115675000Y-145485000D01*
G75*
G02*
X115600000Y-145560000I-75000J0D01*
G01*
X114150000Y-145560000D01*
G75*
G02*
X114075000Y-145485000I0J75000D01*
G01*
G37*
G36*
G01*
X114075000Y-144985000D02*
X114075000Y-144835000D01*
G75*
G02*
X114150000Y-144760000I75000J0D01*
G01*
X115600000Y-144760000D01*
G75*
G02*
X115675000Y-144835000I0J-75000D01*
G01*
X115675000Y-144985000D01*
G75*
G02*
X115600000Y-145060000I-75000J0D01*
G01*
X114150000Y-145060000D01*
G75*
G02*
X114075000Y-144985000I0J75000D01*
G01*
G37*
G36*
G01*
X114075000Y-144485000D02*
X114075000Y-144335000D01*
G75*
G02*
X114150000Y-144260000I75000J0D01*
G01*
X115600000Y-144260000D01*
G75*
G02*
X115675000Y-144335000I0J-75000D01*
G01*
X115675000Y-144485000D01*
G75*
G02*
X115600000Y-144560000I-75000J0D01*
G01*
X114150000Y-144560000D01*
G75*
G02*
X114075000Y-144485000I0J75000D01*
G01*
G37*
G36*
G01*
X114075000Y-143985000D02*
X114075000Y-143835000D01*
G75*
G02*
X114150000Y-143760000I75000J0D01*
G01*
X115600000Y-143760000D01*
G75*
G02*
X115675000Y-143835000I0J-75000D01*
G01*
X115675000Y-143985000D01*
G75*
G02*
X115600000Y-144060000I-75000J0D01*
G01*
X114150000Y-144060000D01*
G75*
G02*
X114075000Y-143985000I0J75000D01*
G01*
G37*
G36*
G01*
X114075000Y-143485000D02*
X114075000Y-143335000D01*
G75*
G02*
X114150000Y-143260000I75000J0D01*
G01*
X115600000Y-143260000D01*
G75*
G02*
X115675000Y-143335000I0J-75000D01*
G01*
X115675000Y-143485000D01*
G75*
G02*
X115600000Y-143560000I-75000J0D01*
G01*
X114150000Y-143560000D01*
G75*
G02*
X114075000Y-143485000I0J75000D01*
G01*
G37*
G36*
G01*
X114075000Y-142985000D02*
X114075000Y-142835000D01*
G75*
G02*
X114150000Y-142760000I75000J0D01*
G01*
X115600000Y-142760000D01*
G75*
G02*
X115675000Y-142835000I0J-75000D01*
G01*
X115675000Y-142985000D01*
G75*
G02*
X115600000Y-143060000I-75000J0D01*
G01*
X114150000Y-143060000D01*
G75*
G02*
X114075000Y-142985000I0J75000D01*
G01*
G37*
G36*
G01*
X114075000Y-142485000D02*
X114075000Y-142335000D01*
G75*
G02*
X114150000Y-142260000I75000J0D01*
G01*
X115600000Y-142260000D01*
G75*
G02*
X115675000Y-142335000I0J-75000D01*
G01*
X115675000Y-142485000D01*
G75*
G02*
X115600000Y-142560000I-75000J0D01*
G01*
X114150000Y-142560000D01*
G75*
G02*
X114075000Y-142485000I0J75000D01*
G01*
G37*
G36*
G01*
X114075000Y-141985000D02*
X114075000Y-141835000D01*
G75*
G02*
X114150000Y-141760000I75000J0D01*
G01*
X115600000Y-141760000D01*
G75*
G02*
X115675000Y-141835000I0J-75000D01*
G01*
X115675000Y-141985000D01*
G75*
G02*
X115600000Y-142060000I-75000J0D01*
G01*
X114150000Y-142060000D01*
G75*
G02*
X114075000Y-141985000I0J75000D01*
G01*
G37*
G36*
G01*
X114075000Y-141485000D02*
X114075000Y-141335000D01*
G75*
G02*
X114150000Y-141260000I75000J0D01*
G01*
X115600000Y-141260000D01*
G75*
G02*
X115675000Y-141335000I0J-75000D01*
G01*
X115675000Y-141485000D01*
G75*
G02*
X115600000Y-141560000I-75000J0D01*
G01*
X114150000Y-141560000D01*
G75*
G02*
X114075000Y-141485000I0J75000D01*
G01*
G37*
G36*
G01*
X114075000Y-140985000D02*
X114075000Y-140835000D01*
G75*
G02*
X114150000Y-140760000I75000J0D01*
G01*
X115600000Y-140760000D01*
G75*
G02*
X115675000Y-140835000I0J-75000D01*
G01*
X115675000Y-140985000D01*
G75*
G02*
X115600000Y-141060000I-75000J0D01*
G01*
X114150000Y-141060000D01*
G75*
G02*
X114075000Y-140985000I0J75000D01*
G01*
G37*
G36*
G01*
X114075000Y-140485000D02*
X114075000Y-140335000D01*
G75*
G02*
X114150000Y-140260000I75000J0D01*
G01*
X115600000Y-140260000D01*
G75*
G02*
X115675000Y-140335000I0J-75000D01*
G01*
X115675000Y-140485000D01*
G75*
G02*
X115600000Y-140560000I-75000J0D01*
G01*
X114150000Y-140560000D01*
G75*
G02*
X114075000Y-140485000I0J75000D01*
G01*
G37*
G36*
G01*
X114075000Y-139985000D02*
X114075000Y-139835000D01*
G75*
G02*
X114150000Y-139760000I75000J0D01*
G01*
X115600000Y-139760000D01*
G75*
G02*
X115675000Y-139835000I0J-75000D01*
G01*
X115675000Y-139985000D01*
G75*
G02*
X115600000Y-140060000I-75000J0D01*
G01*
X114150000Y-140060000D01*
G75*
G02*
X114075000Y-139985000I0J75000D01*
G01*
G37*
G36*
G01*
X114075000Y-139485000D02*
X114075000Y-139335000D01*
G75*
G02*
X114150000Y-139260000I75000J0D01*
G01*
X115600000Y-139260000D01*
G75*
G02*
X115675000Y-139335000I0J-75000D01*
G01*
X115675000Y-139485000D01*
G75*
G02*
X115600000Y-139560000I-75000J0D01*
G01*
X114150000Y-139560000D01*
G75*
G02*
X114075000Y-139485000I0J75000D01*
G01*
G37*
G36*
G01*
X114075000Y-138985000D02*
X114075000Y-138835000D01*
G75*
G02*
X114150000Y-138760000I75000J0D01*
G01*
X115600000Y-138760000D01*
G75*
G02*
X115675000Y-138835000I0J-75000D01*
G01*
X115675000Y-138985000D01*
G75*
G02*
X115600000Y-139060000I-75000J0D01*
G01*
X114150000Y-139060000D01*
G75*
G02*
X114075000Y-138985000I0J75000D01*
G01*
G37*
G36*
G01*
X114075000Y-138485000D02*
X114075000Y-138335000D01*
G75*
G02*
X114150000Y-138260000I75000J0D01*
G01*
X115600000Y-138260000D01*
G75*
G02*
X115675000Y-138335000I0J-75000D01*
G01*
X115675000Y-138485000D01*
G75*
G02*
X115600000Y-138560000I-75000J0D01*
G01*
X114150000Y-138560000D01*
G75*
G02*
X114075000Y-138485000I0J75000D01*
G01*
G37*
G36*
G01*
X114075000Y-137985000D02*
X114075000Y-137835000D01*
G75*
G02*
X114150000Y-137760000I75000J0D01*
G01*
X115600000Y-137760000D01*
G75*
G02*
X115675000Y-137835000I0J-75000D01*
G01*
X115675000Y-137985000D01*
G75*
G02*
X115600000Y-138060000I-75000J0D01*
G01*
X114150000Y-138060000D01*
G75*
G02*
X114075000Y-137985000I0J75000D01*
G01*
G37*
G36*
G01*
X114075000Y-137485000D02*
X114075000Y-137335000D01*
G75*
G02*
X114150000Y-137260000I75000J0D01*
G01*
X115600000Y-137260000D01*
G75*
G02*
X115675000Y-137335000I0J-75000D01*
G01*
X115675000Y-137485000D01*
G75*
G02*
X115600000Y-137560000I-75000J0D01*
G01*
X114150000Y-137560000D01*
G75*
G02*
X114075000Y-137485000I0J75000D01*
G01*
G37*
G36*
G01*
X114075000Y-136985000D02*
X114075000Y-136835000D01*
G75*
G02*
X114150000Y-136760000I75000J0D01*
G01*
X115600000Y-136760000D01*
G75*
G02*
X115675000Y-136835000I0J-75000D01*
G01*
X115675000Y-136985000D01*
G75*
G02*
X115600000Y-137060000I-75000J0D01*
G01*
X114150000Y-137060000D01*
G75*
G02*
X114075000Y-136985000I0J75000D01*
G01*
G37*
G36*
G01*
X114075000Y-136485000D02*
X114075000Y-136335000D01*
G75*
G02*
X114150000Y-136260000I75000J0D01*
G01*
X115600000Y-136260000D01*
G75*
G02*
X115675000Y-136335000I0J-75000D01*
G01*
X115675000Y-136485000D01*
G75*
G02*
X115600000Y-136560000I-75000J0D01*
G01*
X114150000Y-136560000D01*
G75*
G02*
X114075000Y-136485000I0J75000D01*
G01*
G37*
G36*
G01*
X114075000Y-135985000D02*
X114075000Y-135835000D01*
G75*
G02*
X114150000Y-135760000I75000J0D01*
G01*
X115600000Y-135760000D01*
G75*
G02*
X115675000Y-135835000I0J-75000D01*
G01*
X115675000Y-135985000D01*
G75*
G02*
X115600000Y-136060000I-75000J0D01*
G01*
X114150000Y-136060000D01*
G75*
G02*
X114075000Y-135985000I0J75000D01*
G01*
G37*
G36*
G01*
X114075000Y-135485000D02*
X114075000Y-135335000D01*
G75*
G02*
X114150000Y-135260000I75000J0D01*
G01*
X115600000Y-135260000D01*
G75*
G02*
X115675000Y-135335000I0J-75000D01*
G01*
X115675000Y-135485000D01*
G75*
G02*
X115600000Y-135560000I-75000J0D01*
G01*
X114150000Y-135560000D01*
G75*
G02*
X114075000Y-135485000I0J75000D01*
G01*
G37*
G36*
G01*
X114075000Y-134985000D02*
X114075000Y-134835000D01*
G75*
G02*
X114150000Y-134760000I75000J0D01*
G01*
X115600000Y-134760000D01*
G75*
G02*
X115675000Y-134835000I0J-75000D01*
G01*
X115675000Y-134985000D01*
G75*
G02*
X115600000Y-135060000I-75000J0D01*
G01*
X114150000Y-135060000D01*
G75*
G02*
X114075000Y-134985000I0J75000D01*
G01*
G37*
G36*
G01*
X114075000Y-134485000D02*
X114075000Y-134335000D01*
G75*
G02*
X114150000Y-134260000I75000J0D01*
G01*
X115600000Y-134260000D01*
G75*
G02*
X115675000Y-134335000I0J-75000D01*
G01*
X115675000Y-134485000D01*
G75*
G02*
X115600000Y-134560000I-75000J0D01*
G01*
X114150000Y-134560000D01*
G75*
G02*
X114075000Y-134485000I0J75000D01*
G01*
G37*
G36*
G01*
X76740001Y-123000000D02*
X75839999Y-123000000D01*
G75*
G02*
X75590000Y-122750001I0J249999D01*
G01*
X75590000Y-122224999D01*
G75*
G02*
X75839999Y-121975000I249999J0D01*
G01*
X76740001Y-121975000D01*
G75*
G02*
X76990000Y-122224999I0J-249999D01*
G01*
X76990000Y-122750001D01*
G75*
G02*
X76740001Y-123000000I-249999J0D01*
G01*
G37*
G36*
G01*
X76740001Y-124825000D02*
X75839999Y-124825000D01*
G75*
G02*
X75590000Y-124575001I0J249999D01*
G01*
X75590000Y-124049999D01*
G75*
G02*
X75839999Y-123800000I249999J0D01*
G01*
X76740001Y-123800000D01*
G75*
G02*
X76990000Y-124049999I0J-249999D01*
G01*
X76990000Y-124575001D01*
G75*
G02*
X76740001Y-124825000I-249999J0D01*
G01*
G37*
G36*
G01*
X78710001Y-122990000D02*
X77809999Y-122990000D01*
G75*
G02*
X77560000Y-122740001I0J249999D01*
G01*
X77560000Y-122214999D01*
G75*
G02*
X77809999Y-121965000I249999J0D01*
G01*
X78710001Y-121965000D01*
G75*
G02*
X78960000Y-122214999I0J-249999D01*
G01*
X78960000Y-122740001D01*
G75*
G02*
X78710001Y-122990000I-249999J0D01*
G01*
G37*
G36*
G01*
X78710001Y-124815000D02*
X77809999Y-124815000D01*
G75*
G02*
X77560000Y-124565001I0J249999D01*
G01*
X77560000Y-124039999D01*
G75*
G02*
X77809999Y-123790000I249999J0D01*
G01*
X78710001Y-123790000D01*
G75*
G02*
X78960000Y-124039999I0J-249999D01*
G01*
X78960000Y-124565001D01*
G75*
G02*
X78710001Y-124815000I-249999J0D01*
G01*
G37*
D32*
X85450000Y-123270000D03*
X83450000Y-124220000D03*
X83450000Y-122320000D03*
D16*
X73550000Y-124420000D03*
X72600000Y-122420000D03*
X74500000Y-122420000D03*
D21*
X85120000Y-153470000D03*
G36*
G01*
X81770000Y-154220000D02*
X81770000Y-152720000D01*
G75*
G02*
X82020000Y-152470000I250000J0D01*
G01*
X83220000Y-152470000D01*
G75*
G02*
X83470000Y-152720000I0J-250000D01*
G01*
X83470000Y-154220000D01*
G75*
G02*
X83220000Y-154470000I-250000J0D01*
G01*
X82020000Y-154470000D01*
G75*
G02*
X81770000Y-154220000I0J250000D01*
G01*
G37*
X85120000Y-145460000D03*
G36*
G01*
X81770000Y-146210000D02*
X81770000Y-144710000D01*
G75*
G02*
X82020000Y-144460000I250000J0D01*
G01*
X83220000Y-144460000D01*
G75*
G02*
X83470000Y-144710000I0J-250000D01*
G01*
X83470000Y-146210000D01*
G75*
G02*
X83220000Y-146460000I-250000J0D01*
G01*
X82020000Y-146460000D01*
G75*
G02*
X81770000Y-146210000I0J250000D01*
G01*
G37*
X74510000Y-153460000D03*
G36*
G01*
X71160000Y-154210000D02*
X71160000Y-152710000D01*
G75*
G02*
X71410000Y-152460000I250000J0D01*
G01*
X72610000Y-152460000D01*
G75*
G02*
X72860000Y-152710000I0J-250000D01*
G01*
X72860000Y-154210000D01*
G75*
G02*
X72610000Y-154460000I-250000J0D01*
G01*
X71410000Y-154460000D01*
G75*
G02*
X71160000Y-154210000I0J250000D01*
G01*
G37*
X74510000Y-145460000D03*
G36*
G01*
X71160000Y-146210000D02*
X71160000Y-144710000D01*
G75*
G02*
X71410000Y-144460000I250000J0D01*
G01*
X72610000Y-144460000D01*
G75*
G02*
X72860000Y-144710000I0J-250000D01*
G01*
X72860000Y-146210000D01*
G75*
G02*
X72610000Y-146460000I-250000J0D01*
G01*
X71410000Y-146460000D01*
G75*
G02*
X71160000Y-146210000I0J250000D01*
G01*
G37*
X74510000Y-137460000D03*
G36*
G01*
X71160000Y-138210000D02*
X71160000Y-136710000D01*
G75*
G02*
X71410000Y-136460000I250000J0D01*
G01*
X72610000Y-136460000D01*
G75*
G02*
X72860000Y-136710000I0J-250000D01*
G01*
X72860000Y-138210000D01*
G75*
G02*
X72610000Y-138460000I-250000J0D01*
G01*
X71410000Y-138460000D01*
G75*
G02*
X71160000Y-138210000I0J250000D01*
G01*
G37*
X85070000Y-129460000D03*
G36*
G01*
X81720000Y-130210000D02*
X81720000Y-128710000D01*
G75*
G02*
X81970000Y-128460000I250000J0D01*
G01*
X83170000Y-128460000D01*
G75*
G02*
X83420000Y-128710000I0J-250000D01*
G01*
X83420000Y-130210000D01*
G75*
G02*
X83170000Y-130460000I-250000J0D01*
G01*
X81970000Y-130460000D01*
G75*
G02*
X81720000Y-130210000I0J250000D01*
G01*
G37*
X74510000Y-129460000D03*
G36*
G01*
X71160000Y-130210000D02*
X71160000Y-128710000D01*
G75*
G02*
X71410000Y-128460000I250000J0D01*
G01*
X72610000Y-128460000D01*
G75*
G02*
X72860000Y-128710000I0J-250000D01*
G01*
X72860000Y-130210000D01*
G75*
G02*
X72610000Y-130460000I-250000J0D01*
G01*
X71410000Y-130460000D01*
G75*
G02*
X71160000Y-130210000I0J250000D01*
G01*
G37*
D33*
X162140000Y-133990000D03*
X162140000Y-134790000D03*
X162140000Y-133990000D03*
X162140000Y-134790000D03*
X162140000Y-140390000D03*
X162140000Y-140390000D03*
X162140000Y-139590000D03*
X162140000Y-139590000D03*
D34*
X163200000Y-140080000D03*
X163200000Y-134300000D03*
D35*
X162140000Y-135440000D03*
X162140000Y-136440000D03*
X162140000Y-135940000D03*
X162140000Y-138440000D03*
X162140000Y-138940000D03*
X162140000Y-136940000D03*
X162140000Y-137440000D03*
X162140000Y-137940000D03*
D36*
X166890000Y-132870000D03*
X166890000Y-141510000D03*
D37*
X162720000Y-132870000D03*
X162720000Y-141510000D03*
D17*
X82120000Y-117590000D03*
X82120000Y-120390000D03*
X70600000Y-124350000D03*
X70600000Y-121550000D03*
D33*
X75825000Y-118595000D03*
X75825000Y-117795000D03*
X75825000Y-118595000D03*
X75825000Y-117795000D03*
X75825000Y-112195000D03*
X75825000Y-112195000D03*
X75825000Y-112995000D03*
X75825000Y-112995000D03*
D34*
X74765000Y-112505000D03*
X74765000Y-118285000D03*
D35*
X75825000Y-117145000D03*
X75825000Y-116145000D03*
X75825000Y-116645000D03*
X75825000Y-114145000D03*
X75825000Y-113645000D03*
X75825000Y-115645000D03*
X75825000Y-115145000D03*
X75825000Y-114645000D03*
D36*
X71075000Y-119715000D03*
X71075000Y-111075000D03*
D37*
X75245000Y-119715000D03*
X75245000Y-111075000D03*
G36*
G01*
X83065000Y-106795001D02*
X83065000Y-105894999D01*
G75*
G02*
X83314999Y-105645000I249999J0D01*
G01*
X83840001Y-105645000D01*
G75*
G02*
X84090000Y-105894999I0J-249999D01*
G01*
X84090000Y-106795001D01*
G75*
G02*
X83840001Y-107045000I-249999J0D01*
G01*
X83314999Y-107045000D01*
G75*
G02*
X83065000Y-106795001I0J249999D01*
G01*
G37*
G36*
G01*
X81240000Y-106795001D02*
X81240000Y-105894999D01*
G75*
G02*
X81489999Y-105645000I249999J0D01*
G01*
X82015001Y-105645000D01*
G75*
G02*
X82265000Y-105894999I0J-249999D01*
G01*
X82265000Y-106795001D01*
G75*
G02*
X82015001Y-107045000I-249999J0D01*
G01*
X81489999Y-107045000D01*
G75*
G02*
X81240000Y-106795001I0J249999D01*
G01*
G37*
D38*
X76140000Y-106495000D03*
X70440000Y-106495000D03*
G36*
G01*
X82715000Y-99095000D02*
X81765000Y-99095000D01*
G75*
G02*
X81515000Y-98845000I0J250000D01*
G01*
X81515000Y-98345000D01*
G75*
G02*
X81765000Y-98095000I250000J0D01*
G01*
X82715000Y-98095000D01*
G75*
G02*
X82965000Y-98345000I0J-250000D01*
G01*
X82965000Y-98845000D01*
G75*
G02*
X82715000Y-99095000I-250000J0D01*
G01*
G37*
G36*
G01*
X82715000Y-100995000D02*
X81765000Y-100995000D01*
G75*
G02*
X81515000Y-100745000I0J250000D01*
G01*
X81515000Y-100245000D01*
G75*
G02*
X81765000Y-99995000I250000J0D01*
G01*
X82715000Y-99995000D01*
G75*
G02*
X82965000Y-100245000I0J-250000D01*
G01*
X82965000Y-100745000D01*
G75*
G02*
X82715000Y-100995000I-250000J0D01*
G01*
G37*
G36*
G01*
X82490000Y-96045000D02*
X82490000Y-96995000D01*
G75*
G02*
X82240000Y-97245000I-250000J0D01*
G01*
X81740000Y-97245000D01*
G75*
G02*
X81490000Y-96995000I0J250000D01*
G01*
X81490000Y-96045000D01*
G75*
G02*
X81740000Y-95795000I250000J0D01*
G01*
X82240000Y-95795000D01*
G75*
G02*
X82490000Y-96045000I0J-250000D01*
G01*
G37*
G36*
G01*
X84390000Y-96045000D02*
X84390000Y-96995000D01*
G75*
G02*
X84140000Y-97245000I-250000J0D01*
G01*
X83640000Y-97245000D01*
G75*
G02*
X83390000Y-96995000I0J250000D01*
G01*
X83390000Y-96045000D01*
G75*
G02*
X83640000Y-95795000I250000J0D01*
G01*
X84140000Y-95795000D01*
G75*
G02*
X84390000Y-96045000I0J-250000D01*
G01*
G37*
D39*
X74715000Y-100050000D03*
X74715000Y-98780000D03*
X74715000Y-97510000D03*
X74715000Y-96240000D03*
X80115000Y-96240000D03*
X80115000Y-97510000D03*
X80115000Y-98780000D03*
X80115000Y-100050000D03*
D40*
X77415000Y-98145000D03*
G36*
G01*
X79565000Y-104770001D02*
X79565000Y-103869999D01*
G75*
G02*
X79814999Y-103620000I249999J0D01*
G01*
X80340001Y-103620000D01*
G75*
G02*
X80590000Y-103869999I0J-249999D01*
G01*
X80590000Y-104770001D01*
G75*
G02*
X80340001Y-105020000I-249999J0D01*
G01*
X79814999Y-105020000D01*
G75*
G02*
X79565000Y-104770001I0J249999D01*
G01*
G37*
G36*
G01*
X77740000Y-104770001D02*
X77740000Y-103869999D01*
G75*
G02*
X77989999Y-103620000I249999J0D01*
G01*
X78515001Y-103620000D01*
G75*
G02*
X78765000Y-103869999I0J-249999D01*
G01*
X78765000Y-104770001D01*
G75*
G02*
X78515001Y-105020000I-249999J0D01*
G01*
X77989999Y-105020000D01*
G75*
G02*
X77740000Y-104770001I0J249999D01*
G01*
G37*
G36*
G01*
X79590000Y-106770001D02*
X79590000Y-105869999D01*
G75*
G02*
X79839999Y-105620000I249999J0D01*
G01*
X80365001Y-105620000D01*
G75*
G02*
X80615000Y-105869999I0J-249999D01*
G01*
X80615000Y-106770001D01*
G75*
G02*
X80365001Y-107020000I-249999J0D01*
G01*
X79839999Y-107020000D01*
G75*
G02*
X79590000Y-106770001I0J249999D01*
G01*
G37*
G36*
G01*
X77765000Y-106770001D02*
X77765000Y-105869999D01*
G75*
G02*
X78014999Y-105620000I249999J0D01*
G01*
X78540001Y-105620000D01*
G75*
G02*
X78790000Y-105869999I0J-249999D01*
G01*
X78790000Y-106770001D01*
G75*
G02*
X78540001Y-107020000I-249999J0D01*
G01*
X78014999Y-107020000D01*
G75*
G02*
X77765000Y-106770001I0J249999D01*
G01*
G37*
G36*
G01*
X83040000Y-102745001D02*
X83040000Y-101844999D01*
G75*
G02*
X83289999Y-101595000I249999J0D01*
G01*
X83815001Y-101595000D01*
G75*
G02*
X84065000Y-101844999I0J-249999D01*
G01*
X84065000Y-102745001D01*
G75*
G02*
X83815001Y-102995000I-249999J0D01*
G01*
X83289999Y-102995000D01*
G75*
G02*
X83040000Y-102745001I0J249999D01*
G01*
G37*
G36*
G01*
X81215000Y-102745001D02*
X81215000Y-101844999D01*
G75*
G02*
X81464999Y-101595000I249999J0D01*
G01*
X81990001Y-101595000D01*
G75*
G02*
X82240000Y-101844999I0J-249999D01*
G01*
X82240000Y-102745001D01*
G75*
G02*
X81990001Y-102995000I-249999J0D01*
G01*
X81464999Y-102995000D01*
G75*
G02*
X81215000Y-102745001I0J249999D01*
G01*
G37*
D41*
X71365000Y-97070000D03*
X71365000Y-101370000D03*
G36*
G01*
X81050000Y-111100000D02*
X79950000Y-111100000D01*
G75*
G02*
X79700000Y-110850000I0J250000D01*
G01*
X79700000Y-107850000D01*
G75*
G02*
X79950000Y-107600000I250000J0D01*
G01*
X81050000Y-107600000D01*
G75*
G02*
X81300000Y-107850000I0J-250000D01*
G01*
X81300000Y-110850000D01*
G75*
G02*
X81050000Y-111100000I-250000J0D01*
G01*
G37*
G36*
G01*
X81050000Y-116500000D02*
X79950000Y-116500000D01*
G75*
G02*
X79700000Y-116250000I0J250000D01*
G01*
X79700000Y-113250000D01*
G75*
G02*
X79950000Y-113000000I250000J0D01*
G01*
X81050000Y-113000000D01*
G75*
G02*
X81300000Y-113250000I0J-250000D01*
G01*
X81300000Y-116250000D01*
G75*
G02*
X81050000Y-116500000I-250000J0D01*
G01*
G37*
G36*
G01*
X75865000Y-102420000D02*
X75865000Y-101470000D01*
G75*
G02*
X76115000Y-101220000I250000J0D01*
G01*
X76615000Y-101220000D01*
G75*
G02*
X76865000Y-101470000I0J-250000D01*
G01*
X76865000Y-102420000D01*
G75*
G02*
X76615000Y-102670000I-250000J0D01*
G01*
X76115000Y-102670000D01*
G75*
G02*
X75865000Y-102420000I0J250000D01*
G01*
G37*
G36*
G01*
X73965000Y-102420000D02*
X73965000Y-101470000D01*
G75*
G02*
X74215000Y-101220000I250000J0D01*
G01*
X74715000Y-101220000D01*
G75*
G02*
X74965000Y-101470000I0J-250000D01*
G01*
X74965000Y-102420000D01*
G75*
G02*
X74715000Y-102670000I-250000J0D01*
G01*
X74215000Y-102670000D01*
G75*
G02*
X73965000Y-102420000I0J250000D01*
G01*
G37*
G36*
G01*
X78740000Y-101470000D02*
X78740000Y-102420000D01*
G75*
G02*
X78490000Y-102670000I-250000J0D01*
G01*
X77990000Y-102670000D01*
G75*
G02*
X77740000Y-102420000I0J250000D01*
G01*
X77740000Y-101470000D01*
G75*
G02*
X77990000Y-101220000I250000J0D01*
G01*
X78490000Y-101220000D01*
G75*
G02*
X78740000Y-101470000I0J-250000D01*
G01*
G37*
G36*
G01*
X80640000Y-101470000D02*
X80640000Y-102420000D01*
G75*
G02*
X80390000Y-102670000I-250000J0D01*
G01*
X79890000Y-102670000D01*
G75*
G02*
X79640000Y-102420000I0J250000D01*
G01*
X79640000Y-101470000D01*
G75*
G02*
X79890000Y-101220000I250000J0D01*
G01*
X80390000Y-101220000D01*
G75*
G02*
X80640000Y-101470000I0J-250000D01*
G01*
G37*
G36*
G01*
X82190000Y-103870000D02*
X82190000Y-104820000D01*
G75*
G02*
X81940000Y-105070000I-250000J0D01*
G01*
X81440000Y-105070000D01*
G75*
G02*
X81190000Y-104820000I0J250000D01*
G01*
X81190000Y-103870000D01*
G75*
G02*
X81440000Y-103620000I250000J0D01*
G01*
X81940000Y-103620000D01*
G75*
G02*
X82190000Y-103870000I0J-250000D01*
G01*
G37*
G36*
G01*
X84090000Y-103870000D02*
X84090000Y-104820000D01*
G75*
G02*
X83840000Y-105070000I-250000J0D01*
G01*
X83340000Y-105070000D01*
G75*
G02*
X83090000Y-104820000I0J250000D01*
G01*
X83090000Y-103870000D01*
G75*
G02*
X83340000Y-103620000I250000J0D01*
G01*
X83840000Y-103620000D01*
G75*
G02*
X84090000Y-103870000I0J-250000D01*
G01*
G37*
D42*
X103940000Y-111720000D03*
X86160000Y-99020000D03*
X101400000Y-111720000D03*
X88700000Y-99020000D03*
X98860000Y-111720000D03*
X91240000Y-99020000D03*
X96320000Y-111720000D03*
X93780000Y-99020000D03*
X93780000Y-111720000D03*
X96320000Y-99020000D03*
X91240000Y-111720000D03*
X98860000Y-99020000D03*
X88700000Y-111720000D03*
X101400000Y-99020000D03*
X86160000Y-111720000D03*
D19*
X103940000Y-99020000D03*
G36*
G01*
X70235000Y-87970000D02*
X69935000Y-87970000D01*
G75*
G02*
X69785000Y-87820000I0J150000D01*
G01*
X69785000Y-86370000D01*
G75*
G02*
X69935000Y-86220000I150000J0D01*
G01*
X70235000Y-86220000D01*
G75*
G02*
X70385000Y-86370000I0J-150000D01*
G01*
X70385000Y-87820000D01*
G75*
G02*
X70235000Y-87970000I-150000J0D01*
G01*
G37*
G36*
G01*
X71505000Y-87970000D02*
X71205000Y-87970000D01*
G75*
G02*
X71055000Y-87820000I0J150000D01*
G01*
X71055000Y-86370000D01*
G75*
G02*
X71205000Y-86220000I150000J0D01*
G01*
X71505000Y-86220000D01*
G75*
G02*
X71655000Y-86370000I0J-150000D01*
G01*
X71655000Y-87820000D01*
G75*
G02*
X71505000Y-87970000I-150000J0D01*
G01*
G37*
G36*
G01*
X72775000Y-87970000D02*
X72475000Y-87970000D01*
G75*
G02*
X72325000Y-87820000I0J150000D01*
G01*
X72325000Y-86370000D01*
G75*
G02*
X72475000Y-86220000I150000J0D01*
G01*
X72775000Y-86220000D01*
G75*
G02*
X72925000Y-86370000I0J-150000D01*
G01*
X72925000Y-87820000D01*
G75*
G02*
X72775000Y-87970000I-150000J0D01*
G01*
G37*
G36*
G01*
X74045000Y-87970000D02*
X73745000Y-87970000D01*
G75*
G02*
X73595000Y-87820000I0J150000D01*
G01*
X73595000Y-86370000D01*
G75*
G02*
X73745000Y-86220000I150000J0D01*
G01*
X74045000Y-86220000D01*
G75*
G02*
X74195000Y-86370000I0J-150000D01*
G01*
X74195000Y-87820000D01*
G75*
G02*
X74045000Y-87970000I-150000J0D01*
G01*
G37*
G36*
G01*
X74045000Y-93120000D02*
X73745000Y-93120000D01*
G75*
G02*
X73595000Y-92970000I0J150000D01*
G01*
X73595000Y-91520000D01*
G75*
G02*
X73745000Y-91370000I150000J0D01*
G01*
X74045000Y-91370000D01*
G75*
G02*
X74195000Y-91520000I0J-150000D01*
G01*
X74195000Y-92970000D01*
G75*
G02*
X74045000Y-93120000I-150000J0D01*
G01*
G37*
G36*
G01*
X72775000Y-93120000D02*
X72475000Y-93120000D01*
G75*
G02*
X72325000Y-92970000I0J150000D01*
G01*
X72325000Y-91520000D01*
G75*
G02*
X72475000Y-91370000I150000J0D01*
G01*
X72775000Y-91370000D01*
G75*
G02*
X72925000Y-91520000I0J-150000D01*
G01*
X72925000Y-92970000D01*
G75*
G02*
X72775000Y-93120000I-150000J0D01*
G01*
G37*
G36*
G01*
X71505000Y-93120000D02*
X71205000Y-93120000D01*
G75*
G02*
X71055000Y-92970000I0J150000D01*
G01*
X71055000Y-91520000D01*
G75*
G02*
X71205000Y-91370000I150000J0D01*
G01*
X71505000Y-91370000D01*
G75*
G02*
X71655000Y-91520000I0J-150000D01*
G01*
X71655000Y-92970000D01*
G75*
G02*
X71505000Y-93120000I-150000J0D01*
G01*
G37*
G36*
G01*
X70235000Y-93120000D02*
X69935000Y-93120000D01*
G75*
G02*
X69785000Y-92970000I0J150000D01*
G01*
X69785000Y-91520000D01*
G75*
G02*
X69935000Y-91370000I150000J0D01*
G01*
X70235000Y-91370000D01*
G75*
G02*
X70385000Y-91520000I0J-150000D01*
G01*
X70385000Y-92970000D01*
G75*
G02*
X70235000Y-93120000I-150000J0D01*
G01*
G37*
D12*
X112290000Y-94370000D03*
X114790000Y-94370000D03*
X117290000Y-94370000D03*
G36*
G01*
X120640000Y-93645000D02*
X120640000Y-95095000D01*
G75*
G02*
X120390000Y-95345000I-250000J0D01*
G01*
X119190000Y-95345000D01*
G75*
G02*
X118940000Y-95095000I0J250000D01*
G01*
X118940000Y-93645000D01*
G75*
G02*
X119190000Y-93395000I250000J0D01*
G01*
X120390000Y-93395000D01*
G75*
G02*
X120640000Y-93645000I0J-250000D01*
G01*
G37*
X133290000Y-94420000D03*
X135790000Y-94420000D03*
X138290000Y-94420000D03*
G36*
G01*
X141640000Y-93695000D02*
X141640000Y-95145000D01*
G75*
G02*
X141390000Y-95395000I-250000J0D01*
G01*
X140190000Y-95395000D01*
G75*
G02*
X139940000Y-95145000I0J250000D01*
G01*
X139940000Y-93695000D01*
G75*
G02*
X140190000Y-93445000I250000J0D01*
G01*
X141390000Y-93445000D01*
G75*
G02*
X141640000Y-93695000I0J-250000D01*
G01*
G37*
X91340000Y-94420000D03*
X93840000Y-94420000D03*
X96340000Y-94420000D03*
G36*
G01*
X99690000Y-93695000D02*
X99690000Y-95145000D01*
G75*
G02*
X99440000Y-95395000I-250000J0D01*
G01*
X98240000Y-95395000D01*
G75*
G02*
X97990000Y-95145000I0J250000D01*
G01*
X97990000Y-93695000D01*
G75*
G02*
X98240000Y-93445000I250000J0D01*
G01*
X99440000Y-93445000D01*
G75*
G02*
X99690000Y-93695000I0J-250000D01*
G01*
G37*
G36*
G01*
X83210001Y-77790000D02*
X82309999Y-77790000D01*
G75*
G02*
X82060000Y-77540001I0J249999D01*
G01*
X82060000Y-77014999D01*
G75*
G02*
X82309999Y-76765000I249999J0D01*
G01*
X83210001Y-76765000D01*
G75*
G02*
X83460000Y-77014999I0J-249999D01*
G01*
X83460000Y-77540001D01*
G75*
G02*
X83210001Y-77790000I-249999J0D01*
G01*
G37*
G36*
G01*
X83210001Y-79615000D02*
X82309999Y-79615000D01*
G75*
G02*
X82060000Y-79365001I0J249999D01*
G01*
X82060000Y-78839999D01*
G75*
G02*
X82309999Y-78590000I249999J0D01*
G01*
X83210001Y-78590000D01*
G75*
G02*
X83460000Y-78839999I0J-249999D01*
G01*
X83460000Y-79365001D01*
G75*
G02*
X83210001Y-79615000I-249999J0D01*
G01*
G37*
D43*
X73990000Y-77420000D03*
D44*
X73990000Y-82420000D03*
D25*
X158940000Y-70770000D03*
X80930000Y-74050000D03*
G36*
G01*
X82303750Y-82057500D02*
X83216250Y-82057500D01*
G75*
G02*
X83460000Y-82301250I0J-243750D01*
G01*
X83460000Y-82788750D01*
G75*
G02*
X83216250Y-83032500I-243750J0D01*
G01*
X82303750Y-83032500D01*
G75*
G02*
X82060000Y-82788750I0J243750D01*
G01*
X82060000Y-82301250D01*
G75*
G02*
X82303750Y-82057500I243750J0D01*
G01*
G37*
G36*
G01*
X82303750Y-80182500D02*
X83216250Y-80182500D01*
G75*
G02*
X83460000Y-80426250I0J-243750D01*
G01*
X83460000Y-80913750D01*
G75*
G02*
X83216250Y-81157500I-243750J0D01*
G01*
X82303750Y-81157500D01*
G75*
G02*
X82060000Y-80913750I0J243750D01*
G01*
X82060000Y-80426250D01*
G75*
G02*
X82303750Y-80182500I243750J0D01*
G01*
G37*
G36*
G01*
X80540000Y-90220000D02*
X80540000Y-89120000D01*
G75*
G02*
X80790000Y-88870000I250000J0D01*
G01*
X83790000Y-88870000D01*
G75*
G02*
X84040000Y-89120000I0J-250000D01*
G01*
X84040000Y-90220000D01*
G75*
G02*
X83790000Y-90470000I-250000J0D01*
G01*
X80790000Y-90470000D01*
G75*
G02*
X80540000Y-90220000I0J250000D01*
G01*
G37*
G36*
G01*
X75140000Y-90220000D02*
X75140000Y-89120000D01*
G75*
G02*
X75390000Y-88870000I250000J0D01*
G01*
X78390000Y-88870000D01*
G75*
G02*
X78640000Y-89120000I0J-250000D01*
G01*
X78640000Y-90220000D01*
G75*
G02*
X78390000Y-90470000I-250000J0D01*
G01*
X75390000Y-90470000D01*
G75*
G02*
X75140000Y-90220000I0J250000D01*
G01*
G37*
G36*
G01*
X90315000Y-109370001D02*
X90315000Y-108469999D01*
G75*
G02*
X90564999Y-108220000I249999J0D01*
G01*
X91090001Y-108220000D01*
G75*
G02*
X91340000Y-108469999I0J-249999D01*
G01*
X91340000Y-109370001D01*
G75*
G02*
X91090001Y-109620000I-249999J0D01*
G01*
X90564999Y-109620000D01*
G75*
G02*
X90315000Y-109370001I0J249999D01*
G01*
G37*
G36*
G01*
X92140000Y-109370001D02*
X92140000Y-108469999D01*
G75*
G02*
X92389999Y-108220000I249999J0D01*
G01*
X92915001Y-108220000D01*
G75*
G02*
X93165000Y-108469999I0J-249999D01*
G01*
X93165000Y-109370001D01*
G75*
G02*
X92915001Y-109620000I-249999J0D01*
G01*
X92389999Y-109620000D01*
G75*
G02*
X92140000Y-109370001I0J249999D01*
G01*
G37*
D23*
X103700000Y-102010000D03*
D22*
X103700000Y-104550000D03*
X103700000Y-107090000D03*
G36*
G01*
X84690000Y-104770000D02*
X84690000Y-103670000D01*
G75*
G02*
X84940000Y-103420000I250000J0D01*
G01*
X87940000Y-103420000D01*
G75*
G02*
X88190000Y-103670000I0J-250000D01*
G01*
X88190000Y-104770000D01*
G75*
G02*
X87940000Y-105020000I-250000J0D01*
G01*
X84940000Y-105020000D01*
G75*
G02*
X84690000Y-104770000I0J250000D01*
G01*
G37*
G36*
G01*
X90090000Y-104770000D02*
X90090000Y-103670000D01*
G75*
G02*
X90340000Y-103420000I250000J0D01*
G01*
X93340000Y-103420000D01*
G75*
G02*
X93590000Y-103670000I0J-250000D01*
G01*
X93590000Y-104770000D01*
G75*
G02*
X93340000Y-105020000I-250000J0D01*
G01*
X90340000Y-105020000D01*
G75*
G02*
X90090000Y-104770000I0J250000D01*
G01*
G37*
D23*
X98140000Y-102010000D03*
D22*
X98140000Y-104550000D03*
X98140000Y-107090000D03*
D23*
X95340000Y-102010000D03*
D22*
X95340000Y-104550000D03*
X95340000Y-107090000D03*
D23*
X100940000Y-102010000D03*
D22*
X100940000Y-104550000D03*
X100940000Y-107090000D03*
G36*
G01*
X111415000Y-109470001D02*
X111415000Y-108569999D01*
G75*
G02*
X111664999Y-108320000I249999J0D01*
G01*
X112190001Y-108320000D01*
G75*
G02*
X112440000Y-108569999I0J-249999D01*
G01*
X112440000Y-109470001D01*
G75*
G02*
X112190001Y-109720000I-249999J0D01*
G01*
X111664999Y-109720000D01*
G75*
G02*
X111415000Y-109470001I0J249999D01*
G01*
G37*
G36*
G01*
X113240000Y-109470001D02*
X113240000Y-108569999D01*
G75*
G02*
X113489999Y-108320000I249999J0D01*
G01*
X114015001Y-108320000D01*
G75*
G02*
X114265000Y-108569999I0J-249999D01*
G01*
X114265000Y-109470001D01*
G75*
G02*
X114015001Y-109720000I-249999J0D01*
G01*
X113489999Y-109720000D01*
G75*
G02*
X113240000Y-109470001I0J249999D01*
G01*
G37*
D23*
X124800000Y-102110000D03*
D22*
X124800000Y-104650000D03*
X124800000Y-107190000D03*
G36*
G01*
X105790000Y-104870000D02*
X105790000Y-103770000D01*
G75*
G02*
X106040000Y-103520000I250000J0D01*
G01*
X109040000Y-103520000D01*
G75*
G02*
X109290000Y-103770000I0J-250000D01*
G01*
X109290000Y-104870000D01*
G75*
G02*
X109040000Y-105120000I-250000J0D01*
G01*
X106040000Y-105120000D01*
G75*
G02*
X105790000Y-104870000I0J250000D01*
G01*
G37*
G36*
G01*
X111190000Y-104870000D02*
X111190000Y-103770000D01*
G75*
G02*
X111440000Y-103520000I250000J0D01*
G01*
X114440000Y-103520000D01*
G75*
G02*
X114690000Y-103770000I0J-250000D01*
G01*
X114690000Y-104870000D01*
G75*
G02*
X114440000Y-105120000I-250000J0D01*
G01*
X111440000Y-105120000D01*
G75*
G02*
X111190000Y-104870000I0J250000D01*
G01*
G37*
D23*
X119240000Y-102110000D03*
D22*
X119240000Y-104650000D03*
X119240000Y-107190000D03*
D23*
X116440000Y-102110000D03*
D22*
X116440000Y-104650000D03*
X116440000Y-107190000D03*
D23*
X122040000Y-102110000D03*
D22*
X122040000Y-104650000D03*
X122040000Y-107190000D03*
G36*
G01*
X153415000Y-109470001D02*
X153415000Y-108569999D01*
G75*
G02*
X153664999Y-108320000I249999J0D01*
G01*
X154190001Y-108320000D01*
G75*
G02*
X154440000Y-108569999I0J-249999D01*
G01*
X154440000Y-109470001D01*
G75*
G02*
X154190001Y-109720000I-249999J0D01*
G01*
X153664999Y-109720000D01*
G75*
G02*
X153415000Y-109470001I0J249999D01*
G01*
G37*
G36*
G01*
X155240000Y-109470001D02*
X155240000Y-108569999D01*
G75*
G02*
X155489999Y-108320000I249999J0D01*
G01*
X156015001Y-108320000D01*
G75*
G02*
X156265000Y-108569999I0J-249999D01*
G01*
X156265000Y-109470001D01*
G75*
G02*
X156015001Y-109720000I-249999J0D01*
G01*
X155489999Y-109720000D01*
G75*
G02*
X155240000Y-109470001I0J249999D01*
G01*
G37*
D23*
X166800000Y-102110000D03*
D22*
X166800000Y-104650000D03*
X166800000Y-107190000D03*
G36*
G01*
X147790000Y-104870000D02*
X147790000Y-103770000D01*
G75*
G02*
X148040000Y-103520000I250000J0D01*
G01*
X151040000Y-103520000D01*
G75*
G02*
X151290000Y-103770000I0J-250000D01*
G01*
X151290000Y-104870000D01*
G75*
G02*
X151040000Y-105120000I-250000J0D01*
G01*
X148040000Y-105120000D01*
G75*
G02*
X147790000Y-104870000I0J250000D01*
G01*
G37*
G36*
G01*
X153190000Y-104870000D02*
X153190000Y-103770000D01*
G75*
G02*
X153440000Y-103520000I250000J0D01*
G01*
X156440000Y-103520000D01*
G75*
G02*
X156690000Y-103770000I0J-250000D01*
G01*
X156690000Y-104870000D01*
G75*
G02*
X156440000Y-105120000I-250000J0D01*
G01*
X153440000Y-105120000D01*
G75*
G02*
X153190000Y-104870000I0J250000D01*
G01*
G37*
D23*
X161240000Y-102110000D03*
D22*
X161240000Y-104650000D03*
X161240000Y-107190000D03*
D23*
X158440000Y-102110000D03*
D22*
X158440000Y-104650000D03*
X158440000Y-107190000D03*
D23*
X164040000Y-102110000D03*
D22*
X164040000Y-104650000D03*
X164040000Y-107190000D03*
G36*
G01*
X132415000Y-109470001D02*
X132415000Y-108569999D01*
G75*
G02*
X132664999Y-108320000I249999J0D01*
G01*
X133190001Y-108320000D01*
G75*
G02*
X133440000Y-108569999I0J-249999D01*
G01*
X133440000Y-109470001D01*
G75*
G02*
X133190001Y-109720000I-249999J0D01*
G01*
X132664999Y-109720000D01*
G75*
G02*
X132415000Y-109470001I0J249999D01*
G01*
G37*
G36*
G01*
X134240000Y-109470001D02*
X134240000Y-108569999D01*
G75*
G02*
X134489999Y-108320000I249999J0D01*
G01*
X135015001Y-108320000D01*
G75*
G02*
X135265000Y-108569999I0J-249999D01*
G01*
X135265000Y-109470001D01*
G75*
G02*
X135015001Y-109720000I-249999J0D01*
G01*
X134489999Y-109720000D01*
G75*
G02*
X134240000Y-109470001I0J249999D01*
G01*
G37*
D23*
X145800000Y-102110000D03*
D22*
X145800000Y-104650000D03*
X145800000Y-107190000D03*
G36*
G01*
X126790000Y-104870000D02*
X126790000Y-103770000D01*
G75*
G02*
X127040000Y-103520000I250000J0D01*
G01*
X130040000Y-103520000D01*
G75*
G02*
X130290000Y-103770000I0J-250000D01*
G01*
X130290000Y-104870000D01*
G75*
G02*
X130040000Y-105120000I-250000J0D01*
G01*
X127040000Y-105120000D01*
G75*
G02*
X126790000Y-104870000I0J250000D01*
G01*
G37*
G36*
G01*
X132190000Y-104870000D02*
X132190000Y-103770000D01*
G75*
G02*
X132440000Y-103520000I250000J0D01*
G01*
X135440000Y-103520000D01*
G75*
G02*
X135690000Y-103770000I0J-250000D01*
G01*
X135690000Y-104870000D01*
G75*
G02*
X135440000Y-105120000I-250000J0D01*
G01*
X132440000Y-105120000D01*
G75*
G02*
X132190000Y-104870000I0J250000D01*
G01*
G37*
D23*
X140240000Y-102110000D03*
D22*
X140240000Y-104650000D03*
X140240000Y-107190000D03*
D23*
X137440000Y-102110000D03*
D22*
X137440000Y-104650000D03*
X137440000Y-107190000D03*
D23*
X143040000Y-102110000D03*
D22*
X143040000Y-104650000D03*
X143040000Y-107190000D03*
G36*
G01*
X153415000Y-86470001D02*
X153415000Y-85569999D01*
G75*
G02*
X153664999Y-85320000I249999J0D01*
G01*
X154190001Y-85320000D01*
G75*
G02*
X154440000Y-85569999I0J-249999D01*
G01*
X154440000Y-86470001D01*
G75*
G02*
X154190001Y-86720000I-249999J0D01*
G01*
X153664999Y-86720000D01*
G75*
G02*
X153415000Y-86470001I0J249999D01*
G01*
G37*
G36*
G01*
X155240000Y-86470001D02*
X155240000Y-85569999D01*
G75*
G02*
X155489999Y-85320000I249999J0D01*
G01*
X156015001Y-85320000D01*
G75*
G02*
X156265000Y-85569999I0J-249999D01*
G01*
X156265000Y-86470001D01*
G75*
G02*
X156015001Y-86720000I-249999J0D01*
G01*
X155489999Y-86720000D01*
G75*
G02*
X155240000Y-86470001I0J249999D01*
G01*
G37*
D23*
X166800000Y-79110000D03*
D22*
X166800000Y-81650000D03*
X166800000Y-84190000D03*
G36*
G01*
X147790000Y-81870000D02*
X147790000Y-80770000D01*
G75*
G02*
X148040000Y-80520000I250000J0D01*
G01*
X151040000Y-80520000D01*
G75*
G02*
X151290000Y-80770000I0J-250000D01*
G01*
X151290000Y-81870000D01*
G75*
G02*
X151040000Y-82120000I-250000J0D01*
G01*
X148040000Y-82120000D01*
G75*
G02*
X147790000Y-81870000I0J250000D01*
G01*
G37*
G36*
G01*
X153190000Y-81870000D02*
X153190000Y-80770000D01*
G75*
G02*
X153440000Y-80520000I250000J0D01*
G01*
X156440000Y-80520000D01*
G75*
G02*
X156690000Y-80770000I0J-250000D01*
G01*
X156690000Y-81870000D01*
G75*
G02*
X156440000Y-82120000I-250000J0D01*
G01*
X153440000Y-82120000D01*
G75*
G02*
X153190000Y-81870000I0J250000D01*
G01*
G37*
D23*
X161240000Y-79110000D03*
D22*
X161240000Y-81650000D03*
X161240000Y-84190000D03*
D23*
X158440000Y-79110000D03*
D22*
X158440000Y-81650000D03*
X158440000Y-84190000D03*
D23*
X164040000Y-79110000D03*
D22*
X164040000Y-81650000D03*
X164040000Y-84190000D03*
G36*
G01*
X132515000Y-86470001D02*
X132515000Y-85569999D01*
G75*
G02*
X132764999Y-85320000I249999J0D01*
G01*
X133290001Y-85320000D01*
G75*
G02*
X133540000Y-85569999I0J-249999D01*
G01*
X133540000Y-86470001D01*
G75*
G02*
X133290001Y-86720000I-249999J0D01*
G01*
X132764999Y-86720000D01*
G75*
G02*
X132515000Y-86470001I0J249999D01*
G01*
G37*
G36*
G01*
X134340000Y-86470001D02*
X134340000Y-85569999D01*
G75*
G02*
X134589999Y-85320000I249999J0D01*
G01*
X135115001Y-85320000D01*
G75*
G02*
X135365000Y-85569999I0J-249999D01*
G01*
X135365000Y-86470001D01*
G75*
G02*
X135115001Y-86720000I-249999J0D01*
G01*
X134589999Y-86720000D01*
G75*
G02*
X134340000Y-86470001I0J249999D01*
G01*
G37*
D23*
X145900000Y-79110000D03*
D22*
X145900000Y-81650000D03*
X145900000Y-84190000D03*
G36*
G01*
X126890000Y-81870000D02*
X126890000Y-80770000D01*
G75*
G02*
X127140000Y-80520000I250000J0D01*
G01*
X130140000Y-80520000D01*
G75*
G02*
X130390000Y-80770000I0J-250000D01*
G01*
X130390000Y-81870000D01*
G75*
G02*
X130140000Y-82120000I-250000J0D01*
G01*
X127140000Y-82120000D01*
G75*
G02*
X126890000Y-81870000I0J250000D01*
G01*
G37*
G36*
G01*
X132290000Y-81870000D02*
X132290000Y-80770000D01*
G75*
G02*
X132540000Y-80520000I250000J0D01*
G01*
X135540000Y-80520000D01*
G75*
G02*
X135790000Y-80770000I0J-250000D01*
G01*
X135790000Y-81870000D01*
G75*
G02*
X135540000Y-82120000I-250000J0D01*
G01*
X132540000Y-82120000D01*
G75*
G02*
X132290000Y-81870000I0J250000D01*
G01*
G37*
D23*
X140340000Y-79110000D03*
D22*
X140340000Y-81650000D03*
X140340000Y-84190000D03*
D23*
X137540000Y-79110000D03*
D22*
X137540000Y-81650000D03*
X137540000Y-84190000D03*
D23*
X143140000Y-79110000D03*
D22*
X143140000Y-81650000D03*
X143140000Y-84190000D03*
G36*
G01*
X90415000Y-86470001D02*
X90415000Y-85569999D01*
G75*
G02*
X90664999Y-85320000I249999J0D01*
G01*
X91190001Y-85320000D01*
G75*
G02*
X91440000Y-85569999I0J-249999D01*
G01*
X91440000Y-86470001D01*
G75*
G02*
X91190001Y-86720000I-249999J0D01*
G01*
X90664999Y-86720000D01*
G75*
G02*
X90415000Y-86470001I0J249999D01*
G01*
G37*
G36*
G01*
X92240000Y-86470001D02*
X92240000Y-85569999D01*
G75*
G02*
X92489999Y-85320000I249999J0D01*
G01*
X93015001Y-85320000D01*
G75*
G02*
X93265000Y-85569999I0J-249999D01*
G01*
X93265000Y-86470001D01*
G75*
G02*
X93015001Y-86720000I-249999J0D01*
G01*
X92489999Y-86720000D01*
G75*
G02*
X92240000Y-86470001I0J249999D01*
G01*
G37*
D23*
X103800000Y-79110000D03*
D22*
X103800000Y-81650000D03*
X103800000Y-84190000D03*
G36*
G01*
X84790000Y-81870000D02*
X84790000Y-80770000D01*
G75*
G02*
X85040000Y-80520000I250000J0D01*
G01*
X88040000Y-80520000D01*
G75*
G02*
X88290000Y-80770000I0J-250000D01*
G01*
X88290000Y-81870000D01*
G75*
G02*
X88040000Y-82120000I-250000J0D01*
G01*
X85040000Y-82120000D01*
G75*
G02*
X84790000Y-81870000I0J250000D01*
G01*
G37*
G36*
G01*
X90190000Y-81870000D02*
X90190000Y-80770000D01*
G75*
G02*
X90440000Y-80520000I250000J0D01*
G01*
X93440000Y-80520000D01*
G75*
G02*
X93690000Y-80770000I0J-250000D01*
G01*
X93690000Y-81870000D01*
G75*
G02*
X93440000Y-82120000I-250000J0D01*
G01*
X90440000Y-82120000D01*
G75*
G02*
X90190000Y-81870000I0J250000D01*
G01*
G37*
D23*
X98240000Y-79110000D03*
D22*
X98240000Y-81650000D03*
X98240000Y-84190000D03*
D23*
X95440000Y-79110000D03*
D22*
X95440000Y-81650000D03*
X95440000Y-84190000D03*
D23*
X101040000Y-79110000D03*
D22*
X101040000Y-81650000D03*
X101040000Y-84190000D03*
G36*
G01*
X113340000Y-86470001D02*
X113340000Y-85569999D01*
G75*
G02*
X113589999Y-85320000I249999J0D01*
G01*
X114115001Y-85320000D01*
G75*
G02*
X114365000Y-85569999I0J-249999D01*
G01*
X114365000Y-86470001D01*
G75*
G02*
X114115001Y-86720000I-249999J0D01*
G01*
X113589999Y-86720000D01*
G75*
G02*
X113340000Y-86470001I0J249999D01*
G01*
G37*
G36*
G01*
X111515000Y-86470001D02*
X111515000Y-85569999D01*
G75*
G02*
X111764999Y-85320000I249999J0D01*
G01*
X112290001Y-85320000D01*
G75*
G02*
X112540000Y-85569999I0J-249999D01*
G01*
X112540000Y-86470001D01*
G75*
G02*
X112290001Y-86720000I-249999J0D01*
G01*
X111764999Y-86720000D01*
G75*
G02*
X111515000Y-86470001I0J249999D01*
G01*
G37*
D12*
X146690000Y-70270000D03*
X149190000Y-70270000D03*
X151690000Y-70270000D03*
G36*
G01*
X155040000Y-69545000D02*
X155040000Y-70995000D01*
G75*
G02*
X154790000Y-71245000I-250000J0D01*
G01*
X153590000Y-71245000D01*
G75*
G02*
X153340000Y-70995000I0J250000D01*
G01*
X153340000Y-69545000D01*
G75*
G02*
X153590000Y-69295000I250000J0D01*
G01*
X154790000Y-69295000D01*
G75*
G02*
X155040000Y-69545000I0J-250000D01*
G01*
G37*
D22*
X124900000Y-84190000D03*
X124900000Y-81650000D03*
D23*
X124900000Y-79110000D03*
D22*
X119340000Y-84190000D03*
X119340000Y-81650000D03*
D23*
X119340000Y-79110000D03*
D22*
X122140000Y-84190000D03*
X122140000Y-81650000D03*
D23*
X122140000Y-79110000D03*
D22*
X116540000Y-84190000D03*
X116540000Y-81650000D03*
D23*
X116540000Y-79110000D03*
G36*
G01*
X111290000Y-81870000D02*
X111290000Y-80770000D01*
G75*
G02*
X111540000Y-80520000I250000J0D01*
G01*
X114540000Y-80520000D01*
G75*
G02*
X114790000Y-80770000I0J-250000D01*
G01*
X114790000Y-81870000D01*
G75*
G02*
X114540000Y-82120000I-250000J0D01*
G01*
X111540000Y-82120000D01*
G75*
G02*
X111290000Y-81870000I0J250000D01*
G01*
G37*
G36*
G01*
X105890000Y-81870000D02*
X105890000Y-80770000D01*
G75*
G02*
X106140000Y-80520000I250000J0D01*
G01*
X109140000Y-80520000D01*
G75*
G02*
X109390000Y-80770000I0J-250000D01*
G01*
X109390000Y-81870000D01*
G75*
G02*
X109140000Y-82120000I-250000J0D01*
G01*
X106140000Y-82120000D01*
G75*
G02*
X105890000Y-81870000I0J250000D01*
G01*
G37*
D12*
X154290000Y-94420000D03*
X156790000Y-94420000D03*
X159290000Y-94420000D03*
G36*
G01*
X162640000Y-93695000D02*
X162640000Y-95145000D01*
G75*
G02*
X162390000Y-95395000I-250000J0D01*
G01*
X161190000Y-95395000D01*
G75*
G02*
X160940000Y-95145000I0J250000D01*
G01*
X160940000Y-93695000D01*
G75*
G02*
X161190000Y-93445000I250000J0D01*
G01*
X162390000Y-93445000D01*
G75*
G02*
X162640000Y-93695000I0J-250000D01*
G01*
G37*
X81315000Y-70145000D03*
X83815000Y-70145000D03*
X86315000Y-70145000D03*
G36*
G01*
X89665000Y-69420000D02*
X89665000Y-70870000D01*
G75*
G02*
X89415000Y-71120000I-250000J0D01*
G01*
X88215000Y-71120000D01*
G75*
G02*
X87965000Y-70870000I0J250000D01*
G01*
X87965000Y-69420000D01*
G75*
G02*
X88215000Y-69170000I250000J0D01*
G01*
X89415000Y-69170000D01*
G75*
G02*
X89665000Y-69420000I0J-250000D01*
G01*
G37*
X129890000Y-70170000D03*
X132390000Y-70170000D03*
X134890000Y-70170000D03*
G36*
G01*
X138240000Y-69445000D02*
X138240000Y-70895000D01*
G75*
G02*
X137990000Y-71145000I-250000J0D01*
G01*
X136790000Y-71145000D01*
G75*
G02*
X136540000Y-70895000I0J250000D01*
G01*
X136540000Y-69445000D01*
G75*
G02*
X136790000Y-69195000I250000J0D01*
G01*
X137990000Y-69195000D01*
G75*
G02*
X138240000Y-69445000I0J-250000D01*
G01*
G37*
X98365000Y-70145000D03*
X100865000Y-70145000D03*
X103365000Y-70145000D03*
G36*
G01*
X106715000Y-69420000D02*
X106715000Y-70870000D01*
G75*
G02*
X106465000Y-71120000I-250000J0D01*
G01*
X105265000Y-71120000D01*
G75*
G02*
X105015000Y-70870000I0J250000D01*
G01*
X105015000Y-69420000D01*
G75*
G02*
X105265000Y-69170000I250000J0D01*
G01*
X106465000Y-69170000D01*
G75*
G02*
X106715000Y-69420000I0J-250000D01*
G01*
G37*
X112365000Y-70145000D03*
X114865000Y-70145000D03*
X117365000Y-70145000D03*
G36*
G01*
X120715000Y-69420000D02*
X120715000Y-70870000D01*
G75*
G02*
X120465000Y-71120000I-250000J0D01*
G01*
X119265000Y-71120000D01*
G75*
G02*
X119015000Y-70870000I0J250000D01*
G01*
X119015000Y-69420000D01*
G75*
G02*
X119265000Y-69170000I250000J0D01*
G01*
X120465000Y-69170000D01*
G75*
G02*
X120715000Y-69420000I0J-250000D01*
G01*
G37*
D42*
X166940000Y-88720000D03*
X149160000Y-76020000D03*
X164400000Y-88720000D03*
X151700000Y-76020000D03*
X161860000Y-88720000D03*
X154240000Y-76020000D03*
X159320000Y-88720000D03*
X156780000Y-76020000D03*
X156780000Y-88720000D03*
X159320000Y-76020000D03*
X154240000Y-88720000D03*
X161860000Y-76020000D03*
X151700000Y-88720000D03*
X164400000Y-76020000D03*
X149160000Y-88720000D03*
D19*
X166940000Y-76020000D03*
D42*
X166940000Y-111720000D03*
X149160000Y-99020000D03*
X164400000Y-111720000D03*
X151700000Y-99020000D03*
X161860000Y-111720000D03*
X154240000Y-99020000D03*
X159320000Y-111720000D03*
X156780000Y-99020000D03*
X156780000Y-111720000D03*
X159320000Y-99020000D03*
X154240000Y-111720000D03*
X161860000Y-99020000D03*
X151700000Y-111720000D03*
X164400000Y-99020000D03*
X149160000Y-111720000D03*
D19*
X166940000Y-99020000D03*
D42*
X124940000Y-111720000D03*
X107160000Y-99020000D03*
X122400000Y-111720000D03*
X109700000Y-99020000D03*
X119860000Y-111720000D03*
X112240000Y-99020000D03*
X117320000Y-111720000D03*
X114780000Y-99020000D03*
X114780000Y-111720000D03*
X117320000Y-99020000D03*
X112240000Y-111720000D03*
X119860000Y-99020000D03*
X109700000Y-111720000D03*
X122400000Y-99020000D03*
X107160000Y-111720000D03*
D19*
X124940000Y-99020000D03*
D42*
X103940000Y-88720000D03*
X86160000Y-76020000D03*
X101400000Y-88720000D03*
X88700000Y-76020000D03*
X98860000Y-88720000D03*
X91240000Y-76020000D03*
X96320000Y-88720000D03*
X93780000Y-76020000D03*
X93780000Y-88720000D03*
X96320000Y-76020000D03*
X91240000Y-88720000D03*
X98860000Y-76020000D03*
X88700000Y-88720000D03*
X101400000Y-76020000D03*
X86160000Y-88720000D03*
D19*
X103940000Y-76020000D03*
D42*
X145940000Y-88720000D03*
X128160000Y-76020000D03*
X143400000Y-88720000D03*
X130700000Y-76020000D03*
X140860000Y-88720000D03*
X133240000Y-76020000D03*
X138320000Y-88720000D03*
X135780000Y-76020000D03*
X135780000Y-88720000D03*
X138320000Y-76020000D03*
X133240000Y-88720000D03*
X140860000Y-76020000D03*
X130700000Y-88720000D03*
X143400000Y-76020000D03*
X128160000Y-88720000D03*
D19*
X145940000Y-76020000D03*
D42*
X145940000Y-111720000D03*
X128160000Y-99020000D03*
X143400000Y-111720000D03*
X130700000Y-99020000D03*
X140860000Y-111720000D03*
X133240000Y-99020000D03*
X138320000Y-111720000D03*
X135780000Y-99020000D03*
X135780000Y-111720000D03*
X138320000Y-99020000D03*
X133240000Y-111720000D03*
X140860000Y-99020000D03*
X130700000Y-111720000D03*
X143400000Y-99020000D03*
X128160000Y-111720000D03*
D19*
X145940000Y-99020000D03*
D42*
X124940000Y-88720000D03*
X107160000Y-76020000D03*
X122400000Y-88720000D03*
X109700000Y-76020000D03*
X119860000Y-88720000D03*
X112240000Y-76020000D03*
X117320000Y-88720000D03*
X114780000Y-76020000D03*
X114780000Y-88720000D03*
X117320000Y-76020000D03*
X112240000Y-88720000D03*
X119860000Y-76020000D03*
X109700000Y-88720000D03*
X122400000Y-76020000D03*
X107160000Y-88720000D03*
D19*
X124940000Y-76020000D03*
D45*
X74020000Y-71030000D03*
X74020000Y-161030000D03*
X164020000Y-71030000D03*
X164020000Y-161030000D03*
M02*
