M48
; DRILL file {KiCad 5.1.9+dfsg1-1~bpo10+1} date Sun Mar 14 22:11:14 2021
; FORMAT={-:-/ absolute / inch / decimal}
; #@! TF.CreationDate,2021-03-14T22:11:14+00:00
; #@! TF.GenerationSoftware,Kicad,Pcbnew,5.1.9+dfsg1-1~bpo10+1
FMAT,2
INCH
T1C0.0079
T2C0.0118
T3C0.0157
T4C0.0236
T5C0.0315
T6C0.0362
T7C0.0374
T8C0.0394
T9C0.0512
T10C0.0906
T11C0.1260
T12C0.1654
T13C0.0236
%
G90
G05
T1
X3.7252Y-5.4421
X3.8256Y-5.6358
X3.8437Y-5.563
X3.8681Y-4.6382
X3.8685Y-4.6772
X3.8693Y-4.5988
X3.8701Y-4.5594
X4.1287Y-6.5161
X4.2512Y-6.3909
X4.2803Y-6.4449
X4.3193Y-6.3386
X4.3335Y-5.5945
X4.3339Y-5.5433
X4.335Y-5.8689
X4.3362Y-5.737
X4.3461Y-6.0268
X4.4047Y-5.3004
X4.4059Y-5.3776
X4.4066Y-5.4186
X4.4646Y-5.2213
X4.465Y-6.135
X4.4715Y-5.3285
X4.5394Y-5.222
X4.5823Y-5.9575
X4.6079Y-5.8744
X4.7213Y-5.9567
X4.8081Y-5.8992
X4.9547Y-5.9921
X5.0207Y-5.8925
X5.0335Y-5.9941
X5.062Y-5.9012
X5.1134Y-5.9193
X5.1142Y-5.9961
X5.1587Y-5.8791
X5.1707Y-5.9926
X5.181Y-5.3124
X5.1917Y-5.9819
X5.2191Y-5.2561
X5.3079Y-5.9417
X5.3571Y-5.3028
X5.3594Y-5.224
X5.7394Y-5.7878
X5.8937Y-5.5406
X5.8937Y-5.6795
X6.1362Y-5.6941
X6.1362Y-5.774
X6.1707Y-5.8366
X6.1841Y-5.8172
X6.21Y-5.8156
X6.2154Y-6.0823
X6.2161Y-5.7094
X6.2307Y-5.8338
X6.2437Y-6.113
X6.2571Y-6.1343
X6.2646Y-5.8799
X6.2669Y-6.3024
X6.3Y-5.7083
X6.3043Y-6.1693
X6.4187Y-5.3904
X6.4201Y-5.4307
T2
X3.0242Y-3.7931
X3.0242Y-3.8364
X3.0242Y-3.8876
X3.0242Y-3.9348
X3.0715Y-3.7931
X3.0715Y-3.8364
X3.0715Y-3.8876
X3.0715Y-3.9348
T3
X2.8864Y-3.7872
X2.889Y-3.8398
X3.0042Y-4.1021
X3.0102Y-4.9528
X3.0321Y-4.0667
X3.1016Y-6.3142
X3.135Y-6.2654
X3.1437Y-6.4626
X3.2594Y-2.9969
X3.2854Y-4.8551
X3.3018Y-3.9565
X3.3291Y-3.8
X3.4323Y-4.889
X3.4358Y-4.5098
X3.4366Y-4.6941
X3.487Y-6.4118
X3.5134Y-4.726
X3.5734Y-4.9659
X3.5783Y-6.3154
X3.6106Y-6.2673
X3.6177Y-6.4669
X3.6811Y-4.8039
X3.7268Y-4.8047
X3.7417Y-5.0087
X3.8807Y-6.4606
X3.9558Y-6.4103
X6.511Y-5.1504
T5
X3.3921Y-2.9929
X3.3921Y-3.4929
X3.3921Y-3.8984
X3.3921Y-4.3984
X3.4921Y-2.9929
X3.4921Y-3.4929
X3.4921Y-3.8984
X3.4921Y-4.3984
X3.5921Y-2.9929
X3.5921Y-3.4929
X3.5921Y-3.8984
X3.5921Y-4.3984
X3.6921Y-2.9929
X3.6921Y-3.4929
X3.6921Y-3.8984
X3.6921Y-4.3984
X3.7921Y-2.9929
X3.7921Y-3.4929
X3.7921Y-3.8984
X3.7921Y-4.3984
X3.8921Y-2.9929
X3.8921Y-3.4929
X3.8921Y-3.8984
X3.8921Y-4.3984
X3.9921Y-2.9929
X3.9921Y-3.4929
X3.9921Y-3.8984
X3.9921Y-4.3984
X4.0921Y-2.9929
X4.0921Y-3.4929
X4.0921Y-3.8984
X4.0921Y-4.3984
X4.2189Y-2.9929
X4.2189Y-3.4929
X4.2189Y-3.8984
X4.2189Y-4.3984
X4.3189Y-2.9929
X4.3189Y-3.4929
X4.3189Y-3.8984
X4.3189Y-4.3984
X4.4189Y-2.9929
X4.4189Y-3.4929
X4.4189Y-3.8984
X4.4189Y-4.3984
X4.5189Y-2.9929
X4.5189Y-3.4929
X4.5189Y-3.8984
X4.5189Y-4.3984
X4.6189Y-2.9929
X4.6189Y-3.4929
X4.6189Y-3.8984
X4.6189Y-4.3984
X4.7189Y-2.9929
X4.7189Y-3.4929
X4.7189Y-3.8984
X4.7189Y-4.3984
X4.8189Y-2.9929
X4.8189Y-3.4929
X4.8189Y-3.8984
X4.8189Y-4.3984
X4.9189Y-2.9929
X4.9189Y-3.4929
X4.9189Y-3.8984
X4.9189Y-4.3984
X5.0457Y-2.9929
X5.0457Y-3.4929
X5.0457Y-3.8984
X5.0457Y-4.3984
X5.1457Y-2.9929
X5.1457Y-3.4929
X5.1457Y-3.8984
X5.1457Y-4.3984
X5.2457Y-2.9929
X5.2457Y-3.4929
X5.2457Y-3.8984
X5.2457Y-4.3984
X5.3457Y-2.9929
X5.3457Y-3.4929
X5.3457Y-3.8984
X5.3457Y-4.3984
X5.4457Y-2.9929
X5.4457Y-3.4929
X5.4457Y-3.8984
X5.4457Y-4.3984
X5.5457Y-2.9929
X5.5457Y-3.4929
X5.5457Y-3.8984
X5.5457Y-4.3984
X5.6457Y-2.9929
X5.6457Y-3.4929
X5.6457Y-3.8984
X5.6457Y-4.3984
X5.7457Y-2.9929
X5.7457Y-3.4929
X5.7457Y-3.8984
X5.7457Y-4.3984
X5.8724Y-2.9929
X5.8724Y-3.4929
X5.8724Y-3.8984
X5.8724Y-4.3984
X5.9724Y-2.9929
X5.9724Y-3.4929
X5.9724Y-3.8984
X5.9724Y-4.3984
X6.0724Y-2.9929
X6.0724Y-3.4929
X6.0724Y-3.8984
X6.0724Y-4.3984
X6.1724Y-2.9929
X6.1724Y-3.4929
X6.1724Y-3.8984
X6.1724Y-4.3984
X6.2724Y-2.9929
X6.2724Y-3.4929
X6.2724Y-3.8984
X6.2724Y-4.3984
X6.3724Y-2.9929
X6.3724Y-3.4929
X6.3724Y-3.8984
X6.3724Y-4.3984
X6.4724Y-2.9929
X6.4724Y-3.4929
X6.4724Y-3.8984
X6.4724Y-4.3984
X6.5724Y-2.9929
X6.5724Y-3.4929
X6.5724Y-3.8984
X6.5724Y-4.3984
T6
X5.1882Y-6.3417
X5.2866Y-6.3417
X5.3654Y-6.3417
X5.4638Y-6.3417
X5.874Y-6.3425
X5.9724Y-6.3425
X6.0512Y-6.3425
X6.1496Y-6.3425
X6.4657Y-5.7866
X6.4657Y-5.885
X6.4657Y-5.9638
X6.4657Y-6.0622
T7
X3.2014Y-2.7616
X3.2998Y-2.7616
X3.3982Y-2.7616
X3.4967Y-2.7616
X3.5961Y-3.7173
X3.6945Y-3.7173
X3.7929Y-3.7173
X3.8726Y-2.7616
X3.8913Y-3.7173
X3.9711Y-2.7616
X4.0695Y-2.7616
X4.1679Y-2.7616
X4.1909Y-4.578
X4.2894Y-4.578
X4.3878Y-4.578
X4.4209Y-3.7154
X4.4238Y-2.7616
X4.5193Y-3.7154
X4.5222Y-2.7616
X4.6177Y-3.7154
X4.6207Y-2.7616
X4.6209Y-4.578
X4.7161Y-3.7154
X4.7191Y-2.7616
X4.7193Y-4.578
X4.8177Y-4.578
X5.0508Y-4.578
X5.1138Y-2.7626
X5.1492Y-4.578
X5.2122Y-2.7626
X5.2476Y-3.7173
X5.2476Y-4.578
X5.3106Y-2.7626
X5.3461Y-3.7173
X5.3839Y-5.5118
X5.3839Y-5.785
X5.4091Y-2.7626
X5.4445Y-3.7173
X5.476Y-4.8988
X5.4803Y-4.5768
X5.4823Y-5.5118
X5.4823Y-5.785
X5.5429Y-3.7173
X5.5744Y-4.8988
X5.5787Y-4.5768
X5.5807Y-5.5118
X5.5807Y-5.785
X5.6728Y-4.8988
X5.6772Y-4.5768
X5.7752Y-2.7665
X5.8736Y-2.7665
X5.9067Y-4.8988
X5.9102Y-4.5772
X5.972Y-2.7665
X6.0051Y-4.8988
X6.0087Y-4.5772
X6.0705Y-2.7665
X6.0744Y-3.7173
X6.1035Y-4.8988
X6.1071Y-4.5772
X6.1728Y-3.7173
X6.2713Y-3.7173
X6.3374Y-4.8988
X6.3406Y-4.5772
X6.3697Y-3.7173
X6.4358Y-4.8988
X6.439Y-4.5772
X6.5343Y-4.8988
X6.5374Y-4.5772
T8
X2.835Y-5.0969
X2.835Y-5.4118
X2.835Y-5.7268
X2.835Y-6.0417
X2.9335Y-5.0969
X2.9335Y-5.4118
X2.9335Y-5.7268
X2.9335Y-6.0417
X3.2508Y-5.0969
X3.2508Y-5.4114
X3.2528Y-5.7268
X3.2528Y-6.0421
X3.3492Y-5.0969
X3.3492Y-5.4114
X3.3512Y-5.7268
X3.3512Y-6.0421
X3.7535Y-4.0161
X3.7535Y-4.1161
X3.7535Y-4.2161
X3.7575Y-3.1146
X3.7575Y-3.2146
X3.7575Y-3.3146
X3.8638Y-4.0161
X3.8638Y-4.1161
X3.8638Y-4.2161
X3.8677Y-3.1146
X3.8677Y-3.2146
X3.8677Y-3.3146
X3.9563Y-5.7472
X3.9563Y-5.8583
X3.974Y-4.0161
X3.974Y-4.1161
X3.974Y-4.2161
X3.978Y-3.1146
X3.978Y-3.2146
X3.978Y-3.3146
X4.0563Y-5.7472
X4.0563Y-5.8583
X4.0827Y-4.0161
X4.0827Y-4.1161
X4.0827Y-4.2161
X4.0866Y-3.1146
X4.0866Y-3.2146
X4.0866Y-3.3146
X4.0866Y-5.2803
X4.0866Y-5.5795
X4.1563Y-5.7472
X4.1563Y-5.8583
X4.2378Y-4.9378
X4.2378Y-5.0378
X4.3378Y-4.9378
X4.3378Y-5.0378
X4.4378Y-4.9378
X4.4378Y-5.0378
X4.5378Y-4.9378
X4.5378Y-5.0378
X4.5843Y-4.0201
X4.5843Y-4.1201
X4.5843Y-4.2201
X4.5882Y-3.1146
X4.5882Y-3.2146
X4.5882Y-3.3146
X4.6205Y-6.1106
X4.6205Y-6.3776
X4.6378Y-4.9378
X4.6378Y-5.0378
X4.6945Y-4.0201
X4.6945Y-4.1201
X4.6945Y-4.2201
X4.6984Y-3.1146
X4.6984Y-3.2146
X4.6984Y-3.3146
X4.7189Y-6.1106
X4.7189Y-6.3776
X4.7378Y-4.9378
X4.7378Y-5.0378
X4.8047Y-4.0201
X4.8047Y-4.1201
X4.8047Y-4.2201
X4.8087Y-3.1146
X4.8087Y-3.2146
X4.8087Y-3.3146
X4.8378Y-4.9378
X4.8378Y-5.0378
X4.9134Y-4.0201
X4.9134Y-4.1201
X4.9134Y-4.2201
X4.9173Y-3.1146
X4.9173Y-3.2146
X4.9173Y-3.3146
X4.9378Y-4.9378
X4.9378Y-5.0378
X5.0378Y-4.9378
X5.0378Y-5.0378
X5.1378Y-4.9378
X5.1378Y-5.0378
X5.411Y-4.0201
X5.411Y-4.1201
X5.411Y-4.2201
X5.415Y-3.1146
X5.415Y-3.2146
X5.415Y-3.3146
X5.5213Y-4.0201
X5.5213Y-4.1201
X5.5213Y-4.2201
X5.5252Y-3.1146
X5.5252Y-3.2146
X5.5252Y-3.3146
X5.6315Y-4.0201
X5.6315Y-4.1201
X5.6315Y-4.2201
X5.6354Y-3.1146
X5.6354Y-3.2146
X5.6354Y-3.3146
X5.7402Y-4.0201
X5.7402Y-4.1201
X5.7402Y-4.2201
X5.7441Y-3.1146
X5.7441Y-3.2146
X5.7441Y-3.3146
X5.9197Y-5.2512
X5.9197Y-5.3512
X6.0197Y-5.2512
X6.0197Y-5.3512
X6.1197Y-5.2512
X6.1197Y-5.3512
X6.2378Y-3.1146
X6.2378Y-3.2146
X6.2378Y-3.3146
X6.2378Y-4.0201
X6.2378Y-4.1201
X6.2378Y-4.2201
X6.348Y-3.1146
X6.348Y-3.2146
X6.348Y-3.3146
X6.348Y-4.0201
X6.348Y-4.1201
X6.348Y-4.2201
X6.4583Y-3.1146
X6.4583Y-3.2146
X6.4583Y-3.3146
X6.4583Y-4.0201
X6.4583Y-4.1201
X6.4583Y-4.2201
X6.5669Y-3.1146
X6.5669Y-3.2146
X6.5669Y-3.3146
X6.5669Y-4.0201
X6.5669Y-4.1201
X6.5669Y-4.2201
T9
X2.913Y-3.048
X2.913Y-3.2449
T10
X5.0673Y-6.4484
X5.5846Y-6.4484
X5.7531Y-6.4492
X6.2705Y-6.4492
X6.5724Y-5.6657
X6.5724Y-6.1831
T11
X2.9142Y-2.7965
X2.9142Y-6.3398
X6.4575Y-2.7965
X6.4575Y-6.3398
T12
X3.2799Y-6.3634
X3.7594Y-6.365
T13
X2.9435Y-4.4293
X2.9435Y-4.6569
X6.4252Y-5.2874
X6.4252Y-5.515
T4
G00X2.7825Y-4.373
M15
G01X2.814Y-4.373
M16
G05
G00X2.7825Y-4.7132
M15
G01X2.814Y-4.7132
M16
G05
G00X2.9407Y-4.373
M15
G01X2.9841Y-4.373
M16
G05
G00X2.9407Y-4.7132
M15
G01X2.9841Y-4.7132
M16
G05
G00X6.428Y-5.2311
M15
G01X6.3846Y-5.2311
M16
G05
G00X6.428Y-5.5713
M15
G01X6.3846Y-5.5713
M16
G05
G00X6.5862Y-5.2311
M15
G01X6.5547Y-5.2311
M16
G05
G00X6.5862Y-5.5713
M15
G01X6.5547Y-5.5713
M16
G05
T0
M30
