G04 #@! TF.GenerationSoftware,KiCad,Pcbnew,5.1.9+dfsg1-1~bpo10+1*
G04 #@! TF.CreationDate,2021-03-15T13:02:26+00:00*
G04 #@! TF.ProjectId,mobo,6d6f626f-2e6b-4696-9361-645f70636258,rev?*
G04 #@! TF.SameCoordinates,Original*
G04 #@! TF.FileFunction,Copper,L4,Bot*
G04 #@! TF.FilePolarity,Positive*
%FSLAX46Y46*%
G04 Gerber Fmt 4.6, Leading zero omitted, Abs format (unit mm)*
G04 Created by KiCad (PCBNEW 5.1.9+dfsg1-1~bpo10+1) date 2021-03-15 13:02:26*
%MOMM*%
%LPD*%
G01*
G04 APERTURE LIST*
G04 #@! TA.AperFunction,EtchedComponent*
%ADD10C,0.100000*%
G04 #@! TD*
G04 #@! TA.AperFunction,ComponentPad*
%ADD11O,1.700000X1.950000*%
G04 #@! TD*
G04 #@! TA.AperFunction,SMDPad,CuDef*
%ADD12C,0.100000*%
G04 #@! TD*
G04 #@! TA.AperFunction,ComponentPad*
%ADD13C,1.600000*%
G04 #@! TD*
G04 #@! TA.AperFunction,ComponentPad*
%ADD14R,1.600000X1.600000*%
G04 #@! TD*
G04 #@! TA.AperFunction,ComponentPad*
%ADD15C,3.000000*%
G04 #@! TD*
G04 #@! TA.AperFunction,ComponentPad*
%ADD16O,1.700000X2.000000*%
G04 #@! TD*
G04 #@! TA.AperFunction,ComponentPad*
%ADD17O,1.700000X1.700000*%
G04 #@! TD*
G04 #@! TA.AperFunction,ComponentPad*
%ADD18R,1.700000X1.700000*%
G04 #@! TD*
G04 #@! TA.AperFunction,ComponentPad*
%ADD19C,2.000000*%
G04 #@! TD*
G04 #@! TA.AperFunction,ComponentPad*
%ADD20R,2.000000X2.000000*%
G04 #@! TD*
G04 #@! TA.AperFunction,ComponentPad*
%ADD21C,1.700000*%
G04 #@! TD*
G04 #@! TA.AperFunction,ComponentPad*
%ADD22C,4.200000*%
G04 #@! TD*
G04 #@! TA.AperFunction,SMDPad,CuDef*
%ADD23R,2.300000X0.600000*%
G04 #@! TD*
G04 #@! TA.AperFunction,ComponentPad*
%ADD24O,1.700000X0.900000*%
G04 #@! TD*
G04 #@! TA.AperFunction,ComponentPad*
%ADD25O,2.000000X0.900000*%
G04 #@! TD*
G04 #@! TA.AperFunction,ComponentPad*
%ADD26C,0.600000*%
G04 #@! TD*
G04 #@! TA.AperFunction,SMDPad,CuDef*
%ADD27R,2.950000X4.500000*%
G04 #@! TD*
G04 #@! TA.AperFunction,ComponentPad*
%ADD28O,1.600000X1.600000*%
G04 #@! TD*
G04 #@! TA.AperFunction,ComponentPad*
%ADD29R,2.600000X2.600000*%
G04 #@! TD*
G04 #@! TA.AperFunction,ComponentPad*
%ADD30C,2.600000*%
G04 #@! TD*
G04 #@! TA.AperFunction,ComponentPad*
%ADD31C,5.600000*%
G04 #@! TD*
G04 #@! TA.AperFunction,ViaPad*
%ADD32C,0.800000*%
G04 #@! TD*
G04 #@! TA.AperFunction,ViaPad*
%ADD33C,0.400000*%
G04 #@! TD*
G04 #@! TA.AperFunction,Conductor*
%ADD34C,1.000000*%
G04 #@! TD*
G04 #@! TA.AperFunction,Conductor*
%ADD35C,2.000000*%
G04 #@! TD*
G04 #@! TA.AperFunction,Conductor*
%ADD36C,3.000000*%
G04 #@! TD*
G04 #@! TA.AperFunction,Conductor*
%ADD37C,0.250000*%
G04 #@! TD*
G04 #@! TA.AperFunction,Conductor*
%ADD38C,0.500000*%
G04 #@! TD*
G04 APERTURE END LIST*
D10*
G36*
X155920000Y-151970000D02*
G01*
X155920000Y-151470000D01*
X156520000Y-151470000D01*
X156520000Y-151970000D01*
X155920000Y-151970000D01*
G37*
G36*
X87510000Y-121770000D02*
G01*
X87510000Y-122270000D01*
X86910000Y-122270000D01*
X86910000Y-121770000D01*
X87510000Y-121770000D01*
G37*
G36*
X107420000Y-154130000D02*
G01*
X107420000Y-154630000D01*
X106820000Y-154630000D01*
X106820000Y-154130000D01*
X107420000Y-154130000D01*
G37*
G36*
X104860000Y-154140000D02*
G01*
X104860000Y-154640000D01*
X104260000Y-154640000D01*
X104260000Y-154140000D01*
X104860000Y-154140000D01*
G37*
D11*
X122370000Y-116280000D03*
X119870000Y-116280000D03*
G04 #@! TA.AperFunction,ComponentPad*
G36*
G01*
X116520000Y-117005000D02*
X116520000Y-115555000D01*
G75*
G02*
X116770000Y-115305000I250000J0D01*
G01*
X117970000Y-115305000D01*
G75*
G02*
X118220000Y-115555000I0J-250000D01*
G01*
X118220000Y-117005000D01*
G75*
G02*
X117970000Y-117255000I-250000J0D01*
G01*
X116770000Y-117255000D01*
G75*
G02*
X116520000Y-117005000I0J250000D01*
G01*
G37*
G04 #@! TD.AperFunction*
G04 #@! TA.AperFunction,SMDPad,CuDef*
D12*
G36*
X155470000Y-151570000D02*
G01*
X155470000Y-151070000D01*
X155470602Y-151070000D01*
X155470602Y-151045466D01*
X155475412Y-150996635D01*
X155484984Y-150948510D01*
X155499228Y-150901555D01*
X155518005Y-150856222D01*
X155541136Y-150812949D01*
X155568396Y-150772150D01*
X155599524Y-150734221D01*
X155634221Y-150699524D01*
X155672150Y-150668396D01*
X155712949Y-150641136D01*
X155756222Y-150618005D01*
X155801555Y-150599228D01*
X155848510Y-150584984D01*
X155896635Y-150575412D01*
X155945466Y-150570602D01*
X155970000Y-150570602D01*
X155970000Y-150570000D01*
X156470000Y-150570000D01*
X156470000Y-150570602D01*
X156494534Y-150570602D01*
X156543365Y-150575412D01*
X156591490Y-150584984D01*
X156638445Y-150599228D01*
X156683778Y-150618005D01*
X156727051Y-150641136D01*
X156767850Y-150668396D01*
X156805779Y-150699524D01*
X156840476Y-150734221D01*
X156871604Y-150772150D01*
X156898864Y-150812949D01*
X156921995Y-150856222D01*
X156940772Y-150901555D01*
X156955016Y-150948510D01*
X156964588Y-150996635D01*
X156969398Y-151045466D01*
X156969398Y-151070000D01*
X156970000Y-151070000D01*
X156970000Y-151570000D01*
X155470000Y-151570000D01*
G37*
G04 #@! TD.AperFunction*
G04 #@! TA.AperFunction,SMDPad,CuDef*
G36*
X156969398Y-152370000D02*
G01*
X156969398Y-152394534D01*
X156964588Y-152443365D01*
X156955016Y-152491490D01*
X156940772Y-152538445D01*
X156921995Y-152583778D01*
X156898864Y-152627051D01*
X156871604Y-152667850D01*
X156840476Y-152705779D01*
X156805779Y-152740476D01*
X156767850Y-152771604D01*
X156727051Y-152798864D01*
X156683778Y-152821995D01*
X156638445Y-152840772D01*
X156591490Y-152855016D01*
X156543365Y-152864588D01*
X156494534Y-152869398D01*
X156470000Y-152869398D01*
X156470000Y-152870000D01*
X155970000Y-152870000D01*
X155970000Y-152869398D01*
X155945466Y-152869398D01*
X155896635Y-152864588D01*
X155848510Y-152855016D01*
X155801555Y-152840772D01*
X155756222Y-152821995D01*
X155712949Y-152798864D01*
X155672150Y-152771604D01*
X155634221Y-152740476D01*
X155599524Y-152705779D01*
X155568396Y-152667850D01*
X155541136Y-152627051D01*
X155518005Y-152583778D01*
X155499228Y-152538445D01*
X155484984Y-152491490D01*
X155475412Y-152443365D01*
X155470602Y-152394534D01*
X155470602Y-152370000D01*
X155470000Y-152370000D01*
X155470000Y-151870000D01*
X156970000Y-151870000D01*
X156970000Y-152370000D01*
X156969398Y-152370000D01*
G37*
G04 #@! TD.AperFunction*
G04 #@! TA.AperFunction,SMDPad,CuDef*
G36*
X87960000Y-122170000D02*
G01*
X87960000Y-122670000D01*
X87959398Y-122670000D01*
X87959398Y-122694534D01*
X87954588Y-122743365D01*
X87945016Y-122791490D01*
X87930772Y-122838445D01*
X87911995Y-122883778D01*
X87888864Y-122927051D01*
X87861604Y-122967850D01*
X87830476Y-123005779D01*
X87795779Y-123040476D01*
X87757850Y-123071604D01*
X87717051Y-123098864D01*
X87673778Y-123121995D01*
X87628445Y-123140772D01*
X87581490Y-123155016D01*
X87533365Y-123164588D01*
X87484534Y-123169398D01*
X87460000Y-123169398D01*
X87460000Y-123170000D01*
X86960000Y-123170000D01*
X86960000Y-123169398D01*
X86935466Y-123169398D01*
X86886635Y-123164588D01*
X86838510Y-123155016D01*
X86791555Y-123140772D01*
X86746222Y-123121995D01*
X86702949Y-123098864D01*
X86662150Y-123071604D01*
X86624221Y-123040476D01*
X86589524Y-123005779D01*
X86558396Y-122967850D01*
X86531136Y-122927051D01*
X86508005Y-122883778D01*
X86489228Y-122838445D01*
X86474984Y-122791490D01*
X86465412Y-122743365D01*
X86460602Y-122694534D01*
X86460602Y-122670000D01*
X86460000Y-122670000D01*
X86460000Y-122170000D01*
X87960000Y-122170000D01*
G37*
G04 #@! TD.AperFunction*
G04 #@! TA.AperFunction,SMDPad,CuDef*
G36*
X86460602Y-121370000D02*
G01*
X86460602Y-121345466D01*
X86465412Y-121296635D01*
X86474984Y-121248510D01*
X86489228Y-121201555D01*
X86508005Y-121156222D01*
X86531136Y-121112949D01*
X86558396Y-121072150D01*
X86589524Y-121034221D01*
X86624221Y-120999524D01*
X86662150Y-120968396D01*
X86702949Y-120941136D01*
X86746222Y-120918005D01*
X86791555Y-120899228D01*
X86838510Y-120884984D01*
X86886635Y-120875412D01*
X86935466Y-120870602D01*
X86960000Y-120870602D01*
X86960000Y-120870000D01*
X87460000Y-120870000D01*
X87460000Y-120870602D01*
X87484534Y-120870602D01*
X87533365Y-120875412D01*
X87581490Y-120884984D01*
X87628445Y-120899228D01*
X87673778Y-120918005D01*
X87717051Y-120941136D01*
X87757850Y-120968396D01*
X87795779Y-120999524D01*
X87830476Y-121034221D01*
X87861604Y-121072150D01*
X87888864Y-121112949D01*
X87911995Y-121156222D01*
X87930772Y-121201555D01*
X87945016Y-121248510D01*
X87954588Y-121296635D01*
X87959398Y-121345466D01*
X87959398Y-121370000D01*
X87960000Y-121370000D01*
X87960000Y-121870000D01*
X86460000Y-121870000D01*
X86460000Y-121370000D01*
X86460602Y-121370000D01*
G37*
G04 #@! TD.AperFunction*
D13*
X164230000Y-146980000D03*
X164230000Y-149480000D03*
X164230000Y-151480000D03*
D14*
X164230000Y-153980000D03*
D15*
X166940000Y-157050000D03*
X166940000Y-143910000D03*
D16*
X119860000Y-155210000D03*
G04 #@! TA.AperFunction,ComponentPad*
G36*
G01*
X116510000Y-155960000D02*
X116510000Y-154460000D01*
G75*
G02*
X116760000Y-154210000I250000J0D01*
G01*
X117960000Y-154210000D01*
G75*
G02*
X118210000Y-154460000I0J-250000D01*
G01*
X118210000Y-155960000D01*
G75*
G02*
X117960000Y-156210000I-250000J0D01*
G01*
X116760000Y-156210000D01*
G75*
G02*
X116510000Y-155960000I0J250000D01*
G01*
G37*
G04 #@! TD.AperFunction*
X119860000Y-161990000D03*
G04 #@! TA.AperFunction,ComponentPad*
G36*
G01*
X116510000Y-162740000D02*
X116510000Y-161240000D01*
G75*
G02*
X116760000Y-160990000I250000J0D01*
G01*
X117960000Y-160990000D01*
G75*
G02*
X118210000Y-161240000I0J-250000D01*
G01*
X118210000Y-162740000D01*
G75*
G02*
X117960000Y-162990000I-250000J0D01*
G01*
X116760000Y-162990000D01*
G75*
G02*
X116510000Y-162740000I0J250000D01*
G01*
G37*
G04 #@! TD.AperFunction*
G04 #@! TA.AperFunction,SMDPad,CuDef*
D12*
G36*
X107870000Y-154530000D02*
G01*
X107870000Y-155030000D01*
X107869398Y-155030000D01*
X107869398Y-155054534D01*
X107864588Y-155103365D01*
X107855016Y-155151490D01*
X107840772Y-155198445D01*
X107821995Y-155243778D01*
X107798864Y-155287051D01*
X107771604Y-155327850D01*
X107740476Y-155365779D01*
X107705779Y-155400476D01*
X107667850Y-155431604D01*
X107627051Y-155458864D01*
X107583778Y-155481995D01*
X107538445Y-155500772D01*
X107491490Y-155515016D01*
X107443365Y-155524588D01*
X107394534Y-155529398D01*
X107370000Y-155529398D01*
X107370000Y-155530000D01*
X106870000Y-155530000D01*
X106870000Y-155529398D01*
X106845466Y-155529398D01*
X106796635Y-155524588D01*
X106748510Y-155515016D01*
X106701555Y-155500772D01*
X106656222Y-155481995D01*
X106612949Y-155458864D01*
X106572150Y-155431604D01*
X106534221Y-155400476D01*
X106499524Y-155365779D01*
X106468396Y-155327850D01*
X106441136Y-155287051D01*
X106418005Y-155243778D01*
X106399228Y-155198445D01*
X106384984Y-155151490D01*
X106375412Y-155103365D01*
X106370602Y-155054534D01*
X106370602Y-155030000D01*
X106370000Y-155030000D01*
X106370000Y-154530000D01*
X107870000Y-154530000D01*
G37*
G04 #@! TD.AperFunction*
G04 #@! TA.AperFunction,SMDPad,CuDef*
G36*
X106370602Y-153730000D02*
G01*
X106370602Y-153705466D01*
X106375412Y-153656635D01*
X106384984Y-153608510D01*
X106399228Y-153561555D01*
X106418005Y-153516222D01*
X106441136Y-153472949D01*
X106468396Y-153432150D01*
X106499524Y-153394221D01*
X106534221Y-153359524D01*
X106572150Y-153328396D01*
X106612949Y-153301136D01*
X106656222Y-153278005D01*
X106701555Y-153259228D01*
X106748510Y-153244984D01*
X106796635Y-153235412D01*
X106845466Y-153230602D01*
X106870000Y-153230602D01*
X106870000Y-153230000D01*
X107370000Y-153230000D01*
X107370000Y-153230602D01*
X107394534Y-153230602D01*
X107443365Y-153235412D01*
X107491490Y-153244984D01*
X107538445Y-153259228D01*
X107583778Y-153278005D01*
X107627051Y-153301136D01*
X107667850Y-153328396D01*
X107705779Y-153359524D01*
X107740476Y-153394221D01*
X107771604Y-153432150D01*
X107798864Y-153472949D01*
X107821995Y-153516222D01*
X107840772Y-153561555D01*
X107855016Y-153608510D01*
X107864588Y-153656635D01*
X107869398Y-153705466D01*
X107869398Y-153730000D01*
X107870000Y-153730000D01*
X107870000Y-154230000D01*
X106370000Y-154230000D01*
X106370000Y-153730000D01*
X106370602Y-153730000D01*
G37*
G04 #@! TD.AperFunction*
G04 #@! TA.AperFunction,SMDPad,CuDef*
G36*
X105310000Y-154540000D02*
G01*
X105310000Y-155040000D01*
X105309398Y-155040000D01*
X105309398Y-155064534D01*
X105304588Y-155113365D01*
X105295016Y-155161490D01*
X105280772Y-155208445D01*
X105261995Y-155253778D01*
X105238864Y-155297051D01*
X105211604Y-155337850D01*
X105180476Y-155375779D01*
X105145779Y-155410476D01*
X105107850Y-155441604D01*
X105067051Y-155468864D01*
X105023778Y-155491995D01*
X104978445Y-155510772D01*
X104931490Y-155525016D01*
X104883365Y-155534588D01*
X104834534Y-155539398D01*
X104810000Y-155539398D01*
X104810000Y-155540000D01*
X104310000Y-155540000D01*
X104310000Y-155539398D01*
X104285466Y-155539398D01*
X104236635Y-155534588D01*
X104188510Y-155525016D01*
X104141555Y-155510772D01*
X104096222Y-155491995D01*
X104052949Y-155468864D01*
X104012150Y-155441604D01*
X103974221Y-155410476D01*
X103939524Y-155375779D01*
X103908396Y-155337850D01*
X103881136Y-155297051D01*
X103858005Y-155253778D01*
X103839228Y-155208445D01*
X103824984Y-155161490D01*
X103815412Y-155113365D01*
X103810602Y-155064534D01*
X103810602Y-155040000D01*
X103810000Y-155040000D01*
X103810000Y-154540000D01*
X105310000Y-154540000D01*
G37*
G04 #@! TD.AperFunction*
G04 #@! TA.AperFunction,SMDPad,CuDef*
G36*
X103810602Y-153740000D02*
G01*
X103810602Y-153715466D01*
X103815412Y-153666635D01*
X103824984Y-153618510D01*
X103839228Y-153571555D01*
X103858005Y-153526222D01*
X103881136Y-153482949D01*
X103908396Y-153442150D01*
X103939524Y-153404221D01*
X103974221Y-153369524D01*
X104012150Y-153338396D01*
X104052949Y-153311136D01*
X104096222Y-153288005D01*
X104141555Y-153269228D01*
X104188510Y-153254984D01*
X104236635Y-153245412D01*
X104285466Y-153240602D01*
X104310000Y-153240602D01*
X104310000Y-153240000D01*
X104810000Y-153240000D01*
X104810000Y-153240602D01*
X104834534Y-153240602D01*
X104883365Y-153245412D01*
X104931490Y-153254984D01*
X104978445Y-153269228D01*
X105023778Y-153288005D01*
X105067051Y-153311136D01*
X105107850Y-153338396D01*
X105145779Y-153369524D01*
X105180476Y-153404221D01*
X105211604Y-153442150D01*
X105238864Y-153482949D01*
X105261995Y-153526222D01*
X105280772Y-153571555D01*
X105295016Y-153618510D01*
X105304588Y-153666635D01*
X105309398Y-153715466D01*
X105309398Y-153740000D01*
X105310000Y-153740000D01*
X105310000Y-154240000D01*
X103810000Y-154240000D01*
X103810000Y-153740000D01*
X103810602Y-153740000D01*
G37*
G04 #@! TD.AperFunction*
D11*
X141750000Y-140000000D03*
X139250000Y-140000000D03*
G04 #@! TA.AperFunction,ComponentPad*
G36*
G01*
X135900000Y-140725000D02*
X135900000Y-139275000D01*
G75*
G02*
X136150000Y-139025000I250000J0D01*
G01*
X137350000Y-139025000D01*
G75*
G02*
X137600000Y-139275000I0J-250000D01*
G01*
X137600000Y-140725000D01*
G75*
G02*
X137350000Y-140975000I-250000J0D01*
G01*
X136150000Y-140975000D01*
G75*
G02*
X135900000Y-140725000I0J250000D01*
G01*
G37*
G04 #@! TD.AperFunction*
X141750000Y-146940000D03*
X139250000Y-146940000D03*
G04 #@! TA.AperFunction,ComponentPad*
G36*
G01*
X135900000Y-147665000D02*
X135900000Y-146215000D01*
G75*
G02*
X136150000Y-145965000I250000J0D01*
G01*
X137350000Y-145965000D01*
G75*
G02*
X137600000Y-146215000I0J-250000D01*
G01*
X137600000Y-147665000D01*
G75*
G02*
X137350000Y-147915000I-250000J0D01*
G01*
X136150000Y-147915000D01*
G75*
G02*
X135900000Y-147665000I0J250000D01*
G01*
G37*
G04 #@! TD.AperFunction*
D17*
X100490000Y-145980000D03*
X103030000Y-145980000D03*
D18*
X105570000Y-145980000D03*
D17*
X100490000Y-148800000D03*
X103030000Y-148800000D03*
D18*
X105570000Y-148800000D03*
D19*
X103800000Y-134120000D03*
D20*
X103800000Y-141720000D03*
D21*
X130500000Y-125420000D03*
X127960000Y-125420000D03*
X125420000Y-125420000D03*
X122880000Y-125420000D03*
X120340000Y-125420000D03*
X117800000Y-125420000D03*
X115260000Y-125420000D03*
X112720000Y-125420000D03*
X110180000Y-125420000D03*
X107640000Y-125420000D03*
X130500000Y-127960000D03*
X127960000Y-127960000D03*
X125420000Y-127960000D03*
X122880000Y-127960000D03*
X120340000Y-127960000D03*
X117800000Y-127960000D03*
X115260000Y-127960000D03*
X112720000Y-127960000D03*
X110180000Y-127960000D03*
G04 #@! TA.AperFunction,ComponentPad*
G36*
G01*
X108240000Y-128810000D02*
X107040000Y-128810000D01*
G75*
G02*
X106790000Y-128560000I0J250000D01*
G01*
X106790000Y-127360000D01*
G75*
G02*
X107040000Y-127110000I250000J0D01*
G01*
X108240000Y-127110000D01*
G75*
G02*
X108490000Y-127360000I0J-250000D01*
G01*
X108490000Y-128560000D01*
G75*
G02*
X108240000Y-128810000I-250000J0D01*
G01*
G37*
G04 #@! TD.AperFunction*
X155440000Y-133380000D03*
X152900000Y-133380000D03*
X150360000Y-133380000D03*
X155440000Y-135920000D03*
X152900000Y-135920000D03*
G04 #@! TA.AperFunction,ComponentPad*
G36*
G01*
X150960000Y-136770000D02*
X149760000Y-136770000D01*
G75*
G02*
X149510000Y-136520000I0J250000D01*
G01*
X149510000Y-135320000D01*
G75*
G02*
X149760000Y-135070000I250000J0D01*
G01*
X150960000Y-135070000D01*
G75*
G02*
X151210000Y-135320000I0J-250000D01*
G01*
X151210000Y-136520000D01*
G75*
G02*
X150960000Y-136770000I-250000J0D01*
G01*
G37*
G04 #@! TD.AperFunction*
D11*
X111450000Y-116280000D03*
X108950000Y-116280000D03*
G04 #@! TA.AperFunction,ComponentPad*
G36*
G01*
X105600000Y-117005000D02*
X105600000Y-115555000D01*
G75*
G02*
X105850000Y-115305000I250000J0D01*
G01*
X107050000Y-115305000D01*
G75*
G02*
X107300000Y-115555000I0J-250000D01*
G01*
X107300000Y-117005000D01*
G75*
G02*
X107050000Y-117255000I-250000J0D01*
G01*
X105850000Y-117255000D01*
G75*
G02*
X105600000Y-117005000I0J250000D01*
G01*
G37*
G04 #@! TD.AperFunction*
X155030000Y-124430000D03*
X152530000Y-124430000D03*
G04 #@! TA.AperFunction,ComponentPad*
G36*
G01*
X149180000Y-125155000D02*
X149180000Y-123705000D01*
G75*
G02*
X149430000Y-123455000I250000J0D01*
G01*
X150630000Y-123455000D01*
G75*
G02*
X150880000Y-123705000I0J-250000D01*
G01*
X150880000Y-125155000D01*
G75*
G02*
X150630000Y-125405000I-250000J0D01*
G01*
X149430000Y-125405000D01*
G75*
G02*
X149180000Y-125155000I0J250000D01*
G01*
G37*
G04 #@! TD.AperFunction*
X165970000Y-124430000D03*
X163470000Y-124430000D03*
G04 #@! TA.AperFunction,ComponentPad*
G36*
G01*
X160120000Y-125155000D02*
X160120000Y-123705000D01*
G75*
G02*
X160370000Y-123455000I250000J0D01*
G01*
X161570000Y-123455000D01*
G75*
G02*
X161820000Y-123705000I0J-250000D01*
G01*
X161820000Y-125155000D01*
G75*
G02*
X161570000Y-125405000I-250000J0D01*
G01*
X160370000Y-125405000D01*
G75*
G02*
X160120000Y-125155000I0J250000D01*
G01*
G37*
G04 #@! TD.AperFunction*
X144090000Y-124430000D03*
X141590000Y-124430000D03*
G04 #@! TA.AperFunction,ComponentPad*
G36*
G01*
X138240000Y-125155000D02*
X138240000Y-123705000D01*
G75*
G02*
X138490000Y-123455000I250000J0D01*
G01*
X139690000Y-123455000D01*
G75*
G02*
X139940000Y-123705000I0J-250000D01*
G01*
X139940000Y-125155000D01*
G75*
G02*
X139690000Y-125405000I-250000J0D01*
G01*
X138490000Y-125405000D01*
G75*
G02*
X138240000Y-125155000I0J250000D01*
G01*
G37*
G04 #@! TD.AperFunction*
X166050000Y-116260000D03*
X163550000Y-116260000D03*
G04 #@! TA.AperFunction,ComponentPad*
G36*
G01*
X160200000Y-116985000D02*
X160200000Y-115535000D01*
G75*
G02*
X160450000Y-115285000I250000J0D01*
G01*
X161650000Y-115285000D01*
G75*
G02*
X161900000Y-115535000I0J-250000D01*
G01*
X161900000Y-116985000D01*
G75*
G02*
X161650000Y-117235000I-250000J0D01*
G01*
X160450000Y-117235000D01*
G75*
G02*
X160200000Y-116985000I0J250000D01*
G01*
G37*
G04 #@! TD.AperFunction*
X155120000Y-116260000D03*
X152620000Y-116260000D03*
G04 #@! TA.AperFunction,ComponentPad*
G36*
G01*
X149270000Y-116985000D02*
X149270000Y-115535000D01*
G75*
G02*
X149520000Y-115285000I250000J0D01*
G01*
X150720000Y-115285000D01*
G75*
G02*
X150970000Y-115535000I0J-250000D01*
G01*
X150970000Y-116985000D01*
G75*
G02*
X150720000Y-117235000I-250000J0D01*
G01*
X149520000Y-117235000D01*
G75*
G02*
X149270000Y-116985000I0J250000D01*
G01*
G37*
G04 #@! TD.AperFunction*
X144200000Y-116250000D03*
X141700000Y-116250000D03*
G04 #@! TA.AperFunction,ComponentPad*
G36*
G01*
X138350000Y-116975000D02*
X138350000Y-115525000D01*
G75*
G02*
X138600000Y-115275000I250000J0D01*
G01*
X139800000Y-115275000D01*
G75*
G02*
X140050000Y-115525000I0J-250000D01*
G01*
X140050000Y-116975000D01*
G75*
G02*
X139800000Y-117225000I-250000J0D01*
G01*
X138600000Y-117225000D01*
G75*
G02*
X138350000Y-116975000I0J250000D01*
G01*
G37*
G04 #@! TD.AperFunction*
X133290000Y-116280000D03*
X130790000Y-116280000D03*
G04 #@! TA.AperFunction,ComponentPad*
G36*
G01*
X127440000Y-117005000D02*
X127440000Y-115555000D01*
G75*
G02*
X127690000Y-115305000I250000J0D01*
G01*
X128890000Y-115305000D01*
G75*
G02*
X129140000Y-115555000I0J-250000D01*
G01*
X129140000Y-117005000D01*
G75*
G02*
X128890000Y-117255000I-250000J0D01*
G01*
X127690000Y-117255000D01*
G75*
G02*
X127440000Y-117005000I0J250000D01*
G01*
G37*
G04 #@! TD.AperFunction*
D13*
X156200000Y-161100000D03*
X153700000Y-161100000D03*
X151700000Y-161100000D03*
D14*
X149200000Y-161100000D03*
D15*
X146130000Y-163810000D03*
X159270000Y-163810000D03*
D13*
X138780000Y-161080000D03*
X136280000Y-161080000D03*
X134280000Y-161080000D03*
D14*
X131780000Y-161080000D03*
D15*
X128710000Y-163790000D03*
X141850000Y-163790000D03*
D16*
X85070000Y-137450000D03*
G04 #@! TA.AperFunction,ComponentPad*
G36*
G01*
X81720000Y-138200000D02*
X81720000Y-136700000D01*
G75*
G02*
X81970000Y-136450000I250000J0D01*
G01*
X83170000Y-136450000D01*
G75*
G02*
X83420000Y-136700000I0J-250000D01*
G01*
X83420000Y-138200000D01*
G75*
G02*
X83170000Y-138450000I-250000J0D01*
G01*
X81970000Y-138450000D01*
G75*
G02*
X81720000Y-138200000I0J250000D01*
G01*
G37*
G04 #@! TD.AperFunction*
D22*
X83310000Y-161630000D03*
D23*
X78865000Y-160360000D03*
X78865000Y-161630000D03*
X78865000Y-162900000D03*
X87755000Y-162900000D03*
X87755000Y-161630000D03*
X87755000Y-160360000D03*
D22*
X95490000Y-161670000D03*
D23*
X91045000Y-160400000D03*
X91045000Y-161670000D03*
X91045000Y-162940000D03*
X99935000Y-162940000D03*
X99935000Y-161670000D03*
X99935000Y-160400000D03*
D16*
X85120000Y-153470000D03*
G04 #@! TA.AperFunction,ComponentPad*
G36*
G01*
X81770000Y-154220000D02*
X81770000Y-152720000D01*
G75*
G02*
X82020000Y-152470000I250000J0D01*
G01*
X83220000Y-152470000D01*
G75*
G02*
X83470000Y-152720000I0J-250000D01*
G01*
X83470000Y-154220000D01*
G75*
G02*
X83220000Y-154470000I-250000J0D01*
G01*
X82020000Y-154470000D01*
G75*
G02*
X81770000Y-154220000I0J250000D01*
G01*
G37*
G04 #@! TD.AperFunction*
X85120000Y-145460000D03*
G04 #@! TA.AperFunction,ComponentPad*
G36*
G01*
X81770000Y-146210000D02*
X81770000Y-144710000D01*
G75*
G02*
X82020000Y-144460000I250000J0D01*
G01*
X83220000Y-144460000D01*
G75*
G02*
X83470000Y-144710000I0J-250000D01*
G01*
X83470000Y-146210000D01*
G75*
G02*
X83220000Y-146460000I-250000J0D01*
G01*
X82020000Y-146460000D01*
G75*
G02*
X81770000Y-146210000I0J250000D01*
G01*
G37*
G04 #@! TD.AperFunction*
X74510000Y-153460000D03*
G04 #@! TA.AperFunction,ComponentPad*
G36*
G01*
X71160000Y-154210000D02*
X71160000Y-152710000D01*
G75*
G02*
X71410000Y-152460000I250000J0D01*
G01*
X72610000Y-152460000D01*
G75*
G02*
X72860000Y-152710000I0J-250000D01*
G01*
X72860000Y-154210000D01*
G75*
G02*
X72610000Y-154460000I-250000J0D01*
G01*
X71410000Y-154460000D01*
G75*
G02*
X71160000Y-154210000I0J250000D01*
G01*
G37*
G04 #@! TD.AperFunction*
X74510000Y-145460000D03*
G04 #@! TA.AperFunction,ComponentPad*
G36*
G01*
X71160000Y-146210000D02*
X71160000Y-144710000D01*
G75*
G02*
X71410000Y-144460000I250000J0D01*
G01*
X72610000Y-144460000D01*
G75*
G02*
X72860000Y-144710000I0J-250000D01*
G01*
X72860000Y-146210000D01*
G75*
G02*
X72610000Y-146460000I-250000J0D01*
G01*
X71410000Y-146460000D01*
G75*
G02*
X71160000Y-146210000I0J250000D01*
G01*
G37*
G04 #@! TD.AperFunction*
X74510000Y-137460000D03*
G04 #@! TA.AperFunction,ComponentPad*
G36*
G01*
X71160000Y-138210000D02*
X71160000Y-136710000D01*
G75*
G02*
X71410000Y-136460000I250000J0D01*
G01*
X72610000Y-136460000D01*
G75*
G02*
X72860000Y-136710000I0J-250000D01*
G01*
X72860000Y-138210000D01*
G75*
G02*
X72610000Y-138460000I-250000J0D01*
G01*
X71410000Y-138460000D01*
G75*
G02*
X71160000Y-138210000I0J250000D01*
G01*
G37*
G04 #@! TD.AperFunction*
X85070000Y-129460000D03*
G04 #@! TA.AperFunction,ComponentPad*
G36*
G01*
X81720000Y-130210000D02*
X81720000Y-128710000D01*
G75*
G02*
X81970000Y-128460000I250000J0D01*
G01*
X83170000Y-128460000D01*
G75*
G02*
X83420000Y-128710000I0J-250000D01*
G01*
X83420000Y-130210000D01*
G75*
G02*
X83170000Y-130460000I-250000J0D01*
G01*
X81970000Y-130460000D01*
G75*
G02*
X81720000Y-130210000I0J250000D01*
G01*
G37*
G04 #@! TD.AperFunction*
X74510000Y-129460000D03*
G04 #@! TA.AperFunction,ComponentPad*
G36*
G01*
X71160000Y-130210000D02*
X71160000Y-128710000D01*
G75*
G02*
X71410000Y-128460000I250000J0D01*
G01*
X72610000Y-128460000D01*
G75*
G02*
X72860000Y-128710000I0J-250000D01*
G01*
X72860000Y-130210000D01*
G75*
G02*
X72610000Y-130460000I-250000J0D01*
G01*
X71410000Y-130460000D01*
G75*
G02*
X71160000Y-130210000I0J250000D01*
G01*
G37*
G04 #@! TD.AperFunction*
D24*
X166890000Y-132870000D03*
X166890000Y-141510000D03*
D25*
X162720000Y-132870000D03*
X162720000Y-141510000D03*
D24*
X71075000Y-119715000D03*
X71075000Y-111075000D03*
D25*
X75245000Y-119715000D03*
X75245000Y-111075000D03*
D26*
X76815000Y-96345000D03*
X76815000Y-97445000D03*
X78015000Y-97445000D03*
X78015000Y-96345000D03*
X76815000Y-99945000D03*
X76815000Y-98745000D03*
X78015000Y-98745000D03*
X78015000Y-99945000D03*
D27*
X77415000Y-98145000D03*
D28*
X103940000Y-111720000D03*
X86160000Y-99020000D03*
X101400000Y-111720000D03*
X88700000Y-99020000D03*
X98860000Y-111720000D03*
X91240000Y-99020000D03*
X96320000Y-111720000D03*
X93780000Y-99020000D03*
X93780000Y-111720000D03*
X96320000Y-99020000D03*
X91240000Y-111720000D03*
X98860000Y-99020000D03*
X88700000Y-111720000D03*
X101400000Y-99020000D03*
X86160000Y-111720000D03*
D14*
X103940000Y-99020000D03*
D11*
X112290000Y-94370000D03*
X114790000Y-94370000D03*
X117290000Y-94370000D03*
G04 #@! TA.AperFunction,ComponentPad*
G36*
G01*
X120640000Y-93645000D02*
X120640000Y-95095000D01*
G75*
G02*
X120390000Y-95345000I-250000J0D01*
G01*
X119190000Y-95345000D01*
G75*
G02*
X118940000Y-95095000I0J250000D01*
G01*
X118940000Y-93645000D01*
G75*
G02*
X119190000Y-93395000I250000J0D01*
G01*
X120390000Y-93395000D01*
G75*
G02*
X120640000Y-93645000I0J-250000D01*
G01*
G37*
G04 #@! TD.AperFunction*
X133290000Y-94420000D03*
X135790000Y-94420000D03*
X138290000Y-94420000D03*
G04 #@! TA.AperFunction,ComponentPad*
G36*
G01*
X141640000Y-93695000D02*
X141640000Y-95145000D01*
G75*
G02*
X141390000Y-95395000I-250000J0D01*
G01*
X140190000Y-95395000D01*
G75*
G02*
X139940000Y-95145000I0J250000D01*
G01*
X139940000Y-93695000D01*
G75*
G02*
X140190000Y-93445000I250000J0D01*
G01*
X141390000Y-93445000D01*
G75*
G02*
X141640000Y-93695000I0J-250000D01*
G01*
G37*
G04 #@! TD.AperFunction*
X91340000Y-94420000D03*
X93840000Y-94420000D03*
X96340000Y-94420000D03*
G04 #@! TA.AperFunction,ComponentPad*
G36*
G01*
X99690000Y-93695000D02*
X99690000Y-95145000D01*
G75*
G02*
X99440000Y-95395000I-250000J0D01*
G01*
X98240000Y-95395000D01*
G75*
G02*
X97990000Y-95145000I0J250000D01*
G01*
X97990000Y-93695000D01*
G75*
G02*
X98240000Y-93445000I250000J0D01*
G01*
X99440000Y-93445000D01*
G75*
G02*
X99690000Y-93695000I0J-250000D01*
G01*
G37*
G04 #@! TD.AperFunction*
D29*
X73990000Y-77420000D03*
D30*
X73990000Y-82420000D03*
D18*
X103700000Y-102010000D03*
D17*
X103700000Y-104550000D03*
X103700000Y-107090000D03*
D18*
X98140000Y-102010000D03*
D17*
X98140000Y-104550000D03*
X98140000Y-107090000D03*
D18*
X95340000Y-102010000D03*
D17*
X95340000Y-104550000D03*
X95340000Y-107090000D03*
D18*
X100940000Y-102010000D03*
D17*
X100940000Y-104550000D03*
X100940000Y-107090000D03*
D18*
X124800000Y-102110000D03*
D17*
X124800000Y-104650000D03*
X124800000Y-107190000D03*
D18*
X119240000Y-102110000D03*
D17*
X119240000Y-104650000D03*
X119240000Y-107190000D03*
D18*
X116440000Y-102110000D03*
D17*
X116440000Y-104650000D03*
X116440000Y-107190000D03*
D18*
X122040000Y-102110000D03*
D17*
X122040000Y-104650000D03*
X122040000Y-107190000D03*
D18*
X166800000Y-102110000D03*
D17*
X166800000Y-104650000D03*
X166800000Y-107190000D03*
D18*
X161240000Y-102110000D03*
D17*
X161240000Y-104650000D03*
X161240000Y-107190000D03*
D18*
X158440000Y-102110000D03*
D17*
X158440000Y-104650000D03*
X158440000Y-107190000D03*
D18*
X164040000Y-102110000D03*
D17*
X164040000Y-104650000D03*
X164040000Y-107190000D03*
D18*
X145800000Y-102110000D03*
D17*
X145800000Y-104650000D03*
X145800000Y-107190000D03*
D18*
X140240000Y-102110000D03*
D17*
X140240000Y-104650000D03*
X140240000Y-107190000D03*
D18*
X137440000Y-102110000D03*
D17*
X137440000Y-104650000D03*
X137440000Y-107190000D03*
D18*
X143040000Y-102110000D03*
D17*
X143040000Y-104650000D03*
X143040000Y-107190000D03*
D18*
X166800000Y-79110000D03*
D17*
X166800000Y-81650000D03*
X166800000Y-84190000D03*
D18*
X161240000Y-79110000D03*
D17*
X161240000Y-81650000D03*
X161240000Y-84190000D03*
D18*
X158440000Y-79110000D03*
D17*
X158440000Y-81650000D03*
X158440000Y-84190000D03*
D18*
X164040000Y-79110000D03*
D17*
X164040000Y-81650000D03*
X164040000Y-84190000D03*
D18*
X145900000Y-79110000D03*
D17*
X145900000Y-81650000D03*
X145900000Y-84190000D03*
D18*
X140340000Y-79110000D03*
D17*
X140340000Y-81650000D03*
X140340000Y-84190000D03*
D18*
X137540000Y-79110000D03*
D17*
X137540000Y-81650000D03*
X137540000Y-84190000D03*
D18*
X143140000Y-79110000D03*
D17*
X143140000Y-81650000D03*
X143140000Y-84190000D03*
D18*
X103800000Y-79110000D03*
D17*
X103800000Y-81650000D03*
X103800000Y-84190000D03*
D18*
X98240000Y-79110000D03*
D17*
X98240000Y-81650000D03*
X98240000Y-84190000D03*
D18*
X95440000Y-79110000D03*
D17*
X95440000Y-81650000D03*
X95440000Y-84190000D03*
D18*
X101040000Y-79110000D03*
D17*
X101040000Y-81650000D03*
X101040000Y-84190000D03*
D11*
X146690000Y-70270000D03*
X149190000Y-70270000D03*
X151690000Y-70270000D03*
G04 #@! TA.AperFunction,ComponentPad*
G36*
G01*
X155040000Y-69545000D02*
X155040000Y-70995000D01*
G75*
G02*
X154790000Y-71245000I-250000J0D01*
G01*
X153590000Y-71245000D01*
G75*
G02*
X153340000Y-70995000I0J250000D01*
G01*
X153340000Y-69545000D01*
G75*
G02*
X153590000Y-69295000I250000J0D01*
G01*
X154790000Y-69295000D01*
G75*
G02*
X155040000Y-69545000I0J-250000D01*
G01*
G37*
G04 #@! TD.AperFunction*
D17*
X124900000Y-84190000D03*
X124900000Y-81650000D03*
D18*
X124900000Y-79110000D03*
D17*
X119340000Y-84190000D03*
X119340000Y-81650000D03*
D18*
X119340000Y-79110000D03*
D17*
X122140000Y-84190000D03*
X122140000Y-81650000D03*
D18*
X122140000Y-79110000D03*
D17*
X116540000Y-84190000D03*
X116540000Y-81650000D03*
D18*
X116540000Y-79110000D03*
D11*
X154290000Y-94420000D03*
X156790000Y-94420000D03*
X159290000Y-94420000D03*
G04 #@! TA.AperFunction,ComponentPad*
G36*
G01*
X162640000Y-93695000D02*
X162640000Y-95145000D01*
G75*
G02*
X162390000Y-95395000I-250000J0D01*
G01*
X161190000Y-95395000D01*
G75*
G02*
X160940000Y-95145000I0J250000D01*
G01*
X160940000Y-93695000D01*
G75*
G02*
X161190000Y-93445000I250000J0D01*
G01*
X162390000Y-93445000D01*
G75*
G02*
X162640000Y-93695000I0J-250000D01*
G01*
G37*
G04 #@! TD.AperFunction*
X81315000Y-70145000D03*
X83815000Y-70145000D03*
X86315000Y-70145000D03*
G04 #@! TA.AperFunction,ComponentPad*
G36*
G01*
X89665000Y-69420000D02*
X89665000Y-70870000D01*
G75*
G02*
X89415000Y-71120000I-250000J0D01*
G01*
X88215000Y-71120000D01*
G75*
G02*
X87965000Y-70870000I0J250000D01*
G01*
X87965000Y-69420000D01*
G75*
G02*
X88215000Y-69170000I250000J0D01*
G01*
X89415000Y-69170000D01*
G75*
G02*
X89665000Y-69420000I0J-250000D01*
G01*
G37*
G04 #@! TD.AperFunction*
X129890000Y-70170000D03*
X132390000Y-70170000D03*
X134890000Y-70170000D03*
G04 #@! TA.AperFunction,ComponentPad*
G36*
G01*
X138240000Y-69445000D02*
X138240000Y-70895000D01*
G75*
G02*
X137990000Y-71145000I-250000J0D01*
G01*
X136790000Y-71145000D01*
G75*
G02*
X136540000Y-70895000I0J250000D01*
G01*
X136540000Y-69445000D01*
G75*
G02*
X136790000Y-69195000I250000J0D01*
G01*
X137990000Y-69195000D01*
G75*
G02*
X138240000Y-69445000I0J-250000D01*
G01*
G37*
G04 #@! TD.AperFunction*
X98365000Y-70145000D03*
X100865000Y-70145000D03*
X103365000Y-70145000D03*
G04 #@! TA.AperFunction,ComponentPad*
G36*
G01*
X106715000Y-69420000D02*
X106715000Y-70870000D01*
G75*
G02*
X106465000Y-71120000I-250000J0D01*
G01*
X105265000Y-71120000D01*
G75*
G02*
X105015000Y-70870000I0J250000D01*
G01*
X105015000Y-69420000D01*
G75*
G02*
X105265000Y-69170000I250000J0D01*
G01*
X106465000Y-69170000D01*
G75*
G02*
X106715000Y-69420000I0J-250000D01*
G01*
G37*
G04 #@! TD.AperFunction*
X112365000Y-70145000D03*
X114865000Y-70145000D03*
X117365000Y-70145000D03*
G04 #@! TA.AperFunction,ComponentPad*
G36*
G01*
X120715000Y-69420000D02*
X120715000Y-70870000D01*
G75*
G02*
X120465000Y-71120000I-250000J0D01*
G01*
X119265000Y-71120000D01*
G75*
G02*
X119015000Y-70870000I0J250000D01*
G01*
X119015000Y-69420000D01*
G75*
G02*
X119265000Y-69170000I250000J0D01*
G01*
X120465000Y-69170000D01*
G75*
G02*
X120715000Y-69420000I0J-250000D01*
G01*
G37*
G04 #@! TD.AperFunction*
D28*
X166940000Y-88720000D03*
X149160000Y-76020000D03*
X164400000Y-88720000D03*
X151700000Y-76020000D03*
X161860000Y-88720000D03*
X154240000Y-76020000D03*
X159320000Y-88720000D03*
X156780000Y-76020000D03*
X156780000Y-88720000D03*
X159320000Y-76020000D03*
X154240000Y-88720000D03*
X161860000Y-76020000D03*
X151700000Y-88720000D03*
X164400000Y-76020000D03*
X149160000Y-88720000D03*
D14*
X166940000Y-76020000D03*
D28*
X166940000Y-111720000D03*
X149160000Y-99020000D03*
X164400000Y-111720000D03*
X151700000Y-99020000D03*
X161860000Y-111720000D03*
X154240000Y-99020000D03*
X159320000Y-111720000D03*
X156780000Y-99020000D03*
X156780000Y-111720000D03*
X159320000Y-99020000D03*
X154240000Y-111720000D03*
X161860000Y-99020000D03*
X151700000Y-111720000D03*
X164400000Y-99020000D03*
X149160000Y-111720000D03*
D14*
X166940000Y-99020000D03*
D28*
X124940000Y-111720000D03*
X107160000Y-99020000D03*
X122400000Y-111720000D03*
X109700000Y-99020000D03*
X119860000Y-111720000D03*
X112240000Y-99020000D03*
X117320000Y-111720000D03*
X114780000Y-99020000D03*
X114780000Y-111720000D03*
X117320000Y-99020000D03*
X112240000Y-111720000D03*
X119860000Y-99020000D03*
X109700000Y-111720000D03*
X122400000Y-99020000D03*
X107160000Y-111720000D03*
D14*
X124940000Y-99020000D03*
D28*
X103940000Y-88720000D03*
X86160000Y-76020000D03*
X101400000Y-88720000D03*
X88700000Y-76020000D03*
X98860000Y-88720000D03*
X91240000Y-76020000D03*
X96320000Y-88720000D03*
X93780000Y-76020000D03*
X93780000Y-88720000D03*
X96320000Y-76020000D03*
X91240000Y-88720000D03*
X98860000Y-76020000D03*
X88700000Y-88720000D03*
X101400000Y-76020000D03*
X86160000Y-88720000D03*
D14*
X103940000Y-76020000D03*
D28*
X145940000Y-88720000D03*
X128160000Y-76020000D03*
X143400000Y-88720000D03*
X130700000Y-76020000D03*
X140860000Y-88720000D03*
X133240000Y-76020000D03*
X138320000Y-88720000D03*
X135780000Y-76020000D03*
X135780000Y-88720000D03*
X138320000Y-76020000D03*
X133240000Y-88720000D03*
X140860000Y-76020000D03*
X130700000Y-88720000D03*
X143400000Y-76020000D03*
X128160000Y-88720000D03*
D14*
X145940000Y-76020000D03*
D28*
X145940000Y-111720000D03*
X128160000Y-99020000D03*
X143400000Y-111720000D03*
X130700000Y-99020000D03*
X140860000Y-111720000D03*
X133240000Y-99020000D03*
X138320000Y-111720000D03*
X135780000Y-99020000D03*
X135780000Y-111720000D03*
X138320000Y-99020000D03*
X133240000Y-111720000D03*
X140860000Y-99020000D03*
X130700000Y-111720000D03*
X143400000Y-99020000D03*
X128160000Y-111720000D03*
D14*
X145940000Y-99020000D03*
D28*
X124940000Y-88720000D03*
X107160000Y-76020000D03*
X122400000Y-88720000D03*
X109700000Y-76020000D03*
X119860000Y-88720000D03*
X112240000Y-76020000D03*
X117320000Y-88720000D03*
X114780000Y-76020000D03*
X114780000Y-88720000D03*
X117320000Y-76020000D03*
X112240000Y-88720000D03*
X119860000Y-76020000D03*
X109700000Y-88720000D03*
X122400000Y-76020000D03*
X107160000Y-88720000D03*
D14*
X124940000Y-76020000D03*
D31*
X74020000Y-71030000D03*
X74020000Y-161030000D03*
X164020000Y-71030000D03*
X164020000Y-161030000D03*
D32*
X84560000Y-96520000D03*
X83865000Y-100495000D03*
X83450000Y-123320002D03*
X89240000Y-120040000D03*
X87270000Y-114550000D03*
X93500000Y-122020000D03*
X82790000Y-76120000D03*
D33*
X110140000Y-145720000D03*
X117040000Y-149210000D03*
X110080000Y-140800000D03*
X110070000Y-142100000D03*
X111910000Y-136590000D03*
X111928129Y-137632542D03*
X111880000Y-134630000D03*
X109710000Y-161000000D03*
X131598227Y-134935000D03*
X136130000Y-132690000D03*
X136070000Y-134690000D03*
X160130000Y-156700000D03*
X110110000Y-149070000D03*
X157076086Y-147756378D03*
X110390000Y-153080000D03*
X119920000Y-151300000D03*
X125850000Y-152200000D03*
X127850000Y-152250000D03*
X129900000Y-152300000D03*
X131030000Y-149330000D03*
X157890000Y-145020000D03*
X160020000Y-144990000D03*
X155860000Y-144630000D03*
X131335738Y-152213067D03*
X145780000Y-147010000D03*
X149700000Y-144260000D03*
X113400000Y-132620000D03*
X97170000Y-143150000D03*
X94620000Y-138230000D03*
X98300000Y-115810000D03*
X116390000Y-151320000D03*
X115300000Y-132640000D03*
X113575000Y-135345000D03*
X113410000Y-155830000D03*
X132565000Y-133505000D03*
X158590000Y-155270000D03*
X156735000Y-148250000D03*
X159120000Y-149350000D03*
X128575000Y-149890000D03*
X129880000Y-150350000D03*
X149700000Y-140730000D03*
X98280000Y-116810000D03*
D32*
X95040000Y-127220000D03*
X87290001Y-119230000D03*
X165380000Y-130820000D03*
X90765000Y-126135000D03*
D33*
X163070000Y-137940000D03*
X163035001Y-136915000D03*
D32*
X76460000Y-125800000D03*
X94660000Y-122040000D03*
D33*
X98250000Y-117810000D03*
X127525000Y-149670000D03*
X134820000Y-150920000D03*
X98260000Y-118800000D03*
X131870000Y-151940000D03*
X122125034Y-149839181D03*
D32*
X100477500Y-162821990D03*
X91710000Y-159190000D03*
X79630000Y-159140000D03*
X79850000Y-164150000D03*
D33*
X97630000Y-141300000D03*
X104870000Y-165510001D03*
X159180000Y-160080000D03*
X158930000Y-155810000D03*
D32*
X88570000Y-162860000D03*
D33*
X107980000Y-162330000D03*
D32*
X78780000Y-160380000D03*
X90890000Y-160410000D03*
X98570000Y-164100000D03*
D33*
X108720000Y-163700000D03*
D32*
X91890000Y-164260000D03*
D33*
X155860000Y-146660000D03*
X157870000Y-154490000D03*
D32*
X87180000Y-124180000D03*
X76307668Y-104194588D03*
X73315000Y-96195000D03*
D33*
X158259204Y-148177364D03*
X157734204Y-147715000D03*
D32*
X77015000Y-103295000D03*
X73380318Y-97529682D03*
D34*
X117320000Y-70190000D02*
X117365000Y-70145000D01*
X117320000Y-76020000D02*
X117320000Y-70190000D01*
X112240000Y-70270000D02*
X112365000Y-70145000D01*
X112240000Y-76020000D02*
X112240000Y-70270000D01*
X92985000Y-70145000D02*
X98860000Y-76020000D01*
X88815000Y-70145000D02*
X92985000Y-70145000D01*
X92419979Y-72119979D02*
X87539979Y-72119979D01*
X96320000Y-76020000D02*
X92419979Y-72119979D01*
X86315000Y-70895000D02*
X86315000Y-70145000D01*
X87539979Y-72119979D02*
X86315000Y-70895000D01*
X93780000Y-76020000D02*
X91079989Y-73319989D01*
X91079989Y-73319989D02*
X85412061Y-73319989D01*
X83815000Y-71722928D02*
X83815000Y-70145000D01*
X85412061Y-73319989D02*
X83815000Y-71722928D01*
X89420001Y-74519999D02*
X84915001Y-74519999D01*
X90920002Y-76020000D02*
X89420001Y-74519999D01*
X91240000Y-76020000D02*
X90920002Y-76020000D01*
X81315000Y-70919998D02*
X81315000Y-70145000D01*
X84915001Y-74519999D02*
X81315000Y-70919998D01*
X140860000Y-76020000D02*
X140860000Y-73640000D01*
X140860000Y-73640000D02*
X137390000Y-70170000D01*
X138320000Y-74325000D02*
X134890000Y-70895000D01*
X134890000Y-70895000D02*
X134890000Y-70170000D01*
X138320000Y-76020000D02*
X138320000Y-74325000D01*
X135780000Y-74710000D02*
X132390000Y-71320000D01*
X132390000Y-71320000D02*
X132390000Y-70170000D01*
X135780000Y-76020000D02*
X135780000Y-74710000D01*
X129890000Y-71495000D02*
X129890000Y-70170000D01*
X133240000Y-76020000D02*
X133240000Y-74845000D01*
X133240000Y-74845000D02*
X129890000Y-71495000D01*
X154240000Y-76020000D02*
X152565030Y-74345030D01*
X152565030Y-74345030D02*
X150765030Y-74345030D01*
X150765030Y-74345030D02*
X146690000Y-70270000D01*
X156780000Y-76020000D02*
X153905020Y-73145020D01*
X153905020Y-73145020D02*
X152065020Y-73145020D01*
X152065020Y-73145020D02*
X149190000Y-70270000D01*
X159320000Y-76020000D02*
X155245010Y-71945010D01*
X155245010Y-71945010D02*
X153196490Y-71945010D01*
X153196490Y-71945010D02*
X151690000Y-70438520D01*
X151690000Y-70438520D02*
X151690000Y-70270000D01*
X161860000Y-76020000D02*
X156110000Y-70270000D01*
X156110000Y-70270000D02*
X154190000Y-70270000D01*
X91240000Y-94520000D02*
X91340000Y-94420000D01*
X91240000Y-99020000D02*
X91240000Y-94520000D01*
X93780000Y-94480000D02*
X93840000Y-94420000D01*
X93780000Y-99020000D02*
X93780000Y-94480000D01*
X96320000Y-94440000D02*
X96340000Y-94420000D01*
X96320000Y-99020000D02*
X96320000Y-94440000D01*
X98860000Y-94440000D02*
X98840000Y-94420000D01*
X98860000Y-99020000D02*
X98860000Y-94440000D01*
X133240000Y-94470000D02*
X133290000Y-94420000D01*
X133240000Y-99020000D02*
X133240000Y-94470000D01*
X135780000Y-94430000D02*
X135790000Y-94420000D01*
X135780000Y-99020000D02*
X135780000Y-94430000D01*
X138320000Y-94450000D02*
X138290000Y-94420000D01*
X138320000Y-99020000D02*
X138320000Y-94450000D01*
X140860000Y-94490000D02*
X140790000Y-94420000D01*
X140860000Y-99020000D02*
X140860000Y-94490000D01*
D35*
X128160000Y-83964002D02*
X128160000Y-76020000D01*
X125884001Y-86240001D02*
X128160000Y-83964002D01*
X115555999Y-86240001D02*
X125884001Y-86240001D01*
X107160000Y-77844002D02*
X115555999Y-86240001D01*
X107160000Y-76020000D02*
X107160000Y-77844002D01*
D36*
X86160000Y-104070002D02*
X78560001Y-111670001D01*
X86160000Y-99020000D02*
X86160000Y-104070002D01*
X71959990Y-128253752D02*
X71959990Y-129460000D01*
X71959990Y-127192008D02*
X71959990Y-128253752D01*
X78560001Y-120591997D02*
X71959990Y-127192008D01*
X78560001Y-111670001D02*
X78560001Y-120591997D01*
X78570000Y-120601996D02*
X78560001Y-120591997D01*
D35*
X82570000Y-129460000D02*
X81710000Y-129460000D01*
D36*
X78570000Y-126320000D02*
X78570000Y-120601996D01*
D35*
X82570000Y-137450000D02*
X82410000Y-137450000D01*
D36*
X78560001Y-120611995D02*
X78570000Y-120601996D01*
D35*
X81710000Y-129460000D02*
X78570000Y-126320000D01*
D37*
X86620001Y-125409999D02*
X82570000Y-129460000D01*
X93229999Y-125409999D02*
X86620001Y-125409999D01*
X95040000Y-127220000D02*
X93229999Y-125409999D01*
D34*
X154240000Y-94470000D02*
X154290000Y-94420000D01*
X154240000Y-99020000D02*
X154240000Y-94470000D01*
X156780000Y-94430000D02*
X156790000Y-94420000D01*
X156780000Y-99020000D02*
X156780000Y-94430000D01*
X159320000Y-94450000D02*
X159290000Y-94420000D01*
X159320000Y-99020000D02*
X159320000Y-94450000D01*
X161860000Y-94490000D02*
X161790000Y-94420000D01*
X161860000Y-99020000D02*
X161860000Y-94490000D01*
X100040010Y-68469990D02*
X113189990Y-68469990D01*
X113189990Y-68469990D02*
X114865000Y-70145000D01*
X98365000Y-70145000D02*
X100040010Y-68469990D01*
X112240000Y-94420000D02*
X112290000Y-94370000D01*
X112240000Y-99020000D02*
X112240000Y-94420000D01*
X114780000Y-94380000D02*
X114790000Y-94370000D01*
X114780000Y-99020000D02*
X114780000Y-94380000D01*
X117320000Y-94400000D02*
X117290000Y-94370000D01*
X117320000Y-99020000D02*
X117320000Y-94400000D01*
X119860000Y-94440000D02*
X119790000Y-94370000D01*
X119860000Y-99020000D02*
X119860000Y-94440000D01*
D38*
X121295010Y-117705010D02*
X119870000Y-116280000D01*
X124709012Y-117705010D02*
X121295010Y-117705010D01*
X137824002Y-130820000D02*
X124709012Y-117705010D01*
X165380000Y-130820000D02*
X137824002Y-130820000D01*
X90108003Y-119650001D02*
X89648001Y-119189999D01*
X98668001Y-119650001D02*
X90108003Y-119650001D01*
X103463012Y-114854990D02*
X98668001Y-119650001D01*
X89648001Y-119189999D02*
X87330002Y-119189999D01*
X107524990Y-114854990D02*
X103463012Y-114854990D01*
X87330002Y-119189999D02*
X87290001Y-119230000D01*
X108950000Y-116280000D02*
X107524990Y-114854990D01*
X87290001Y-121289999D02*
X87210000Y-121370000D01*
X87290001Y-119230000D02*
X87290001Y-121289999D01*
X79440000Y-137460000D02*
X74510000Y-137460000D01*
X90765000Y-126135000D02*
X79440000Y-137460000D01*
D37*
X163070000Y-136949999D02*
X163035001Y-136915000D01*
X163070000Y-137940000D02*
X163070000Y-136949999D01*
X128730001Y-150875001D02*
X127525000Y-149670000D01*
X134314999Y-150875001D02*
X128730001Y-150875001D01*
X134775001Y-150875001D02*
X134820000Y-150920000D01*
X134314999Y-150875001D02*
X134775001Y-150875001D01*
X123960852Y-151674999D02*
X122125034Y-149839181D01*
X131604999Y-151674999D02*
X123960852Y-151674999D01*
X131870000Y-151940000D02*
X131604999Y-151674999D01*
X100359490Y-162940000D02*
X100477500Y-162821990D01*
X99935000Y-162940000D02*
X100359490Y-162940000D01*
X92445000Y-162940000D02*
X92920000Y-162465000D01*
X91045000Y-162940000D02*
X92445000Y-162940000D01*
X92275685Y-159190000D02*
X91710000Y-159190000D01*
X92920000Y-159834315D02*
X92275685Y-159190000D01*
X92920000Y-162465000D02*
X92920000Y-159834315D01*
X79630000Y-159140000D02*
X80660000Y-160170000D01*
X80265000Y-162900000D02*
X78865000Y-162900000D01*
X80660000Y-162505000D02*
X80265000Y-162900000D01*
X80660000Y-160170000D02*
X80660000Y-162505000D01*
X86279999Y-161069999D02*
X86989998Y-160360000D01*
X86989998Y-160360000D02*
X87755000Y-160360000D01*
X86279999Y-162339999D02*
X86279999Y-161069999D01*
X84469998Y-164150000D02*
X86279999Y-162339999D01*
X79850000Y-164150000D02*
X84469998Y-164150000D01*
X158930000Y-159830000D02*
X158930000Y-155810000D01*
X159180000Y-160080000D02*
X158930000Y-159830000D01*
X88530000Y-162900000D02*
X88570000Y-162860000D01*
X87755000Y-162900000D02*
X88530000Y-162900000D01*
X105324999Y-164985001D02*
X107980000Y-162330000D01*
X89840001Y-164985001D02*
X105324999Y-164985001D01*
X87755000Y-162900000D02*
X89840001Y-164985001D01*
X107980000Y-162330000D02*
X107980000Y-162330000D01*
X78800000Y-160360000D02*
X78780000Y-160380000D01*
X78865000Y-160360000D02*
X78800000Y-160360000D01*
X90900000Y-160400000D02*
X90890000Y-160410000D01*
X91045000Y-160400000D02*
X90900000Y-160400000D01*
X108720000Y-161996998D02*
X108720000Y-163700000D01*
X108328001Y-161604999D02*
X108720000Y-161996998D01*
X107631999Y-161604999D02*
X108328001Y-161604999D01*
X105136998Y-164100000D02*
X107631999Y-161604999D01*
X98570000Y-164100000D02*
X105136998Y-164100000D01*
X108720000Y-163700000D02*
X108720000Y-163700000D01*
X96489002Y-164260000D02*
X98170000Y-162579002D01*
X91890000Y-164260000D02*
X96489002Y-164260000D01*
X98535000Y-160400000D02*
X99935000Y-160400000D01*
X98170000Y-160765000D02*
X98535000Y-160400000D01*
X98170000Y-162579002D02*
X98170000Y-160765000D01*
X157870000Y-151306662D02*
X157870000Y-154490000D01*
X155860000Y-149296662D02*
X157870000Y-151306662D01*
X155860000Y-146660000D02*
X155860000Y-149296662D01*
D38*
X87210000Y-124150000D02*
X87180000Y-124180000D01*
X87210000Y-122670000D02*
X87210000Y-124150000D01*
D37*
X72655317Y-96854683D02*
X73315000Y-96195000D01*
X72655317Y-100542237D02*
X72655317Y-96854683D01*
X76307668Y-104194588D02*
X72655317Y-100542237D01*
X73380318Y-99660318D02*
X73380318Y-97529682D01*
X77015000Y-103295000D02*
X73380318Y-99660318D01*
M02*
