G04 #@! TF.GenerationSoftware,KiCad,Pcbnew,5.1.9+dfsg1-1~bpo10+1*
G04 #@! TF.CreationDate,2021-03-15T19:37:00+00:00*
G04 #@! TF.ProjectId,mobo,6d6f626f-2e6b-4696-9361-645f70636258,rev?*
G04 #@! TF.SameCoordinates,Original*
G04 #@! TF.FileFunction,Legend,Top*
G04 #@! TF.FilePolarity,Positive*
%FSLAX46Y46*%
G04 Gerber Fmt 4.6, Leading zero omitted, Abs format (unit mm)*
G04 Created by KiCad (PCBNEW 5.1.9+dfsg1-1~bpo10+1) date 2021-03-15 19:37:00*
%MOMM*%
%LPD*%
G01*
G04 APERTURE LIST*
%ADD10C,0.150000*%
%ADD11C,0.120000*%
%ADD12C,0.200000*%
%ADD13C,0.250000*%
%ADD14C,0.100000*%
G04 APERTURE END LIST*
D10*
X166560476Y-102232380D02*
X166370000Y-102375238D01*
X166179523Y-102232380D01*
D11*
X163144761Y-101701904D02*
X163678095Y-102501904D01*
X163678095Y-101701904D02*
X163144761Y-102501904D01*
X163868571Y-101778095D02*
X164020952Y-101663809D01*
X164173333Y-101778095D01*
X167230000Y-102070952D02*
X167230000Y-102451904D01*
X166963333Y-101651904D02*
X167230000Y-102070952D01*
X167496666Y-101651904D01*
D10*
X159710476Y-102272380D02*
X159520000Y-102415238D01*
X159329523Y-102272380D01*
D11*
X160627619Y-102415714D02*
X160589523Y-102453809D01*
X160475238Y-102491904D01*
X160399047Y-102491904D01*
X160284761Y-102453809D01*
X160208571Y-102377619D01*
X160170476Y-102301428D01*
X160132380Y-102149047D01*
X160132380Y-102034761D01*
X160170476Y-101882380D01*
X160208571Y-101806190D01*
X160284761Y-101730000D01*
X160399047Y-101691904D01*
X160475238Y-101691904D01*
X160589523Y-101730000D01*
X160627619Y-101768095D01*
X156294761Y-101741904D02*
X156828095Y-101741904D01*
X156294761Y-102541904D01*
X156828095Y-102541904D01*
X157018571Y-101818095D02*
X157170952Y-101703809D01*
X157323333Y-101818095D01*
D10*
X151050476Y-102432380D02*
X150860000Y-102575238D01*
X150669523Y-102432380D01*
D11*
X151475238Y-102611904D02*
X151475238Y-101811904D01*
X151665714Y-101811904D01*
X151780000Y-101850000D01*
X151856190Y-101926190D01*
X151894285Y-102002380D01*
X151932380Y-102154761D01*
X151932380Y-102269047D01*
X151894285Y-102421428D01*
X151856190Y-102497619D01*
X151780000Y-102573809D01*
X151665714Y-102611904D01*
X151475238Y-102611904D01*
X152427619Y-101811904D02*
X152580000Y-101811904D01*
X152656190Y-101850000D01*
X152732380Y-101926190D01*
X152770476Y-102078571D01*
X152770476Y-102345238D01*
X152732380Y-102497619D01*
X152656190Y-102573809D01*
X152580000Y-102611904D01*
X152427619Y-102611904D01*
X152351428Y-102573809D01*
X152275238Y-102497619D01*
X152237142Y-102345238D01*
X152237142Y-102078571D01*
X152275238Y-101926190D01*
X152351428Y-101850000D01*
X152427619Y-101811904D01*
X153037142Y-101811904D02*
X153227619Y-102611904D01*
X153380000Y-102040476D01*
X153532380Y-102611904D01*
X153722857Y-101811904D01*
X154027619Y-102611904D02*
X154027619Y-101811904D01*
X154484761Y-102611904D01*
X154484761Y-101811904D01*
X148652857Y-101651904D02*
X148652857Y-102299523D01*
X148690952Y-102375714D01*
X148729047Y-102413809D01*
X148805238Y-102451904D01*
X148957619Y-102451904D01*
X149033809Y-102413809D01*
X149071904Y-102375714D01*
X149110000Y-102299523D01*
X149110000Y-101651904D01*
X149490952Y-102451904D02*
X149490952Y-101651904D01*
X149795714Y-101651904D01*
X149871904Y-101690000D01*
X149910000Y-101728095D01*
X149948095Y-101804285D01*
X149948095Y-101918571D01*
X149910000Y-101994761D01*
X149871904Y-102032857D01*
X149795714Y-102070952D01*
X149490952Y-102070952D01*
X150176666Y-101728095D02*
X150329047Y-101613809D01*
X150481428Y-101728095D01*
D10*
X133484761Y-143166666D02*
X133532380Y-143023809D01*
X133532380Y-142785714D01*
X133484761Y-142690476D01*
X133437142Y-142642857D01*
X133341904Y-142595238D01*
X133246666Y-142595238D01*
X133151428Y-142642857D01*
X133103809Y-142690476D01*
X133056190Y-142785714D01*
X133008571Y-142976190D01*
X132960952Y-143071428D01*
X132913333Y-143119047D01*
X132818095Y-143166666D01*
X132722857Y-143166666D01*
X132627619Y-143119047D01*
X132580000Y-143071428D01*
X132532380Y-142976190D01*
X132532380Y-142738095D01*
X132580000Y-142595238D01*
X133008571Y-142166666D02*
X133008571Y-141833333D01*
X133532380Y-141690476D02*
X133532380Y-142166666D01*
X132532380Y-142166666D01*
X132532380Y-141690476D01*
X133532380Y-140690476D02*
X133056190Y-141023809D01*
X133532380Y-141261904D02*
X132532380Y-141261904D01*
X132532380Y-140880952D01*
X132580000Y-140785714D01*
X132627619Y-140738095D01*
X132722857Y-140690476D01*
X132865714Y-140690476D01*
X132960952Y-140738095D01*
X133008571Y-140785714D01*
X133056190Y-140880952D01*
X133056190Y-141261904D01*
X132532380Y-140404761D02*
X133532380Y-140071428D01*
X132532380Y-139738095D01*
X132532380Y-139214285D02*
X132532380Y-139023809D01*
X132580000Y-138928571D01*
X132675238Y-138833333D01*
X132865714Y-138785714D01*
X133199047Y-138785714D01*
X133389523Y-138833333D01*
X133484761Y-138928571D01*
X133532380Y-139023809D01*
X133532380Y-139214285D01*
X133484761Y-139309523D01*
X133389523Y-139404761D01*
X133199047Y-139452380D01*
X132865714Y-139452380D01*
X132675238Y-139404761D01*
X132580000Y-139309523D01*
X132532380Y-139214285D01*
X132627619Y-138404761D02*
X132580000Y-138357142D01*
X132532380Y-138261904D01*
X132532380Y-138023809D01*
X132580000Y-137928571D01*
X132627619Y-137880952D01*
X132722857Y-137833333D01*
X132818095Y-137833333D01*
X132960952Y-137880952D01*
X133532380Y-138452380D01*
X133532380Y-137833333D01*
X133534761Y-149966666D02*
X133582380Y-149823809D01*
X133582380Y-149585714D01*
X133534761Y-149490476D01*
X133487142Y-149442857D01*
X133391904Y-149395238D01*
X133296666Y-149395238D01*
X133201428Y-149442857D01*
X133153809Y-149490476D01*
X133106190Y-149585714D01*
X133058571Y-149776190D01*
X133010952Y-149871428D01*
X132963333Y-149919047D01*
X132868095Y-149966666D01*
X132772857Y-149966666D01*
X132677619Y-149919047D01*
X132630000Y-149871428D01*
X132582380Y-149776190D01*
X132582380Y-149538095D01*
X132630000Y-149395238D01*
X133058571Y-148966666D02*
X133058571Y-148633333D01*
X133582380Y-148490476D02*
X133582380Y-148966666D01*
X132582380Y-148966666D01*
X132582380Y-148490476D01*
X133582380Y-147490476D02*
X133106190Y-147823809D01*
X133582380Y-148061904D02*
X132582380Y-148061904D01*
X132582380Y-147680952D01*
X132630000Y-147585714D01*
X132677619Y-147538095D01*
X132772857Y-147490476D01*
X132915714Y-147490476D01*
X133010952Y-147538095D01*
X133058571Y-147585714D01*
X133106190Y-147680952D01*
X133106190Y-148061904D01*
X132582380Y-147204761D02*
X133582380Y-146871428D01*
X132582380Y-146538095D01*
X132582380Y-146014285D02*
X132582380Y-145823809D01*
X132630000Y-145728571D01*
X132725238Y-145633333D01*
X132915714Y-145585714D01*
X133249047Y-145585714D01*
X133439523Y-145633333D01*
X133534761Y-145728571D01*
X133582380Y-145823809D01*
X133582380Y-146014285D01*
X133534761Y-146109523D01*
X133439523Y-146204761D01*
X133249047Y-146252380D01*
X132915714Y-146252380D01*
X132725238Y-146204761D01*
X132630000Y-146109523D01*
X132582380Y-146014285D01*
X133582380Y-144633333D02*
X133582380Y-145204761D01*
X133582380Y-144919047D02*
X132582380Y-144919047D01*
X132725238Y-145014285D01*
X132820476Y-145109523D01*
X132868095Y-145204761D01*
X107652857Y-147255714D02*
X107690952Y-147141428D01*
X107729047Y-147103333D01*
X107805238Y-147065238D01*
X107919523Y-147065238D01*
X107995714Y-147103333D01*
X108033809Y-147141428D01*
X108071904Y-147217619D01*
X108071904Y-147522380D01*
X107271904Y-147522380D01*
X107271904Y-147255714D01*
X107310000Y-147179523D01*
X107348095Y-147141428D01*
X107424285Y-147103333D01*
X107500476Y-147103333D01*
X107576666Y-147141428D01*
X107614761Y-147179523D01*
X107652857Y-147255714D01*
X107652857Y-147522380D01*
X107271904Y-146570000D02*
X107271904Y-146417619D01*
X107310000Y-146341428D01*
X107386190Y-146265238D01*
X107538571Y-146227142D01*
X107805238Y-146227142D01*
X107957619Y-146265238D01*
X108033809Y-146341428D01*
X108071904Y-146417619D01*
X108071904Y-146570000D01*
X108033809Y-146646190D01*
X107957619Y-146722380D01*
X107805238Y-146760476D01*
X107538571Y-146760476D01*
X107386190Y-146722380D01*
X107310000Y-146646190D01*
X107271904Y-146570000D01*
X107271904Y-145731904D02*
X107271904Y-145579523D01*
X107310000Y-145503333D01*
X107386190Y-145427142D01*
X107538571Y-145389047D01*
X107805238Y-145389047D01*
X107957619Y-145427142D01*
X108033809Y-145503333D01*
X108071904Y-145579523D01*
X108071904Y-145731904D01*
X108033809Y-145808095D01*
X107957619Y-145884285D01*
X107805238Y-145922380D01*
X107538571Y-145922380D01*
X107386190Y-145884285D01*
X107310000Y-145808095D01*
X107271904Y-145731904D01*
X107271904Y-145160476D02*
X107271904Y-144703333D01*
X108071904Y-144931904D02*
X107271904Y-144931904D01*
X98631904Y-149338095D02*
X98250952Y-149604761D01*
X98631904Y-149795238D02*
X97831904Y-149795238D01*
X97831904Y-149490476D01*
X97870000Y-149414285D01*
X97908095Y-149376190D01*
X97984285Y-149338095D01*
X98098571Y-149338095D01*
X98174761Y-149376190D01*
X98212857Y-149414285D01*
X98250952Y-149490476D01*
X98250952Y-149795238D01*
X98593809Y-149033333D02*
X98631904Y-148919047D01*
X98631904Y-148728571D01*
X98593809Y-148652380D01*
X98555714Y-148614285D01*
X98479523Y-148576190D01*
X98403333Y-148576190D01*
X98327142Y-148614285D01*
X98289047Y-148652380D01*
X98250952Y-148728571D01*
X98212857Y-148880952D01*
X98174761Y-148957142D01*
X98136666Y-148995238D01*
X98060476Y-149033333D01*
X97984285Y-149033333D01*
X97908095Y-148995238D01*
X97870000Y-148957142D01*
X97831904Y-148880952D01*
X97831904Y-148690476D01*
X97870000Y-148576190D01*
X97831904Y-148347619D02*
X97831904Y-147890476D01*
X98631904Y-148119047D02*
X97831904Y-148119047D01*
D12*
X79945619Y-77734761D02*
X79945619Y-77163333D01*
X79945619Y-77449047D02*
X80945619Y-77449047D01*
X80802761Y-77353809D01*
X80707523Y-77258571D01*
X80659904Y-77163333D01*
X80850380Y-78115714D02*
X80898000Y-78163333D01*
X80945619Y-78258571D01*
X80945619Y-78496666D01*
X80898000Y-78591904D01*
X80850380Y-78639523D01*
X80755142Y-78687142D01*
X80659904Y-78687142D01*
X80517047Y-78639523D01*
X79945619Y-78068095D01*
X79945619Y-78687142D01*
X80993238Y-79830000D02*
X79707523Y-78972857D01*
X80850380Y-80115714D02*
X80898000Y-80163333D01*
X80945619Y-80258571D01*
X80945619Y-80496666D01*
X80898000Y-80591904D01*
X80850380Y-80639523D01*
X80755142Y-80687142D01*
X80659904Y-80687142D01*
X80517047Y-80639523D01*
X79945619Y-80068095D01*
X79945619Y-80687142D01*
X80612285Y-81544285D02*
X79945619Y-81544285D01*
X80993238Y-81306190D02*
X80278952Y-81068095D01*
X80278952Y-81687142D01*
X80945619Y-81925238D02*
X79945619Y-82258571D01*
X80945619Y-82591904D01*
D10*
X96193333Y-122477619D02*
X96098095Y-122430000D01*
X96002857Y-122334761D01*
X95860000Y-122191904D01*
X95764761Y-122144285D01*
X95669523Y-122144285D01*
X95717142Y-122382380D02*
X95621904Y-122334761D01*
X95526666Y-122239523D01*
X95479047Y-122049047D01*
X95479047Y-121715714D01*
X95526666Y-121525238D01*
X95621904Y-121430000D01*
X95717142Y-121382380D01*
X95907619Y-121382380D01*
X96002857Y-121430000D01*
X96098095Y-121525238D01*
X96145714Y-121715714D01*
X96145714Y-122049047D01*
X96098095Y-122239523D01*
X96002857Y-122334761D01*
X95907619Y-122382380D01*
X95717142Y-122382380D01*
X96479047Y-121382380D02*
X96717142Y-122382380D01*
X96907619Y-121668095D01*
X97098095Y-122382380D01*
X97336190Y-121382380D01*
X97717142Y-122382380D02*
X97717142Y-121382380D01*
X98193333Y-122382380D02*
X98193333Y-121382380D01*
X99240952Y-122287142D02*
X99193333Y-122334761D01*
X99050476Y-122382380D01*
X98955238Y-122382380D01*
X98812380Y-122334761D01*
X98717142Y-122239523D01*
X98669523Y-122144285D01*
X98621904Y-121953809D01*
X98621904Y-121810952D01*
X98669523Y-121620476D01*
X98717142Y-121525238D01*
X98812380Y-121430000D01*
X98955238Y-121382380D01*
X99050476Y-121382380D01*
X99193333Y-121430000D01*
X99240952Y-121477619D01*
X129391904Y-132426666D02*
X129868095Y-132426666D01*
X129296666Y-132712380D02*
X129630000Y-131712380D01*
X129963333Y-132712380D01*
X130296666Y-131712380D02*
X130296666Y-132521904D01*
X130344285Y-132617142D01*
X130391904Y-132664761D01*
X130487142Y-132712380D01*
X130677619Y-132712380D01*
X130772857Y-132664761D01*
X130820476Y-132617142D01*
X130868095Y-132521904D01*
X130868095Y-131712380D01*
X131249047Y-131712380D02*
X131915714Y-132712380D01*
X131915714Y-131712380D02*
X131249047Y-132712380D01*
D13*
X145579285Y-92405714D02*
X145507857Y-92477142D01*
X145293571Y-92548571D01*
X145150714Y-92548571D01*
X144936428Y-92477142D01*
X144793571Y-92334285D01*
X144722142Y-92191428D01*
X144650714Y-91905714D01*
X144650714Y-91691428D01*
X144722142Y-91405714D01*
X144793571Y-91262857D01*
X144936428Y-91120000D01*
X145150714Y-91048571D01*
X145293571Y-91048571D01*
X145507857Y-91120000D01*
X145579285Y-91191428D01*
X123847142Y-92648571D02*
X123847142Y-91148571D01*
X124418571Y-91148571D01*
X124561428Y-91220000D01*
X124632857Y-91291428D01*
X124704285Y-91434285D01*
X124704285Y-91648571D01*
X124632857Y-91791428D01*
X124561428Y-91862857D01*
X124418571Y-91934285D01*
X123847142Y-91934285D01*
X102497142Y-92798571D02*
X102497142Y-91298571D01*
X102497142Y-92012857D02*
X103354285Y-92012857D01*
X103354285Y-92798571D02*
X103354285Y-91298571D01*
X103997142Y-91441428D02*
X104068571Y-91370000D01*
X104211428Y-91298571D01*
X104568571Y-91298571D01*
X104711428Y-91370000D01*
X104782857Y-91441428D01*
X104854285Y-91584285D01*
X104854285Y-91727142D01*
X104782857Y-91941428D01*
X103925714Y-92798571D01*
X104854285Y-92798571D01*
X157897142Y-68223571D02*
X157897142Y-66723571D01*
X157897142Y-67437857D02*
X158754285Y-67437857D01*
X158754285Y-68223571D02*
X158754285Y-66723571D01*
X160254285Y-68223571D02*
X159397142Y-68223571D01*
X159825714Y-68223571D02*
X159825714Y-66723571D01*
X159682857Y-66937857D01*
X159540000Y-67080714D01*
X159397142Y-67152142D01*
X141040000Y-66773571D02*
X142040000Y-66773571D01*
X141040000Y-68273571D01*
X142040000Y-68273571D01*
X123965000Y-67809285D02*
X123965000Y-68523571D01*
X123465000Y-67023571D02*
X123965000Y-67809285D01*
X124465000Y-67023571D01*
X92390000Y-66998571D02*
X93390000Y-68498571D01*
X93390000Y-66998571D02*
X92390000Y-68498571D01*
D14*
X147993571Y-110191428D02*
X147993571Y-109934285D01*
X148443571Y-110062857D02*
X147993571Y-110062857D01*
X148443571Y-109784285D02*
X147993571Y-109784285D01*
X148315000Y-109634285D01*
X147993571Y-109484285D01*
X148443571Y-109484285D01*
X148400714Y-109012857D02*
X148422142Y-109034285D01*
X148443571Y-109098571D01*
X148443571Y-109141428D01*
X148422142Y-109205714D01*
X148379285Y-109248571D01*
X148336428Y-109270000D01*
X148250714Y-109291428D01*
X148186428Y-109291428D01*
X148100714Y-109270000D01*
X148057857Y-109248571D01*
X148015000Y-109205714D01*
X147993571Y-109141428D01*
X147993571Y-109098571D01*
X148015000Y-109034285D01*
X148036428Y-109012857D01*
X148593571Y-108712857D02*
X147950714Y-108712857D01*
X148422142Y-108412857D02*
X148443571Y-108348571D01*
X148443571Y-108241428D01*
X148422142Y-108198571D01*
X148400714Y-108177142D01*
X148357857Y-108155714D01*
X148315000Y-108155714D01*
X148272142Y-108177142D01*
X148250714Y-108198571D01*
X148229285Y-108241428D01*
X148207857Y-108327142D01*
X148186428Y-108370000D01*
X148165000Y-108391428D01*
X148122142Y-108412857D01*
X148079285Y-108412857D01*
X148036428Y-108391428D01*
X148015000Y-108370000D01*
X147993571Y-108327142D01*
X147993571Y-108220000D01*
X148015000Y-108155714D01*
X148443571Y-107962857D02*
X147993571Y-107962857D01*
X147993571Y-107791428D01*
X148015000Y-107748571D01*
X148036428Y-107727142D01*
X148079285Y-107705714D01*
X148143571Y-107705714D01*
X148186428Y-107727142D01*
X148207857Y-107748571D01*
X148229285Y-107791428D01*
X148229285Y-107962857D01*
X148443571Y-107512857D02*
X147993571Y-107512857D01*
X148593571Y-107191428D02*
X147950714Y-107191428D01*
X148015000Y-106634285D02*
X147993571Y-106677142D01*
X147993571Y-106741428D01*
X148015000Y-106805714D01*
X148057857Y-106848571D01*
X148100714Y-106870000D01*
X148186428Y-106891428D01*
X148250714Y-106891428D01*
X148336428Y-106870000D01*
X148379285Y-106848571D01*
X148422142Y-106805714D01*
X148443571Y-106741428D01*
X148443571Y-106698571D01*
X148422142Y-106634285D01*
X148400714Y-106612857D01*
X148250714Y-106612857D01*
X148250714Y-106698571D01*
X148443571Y-106420000D02*
X147993571Y-106420000D01*
X148443571Y-106162857D01*
X147993571Y-106162857D01*
X148443571Y-105948571D02*
X147993571Y-105948571D01*
X147993571Y-105841428D01*
X148015000Y-105777142D01*
X148057857Y-105734285D01*
X148100714Y-105712857D01*
X148186428Y-105691428D01*
X148250714Y-105691428D01*
X148336428Y-105712857D01*
X148379285Y-105734285D01*
X148422142Y-105777142D01*
X148443571Y-105841428D01*
X148443571Y-105948571D01*
D12*
X145506666Y-109072380D02*
X146125714Y-109072380D01*
X145792380Y-109453333D01*
X145935238Y-109453333D01*
X146030476Y-109500952D01*
X146078095Y-109548571D01*
X146125714Y-109643809D01*
X146125714Y-109881904D01*
X146078095Y-109977142D01*
X146030476Y-110024761D01*
X145935238Y-110072380D01*
X145649523Y-110072380D01*
X145554285Y-110024761D01*
X145506666Y-109977142D01*
X142854285Y-109167619D02*
X142901904Y-109120000D01*
X142997142Y-109072380D01*
X143235238Y-109072380D01*
X143330476Y-109120000D01*
X143378095Y-109167619D01*
X143425714Y-109262857D01*
X143425714Y-109358095D01*
X143378095Y-109500952D01*
X142806666Y-110072380D01*
X143425714Y-110072380D01*
X137392380Y-109072380D02*
X137487619Y-109072380D01*
X137582857Y-109120000D01*
X137630476Y-109167619D01*
X137678095Y-109262857D01*
X137725714Y-109453333D01*
X137725714Y-109691428D01*
X137678095Y-109881904D01*
X137630476Y-109977142D01*
X137582857Y-110024761D01*
X137487619Y-110072380D01*
X137392380Y-110072380D01*
X137297142Y-110024761D01*
X137249523Y-109977142D01*
X137201904Y-109881904D01*
X137154285Y-109691428D01*
X137154285Y-109453333D01*
X137201904Y-109262857D01*
X137249523Y-109167619D01*
X137297142Y-109120000D01*
X137392380Y-109072380D01*
X140625714Y-110072380D02*
X140054285Y-110072380D01*
X140340000Y-110072380D02*
X140340000Y-109072380D01*
X140244761Y-109215238D01*
X140149523Y-109310476D01*
X140054285Y-109358095D01*
D14*
X126993571Y-110091428D02*
X126993571Y-109834285D01*
X127443571Y-109962857D02*
X126993571Y-109962857D01*
X127443571Y-109684285D02*
X126993571Y-109684285D01*
X127315000Y-109534285D01*
X126993571Y-109384285D01*
X127443571Y-109384285D01*
X127400714Y-108912857D02*
X127422142Y-108934285D01*
X127443571Y-108998571D01*
X127443571Y-109041428D01*
X127422142Y-109105714D01*
X127379285Y-109148571D01*
X127336428Y-109170000D01*
X127250714Y-109191428D01*
X127186428Y-109191428D01*
X127100714Y-109170000D01*
X127057857Y-109148571D01*
X127015000Y-109105714D01*
X126993571Y-109041428D01*
X126993571Y-108998571D01*
X127015000Y-108934285D01*
X127036428Y-108912857D01*
X127593571Y-108612857D02*
X126950714Y-108612857D01*
X127422142Y-108312857D02*
X127443571Y-108248571D01*
X127443571Y-108141428D01*
X127422142Y-108098571D01*
X127400714Y-108077142D01*
X127357857Y-108055714D01*
X127315000Y-108055714D01*
X127272142Y-108077142D01*
X127250714Y-108098571D01*
X127229285Y-108141428D01*
X127207857Y-108227142D01*
X127186428Y-108270000D01*
X127165000Y-108291428D01*
X127122142Y-108312857D01*
X127079285Y-108312857D01*
X127036428Y-108291428D01*
X127015000Y-108270000D01*
X126993571Y-108227142D01*
X126993571Y-108120000D01*
X127015000Y-108055714D01*
X127443571Y-107862857D02*
X126993571Y-107862857D01*
X126993571Y-107691428D01*
X127015000Y-107648571D01*
X127036428Y-107627142D01*
X127079285Y-107605714D01*
X127143571Y-107605714D01*
X127186428Y-107627142D01*
X127207857Y-107648571D01*
X127229285Y-107691428D01*
X127229285Y-107862857D01*
X127443571Y-107412857D02*
X126993571Y-107412857D01*
X127593571Y-107091428D02*
X126950714Y-107091428D01*
X127015000Y-106534285D02*
X126993571Y-106577142D01*
X126993571Y-106641428D01*
X127015000Y-106705714D01*
X127057857Y-106748571D01*
X127100714Y-106770000D01*
X127186428Y-106791428D01*
X127250714Y-106791428D01*
X127336428Y-106770000D01*
X127379285Y-106748571D01*
X127422142Y-106705714D01*
X127443571Y-106641428D01*
X127443571Y-106598571D01*
X127422142Y-106534285D01*
X127400714Y-106512857D01*
X127250714Y-106512857D01*
X127250714Y-106598571D01*
X127443571Y-106320000D02*
X126993571Y-106320000D01*
X127443571Y-106062857D01*
X126993571Y-106062857D01*
X127443571Y-105848571D02*
X126993571Y-105848571D01*
X126993571Y-105741428D01*
X127015000Y-105677142D01*
X127057857Y-105634285D01*
X127100714Y-105612857D01*
X127186428Y-105591428D01*
X127250714Y-105591428D01*
X127336428Y-105612857D01*
X127379285Y-105634285D01*
X127422142Y-105677142D01*
X127443571Y-105741428D01*
X127443571Y-105848571D01*
D12*
X124506666Y-108972380D02*
X125125714Y-108972380D01*
X124792380Y-109353333D01*
X124935238Y-109353333D01*
X125030476Y-109400952D01*
X125078095Y-109448571D01*
X125125714Y-109543809D01*
X125125714Y-109781904D01*
X125078095Y-109877142D01*
X125030476Y-109924761D01*
X124935238Y-109972380D01*
X124649523Y-109972380D01*
X124554285Y-109924761D01*
X124506666Y-109877142D01*
X121854285Y-109067619D02*
X121901904Y-109020000D01*
X121997142Y-108972380D01*
X122235238Y-108972380D01*
X122330476Y-109020000D01*
X122378095Y-109067619D01*
X122425714Y-109162857D01*
X122425714Y-109258095D01*
X122378095Y-109400952D01*
X121806666Y-109972380D01*
X122425714Y-109972380D01*
X116392380Y-108972380D02*
X116487619Y-108972380D01*
X116582857Y-109020000D01*
X116630476Y-109067619D01*
X116678095Y-109162857D01*
X116725714Y-109353333D01*
X116725714Y-109591428D01*
X116678095Y-109781904D01*
X116630476Y-109877142D01*
X116582857Y-109924761D01*
X116487619Y-109972380D01*
X116392380Y-109972380D01*
X116297142Y-109924761D01*
X116249523Y-109877142D01*
X116201904Y-109781904D01*
X116154285Y-109591428D01*
X116154285Y-109353333D01*
X116201904Y-109162857D01*
X116249523Y-109067619D01*
X116297142Y-109020000D01*
X116392380Y-108972380D01*
X119625714Y-109972380D02*
X119054285Y-109972380D01*
X119340000Y-109972380D02*
X119340000Y-108972380D01*
X119244761Y-109115238D01*
X119149523Y-109210476D01*
X119054285Y-109258095D01*
D14*
X105993571Y-110091428D02*
X105993571Y-109834285D01*
X106443571Y-109962857D02*
X105993571Y-109962857D01*
X106443571Y-109684285D02*
X105993571Y-109684285D01*
X106315000Y-109534285D01*
X105993571Y-109384285D01*
X106443571Y-109384285D01*
X106400714Y-108912857D02*
X106422142Y-108934285D01*
X106443571Y-108998571D01*
X106443571Y-109041428D01*
X106422142Y-109105714D01*
X106379285Y-109148571D01*
X106336428Y-109170000D01*
X106250714Y-109191428D01*
X106186428Y-109191428D01*
X106100714Y-109170000D01*
X106057857Y-109148571D01*
X106015000Y-109105714D01*
X105993571Y-109041428D01*
X105993571Y-108998571D01*
X106015000Y-108934285D01*
X106036428Y-108912857D01*
X106593571Y-108612857D02*
X105950714Y-108612857D01*
X106422142Y-108312857D02*
X106443571Y-108248571D01*
X106443571Y-108141428D01*
X106422142Y-108098571D01*
X106400714Y-108077142D01*
X106357857Y-108055714D01*
X106315000Y-108055714D01*
X106272142Y-108077142D01*
X106250714Y-108098571D01*
X106229285Y-108141428D01*
X106207857Y-108227142D01*
X106186428Y-108270000D01*
X106165000Y-108291428D01*
X106122142Y-108312857D01*
X106079285Y-108312857D01*
X106036428Y-108291428D01*
X106015000Y-108270000D01*
X105993571Y-108227142D01*
X105993571Y-108120000D01*
X106015000Y-108055714D01*
X106443571Y-107862857D02*
X105993571Y-107862857D01*
X105993571Y-107691428D01*
X106015000Y-107648571D01*
X106036428Y-107627142D01*
X106079285Y-107605714D01*
X106143571Y-107605714D01*
X106186428Y-107627142D01*
X106207857Y-107648571D01*
X106229285Y-107691428D01*
X106229285Y-107862857D01*
X106443571Y-107412857D02*
X105993571Y-107412857D01*
X106593571Y-107091428D02*
X105950714Y-107091428D01*
X106015000Y-106534285D02*
X105993571Y-106577142D01*
X105993571Y-106641428D01*
X106015000Y-106705714D01*
X106057857Y-106748571D01*
X106100714Y-106770000D01*
X106186428Y-106791428D01*
X106250714Y-106791428D01*
X106336428Y-106770000D01*
X106379285Y-106748571D01*
X106422142Y-106705714D01*
X106443571Y-106641428D01*
X106443571Y-106598571D01*
X106422142Y-106534285D01*
X106400714Y-106512857D01*
X106250714Y-106512857D01*
X106250714Y-106598571D01*
X106443571Y-106320000D02*
X105993571Y-106320000D01*
X106443571Y-106062857D01*
X105993571Y-106062857D01*
X106443571Y-105848571D02*
X105993571Y-105848571D01*
X105993571Y-105741428D01*
X106015000Y-105677142D01*
X106057857Y-105634285D01*
X106100714Y-105612857D01*
X106186428Y-105591428D01*
X106250714Y-105591428D01*
X106336428Y-105612857D01*
X106379285Y-105634285D01*
X106422142Y-105677142D01*
X106443571Y-105741428D01*
X106443571Y-105848571D01*
D12*
X103506666Y-108972380D02*
X104125714Y-108972380D01*
X103792380Y-109353333D01*
X103935238Y-109353333D01*
X104030476Y-109400952D01*
X104078095Y-109448571D01*
X104125714Y-109543809D01*
X104125714Y-109781904D01*
X104078095Y-109877142D01*
X104030476Y-109924761D01*
X103935238Y-109972380D01*
X103649523Y-109972380D01*
X103554285Y-109924761D01*
X103506666Y-109877142D01*
X100854285Y-109067619D02*
X100901904Y-109020000D01*
X100997142Y-108972380D01*
X101235238Y-108972380D01*
X101330476Y-109020000D01*
X101378095Y-109067619D01*
X101425714Y-109162857D01*
X101425714Y-109258095D01*
X101378095Y-109400952D01*
X100806666Y-109972380D01*
X101425714Y-109972380D01*
X95392380Y-108972380D02*
X95487619Y-108972380D01*
X95582857Y-109020000D01*
X95630476Y-109067619D01*
X95678095Y-109162857D01*
X95725714Y-109353333D01*
X95725714Y-109591428D01*
X95678095Y-109781904D01*
X95630476Y-109877142D01*
X95582857Y-109924761D01*
X95487619Y-109972380D01*
X95392380Y-109972380D01*
X95297142Y-109924761D01*
X95249523Y-109877142D01*
X95201904Y-109781904D01*
X95154285Y-109591428D01*
X95154285Y-109353333D01*
X95201904Y-109162857D01*
X95249523Y-109067619D01*
X95297142Y-109020000D01*
X95392380Y-108972380D01*
X98625714Y-109972380D02*
X98054285Y-109972380D01*
X98340000Y-109972380D02*
X98340000Y-108972380D01*
X98244761Y-109115238D01*
X98149523Y-109210476D01*
X98054285Y-109258095D01*
X166606666Y-85972380D02*
X167225714Y-85972380D01*
X166892380Y-86353333D01*
X167035238Y-86353333D01*
X167130476Y-86400952D01*
X167178095Y-86448571D01*
X167225714Y-86543809D01*
X167225714Y-86781904D01*
X167178095Y-86877142D01*
X167130476Y-86924761D01*
X167035238Y-86972380D01*
X166749523Y-86972380D01*
X166654285Y-86924761D01*
X166606666Y-86877142D01*
X163954285Y-86067619D02*
X164001904Y-86020000D01*
X164097142Y-85972380D01*
X164335238Y-85972380D01*
X164430476Y-86020000D01*
X164478095Y-86067619D01*
X164525714Y-86162857D01*
X164525714Y-86258095D01*
X164478095Y-86400952D01*
X163906666Y-86972380D01*
X164525714Y-86972380D01*
X158492380Y-85972380D02*
X158587619Y-85972380D01*
X158682857Y-86020000D01*
X158730476Y-86067619D01*
X158778095Y-86162857D01*
X158825714Y-86353333D01*
X158825714Y-86591428D01*
X158778095Y-86781904D01*
X158730476Y-86877142D01*
X158682857Y-86924761D01*
X158587619Y-86972380D01*
X158492380Y-86972380D01*
X158397142Y-86924761D01*
X158349523Y-86877142D01*
X158301904Y-86781904D01*
X158254285Y-86591428D01*
X158254285Y-86353333D01*
X158301904Y-86162857D01*
X158349523Y-86067619D01*
X158397142Y-86020000D01*
X158492380Y-85972380D01*
X161725714Y-86972380D02*
X161154285Y-86972380D01*
X161440000Y-86972380D02*
X161440000Y-85972380D01*
X161344761Y-86115238D01*
X161249523Y-86210476D01*
X161154285Y-86258095D01*
D14*
X105993571Y-87291428D02*
X105993571Y-87034285D01*
X106443571Y-87162857D02*
X105993571Y-87162857D01*
X106443571Y-86884285D02*
X105993571Y-86884285D01*
X106315000Y-86734285D01*
X105993571Y-86584285D01*
X106443571Y-86584285D01*
X106400714Y-86112857D02*
X106422142Y-86134285D01*
X106443571Y-86198571D01*
X106443571Y-86241428D01*
X106422142Y-86305714D01*
X106379285Y-86348571D01*
X106336428Y-86370000D01*
X106250714Y-86391428D01*
X106186428Y-86391428D01*
X106100714Y-86370000D01*
X106057857Y-86348571D01*
X106015000Y-86305714D01*
X105993571Y-86241428D01*
X105993571Y-86198571D01*
X106015000Y-86134285D01*
X106036428Y-86112857D01*
X106593571Y-85812857D02*
X105950714Y-85812857D01*
X106422142Y-85512857D02*
X106443571Y-85448571D01*
X106443571Y-85341428D01*
X106422142Y-85298571D01*
X106400714Y-85277142D01*
X106357857Y-85255714D01*
X106315000Y-85255714D01*
X106272142Y-85277142D01*
X106250714Y-85298571D01*
X106229285Y-85341428D01*
X106207857Y-85427142D01*
X106186428Y-85470000D01*
X106165000Y-85491428D01*
X106122142Y-85512857D01*
X106079285Y-85512857D01*
X106036428Y-85491428D01*
X106015000Y-85470000D01*
X105993571Y-85427142D01*
X105993571Y-85320000D01*
X106015000Y-85255714D01*
X106443571Y-85062857D02*
X105993571Y-85062857D01*
X105993571Y-84891428D01*
X106015000Y-84848571D01*
X106036428Y-84827142D01*
X106079285Y-84805714D01*
X106143571Y-84805714D01*
X106186428Y-84827142D01*
X106207857Y-84848571D01*
X106229285Y-84891428D01*
X106229285Y-85062857D01*
X106443571Y-84612857D02*
X105993571Y-84612857D01*
X106593571Y-84291428D02*
X105950714Y-84291428D01*
X106015000Y-83734285D02*
X105993571Y-83777142D01*
X105993571Y-83841428D01*
X106015000Y-83905714D01*
X106057857Y-83948571D01*
X106100714Y-83970000D01*
X106186428Y-83991428D01*
X106250714Y-83991428D01*
X106336428Y-83970000D01*
X106379285Y-83948571D01*
X106422142Y-83905714D01*
X106443571Y-83841428D01*
X106443571Y-83798571D01*
X106422142Y-83734285D01*
X106400714Y-83712857D01*
X106250714Y-83712857D01*
X106250714Y-83798571D01*
X106443571Y-83520000D02*
X105993571Y-83520000D01*
X106443571Y-83262857D01*
X105993571Y-83262857D01*
X106443571Y-83048571D02*
X105993571Y-83048571D01*
X105993571Y-82941428D01*
X106015000Y-82877142D01*
X106057857Y-82834285D01*
X106100714Y-82812857D01*
X106186428Y-82791428D01*
X106250714Y-82791428D01*
X106336428Y-82812857D01*
X106379285Y-82834285D01*
X106422142Y-82877142D01*
X106443571Y-82941428D01*
X106443571Y-83048571D01*
D12*
X103506666Y-86172380D02*
X104125714Y-86172380D01*
X103792380Y-86553333D01*
X103935238Y-86553333D01*
X104030476Y-86600952D01*
X104078095Y-86648571D01*
X104125714Y-86743809D01*
X104125714Y-86981904D01*
X104078095Y-87077142D01*
X104030476Y-87124761D01*
X103935238Y-87172380D01*
X103649523Y-87172380D01*
X103554285Y-87124761D01*
X103506666Y-87077142D01*
X100854285Y-86267619D02*
X100901904Y-86220000D01*
X100997142Y-86172380D01*
X101235238Y-86172380D01*
X101330476Y-86220000D01*
X101378095Y-86267619D01*
X101425714Y-86362857D01*
X101425714Y-86458095D01*
X101378095Y-86600952D01*
X100806666Y-87172380D01*
X101425714Y-87172380D01*
X95392380Y-86172380D02*
X95487619Y-86172380D01*
X95582857Y-86220000D01*
X95630476Y-86267619D01*
X95678095Y-86362857D01*
X95725714Y-86553333D01*
X95725714Y-86791428D01*
X95678095Y-86981904D01*
X95630476Y-87077142D01*
X95582857Y-87124761D01*
X95487619Y-87172380D01*
X95392380Y-87172380D01*
X95297142Y-87124761D01*
X95249523Y-87077142D01*
X95201904Y-86981904D01*
X95154285Y-86791428D01*
X95154285Y-86553333D01*
X95201904Y-86362857D01*
X95249523Y-86267619D01*
X95297142Y-86220000D01*
X95392380Y-86172380D01*
X98625714Y-87172380D02*
X98054285Y-87172380D01*
X98340000Y-87172380D02*
X98340000Y-86172380D01*
X98244761Y-86315238D01*
X98149523Y-86410476D01*
X98054285Y-86458095D01*
D14*
X127093571Y-87291428D02*
X127093571Y-87034285D01*
X127543571Y-87162857D02*
X127093571Y-87162857D01*
X127543571Y-86884285D02*
X127093571Y-86884285D01*
X127415000Y-86734285D01*
X127093571Y-86584285D01*
X127543571Y-86584285D01*
X127500714Y-86112857D02*
X127522142Y-86134285D01*
X127543571Y-86198571D01*
X127543571Y-86241428D01*
X127522142Y-86305714D01*
X127479285Y-86348571D01*
X127436428Y-86370000D01*
X127350714Y-86391428D01*
X127286428Y-86391428D01*
X127200714Y-86370000D01*
X127157857Y-86348571D01*
X127115000Y-86305714D01*
X127093571Y-86241428D01*
X127093571Y-86198571D01*
X127115000Y-86134285D01*
X127136428Y-86112857D01*
X127693571Y-85812857D02*
X127050714Y-85812857D01*
X127522142Y-85512857D02*
X127543571Y-85448571D01*
X127543571Y-85341428D01*
X127522142Y-85298571D01*
X127500714Y-85277142D01*
X127457857Y-85255714D01*
X127415000Y-85255714D01*
X127372142Y-85277142D01*
X127350714Y-85298571D01*
X127329285Y-85341428D01*
X127307857Y-85427142D01*
X127286428Y-85470000D01*
X127265000Y-85491428D01*
X127222142Y-85512857D01*
X127179285Y-85512857D01*
X127136428Y-85491428D01*
X127115000Y-85470000D01*
X127093571Y-85427142D01*
X127093571Y-85320000D01*
X127115000Y-85255714D01*
X127543571Y-85062857D02*
X127093571Y-85062857D01*
X127093571Y-84891428D01*
X127115000Y-84848571D01*
X127136428Y-84827142D01*
X127179285Y-84805714D01*
X127243571Y-84805714D01*
X127286428Y-84827142D01*
X127307857Y-84848571D01*
X127329285Y-84891428D01*
X127329285Y-85062857D01*
X127543571Y-84612857D02*
X127093571Y-84612857D01*
X127693571Y-84291428D02*
X127050714Y-84291428D01*
X127115000Y-83734285D02*
X127093571Y-83777142D01*
X127093571Y-83841428D01*
X127115000Y-83905714D01*
X127157857Y-83948571D01*
X127200714Y-83970000D01*
X127286428Y-83991428D01*
X127350714Y-83991428D01*
X127436428Y-83970000D01*
X127479285Y-83948571D01*
X127522142Y-83905714D01*
X127543571Y-83841428D01*
X127543571Y-83798571D01*
X127522142Y-83734285D01*
X127500714Y-83712857D01*
X127350714Y-83712857D01*
X127350714Y-83798571D01*
X127543571Y-83520000D02*
X127093571Y-83520000D01*
X127543571Y-83262857D01*
X127093571Y-83262857D01*
X127543571Y-83048571D02*
X127093571Y-83048571D01*
X127093571Y-82941428D01*
X127115000Y-82877142D01*
X127157857Y-82834285D01*
X127200714Y-82812857D01*
X127286428Y-82791428D01*
X127350714Y-82791428D01*
X127436428Y-82812857D01*
X127479285Y-82834285D01*
X127522142Y-82877142D01*
X127543571Y-82941428D01*
X127543571Y-83048571D01*
D12*
X124606666Y-85922380D02*
X125225714Y-85922380D01*
X124892380Y-86303333D01*
X125035238Y-86303333D01*
X125130476Y-86350952D01*
X125178095Y-86398571D01*
X125225714Y-86493809D01*
X125225714Y-86731904D01*
X125178095Y-86827142D01*
X125130476Y-86874761D01*
X125035238Y-86922380D01*
X124749523Y-86922380D01*
X124654285Y-86874761D01*
X124606666Y-86827142D01*
X121954285Y-86017619D02*
X122001904Y-85970000D01*
X122097142Y-85922380D01*
X122335238Y-85922380D01*
X122430476Y-85970000D01*
X122478095Y-86017619D01*
X122525714Y-86112857D01*
X122525714Y-86208095D01*
X122478095Y-86350952D01*
X121906666Y-86922380D01*
X122525714Y-86922380D01*
X116492380Y-85922380D02*
X116587619Y-85922380D01*
X116682857Y-85970000D01*
X116730476Y-86017619D01*
X116778095Y-86112857D01*
X116825714Y-86303333D01*
X116825714Y-86541428D01*
X116778095Y-86731904D01*
X116730476Y-86827142D01*
X116682857Y-86874761D01*
X116587619Y-86922380D01*
X116492380Y-86922380D01*
X116397142Y-86874761D01*
X116349523Y-86827142D01*
X116301904Y-86731904D01*
X116254285Y-86541428D01*
X116254285Y-86303333D01*
X116301904Y-86112857D01*
X116349523Y-86017619D01*
X116397142Y-85970000D01*
X116492380Y-85922380D01*
X119725714Y-86922380D02*
X119154285Y-86922380D01*
X119440000Y-86922380D02*
X119440000Y-85922380D01*
X119344761Y-86065238D01*
X119249523Y-86160476D01*
X119154285Y-86208095D01*
D14*
X148093571Y-87191428D02*
X148093571Y-86934285D01*
X148543571Y-87062857D02*
X148093571Y-87062857D01*
X148543571Y-86784285D02*
X148093571Y-86784285D01*
X148415000Y-86634285D01*
X148093571Y-86484285D01*
X148543571Y-86484285D01*
X148500714Y-86012857D02*
X148522142Y-86034285D01*
X148543571Y-86098571D01*
X148543571Y-86141428D01*
X148522142Y-86205714D01*
X148479285Y-86248571D01*
X148436428Y-86270000D01*
X148350714Y-86291428D01*
X148286428Y-86291428D01*
X148200714Y-86270000D01*
X148157857Y-86248571D01*
X148115000Y-86205714D01*
X148093571Y-86141428D01*
X148093571Y-86098571D01*
X148115000Y-86034285D01*
X148136428Y-86012857D01*
X148693571Y-85712857D02*
X148050714Y-85712857D01*
X148522142Y-85412857D02*
X148543571Y-85348571D01*
X148543571Y-85241428D01*
X148522142Y-85198571D01*
X148500714Y-85177142D01*
X148457857Y-85155714D01*
X148415000Y-85155714D01*
X148372142Y-85177142D01*
X148350714Y-85198571D01*
X148329285Y-85241428D01*
X148307857Y-85327142D01*
X148286428Y-85370000D01*
X148265000Y-85391428D01*
X148222142Y-85412857D01*
X148179285Y-85412857D01*
X148136428Y-85391428D01*
X148115000Y-85370000D01*
X148093571Y-85327142D01*
X148093571Y-85220000D01*
X148115000Y-85155714D01*
X148543571Y-84962857D02*
X148093571Y-84962857D01*
X148093571Y-84791428D01*
X148115000Y-84748571D01*
X148136428Y-84727142D01*
X148179285Y-84705714D01*
X148243571Y-84705714D01*
X148286428Y-84727142D01*
X148307857Y-84748571D01*
X148329285Y-84791428D01*
X148329285Y-84962857D01*
X148543571Y-84512857D02*
X148093571Y-84512857D01*
X148693571Y-84191428D02*
X148050714Y-84191428D01*
X148115000Y-83634285D02*
X148093571Y-83677142D01*
X148093571Y-83741428D01*
X148115000Y-83805714D01*
X148157857Y-83848571D01*
X148200714Y-83870000D01*
X148286428Y-83891428D01*
X148350714Y-83891428D01*
X148436428Y-83870000D01*
X148479285Y-83848571D01*
X148522142Y-83805714D01*
X148543571Y-83741428D01*
X148543571Y-83698571D01*
X148522142Y-83634285D01*
X148500714Y-83612857D01*
X148350714Y-83612857D01*
X148350714Y-83698571D01*
X148543571Y-83420000D02*
X148093571Y-83420000D01*
X148543571Y-83162857D01*
X148093571Y-83162857D01*
X148543571Y-82948571D02*
X148093571Y-82948571D01*
X148093571Y-82841428D01*
X148115000Y-82777142D01*
X148157857Y-82734285D01*
X148200714Y-82712857D01*
X148286428Y-82691428D01*
X148350714Y-82691428D01*
X148436428Y-82712857D01*
X148479285Y-82734285D01*
X148522142Y-82777142D01*
X148543571Y-82841428D01*
X148543571Y-82948571D01*
D12*
X145606666Y-85897380D02*
X146225714Y-85897380D01*
X145892380Y-86278333D01*
X146035238Y-86278333D01*
X146130476Y-86325952D01*
X146178095Y-86373571D01*
X146225714Y-86468809D01*
X146225714Y-86706904D01*
X146178095Y-86802142D01*
X146130476Y-86849761D01*
X146035238Y-86897380D01*
X145749523Y-86897380D01*
X145654285Y-86849761D01*
X145606666Y-86802142D01*
X142954285Y-85992619D02*
X143001904Y-85945000D01*
X143097142Y-85897380D01*
X143335238Y-85897380D01*
X143430476Y-85945000D01*
X143478095Y-85992619D01*
X143525714Y-86087857D01*
X143525714Y-86183095D01*
X143478095Y-86325952D01*
X142906666Y-86897380D01*
X143525714Y-86897380D01*
X140725714Y-86897380D02*
X140154285Y-86897380D01*
X140440000Y-86897380D02*
X140440000Y-85897380D01*
X140344761Y-86040238D01*
X140249523Y-86135476D01*
X140154285Y-86183095D01*
X137492380Y-85897380D02*
X137587619Y-85897380D01*
X137682857Y-85945000D01*
X137730476Y-85992619D01*
X137778095Y-86087857D01*
X137825714Y-86278333D01*
X137825714Y-86516428D01*
X137778095Y-86706904D01*
X137730476Y-86802142D01*
X137682857Y-86849761D01*
X137587619Y-86897380D01*
X137492380Y-86897380D01*
X137397142Y-86849761D01*
X137349523Y-86802142D01*
X137301904Y-86706904D01*
X137254285Y-86516428D01*
X137254285Y-86278333D01*
X137301904Y-86087857D01*
X137349523Y-85992619D01*
X137397142Y-85945000D01*
X137492380Y-85897380D01*
D11*
X111030000Y-121870000D02*
X111030000Y-120540000D01*
X112360000Y-121870000D02*
X111030000Y-121870000D01*
X111030000Y-119270000D02*
X111030000Y-116670000D01*
X113630000Y-119270000D02*
X111030000Y-119270000D01*
X113630000Y-121870000D02*
X113630000Y-119270000D01*
X111030000Y-116670000D02*
X136550000Y-116670000D01*
X113630000Y-121870000D02*
X136550000Y-121870000D01*
X136550000Y-121870000D02*
X136550000Y-116670000D01*
X75370000Y-124360000D02*
X69400000Y-124360000D01*
X69400000Y-124360000D02*
X69400000Y-131980000D01*
X69400000Y-131980000D02*
X75370000Y-131980000D01*
X75370000Y-131980000D02*
X75370000Y-124360000D01*
X75360000Y-127670000D02*
X74610000Y-127670000D01*
X74610000Y-127670000D02*
X74610000Y-128670000D01*
X74610000Y-128670000D02*
X75360000Y-128670000D01*
X75360000Y-128670000D02*
X75360000Y-127670000D01*
X75360000Y-124370000D02*
X74610000Y-124370000D01*
X74610000Y-124370000D02*
X74610000Y-126170000D01*
X74610000Y-126170000D02*
X75360000Y-126170000D01*
X75360000Y-126170000D02*
X75360000Y-124370000D01*
X75360000Y-130170000D02*
X74610000Y-130170000D01*
X74610000Y-130170000D02*
X74610000Y-131970000D01*
X74610000Y-131970000D02*
X75360000Y-131970000D01*
X75360000Y-131970000D02*
X75360000Y-130170000D01*
X73110000Y-124370000D02*
X73110000Y-125120000D01*
X73110000Y-125120000D02*
X70160000Y-125120000D01*
X70160000Y-125120000D02*
X70160000Y-128170000D01*
X73110000Y-131970000D02*
X73110000Y-131220000D01*
X73110000Y-131220000D02*
X70160000Y-131220000D01*
X70160000Y-131220000D02*
X70160000Y-128170000D01*
X75660000Y-125320000D02*
X75660000Y-124070000D01*
X75660000Y-124070000D02*
X74410000Y-124070000D01*
X107600000Y-153680000D02*
X104675000Y-153680000D01*
X107600000Y-153680000D02*
X109100000Y-153680000D01*
X107600000Y-156900000D02*
X106100000Y-156900000D01*
X107600000Y-156900000D02*
X109100000Y-156900000D01*
X114064564Y-148415000D02*
X113610436Y-148415000D01*
X114064564Y-149885000D02*
X113610436Y-149885000D01*
X134058748Y-133965000D02*
X134581252Y-133965000D01*
X134058748Y-135435000D02*
X134581252Y-135435000D01*
X148230000Y-113730000D02*
X149480000Y-113730000D01*
X148230000Y-112480000D02*
X148230000Y-113730000D01*
X153730000Y-104080000D02*
X153730000Y-108380000D01*
X150780000Y-104080000D02*
X153730000Y-104080000D01*
X150780000Y-103330000D02*
X150780000Y-104080000D01*
X153730000Y-112680000D02*
X153730000Y-108380000D01*
X150780000Y-112680000D02*
X153730000Y-112680000D01*
X150780000Y-113430000D02*
X150780000Y-112680000D01*
X148530000Y-103330000D02*
X148530000Y-105130000D01*
X149280000Y-103330000D02*
X148530000Y-103330000D01*
X149280000Y-105130000D02*
X149280000Y-103330000D01*
X148530000Y-105130000D02*
X149280000Y-105130000D01*
X148530000Y-111630000D02*
X148530000Y-113430000D01*
X149280000Y-111630000D02*
X148530000Y-111630000D01*
X149280000Y-113430000D02*
X149280000Y-111630000D01*
X148530000Y-113430000D02*
X149280000Y-113430000D01*
X148530000Y-106630000D02*
X148530000Y-110130000D01*
X149280000Y-106630000D02*
X148530000Y-106630000D01*
X149280000Y-110130000D02*
X149280000Y-106630000D01*
X148530000Y-110130000D02*
X149280000Y-110130000D01*
X148520000Y-103320000D02*
X148520000Y-113440000D01*
X154490000Y-103320000D02*
X148520000Y-103320000D01*
X154490000Y-113440000D02*
X154490000Y-103320000D01*
X148520000Y-113440000D02*
X154490000Y-113440000D01*
X103371252Y-164295000D02*
X102848748Y-164295000D01*
X103371252Y-165765000D02*
X102848748Y-165765000D01*
X88980000Y-122495000D02*
X92890000Y-122495000D01*
X92890000Y-122495000D02*
X92890000Y-120625000D01*
X92890000Y-120625000D02*
X88980000Y-120625000D01*
X77325000Y-118707064D02*
X77325000Y-118252936D01*
X78795000Y-118707064D02*
X78795000Y-118252936D01*
X79255000Y-118707064D02*
X79255000Y-118252936D01*
X80725000Y-118707064D02*
X80725000Y-118252936D01*
X157220000Y-133510000D02*
X159770000Y-133510000D01*
X157220000Y-135210000D02*
X159770000Y-135210000D01*
X157220000Y-133510000D02*
X157220000Y-135210000D01*
X88040000Y-120600000D02*
X88040000Y-123150000D01*
X86340000Y-120600000D02*
X86340000Y-123150000D01*
X88040000Y-120600000D02*
X86340000Y-120600000D01*
X157420000Y-155820000D02*
X157870000Y-155820000D01*
X157870000Y-155820000D02*
X157870000Y-155370000D01*
X151100000Y-155820000D02*
X150650000Y-155820000D01*
X150650000Y-155820000D02*
X150650000Y-155370000D01*
X157420000Y-148600000D02*
X157870000Y-148600000D01*
X157870000Y-148600000D02*
X157870000Y-149050000D01*
X151100000Y-148600000D02*
X150650000Y-148600000D01*
X150650000Y-148600000D02*
X150650000Y-149050000D01*
X150650000Y-149050000D02*
X149360000Y-149050000D01*
X148800000Y-151450000D02*
X145500000Y-151450000D01*
X145500000Y-151450000D02*
X145500000Y-155450000D01*
X101465000Y-122762936D02*
X101465000Y-123217064D01*
X99995000Y-122762936D02*
X99995000Y-123217064D01*
X100015000Y-126637064D02*
X100015000Y-126182936D01*
X101485000Y-126637064D02*
X101485000Y-126182936D01*
X93485000Y-124102936D02*
X93485000Y-124557064D01*
X92015000Y-124102936D02*
X92015000Y-124557064D01*
X95425000Y-124102936D02*
X95425000Y-124557064D01*
X93955000Y-124102936D02*
X93955000Y-124557064D01*
X80742936Y-121545000D02*
X81197064Y-121545000D01*
X80742936Y-123015000D02*
X81197064Y-123015000D01*
X80742936Y-123475000D02*
X81197064Y-123475000D01*
X80742936Y-124945000D02*
X81197064Y-124945000D01*
X133105000Y-152787064D02*
X133105000Y-152332936D01*
X134575000Y-152787064D02*
X134575000Y-152332936D01*
X135085000Y-152747064D02*
X135085000Y-152292936D01*
X136555000Y-152747064D02*
X136555000Y-152292936D01*
X158685000Y-141142936D02*
X158685000Y-141597064D01*
X157215000Y-141142936D02*
X157215000Y-141597064D01*
X158625000Y-144572936D02*
X158625000Y-145027064D01*
X157155000Y-144572936D02*
X157155000Y-145027064D01*
X155125000Y-145047064D02*
X155125000Y-144592936D01*
X156595000Y-145047064D02*
X156595000Y-144592936D01*
X160755000Y-144572936D02*
X160755000Y-145027064D01*
X159285000Y-144572936D02*
X159285000Y-145027064D01*
X114165000Y-151742936D02*
X114165000Y-152197064D01*
X112695000Y-151742936D02*
X112695000Y-152197064D01*
X103357064Y-159875000D02*
X102902936Y-159875000D01*
X103357064Y-158405000D02*
X102902936Y-158405000D01*
X102912936Y-160355000D02*
X103367064Y-160355000D01*
X102912936Y-161825000D02*
X103367064Y-161825000D01*
X97567064Y-143925000D02*
X97112936Y-143925000D01*
X97567064Y-142455000D02*
X97112936Y-142455000D01*
X132605000Y-151852936D02*
X132605000Y-152307064D01*
X131135000Y-151852936D02*
X131135000Y-152307064D01*
X96140000Y-125110000D02*
X97070000Y-125110000D01*
X99300000Y-125110000D02*
X98370000Y-125110000D01*
X99300000Y-125110000D02*
X99300000Y-122950000D01*
X96140000Y-125110000D02*
X96140000Y-123650000D01*
X88420000Y-125130000D02*
X89350000Y-125130000D01*
X91580000Y-125130000D02*
X90650000Y-125130000D01*
X91580000Y-125130000D02*
X91580000Y-122970000D01*
X88420000Y-125130000D02*
X88420000Y-123670000D01*
X113970000Y-155100378D02*
X113970000Y-155899622D01*
X112850000Y-155100378D02*
X112850000Y-155899622D01*
X95260000Y-126220000D02*
X95260000Y-128220000D01*
X95260000Y-128220000D02*
X99110000Y-128220000D01*
X95260000Y-126220000D02*
X99110000Y-126220000D01*
X94830000Y-128260000D02*
X94830000Y-126260000D01*
X94830000Y-126260000D02*
X90980000Y-126260000D01*
X94830000Y-128260000D02*
X90980000Y-128260000D01*
X160910000Y-142390000D02*
X160910000Y-139705000D01*
X160910000Y-139705000D02*
X158990000Y-139705000D01*
X158990000Y-139705000D02*
X158990000Y-142390000D01*
X146525000Y-146558748D02*
X146525000Y-147081252D01*
X145055000Y-146558748D02*
X145055000Y-147081252D01*
X161505000Y-155638748D02*
X161505000Y-156161252D01*
X160035000Y-155638748D02*
X160035000Y-156161252D01*
X115868748Y-150595000D02*
X116391252Y-150595000D01*
X115868748Y-152065000D02*
X116391252Y-152065000D01*
X111360000Y-148125000D02*
X107450000Y-148125000D01*
X107450000Y-148125000D02*
X107450000Y-149995000D01*
X107450000Y-149995000D02*
X111360000Y-149995000D01*
X119448748Y-150605000D02*
X119971252Y-150605000D01*
X119448748Y-152075000D02*
X119971252Y-152075000D01*
X110151252Y-147705000D02*
X109628748Y-147705000D01*
X110151252Y-146235000D02*
X109628748Y-146235000D01*
X112151252Y-145735000D02*
X111628748Y-145735000D01*
X112151252Y-144265000D02*
X111628748Y-144265000D01*
X130615000Y-151818748D02*
X130615000Y-152341252D01*
X129145000Y-151818748D02*
X129145000Y-152341252D01*
X134068748Y-131955000D02*
X134591252Y-131955000D01*
X134068748Y-133425000D02*
X134591252Y-133425000D01*
X128595000Y-151808748D02*
X128595000Y-152331252D01*
X127125000Y-151808748D02*
X127125000Y-152331252D01*
X130498748Y-148605000D02*
X131021252Y-148605000D01*
X130498748Y-150075000D02*
X131021252Y-150075000D01*
X122848748Y-150595000D02*
X123371252Y-150595000D01*
X122848748Y-152065000D02*
X123371252Y-152065000D01*
X109925000Y-143818748D02*
X109925000Y-144341252D01*
X108455000Y-143818748D02*
X108455000Y-144341252D01*
X126565000Y-151808748D02*
X126565000Y-152331252D01*
X125095000Y-151808748D02*
X125095000Y-152331252D01*
X113831252Y-133375000D02*
X113308748Y-133375000D01*
X113831252Y-131905000D02*
X113308748Y-131905000D01*
X112151252Y-135345000D02*
X111628748Y-135345000D01*
X112151252Y-133875000D02*
X111628748Y-133875000D01*
X162970000Y-154480000D02*
X162970000Y-153480000D01*
X176720000Y-157730000D02*
X177220000Y-157730000D01*
X176720000Y-156730000D02*
X176720000Y-157730000D01*
X168720000Y-156730000D02*
X176720000Y-156730000D01*
X163220000Y-156730000D02*
X165220000Y-156730000D01*
X163220000Y-144230000D02*
X163220000Y-156730000D01*
X165220000Y-144230000D02*
X163220000Y-144230000D01*
X176720000Y-144230000D02*
X168720000Y-144230000D01*
X176720000Y-143230000D02*
X176720000Y-144230000D01*
X177220000Y-143230000D02*
X176720000Y-143230000D01*
X177220000Y-157730000D02*
X177220000Y-143230000D01*
X110240000Y-137710000D02*
X110240000Y-141710000D01*
X113540000Y-137710000D02*
X110240000Y-137710000D01*
X125540000Y-148980000D02*
X125540000Y-145530000D01*
X125540000Y-148980000D02*
X125540000Y-150930000D01*
X120420000Y-148980000D02*
X120420000Y-147030000D01*
X120420000Y-148980000D02*
X120420000Y-150930000D01*
X97914000Y-154172000D02*
X97914000Y-157622000D01*
X97914000Y-154172000D02*
X97914000Y-152222000D01*
X103034000Y-154172000D02*
X103034000Y-156122000D01*
X103034000Y-154172000D02*
X103034000Y-152222000D01*
X95570000Y-154160000D02*
X95570000Y-150710000D01*
X95570000Y-154160000D02*
X95570000Y-156110000D01*
X90450000Y-154160000D02*
X90450000Y-152210000D01*
X90450000Y-154160000D02*
X90450000Y-156110000D01*
X97499000Y-152339064D02*
X97499000Y-151884936D01*
X96029000Y-152339064D02*
X96029000Y-151884936D01*
X96025000Y-155930436D02*
X96025000Y-156384564D01*
X97495000Y-155930436D02*
X97495000Y-156384564D01*
X109742936Y-159865000D02*
X110197064Y-159865000D01*
X109742936Y-158395000D02*
X110197064Y-158395000D01*
X106352936Y-159865000D02*
X106807064Y-159865000D01*
X106352936Y-158395000D02*
X106807064Y-158395000D01*
X97690000Y-115370000D02*
X97690000Y-119250000D01*
X94570000Y-120420000D02*
X94570000Y-119370000D01*
X95720000Y-120420000D02*
X94570000Y-120420000D01*
X94570000Y-115250000D02*
X93580000Y-115250000D01*
X94570000Y-114200000D02*
X94570000Y-115250000D01*
X95720000Y-114200000D02*
X94570000Y-114200000D01*
X102890000Y-115360000D02*
X102890000Y-119240000D01*
X99770000Y-120410000D02*
X99770000Y-119360000D01*
X100920000Y-120410000D02*
X99770000Y-120410000D01*
X99770000Y-115240000D02*
X98780000Y-115240000D01*
X99770000Y-114190000D02*
X99770000Y-115240000D01*
X100920000Y-114190000D02*
X99770000Y-114190000D01*
X133900000Y-137250000D02*
X133900000Y-138500000D01*
X135150000Y-137250000D02*
X133900000Y-137250000D01*
X143550000Y-142750000D02*
X139250000Y-142750000D01*
X143550000Y-139800000D02*
X143550000Y-142750000D01*
X144300000Y-139800000D02*
X143550000Y-139800000D01*
X134950000Y-142750000D02*
X139250000Y-142750000D01*
X134950000Y-139800000D02*
X134950000Y-142750000D01*
X134200000Y-139800000D02*
X134950000Y-139800000D01*
X144300000Y-137550000D02*
X142500000Y-137550000D01*
X144300000Y-138300000D02*
X144300000Y-137550000D01*
X142500000Y-138300000D02*
X144300000Y-138300000D01*
X142500000Y-137550000D02*
X142500000Y-138300000D01*
X136000000Y-137550000D02*
X134200000Y-137550000D01*
X136000000Y-138300000D02*
X136000000Y-137550000D01*
X134200000Y-138300000D02*
X136000000Y-138300000D01*
X134200000Y-137550000D02*
X134200000Y-138300000D01*
X141000000Y-137550000D02*
X137500000Y-137550000D01*
X141000000Y-138300000D02*
X141000000Y-137550000D01*
X137500000Y-138300000D02*
X141000000Y-138300000D01*
X137500000Y-137550000D02*
X137500000Y-138300000D01*
X144310000Y-137540000D02*
X134190000Y-137540000D01*
X144310000Y-143510000D02*
X144310000Y-137540000D01*
X134190000Y-143510000D02*
X144310000Y-143510000D01*
X134190000Y-137540000D02*
X134190000Y-143510000D01*
X133900000Y-144190000D02*
X133900000Y-145440000D01*
X135150000Y-144190000D02*
X133900000Y-144190000D01*
X143550000Y-149690000D02*
X139250000Y-149690000D01*
X143550000Y-146740000D02*
X143550000Y-149690000D01*
X144300000Y-146740000D02*
X143550000Y-146740000D01*
X134950000Y-149690000D02*
X139250000Y-149690000D01*
X134950000Y-146740000D02*
X134950000Y-149690000D01*
X134200000Y-146740000D02*
X134950000Y-146740000D01*
X144300000Y-144490000D02*
X142500000Y-144490000D01*
X144300000Y-145240000D02*
X144300000Y-144490000D01*
X142500000Y-145240000D02*
X144300000Y-145240000D01*
X142500000Y-144490000D02*
X142500000Y-145240000D01*
X136000000Y-144490000D02*
X134200000Y-144490000D01*
X136000000Y-145240000D02*
X136000000Y-144490000D01*
X134200000Y-145240000D02*
X136000000Y-145240000D01*
X134200000Y-144490000D02*
X134200000Y-145240000D01*
X141000000Y-144490000D02*
X137500000Y-144490000D01*
X141000000Y-145240000D02*
X141000000Y-144490000D01*
X137500000Y-145240000D02*
X141000000Y-145240000D01*
X137500000Y-144490000D02*
X137500000Y-145240000D01*
X144310000Y-144480000D02*
X134190000Y-144480000D01*
X144310000Y-150450000D02*
X144310000Y-144480000D01*
X134190000Y-150450000D02*
X144310000Y-150450000D01*
X134190000Y-144480000D02*
X134190000Y-150450000D01*
X106900000Y-144650000D02*
X106900000Y-145980000D01*
X105570000Y-144650000D02*
X106900000Y-144650000D01*
X104300000Y-144650000D02*
X104300000Y-147310000D01*
X104300000Y-147310000D02*
X99160000Y-147310000D01*
X104300000Y-144650000D02*
X99160000Y-144650000D01*
X99160000Y-144650000D02*
X99160000Y-147310000D01*
X138675000Y-130250000D02*
X138675000Y-130185000D01*
X142205000Y-130250000D02*
X142205000Y-130185000D01*
X138675000Y-136655000D02*
X138675000Y-136590000D01*
X142205000Y-136655000D02*
X142205000Y-136590000D01*
X143530000Y-136590000D02*
X142205000Y-136590000D01*
X142205000Y-130185000D02*
X138675000Y-130185000D01*
X142205000Y-136655000D02*
X138675000Y-136655000D01*
X106900000Y-147470000D02*
X106900000Y-148800000D01*
X105570000Y-147470000D02*
X106900000Y-147470000D01*
X104300000Y-147470000D02*
X104300000Y-150130000D01*
X104300000Y-150130000D02*
X99160000Y-150130000D01*
X104300000Y-147470000D02*
X99160000Y-147470000D01*
X99160000Y-147470000D02*
X99160000Y-150130000D01*
X112141252Y-142065000D02*
X111618748Y-142065000D01*
X112141252Y-143535000D02*
X111618748Y-143535000D01*
X111628748Y-137335000D02*
X112151252Y-137335000D01*
X111628748Y-135865000D02*
X112151252Y-135865000D01*
X122732936Y-155085000D02*
X123187064Y-155085000D01*
X122732936Y-153615000D02*
X123187064Y-153615000D01*
X120390000Y-154930000D02*
X120890000Y-155930000D01*
X121390000Y-154930000D02*
X120390000Y-154930000D01*
X120890000Y-155930000D02*
X121390000Y-154930000D01*
X116300000Y-157630000D02*
X116300000Y-156320000D01*
X116300000Y-157630000D02*
X116300000Y-157630000D01*
X111900000Y-157630000D02*
X116300000Y-157630000D01*
X111900000Y-164130000D02*
X111900000Y-157630000D01*
X124800000Y-164130000D02*
X111900000Y-164130000D01*
X124800000Y-157630000D02*
X124800000Y-164130000D01*
X120400000Y-157630000D02*
X124800000Y-157630000D01*
X120400000Y-156320000D02*
X120400000Y-157630000D01*
X110600000Y-156320000D02*
X126100000Y-156320000D01*
X110600000Y-165440000D02*
X110600000Y-156320000D01*
X126100000Y-165440000D02*
X110600000Y-165440000D01*
X126100000Y-156320000D02*
X126100000Y-165440000D01*
X148370000Y-101280000D02*
X149620000Y-101280000D01*
X148370000Y-100030000D02*
X148370000Y-101280000D01*
X153870000Y-91630000D02*
X153870000Y-95930000D01*
X150920000Y-91630000D02*
X153870000Y-91630000D01*
X150920000Y-90880000D02*
X150920000Y-91630000D01*
X153870000Y-100230000D02*
X153870000Y-95930000D01*
X150920000Y-100230000D02*
X153870000Y-100230000D01*
X150920000Y-100980000D02*
X150920000Y-100230000D01*
X148670000Y-90880000D02*
X148670000Y-92680000D01*
X149420000Y-90880000D02*
X148670000Y-90880000D01*
X149420000Y-92680000D02*
X149420000Y-90880000D01*
X148670000Y-92680000D02*
X149420000Y-92680000D01*
X148670000Y-99180000D02*
X148670000Y-100980000D01*
X149420000Y-99180000D02*
X148670000Y-99180000D01*
X149420000Y-100980000D02*
X149420000Y-99180000D01*
X148670000Y-100980000D02*
X149420000Y-100980000D01*
X148670000Y-94180000D02*
X148670000Y-97680000D01*
X149420000Y-94180000D02*
X148670000Y-94180000D01*
X149420000Y-97680000D02*
X149420000Y-94180000D01*
X148670000Y-97680000D02*
X149420000Y-97680000D01*
X148660000Y-90870000D02*
X148660000Y-100990000D01*
X154630000Y-90870000D02*
X148660000Y-90870000D01*
X154630000Y-100990000D02*
X154630000Y-90870000D01*
X148660000Y-100990000D02*
X154630000Y-100990000D01*
X216820000Y-112200000D02*
X218070000Y-112200000D01*
X216820000Y-110950000D02*
X216820000Y-112200000D01*
X222320000Y-102550000D02*
X222320000Y-106850000D01*
X219370000Y-102550000D02*
X222320000Y-102550000D01*
X219370000Y-101800000D02*
X219370000Y-102550000D01*
X222320000Y-111150000D02*
X222320000Y-106850000D01*
X219370000Y-111150000D02*
X222320000Y-111150000D01*
X219370000Y-111900000D02*
X219370000Y-111150000D01*
X217120000Y-101800000D02*
X217120000Y-103600000D01*
X217870000Y-101800000D02*
X217120000Y-101800000D01*
X217870000Y-103600000D02*
X217870000Y-101800000D01*
X217120000Y-103600000D02*
X217870000Y-103600000D01*
X217120000Y-110100000D02*
X217120000Y-111900000D01*
X217870000Y-110100000D02*
X217120000Y-110100000D01*
X217870000Y-111900000D02*
X217870000Y-110100000D01*
X217120000Y-111900000D02*
X217870000Y-111900000D01*
X217120000Y-105100000D02*
X217120000Y-108600000D01*
X217870000Y-105100000D02*
X217120000Y-105100000D01*
X217870000Y-108600000D02*
X217870000Y-105100000D01*
X217120000Y-108600000D02*
X217870000Y-108600000D01*
X217110000Y-101790000D02*
X217110000Y-111910000D01*
X223080000Y-101790000D02*
X217110000Y-101790000D01*
X223080000Y-111910000D02*
X223080000Y-101790000D01*
X217110000Y-111910000D02*
X223080000Y-111910000D01*
X155290000Y-113540000D02*
X156540000Y-113540000D01*
X155290000Y-112290000D02*
X155290000Y-113540000D01*
X160790000Y-103890000D02*
X160790000Y-108190000D01*
X157840000Y-103890000D02*
X160790000Y-103890000D01*
X157840000Y-103140000D02*
X157840000Y-103890000D01*
X160790000Y-112490000D02*
X160790000Y-108190000D01*
X157840000Y-112490000D02*
X160790000Y-112490000D01*
X157840000Y-113240000D02*
X157840000Y-112490000D01*
X155590000Y-103140000D02*
X155590000Y-104940000D01*
X156340000Y-103140000D02*
X155590000Y-103140000D01*
X156340000Y-104940000D02*
X156340000Y-103140000D01*
X155590000Y-104940000D02*
X156340000Y-104940000D01*
X155590000Y-111440000D02*
X155590000Y-113240000D01*
X156340000Y-111440000D02*
X155590000Y-111440000D01*
X156340000Y-113240000D02*
X156340000Y-111440000D01*
X155590000Y-113240000D02*
X156340000Y-113240000D01*
X155590000Y-106440000D02*
X155590000Y-109940000D01*
X156340000Y-106440000D02*
X155590000Y-106440000D01*
X156340000Y-109940000D02*
X156340000Y-106440000D01*
X155590000Y-109940000D02*
X156340000Y-109940000D01*
X155580000Y-103130000D02*
X155580000Y-113250000D01*
X161550000Y-103130000D02*
X155580000Y-103130000D01*
X161550000Y-113250000D02*
X161550000Y-103130000D01*
X155580000Y-113250000D02*
X161550000Y-113250000D01*
X155300000Y-101260000D02*
X156550000Y-101260000D01*
X155300000Y-100010000D02*
X155300000Y-101260000D01*
X160800000Y-91610000D02*
X160800000Y-95910000D01*
X157850000Y-91610000D02*
X160800000Y-91610000D01*
X157850000Y-90860000D02*
X157850000Y-91610000D01*
X160800000Y-100210000D02*
X160800000Y-95910000D01*
X157850000Y-100210000D02*
X160800000Y-100210000D01*
X157850000Y-100960000D02*
X157850000Y-100210000D01*
X155600000Y-90860000D02*
X155600000Y-92660000D01*
X156350000Y-90860000D02*
X155600000Y-90860000D01*
X156350000Y-92660000D02*
X156350000Y-90860000D01*
X155600000Y-92660000D02*
X156350000Y-92660000D01*
X155600000Y-99160000D02*
X155600000Y-100960000D01*
X156350000Y-99160000D02*
X155600000Y-99160000D01*
X156350000Y-100960000D02*
X156350000Y-99160000D01*
X155600000Y-100960000D02*
X156350000Y-100960000D01*
X155600000Y-94160000D02*
X155600000Y-97660000D01*
X156350000Y-94160000D02*
X155600000Y-94160000D01*
X156350000Y-97660000D02*
X156350000Y-94160000D01*
X155600000Y-97660000D02*
X156350000Y-97660000D01*
X155590000Y-90850000D02*
X155590000Y-100970000D01*
X161560000Y-90850000D02*
X155590000Y-90850000D01*
X161560000Y-100970000D02*
X161560000Y-90850000D01*
X155590000Y-100970000D02*
X161560000Y-100970000D01*
X162130000Y-113520000D02*
X163380000Y-113520000D01*
X162130000Y-112270000D02*
X162130000Y-113520000D01*
X167630000Y-103870000D02*
X167630000Y-108170000D01*
X164680000Y-103870000D02*
X167630000Y-103870000D01*
X164680000Y-103120000D02*
X164680000Y-103870000D01*
X167630000Y-112470000D02*
X167630000Y-108170000D01*
X164680000Y-112470000D02*
X167630000Y-112470000D01*
X164680000Y-113220000D02*
X164680000Y-112470000D01*
X162430000Y-103120000D02*
X162430000Y-104920000D01*
X163180000Y-103120000D02*
X162430000Y-103120000D01*
X163180000Y-104920000D02*
X163180000Y-103120000D01*
X162430000Y-104920000D02*
X163180000Y-104920000D01*
X162430000Y-111420000D02*
X162430000Y-113220000D01*
X163180000Y-111420000D02*
X162430000Y-111420000D01*
X163180000Y-113220000D02*
X163180000Y-111420000D01*
X162430000Y-113220000D02*
X163180000Y-113220000D01*
X162430000Y-106420000D02*
X162430000Y-109920000D01*
X163180000Y-106420000D02*
X162430000Y-106420000D01*
X163180000Y-109920000D02*
X163180000Y-106420000D01*
X162430000Y-109920000D02*
X163180000Y-109920000D01*
X162420000Y-103110000D02*
X162420000Y-113230000D01*
X168390000Y-103110000D02*
X162420000Y-103110000D01*
X168390000Y-113230000D02*
X168390000Y-103110000D01*
X162420000Y-113230000D02*
X168390000Y-113230000D01*
X162080000Y-101210000D02*
X163330000Y-101210000D01*
X162080000Y-99960000D02*
X162080000Y-101210000D01*
X167580000Y-91560000D02*
X167580000Y-95860000D01*
X164630000Y-91560000D02*
X167580000Y-91560000D01*
X164630000Y-90810000D02*
X164630000Y-91560000D01*
X167580000Y-100160000D02*
X167580000Y-95860000D01*
X164630000Y-100160000D02*
X167580000Y-100160000D01*
X164630000Y-100910000D02*
X164630000Y-100160000D01*
X162380000Y-90810000D02*
X162380000Y-92610000D01*
X163130000Y-90810000D02*
X162380000Y-90810000D01*
X163130000Y-92610000D02*
X163130000Y-90810000D01*
X162380000Y-92610000D02*
X163130000Y-92610000D01*
X162380000Y-99110000D02*
X162380000Y-100910000D01*
X163130000Y-99110000D02*
X162380000Y-99110000D01*
X163130000Y-100910000D02*
X163130000Y-99110000D01*
X162380000Y-100910000D02*
X163130000Y-100910000D01*
X162380000Y-94110000D02*
X162380000Y-97610000D01*
X163130000Y-94110000D02*
X162380000Y-94110000D01*
X163130000Y-97610000D02*
X163130000Y-94110000D01*
X162380000Y-97610000D02*
X163130000Y-97610000D01*
X162370000Y-90800000D02*
X162370000Y-100920000D01*
X168340000Y-90800000D02*
X162370000Y-90800000D01*
X168340000Y-100920000D02*
X168340000Y-90800000D01*
X162370000Y-100920000D02*
X168340000Y-100920000D01*
X162870000Y-127010000D02*
X162870000Y-126010000D01*
X176620000Y-130260000D02*
X177120000Y-130260000D01*
X176620000Y-129260000D02*
X176620000Y-130260000D01*
X168620000Y-129260000D02*
X176620000Y-129260000D01*
X163120000Y-129260000D02*
X165120000Y-129260000D01*
X163120000Y-116760000D02*
X163120000Y-129260000D01*
X165120000Y-116760000D02*
X163120000Y-116760000D01*
X176620000Y-116760000D02*
X168620000Y-116760000D01*
X176620000Y-115760000D02*
X176620000Y-116760000D01*
X177120000Y-115760000D02*
X176620000Y-115760000D01*
X177120000Y-130260000D02*
X177120000Y-115760000D01*
X148210000Y-159750000D02*
X149210000Y-159750000D01*
X144960000Y-173500000D02*
X144960000Y-174000000D01*
X145960000Y-173500000D02*
X144960000Y-173500000D01*
X145960000Y-165500000D02*
X145960000Y-173500000D01*
X145960000Y-160000000D02*
X145960000Y-162000000D01*
X158460000Y-160000000D02*
X145960000Y-160000000D01*
X158460000Y-162000000D02*
X158460000Y-160000000D01*
X158460000Y-173500000D02*
X158460000Y-165500000D01*
X159460000Y-173500000D02*
X158460000Y-173500000D01*
X159460000Y-174000000D02*
X159460000Y-173500000D01*
X144960000Y-174000000D02*
X159460000Y-174000000D01*
X83320000Y-165250000D02*
X86930000Y-165250000D01*
X86930000Y-165250000D02*
X86930000Y-164915000D01*
X83320000Y-165250000D02*
X79710000Y-165250000D01*
X79710000Y-165250000D02*
X79710000Y-164915000D01*
X83320000Y-158030000D02*
X86930000Y-158030000D01*
X86930000Y-158030000D02*
X86930000Y-158365000D01*
X83320000Y-158030000D02*
X79710000Y-158030000D01*
X79710000Y-158030000D02*
X79710000Y-158365000D01*
X79710000Y-158365000D02*
X77720000Y-158365000D01*
X95490000Y-165300000D02*
X99100000Y-165300000D01*
X99100000Y-165300000D02*
X99100000Y-164965000D01*
X95490000Y-165300000D02*
X91880000Y-165300000D01*
X91880000Y-165300000D02*
X91880000Y-164965000D01*
X95490000Y-158080000D02*
X99100000Y-158080000D01*
X99100000Y-158080000D02*
X99100000Y-158415000D01*
X95490000Y-158080000D02*
X91880000Y-158080000D01*
X91880000Y-158080000D02*
X91880000Y-158415000D01*
X91880000Y-158415000D02*
X89890000Y-158415000D01*
X75360000Y-149750000D02*
X69390000Y-149750000D01*
X69390000Y-149750000D02*
X69390000Y-157370000D01*
X69390000Y-157370000D02*
X75360000Y-157370000D01*
X75360000Y-157370000D02*
X75360000Y-149750000D01*
X75350000Y-153060000D02*
X74600000Y-153060000D01*
X74600000Y-153060000D02*
X74600000Y-154060000D01*
X74600000Y-154060000D02*
X75350000Y-154060000D01*
X75350000Y-154060000D02*
X75350000Y-153060000D01*
X75350000Y-149760000D02*
X74600000Y-149760000D01*
X74600000Y-149760000D02*
X74600000Y-151560000D01*
X74600000Y-151560000D02*
X75350000Y-151560000D01*
X75350000Y-151560000D02*
X75350000Y-149760000D01*
X75350000Y-155560000D02*
X74600000Y-155560000D01*
X74600000Y-155560000D02*
X74600000Y-157360000D01*
X74600000Y-157360000D02*
X75350000Y-157360000D01*
X75350000Y-157360000D02*
X75350000Y-155560000D01*
X73100000Y-149760000D02*
X73100000Y-150510000D01*
X73100000Y-150510000D02*
X70150000Y-150510000D01*
X70150000Y-150510000D02*
X70150000Y-153560000D01*
X73100000Y-157360000D02*
X73100000Y-156610000D01*
X73100000Y-156610000D02*
X70150000Y-156610000D01*
X70150000Y-156610000D02*
X70150000Y-153560000D01*
X75650000Y-150710000D02*
X75650000Y-149460000D01*
X75650000Y-149460000D02*
X74400000Y-149460000D01*
X108600000Y-165460000D02*
X112050000Y-165460000D01*
X108600000Y-165460000D02*
X106650000Y-165460000D01*
X108600000Y-160340000D02*
X110550000Y-160340000D01*
X108600000Y-160340000D02*
X106650000Y-160340000D01*
X77705000Y-143387064D02*
X77705000Y-142932936D01*
X76235000Y-143387064D02*
X76235000Y-142932936D01*
X77745000Y-134647064D02*
X77745000Y-134192936D01*
X76275000Y-134647064D02*
X76275000Y-134192936D01*
X77625000Y-152207064D02*
X77625000Y-151752936D01*
X76155000Y-152207064D02*
X76155000Y-151752936D01*
X77805000Y-126877064D02*
X77805000Y-126422936D01*
X76335000Y-126877064D02*
X76335000Y-126422936D01*
X103367064Y-162325000D02*
X102912936Y-162325000D01*
X103367064Y-163795000D02*
X102912936Y-163795000D01*
X112515000Y-164032936D02*
X112515000Y-164487064D01*
X113985000Y-164032936D02*
X113985000Y-164487064D01*
X77930000Y-148257500D02*
X77930000Y-145572500D01*
X76010000Y-148257500D02*
X77930000Y-148257500D01*
X76010000Y-145572500D02*
X76010000Y-148257500D01*
X77970000Y-139525000D02*
X77970000Y-136840000D01*
X76050000Y-139525000D02*
X77970000Y-139525000D01*
X76050000Y-136840000D02*
X76050000Y-139525000D01*
X77850000Y-157085000D02*
X77850000Y-154400000D01*
X75930000Y-157085000D02*
X77850000Y-157085000D01*
X75930000Y-154400000D02*
X75930000Y-157085000D01*
X78030000Y-131755000D02*
X78030000Y-129070000D01*
X76110000Y-131755000D02*
X78030000Y-131755000D01*
X76110000Y-129070000D02*
X76110000Y-131755000D01*
X84560000Y-113460000D02*
X90570000Y-113460000D01*
X86810000Y-120280000D02*
X90570000Y-120280000D01*
X90570000Y-113460000D02*
X90570000Y-114720000D01*
X90570000Y-120280000D02*
X90570000Y-119020000D01*
X130020000Y-141570000D02*
X130720000Y-141570000D01*
X130720000Y-141570000D02*
X130720000Y-140870000D01*
X117200000Y-141570000D02*
X116500000Y-141570000D01*
X116500000Y-141570000D02*
X116500000Y-140870000D01*
X130020000Y-127350000D02*
X130720000Y-127350000D01*
X130720000Y-127350000D02*
X130720000Y-128050000D01*
X117200000Y-127350000D02*
X116500000Y-127350000D01*
X116500000Y-127350000D02*
X116500000Y-128050000D01*
X116500000Y-128050000D02*
X115135000Y-128050000D01*
X75555000Y-123627064D02*
X75555000Y-123172936D01*
X77025000Y-123627064D02*
X77025000Y-123172936D01*
X77525000Y-123617064D02*
X77525000Y-123162936D01*
X78995000Y-123617064D02*
X78995000Y-123162936D01*
X85210000Y-124850000D02*
X85210000Y-123920000D01*
X85210000Y-121690000D02*
X85210000Y-122620000D01*
X85210000Y-121690000D02*
X83050000Y-121690000D01*
X85210000Y-124850000D02*
X83750000Y-124850000D01*
X71970000Y-124180000D02*
X72900000Y-124180000D01*
X75130000Y-124180000D02*
X74200000Y-124180000D01*
X75130000Y-124180000D02*
X75130000Y-122020000D01*
X71970000Y-124180000D02*
X71970000Y-122720000D01*
X75410000Y-141320000D02*
X69440000Y-141320000D01*
X69440000Y-141320000D02*
X69440000Y-148940000D01*
X69440000Y-148940000D02*
X75410000Y-148940000D01*
X75410000Y-148940000D02*
X75410000Y-141320000D01*
X75400000Y-144630000D02*
X74650000Y-144630000D01*
X74650000Y-144630000D02*
X74650000Y-145630000D01*
X74650000Y-145630000D02*
X75400000Y-145630000D01*
X75400000Y-145630000D02*
X75400000Y-144630000D01*
X75400000Y-141330000D02*
X74650000Y-141330000D01*
X74650000Y-141330000D02*
X74650000Y-143130000D01*
X74650000Y-143130000D02*
X75400000Y-143130000D01*
X75400000Y-143130000D02*
X75400000Y-141330000D01*
X75400000Y-147130000D02*
X74650000Y-147130000D01*
X74650000Y-147130000D02*
X74650000Y-148930000D01*
X74650000Y-148930000D02*
X75400000Y-148930000D01*
X75400000Y-148930000D02*
X75400000Y-147130000D01*
X73150000Y-141330000D02*
X73150000Y-142080000D01*
X73150000Y-142080000D02*
X70200000Y-142080000D01*
X70200000Y-142080000D02*
X70200000Y-145130000D01*
X73150000Y-148930000D02*
X73150000Y-148180000D01*
X73150000Y-148180000D02*
X70200000Y-148180000D01*
X70200000Y-148180000D02*
X70200000Y-145130000D01*
X75700000Y-142280000D02*
X75700000Y-141030000D01*
X75700000Y-141030000D02*
X74450000Y-141030000D01*
X75440000Y-132850000D02*
X69470000Y-132850000D01*
X69470000Y-132850000D02*
X69470000Y-140470000D01*
X69470000Y-140470000D02*
X75440000Y-140470000D01*
X75440000Y-140470000D02*
X75440000Y-132850000D01*
X75430000Y-136160000D02*
X74680000Y-136160000D01*
X74680000Y-136160000D02*
X74680000Y-137160000D01*
X74680000Y-137160000D02*
X75430000Y-137160000D01*
X75430000Y-137160000D02*
X75430000Y-136160000D01*
X75430000Y-132860000D02*
X74680000Y-132860000D01*
X74680000Y-132860000D02*
X74680000Y-134660000D01*
X74680000Y-134660000D02*
X75430000Y-134660000D01*
X75430000Y-134660000D02*
X75430000Y-132860000D01*
X75430000Y-138660000D02*
X74680000Y-138660000D01*
X74680000Y-138660000D02*
X74680000Y-140460000D01*
X74680000Y-140460000D02*
X75430000Y-140460000D01*
X75430000Y-140460000D02*
X75430000Y-138660000D01*
X73180000Y-132860000D02*
X73180000Y-133610000D01*
X73180000Y-133610000D02*
X70230000Y-133610000D01*
X70230000Y-133610000D02*
X70230000Y-136660000D01*
X73180000Y-140460000D02*
X73180000Y-139710000D01*
X73180000Y-139710000D02*
X70230000Y-139710000D01*
X70230000Y-139710000D02*
X70230000Y-136660000D01*
X75730000Y-133810000D02*
X75730000Y-132560000D01*
X75730000Y-132560000D02*
X74480000Y-132560000D01*
X169490000Y-132720000D02*
X169490000Y-141660000D01*
X163980000Y-132720000D02*
X165780000Y-132720000D01*
X169490000Y-132720000D02*
X168030000Y-132720000D01*
X169490000Y-141660000D02*
X168030000Y-141660000D01*
X163980000Y-141660000D02*
X165780000Y-141660000D01*
X81120000Y-121190000D02*
X83120000Y-121190000D01*
X83120000Y-121190000D02*
X83120000Y-117340000D01*
X81120000Y-121190000D02*
X81120000Y-117340000D01*
X80360000Y-126300000D02*
X78360000Y-126300000D01*
X78360000Y-126300000D02*
X78360000Y-130150000D01*
X80360000Y-126300000D02*
X80360000Y-130150000D01*
X68475000Y-119865000D02*
X68475000Y-110925000D01*
X73985000Y-119865000D02*
X72185000Y-119865000D01*
X68475000Y-119865000D02*
X69935000Y-119865000D01*
X68475000Y-110925000D02*
X69935000Y-110925000D01*
X73985000Y-110925000D02*
X72185000Y-110925000D01*
X82437936Y-105610000D02*
X82892064Y-105610000D01*
X82437936Y-107080000D02*
X82892064Y-107080000D01*
X76040000Y-109855000D02*
X70540000Y-109855000D01*
X69930000Y-109245000D02*
X69930000Y-108395000D01*
X76650000Y-108395000D02*
X76650000Y-109245000D01*
X76650000Y-103745000D02*
X76650000Y-104595000D01*
X70540000Y-103135000D02*
X76040000Y-103135000D01*
X69930000Y-104595000D02*
X69930000Y-103745000D01*
X76650000Y-109245000D02*
G75*
G02*
X76040000Y-109855000I-610000J0D01*
G01*
X70540000Y-109855000D02*
G75*
G02*
X69930000Y-109245000I0J610000D01*
G01*
X76040000Y-103135000D02*
G75*
G02*
X76650000Y-103745000I0J-610000D01*
G01*
X69930000Y-103745000D02*
G75*
G02*
X70540000Y-103135000I610000J0D01*
G01*
X81505000Y-99806252D02*
X81505000Y-99283748D01*
X82975000Y-99806252D02*
X82975000Y-99283748D01*
X83201252Y-97255000D02*
X82678748Y-97255000D01*
X83201252Y-95785000D02*
X82678748Y-95785000D01*
D10*
X79490000Y-100720000D02*
X79490000Y-100670000D01*
X75340000Y-100720000D02*
X75340000Y-100575000D01*
X75340000Y-95570000D02*
X75340000Y-95715000D01*
X79490000Y-95570000D02*
X79490000Y-95715000D01*
X79490000Y-100720000D02*
X75340000Y-100720000D01*
X79490000Y-95570000D02*
X75340000Y-95570000D01*
X79490000Y-100670000D02*
X80890000Y-100670000D01*
D11*
X78937936Y-103585000D02*
X79392064Y-103585000D01*
X78937936Y-105055000D02*
X79392064Y-105055000D01*
X78962936Y-105585000D02*
X79417064Y-105585000D01*
X78962936Y-107055000D02*
X79417064Y-107055000D01*
X82412936Y-101560000D02*
X82867064Y-101560000D01*
X82412936Y-103030000D02*
X82867064Y-103030000D01*
X69215000Y-102770000D02*
X73515000Y-102770000D01*
X73515000Y-102770000D02*
X73515000Y-97070000D01*
X69215000Y-102770000D02*
X69215000Y-97070000D01*
X83910000Y-108640000D02*
X81560000Y-108640000D01*
X77090000Y-108640000D02*
X79440000Y-108640000D01*
X77090000Y-114395563D02*
X77090000Y-108640000D01*
X83910000Y-114395563D02*
X83910000Y-108640000D01*
X82845563Y-115460000D02*
X81560000Y-115460000D01*
X78154437Y-115460000D02*
X79440000Y-115460000D01*
X78154437Y-115460000D02*
X77090000Y-114395563D01*
X82845563Y-115460000D02*
X83910000Y-114395563D01*
X78652500Y-116487500D02*
X78652500Y-115700000D01*
X78258750Y-116093750D02*
X79046250Y-116093750D01*
X75153748Y-101210000D02*
X75676252Y-101210000D01*
X75153748Y-102680000D02*
X75676252Y-102680000D01*
X79451252Y-102680000D02*
X78928748Y-102680000D01*
X79451252Y-101210000D02*
X78928748Y-101210000D01*
X82901252Y-105080000D02*
X82378748Y-105080000D01*
X82901252Y-103610000D02*
X82378748Y-103610000D01*
X105340000Y-113120000D02*
X105340000Y-100290000D01*
X84760000Y-113120000D02*
X105340000Y-113120000D01*
X84760000Y-97620000D02*
X84760000Y-113120000D01*
X102670000Y-97620000D02*
X84760000Y-97620000D01*
X102670000Y-100290000D02*
X102670000Y-97620000D01*
X105340000Y-100290000D02*
X102670000Y-100290000D01*
X105340000Y-97620000D02*
X103940000Y-97620000D01*
X105340000Y-99020000D02*
X105340000Y-97620000D01*
X102670000Y-100290000D02*
X84760000Y-100290000D01*
X105340000Y-110450000D02*
X84760000Y-110450000D01*
X69430000Y-89670000D02*
X69430000Y-93120000D01*
X69430000Y-89670000D02*
X69430000Y-87720000D01*
X74550000Y-89670000D02*
X74550000Y-91620000D01*
X74550000Y-89670000D02*
X74550000Y-87720000D01*
X122640000Y-97120000D02*
X122640000Y-95870000D01*
X121390000Y-97120000D02*
X122640000Y-97120000D01*
X110490000Y-91620000D02*
X116040000Y-91620000D01*
X110490000Y-94570000D02*
X110490000Y-91620000D01*
X109740000Y-94570000D02*
X110490000Y-94570000D01*
X121590000Y-91620000D02*
X116040000Y-91620000D01*
X121590000Y-94570000D02*
X121590000Y-91620000D01*
X122340000Y-94570000D02*
X121590000Y-94570000D01*
X109740000Y-96820000D02*
X111540000Y-96820000D01*
X109740000Y-96070000D02*
X109740000Y-96820000D01*
X111540000Y-96070000D02*
X109740000Y-96070000D01*
X111540000Y-96820000D02*
X111540000Y-96070000D01*
X120540000Y-96820000D02*
X122340000Y-96820000D01*
X120540000Y-96070000D02*
X120540000Y-96820000D01*
X122340000Y-96070000D02*
X120540000Y-96070000D01*
X122340000Y-96820000D02*
X122340000Y-96070000D01*
X113040000Y-96820000D02*
X119040000Y-96820000D01*
X113040000Y-96070000D02*
X113040000Y-96820000D01*
X119040000Y-96070000D02*
X113040000Y-96070000D01*
X119040000Y-96820000D02*
X119040000Y-96070000D01*
X109730000Y-96830000D02*
X122350000Y-96830000D01*
X109730000Y-90860000D02*
X109730000Y-96830000D01*
X122350000Y-90860000D02*
X109730000Y-90860000D01*
X122350000Y-96830000D02*
X122350000Y-90860000D01*
X143640000Y-97170000D02*
X143640000Y-95920000D01*
X142390000Y-97170000D02*
X143640000Y-97170000D01*
X131490000Y-91670000D02*
X137040000Y-91670000D01*
X131490000Y-94620000D02*
X131490000Y-91670000D01*
X130740000Y-94620000D02*
X131490000Y-94620000D01*
X142590000Y-91670000D02*
X137040000Y-91670000D01*
X142590000Y-94620000D02*
X142590000Y-91670000D01*
X143340000Y-94620000D02*
X142590000Y-94620000D01*
X130740000Y-96870000D02*
X132540000Y-96870000D01*
X130740000Y-96120000D02*
X130740000Y-96870000D01*
X132540000Y-96120000D02*
X130740000Y-96120000D01*
X132540000Y-96870000D02*
X132540000Y-96120000D01*
X141540000Y-96870000D02*
X143340000Y-96870000D01*
X141540000Y-96120000D02*
X141540000Y-96870000D01*
X143340000Y-96120000D02*
X141540000Y-96120000D01*
X143340000Y-96870000D02*
X143340000Y-96120000D01*
X134040000Y-96870000D02*
X140040000Y-96870000D01*
X134040000Y-96120000D02*
X134040000Y-96870000D01*
X140040000Y-96120000D02*
X134040000Y-96120000D01*
X140040000Y-96870000D02*
X140040000Y-96120000D01*
X130730000Y-96880000D02*
X143350000Y-96880000D01*
X130730000Y-90910000D02*
X130730000Y-96880000D01*
X143350000Y-90910000D02*
X130730000Y-90910000D01*
X143350000Y-96880000D02*
X143350000Y-90910000D01*
X101690000Y-97170000D02*
X101690000Y-95920000D01*
X100440000Y-97170000D02*
X101690000Y-97170000D01*
X89540000Y-91670000D02*
X95090000Y-91670000D01*
X89540000Y-94620000D02*
X89540000Y-91670000D01*
X88790000Y-94620000D02*
X89540000Y-94620000D01*
X100640000Y-91670000D02*
X95090000Y-91670000D01*
X100640000Y-94620000D02*
X100640000Y-91670000D01*
X101390000Y-94620000D02*
X100640000Y-94620000D01*
X88790000Y-96870000D02*
X90590000Y-96870000D01*
X88790000Y-96120000D02*
X88790000Y-96870000D01*
X90590000Y-96120000D02*
X88790000Y-96120000D01*
X90590000Y-96870000D02*
X90590000Y-96120000D01*
X99590000Y-96870000D02*
X101390000Y-96870000D01*
X99590000Y-96120000D02*
X99590000Y-96870000D01*
X101390000Y-96120000D02*
X99590000Y-96120000D01*
X101390000Y-96870000D02*
X101390000Y-96120000D01*
X92090000Y-96870000D02*
X98090000Y-96870000D01*
X92090000Y-96120000D02*
X92090000Y-96870000D01*
X98090000Y-96120000D02*
X92090000Y-96120000D01*
X98090000Y-96870000D02*
X98090000Y-96120000D01*
X88780000Y-96880000D02*
X101400000Y-96880000D01*
X88780000Y-90910000D02*
X88780000Y-96880000D01*
X101400000Y-90910000D02*
X88780000Y-90910000D01*
X101400000Y-96880000D02*
X101400000Y-90910000D01*
X83495000Y-78417064D02*
X83495000Y-77962936D01*
X82025000Y-78417064D02*
X82025000Y-77962936D01*
X75670000Y-82420000D02*
G75*
G03*
X75670000Y-82420000I-1680000J0D01*
G01*
X69890000Y-74860000D02*
X69890000Y-84980000D01*
X71390000Y-74860000D02*
X71390000Y-84980000D01*
X76291000Y-74860000D02*
X76291000Y-84980000D01*
X79251000Y-74860000D02*
X79251000Y-84980000D01*
X69330000Y-74860000D02*
X69330000Y-84980000D01*
X79251000Y-74860000D02*
X69330000Y-74860000D01*
X79251000Y-84980000D02*
X69330000Y-84980000D01*
X75059000Y-83695000D02*
X75013000Y-83648000D01*
X72751000Y-81386000D02*
X72716000Y-81351000D01*
X75265000Y-83490000D02*
X75229000Y-83455000D01*
X72967000Y-81193000D02*
X72921000Y-81146000D01*
X69830000Y-74620000D02*
X69090000Y-74620000D01*
X69090000Y-74620000D02*
X69090000Y-75120000D01*
X72455244Y-78103318D02*
G75*
G02*
X72310000Y-77420000I1534756J683318D01*
G01*
X74673042Y-78955426D02*
G75*
G02*
X73306000Y-78955000I-683042J1535426D01*
G01*
X75525426Y-76736958D02*
G75*
G02*
X75525000Y-78104000I-1535426J-683042D01*
G01*
X73306958Y-75884574D02*
G75*
G02*
X74674000Y-75885000I683042J-1535426D01*
G01*
X72309747Y-77448805D02*
G75*
G02*
X72455000Y-76736000I1680253J28805D01*
G01*
X81800000Y-79922500D02*
X81800000Y-82607500D01*
X83720000Y-79922500D02*
X81800000Y-79922500D01*
X83720000Y-82607500D02*
X83720000Y-79922500D01*
X75546250Y-87428750D02*
X75546250Y-88216250D01*
X75152500Y-87822500D02*
X75940000Y-87822500D01*
X76180000Y-92015563D02*
X77244437Y-93080000D01*
X76180000Y-87324437D02*
X77244437Y-86260000D01*
X76180000Y-87324437D02*
X76180000Y-88610000D01*
X76180000Y-92015563D02*
X76180000Y-90730000D01*
X77244437Y-93080000D02*
X83000000Y-93080000D01*
X77244437Y-86260000D02*
X83000000Y-86260000D01*
X83000000Y-86260000D02*
X83000000Y-88610000D01*
X83000000Y-93080000D02*
X83000000Y-90730000D01*
X91512936Y-109655000D02*
X91967064Y-109655000D01*
X91512936Y-108185000D02*
X91967064Y-108185000D01*
X102370000Y-100680000D02*
X103700000Y-100680000D01*
X102370000Y-102010000D02*
X102370000Y-100680000D01*
X102370000Y-103280000D02*
X105030000Y-103280000D01*
X105030000Y-103280000D02*
X105030000Y-108420000D01*
X102370000Y-103280000D02*
X102370000Y-108420000D01*
X102370000Y-108420000D02*
X105030000Y-108420000D01*
X85096250Y-101978750D02*
X85096250Y-102766250D01*
X84702500Y-102372500D02*
X85490000Y-102372500D01*
X85730000Y-106565563D02*
X86794437Y-107630000D01*
X85730000Y-101874437D02*
X86794437Y-100810000D01*
X85730000Y-101874437D02*
X85730000Y-103160000D01*
X85730000Y-106565563D02*
X85730000Y-105280000D01*
X86794437Y-107630000D02*
X92550000Y-107630000D01*
X86794437Y-100810000D02*
X92550000Y-100810000D01*
X92550000Y-100810000D02*
X92550000Y-103160000D01*
X92550000Y-107630000D02*
X92550000Y-105280000D01*
X96810000Y-100680000D02*
X98140000Y-100680000D01*
X96810000Y-102010000D02*
X96810000Y-100680000D01*
X96810000Y-103280000D02*
X99470000Y-103280000D01*
X99470000Y-103280000D02*
X99470000Y-108420000D01*
X96810000Y-103280000D02*
X96810000Y-108420000D01*
X96810000Y-108420000D02*
X99470000Y-108420000D01*
X94010000Y-100680000D02*
X95340000Y-100680000D01*
X94010000Y-102010000D02*
X94010000Y-100680000D01*
X94010000Y-103280000D02*
X96670000Y-103280000D01*
X96670000Y-103280000D02*
X96670000Y-108420000D01*
X94010000Y-103280000D02*
X94010000Y-108420000D01*
X94010000Y-108420000D02*
X96670000Y-108420000D01*
X99610000Y-100680000D02*
X100940000Y-100680000D01*
X99610000Y-102010000D02*
X99610000Y-100680000D01*
X99610000Y-103280000D02*
X102270000Y-103280000D01*
X102270000Y-103280000D02*
X102270000Y-108420000D01*
X99610000Y-103280000D02*
X99610000Y-108420000D01*
X99610000Y-108420000D02*
X102270000Y-108420000D01*
X112612936Y-109755000D02*
X113067064Y-109755000D01*
X112612936Y-108285000D02*
X113067064Y-108285000D01*
X123470000Y-100780000D02*
X124800000Y-100780000D01*
X123470000Y-102110000D02*
X123470000Y-100780000D01*
X123470000Y-103380000D02*
X126130000Y-103380000D01*
X126130000Y-103380000D02*
X126130000Y-108520000D01*
X123470000Y-103380000D02*
X123470000Y-108520000D01*
X123470000Y-108520000D02*
X126130000Y-108520000D01*
X106196250Y-102078750D02*
X106196250Y-102866250D01*
X105802500Y-102472500D02*
X106590000Y-102472500D01*
X106830000Y-106665563D02*
X107894437Y-107730000D01*
X106830000Y-101974437D02*
X107894437Y-100910000D01*
X106830000Y-101974437D02*
X106830000Y-103260000D01*
X106830000Y-106665563D02*
X106830000Y-105380000D01*
X107894437Y-107730000D02*
X113650000Y-107730000D01*
X107894437Y-100910000D02*
X113650000Y-100910000D01*
X113650000Y-100910000D02*
X113650000Y-103260000D01*
X113650000Y-107730000D02*
X113650000Y-105380000D01*
X117910000Y-100780000D02*
X119240000Y-100780000D01*
X117910000Y-102110000D02*
X117910000Y-100780000D01*
X117910000Y-103380000D02*
X120570000Y-103380000D01*
X120570000Y-103380000D02*
X120570000Y-108520000D01*
X117910000Y-103380000D02*
X117910000Y-108520000D01*
X117910000Y-108520000D02*
X120570000Y-108520000D01*
X115110000Y-100780000D02*
X116440000Y-100780000D01*
X115110000Y-102110000D02*
X115110000Y-100780000D01*
X115110000Y-103380000D02*
X117770000Y-103380000D01*
X117770000Y-103380000D02*
X117770000Y-108520000D01*
X115110000Y-103380000D02*
X115110000Y-108520000D01*
X115110000Y-108520000D02*
X117770000Y-108520000D01*
X120710000Y-100780000D02*
X122040000Y-100780000D01*
X120710000Y-102110000D02*
X120710000Y-100780000D01*
X120710000Y-103380000D02*
X123370000Y-103380000D01*
X123370000Y-103380000D02*
X123370000Y-108520000D01*
X120710000Y-103380000D02*
X120710000Y-108520000D01*
X120710000Y-108520000D02*
X123370000Y-108520000D01*
X133612936Y-109755000D02*
X134067064Y-109755000D01*
X133612936Y-108285000D02*
X134067064Y-108285000D01*
X144470000Y-100780000D02*
X145800000Y-100780000D01*
X144470000Y-102110000D02*
X144470000Y-100780000D01*
X144470000Y-103380000D02*
X147130000Y-103380000D01*
X147130000Y-103380000D02*
X147130000Y-108520000D01*
X144470000Y-103380000D02*
X144470000Y-108520000D01*
X144470000Y-108520000D02*
X147130000Y-108520000D01*
X127196250Y-102078750D02*
X127196250Y-102866250D01*
X126802500Y-102472500D02*
X127590000Y-102472500D01*
X127830000Y-106665563D02*
X128894437Y-107730000D01*
X127830000Y-101974437D02*
X128894437Y-100910000D01*
X127830000Y-101974437D02*
X127830000Y-103260000D01*
X127830000Y-106665563D02*
X127830000Y-105380000D01*
X128894437Y-107730000D02*
X134650000Y-107730000D01*
X128894437Y-100910000D02*
X134650000Y-100910000D01*
X134650000Y-100910000D02*
X134650000Y-103260000D01*
X134650000Y-107730000D02*
X134650000Y-105380000D01*
X138910000Y-100780000D02*
X140240000Y-100780000D01*
X138910000Y-102110000D02*
X138910000Y-100780000D01*
X138910000Y-103380000D02*
X141570000Y-103380000D01*
X141570000Y-103380000D02*
X141570000Y-108520000D01*
X138910000Y-103380000D02*
X138910000Y-108520000D01*
X138910000Y-108520000D02*
X141570000Y-108520000D01*
X136110000Y-100780000D02*
X137440000Y-100780000D01*
X136110000Y-102110000D02*
X136110000Y-100780000D01*
X136110000Y-103380000D02*
X138770000Y-103380000D01*
X138770000Y-103380000D02*
X138770000Y-108520000D01*
X136110000Y-103380000D02*
X136110000Y-108520000D01*
X136110000Y-108520000D02*
X138770000Y-108520000D01*
X141710000Y-100780000D02*
X143040000Y-100780000D01*
X141710000Y-102110000D02*
X141710000Y-100780000D01*
X141710000Y-103380000D02*
X144370000Y-103380000D01*
X144370000Y-103380000D02*
X144370000Y-108520000D01*
X141710000Y-103380000D02*
X141710000Y-108520000D01*
X141710000Y-108520000D02*
X144370000Y-108520000D01*
X154612936Y-86755000D02*
X155067064Y-86755000D01*
X154612936Y-85285000D02*
X155067064Y-85285000D01*
X165470000Y-77780000D02*
X166800000Y-77780000D01*
X165470000Y-79110000D02*
X165470000Y-77780000D01*
X165470000Y-80380000D02*
X168130000Y-80380000D01*
X168130000Y-80380000D02*
X168130000Y-85520000D01*
X165470000Y-80380000D02*
X165470000Y-85520000D01*
X165470000Y-85520000D02*
X168130000Y-85520000D01*
X148196250Y-79078750D02*
X148196250Y-79866250D01*
X147802500Y-79472500D02*
X148590000Y-79472500D01*
X148830000Y-83665563D02*
X149894437Y-84730000D01*
X148830000Y-78974437D02*
X149894437Y-77910000D01*
X148830000Y-78974437D02*
X148830000Y-80260000D01*
X148830000Y-83665563D02*
X148830000Y-82380000D01*
X149894437Y-84730000D02*
X155650000Y-84730000D01*
X149894437Y-77910000D02*
X155650000Y-77910000D01*
X155650000Y-77910000D02*
X155650000Y-80260000D01*
X155650000Y-84730000D02*
X155650000Y-82380000D01*
X159910000Y-77780000D02*
X161240000Y-77780000D01*
X159910000Y-79110000D02*
X159910000Y-77780000D01*
X159910000Y-80380000D02*
X162570000Y-80380000D01*
X162570000Y-80380000D02*
X162570000Y-85520000D01*
X159910000Y-80380000D02*
X159910000Y-85520000D01*
X159910000Y-85520000D02*
X162570000Y-85520000D01*
X157110000Y-77780000D02*
X158440000Y-77780000D01*
X157110000Y-79110000D02*
X157110000Y-77780000D01*
X157110000Y-80380000D02*
X159770000Y-80380000D01*
X159770000Y-80380000D02*
X159770000Y-85520000D01*
X157110000Y-80380000D02*
X157110000Y-85520000D01*
X157110000Y-85520000D02*
X159770000Y-85520000D01*
X162710000Y-77780000D02*
X164040000Y-77780000D01*
X162710000Y-79110000D02*
X162710000Y-77780000D01*
X162710000Y-80380000D02*
X165370000Y-80380000D01*
X165370000Y-80380000D02*
X165370000Y-85520000D01*
X162710000Y-80380000D02*
X162710000Y-85520000D01*
X162710000Y-85520000D02*
X165370000Y-85520000D01*
X133712936Y-86755000D02*
X134167064Y-86755000D01*
X133712936Y-85285000D02*
X134167064Y-85285000D01*
X144570000Y-77780000D02*
X145900000Y-77780000D01*
X144570000Y-79110000D02*
X144570000Y-77780000D01*
X144570000Y-80380000D02*
X147230000Y-80380000D01*
X147230000Y-80380000D02*
X147230000Y-85520000D01*
X144570000Y-80380000D02*
X144570000Y-85520000D01*
X144570000Y-85520000D02*
X147230000Y-85520000D01*
X127296250Y-79078750D02*
X127296250Y-79866250D01*
X126902500Y-79472500D02*
X127690000Y-79472500D01*
X127930000Y-83665563D02*
X128994437Y-84730000D01*
X127930000Y-78974437D02*
X128994437Y-77910000D01*
X127930000Y-78974437D02*
X127930000Y-80260000D01*
X127930000Y-83665563D02*
X127930000Y-82380000D01*
X128994437Y-84730000D02*
X134750000Y-84730000D01*
X128994437Y-77910000D02*
X134750000Y-77910000D01*
X134750000Y-77910000D02*
X134750000Y-80260000D01*
X134750000Y-84730000D02*
X134750000Y-82380000D01*
X139010000Y-77780000D02*
X140340000Y-77780000D01*
X139010000Y-79110000D02*
X139010000Y-77780000D01*
X139010000Y-80380000D02*
X141670000Y-80380000D01*
X141670000Y-80380000D02*
X141670000Y-85520000D01*
X139010000Y-80380000D02*
X139010000Y-85520000D01*
X139010000Y-85520000D02*
X141670000Y-85520000D01*
X136210000Y-77780000D02*
X137540000Y-77780000D01*
X136210000Y-79110000D02*
X136210000Y-77780000D01*
X136210000Y-80380000D02*
X138870000Y-80380000D01*
X138870000Y-80380000D02*
X138870000Y-85520000D01*
X136210000Y-80380000D02*
X136210000Y-85520000D01*
X136210000Y-85520000D02*
X138870000Y-85520000D01*
X141810000Y-77780000D02*
X143140000Y-77780000D01*
X141810000Y-79110000D02*
X141810000Y-77780000D01*
X141810000Y-80380000D02*
X144470000Y-80380000D01*
X144470000Y-80380000D02*
X144470000Y-85520000D01*
X141810000Y-80380000D02*
X141810000Y-85520000D01*
X141810000Y-85520000D02*
X144470000Y-85520000D01*
X91612936Y-86755000D02*
X92067064Y-86755000D01*
X91612936Y-85285000D02*
X92067064Y-85285000D01*
X102470000Y-77780000D02*
X103800000Y-77780000D01*
X102470000Y-79110000D02*
X102470000Y-77780000D01*
X102470000Y-80380000D02*
X105130000Y-80380000D01*
X105130000Y-80380000D02*
X105130000Y-85520000D01*
X102470000Y-80380000D02*
X102470000Y-85520000D01*
X102470000Y-85520000D02*
X105130000Y-85520000D01*
X85196250Y-79078750D02*
X85196250Y-79866250D01*
X84802500Y-79472500D02*
X85590000Y-79472500D01*
X85830000Y-83665563D02*
X86894437Y-84730000D01*
X85830000Y-78974437D02*
X86894437Y-77910000D01*
X85830000Y-78974437D02*
X85830000Y-80260000D01*
X85830000Y-83665563D02*
X85830000Y-82380000D01*
X86894437Y-84730000D02*
X92650000Y-84730000D01*
X86894437Y-77910000D02*
X92650000Y-77910000D01*
X92650000Y-77910000D02*
X92650000Y-80260000D01*
X92650000Y-84730000D02*
X92650000Y-82380000D01*
X96910000Y-77780000D02*
X98240000Y-77780000D01*
X96910000Y-79110000D02*
X96910000Y-77780000D01*
X96910000Y-80380000D02*
X99570000Y-80380000D01*
X99570000Y-80380000D02*
X99570000Y-85520000D01*
X96910000Y-80380000D02*
X96910000Y-85520000D01*
X96910000Y-85520000D02*
X99570000Y-85520000D01*
X94110000Y-77780000D02*
X95440000Y-77780000D01*
X94110000Y-79110000D02*
X94110000Y-77780000D01*
X94110000Y-80380000D02*
X96770000Y-80380000D01*
X96770000Y-80380000D02*
X96770000Y-85520000D01*
X94110000Y-80380000D02*
X94110000Y-85520000D01*
X94110000Y-85520000D02*
X96770000Y-85520000D01*
X99710000Y-77780000D02*
X101040000Y-77780000D01*
X99710000Y-79110000D02*
X99710000Y-77780000D01*
X99710000Y-80380000D02*
X102370000Y-80380000D01*
X102370000Y-80380000D02*
X102370000Y-85520000D01*
X99710000Y-80380000D02*
X99710000Y-85520000D01*
X99710000Y-85520000D02*
X102370000Y-85520000D01*
X112712936Y-86755000D02*
X113167064Y-86755000D01*
X112712936Y-85285000D02*
X113167064Y-85285000D01*
X157040000Y-73020000D02*
X157040000Y-71770000D01*
X155790000Y-73020000D02*
X157040000Y-73020000D01*
X144890000Y-67520000D02*
X150440000Y-67520000D01*
X144890000Y-70470000D02*
X144890000Y-67520000D01*
X144140000Y-70470000D02*
X144890000Y-70470000D01*
X155990000Y-67520000D02*
X150440000Y-67520000D01*
X155990000Y-70470000D02*
X155990000Y-67520000D01*
X156740000Y-70470000D02*
X155990000Y-70470000D01*
X144140000Y-72720000D02*
X145940000Y-72720000D01*
X144140000Y-71970000D02*
X144140000Y-72720000D01*
X145940000Y-71970000D02*
X144140000Y-71970000D01*
X145940000Y-72720000D02*
X145940000Y-71970000D01*
X154940000Y-72720000D02*
X156740000Y-72720000D01*
X154940000Y-71970000D02*
X154940000Y-72720000D01*
X156740000Y-71970000D02*
X154940000Y-71970000D01*
X156740000Y-72720000D02*
X156740000Y-71970000D01*
X147440000Y-72720000D02*
X153440000Y-72720000D01*
X147440000Y-71970000D02*
X147440000Y-72720000D01*
X153440000Y-71970000D02*
X147440000Y-71970000D01*
X153440000Y-72720000D02*
X153440000Y-71970000D01*
X144130000Y-72730000D02*
X156750000Y-72730000D01*
X144130000Y-66760000D02*
X144130000Y-72730000D01*
X156750000Y-66760000D02*
X144130000Y-66760000D01*
X156750000Y-72730000D02*
X156750000Y-66760000D01*
X123570000Y-77780000D02*
X124900000Y-77780000D01*
X123570000Y-79110000D02*
X123570000Y-77780000D01*
X123570000Y-80380000D02*
X126230000Y-80380000D01*
X126230000Y-80380000D02*
X126230000Y-85520000D01*
X123570000Y-80380000D02*
X123570000Y-85520000D01*
X123570000Y-85520000D02*
X126230000Y-85520000D01*
X118010000Y-77780000D02*
X119340000Y-77780000D01*
X118010000Y-79110000D02*
X118010000Y-77780000D01*
X118010000Y-80380000D02*
X120670000Y-80380000D01*
X120670000Y-80380000D02*
X120670000Y-85520000D01*
X118010000Y-80380000D02*
X118010000Y-85520000D01*
X118010000Y-85520000D02*
X120670000Y-85520000D01*
X120810000Y-77780000D02*
X122140000Y-77780000D01*
X120810000Y-79110000D02*
X120810000Y-77780000D01*
X120810000Y-80380000D02*
X123470000Y-80380000D01*
X123470000Y-80380000D02*
X123470000Y-85520000D01*
X120810000Y-80380000D02*
X120810000Y-85520000D01*
X120810000Y-85520000D02*
X123470000Y-85520000D01*
X115210000Y-77780000D02*
X116540000Y-77780000D01*
X115210000Y-79110000D02*
X115210000Y-77780000D01*
X115210000Y-80380000D02*
X117870000Y-80380000D01*
X117870000Y-80380000D02*
X117870000Y-85520000D01*
X115210000Y-80380000D02*
X115210000Y-85520000D01*
X115210000Y-85520000D02*
X117870000Y-85520000D01*
X106296250Y-79078750D02*
X106296250Y-79866250D01*
X105902500Y-79472500D02*
X106690000Y-79472500D01*
X106930000Y-83665563D02*
X107994437Y-84730000D01*
X106930000Y-78974437D02*
X107994437Y-77910000D01*
X106930000Y-78974437D02*
X106930000Y-80260000D01*
X106930000Y-83665563D02*
X106930000Y-82380000D01*
X107994437Y-84730000D02*
X113750000Y-84730000D01*
X107994437Y-77910000D02*
X113750000Y-77910000D01*
X113750000Y-77910000D02*
X113750000Y-80260000D01*
X113750000Y-84730000D02*
X113750000Y-82380000D01*
X91665000Y-72895000D02*
X91665000Y-71645000D01*
X90415000Y-72895000D02*
X91665000Y-72895000D01*
X79515000Y-67395000D02*
X85065000Y-67395000D01*
X79515000Y-70345000D02*
X79515000Y-67395000D01*
X78765000Y-70345000D02*
X79515000Y-70345000D01*
X90615000Y-67395000D02*
X85065000Y-67395000D01*
X90615000Y-70345000D02*
X90615000Y-67395000D01*
X91365000Y-70345000D02*
X90615000Y-70345000D01*
X78765000Y-72595000D02*
X80565000Y-72595000D01*
X78765000Y-71845000D02*
X78765000Y-72595000D01*
X80565000Y-71845000D02*
X78765000Y-71845000D01*
X80565000Y-72595000D02*
X80565000Y-71845000D01*
X89565000Y-72595000D02*
X91365000Y-72595000D01*
X89565000Y-71845000D02*
X89565000Y-72595000D01*
X91365000Y-71845000D02*
X89565000Y-71845000D01*
X91365000Y-72595000D02*
X91365000Y-71845000D01*
X82065000Y-72595000D02*
X88065000Y-72595000D01*
X82065000Y-71845000D02*
X82065000Y-72595000D01*
X88065000Y-71845000D02*
X82065000Y-71845000D01*
X88065000Y-72595000D02*
X88065000Y-71845000D01*
X78755000Y-72605000D02*
X91375000Y-72605000D01*
X78755000Y-66635000D02*
X78755000Y-72605000D01*
X91375000Y-66635000D02*
X78755000Y-66635000D01*
X91375000Y-72605000D02*
X91375000Y-66635000D01*
X140240000Y-72920000D02*
X140240000Y-71670000D01*
X138990000Y-72920000D02*
X140240000Y-72920000D01*
X128090000Y-67420000D02*
X133640000Y-67420000D01*
X128090000Y-70370000D02*
X128090000Y-67420000D01*
X127340000Y-70370000D02*
X128090000Y-70370000D01*
X139190000Y-67420000D02*
X133640000Y-67420000D01*
X139190000Y-70370000D02*
X139190000Y-67420000D01*
X139940000Y-70370000D02*
X139190000Y-70370000D01*
X127340000Y-72620000D02*
X129140000Y-72620000D01*
X127340000Y-71870000D02*
X127340000Y-72620000D01*
X129140000Y-71870000D02*
X127340000Y-71870000D01*
X129140000Y-72620000D02*
X129140000Y-71870000D01*
X138140000Y-72620000D02*
X139940000Y-72620000D01*
X138140000Y-71870000D02*
X138140000Y-72620000D01*
X139940000Y-71870000D02*
X138140000Y-71870000D01*
X139940000Y-72620000D02*
X139940000Y-71870000D01*
X130640000Y-72620000D02*
X136640000Y-72620000D01*
X130640000Y-71870000D02*
X130640000Y-72620000D01*
X136640000Y-71870000D02*
X130640000Y-71870000D01*
X136640000Y-72620000D02*
X136640000Y-71870000D01*
X127330000Y-72630000D02*
X139950000Y-72630000D01*
X127330000Y-66660000D02*
X127330000Y-72630000D01*
X139950000Y-66660000D02*
X127330000Y-66660000D01*
X139950000Y-72630000D02*
X139950000Y-66660000D01*
X108715000Y-72895000D02*
X108715000Y-71645000D01*
X107465000Y-72895000D02*
X108715000Y-72895000D01*
X96565000Y-67395000D02*
X102115000Y-67395000D01*
X96565000Y-70345000D02*
X96565000Y-67395000D01*
X95815000Y-70345000D02*
X96565000Y-70345000D01*
X107665000Y-67395000D02*
X102115000Y-67395000D01*
X107665000Y-70345000D02*
X107665000Y-67395000D01*
X108415000Y-70345000D02*
X107665000Y-70345000D01*
X95815000Y-72595000D02*
X97615000Y-72595000D01*
X95815000Y-71845000D02*
X95815000Y-72595000D01*
X97615000Y-71845000D02*
X95815000Y-71845000D01*
X97615000Y-72595000D02*
X97615000Y-71845000D01*
X106615000Y-72595000D02*
X108415000Y-72595000D01*
X106615000Y-71845000D02*
X106615000Y-72595000D01*
X108415000Y-71845000D02*
X106615000Y-71845000D01*
X108415000Y-72595000D02*
X108415000Y-71845000D01*
X99115000Y-72595000D02*
X105115000Y-72595000D01*
X99115000Y-71845000D02*
X99115000Y-72595000D01*
X105115000Y-71845000D02*
X99115000Y-71845000D01*
X105115000Y-72595000D02*
X105115000Y-71845000D01*
X95805000Y-72605000D02*
X108425000Y-72605000D01*
X95805000Y-66635000D02*
X95805000Y-72605000D01*
X108425000Y-66635000D02*
X95805000Y-66635000D01*
X108425000Y-72605000D02*
X108425000Y-66635000D01*
X122715000Y-72895000D02*
X122715000Y-71645000D01*
X121465000Y-72895000D02*
X122715000Y-72895000D01*
X110565000Y-67395000D02*
X116115000Y-67395000D01*
X110565000Y-70345000D02*
X110565000Y-67395000D01*
X109815000Y-70345000D02*
X110565000Y-70345000D01*
X121665000Y-67395000D02*
X116115000Y-67395000D01*
X121665000Y-70345000D02*
X121665000Y-67395000D01*
X122415000Y-70345000D02*
X121665000Y-70345000D01*
X109815000Y-72595000D02*
X111615000Y-72595000D01*
X109815000Y-71845000D02*
X109815000Y-72595000D01*
X111615000Y-71845000D02*
X109815000Y-71845000D01*
X111615000Y-72595000D02*
X111615000Y-71845000D01*
X120615000Y-72595000D02*
X122415000Y-72595000D01*
X120615000Y-71845000D02*
X120615000Y-72595000D01*
X122415000Y-71845000D02*
X120615000Y-71845000D01*
X122415000Y-72595000D02*
X122415000Y-71845000D01*
X113115000Y-72595000D02*
X119115000Y-72595000D01*
X113115000Y-71845000D02*
X113115000Y-72595000D01*
X119115000Y-71845000D02*
X113115000Y-71845000D01*
X119115000Y-72595000D02*
X119115000Y-71845000D01*
X109805000Y-72605000D02*
X122425000Y-72605000D01*
X109805000Y-66635000D02*
X109805000Y-72605000D01*
X122425000Y-66635000D02*
X109805000Y-66635000D01*
X122425000Y-72605000D02*
X122425000Y-66635000D01*
X168340000Y-90120000D02*
X168340000Y-77290000D01*
X147760000Y-90120000D02*
X168340000Y-90120000D01*
X147760000Y-74620000D02*
X147760000Y-90120000D01*
X165670000Y-74620000D02*
X147760000Y-74620000D01*
X165670000Y-77290000D02*
X165670000Y-74620000D01*
X168340000Y-77290000D02*
X165670000Y-77290000D01*
X168340000Y-74620000D02*
X166940000Y-74620000D01*
X168340000Y-76020000D02*
X168340000Y-74620000D01*
X165670000Y-77290000D02*
X147760000Y-77290000D01*
X168340000Y-87450000D02*
X147760000Y-87450000D01*
X126340000Y-113120000D02*
X126340000Y-100290000D01*
X105760000Y-113120000D02*
X126340000Y-113120000D01*
X105760000Y-97620000D02*
X105760000Y-113120000D01*
X123670000Y-97620000D02*
X105760000Y-97620000D01*
X123670000Y-100290000D02*
X123670000Y-97620000D01*
X126340000Y-100290000D02*
X123670000Y-100290000D01*
X126340000Y-97620000D02*
X124940000Y-97620000D01*
X126340000Y-99020000D02*
X126340000Y-97620000D01*
X123670000Y-100290000D02*
X105760000Y-100290000D01*
X126340000Y-110450000D02*
X105760000Y-110450000D01*
X105340000Y-90120000D02*
X105340000Y-77290000D01*
X84760000Y-90120000D02*
X105340000Y-90120000D01*
X84760000Y-74620000D02*
X84760000Y-90120000D01*
X102670000Y-74620000D02*
X84760000Y-74620000D01*
X102670000Y-77290000D02*
X102670000Y-74620000D01*
X105340000Y-77290000D02*
X102670000Y-77290000D01*
X105340000Y-74620000D02*
X103940000Y-74620000D01*
X105340000Y-76020000D02*
X105340000Y-74620000D01*
X102670000Y-77290000D02*
X84760000Y-77290000D01*
X105340000Y-87450000D02*
X84760000Y-87450000D01*
X147340000Y-90120000D02*
X147340000Y-77290000D01*
X126760000Y-90120000D02*
X147340000Y-90120000D01*
X126760000Y-74620000D02*
X126760000Y-90120000D01*
X144670000Y-74620000D02*
X126760000Y-74620000D01*
X144670000Y-77290000D02*
X144670000Y-74620000D01*
X147340000Y-77290000D02*
X144670000Y-77290000D01*
X147340000Y-74620000D02*
X145940000Y-74620000D01*
X147340000Y-76020000D02*
X147340000Y-74620000D01*
X144670000Y-77290000D02*
X126760000Y-77290000D01*
X147340000Y-87450000D02*
X126760000Y-87450000D01*
X147340000Y-113120000D02*
X147340000Y-100290000D01*
X126760000Y-113120000D02*
X147340000Y-113120000D01*
X126760000Y-97620000D02*
X126760000Y-113120000D01*
X144670000Y-97620000D02*
X126760000Y-97620000D01*
X144670000Y-100290000D02*
X144670000Y-97620000D01*
X147340000Y-100290000D02*
X144670000Y-100290000D01*
X147340000Y-97620000D02*
X145940000Y-97620000D01*
X147340000Y-99020000D02*
X147340000Y-97620000D01*
X144670000Y-100290000D02*
X126760000Y-100290000D01*
X147340000Y-110450000D02*
X126760000Y-110450000D01*
X126340000Y-90120000D02*
X126340000Y-77290000D01*
X105760000Y-90120000D02*
X126340000Y-90120000D01*
X105760000Y-74620000D02*
X105760000Y-90120000D01*
X123670000Y-74620000D02*
X105760000Y-74620000D01*
X123670000Y-77290000D02*
X123670000Y-74620000D01*
X126340000Y-77290000D02*
X123670000Y-77290000D01*
X126340000Y-74620000D02*
X124940000Y-74620000D01*
X126340000Y-76020000D02*
X126340000Y-74620000D01*
X123670000Y-77290000D02*
X105760000Y-77290000D01*
X126340000Y-87450000D02*
X105760000Y-87450000D01*
D10*
X109482380Y-120079523D02*
X110196666Y-120079523D01*
X110339523Y-120127142D01*
X110434761Y-120222380D01*
X110482380Y-120365238D01*
X110482380Y-120460476D01*
X109577619Y-119650952D02*
X109530000Y-119603333D01*
X109482380Y-119508095D01*
X109482380Y-119270000D01*
X109530000Y-119174761D01*
X109577619Y-119127142D01*
X109672857Y-119079523D01*
X109768095Y-119079523D01*
X109910952Y-119127142D01*
X110482380Y-119698571D01*
X110482380Y-119079523D01*
X109482380Y-118222380D02*
X109482380Y-118412857D01*
X109530000Y-118508095D01*
X109577619Y-118555714D01*
X109720476Y-118650952D01*
X109910952Y-118698571D01*
X110291904Y-118698571D01*
X110387142Y-118650952D01*
X110434761Y-118603333D01*
X110482380Y-118508095D01*
X110482380Y-118317619D01*
X110434761Y-118222380D01*
X110387142Y-118174761D01*
X110291904Y-118127142D01*
X110053809Y-118127142D01*
X109958571Y-118174761D01*
X109910952Y-118222380D01*
X109863333Y-118317619D01*
X109863333Y-118508095D01*
X109910952Y-118603333D01*
X109958571Y-118650952D01*
X110053809Y-118698571D01*
X106838095Y-152292380D02*
X106838095Y-153101904D01*
X106885714Y-153197142D01*
X106933333Y-153244761D01*
X107028571Y-153292380D01*
X107219047Y-153292380D01*
X107314285Y-153244761D01*
X107361904Y-153197142D01*
X107409523Y-153101904D01*
X107409523Y-152292380D01*
X107933333Y-153292380D02*
X108123809Y-153292380D01*
X108219047Y-153244761D01*
X108266666Y-153197142D01*
X108361904Y-153054285D01*
X108409523Y-152863809D01*
X108409523Y-152482857D01*
X108361904Y-152387619D01*
X108314285Y-152340000D01*
X108219047Y-152292380D01*
X108028571Y-152292380D01*
X107933333Y-152340000D01*
X107885714Y-152387619D01*
X107838095Y-152482857D01*
X107838095Y-152720952D01*
X107885714Y-152816190D01*
X107933333Y-152863809D01*
X108028571Y-152911428D01*
X108219047Y-152911428D01*
X108314285Y-152863809D01*
X108361904Y-152816190D01*
X108409523Y-152720952D01*
X152482380Y-109219523D02*
X153196666Y-109219523D01*
X153339523Y-109267142D01*
X153434761Y-109362380D01*
X153482380Y-109505238D01*
X153482380Y-109600476D01*
X152577619Y-108790952D02*
X152530000Y-108743333D01*
X152482380Y-108648095D01*
X152482380Y-108410000D01*
X152530000Y-108314761D01*
X152577619Y-108267142D01*
X152672857Y-108219523D01*
X152768095Y-108219523D01*
X152910952Y-108267142D01*
X153482380Y-108838571D01*
X153482380Y-108219523D01*
X152482380Y-107886190D02*
X152482380Y-107267142D01*
X152863333Y-107600476D01*
X152863333Y-107457619D01*
X152910952Y-107362380D01*
X152958571Y-107314761D01*
X153053809Y-107267142D01*
X153291904Y-107267142D01*
X153387142Y-107314761D01*
X153434761Y-107362380D01*
X153482380Y-107457619D01*
X153482380Y-107743333D01*
X153434761Y-107838571D01*
X153387142Y-107886190D01*
X133972380Y-152246666D02*
X133496190Y-152580000D01*
X133972380Y-152818095D02*
X132972380Y-152818095D01*
X132972380Y-152437142D01*
X133020000Y-152341904D01*
X133067619Y-152294285D01*
X133162857Y-152246666D01*
X133305714Y-152246666D01*
X133400952Y-152294285D01*
X133448571Y-152341904D01*
X133496190Y-152437142D01*
X133496190Y-152818095D01*
X133972380Y-151294285D02*
X133972380Y-151865714D01*
X133972380Y-151580000D02*
X132972380Y-151580000D01*
X133115238Y-151675238D01*
X133210476Y-151770476D01*
X133258095Y-151865714D01*
X118852380Y-150168095D02*
X119661904Y-150168095D01*
X119757142Y-150120476D01*
X119804761Y-150072857D01*
X119852380Y-149977619D01*
X119852380Y-149787142D01*
X119804761Y-149691904D01*
X119757142Y-149644285D01*
X119661904Y-149596666D01*
X118852380Y-149596666D01*
X119852380Y-148596666D02*
X119852380Y-149168095D01*
X119852380Y-148882380D02*
X118852380Y-148882380D01*
X118995238Y-148977619D01*
X119090476Y-149072857D01*
X119138095Y-149168095D01*
X119185714Y-147739523D02*
X119852380Y-147739523D01*
X118804761Y-147977619D02*
X119519047Y-148215714D01*
X119519047Y-147596666D01*
X125962380Y-155042857D02*
X125486190Y-155376190D01*
X125962380Y-155614285D02*
X124962380Y-155614285D01*
X124962380Y-155233333D01*
X125010000Y-155138095D01*
X125057619Y-155090476D01*
X125152857Y-155042857D01*
X125295714Y-155042857D01*
X125390952Y-155090476D01*
X125438571Y-155138095D01*
X125486190Y-155233333D01*
X125486190Y-155614285D01*
X124962380Y-154709523D02*
X124962380Y-154090476D01*
X125343333Y-154423809D01*
X125343333Y-154280952D01*
X125390952Y-154185714D01*
X125438571Y-154138095D01*
X125533809Y-154090476D01*
X125771904Y-154090476D01*
X125867142Y-154138095D01*
X125914761Y-154185714D01*
X125962380Y-154280952D01*
X125962380Y-154566666D01*
X125914761Y-154661904D01*
X125867142Y-154709523D01*
X125962380Y-153138095D02*
X125962380Y-153709523D01*
X125962380Y-153423809D02*
X124962380Y-153423809D01*
X125105238Y-153519047D01*
X125200476Y-153614285D01*
X125248095Y-153709523D01*
X221022380Y-107559523D02*
X221736666Y-107559523D01*
X221879523Y-107607142D01*
X221974761Y-107702380D01*
X222022380Y-107845238D01*
X222022380Y-107940476D01*
X222022380Y-106559523D02*
X222022380Y-107130952D01*
X222022380Y-106845238D02*
X221022380Y-106845238D01*
X221165238Y-106940476D01*
X221260476Y-107035714D01*
X221308095Y-107130952D01*
X221022380Y-105940476D02*
X221022380Y-105845238D01*
X221070000Y-105750000D01*
X221117619Y-105702380D01*
X221212857Y-105654761D01*
X221403333Y-105607142D01*
X221641428Y-105607142D01*
X221831904Y-105654761D01*
X221927142Y-105702380D01*
X221974761Y-105750000D01*
X222022380Y-105845238D01*
X222022380Y-105940476D01*
X221974761Y-106035714D01*
X221927142Y-106083333D01*
X221831904Y-106130952D01*
X221641428Y-106178571D01*
X221403333Y-106178571D01*
X221212857Y-106130952D01*
X221117619Y-106083333D01*
X221070000Y-106035714D01*
X221022380Y-105940476D01*
X159572380Y-108543333D02*
X160286666Y-108543333D01*
X160429523Y-108590952D01*
X160524761Y-108686190D01*
X160572380Y-108829047D01*
X160572380Y-108924285D01*
X160000952Y-107924285D02*
X159953333Y-108019523D01*
X159905714Y-108067142D01*
X159810476Y-108114761D01*
X159762857Y-108114761D01*
X159667619Y-108067142D01*
X159620000Y-108019523D01*
X159572380Y-107924285D01*
X159572380Y-107733809D01*
X159620000Y-107638571D01*
X159667619Y-107590952D01*
X159762857Y-107543333D01*
X159810476Y-107543333D01*
X159905714Y-107590952D01*
X159953333Y-107638571D01*
X160000952Y-107733809D01*
X160000952Y-107924285D01*
X160048571Y-108019523D01*
X160096190Y-108067142D01*
X160191428Y-108114761D01*
X160381904Y-108114761D01*
X160477142Y-108067142D01*
X160524761Y-108019523D01*
X160572380Y-107924285D01*
X160572380Y-107733809D01*
X160524761Y-107638571D01*
X160477142Y-107590952D01*
X160381904Y-107543333D01*
X160191428Y-107543333D01*
X160096190Y-107590952D01*
X160048571Y-107638571D01*
X160000952Y-107733809D01*
X159562380Y-96263333D02*
X160276666Y-96263333D01*
X160419523Y-96310952D01*
X160514761Y-96406190D01*
X160562380Y-96549047D01*
X160562380Y-96644285D01*
X159562380Y-95358571D02*
X159562380Y-95549047D01*
X159610000Y-95644285D01*
X159657619Y-95691904D01*
X159800476Y-95787142D01*
X159990952Y-95834761D01*
X160371904Y-95834761D01*
X160467142Y-95787142D01*
X160514761Y-95739523D01*
X160562380Y-95644285D01*
X160562380Y-95453809D01*
X160514761Y-95358571D01*
X160467142Y-95310952D01*
X160371904Y-95263333D01*
X160133809Y-95263333D01*
X160038571Y-95310952D01*
X159990952Y-95358571D01*
X159943333Y-95453809D01*
X159943333Y-95644285D01*
X159990952Y-95739523D01*
X160038571Y-95787142D01*
X160133809Y-95834761D01*
X166412380Y-108493333D02*
X167126666Y-108493333D01*
X167269523Y-108540952D01*
X167364761Y-108636190D01*
X167412380Y-108779047D01*
X167412380Y-108874285D01*
X166412380Y-107540952D02*
X166412380Y-108017142D01*
X166888571Y-108064761D01*
X166840952Y-108017142D01*
X166793333Y-107921904D01*
X166793333Y-107683809D01*
X166840952Y-107588571D01*
X166888571Y-107540952D01*
X166983809Y-107493333D01*
X167221904Y-107493333D01*
X167317142Y-107540952D01*
X167364761Y-107588571D01*
X167412380Y-107683809D01*
X167412380Y-107921904D01*
X167364761Y-108017142D01*
X167317142Y-108064761D01*
X166332380Y-96153333D02*
X167046666Y-96153333D01*
X167189523Y-96200952D01*
X167284761Y-96296190D01*
X167332380Y-96439047D01*
X167332380Y-96534285D01*
X166665714Y-95248571D02*
X167332380Y-95248571D01*
X166284761Y-95486666D02*
X166999047Y-95724761D01*
X166999047Y-95105714D01*
X73123333Y-102747380D02*
X72647142Y-102747380D01*
X72647142Y-101747380D01*
X73980476Y-102747380D02*
X73409047Y-102747380D01*
X73694761Y-102747380D02*
X73694761Y-101747380D01*
X73599523Y-101890238D01*
X73504285Y-101985476D01*
X73409047Y-102033095D01*
X115170476Y-92872380D02*
X115170476Y-91872380D01*
X115503809Y-92586666D01*
X115837142Y-91872380D01*
X115837142Y-92872380D01*
X116360952Y-92872380D02*
X116551428Y-92872380D01*
X116646666Y-92824761D01*
X116694285Y-92777142D01*
X116789523Y-92634285D01*
X116837142Y-92443809D01*
X116837142Y-92062857D01*
X116789523Y-91967619D01*
X116741904Y-91920000D01*
X116646666Y-91872380D01*
X116456190Y-91872380D01*
X116360952Y-91920000D01*
X116313333Y-91967619D01*
X116265714Y-92062857D01*
X116265714Y-92300952D01*
X116313333Y-92396190D01*
X116360952Y-92443809D01*
X116456190Y-92491428D01*
X116646666Y-92491428D01*
X116741904Y-92443809D01*
X116789523Y-92396190D01*
X116837142Y-92300952D01*
X136190476Y-92992380D02*
X136190476Y-91992380D01*
X136523809Y-92706666D01*
X136857142Y-91992380D01*
X136857142Y-92992380D01*
X137238095Y-91992380D02*
X137904761Y-91992380D01*
X137476190Y-92992380D01*
M02*
