G04 #@! TF.GenerationSoftware,KiCad,Pcbnew,5.1.9+dfsg1-1~bpo10+1*
G04 #@! TF.CreationDate,2021-03-14T14:21:34+00:00*
G04 #@! TF.ProjectId,mobo,6d6f626f-2e6b-4696-9361-645f70636258,rev?*
G04 #@! TF.SameCoordinates,Original*
G04 #@! TF.FileFunction,Copper,L4,Bot*
G04 #@! TF.FilePolarity,Positive*
%FSLAX46Y46*%
G04 Gerber Fmt 4.6, Leading zero omitted, Abs format (unit mm)*
G04 Created by KiCad (PCBNEW 5.1.9+dfsg1-1~bpo10+1) date 2021-03-14 14:21:34*
%MOMM*%
%LPD*%
G01*
G04 APERTURE LIST*
G04 #@! TA.AperFunction,EtchedComponent*
%ADD10C,0.100000*%
G04 #@! TD*
G04 #@! TA.AperFunction,ComponentPad*
%ADD11C,1.600000*%
G04 #@! TD*
G04 #@! TA.AperFunction,ComponentPad*
%ADD12R,1.600000X1.600000*%
G04 #@! TD*
G04 #@! TA.AperFunction,ComponentPad*
%ADD13C,3.000000*%
G04 #@! TD*
G04 #@! TA.AperFunction,ComponentPad*
%ADD14O,2.000000X1.700000*%
G04 #@! TD*
G04 #@! TA.AperFunction,SMDPad,CuDef*
%ADD15C,0.100000*%
G04 #@! TD*
G04 #@! TA.AperFunction,ComponentPad*
%ADD16O,1.950000X1.700000*%
G04 #@! TD*
G04 #@! TA.AperFunction,ComponentPad*
%ADD17O,1.700000X1.700000*%
G04 #@! TD*
G04 #@! TA.AperFunction,ComponentPad*
%ADD18R,1.700000X1.700000*%
G04 #@! TD*
G04 #@! TA.AperFunction,ComponentPad*
%ADD19C,2.000000*%
G04 #@! TD*
G04 #@! TA.AperFunction,ComponentPad*
%ADD20R,2.000000X2.000000*%
G04 #@! TD*
G04 #@! TA.AperFunction,ComponentPad*
%ADD21C,1.700000*%
G04 #@! TD*
G04 #@! TA.AperFunction,ComponentPad*
%ADD22O,1.700000X1.950000*%
G04 #@! TD*
G04 #@! TA.AperFunction,ComponentPad*
%ADD23O,1.700000X2.000000*%
G04 #@! TD*
G04 #@! TA.AperFunction,ComponentPad*
%ADD24C,4.200000*%
G04 #@! TD*
G04 #@! TA.AperFunction,SMDPad,CuDef*
%ADD25R,2.300000X0.600000*%
G04 #@! TD*
G04 #@! TA.AperFunction,ComponentPad*
%ADD26O,1.700000X0.900000*%
G04 #@! TD*
G04 #@! TA.AperFunction,ComponentPad*
%ADD27O,2.000000X0.900000*%
G04 #@! TD*
G04 #@! TA.AperFunction,ComponentPad*
%ADD28C,0.600000*%
G04 #@! TD*
G04 #@! TA.AperFunction,SMDPad,CuDef*
%ADD29R,2.950000X4.500000*%
G04 #@! TD*
G04 #@! TA.AperFunction,ComponentPad*
%ADD30O,1.600000X1.600000*%
G04 #@! TD*
G04 #@! TA.AperFunction,ComponentPad*
%ADD31R,2.600000X2.600000*%
G04 #@! TD*
G04 #@! TA.AperFunction,ComponentPad*
%ADD32C,2.600000*%
G04 #@! TD*
G04 #@! TA.AperFunction,ComponentPad*
%ADD33C,5.600000*%
G04 #@! TD*
G04 #@! TA.AperFunction,ViaPad*
%ADD34C,0.800000*%
G04 #@! TD*
G04 #@! TA.AperFunction,Conductor*
%ADD35C,1.000000*%
G04 #@! TD*
G04 #@! TA.AperFunction,Conductor*
%ADD36C,2.000000*%
G04 #@! TD*
G04 #@! TA.AperFunction,Conductor*
%ADD37C,3.000000*%
G04 #@! TD*
G04 #@! TA.AperFunction,Conductor*
%ADD38C,0.250000*%
G04 #@! TD*
G04 APERTURE END LIST*
D10*
G36*
X117210000Y-153100000D02*
G01*
X117210000Y-153600000D01*
X116610000Y-153600000D01*
X116610000Y-153100000D01*
X117210000Y-153100000D01*
G37*
G36*
X114650000Y-153110000D02*
G01*
X114650000Y-153610000D01*
X114050000Y-153610000D01*
X114050000Y-153110000D01*
X114650000Y-153110000D01*
G37*
D11*
X164230000Y-146980000D03*
X164230000Y-149480000D03*
X164230000Y-151480000D03*
D12*
X164230000Y-153980000D03*
D13*
X166940000Y-157050000D03*
X166940000Y-143910000D03*
D14*
X123670000Y-162820000D03*
G04 #@! TA.AperFunction,ComponentPad*
G36*
G01*
X122920000Y-159470000D02*
X124420000Y-159470000D01*
G75*
G02*
X124670000Y-159720000I0J-250000D01*
G01*
X124670000Y-160920000D01*
G75*
G02*
X124420000Y-161170000I-250000J0D01*
G01*
X122920000Y-161170000D01*
G75*
G02*
X122670000Y-160920000I0J250000D01*
G01*
X122670000Y-159720000D01*
G75*
G02*
X122920000Y-159470000I250000J0D01*
G01*
G37*
G04 #@! TD.AperFunction*
X116770000Y-162800000D03*
G04 #@! TA.AperFunction,ComponentPad*
G36*
G01*
X116020000Y-159450000D02*
X117520000Y-159450000D01*
G75*
G02*
X117770000Y-159700000I0J-250000D01*
G01*
X117770000Y-160900000D01*
G75*
G02*
X117520000Y-161150000I-250000J0D01*
G01*
X116020000Y-161150000D01*
G75*
G02*
X115770000Y-160900000I0J250000D01*
G01*
X115770000Y-159700000D01*
G75*
G02*
X116020000Y-159450000I250000J0D01*
G01*
G37*
G04 #@! TD.AperFunction*
G04 #@! TA.AperFunction,SMDPad,CuDef*
D15*
G36*
X117660000Y-153500000D02*
G01*
X117660000Y-154000000D01*
X117659398Y-154000000D01*
X117659398Y-154024534D01*
X117654588Y-154073365D01*
X117645016Y-154121490D01*
X117630772Y-154168445D01*
X117611995Y-154213778D01*
X117588864Y-154257051D01*
X117561604Y-154297850D01*
X117530476Y-154335779D01*
X117495779Y-154370476D01*
X117457850Y-154401604D01*
X117417051Y-154428864D01*
X117373778Y-154451995D01*
X117328445Y-154470772D01*
X117281490Y-154485016D01*
X117233365Y-154494588D01*
X117184534Y-154499398D01*
X117160000Y-154499398D01*
X117160000Y-154500000D01*
X116660000Y-154500000D01*
X116660000Y-154499398D01*
X116635466Y-154499398D01*
X116586635Y-154494588D01*
X116538510Y-154485016D01*
X116491555Y-154470772D01*
X116446222Y-154451995D01*
X116402949Y-154428864D01*
X116362150Y-154401604D01*
X116324221Y-154370476D01*
X116289524Y-154335779D01*
X116258396Y-154297850D01*
X116231136Y-154257051D01*
X116208005Y-154213778D01*
X116189228Y-154168445D01*
X116174984Y-154121490D01*
X116165412Y-154073365D01*
X116160602Y-154024534D01*
X116160602Y-154000000D01*
X116160000Y-154000000D01*
X116160000Y-153500000D01*
X117660000Y-153500000D01*
G37*
G04 #@! TD.AperFunction*
G04 #@! TA.AperFunction,SMDPad,CuDef*
G36*
X116160602Y-152700000D02*
G01*
X116160602Y-152675466D01*
X116165412Y-152626635D01*
X116174984Y-152578510D01*
X116189228Y-152531555D01*
X116208005Y-152486222D01*
X116231136Y-152442949D01*
X116258396Y-152402150D01*
X116289524Y-152364221D01*
X116324221Y-152329524D01*
X116362150Y-152298396D01*
X116402949Y-152271136D01*
X116446222Y-152248005D01*
X116491555Y-152229228D01*
X116538510Y-152214984D01*
X116586635Y-152205412D01*
X116635466Y-152200602D01*
X116660000Y-152200602D01*
X116660000Y-152200000D01*
X117160000Y-152200000D01*
X117160000Y-152200602D01*
X117184534Y-152200602D01*
X117233365Y-152205412D01*
X117281490Y-152214984D01*
X117328445Y-152229228D01*
X117373778Y-152248005D01*
X117417051Y-152271136D01*
X117457850Y-152298396D01*
X117495779Y-152329524D01*
X117530476Y-152364221D01*
X117561604Y-152402150D01*
X117588864Y-152442949D01*
X117611995Y-152486222D01*
X117630772Y-152531555D01*
X117645016Y-152578510D01*
X117654588Y-152626635D01*
X117659398Y-152675466D01*
X117659398Y-152700000D01*
X117660000Y-152700000D01*
X117660000Y-153200000D01*
X116160000Y-153200000D01*
X116160000Y-152700000D01*
X116160602Y-152700000D01*
G37*
G04 #@! TD.AperFunction*
G04 #@! TA.AperFunction,SMDPad,CuDef*
G36*
X115100000Y-153510000D02*
G01*
X115100000Y-154010000D01*
X115099398Y-154010000D01*
X115099398Y-154034534D01*
X115094588Y-154083365D01*
X115085016Y-154131490D01*
X115070772Y-154178445D01*
X115051995Y-154223778D01*
X115028864Y-154267051D01*
X115001604Y-154307850D01*
X114970476Y-154345779D01*
X114935779Y-154380476D01*
X114897850Y-154411604D01*
X114857051Y-154438864D01*
X114813778Y-154461995D01*
X114768445Y-154480772D01*
X114721490Y-154495016D01*
X114673365Y-154504588D01*
X114624534Y-154509398D01*
X114600000Y-154509398D01*
X114600000Y-154510000D01*
X114100000Y-154510000D01*
X114100000Y-154509398D01*
X114075466Y-154509398D01*
X114026635Y-154504588D01*
X113978510Y-154495016D01*
X113931555Y-154480772D01*
X113886222Y-154461995D01*
X113842949Y-154438864D01*
X113802150Y-154411604D01*
X113764221Y-154380476D01*
X113729524Y-154345779D01*
X113698396Y-154307850D01*
X113671136Y-154267051D01*
X113648005Y-154223778D01*
X113629228Y-154178445D01*
X113614984Y-154131490D01*
X113605412Y-154083365D01*
X113600602Y-154034534D01*
X113600602Y-154010000D01*
X113600000Y-154010000D01*
X113600000Y-153510000D01*
X115100000Y-153510000D01*
G37*
G04 #@! TD.AperFunction*
G04 #@! TA.AperFunction,SMDPad,CuDef*
G36*
X113600602Y-152710000D02*
G01*
X113600602Y-152685466D01*
X113605412Y-152636635D01*
X113614984Y-152588510D01*
X113629228Y-152541555D01*
X113648005Y-152496222D01*
X113671136Y-152452949D01*
X113698396Y-152412150D01*
X113729524Y-152374221D01*
X113764221Y-152339524D01*
X113802150Y-152308396D01*
X113842949Y-152281136D01*
X113886222Y-152258005D01*
X113931555Y-152239228D01*
X113978510Y-152224984D01*
X114026635Y-152215412D01*
X114075466Y-152210602D01*
X114100000Y-152210602D01*
X114100000Y-152210000D01*
X114600000Y-152210000D01*
X114600000Y-152210602D01*
X114624534Y-152210602D01*
X114673365Y-152215412D01*
X114721490Y-152224984D01*
X114768445Y-152239228D01*
X114813778Y-152258005D01*
X114857051Y-152281136D01*
X114897850Y-152308396D01*
X114935779Y-152339524D01*
X114970476Y-152374221D01*
X115001604Y-152412150D01*
X115028864Y-152452949D01*
X115051995Y-152496222D01*
X115070772Y-152541555D01*
X115085016Y-152588510D01*
X115094588Y-152636635D01*
X115099398Y-152685466D01*
X115099398Y-152710000D01*
X115100000Y-152710000D01*
X115100000Y-153210000D01*
X113600000Y-153210000D01*
X113600000Y-152710000D01*
X113600602Y-152710000D01*
G37*
G04 #@! TD.AperFunction*
D16*
X146820000Y-155820000D03*
X146820000Y-153320000D03*
G04 #@! TA.AperFunction,ComponentPad*
G36*
G01*
X146095000Y-149970000D02*
X147545000Y-149970000D01*
G75*
G02*
X147795000Y-150220000I0J-250000D01*
G01*
X147795000Y-151420000D01*
G75*
G02*
X147545000Y-151670000I-250000J0D01*
G01*
X146095000Y-151670000D01*
G75*
G02*
X145845000Y-151420000I0J250000D01*
G01*
X145845000Y-150220000D01*
G75*
G02*
X146095000Y-149970000I250000J0D01*
G01*
G37*
G04 #@! TD.AperFunction*
X139880000Y-155820000D03*
X139880000Y-153320000D03*
G04 #@! TA.AperFunction,ComponentPad*
G36*
G01*
X139155000Y-149970000D02*
X140605000Y-149970000D01*
G75*
G02*
X140855000Y-150220000I0J-250000D01*
G01*
X140855000Y-151420000D01*
G75*
G02*
X140605000Y-151670000I-250000J0D01*
G01*
X139155000Y-151670000D01*
G75*
G02*
X138905000Y-151420000I0J250000D01*
G01*
X138905000Y-150220000D01*
G75*
G02*
X139155000Y-149970000I250000J0D01*
G01*
G37*
G04 #@! TD.AperFunction*
D17*
X128960000Y-153950000D03*
X131500000Y-153950000D03*
D18*
X134040000Y-153950000D03*
D17*
X128970000Y-157620000D03*
X131510000Y-157620000D03*
D18*
X134050000Y-157620000D03*
D19*
X101620000Y-142140000D03*
D20*
X94020000Y-142140000D03*
D21*
X130500000Y-125420000D03*
X127960000Y-125420000D03*
X125420000Y-125420000D03*
X122880000Y-125420000D03*
X120340000Y-125420000D03*
X117800000Y-125420000D03*
X115260000Y-125420000D03*
X112720000Y-125420000D03*
X110180000Y-125420000D03*
X107640000Y-125420000D03*
X130500000Y-127960000D03*
X127960000Y-127960000D03*
X125420000Y-127960000D03*
X122880000Y-127960000D03*
X120340000Y-127960000D03*
X117800000Y-127960000D03*
X115260000Y-127960000D03*
X112720000Y-127960000D03*
X110180000Y-127960000D03*
G04 #@! TA.AperFunction,ComponentPad*
G36*
G01*
X108240000Y-128810000D02*
X107040000Y-128810000D01*
G75*
G02*
X106790000Y-128560000I0J250000D01*
G01*
X106790000Y-127360000D01*
G75*
G02*
X107040000Y-127110000I250000J0D01*
G01*
X108240000Y-127110000D01*
G75*
G02*
X108490000Y-127360000I0J-250000D01*
G01*
X108490000Y-128560000D01*
G75*
G02*
X108240000Y-128810000I-250000J0D01*
G01*
G37*
G04 #@! TD.AperFunction*
D14*
X157100000Y-133040000D03*
G04 #@! TA.AperFunction,ComponentPad*
G36*
G01*
X157850000Y-136390000D02*
X156350000Y-136390000D01*
G75*
G02*
X156100000Y-136140000I0J250000D01*
G01*
X156100000Y-134940000D01*
G75*
G02*
X156350000Y-134690000I250000J0D01*
G01*
X157850000Y-134690000D01*
G75*
G02*
X158100000Y-134940000I0J-250000D01*
G01*
X158100000Y-136140000D01*
G75*
G02*
X157850000Y-136390000I-250000J0D01*
G01*
G37*
G04 #@! TD.AperFunction*
D21*
X148560000Y-133830000D03*
X146020000Y-133830000D03*
X143480000Y-133830000D03*
X148560000Y-136370000D03*
X146020000Y-136370000D03*
G04 #@! TA.AperFunction,ComponentPad*
G36*
G01*
X144080000Y-137220000D02*
X142880000Y-137220000D01*
G75*
G02*
X142630000Y-136970000I0J250000D01*
G01*
X142630000Y-135770000D01*
G75*
G02*
X142880000Y-135520000I250000J0D01*
G01*
X144080000Y-135520000D01*
G75*
G02*
X144330000Y-135770000I0J-250000D01*
G01*
X144330000Y-136970000D01*
G75*
G02*
X144080000Y-137220000I-250000J0D01*
G01*
G37*
G04 #@! TD.AperFunction*
D22*
X120970000Y-116270000D03*
X118470000Y-116270000D03*
G04 #@! TA.AperFunction,ComponentPad*
G36*
G01*
X115120000Y-116995000D02*
X115120000Y-115545000D01*
G75*
G02*
X115370000Y-115295000I250000J0D01*
G01*
X116570000Y-115295000D01*
G75*
G02*
X116820000Y-115545000I0J-250000D01*
G01*
X116820000Y-116995000D01*
G75*
G02*
X116570000Y-117245000I-250000J0D01*
G01*
X115370000Y-117245000D01*
G75*
G02*
X115120000Y-116995000I0J250000D01*
G01*
G37*
G04 #@! TD.AperFunction*
X109920000Y-116270000D03*
X107420000Y-116270000D03*
G04 #@! TA.AperFunction,ComponentPad*
G36*
G01*
X104070000Y-116995000D02*
X104070000Y-115545000D01*
G75*
G02*
X104320000Y-115295000I250000J0D01*
G01*
X105520000Y-115295000D01*
G75*
G02*
X105770000Y-115545000I0J-250000D01*
G01*
X105770000Y-116995000D01*
G75*
G02*
X105520000Y-117245000I-250000J0D01*
G01*
X104320000Y-117245000D01*
G75*
G02*
X104070000Y-116995000I0J250000D01*
G01*
G37*
G04 #@! TD.AperFunction*
X155080000Y-126070000D03*
X152580000Y-126070000D03*
G04 #@! TA.AperFunction,ComponentPad*
G36*
G01*
X149230000Y-126795000D02*
X149230000Y-125345000D01*
G75*
G02*
X149480000Y-125095000I250000J0D01*
G01*
X150680000Y-125095000D01*
G75*
G02*
X150930000Y-125345000I0J-250000D01*
G01*
X150930000Y-126795000D01*
G75*
G02*
X150680000Y-127045000I-250000J0D01*
G01*
X149480000Y-127045000D01*
G75*
G02*
X149230000Y-126795000I0J250000D01*
G01*
G37*
G04 #@! TD.AperFunction*
X166020000Y-126070000D03*
X163520000Y-126070000D03*
G04 #@! TA.AperFunction,ComponentPad*
G36*
G01*
X160170000Y-126795000D02*
X160170000Y-125345000D01*
G75*
G02*
X160420000Y-125095000I250000J0D01*
G01*
X161620000Y-125095000D01*
G75*
G02*
X161870000Y-125345000I0J-250000D01*
G01*
X161870000Y-126795000D01*
G75*
G02*
X161620000Y-127045000I-250000J0D01*
G01*
X160420000Y-127045000D01*
G75*
G02*
X160170000Y-126795000I0J250000D01*
G01*
G37*
G04 #@! TD.AperFunction*
X144140000Y-126070000D03*
X141640000Y-126070000D03*
G04 #@! TA.AperFunction,ComponentPad*
G36*
G01*
X138290000Y-126795000D02*
X138290000Y-125345000D01*
G75*
G02*
X138540000Y-125095000I250000J0D01*
G01*
X139740000Y-125095000D01*
G75*
G02*
X139990000Y-125345000I0J-250000D01*
G01*
X139990000Y-126795000D01*
G75*
G02*
X139740000Y-127045000I-250000J0D01*
G01*
X138540000Y-127045000D01*
G75*
G02*
X138290000Y-126795000I0J250000D01*
G01*
G37*
G04 #@! TD.AperFunction*
X165710000Y-116280000D03*
X163210000Y-116280000D03*
G04 #@! TA.AperFunction,ComponentPad*
G36*
G01*
X159860000Y-117005000D02*
X159860000Y-115555000D01*
G75*
G02*
X160110000Y-115305000I250000J0D01*
G01*
X161310000Y-115305000D01*
G75*
G02*
X161560000Y-115555000I0J-250000D01*
G01*
X161560000Y-117005000D01*
G75*
G02*
X161310000Y-117255000I-250000J0D01*
G01*
X160110000Y-117255000D01*
G75*
G02*
X159860000Y-117005000I0J250000D01*
G01*
G37*
G04 #@! TD.AperFunction*
X154680000Y-116320000D03*
X152180000Y-116320000D03*
G04 #@! TA.AperFunction,ComponentPad*
G36*
G01*
X148830000Y-117045000D02*
X148830000Y-115595000D01*
G75*
G02*
X149080000Y-115345000I250000J0D01*
G01*
X150280000Y-115345000D01*
G75*
G02*
X150530000Y-115595000I0J-250000D01*
G01*
X150530000Y-117045000D01*
G75*
G02*
X150280000Y-117295000I-250000J0D01*
G01*
X149080000Y-117295000D01*
G75*
G02*
X148830000Y-117045000I0J250000D01*
G01*
G37*
G04 #@! TD.AperFunction*
X143720000Y-116330000D03*
X141220000Y-116330000D03*
G04 #@! TA.AperFunction,ComponentPad*
G36*
G01*
X137870000Y-117055000D02*
X137870000Y-115605000D01*
G75*
G02*
X138120000Y-115355000I250000J0D01*
G01*
X139320000Y-115355000D01*
G75*
G02*
X139570000Y-115605000I0J-250000D01*
G01*
X139570000Y-117055000D01*
G75*
G02*
X139320000Y-117305000I-250000J0D01*
G01*
X138120000Y-117305000D01*
G75*
G02*
X137870000Y-117055000I0J250000D01*
G01*
G37*
G04 #@! TD.AperFunction*
X132730000Y-116330000D03*
X130230000Y-116330000D03*
G04 #@! TA.AperFunction,ComponentPad*
G36*
G01*
X126880000Y-117055000D02*
X126880000Y-115605000D01*
G75*
G02*
X127130000Y-115355000I250000J0D01*
G01*
X128330000Y-115355000D01*
G75*
G02*
X128580000Y-115605000I0J-250000D01*
G01*
X128580000Y-117055000D01*
G75*
G02*
X128330000Y-117305000I-250000J0D01*
G01*
X127130000Y-117305000D01*
G75*
G02*
X126880000Y-117055000I0J250000D01*
G01*
G37*
G04 #@! TD.AperFunction*
D11*
X156200000Y-161100000D03*
X153700000Y-161100000D03*
X151700000Y-161100000D03*
D12*
X149200000Y-161100000D03*
D13*
X146130000Y-163810000D03*
X159270000Y-163810000D03*
D11*
X138780000Y-161080000D03*
X136280000Y-161080000D03*
X134280000Y-161080000D03*
D12*
X131780000Y-161080000D03*
D13*
X128710000Y-163790000D03*
X141850000Y-163790000D03*
D23*
X85070000Y-137450000D03*
G04 #@! TA.AperFunction,ComponentPad*
G36*
G01*
X81720000Y-138200000D02*
X81720000Y-136700000D01*
G75*
G02*
X81970000Y-136450000I250000J0D01*
G01*
X83170000Y-136450000D01*
G75*
G02*
X83420000Y-136700000I0J-250000D01*
G01*
X83420000Y-138200000D01*
G75*
G02*
X83170000Y-138450000I-250000J0D01*
G01*
X81970000Y-138450000D01*
G75*
G02*
X81720000Y-138200000I0J250000D01*
G01*
G37*
G04 #@! TD.AperFunction*
D24*
X83310000Y-161630000D03*
D25*
X78865000Y-160360000D03*
X78865000Y-161630000D03*
X78865000Y-162900000D03*
X87755000Y-162900000D03*
X87755000Y-161630000D03*
X87755000Y-160360000D03*
D24*
X95490000Y-161670000D03*
D25*
X91045000Y-160400000D03*
X91045000Y-161670000D03*
X91045000Y-162940000D03*
X99935000Y-162940000D03*
X99935000Y-161670000D03*
X99935000Y-160400000D03*
D23*
X85120000Y-153470000D03*
G04 #@! TA.AperFunction,ComponentPad*
G36*
G01*
X81770000Y-154220000D02*
X81770000Y-152720000D01*
G75*
G02*
X82020000Y-152470000I250000J0D01*
G01*
X83220000Y-152470000D01*
G75*
G02*
X83470000Y-152720000I0J-250000D01*
G01*
X83470000Y-154220000D01*
G75*
G02*
X83220000Y-154470000I-250000J0D01*
G01*
X82020000Y-154470000D01*
G75*
G02*
X81770000Y-154220000I0J250000D01*
G01*
G37*
G04 #@! TD.AperFunction*
X85120000Y-145460000D03*
G04 #@! TA.AperFunction,ComponentPad*
G36*
G01*
X81770000Y-146210000D02*
X81770000Y-144710000D01*
G75*
G02*
X82020000Y-144460000I250000J0D01*
G01*
X83220000Y-144460000D01*
G75*
G02*
X83470000Y-144710000I0J-250000D01*
G01*
X83470000Y-146210000D01*
G75*
G02*
X83220000Y-146460000I-250000J0D01*
G01*
X82020000Y-146460000D01*
G75*
G02*
X81770000Y-146210000I0J250000D01*
G01*
G37*
G04 #@! TD.AperFunction*
X74510000Y-153460000D03*
G04 #@! TA.AperFunction,ComponentPad*
G36*
G01*
X71160000Y-154210000D02*
X71160000Y-152710000D01*
G75*
G02*
X71410000Y-152460000I250000J0D01*
G01*
X72610000Y-152460000D01*
G75*
G02*
X72860000Y-152710000I0J-250000D01*
G01*
X72860000Y-154210000D01*
G75*
G02*
X72610000Y-154460000I-250000J0D01*
G01*
X71410000Y-154460000D01*
G75*
G02*
X71160000Y-154210000I0J250000D01*
G01*
G37*
G04 #@! TD.AperFunction*
X74510000Y-145460000D03*
G04 #@! TA.AperFunction,ComponentPad*
G36*
G01*
X71160000Y-146210000D02*
X71160000Y-144710000D01*
G75*
G02*
X71410000Y-144460000I250000J0D01*
G01*
X72610000Y-144460000D01*
G75*
G02*
X72860000Y-144710000I0J-250000D01*
G01*
X72860000Y-146210000D01*
G75*
G02*
X72610000Y-146460000I-250000J0D01*
G01*
X71410000Y-146460000D01*
G75*
G02*
X71160000Y-146210000I0J250000D01*
G01*
G37*
G04 #@! TD.AperFunction*
X74510000Y-137460000D03*
G04 #@! TA.AperFunction,ComponentPad*
G36*
G01*
X71160000Y-138210000D02*
X71160000Y-136710000D01*
G75*
G02*
X71410000Y-136460000I250000J0D01*
G01*
X72610000Y-136460000D01*
G75*
G02*
X72860000Y-136710000I0J-250000D01*
G01*
X72860000Y-138210000D01*
G75*
G02*
X72610000Y-138460000I-250000J0D01*
G01*
X71410000Y-138460000D01*
G75*
G02*
X71160000Y-138210000I0J250000D01*
G01*
G37*
G04 #@! TD.AperFunction*
X85070000Y-129460000D03*
G04 #@! TA.AperFunction,ComponentPad*
G36*
G01*
X81720000Y-130210000D02*
X81720000Y-128710000D01*
G75*
G02*
X81970000Y-128460000I250000J0D01*
G01*
X83170000Y-128460000D01*
G75*
G02*
X83420000Y-128710000I0J-250000D01*
G01*
X83420000Y-130210000D01*
G75*
G02*
X83170000Y-130460000I-250000J0D01*
G01*
X81970000Y-130460000D01*
G75*
G02*
X81720000Y-130210000I0J250000D01*
G01*
G37*
G04 #@! TD.AperFunction*
X74510000Y-129460000D03*
G04 #@! TA.AperFunction,ComponentPad*
G36*
G01*
X71160000Y-130210000D02*
X71160000Y-128710000D01*
G75*
G02*
X71410000Y-128460000I250000J0D01*
G01*
X72610000Y-128460000D01*
G75*
G02*
X72860000Y-128710000I0J-250000D01*
G01*
X72860000Y-130210000D01*
G75*
G02*
X72610000Y-130460000I-250000J0D01*
G01*
X71410000Y-130460000D01*
G75*
G02*
X71160000Y-130210000I0J250000D01*
G01*
G37*
G04 #@! TD.AperFunction*
D26*
X166890000Y-132870000D03*
X166890000Y-141510000D03*
D27*
X162720000Y-132870000D03*
X162720000Y-141510000D03*
D26*
X71075000Y-119715000D03*
X71075000Y-111075000D03*
D27*
X75245000Y-119715000D03*
X75245000Y-111075000D03*
D28*
X76815000Y-96345000D03*
X76815000Y-97445000D03*
X78015000Y-97445000D03*
X78015000Y-96345000D03*
X76815000Y-99945000D03*
X76815000Y-98745000D03*
X78015000Y-98745000D03*
X78015000Y-99945000D03*
D29*
X77415000Y-98145000D03*
D30*
X103940000Y-111720000D03*
X86160000Y-99020000D03*
X101400000Y-111720000D03*
X88700000Y-99020000D03*
X98860000Y-111720000D03*
X91240000Y-99020000D03*
X96320000Y-111720000D03*
X93780000Y-99020000D03*
X93780000Y-111720000D03*
X96320000Y-99020000D03*
X91240000Y-111720000D03*
X98860000Y-99020000D03*
X88700000Y-111720000D03*
X101400000Y-99020000D03*
X86160000Y-111720000D03*
D12*
X103940000Y-99020000D03*
D22*
X112290000Y-94370000D03*
X114790000Y-94370000D03*
X117290000Y-94370000D03*
G04 #@! TA.AperFunction,ComponentPad*
G36*
G01*
X120640000Y-93645000D02*
X120640000Y-95095000D01*
G75*
G02*
X120390000Y-95345000I-250000J0D01*
G01*
X119190000Y-95345000D01*
G75*
G02*
X118940000Y-95095000I0J250000D01*
G01*
X118940000Y-93645000D01*
G75*
G02*
X119190000Y-93395000I250000J0D01*
G01*
X120390000Y-93395000D01*
G75*
G02*
X120640000Y-93645000I0J-250000D01*
G01*
G37*
G04 #@! TD.AperFunction*
X133290000Y-94420000D03*
X135790000Y-94420000D03*
X138290000Y-94420000D03*
G04 #@! TA.AperFunction,ComponentPad*
G36*
G01*
X141640000Y-93695000D02*
X141640000Y-95145000D01*
G75*
G02*
X141390000Y-95395000I-250000J0D01*
G01*
X140190000Y-95395000D01*
G75*
G02*
X139940000Y-95145000I0J250000D01*
G01*
X139940000Y-93695000D01*
G75*
G02*
X140190000Y-93445000I250000J0D01*
G01*
X141390000Y-93445000D01*
G75*
G02*
X141640000Y-93695000I0J-250000D01*
G01*
G37*
G04 #@! TD.AperFunction*
X91340000Y-94420000D03*
X93840000Y-94420000D03*
X96340000Y-94420000D03*
G04 #@! TA.AperFunction,ComponentPad*
G36*
G01*
X99690000Y-93695000D02*
X99690000Y-95145000D01*
G75*
G02*
X99440000Y-95395000I-250000J0D01*
G01*
X98240000Y-95395000D01*
G75*
G02*
X97990000Y-95145000I0J250000D01*
G01*
X97990000Y-93695000D01*
G75*
G02*
X98240000Y-93445000I250000J0D01*
G01*
X99440000Y-93445000D01*
G75*
G02*
X99690000Y-93695000I0J-250000D01*
G01*
G37*
G04 #@! TD.AperFunction*
D31*
X73990000Y-77420000D03*
D32*
X73990000Y-82420000D03*
D18*
X103700000Y-102010000D03*
D17*
X103700000Y-104550000D03*
X103700000Y-107090000D03*
D18*
X98140000Y-102010000D03*
D17*
X98140000Y-104550000D03*
X98140000Y-107090000D03*
D18*
X95340000Y-102010000D03*
D17*
X95340000Y-104550000D03*
X95340000Y-107090000D03*
D18*
X100940000Y-102010000D03*
D17*
X100940000Y-104550000D03*
X100940000Y-107090000D03*
D18*
X124800000Y-102110000D03*
D17*
X124800000Y-104650000D03*
X124800000Y-107190000D03*
D18*
X119240000Y-102110000D03*
D17*
X119240000Y-104650000D03*
X119240000Y-107190000D03*
D18*
X116440000Y-102110000D03*
D17*
X116440000Y-104650000D03*
X116440000Y-107190000D03*
D18*
X122040000Y-102110000D03*
D17*
X122040000Y-104650000D03*
X122040000Y-107190000D03*
D18*
X166800000Y-102110000D03*
D17*
X166800000Y-104650000D03*
X166800000Y-107190000D03*
D18*
X161240000Y-102110000D03*
D17*
X161240000Y-104650000D03*
X161240000Y-107190000D03*
D18*
X158440000Y-102110000D03*
D17*
X158440000Y-104650000D03*
X158440000Y-107190000D03*
D18*
X164040000Y-102110000D03*
D17*
X164040000Y-104650000D03*
X164040000Y-107190000D03*
D18*
X145800000Y-102110000D03*
D17*
X145800000Y-104650000D03*
X145800000Y-107190000D03*
D18*
X140240000Y-102110000D03*
D17*
X140240000Y-104650000D03*
X140240000Y-107190000D03*
D18*
X137440000Y-102110000D03*
D17*
X137440000Y-104650000D03*
X137440000Y-107190000D03*
D18*
X143040000Y-102110000D03*
D17*
X143040000Y-104650000D03*
X143040000Y-107190000D03*
D18*
X166800000Y-79110000D03*
D17*
X166800000Y-81650000D03*
X166800000Y-84190000D03*
D18*
X161240000Y-79110000D03*
D17*
X161240000Y-81650000D03*
X161240000Y-84190000D03*
D18*
X158440000Y-79110000D03*
D17*
X158440000Y-81650000D03*
X158440000Y-84190000D03*
D18*
X164040000Y-79110000D03*
D17*
X164040000Y-81650000D03*
X164040000Y-84190000D03*
D18*
X145900000Y-79110000D03*
D17*
X145900000Y-81650000D03*
X145900000Y-84190000D03*
D18*
X140340000Y-79110000D03*
D17*
X140340000Y-81650000D03*
X140340000Y-84190000D03*
D18*
X137540000Y-79110000D03*
D17*
X137540000Y-81650000D03*
X137540000Y-84190000D03*
D18*
X143140000Y-79110000D03*
D17*
X143140000Y-81650000D03*
X143140000Y-84190000D03*
D18*
X103800000Y-79110000D03*
D17*
X103800000Y-81650000D03*
X103800000Y-84190000D03*
D18*
X98240000Y-79110000D03*
D17*
X98240000Y-81650000D03*
X98240000Y-84190000D03*
D18*
X95440000Y-79110000D03*
D17*
X95440000Y-81650000D03*
X95440000Y-84190000D03*
D18*
X101040000Y-79110000D03*
D17*
X101040000Y-81650000D03*
X101040000Y-84190000D03*
D22*
X146690000Y-70270000D03*
X149190000Y-70270000D03*
X151690000Y-70270000D03*
G04 #@! TA.AperFunction,ComponentPad*
G36*
G01*
X155040000Y-69545000D02*
X155040000Y-70995000D01*
G75*
G02*
X154790000Y-71245000I-250000J0D01*
G01*
X153590000Y-71245000D01*
G75*
G02*
X153340000Y-70995000I0J250000D01*
G01*
X153340000Y-69545000D01*
G75*
G02*
X153590000Y-69295000I250000J0D01*
G01*
X154790000Y-69295000D01*
G75*
G02*
X155040000Y-69545000I0J-250000D01*
G01*
G37*
G04 #@! TD.AperFunction*
D17*
X124900000Y-84190000D03*
X124900000Y-81650000D03*
D18*
X124900000Y-79110000D03*
D17*
X119340000Y-84190000D03*
X119340000Y-81650000D03*
D18*
X119340000Y-79110000D03*
D17*
X122140000Y-84190000D03*
X122140000Y-81650000D03*
D18*
X122140000Y-79110000D03*
D17*
X116540000Y-84190000D03*
X116540000Y-81650000D03*
D18*
X116540000Y-79110000D03*
D22*
X154290000Y-94420000D03*
X156790000Y-94420000D03*
X159290000Y-94420000D03*
G04 #@! TA.AperFunction,ComponentPad*
G36*
G01*
X162640000Y-93695000D02*
X162640000Y-95145000D01*
G75*
G02*
X162390000Y-95395000I-250000J0D01*
G01*
X161190000Y-95395000D01*
G75*
G02*
X160940000Y-95145000I0J250000D01*
G01*
X160940000Y-93695000D01*
G75*
G02*
X161190000Y-93445000I250000J0D01*
G01*
X162390000Y-93445000D01*
G75*
G02*
X162640000Y-93695000I0J-250000D01*
G01*
G37*
G04 #@! TD.AperFunction*
X81315000Y-70145000D03*
X83815000Y-70145000D03*
X86315000Y-70145000D03*
G04 #@! TA.AperFunction,ComponentPad*
G36*
G01*
X89665000Y-69420000D02*
X89665000Y-70870000D01*
G75*
G02*
X89415000Y-71120000I-250000J0D01*
G01*
X88215000Y-71120000D01*
G75*
G02*
X87965000Y-70870000I0J250000D01*
G01*
X87965000Y-69420000D01*
G75*
G02*
X88215000Y-69170000I250000J0D01*
G01*
X89415000Y-69170000D01*
G75*
G02*
X89665000Y-69420000I0J-250000D01*
G01*
G37*
G04 #@! TD.AperFunction*
X129890000Y-70170000D03*
X132390000Y-70170000D03*
X134890000Y-70170000D03*
G04 #@! TA.AperFunction,ComponentPad*
G36*
G01*
X138240000Y-69445000D02*
X138240000Y-70895000D01*
G75*
G02*
X137990000Y-71145000I-250000J0D01*
G01*
X136790000Y-71145000D01*
G75*
G02*
X136540000Y-70895000I0J250000D01*
G01*
X136540000Y-69445000D01*
G75*
G02*
X136790000Y-69195000I250000J0D01*
G01*
X137990000Y-69195000D01*
G75*
G02*
X138240000Y-69445000I0J-250000D01*
G01*
G37*
G04 #@! TD.AperFunction*
X98365000Y-70145000D03*
X100865000Y-70145000D03*
X103365000Y-70145000D03*
G04 #@! TA.AperFunction,ComponentPad*
G36*
G01*
X106715000Y-69420000D02*
X106715000Y-70870000D01*
G75*
G02*
X106465000Y-71120000I-250000J0D01*
G01*
X105265000Y-71120000D01*
G75*
G02*
X105015000Y-70870000I0J250000D01*
G01*
X105015000Y-69420000D01*
G75*
G02*
X105265000Y-69170000I250000J0D01*
G01*
X106465000Y-69170000D01*
G75*
G02*
X106715000Y-69420000I0J-250000D01*
G01*
G37*
G04 #@! TD.AperFunction*
X112365000Y-70145000D03*
X114865000Y-70145000D03*
X117365000Y-70145000D03*
G04 #@! TA.AperFunction,ComponentPad*
G36*
G01*
X120715000Y-69420000D02*
X120715000Y-70870000D01*
G75*
G02*
X120465000Y-71120000I-250000J0D01*
G01*
X119265000Y-71120000D01*
G75*
G02*
X119015000Y-70870000I0J250000D01*
G01*
X119015000Y-69420000D01*
G75*
G02*
X119265000Y-69170000I250000J0D01*
G01*
X120465000Y-69170000D01*
G75*
G02*
X120715000Y-69420000I0J-250000D01*
G01*
G37*
G04 #@! TD.AperFunction*
D30*
X166940000Y-88720000D03*
X149160000Y-76020000D03*
X164400000Y-88720000D03*
X151700000Y-76020000D03*
X161860000Y-88720000D03*
X154240000Y-76020000D03*
X159320000Y-88720000D03*
X156780000Y-76020000D03*
X156780000Y-88720000D03*
X159320000Y-76020000D03*
X154240000Y-88720000D03*
X161860000Y-76020000D03*
X151700000Y-88720000D03*
X164400000Y-76020000D03*
X149160000Y-88720000D03*
D12*
X166940000Y-76020000D03*
D30*
X166940000Y-111720000D03*
X149160000Y-99020000D03*
X164400000Y-111720000D03*
X151700000Y-99020000D03*
X161860000Y-111720000D03*
X154240000Y-99020000D03*
X159320000Y-111720000D03*
X156780000Y-99020000D03*
X156780000Y-111720000D03*
X159320000Y-99020000D03*
X154240000Y-111720000D03*
X161860000Y-99020000D03*
X151700000Y-111720000D03*
X164400000Y-99020000D03*
X149160000Y-111720000D03*
D12*
X166940000Y-99020000D03*
D30*
X124940000Y-111720000D03*
X107160000Y-99020000D03*
X122400000Y-111720000D03*
X109700000Y-99020000D03*
X119860000Y-111720000D03*
X112240000Y-99020000D03*
X117320000Y-111720000D03*
X114780000Y-99020000D03*
X114780000Y-111720000D03*
X117320000Y-99020000D03*
X112240000Y-111720000D03*
X119860000Y-99020000D03*
X109700000Y-111720000D03*
X122400000Y-99020000D03*
X107160000Y-111720000D03*
D12*
X124940000Y-99020000D03*
D30*
X103940000Y-88720000D03*
X86160000Y-76020000D03*
X101400000Y-88720000D03*
X88700000Y-76020000D03*
X98860000Y-88720000D03*
X91240000Y-76020000D03*
X96320000Y-88720000D03*
X93780000Y-76020000D03*
X93780000Y-88720000D03*
X96320000Y-76020000D03*
X91240000Y-88720000D03*
X98860000Y-76020000D03*
X88700000Y-88720000D03*
X101400000Y-76020000D03*
X86160000Y-88720000D03*
D12*
X103940000Y-76020000D03*
D30*
X145940000Y-88720000D03*
X128160000Y-76020000D03*
X143400000Y-88720000D03*
X130700000Y-76020000D03*
X140860000Y-88720000D03*
X133240000Y-76020000D03*
X138320000Y-88720000D03*
X135780000Y-76020000D03*
X135780000Y-88720000D03*
X138320000Y-76020000D03*
X133240000Y-88720000D03*
X140860000Y-76020000D03*
X130700000Y-88720000D03*
X143400000Y-76020000D03*
X128160000Y-88720000D03*
D12*
X145940000Y-76020000D03*
D30*
X145940000Y-111720000D03*
X128160000Y-99020000D03*
X143400000Y-111720000D03*
X130700000Y-99020000D03*
X140860000Y-111720000D03*
X133240000Y-99020000D03*
X138320000Y-111720000D03*
X135780000Y-99020000D03*
X135780000Y-111720000D03*
X138320000Y-99020000D03*
X133240000Y-111720000D03*
X140860000Y-99020000D03*
X130700000Y-111720000D03*
X143400000Y-99020000D03*
X128160000Y-111720000D03*
D12*
X145940000Y-99020000D03*
D30*
X124940000Y-88720000D03*
X107160000Y-76020000D03*
X122400000Y-88720000D03*
X109700000Y-76020000D03*
X119860000Y-88720000D03*
X112240000Y-76020000D03*
X117320000Y-88720000D03*
X114780000Y-76020000D03*
X114780000Y-88720000D03*
X117320000Y-76020000D03*
X112240000Y-88720000D03*
X119860000Y-76020000D03*
X109700000Y-88720000D03*
X122400000Y-76020000D03*
X107160000Y-88720000D03*
D12*
X124940000Y-76020000D03*
D33*
X74020000Y-71030000D03*
X74020000Y-161030000D03*
X164020000Y-71030000D03*
X164020000Y-161030000D03*
D34*
X84560000Y-96520000D03*
X83865000Y-100495000D03*
X96570000Y-123610000D03*
X88700201Y-123569803D03*
X89470000Y-119640000D03*
X83450000Y-123320002D03*
X89700000Y-123590000D03*
X97590000Y-123600000D03*
X94600000Y-115560000D03*
X94620000Y-118550000D03*
X77015000Y-103295000D03*
X73380318Y-97529682D03*
X76460000Y-125800000D03*
X90700000Y-123600000D03*
X98587056Y-123523304D03*
X91702131Y-123623174D03*
X99586857Y-123543344D03*
X100477500Y-162821990D03*
X91710000Y-159190000D03*
X79630000Y-159140000D03*
X79850000Y-164150000D03*
X88570000Y-162860000D03*
X107980000Y-162330000D03*
X78780000Y-160380000D03*
X90890000Y-160410000D03*
X98570000Y-164100000D03*
X108720000Y-163700000D03*
X91890000Y-164260000D03*
X76307668Y-104194588D03*
X73315000Y-96195000D03*
D35*
X117320000Y-70190000D02*
X117365000Y-70145000D01*
X117320000Y-76020000D02*
X117320000Y-70190000D01*
X112240000Y-70270000D02*
X112365000Y-70145000D01*
X112240000Y-76020000D02*
X112240000Y-70270000D01*
X92985000Y-70145000D02*
X98860000Y-76020000D01*
X88815000Y-70145000D02*
X92985000Y-70145000D01*
X92419979Y-72119979D02*
X87539979Y-72119979D01*
X96320000Y-76020000D02*
X92419979Y-72119979D01*
X86315000Y-70895000D02*
X86315000Y-70145000D01*
X87539979Y-72119979D02*
X86315000Y-70895000D01*
X93780000Y-76020000D02*
X91079989Y-73319989D01*
X91079989Y-73319989D02*
X85412061Y-73319989D01*
X83815000Y-71722928D02*
X83815000Y-70145000D01*
X85412061Y-73319989D02*
X83815000Y-71722928D01*
X89420001Y-74519999D02*
X84915001Y-74519999D01*
X90920002Y-76020000D02*
X89420001Y-74519999D01*
X91240000Y-76020000D02*
X90920002Y-76020000D01*
X81315000Y-70919998D02*
X81315000Y-70145000D01*
X84915001Y-74519999D02*
X81315000Y-70919998D01*
X140860000Y-76020000D02*
X140860000Y-73640000D01*
X140860000Y-73640000D02*
X137390000Y-70170000D01*
X138320000Y-74325000D02*
X134890000Y-70895000D01*
X134890000Y-70895000D02*
X134890000Y-70170000D01*
X138320000Y-76020000D02*
X138320000Y-74325000D01*
X135780000Y-74710000D02*
X132390000Y-71320000D01*
X132390000Y-71320000D02*
X132390000Y-70170000D01*
X135780000Y-76020000D02*
X135780000Y-74710000D01*
X129890000Y-71495000D02*
X129890000Y-70170000D01*
X133240000Y-76020000D02*
X133240000Y-74845000D01*
X133240000Y-74845000D02*
X129890000Y-71495000D01*
X154240000Y-76020000D02*
X152565030Y-74345030D01*
X152565030Y-74345030D02*
X150765030Y-74345030D01*
X150765030Y-74345030D02*
X146690000Y-70270000D01*
X156780000Y-76020000D02*
X153905020Y-73145020D01*
X153905020Y-73145020D02*
X152065020Y-73145020D01*
X152065020Y-73145020D02*
X149190000Y-70270000D01*
X159320000Y-76020000D02*
X155245010Y-71945010D01*
X155245010Y-71945010D02*
X153196490Y-71945010D01*
X153196490Y-71945010D02*
X151690000Y-70438520D01*
X151690000Y-70438520D02*
X151690000Y-70270000D01*
X161860000Y-76020000D02*
X156110000Y-70270000D01*
X156110000Y-70270000D02*
X154190000Y-70270000D01*
X91240000Y-94520000D02*
X91340000Y-94420000D01*
X91240000Y-99020000D02*
X91240000Y-94520000D01*
X93780000Y-94480000D02*
X93840000Y-94420000D01*
X93780000Y-99020000D02*
X93780000Y-94480000D01*
X96320000Y-94440000D02*
X96340000Y-94420000D01*
X96320000Y-99020000D02*
X96320000Y-94440000D01*
X98860000Y-94440000D02*
X98840000Y-94420000D01*
X98860000Y-99020000D02*
X98860000Y-94440000D01*
X133240000Y-94470000D02*
X133290000Y-94420000D01*
X133240000Y-99020000D02*
X133240000Y-94470000D01*
X135780000Y-94430000D02*
X135790000Y-94420000D01*
X135780000Y-99020000D02*
X135780000Y-94430000D01*
X138320000Y-94450000D02*
X138290000Y-94420000D01*
X138320000Y-99020000D02*
X138320000Y-94450000D01*
X140860000Y-94490000D02*
X140790000Y-94420000D01*
X140860000Y-99020000D02*
X140860000Y-94490000D01*
D36*
X128160000Y-83964002D02*
X128160000Y-76020000D01*
X125884001Y-86240001D02*
X128160000Y-83964002D01*
X115555999Y-86240001D02*
X125884001Y-86240001D01*
X107160000Y-77844002D02*
X115555999Y-86240001D01*
X107160000Y-76020000D02*
X107160000Y-77844002D01*
D37*
X86160000Y-104070002D02*
X78560001Y-111670001D01*
X86160000Y-99020000D02*
X86160000Y-104070002D01*
D36*
X73210010Y-147660010D02*
X77659990Y-147660010D01*
X72010000Y-146460000D02*
X73210010Y-147660010D01*
X72010000Y-145460000D02*
X72010000Y-146460000D01*
X73660859Y-155660010D02*
X77299990Y-155660010D01*
X77299990Y-155660010D02*
X78560001Y-154399999D01*
X72010000Y-154009151D02*
X73660859Y-155660010D01*
X72010000Y-153460000D02*
X72010000Y-154009151D01*
X78069992Y-139660010D02*
X78560001Y-139170001D01*
X73660859Y-139660010D02*
X78069992Y-139660010D01*
X72010000Y-138009151D02*
X73660859Y-139660010D01*
X72010000Y-137460000D02*
X72010000Y-138009151D01*
X78560001Y-154399999D02*
X78560001Y-152520001D01*
D37*
X78560001Y-137469999D02*
X78560001Y-139170001D01*
X71959990Y-128253752D02*
X71959990Y-129460000D01*
X71959990Y-127192008D02*
X71959990Y-128253752D01*
X78560001Y-120591997D02*
X71959990Y-127192008D01*
X78560001Y-111670001D02*
X78560001Y-120591997D01*
D36*
X78560001Y-137469999D02*
X78570000Y-137460000D01*
D37*
X78570000Y-120601996D02*
X78560001Y-120591997D01*
D36*
X81710000Y-129460000D02*
X78570000Y-126320000D01*
X82570000Y-129460000D02*
X81710000Y-129460000D01*
D37*
X78570000Y-126320000D02*
X78570000Y-120601996D01*
X78570000Y-133610000D02*
X78570000Y-126320000D01*
D36*
X82410000Y-137450000D02*
X78570000Y-133610000D01*
X82570000Y-137450000D02*
X82410000Y-137450000D01*
D37*
X78570000Y-137460000D02*
X78570000Y-133610000D01*
D36*
X82050000Y-153470000D02*
X78560001Y-149980001D01*
X82620000Y-153470000D02*
X82050000Y-153470000D01*
D37*
X78560001Y-149980001D02*
X78560001Y-152520001D01*
X78560001Y-120611995D02*
X78570000Y-120601996D01*
D36*
X82170002Y-145460000D02*
X78560001Y-141849999D01*
D37*
X78560001Y-141849999D02*
X78560001Y-120611995D01*
D36*
X82620000Y-145460000D02*
X82170002Y-145460000D01*
D37*
X78560001Y-152520001D02*
X78560001Y-141849999D01*
D35*
X154240000Y-94470000D02*
X154290000Y-94420000D01*
X154240000Y-99020000D02*
X154240000Y-94470000D01*
X156780000Y-94430000D02*
X156790000Y-94420000D01*
X156780000Y-99020000D02*
X156780000Y-94430000D01*
X159320000Y-94450000D02*
X159290000Y-94420000D01*
X159320000Y-99020000D02*
X159320000Y-94450000D01*
X161860000Y-94490000D02*
X161790000Y-94420000D01*
X161860000Y-99020000D02*
X161860000Y-94490000D01*
X100040010Y-68469990D02*
X113189990Y-68469990D01*
X113189990Y-68469990D02*
X114865000Y-70145000D01*
X98365000Y-70145000D02*
X100040010Y-68469990D01*
X112240000Y-94420000D02*
X112290000Y-94370000D01*
X112240000Y-99020000D02*
X112240000Y-94420000D01*
X114780000Y-94380000D02*
X114790000Y-94370000D01*
X114780000Y-99020000D02*
X114780000Y-94380000D01*
X117320000Y-94400000D02*
X117290000Y-94370000D01*
X117320000Y-99020000D02*
X117320000Y-94400000D01*
X119860000Y-94440000D02*
X119790000Y-94370000D01*
X119860000Y-99020000D02*
X119860000Y-94440000D01*
D38*
X73380318Y-99660318D02*
X73380318Y-97529682D01*
X77015000Y-103295000D02*
X73380318Y-99660318D01*
X97938751Y-122874999D02*
X98587056Y-123523304D01*
X91425001Y-122874999D02*
X97938751Y-122874999D01*
X90700000Y-123600000D02*
X91425001Y-122874999D01*
X99586857Y-123596505D02*
X99586857Y-123543344D01*
X98848361Y-124335001D02*
X99586857Y-123596505D01*
X92413958Y-124335001D02*
X98848361Y-124335001D01*
X91702131Y-123623174D02*
X92413958Y-124335001D01*
X100359490Y-162940000D02*
X100477500Y-162821990D01*
X99935000Y-162940000D02*
X100359490Y-162940000D01*
X92445000Y-162940000D02*
X92920000Y-162465000D01*
X91045000Y-162940000D02*
X92445000Y-162940000D01*
X92275685Y-159190000D02*
X91710000Y-159190000D01*
X92920000Y-159834315D02*
X92275685Y-159190000D01*
X92920000Y-162465000D02*
X92920000Y-159834315D01*
X79630000Y-159140000D02*
X80660000Y-160170000D01*
X80265000Y-162900000D02*
X78865000Y-162900000D01*
X80660000Y-162505000D02*
X80265000Y-162900000D01*
X80660000Y-160170000D02*
X80660000Y-162505000D01*
X86279999Y-161069999D02*
X86989998Y-160360000D01*
X86989998Y-160360000D02*
X87755000Y-160360000D01*
X86279999Y-162339999D02*
X86279999Y-161069999D01*
X84469998Y-164150000D02*
X86279999Y-162339999D01*
X79850000Y-164150000D02*
X84469998Y-164150000D01*
X88530000Y-162900000D02*
X88570000Y-162860000D01*
X87755000Y-162900000D02*
X88530000Y-162900000D01*
X105324999Y-164985001D02*
X107980000Y-162330000D01*
X89840001Y-164985001D02*
X105324999Y-164985001D01*
X87755000Y-162900000D02*
X89840001Y-164985001D01*
X78800000Y-160360000D02*
X78780000Y-160380000D01*
X78865000Y-160360000D02*
X78800000Y-160360000D01*
X90900000Y-160400000D02*
X90890000Y-160410000D01*
X91045000Y-160400000D02*
X90900000Y-160400000D01*
X108720000Y-161996998D02*
X108720000Y-163700000D01*
X108328001Y-161604999D02*
X108720000Y-161996998D01*
X107631999Y-161604999D02*
X108328001Y-161604999D01*
X105136998Y-164100000D02*
X107631999Y-161604999D01*
X98570000Y-164100000D02*
X105136998Y-164100000D01*
X96489002Y-164260000D02*
X98170000Y-162579002D01*
X91890000Y-164260000D02*
X96489002Y-164260000D01*
X98535000Y-160400000D02*
X99935000Y-160400000D01*
X98170000Y-160765000D02*
X98535000Y-160400000D01*
X98170000Y-162579002D02*
X98170000Y-160765000D01*
X72655317Y-96854683D02*
X73315000Y-96195000D01*
X72655317Y-100542237D02*
X72655317Y-96854683D01*
X76307668Y-104194588D02*
X72655317Y-100542237D01*
M02*
