G04 #@! TF.GenerationSoftware,KiCad,Pcbnew,5.1.9+dfsg1-1~bpo10+1*
G04 #@! TF.CreationDate,2021-03-15T19:37:00+00:00*
G04 #@! TF.ProjectId,mobo,6d6f626f-2e6b-4696-9361-645f70636258,rev?*
G04 #@! TF.SameCoordinates,Original*
G04 #@! TF.FileFunction,Soldermask,Bot*
G04 #@! TF.FilePolarity,Negative*
%FSLAX46Y46*%
G04 Gerber Fmt 4.6, Leading zero omitted, Abs format (unit mm)*
G04 Created by KiCad (PCBNEW 5.1.9+dfsg1-1~bpo10+1) date 2021-03-15 19:37:00*
%MOMM*%
%LPD*%
G01*
G04 APERTURE LIST*
%ADD10O,1.700000X1.700000*%
%ADD11R,1.700000X1.700000*%
%ADD12O,2.000000X1.700000*%
%ADD13O,1.950000X1.700000*%
%ADD14C,0.100000*%
%ADD15C,1.600000*%
%ADD16R,1.600000X1.600000*%
%ADD17C,3.000000*%
%ADD18O,1.700000X1.950000*%
%ADD19C,1.700000*%
%ADD20C,4.200000*%
%ADD21R,2.300000X0.600000*%
%ADD22C,0.600000*%
%ADD23O,1.700000X0.900000*%
%ADD24O,2.000000X0.900000*%
%ADD25O,1.600000X1.600000*%
%ADD26R,2.600000X2.600000*%
%ADD27C,2.600000*%
%ADD28C,5.600000*%
G04 APERTURE END LIST*
D10*
X135220000Y-118000000D03*
X135220000Y-120540000D03*
X132680000Y-118000000D03*
X132680000Y-120540000D03*
X130140000Y-118000000D03*
X130140000Y-120540000D03*
X127600000Y-118000000D03*
X127600000Y-120540000D03*
X125060000Y-118000000D03*
X125060000Y-120540000D03*
X122520000Y-118000000D03*
X122520000Y-120540000D03*
X119980000Y-118000000D03*
X119980000Y-120540000D03*
X117440000Y-118000000D03*
X117440000Y-120540000D03*
X114900000Y-118000000D03*
X114900000Y-120540000D03*
X112360000Y-118000000D03*
D11*
X112360000Y-120540000D03*
D12*
X72910000Y-129420000D03*
G36*
G01*
X72160000Y-126070000D02*
X73660000Y-126070000D01*
G75*
G02*
X73910000Y-126320000I0J-250000D01*
G01*
X73910000Y-127520000D01*
G75*
G02*
X73660000Y-127770000I-250000J0D01*
G01*
X72160000Y-127770000D01*
G75*
G02*
X71910000Y-127520000I0J250000D01*
G01*
X71910000Y-126320000D01*
G75*
G02*
X72160000Y-126070000I250000J0D01*
G01*
G37*
D13*
X150980000Y-105880000D03*
X150980000Y-108380000D03*
G36*
G01*
X151705000Y-111730000D02*
X150255000Y-111730000D01*
G75*
G02*
X150005000Y-111480000I0J250000D01*
G01*
X150005000Y-110280000D01*
G75*
G02*
X150255000Y-110030000I250000J0D01*
G01*
X151705000Y-110030000D01*
G75*
G02*
X151955000Y-110280000I0J-250000D01*
G01*
X151955000Y-111480000D01*
G75*
G02*
X151705000Y-111730000I-250000J0D01*
G01*
G37*
D14*
G36*
X153770000Y-150260000D02*
G01*
X153770000Y-149760000D01*
X153770602Y-149760000D01*
X153770602Y-149735466D01*
X153775412Y-149686635D01*
X153784984Y-149638510D01*
X153799228Y-149591555D01*
X153818005Y-149546222D01*
X153841136Y-149502949D01*
X153868396Y-149462150D01*
X153899524Y-149424221D01*
X153934221Y-149389524D01*
X153972150Y-149358396D01*
X154012949Y-149331136D01*
X154056222Y-149308005D01*
X154101555Y-149289228D01*
X154148510Y-149274984D01*
X154196635Y-149265412D01*
X154245466Y-149260602D01*
X154270000Y-149260602D01*
X154270000Y-149260000D01*
X154770000Y-149260000D01*
X154770000Y-149260602D01*
X154794534Y-149260602D01*
X154843365Y-149265412D01*
X154891490Y-149274984D01*
X154938445Y-149289228D01*
X154983778Y-149308005D01*
X155027051Y-149331136D01*
X155067850Y-149358396D01*
X155105779Y-149389524D01*
X155140476Y-149424221D01*
X155171604Y-149462150D01*
X155198864Y-149502949D01*
X155221995Y-149546222D01*
X155240772Y-149591555D01*
X155255016Y-149638510D01*
X155264588Y-149686635D01*
X155269398Y-149735466D01*
X155269398Y-149760000D01*
X155270000Y-149760000D01*
X155270000Y-150260000D01*
X153770000Y-150260000D01*
G37*
G36*
X155269398Y-151060000D02*
G01*
X155269398Y-151084534D01*
X155264588Y-151133365D01*
X155255016Y-151181490D01*
X155240772Y-151228445D01*
X155221995Y-151273778D01*
X155198864Y-151317051D01*
X155171604Y-151357850D01*
X155140476Y-151395779D01*
X155105779Y-151430476D01*
X155067850Y-151461604D01*
X155027051Y-151488864D01*
X154983778Y-151511995D01*
X154938445Y-151530772D01*
X154891490Y-151545016D01*
X154843365Y-151554588D01*
X154794534Y-151559398D01*
X154770000Y-151559398D01*
X154770000Y-151560000D01*
X154270000Y-151560000D01*
X154270000Y-151559398D01*
X154245466Y-151559398D01*
X154196635Y-151554588D01*
X154148510Y-151545016D01*
X154101555Y-151530772D01*
X154056222Y-151511995D01*
X154012949Y-151488864D01*
X153972150Y-151461604D01*
X153934221Y-151430476D01*
X153899524Y-151395779D01*
X153868396Y-151357850D01*
X153841136Y-151317051D01*
X153818005Y-151273778D01*
X153799228Y-151228445D01*
X153784984Y-151181490D01*
X153775412Y-151133365D01*
X153770602Y-151084534D01*
X153770602Y-151060000D01*
X153770000Y-151060000D01*
X153770000Y-150560000D01*
X155270000Y-150560000D01*
X155270000Y-151060000D01*
X155269398Y-151060000D01*
G37*
G36*
X87960000Y-122170000D02*
G01*
X87960000Y-122670000D01*
X87959398Y-122670000D01*
X87959398Y-122694534D01*
X87954588Y-122743365D01*
X87945016Y-122791490D01*
X87930772Y-122838445D01*
X87911995Y-122883778D01*
X87888864Y-122927051D01*
X87861604Y-122967850D01*
X87830476Y-123005779D01*
X87795779Y-123040476D01*
X87757850Y-123071604D01*
X87717051Y-123098864D01*
X87673778Y-123121995D01*
X87628445Y-123140772D01*
X87581490Y-123155016D01*
X87533365Y-123164588D01*
X87484534Y-123169398D01*
X87460000Y-123169398D01*
X87460000Y-123170000D01*
X86960000Y-123170000D01*
X86960000Y-123169398D01*
X86935466Y-123169398D01*
X86886635Y-123164588D01*
X86838510Y-123155016D01*
X86791555Y-123140772D01*
X86746222Y-123121995D01*
X86702949Y-123098864D01*
X86662150Y-123071604D01*
X86624221Y-123040476D01*
X86589524Y-123005779D01*
X86558396Y-122967850D01*
X86531136Y-122927051D01*
X86508005Y-122883778D01*
X86489228Y-122838445D01*
X86474984Y-122791490D01*
X86465412Y-122743365D01*
X86460602Y-122694534D01*
X86460602Y-122670000D01*
X86460000Y-122670000D01*
X86460000Y-122170000D01*
X87960000Y-122170000D01*
G37*
G36*
X86460602Y-121370000D02*
G01*
X86460602Y-121345466D01*
X86465412Y-121296635D01*
X86474984Y-121248510D01*
X86489228Y-121201555D01*
X86508005Y-121156222D01*
X86531136Y-121112949D01*
X86558396Y-121072150D01*
X86589524Y-121034221D01*
X86624221Y-120999524D01*
X86662150Y-120968396D01*
X86702949Y-120941136D01*
X86746222Y-120918005D01*
X86791555Y-120899228D01*
X86838510Y-120884984D01*
X86886635Y-120875412D01*
X86935466Y-120870602D01*
X86960000Y-120870602D01*
X86960000Y-120870000D01*
X87460000Y-120870000D01*
X87460000Y-120870602D01*
X87484534Y-120870602D01*
X87533365Y-120875412D01*
X87581490Y-120884984D01*
X87628445Y-120899228D01*
X87673778Y-120918005D01*
X87717051Y-120941136D01*
X87757850Y-120968396D01*
X87795779Y-120999524D01*
X87830476Y-121034221D01*
X87861604Y-121072150D01*
X87888864Y-121112949D01*
X87911995Y-121156222D01*
X87930772Y-121201555D01*
X87945016Y-121248510D01*
X87954588Y-121296635D01*
X87959398Y-121345466D01*
X87959398Y-121370000D01*
X87960000Y-121370000D01*
X87960000Y-121870000D01*
X86460000Y-121870000D01*
X86460000Y-121370000D01*
X86460602Y-121370000D01*
G37*
D15*
X164230000Y-146980000D03*
X164230000Y-149480000D03*
X164230000Y-151480000D03*
D16*
X164230000Y-153980000D03*
D17*
X166940000Y-157050000D03*
X166940000Y-143910000D03*
D18*
X141750000Y-140000000D03*
X139250000Y-140000000D03*
G36*
G01*
X135900000Y-140725000D02*
X135900000Y-139275000D01*
G75*
G02*
X136150000Y-139025000I250000J0D01*
G01*
X137350000Y-139025000D01*
G75*
G02*
X137600000Y-139275000I0J-250000D01*
G01*
X137600000Y-140725000D01*
G75*
G02*
X137350000Y-140975000I-250000J0D01*
G01*
X136150000Y-140975000D01*
G75*
G02*
X135900000Y-140725000I0J250000D01*
G01*
G37*
X141750000Y-146940000D03*
X139250000Y-146940000D03*
G36*
G01*
X135900000Y-147665000D02*
X135900000Y-146215000D01*
G75*
G02*
X136150000Y-145965000I250000J0D01*
G01*
X137350000Y-145965000D01*
G75*
G02*
X137600000Y-146215000I0J-250000D01*
G01*
X137600000Y-147665000D01*
G75*
G02*
X137350000Y-147915000I-250000J0D01*
G01*
X136150000Y-147915000D01*
G75*
G02*
X135900000Y-147665000I0J250000D01*
G01*
G37*
D10*
X100490000Y-145980000D03*
X103030000Y-145980000D03*
D11*
X105570000Y-145980000D03*
D10*
X100490000Y-148800000D03*
X103030000Y-148800000D03*
D11*
X105570000Y-148800000D03*
D19*
X115810000Y-162150000D03*
X118350000Y-162150000D03*
X120890000Y-162150000D03*
X115810000Y-159610000D03*
X118350000Y-159610000D03*
G36*
G01*
X120290000Y-158760000D02*
X121490000Y-158760000D01*
G75*
G02*
X121740000Y-159010000I0J-250000D01*
G01*
X121740000Y-160210000D01*
G75*
G02*
X121490000Y-160460000I-250000J0D01*
G01*
X120290000Y-160460000D01*
G75*
G02*
X120040000Y-160210000I0J250000D01*
G01*
X120040000Y-159010000D01*
G75*
G02*
X120290000Y-158760000I250000J0D01*
G01*
G37*
D13*
X151120000Y-93430000D03*
X151120000Y-95930000D03*
G36*
G01*
X151845000Y-99280000D02*
X150395000Y-99280000D01*
G75*
G02*
X150145000Y-99030000I0J250000D01*
G01*
X150145000Y-97830000D01*
G75*
G02*
X150395000Y-97580000I250000J0D01*
G01*
X151845000Y-97580000D01*
G75*
G02*
X152095000Y-97830000I0J-250000D01*
G01*
X152095000Y-99030000D01*
G75*
G02*
X151845000Y-99280000I-250000J0D01*
G01*
G37*
X219570000Y-104350000D03*
X219570000Y-106850000D03*
G36*
G01*
X220295000Y-110200000D02*
X218845000Y-110200000D01*
G75*
G02*
X218595000Y-109950000I0J250000D01*
G01*
X218595000Y-108750000D01*
G75*
G02*
X218845000Y-108500000I250000J0D01*
G01*
X220295000Y-108500000D01*
G75*
G02*
X220545000Y-108750000I0J-250000D01*
G01*
X220545000Y-109950000D01*
G75*
G02*
X220295000Y-110200000I-250000J0D01*
G01*
G37*
X158040000Y-105690000D03*
X158040000Y-108190000D03*
G36*
G01*
X158765000Y-111540000D02*
X157315000Y-111540000D01*
G75*
G02*
X157065000Y-111290000I0J250000D01*
G01*
X157065000Y-110090000D01*
G75*
G02*
X157315000Y-109840000I250000J0D01*
G01*
X158765000Y-109840000D01*
G75*
G02*
X159015000Y-110090000I0J-250000D01*
G01*
X159015000Y-111290000D01*
G75*
G02*
X158765000Y-111540000I-250000J0D01*
G01*
G37*
X158050000Y-93410000D03*
X158050000Y-95910000D03*
G36*
G01*
X158775000Y-99260000D02*
X157325000Y-99260000D01*
G75*
G02*
X157075000Y-99010000I0J250000D01*
G01*
X157075000Y-97810000D01*
G75*
G02*
X157325000Y-97560000I250000J0D01*
G01*
X158775000Y-97560000D01*
G75*
G02*
X159025000Y-97810000I0J-250000D01*
G01*
X159025000Y-99010000D01*
G75*
G02*
X158775000Y-99260000I-250000J0D01*
G01*
G37*
X164880000Y-105670000D03*
X164880000Y-108170000D03*
G36*
G01*
X165605000Y-111520000D02*
X164155000Y-111520000D01*
G75*
G02*
X163905000Y-111270000I0J250000D01*
G01*
X163905000Y-110070000D01*
G75*
G02*
X164155000Y-109820000I250000J0D01*
G01*
X165605000Y-109820000D01*
G75*
G02*
X165855000Y-110070000I0J-250000D01*
G01*
X165855000Y-111270000D01*
G75*
G02*
X165605000Y-111520000I-250000J0D01*
G01*
G37*
X164830000Y-93360000D03*
X164830000Y-95860000D03*
G36*
G01*
X165555000Y-99210000D02*
X164105000Y-99210000D01*
G75*
G02*
X163855000Y-98960000I0J250000D01*
G01*
X163855000Y-97760000D01*
G75*
G02*
X164105000Y-97510000I250000J0D01*
G01*
X165555000Y-97510000D01*
G75*
G02*
X165805000Y-97760000I0J-250000D01*
G01*
X165805000Y-98960000D01*
G75*
G02*
X165555000Y-99210000I-250000J0D01*
G01*
G37*
D15*
X164130000Y-119510000D03*
X164130000Y-122010000D03*
X164130000Y-124010000D03*
D16*
X164130000Y-126510000D03*
D17*
X166840000Y-129580000D03*
X166840000Y-116440000D03*
D15*
X155710000Y-161010000D03*
X153210000Y-161010000D03*
X151210000Y-161010000D03*
D16*
X148710000Y-161010000D03*
D17*
X145640000Y-163720000D03*
X158780000Y-163720000D03*
D12*
X72900000Y-154810000D03*
G36*
G01*
X72150000Y-151460000D02*
X73650000Y-151460000D01*
G75*
G02*
X73900000Y-151710000I0J-250000D01*
G01*
X73900000Y-152910000D01*
G75*
G02*
X73650000Y-153160000I-250000J0D01*
G01*
X72150000Y-153160000D01*
G75*
G02*
X71900000Y-152910000I0J250000D01*
G01*
X71900000Y-151710000D01*
G75*
G02*
X72150000Y-151460000I250000J0D01*
G01*
G37*
D20*
X83310000Y-161630000D03*
D21*
X78865000Y-160360000D03*
X78865000Y-161630000D03*
X78865000Y-162900000D03*
X87755000Y-162900000D03*
X87755000Y-161630000D03*
X87755000Y-160360000D03*
D20*
X95490000Y-161670000D03*
D21*
X91045000Y-160400000D03*
X91045000Y-161670000D03*
X91045000Y-162940000D03*
X99935000Y-162940000D03*
X99935000Y-161670000D03*
X99935000Y-160400000D03*
D12*
X72950000Y-146380000D03*
G36*
G01*
X72200000Y-143030000D02*
X73700000Y-143030000D01*
G75*
G02*
X73950000Y-143280000I0J-250000D01*
G01*
X73950000Y-144480000D01*
G75*
G02*
X73700000Y-144730000I-250000J0D01*
G01*
X72200000Y-144730000D01*
G75*
G02*
X71950000Y-144480000I0J250000D01*
G01*
X71950000Y-143280000D01*
G75*
G02*
X72200000Y-143030000I250000J0D01*
G01*
G37*
X72980000Y-137910000D03*
G36*
G01*
X72230000Y-134560000D02*
X73730000Y-134560000D01*
G75*
G02*
X73980000Y-134810000I0J-250000D01*
G01*
X73980000Y-136010000D01*
G75*
G02*
X73730000Y-136260000I-250000J0D01*
G01*
X72230000Y-136260000D01*
G75*
G02*
X71980000Y-136010000I0J250000D01*
G01*
X71980000Y-134810000D01*
G75*
G02*
X72230000Y-134560000I250000J0D01*
G01*
G37*
D22*
X163200000Y-140080000D03*
X163200000Y-134300000D03*
D23*
X166890000Y-132870000D03*
X166890000Y-141510000D03*
D24*
X162720000Y-132870000D03*
X162720000Y-141510000D03*
D22*
X74765000Y-112505000D03*
X74765000Y-118285000D03*
D23*
X71075000Y-119715000D03*
X71075000Y-111075000D03*
D24*
X75245000Y-119715000D03*
X75245000Y-111075000D03*
D25*
X103940000Y-111720000D03*
X86160000Y-99020000D03*
X101400000Y-111720000D03*
X88700000Y-99020000D03*
X98860000Y-111720000D03*
X91240000Y-99020000D03*
X96320000Y-111720000D03*
X93780000Y-99020000D03*
X93780000Y-111720000D03*
X96320000Y-99020000D03*
X91240000Y-111720000D03*
X98860000Y-99020000D03*
X88700000Y-111720000D03*
X101400000Y-99020000D03*
X86160000Y-111720000D03*
D16*
X103940000Y-99020000D03*
D18*
X112290000Y-94370000D03*
X114790000Y-94370000D03*
X117290000Y-94370000D03*
G36*
G01*
X120640000Y-93645000D02*
X120640000Y-95095000D01*
G75*
G02*
X120390000Y-95345000I-250000J0D01*
G01*
X119190000Y-95345000D01*
G75*
G02*
X118940000Y-95095000I0J250000D01*
G01*
X118940000Y-93645000D01*
G75*
G02*
X119190000Y-93395000I250000J0D01*
G01*
X120390000Y-93395000D01*
G75*
G02*
X120640000Y-93645000I0J-250000D01*
G01*
G37*
X133290000Y-94420000D03*
X135790000Y-94420000D03*
X138290000Y-94420000D03*
G36*
G01*
X141640000Y-93695000D02*
X141640000Y-95145000D01*
G75*
G02*
X141390000Y-95395000I-250000J0D01*
G01*
X140190000Y-95395000D01*
G75*
G02*
X139940000Y-95145000I0J250000D01*
G01*
X139940000Y-93695000D01*
G75*
G02*
X140190000Y-93445000I250000J0D01*
G01*
X141390000Y-93445000D01*
G75*
G02*
X141640000Y-93695000I0J-250000D01*
G01*
G37*
X91340000Y-94420000D03*
X93840000Y-94420000D03*
X96340000Y-94420000D03*
G36*
G01*
X99690000Y-93695000D02*
X99690000Y-95145000D01*
G75*
G02*
X99440000Y-95395000I-250000J0D01*
G01*
X98240000Y-95395000D01*
G75*
G02*
X97990000Y-95145000I0J250000D01*
G01*
X97990000Y-93695000D01*
G75*
G02*
X98240000Y-93445000I250000J0D01*
G01*
X99440000Y-93445000D01*
G75*
G02*
X99690000Y-93695000I0J-250000D01*
G01*
G37*
D26*
X73990000Y-77420000D03*
D27*
X73990000Y-82420000D03*
D11*
X103700000Y-102010000D03*
D10*
X103700000Y-104550000D03*
X103700000Y-107090000D03*
D11*
X98140000Y-102010000D03*
D10*
X98140000Y-104550000D03*
X98140000Y-107090000D03*
D11*
X95340000Y-102010000D03*
D10*
X95340000Y-104550000D03*
X95340000Y-107090000D03*
D11*
X100940000Y-102010000D03*
D10*
X100940000Y-104550000D03*
X100940000Y-107090000D03*
D11*
X124800000Y-102110000D03*
D10*
X124800000Y-104650000D03*
X124800000Y-107190000D03*
D11*
X119240000Y-102110000D03*
D10*
X119240000Y-104650000D03*
X119240000Y-107190000D03*
D11*
X116440000Y-102110000D03*
D10*
X116440000Y-104650000D03*
X116440000Y-107190000D03*
D11*
X122040000Y-102110000D03*
D10*
X122040000Y-104650000D03*
X122040000Y-107190000D03*
D11*
X145800000Y-102110000D03*
D10*
X145800000Y-104650000D03*
X145800000Y-107190000D03*
D11*
X140240000Y-102110000D03*
D10*
X140240000Y-104650000D03*
X140240000Y-107190000D03*
D11*
X137440000Y-102110000D03*
D10*
X137440000Y-104650000D03*
X137440000Y-107190000D03*
D11*
X143040000Y-102110000D03*
D10*
X143040000Y-104650000D03*
X143040000Y-107190000D03*
D11*
X166800000Y-79110000D03*
D10*
X166800000Y-81650000D03*
X166800000Y-84190000D03*
D11*
X161240000Y-79110000D03*
D10*
X161240000Y-81650000D03*
X161240000Y-84190000D03*
D11*
X158440000Y-79110000D03*
D10*
X158440000Y-81650000D03*
X158440000Y-84190000D03*
D11*
X164040000Y-79110000D03*
D10*
X164040000Y-81650000D03*
X164040000Y-84190000D03*
D11*
X145900000Y-79110000D03*
D10*
X145900000Y-81650000D03*
X145900000Y-84190000D03*
D11*
X140340000Y-79110000D03*
D10*
X140340000Y-81650000D03*
X140340000Y-84190000D03*
D11*
X137540000Y-79110000D03*
D10*
X137540000Y-81650000D03*
X137540000Y-84190000D03*
D11*
X143140000Y-79110000D03*
D10*
X143140000Y-81650000D03*
X143140000Y-84190000D03*
D11*
X103800000Y-79110000D03*
D10*
X103800000Y-81650000D03*
X103800000Y-84190000D03*
D11*
X98240000Y-79110000D03*
D10*
X98240000Y-81650000D03*
X98240000Y-84190000D03*
D11*
X95440000Y-79110000D03*
D10*
X95440000Y-81650000D03*
X95440000Y-84190000D03*
D11*
X101040000Y-79110000D03*
D10*
X101040000Y-81650000D03*
X101040000Y-84190000D03*
D18*
X146690000Y-70270000D03*
X149190000Y-70270000D03*
X151690000Y-70270000D03*
G36*
G01*
X155040000Y-69545000D02*
X155040000Y-70995000D01*
G75*
G02*
X154790000Y-71245000I-250000J0D01*
G01*
X153590000Y-71245000D01*
G75*
G02*
X153340000Y-70995000I0J250000D01*
G01*
X153340000Y-69545000D01*
G75*
G02*
X153590000Y-69295000I250000J0D01*
G01*
X154790000Y-69295000D01*
G75*
G02*
X155040000Y-69545000I0J-250000D01*
G01*
G37*
D10*
X124900000Y-84190000D03*
X124900000Y-81650000D03*
D11*
X124900000Y-79110000D03*
D10*
X119340000Y-84190000D03*
X119340000Y-81650000D03*
D11*
X119340000Y-79110000D03*
D10*
X122140000Y-84190000D03*
X122140000Y-81650000D03*
D11*
X122140000Y-79110000D03*
D10*
X116540000Y-84190000D03*
X116540000Y-81650000D03*
D11*
X116540000Y-79110000D03*
D18*
X81315000Y-70145000D03*
X83815000Y-70145000D03*
X86315000Y-70145000D03*
G36*
G01*
X89665000Y-69420000D02*
X89665000Y-70870000D01*
G75*
G02*
X89415000Y-71120000I-250000J0D01*
G01*
X88215000Y-71120000D01*
G75*
G02*
X87965000Y-70870000I0J250000D01*
G01*
X87965000Y-69420000D01*
G75*
G02*
X88215000Y-69170000I250000J0D01*
G01*
X89415000Y-69170000D01*
G75*
G02*
X89665000Y-69420000I0J-250000D01*
G01*
G37*
X129890000Y-70170000D03*
X132390000Y-70170000D03*
X134890000Y-70170000D03*
G36*
G01*
X138240000Y-69445000D02*
X138240000Y-70895000D01*
G75*
G02*
X137990000Y-71145000I-250000J0D01*
G01*
X136790000Y-71145000D01*
G75*
G02*
X136540000Y-70895000I0J250000D01*
G01*
X136540000Y-69445000D01*
G75*
G02*
X136790000Y-69195000I250000J0D01*
G01*
X137990000Y-69195000D01*
G75*
G02*
X138240000Y-69445000I0J-250000D01*
G01*
G37*
X98365000Y-70145000D03*
X100865000Y-70145000D03*
X103365000Y-70145000D03*
G36*
G01*
X106715000Y-69420000D02*
X106715000Y-70870000D01*
G75*
G02*
X106465000Y-71120000I-250000J0D01*
G01*
X105265000Y-71120000D01*
G75*
G02*
X105015000Y-70870000I0J250000D01*
G01*
X105015000Y-69420000D01*
G75*
G02*
X105265000Y-69170000I250000J0D01*
G01*
X106465000Y-69170000D01*
G75*
G02*
X106715000Y-69420000I0J-250000D01*
G01*
G37*
X112365000Y-70145000D03*
X114865000Y-70145000D03*
X117365000Y-70145000D03*
G36*
G01*
X120715000Y-69420000D02*
X120715000Y-70870000D01*
G75*
G02*
X120465000Y-71120000I-250000J0D01*
G01*
X119265000Y-71120000D01*
G75*
G02*
X119015000Y-70870000I0J250000D01*
G01*
X119015000Y-69420000D01*
G75*
G02*
X119265000Y-69170000I250000J0D01*
G01*
X120465000Y-69170000D01*
G75*
G02*
X120715000Y-69420000I0J-250000D01*
G01*
G37*
D25*
X166940000Y-88720000D03*
X149160000Y-76020000D03*
X164400000Y-88720000D03*
X151700000Y-76020000D03*
X161860000Y-88720000D03*
X154240000Y-76020000D03*
X159320000Y-88720000D03*
X156780000Y-76020000D03*
X156780000Y-88720000D03*
X159320000Y-76020000D03*
X154240000Y-88720000D03*
X161860000Y-76020000D03*
X151700000Y-88720000D03*
X164400000Y-76020000D03*
X149160000Y-88720000D03*
D16*
X166940000Y-76020000D03*
D25*
X124940000Y-111720000D03*
X107160000Y-99020000D03*
X122400000Y-111720000D03*
X109700000Y-99020000D03*
X119860000Y-111720000D03*
X112240000Y-99020000D03*
X117320000Y-111720000D03*
X114780000Y-99020000D03*
X114780000Y-111720000D03*
X117320000Y-99020000D03*
X112240000Y-111720000D03*
X119860000Y-99020000D03*
X109700000Y-111720000D03*
X122400000Y-99020000D03*
X107160000Y-111720000D03*
D16*
X124940000Y-99020000D03*
D25*
X103940000Y-88720000D03*
X86160000Y-76020000D03*
X101400000Y-88720000D03*
X88700000Y-76020000D03*
X98860000Y-88720000D03*
X91240000Y-76020000D03*
X96320000Y-88720000D03*
X93780000Y-76020000D03*
X93780000Y-88720000D03*
X96320000Y-76020000D03*
X91240000Y-88720000D03*
X98860000Y-76020000D03*
X88700000Y-88720000D03*
X101400000Y-76020000D03*
X86160000Y-88720000D03*
D16*
X103940000Y-76020000D03*
D25*
X145940000Y-88720000D03*
X128160000Y-76020000D03*
X143400000Y-88720000D03*
X130700000Y-76020000D03*
X140860000Y-88720000D03*
X133240000Y-76020000D03*
X138320000Y-88720000D03*
X135780000Y-76020000D03*
X135780000Y-88720000D03*
X138320000Y-76020000D03*
X133240000Y-88720000D03*
X140860000Y-76020000D03*
X130700000Y-88720000D03*
X143400000Y-76020000D03*
X128160000Y-88720000D03*
D16*
X145940000Y-76020000D03*
D25*
X145940000Y-111720000D03*
X128160000Y-99020000D03*
X143400000Y-111720000D03*
X130700000Y-99020000D03*
X140860000Y-111720000D03*
X133240000Y-99020000D03*
X138320000Y-111720000D03*
X135780000Y-99020000D03*
X135780000Y-111720000D03*
X138320000Y-99020000D03*
X133240000Y-111720000D03*
X140860000Y-99020000D03*
X130700000Y-111720000D03*
X143400000Y-99020000D03*
X128160000Y-111720000D03*
D16*
X145940000Y-99020000D03*
D25*
X124940000Y-88720000D03*
X107160000Y-76020000D03*
X122400000Y-88720000D03*
X109700000Y-76020000D03*
X119860000Y-88720000D03*
X112240000Y-76020000D03*
X117320000Y-88720000D03*
X114780000Y-76020000D03*
X114780000Y-88720000D03*
X117320000Y-76020000D03*
X112240000Y-88720000D03*
X119860000Y-76020000D03*
X109700000Y-88720000D03*
X122400000Y-76020000D03*
X107160000Y-88720000D03*
D16*
X124940000Y-76020000D03*
D28*
X74020000Y-71030000D03*
X74020000Y-161030000D03*
X164020000Y-71030000D03*
X164020000Y-161030000D03*
M02*
