G04 #@! TF.GenerationSoftware,KiCad,Pcbnew,5.1.9+dfsg1-1~bpo10+1*
G04 #@! TF.CreationDate,2021-02-21T18:11:13+00:00*
G04 #@! TF.ProjectId,mobo,6d6f626f-2e6b-4696-9361-645f70636258,rev?*
G04 #@! TF.SameCoordinates,Original*
G04 #@! TF.FileFunction,Soldermask,Top*
G04 #@! TF.FilePolarity,Negative*
%FSLAX46Y46*%
G04 Gerber Fmt 4.6, Leading zero omitted, Abs format (unit mm)*
G04 Created by KiCad (PCBNEW 5.1.9+dfsg1-1~bpo10+1) date 2021-02-21 18:11:13*
%MOMM*%
%LPD*%
G01*
G04 APERTURE LIST*
%ADD10C,1.600000*%
%ADD11R,1.600000X1.600000*%
%ADD12C,3.000000*%
%ADD13R,1.400000X1.200000*%
%ADD14R,2.000000X1.500000*%
%ADD15R,2.000000X3.800000*%
%ADD16C,4.200000*%
%ADD17R,0.600000X2.300000*%
%ADD18R,1.000000X1.000000*%
%ADD19C,1.700000*%
%ADD20O,1.700000X2.000000*%
%ADD21O,1.700000X1.950000*%
%ADD22O,1.700000X1.700000*%
%ADD23R,1.700000X1.700000*%
%ADD24R,2.400000X0.740000*%
%ADD25C,1.000000*%
%ADD26R,0.900000X0.800000*%
%ADD27R,1.160000X0.600000*%
%ADD28C,0.600000*%
%ADD29R,1.160000X0.300000*%
%ADD30O,1.700000X0.900000*%
%ADD31O,2.000000X0.900000*%
%ADD32R,1.100000X1.100000*%
%ADD33R,2.000000X3.400000*%
%ADD34R,1.550000X0.600000*%
%ADD35R,2.600000X3.100000*%
%ADD36R,2.300000X2.500000*%
%ADD37O,1.600000X1.600000*%
%ADD38R,2.600000X2.600000*%
%ADD39C,2.600000*%
%ADD40C,5.600000*%
G04 APERTURE END LIST*
D10*
X138810000Y-161180000D03*
X136310000Y-161180000D03*
X134310000Y-161180000D03*
D11*
X131810000Y-161180000D03*
D12*
X128740000Y-163890000D03*
X141880000Y-163890000D03*
D10*
X156200000Y-161180000D03*
X153700000Y-161180000D03*
X151700000Y-161180000D03*
D11*
X149200000Y-161180000D03*
D12*
X146130000Y-163890000D03*
X159270000Y-163890000D03*
D10*
X121390000Y-161140000D03*
X118890000Y-161140000D03*
X116890000Y-161140000D03*
D11*
X114390000Y-161140000D03*
D12*
X111320000Y-163850000D03*
X124460000Y-163850000D03*
D13*
X240570000Y-145580000D03*
X242770000Y-145580000D03*
X242770000Y-147280000D03*
X240570000Y-147280000D03*
X287150000Y-91010000D03*
X289350000Y-91010000D03*
X289350000Y-92710000D03*
X287150000Y-92710000D03*
G36*
G01*
X242580000Y-97355000D02*
X242580000Y-97055000D01*
G75*
G02*
X242730000Y-96905000I150000J0D01*
G01*
X244380000Y-96905000D01*
G75*
G02*
X244530000Y-97055000I0J-150000D01*
G01*
X244530000Y-97355000D01*
G75*
G02*
X244380000Y-97505000I-150000J0D01*
G01*
X242730000Y-97505000D01*
G75*
G02*
X242580000Y-97355000I0J150000D01*
G01*
G37*
G36*
G01*
X242580000Y-98625000D02*
X242580000Y-98325000D01*
G75*
G02*
X242730000Y-98175000I150000J0D01*
G01*
X244380000Y-98175000D01*
G75*
G02*
X244530000Y-98325000I0J-150000D01*
G01*
X244530000Y-98625000D01*
G75*
G02*
X244380000Y-98775000I-150000J0D01*
G01*
X242730000Y-98775000D01*
G75*
G02*
X242580000Y-98625000I0J150000D01*
G01*
G37*
G36*
G01*
X242580000Y-99895000D02*
X242580000Y-99595000D01*
G75*
G02*
X242730000Y-99445000I150000J0D01*
G01*
X244380000Y-99445000D01*
G75*
G02*
X244530000Y-99595000I0J-150000D01*
G01*
X244530000Y-99895000D01*
G75*
G02*
X244380000Y-100045000I-150000J0D01*
G01*
X242730000Y-100045000D01*
G75*
G02*
X242580000Y-99895000I0J150000D01*
G01*
G37*
G36*
G01*
X242580000Y-101165000D02*
X242580000Y-100865000D01*
G75*
G02*
X242730000Y-100715000I150000J0D01*
G01*
X244380000Y-100715000D01*
G75*
G02*
X244530000Y-100865000I0J-150000D01*
G01*
X244530000Y-101165000D01*
G75*
G02*
X244380000Y-101315000I-150000J0D01*
G01*
X242730000Y-101315000D01*
G75*
G02*
X242580000Y-101165000I0J150000D01*
G01*
G37*
G36*
G01*
X237630000Y-101165000D02*
X237630000Y-100865000D01*
G75*
G02*
X237780000Y-100715000I150000J0D01*
G01*
X239430000Y-100715000D01*
G75*
G02*
X239580000Y-100865000I0J-150000D01*
G01*
X239580000Y-101165000D01*
G75*
G02*
X239430000Y-101315000I-150000J0D01*
G01*
X237780000Y-101315000D01*
G75*
G02*
X237630000Y-101165000I0J150000D01*
G01*
G37*
G36*
G01*
X237630000Y-99895000D02*
X237630000Y-99595000D01*
G75*
G02*
X237780000Y-99445000I150000J0D01*
G01*
X239430000Y-99445000D01*
G75*
G02*
X239580000Y-99595000I0J-150000D01*
G01*
X239580000Y-99895000D01*
G75*
G02*
X239430000Y-100045000I-150000J0D01*
G01*
X237780000Y-100045000D01*
G75*
G02*
X237630000Y-99895000I0J150000D01*
G01*
G37*
G36*
G01*
X237630000Y-98625000D02*
X237630000Y-98325000D01*
G75*
G02*
X237780000Y-98175000I150000J0D01*
G01*
X239430000Y-98175000D01*
G75*
G02*
X239580000Y-98325000I0J-150000D01*
G01*
X239580000Y-98625000D01*
G75*
G02*
X239430000Y-98775000I-150000J0D01*
G01*
X237780000Y-98775000D01*
G75*
G02*
X237630000Y-98625000I0J150000D01*
G01*
G37*
G36*
G01*
X237630000Y-97355000D02*
X237630000Y-97055000D01*
G75*
G02*
X237780000Y-96905000I150000J0D01*
G01*
X239430000Y-96905000D01*
G75*
G02*
X239580000Y-97055000I0J-150000D01*
G01*
X239580000Y-97355000D01*
G75*
G02*
X239430000Y-97505000I-150000J0D01*
G01*
X237780000Y-97505000D01*
G75*
G02*
X237630000Y-97355000I0J150000D01*
G01*
G37*
G36*
G01*
X242520000Y-108445000D02*
X242520000Y-108145000D01*
G75*
G02*
X242670000Y-107995000I150000J0D01*
G01*
X244320000Y-107995000D01*
G75*
G02*
X244470000Y-108145000I0J-150000D01*
G01*
X244470000Y-108445000D01*
G75*
G02*
X244320000Y-108595000I-150000J0D01*
G01*
X242670000Y-108595000D01*
G75*
G02*
X242520000Y-108445000I0J150000D01*
G01*
G37*
G36*
G01*
X242520000Y-109715000D02*
X242520000Y-109415000D01*
G75*
G02*
X242670000Y-109265000I150000J0D01*
G01*
X244320000Y-109265000D01*
G75*
G02*
X244470000Y-109415000I0J-150000D01*
G01*
X244470000Y-109715000D01*
G75*
G02*
X244320000Y-109865000I-150000J0D01*
G01*
X242670000Y-109865000D01*
G75*
G02*
X242520000Y-109715000I0J150000D01*
G01*
G37*
G36*
G01*
X242520000Y-110985000D02*
X242520000Y-110685000D01*
G75*
G02*
X242670000Y-110535000I150000J0D01*
G01*
X244320000Y-110535000D01*
G75*
G02*
X244470000Y-110685000I0J-150000D01*
G01*
X244470000Y-110985000D01*
G75*
G02*
X244320000Y-111135000I-150000J0D01*
G01*
X242670000Y-111135000D01*
G75*
G02*
X242520000Y-110985000I0J150000D01*
G01*
G37*
G36*
G01*
X242520000Y-112255000D02*
X242520000Y-111955000D01*
G75*
G02*
X242670000Y-111805000I150000J0D01*
G01*
X244320000Y-111805000D01*
G75*
G02*
X244470000Y-111955000I0J-150000D01*
G01*
X244470000Y-112255000D01*
G75*
G02*
X244320000Y-112405000I-150000J0D01*
G01*
X242670000Y-112405000D01*
G75*
G02*
X242520000Y-112255000I0J150000D01*
G01*
G37*
G36*
G01*
X237570000Y-112255000D02*
X237570000Y-111955000D01*
G75*
G02*
X237720000Y-111805000I150000J0D01*
G01*
X239370000Y-111805000D01*
G75*
G02*
X239520000Y-111955000I0J-150000D01*
G01*
X239520000Y-112255000D01*
G75*
G02*
X239370000Y-112405000I-150000J0D01*
G01*
X237720000Y-112405000D01*
G75*
G02*
X237570000Y-112255000I0J150000D01*
G01*
G37*
G36*
G01*
X237570000Y-110985000D02*
X237570000Y-110685000D01*
G75*
G02*
X237720000Y-110535000I150000J0D01*
G01*
X239370000Y-110535000D01*
G75*
G02*
X239520000Y-110685000I0J-150000D01*
G01*
X239520000Y-110985000D01*
G75*
G02*
X239370000Y-111135000I-150000J0D01*
G01*
X237720000Y-111135000D01*
G75*
G02*
X237570000Y-110985000I0J150000D01*
G01*
G37*
G36*
G01*
X237570000Y-109715000D02*
X237570000Y-109415000D01*
G75*
G02*
X237720000Y-109265000I150000J0D01*
G01*
X239370000Y-109265000D01*
G75*
G02*
X239520000Y-109415000I0J-150000D01*
G01*
X239520000Y-109715000D01*
G75*
G02*
X239370000Y-109865000I-150000J0D01*
G01*
X237720000Y-109865000D01*
G75*
G02*
X237570000Y-109715000I0J150000D01*
G01*
G37*
G36*
G01*
X237570000Y-108445000D02*
X237570000Y-108145000D01*
G75*
G02*
X237720000Y-107995000I150000J0D01*
G01*
X239370000Y-107995000D01*
G75*
G02*
X239520000Y-108145000I0J-150000D01*
G01*
X239520000Y-108445000D01*
G75*
G02*
X239370000Y-108595000I-150000J0D01*
G01*
X237720000Y-108595000D01*
G75*
G02*
X237570000Y-108445000I0J150000D01*
G01*
G37*
D14*
X293330000Y-117160000D03*
X293330000Y-121760000D03*
X293330000Y-119460000D03*
D15*
X299630000Y-119460000D03*
G36*
G01*
X148000000Y-154130000D02*
X146675000Y-154130000D01*
G75*
G02*
X146600000Y-154055000I0J75000D01*
G01*
X146600000Y-153905000D01*
G75*
G02*
X146675000Y-153830000I75000J0D01*
G01*
X148000000Y-153830000D01*
G75*
G02*
X148075000Y-153905000I0J-75000D01*
G01*
X148075000Y-154055000D01*
G75*
G02*
X148000000Y-154130000I-75000J0D01*
G01*
G37*
G36*
G01*
X148000000Y-153630000D02*
X146675000Y-153630000D01*
G75*
G02*
X146600000Y-153555000I0J75000D01*
G01*
X146600000Y-153405000D01*
G75*
G02*
X146675000Y-153330000I75000J0D01*
G01*
X148000000Y-153330000D01*
G75*
G02*
X148075000Y-153405000I0J-75000D01*
G01*
X148075000Y-153555000D01*
G75*
G02*
X148000000Y-153630000I-75000J0D01*
G01*
G37*
G36*
G01*
X148000000Y-153130000D02*
X146675000Y-153130000D01*
G75*
G02*
X146600000Y-153055000I0J75000D01*
G01*
X146600000Y-152905000D01*
G75*
G02*
X146675000Y-152830000I75000J0D01*
G01*
X148000000Y-152830000D01*
G75*
G02*
X148075000Y-152905000I0J-75000D01*
G01*
X148075000Y-153055000D01*
G75*
G02*
X148000000Y-153130000I-75000J0D01*
G01*
G37*
G36*
G01*
X148000000Y-152630000D02*
X146675000Y-152630000D01*
G75*
G02*
X146600000Y-152555000I0J75000D01*
G01*
X146600000Y-152405000D01*
G75*
G02*
X146675000Y-152330000I75000J0D01*
G01*
X148000000Y-152330000D01*
G75*
G02*
X148075000Y-152405000I0J-75000D01*
G01*
X148075000Y-152555000D01*
G75*
G02*
X148000000Y-152630000I-75000J0D01*
G01*
G37*
G36*
G01*
X148000000Y-152130000D02*
X146675000Y-152130000D01*
G75*
G02*
X146600000Y-152055000I0J75000D01*
G01*
X146600000Y-151905000D01*
G75*
G02*
X146675000Y-151830000I75000J0D01*
G01*
X148000000Y-151830000D01*
G75*
G02*
X148075000Y-151905000I0J-75000D01*
G01*
X148075000Y-152055000D01*
G75*
G02*
X148000000Y-152130000I-75000J0D01*
G01*
G37*
G36*
G01*
X148000000Y-151630000D02*
X146675000Y-151630000D01*
G75*
G02*
X146600000Y-151555000I0J75000D01*
G01*
X146600000Y-151405000D01*
G75*
G02*
X146675000Y-151330000I75000J0D01*
G01*
X148000000Y-151330000D01*
G75*
G02*
X148075000Y-151405000I0J-75000D01*
G01*
X148075000Y-151555000D01*
G75*
G02*
X148000000Y-151630000I-75000J0D01*
G01*
G37*
G36*
G01*
X148000000Y-151130000D02*
X146675000Y-151130000D01*
G75*
G02*
X146600000Y-151055000I0J75000D01*
G01*
X146600000Y-150905000D01*
G75*
G02*
X146675000Y-150830000I75000J0D01*
G01*
X148000000Y-150830000D01*
G75*
G02*
X148075000Y-150905000I0J-75000D01*
G01*
X148075000Y-151055000D01*
G75*
G02*
X148000000Y-151130000I-75000J0D01*
G01*
G37*
G36*
G01*
X148000000Y-150630000D02*
X146675000Y-150630000D01*
G75*
G02*
X146600000Y-150555000I0J75000D01*
G01*
X146600000Y-150405000D01*
G75*
G02*
X146675000Y-150330000I75000J0D01*
G01*
X148000000Y-150330000D01*
G75*
G02*
X148075000Y-150405000I0J-75000D01*
G01*
X148075000Y-150555000D01*
G75*
G02*
X148000000Y-150630000I-75000J0D01*
G01*
G37*
G36*
G01*
X148000000Y-150130000D02*
X146675000Y-150130000D01*
G75*
G02*
X146600000Y-150055000I0J75000D01*
G01*
X146600000Y-149905000D01*
G75*
G02*
X146675000Y-149830000I75000J0D01*
G01*
X148000000Y-149830000D01*
G75*
G02*
X148075000Y-149905000I0J-75000D01*
G01*
X148075000Y-150055000D01*
G75*
G02*
X148000000Y-150130000I-75000J0D01*
G01*
G37*
G36*
G01*
X148000000Y-149630000D02*
X146675000Y-149630000D01*
G75*
G02*
X146600000Y-149555000I0J75000D01*
G01*
X146600000Y-149405000D01*
G75*
G02*
X146675000Y-149330000I75000J0D01*
G01*
X148000000Y-149330000D01*
G75*
G02*
X148075000Y-149405000I0J-75000D01*
G01*
X148075000Y-149555000D01*
G75*
G02*
X148000000Y-149630000I-75000J0D01*
G01*
G37*
G36*
G01*
X148000000Y-149130000D02*
X146675000Y-149130000D01*
G75*
G02*
X146600000Y-149055000I0J75000D01*
G01*
X146600000Y-148905000D01*
G75*
G02*
X146675000Y-148830000I75000J0D01*
G01*
X148000000Y-148830000D01*
G75*
G02*
X148075000Y-148905000I0J-75000D01*
G01*
X148075000Y-149055000D01*
G75*
G02*
X148000000Y-149130000I-75000J0D01*
G01*
G37*
G36*
G01*
X148000000Y-148630000D02*
X146675000Y-148630000D01*
G75*
G02*
X146600000Y-148555000I0J75000D01*
G01*
X146600000Y-148405000D01*
G75*
G02*
X146675000Y-148330000I75000J0D01*
G01*
X148000000Y-148330000D01*
G75*
G02*
X148075000Y-148405000I0J-75000D01*
G01*
X148075000Y-148555000D01*
G75*
G02*
X148000000Y-148630000I-75000J0D01*
G01*
G37*
G36*
G01*
X148825000Y-147805000D02*
X148675000Y-147805000D01*
G75*
G02*
X148600000Y-147730000I0J75000D01*
G01*
X148600000Y-146405000D01*
G75*
G02*
X148675000Y-146330000I75000J0D01*
G01*
X148825000Y-146330000D01*
G75*
G02*
X148900000Y-146405000I0J-75000D01*
G01*
X148900000Y-147730000D01*
G75*
G02*
X148825000Y-147805000I-75000J0D01*
G01*
G37*
G36*
G01*
X149325000Y-147805000D02*
X149175000Y-147805000D01*
G75*
G02*
X149100000Y-147730000I0J75000D01*
G01*
X149100000Y-146405000D01*
G75*
G02*
X149175000Y-146330000I75000J0D01*
G01*
X149325000Y-146330000D01*
G75*
G02*
X149400000Y-146405000I0J-75000D01*
G01*
X149400000Y-147730000D01*
G75*
G02*
X149325000Y-147805000I-75000J0D01*
G01*
G37*
G36*
G01*
X149825000Y-147805000D02*
X149675000Y-147805000D01*
G75*
G02*
X149600000Y-147730000I0J75000D01*
G01*
X149600000Y-146405000D01*
G75*
G02*
X149675000Y-146330000I75000J0D01*
G01*
X149825000Y-146330000D01*
G75*
G02*
X149900000Y-146405000I0J-75000D01*
G01*
X149900000Y-147730000D01*
G75*
G02*
X149825000Y-147805000I-75000J0D01*
G01*
G37*
G36*
G01*
X150325000Y-147805000D02*
X150175000Y-147805000D01*
G75*
G02*
X150100000Y-147730000I0J75000D01*
G01*
X150100000Y-146405000D01*
G75*
G02*
X150175000Y-146330000I75000J0D01*
G01*
X150325000Y-146330000D01*
G75*
G02*
X150400000Y-146405000I0J-75000D01*
G01*
X150400000Y-147730000D01*
G75*
G02*
X150325000Y-147805000I-75000J0D01*
G01*
G37*
G36*
G01*
X150825000Y-147805000D02*
X150675000Y-147805000D01*
G75*
G02*
X150600000Y-147730000I0J75000D01*
G01*
X150600000Y-146405000D01*
G75*
G02*
X150675000Y-146330000I75000J0D01*
G01*
X150825000Y-146330000D01*
G75*
G02*
X150900000Y-146405000I0J-75000D01*
G01*
X150900000Y-147730000D01*
G75*
G02*
X150825000Y-147805000I-75000J0D01*
G01*
G37*
G36*
G01*
X151325000Y-147805000D02*
X151175000Y-147805000D01*
G75*
G02*
X151100000Y-147730000I0J75000D01*
G01*
X151100000Y-146405000D01*
G75*
G02*
X151175000Y-146330000I75000J0D01*
G01*
X151325000Y-146330000D01*
G75*
G02*
X151400000Y-146405000I0J-75000D01*
G01*
X151400000Y-147730000D01*
G75*
G02*
X151325000Y-147805000I-75000J0D01*
G01*
G37*
G36*
G01*
X151825000Y-147805000D02*
X151675000Y-147805000D01*
G75*
G02*
X151600000Y-147730000I0J75000D01*
G01*
X151600000Y-146405000D01*
G75*
G02*
X151675000Y-146330000I75000J0D01*
G01*
X151825000Y-146330000D01*
G75*
G02*
X151900000Y-146405000I0J-75000D01*
G01*
X151900000Y-147730000D01*
G75*
G02*
X151825000Y-147805000I-75000J0D01*
G01*
G37*
G36*
G01*
X152325000Y-147805000D02*
X152175000Y-147805000D01*
G75*
G02*
X152100000Y-147730000I0J75000D01*
G01*
X152100000Y-146405000D01*
G75*
G02*
X152175000Y-146330000I75000J0D01*
G01*
X152325000Y-146330000D01*
G75*
G02*
X152400000Y-146405000I0J-75000D01*
G01*
X152400000Y-147730000D01*
G75*
G02*
X152325000Y-147805000I-75000J0D01*
G01*
G37*
G36*
G01*
X152825000Y-147805000D02*
X152675000Y-147805000D01*
G75*
G02*
X152600000Y-147730000I0J75000D01*
G01*
X152600000Y-146405000D01*
G75*
G02*
X152675000Y-146330000I75000J0D01*
G01*
X152825000Y-146330000D01*
G75*
G02*
X152900000Y-146405000I0J-75000D01*
G01*
X152900000Y-147730000D01*
G75*
G02*
X152825000Y-147805000I-75000J0D01*
G01*
G37*
G36*
G01*
X153325000Y-147805000D02*
X153175000Y-147805000D01*
G75*
G02*
X153100000Y-147730000I0J75000D01*
G01*
X153100000Y-146405000D01*
G75*
G02*
X153175000Y-146330000I75000J0D01*
G01*
X153325000Y-146330000D01*
G75*
G02*
X153400000Y-146405000I0J-75000D01*
G01*
X153400000Y-147730000D01*
G75*
G02*
X153325000Y-147805000I-75000J0D01*
G01*
G37*
G36*
G01*
X153825000Y-147805000D02*
X153675000Y-147805000D01*
G75*
G02*
X153600000Y-147730000I0J75000D01*
G01*
X153600000Y-146405000D01*
G75*
G02*
X153675000Y-146330000I75000J0D01*
G01*
X153825000Y-146330000D01*
G75*
G02*
X153900000Y-146405000I0J-75000D01*
G01*
X153900000Y-147730000D01*
G75*
G02*
X153825000Y-147805000I-75000J0D01*
G01*
G37*
G36*
G01*
X154325000Y-147805000D02*
X154175000Y-147805000D01*
G75*
G02*
X154100000Y-147730000I0J75000D01*
G01*
X154100000Y-146405000D01*
G75*
G02*
X154175000Y-146330000I75000J0D01*
G01*
X154325000Y-146330000D01*
G75*
G02*
X154400000Y-146405000I0J-75000D01*
G01*
X154400000Y-147730000D01*
G75*
G02*
X154325000Y-147805000I-75000J0D01*
G01*
G37*
G36*
G01*
X156325000Y-148630000D02*
X155000000Y-148630000D01*
G75*
G02*
X154925000Y-148555000I0J75000D01*
G01*
X154925000Y-148405000D01*
G75*
G02*
X155000000Y-148330000I75000J0D01*
G01*
X156325000Y-148330000D01*
G75*
G02*
X156400000Y-148405000I0J-75000D01*
G01*
X156400000Y-148555000D01*
G75*
G02*
X156325000Y-148630000I-75000J0D01*
G01*
G37*
G36*
G01*
X156325000Y-149130000D02*
X155000000Y-149130000D01*
G75*
G02*
X154925000Y-149055000I0J75000D01*
G01*
X154925000Y-148905000D01*
G75*
G02*
X155000000Y-148830000I75000J0D01*
G01*
X156325000Y-148830000D01*
G75*
G02*
X156400000Y-148905000I0J-75000D01*
G01*
X156400000Y-149055000D01*
G75*
G02*
X156325000Y-149130000I-75000J0D01*
G01*
G37*
G36*
G01*
X156325000Y-149630000D02*
X155000000Y-149630000D01*
G75*
G02*
X154925000Y-149555000I0J75000D01*
G01*
X154925000Y-149405000D01*
G75*
G02*
X155000000Y-149330000I75000J0D01*
G01*
X156325000Y-149330000D01*
G75*
G02*
X156400000Y-149405000I0J-75000D01*
G01*
X156400000Y-149555000D01*
G75*
G02*
X156325000Y-149630000I-75000J0D01*
G01*
G37*
G36*
G01*
X156325000Y-150130000D02*
X155000000Y-150130000D01*
G75*
G02*
X154925000Y-150055000I0J75000D01*
G01*
X154925000Y-149905000D01*
G75*
G02*
X155000000Y-149830000I75000J0D01*
G01*
X156325000Y-149830000D01*
G75*
G02*
X156400000Y-149905000I0J-75000D01*
G01*
X156400000Y-150055000D01*
G75*
G02*
X156325000Y-150130000I-75000J0D01*
G01*
G37*
G36*
G01*
X156325000Y-150630000D02*
X155000000Y-150630000D01*
G75*
G02*
X154925000Y-150555000I0J75000D01*
G01*
X154925000Y-150405000D01*
G75*
G02*
X155000000Y-150330000I75000J0D01*
G01*
X156325000Y-150330000D01*
G75*
G02*
X156400000Y-150405000I0J-75000D01*
G01*
X156400000Y-150555000D01*
G75*
G02*
X156325000Y-150630000I-75000J0D01*
G01*
G37*
G36*
G01*
X156325000Y-151130000D02*
X155000000Y-151130000D01*
G75*
G02*
X154925000Y-151055000I0J75000D01*
G01*
X154925000Y-150905000D01*
G75*
G02*
X155000000Y-150830000I75000J0D01*
G01*
X156325000Y-150830000D01*
G75*
G02*
X156400000Y-150905000I0J-75000D01*
G01*
X156400000Y-151055000D01*
G75*
G02*
X156325000Y-151130000I-75000J0D01*
G01*
G37*
G36*
G01*
X156325000Y-151630000D02*
X155000000Y-151630000D01*
G75*
G02*
X154925000Y-151555000I0J75000D01*
G01*
X154925000Y-151405000D01*
G75*
G02*
X155000000Y-151330000I75000J0D01*
G01*
X156325000Y-151330000D01*
G75*
G02*
X156400000Y-151405000I0J-75000D01*
G01*
X156400000Y-151555000D01*
G75*
G02*
X156325000Y-151630000I-75000J0D01*
G01*
G37*
G36*
G01*
X156325000Y-152130000D02*
X155000000Y-152130000D01*
G75*
G02*
X154925000Y-152055000I0J75000D01*
G01*
X154925000Y-151905000D01*
G75*
G02*
X155000000Y-151830000I75000J0D01*
G01*
X156325000Y-151830000D01*
G75*
G02*
X156400000Y-151905000I0J-75000D01*
G01*
X156400000Y-152055000D01*
G75*
G02*
X156325000Y-152130000I-75000J0D01*
G01*
G37*
G36*
G01*
X156325000Y-152630000D02*
X155000000Y-152630000D01*
G75*
G02*
X154925000Y-152555000I0J75000D01*
G01*
X154925000Y-152405000D01*
G75*
G02*
X155000000Y-152330000I75000J0D01*
G01*
X156325000Y-152330000D01*
G75*
G02*
X156400000Y-152405000I0J-75000D01*
G01*
X156400000Y-152555000D01*
G75*
G02*
X156325000Y-152630000I-75000J0D01*
G01*
G37*
G36*
G01*
X156325000Y-153130000D02*
X155000000Y-153130000D01*
G75*
G02*
X154925000Y-153055000I0J75000D01*
G01*
X154925000Y-152905000D01*
G75*
G02*
X155000000Y-152830000I75000J0D01*
G01*
X156325000Y-152830000D01*
G75*
G02*
X156400000Y-152905000I0J-75000D01*
G01*
X156400000Y-153055000D01*
G75*
G02*
X156325000Y-153130000I-75000J0D01*
G01*
G37*
G36*
G01*
X156325000Y-153630000D02*
X155000000Y-153630000D01*
G75*
G02*
X154925000Y-153555000I0J75000D01*
G01*
X154925000Y-153405000D01*
G75*
G02*
X155000000Y-153330000I75000J0D01*
G01*
X156325000Y-153330000D01*
G75*
G02*
X156400000Y-153405000I0J-75000D01*
G01*
X156400000Y-153555000D01*
G75*
G02*
X156325000Y-153630000I-75000J0D01*
G01*
G37*
G36*
G01*
X156325000Y-154130000D02*
X155000000Y-154130000D01*
G75*
G02*
X154925000Y-154055000I0J75000D01*
G01*
X154925000Y-153905000D01*
G75*
G02*
X155000000Y-153830000I75000J0D01*
G01*
X156325000Y-153830000D01*
G75*
G02*
X156400000Y-153905000I0J-75000D01*
G01*
X156400000Y-154055000D01*
G75*
G02*
X156325000Y-154130000I-75000J0D01*
G01*
G37*
G36*
G01*
X154325000Y-156130000D02*
X154175000Y-156130000D01*
G75*
G02*
X154100000Y-156055000I0J75000D01*
G01*
X154100000Y-154730000D01*
G75*
G02*
X154175000Y-154655000I75000J0D01*
G01*
X154325000Y-154655000D01*
G75*
G02*
X154400000Y-154730000I0J-75000D01*
G01*
X154400000Y-156055000D01*
G75*
G02*
X154325000Y-156130000I-75000J0D01*
G01*
G37*
G36*
G01*
X153825000Y-156130000D02*
X153675000Y-156130000D01*
G75*
G02*
X153600000Y-156055000I0J75000D01*
G01*
X153600000Y-154730000D01*
G75*
G02*
X153675000Y-154655000I75000J0D01*
G01*
X153825000Y-154655000D01*
G75*
G02*
X153900000Y-154730000I0J-75000D01*
G01*
X153900000Y-156055000D01*
G75*
G02*
X153825000Y-156130000I-75000J0D01*
G01*
G37*
G36*
G01*
X153325000Y-156130000D02*
X153175000Y-156130000D01*
G75*
G02*
X153100000Y-156055000I0J75000D01*
G01*
X153100000Y-154730000D01*
G75*
G02*
X153175000Y-154655000I75000J0D01*
G01*
X153325000Y-154655000D01*
G75*
G02*
X153400000Y-154730000I0J-75000D01*
G01*
X153400000Y-156055000D01*
G75*
G02*
X153325000Y-156130000I-75000J0D01*
G01*
G37*
G36*
G01*
X152825000Y-156130000D02*
X152675000Y-156130000D01*
G75*
G02*
X152600000Y-156055000I0J75000D01*
G01*
X152600000Y-154730000D01*
G75*
G02*
X152675000Y-154655000I75000J0D01*
G01*
X152825000Y-154655000D01*
G75*
G02*
X152900000Y-154730000I0J-75000D01*
G01*
X152900000Y-156055000D01*
G75*
G02*
X152825000Y-156130000I-75000J0D01*
G01*
G37*
G36*
G01*
X152325000Y-156130000D02*
X152175000Y-156130000D01*
G75*
G02*
X152100000Y-156055000I0J75000D01*
G01*
X152100000Y-154730000D01*
G75*
G02*
X152175000Y-154655000I75000J0D01*
G01*
X152325000Y-154655000D01*
G75*
G02*
X152400000Y-154730000I0J-75000D01*
G01*
X152400000Y-156055000D01*
G75*
G02*
X152325000Y-156130000I-75000J0D01*
G01*
G37*
G36*
G01*
X151825000Y-156130000D02*
X151675000Y-156130000D01*
G75*
G02*
X151600000Y-156055000I0J75000D01*
G01*
X151600000Y-154730000D01*
G75*
G02*
X151675000Y-154655000I75000J0D01*
G01*
X151825000Y-154655000D01*
G75*
G02*
X151900000Y-154730000I0J-75000D01*
G01*
X151900000Y-156055000D01*
G75*
G02*
X151825000Y-156130000I-75000J0D01*
G01*
G37*
G36*
G01*
X151325000Y-156130000D02*
X151175000Y-156130000D01*
G75*
G02*
X151100000Y-156055000I0J75000D01*
G01*
X151100000Y-154730000D01*
G75*
G02*
X151175000Y-154655000I75000J0D01*
G01*
X151325000Y-154655000D01*
G75*
G02*
X151400000Y-154730000I0J-75000D01*
G01*
X151400000Y-156055000D01*
G75*
G02*
X151325000Y-156130000I-75000J0D01*
G01*
G37*
G36*
G01*
X150825000Y-156130000D02*
X150675000Y-156130000D01*
G75*
G02*
X150600000Y-156055000I0J75000D01*
G01*
X150600000Y-154730000D01*
G75*
G02*
X150675000Y-154655000I75000J0D01*
G01*
X150825000Y-154655000D01*
G75*
G02*
X150900000Y-154730000I0J-75000D01*
G01*
X150900000Y-156055000D01*
G75*
G02*
X150825000Y-156130000I-75000J0D01*
G01*
G37*
G36*
G01*
X150325000Y-156130000D02*
X150175000Y-156130000D01*
G75*
G02*
X150100000Y-156055000I0J75000D01*
G01*
X150100000Y-154730000D01*
G75*
G02*
X150175000Y-154655000I75000J0D01*
G01*
X150325000Y-154655000D01*
G75*
G02*
X150400000Y-154730000I0J-75000D01*
G01*
X150400000Y-156055000D01*
G75*
G02*
X150325000Y-156130000I-75000J0D01*
G01*
G37*
G36*
G01*
X149825000Y-156130000D02*
X149675000Y-156130000D01*
G75*
G02*
X149600000Y-156055000I0J75000D01*
G01*
X149600000Y-154730000D01*
G75*
G02*
X149675000Y-154655000I75000J0D01*
G01*
X149825000Y-154655000D01*
G75*
G02*
X149900000Y-154730000I0J-75000D01*
G01*
X149900000Y-156055000D01*
G75*
G02*
X149825000Y-156130000I-75000J0D01*
G01*
G37*
G36*
G01*
X149325000Y-156130000D02*
X149175000Y-156130000D01*
G75*
G02*
X149100000Y-156055000I0J75000D01*
G01*
X149100000Y-154730000D01*
G75*
G02*
X149175000Y-154655000I75000J0D01*
G01*
X149325000Y-154655000D01*
G75*
G02*
X149400000Y-154730000I0J-75000D01*
G01*
X149400000Y-156055000D01*
G75*
G02*
X149325000Y-156130000I-75000J0D01*
G01*
G37*
G36*
G01*
X148825000Y-156130000D02*
X148675000Y-156130000D01*
G75*
G02*
X148600000Y-156055000I0J75000D01*
G01*
X148600000Y-154730000D01*
G75*
G02*
X148675000Y-154655000I75000J0D01*
G01*
X148825000Y-154655000D01*
G75*
G02*
X148900000Y-154730000I0J-75000D01*
G01*
X148900000Y-156055000D01*
G75*
G02*
X148825000Y-156130000I-75000J0D01*
G01*
G37*
G36*
G01*
X218800000Y-136140000D02*
X218800000Y-135840000D01*
G75*
G02*
X218950000Y-135690000I150000J0D01*
G01*
X220600000Y-135690000D01*
G75*
G02*
X220750000Y-135840000I0J-150000D01*
G01*
X220750000Y-136140000D01*
G75*
G02*
X220600000Y-136290000I-150000J0D01*
G01*
X218950000Y-136290000D01*
G75*
G02*
X218800000Y-136140000I0J150000D01*
G01*
G37*
G36*
G01*
X218800000Y-137410000D02*
X218800000Y-137110000D01*
G75*
G02*
X218950000Y-136960000I150000J0D01*
G01*
X220600000Y-136960000D01*
G75*
G02*
X220750000Y-137110000I0J-150000D01*
G01*
X220750000Y-137410000D01*
G75*
G02*
X220600000Y-137560000I-150000J0D01*
G01*
X218950000Y-137560000D01*
G75*
G02*
X218800000Y-137410000I0J150000D01*
G01*
G37*
G36*
G01*
X218800000Y-138680000D02*
X218800000Y-138380000D01*
G75*
G02*
X218950000Y-138230000I150000J0D01*
G01*
X220600000Y-138230000D01*
G75*
G02*
X220750000Y-138380000I0J-150000D01*
G01*
X220750000Y-138680000D01*
G75*
G02*
X220600000Y-138830000I-150000J0D01*
G01*
X218950000Y-138830000D01*
G75*
G02*
X218800000Y-138680000I0J150000D01*
G01*
G37*
G36*
G01*
X218800000Y-139950000D02*
X218800000Y-139650000D01*
G75*
G02*
X218950000Y-139500000I150000J0D01*
G01*
X220600000Y-139500000D01*
G75*
G02*
X220750000Y-139650000I0J-150000D01*
G01*
X220750000Y-139950000D01*
G75*
G02*
X220600000Y-140100000I-150000J0D01*
G01*
X218950000Y-140100000D01*
G75*
G02*
X218800000Y-139950000I0J150000D01*
G01*
G37*
G36*
G01*
X218800000Y-141220000D02*
X218800000Y-140920000D01*
G75*
G02*
X218950000Y-140770000I150000J0D01*
G01*
X220600000Y-140770000D01*
G75*
G02*
X220750000Y-140920000I0J-150000D01*
G01*
X220750000Y-141220000D01*
G75*
G02*
X220600000Y-141370000I-150000J0D01*
G01*
X218950000Y-141370000D01*
G75*
G02*
X218800000Y-141220000I0J150000D01*
G01*
G37*
G36*
G01*
X218800000Y-142490000D02*
X218800000Y-142190000D01*
G75*
G02*
X218950000Y-142040000I150000J0D01*
G01*
X220600000Y-142040000D01*
G75*
G02*
X220750000Y-142190000I0J-150000D01*
G01*
X220750000Y-142490000D01*
G75*
G02*
X220600000Y-142640000I-150000J0D01*
G01*
X218950000Y-142640000D01*
G75*
G02*
X218800000Y-142490000I0J150000D01*
G01*
G37*
G36*
G01*
X218800000Y-143760000D02*
X218800000Y-143460000D01*
G75*
G02*
X218950000Y-143310000I150000J0D01*
G01*
X220600000Y-143310000D01*
G75*
G02*
X220750000Y-143460000I0J-150000D01*
G01*
X220750000Y-143760000D01*
G75*
G02*
X220600000Y-143910000I-150000J0D01*
G01*
X218950000Y-143910000D01*
G75*
G02*
X218800000Y-143760000I0J150000D01*
G01*
G37*
G36*
G01*
X213850000Y-143760000D02*
X213850000Y-143460000D01*
G75*
G02*
X214000000Y-143310000I150000J0D01*
G01*
X215650000Y-143310000D01*
G75*
G02*
X215800000Y-143460000I0J-150000D01*
G01*
X215800000Y-143760000D01*
G75*
G02*
X215650000Y-143910000I-150000J0D01*
G01*
X214000000Y-143910000D01*
G75*
G02*
X213850000Y-143760000I0J150000D01*
G01*
G37*
G36*
G01*
X213850000Y-142490000D02*
X213850000Y-142190000D01*
G75*
G02*
X214000000Y-142040000I150000J0D01*
G01*
X215650000Y-142040000D01*
G75*
G02*
X215800000Y-142190000I0J-150000D01*
G01*
X215800000Y-142490000D01*
G75*
G02*
X215650000Y-142640000I-150000J0D01*
G01*
X214000000Y-142640000D01*
G75*
G02*
X213850000Y-142490000I0J150000D01*
G01*
G37*
G36*
G01*
X213850000Y-141220000D02*
X213850000Y-140920000D01*
G75*
G02*
X214000000Y-140770000I150000J0D01*
G01*
X215650000Y-140770000D01*
G75*
G02*
X215800000Y-140920000I0J-150000D01*
G01*
X215800000Y-141220000D01*
G75*
G02*
X215650000Y-141370000I-150000J0D01*
G01*
X214000000Y-141370000D01*
G75*
G02*
X213850000Y-141220000I0J150000D01*
G01*
G37*
G36*
G01*
X213850000Y-139950000D02*
X213850000Y-139650000D01*
G75*
G02*
X214000000Y-139500000I150000J0D01*
G01*
X215650000Y-139500000D01*
G75*
G02*
X215800000Y-139650000I0J-150000D01*
G01*
X215800000Y-139950000D01*
G75*
G02*
X215650000Y-140100000I-150000J0D01*
G01*
X214000000Y-140100000D01*
G75*
G02*
X213850000Y-139950000I0J150000D01*
G01*
G37*
G36*
G01*
X213850000Y-138680000D02*
X213850000Y-138380000D01*
G75*
G02*
X214000000Y-138230000I150000J0D01*
G01*
X215650000Y-138230000D01*
G75*
G02*
X215800000Y-138380000I0J-150000D01*
G01*
X215800000Y-138680000D01*
G75*
G02*
X215650000Y-138830000I-150000J0D01*
G01*
X214000000Y-138830000D01*
G75*
G02*
X213850000Y-138680000I0J150000D01*
G01*
G37*
G36*
G01*
X213850000Y-137410000D02*
X213850000Y-137110000D01*
G75*
G02*
X214000000Y-136960000I150000J0D01*
G01*
X215650000Y-136960000D01*
G75*
G02*
X215800000Y-137110000I0J-150000D01*
G01*
X215800000Y-137410000D01*
G75*
G02*
X215650000Y-137560000I-150000J0D01*
G01*
X214000000Y-137560000D01*
G75*
G02*
X213850000Y-137410000I0J150000D01*
G01*
G37*
G36*
G01*
X213850000Y-136140000D02*
X213850000Y-135840000D01*
G75*
G02*
X214000000Y-135690000I150000J0D01*
G01*
X215650000Y-135690000D01*
G75*
G02*
X215800000Y-135840000I0J-150000D01*
G01*
X215800000Y-136140000D01*
G75*
G02*
X215650000Y-136290000I-150000J0D01*
G01*
X214000000Y-136290000D01*
G75*
G02*
X213850000Y-136140000I0J150000D01*
G01*
G37*
D16*
X165240000Y-139820000D03*
D17*
X163970000Y-135375000D03*
X165240000Y-135375000D03*
X166510000Y-135375000D03*
X166510000Y-144265000D03*
X165240000Y-144265000D03*
X163970000Y-144265000D03*
D16*
X165350000Y-127840000D03*
D17*
X164080000Y-123395000D03*
X165350000Y-123395000D03*
X166620000Y-123395000D03*
X166620000Y-132285000D03*
X165350000Y-132285000D03*
X164080000Y-132285000D03*
G36*
G01*
X227250000Y-136165000D02*
X227250000Y-135865000D01*
G75*
G02*
X227400000Y-135715000I150000J0D01*
G01*
X229050000Y-135715000D01*
G75*
G02*
X229200000Y-135865000I0J-150000D01*
G01*
X229200000Y-136165000D01*
G75*
G02*
X229050000Y-136315000I-150000J0D01*
G01*
X227400000Y-136315000D01*
G75*
G02*
X227250000Y-136165000I0J150000D01*
G01*
G37*
G36*
G01*
X227250000Y-137435000D02*
X227250000Y-137135000D01*
G75*
G02*
X227400000Y-136985000I150000J0D01*
G01*
X229050000Y-136985000D01*
G75*
G02*
X229200000Y-137135000I0J-150000D01*
G01*
X229200000Y-137435000D01*
G75*
G02*
X229050000Y-137585000I-150000J0D01*
G01*
X227400000Y-137585000D01*
G75*
G02*
X227250000Y-137435000I0J150000D01*
G01*
G37*
G36*
G01*
X227250000Y-138705000D02*
X227250000Y-138405000D01*
G75*
G02*
X227400000Y-138255000I150000J0D01*
G01*
X229050000Y-138255000D01*
G75*
G02*
X229200000Y-138405000I0J-150000D01*
G01*
X229200000Y-138705000D01*
G75*
G02*
X229050000Y-138855000I-150000J0D01*
G01*
X227400000Y-138855000D01*
G75*
G02*
X227250000Y-138705000I0J150000D01*
G01*
G37*
G36*
G01*
X227250000Y-139975000D02*
X227250000Y-139675000D01*
G75*
G02*
X227400000Y-139525000I150000J0D01*
G01*
X229050000Y-139525000D01*
G75*
G02*
X229200000Y-139675000I0J-150000D01*
G01*
X229200000Y-139975000D01*
G75*
G02*
X229050000Y-140125000I-150000J0D01*
G01*
X227400000Y-140125000D01*
G75*
G02*
X227250000Y-139975000I0J150000D01*
G01*
G37*
G36*
G01*
X222300000Y-139975000D02*
X222300000Y-139675000D01*
G75*
G02*
X222450000Y-139525000I150000J0D01*
G01*
X224100000Y-139525000D01*
G75*
G02*
X224250000Y-139675000I0J-150000D01*
G01*
X224250000Y-139975000D01*
G75*
G02*
X224100000Y-140125000I-150000J0D01*
G01*
X222450000Y-140125000D01*
G75*
G02*
X222300000Y-139975000I0J150000D01*
G01*
G37*
G36*
G01*
X222300000Y-138705000D02*
X222300000Y-138405000D01*
G75*
G02*
X222450000Y-138255000I150000J0D01*
G01*
X224100000Y-138255000D01*
G75*
G02*
X224250000Y-138405000I0J-150000D01*
G01*
X224250000Y-138705000D01*
G75*
G02*
X224100000Y-138855000I-150000J0D01*
G01*
X222450000Y-138855000D01*
G75*
G02*
X222300000Y-138705000I0J150000D01*
G01*
G37*
G36*
G01*
X222300000Y-137435000D02*
X222300000Y-137135000D01*
G75*
G02*
X222450000Y-136985000I150000J0D01*
G01*
X224100000Y-136985000D01*
G75*
G02*
X224250000Y-137135000I0J-150000D01*
G01*
X224250000Y-137435000D01*
G75*
G02*
X224100000Y-137585000I-150000J0D01*
G01*
X222450000Y-137585000D01*
G75*
G02*
X222300000Y-137435000I0J150000D01*
G01*
G37*
G36*
G01*
X222300000Y-136165000D02*
X222300000Y-135865000D01*
G75*
G02*
X222450000Y-135715000I150000J0D01*
G01*
X224100000Y-135715000D01*
G75*
G02*
X224250000Y-135865000I0J-150000D01*
G01*
X224250000Y-136165000D01*
G75*
G02*
X224100000Y-136315000I-150000J0D01*
G01*
X222450000Y-136315000D01*
G75*
G02*
X222300000Y-136165000I0J150000D01*
G01*
G37*
G36*
G01*
X145200000Y-129070000D02*
X146650000Y-129070000D01*
G75*
G02*
X146725000Y-129145000I0J-75000D01*
G01*
X146725000Y-129295000D01*
G75*
G02*
X146650000Y-129370000I-75000J0D01*
G01*
X145200000Y-129370000D01*
G75*
G02*
X145125000Y-129295000I0J75000D01*
G01*
X145125000Y-129145000D01*
G75*
G02*
X145200000Y-129070000I75000J0D01*
G01*
G37*
G36*
G01*
X145200000Y-129570000D02*
X146650000Y-129570000D01*
G75*
G02*
X146725000Y-129645000I0J-75000D01*
G01*
X146725000Y-129795000D01*
G75*
G02*
X146650000Y-129870000I-75000J0D01*
G01*
X145200000Y-129870000D01*
G75*
G02*
X145125000Y-129795000I0J75000D01*
G01*
X145125000Y-129645000D01*
G75*
G02*
X145200000Y-129570000I75000J0D01*
G01*
G37*
G36*
G01*
X145200000Y-130070000D02*
X146650000Y-130070000D01*
G75*
G02*
X146725000Y-130145000I0J-75000D01*
G01*
X146725000Y-130295000D01*
G75*
G02*
X146650000Y-130370000I-75000J0D01*
G01*
X145200000Y-130370000D01*
G75*
G02*
X145125000Y-130295000I0J75000D01*
G01*
X145125000Y-130145000D01*
G75*
G02*
X145200000Y-130070000I75000J0D01*
G01*
G37*
G36*
G01*
X145200000Y-130570000D02*
X146650000Y-130570000D01*
G75*
G02*
X146725000Y-130645000I0J-75000D01*
G01*
X146725000Y-130795000D01*
G75*
G02*
X146650000Y-130870000I-75000J0D01*
G01*
X145200000Y-130870000D01*
G75*
G02*
X145125000Y-130795000I0J75000D01*
G01*
X145125000Y-130645000D01*
G75*
G02*
X145200000Y-130570000I75000J0D01*
G01*
G37*
G36*
G01*
X145200000Y-131070000D02*
X146650000Y-131070000D01*
G75*
G02*
X146725000Y-131145000I0J-75000D01*
G01*
X146725000Y-131295000D01*
G75*
G02*
X146650000Y-131370000I-75000J0D01*
G01*
X145200000Y-131370000D01*
G75*
G02*
X145125000Y-131295000I0J75000D01*
G01*
X145125000Y-131145000D01*
G75*
G02*
X145200000Y-131070000I75000J0D01*
G01*
G37*
G36*
G01*
X145200000Y-131570000D02*
X146650000Y-131570000D01*
G75*
G02*
X146725000Y-131645000I0J-75000D01*
G01*
X146725000Y-131795000D01*
G75*
G02*
X146650000Y-131870000I-75000J0D01*
G01*
X145200000Y-131870000D01*
G75*
G02*
X145125000Y-131795000I0J75000D01*
G01*
X145125000Y-131645000D01*
G75*
G02*
X145200000Y-131570000I75000J0D01*
G01*
G37*
G36*
G01*
X145200000Y-132070000D02*
X146650000Y-132070000D01*
G75*
G02*
X146725000Y-132145000I0J-75000D01*
G01*
X146725000Y-132295000D01*
G75*
G02*
X146650000Y-132370000I-75000J0D01*
G01*
X145200000Y-132370000D01*
G75*
G02*
X145125000Y-132295000I0J75000D01*
G01*
X145125000Y-132145000D01*
G75*
G02*
X145200000Y-132070000I75000J0D01*
G01*
G37*
G36*
G01*
X145200000Y-132570000D02*
X146650000Y-132570000D01*
G75*
G02*
X146725000Y-132645000I0J-75000D01*
G01*
X146725000Y-132795000D01*
G75*
G02*
X146650000Y-132870000I-75000J0D01*
G01*
X145200000Y-132870000D01*
G75*
G02*
X145125000Y-132795000I0J75000D01*
G01*
X145125000Y-132645000D01*
G75*
G02*
X145200000Y-132570000I75000J0D01*
G01*
G37*
G36*
G01*
X145200000Y-133070000D02*
X146650000Y-133070000D01*
G75*
G02*
X146725000Y-133145000I0J-75000D01*
G01*
X146725000Y-133295000D01*
G75*
G02*
X146650000Y-133370000I-75000J0D01*
G01*
X145200000Y-133370000D01*
G75*
G02*
X145125000Y-133295000I0J75000D01*
G01*
X145125000Y-133145000D01*
G75*
G02*
X145200000Y-133070000I75000J0D01*
G01*
G37*
G36*
G01*
X145200000Y-133570000D02*
X146650000Y-133570000D01*
G75*
G02*
X146725000Y-133645000I0J-75000D01*
G01*
X146725000Y-133795000D01*
G75*
G02*
X146650000Y-133870000I-75000J0D01*
G01*
X145200000Y-133870000D01*
G75*
G02*
X145125000Y-133795000I0J75000D01*
G01*
X145125000Y-133645000D01*
G75*
G02*
X145200000Y-133570000I75000J0D01*
G01*
G37*
G36*
G01*
X145200000Y-134070000D02*
X146650000Y-134070000D01*
G75*
G02*
X146725000Y-134145000I0J-75000D01*
G01*
X146725000Y-134295000D01*
G75*
G02*
X146650000Y-134370000I-75000J0D01*
G01*
X145200000Y-134370000D01*
G75*
G02*
X145125000Y-134295000I0J75000D01*
G01*
X145125000Y-134145000D01*
G75*
G02*
X145200000Y-134070000I75000J0D01*
G01*
G37*
G36*
G01*
X145200000Y-134570000D02*
X146650000Y-134570000D01*
G75*
G02*
X146725000Y-134645000I0J-75000D01*
G01*
X146725000Y-134795000D01*
G75*
G02*
X146650000Y-134870000I-75000J0D01*
G01*
X145200000Y-134870000D01*
G75*
G02*
X145125000Y-134795000I0J75000D01*
G01*
X145125000Y-134645000D01*
G75*
G02*
X145200000Y-134570000I75000J0D01*
G01*
G37*
G36*
G01*
X145200000Y-135070000D02*
X146650000Y-135070000D01*
G75*
G02*
X146725000Y-135145000I0J-75000D01*
G01*
X146725000Y-135295000D01*
G75*
G02*
X146650000Y-135370000I-75000J0D01*
G01*
X145200000Y-135370000D01*
G75*
G02*
X145125000Y-135295000I0J75000D01*
G01*
X145125000Y-135145000D01*
G75*
G02*
X145200000Y-135070000I75000J0D01*
G01*
G37*
G36*
G01*
X145200000Y-135570000D02*
X146650000Y-135570000D01*
G75*
G02*
X146725000Y-135645000I0J-75000D01*
G01*
X146725000Y-135795000D01*
G75*
G02*
X146650000Y-135870000I-75000J0D01*
G01*
X145200000Y-135870000D01*
G75*
G02*
X145125000Y-135795000I0J75000D01*
G01*
X145125000Y-135645000D01*
G75*
G02*
X145200000Y-135570000I75000J0D01*
G01*
G37*
G36*
G01*
X145200000Y-136070000D02*
X146650000Y-136070000D01*
G75*
G02*
X146725000Y-136145000I0J-75000D01*
G01*
X146725000Y-136295000D01*
G75*
G02*
X146650000Y-136370000I-75000J0D01*
G01*
X145200000Y-136370000D01*
G75*
G02*
X145125000Y-136295000I0J75000D01*
G01*
X145125000Y-136145000D01*
G75*
G02*
X145200000Y-136070000I75000J0D01*
G01*
G37*
G36*
G01*
X145200000Y-136570000D02*
X146650000Y-136570000D01*
G75*
G02*
X146725000Y-136645000I0J-75000D01*
G01*
X146725000Y-136795000D01*
G75*
G02*
X146650000Y-136870000I-75000J0D01*
G01*
X145200000Y-136870000D01*
G75*
G02*
X145125000Y-136795000I0J75000D01*
G01*
X145125000Y-136645000D01*
G75*
G02*
X145200000Y-136570000I75000J0D01*
G01*
G37*
G36*
G01*
X145200000Y-137070000D02*
X146650000Y-137070000D01*
G75*
G02*
X146725000Y-137145000I0J-75000D01*
G01*
X146725000Y-137295000D01*
G75*
G02*
X146650000Y-137370000I-75000J0D01*
G01*
X145200000Y-137370000D01*
G75*
G02*
X145125000Y-137295000I0J75000D01*
G01*
X145125000Y-137145000D01*
G75*
G02*
X145200000Y-137070000I75000J0D01*
G01*
G37*
G36*
G01*
X145200000Y-137570000D02*
X146650000Y-137570000D01*
G75*
G02*
X146725000Y-137645000I0J-75000D01*
G01*
X146725000Y-137795000D01*
G75*
G02*
X146650000Y-137870000I-75000J0D01*
G01*
X145200000Y-137870000D01*
G75*
G02*
X145125000Y-137795000I0J75000D01*
G01*
X145125000Y-137645000D01*
G75*
G02*
X145200000Y-137570000I75000J0D01*
G01*
G37*
G36*
G01*
X145200000Y-138070000D02*
X146650000Y-138070000D01*
G75*
G02*
X146725000Y-138145000I0J-75000D01*
G01*
X146725000Y-138295000D01*
G75*
G02*
X146650000Y-138370000I-75000J0D01*
G01*
X145200000Y-138370000D01*
G75*
G02*
X145125000Y-138295000I0J75000D01*
G01*
X145125000Y-138145000D01*
G75*
G02*
X145200000Y-138070000I75000J0D01*
G01*
G37*
G36*
G01*
X145200000Y-138570000D02*
X146650000Y-138570000D01*
G75*
G02*
X146725000Y-138645000I0J-75000D01*
G01*
X146725000Y-138795000D01*
G75*
G02*
X146650000Y-138870000I-75000J0D01*
G01*
X145200000Y-138870000D01*
G75*
G02*
X145125000Y-138795000I0J75000D01*
G01*
X145125000Y-138645000D01*
G75*
G02*
X145200000Y-138570000I75000J0D01*
G01*
G37*
G36*
G01*
X145200000Y-139070000D02*
X146650000Y-139070000D01*
G75*
G02*
X146725000Y-139145000I0J-75000D01*
G01*
X146725000Y-139295000D01*
G75*
G02*
X146650000Y-139370000I-75000J0D01*
G01*
X145200000Y-139370000D01*
G75*
G02*
X145125000Y-139295000I0J75000D01*
G01*
X145125000Y-139145000D01*
G75*
G02*
X145200000Y-139070000I75000J0D01*
G01*
G37*
G36*
G01*
X145200000Y-139570000D02*
X146650000Y-139570000D01*
G75*
G02*
X146725000Y-139645000I0J-75000D01*
G01*
X146725000Y-139795000D01*
G75*
G02*
X146650000Y-139870000I-75000J0D01*
G01*
X145200000Y-139870000D01*
G75*
G02*
X145125000Y-139795000I0J75000D01*
G01*
X145125000Y-139645000D01*
G75*
G02*
X145200000Y-139570000I75000J0D01*
G01*
G37*
G36*
G01*
X145200000Y-140070000D02*
X146650000Y-140070000D01*
G75*
G02*
X146725000Y-140145000I0J-75000D01*
G01*
X146725000Y-140295000D01*
G75*
G02*
X146650000Y-140370000I-75000J0D01*
G01*
X145200000Y-140370000D01*
G75*
G02*
X145125000Y-140295000I0J75000D01*
G01*
X145125000Y-140145000D01*
G75*
G02*
X145200000Y-140070000I75000J0D01*
G01*
G37*
G36*
G01*
X145200000Y-140570000D02*
X146650000Y-140570000D01*
G75*
G02*
X146725000Y-140645000I0J-75000D01*
G01*
X146725000Y-140795000D01*
G75*
G02*
X146650000Y-140870000I-75000J0D01*
G01*
X145200000Y-140870000D01*
G75*
G02*
X145125000Y-140795000I0J75000D01*
G01*
X145125000Y-140645000D01*
G75*
G02*
X145200000Y-140570000I75000J0D01*
G01*
G37*
G36*
G01*
X145200000Y-141070000D02*
X146650000Y-141070000D01*
G75*
G02*
X146725000Y-141145000I0J-75000D01*
G01*
X146725000Y-141295000D01*
G75*
G02*
X146650000Y-141370000I-75000J0D01*
G01*
X145200000Y-141370000D01*
G75*
G02*
X145125000Y-141295000I0J75000D01*
G01*
X145125000Y-141145000D01*
G75*
G02*
X145200000Y-141070000I75000J0D01*
G01*
G37*
G36*
G01*
X144175000Y-142095000D02*
X144325000Y-142095000D01*
G75*
G02*
X144400000Y-142170000I0J-75000D01*
G01*
X144400000Y-143620000D01*
G75*
G02*
X144325000Y-143695000I-75000J0D01*
G01*
X144175000Y-143695000D01*
G75*
G02*
X144100000Y-143620000I0J75000D01*
G01*
X144100000Y-142170000D01*
G75*
G02*
X144175000Y-142095000I75000J0D01*
G01*
G37*
G36*
G01*
X143675000Y-142095000D02*
X143825000Y-142095000D01*
G75*
G02*
X143900000Y-142170000I0J-75000D01*
G01*
X143900000Y-143620000D01*
G75*
G02*
X143825000Y-143695000I-75000J0D01*
G01*
X143675000Y-143695000D01*
G75*
G02*
X143600000Y-143620000I0J75000D01*
G01*
X143600000Y-142170000D01*
G75*
G02*
X143675000Y-142095000I75000J0D01*
G01*
G37*
G36*
G01*
X143175000Y-142095000D02*
X143325000Y-142095000D01*
G75*
G02*
X143400000Y-142170000I0J-75000D01*
G01*
X143400000Y-143620000D01*
G75*
G02*
X143325000Y-143695000I-75000J0D01*
G01*
X143175000Y-143695000D01*
G75*
G02*
X143100000Y-143620000I0J75000D01*
G01*
X143100000Y-142170000D01*
G75*
G02*
X143175000Y-142095000I75000J0D01*
G01*
G37*
G36*
G01*
X142675000Y-142095000D02*
X142825000Y-142095000D01*
G75*
G02*
X142900000Y-142170000I0J-75000D01*
G01*
X142900000Y-143620000D01*
G75*
G02*
X142825000Y-143695000I-75000J0D01*
G01*
X142675000Y-143695000D01*
G75*
G02*
X142600000Y-143620000I0J75000D01*
G01*
X142600000Y-142170000D01*
G75*
G02*
X142675000Y-142095000I75000J0D01*
G01*
G37*
G36*
G01*
X142175000Y-142095000D02*
X142325000Y-142095000D01*
G75*
G02*
X142400000Y-142170000I0J-75000D01*
G01*
X142400000Y-143620000D01*
G75*
G02*
X142325000Y-143695000I-75000J0D01*
G01*
X142175000Y-143695000D01*
G75*
G02*
X142100000Y-143620000I0J75000D01*
G01*
X142100000Y-142170000D01*
G75*
G02*
X142175000Y-142095000I75000J0D01*
G01*
G37*
G36*
G01*
X141675000Y-142095000D02*
X141825000Y-142095000D01*
G75*
G02*
X141900000Y-142170000I0J-75000D01*
G01*
X141900000Y-143620000D01*
G75*
G02*
X141825000Y-143695000I-75000J0D01*
G01*
X141675000Y-143695000D01*
G75*
G02*
X141600000Y-143620000I0J75000D01*
G01*
X141600000Y-142170000D01*
G75*
G02*
X141675000Y-142095000I75000J0D01*
G01*
G37*
G36*
G01*
X141175000Y-142095000D02*
X141325000Y-142095000D01*
G75*
G02*
X141400000Y-142170000I0J-75000D01*
G01*
X141400000Y-143620000D01*
G75*
G02*
X141325000Y-143695000I-75000J0D01*
G01*
X141175000Y-143695000D01*
G75*
G02*
X141100000Y-143620000I0J75000D01*
G01*
X141100000Y-142170000D01*
G75*
G02*
X141175000Y-142095000I75000J0D01*
G01*
G37*
G36*
G01*
X140675000Y-142095000D02*
X140825000Y-142095000D01*
G75*
G02*
X140900000Y-142170000I0J-75000D01*
G01*
X140900000Y-143620000D01*
G75*
G02*
X140825000Y-143695000I-75000J0D01*
G01*
X140675000Y-143695000D01*
G75*
G02*
X140600000Y-143620000I0J75000D01*
G01*
X140600000Y-142170000D01*
G75*
G02*
X140675000Y-142095000I75000J0D01*
G01*
G37*
G36*
G01*
X140175000Y-142095000D02*
X140325000Y-142095000D01*
G75*
G02*
X140400000Y-142170000I0J-75000D01*
G01*
X140400000Y-143620000D01*
G75*
G02*
X140325000Y-143695000I-75000J0D01*
G01*
X140175000Y-143695000D01*
G75*
G02*
X140100000Y-143620000I0J75000D01*
G01*
X140100000Y-142170000D01*
G75*
G02*
X140175000Y-142095000I75000J0D01*
G01*
G37*
G36*
G01*
X139675000Y-142095000D02*
X139825000Y-142095000D01*
G75*
G02*
X139900000Y-142170000I0J-75000D01*
G01*
X139900000Y-143620000D01*
G75*
G02*
X139825000Y-143695000I-75000J0D01*
G01*
X139675000Y-143695000D01*
G75*
G02*
X139600000Y-143620000I0J75000D01*
G01*
X139600000Y-142170000D01*
G75*
G02*
X139675000Y-142095000I75000J0D01*
G01*
G37*
G36*
G01*
X139175000Y-142095000D02*
X139325000Y-142095000D01*
G75*
G02*
X139400000Y-142170000I0J-75000D01*
G01*
X139400000Y-143620000D01*
G75*
G02*
X139325000Y-143695000I-75000J0D01*
G01*
X139175000Y-143695000D01*
G75*
G02*
X139100000Y-143620000I0J75000D01*
G01*
X139100000Y-142170000D01*
G75*
G02*
X139175000Y-142095000I75000J0D01*
G01*
G37*
G36*
G01*
X138675000Y-142095000D02*
X138825000Y-142095000D01*
G75*
G02*
X138900000Y-142170000I0J-75000D01*
G01*
X138900000Y-143620000D01*
G75*
G02*
X138825000Y-143695000I-75000J0D01*
G01*
X138675000Y-143695000D01*
G75*
G02*
X138600000Y-143620000I0J75000D01*
G01*
X138600000Y-142170000D01*
G75*
G02*
X138675000Y-142095000I75000J0D01*
G01*
G37*
G36*
G01*
X138175000Y-142095000D02*
X138325000Y-142095000D01*
G75*
G02*
X138400000Y-142170000I0J-75000D01*
G01*
X138400000Y-143620000D01*
G75*
G02*
X138325000Y-143695000I-75000J0D01*
G01*
X138175000Y-143695000D01*
G75*
G02*
X138100000Y-143620000I0J75000D01*
G01*
X138100000Y-142170000D01*
G75*
G02*
X138175000Y-142095000I75000J0D01*
G01*
G37*
G36*
G01*
X137675000Y-142095000D02*
X137825000Y-142095000D01*
G75*
G02*
X137900000Y-142170000I0J-75000D01*
G01*
X137900000Y-143620000D01*
G75*
G02*
X137825000Y-143695000I-75000J0D01*
G01*
X137675000Y-143695000D01*
G75*
G02*
X137600000Y-143620000I0J75000D01*
G01*
X137600000Y-142170000D01*
G75*
G02*
X137675000Y-142095000I75000J0D01*
G01*
G37*
G36*
G01*
X137175000Y-142095000D02*
X137325000Y-142095000D01*
G75*
G02*
X137400000Y-142170000I0J-75000D01*
G01*
X137400000Y-143620000D01*
G75*
G02*
X137325000Y-143695000I-75000J0D01*
G01*
X137175000Y-143695000D01*
G75*
G02*
X137100000Y-143620000I0J75000D01*
G01*
X137100000Y-142170000D01*
G75*
G02*
X137175000Y-142095000I75000J0D01*
G01*
G37*
G36*
G01*
X136675000Y-142095000D02*
X136825000Y-142095000D01*
G75*
G02*
X136900000Y-142170000I0J-75000D01*
G01*
X136900000Y-143620000D01*
G75*
G02*
X136825000Y-143695000I-75000J0D01*
G01*
X136675000Y-143695000D01*
G75*
G02*
X136600000Y-143620000I0J75000D01*
G01*
X136600000Y-142170000D01*
G75*
G02*
X136675000Y-142095000I75000J0D01*
G01*
G37*
G36*
G01*
X136175000Y-142095000D02*
X136325000Y-142095000D01*
G75*
G02*
X136400000Y-142170000I0J-75000D01*
G01*
X136400000Y-143620000D01*
G75*
G02*
X136325000Y-143695000I-75000J0D01*
G01*
X136175000Y-143695000D01*
G75*
G02*
X136100000Y-143620000I0J75000D01*
G01*
X136100000Y-142170000D01*
G75*
G02*
X136175000Y-142095000I75000J0D01*
G01*
G37*
G36*
G01*
X135675000Y-142095000D02*
X135825000Y-142095000D01*
G75*
G02*
X135900000Y-142170000I0J-75000D01*
G01*
X135900000Y-143620000D01*
G75*
G02*
X135825000Y-143695000I-75000J0D01*
G01*
X135675000Y-143695000D01*
G75*
G02*
X135600000Y-143620000I0J75000D01*
G01*
X135600000Y-142170000D01*
G75*
G02*
X135675000Y-142095000I75000J0D01*
G01*
G37*
G36*
G01*
X135175000Y-142095000D02*
X135325000Y-142095000D01*
G75*
G02*
X135400000Y-142170000I0J-75000D01*
G01*
X135400000Y-143620000D01*
G75*
G02*
X135325000Y-143695000I-75000J0D01*
G01*
X135175000Y-143695000D01*
G75*
G02*
X135100000Y-143620000I0J75000D01*
G01*
X135100000Y-142170000D01*
G75*
G02*
X135175000Y-142095000I75000J0D01*
G01*
G37*
G36*
G01*
X134675000Y-142095000D02*
X134825000Y-142095000D01*
G75*
G02*
X134900000Y-142170000I0J-75000D01*
G01*
X134900000Y-143620000D01*
G75*
G02*
X134825000Y-143695000I-75000J0D01*
G01*
X134675000Y-143695000D01*
G75*
G02*
X134600000Y-143620000I0J75000D01*
G01*
X134600000Y-142170000D01*
G75*
G02*
X134675000Y-142095000I75000J0D01*
G01*
G37*
G36*
G01*
X134175000Y-142095000D02*
X134325000Y-142095000D01*
G75*
G02*
X134400000Y-142170000I0J-75000D01*
G01*
X134400000Y-143620000D01*
G75*
G02*
X134325000Y-143695000I-75000J0D01*
G01*
X134175000Y-143695000D01*
G75*
G02*
X134100000Y-143620000I0J75000D01*
G01*
X134100000Y-142170000D01*
G75*
G02*
X134175000Y-142095000I75000J0D01*
G01*
G37*
G36*
G01*
X133675000Y-142095000D02*
X133825000Y-142095000D01*
G75*
G02*
X133900000Y-142170000I0J-75000D01*
G01*
X133900000Y-143620000D01*
G75*
G02*
X133825000Y-143695000I-75000J0D01*
G01*
X133675000Y-143695000D01*
G75*
G02*
X133600000Y-143620000I0J75000D01*
G01*
X133600000Y-142170000D01*
G75*
G02*
X133675000Y-142095000I75000J0D01*
G01*
G37*
G36*
G01*
X133175000Y-142095000D02*
X133325000Y-142095000D01*
G75*
G02*
X133400000Y-142170000I0J-75000D01*
G01*
X133400000Y-143620000D01*
G75*
G02*
X133325000Y-143695000I-75000J0D01*
G01*
X133175000Y-143695000D01*
G75*
G02*
X133100000Y-143620000I0J75000D01*
G01*
X133100000Y-142170000D01*
G75*
G02*
X133175000Y-142095000I75000J0D01*
G01*
G37*
G36*
G01*
X132675000Y-142095000D02*
X132825000Y-142095000D01*
G75*
G02*
X132900000Y-142170000I0J-75000D01*
G01*
X132900000Y-143620000D01*
G75*
G02*
X132825000Y-143695000I-75000J0D01*
G01*
X132675000Y-143695000D01*
G75*
G02*
X132600000Y-143620000I0J75000D01*
G01*
X132600000Y-142170000D01*
G75*
G02*
X132675000Y-142095000I75000J0D01*
G01*
G37*
G36*
G01*
X132175000Y-142095000D02*
X132325000Y-142095000D01*
G75*
G02*
X132400000Y-142170000I0J-75000D01*
G01*
X132400000Y-143620000D01*
G75*
G02*
X132325000Y-143695000I-75000J0D01*
G01*
X132175000Y-143695000D01*
G75*
G02*
X132100000Y-143620000I0J75000D01*
G01*
X132100000Y-142170000D01*
G75*
G02*
X132175000Y-142095000I75000J0D01*
G01*
G37*
G36*
G01*
X129850000Y-141070000D02*
X131300000Y-141070000D01*
G75*
G02*
X131375000Y-141145000I0J-75000D01*
G01*
X131375000Y-141295000D01*
G75*
G02*
X131300000Y-141370000I-75000J0D01*
G01*
X129850000Y-141370000D01*
G75*
G02*
X129775000Y-141295000I0J75000D01*
G01*
X129775000Y-141145000D01*
G75*
G02*
X129850000Y-141070000I75000J0D01*
G01*
G37*
G36*
G01*
X129850000Y-140570000D02*
X131300000Y-140570000D01*
G75*
G02*
X131375000Y-140645000I0J-75000D01*
G01*
X131375000Y-140795000D01*
G75*
G02*
X131300000Y-140870000I-75000J0D01*
G01*
X129850000Y-140870000D01*
G75*
G02*
X129775000Y-140795000I0J75000D01*
G01*
X129775000Y-140645000D01*
G75*
G02*
X129850000Y-140570000I75000J0D01*
G01*
G37*
G36*
G01*
X129850000Y-140070000D02*
X131300000Y-140070000D01*
G75*
G02*
X131375000Y-140145000I0J-75000D01*
G01*
X131375000Y-140295000D01*
G75*
G02*
X131300000Y-140370000I-75000J0D01*
G01*
X129850000Y-140370000D01*
G75*
G02*
X129775000Y-140295000I0J75000D01*
G01*
X129775000Y-140145000D01*
G75*
G02*
X129850000Y-140070000I75000J0D01*
G01*
G37*
G36*
G01*
X129850000Y-139570000D02*
X131300000Y-139570000D01*
G75*
G02*
X131375000Y-139645000I0J-75000D01*
G01*
X131375000Y-139795000D01*
G75*
G02*
X131300000Y-139870000I-75000J0D01*
G01*
X129850000Y-139870000D01*
G75*
G02*
X129775000Y-139795000I0J75000D01*
G01*
X129775000Y-139645000D01*
G75*
G02*
X129850000Y-139570000I75000J0D01*
G01*
G37*
G36*
G01*
X129850000Y-139070000D02*
X131300000Y-139070000D01*
G75*
G02*
X131375000Y-139145000I0J-75000D01*
G01*
X131375000Y-139295000D01*
G75*
G02*
X131300000Y-139370000I-75000J0D01*
G01*
X129850000Y-139370000D01*
G75*
G02*
X129775000Y-139295000I0J75000D01*
G01*
X129775000Y-139145000D01*
G75*
G02*
X129850000Y-139070000I75000J0D01*
G01*
G37*
G36*
G01*
X129850000Y-138570000D02*
X131300000Y-138570000D01*
G75*
G02*
X131375000Y-138645000I0J-75000D01*
G01*
X131375000Y-138795000D01*
G75*
G02*
X131300000Y-138870000I-75000J0D01*
G01*
X129850000Y-138870000D01*
G75*
G02*
X129775000Y-138795000I0J75000D01*
G01*
X129775000Y-138645000D01*
G75*
G02*
X129850000Y-138570000I75000J0D01*
G01*
G37*
G36*
G01*
X129850000Y-138070000D02*
X131300000Y-138070000D01*
G75*
G02*
X131375000Y-138145000I0J-75000D01*
G01*
X131375000Y-138295000D01*
G75*
G02*
X131300000Y-138370000I-75000J0D01*
G01*
X129850000Y-138370000D01*
G75*
G02*
X129775000Y-138295000I0J75000D01*
G01*
X129775000Y-138145000D01*
G75*
G02*
X129850000Y-138070000I75000J0D01*
G01*
G37*
G36*
G01*
X129850000Y-137570000D02*
X131300000Y-137570000D01*
G75*
G02*
X131375000Y-137645000I0J-75000D01*
G01*
X131375000Y-137795000D01*
G75*
G02*
X131300000Y-137870000I-75000J0D01*
G01*
X129850000Y-137870000D01*
G75*
G02*
X129775000Y-137795000I0J75000D01*
G01*
X129775000Y-137645000D01*
G75*
G02*
X129850000Y-137570000I75000J0D01*
G01*
G37*
G36*
G01*
X129850000Y-137070000D02*
X131300000Y-137070000D01*
G75*
G02*
X131375000Y-137145000I0J-75000D01*
G01*
X131375000Y-137295000D01*
G75*
G02*
X131300000Y-137370000I-75000J0D01*
G01*
X129850000Y-137370000D01*
G75*
G02*
X129775000Y-137295000I0J75000D01*
G01*
X129775000Y-137145000D01*
G75*
G02*
X129850000Y-137070000I75000J0D01*
G01*
G37*
G36*
G01*
X129850000Y-136570000D02*
X131300000Y-136570000D01*
G75*
G02*
X131375000Y-136645000I0J-75000D01*
G01*
X131375000Y-136795000D01*
G75*
G02*
X131300000Y-136870000I-75000J0D01*
G01*
X129850000Y-136870000D01*
G75*
G02*
X129775000Y-136795000I0J75000D01*
G01*
X129775000Y-136645000D01*
G75*
G02*
X129850000Y-136570000I75000J0D01*
G01*
G37*
G36*
G01*
X129850000Y-136070000D02*
X131300000Y-136070000D01*
G75*
G02*
X131375000Y-136145000I0J-75000D01*
G01*
X131375000Y-136295000D01*
G75*
G02*
X131300000Y-136370000I-75000J0D01*
G01*
X129850000Y-136370000D01*
G75*
G02*
X129775000Y-136295000I0J75000D01*
G01*
X129775000Y-136145000D01*
G75*
G02*
X129850000Y-136070000I75000J0D01*
G01*
G37*
G36*
G01*
X129850000Y-135570000D02*
X131300000Y-135570000D01*
G75*
G02*
X131375000Y-135645000I0J-75000D01*
G01*
X131375000Y-135795000D01*
G75*
G02*
X131300000Y-135870000I-75000J0D01*
G01*
X129850000Y-135870000D01*
G75*
G02*
X129775000Y-135795000I0J75000D01*
G01*
X129775000Y-135645000D01*
G75*
G02*
X129850000Y-135570000I75000J0D01*
G01*
G37*
G36*
G01*
X129850000Y-135070000D02*
X131300000Y-135070000D01*
G75*
G02*
X131375000Y-135145000I0J-75000D01*
G01*
X131375000Y-135295000D01*
G75*
G02*
X131300000Y-135370000I-75000J0D01*
G01*
X129850000Y-135370000D01*
G75*
G02*
X129775000Y-135295000I0J75000D01*
G01*
X129775000Y-135145000D01*
G75*
G02*
X129850000Y-135070000I75000J0D01*
G01*
G37*
G36*
G01*
X129850000Y-134570000D02*
X131300000Y-134570000D01*
G75*
G02*
X131375000Y-134645000I0J-75000D01*
G01*
X131375000Y-134795000D01*
G75*
G02*
X131300000Y-134870000I-75000J0D01*
G01*
X129850000Y-134870000D01*
G75*
G02*
X129775000Y-134795000I0J75000D01*
G01*
X129775000Y-134645000D01*
G75*
G02*
X129850000Y-134570000I75000J0D01*
G01*
G37*
G36*
G01*
X129850000Y-134070000D02*
X131300000Y-134070000D01*
G75*
G02*
X131375000Y-134145000I0J-75000D01*
G01*
X131375000Y-134295000D01*
G75*
G02*
X131300000Y-134370000I-75000J0D01*
G01*
X129850000Y-134370000D01*
G75*
G02*
X129775000Y-134295000I0J75000D01*
G01*
X129775000Y-134145000D01*
G75*
G02*
X129850000Y-134070000I75000J0D01*
G01*
G37*
G36*
G01*
X129850000Y-133570000D02*
X131300000Y-133570000D01*
G75*
G02*
X131375000Y-133645000I0J-75000D01*
G01*
X131375000Y-133795000D01*
G75*
G02*
X131300000Y-133870000I-75000J0D01*
G01*
X129850000Y-133870000D01*
G75*
G02*
X129775000Y-133795000I0J75000D01*
G01*
X129775000Y-133645000D01*
G75*
G02*
X129850000Y-133570000I75000J0D01*
G01*
G37*
G36*
G01*
X129850000Y-133070000D02*
X131300000Y-133070000D01*
G75*
G02*
X131375000Y-133145000I0J-75000D01*
G01*
X131375000Y-133295000D01*
G75*
G02*
X131300000Y-133370000I-75000J0D01*
G01*
X129850000Y-133370000D01*
G75*
G02*
X129775000Y-133295000I0J75000D01*
G01*
X129775000Y-133145000D01*
G75*
G02*
X129850000Y-133070000I75000J0D01*
G01*
G37*
G36*
G01*
X129850000Y-132570000D02*
X131300000Y-132570000D01*
G75*
G02*
X131375000Y-132645000I0J-75000D01*
G01*
X131375000Y-132795000D01*
G75*
G02*
X131300000Y-132870000I-75000J0D01*
G01*
X129850000Y-132870000D01*
G75*
G02*
X129775000Y-132795000I0J75000D01*
G01*
X129775000Y-132645000D01*
G75*
G02*
X129850000Y-132570000I75000J0D01*
G01*
G37*
G36*
G01*
X129850000Y-132070000D02*
X131300000Y-132070000D01*
G75*
G02*
X131375000Y-132145000I0J-75000D01*
G01*
X131375000Y-132295000D01*
G75*
G02*
X131300000Y-132370000I-75000J0D01*
G01*
X129850000Y-132370000D01*
G75*
G02*
X129775000Y-132295000I0J75000D01*
G01*
X129775000Y-132145000D01*
G75*
G02*
X129850000Y-132070000I75000J0D01*
G01*
G37*
G36*
G01*
X129850000Y-131570000D02*
X131300000Y-131570000D01*
G75*
G02*
X131375000Y-131645000I0J-75000D01*
G01*
X131375000Y-131795000D01*
G75*
G02*
X131300000Y-131870000I-75000J0D01*
G01*
X129850000Y-131870000D01*
G75*
G02*
X129775000Y-131795000I0J75000D01*
G01*
X129775000Y-131645000D01*
G75*
G02*
X129850000Y-131570000I75000J0D01*
G01*
G37*
G36*
G01*
X129850000Y-131070000D02*
X131300000Y-131070000D01*
G75*
G02*
X131375000Y-131145000I0J-75000D01*
G01*
X131375000Y-131295000D01*
G75*
G02*
X131300000Y-131370000I-75000J0D01*
G01*
X129850000Y-131370000D01*
G75*
G02*
X129775000Y-131295000I0J75000D01*
G01*
X129775000Y-131145000D01*
G75*
G02*
X129850000Y-131070000I75000J0D01*
G01*
G37*
G36*
G01*
X129850000Y-130570000D02*
X131300000Y-130570000D01*
G75*
G02*
X131375000Y-130645000I0J-75000D01*
G01*
X131375000Y-130795000D01*
G75*
G02*
X131300000Y-130870000I-75000J0D01*
G01*
X129850000Y-130870000D01*
G75*
G02*
X129775000Y-130795000I0J75000D01*
G01*
X129775000Y-130645000D01*
G75*
G02*
X129850000Y-130570000I75000J0D01*
G01*
G37*
G36*
G01*
X129850000Y-130070000D02*
X131300000Y-130070000D01*
G75*
G02*
X131375000Y-130145000I0J-75000D01*
G01*
X131375000Y-130295000D01*
G75*
G02*
X131300000Y-130370000I-75000J0D01*
G01*
X129850000Y-130370000D01*
G75*
G02*
X129775000Y-130295000I0J75000D01*
G01*
X129775000Y-130145000D01*
G75*
G02*
X129850000Y-130070000I75000J0D01*
G01*
G37*
G36*
G01*
X129850000Y-129570000D02*
X131300000Y-129570000D01*
G75*
G02*
X131375000Y-129645000I0J-75000D01*
G01*
X131375000Y-129795000D01*
G75*
G02*
X131300000Y-129870000I-75000J0D01*
G01*
X129850000Y-129870000D01*
G75*
G02*
X129775000Y-129795000I0J75000D01*
G01*
X129775000Y-129645000D01*
G75*
G02*
X129850000Y-129570000I75000J0D01*
G01*
G37*
G36*
G01*
X129850000Y-129070000D02*
X131300000Y-129070000D01*
G75*
G02*
X131375000Y-129145000I0J-75000D01*
G01*
X131375000Y-129295000D01*
G75*
G02*
X131300000Y-129370000I-75000J0D01*
G01*
X129850000Y-129370000D01*
G75*
G02*
X129775000Y-129295000I0J75000D01*
G01*
X129775000Y-129145000D01*
G75*
G02*
X129850000Y-129070000I75000J0D01*
G01*
G37*
G36*
G01*
X132175000Y-126745000D02*
X132325000Y-126745000D01*
G75*
G02*
X132400000Y-126820000I0J-75000D01*
G01*
X132400000Y-128270000D01*
G75*
G02*
X132325000Y-128345000I-75000J0D01*
G01*
X132175000Y-128345000D01*
G75*
G02*
X132100000Y-128270000I0J75000D01*
G01*
X132100000Y-126820000D01*
G75*
G02*
X132175000Y-126745000I75000J0D01*
G01*
G37*
G36*
G01*
X132675000Y-126745000D02*
X132825000Y-126745000D01*
G75*
G02*
X132900000Y-126820000I0J-75000D01*
G01*
X132900000Y-128270000D01*
G75*
G02*
X132825000Y-128345000I-75000J0D01*
G01*
X132675000Y-128345000D01*
G75*
G02*
X132600000Y-128270000I0J75000D01*
G01*
X132600000Y-126820000D01*
G75*
G02*
X132675000Y-126745000I75000J0D01*
G01*
G37*
G36*
G01*
X133175000Y-126745000D02*
X133325000Y-126745000D01*
G75*
G02*
X133400000Y-126820000I0J-75000D01*
G01*
X133400000Y-128270000D01*
G75*
G02*
X133325000Y-128345000I-75000J0D01*
G01*
X133175000Y-128345000D01*
G75*
G02*
X133100000Y-128270000I0J75000D01*
G01*
X133100000Y-126820000D01*
G75*
G02*
X133175000Y-126745000I75000J0D01*
G01*
G37*
G36*
G01*
X133675000Y-126745000D02*
X133825000Y-126745000D01*
G75*
G02*
X133900000Y-126820000I0J-75000D01*
G01*
X133900000Y-128270000D01*
G75*
G02*
X133825000Y-128345000I-75000J0D01*
G01*
X133675000Y-128345000D01*
G75*
G02*
X133600000Y-128270000I0J75000D01*
G01*
X133600000Y-126820000D01*
G75*
G02*
X133675000Y-126745000I75000J0D01*
G01*
G37*
G36*
G01*
X134175000Y-126745000D02*
X134325000Y-126745000D01*
G75*
G02*
X134400000Y-126820000I0J-75000D01*
G01*
X134400000Y-128270000D01*
G75*
G02*
X134325000Y-128345000I-75000J0D01*
G01*
X134175000Y-128345000D01*
G75*
G02*
X134100000Y-128270000I0J75000D01*
G01*
X134100000Y-126820000D01*
G75*
G02*
X134175000Y-126745000I75000J0D01*
G01*
G37*
G36*
G01*
X134675000Y-126745000D02*
X134825000Y-126745000D01*
G75*
G02*
X134900000Y-126820000I0J-75000D01*
G01*
X134900000Y-128270000D01*
G75*
G02*
X134825000Y-128345000I-75000J0D01*
G01*
X134675000Y-128345000D01*
G75*
G02*
X134600000Y-128270000I0J75000D01*
G01*
X134600000Y-126820000D01*
G75*
G02*
X134675000Y-126745000I75000J0D01*
G01*
G37*
G36*
G01*
X135175000Y-126745000D02*
X135325000Y-126745000D01*
G75*
G02*
X135400000Y-126820000I0J-75000D01*
G01*
X135400000Y-128270000D01*
G75*
G02*
X135325000Y-128345000I-75000J0D01*
G01*
X135175000Y-128345000D01*
G75*
G02*
X135100000Y-128270000I0J75000D01*
G01*
X135100000Y-126820000D01*
G75*
G02*
X135175000Y-126745000I75000J0D01*
G01*
G37*
G36*
G01*
X135675000Y-126745000D02*
X135825000Y-126745000D01*
G75*
G02*
X135900000Y-126820000I0J-75000D01*
G01*
X135900000Y-128270000D01*
G75*
G02*
X135825000Y-128345000I-75000J0D01*
G01*
X135675000Y-128345000D01*
G75*
G02*
X135600000Y-128270000I0J75000D01*
G01*
X135600000Y-126820000D01*
G75*
G02*
X135675000Y-126745000I75000J0D01*
G01*
G37*
G36*
G01*
X136175000Y-126745000D02*
X136325000Y-126745000D01*
G75*
G02*
X136400000Y-126820000I0J-75000D01*
G01*
X136400000Y-128270000D01*
G75*
G02*
X136325000Y-128345000I-75000J0D01*
G01*
X136175000Y-128345000D01*
G75*
G02*
X136100000Y-128270000I0J75000D01*
G01*
X136100000Y-126820000D01*
G75*
G02*
X136175000Y-126745000I75000J0D01*
G01*
G37*
G36*
G01*
X136675000Y-126745000D02*
X136825000Y-126745000D01*
G75*
G02*
X136900000Y-126820000I0J-75000D01*
G01*
X136900000Y-128270000D01*
G75*
G02*
X136825000Y-128345000I-75000J0D01*
G01*
X136675000Y-128345000D01*
G75*
G02*
X136600000Y-128270000I0J75000D01*
G01*
X136600000Y-126820000D01*
G75*
G02*
X136675000Y-126745000I75000J0D01*
G01*
G37*
G36*
G01*
X137175000Y-126745000D02*
X137325000Y-126745000D01*
G75*
G02*
X137400000Y-126820000I0J-75000D01*
G01*
X137400000Y-128270000D01*
G75*
G02*
X137325000Y-128345000I-75000J0D01*
G01*
X137175000Y-128345000D01*
G75*
G02*
X137100000Y-128270000I0J75000D01*
G01*
X137100000Y-126820000D01*
G75*
G02*
X137175000Y-126745000I75000J0D01*
G01*
G37*
G36*
G01*
X137675000Y-126745000D02*
X137825000Y-126745000D01*
G75*
G02*
X137900000Y-126820000I0J-75000D01*
G01*
X137900000Y-128270000D01*
G75*
G02*
X137825000Y-128345000I-75000J0D01*
G01*
X137675000Y-128345000D01*
G75*
G02*
X137600000Y-128270000I0J75000D01*
G01*
X137600000Y-126820000D01*
G75*
G02*
X137675000Y-126745000I75000J0D01*
G01*
G37*
G36*
G01*
X138175000Y-126745000D02*
X138325000Y-126745000D01*
G75*
G02*
X138400000Y-126820000I0J-75000D01*
G01*
X138400000Y-128270000D01*
G75*
G02*
X138325000Y-128345000I-75000J0D01*
G01*
X138175000Y-128345000D01*
G75*
G02*
X138100000Y-128270000I0J75000D01*
G01*
X138100000Y-126820000D01*
G75*
G02*
X138175000Y-126745000I75000J0D01*
G01*
G37*
G36*
G01*
X138675000Y-126745000D02*
X138825000Y-126745000D01*
G75*
G02*
X138900000Y-126820000I0J-75000D01*
G01*
X138900000Y-128270000D01*
G75*
G02*
X138825000Y-128345000I-75000J0D01*
G01*
X138675000Y-128345000D01*
G75*
G02*
X138600000Y-128270000I0J75000D01*
G01*
X138600000Y-126820000D01*
G75*
G02*
X138675000Y-126745000I75000J0D01*
G01*
G37*
G36*
G01*
X139175000Y-126745000D02*
X139325000Y-126745000D01*
G75*
G02*
X139400000Y-126820000I0J-75000D01*
G01*
X139400000Y-128270000D01*
G75*
G02*
X139325000Y-128345000I-75000J0D01*
G01*
X139175000Y-128345000D01*
G75*
G02*
X139100000Y-128270000I0J75000D01*
G01*
X139100000Y-126820000D01*
G75*
G02*
X139175000Y-126745000I75000J0D01*
G01*
G37*
G36*
G01*
X139675000Y-126745000D02*
X139825000Y-126745000D01*
G75*
G02*
X139900000Y-126820000I0J-75000D01*
G01*
X139900000Y-128270000D01*
G75*
G02*
X139825000Y-128345000I-75000J0D01*
G01*
X139675000Y-128345000D01*
G75*
G02*
X139600000Y-128270000I0J75000D01*
G01*
X139600000Y-126820000D01*
G75*
G02*
X139675000Y-126745000I75000J0D01*
G01*
G37*
G36*
G01*
X140175000Y-126745000D02*
X140325000Y-126745000D01*
G75*
G02*
X140400000Y-126820000I0J-75000D01*
G01*
X140400000Y-128270000D01*
G75*
G02*
X140325000Y-128345000I-75000J0D01*
G01*
X140175000Y-128345000D01*
G75*
G02*
X140100000Y-128270000I0J75000D01*
G01*
X140100000Y-126820000D01*
G75*
G02*
X140175000Y-126745000I75000J0D01*
G01*
G37*
G36*
G01*
X140675000Y-126745000D02*
X140825000Y-126745000D01*
G75*
G02*
X140900000Y-126820000I0J-75000D01*
G01*
X140900000Y-128270000D01*
G75*
G02*
X140825000Y-128345000I-75000J0D01*
G01*
X140675000Y-128345000D01*
G75*
G02*
X140600000Y-128270000I0J75000D01*
G01*
X140600000Y-126820000D01*
G75*
G02*
X140675000Y-126745000I75000J0D01*
G01*
G37*
G36*
G01*
X141175000Y-126745000D02*
X141325000Y-126745000D01*
G75*
G02*
X141400000Y-126820000I0J-75000D01*
G01*
X141400000Y-128270000D01*
G75*
G02*
X141325000Y-128345000I-75000J0D01*
G01*
X141175000Y-128345000D01*
G75*
G02*
X141100000Y-128270000I0J75000D01*
G01*
X141100000Y-126820000D01*
G75*
G02*
X141175000Y-126745000I75000J0D01*
G01*
G37*
G36*
G01*
X141675000Y-126745000D02*
X141825000Y-126745000D01*
G75*
G02*
X141900000Y-126820000I0J-75000D01*
G01*
X141900000Y-128270000D01*
G75*
G02*
X141825000Y-128345000I-75000J0D01*
G01*
X141675000Y-128345000D01*
G75*
G02*
X141600000Y-128270000I0J75000D01*
G01*
X141600000Y-126820000D01*
G75*
G02*
X141675000Y-126745000I75000J0D01*
G01*
G37*
G36*
G01*
X142175000Y-126745000D02*
X142325000Y-126745000D01*
G75*
G02*
X142400000Y-126820000I0J-75000D01*
G01*
X142400000Y-128270000D01*
G75*
G02*
X142325000Y-128345000I-75000J0D01*
G01*
X142175000Y-128345000D01*
G75*
G02*
X142100000Y-128270000I0J75000D01*
G01*
X142100000Y-126820000D01*
G75*
G02*
X142175000Y-126745000I75000J0D01*
G01*
G37*
G36*
G01*
X142675000Y-126745000D02*
X142825000Y-126745000D01*
G75*
G02*
X142900000Y-126820000I0J-75000D01*
G01*
X142900000Y-128270000D01*
G75*
G02*
X142825000Y-128345000I-75000J0D01*
G01*
X142675000Y-128345000D01*
G75*
G02*
X142600000Y-128270000I0J75000D01*
G01*
X142600000Y-126820000D01*
G75*
G02*
X142675000Y-126745000I75000J0D01*
G01*
G37*
G36*
G01*
X143175000Y-126745000D02*
X143325000Y-126745000D01*
G75*
G02*
X143400000Y-126820000I0J-75000D01*
G01*
X143400000Y-128270000D01*
G75*
G02*
X143325000Y-128345000I-75000J0D01*
G01*
X143175000Y-128345000D01*
G75*
G02*
X143100000Y-128270000I0J75000D01*
G01*
X143100000Y-126820000D01*
G75*
G02*
X143175000Y-126745000I75000J0D01*
G01*
G37*
G36*
G01*
X143675000Y-126745000D02*
X143825000Y-126745000D01*
G75*
G02*
X143900000Y-126820000I0J-75000D01*
G01*
X143900000Y-128270000D01*
G75*
G02*
X143825000Y-128345000I-75000J0D01*
G01*
X143675000Y-128345000D01*
G75*
G02*
X143600000Y-128270000I0J75000D01*
G01*
X143600000Y-126820000D01*
G75*
G02*
X143675000Y-126745000I75000J0D01*
G01*
G37*
G36*
G01*
X144175000Y-126745000D02*
X144325000Y-126745000D01*
G75*
G02*
X144400000Y-126820000I0J-75000D01*
G01*
X144400000Y-128270000D01*
G75*
G02*
X144325000Y-128345000I-75000J0D01*
G01*
X144175000Y-128345000D01*
G75*
G02*
X144100000Y-128270000I0J75000D01*
G01*
X144100000Y-126820000D01*
G75*
G02*
X144175000Y-126745000I75000J0D01*
G01*
G37*
D18*
X282630000Y-125010000D03*
X285680000Y-125110000D03*
X288730000Y-125010000D03*
G36*
G01*
X239460000Y-104260001D02*
X239460000Y-103359999D01*
G75*
G02*
X239709999Y-103110000I249999J0D01*
G01*
X240235001Y-103110000D01*
G75*
G02*
X240485000Y-103359999I0J-249999D01*
G01*
X240485000Y-104260001D01*
G75*
G02*
X240235001Y-104510000I-249999J0D01*
G01*
X239709999Y-104510000D01*
G75*
G02*
X239460000Y-104260001I0J249999D01*
G01*
G37*
G36*
G01*
X237635000Y-104260001D02*
X237635000Y-103359999D01*
G75*
G02*
X237884999Y-103110000I249999J0D01*
G01*
X238410001Y-103110000D01*
G75*
G02*
X238660000Y-103359999I0J-249999D01*
G01*
X238660000Y-104260001D01*
G75*
G02*
X238410001Y-104510000I-249999J0D01*
G01*
X237884999Y-104510000D01*
G75*
G02*
X237635000Y-104260001I0J249999D01*
G01*
G37*
G36*
G01*
X233740000Y-116700001D02*
X233740000Y-115799999D01*
G75*
G02*
X233989999Y-115550000I249999J0D01*
G01*
X234515001Y-115550000D01*
G75*
G02*
X234765000Y-115799999I0J-249999D01*
G01*
X234765000Y-116700001D01*
G75*
G02*
X234515001Y-116950000I-249999J0D01*
G01*
X233989999Y-116950000D01*
G75*
G02*
X233740000Y-116700001I0J249999D01*
G01*
G37*
G36*
G01*
X231915000Y-116700001D02*
X231915000Y-115799999D01*
G75*
G02*
X232164999Y-115550000I249999J0D01*
G01*
X232690001Y-115550000D01*
G75*
G02*
X232940000Y-115799999I0J-249999D01*
G01*
X232940000Y-116700001D01*
G75*
G02*
X232690001Y-116950000I-249999J0D01*
G01*
X232164999Y-116950000D01*
G75*
G02*
X231915000Y-116700001I0J249999D01*
G01*
G37*
G36*
G01*
X204890000Y-121770001D02*
X204890000Y-120869999D01*
G75*
G02*
X205139999Y-120620000I249999J0D01*
G01*
X205665001Y-120620000D01*
G75*
G02*
X205915000Y-120869999I0J-249999D01*
G01*
X205915000Y-121770001D01*
G75*
G02*
X205665001Y-122020000I-249999J0D01*
G01*
X205139999Y-122020000D01*
G75*
G02*
X204890000Y-121770001I0J249999D01*
G01*
G37*
G36*
G01*
X203065000Y-121770001D02*
X203065000Y-120869999D01*
G75*
G02*
X203314999Y-120620000I249999J0D01*
G01*
X203840001Y-120620000D01*
G75*
G02*
X204090000Y-120869999I0J-249999D01*
G01*
X204090000Y-121770001D01*
G75*
G02*
X203840001Y-122020000I-249999J0D01*
G01*
X203314999Y-122020000D01*
G75*
G02*
X203065000Y-121770001I0J249999D01*
G01*
G37*
G36*
G01*
X209300000Y-121770001D02*
X209300000Y-120869999D01*
G75*
G02*
X209549999Y-120620000I249999J0D01*
G01*
X210075001Y-120620000D01*
G75*
G02*
X210325000Y-120869999I0J-249999D01*
G01*
X210325000Y-121770001D01*
G75*
G02*
X210075001Y-122020000I-249999J0D01*
G01*
X209549999Y-122020000D01*
G75*
G02*
X209300000Y-121770001I0J249999D01*
G01*
G37*
G36*
G01*
X207475000Y-121770001D02*
X207475000Y-120869999D01*
G75*
G02*
X207724999Y-120620000I249999J0D01*
G01*
X208250001Y-120620000D01*
G75*
G02*
X208500000Y-120869999I0J-249999D01*
G01*
X208500000Y-121770001D01*
G75*
G02*
X208250001Y-122020000I-249999J0D01*
G01*
X207724999Y-122020000D01*
G75*
G02*
X207475000Y-121770001I0J249999D01*
G01*
G37*
G36*
G01*
X247910000Y-97810001D02*
X247910000Y-96909999D01*
G75*
G02*
X248159999Y-96660000I249999J0D01*
G01*
X248685001Y-96660000D01*
G75*
G02*
X248935000Y-96909999I0J-249999D01*
G01*
X248935000Y-97810001D01*
G75*
G02*
X248685001Y-98060000I-249999J0D01*
G01*
X248159999Y-98060000D01*
G75*
G02*
X247910000Y-97810001I0J249999D01*
G01*
G37*
G36*
G01*
X246085000Y-97810001D02*
X246085000Y-96909999D01*
G75*
G02*
X246334999Y-96660000I249999J0D01*
G01*
X246860001Y-96660000D01*
G75*
G02*
X247110000Y-96909999I0J-249999D01*
G01*
X247110000Y-97810001D01*
G75*
G02*
X246860001Y-98060000I-249999J0D01*
G01*
X246334999Y-98060000D01*
G75*
G02*
X246085000Y-97810001I0J249999D01*
G01*
G37*
G36*
G01*
X259850000Y-143180001D02*
X259850000Y-142279999D01*
G75*
G02*
X260099999Y-142030000I249999J0D01*
G01*
X260625001Y-142030000D01*
G75*
G02*
X260875000Y-142279999I0J-249999D01*
G01*
X260875000Y-143180001D01*
G75*
G02*
X260625001Y-143430000I-249999J0D01*
G01*
X260099999Y-143430000D01*
G75*
G02*
X259850000Y-143180001I0J249999D01*
G01*
G37*
G36*
G01*
X258025000Y-143180001D02*
X258025000Y-142279999D01*
G75*
G02*
X258274999Y-142030000I249999J0D01*
G01*
X258800001Y-142030000D01*
G75*
G02*
X259050000Y-142279999I0J-249999D01*
G01*
X259050000Y-143180001D01*
G75*
G02*
X258800001Y-143430000I-249999J0D01*
G01*
X258274999Y-143430000D01*
G75*
G02*
X258025000Y-143180001I0J249999D01*
G01*
G37*
G36*
G01*
X255800000Y-146130001D02*
X255800000Y-145229999D01*
G75*
G02*
X256049999Y-144980000I249999J0D01*
G01*
X256575001Y-144980000D01*
G75*
G02*
X256825000Y-145229999I0J-249999D01*
G01*
X256825000Y-146130001D01*
G75*
G02*
X256575001Y-146380000I-249999J0D01*
G01*
X256049999Y-146380000D01*
G75*
G02*
X255800000Y-146130001I0J249999D01*
G01*
G37*
G36*
G01*
X253975000Y-146130001D02*
X253975000Y-145229999D01*
G75*
G02*
X254224999Y-144980000I249999J0D01*
G01*
X254750001Y-144980000D01*
G75*
G02*
X255000000Y-145229999I0J-249999D01*
G01*
X255000000Y-146130001D01*
G75*
G02*
X254750001Y-146380000I-249999J0D01*
G01*
X254224999Y-146380000D01*
G75*
G02*
X253975000Y-146130001I0J249999D01*
G01*
G37*
G36*
G01*
X264300000Y-140170001D02*
X264300000Y-139269999D01*
G75*
G02*
X264549999Y-139020000I249999J0D01*
G01*
X265075001Y-139020000D01*
G75*
G02*
X265325000Y-139269999I0J-249999D01*
G01*
X265325000Y-140170001D01*
G75*
G02*
X265075001Y-140420000I-249999J0D01*
G01*
X264549999Y-140420000D01*
G75*
G02*
X264300000Y-140170001I0J249999D01*
G01*
G37*
G36*
G01*
X262475000Y-140170001D02*
X262475000Y-139269999D01*
G75*
G02*
X262724999Y-139020000I249999J0D01*
G01*
X263250001Y-139020000D01*
G75*
G02*
X263500000Y-139269999I0J-249999D01*
G01*
X263500000Y-140170001D01*
G75*
G02*
X263250001Y-140420000I-249999J0D01*
G01*
X262724999Y-140420000D01*
G75*
G02*
X262475000Y-140170001I0J249999D01*
G01*
G37*
G36*
G01*
X271200000Y-131830001D02*
X271200000Y-130929999D01*
G75*
G02*
X271449999Y-130680000I249999J0D01*
G01*
X271975001Y-130680000D01*
G75*
G02*
X272225000Y-130929999I0J-249999D01*
G01*
X272225000Y-131830001D01*
G75*
G02*
X271975001Y-132080000I-249999J0D01*
G01*
X271449999Y-132080000D01*
G75*
G02*
X271200000Y-131830001I0J249999D01*
G01*
G37*
G36*
G01*
X269375000Y-131830001D02*
X269375000Y-130929999D01*
G75*
G02*
X269624999Y-130680000I249999J0D01*
G01*
X270150001Y-130680000D01*
G75*
G02*
X270400000Y-130929999I0J-249999D01*
G01*
X270400000Y-131830001D01*
G75*
G02*
X270150001Y-132080000I-249999J0D01*
G01*
X269624999Y-132080000D01*
G75*
G02*
X269375000Y-131830001I0J249999D01*
G01*
G37*
G36*
G01*
X275650000Y-128820001D02*
X275650000Y-127919999D01*
G75*
G02*
X275899999Y-127670000I249999J0D01*
G01*
X276425001Y-127670000D01*
G75*
G02*
X276675000Y-127919999I0J-249999D01*
G01*
X276675000Y-128820001D01*
G75*
G02*
X276425001Y-129070000I-249999J0D01*
G01*
X275899999Y-129070000D01*
G75*
G02*
X275650000Y-128820001I0J249999D01*
G01*
G37*
G36*
G01*
X273825000Y-128820001D02*
X273825000Y-127919999D01*
G75*
G02*
X274074999Y-127670000I249999J0D01*
G01*
X274600001Y-127670000D01*
G75*
G02*
X274850000Y-127919999I0J-249999D01*
G01*
X274850000Y-128820001D01*
G75*
G02*
X274600001Y-129070000I-249999J0D01*
G01*
X274074999Y-129070000D01*
G75*
G02*
X273825000Y-128820001I0J249999D01*
G01*
G37*
G36*
G01*
X224130000Y-143070001D02*
X224130000Y-142169999D01*
G75*
G02*
X224379999Y-141920000I249999J0D01*
G01*
X224905001Y-141920000D01*
G75*
G02*
X225155000Y-142169999I0J-249999D01*
G01*
X225155000Y-143070001D01*
G75*
G02*
X224905001Y-143320000I-249999J0D01*
G01*
X224379999Y-143320000D01*
G75*
G02*
X224130000Y-143070001I0J249999D01*
G01*
G37*
G36*
G01*
X222305000Y-143070001D02*
X222305000Y-142169999D01*
G75*
G02*
X222554999Y-141920000I249999J0D01*
G01*
X223080001Y-141920000D01*
G75*
G02*
X223330000Y-142169999I0J-249999D01*
G01*
X223330000Y-143070001D01*
G75*
G02*
X223080001Y-143320000I-249999J0D01*
G01*
X222554999Y-143320000D01*
G75*
G02*
X222305000Y-143070001I0J249999D01*
G01*
G37*
G36*
G01*
X207940000Y-152220001D02*
X207940000Y-151319999D01*
G75*
G02*
X208189999Y-151070000I249999J0D01*
G01*
X208715001Y-151070000D01*
G75*
G02*
X208965000Y-151319999I0J-249999D01*
G01*
X208965000Y-152220001D01*
G75*
G02*
X208715001Y-152470000I-249999J0D01*
G01*
X208189999Y-152470000D01*
G75*
G02*
X207940000Y-152220001I0J249999D01*
G01*
G37*
G36*
G01*
X206115000Y-152220001D02*
X206115000Y-151319999D01*
G75*
G02*
X206364999Y-151070000I249999J0D01*
G01*
X206890001Y-151070000D01*
G75*
G02*
X207140000Y-151319999I0J-249999D01*
G01*
X207140000Y-152220001D01*
G75*
G02*
X206890001Y-152470000I-249999J0D01*
G01*
X206364999Y-152470000D01*
G75*
G02*
X206115000Y-152220001I0J249999D01*
G01*
G37*
G36*
G01*
X283030000Y-109040001D02*
X283030000Y-108139999D01*
G75*
G02*
X283279999Y-107890000I249999J0D01*
G01*
X283805001Y-107890000D01*
G75*
G02*
X284055000Y-108139999I0J-249999D01*
G01*
X284055000Y-109040001D01*
G75*
G02*
X283805001Y-109290000I-249999J0D01*
G01*
X283279999Y-109290000D01*
G75*
G02*
X283030000Y-109040001I0J249999D01*
G01*
G37*
G36*
G01*
X281205000Y-109040001D02*
X281205000Y-108139999D01*
G75*
G02*
X281454999Y-107890000I249999J0D01*
G01*
X281980001Y-107890000D01*
G75*
G02*
X282230000Y-108139999I0J-249999D01*
G01*
X282230000Y-109040001D01*
G75*
G02*
X281980001Y-109290000I-249999J0D01*
G01*
X281454999Y-109290000D01*
G75*
G02*
X281205000Y-109040001I0J249999D01*
G01*
G37*
G36*
G01*
X287480000Y-105040001D02*
X287480000Y-104139999D01*
G75*
G02*
X287729999Y-103890000I249999J0D01*
G01*
X288255001Y-103890000D01*
G75*
G02*
X288505000Y-104139999I0J-249999D01*
G01*
X288505000Y-105040001D01*
G75*
G02*
X288255001Y-105290000I-249999J0D01*
G01*
X287729999Y-105290000D01*
G75*
G02*
X287480000Y-105040001I0J249999D01*
G01*
G37*
G36*
G01*
X285655000Y-105040001D02*
X285655000Y-104139999D01*
G75*
G02*
X285904999Y-103890000I249999J0D01*
G01*
X286430001Y-103890000D01*
G75*
G02*
X286680000Y-104139999I0J-249999D01*
G01*
X286680000Y-105040001D01*
G75*
G02*
X286430001Y-105290000I-249999J0D01*
G01*
X285904999Y-105290000D01*
G75*
G02*
X285655000Y-105040001I0J249999D01*
G01*
G37*
D19*
X220675000Y-100840000D03*
X220675000Y-98300000D03*
X220675000Y-95760000D03*
X218135000Y-100840000D03*
X218135000Y-98300000D03*
G36*
G01*
X217285000Y-96360000D02*
X217285000Y-95160000D01*
G75*
G02*
X217535000Y-94910000I250000J0D01*
G01*
X218735000Y-94910000D01*
G75*
G02*
X218985000Y-95160000I0J-250000D01*
G01*
X218985000Y-96360000D01*
G75*
G02*
X218735000Y-96610000I-250000J0D01*
G01*
X217535000Y-96610000D01*
G75*
G02*
X217285000Y-96360000I0J250000D01*
G01*
G37*
D20*
X218810000Y-118150000D03*
G36*
G01*
X215460000Y-118900000D02*
X215460000Y-117400000D01*
G75*
G02*
X215710000Y-117150000I250000J0D01*
G01*
X216910000Y-117150000D01*
G75*
G02*
X217160000Y-117400000I0J-250000D01*
G01*
X217160000Y-118900000D01*
G75*
G02*
X216910000Y-119150000I-250000J0D01*
G01*
X215710000Y-119150000D01*
G75*
G02*
X215460000Y-118900000I0J250000D01*
G01*
G37*
G36*
G01*
X228910000Y-117350001D02*
X228910000Y-116049999D01*
G75*
G02*
X229159999Y-115800000I249999J0D01*
G01*
X229860001Y-115800000D01*
G75*
G02*
X230110000Y-116049999I0J-249999D01*
G01*
X230110000Y-117350001D01*
G75*
G02*
X229860001Y-117600000I-249999J0D01*
G01*
X229159999Y-117600000D01*
G75*
G02*
X228910000Y-117350001I0J249999D01*
G01*
G37*
G36*
G01*
X223310000Y-117350001D02*
X223310000Y-116049999D01*
G75*
G02*
X223559999Y-115800000I249999J0D01*
G01*
X224260001Y-115800000D01*
G75*
G02*
X224510000Y-116049999I0J-249999D01*
G01*
X224510000Y-117350001D01*
G75*
G02*
X224260001Y-117600000I-249999J0D01*
G01*
X223559999Y-117600000D01*
G75*
G02*
X223310000Y-117350001I0J249999D01*
G01*
G37*
G36*
G01*
X227910000Y-119850000D02*
X227910000Y-118600000D01*
G75*
G02*
X228060000Y-118450000I150000J0D01*
G01*
X228360000Y-118450000D01*
G75*
G02*
X228510000Y-118600000I0J-150000D01*
G01*
X228510000Y-119850000D01*
G75*
G02*
X228360000Y-120000000I-150000J0D01*
G01*
X228060000Y-120000000D01*
G75*
G02*
X227910000Y-119850000I0J150000D01*
G01*
G37*
G36*
G01*
X226910000Y-119850000D02*
X226910000Y-118600000D01*
G75*
G02*
X227060000Y-118450000I150000J0D01*
G01*
X227360000Y-118450000D01*
G75*
G02*
X227510000Y-118600000I0J-150000D01*
G01*
X227510000Y-119850000D01*
G75*
G02*
X227360000Y-120000000I-150000J0D01*
G01*
X227060000Y-120000000D01*
G75*
G02*
X226910000Y-119850000I0J150000D01*
G01*
G37*
G36*
G01*
X225910000Y-119850000D02*
X225910000Y-118600000D01*
G75*
G02*
X226060000Y-118450000I150000J0D01*
G01*
X226360000Y-118450000D01*
G75*
G02*
X226510000Y-118600000I0J-150000D01*
G01*
X226510000Y-119850000D01*
G75*
G02*
X226360000Y-120000000I-150000J0D01*
G01*
X226060000Y-120000000D01*
G75*
G02*
X225910000Y-119850000I0J150000D01*
G01*
G37*
G36*
G01*
X224910000Y-119850000D02*
X224910000Y-118600000D01*
G75*
G02*
X225060000Y-118450000I150000J0D01*
G01*
X225360000Y-118450000D01*
G75*
G02*
X225510000Y-118600000I0J-150000D01*
G01*
X225510000Y-119850000D01*
G75*
G02*
X225360000Y-120000000I-150000J0D01*
G01*
X225060000Y-120000000D01*
G75*
G02*
X224910000Y-119850000I0J150000D01*
G01*
G37*
D19*
X208695000Y-105920000D03*
X208695000Y-103380000D03*
X208695000Y-100840000D03*
X208695000Y-98300000D03*
X208695000Y-95760000D03*
X206155000Y-105920000D03*
X206155000Y-103380000D03*
X206155000Y-100840000D03*
X206155000Y-98300000D03*
G36*
G01*
X205305000Y-96360000D02*
X205305000Y-95160000D01*
G75*
G02*
X205555000Y-94910000I250000J0D01*
G01*
X206755000Y-94910000D01*
G75*
G02*
X207005000Y-95160000I0J-250000D01*
G01*
X207005000Y-96360000D01*
G75*
G02*
X206755000Y-96610000I-250000J0D01*
G01*
X205555000Y-96610000D01*
G75*
G02*
X205305000Y-96360000I0J250000D01*
G01*
G37*
G36*
G01*
X243480000Y-92210001D02*
X243480000Y-90909999D01*
G75*
G02*
X243729999Y-90660000I249999J0D01*
G01*
X244430001Y-90660000D01*
G75*
G02*
X244680000Y-90909999I0J-249999D01*
G01*
X244680000Y-92210001D01*
G75*
G02*
X244430001Y-92460000I-249999J0D01*
G01*
X243729999Y-92460000D01*
G75*
G02*
X243480000Y-92210001I0J249999D01*
G01*
G37*
G36*
G01*
X237880000Y-92210001D02*
X237880000Y-90909999D01*
G75*
G02*
X238129999Y-90660000I249999J0D01*
G01*
X238830001Y-90660000D01*
G75*
G02*
X239080000Y-90909999I0J-249999D01*
G01*
X239080000Y-92210001D01*
G75*
G02*
X238830001Y-92460000I-249999J0D01*
G01*
X238129999Y-92460000D01*
G75*
G02*
X237880000Y-92210001I0J249999D01*
G01*
G37*
G36*
G01*
X242480000Y-94710000D02*
X242480000Y-93460000D01*
G75*
G02*
X242630000Y-93310000I150000J0D01*
G01*
X242930000Y-93310000D01*
G75*
G02*
X243080000Y-93460000I0J-150000D01*
G01*
X243080000Y-94710000D01*
G75*
G02*
X242930000Y-94860000I-150000J0D01*
G01*
X242630000Y-94860000D01*
G75*
G02*
X242480000Y-94710000I0J150000D01*
G01*
G37*
G36*
G01*
X241480000Y-94710000D02*
X241480000Y-93460000D01*
G75*
G02*
X241630000Y-93310000I150000J0D01*
G01*
X241930000Y-93310000D01*
G75*
G02*
X242080000Y-93460000I0J-150000D01*
G01*
X242080000Y-94710000D01*
G75*
G02*
X241930000Y-94860000I-150000J0D01*
G01*
X241630000Y-94860000D01*
G75*
G02*
X241480000Y-94710000I0J150000D01*
G01*
G37*
G36*
G01*
X240480000Y-94710000D02*
X240480000Y-93460000D01*
G75*
G02*
X240630000Y-93310000I150000J0D01*
G01*
X240930000Y-93310000D01*
G75*
G02*
X241080000Y-93460000I0J-150000D01*
G01*
X241080000Y-94710000D01*
G75*
G02*
X240930000Y-94860000I-150000J0D01*
G01*
X240630000Y-94860000D01*
G75*
G02*
X240480000Y-94710000I0J150000D01*
G01*
G37*
G36*
G01*
X239480000Y-94710000D02*
X239480000Y-93460000D01*
G75*
G02*
X239630000Y-93310000I150000J0D01*
G01*
X239930000Y-93310000D01*
G75*
G02*
X240080000Y-93460000I0J-150000D01*
G01*
X240080000Y-94710000D01*
G75*
G02*
X239930000Y-94860000I-150000J0D01*
G01*
X239630000Y-94860000D01*
G75*
G02*
X239480000Y-94710000I0J150000D01*
G01*
G37*
X196715000Y-105920000D03*
X196715000Y-103380000D03*
X196715000Y-100840000D03*
X196715000Y-98300000D03*
X196715000Y-95760000D03*
X194175000Y-105920000D03*
X194175000Y-103380000D03*
X194175000Y-100840000D03*
X194175000Y-98300000D03*
G36*
G01*
X193325000Y-96360000D02*
X193325000Y-95160000D01*
G75*
G02*
X193575000Y-94910000I250000J0D01*
G01*
X194775000Y-94910000D01*
G75*
G02*
X195025000Y-95160000I0J-250000D01*
G01*
X195025000Y-96360000D01*
G75*
G02*
X194775000Y-96610000I-250000J0D01*
G01*
X193575000Y-96610000D01*
G75*
G02*
X193325000Y-96360000I0J250000D01*
G01*
G37*
D21*
X233320000Y-110350000D03*
X230820000Y-110350000D03*
G36*
G01*
X227470000Y-111075000D02*
X227470000Y-109625000D01*
G75*
G02*
X227720000Y-109375000I250000J0D01*
G01*
X228920000Y-109375000D01*
G75*
G02*
X229170000Y-109625000I0J-250000D01*
G01*
X229170000Y-111075000D01*
G75*
G02*
X228920000Y-111325000I-250000J0D01*
G01*
X227720000Y-111325000D01*
G75*
G02*
X227470000Y-111075000I0J250000D01*
G01*
G37*
X221370000Y-110350000D03*
X218870000Y-110350000D03*
G36*
G01*
X215520000Y-111075000D02*
X215520000Y-109625000D01*
G75*
G02*
X215770000Y-109375000I250000J0D01*
G01*
X216970000Y-109375000D01*
G75*
G02*
X217220000Y-109625000I0J-250000D01*
G01*
X217220000Y-111075000D01*
G75*
G02*
X216970000Y-111325000I-250000J0D01*
G01*
X215770000Y-111325000D01*
G75*
G02*
X215520000Y-111075000I0J250000D01*
G01*
G37*
X209360000Y-115420000D03*
X206860000Y-115420000D03*
G36*
G01*
X203510000Y-116145000D02*
X203510000Y-114695000D01*
G75*
G02*
X203760000Y-114445000I250000J0D01*
G01*
X204960000Y-114445000D01*
G75*
G02*
X205210000Y-114695000I0J-250000D01*
G01*
X205210000Y-116145000D01*
G75*
G02*
X204960000Y-116395000I-250000J0D01*
G01*
X203760000Y-116395000D01*
G75*
G02*
X203510000Y-116145000I0J250000D01*
G01*
G37*
X197410000Y-115420000D03*
X194910000Y-115420000D03*
G36*
G01*
X191560000Y-116145000D02*
X191560000Y-114695000D01*
G75*
G02*
X191810000Y-114445000I250000J0D01*
G01*
X193010000Y-114445000D01*
G75*
G02*
X193260000Y-114695000I0J-250000D01*
G01*
X193260000Y-116145000D01*
G75*
G02*
X193010000Y-116395000I-250000J0D01*
G01*
X191810000Y-116395000D01*
G75*
G02*
X191560000Y-116145000I0J250000D01*
G01*
G37*
D19*
X232655000Y-100840000D03*
X232655000Y-98300000D03*
X232655000Y-95760000D03*
X230115000Y-100840000D03*
X230115000Y-98300000D03*
G36*
G01*
X229265000Y-96360000D02*
X229265000Y-95160000D01*
G75*
G02*
X229515000Y-94910000I250000J0D01*
G01*
X230715000Y-94910000D01*
G75*
G02*
X230965000Y-95160000I0J-250000D01*
G01*
X230965000Y-96360000D01*
G75*
G02*
X230715000Y-96610000I-250000J0D01*
G01*
X229515000Y-96610000D01*
G75*
G02*
X229265000Y-96360000I0J250000D01*
G01*
G37*
D20*
X218810000Y-148280000D03*
G36*
G01*
X215460000Y-149030000D02*
X215460000Y-147530000D01*
G75*
G02*
X215710000Y-147280000I250000J0D01*
G01*
X216910000Y-147280000D01*
G75*
G02*
X217160000Y-147530000I0J-250000D01*
G01*
X217160000Y-149030000D01*
G75*
G02*
X216910000Y-149280000I-250000J0D01*
G01*
X215710000Y-149280000D01*
G75*
G02*
X215460000Y-149030000I0J250000D01*
G01*
G37*
X231000000Y-130270000D03*
G36*
G01*
X227650000Y-131020000D02*
X227650000Y-129520000D01*
G75*
G02*
X227900000Y-129270000I250000J0D01*
G01*
X229100000Y-129270000D01*
G75*
G02*
X229350000Y-129520000I0J-250000D01*
G01*
X229350000Y-131020000D01*
G75*
G02*
X229100000Y-131270000I-250000J0D01*
G01*
X227900000Y-131270000D01*
G75*
G02*
X227650000Y-131020000I0J250000D01*
G01*
G37*
D21*
X209360000Y-145870000D03*
X206860000Y-145870000D03*
G36*
G01*
X203510000Y-146595000D02*
X203510000Y-145145000D01*
G75*
G02*
X203760000Y-144895000I250000J0D01*
G01*
X204960000Y-144895000D01*
G75*
G02*
X205210000Y-145145000I0J-250000D01*
G01*
X205210000Y-146595000D01*
G75*
G02*
X204960000Y-146845000I-250000J0D01*
G01*
X203760000Y-146845000D01*
G75*
G02*
X203510000Y-146595000I0J250000D01*
G01*
G37*
X221550000Y-130270000D03*
X219050000Y-130270000D03*
G36*
G01*
X215700000Y-130995000D02*
X215700000Y-129545000D01*
G75*
G02*
X215950000Y-129295000I250000J0D01*
G01*
X217150000Y-129295000D01*
G75*
G02*
X217400000Y-129545000I0J-250000D01*
G01*
X217400000Y-130995000D01*
G75*
G02*
X217150000Y-131245000I-250000J0D01*
G01*
X215950000Y-131245000D01*
G75*
G02*
X215700000Y-130995000I0J250000D01*
G01*
G37*
X197410000Y-148470000D03*
X194910000Y-148470000D03*
G36*
G01*
X191560000Y-149195000D02*
X191560000Y-147745000D01*
G75*
G02*
X191810000Y-147495000I250000J0D01*
G01*
X193010000Y-147495000D01*
G75*
G02*
X193260000Y-147745000I0J-250000D01*
G01*
X193260000Y-149195000D01*
G75*
G02*
X193010000Y-149445000I-250000J0D01*
G01*
X191810000Y-149445000D01*
G75*
G02*
X191560000Y-149195000I0J250000D01*
G01*
G37*
X209600000Y-138070000D03*
X207100000Y-138070000D03*
G36*
G01*
X203750000Y-138795000D02*
X203750000Y-137345000D01*
G75*
G02*
X204000000Y-137095000I250000J0D01*
G01*
X205200000Y-137095000D01*
G75*
G02*
X205450000Y-137345000I0J-250000D01*
G01*
X205450000Y-138795000D01*
G75*
G02*
X205200000Y-139045000I-250000J0D01*
G01*
X204000000Y-139045000D01*
G75*
G02*
X203750000Y-138795000I0J250000D01*
G01*
G37*
X197410000Y-140670000D03*
X194910000Y-140670000D03*
G36*
G01*
X191560000Y-141395000D02*
X191560000Y-139945000D01*
G75*
G02*
X191810000Y-139695000I250000J0D01*
G01*
X193010000Y-139695000D01*
G75*
G02*
X193260000Y-139945000I0J-250000D01*
G01*
X193260000Y-141395000D01*
G75*
G02*
X193010000Y-141645000I-250000J0D01*
G01*
X191810000Y-141645000D01*
G75*
G02*
X191560000Y-141395000I0J250000D01*
G01*
G37*
X209600000Y-130270000D03*
X207100000Y-130270000D03*
G36*
G01*
X203750000Y-130995000D02*
X203750000Y-129545000D01*
G75*
G02*
X204000000Y-129295000I250000J0D01*
G01*
X205200000Y-129295000D01*
G75*
G02*
X205450000Y-129545000I0J-250000D01*
G01*
X205450000Y-130995000D01*
G75*
G02*
X205200000Y-131245000I-250000J0D01*
G01*
X204000000Y-131245000D01*
G75*
G02*
X203750000Y-130995000I0J250000D01*
G01*
G37*
D22*
X273650000Y-97040000D03*
X273650000Y-94500000D03*
D23*
X273650000Y-91960000D03*
D24*
X282750000Y-96400000D03*
X278850000Y-96400000D03*
X282750000Y-95130000D03*
X278850000Y-95130000D03*
X282750000Y-93860000D03*
X278850000Y-93860000D03*
X282750000Y-92590000D03*
X278850000Y-92590000D03*
X282750000Y-91320000D03*
X278850000Y-91320000D03*
D22*
X273650000Y-106740000D03*
X273650000Y-104200000D03*
D23*
X273650000Y-101660000D03*
D25*
X291350000Y-95360000D03*
G36*
G01*
X191630000Y-121821250D02*
X191630000Y-120908750D01*
G75*
G02*
X191873750Y-120665000I243750J0D01*
G01*
X192361250Y-120665000D01*
G75*
G02*
X192605000Y-120908750I0J-243750D01*
G01*
X192605000Y-121821250D01*
G75*
G02*
X192361250Y-122065000I-243750J0D01*
G01*
X191873750Y-122065000D01*
G75*
G02*
X191630000Y-121821250I0J243750D01*
G01*
G37*
G36*
G01*
X189755000Y-121821250D02*
X189755000Y-120908750D01*
G75*
G02*
X189998750Y-120665000I243750J0D01*
G01*
X190486250Y-120665000D01*
G75*
G02*
X190730000Y-120908750I0J-243750D01*
G01*
X190730000Y-121821250D01*
G75*
G02*
X190486250Y-122065000I-243750J0D01*
G01*
X189998750Y-122065000D01*
G75*
G02*
X189755000Y-121821250I0J243750D01*
G01*
G37*
G36*
G01*
X246990000Y-146181250D02*
X246990000Y-145268750D01*
G75*
G02*
X247233750Y-145025000I243750J0D01*
G01*
X247721250Y-145025000D01*
G75*
G02*
X247965000Y-145268750I0J-243750D01*
G01*
X247965000Y-146181250D01*
G75*
G02*
X247721250Y-146425000I-243750J0D01*
G01*
X247233750Y-146425000D01*
G75*
G02*
X246990000Y-146181250I0J243750D01*
G01*
G37*
G36*
G01*
X245115000Y-146181250D02*
X245115000Y-145268750D01*
G75*
G02*
X245358750Y-145025000I243750J0D01*
G01*
X245846250Y-145025000D01*
G75*
G02*
X246090000Y-145268750I0J-243750D01*
G01*
X246090000Y-146181250D01*
G75*
G02*
X245846250Y-146425000I-243750J0D01*
G01*
X245358750Y-146425000D01*
G75*
G02*
X245115000Y-146181250I0J243750D01*
G01*
G37*
G36*
G01*
X196060000Y-121825000D02*
X196060000Y-120875000D01*
G75*
G02*
X196310000Y-120625000I250000J0D01*
G01*
X196810000Y-120625000D01*
G75*
G02*
X197060000Y-120875000I0J-250000D01*
G01*
X197060000Y-121825000D01*
G75*
G02*
X196810000Y-122075000I-250000J0D01*
G01*
X196310000Y-122075000D01*
G75*
G02*
X196060000Y-121825000I0J250000D01*
G01*
G37*
G36*
G01*
X194160000Y-121825000D02*
X194160000Y-120875000D01*
G75*
G02*
X194410000Y-120625000I250000J0D01*
G01*
X194910000Y-120625000D01*
G75*
G02*
X195160000Y-120875000I0J-250000D01*
G01*
X195160000Y-121825000D01*
G75*
G02*
X194910000Y-122075000I-250000J0D01*
G01*
X194410000Y-122075000D01*
G75*
G02*
X194160000Y-121825000I0J250000D01*
G01*
G37*
G36*
G01*
X200510000Y-121825000D02*
X200510000Y-120875000D01*
G75*
G02*
X200760000Y-120625000I250000J0D01*
G01*
X201260000Y-120625000D01*
G75*
G02*
X201510000Y-120875000I0J-250000D01*
G01*
X201510000Y-121825000D01*
G75*
G02*
X201260000Y-122075000I-250000J0D01*
G01*
X200760000Y-122075000D01*
G75*
G02*
X200510000Y-121825000I0J250000D01*
G01*
G37*
G36*
G01*
X198610000Y-121825000D02*
X198610000Y-120875000D01*
G75*
G02*
X198860000Y-120625000I250000J0D01*
G01*
X199360000Y-120625000D01*
G75*
G02*
X199610000Y-120875000I0J-250000D01*
G01*
X199610000Y-121825000D01*
G75*
G02*
X199360000Y-122075000I-250000J0D01*
G01*
X198860000Y-122075000D01*
G75*
G02*
X198610000Y-121825000I0J250000D01*
G01*
G37*
G36*
G01*
X287280000Y-119960000D02*
X287280000Y-118860000D01*
G75*
G02*
X287530000Y-118610000I250000J0D01*
G01*
X290530000Y-118610000D01*
G75*
G02*
X290780000Y-118860000I0J-250000D01*
G01*
X290780000Y-119960000D01*
G75*
G02*
X290530000Y-120210000I-250000J0D01*
G01*
X287530000Y-120210000D01*
G75*
G02*
X287280000Y-119960000I0J250000D01*
G01*
G37*
G36*
G01*
X281880000Y-119960000D02*
X281880000Y-118860000D01*
G75*
G02*
X282130000Y-118610000I250000J0D01*
G01*
X285130000Y-118610000D01*
G75*
G02*
X285380000Y-118860000I0J-250000D01*
G01*
X285380000Y-119960000D01*
G75*
G02*
X285130000Y-120210000I-250000J0D01*
G01*
X282130000Y-120210000D01*
G75*
G02*
X281880000Y-119960000I0J250000D01*
G01*
G37*
G36*
G01*
X251420000Y-146185000D02*
X251420000Y-145235000D01*
G75*
G02*
X251670000Y-144985000I250000J0D01*
G01*
X252170000Y-144985000D01*
G75*
G02*
X252420000Y-145235000I0J-250000D01*
G01*
X252420000Y-146185000D01*
G75*
G02*
X252170000Y-146435000I-250000J0D01*
G01*
X251670000Y-146435000D01*
G75*
G02*
X251420000Y-146185000I0J250000D01*
G01*
G37*
G36*
G01*
X249520000Y-146185000D02*
X249520000Y-145235000D01*
G75*
G02*
X249770000Y-144985000I250000J0D01*
G01*
X250270000Y-144985000D01*
G75*
G02*
X250520000Y-145235000I0J-250000D01*
G01*
X250520000Y-146185000D01*
G75*
G02*
X250270000Y-146435000I-250000J0D01*
G01*
X249770000Y-146435000D01*
G75*
G02*
X249520000Y-146185000I0J250000D01*
G01*
G37*
G36*
G01*
X259920000Y-140225000D02*
X259920000Y-139275000D01*
G75*
G02*
X260170000Y-139025000I250000J0D01*
G01*
X260670000Y-139025000D01*
G75*
G02*
X260920000Y-139275000I0J-250000D01*
G01*
X260920000Y-140225000D01*
G75*
G02*
X260670000Y-140475000I-250000J0D01*
G01*
X260170000Y-140475000D01*
G75*
G02*
X259920000Y-140225000I0J250000D01*
G01*
G37*
G36*
G01*
X258020000Y-140225000D02*
X258020000Y-139275000D01*
G75*
G02*
X258270000Y-139025000I250000J0D01*
G01*
X258770000Y-139025000D01*
G75*
G02*
X259020000Y-139275000I0J-250000D01*
G01*
X259020000Y-140225000D01*
G75*
G02*
X258770000Y-140475000I-250000J0D01*
G01*
X258270000Y-140475000D01*
G75*
G02*
X258020000Y-140225000I0J250000D01*
G01*
G37*
G36*
G01*
X271270000Y-128875000D02*
X271270000Y-127925000D01*
G75*
G02*
X271520000Y-127675000I250000J0D01*
G01*
X272020000Y-127675000D01*
G75*
G02*
X272270000Y-127925000I0J-250000D01*
G01*
X272270000Y-128875000D01*
G75*
G02*
X272020000Y-129125000I-250000J0D01*
G01*
X271520000Y-129125000D01*
G75*
G02*
X271270000Y-128875000I0J250000D01*
G01*
G37*
G36*
G01*
X269370000Y-128875000D02*
X269370000Y-127925000D01*
G75*
G02*
X269620000Y-127675000I250000J0D01*
G01*
X270120000Y-127675000D01*
G75*
G02*
X270370000Y-127925000I0J-250000D01*
G01*
X270370000Y-128875000D01*
G75*
G02*
X270120000Y-129125000I-250000J0D01*
G01*
X269620000Y-129125000D01*
G75*
G02*
X269370000Y-128875000I0J250000D01*
G01*
G37*
G36*
G01*
X203560000Y-152275000D02*
X203560000Y-151325000D01*
G75*
G02*
X203810000Y-151075000I250000J0D01*
G01*
X204310000Y-151075000D01*
G75*
G02*
X204560000Y-151325000I0J-250000D01*
G01*
X204560000Y-152275000D01*
G75*
G02*
X204310000Y-152525000I-250000J0D01*
G01*
X203810000Y-152525000D01*
G75*
G02*
X203560000Y-152275000I0J250000D01*
G01*
G37*
G36*
G01*
X201660000Y-152275000D02*
X201660000Y-151325000D01*
G75*
G02*
X201910000Y-151075000I250000J0D01*
G01*
X202410000Y-151075000D01*
G75*
G02*
X202660000Y-151325000I0J-250000D01*
G01*
X202660000Y-152275000D01*
G75*
G02*
X202410000Y-152525000I-250000J0D01*
G01*
X201910000Y-152525000D01*
G75*
G02*
X201660000Y-152275000I0J250000D01*
G01*
G37*
G36*
G01*
X233495000Y-136695001D02*
X233495000Y-135844999D01*
G75*
G02*
X233744999Y-135595000I249999J0D01*
G01*
X234645001Y-135595000D01*
G75*
G02*
X234895000Y-135844999I0J-249999D01*
G01*
X234895000Y-136695001D01*
G75*
G02*
X234645001Y-136945000I-249999J0D01*
G01*
X233744999Y-136945000D01*
G75*
G02*
X233495000Y-136695001I0J249999D01*
G01*
G37*
G36*
G01*
X230795000Y-136695001D02*
X230795000Y-135844999D01*
G75*
G02*
X231044999Y-135595000I249999J0D01*
G01*
X231945001Y-135595000D01*
G75*
G02*
X232195000Y-135844999I0J-249999D01*
G01*
X232195000Y-136695001D01*
G75*
G02*
X231945001Y-136945000I-249999J0D01*
G01*
X231044999Y-136945000D01*
G75*
G02*
X230795000Y-136695001I0J249999D01*
G01*
G37*
G36*
G01*
X283100000Y-106085000D02*
X283100000Y-105135000D01*
G75*
G02*
X283350000Y-104885000I250000J0D01*
G01*
X283850000Y-104885000D01*
G75*
G02*
X284100000Y-105135000I0J-250000D01*
G01*
X284100000Y-106085000D01*
G75*
G02*
X283850000Y-106335000I-250000J0D01*
G01*
X283350000Y-106335000D01*
G75*
G02*
X283100000Y-106085000I0J250000D01*
G01*
G37*
G36*
G01*
X281200000Y-106085000D02*
X281200000Y-105135000D01*
G75*
G02*
X281450000Y-104885000I250000J0D01*
G01*
X281950000Y-104885000D01*
G75*
G02*
X282200000Y-105135000I0J-250000D01*
G01*
X282200000Y-106085000D01*
G75*
G02*
X281950000Y-106335000I-250000J0D01*
G01*
X281450000Y-106335000D01*
G75*
G02*
X281200000Y-106085000I0J250000D01*
G01*
G37*
G36*
G01*
X255510000Y-110105000D02*
X255510000Y-109155000D01*
G75*
G02*
X255760000Y-108905000I250000J0D01*
G01*
X256260000Y-108905000D01*
G75*
G02*
X256510000Y-109155000I0J-250000D01*
G01*
X256510000Y-110105000D01*
G75*
G02*
X256260000Y-110355000I-250000J0D01*
G01*
X255760000Y-110355000D01*
G75*
G02*
X255510000Y-110105000I0J250000D01*
G01*
G37*
G36*
G01*
X253610000Y-110105000D02*
X253610000Y-109155000D01*
G75*
G02*
X253860000Y-108905000I250000J0D01*
G01*
X254360000Y-108905000D01*
G75*
G02*
X254610000Y-109155000I0J-250000D01*
G01*
X254610000Y-110105000D01*
G75*
G02*
X254360000Y-110355000I-250000J0D01*
G01*
X253860000Y-110355000D01*
G75*
G02*
X253610000Y-110105000I0J250000D01*
G01*
G37*
G36*
G01*
X259960000Y-111015000D02*
X259960000Y-110065000D01*
G75*
G02*
X260210000Y-109815000I250000J0D01*
G01*
X260710000Y-109815000D01*
G75*
G02*
X260960000Y-110065000I0J-250000D01*
G01*
X260960000Y-111015000D01*
G75*
G02*
X260710000Y-111265000I-250000J0D01*
G01*
X260210000Y-111265000D01*
G75*
G02*
X259960000Y-111015000I0J250000D01*
G01*
G37*
G36*
G01*
X258060000Y-111015000D02*
X258060000Y-110065000D01*
G75*
G02*
X258310000Y-109815000I250000J0D01*
G01*
X258810000Y-109815000D01*
G75*
G02*
X259060000Y-110065000I0J-250000D01*
G01*
X259060000Y-111015000D01*
G75*
G02*
X258810000Y-111265000I-250000J0D01*
G01*
X258310000Y-111265000D01*
G75*
G02*
X258060000Y-111015000I0J250000D01*
G01*
G37*
G36*
G01*
X283100000Y-103075000D02*
X283100000Y-102125000D01*
G75*
G02*
X283350000Y-101875000I250000J0D01*
G01*
X283850000Y-101875000D01*
G75*
G02*
X284100000Y-102125000I0J-250000D01*
G01*
X284100000Y-103075000D01*
G75*
G02*
X283850000Y-103325000I-250000J0D01*
G01*
X283350000Y-103325000D01*
G75*
G02*
X283100000Y-103075000I0J250000D01*
G01*
G37*
G36*
G01*
X281200000Y-103075000D02*
X281200000Y-102125000D01*
G75*
G02*
X281450000Y-101875000I250000J0D01*
G01*
X281950000Y-101875000D01*
G75*
G02*
X282200000Y-102125000I0J-250000D01*
G01*
X282200000Y-103075000D01*
G75*
G02*
X281950000Y-103325000I-250000J0D01*
G01*
X281450000Y-103325000D01*
G75*
G02*
X281200000Y-103075000I0J250000D01*
G01*
G37*
G36*
G01*
X288300000Y-96065000D02*
X288300000Y-95115000D01*
G75*
G02*
X288550000Y-94865000I250000J0D01*
G01*
X289050000Y-94865000D01*
G75*
G02*
X289300000Y-95115000I0J-250000D01*
G01*
X289300000Y-96065000D01*
G75*
G02*
X289050000Y-96315000I-250000J0D01*
G01*
X288550000Y-96315000D01*
G75*
G02*
X288300000Y-96065000I0J250000D01*
G01*
G37*
G36*
G01*
X286400000Y-96065000D02*
X286400000Y-95115000D01*
G75*
G02*
X286650000Y-94865000I250000J0D01*
G01*
X287150000Y-94865000D01*
G75*
G02*
X287400000Y-95115000I0J-250000D01*
G01*
X287400000Y-96065000D01*
G75*
G02*
X287150000Y-96315000I-250000J0D01*
G01*
X286650000Y-96315000D01*
G75*
G02*
X286400000Y-96065000I0J250000D01*
G01*
G37*
G36*
G01*
X264410000Y-110105000D02*
X264410000Y-109155000D01*
G75*
G02*
X264660000Y-108905000I250000J0D01*
G01*
X265160000Y-108905000D01*
G75*
G02*
X265410000Y-109155000I0J-250000D01*
G01*
X265410000Y-110105000D01*
G75*
G02*
X265160000Y-110355000I-250000J0D01*
G01*
X264660000Y-110355000D01*
G75*
G02*
X264410000Y-110105000I0J250000D01*
G01*
G37*
G36*
G01*
X262510000Y-110105000D02*
X262510000Y-109155000D01*
G75*
G02*
X262760000Y-108905000I250000J0D01*
G01*
X263260000Y-108905000D01*
G75*
G02*
X263510000Y-109155000I0J-250000D01*
G01*
X263510000Y-110105000D01*
G75*
G02*
X263260000Y-110355000I-250000J0D01*
G01*
X262760000Y-110355000D01*
G75*
G02*
X262510000Y-110105000I0J250000D01*
G01*
G37*
G36*
G01*
X278650000Y-100065000D02*
X278650000Y-99115000D01*
G75*
G02*
X278900000Y-98865000I250000J0D01*
G01*
X279400000Y-98865000D01*
G75*
G02*
X279650000Y-99115000I0J-250000D01*
G01*
X279650000Y-100065000D01*
G75*
G02*
X279400000Y-100315000I-250000J0D01*
G01*
X278900000Y-100315000D01*
G75*
G02*
X278650000Y-100065000I0J250000D01*
G01*
G37*
G36*
G01*
X276750000Y-100065000D02*
X276750000Y-99115000D01*
G75*
G02*
X277000000Y-98865000I250000J0D01*
G01*
X277500000Y-98865000D01*
G75*
G02*
X277750000Y-99115000I0J-250000D01*
G01*
X277750000Y-100065000D01*
G75*
G02*
X277500000Y-100315000I-250000J0D01*
G01*
X277000000Y-100315000D01*
G75*
G02*
X276750000Y-100065000I0J250000D01*
G01*
G37*
G36*
G01*
X268860000Y-110105000D02*
X268860000Y-109155000D01*
G75*
G02*
X269110000Y-108905000I250000J0D01*
G01*
X269610000Y-108905000D01*
G75*
G02*
X269860000Y-109155000I0J-250000D01*
G01*
X269860000Y-110105000D01*
G75*
G02*
X269610000Y-110355000I-250000J0D01*
G01*
X269110000Y-110355000D01*
G75*
G02*
X268860000Y-110105000I0J250000D01*
G01*
G37*
G36*
G01*
X266960000Y-110105000D02*
X266960000Y-109155000D01*
G75*
G02*
X267210000Y-108905000I250000J0D01*
G01*
X267710000Y-108905000D01*
G75*
G02*
X267960000Y-109155000I0J-250000D01*
G01*
X267960000Y-110105000D01*
G75*
G02*
X267710000Y-110355000I-250000J0D01*
G01*
X267210000Y-110355000D01*
G75*
G02*
X266960000Y-110105000I0J250000D01*
G01*
G37*
G36*
G01*
X283100000Y-100065000D02*
X283100000Y-99115000D01*
G75*
G02*
X283350000Y-98865000I250000J0D01*
G01*
X283850000Y-98865000D01*
G75*
G02*
X284100000Y-99115000I0J-250000D01*
G01*
X284100000Y-100065000D01*
G75*
G02*
X283850000Y-100315000I-250000J0D01*
G01*
X283350000Y-100315000D01*
G75*
G02*
X283100000Y-100065000I0J250000D01*
G01*
G37*
G36*
G01*
X281200000Y-100065000D02*
X281200000Y-99115000D01*
G75*
G02*
X281450000Y-98865000I250000J0D01*
G01*
X281950000Y-98865000D01*
G75*
G02*
X282200000Y-99115000I0J-250000D01*
G01*
X282200000Y-100065000D01*
G75*
G02*
X281950000Y-100315000I-250000J0D01*
G01*
X281450000Y-100315000D01*
G75*
G02*
X281200000Y-100065000I0J250000D01*
G01*
G37*
G36*
G01*
X278650000Y-103075000D02*
X278650000Y-102125000D01*
G75*
G02*
X278900000Y-101875000I250000J0D01*
G01*
X279400000Y-101875000D01*
G75*
G02*
X279650000Y-102125000I0J-250000D01*
G01*
X279650000Y-103075000D01*
G75*
G02*
X279400000Y-103325000I-250000J0D01*
G01*
X278900000Y-103325000D01*
G75*
G02*
X278650000Y-103075000I0J250000D01*
G01*
G37*
G36*
G01*
X276750000Y-103075000D02*
X276750000Y-102125000D01*
G75*
G02*
X277000000Y-101875000I250000J0D01*
G01*
X277500000Y-101875000D01*
G75*
G02*
X277750000Y-102125000I0J-250000D01*
G01*
X277750000Y-103075000D01*
G75*
G02*
X277500000Y-103325000I-250000J0D01*
G01*
X277000000Y-103325000D01*
G75*
G02*
X276750000Y-103075000I0J250000D01*
G01*
G37*
G36*
G01*
X278650000Y-106085000D02*
X278650000Y-105135000D01*
G75*
G02*
X278900000Y-104885000I250000J0D01*
G01*
X279400000Y-104885000D01*
G75*
G02*
X279650000Y-105135000I0J-250000D01*
G01*
X279650000Y-106085000D01*
G75*
G02*
X279400000Y-106335000I-250000J0D01*
G01*
X278900000Y-106335000D01*
G75*
G02*
X278650000Y-106085000I0J250000D01*
G01*
G37*
G36*
G01*
X276750000Y-106085000D02*
X276750000Y-105135000D01*
G75*
G02*
X277000000Y-104885000I250000J0D01*
G01*
X277500000Y-104885000D01*
G75*
G02*
X277750000Y-105135000I0J-250000D01*
G01*
X277750000Y-106085000D01*
G75*
G02*
X277500000Y-106335000I-250000J0D01*
G01*
X277000000Y-106335000D01*
G75*
G02*
X276750000Y-106085000I0J250000D01*
G01*
G37*
G36*
G01*
X288300000Y-99075000D02*
X288300000Y-98125000D01*
G75*
G02*
X288550000Y-97875000I250000J0D01*
G01*
X289050000Y-97875000D01*
G75*
G02*
X289300000Y-98125000I0J-250000D01*
G01*
X289300000Y-99075000D01*
G75*
G02*
X289050000Y-99325000I-250000J0D01*
G01*
X288550000Y-99325000D01*
G75*
G02*
X288300000Y-99075000I0J250000D01*
G01*
G37*
G36*
G01*
X286400000Y-99075000D02*
X286400000Y-98125000D01*
G75*
G02*
X286650000Y-97875000I250000J0D01*
G01*
X287150000Y-97875000D01*
G75*
G02*
X287400000Y-98125000I0J-250000D01*
G01*
X287400000Y-99075000D01*
G75*
G02*
X287150000Y-99325000I-250000J0D01*
G01*
X286650000Y-99325000D01*
G75*
G02*
X286400000Y-99075000I0J250000D01*
G01*
G37*
G36*
G01*
X278650000Y-109095000D02*
X278650000Y-108145000D01*
G75*
G02*
X278900000Y-107895000I250000J0D01*
G01*
X279400000Y-107895000D01*
G75*
G02*
X279650000Y-108145000I0J-250000D01*
G01*
X279650000Y-109095000D01*
G75*
G02*
X279400000Y-109345000I-250000J0D01*
G01*
X278900000Y-109345000D01*
G75*
G02*
X278650000Y-109095000I0J250000D01*
G01*
G37*
G36*
G01*
X276750000Y-109095000D02*
X276750000Y-108145000D01*
G75*
G02*
X277000000Y-107895000I250000J0D01*
G01*
X277500000Y-107895000D01*
G75*
G02*
X277750000Y-108145000I0J-250000D01*
G01*
X277750000Y-109095000D01*
G75*
G02*
X277500000Y-109345000I-250000J0D01*
G01*
X277000000Y-109345000D01*
G75*
G02*
X276750000Y-109095000I0J250000D01*
G01*
G37*
G36*
G01*
X287550000Y-102085000D02*
X287550000Y-101135000D01*
G75*
G02*
X287800000Y-100885000I250000J0D01*
G01*
X288300000Y-100885000D01*
G75*
G02*
X288550000Y-101135000I0J-250000D01*
G01*
X288550000Y-102085000D01*
G75*
G02*
X288300000Y-102335000I-250000J0D01*
G01*
X287800000Y-102335000D01*
G75*
G02*
X287550000Y-102085000I0J250000D01*
G01*
G37*
G36*
G01*
X285650000Y-102085000D02*
X285650000Y-101135000D01*
G75*
G02*
X285900000Y-100885000I250000J0D01*
G01*
X286400000Y-100885000D01*
G75*
G02*
X286650000Y-101135000I0J-250000D01*
G01*
X286650000Y-102085000D01*
G75*
G02*
X286400000Y-102335000I-250000J0D01*
G01*
X285900000Y-102335000D01*
G75*
G02*
X285650000Y-102085000I0J250000D01*
G01*
G37*
G36*
G01*
X109320000Y-152480001D02*
X109320000Y-151579999D01*
G75*
G02*
X109569999Y-151330000I249999J0D01*
G01*
X110095001Y-151330000D01*
G75*
G02*
X110345000Y-151579999I0J-249999D01*
G01*
X110345000Y-152480001D01*
G75*
G02*
X110095001Y-152730000I-249999J0D01*
G01*
X109569999Y-152730000D01*
G75*
G02*
X109320000Y-152480001I0J249999D01*
G01*
G37*
G36*
G01*
X107495000Y-152480001D02*
X107495000Y-151579999D01*
G75*
G02*
X107744999Y-151330000I249999J0D01*
G01*
X108270001Y-151330000D01*
G75*
G02*
X108520000Y-151579999I0J-249999D01*
G01*
X108520000Y-152480001D01*
G75*
G02*
X108270001Y-152730000I-249999J0D01*
G01*
X107744999Y-152730000D01*
G75*
G02*
X107495000Y-152480001I0J249999D01*
G01*
G37*
G36*
G01*
X109320000Y-155430001D02*
X109320000Y-154529999D01*
G75*
G02*
X109569999Y-154280000I249999J0D01*
G01*
X110095001Y-154280000D01*
G75*
G02*
X110345000Y-154529999I0J-249999D01*
G01*
X110345000Y-155430001D01*
G75*
G02*
X110095001Y-155680000I-249999J0D01*
G01*
X109569999Y-155680000D01*
G75*
G02*
X109320000Y-155430001I0J249999D01*
G01*
G37*
G36*
G01*
X107495000Y-155430001D02*
X107495000Y-154529999D01*
G75*
G02*
X107744999Y-154280000I249999J0D01*
G01*
X108270001Y-154280000D01*
G75*
G02*
X108520000Y-154529999I0J-249999D01*
G01*
X108520000Y-155430001D01*
G75*
G02*
X108270001Y-155680000I-249999J0D01*
G01*
X107744999Y-155680000D01*
G75*
G02*
X107495000Y-155430001I0J249999D01*
G01*
G37*
G36*
G01*
X108400000Y-133260001D02*
X108400000Y-132359999D01*
G75*
G02*
X108649999Y-132110000I249999J0D01*
G01*
X109175001Y-132110000D01*
G75*
G02*
X109425000Y-132359999I0J-249999D01*
G01*
X109425000Y-133260001D01*
G75*
G02*
X109175001Y-133510000I-249999J0D01*
G01*
X108649999Y-133510000D01*
G75*
G02*
X108400000Y-133260001I0J249999D01*
G01*
G37*
G36*
G01*
X106575000Y-133260001D02*
X106575000Y-132359999D01*
G75*
G02*
X106824999Y-132110000I249999J0D01*
G01*
X107350001Y-132110000D01*
G75*
G02*
X107600000Y-132359999I0J-249999D01*
G01*
X107600000Y-133260001D01*
G75*
G02*
X107350001Y-133510000I-249999J0D01*
G01*
X106824999Y-133510000D01*
G75*
G02*
X106575000Y-133260001I0J249999D01*
G01*
G37*
G36*
G01*
X108970000Y-145620001D02*
X108970000Y-144719999D01*
G75*
G02*
X109219999Y-144470000I249999J0D01*
G01*
X109745001Y-144470000D01*
G75*
G02*
X109995000Y-144719999I0J-249999D01*
G01*
X109995000Y-145620001D01*
G75*
G02*
X109745001Y-145870000I-249999J0D01*
G01*
X109219999Y-145870000D01*
G75*
G02*
X108970000Y-145620001I0J249999D01*
G01*
G37*
G36*
G01*
X107145000Y-145620001D02*
X107145000Y-144719999D01*
G75*
G02*
X107394999Y-144470000I249999J0D01*
G01*
X107920001Y-144470000D01*
G75*
G02*
X108170000Y-144719999I0J-249999D01*
G01*
X108170000Y-145620001D01*
G75*
G02*
X107920001Y-145870000I-249999J0D01*
G01*
X107394999Y-145870000D01*
G75*
G02*
X107145000Y-145620001I0J249999D01*
G01*
G37*
G36*
G01*
X108400000Y-136210001D02*
X108400000Y-135309999D01*
G75*
G02*
X108649999Y-135060000I249999J0D01*
G01*
X109175001Y-135060000D01*
G75*
G02*
X109425000Y-135309999I0J-249999D01*
G01*
X109425000Y-136210001D01*
G75*
G02*
X109175001Y-136460000I-249999J0D01*
G01*
X108649999Y-136460000D01*
G75*
G02*
X108400000Y-136210001I0J249999D01*
G01*
G37*
G36*
G01*
X106575000Y-136210001D02*
X106575000Y-135309999D01*
G75*
G02*
X106824999Y-135060000I249999J0D01*
G01*
X107350001Y-135060000D01*
G75*
G02*
X107600000Y-135309999I0J-249999D01*
G01*
X107600000Y-136210001D01*
G75*
G02*
X107350001Y-136460000I-249999J0D01*
G01*
X106824999Y-136460000D01*
G75*
G02*
X106575000Y-136210001I0J249999D01*
G01*
G37*
G36*
G01*
X97650000Y-156380001D02*
X97650000Y-155479999D01*
G75*
G02*
X97899999Y-155230000I249999J0D01*
G01*
X98425001Y-155230000D01*
G75*
G02*
X98675000Y-155479999I0J-249999D01*
G01*
X98675000Y-156380001D01*
G75*
G02*
X98425001Y-156630000I-249999J0D01*
G01*
X97899999Y-156630000D01*
G75*
G02*
X97650000Y-156380001I0J249999D01*
G01*
G37*
G36*
G01*
X95825000Y-156380001D02*
X95825000Y-155479999D01*
G75*
G02*
X96074999Y-155230000I249999J0D01*
G01*
X96600001Y-155230000D01*
G75*
G02*
X96850000Y-155479999I0J-249999D01*
G01*
X96850000Y-156380001D01*
G75*
G02*
X96600001Y-156630000I-249999J0D01*
G01*
X96074999Y-156630000D01*
G75*
G02*
X95825000Y-156380001I0J249999D01*
G01*
G37*
G36*
G01*
X108970000Y-142670001D02*
X108970000Y-141769999D01*
G75*
G02*
X109219999Y-141520000I249999J0D01*
G01*
X109745001Y-141520000D01*
G75*
G02*
X109995000Y-141769999I0J-249999D01*
G01*
X109995000Y-142670001D01*
G75*
G02*
X109745001Y-142920000I-249999J0D01*
G01*
X109219999Y-142920000D01*
G75*
G02*
X108970000Y-142670001I0J249999D01*
G01*
G37*
G36*
G01*
X107145000Y-142670001D02*
X107145000Y-141769999D01*
G75*
G02*
X107394999Y-141520000I249999J0D01*
G01*
X107920001Y-141520000D01*
G75*
G02*
X108170000Y-141769999I0J-249999D01*
G01*
X108170000Y-142670001D01*
G75*
G02*
X107920001Y-142920000I-249999J0D01*
G01*
X107394999Y-142920000D01*
G75*
G02*
X107145000Y-142670001I0J249999D01*
G01*
G37*
G36*
G01*
X97600000Y-146590001D02*
X97600000Y-145689999D01*
G75*
G02*
X97849999Y-145440000I249999J0D01*
G01*
X98375001Y-145440000D01*
G75*
G02*
X98625000Y-145689999I0J-249999D01*
G01*
X98625000Y-146590001D01*
G75*
G02*
X98375001Y-146840000I-249999J0D01*
G01*
X97849999Y-146840000D01*
G75*
G02*
X97600000Y-146590001I0J249999D01*
G01*
G37*
G36*
G01*
X95775000Y-146590001D02*
X95775000Y-145689999D01*
G75*
G02*
X96024999Y-145440000I249999J0D01*
G01*
X96550001Y-145440000D01*
G75*
G02*
X96800000Y-145689999I0J-249999D01*
G01*
X96800000Y-146590001D01*
G75*
G02*
X96550001Y-146840000I-249999J0D01*
G01*
X96024999Y-146840000D01*
G75*
G02*
X95775000Y-146590001I0J249999D01*
G01*
G37*
G36*
G01*
X97650000Y-153430001D02*
X97650000Y-152529999D01*
G75*
G02*
X97899999Y-152280000I249999J0D01*
G01*
X98425001Y-152280000D01*
G75*
G02*
X98675000Y-152529999I0J-249999D01*
G01*
X98675000Y-153430001D01*
G75*
G02*
X98425001Y-153680000I-249999J0D01*
G01*
X97899999Y-153680000D01*
G75*
G02*
X97650000Y-153430001I0J249999D01*
G01*
G37*
G36*
G01*
X95825000Y-153430001D02*
X95825000Y-152529999D01*
G75*
G02*
X96074999Y-152280000I249999J0D01*
G01*
X96600001Y-152280000D01*
G75*
G02*
X96850000Y-152529999I0J-249999D01*
G01*
X96850000Y-153430001D01*
G75*
G02*
X96600001Y-153680000I-249999J0D01*
G01*
X96074999Y-153680000D01*
G75*
G02*
X95825000Y-153430001I0J249999D01*
G01*
G37*
G36*
G01*
X97530000Y-139800001D02*
X97530000Y-138899999D01*
G75*
G02*
X97779999Y-138650000I249999J0D01*
G01*
X98305001Y-138650000D01*
G75*
G02*
X98555000Y-138899999I0J-249999D01*
G01*
X98555000Y-139800001D01*
G75*
G02*
X98305001Y-140050000I-249999J0D01*
G01*
X97779999Y-140050000D01*
G75*
G02*
X97530000Y-139800001I0J249999D01*
G01*
G37*
G36*
G01*
X95705000Y-139800001D02*
X95705000Y-138899999D01*
G75*
G02*
X95954999Y-138650000I249999J0D01*
G01*
X96480001Y-138650000D01*
G75*
G02*
X96730000Y-138899999I0J-249999D01*
G01*
X96730000Y-139800001D01*
G75*
G02*
X96480001Y-140050000I-249999J0D01*
G01*
X95954999Y-140050000D01*
G75*
G02*
X95705000Y-139800001I0J249999D01*
G01*
G37*
G36*
G01*
X97600000Y-149540001D02*
X97600000Y-148639999D01*
G75*
G02*
X97849999Y-148390000I249999J0D01*
G01*
X98375001Y-148390000D01*
G75*
G02*
X98625000Y-148639999I0J-249999D01*
G01*
X98625000Y-149540001D01*
G75*
G02*
X98375001Y-149790000I-249999J0D01*
G01*
X97849999Y-149790000D01*
G75*
G02*
X97600000Y-149540001I0J249999D01*
G01*
G37*
G36*
G01*
X95775000Y-149540001D02*
X95775000Y-148639999D01*
G75*
G02*
X96024999Y-148390000I249999J0D01*
G01*
X96550001Y-148390000D01*
G75*
G02*
X96800000Y-148639999I0J-249999D01*
G01*
X96800000Y-149540001D01*
G75*
G02*
X96550001Y-149790000I-249999J0D01*
G01*
X96024999Y-149790000D01*
G75*
G02*
X95775000Y-149540001I0J249999D01*
G01*
G37*
G36*
G01*
X97790000Y-133120001D02*
X97790000Y-132219999D01*
G75*
G02*
X98039999Y-131970000I249999J0D01*
G01*
X98565001Y-131970000D01*
G75*
G02*
X98815000Y-132219999I0J-249999D01*
G01*
X98815000Y-133120001D01*
G75*
G02*
X98565001Y-133370000I-249999J0D01*
G01*
X98039999Y-133370000D01*
G75*
G02*
X97790000Y-133120001I0J249999D01*
G01*
G37*
G36*
G01*
X95965000Y-133120001D02*
X95965000Y-132219999D01*
G75*
G02*
X96214999Y-131970000I249999J0D01*
G01*
X96740001Y-131970000D01*
G75*
G02*
X96990000Y-132219999I0J-249999D01*
G01*
X96990000Y-133120001D01*
G75*
G02*
X96740001Y-133370000I-249999J0D01*
G01*
X96214999Y-133370000D01*
G75*
G02*
X95965000Y-133120001I0J249999D01*
G01*
G37*
G36*
G01*
X97530000Y-142750001D02*
X97530000Y-141849999D01*
G75*
G02*
X97779999Y-141600000I249999J0D01*
G01*
X98305001Y-141600000D01*
G75*
G02*
X98555000Y-141849999I0J-249999D01*
G01*
X98555000Y-142750001D01*
G75*
G02*
X98305001Y-143000000I-249999J0D01*
G01*
X97779999Y-143000000D01*
G75*
G02*
X97530000Y-142750001I0J249999D01*
G01*
G37*
G36*
G01*
X95705000Y-142750001D02*
X95705000Y-141849999D01*
G75*
G02*
X95954999Y-141600000I249999J0D01*
G01*
X96480001Y-141600000D01*
G75*
G02*
X96730000Y-141849999I0J-249999D01*
G01*
X96730000Y-142750001D01*
G75*
G02*
X96480001Y-143000000I-249999J0D01*
G01*
X95954999Y-143000000D01*
G75*
G02*
X95705000Y-142750001I0J249999D01*
G01*
G37*
G36*
G01*
X97520000Y-126130001D02*
X97520000Y-125229999D01*
G75*
G02*
X97769999Y-124980000I249999J0D01*
G01*
X98295001Y-124980000D01*
G75*
G02*
X98545000Y-125229999I0J-249999D01*
G01*
X98545000Y-126130001D01*
G75*
G02*
X98295001Y-126380000I-249999J0D01*
G01*
X97769999Y-126380000D01*
G75*
G02*
X97520000Y-126130001I0J249999D01*
G01*
G37*
G36*
G01*
X95695000Y-126130001D02*
X95695000Y-125229999D01*
G75*
G02*
X95944999Y-124980000I249999J0D01*
G01*
X96470001Y-124980000D01*
G75*
G02*
X96720000Y-125229999I0J-249999D01*
G01*
X96720000Y-126130001D01*
G75*
G02*
X96470001Y-126380000I-249999J0D01*
G01*
X95944999Y-126380000D01*
G75*
G02*
X95695000Y-126130001I0J249999D01*
G01*
G37*
G36*
G01*
X97790000Y-136070001D02*
X97790000Y-135169999D01*
G75*
G02*
X98039999Y-134920000I249999J0D01*
G01*
X98565001Y-134920000D01*
G75*
G02*
X98815000Y-135169999I0J-249999D01*
G01*
X98815000Y-136070001D01*
G75*
G02*
X98565001Y-136320000I-249999J0D01*
G01*
X98039999Y-136320000D01*
G75*
G02*
X97790000Y-136070001I0J249999D01*
G01*
G37*
G36*
G01*
X95965000Y-136070001D02*
X95965000Y-135169999D01*
G75*
G02*
X96214999Y-134920000I249999J0D01*
G01*
X96740001Y-134920000D01*
G75*
G02*
X96990000Y-135169999I0J-249999D01*
G01*
X96990000Y-136070001D01*
G75*
G02*
X96740001Y-136320000I-249999J0D01*
G01*
X96214999Y-136320000D01*
G75*
G02*
X95965000Y-136070001I0J249999D01*
G01*
G37*
G36*
G01*
X97520000Y-129080001D02*
X97520000Y-128179999D01*
G75*
G02*
X97769999Y-127930000I249999J0D01*
G01*
X98295001Y-127930000D01*
G75*
G02*
X98545000Y-128179999I0J-249999D01*
G01*
X98545000Y-129080001D01*
G75*
G02*
X98295001Y-129330000I-249999J0D01*
G01*
X97769999Y-129330000D01*
G75*
G02*
X97520000Y-129080001I0J249999D01*
G01*
G37*
G36*
G01*
X95695000Y-129080001D02*
X95695000Y-128179999D01*
G75*
G02*
X95944999Y-127930000I249999J0D01*
G01*
X96470001Y-127930000D01*
G75*
G02*
X96720000Y-128179999I0J-249999D01*
G01*
X96720000Y-129080001D01*
G75*
G02*
X96470001Y-129330000I-249999J0D01*
G01*
X95944999Y-129330000D01*
G75*
G02*
X95695000Y-129080001I0J249999D01*
G01*
G37*
D26*
X105490000Y-152830000D03*
X103490000Y-153780000D03*
X103490000Y-151880000D03*
X104570000Y-133610000D03*
X102570000Y-134560000D03*
X102570000Y-132660000D03*
X105140000Y-143020000D03*
X103140000Y-143970000D03*
X103140000Y-142070000D03*
X93820000Y-153780000D03*
X91820000Y-154730000D03*
X91820000Y-152830000D03*
X93770000Y-146940000D03*
X91770000Y-147890000D03*
X91770000Y-145990000D03*
X93700000Y-140150000D03*
X91700000Y-141100000D03*
X91700000Y-139200000D03*
X93960000Y-133470000D03*
X91960000Y-134420000D03*
X91960000Y-132520000D03*
X93690000Y-126480000D03*
X91690000Y-127430000D03*
X91690000Y-125530000D03*
D20*
X83560000Y-153110000D03*
G36*
G01*
X80210000Y-153860000D02*
X80210000Y-152360000D01*
G75*
G02*
X80460000Y-152110000I250000J0D01*
G01*
X81660000Y-152110000D01*
G75*
G02*
X81910000Y-152360000I0J-250000D01*
G01*
X81910000Y-153860000D01*
G75*
G02*
X81660000Y-154110000I-250000J0D01*
G01*
X80460000Y-154110000D01*
G75*
G02*
X80210000Y-153860000I0J250000D01*
G01*
G37*
X83290000Y-144100000D03*
G36*
G01*
X79940000Y-144850000D02*
X79940000Y-143350000D01*
G75*
G02*
X80190000Y-143100000I250000J0D01*
G01*
X81390000Y-143100000D01*
G75*
G02*
X81640000Y-143350000I0J-250000D01*
G01*
X81640000Y-144850000D01*
G75*
G02*
X81390000Y-145100000I-250000J0D01*
G01*
X80190000Y-145100000D01*
G75*
G02*
X79940000Y-144850000I0J250000D01*
G01*
G37*
X74760000Y-153040000D03*
G36*
G01*
X71410000Y-153790000D02*
X71410000Y-152290000D01*
G75*
G02*
X71660000Y-152040000I250000J0D01*
G01*
X72860000Y-152040000D01*
G75*
G02*
X73110000Y-152290000I0J-250000D01*
G01*
X73110000Y-153790000D01*
G75*
G02*
X72860000Y-154040000I-250000J0D01*
G01*
X71660000Y-154040000D01*
G75*
G02*
X71410000Y-153790000I0J250000D01*
G01*
G37*
X74560000Y-144010000D03*
G36*
G01*
X71210000Y-144760000D02*
X71210000Y-143260000D01*
G75*
G02*
X71460000Y-143010000I250000J0D01*
G01*
X72660000Y-143010000D01*
G75*
G02*
X72910000Y-143260000I0J-250000D01*
G01*
X72910000Y-144760000D01*
G75*
G02*
X72660000Y-145010000I-250000J0D01*
G01*
X71460000Y-145010000D01*
G75*
G02*
X71210000Y-144760000I0J250000D01*
G01*
G37*
X83100000Y-135110000D03*
G36*
G01*
X79750000Y-135860000D02*
X79750000Y-134360000D01*
G75*
G02*
X80000000Y-134110000I250000J0D01*
G01*
X81200000Y-134110000D01*
G75*
G02*
X81450000Y-134360000I0J-250000D01*
G01*
X81450000Y-135860000D01*
G75*
G02*
X81200000Y-136110000I-250000J0D01*
G01*
X80000000Y-136110000D01*
G75*
G02*
X79750000Y-135860000I0J250000D01*
G01*
G37*
X74410000Y-135050000D03*
G36*
G01*
X71060000Y-135800000D02*
X71060000Y-134300000D01*
G75*
G02*
X71310000Y-134050000I250000J0D01*
G01*
X72510000Y-134050000D01*
G75*
G02*
X72760000Y-134300000I0J-250000D01*
G01*
X72760000Y-135800000D01*
G75*
G02*
X72510000Y-136050000I-250000J0D01*
G01*
X71310000Y-136050000D01*
G75*
G02*
X71060000Y-135800000I0J250000D01*
G01*
G37*
X83270000Y-126290000D03*
G36*
G01*
X79920000Y-127040000D02*
X79920000Y-125540000D01*
G75*
G02*
X80170000Y-125290000I250000J0D01*
G01*
X81370000Y-125290000D01*
G75*
G02*
X81620000Y-125540000I0J-250000D01*
G01*
X81620000Y-127040000D01*
G75*
G02*
X81370000Y-127290000I-250000J0D01*
G01*
X80170000Y-127290000D01*
G75*
G02*
X79920000Y-127040000I0J250000D01*
G01*
G37*
X74480000Y-126300000D03*
G36*
G01*
X71130000Y-127050000D02*
X71130000Y-125550000D01*
G75*
G02*
X71380000Y-125300000I250000J0D01*
G01*
X72580000Y-125300000D01*
G75*
G02*
X72830000Y-125550000I0J-250000D01*
G01*
X72830000Y-127050000D01*
G75*
G02*
X72580000Y-127300000I-250000J0D01*
G01*
X71380000Y-127300000D01*
G75*
G02*
X71130000Y-127050000I0J250000D01*
G01*
G37*
D27*
X162150000Y-149680000D03*
X162150000Y-150480000D03*
X162150000Y-149680000D03*
X162150000Y-150480000D03*
X162150000Y-156080000D03*
X162150000Y-156080000D03*
X162150000Y-155280000D03*
X162150000Y-155280000D03*
D28*
X163210000Y-155770000D03*
X163210000Y-149990000D03*
D29*
X162150000Y-151130000D03*
X162150000Y-152130000D03*
X162150000Y-151630000D03*
X162150000Y-154130000D03*
X162150000Y-154630000D03*
X162150000Y-152630000D03*
X162150000Y-153130000D03*
X162150000Y-153630000D03*
D30*
X166900000Y-148560000D03*
X166900000Y-157200000D03*
D31*
X162730000Y-148560000D03*
X162730000Y-157200000D03*
D32*
X106075000Y-139070000D03*
X103275000Y-139070000D03*
X94755000Y-149830000D03*
X91955000Y-149830000D03*
X94705000Y-142990000D03*
X91905000Y-142990000D03*
X94635000Y-136200000D03*
X91835000Y-136200000D03*
X94895000Y-129520000D03*
X92095000Y-129520000D03*
X94625000Y-122530000D03*
X91825000Y-122530000D03*
X106425000Y-148880000D03*
X103625000Y-148880000D03*
X105505000Y-129660000D03*
X102705000Y-129660000D03*
G36*
G01*
X79439999Y-118945000D02*
X80340001Y-118945000D01*
G75*
G02*
X80590000Y-119194999I0J-249999D01*
G01*
X80590000Y-119720001D01*
G75*
G02*
X80340001Y-119970000I-249999J0D01*
G01*
X79439999Y-119970000D01*
G75*
G02*
X79190000Y-119720001I0J249999D01*
G01*
X79190000Y-119194999D01*
G75*
G02*
X79439999Y-118945000I249999J0D01*
G01*
G37*
G36*
G01*
X79439999Y-117120000D02*
X80340001Y-117120000D01*
G75*
G02*
X80590000Y-117369999I0J-249999D01*
G01*
X80590000Y-117895001D01*
G75*
G02*
X80340001Y-118145000I-249999J0D01*
G01*
X79439999Y-118145000D01*
G75*
G02*
X79190000Y-117895001I0J249999D01*
G01*
X79190000Y-117369999D01*
G75*
G02*
X79439999Y-117120000I249999J0D01*
G01*
G37*
G36*
G01*
X77464999Y-118945000D02*
X78365001Y-118945000D01*
G75*
G02*
X78615000Y-119194999I0J-249999D01*
G01*
X78615000Y-119720001D01*
G75*
G02*
X78365001Y-119970000I-249999J0D01*
G01*
X77464999Y-119970000D01*
G75*
G02*
X77215000Y-119720001I0J249999D01*
G01*
X77215000Y-119194999D01*
G75*
G02*
X77464999Y-118945000I249999J0D01*
G01*
G37*
G36*
G01*
X77464999Y-117120000D02*
X78365001Y-117120000D01*
G75*
G02*
X78615000Y-117369999I0J-249999D01*
G01*
X78615000Y-117895001D01*
G75*
G02*
X78365001Y-118145000I-249999J0D01*
G01*
X77464999Y-118145000D01*
G75*
G02*
X77215000Y-117895001I0J249999D01*
G01*
X77215000Y-117369999D01*
G75*
G02*
X77464999Y-117120000I249999J0D01*
G01*
G37*
D27*
X75825000Y-118595000D03*
X75825000Y-117795000D03*
X75825000Y-118595000D03*
X75825000Y-117795000D03*
X75825000Y-112195000D03*
X75825000Y-112195000D03*
X75825000Y-112995000D03*
X75825000Y-112995000D03*
D28*
X74765000Y-112505000D03*
X74765000Y-118285000D03*
D29*
X75825000Y-117145000D03*
X75825000Y-116145000D03*
X75825000Y-116645000D03*
X75825000Y-114145000D03*
X75825000Y-113645000D03*
X75825000Y-115645000D03*
X75825000Y-115145000D03*
X75825000Y-114645000D03*
D30*
X71075000Y-119715000D03*
X71075000Y-111075000D03*
D31*
X75245000Y-119715000D03*
X75245000Y-111075000D03*
G36*
G01*
X83065000Y-106795001D02*
X83065000Y-105894999D01*
G75*
G02*
X83314999Y-105645000I249999J0D01*
G01*
X83840001Y-105645000D01*
G75*
G02*
X84090000Y-105894999I0J-249999D01*
G01*
X84090000Y-106795001D01*
G75*
G02*
X83840001Y-107045000I-249999J0D01*
G01*
X83314999Y-107045000D01*
G75*
G02*
X83065000Y-106795001I0J249999D01*
G01*
G37*
G36*
G01*
X81240000Y-106795001D02*
X81240000Y-105894999D01*
G75*
G02*
X81489999Y-105645000I249999J0D01*
G01*
X82015001Y-105645000D01*
G75*
G02*
X82265000Y-105894999I0J-249999D01*
G01*
X82265000Y-106795001D01*
G75*
G02*
X82015001Y-107045000I-249999J0D01*
G01*
X81489999Y-107045000D01*
G75*
G02*
X81240000Y-106795001I0J249999D01*
G01*
G37*
D33*
X76140000Y-106495000D03*
X70440000Y-106495000D03*
G36*
G01*
X82715000Y-99095000D02*
X81765000Y-99095000D01*
G75*
G02*
X81515000Y-98845000I0J250000D01*
G01*
X81515000Y-98345000D01*
G75*
G02*
X81765000Y-98095000I250000J0D01*
G01*
X82715000Y-98095000D01*
G75*
G02*
X82965000Y-98345000I0J-250000D01*
G01*
X82965000Y-98845000D01*
G75*
G02*
X82715000Y-99095000I-250000J0D01*
G01*
G37*
G36*
G01*
X82715000Y-100995000D02*
X81765000Y-100995000D01*
G75*
G02*
X81515000Y-100745000I0J250000D01*
G01*
X81515000Y-100245000D01*
G75*
G02*
X81765000Y-99995000I250000J0D01*
G01*
X82715000Y-99995000D01*
G75*
G02*
X82965000Y-100245000I0J-250000D01*
G01*
X82965000Y-100745000D01*
G75*
G02*
X82715000Y-100995000I-250000J0D01*
G01*
G37*
G36*
G01*
X82490000Y-96045000D02*
X82490000Y-96995000D01*
G75*
G02*
X82240000Y-97245000I-250000J0D01*
G01*
X81740000Y-97245000D01*
G75*
G02*
X81490000Y-96995000I0J250000D01*
G01*
X81490000Y-96045000D01*
G75*
G02*
X81740000Y-95795000I250000J0D01*
G01*
X82240000Y-95795000D01*
G75*
G02*
X82490000Y-96045000I0J-250000D01*
G01*
G37*
G36*
G01*
X84390000Y-96045000D02*
X84390000Y-96995000D01*
G75*
G02*
X84140000Y-97245000I-250000J0D01*
G01*
X83640000Y-97245000D01*
G75*
G02*
X83390000Y-96995000I0J250000D01*
G01*
X83390000Y-96045000D01*
G75*
G02*
X83640000Y-95795000I250000J0D01*
G01*
X84140000Y-95795000D01*
G75*
G02*
X84390000Y-96045000I0J-250000D01*
G01*
G37*
D34*
X74715000Y-100050000D03*
X74715000Y-98780000D03*
X74715000Y-97510000D03*
X74715000Y-96240000D03*
X80115000Y-96240000D03*
X80115000Y-97510000D03*
X80115000Y-98780000D03*
X80115000Y-100050000D03*
D35*
X77415000Y-98145000D03*
G36*
G01*
X79565000Y-104770001D02*
X79565000Y-103869999D01*
G75*
G02*
X79814999Y-103620000I249999J0D01*
G01*
X80340001Y-103620000D01*
G75*
G02*
X80590000Y-103869999I0J-249999D01*
G01*
X80590000Y-104770001D01*
G75*
G02*
X80340001Y-105020000I-249999J0D01*
G01*
X79814999Y-105020000D01*
G75*
G02*
X79565000Y-104770001I0J249999D01*
G01*
G37*
G36*
G01*
X77740000Y-104770001D02*
X77740000Y-103869999D01*
G75*
G02*
X77989999Y-103620000I249999J0D01*
G01*
X78515001Y-103620000D01*
G75*
G02*
X78765000Y-103869999I0J-249999D01*
G01*
X78765000Y-104770001D01*
G75*
G02*
X78515001Y-105020000I-249999J0D01*
G01*
X77989999Y-105020000D01*
G75*
G02*
X77740000Y-104770001I0J249999D01*
G01*
G37*
G36*
G01*
X79590000Y-106770001D02*
X79590000Y-105869999D01*
G75*
G02*
X79839999Y-105620000I249999J0D01*
G01*
X80365001Y-105620000D01*
G75*
G02*
X80615000Y-105869999I0J-249999D01*
G01*
X80615000Y-106770001D01*
G75*
G02*
X80365001Y-107020000I-249999J0D01*
G01*
X79839999Y-107020000D01*
G75*
G02*
X79590000Y-106770001I0J249999D01*
G01*
G37*
G36*
G01*
X77765000Y-106770001D02*
X77765000Y-105869999D01*
G75*
G02*
X78014999Y-105620000I249999J0D01*
G01*
X78540001Y-105620000D01*
G75*
G02*
X78790000Y-105869999I0J-249999D01*
G01*
X78790000Y-106770001D01*
G75*
G02*
X78540001Y-107020000I-249999J0D01*
G01*
X78014999Y-107020000D01*
G75*
G02*
X77765000Y-106770001I0J249999D01*
G01*
G37*
G36*
G01*
X83040000Y-102745001D02*
X83040000Y-101844999D01*
G75*
G02*
X83289999Y-101595000I249999J0D01*
G01*
X83815001Y-101595000D01*
G75*
G02*
X84065000Y-101844999I0J-249999D01*
G01*
X84065000Y-102745001D01*
G75*
G02*
X83815001Y-102995000I-249999J0D01*
G01*
X83289999Y-102995000D01*
G75*
G02*
X83040000Y-102745001I0J249999D01*
G01*
G37*
G36*
G01*
X81215000Y-102745001D02*
X81215000Y-101844999D01*
G75*
G02*
X81464999Y-101595000I249999J0D01*
G01*
X81990001Y-101595000D01*
G75*
G02*
X82240000Y-101844999I0J-249999D01*
G01*
X82240000Y-102745001D01*
G75*
G02*
X81990001Y-102995000I-249999J0D01*
G01*
X81464999Y-102995000D01*
G75*
G02*
X81215000Y-102745001I0J249999D01*
G01*
G37*
D36*
X71365000Y-97070000D03*
X71365000Y-101370000D03*
G36*
G01*
X81340000Y-111145000D02*
X80240000Y-111145000D01*
G75*
G02*
X79990000Y-110895000I0J250000D01*
G01*
X79990000Y-107895000D01*
G75*
G02*
X80240000Y-107645000I250000J0D01*
G01*
X81340000Y-107645000D01*
G75*
G02*
X81590000Y-107895000I0J-250000D01*
G01*
X81590000Y-110895000D01*
G75*
G02*
X81340000Y-111145000I-250000J0D01*
G01*
G37*
G36*
G01*
X81340000Y-116545000D02*
X80240000Y-116545000D01*
G75*
G02*
X79990000Y-116295000I0J250000D01*
G01*
X79990000Y-113295000D01*
G75*
G02*
X80240000Y-113045000I250000J0D01*
G01*
X81340000Y-113045000D01*
G75*
G02*
X81590000Y-113295000I0J-250000D01*
G01*
X81590000Y-116295000D01*
G75*
G02*
X81340000Y-116545000I-250000J0D01*
G01*
G37*
G36*
G01*
X75865000Y-102420000D02*
X75865000Y-101470000D01*
G75*
G02*
X76115000Y-101220000I250000J0D01*
G01*
X76615000Y-101220000D01*
G75*
G02*
X76865000Y-101470000I0J-250000D01*
G01*
X76865000Y-102420000D01*
G75*
G02*
X76615000Y-102670000I-250000J0D01*
G01*
X76115000Y-102670000D01*
G75*
G02*
X75865000Y-102420000I0J250000D01*
G01*
G37*
G36*
G01*
X73965000Y-102420000D02*
X73965000Y-101470000D01*
G75*
G02*
X74215000Y-101220000I250000J0D01*
G01*
X74715000Y-101220000D01*
G75*
G02*
X74965000Y-101470000I0J-250000D01*
G01*
X74965000Y-102420000D01*
G75*
G02*
X74715000Y-102670000I-250000J0D01*
G01*
X74215000Y-102670000D01*
G75*
G02*
X73965000Y-102420000I0J250000D01*
G01*
G37*
G36*
G01*
X78740000Y-101470000D02*
X78740000Y-102420000D01*
G75*
G02*
X78490000Y-102670000I-250000J0D01*
G01*
X77990000Y-102670000D01*
G75*
G02*
X77740000Y-102420000I0J250000D01*
G01*
X77740000Y-101470000D01*
G75*
G02*
X77990000Y-101220000I250000J0D01*
G01*
X78490000Y-101220000D01*
G75*
G02*
X78740000Y-101470000I0J-250000D01*
G01*
G37*
G36*
G01*
X80640000Y-101470000D02*
X80640000Y-102420000D01*
G75*
G02*
X80390000Y-102670000I-250000J0D01*
G01*
X79890000Y-102670000D01*
G75*
G02*
X79640000Y-102420000I0J250000D01*
G01*
X79640000Y-101470000D01*
G75*
G02*
X79890000Y-101220000I250000J0D01*
G01*
X80390000Y-101220000D01*
G75*
G02*
X80640000Y-101470000I0J-250000D01*
G01*
G37*
G36*
G01*
X82190000Y-103870000D02*
X82190000Y-104820000D01*
G75*
G02*
X81940000Y-105070000I-250000J0D01*
G01*
X81440000Y-105070000D01*
G75*
G02*
X81190000Y-104820000I0J250000D01*
G01*
X81190000Y-103870000D01*
G75*
G02*
X81440000Y-103620000I250000J0D01*
G01*
X81940000Y-103620000D01*
G75*
G02*
X82190000Y-103870000I0J-250000D01*
G01*
G37*
G36*
G01*
X84090000Y-103870000D02*
X84090000Y-104820000D01*
G75*
G02*
X83840000Y-105070000I-250000J0D01*
G01*
X83340000Y-105070000D01*
G75*
G02*
X83090000Y-104820000I0J250000D01*
G01*
X83090000Y-103870000D01*
G75*
G02*
X83340000Y-103620000I250000J0D01*
G01*
X83840000Y-103620000D01*
G75*
G02*
X84090000Y-103870000I0J-250000D01*
G01*
G37*
D37*
X103940000Y-111720000D03*
X86160000Y-99020000D03*
X101400000Y-111720000D03*
X88700000Y-99020000D03*
X98860000Y-111720000D03*
X91240000Y-99020000D03*
X96320000Y-111720000D03*
X93780000Y-99020000D03*
X93780000Y-111720000D03*
X96320000Y-99020000D03*
X91240000Y-111720000D03*
X98860000Y-99020000D03*
X88700000Y-111720000D03*
X101400000Y-99020000D03*
X86160000Y-111720000D03*
D11*
X103940000Y-99020000D03*
G36*
G01*
X70235000Y-87970000D02*
X69935000Y-87970000D01*
G75*
G02*
X69785000Y-87820000I0J150000D01*
G01*
X69785000Y-86370000D01*
G75*
G02*
X69935000Y-86220000I150000J0D01*
G01*
X70235000Y-86220000D01*
G75*
G02*
X70385000Y-86370000I0J-150000D01*
G01*
X70385000Y-87820000D01*
G75*
G02*
X70235000Y-87970000I-150000J0D01*
G01*
G37*
G36*
G01*
X71505000Y-87970000D02*
X71205000Y-87970000D01*
G75*
G02*
X71055000Y-87820000I0J150000D01*
G01*
X71055000Y-86370000D01*
G75*
G02*
X71205000Y-86220000I150000J0D01*
G01*
X71505000Y-86220000D01*
G75*
G02*
X71655000Y-86370000I0J-150000D01*
G01*
X71655000Y-87820000D01*
G75*
G02*
X71505000Y-87970000I-150000J0D01*
G01*
G37*
G36*
G01*
X72775000Y-87970000D02*
X72475000Y-87970000D01*
G75*
G02*
X72325000Y-87820000I0J150000D01*
G01*
X72325000Y-86370000D01*
G75*
G02*
X72475000Y-86220000I150000J0D01*
G01*
X72775000Y-86220000D01*
G75*
G02*
X72925000Y-86370000I0J-150000D01*
G01*
X72925000Y-87820000D01*
G75*
G02*
X72775000Y-87970000I-150000J0D01*
G01*
G37*
G36*
G01*
X74045000Y-87970000D02*
X73745000Y-87970000D01*
G75*
G02*
X73595000Y-87820000I0J150000D01*
G01*
X73595000Y-86370000D01*
G75*
G02*
X73745000Y-86220000I150000J0D01*
G01*
X74045000Y-86220000D01*
G75*
G02*
X74195000Y-86370000I0J-150000D01*
G01*
X74195000Y-87820000D01*
G75*
G02*
X74045000Y-87970000I-150000J0D01*
G01*
G37*
G36*
G01*
X74045000Y-93120000D02*
X73745000Y-93120000D01*
G75*
G02*
X73595000Y-92970000I0J150000D01*
G01*
X73595000Y-91520000D01*
G75*
G02*
X73745000Y-91370000I150000J0D01*
G01*
X74045000Y-91370000D01*
G75*
G02*
X74195000Y-91520000I0J-150000D01*
G01*
X74195000Y-92970000D01*
G75*
G02*
X74045000Y-93120000I-150000J0D01*
G01*
G37*
G36*
G01*
X72775000Y-93120000D02*
X72475000Y-93120000D01*
G75*
G02*
X72325000Y-92970000I0J150000D01*
G01*
X72325000Y-91520000D01*
G75*
G02*
X72475000Y-91370000I150000J0D01*
G01*
X72775000Y-91370000D01*
G75*
G02*
X72925000Y-91520000I0J-150000D01*
G01*
X72925000Y-92970000D01*
G75*
G02*
X72775000Y-93120000I-150000J0D01*
G01*
G37*
G36*
G01*
X71505000Y-93120000D02*
X71205000Y-93120000D01*
G75*
G02*
X71055000Y-92970000I0J150000D01*
G01*
X71055000Y-91520000D01*
G75*
G02*
X71205000Y-91370000I150000J0D01*
G01*
X71505000Y-91370000D01*
G75*
G02*
X71655000Y-91520000I0J-150000D01*
G01*
X71655000Y-92970000D01*
G75*
G02*
X71505000Y-93120000I-150000J0D01*
G01*
G37*
G36*
G01*
X70235000Y-93120000D02*
X69935000Y-93120000D01*
G75*
G02*
X69785000Y-92970000I0J150000D01*
G01*
X69785000Y-91520000D01*
G75*
G02*
X69935000Y-91370000I150000J0D01*
G01*
X70235000Y-91370000D01*
G75*
G02*
X70385000Y-91520000I0J-150000D01*
G01*
X70385000Y-92970000D01*
G75*
G02*
X70235000Y-93120000I-150000J0D01*
G01*
G37*
D21*
X112290000Y-94370000D03*
X114790000Y-94370000D03*
X117290000Y-94370000D03*
G36*
G01*
X120640000Y-93645000D02*
X120640000Y-95095000D01*
G75*
G02*
X120390000Y-95345000I-250000J0D01*
G01*
X119190000Y-95345000D01*
G75*
G02*
X118940000Y-95095000I0J250000D01*
G01*
X118940000Y-93645000D01*
G75*
G02*
X119190000Y-93395000I250000J0D01*
G01*
X120390000Y-93395000D01*
G75*
G02*
X120640000Y-93645000I0J-250000D01*
G01*
G37*
X133290000Y-94420000D03*
X135790000Y-94420000D03*
X138290000Y-94420000D03*
G36*
G01*
X141640000Y-93695000D02*
X141640000Y-95145000D01*
G75*
G02*
X141390000Y-95395000I-250000J0D01*
G01*
X140190000Y-95395000D01*
G75*
G02*
X139940000Y-95145000I0J250000D01*
G01*
X139940000Y-93695000D01*
G75*
G02*
X140190000Y-93445000I250000J0D01*
G01*
X141390000Y-93445000D01*
G75*
G02*
X141640000Y-93695000I0J-250000D01*
G01*
G37*
X91340000Y-94420000D03*
X93840000Y-94420000D03*
X96340000Y-94420000D03*
G36*
G01*
X99690000Y-93695000D02*
X99690000Y-95145000D01*
G75*
G02*
X99440000Y-95395000I-250000J0D01*
G01*
X98240000Y-95395000D01*
G75*
G02*
X97990000Y-95145000I0J250000D01*
G01*
X97990000Y-93695000D01*
G75*
G02*
X98240000Y-93445000I250000J0D01*
G01*
X99440000Y-93445000D01*
G75*
G02*
X99690000Y-93695000I0J-250000D01*
G01*
G37*
G36*
G01*
X82890001Y-78470000D02*
X81989999Y-78470000D01*
G75*
G02*
X81740000Y-78220001I0J249999D01*
G01*
X81740000Y-77694999D01*
G75*
G02*
X81989999Y-77445000I249999J0D01*
G01*
X82890001Y-77445000D01*
G75*
G02*
X83140000Y-77694999I0J-249999D01*
G01*
X83140000Y-78220001D01*
G75*
G02*
X82890001Y-78470000I-249999J0D01*
G01*
G37*
G36*
G01*
X82890001Y-80295000D02*
X81989999Y-80295000D01*
G75*
G02*
X81740000Y-80045001I0J249999D01*
G01*
X81740000Y-79519999D01*
G75*
G02*
X81989999Y-79270000I249999J0D01*
G01*
X82890001Y-79270000D01*
G75*
G02*
X83140000Y-79519999I0J-249999D01*
G01*
X83140000Y-80045001D01*
G75*
G02*
X82890001Y-80295000I-249999J0D01*
G01*
G37*
D38*
X73990000Y-77420000D03*
D39*
X73990000Y-82420000D03*
D25*
X158940000Y-70770000D03*
X81790000Y-75920000D03*
G36*
G01*
X81983750Y-83020000D02*
X82896250Y-83020000D01*
G75*
G02*
X83140000Y-83263750I0J-243750D01*
G01*
X83140000Y-83751250D01*
G75*
G02*
X82896250Y-83995000I-243750J0D01*
G01*
X81983750Y-83995000D01*
G75*
G02*
X81740000Y-83751250I0J243750D01*
G01*
X81740000Y-83263750D01*
G75*
G02*
X81983750Y-83020000I243750J0D01*
G01*
G37*
G36*
G01*
X81983750Y-81145000D02*
X82896250Y-81145000D01*
G75*
G02*
X83140000Y-81388750I0J-243750D01*
G01*
X83140000Y-81876250D01*
G75*
G02*
X82896250Y-82120000I-243750J0D01*
G01*
X81983750Y-82120000D01*
G75*
G02*
X81740000Y-81876250I0J243750D01*
G01*
X81740000Y-81388750D01*
G75*
G02*
X81983750Y-81145000I243750J0D01*
G01*
G37*
G36*
G01*
X80540000Y-90220000D02*
X80540000Y-89120000D01*
G75*
G02*
X80790000Y-88870000I250000J0D01*
G01*
X83790000Y-88870000D01*
G75*
G02*
X84040000Y-89120000I0J-250000D01*
G01*
X84040000Y-90220000D01*
G75*
G02*
X83790000Y-90470000I-250000J0D01*
G01*
X80790000Y-90470000D01*
G75*
G02*
X80540000Y-90220000I0J250000D01*
G01*
G37*
G36*
G01*
X75140000Y-90220000D02*
X75140000Y-89120000D01*
G75*
G02*
X75390000Y-88870000I250000J0D01*
G01*
X78390000Y-88870000D01*
G75*
G02*
X78640000Y-89120000I0J-250000D01*
G01*
X78640000Y-90220000D01*
G75*
G02*
X78390000Y-90470000I-250000J0D01*
G01*
X75390000Y-90470000D01*
G75*
G02*
X75140000Y-90220000I0J250000D01*
G01*
G37*
G36*
G01*
X90315000Y-109370001D02*
X90315000Y-108469999D01*
G75*
G02*
X90564999Y-108220000I249999J0D01*
G01*
X91090001Y-108220000D01*
G75*
G02*
X91340000Y-108469999I0J-249999D01*
G01*
X91340000Y-109370001D01*
G75*
G02*
X91090001Y-109620000I-249999J0D01*
G01*
X90564999Y-109620000D01*
G75*
G02*
X90315000Y-109370001I0J249999D01*
G01*
G37*
G36*
G01*
X92140000Y-109370001D02*
X92140000Y-108469999D01*
G75*
G02*
X92389999Y-108220000I249999J0D01*
G01*
X92915001Y-108220000D01*
G75*
G02*
X93165000Y-108469999I0J-249999D01*
G01*
X93165000Y-109370001D01*
G75*
G02*
X92915001Y-109620000I-249999J0D01*
G01*
X92389999Y-109620000D01*
G75*
G02*
X92140000Y-109370001I0J249999D01*
G01*
G37*
D23*
X103700000Y-102010000D03*
D22*
X103700000Y-104550000D03*
X103700000Y-107090000D03*
G36*
G01*
X84690000Y-104770000D02*
X84690000Y-103670000D01*
G75*
G02*
X84940000Y-103420000I250000J0D01*
G01*
X87940000Y-103420000D01*
G75*
G02*
X88190000Y-103670000I0J-250000D01*
G01*
X88190000Y-104770000D01*
G75*
G02*
X87940000Y-105020000I-250000J0D01*
G01*
X84940000Y-105020000D01*
G75*
G02*
X84690000Y-104770000I0J250000D01*
G01*
G37*
G36*
G01*
X90090000Y-104770000D02*
X90090000Y-103670000D01*
G75*
G02*
X90340000Y-103420000I250000J0D01*
G01*
X93340000Y-103420000D01*
G75*
G02*
X93590000Y-103670000I0J-250000D01*
G01*
X93590000Y-104770000D01*
G75*
G02*
X93340000Y-105020000I-250000J0D01*
G01*
X90340000Y-105020000D01*
G75*
G02*
X90090000Y-104770000I0J250000D01*
G01*
G37*
D23*
X98140000Y-102010000D03*
D22*
X98140000Y-104550000D03*
X98140000Y-107090000D03*
D23*
X95340000Y-102010000D03*
D22*
X95340000Y-104550000D03*
X95340000Y-107090000D03*
D23*
X100940000Y-102010000D03*
D22*
X100940000Y-104550000D03*
X100940000Y-107090000D03*
G36*
G01*
X111415000Y-109470001D02*
X111415000Y-108569999D01*
G75*
G02*
X111664999Y-108320000I249999J0D01*
G01*
X112190001Y-108320000D01*
G75*
G02*
X112440000Y-108569999I0J-249999D01*
G01*
X112440000Y-109470001D01*
G75*
G02*
X112190001Y-109720000I-249999J0D01*
G01*
X111664999Y-109720000D01*
G75*
G02*
X111415000Y-109470001I0J249999D01*
G01*
G37*
G36*
G01*
X113240000Y-109470001D02*
X113240000Y-108569999D01*
G75*
G02*
X113489999Y-108320000I249999J0D01*
G01*
X114015001Y-108320000D01*
G75*
G02*
X114265000Y-108569999I0J-249999D01*
G01*
X114265000Y-109470001D01*
G75*
G02*
X114015001Y-109720000I-249999J0D01*
G01*
X113489999Y-109720000D01*
G75*
G02*
X113240000Y-109470001I0J249999D01*
G01*
G37*
D23*
X124800000Y-102110000D03*
D22*
X124800000Y-104650000D03*
X124800000Y-107190000D03*
G36*
G01*
X105790000Y-104870000D02*
X105790000Y-103770000D01*
G75*
G02*
X106040000Y-103520000I250000J0D01*
G01*
X109040000Y-103520000D01*
G75*
G02*
X109290000Y-103770000I0J-250000D01*
G01*
X109290000Y-104870000D01*
G75*
G02*
X109040000Y-105120000I-250000J0D01*
G01*
X106040000Y-105120000D01*
G75*
G02*
X105790000Y-104870000I0J250000D01*
G01*
G37*
G36*
G01*
X111190000Y-104870000D02*
X111190000Y-103770000D01*
G75*
G02*
X111440000Y-103520000I250000J0D01*
G01*
X114440000Y-103520000D01*
G75*
G02*
X114690000Y-103770000I0J-250000D01*
G01*
X114690000Y-104870000D01*
G75*
G02*
X114440000Y-105120000I-250000J0D01*
G01*
X111440000Y-105120000D01*
G75*
G02*
X111190000Y-104870000I0J250000D01*
G01*
G37*
D23*
X119240000Y-102110000D03*
D22*
X119240000Y-104650000D03*
X119240000Y-107190000D03*
D23*
X116440000Y-102110000D03*
D22*
X116440000Y-104650000D03*
X116440000Y-107190000D03*
D23*
X122040000Y-102110000D03*
D22*
X122040000Y-104650000D03*
X122040000Y-107190000D03*
G36*
G01*
X153415000Y-109470001D02*
X153415000Y-108569999D01*
G75*
G02*
X153664999Y-108320000I249999J0D01*
G01*
X154190001Y-108320000D01*
G75*
G02*
X154440000Y-108569999I0J-249999D01*
G01*
X154440000Y-109470001D01*
G75*
G02*
X154190001Y-109720000I-249999J0D01*
G01*
X153664999Y-109720000D01*
G75*
G02*
X153415000Y-109470001I0J249999D01*
G01*
G37*
G36*
G01*
X155240000Y-109470001D02*
X155240000Y-108569999D01*
G75*
G02*
X155489999Y-108320000I249999J0D01*
G01*
X156015001Y-108320000D01*
G75*
G02*
X156265000Y-108569999I0J-249999D01*
G01*
X156265000Y-109470001D01*
G75*
G02*
X156015001Y-109720000I-249999J0D01*
G01*
X155489999Y-109720000D01*
G75*
G02*
X155240000Y-109470001I0J249999D01*
G01*
G37*
D23*
X166800000Y-102110000D03*
D22*
X166800000Y-104650000D03*
X166800000Y-107190000D03*
G36*
G01*
X147790000Y-104870000D02*
X147790000Y-103770000D01*
G75*
G02*
X148040000Y-103520000I250000J0D01*
G01*
X151040000Y-103520000D01*
G75*
G02*
X151290000Y-103770000I0J-250000D01*
G01*
X151290000Y-104870000D01*
G75*
G02*
X151040000Y-105120000I-250000J0D01*
G01*
X148040000Y-105120000D01*
G75*
G02*
X147790000Y-104870000I0J250000D01*
G01*
G37*
G36*
G01*
X153190000Y-104870000D02*
X153190000Y-103770000D01*
G75*
G02*
X153440000Y-103520000I250000J0D01*
G01*
X156440000Y-103520000D01*
G75*
G02*
X156690000Y-103770000I0J-250000D01*
G01*
X156690000Y-104870000D01*
G75*
G02*
X156440000Y-105120000I-250000J0D01*
G01*
X153440000Y-105120000D01*
G75*
G02*
X153190000Y-104870000I0J250000D01*
G01*
G37*
D23*
X161240000Y-102110000D03*
D22*
X161240000Y-104650000D03*
X161240000Y-107190000D03*
D23*
X158440000Y-102110000D03*
D22*
X158440000Y-104650000D03*
X158440000Y-107190000D03*
D23*
X164040000Y-102110000D03*
D22*
X164040000Y-104650000D03*
X164040000Y-107190000D03*
G36*
G01*
X132415000Y-109470001D02*
X132415000Y-108569999D01*
G75*
G02*
X132664999Y-108320000I249999J0D01*
G01*
X133190001Y-108320000D01*
G75*
G02*
X133440000Y-108569999I0J-249999D01*
G01*
X133440000Y-109470001D01*
G75*
G02*
X133190001Y-109720000I-249999J0D01*
G01*
X132664999Y-109720000D01*
G75*
G02*
X132415000Y-109470001I0J249999D01*
G01*
G37*
G36*
G01*
X134240000Y-109470001D02*
X134240000Y-108569999D01*
G75*
G02*
X134489999Y-108320000I249999J0D01*
G01*
X135015001Y-108320000D01*
G75*
G02*
X135265000Y-108569999I0J-249999D01*
G01*
X135265000Y-109470001D01*
G75*
G02*
X135015001Y-109720000I-249999J0D01*
G01*
X134489999Y-109720000D01*
G75*
G02*
X134240000Y-109470001I0J249999D01*
G01*
G37*
D23*
X145800000Y-102110000D03*
D22*
X145800000Y-104650000D03*
X145800000Y-107190000D03*
G36*
G01*
X126790000Y-104870000D02*
X126790000Y-103770000D01*
G75*
G02*
X127040000Y-103520000I250000J0D01*
G01*
X130040000Y-103520000D01*
G75*
G02*
X130290000Y-103770000I0J-250000D01*
G01*
X130290000Y-104870000D01*
G75*
G02*
X130040000Y-105120000I-250000J0D01*
G01*
X127040000Y-105120000D01*
G75*
G02*
X126790000Y-104870000I0J250000D01*
G01*
G37*
G36*
G01*
X132190000Y-104870000D02*
X132190000Y-103770000D01*
G75*
G02*
X132440000Y-103520000I250000J0D01*
G01*
X135440000Y-103520000D01*
G75*
G02*
X135690000Y-103770000I0J-250000D01*
G01*
X135690000Y-104870000D01*
G75*
G02*
X135440000Y-105120000I-250000J0D01*
G01*
X132440000Y-105120000D01*
G75*
G02*
X132190000Y-104870000I0J250000D01*
G01*
G37*
D23*
X140240000Y-102110000D03*
D22*
X140240000Y-104650000D03*
X140240000Y-107190000D03*
D23*
X137440000Y-102110000D03*
D22*
X137440000Y-104650000D03*
X137440000Y-107190000D03*
D23*
X143040000Y-102110000D03*
D22*
X143040000Y-104650000D03*
X143040000Y-107190000D03*
G36*
G01*
X153415000Y-86470001D02*
X153415000Y-85569999D01*
G75*
G02*
X153664999Y-85320000I249999J0D01*
G01*
X154190001Y-85320000D01*
G75*
G02*
X154440000Y-85569999I0J-249999D01*
G01*
X154440000Y-86470001D01*
G75*
G02*
X154190001Y-86720000I-249999J0D01*
G01*
X153664999Y-86720000D01*
G75*
G02*
X153415000Y-86470001I0J249999D01*
G01*
G37*
G36*
G01*
X155240000Y-86470001D02*
X155240000Y-85569999D01*
G75*
G02*
X155489999Y-85320000I249999J0D01*
G01*
X156015001Y-85320000D01*
G75*
G02*
X156265000Y-85569999I0J-249999D01*
G01*
X156265000Y-86470001D01*
G75*
G02*
X156015001Y-86720000I-249999J0D01*
G01*
X155489999Y-86720000D01*
G75*
G02*
X155240000Y-86470001I0J249999D01*
G01*
G37*
D23*
X166800000Y-79110000D03*
D22*
X166800000Y-81650000D03*
X166800000Y-84190000D03*
G36*
G01*
X147790000Y-81870000D02*
X147790000Y-80770000D01*
G75*
G02*
X148040000Y-80520000I250000J0D01*
G01*
X151040000Y-80520000D01*
G75*
G02*
X151290000Y-80770000I0J-250000D01*
G01*
X151290000Y-81870000D01*
G75*
G02*
X151040000Y-82120000I-250000J0D01*
G01*
X148040000Y-82120000D01*
G75*
G02*
X147790000Y-81870000I0J250000D01*
G01*
G37*
G36*
G01*
X153190000Y-81870000D02*
X153190000Y-80770000D01*
G75*
G02*
X153440000Y-80520000I250000J0D01*
G01*
X156440000Y-80520000D01*
G75*
G02*
X156690000Y-80770000I0J-250000D01*
G01*
X156690000Y-81870000D01*
G75*
G02*
X156440000Y-82120000I-250000J0D01*
G01*
X153440000Y-82120000D01*
G75*
G02*
X153190000Y-81870000I0J250000D01*
G01*
G37*
D23*
X161240000Y-79110000D03*
D22*
X161240000Y-81650000D03*
X161240000Y-84190000D03*
D23*
X158440000Y-79110000D03*
D22*
X158440000Y-81650000D03*
X158440000Y-84190000D03*
D23*
X164040000Y-79110000D03*
D22*
X164040000Y-81650000D03*
X164040000Y-84190000D03*
G36*
G01*
X132515000Y-86470001D02*
X132515000Y-85569999D01*
G75*
G02*
X132764999Y-85320000I249999J0D01*
G01*
X133290001Y-85320000D01*
G75*
G02*
X133540000Y-85569999I0J-249999D01*
G01*
X133540000Y-86470001D01*
G75*
G02*
X133290001Y-86720000I-249999J0D01*
G01*
X132764999Y-86720000D01*
G75*
G02*
X132515000Y-86470001I0J249999D01*
G01*
G37*
G36*
G01*
X134340000Y-86470001D02*
X134340000Y-85569999D01*
G75*
G02*
X134589999Y-85320000I249999J0D01*
G01*
X135115001Y-85320000D01*
G75*
G02*
X135365000Y-85569999I0J-249999D01*
G01*
X135365000Y-86470001D01*
G75*
G02*
X135115001Y-86720000I-249999J0D01*
G01*
X134589999Y-86720000D01*
G75*
G02*
X134340000Y-86470001I0J249999D01*
G01*
G37*
D23*
X145900000Y-79110000D03*
D22*
X145900000Y-81650000D03*
X145900000Y-84190000D03*
G36*
G01*
X126890000Y-81870000D02*
X126890000Y-80770000D01*
G75*
G02*
X127140000Y-80520000I250000J0D01*
G01*
X130140000Y-80520000D01*
G75*
G02*
X130390000Y-80770000I0J-250000D01*
G01*
X130390000Y-81870000D01*
G75*
G02*
X130140000Y-82120000I-250000J0D01*
G01*
X127140000Y-82120000D01*
G75*
G02*
X126890000Y-81870000I0J250000D01*
G01*
G37*
G36*
G01*
X132290000Y-81870000D02*
X132290000Y-80770000D01*
G75*
G02*
X132540000Y-80520000I250000J0D01*
G01*
X135540000Y-80520000D01*
G75*
G02*
X135790000Y-80770000I0J-250000D01*
G01*
X135790000Y-81870000D01*
G75*
G02*
X135540000Y-82120000I-250000J0D01*
G01*
X132540000Y-82120000D01*
G75*
G02*
X132290000Y-81870000I0J250000D01*
G01*
G37*
D23*
X140340000Y-79110000D03*
D22*
X140340000Y-81650000D03*
X140340000Y-84190000D03*
D23*
X137540000Y-79110000D03*
D22*
X137540000Y-81650000D03*
X137540000Y-84190000D03*
D23*
X143140000Y-79110000D03*
D22*
X143140000Y-81650000D03*
X143140000Y-84190000D03*
G36*
G01*
X90415000Y-86470001D02*
X90415000Y-85569999D01*
G75*
G02*
X90664999Y-85320000I249999J0D01*
G01*
X91190001Y-85320000D01*
G75*
G02*
X91440000Y-85569999I0J-249999D01*
G01*
X91440000Y-86470001D01*
G75*
G02*
X91190001Y-86720000I-249999J0D01*
G01*
X90664999Y-86720000D01*
G75*
G02*
X90415000Y-86470001I0J249999D01*
G01*
G37*
G36*
G01*
X92240000Y-86470001D02*
X92240000Y-85569999D01*
G75*
G02*
X92489999Y-85320000I249999J0D01*
G01*
X93015001Y-85320000D01*
G75*
G02*
X93265000Y-85569999I0J-249999D01*
G01*
X93265000Y-86470001D01*
G75*
G02*
X93015001Y-86720000I-249999J0D01*
G01*
X92489999Y-86720000D01*
G75*
G02*
X92240000Y-86470001I0J249999D01*
G01*
G37*
D23*
X103800000Y-79110000D03*
D22*
X103800000Y-81650000D03*
X103800000Y-84190000D03*
G36*
G01*
X84790000Y-81870000D02*
X84790000Y-80770000D01*
G75*
G02*
X85040000Y-80520000I250000J0D01*
G01*
X88040000Y-80520000D01*
G75*
G02*
X88290000Y-80770000I0J-250000D01*
G01*
X88290000Y-81870000D01*
G75*
G02*
X88040000Y-82120000I-250000J0D01*
G01*
X85040000Y-82120000D01*
G75*
G02*
X84790000Y-81870000I0J250000D01*
G01*
G37*
G36*
G01*
X90190000Y-81870000D02*
X90190000Y-80770000D01*
G75*
G02*
X90440000Y-80520000I250000J0D01*
G01*
X93440000Y-80520000D01*
G75*
G02*
X93690000Y-80770000I0J-250000D01*
G01*
X93690000Y-81870000D01*
G75*
G02*
X93440000Y-82120000I-250000J0D01*
G01*
X90440000Y-82120000D01*
G75*
G02*
X90190000Y-81870000I0J250000D01*
G01*
G37*
D23*
X98240000Y-79110000D03*
D22*
X98240000Y-81650000D03*
X98240000Y-84190000D03*
D23*
X95440000Y-79110000D03*
D22*
X95440000Y-81650000D03*
X95440000Y-84190000D03*
D23*
X101040000Y-79110000D03*
D22*
X101040000Y-81650000D03*
X101040000Y-84190000D03*
G36*
G01*
X113340000Y-86470001D02*
X113340000Y-85569999D01*
G75*
G02*
X113589999Y-85320000I249999J0D01*
G01*
X114115001Y-85320000D01*
G75*
G02*
X114365000Y-85569999I0J-249999D01*
G01*
X114365000Y-86470001D01*
G75*
G02*
X114115001Y-86720000I-249999J0D01*
G01*
X113589999Y-86720000D01*
G75*
G02*
X113340000Y-86470001I0J249999D01*
G01*
G37*
G36*
G01*
X111515000Y-86470001D02*
X111515000Y-85569999D01*
G75*
G02*
X111764999Y-85320000I249999J0D01*
G01*
X112290001Y-85320000D01*
G75*
G02*
X112540000Y-85569999I0J-249999D01*
G01*
X112540000Y-86470001D01*
G75*
G02*
X112290001Y-86720000I-249999J0D01*
G01*
X111764999Y-86720000D01*
G75*
G02*
X111515000Y-86470001I0J249999D01*
G01*
G37*
D21*
X146690000Y-70270000D03*
X149190000Y-70270000D03*
X151690000Y-70270000D03*
G36*
G01*
X155040000Y-69545000D02*
X155040000Y-70995000D01*
G75*
G02*
X154790000Y-71245000I-250000J0D01*
G01*
X153590000Y-71245000D01*
G75*
G02*
X153340000Y-70995000I0J250000D01*
G01*
X153340000Y-69545000D01*
G75*
G02*
X153590000Y-69295000I250000J0D01*
G01*
X154790000Y-69295000D01*
G75*
G02*
X155040000Y-69545000I0J-250000D01*
G01*
G37*
D22*
X124900000Y-84190000D03*
X124900000Y-81650000D03*
D23*
X124900000Y-79110000D03*
D22*
X119340000Y-84190000D03*
X119340000Y-81650000D03*
D23*
X119340000Y-79110000D03*
D22*
X122140000Y-84190000D03*
X122140000Y-81650000D03*
D23*
X122140000Y-79110000D03*
D22*
X116540000Y-84190000D03*
X116540000Y-81650000D03*
D23*
X116540000Y-79110000D03*
G36*
G01*
X111290000Y-81870000D02*
X111290000Y-80770000D01*
G75*
G02*
X111540000Y-80520000I250000J0D01*
G01*
X114540000Y-80520000D01*
G75*
G02*
X114790000Y-80770000I0J-250000D01*
G01*
X114790000Y-81870000D01*
G75*
G02*
X114540000Y-82120000I-250000J0D01*
G01*
X111540000Y-82120000D01*
G75*
G02*
X111290000Y-81870000I0J250000D01*
G01*
G37*
G36*
G01*
X105890000Y-81870000D02*
X105890000Y-80770000D01*
G75*
G02*
X106140000Y-80520000I250000J0D01*
G01*
X109140000Y-80520000D01*
G75*
G02*
X109390000Y-80770000I0J-250000D01*
G01*
X109390000Y-81870000D01*
G75*
G02*
X109140000Y-82120000I-250000J0D01*
G01*
X106140000Y-82120000D01*
G75*
G02*
X105890000Y-81870000I0J250000D01*
G01*
G37*
D21*
X154290000Y-94420000D03*
X156790000Y-94420000D03*
X159290000Y-94420000D03*
G36*
G01*
X162640000Y-93695000D02*
X162640000Y-95145000D01*
G75*
G02*
X162390000Y-95395000I-250000J0D01*
G01*
X161190000Y-95395000D01*
G75*
G02*
X160940000Y-95145000I0J250000D01*
G01*
X160940000Y-93695000D01*
G75*
G02*
X161190000Y-93445000I250000J0D01*
G01*
X162390000Y-93445000D01*
G75*
G02*
X162640000Y-93695000I0J-250000D01*
G01*
G37*
X81315000Y-70145000D03*
X83815000Y-70145000D03*
X86315000Y-70145000D03*
G36*
G01*
X89665000Y-69420000D02*
X89665000Y-70870000D01*
G75*
G02*
X89415000Y-71120000I-250000J0D01*
G01*
X88215000Y-71120000D01*
G75*
G02*
X87965000Y-70870000I0J250000D01*
G01*
X87965000Y-69420000D01*
G75*
G02*
X88215000Y-69170000I250000J0D01*
G01*
X89415000Y-69170000D01*
G75*
G02*
X89665000Y-69420000I0J-250000D01*
G01*
G37*
X129890000Y-70170000D03*
X132390000Y-70170000D03*
X134890000Y-70170000D03*
G36*
G01*
X138240000Y-69445000D02*
X138240000Y-70895000D01*
G75*
G02*
X137990000Y-71145000I-250000J0D01*
G01*
X136790000Y-71145000D01*
G75*
G02*
X136540000Y-70895000I0J250000D01*
G01*
X136540000Y-69445000D01*
G75*
G02*
X136790000Y-69195000I250000J0D01*
G01*
X137990000Y-69195000D01*
G75*
G02*
X138240000Y-69445000I0J-250000D01*
G01*
G37*
X98365000Y-70145000D03*
X100865000Y-70145000D03*
X103365000Y-70145000D03*
G36*
G01*
X106715000Y-69420000D02*
X106715000Y-70870000D01*
G75*
G02*
X106465000Y-71120000I-250000J0D01*
G01*
X105265000Y-71120000D01*
G75*
G02*
X105015000Y-70870000I0J250000D01*
G01*
X105015000Y-69420000D01*
G75*
G02*
X105265000Y-69170000I250000J0D01*
G01*
X106465000Y-69170000D01*
G75*
G02*
X106715000Y-69420000I0J-250000D01*
G01*
G37*
X112365000Y-70145000D03*
X114865000Y-70145000D03*
X117365000Y-70145000D03*
G36*
G01*
X120715000Y-69420000D02*
X120715000Y-70870000D01*
G75*
G02*
X120465000Y-71120000I-250000J0D01*
G01*
X119265000Y-71120000D01*
G75*
G02*
X119015000Y-70870000I0J250000D01*
G01*
X119015000Y-69420000D01*
G75*
G02*
X119265000Y-69170000I250000J0D01*
G01*
X120465000Y-69170000D01*
G75*
G02*
X120715000Y-69420000I0J-250000D01*
G01*
G37*
D37*
X166940000Y-88720000D03*
X149160000Y-76020000D03*
X164400000Y-88720000D03*
X151700000Y-76020000D03*
X161860000Y-88720000D03*
X154240000Y-76020000D03*
X159320000Y-88720000D03*
X156780000Y-76020000D03*
X156780000Y-88720000D03*
X159320000Y-76020000D03*
X154240000Y-88720000D03*
X161860000Y-76020000D03*
X151700000Y-88720000D03*
X164400000Y-76020000D03*
X149160000Y-88720000D03*
D11*
X166940000Y-76020000D03*
D37*
X166940000Y-111720000D03*
X149160000Y-99020000D03*
X164400000Y-111720000D03*
X151700000Y-99020000D03*
X161860000Y-111720000D03*
X154240000Y-99020000D03*
X159320000Y-111720000D03*
X156780000Y-99020000D03*
X156780000Y-111720000D03*
X159320000Y-99020000D03*
X154240000Y-111720000D03*
X161860000Y-99020000D03*
X151700000Y-111720000D03*
X164400000Y-99020000D03*
X149160000Y-111720000D03*
D11*
X166940000Y-99020000D03*
D37*
X124940000Y-111720000D03*
X107160000Y-99020000D03*
X122400000Y-111720000D03*
X109700000Y-99020000D03*
X119860000Y-111720000D03*
X112240000Y-99020000D03*
X117320000Y-111720000D03*
X114780000Y-99020000D03*
X114780000Y-111720000D03*
X117320000Y-99020000D03*
X112240000Y-111720000D03*
X119860000Y-99020000D03*
X109700000Y-111720000D03*
X122400000Y-99020000D03*
X107160000Y-111720000D03*
D11*
X124940000Y-99020000D03*
D37*
X103940000Y-88720000D03*
X86160000Y-76020000D03*
X101400000Y-88720000D03*
X88700000Y-76020000D03*
X98860000Y-88720000D03*
X91240000Y-76020000D03*
X96320000Y-88720000D03*
X93780000Y-76020000D03*
X93780000Y-88720000D03*
X96320000Y-76020000D03*
X91240000Y-88720000D03*
X98860000Y-76020000D03*
X88700000Y-88720000D03*
X101400000Y-76020000D03*
X86160000Y-88720000D03*
D11*
X103940000Y-76020000D03*
D37*
X145940000Y-88720000D03*
X128160000Y-76020000D03*
X143400000Y-88720000D03*
X130700000Y-76020000D03*
X140860000Y-88720000D03*
X133240000Y-76020000D03*
X138320000Y-88720000D03*
X135780000Y-76020000D03*
X135780000Y-88720000D03*
X138320000Y-76020000D03*
X133240000Y-88720000D03*
X140860000Y-76020000D03*
X130700000Y-88720000D03*
X143400000Y-76020000D03*
X128160000Y-88720000D03*
D11*
X145940000Y-76020000D03*
D37*
X145940000Y-111720000D03*
X128160000Y-99020000D03*
X143400000Y-111720000D03*
X130700000Y-99020000D03*
X140860000Y-111720000D03*
X133240000Y-99020000D03*
X138320000Y-111720000D03*
X135780000Y-99020000D03*
X135780000Y-111720000D03*
X138320000Y-99020000D03*
X133240000Y-111720000D03*
X140860000Y-99020000D03*
X130700000Y-111720000D03*
X143400000Y-99020000D03*
X128160000Y-111720000D03*
D11*
X145940000Y-99020000D03*
D37*
X124940000Y-88720000D03*
X107160000Y-76020000D03*
X122400000Y-88720000D03*
X109700000Y-76020000D03*
X119860000Y-88720000D03*
X112240000Y-76020000D03*
X117320000Y-88720000D03*
X114780000Y-76020000D03*
X114780000Y-88720000D03*
X117320000Y-76020000D03*
X112240000Y-88720000D03*
X119860000Y-76020000D03*
X109700000Y-88720000D03*
X122400000Y-76020000D03*
X107160000Y-88720000D03*
D11*
X124940000Y-76020000D03*
D40*
X74020000Y-71030000D03*
X74020000Y-161030000D03*
X164020000Y-71030000D03*
X164020000Y-161030000D03*
M02*
