G04 #@! TF.GenerationSoftware,KiCad,Pcbnew,5.1.9+dfsg1-1~bpo10+1*
G04 #@! TF.CreationDate,2021-03-07T11:43:46+00:00*
G04 #@! TF.ProjectId,mobo,6d6f626f-2e6b-4696-9361-645f70636258,rev?*
G04 #@! TF.SameCoordinates,Original*
G04 #@! TF.FileFunction,Soldermask,Top*
G04 #@! TF.FilePolarity,Negative*
%FSLAX46Y46*%
G04 Gerber Fmt 4.6, Leading zero omitted, Abs format (unit mm)*
G04 Created by KiCad (PCBNEW 5.1.9+dfsg1-1~bpo10+1) date 2021-03-07 11:43:46*
%MOMM*%
%LPD*%
G01*
G04 APERTURE LIST*
%ADD10C,1.600000*%
%ADD11R,1.600000X1.600000*%
%ADD12C,3.000000*%
%ADD13O,2.000000X1.700000*%
%ADD14R,1.200000X1.400000*%
%ADD15C,0.100000*%
%ADD16O,1.950000X1.700000*%
%ADD17O,1.700000X1.700000*%
%ADD18R,1.700000X1.700000*%
%ADD19R,0.740000X2.400000*%
%ADD20C,1.000000*%
%ADD21C,2.000000*%
%ADD22R,2.000000X2.000000*%
%ADD23C,1.700000*%
%ADD24O,1.700000X1.950000*%
%ADD25O,1.700000X2.000000*%
%ADD26R,1.500000X2.000000*%
%ADD27R,3.800000X2.000000*%
%ADD28C,4.200000*%
%ADD29R,0.900000X0.800000*%
%ADD30R,0.800000X0.900000*%
%ADD31R,1.160000X0.600000*%
%ADD32C,0.600000*%
%ADD33R,1.160000X0.300000*%
%ADD34O,1.700000X0.900000*%
%ADD35O,2.000000X0.900000*%
%ADD36R,1.100000X1.100000*%
%ADD37R,2.000000X3.400000*%
%ADD38R,1.550000X0.600000*%
%ADD39R,2.600000X3.100000*%
%ADD40R,2.300000X2.500000*%
%ADD41O,1.600000X1.600000*%
%ADD42R,2.600000X2.600000*%
%ADD43C,2.600000*%
%ADD44C,5.600000*%
G04 APERTURE END LIST*
D10*
X164190000Y-135350000D03*
X164190000Y-137850000D03*
X164190000Y-139850000D03*
D11*
X164190000Y-142350000D03*
D12*
X166900000Y-145420000D03*
X166900000Y-132280000D03*
D13*
X123670000Y-162820000D03*
G36*
G01*
X122920000Y-159470000D02*
X124420000Y-159470000D01*
G75*
G02*
X124670000Y-159720000I0J-250000D01*
G01*
X124670000Y-160920000D01*
G75*
G02*
X124420000Y-161170000I-250000J0D01*
G01*
X122920000Y-161170000D01*
G75*
G02*
X122670000Y-160920000I0J250000D01*
G01*
X122670000Y-159720000D01*
G75*
G02*
X122920000Y-159470000I250000J0D01*
G01*
G37*
X116770000Y-162800000D03*
G36*
G01*
X116020000Y-159450000D02*
X117520000Y-159450000D01*
G75*
G02*
X117770000Y-159700000I0J-250000D01*
G01*
X117770000Y-160900000D01*
G75*
G02*
X117520000Y-161150000I-250000J0D01*
G01*
X116020000Y-161150000D01*
G75*
G02*
X115770000Y-160900000I0J250000D01*
G01*
X115770000Y-159700000D01*
G75*
G02*
X116020000Y-159450000I250000J0D01*
G01*
G37*
D14*
X116700000Y-139280000D03*
X116700000Y-141480000D03*
X115000000Y-141480000D03*
X115000000Y-139280000D03*
G36*
G01*
X160420000Y-139585000D02*
X160420000Y-139285000D01*
G75*
G02*
X160570000Y-139135000I150000J0D01*
G01*
X162220000Y-139135000D01*
G75*
G02*
X162370000Y-139285000I0J-150000D01*
G01*
X162370000Y-139585000D01*
G75*
G02*
X162220000Y-139735000I-150000J0D01*
G01*
X160570000Y-139735000D01*
G75*
G02*
X160420000Y-139585000I0J150000D01*
G01*
G37*
G36*
G01*
X160420000Y-140855000D02*
X160420000Y-140555000D01*
G75*
G02*
X160570000Y-140405000I150000J0D01*
G01*
X162220000Y-140405000D01*
G75*
G02*
X162370000Y-140555000I0J-150000D01*
G01*
X162370000Y-140855000D01*
G75*
G02*
X162220000Y-141005000I-150000J0D01*
G01*
X160570000Y-141005000D01*
G75*
G02*
X160420000Y-140855000I0J150000D01*
G01*
G37*
G36*
G01*
X160420000Y-142125000D02*
X160420000Y-141825000D01*
G75*
G02*
X160570000Y-141675000I150000J0D01*
G01*
X162220000Y-141675000D01*
G75*
G02*
X162370000Y-141825000I0J-150000D01*
G01*
X162370000Y-142125000D01*
G75*
G02*
X162220000Y-142275000I-150000J0D01*
G01*
X160570000Y-142275000D01*
G75*
G02*
X160420000Y-142125000I0J150000D01*
G01*
G37*
G36*
G01*
X160420000Y-143395000D02*
X160420000Y-143095000D01*
G75*
G02*
X160570000Y-142945000I150000J0D01*
G01*
X162220000Y-142945000D01*
G75*
G02*
X162370000Y-143095000I0J-150000D01*
G01*
X162370000Y-143395000D01*
G75*
G02*
X162220000Y-143545000I-150000J0D01*
G01*
X160570000Y-143545000D01*
G75*
G02*
X160420000Y-143395000I0J150000D01*
G01*
G37*
G36*
G01*
X155470000Y-143395000D02*
X155470000Y-143095000D01*
G75*
G02*
X155620000Y-142945000I150000J0D01*
G01*
X157270000Y-142945000D01*
G75*
G02*
X157420000Y-143095000I0J-150000D01*
G01*
X157420000Y-143395000D01*
G75*
G02*
X157270000Y-143545000I-150000J0D01*
G01*
X155620000Y-143545000D01*
G75*
G02*
X155470000Y-143395000I0J150000D01*
G01*
G37*
G36*
G01*
X155470000Y-142125000D02*
X155470000Y-141825000D01*
G75*
G02*
X155620000Y-141675000I150000J0D01*
G01*
X157270000Y-141675000D01*
G75*
G02*
X157420000Y-141825000I0J-150000D01*
G01*
X157420000Y-142125000D01*
G75*
G02*
X157270000Y-142275000I-150000J0D01*
G01*
X155620000Y-142275000D01*
G75*
G02*
X155470000Y-142125000I0J150000D01*
G01*
G37*
G36*
G01*
X155470000Y-140855000D02*
X155470000Y-140555000D01*
G75*
G02*
X155620000Y-140405000I150000J0D01*
G01*
X157270000Y-140405000D01*
G75*
G02*
X157420000Y-140555000I0J-150000D01*
G01*
X157420000Y-140855000D01*
G75*
G02*
X157270000Y-141005000I-150000J0D01*
G01*
X155620000Y-141005000D01*
G75*
G02*
X155470000Y-140855000I0J150000D01*
G01*
G37*
G36*
G01*
X155470000Y-139585000D02*
X155470000Y-139285000D01*
G75*
G02*
X155620000Y-139135000I150000J0D01*
G01*
X157270000Y-139135000D01*
G75*
G02*
X157420000Y-139285000I0J-150000D01*
G01*
X157420000Y-139585000D01*
G75*
G02*
X157270000Y-139735000I-150000J0D01*
G01*
X155620000Y-139735000D01*
G75*
G02*
X155470000Y-139585000I0J150000D01*
G01*
G37*
G36*
G01*
X152480000Y-141095000D02*
X152480000Y-140795000D01*
G75*
G02*
X152630000Y-140645000I150000J0D01*
G01*
X154280000Y-140645000D01*
G75*
G02*
X154430000Y-140795000I0J-150000D01*
G01*
X154430000Y-141095000D01*
G75*
G02*
X154280000Y-141245000I-150000J0D01*
G01*
X152630000Y-141245000D01*
G75*
G02*
X152480000Y-141095000I0J150000D01*
G01*
G37*
G36*
G01*
X152480000Y-142365000D02*
X152480000Y-142065000D01*
G75*
G02*
X152630000Y-141915000I150000J0D01*
G01*
X154280000Y-141915000D01*
G75*
G02*
X154430000Y-142065000I0J-150000D01*
G01*
X154430000Y-142365000D01*
G75*
G02*
X154280000Y-142515000I-150000J0D01*
G01*
X152630000Y-142515000D01*
G75*
G02*
X152480000Y-142365000I0J150000D01*
G01*
G37*
G36*
G01*
X152480000Y-143635000D02*
X152480000Y-143335000D01*
G75*
G02*
X152630000Y-143185000I150000J0D01*
G01*
X154280000Y-143185000D01*
G75*
G02*
X154430000Y-143335000I0J-150000D01*
G01*
X154430000Y-143635000D01*
G75*
G02*
X154280000Y-143785000I-150000J0D01*
G01*
X152630000Y-143785000D01*
G75*
G02*
X152480000Y-143635000I0J150000D01*
G01*
G37*
G36*
G01*
X152480000Y-144905000D02*
X152480000Y-144605000D01*
G75*
G02*
X152630000Y-144455000I150000J0D01*
G01*
X154280000Y-144455000D01*
G75*
G02*
X154430000Y-144605000I0J-150000D01*
G01*
X154430000Y-144905000D01*
G75*
G02*
X154280000Y-145055000I-150000J0D01*
G01*
X152630000Y-145055000D01*
G75*
G02*
X152480000Y-144905000I0J150000D01*
G01*
G37*
G36*
G01*
X147530000Y-144905000D02*
X147530000Y-144605000D01*
G75*
G02*
X147680000Y-144455000I150000J0D01*
G01*
X149330000Y-144455000D01*
G75*
G02*
X149480000Y-144605000I0J-150000D01*
G01*
X149480000Y-144905000D01*
G75*
G02*
X149330000Y-145055000I-150000J0D01*
G01*
X147680000Y-145055000D01*
G75*
G02*
X147530000Y-144905000I0J150000D01*
G01*
G37*
G36*
G01*
X147530000Y-143635000D02*
X147530000Y-143335000D01*
G75*
G02*
X147680000Y-143185000I150000J0D01*
G01*
X149330000Y-143185000D01*
G75*
G02*
X149480000Y-143335000I0J-150000D01*
G01*
X149480000Y-143635000D01*
G75*
G02*
X149330000Y-143785000I-150000J0D01*
G01*
X147680000Y-143785000D01*
G75*
G02*
X147530000Y-143635000I0J150000D01*
G01*
G37*
G36*
G01*
X147530000Y-142365000D02*
X147530000Y-142065000D01*
G75*
G02*
X147680000Y-141915000I150000J0D01*
G01*
X149330000Y-141915000D01*
G75*
G02*
X149480000Y-142065000I0J-150000D01*
G01*
X149480000Y-142365000D01*
G75*
G02*
X149330000Y-142515000I-150000J0D01*
G01*
X147680000Y-142515000D01*
G75*
G02*
X147530000Y-142365000I0J150000D01*
G01*
G37*
G36*
G01*
X147530000Y-141095000D02*
X147530000Y-140795000D01*
G75*
G02*
X147680000Y-140645000I150000J0D01*
G01*
X149330000Y-140645000D01*
G75*
G02*
X149480000Y-140795000I0J-150000D01*
G01*
X149480000Y-141095000D01*
G75*
G02*
X149330000Y-141245000I-150000J0D01*
G01*
X147680000Y-141245000D01*
G75*
G02*
X147530000Y-141095000I0J150000D01*
G01*
G37*
G36*
G01*
X121320000Y-154840000D02*
X121620000Y-154840000D01*
G75*
G02*
X121770000Y-154990000I0J-150000D01*
G01*
X121770000Y-156640000D01*
G75*
G02*
X121620000Y-156790000I-150000J0D01*
G01*
X121320000Y-156790000D01*
G75*
G02*
X121170000Y-156640000I0J150000D01*
G01*
X121170000Y-154990000D01*
G75*
G02*
X121320000Y-154840000I150000J0D01*
G01*
G37*
G36*
G01*
X120050000Y-154840000D02*
X120350000Y-154840000D01*
G75*
G02*
X120500000Y-154990000I0J-150000D01*
G01*
X120500000Y-156640000D01*
G75*
G02*
X120350000Y-156790000I-150000J0D01*
G01*
X120050000Y-156790000D01*
G75*
G02*
X119900000Y-156640000I0J150000D01*
G01*
X119900000Y-154990000D01*
G75*
G02*
X120050000Y-154840000I150000J0D01*
G01*
G37*
G36*
G01*
X118780000Y-154840000D02*
X119080000Y-154840000D01*
G75*
G02*
X119230000Y-154990000I0J-150000D01*
G01*
X119230000Y-156640000D01*
G75*
G02*
X119080000Y-156790000I-150000J0D01*
G01*
X118780000Y-156790000D01*
G75*
G02*
X118630000Y-156640000I0J150000D01*
G01*
X118630000Y-154990000D01*
G75*
G02*
X118780000Y-154840000I150000J0D01*
G01*
G37*
G36*
G01*
X117510000Y-154840000D02*
X117810000Y-154840000D01*
G75*
G02*
X117960000Y-154990000I0J-150000D01*
G01*
X117960000Y-156640000D01*
G75*
G02*
X117810000Y-156790000I-150000J0D01*
G01*
X117510000Y-156790000D01*
G75*
G02*
X117360000Y-156640000I0J150000D01*
G01*
X117360000Y-154990000D01*
G75*
G02*
X117510000Y-154840000I150000J0D01*
G01*
G37*
G36*
G01*
X116240000Y-154840000D02*
X116540000Y-154840000D01*
G75*
G02*
X116690000Y-154990000I0J-150000D01*
G01*
X116690000Y-156640000D01*
G75*
G02*
X116540000Y-156790000I-150000J0D01*
G01*
X116240000Y-156790000D01*
G75*
G02*
X116090000Y-156640000I0J150000D01*
G01*
X116090000Y-154990000D01*
G75*
G02*
X116240000Y-154840000I150000J0D01*
G01*
G37*
G36*
G01*
X114970000Y-154840000D02*
X115270000Y-154840000D01*
G75*
G02*
X115420000Y-154990000I0J-150000D01*
G01*
X115420000Y-156640000D01*
G75*
G02*
X115270000Y-156790000I-150000J0D01*
G01*
X114970000Y-156790000D01*
G75*
G02*
X114820000Y-156640000I0J150000D01*
G01*
X114820000Y-154990000D01*
G75*
G02*
X114970000Y-154840000I150000J0D01*
G01*
G37*
G36*
G01*
X113700000Y-154840000D02*
X114000000Y-154840000D01*
G75*
G02*
X114150000Y-154990000I0J-150000D01*
G01*
X114150000Y-156640000D01*
G75*
G02*
X114000000Y-156790000I-150000J0D01*
G01*
X113700000Y-156790000D01*
G75*
G02*
X113550000Y-156640000I0J150000D01*
G01*
X113550000Y-154990000D01*
G75*
G02*
X113700000Y-154840000I150000J0D01*
G01*
G37*
G36*
G01*
X113700000Y-149890000D02*
X114000000Y-149890000D01*
G75*
G02*
X114150000Y-150040000I0J-150000D01*
G01*
X114150000Y-151690000D01*
G75*
G02*
X114000000Y-151840000I-150000J0D01*
G01*
X113700000Y-151840000D01*
G75*
G02*
X113550000Y-151690000I0J150000D01*
G01*
X113550000Y-150040000D01*
G75*
G02*
X113700000Y-149890000I150000J0D01*
G01*
G37*
G36*
G01*
X114970000Y-149890000D02*
X115270000Y-149890000D01*
G75*
G02*
X115420000Y-150040000I0J-150000D01*
G01*
X115420000Y-151690000D01*
G75*
G02*
X115270000Y-151840000I-150000J0D01*
G01*
X114970000Y-151840000D01*
G75*
G02*
X114820000Y-151690000I0J150000D01*
G01*
X114820000Y-150040000D01*
G75*
G02*
X114970000Y-149890000I150000J0D01*
G01*
G37*
G36*
G01*
X116240000Y-149890000D02*
X116540000Y-149890000D01*
G75*
G02*
X116690000Y-150040000I0J-150000D01*
G01*
X116690000Y-151690000D01*
G75*
G02*
X116540000Y-151840000I-150000J0D01*
G01*
X116240000Y-151840000D01*
G75*
G02*
X116090000Y-151690000I0J150000D01*
G01*
X116090000Y-150040000D01*
G75*
G02*
X116240000Y-149890000I150000J0D01*
G01*
G37*
G36*
G01*
X117510000Y-149890000D02*
X117810000Y-149890000D01*
G75*
G02*
X117960000Y-150040000I0J-150000D01*
G01*
X117960000Y-151690000D01*
G75*
G02*
X117810000Y-151840000I-150000J0D01*
G01*
X117510000Y-151840000D01*
G75*
G02*
X117360000Y-151690000I0J150000D01*
G01*
X117360000Y-150040000D01*
G75*
G02*
X117510000Y-149890000I150000J0D01*
G01*
G37*
G36*
G01*
X118780000Y-149890000D02*
X119080000Y-149890000D01*
G75*
G02*
X119230000Y-150040000I0J-150000D01*
G01*
X119230000Y-151690000D01*
G75*
G02*
X119080000Y-151840000I-150000J0D01*
G01*
X118780000Y-151840000D01*
G75*
G02*
X118630000Y-151690000I0J150000D01*
G01*
X118630000Y-150040000D01*
G75*
G02*
X118780000Y-149890000I150000J0D01*
G01*
G37*
G36*
G01*
X120050000Y-149890000D02*
X120350000Y-149890000D01*
G75*
G02*
X120500000Y-150040000I0J-150000D01*
G01*
X120500000Y-151690000D01*
G75*
G02*
X120350000Y-151840000I-150000J0D01*
G01*
X120050000Y-151840000D01*
G75*
G02*
X119900000Y-151690000I0J150000D01*
G01*
X119900000Y-150040000D01*
G75*
G02*
X120050000Y-149890000I150000J0D01*
G01*
G37*
G36*
G01*
X121320000Y-149890000D02*
X121620000Y-149890000D01*
G75*
G02*
X121770000Y-150040000I0J-150000D01*
G01*
X121770000Y-151690000D01*
G75*
G02*
X121620000Y-151840000I-150000J0D01*
G01*
X121320000Y-151840000D01*
G75*
G02*
X121170000Y-151690000I0J150000D01*
G01*
X121170000Y-150040000D01*
G75*
G02*
X121320000Y-149890000I150000J0D01*
G01*
G37*
G36*
G01*
X108349000Y-151642000D02*
X108049000Y-151642000D01*
G75*
G02*
X107899000Y-151492000I0J150000D01*
G01*
X107899000Y-149842000D01*
G75*
G02*
X108049000Y-149692000I150000J0D01*
G01*
X108349000Y-149692000D01*
G75*
G02*
X108499000Y-149842000I0J-150000D01*
G01*
X108499000Y-151492000D01*
G75*
G02*
X108349000Y-151642000I-150000J0D01*
G01*
G37*
G36*
G01*
X109619000Y-151642000D02*
X109319000Y-151642000D01*
G75*
G02*
X109169000Y-151492000I0J150000D01*
G01*
X109169000Y-149842000D01*
G75*
G02*
X109319000Y-149692000I150000J0D01*
G01*
X109619000Y-149692000D01*
G75*
G02*
X109769000Y-149842000I0J-150000D01*
G01*
X109769000Y-151492000D01*
G75*
G02*
X109619000Y-151642000I-150000J0D01*
G01*
G37*
G36*
G01*
X110889000Y-151642000D02*
X110589000Y-151642000D01*
G75*
G02*
X110439000Y-151492000I0J150000D01*
G01*
X110439000Y-149842000D01*
G75*
G02*
X110589000Y-149692000I150000J0D01*
G01*
X110889000Y-149692000D01*
G75*
G02*
X111039000Y-149842000I0J-150000D01*
G01*
X111039000Y-151492000D01*
G75*
G02*
X110889000Y-151642000I-150000J0D01*
G01*
G37*
G36*
G01*
X112159000Y-151642000D02*
X111859000Y-151642000D01*
G75*
G02*
X111709000Y-151492000I0J150000D01*
G01*
X111709000Y-149842000D01*
G75*
G02*
X111859000Y-149692000I150000J0D01*
G01*
X112159000Y-149692000D01*
G75*
G02*
X112309000Y-149842000I0J-150000D01*
G01*
X112309000Y-151492000D01*
G75*
G02*
X112159000Y-151642000I-150000J0D01*
G01*
G37*
G36*
G01*
X112159000Y-156592000D02*
X111859000Y-156592000D01*
G75*
G02*
X111709000Y-156442000I0J150000D01*
G01*
X111709000Y-154792000D01*
G75*
G02*
X111859000Y-154642000I150000J0D01*
G01*
X112159000Y-154642000D01*
G75*
G02*
X112309000Y-154792000I0J-150000D01*
G01*
X112309000Y-156442000D01*
G75*
G02*
X112159000Y-156592000I-150000J0D01*
G01*
G37*
G36*
G01*
X110889000Y-156592000D02*
X110589000Y-156592000D01*
G75*
G02*
X110439000Y-156442000I0J150000D01*
G01*
X110439000Y-154792000D01*
G75*
G02*
X110589000Y-154642000I150000J0D01*
G01*
X110889000Y-154642000D01*
G75*
G02*
X111039000Y-154792000I0J-150000D01*
G01*
X111039000Y-156442000D01*
G75*
G02*
X110889000Y-156592000I-150000J0D01*
G01*
G37*
G36*
G01*
X109619000Y-156592000D02*
X109319000Y-156592000D01*
G75*
G02*
X109169000Y-156442000I0J150000D01*
G01*
X109169000Y-154792000D01*
G75*
G02*
X109319000Y-154642000I150000J0D01*
G01*
X109619000Y-154642000D01*
G75*
G02*
X109769000Y-154792000I0J-150000D01*
G01*
X109769000Y-156442000D01*
G75*
G02*
X109619000Y-156592000I-150000J0D01*
G01*
G37*
G36*
G01*
X108349000Y-156592000D02*
X108049000Y-156592000D01*
G75*
G02*
X107899000Y-156442000I0J150000D01*
G01*
X107899000Y-154792000D01*
G75*
G02*
X108049000Y-154642000I150000J0D01*
G01*
X108349000Y-154642000D01*
G75*
G02*
X108499000Y-154792000I0J-150000D01*
G01*
X108499000Y-156442000D01*
G75*
G02*
X108349000Y-156592000I-150000J0D01*
G01*
G37*
G36*
G01*
X104395000Y-154630000D02*
X104695000Y-154630000D01*
G75*
G02*
X104845000Y-154780000I0J-150000D01*
G01*
X104845000Y-156430000D01*
G75*
G02*
X104695000Y-156580000I-150000J0D01*
G01*
X104395000Y-156580000D01*
G75*
G02*
X104245000Y-156430000I0J150000D01*
G01*
X104245000Y-154780000D01*
G75*
G02*
X104395000Y-154630000I150000J0D01*
G01*
G37*
G36*
G01*
X103125000Y-154630000D02*
X103425000Y-154630000D01*
G75*
G02*
X103575000Y-154780000I0J-150000D01*
G01*
X103575000Y-156430000D01*
G75*
G02*
X103425000Y-156580000I-150000J0D01*
G01*
X103125000Y-156580000D01*
G75*
G02*
X102975000Y-156430000I0J150000D01*
G01*
X102975000Y-154780000D01*
G75*
G02*
X103125000Y-154630000I150000J0D01*
G01*
G37*
G36*
G01*
X101855000Y-154630000D02*
X102155000Y-154630000D01*
G75*
G02*
X102305000Y-154780000I0J-150000D01*
G01*
X102305000Y-156430000D01*
G75*
G02*
X102155000Y-156580000I-150000J0D01*
G01*
X101855000Y-156580000D01*
G75*
G02*
X101705000Y-156430000I0J150000D01*
G01*
X101705000Y-154780000D01*
G75*
G02*
X101855000Y-154630000I150000J0D01*
G01*
G37*
G36*
G01*
X100585000Y-154630000D02*
X100885000Y-154630000D01*
G75*
G02*
X101035000Y-154780000I0J-150000D01*
G01*
X101035000Y-156430000D01*
G75*
G02*
X100885000Y-156580000I-150000J0D01*
G01*
X100585000Y-156580000D01*
G75*
G02*
X100435000Y-156430000I0J150000D01*
G01*
X100435000Y-154780000D01*
G75*
G02*
X100585000Y-154630000I150000J0D01*
G01*
G37*
G36*
G01*
X100585000Y-149680000D02*
X100885000Y-149680000D01*
G75*
G02*
X101035000Y-149830000I0J-150000D01*
G01*
X101035000Y-151480000D01*
G75*
G02*
X100885000Y-151630000I-150000J0D01*
G01*
X100585000Y-151630000D01*
G75*
G02*
X100435000Y-151480000I0J150000D01*
G01*
X100435000Y-149830000D01*
G75*
G02*
X100585000Y-149680000I150000J0D01*
G01*
G37*
G36*
G01*
X101855000Y-149680000D02*
X102155000Y-149680000D01*
G75*
G02*
X102305000Y-149830000I0J-150000D01*
G01*
X102305000Y-151480000D01*
G75*
G02*
X102155000Y-151630000I-150000J0D01*
G01*
X101855000Y-151630000D01*
G75*
G02*
X101705000Y-151480000I0J150000D01*
G01*
X101705000Y-149830000D01*
G75*
G02*
X101855000Y-149680000I150000J0D01*
G01*
G37*
G36*
G01*
X103125000Y-149680000D02*
X103425000Y-149680000D01*
G75*
G02*
X103575000Y-149830000I0J-150000D01*
G01*
X103575000Y-151480000D01*
G75*
G02*
X103425000Y-151630000I-150000J0D01*
G01*
X103125000Y-151630000D01*
G75*
G02*
X102975000Y-151480000I0J150000D01*
G01*
X102975000Y-149830000D01*
G75*
G02*
X103125000Y-149680000I150000J0D01*
G01*
G37*
G36*
G01*
X104395000Y-149680000D02*
X104695000Y-149680000D01*
G75*
G02*
X104845000Y-149830000I0J-150000D01*
G01*
X104845000Y-151480000D01*
G75*
G02*
X104695000Y-151630000I-150000J0D01*
G01*
X104395000Y-151630000D01*
G75*
G02*
X104245000Y-151480000I0J150000D01*
G01*
X104245000Y-149830000D01*
G75*
G02*
X104395000Y-149680000I150000J0D01*
G01*
G37*
G36*
G01*
X162720000Y-130579999D02*
X162720000Y-131480001D01*
G75*
G02*
X162470001Y-131730000I-249999J0D01*
G01*
X161944999Y-131730000D01*
G75*
G02*
X161695000Y-131480001I0J249999D01*
G01*
X161695000Y-130579999D01*
G75*
G02*
X161944999Y-130330000I249999J0D01*
G01*
X162470001Y-130330000D01*
G75*
G02*
X162720000Y-130579999I0J-249999D01*
G01*
G37*
G36*
G01*
X164545000Y-130579999D02*
X164545000Y-131480001D01*
G75*
G02*
X164295001Y-131730000I-249999J0D01*
G01*
X163769999Y-131730000D01*
G75*
G02*
X163520000Y-131480001I0J249999D01*
G01*
X163520000Y-130579999D01*
G75*
G02*
X163769999Y-130330000I249999J0D01*
G01*
X164295001Y-130330000D01*
G75*
G02*
X164545000Y-130579999I0J-249999D01*
G01*
G37*
G36*
G01*
X106844001Y-150682000D02*
X105943999Y-150682000D01*
G75*
G02*
X105694000Y-150432001I0J249999D01*
G01*
X105694000Y-149906999D01*
G75*
G02*
X105943999Y-149657000I249999J0D01*
G01*
X106844001Y-149657000D01*
G75*
G02*
X107094000Y-149906999I0J-249999D01*
G01*
X107094000Y-150432001D01*
G75*
G02*
X106844001Y-150682000I-249999J0D01*
G01*
G37*
G36*
G01*
X106844001Y-152507000D02*
X105943999Y-152507000D01*
G75*
G02*
X105694000Y-152257001I0J249999D01*
G01*
X105694000Y-151731999D01*
G75*
G02*
X105943999Y-151482000I249999J0D01*
G01*
X106844001Y-151482000D01*
G75*
G02*
X107094000Y-151731999I0J-249999D01*
G01*
X107094000Y-152257001D01*
G75*
G02*
X106844001Y-152507000I-249999J0D01*
G01*
G37*
G36*
G01*
X105939999Y-155527500D02*
X106840001Y-155527500D01*
G75*
G02*
X107090000Y-155777499I0J-249999D01*
G01*
X107090000Y-156302501D01*
G75*
G02*
X106840001Y-156552500I-249999J0D01*
G01*
X105939999Y-156552500D01*
G75*
G02*
X105690000Y-156302501I0J249999D01*
G01*
X105690000Y-155777499D01*
G75*
G02*
X105939999Y-155527500I249999J0D01*
G01*
G37*
G36*
G01*
X105939999Y-153702500D02*
X106840001Y-153702500D01*
G75*
G02*
X107090000Y-153952499I0J-249999D01*
G01*
X107090000Y-154477501D01*
G75*
G02*
X106840001Y-154727500I-249999J0D01*
G01*
X105939999Y-154727500D01*
G75*
G02*
X105690000Y-154477501I0J249999D01*
G01*
X105690000Y-153952499D01*
G75*
G02*
X105939999Y-153702500I249999J0D01*
G01*
G37*
G36*
G01*
X111450000Y-159620001D02*
X111450000Y-158719999D01*
G75*
G02*
X111699999Y-158470000I249999J0D01*
G01*
X112225001Y-158470000D01*
G75*
G02*
X112475000Y-158719999I0J-249999D01*
G01*
X112475000Y-159620001D01*
G75*
G02*
X112225001Y-159870000I-249999J0D01*
G01*
X111699999Y-159870000D01*
G75*
G02*
X111450000Y-159620001I0J249999D01*
G01*
G37*
G36*
G01*
X109625000Y-159620001D02*
X109625000Y-158719999D01*
G75*
G02*
X109874999Y-158470000I249999J0D01*
G01*
X110400001Y-158470000D01*
G75*
G02*
X110650000Y-158719999I0J-249999D01*
G01*
X110650000Y-159620001D01*
G75*
G02*
X110400001Y-159870000I-249999J0D01*
G01*
X109874999Y-159870000D01*
G75*
G02*
X109625000Y-159620001I0J249999D01*
G01*
G37*
G36*
G01*
X108010000Y-159620001D02*
X108010000Y-158719999D01*
G75*
G02*
X108259999Y-158470000I249999J0D01*
G01*
X108785001Y-158470000D01*
G75*
G02*
X109035000Y-158719999I0J-249999D01*
G01*
X109035000Y-159620001D01*
G75*
G02*
X108785001Y-159870000I-249999J0D01*
G01*
X108259999Y-159870000D01*
G75*
G02*
X108010000Y-159620001I0J249999D01*
G01*
G37*
G36*
G01*
X106185000Y-159620001D02*
X106185000Y-158719999D01*
G75*
G02*
X106434999Y-158470000I249999J0D01*
G01*
X106960001Y-158470000D01*
G75*
G02*
X107210000Y-158719999I0J-249999D01*
G01*
X107210000Y-159620001D01*
G75*
G02*
X106960001Y-159870000I-249999J0D01*
G01*
X106434999Y-159870000D01*
G75*
G02*
X106185000Y-159620001I0J249999D01*
G01*
G37*
D15*
G36*
X124750000Y-154220000D02*
G01*
X124250000Y-154220000D01*
X124250000Y-154219398D01*
X124225466Y-154219398D01*
X124176635Y-154214588D01*
X124128510Y-154205016D01*
X124081555Y-154190772D01*
X124036222Y-154171995D01*
X123992949Y-154148864D01*
X123952150Y-154121604D01*
X123914221Y-154090476D01*
X123879524Y-154055779D01*
X123848396Y-154017850D01*
X123821136Y-153977051D01*
X123798005Y-153933778D01*
X123779228Y-153888445D01*
X123764984Y-153841490D01*
X123755412Y-153793365D01*
X123750602Y-153744534D01*
X123750602Y-153720000D01*
X123750000Y-153720000D01*
X123750000Y-153220000D01*
X123750602Y-153220000D01*
X123750602Y-153195466D01*
X123755412Y-153146635D01*
X123764984Y-153098510D01*
X123779228Y-153051555D01*
X123798005Y-153006222D01*
X123821136Y-152962949D01*
X123848396Y-152922150D01*
X123879524Y-152884221D01*
X123914221Y-152849524D01*
X123952150Y-152818396D01*
X123992949Y-152791136D01*
X124036222Y-152768005D01*
X124081555Y-152749228D01*
X124128510Y-152734984D01*
X124176635Y-152725412D01*
X124225466Y-152720602D01*
X124250000Y-152720602D01*
X124250000Y-152720000D01*
X124750000Y-152720000D01*
X124750000Y-154220000D01*
G37*
G36*
X125550000Y-152720602D02*
G01*
X125574534Y-152720602D01*
X125623365Y-152725412D01*
X125671490Y-152734984D01*
X125718445Y-152749228D01*
X125763778Y-152768005D01*
X125807051Y-152791136D01*
X125847850Y-152818396D01*
X125885779Y-152849524D01*
X125920476Y-152884221D01*
X125951604Y-152922150D01*
X125978864Y-152962949D01*
X126001995Y-153006222D01*
X126020772Y-153051555D01*
X126035016Y-153098510D01*
X126044588Y-153146635D01*
X126049398Y-153195466D01*
X126049398Y-153220000D01*
X126050000Y-153220000D01*
X126050000Y-153720000D01*
X126049398Y-153720000D01*
X126049398Y-153744534D01*
X126044588Y-153793365D01*
X126035016Y-153841490D01*
X126020772Y-153888445D01*
X126001995Y-153933778D01*
X125978864Y-153977051D01*
X125951604Y-154017850D01*
X125920476Y-154055779D01*
X125885779Y-154090476D01*
X125847850Y-154121604D01*
X125807051Y-154148864D01*
X125763778Y-154171995D01*
X125718445Y-154190772D01*
X125671490Y-154205016D01*
X125623365Y-154214588D01*
X125574534Y-154219398D01*
X125550000Y-154219398D01*
X125550000Y-154220000D01*
X125050000Y-154220000D01*
X125050000Y-152720000D01*
X125550000Y-152720000D01*
X125550000Y-152720602D01*
G37*
G36*
X124730000Y-156800000D02*
G01*
X124230000Y-156800000D01*
X124230000Y-156799398D01*
X124205466Y-156799398D01*
X124156635Y-156794588D01*
X124108510Y-156785016D01*
X124061555Y-156770772D01*
X124016222Y-156751995D01*
X123972949Y-156728864D01*
X123932150Y-156701604D01*
X123894221Y-156670476D01*
X123859524Y-156635779D01*
X123828396Y-156597850D01*
X123801136Y-156557051D01*
X123778005Y-156513778D01*
X123759228Y-156468445D01*
X123744984Y-156421490D01*
X123735412Y-156373365D01*
X123730602Y-156324534D01*
X123730602Y-156300000D01*
X123730000Y-156300000D01*
X123730000Y-155800000D01*
X123730602Y-155800000D01*
X123730602Y-155775466D01*
X123735412Y-155726635D01*
X123744984Y-155678510D01*
X123759228Y-155631555D01*
X123778005Y-155586222D01*
X123801136Y-155542949D01*
X123828396Y-155502150D01*
X123859524Y-155464221D01*
X123894221Y-155429524D01*
X123932150Y-155398396D01*
X123972949Y-155371136D01*
X124016222Y-155348005D01*
X124061555Y-155329228D01*
X124108510Y-155314984D01*
X124156635Y-155305412D01*
X124205466Y-155300602D01*
X124230000Y-155300602D01*
X124230000Y-155300000D01*
X124730000Y-155300000D01*
X124730000Y-156800000D01*
G37*
G36*
X125530000Y-155300602D02*
G01*
X125554534Y-155300602D01*
X125603365Y-155305412D01*
X125651490Y-155314984D01*
X125698445Y-155329228D01*
X125743778Y-155348005D01*
X125787051Y-155371136D01*
X125827850Y-155398396D01*
X125865779Y-155429524D01*
X125900476Y-155464221D01*
X125931604Y-155502150D01*
X125958864Y-155542949D01*
X125981995Y-155586222D01*
X126000772Y-155631555D01*
X126015016Y-155678510D01*
X126024588Y-155726635D01*
X126029398Y-155775466D01*
X126029398Y-155800000D01*
X126030000Y-155800000D01*
X126030000Y-156300000D01*
X126029398Y-156300000D01*
X126029398Y-156324534D01*
X126024588Y-156373365D01*
X126015016Y-156421490D01*
X126000772Y-156468445D01*
X125981995Y-156513778D01*
X125958864Y-156557051D01*
X125931604Y-156597850D01*
X125900476Y-156635779D01*
X125865779Y-156670476D01*
X125827850Y-156701604D01*
X125787051Y-156728864D01*
X125743778Y-156751995D01*
X125698445Y-156770772D01*
X125651490Y-156785016D01*
X125603365Y-156794588D01*
X125554534Y-156799398D01*
X125530000Y-156799398D01*
X125530000Y-156800000D01*
X125030000Y-156800000D01*
X125030000Y-155300000D01*
X125530000Y-155300000D01*
X125530000Y-155300602D01*
G37*
G36*
G01*
X95510000Y-130350000D02*
X95510000Y-129100000D01*
G75*
G02*
X95660000Y-128950000I150000J0D01*
G01*
X95960000Y-128950000D01*
G75*
G02*
X96110000Y-129100000I0J-150000D01*
G01*
X96110000Y-130350000D01*
G75*
G02*
X95960000Y-130500000I-150000J0D01*
G01*
X95660000Y-130500000D01*
G75*
G02*
X95510000Y-130350000I0J150000D01*
G01*
G37*
G36*
G01*
X96510000Y-130350000D02*
X96510000Y-129100000D01*
G75*
G02*
X96660000Y-128950000I150000J0D01*
G01*
X96960000Y-128950000D01*
G75*
G02*
X97110000Y-129100000I0J-150000D01*
G01*
X97110000Y-130350000D01*
G75*
G02*
X96960000Y-130500000I-150000J0D01*
G01*
X96660000Y-130500000D01*
G75*
G02*
X96510000Y-130350000I0J150000D01*
G01*
G37*
G36*
G01*
X97510000Y-130350000D02*
X97510000Y-129100000D01*
G75*
G02*
X97660000Y-128950000I150000J0D01*
G01*
X97960000Y-128950000D01*
G75*
G02*
X98110000Y-129100000I0J-150000D01*
G01*
X98110000Y-130350000D01*
G75*
G02*
X97960000Y-130500000I-150000J0D01*
G01*
X97660000Y-130500000D01*
G75*
G02*
X97510000Y-130350000I0J150000D01*
G01*
G37*
G36*
G01*
X98510000Y-130350000D02*
X98510000Y-129100000D01*
G75*
G02*
X98660000Y-128950000I150000J0D01*
G01*
X98960000Y-128950000D01*
G75*
G02*
X99110000Y-129100000I0J-150000D01*
G01*
X99110000Y-130350000D01*
G75*
G02*
X98960000Y-130500000I-150000J0D01*
G01*
X98660000Y-130500000D01*
G75*
G02*
X98510000Y-130350000I0J150000D01*
G01*
G37*
G36*
G01*
X93910000Y-127850001D02*
X93910000Y-126549999D01*
G75*
G02*
X94159999Y-126300000I249999J0D01*
G01*
X94860001Y-126300000D01*
G75*
G02*
X95110000Y-126549999I0J-249999D01*
G01*
X95110000Y-127850001D01*
G75*
G02*
X94860001Y-128100000I-249999J0D01*
G01*
X94159999Y-128100000D01*
G75*
G02*
X93910000Y-127850001I0J249999D01*
G01*
G37*
G36*
G01*
X99510000Y-127850001D02*
X99510000Y-126549999D01*
G75*
G02*
X99759999Y-126300000I249999J0D01*
G01*
X100460001Y-126300000D01*
G75*
G02*
X100710000Y-126549999I0J-249999D01*
G01*
X100710000Y-127850001D01*
G75*
G02*
X100460001Y-128100000I-249999J0D01*
G01*
X99759999Y-128100000D01*
G75*
G02*
X99510000Y-127850001I0J249999D01*
G01*
G37*
G36*
G01*
X95490000Y-125065000D02*
X95490000Y-123815000D01*
G75*
G02*
X95640000Y-123665000I150000J0D01*
G01*
X95940000Y-123665000D01*
G75*
G02*
X96090000Y-123815000I0J-150000D01*
G01*
X96090000Y-125065000D01*
G75*
G02*
X95940000Y-125215000I-150000J0D01*
G01*
X95640000Y-125215000D01*
G75*
G02*
X95490000Y-125065000I0J150000D01*
G01*
G37*
G36*
G01*
X96490000Y-125065000D02*
X96490000Y-123815000D01*
G75*
G02*
X96640000Y-123665000I150000J0D01*
G01*
X96940000Y-123665000D01*
G75*
G02*
X97090000Y-123815000I0J-150000D01*
G01*
X97090000Y-125065000D01*
G75*
G02*
X96940000Y-125215000I-150000J0D01*
G01*
X96640000Y-125215000D01*
G75*
G02*
X96490000Y-125065000I0J150000D01*
G01*
G37*
G36*
G01*
X97490000Y-125065000D02*
X97490000Y-123815000D01*
G75*
G02*
X97640000Y-123665000I150000J0D01*
G01*
X97940000Y-123665000D01*
G75*
G02*
X98090000Y-123815000I0J-150000D01*
G01*
X98090000Y-125065000D01*
G75*
G02*
X97940000Y-125215000I-150000J0D01*
G01*
X97640000Y-125215000D01*
G75*
G02*
X97490000Y-125065000I0J150000D01*
G01*
G37*
G36*
G01*
X98490000Y-125065000D02*
X98490000Y-123815000D01*
G75*
G02*
X98640000Y-123665000I150000J0D01*
G01*
X98940000Y-123665000D01*
G75*
G02*
X99090000Y-123815000I0J-150000D01*
G01*
X99090000Y-125065000D01*
G75*
G02*
X98940000Y-125215000I-150000J0D01*
G01*
X98640000Y-125215000D01*
G75*
G02*
X98490000Y-125065000I0J150000D01*
G01*
G37*
G36*
G01*
X93890000Y-122565001D02*
X93890000Y-121264999D01*
G75*
G02*
X94139999Y-121015000I249999J0D01*
G01*
X94840001Y-121015000D01*
G75*
G02*
X95090000Y-121264999I0J-249999D01*
G01*
X95090000Y-122565001D01*
G75*
G02*
X94840001Y-122815000I-249999J0D01*
G01*
X94139999Y-122815000D01*
G75*
G02*
X93890000Y-122565001I0J249999D01*
G01*
G37*
G36*
G01*
X99490000Y-122565001D02*
X99490000Y-121264999D01*
G75*
G02*
X99739999Y-121015000I249999J0D01*
G01*
X100440001Y-121015000D01*
G75*
G02*
X100690000Y-121264999I0J-249999D01*
G01*
X100690000Y-122565001D01*
G75*
G02*
X100440001Y-122815000I-249999J0D01*
G01*
X99739999Y-122815000D01*
G75*
G02*
X99490000Y-122565001I0J249999D01*
G01*
G37*
D16*
X146820000Y-155820000D03*
X146820000Y-153320000D03*
G36*
G01*
X146095000Y-149970000D02*
X147545000Y-149970000D01*
G75*
G02*
X147795000Y-150220000I0J-250000D01*
G01*
X147795000Y-151420000D01*
G75*
G02*
X147545000Y-151670000I-250000J0D01*
G01*
X146095000Y-151670000D01*
G75*
G02*
X145845000Y-151420000I0J250000D01*
G01*
X145845000Y-150220000D01*
G75*
G02*
X146095000Y-149970000I250000J0D01*
G01*
G37*
X139880000Y-155820000D03*
X139880000Y-153320000D03*
G36*
G01*
X139155000Y-149970000D02*
X140605000Y-149970000D01*
G75*
G02*
X140855000Y-150220000I0J-250000D01*
G01*
X140855000Y-151420000D01*
G75*
G02*
X140605000Y-151670000I-250000J0D01*
G01*
X139155000Y-151670000D01*
G75*
G02*
X138905000Y-151420000I0J250000D01*
G01*
X138905000Y-150220000D01*
G75*
G02*
X139155000Y-149970000I250000J0D01*
G01*
G37*
D17*
X128960000Y-153950000D03*
X131500000Y-153950000D03*
D18*
X134040000Y-153950000D03*
D19*
X145940000Y-142060000D03*
X145940000Y-145960000D03*
X144670000Y-142060000D03*
X144670000Y-145960000D03*
X143400000Y-142060000D03*
X143400000Y-145960000D03*
X142130000Y-142060000D03*
X142130000Y-145960000D03*
X140860000Y-142060000D03*
X140860000Y-145960000D03*
D17*
X128970000Y-157620000D03*
X131510000Y-157620000D03*
D18*
X134050000Y-157620000D03*
D20*
X143980000Y-161000000D03*
G36*
G01*
X115380000Y-143095000D02*
X115380000Y-144045000D01*
G75*
G02*
X115130000Y-144295000I-250000J0D01*
G01*
X114630000Y-144295000D01*
G75*
G02*
X114380000Y-144045000I0J250000D01*
G01*
X114380000Y-143095000D01*
G75*
G02*
X114630000Y-142845000I250000J0D01*
G01*
X115130000Y-142845000D01*
G75*
G02*
X115380000Y-143095000I0J-250000D01*
G01*
G37*
G36*
G01*
X117280000Y-143095000D02*
X117280000Y-144045000D01*
G75*
G02*
X117030000Y-144295000I-250000J0D01*
G01*
X116530000Y-144295000D01*
G75*
G02*
X116280000Y-144045000I0J250000D01*
G01*
X116280000Y-143095000D01*
G75*
G02*
X116530000Y-142845000I250000J0D01*
G01*
X117030000Y-142845000D01*
G75*
G02*
X117280000Y-143095000I0J-250000D01*
G01*
G37*
G36*
G01*
X116290000Y-137705000D02*
X116290000Y-136755000D01*
G75*
G02*
X116540000Y-136505000I250000J0D01*
G01*
X117040000Y-136505000D01*
G75*
G02*
X117290000Y-136755000I0J-250000D01*
G01*
X117290000Y-137705000D01*
G75*
G02*
X117040000Y-137955000I-250000J0D01*
G01*
X116540000Y-137955000D01*
G75*
G02*
X116290000Y-137705000I0J250000D01*
G01*
G37*
G36*
G01*
X114390000Y-137705000D02*
X114390000Y-136755000D01*
G75*
G02*
X114640000Y-136505000I250000J0D01*
G01*
X115140000Y-136505000D01*
G75*
G02*
X115390000Y-136755000I0J-250000D01*
G01*
X115390000Y-137705000D01*
G75*
G02*
X115140000Y-137955000I-250000J0D01*
G01*
X114640000Y-137955000D01*
G75*
G02*
X114390000Y-137705000I0J250000D01*
G01*
G37*
D21*
X101620000Y-142140000D03*
D22*
X94020000Y-142140000D03*
D23*
X129790000Y-125450000D03*
X127250000Y-125450000D03*
X124710000Y-125450000D03*
X122170000Y-125450000D03*
X119630000Y-125450000D03*
X117090000Y-125450000D03*
X114550000Y-125450000D03*
X112010000Y-125450000D03*
X109470000Y-125450000D03*
X106930000Y-125450000D03*
X129790000Y-127990000D03*
X127250000Y-127990000D03*
X124710000Y-127990000D03*
X122170000Y-127990000D03*
X119630000Y-127990000D03*
X117090000Y-127990000D03*
X114550000Y-127990000D03*
X112010000Y-127990000D03*
X109470000Y-127990000D03*
G36*
G01*
X107530000Y-128840000D02*
X106330000Y-128840000D01*
G75*
G02*
X106080000Y-128590000I0J250000D01*
G01*
X106080000Y-127390000D01*
G75*
G02*
X106330000Y-127140000I250000J0D01*
G01*
X107530000Y-127140000D01*
G75*
G02*
X107780000Y-127390000I0J-250000D01*
G01*
X107780000Y-128590000D01*
G75*
G02*
X107530000Y-128840000I-250000J0D01*
G01*
G37*
G36*
G01*
X150630000Y-146169999D02*
X150630000Y-147070001D01*
G75*
G02*
X150380001Y-147320000I-249999J0D01*
G01*
X149854999Y-147320000D01*
G75*
G02*
X149605000Y-147070001I0J249999D01*
G01*
X149605000Y-146169999D01*
G75*
G02*
X149854999Y-145920000I249999J0D01*
G01*
X150380001Y-145920000D01*
G75*
G02*
X150630000Y-146169999I0J-249999D01*
G01*
G37*
G36*
G01*
X152455000Y-146169999D02*
X152455000Y-147070001D01*
G75*
G02*
X152205001Y-147320000I-249999J0D01*
G01*
X151679999Y-147320000D01*
G75*
G02*
X151430000Y-147070001I0J249999D01*
G01*
X151430000Y-146169999D01*
G75*
G02*
X151679999Y-145920000I249999J0D01*
G01*
X152205001Y-145920000D01*
G75*
G02*
X152455000Y-146169999I0J-249999D01*
G01*
G37*
D13*
X157440000Y-133040000D03*
G36*
G01*
X158190000Y-136390000D02*
X156690000Y-136390000D01*
G75*
G02*
X156440000Y-136140000I0J250000D01*
G01*
X156440000Y-134940000D01*
G75*
G02*
X156690000Y-134690000I250000J0D01*
G01*
X158190000Y-134690000D01*
G75*
G02*
X158440000Y-134940000I0J-250000D01*
G01*
X158440000Y-136140000D01*
G75*
G02*
X158190000Y-136390000I-250000J0D01*
G01*
G37*
D23*
X148560000Y-133830000D03*
X146020000Y-133830000D03*
X143480000Y-133830000D03*
X148560000Y-136370000D03*
X146020000Y-136370000D03*
G36*
G01*
X144080000Y-137220000D02*
X142880000Y-137220000D01*
G75*
G02*
X142630000Y-136970000I0J250000D01*
G01*
X142630000Y-135770000D01*
G75*
G02*
X142880000Y-135520000I250000J0D01*
G01*
X144080000Y-135520000D01*
G75*
G02*
X144330000Y-135770000I0J-250000D01*
G01*
X144330000Y-136970000D01*
G75*
G02*
X144080000Y-137220000I-250000J0D01*
G01*
G37*
D24*
X120970000Y-116270000D03*
X118470000Y-116270000D03*
G36*
G01*
X115120000Y-116995000D02*
X115120000Y-115545000D01*
G75*
G02*
X115370000Y-115295000I250000J0D01*
G01*
X116570000Y-115295000D01*
G75*
G02*
X116820000Y-115545000I0J-250000D01*
G01*
X116820000Y-116995000D01*
G75*
G02*
X116570000Y-117245000I-250000J0D01*
G01*
X115370000Y-117245000D01*
G75*
G02*
X115120000Y-116995000I0J250000D01*
G01*
G37*
X109920000Y-116270000D03*
X107420000Y-116270000D03*
G36*
G01*
X104070000Y-116995000D02*
X104070000Y-115545000D01*
G75*
G02*
X104320000Y-115295000I250000J0D01*
G01*
X105520000Y-115295000D01*
G75*
G02*
X105770000Y-115545000I0J-250000D01*
G01*
X105770000Y-116995000D01*
G75*
G02*
X105520000Y-117245000I-250000J0D01*
G01*
X104320000Y-117245000D01*
G75*
G02*
X104070000Y-116995000I0J250000D01*
G01*
G37*
X154720000Y-126080000D03*
X152220000Y-126080000D03*
G36*
G01*
X148870000Y-126805000D02*
X148870000Y-125355000D01*
G75*
G02*
X149120000Y-125105000I250000J0D01*
G01*
X150320000Y-125105000D01*
G75*
G02*
X150570000Y-125355000I0J-250000D01*
G01*
X150570000Y-126805000D01*
G75*
G02*
X150320000Y-127055000I-250000J0D01*
G01*
X149120000Y-127055000D01*
G75*
G02*
X148870000Y-126805000I0J250000D01*
G01*
G37*
X165740000Y-126080000D03*
X163240000Y-126080000D03*
G36*
G01*
X159890000Y-126805000D02*
X159890000Y-125355000D01*
G75*
G02*
X160140000Y-125105000I250000J0D01*
G01*
X161340000Y-125105000D01*
G75*
G02*
X161590000Y-125355000I0J-250000D01*
G01*
X161590000Y-126805000D01*
G75*
G02*
X161340000Y-127055000I-250000J0D01*
G01*
X160140000Y-127055000D01*
G75*
G02*
X159890000Y-126805000I0J250000D01*
G01*
G37*
X143630000Y-126080000D03*
X141130000Y-126080000D03*
G36*
G01*
X137780000Y-126805000D02*
X137780000Y-125355000D01*
G75*
G02*
X138030000Y-125105000I250000J0D01*
G01*
X139230000Y-125105000D01*
G75*
G02*
X139480000Y-125355000I0J-250000D01*
G01*
X139480000Y-126805000D01*
G75*
G02*
X139230000Y-127055000I-250000J0D01*
G01*
X138030000Y-127055000D01*
G75*
G02*
X137780000Y-126805000I0J250000D01*
G01*
G37*
X165710000Y-116280000D03*
X163210000Y-116280000D03*
G36*
G01*
X159860000Y-117005000D02*
X159860000Y-115555000D01*
G75*
G02*
X160110000Y-115305000I250000J0D01*
G01*
X161310000Y-115305000D01*
G75*
G02*
X161560000Y-115555000I0J-250000D01*
G01*
X161560000Y-117005000D01*
G75*
G02*
X161310000Y-117255000I-250000J0D01*
G01*
X160110000Y-117255000D01*
G75*
G02*
X159860000Y-117005000I0J250000D01*
G01*
G37*
X154680000Y-116320000D03*
X152180000Y-116320000D03*
G36*
G01*
X148830000Y-117045000D02*
X148830000Y-115595000D01*
G75*
G02*
X149080000Y-115345000I250000J0D01*
G01*
X150280000Y-115345000D01*
G75*
G02*
X150530000Y-115595000I0J-250000D01*
G01*
X150530000Y-117045000D01*
G75*
G02*
X150280000Y-117295000I-250000J0D01*
G01*
X149080000Y-117295000D01*
G75*
G02*
X148830000Y-117045000I0J250000D01*
G01*
G37*
X143720000Y-116330000D03*
X141220000Y-116330000D03*
G36*
G01*
X137870000Y-117055000D02*
X137870000Y-115605000D01*
G75*
G02*
X138120000Y-115355000I250000J0D01*
G01*
X139320000Y-115355000D01*
G75*
G02*
X139570000Y-115605000I0J-250000D01*
G01*
X139570000Y-117055000D01*
G75*
G02*
X139320000Y-117305000I-250000J0D01*
G01*
X138120000Y-117305000D01*
G75*
G02*
X137870000Y-117055000I0J250000D01*
G01*
G37*
X132730000Y-116330000D03*
X130230000Y-116330000D03*
G36*
G01*
X126880000Y-117055000D02*
X126880000Y-115605000D01*
G75*
G02*
X127130000Y-115355000I250000J0D01*
G01*
X128330000Y-115355000D01*
G75*
G02*
X128580000Y-115605000I0J-250000D01*
G01*
X128580000Y-117055000D01*
G75*
G02*
X128330000Y-117305000I-250000J0D01*
G01*
X127130000Y-117305000D01*
G75*
G02*
X126880000Y-117055000I0J250000D01*
G01*
G37*
D10*
X156200000Y-161100000D03*
X153700000Y-161100000D03*
X151700000Y-161100000D03*
D11*
X149200000Y-161100000D03*
D12*
X146130000Y-163810000D03*
X159270000Y-163810000D03*
D10*
X138780000Y-161080000D03*
X136280000Y-161080000D03*
X134280000Y-161080000D03*
D11*
X131780000Y-161080000D03*
D12*
X128710000Y-163790000D03*
X141850000Y-163790000D03*
G36*
G01*
X87695000Y-159337500D02*
X87695000Y-158862500D01*
G75*
G02*
X87932500Y-158625000I237500J0D01*
G01*
X88682500Y-158625000D01*
G75*
G02*
X88920000Y-158862500I0J-237500D01*
G01*
X88920000Y-159337500D01*
G75*
G02*
X88682500Y-159575000I-237500J0D01*
G01*
X87932500Y-159575000D01*
G75*
G02*
X87695000Y-159337500I0J237500D01*
G01*
G37*
G36*
G01*
X87695000Y-161877500D02*
X87695000Y-161402500D01*
G75*
G02*
X87932500Y-161165000I237500J0D01*
G01*
X88682500Y-161165000D01*
G75*
G02*
X88920000Y-161402500I0J-237500D01*
G01*
X88920000Y-161877500D01*
G75*
G02*
X88682500Y-162115000I-237500J0D01*
G01*
X87932500Y-162115000D01*
G75*
G02*
X87695000Y-161877500I0J237500D01*
G01*
G37*
G36*
G01*
X87695000Y-164417500D02*
X87695000Y-163942500D01*
G75*
G02*
X87932500Y-163705000I237500J0D01*
G01*
X88682500Y-163705000D01*
G75*
G02*
X88920000Y-163942500I0J-237500D01*
G01*
X88920000Y-164417500D01*
G75*
G02*
X88682500Y-164655000I-237500J0D01*
G01*
X87932500Y-164655000D01*
G75*
G02*
X87695000Y-164417500I0J237500D01*
G01*
G37*
G36*
G01*
X77720000Y-164417500D02*
X77720000Y-163942500D01*
G75*
G02*
X77957500Y-163705000I237500J0D01*
G01*
X78707500Y-163705000D01*
G75*
G02*
X78945000Y-163942500I0J-237500D01*
G01*
X78945000Y-164417500D01*
G75*
G02*
X78707500Y-164655000I-237500J0D01*
G01*
X77957500Y-164655000D01*
G75*
G02*
X77720000Y-164417500I0J237500D01*
G01*
G37*
G36*
G01*
X77720000Y-161877500D02*
X77720000Y-161402500D01*
G75*
G02*
X77957500Y-161165000I237500J0D01*
G01*
X78707500Y-161165000D01*
G75*
G02*
X78945000Y-161402500I0J-237500D01*
G01*
X78945000Y-161877500D01*
G75*
G02*
X78707500Y-162115000I-237500J0D01*
G01*
X77957500Y-162115000D01*
G75*
G02*
X77720000Y-161877500I0J237500D01*
G01*
G37*
G36*
G01*
X77720000Y-159337500D02*
X77720000Y-158862500D01*
G75*
G02*
X77957500Y-158625000I237500J0D01*
G01*
X78707500Y-158625000D01*
G75*
G02*
X78945000Y-158862500I0J-237500D01*
G01*
X78945000Y-159337500D01*
G75*
G02*
X78707500Y-159575000I-237500J0D01*
G01*
X77957500Y-159575000D01*
G75*
G02*
X77720000Y-159337500I0J237500D01*
G01*
G37*
G36*
G01*
X99865000Y-159387500D02*
X99865000Y-158912500D01*
G75*
G02*
X100102500Y-158675000I237500J0D01*
G01*
X100852500Y-158675000D01*
G75*
G02*
X101090000Y-158912500I0J-237500D01*
G01*
X101090000Y-159387500D01*
G75*
G02*
X100852500Y-159625000I-237500J0D01*
G01*
X100102500Y-159625000D01*
G75*
G02*
X99865000Y-159387500I0J237500D01*
G01*
G37*
G36*
G01*
X99865000Y-161927500D02*
X99865000Y-161452500D01*
G75*
G02*
X100102500Y-161215000I237500J0D01*
G01*
X100852500Y-161215000D01*
G75*
G02*
X101090000Y-161452500I0J-237500D01*
G01*
X101090000Y-161927500D01*
G75*
G02*
X100852500Y-162165000I-237500J0D01*
G01*
X100102500Y-162165000D01*
G75*
G02*
X99865000Y-161927500I0J237500D01*
G01*
G37*
G36*
G01*
X99865000Y-164467500D02*
X99865000Y-163992500D01*
G75*
G02*
X100102500Y-163755000I237500J0D01*
G01*
X100852500Y-163755000D01*
G75*
G02*
X101090000Y-163992500I0J-237500D01*
G01*
X101090000Y-164467500D01*
G75*
G02*
X100852500Y-164705000I-237500J0D01*
G01*
X100102500Y-164705000D01*
G75*
G02*
X99865000Y-164467500I0J237500D01*
G01*
G37*
G36*
G01*
X89890000Y-164467500D02*
X89890000Y-163992500D01*
G75*
G02*
X90127500Y-163755000I237500J0D01*
G01*
X90877500Y-163755000D01*
G75*
G02*
X91115000Y-163992500I0J-237500D01*
G01*
X91115000Y-164467500D01*
G75*
G02*
X90877500Y-164705000I-237500J0D01*
G01*
X90127500Y-164705000D01*
G75*
G02*
X89890000Y-164467500I0J237500D01*
G01*
G37*
G36*
G01*
X89890000Y-161927500D02*
X89890000Y-161452500D01*
G75*
G02*
X90127500Y-161215000I237500J0D01*
G01*
X90877500Y-161215000D01*
G75*
G02*
X91115000Y-161452500I0J-237500D01*
G01*
X91115000Y-161927500D01*
G75*
G02*
X90877500Y-162165000I-237500J0D01*
G01*
X90127500Y-162165000D01*
G75*
G02*
X89890000Y-161927500I0J237500D01*
G01*
G37*
G36*
G01*
X89890000Y-159387500D02*
X89890000Y-158912500D01*
G75*
G02*
X90127500Y-158675000I237500J0D01*
G01*
X90877500Y-158675000D01*
G75*
G02*
X91115000Y-158912500I0J-237500D01*
G01*
X91115000Y-159387500D01*
G75*
G02*
X90877500Y-159625000I-237500J0D01*
G01*
X90127500Y-159625000D01*
G75*
G02*
X89890000Y-159387500I0J237500D01*
G01*
G37*
D25*
X85070000Y-137450000D03*
G36*
G01*
X81720000Y-138200000D02*
X81720000Y-136700000D01*
G75*
G02*
X81970000Y-136450000I250000J0D01*
G01*
X83170000Y-136450000D01*
G75*
G02*
X83420000Y-136700000I0J-250000D01*
G01*
X83420000Y-138200000D01*
G75*
G02*
X83170000Y-138450000I-250000J0D01*
G01*
X81970000Y-138450000D01*
G75*
G02*
X81720000Y-138200000I0J250000D01*
G01*
G37*
G36*
G01*
X150140000Y-150865000D02*
X150140000Y-150715000D01*
G75*
G02*
X150215000Y-150640000I75000J0D01*
G01*
X151540000Y-150640000D01*
G75*
G02*
X151615000Y-150715000I0J-75000D01*
G01*
X151615000Y-150865000D01*
G75*
G02*
X151540000Y-150940000I-75000J0D01*
G01*
X150215000Y-150940000D01*
G75*
G02*
X150140000Y-150865000I0J75000D01*
G01*
G37*
G36*
G01*
X150140000Y-151365000D02*
X150140000Y-151215000D01*
G75*
G02*
X150215000Y-151140000I75000J0D01*
G01*
X151540000Y-151140000D01*
G75*
G02*
X151615000Y-151215000I0J-75000D01*
G01*
X151615000Y-151365000D01*
G75*
G02*
X151540000Y-151440000I-75000J0D01*
G01*
X150215000Y-151440000D01*
G75*
G02*
X150140000Y-151365000I0J75000D01*
G01*
G37*
G36*
G01*
X150140000Y-151865000D02*
X150140000Y-151715000D01*
G75*
G02*
X150215000Y-151640000I75000J0D01*
G01*
X151540000Y-151640000D01*
G75*
G02*
X151615000Y-151715000I0J-75000D01*
G01*
X151615000Y-151865000D01*
G75*
G02*
X151540000Y-151940000I-75000J0D01*
G01*
X150215000Y-151940000D01*
G75*
G02*
X150140000Y-151865000I0J75000D01*
G01*
G37*
G36*
G01*
X150140000Y-152365000D02*
X150140000Y-152215000D01*
G75*
G02*
X150215000Y-152140000I75000J0D01*
G01*
X151540000Y-152140000D01*
G75*
G02*
X151615000Y-152215000I0J-75000D01*
G01*
X151615000Y-152365000D01*
G75*
G02*
X151540000Y-152440000I-75000J0D01*
G01*
X150215000Y-152440000D01*
G75*
G02*
X150140000Y-152365000I0J75000D01*
G01*
G37*
G36*
G01*
X150140000Y-152865000D02*
X150140000Y-152715000D01*
G75*
G02*
X150215000Y-152640000I75000J0D01*
G01*
X151540000Y-152640000D01*
G75*
G02*
X151615000Y-152715000I0J-75000D01*
G01*
X151615000Y-152865000D01*
G75*
G02*
X151540000Y-152940000I-75000J0D01*
G01*
X150215000Y-152940000D01*
G75*
G02*
X150140000Y-152865000I0J75000D01*
G01*
G37*
G36*
G01*
X150140000Y-153365000D02*
X150140000Y-153215000D01*
G75*
G02*
X150215000Y-153140000I75000J0D01*
G01*
X151540000Y-153140000D01*
G75*
G02*
X151615000Y-153215000I0J-75000D01*
G01*
X151615000Y-153365000D01*
G75*
G02*
X151540000Y-153440000I-75000J0D01*
G01*
X150215000Y-153440000D01*
G75*
G02*
X150140000Y-153365000I0J75000D01*
G01*
G37*
G36*
G01*
X150140000Y-153865000D02*
X150140000Y-153715000D01*
G75*
G02*
X150215000Y-153640000I75000J0D01*
G01*
X151540000Y-153640000D01*
G75*
G02*
X151615000Y-153715000I0J-75000D01*
G01*
X151615000Y-153865000D01*
G75*
G02*
X151540000Y-153940000I-75000J0D01*
G01*
X150215000Y-153940000D01*
G75*
G02*
X150140000Y-153865000I0J75000D01*
G01*
G37*
G36*
G01*
X150140000Y-154365000D02*
X150140000Y-154215000D01*
G75*
G02*
X150215000Y-154140000I75000J0D01*
G01*
X151540000Y-154140000D01*
G75*
G02*
X151615000Y-154215000I0J-75000D01*
G01*
X151615000Y-154365000D01*
G75*
G02*
X151540000Y-154440000I-75000J0D01*
G01*
X150215000Y-154440000D01*
G75*
G02*
X150140000Y-154365000I0J75000D01*
G01*
G37*
G36*
G01*
X150140000Y-154865000D02*
X150140000Y-154715000D01*
G75*
G02*
X150215000Y-154640000I75000J0D01*
G01*
X151540000Y-154640000D01*
G75*
G02*
X151615000Y-154715000I0J-75000D01*
G01*
X151615000Y-154865000D01*
G75*
G02*
X151540000Y-154940000I-75000J0D01*
G01*
X150215000Y-154940000D01*
G75*
G02*
X150140000Y-154865000I0J75000D01*
G01*
G37*
G36*
G01*
X150140000Y-155365000D02*
X150140000Y-155215000D01*
G75*
G02*
X150215000Y-155140000I75000J0D01*
G01*
X151540000Y-155140000D01*
G75*
G02*
X151615000Y-155215000I0J-75000D01*
G01*
X151615000Y-155365000D01*
G75*
G02*
X151540000Y-155440000I-75000J0D01*
G01*
X150215000Y-155440000D01*
G75*
G02*
X150140000Y-155365000I0J75000D01*
G01*
G37*
G36*
G01*
X150140000Y-155865000D02*
X150140000Y-155715000D01*
G75*
G02*
X150215000Y-155640000I75000J0D01*
G01*
X151540000Y-155640000D01*
G75*
G02*
X151615000Y-155715000I0J-75000D01*
G01*
X151615000Y-155865000D01*
G75*
G02*
X151540000Y-155940000I-75000J0D01*
G01*
X150215000Y-155940000D01*
G75*
G02*
X150140000Y-155865000I0J75000D01*
G01*
G37*
G36*
G01*
X150140000Y-156365000D02*
X150140000Y-156215000D01*
G75*
G02*
X150215000Y-156140000I75000J0D01*
G01*
X151540000Y-156140000D01*
G75*
G02*
X151615000Y-156215000I0J-75000D01*
G01*
X151615000Y-156365000D01*
G75*
G02*
X151540000Y-156440000I-75000J0D01*
G01*
X150215000Y-156440000D01*
G75*
G02*
X150140000Y-156365000I0J75000D01*
G01*
G37*
G36*
G01*
X152140000Y-158365000D02*
X152140000Y-157040000D01*
G75*
G02*
X152215000Y-156965000I75000J0D01*
G01*
X152365000Y-156965000D01*
G75*
G02*
X152440000Y-157040000I0J-75000D01*
G01*
X152440000Y-158365000D01*
G75*
G02*
X152365000Y-158440000I-75000J0D01*
G01*
X152215000Y-158440000D01*
G75*
G02*
X152140000Y-158365000I0J75000D01*
G01*
G37*
G36*
G01*
X152640000Y-158365000D02*
X152640000Y-157040000D01*
G75*
G02*
X152715000Y-156965000I75000J0D01*
G01*
X152865000Y-156965000D01*
G75*
G02*
X152940000Y-157040000I0J-75000D01*
G01*
X152940000Y-158365000D01*
G75*
G02*
X152865000Y-158440000I-75000J0D01*
G01*
X152715000Y-158440000D01*
G75*
G02*
X152640000Y-158365000I0J75000D01*
G01*
G37*
G36*
G01*
X153140000Y-158365000D02*
X153140000Y-157040000D01*
G75*
G02*
X153215000Y-156965000I75000J0D01*
G01*
X153365000Y-156965000D01*
G75*
G02*
X153440000Y-157040000I0J-75000D01*
G01*
X153440000Y-158365000D01*
G75*
G02*
X153365000Y-158440000I-75000J0D01*
G01*
X153215000Y-158440000D01*
G75*
G02*
X153140000Y-158365000I0J75000D01*
G01*
G37*
G36*
G01*
X153640000Y-158365000D02*
X153640000Y-157040000D01*
G75*
G02*
X153715000Y-156965000I75000J0D01*
G01*
X153865000Y-156965000D01*
G75*
G02*
X153940000Y-157040000I0J-75000D01*
G01*
X153940000Y-158365000D01*
G75*
G02*
X153865000Y-158440000I-75000J0D01*
G01*
X153715000Y-158440000D01*
G75*
G02*
X153640000Y-158365000I0J75000D01*
G01*
G37*
G36*
G01*
X154140000Y-158365000D02*
X154140000Y-157040000D01*
G75*
G02*
X154215000Y-156965000I75000J0D01*
G01*
X154365000Y-156965000D01*
G75*
G02*
X154440000Y-157040000I0J-75000D01*
G01*
X154440000Y-158365000D01*
G75*
G02*
X154365000Y-158440000I-75000J0D01*
G01*
X154215000Y-158440000D01*
G75*
G02*
X154140000Y-158365000I0J75000D01*
G01*
G37*
G36*
G01*
X154640000Y-158365000D02*
X154640000Y-157040000D01*
G75*
G02*
X154715000Y-156965000I75000J0D01*
G01*
X154865000Y-156965000D01*
G75*
G02*
X154940000Y-157040000I0J-75000D01*
G01*
X154940000Y-158365000D01*
G75*
G02*
X154865000Y-158440000I-75000J0D01*
G01*
X154715000Y-158440000D01*
G75*
G02*
X154640000Y-158365000I0J75000D01*
G01*
G37*
G36*
G01*
X155140000Y-158365000D02*
X155140000Y-157040000D01*
G75*
G02*
X155215000Y-156965000I75000J0D01*
G01*
X155365000Y-156965000D01*
G75*
G02*
X155440000Y-157040000I0J-75000D01*
G01*
X155440000Y-158365000D01*
G75*
G02*
X155365000Y-158440000I-75000J0D01*
G01*
X155215000Y-158440000D01*
G75*
G02*
X155140000Y-158365000I0J75000D01*
G01*
G37*
G36*
G01*
X155640000Y-158365000D02*
X155640000Y-157040000D01*
G75*
G02*
X155715000Y-156965000I75000J0D01*
G01*
X155865000Y-156965000D01*
G75*
G02*
X155940000Y-157040000I0J-75000D01*
G01*
X155940000Y-158365000D01*
G75*
G02*
X155865000Y-158440000I-75000J0D01*
G01*
X155715000Y-158440000D01*
G75*
G02*
X155640000Y-158365000I0J75000D01*
G01*
G37*
G36*
G01*
X156140000Y-158365000D02*
X156140000Y-157040000D01*
G75*
G02*
X156215000Y-156965000I75000J0D01*
G01*
X156365000Y-156965000D01*
G75*
G02*
X156440000Y-157040000I0J-75000D01*
G01*
X156440000Y-158365000D01*
G75*
G02*
X156365000Y-158440000I-75000J0D01*
G01*
X156215000Y-158440000D01*
G75*
G02*
X156140000Y-158365000I0J75000D01*
G01*
G37*
G36*
G01*
X156640000Y-158365000D02*
X156640000Y-157040000D01*
G75*
G02*
X156715000Y-156965000I75000J0D01*
G01*
X156865000Y-156965000D01*
G75*
G02*
X156940000Y-157040000I0J-75000D01*
G01*
X156940000Y-158365000D01*
G75*
G02*
X156865000Y-158440000I-75000J0D01*
G01*
X156715000Y-158440000D01*
G75*
G02*
X156640000Y-158365000I0J75000D01*
G01*
G37*
G36*
G01*
X157140000Y-158365000D02*
X157140000Y-157040000D01*
G75*
G02*
X157215000Y-156965000I75000J0D01*
G01*
X157365000Y-156965000D01*
G75*
G02*
X157440000Y-157040000I0J-75000D01*
G01*
X157440000Y-158365000D01*
G75*
G02*
X157365000Y-158440000I-75000J0D01*
G01*
X157215000Y-158440000D01*
G75*
G02*
X157140000Y-158365000I0J75000D01*
G01*
G37*
G36*
G01*
X157640000Y-158365000D02*
X157640000Y-157040000D01*
G75*
G02*
X157715000Y-156965000I75000J0D01*
G01*
X157865000Y-156965000D01*
G75*
G02*
X157940000Y-157040000I0J-75000D01*
G01*
X157940000Y-158365000D01*
G75*
G02*
X157865000Y-158440000I-75000J0D01*
G01*
X157715000Y-158440000D01*
G75*
G02*
X157640000Y-158365000I0J75000D01*
G01*
G37*
G36*
G01*
X158465000Y-156365000D02*
X158465000Y-156215000D01*
G75*
G02*
X158540000Y-156140000I75000J0D01*
G01*
X159865000Y-156140000D01*
G75*
G02*
X159940000Y-156215000I0J-75000D01*
G01*
X159940000Y-156365000D01*
G75*
G02*
X159865000Y-156440000I-75000J0D01*
G01*
X158540000Y-156440000D01*
G75*
G02*
X158465000Y-156365000I0J75000D01*
G01*
G37*
G36*
G01*
X158465000Y-155865000D02*
X158465000Y-155715000D01*
G75*
G02*
X158540000Y-155640000I75000J0D01*
G01*
X159865000Y-155640000D01*
G75*
G02*
X159940000Y-155715000I0J-75000D01*
G01*
X159940000Y-155865000D01*
G75*
G02*
X159865000Y-155940000I-75000J0D01*
G01*
X158540000Y-155940000D01*
G75*
G02*
X158465000Y-155865000I0J75000D01*
G01*
G37*
G36*
G01*
X158465000Y-155365000D02*
X158465000Y-155215000D01*
G75*
G02*
X158540000Y-155140000I75000J0D01*
G01*
X159865000Y-155140000D01*
G75*
G02*
X159940000Y-155215000I0J-75000D01*
G01*
X159940000Y-155365000D01*
G75*
G02*
X159865000Y-155440000I-75000J0D01*
G01*
X158540000Y-155440000D01*
G75*
G02*
X158465000Y-155365000I0J75000D01*
G01*
G37*
G36*
G01*
X158465000Y-154865000D02*
X158465000Y-154715000D01*
G75*
G02*
X158540000Y-154640000I75000J0D01*
G01*
X159865000Y-154640000D01*
G75*
G02*
X159940000Y-154715000I0J-75000D01*
G01*
X159940000Y-154865000D01*
G75*
G02*
X159865000Y-154940000I-75000J0D01*
G01*
X158540000Y-154940000D01*
G75*
G02*
X158465000Y-154865000I0J75000D01*
G01*
G37*
G36*
G01*
X158465000Y-154365000D02*
X158465000Y-154215000D01*
G75*
G02*
X158540000Y-154140000I75000J0D01*
G01*
X159865000Y-154140000D01*
G75*
G02*
X159940000Y-154215000I0J-75000D01*
G01*
X159940000Y-154365000D01*
G75*
G02*
X159865000Y-154440000I-75000J0D01*
G01*
X158540000Y-154440000D01*
G75*
G02*
X158465000Y-154365000I0J75000D01*
G01*
G37*
G36*
G01*
X158465000Y-153865000D02*
X158465000Y-153715000D01*
G75*
G02*
X158540000Y-153640000I75000J0D01*
G01*
X159865000Y-153640000D01*
G75*
G02*
X159940000Y-153715000I0J-75000D01*
G01*
X159940000Y-153865000D01*
G75*
G02*
X159865000Y-153940000I-75000J0D01*
G01*
X158540000Y-153940000D01*
G75*
G02*
X158465000Y-153865000I0J75000D01*
G01*
G37*
G36*
G01*
X158465000Y-153365000D02*
X158465000Y-153215000D01*
G75*
G02*
X158540000Y-153140000I75000J0D01*
G01*
X159865000Y-153140000D01*
G75*
G02*
X159940000Y-153215000I0J-75000D01*
G01*
X159940000Y-153365000D01*
G75*
G02*
X159865000Y-153440000I-75000J0D01*
G01*
X158540000Y-153440000D01*
G75*
G02*
X158465000Y-153365000I0J75000D01*
G01*
G37*
G36*
G01*
X158465000Y-152865000D02*
X158465000Y-152715000D01*
G75*
G02*
X158540000Y-152640000I75000J0D01*
G01*
X159865000Y-152640000D01*
G75*
G02*
X159940000Y-152715000I0J-75000D01*
G01*
X159940000Y-152865000D01*
G75*
G02*
X159865000Y-152940000I-75000J0D01*
G01*
X158540000Y-152940000D01*
G75*
G02*
X158465000Y-152865000I0J75000D01*
G01*
G37*
G36*
G01*
X158465000Y-152365000D02*
X158465000Y-152215000D01*
G75*
G02*
X158540000Y-152140000I75000J0D01*
G01*
X159865000Y-152140000D01*
G75*
G02*
X159940000Y-152215000I0J-75000D01*
G01*
X159940000Y-152365000D01*
G75*
G02*
X159865000Y-152440000I-75000J0D01*
G01*
X158540000Y-152440000D01*
G75*
G02*
X158465000Y-152365000I0J75000D01*
G01*
G37*
G36*
G01*
X158465000Y-151865000D02*
X158465000Y-151715000D01*
G75*
G02*
X158540000Y-151640000I75000J0D01*
G01*
X159865000Y-151640000D01*
G75*
G02*
X159940000Y-151715000I0J-75000D01*
G01*
X159940000Y-151865000D01*
G75*
G02*
X159865000Y-151940000I-75000J0D01*
G01*
X158540000Y-151940000D01*
G75*
G02*
X158465000Y-151865000I0J75000D01*
G01*
G37*
G36*
G01*
X158465000Y-151365000D02*
X158465000Y-151215000D01*
G75*
G02*
X158540000Y-151140000I75000J0D01*
G01*
X159865000Y-151140000D01*
G75*
G02*
X159940000Y-151215000I0J-75000D01*
G01*
X159940000Y-151365000D01*
G75*
G02*
X159865000Y-151440000I-75000J0D01*
G01*
X158540000Y-151440000D01*
G75*
G02*
X158465000Y-151365000I0J75000D01*
G01*
G37*
G36*
G01*
X158465000Y-150865000D02*
X158465000Y-150715000D01*
G75*
G02*
X158540000Y-150640000I75000J0D01*
G01*
X159865000Y-150640000D01*
G75*
G02*
X159940000Y-150715000I0J-75000D01*
G01*
X159940000Y-150865000D01*
G75*
G02*
X159865000Y-150940000I-75000J0D01*
G01*
X158540000Y-150940000D01*
G75*
G02*
X158465000Y-150865000I0J75000D01*
G01*
G37*
G36*
G01*
X157640000Y-150040000D02*
X157640000Y-148715000D01*
G75*
G02*
X157715000Y-148640000I75000J0D01*
G01*
X157865000Y-148640000D01*
G75*
G02*
X157940000Y-148715000I0J-75000D01*
G01*
X157940000Y-150040000D01*
G75*
G02*
X157865000Y-150115000I-75000J0D01*
G01*
X157715000Y-150115000D01*
G75*
G02*
X157640000Y-150040000I0J75000D01*
G01*
G37*
G36*
G01*
X157140000Y-150040000D02*
X157140000Y-148715000D01*
G75*
G02*
X157215000Y-148640000I75000J0D01*
G01*
X157365000Y-148640000D01*
G75*
G02*
X157440000Y-148715000I0J-75000D01*
G01*
X157440000Y-150040000D01*
G75*
G02*
X157365000Y-150115000I-75000J0D01*
G01*
X157215000Y-150115000D01*
G75*
G02*
X157140000Y-150040000I0J75000D01*
G01*
G37*
G36*
G01*
X156640000Y-150040000D02*
X156640000Y-148715000D01*
G75*
G02*
X156715000Y-148640000I75000J0D01*
G01*
X156865000Y-148640000D01*
G75*
G02*
X156940000Y-148715000I0J-75000D01*
G01*
X156940000Y-150040000D01*
G75*
G02*
X156865000Y-150115000I-75000J0D01*
G01*
X156715000Y-150115000D01*
G75*
G02*
X156640000Y-150040000I0J75000D01*
G01*
G37*
G36*
G01*
X156140000Y-150040000D02*
X156140000Y-148715000D01*
G75*
G02*
X156215000Y-148640000I75000J0D01*
G01*
X156365000Y-148640000D01*
G75*
G02*
X156440000Y-148715000I0J-75000D01*
G01*
X156440000Y-150040000D01*
G75*
G02*
X156365000Y-150115000I-75000J0D01*
G01*
X156215000Y-150115000D01*
G75*
G02*
X156140000Y-150040000I0J75000D01*
G01*
G37*
G36*
G01*
X155640000Y-150040000D02*
X155640000Y-148715000D01*
G75*
G02*
X155715000Y-148640000I75000J0D01*
G01*
X155865000Y-148640000D01*
G75*
G02*
X155940000Y-148715000I0J-75000D01*
G01*
X155940000Y-150040000D01*
G75*
G02*
X155865000Y-150115000I-75000J0D01*
G01*
X155715000Y-150115000D01*
G75*
G02*
X155640000Y-150040000I0J75000D01*
G01*
G37*
G36*
G01*
X155140000Y-150040000D02*
X155140000Y-148715000D01*
G75*
G02*
X155215000Y-148640000I75000J0D01*
G01*
X155365000Y-148640000D01*
G75*
G02*
X155440000Y-148715000I0J-75000D01*
G01*
X155440000Y-150040000D01*
G75*
G02*
X155365000Y-150115000I-75000J0D01*
G01*
X155215000Y-150115000D01*
G75*
G02*
X155140000Y-150040000I0J75000D01*
G01*
G37*
G36*
G01*
X154640000Y-150040000D02*
X154640000Y-148715000D01*
G75*
G02*
X154715000Y-148640000I75000J0D01*
G01*
X154865000Y-148640000D01*
G75*
G02*
X154940000Y-148715000I0J-75000D01*
G01*
X154940000Y-150040000D01*
G75*
G02*
X154865000Y-150115000I-75000J0D01*
G01*
X154715000Y-150115000D01*
G75*
G02*
X154640000Y-150040000I0J75000D01*
G01*
G37*
G36*
G01*
X154140000Y-150040000D02*
X154140000Y-148715000D01*
G75*
G02*
X154215000Y-148640000I75000J0D01*
G01*
X154365000Y-148640000D01*
G75*
G02*
X154440000Y-148715000I0J-75000D01*
G01*
X154440000Y-150040000D01*
G75*
G02*
X154365000Y-150115000I-75000J0D01*
G01*
X154215000Y-150115000D01*
G75*
G02*
X154140000Y-150040000I0J75000D01*
G01*
G37*
G36*
G01*
X153640000Y-150040000D02*
X153640000Y-148715000D01*
G75*
G02*
X153715000Y-148640000I75000J0D01*
G01*
X153865000Y-148640000D01*
G75*
G02*
X153940000Y-148715000I0J-75000D01*
G01*
X153940000Y-150040000D01*
G75*
G02*
X153865000Y-150115000I-75000J0D01*
G01*
X153715000Y-150115000D01*
G75*
G02*
X153640000Y-150040000I0J75000D01*
G01*
G37*
G36*
G01*
X153140000Y-150040000D02*
X153140000Y-148715000D01*
G75*
G02*
X153215000Y-148640000I75000J0D01*
G01*
X153365000Y-148640000D01*
G75*
G02*
X153440000Y-148715000I0J-75000D01*
G01*
X153440000Y-150040000D01*
G75*
G02*
X153365000Y-150115000I-75000J0D01*
G01*
X153215000Y-150115000D01*
G75*
G02*
X153140000Y-150040000I0J75000D01*
G01*
G37*
G36*
G01*
X152640000Y-150040000D02*
X152640000Y-148715000D01*
G75*
G02*
X152715000Y-148640000I75000J0D01*
G01*
X152865000Y-148640000D01*
G75*
G02*
X152940000Y-148715000I0J-75000D01*
G01*
X152940000Y-150040000D01*
G75*
G02*
X152865000Y-150115000I-75000J0D01*
G01*
X152715000Y-150115000D01*
G75*
G02*
X152640000Y-150040000I0J75000D01*
G01*
G37*
G36*
G01*
X152140000Y-150040000D02*
X152140000Y-148715000D01*
G75*
G02*
X152215000Y-148640000I75000J0D01*
G01*
X152365000Y-148640000D01*
G75*
G02*
X152440000Y-148715000I0J-75000D01*
G01*
X152440000Y-150040000D01*
G75*
G02*
X152365000Y-150115000I-75000J0D01*
G01*
X152215000Y-150115000D01*
G75*
G02*
X152140000Y-150040000I0J75000D01*
G01*
G37*
G36*
G01*
X107100000Y-164655000D02*
X107100000Y-164955000D01*
G75*
G02*
X106950000Y-165105000I-150000J0D01*
G01*
X105300000Y-165105000D01*
G75*
G02*
X105150000Y-164955000I0J150000D01*
G01*
X105150000Y-164655000D01*
G75*
G02*
X105300000Y-164505000I150000J0D01*
G01*
X106950000Y-164505000D01*
G75*
G02*
X107100000Y-164655000I0J-150000D01*
G01*
G37*
G36*
G01*
X107100000Y-163385000D02*
X107100000Y-163685000D01*
G75*
G02*
X106950000Y-163835000I-150000J0D01*
G01*
X105300000Y-163835000D01*
G75*
G02*
X105150000Y-163685000I0J150000D01*
G01*
X105150000Y-163385000D01*
G75*
G02*
X105300000Y-163235000I150000J0D01*
G01*
X106950000Y-163235000D01*
G75*
G02*
X107100000Y-163385000I0J-150000D01*
G01*
G37*
G36*
G01*
X107100000Y-162115000D02*
X107100000Y-162415000D01*
G75*
G02*
X106950000Y-162565000I-150000J0D01*
G01*
X105300000Y-162565000D01*
G75*
G02*
X105150000Y-162415000I0J150000D01*
G01*
X105150000Y-162115000D01*
G75*
G02*
X105300000Y-161965000I150000J0D01*
G01*
X106950000Y-161965000D01*
G75*
G02*
X107100000Y-162115000I0J-150000D01*
G01*
G37*
G36*
G01*
X107100000Y-160845000D02*
X107100000Y-161145000D01*
G75*
G02*
X106950000Y-161295000I-150000J0D01*
G01*
X105300000Y-161295000D01*
G75*
G02*
X105150000Y-161145000I0J150000D01*
G01*
X105150000Y-160845000D01*
G75*
G02*
X105300000Y-160695000I150000J0D01*
G01*
X106950000Y-160695000D01*
G75*
G02*
X107100000Y-160845000I0J-150000D01*
G01*
G37*
G36*
G01*
X112050000Y-160845000D02*
X112050000Y-161145000D01*
G75*
G02*
X111900000Y-161295000I-150000J0D01*
G01*
X110250000Y-161295000D01*
G75*
G02*
X110100000Y-161145000I0J150000D01*
G01*
X110100000Y-160845000D01*
G75*
G02*
X110250000Y-160695000I150000J0D01*
G01*
X111900000Y-160695000D01*
G75*
G02*
X112050000Y-160845000I0J-150000D01*
G01*
G37*
G36*
G01*
X112050000Y-162115000D02*
X112050000Y-162415000D01*
G75*
G02*
X111900000Y-162565000I-150000J0D01*
G01*
X110250000Y-162565000D01*
G75*
G02*
X110100000Y-162415000I0J150000D01*
G01*
X110100000Y-162115000D01*
G75*
G02*
X110250000Y-161965000I150000J0D01*
G01*
X111900000Y-161965000D01*
G75*
G02*
X112050000Y-162115000I0J-150000D01*
G01*
G37*
G36*
G01*
X112050000Y-163385000D02*
X112050000Y-163685000D01*
G75*
G02*
X111900000Y-163835000I-150000J0D01*
G01*
X110250000Y-163835000D01*
G75*
G02*
X110100000Y-163685000I0J150000D01*
G01*
X110100000Y-163385000D01*
G75*
G02*
X110250000Y-163235000I150000J0D01*
G01*
X111900000Y-163235000D01*
G75*
G02*
X112050000Y-163385000I0J-150000D01*
G01*
G37*
G36*
G01*
X112050000Y-164655000D02*
X112050000Y-164955000D01*
G75*
G02*
X111900000Y-165105000I-150000J0D01*
G01*
X110250000Y-165105000D01*
G75*
G02*
X110100000Y-164955000I0J150000D01*
G01*
X110100000Y-164655000D01*
G75*
G02*
X110250000Y-164505000I150000J0D01*
G01*
X111900000Y-164505000D01*
G75*
G02*
X112050000Y-164655000I0J-150000D01*
G01*
G37*
G36*
G01*
X89550001Y-151860000D02*
X88649999Y-151860000D01*
G75*
G02*
X88400000Y-151610001I0J249999D01*
G01*
X88400000Y-151084999D01*
G75*
G02*
X88649999Y-150835000I249999J0D01*
G01*
X89550001Y-150835000D01*
G75*
G02*
X89800000Y-151084999I0J-249999D01*
G01*
X89800000Y-151610001D01*
G75*
G02*
X89550001Y-151860000I-249999J0D01*
G01*
G37*
G36*
G01*
X89550001Y-153685000D02*
X88649999Y-153685000D01*
G75*
G02*
X88400000Y-153435001I0J249999D01*
G01*
X88400000Y-152909999D01*
G75*
G02*
X88649999Y-152660000I249999J0D01*
G01*
X89550001Y-152660000D01*
G75*
G02*
X89800000Y-152909999I0J-249999D01*
G01*
X89800000Y-153435001D01*
G75*
G02*
X89550001Y-153685000I-249999J0D01*
G01*
G37*
G36*
G01*
X89570001Y-143880000D02*
X88669999Y-143880000D01*
G75*
G02*
X88420000Y-143630001I0J249999D01*
G01*
X88420000Y-143104999D01*
G75*
G02*
X88669999Y-142855000I249999J0D01*
G01*
X89570001Y-142855000D01*
G75*
G02*
X89820000Y-143104999I0J-249999D01*
G01*
X89820000Y-143630001D01*
G75*
G02*
X89570001Y-143880000I-249999J0D01*
G01*
G37*
G36*
G01*
X89570001Y-145705000D02*
X88669999Y-145705000D01*
G75*
G02*
X88420000Y-145455001I0J249999D01*
G01*
X88420000Y-144929999D01*
G75*
G02*
X88669999Y-144680000I249999J0D01*
G01*
X89570001Y-144680000D01*
G75*
G02*
X89820000Y-144929999I0J-249999D01*
G01*
X89820000Y-145455001D01*
G75*
G02*
X89570001Y-145705000I-249999J0D01*
G01*
G37*
G36*
G01*
X79030001Y-151900000D02*
X78129999Y-151900000D01*
G75*
G02*
X77880000Y-151650001I0J249999D01*
G01*
X77880000Y-151124999D01*
G75*
G02*
X78129999Y-150875000I249999J0D01*
G01*
X79030001Y-150875000D01*
G75*
G02*
X79280000Y-151124999I0J-249999D01*
G01*
X79280000Y-151650001D01*
G75*
G02*
X79030001Y-151900000I-249999J0D01*
G01*
G37*
G36*
G01*
X79030001Y-153725000D02*
X78129999Y-153725000D01*
G75*
G02*
X77880000Y-153475001I0J249999D01*
G01*
X77880000Y-152949999D01*
G75*
G02*
X78129999Y-152700000I249999J0D01*
G01*
X79030001Y-152700000D01*
G75*
G02*
X79280000Y-152949999I0J-249999D01*
G01*
X79280000Y-153475001D01*
G75*
G02*
X79030001Y-153725000I-249999J0D01*
G01*
G37*
G36*
G01*
X79010001Y-143880000D02*
X78109999Y-143880000D01*
G75*
G02*
X77860000Y-143630001I0J249999D01*
G01*
X77860000Y-143104999D01*
G75*
G02*
X78109999Y-142855000I249999J0D01*
G01*
X79010001Y-142855000D01*
G75*
G02*
X79260000Y-143104999I0J-249999D01*
G01*
X79260000Y-143630001D01*
G75*
G02*
X79010001Y-143880000I-249999J0D01*
G01*
G37*
G36*
G01*
X79010001Y-145705000D02*
X78109999Y-145705000D01*
G75*
G02*
X77860000Y-145455001I0J249999D01*
G01*
X77860000Y-144929999D01*
G75*
G02*
X78109999Y-144680000I249999J0D01*
G01*
X79010001Y-144680000D01*
G75*
G02*
X79260000Y-144929999I0J-249999D01*
G01*
X79260000Y-145455001D01*
G75*
G02*
X79010001Y-145705000I-249999J0D01*
G01*
G37*
G36*
G01*
X89500001Y-135890000D02*
X88599999Y-135890000D01*
G75*
G02*
X88350000Y-135640001I0J249999D01*
G01*
X88350000Y-135114999D01*
G75*
G02*
X88599999Y-134865000I249999J0D01*
G01*
X89500001Y-134865000D01*
G75*
G02*
X89750000Y-135114999I0J-249999D01*
G01*
X89750000Y-135640001D01*
G75*
G02*
X89500001Y-135890000I-249999J0D01*
G01*
G37*
G36*
G01*
X89500001Y-137715000D02*
X88599999Y-137715000D01*
G75*
G02*
X88350000Y-137465001I0J249999D01*
G01*
X88350000Y-136939999D01*
G75*
G02*
X88599999Y-136690000I249999J0D01*
G01*
X89500001Y-136690000D01*
G75*
G02*
X89750000Y-136939999I0J-249999D01*
G01*
X89750000Y-137465001D01*
G75*
G02*
X89500001Y-137715000I-249999J0D01*
G01*
G37*
G36*
G01*
X79000001Y-135860000D02*
X78099999Y-135860000D01*
G75*
G02*
X77850000Y-135610001I0J249999D01*
G01*
X77850000Y-135084999D01*
G75*
G02*
X78099999Y-134835000I249999J0D01*
G01*
X79000001Y-134835000D01*
G75*
G02*
X79250000Y-135084999I0J-249999D01*
G01*
X79250000Y-135610001D01*
G75*
G02*
X79000001Y-135860000I-249999J0D01*
G01*
G37*
G36*
G01*
X79000001Y-137685000D02*
X78099999Y-137685000D01*
G75*
G02*
X77850000Y-137435001I0J249999D01*
G01*
X77850000Y-136909999D01*
G75*
G02*
X78099999Y-136660000I249999J0D01*
G01*
X79000001Y-136660000D01*
G75*
G02*
X79250000Y-136909999I0J-249999D01*
G01*
X79250000Y-137435001D01*
G75*
G02*
X79000001Y-137685000I-249999J0D01*
G01*
G37*
G36*
G01*
X89520001Y-127900000D02*
X88619999Y-127900000D01*
G75*
G02*
X88370000Y-127650001I0J249999D01*
G01*
X88370000Y-127124999D01*
G75*
G02*
X88619999Y-126875000I249999J0D01*
G01*
X89520001Y-126875000D01*
G75*
G02*
X89770000Y-127124999I0J-249999D01*
G01*
X89770000Y-127650001D01*
G75*
G02*
X89520001Y-127900000I-249999J0D01*
G01*
G37*
G36*
G01*
X89520001Y-129725000D02*
X88619999Y-129725000D01*
G75*
G02*
X88370000Y-129475001I0J249999D01*
G01*
X88370000Y-128949999D01*
G75*
G02*
X88619999Y-128700000I249999J0D01*
G01*
X89520001Y-128700000D01*
G75*
G02*
X89770000Y-128949999I0J-249999D01*
G01*
X89770000Y-129475001D01*
G75*
G02*
X89520001Y-129725000I-249999J0D01*
G01*
G37*
G36*
G01*
X78990001Y-127910000D02*
X78089999Y-127910000D01*
G75*
G02*
X77840000Y-127660001I0J249999D01*
G01*
X77840000Y-127134999D01*
G75*
G02*
X78089999Y-126885000I249999J0D01*
G01*
X78990001Y-126885000D01*
G75*
G02*
X79240000Y-127134999I0J-249999D01*
G01*
X79240000Y-127660001D01*
G75*
G02*
X78990001Y-127910000I-249999J0D01*
G01*
G37*
G36*
G01*
X78990001Y-129735000D02*
X78089999Y-129735000D01*
G75*
G02*
X77840000Y-129485001I0J249999D01*
G01*
X77840000Y-128959999D01*
G75*
G02*
X78089999Y-128710000I249999J0D01*
G01*
X78990001Y-128710000D01*
G75*
G02*
X79240000Y-128959999I0J-249999D01*
G01*
X79240000Y-129485001D01*
G75*
G02*
X78990001Y-129735000I-249999J0D01*
G01*
G37*
G36*
G01*
X160390001Y-148130000D02*
X159489999Y-148130000D01*
G75*
G02*
X159240000Y-147880001I0J249999D01*
G01*
X159240000Y-147354999D01*
G75*
G02*
X159489999Y-147105000I249999J0D01*
G01*
X160390001Y-147105000D01*
G75*
G02*
X160640000Y-147354999I0J-249999D01*
G01*
X160640000Y-147880001D01*
G75*
G02*
X160390001Y-148130000I-249999J0D01*
G01*
G37*
G36*
G01*
X160390001Y-149955000D02*
X159489999Y-149955000D01*
G75*
G02*
X159240000Y-149705001I0J249999D01*
G01*
X159240000Y-149179999D01*
G75*
G02*
X159489999Y-148930000I249999J0D01*
G01*
X160390001Y-148930000D01*
G75*
G02*
X160640000Y-149179999I0J-249999D01*
G01*
X160640000Y-149705001D01*
G75*
G02*
X160390001Y-149955000I-249999J0D01*
G01*
G37*
G36*
G01*
X102747500Y-161589999D02*
X102747500Y-162490001D01*
G75*
G02*
X102497501Y-162740000I-249999J0D01*
G01*
X101972499Y-162740000D01*
G75*
G02*
X101722500Y-162490001I0J249999D01*
G01*
X101722500Y-161589999D01*
G75*
G02*
X101972499Y-161340000I249999J0D01*
G01*
X102497501Y-161340000D01*
G75*
G02*
X102747500Y-161589999I0J-249999D01*
G01*
G37*
G36*
G01*
X104572500Y-161589999D02*
X104572500Y-162490001D01*
G75*
G02*
X104322501Y-162740000I-249999J0D01*
G01*
X103797499Y-162740000D01*
G75*
G02*
X103547500Y-162490001I0J249999D01*
G01*
X103547500Y-161589999D01*
G75*
G02*
X103797499Y-161340000I249999J0D01*
G01*
X104322501Y-161340000D01*
G75*
G02*
X104572500Y-161589999I0J-249999D01*
G01*
G37*
G36*
G01*
X103550000Y-165460001D02*
X103550000Y-164559999D01*
G75*
G02*
X103799999Y-164310000I249999J0D01*
G01*
X104325001Y-164310000D01*
G75*
G02*
X104575000Y-164559999I0J-249999D01*
G01*
X104575000Y-165460001D01*
G75*
G02*
X104325001Y-165710000I-249999J0D01*
G01*
X103799999Y-165710000D01*
G75*
G02*
X103550000Y-165460001I0J249999D01*
G01*
G37*
G36*
G01*
X101725000Y-165460001D02*
X101725000Y-164559999D01*
G75*
G02*
X101974999Y-164310000I249999J0D01*
G01*
X102500001Y-164310000D01*
G75*
G02*
X102750000Y-164559999I0J-249999D01*
G01*
X102750000Y-165460001D01*
G75*
G02*
X102500001Y-165710000I-249999J0D01*
G01*
X101974999Y-165710000D01*
G75*
G02*
X101725000Y-165460001I0J249999D01*
G01*
G37*
G36*
G01*
X89556250Y-155220000D02*
X88643750Y-155220000D01*
G75*
G02*
X88400000Y-154976250I0J243750D01*
G01*
X88400000Y-154488750D01*
G75*
G02*
X88643750Y-154245000I243750J0D01*
G01*
X89556250Y-154245000D01*
G75*
G02*
X89800000Y-154488750I0J-243750D01*
G01*
X89800000Y-154976250D01*
G75*
G02*
X89556250Y-155220000I-243750J0D01*
G01*
G37*
G36*
G01*
X89556250Y-157095000D02*
X88643750Y-157095000D01*
G75*
G02*
X88400000Y-156851250I0J243750D01*
G01*
X88400000Y-156363750D01*
G75*
G02*
X88643750Y-156120000I243750J0D01*
G01*
X89556250Y-156120000D01*
G75*
G02*
X89800000Y-156363750I0J-243750D01*
G01*
X89800000Y-156851250D01*
G75*
G02*
X89556250Y-157095000I-243750J0D01*
G01*
G37*
G36*
G01*
X89566250Y-147240000D02*
X88653750Y-147240000D01*
G75*
G02*
X88410000Y-146996250I0J243750D01*
G01*
X88410000Y-146508750D01*
G75*
G02*
X88653750Y-146265000I243750J0D01*
G01*
X89566250Y-146265000D01*
G75*
G02*
X89810000Y-146508750I0J-243750D01*
G01*
X89810000Y-146996250D01*
G75*
G02*
X89566250Y-147240000I-243750J0D01*
G01*
G37*
G36*
G01*
X89566250Y-149115000D02*
X88653750Y-149115000D01*
G75*
G02*
X88410000Y-148871250I0J243750D01*
G01*
X88410000Y-148383750D01*
G75*
G02*
X88653750Y-148140000I243750J0D01*
G01*
X89566250Y-148140000D01*
G75*
G02*
X89810000Y-148383750I0J-243750D01*
G01*
X89810000Y-148871250D01*
G75*
G02*
X89566250Y-149115000I-243750J0D01*
G01*
G37*
G36*
G01*
X79036250Y-155280000D02*
X78123750Y-155280000D01*
G75*
G02*
X77880000Y-155036250I0J243750D01*
G01*
X77880000Y-154548750D01*
G75*
G02*
X78123750Y-154305000I243750J0D01*
G01*
X79036250Y-154305000D01*
G75*
G02*
X79280000Y-154548750I0J-243750D01*
G01*
X79280000Y-155036250D01*
G75*
G02*
X79036250Y-155280000I-243750J0D01*
G01*
G37*
G36*
G01*
X79036250Y-157155000D02*
X78123750Y-157155000D01*
G75*
G02*
X77880000Y-156911250I0J243750D01*
G01*
X77880000Y-156423750D01*
G75*
G02*
X78123750Y-156180000I243750J0D01*
G01*
X79036250Y-156180000D01*
G75*
G02*
X79280000Y-156423750I0J-243750D01*
G01*
X79280000Y-156911250D01*
G75*
G02*
X79036250Y-157155000I-243750J0D01*
G01*
G37*
G36*
G01*
X79016250Y-147260000D02*
X78103750Y-147260000D01*
G75*
G02*
X77860000Y-147016250I0J243750D01*
G01*
X77860000Y-146528750D01*
G75*
G02*
X78103750Y-146285000I243750J0D01*
G01*
X79016250Y-146285000D01*
G75*
G02*
X79260000Y-146528750I0J-243750D01*
G01*
X79260000Y-147016250D01*
G75*
G02*
X79016250Y-147260000I-243750J0D01*
G01*
G37*
G36*
G01*
X79016250Y-149135000D02*
X78103750Y-149135000D01*
G75*
G02*
X77860000Y-148891250I0J243750D01*
G01*
X77860000Y-148403750D01*
G75*
G02*
X78103750Y-148160000I243750J0D01*
G01*
X79016250Y-148160000D01*
G75*
G02*
X79260000Y-148403750I0J-243750D01*
G01*
X79260000Y-148891250D01*
G75*
G02*
X79016250Y-149135000I-243750J0D01*
G01*
G37*
G36*
G01*
X89506250Y-139252500D02*
X88593750Y-139252500D01*
G75*
G02*
X88350000Y-139008750I0J243750D01*
G01*
X88350000Y-138521250D01*
G75*
G02*
X88593750Y-138277500I243750J0D01*
G01*
X89506250Y-138277500D01*
G75*
G02*
X89750000Y-138521250I0J-243750D01*
G01*
X89750000Y-139008750D01*
G75*
G02*
X89506250Y-139252500I-243750J0D01*
G01*
G37*
G36*
G01*
X89506250Y-141127500D02*
X88593750Y-141127500D01*
G75*
G02*
X88350000Y-140883750I0J243750D01*
G01*
X88350000Y-140396250D01*
G75*
G02*
X88593750Y-140152500I243750J0D01*
G01*
X89506250Y-140152500D01*
G75*
G02*
X89750000Y-140396250I0J-243750D01*
G01*
X89750000Y-140883750D01*
G75*
G02*
X89506250Y-141127500I-243750J0D01*
G01*
G37*
G36*
G01*
X79006250Y-139230000D02*
X78093750Y-139230000D01*
G75*
G02*
X77850000Y-138986250I0J243750D01*
G01*
X77850000Y-138498750D01*
G75*
G02*
X78093750Y-138255000I243750J0D01*
G01*
X79006250Y-138255000D01*
G75*
G02*
X79250000Y-138498750I0J-243750D01*
G01*
X79250000Y-138986250D01*
G75*
G02*
X79006250Y-139230000I-243750J0D01*
G01*
G37*
G36*
G01*
X79006250Y-141105000D02*
X78093750Y-141105000D01*
G75*
G02*
X77850000Y-140861250I0J243750D01*
G01*
X77850000Y-140373750D01*
G75*
G02*
X78093750Y-140130000I243750J0D01*
G01*
X79006250Y-140130000D01*
G75*
G02*
X79250000Y-140373750I0J-243750D01*
G01*
X79250000Y-140861250D01*
G75*
G02*
X79006250Y-141105000I-243750J0D01*
G01*
G37*
G36*
G01*
X89526250Y-131270000D02*
X88613750Y-131270000D01*
G75*
G02*
X88370000Y-131026250I0J243750D01*
G01*
X88370000Y-130538750D01*
G75*
G02*
X88613750Y-130295000I243750J0D01*
G01*
X89526250Y-130295000D01*
G75*
G02*
X89770000Y-130538750I0J-243750D01*
G01*
X89770000Y-131026250D01*
G75*
G02*
X89526250Y-131270000I-243750J0D01*
G01*
G37*
G36*
G01*
X89526250Y-133145000D02*
X88613750Y-133145000D01*
G75*
G02*
X88370000Y-132901250I0J243750D01*
G01*
X88370000Y-132413750D01*
G75*
G02*
X88613750Y-132170000I243750J0D01*
G01*
X89526250Y-132170000D01*
G75*
G02*
X89770000Y-132413750I0J-243750D01*
G01*
X89770000Y-132901250D01*
G75*
G02*
X89526250Y-133145000I-243750J0D01*
G01*
G37*
G36*
G01*
X78996250Y-131280000D02*
X78083750Y-131280000D01*
G75*
G02*
X77840000Y-131036250I0J243750D01*
G01*
X77840000Y-130548750D01*
G75*
G02*
X78083750Y-130305000I243750J0D01*
G01*
X78996250Y-130305000D01*
G75*
G02*
X79240000Y-130548750I0J-243750D01*
G01*
X79240000Y-131036250D01*
G75*
G02*
X78996250Y-131280000I-243750J0D01*
G01*
G37*
G36*
G01*
X78996250Y-133155000D02*
X78083750Y-133155000D01*
G75*
G02*
X77840000Y-132911250I0J243750D01*
G01*
X77840000Y-132423750D01*
G75*
G02*
X78083750Y-132180000I243750J0D01*
G01*
X78996250Y-132180000D01*
G75*
G02*
X79240000Y-132423750I0J-243750D01*
G01*
X79240000Y-132911250D01*
G75*
G02*
X78996250Y-133155000I-243750J0D01*
G01*
G37*
G36*
G01*
X158375000Y-146120000D02*
X157425000Y-146120000D01*
G75*
G02*
X157175000Y-145870000I0J250000D01*
G01*
X157175000Y-145370000D01*
G75*
G02*
X157425000Y-145120000I250000J0D01*
G01*
X158375000Y-145120000D01*
G75*
G02*
X158625000Y-145370000I0J-250000D01*
G01*
X158625000Y-145870000D01*
G75*
G02*
X158375000Y-146120000I-250000J0D01*
G01*
G37*
G36*
G01*
X158375000Y-148020000D02*
X157425000Y-148020000D01*
G75*
G02*
X157175000Y-147770000I0J250000D01*
G01*
X157175000Y-147270000D01*
G75*
G02*
X157425000Y-147020000I250000J0D01*
G01*
X158375000Y-147020000D01*
G75*
G02*
X158625000Y-147270000I0J-250000D01*
G01*
X158625000Y-147770000D01*
G75*
G02*
X158375000Y-148020000I-250000J0D01*
G01*
G37*
G36*
G01*
X156335000Y-145500000D02*
X155385000Y-145500000D01*
G75*
G02*
X155135000Y-145250000I0J250000D01*
G01*
X155135000Y-144750000D01*
G75*
G02*
X155385000Y-144500000I250000J0D01*
G01*
X156335000Y-144500000D01*
G75*
G02*
X156585000Y-144750000I0J-250000D01*
G01*
X156585000Y-145250000D01*
G75*
G02*
X156335000Y-145500000I-250000J0D01*
G01*
G37*
G36*
G01*
X156335000Y-147400000D02*
X155385000Y-147400000D01*
G75*
G02*
X155135000Y-147150000I0J250000D01*
G01*
X155135000Y-146650000D01*
G75*
G02*
X155385000Y-146400000I250000J0D01*
G01*
X156335000Y-146400000D01*
G75*
G02*
X156585000Y-146650000I0J-250000D01*
G01*
X156585000Y-147150000D01*
G75*
G02*
X156335000Y-147400000I-250000J0D01*
G01*
G37*
D26*
X90390000Y-114600000D03*
X85790000Y-114600000D03*
X88090000Y-114600000D03*
D27*
X88090000Y-120900000D03*
D28*
X83310000Y-161630000D03*
X95490000Y-161670000D03*
G36*
G01*
X121210000Y-133560000D02*
X121210000Y-132110000D01*
G75*
G02*
X121285000Y-132035000I75000J0D01*
G01*
X121435000Y-132035000D01*
G75*
G02*
X121510000Y-132110000I0J-75000D01*
G01*
X121510000Y-133560000D01*
G75*
G02*
X121435000Y-133635000I-75000J0D01*
G01*
X121285000Y-133635000D01*
G75*
G02*
X121210000Y-133560000I0J75000D01*
G01*
G37*
G36*
G01*
X121710000Y-133560000D02*
X121710000Y-132110000D01*
G75*
G02*
X121785000Y-132035000I75000J0D01*
G01*
X121935000Y-132035000D01*
G75*
G02*
X122010000Y-132110000I0J-75000D01*
G01*
X122010000Y-133560000D01*
G75*
G02*
X121935000Y-133635000I-75000J0D01*
G01*
X121785000Y-133635000D01*
G75*
G02*
X121710000Y-133560000I0J75000D01*
G01*
G37*
G36*
G01*
X122210000Y-133560000D02*
X122210000Y-132110000D01*
G75*
G02*
X122285000Y-132035000I75000J0D01*
G01*
X122435000Y-132035000D01*
G75*
G02*
X122510000Y-132110000I0J-75000D01*
G01*
X122510000Y-133560000D01*
G75*
G02*
X122435000Y-133635000I-75000J0D01*
G01*
X122285000Y-133635000D01*
G75*
G02*
X122210000Y-133560000I0J75000D01*
G01*
G37*
G36*
G01*
X122710000Y-133560000D02*
X122710000Y-132110000D01*
G75*
G02*
X122785000Y-132035000I75000J0D01*
G01*
X122935000Y-132035000D01*
G75*
G02*
X123010000Y-132110000I0J-75000D01*
G01*
X123010000Y-133560000D01*
G75*
G02*
X122935000Y-133635000I-75000J0D01*
G01*
X122785000Y-133635000D01*
G75*
G02*
X122710000Y-133560000I0J75000D01*
G01*
G37*
G36*
G01*
X123210000Y-133560000D02*
X123210000Y-132110000D01*
G75*
G02*
X123285000Y-132035000I75000J0D01*
G01*
X123435000Y-132035000D01*
G75*
G02*
X123510000Y-132110000I0J-75000D01*
G01*
X123510000Y-133560000D01*
G75*
G02*
X123435000Y-133635000I-75000J0D01*
G01*
X123285000Y-133635000D01*
G75*
G02*
X123210000Y-133560000I0J75000D01*
G01*
G37*
G36*
G01*
X123710000Y-133560000D02*
X123710000Y-132110000D01*
G75*
G02*
X123785000Y-132035000I75000J0D01*
G01*
X123935000Y-132035000D01*
G75*
G02*
X124010000Y-132110000I0J-75000D01*
G01*
X124010000Y-133560000D01*
G75*
G02*
X123935000Y-133635000I-75000J0D01*
G01*
X123785000Y-133635000D01*
G75*
G02*
X123710000Y-133560000I0J75000D01*
G01*
G37*
G36*
G01*
X124210000Y-133560000D02*
X124210000Y-132110000D01*
G75*
G02*
X124285000Y-132035000I75000J0D01*
G01*
X124435000Y-132035000D01*
G75*
G02*
X124510000Y-132110000I0J-75000D01*
G01*
X124510000Y-133560000D01*
G75*
G02*
X124435000Y-133635000I-75000J0D01*
G01*
X124285000Y-133635000D01*
G75*
G02*
X124210000Y-133560000I0J75000D01*
G01*
G37*
G36*
G01*
X124710000Y-133560000D02*
X124710000Y-132110000D01*
G75*
G02*
X124785000Y-132035000I75000J0D01*
G01*
X124935000Y-132035000D01*
G75*
G02*
X125010000Y-132110000I0J-75000D01*
G01*
X125010000Y-133560000D01*
G75*
G02*
X124935000Y-133635000I-75000J0D01*
G01*
X124785000Y-133635000D01*
G75*
G02*
X124710000Y-133560000I0J75000D01*
G01*
G37*
G36*
G01*
X125210000Y-133560000D02*
X125210000Y-132110000D01*
G75*
G02*
X125285000Y-132035000I75000J0D01*
G01*
X125435000Y-132035000D01*
G75*
G02*
X125510000Y-132110000I0J-75000D01*
G01*
X125510000Y-133560000D01*
G75*
G02*
X125435000Y-133635000I-75000J0D01*
G01*
X125285000Y-133635000D01*
G75*
G02*
X125210000Y-133560000I0J75000D01*
G01*
G37*
G36*
G01*
X125710000Y-133560000D02*
X125710000Y-132110000D01*
G75*
G02*
X125785000Y-132035000I75000J0D01*
G01*
X125935000Y-132035000D01*
G75*
G02*
X126010000Y-132110000I0J-75000D01*
G01*
X126010000Y-133560000D01*
G75*
G02*
X125935000Y-133635000I-75000J0D01*
G01*
X125785000Y-133635000D01*
G75*
G02*
X125710000Y-133560000I0J75000D01*
G01*
G37*
G36*
G01*
X126210000Y-133560000D02*
X126210000Y-132110000D01*
G75*
G02*
X126285000Y-132035000I75000J0D01*
G01*
X126435000Y-132035000D01*
G75*
G02*
X126510000Y-132110000I0J-75000D01*
G01*
X126510000Y-133560000D01*
G75*
G02*
X126435000Y-133635000I-75000J0D01*
G01*
X126285000Y-133635000D01*
G75*
G02*
X126210000Y-133560000I0J75000D01*
G01*
G37*
G36*
G01*
X126710000Y-133560000D02*
X126710000Y-132110000D01*
G75*
G02*
X126785000Y-132035000I75000J0D01*
G01*
X126935000Y-132035000D01*
G75*
G02*
X127010000Y-132110000I0J-75000D01*
G01*
X127010000Y-133560000D01*
G75*
G02*
X126935000Y-133635000I-75000J0D01*
G01*
X126785000Y-133635000D01*
G75*
G02*
X126710000Y-133560000I0J75000D01*
G01*
G37*
G36*
G01*
X127210000Y-133560000D02*
X127210000Y-132110000D01*
G75*
G02*
X127285000Y-132035000I75000J0D01*
G01*
X127435000Y-132035000D01*
G75*
G02*
X127510000Y-132110000I0J-75000D01*
G01*
X127510000Y-133560000D01*
G75*
G02*
X127435000Y-133635000I-75000J0D01*
G01*
X127285000Y-133635000D01*
G75*
G02*
X127210000Y-133560000I0J75000D01*
G01*
G37*
G36*
G01*
X127710000Y-133560000D02*
X127710000Y-132110000D01*
G75*
G02*
X127785000Y-132035000I75000J0D01*
G01*
X127935000Y-132035000D01*
G75*
G02*
X128010000Y-132110000I0J-75000D01*
G01*
X128010000Y-133560000D01*
G75*
G02*
X127935000Y-133635000I-75000J0D01*
G01*
X127785000Y-133635000D01*
G75*
G02*
X127710000Y-133560000I0J75000D01*
G01*
G37*
G36*
G01*
X128210000Y-133560000D02*
X128210000Y-132110000D01*
G75*
G02*
X128285000Y-132035000I75000J0D01*
G01*
X128435000Y-132035000D01*
G75*
G02*
X128510000Y-132110000I0J-75000D01*
G01*
X128510000Y-133560000D01*
G75*
G02*
X128435000Y-133635000I-75000J0D01*
G01*
X128285000Y-133635000D01*
G75*
G02*
X128210000Y-133560000I0J75000D01*
G01*
G37*
G36*
G01*
X128710000Y-133560000D02*
X128710000Y-132110000D01*
G75*
G02*
X128785000Y-132035000I75000J0D01*
G01*
X128935000Y-132035000D01*
G75*
G02*
X129010000Y-132110000I0J-75000D01*
G01*
X129010000Y-133560000D01*
G75*
G02*
X128935000Y-133635000I-75000J0D01*
G01*
X128785000Y-133635000D01*
G75*
G02*
X128710000Y-133560000I0J75000D01*
G01*
G37*
G36*
G01*
X129210000Y-133560000D02*
X129210000Y-132110000D01*
G75*
G02*
X129285000Y-132035000I75000J0D01*
G01*
X129435000Y-132035000D01*
G75*
G02*
X129510000Y-132110000I0J-75000D01*
G01*
X129510000Y-133560000D01*
G75*
G02*
X129435000Y-133635000I-75000J0D01*
G01*
X129285000Y-133635000D01*
G75*
G02*
X129210000Y-133560000I0J75000D01*
G01*
G37*
G36*
G01*
X129710000Y-133560000D02*
X129710000Y-132110000D01*
G75*
G02*
X129785000Y-132035000I75000J0D01*
G01*
X129935000Y-132035000D01*
G75*
G02*
X130010000Y-132110000I0J-75000D01*
G01*
X130010000Y-133560000D01*
G75*
G02*
X129935000Y-133635000I-75000J0D01*
G01*
X129785000Y-133635000D01*
G75*
G02*
X129710000Y-133560000I0J75000D01*
G01*
G37*
G36*
G01*
X130210000Y-133560000D02*
X130210000Y-132110000D01*
G75*
G02*
X130285000Y-132035000I75000J0D01*
G01*
X130435000Y-132035000D01*
G75*
G02*
X130510000Y-132110000I0J-75000D01*
G01*
X130510000Y-133560000D01*
G75*
G02*
X130435000Y-133635000I-75000J0D01*
G01*
X130285000Y-133635000D01*
G75*
G02*
X130210000Y-133560000I0J75000D01*
G01*
G37*
G36*
G01*
X130710000Y-133560000D02*
X130710000Y-132110000D01*
G75*
G02*
X130785000Y-132035000I75000J0D01*
G01*
X130935000Y-132035000D01*
G75*
G02*
X131010000Y-132110000I0J-75000D01*
G01*
X131010000Y-133560000D01*
G75*
G02*
X130935000Y-133635000I-75000J0D01*
G01*
X130785000Y-133635000D01*
G75*
G02*
X130710000Y-133560000I0J75000D01*
G01*
G37*
G36*
G01*
X131210000Y-133560000D02*
X131210000Y-132110000D01*
G75*
G02*
X131285000Y-132035000I75000J0D01*
G01*
X131435000Y-132035000D01*
G75*
G02*
X131510000Y-132110000I0J-75000D01*
G01*
X131510000Y-133560000D01*
G75*
G02*
X131435000Y-133635000I-75000J0D01*
G01*
X131285000Y-133635000D01*
G75*
G02*
X131210000Y-133560000I0J75000D01*
G01*
G37*
G36*
G01*
X131710000Y-133560000D02*
X131710000Y-132110000D01*
G75*
G02*
X131785000Y-132035000I75000J0D01*
G01*
X131935000Y-132035000D01*
G75*
G02*
X132010000Y-132110000I0J-75000D01*
G01*
X132010000Y-133560000D01*
G75*
G02*
X131935000Y-133635000I-75000J0D01*
G01*
X131785000Y-133635000D01*
G75*
G02*
X131710000Y-133560000I0J75000D01*
G01*
G37*
G36*
G01*
X132210000Y-133560000D02*
X132210000Y-132110000D01*
G75*
G02*
X132285000Y-132035000I75000J0D01*
G01*
X132435000Y-132035000D01*
G75*
G02*
X132510000Y-132110000I0J-75000D01*
G01*
X132510000Y-133560000D01*
G75*
G02*
X132435000Y-133635000I-75000J0D01*
G01*
X132285000Y-133635000D01*
G75*
G02*
X132210000Y-133560000I0J75000D01*
G01*
G37*
G36*
G01*
X132710000Y-133560000D02*
X132710000Y-132110000D01*
G75*
G02*
X132785000Y-132035000I75000J0D01*
G01*
X132935000Y-132035000D01*
G75*
G02*
X133010000Y-132110000I0J-75000D01*
G01*
X133010000Y-133560000D01*
G75*
G02*
X132935000Y-133635000I-75000J0D01*
G01*
X132785000Y-133635000D01*
G75*
G02*
X132710000Y-133560000I0J75000D01*
G01*
G37*
G36*
G01*
X133210000Y-133560000D02*
X133210000Y-132110000D01*
G75*
G02*
X133285000Y-132035000I75000J0D01*
G01*
X133435000Y-132035000D01*
G75*
G02*
X133510000Y-132110000I0J-75000D01*
G01*
X133510000Y-133560000D01*
G75*
G02*
X133435000Y-133635000I-75000J0D01*
G01*
X133285000Y-133635000D01*
G75*
G02*
X133210000Y-133560000I0J75000D01*
G01*
G37*
G36*
G01*
X134235000Y-134585000D02*
X134235000Y-134435000D01*
G75*
G02*
X134310000Y-134360000I75000J0D01*
G01*
X135760000Y-134360000D01*
G75*
G02*
X135835000Y-134435000I0J-75000D01*
G01*
X135835000Y-134585000D01*
G75*
G02*
X135760000Y-134660000I-75000J0D01*
G01*
X134310000Y-134660000D01*
G75*
G02*
X134235000Y-134585000I0J75000D01*
G01*
G37*
G36*
G01*
X134235000Y-135085000D02*
X134235000Y-134935000D01*
G75*
G02*
X134310000Y-134860000I75000J0D01*
G01*
X135760000Y-134860000D01*
G75*
G02*
X135835000Y-134935000I0J-75000D01*
G01*
X135835000Y-135085000D01*
G75*
G02*
X135760000Y-135160000I-75000J0D01*
G01*
X134310000Y-135160000D01*
G75*
G02*
X134235000Y-135085000I0J75000D01*
G01*
G37*
G36*
G01*
X134235000Y-135585000D02*
X134235000Y-135435000D01*
G75*
G02*
X134310000Y-135360000I75000J0D01*
G01*
X135760000Y-135360000D01*
G75*
G02*
X135835000Y-135435000I0J-75000D01*
G01*
X135835000Y-135585000D01*
G75*
G02*
X135760000Y-135660000I-75000J0D01*
G01*
X134310000Y-135660000D01*
G75*
G02*
X134235000Y-135585000I0J75000D01*
G01*
G37*
G36*
G01*
X134235000Y-136085000D02*
X134235000Y-135935000D01*
G75*
G02*
X134310000Y-135860000I75000J0D01*
G01*
X135760000Y-135860000D01*
G75*
G02*
X135835000Y-135935000I0J-75000D01*
G01*
X135835000Y-136085000D01*
G75*
G02*
X135760000Y-136160000I-75000J0D01*
G01*
X134310000Y-136160000D01*
G75*
G02*
X134235000Y-136085000I0J75000D01*
G01*
G37*
G36*
G01*
X134235000Y-136585000D02*
X134235000Y-136435000D01*
G75*
G02*
X134310000Y-136360000I75000J0D01*
G01*
X135760000Y-136360000D01*
G75*
G02*
X135835000Y-136435000I0J-75000D01*
G01*
X135835000Y-136585000D01*
G75*
G02*
X135760000Y-136660000I-75000J0D01*
G01*
X134310000Y-136660000D01*
G75*
G02*
X134235000Y-136585000I0J75000D01*
G01*
G37*
G36*
G01*
X134235000Y-137085000D02*
X134235000Y-136935000D01*
G75*
G02*
X134310000Y-136860000I75000J0D01*
G01*
X135760000Y-136860000D01*
G75*
G02*
X135835000Y-136935000I0J-75000D01*
G01*
X135835000Y-137085000D01*
G75*
G02*
X135760000Y-137160000I-75000J0D01*
G01*
X134310000Y-137160000D01*
G75*
G02*
X134235000Y-137085000I0J75000D01*
G01*
G37*
G36*
G01*
X134235000Y-137585000D02*
X134235000Y-137435000D01*
G75*
G02*
X134310000Y-137360000I75000J0D01*
G01*
X135760000Y-137360000D01*
G75*
G02*
X135835000Y-137435000I0J-75000D01*
G01*
X135835000Y-137585000D01*
G75*
G02*
X135760000Y-137660000I-75000J0D01*
G01*
X134310000Y-137660000D01*
G75*
G02*
X134235000Y-137585000I0J75000D01*
G01*
G37*
G36*
G01*
X134235000Y-138085000D02*
X134235000Y-137935000D01*
G75*
G02*
X134310000Y-137860000I75000J0D01*
G01*
X135760000Y-137860000D01*
G75*
G02*
X135835000Y-137935000I0J-75000D01*
G01*
X135835000Y-138085000D01*
G75*
G02*
X135760000Y-138160000I-75000J0D01*
G01*
X134310000Y-138160000D01*
G75*
G02*
X134235000Y-138085000I0J75000D01*
G01*
G37*
G36*
G01*
X134235000Y-138585000D02*
X134235000Y-138435000D01*
G75*
G02*
X134310000Y-138360000I75000J0D01*
G01*
X135760000Y-138360000D01*
G75*
G02*
X135835000Y-138435000I0J-75000D01*
G01*
X135835000Y-138585000D01*
G75*
G02*
X135760000Y-138660000I-75000J0D01*
G01*
X134310000Y-138660000D01*
G75*
G02*
X134235000Y-138585000I0J75000D01*
G01*
G37*
G36*
G01*
X134235000Y-139085000D02*
X134235000Y-138935000D01*
G75*
G02*
X134310000Y-138860000I75000J0D01*
G01*
X135760000Y-138860000D01*
G75*
G02*
X135835000Y-138935000I0J-75000D01*
G01*
X135835000Y-139085000D01*
G75*
G02*
X135760000Y-139160000I-75000J0D01*
G01*
X134310000Y-139160000D01*
G75*
G02*
X134235000Y-139085000I0J75000D01*
G01*
G37*
G36*
G01*
X134235000Y-139585000D02*
X134235000Y-139435000D01*
G75*
G02*
X134310000Y-139360000I75000J0D01*
G01*
X135760000Y-139360000D01*
G75*
G02*
X135835000Y-139435000I0J-75000D01*
G01*
X135835000Y-139585000D01*
G75*
G02*
X135760000Y-139660000I-75000J0D01*
G01*
X134310000Y-139660000D01*
G75*
G02*
X134235000Y-139585000I0J75000D01*
G01*
G37*
G36*
G01*
X134235000Y-140085000D02*
X134235000Y-139935000D01*
G75*
G02*
X134310000Y-139860000I75000J0D01*
G01*
X135760000Y-139860000D01*
G75*
G02*
X135835000Y-139935000I0J-75000D01*
G01*
X135835000Y-140085000D01*
G75*
G02*
X135760000Y-140160000I-75000J0D01*
G01*
X134310000Y-140160000D01*
G75*
G02*
X134235000Y-140085000I0J75000D01*
G01*
G37*
G36*
G01*
X134235000Y-140585000D02*
X134235000Y-140435000D01*
G75*
G02*
X134310000Y-140360000I75000J0D01*
G01*
X135760000Y-140360000D01*
G75*
G02*
X135835000Y-140435000I0J-75000D01*
G01*
X135835000Y-140585000D01*
G75*
G02*
X135760000Y-140660000I-75000J0D01*
G01*
X134310000Y-140660000D01*
G75*
G02*
X134235000Y-140585000I0J75000D01*
G01*
G37*
G36*
G01*
X134235000Y-141085000D02*
X134235000Y-140935000D01*
G75*
G02*
X134310000Y-140860000I75000J0D01*
G01*
X135760000Y-140860000D01*
G75*
G02*
X135835000Y-140935000I0J-75000D01*
G01*
X135835000Y-141085000D01*
G75*
G02*
X135760000Y-141160000I-75000J0D01*
G01*
X134310000Y-141160000D01*
G75*
G02*
X134235000Y-141085000I0J75000D01*
G01*
G37*
G36*
G01*
X134235000Y-141585000D02*
X134235000Y-141435000D01*
G75*
G02*
X134310000Y-141360000I75000J0D01*
G01*
X135760000Y-141360000D01*
G75*
G02*
X135835000Y-141435000I0J-75000D01*
G01*
X135835000Y-141585000D01*
G75*
G02*
X135760000Y-141660000I-75000J0D01*
G01*
X134310000Y-141660000D01*
G75*
G02*
X134235000Y-141585000I0J75000D01*
G01*
G37*
G36*
G01*
X134235000Y-142085000D02*
X134235000Y-141935000D01*
G75*
G02*
X134310000Y-141860000I75000J0D01*
G01*
X135760000Y-141860000D01*
G75*
G02*
X135835000Y-141935000I0J-75000D01*
G01*
X135835000Y-142085000D01*
G75*
G02*
X135760000Y-142160000I-75000J0D01*
G01*
X134310000Y-142160000D01*
G75*
G02*
X134235000Y-142085000I0J75000D01*
G01*
G37*
G36*
G01*
X134235000Y-142585000D02*
X134235000Y-142435000D01*
G75*
G02*
X134310000Y-142360000I75000J0D01*
G01*
X135760000Y-142360000D01*
G75*
G02*
X135835000Y-142435000I0J-75000D01*
G01*
X135835000Y-142585000D01*
G75*
G02*
X135760000Y-142660000I-75000J0D01*
G01*
X134310000Y-142660000D01*
G75*
G02*
X134235000Y-142585000I0J75000D01*
G01*
G37*
G36*
G01*
X134235000Y-143085000D02*
X134235000Y-142935000D01*
G75*
G02*
X134310000Y-142860000I75000J0D01*
G01*
X135760000Y-142860000D01*
G75*
G02*
X135835000Y-142935000I0J-75000D01*
G01*
X135835000Y-143085000D01*
G75*
G02*
X135760000Y-143160000I-75000J0D01*
G01*
X134310000Y-143160000D01*
G75*
G02*
X134235000Y-143085000I0J75000D01*
G01*
G37*
G36*
G01*
X134235000Y-143585000D02*
X134235000Y-143435000D01*
G75*
G02*
X134310000Y-143360000I75000J0D01*
G01*
X135760000Y-143360000D01*
G75*
G02*
X135835000Y-143435000I0J-75000D01*
G01*
X135835000Y-143585000D01*
G75*
G02*
X135760000Y-143660000I-75000J0D01*
G01*
X134310000Y-143660000D01*
G75*
G02*
X134235000Y-143585000I0J75000D01*
G01*
G37*
G36*
G01*
X134235000Y-144085000D02*
X134235000Y-143935000D01*
G75*
G02*
X134310000Y-143860000I75000J0D01*
G01*
X135760000Y-143860000D01*
G75*
G02*
X135835000Y-143935000I0J-75000D01*
G01*
X135835000Y-144085000D01*
G75*
G02*
X135760000Y-144160000I-75000J0D01*
G01*
X134310000Y-144160000D01*
G75*
G02*
X134235000Y-144085000I0J75000D01*
G01*
G37*
G36*
G01*
X134235000Y-144585000D02*
X134235000Y-144435000D01*
G75*
G02*
X134310000Y-144360000I75000J0D01*
G01*
X135760000Y-144360000D01*
G75*
G02*
X135835000Y-144435000I0J-75000D01*
G01*
X135835000Y-144585000D01*
G75*
G02*
X135760000Y-144660000I-75000J0D01*
G01*
X134310000Y-144660000D01*
G75*
G02*
X134235000Y-144585000I0J75000D01*
G01*
G37*
G36*
G01*
X134235000Y-145085000D02*
X134235000Y-144935000D01*
G75*
G02*
X134310000Y-144860000I75000J0D01*
G01*
X135760000Y-144860000D01*
G75*
G02*
X135835000Y-144935000I0J-75000D01*
G01*
X135835000Y-145085000D01*
G75*
G02*
X135760000Y-145160000I-75000J0D01*
G01*
X134310000Y-145160000D01*
G75*
G02*
X134235000Y-145085000I0J75000D01*
G01*
G37*
G36*
G01*
X134235000Y-145585000D02*
X134235000Y-145435000D01*
G75*
G02*
X134310000Y-145360000I75000J0D01*
G01*
X135760000Y-145360000D01*
G75*
G02*
X135835000Y-145435000I0J-75000D01*
G01*
X135835000Y-145585000D01*
G75*
G02*
X135760000Y-145660000I-75000J0D01*
G01*
X134310000Y-145660000D01*
G75*
G02*
X134235000Y-145585000I0J75000D01*
G01*
G37*
G36*
G01*
X134235000Y-146085000D02*
X134235000Y-145935000D01*
G75*
G02*
X134310000Y-145860000I75000J0D01*
G01*
X135760000Y-145860000D01*
G75*
G02*
X135835000Y-145935000I0J-75000D01*
G01*
X135835000Y-146085000D01*
G75*
G02*
X135760000Y-146160000I-75000J0D01*
G01*
X134310000Y-146160000D01*
G75*
G02*
X134235000Y-146085000I0J75000D01*
G01*
G37*
G36*
G01*
X134235000Y-146585000D02*
X134235000Y-146435000D01*
G75*
G02*
X134310000Y-146360000I75000J0D01*
G01*
X135760000Y-146360000D01*
G75*
G02*
X135835000Y-146435000I0J-75000D01*
G01*
X135835000Y-146585000D01*
G75*
G02*
X135760000Y-146660000I-75000J0D01*
G01*
X134310000Y-146660000D01*
G75*
G02*
X134235000Y-146585000I0J75000D01*
G01*
G37*
G36*
G01*
X133210000Y-148910000D02*
X133210000Y-147460000D01*
G75*
G02*
X133285000Y-147385000I75000J0D01*
G01*
X133435000Y-147385000D01*
G75*
G02*
X133510000Y-147460000I0J-75000D01*
G01*
X133510000Y-148910000D01*
G75*
G02*
X133435000Y-148985000I-75000J0D01*
G01*
X133285000Y-148985000D01*
G75*
G02*
X133210000Y-148910000I0J75000D01*
G01*
G37*
G36*
G01*
X132710000Y-148910000D02*
X132710000Y-147460000D01*
G75*
G02*
X132785000Y-147385000I75000J0D01*
G01*
X132935000Y-147385000D01*
G75*
G02*
X133010000Y-147460000I0J-75000D01*
G01*
X133010000Y-148910000D01*
G75*
G02*
X132935000Y-148985000I-75000J0D01*
G01*
X132785000Y-148985000D01*
G75*
G02*
X132710000Y-148910000I0J75000D01*
G01*
G37*
G36*
G01*
X132210000Y-148910000D02*
X132210000Y-147460000D01*
G75*
G02*
X132285000Y-147385000I75000J0D01*
G01*
X132435000Y-147385000D01*
G75*
G02*
X132510000Y-147460000I0J-75000D01*
G01*
X132510000Y-148910000D01*
G75*
G02*
X132435000Y-148985000I-75000J0D01*
G01*
X132285000Y-148985000D01*
G75*
G02*
X132210000Y-148910000I0J75000D01*
G01*
G37*
G36*
G01*
X131710000Y-148910000D02*
X131710000Y-147460000D01*
G75*
G02*
X131785000Y-147385000I75000J0D01*
G01*
X131935000Y-147385000D01*
G75*
G02*
X132010000Y-147460000I0J-75000D01*
G01*
X132010000Y-148910000D01*
G75*
G02*
X131935000Y-148985000I-75000J0D01*
G01*
X131785000Y-148985000D01*
G75*
G02*
X131710000Y-148910000I0J75000D01*
G01*
G37*
G36*
G01*
X131210000Y-148910000D02*
X131210000Y-147460000D01*
G75*
G02*
X131285000Y-147385000I75000J0D01*
G01*
X131435000Y-147385000D01*
G75*
G02*
X131510000Y-147460000I0J-75000D01*
G01*
X131510000Y-148910000D01*
G75*
G02*
X131435000Y-148985000I-75000J0D01*
G01*
X131285000Y-148985000D01*
G75*
G02*
X131210000Y-148910000I0J75000D01*
G01*
G37*
G36*
G01*
X130710000Y-148910000D02*
X130710000Y-147460000D01*
G75*
G02*
X130785000Y-147385000I75000J0D01*
G01*
X130935000Y-147385000D01*
G75*
G02*
X131010000Y-147460000I0J-75000D01*
G01*
X131010000Y-148910000D01*
G75*
G02*
X130935000Y-148985000I-75000J0D01*
G01*
X130785000Y-148985000D01*
G75*
G02*
X130710000Y-148910000I0J75000D01*
G01*
G37*
G36*
G01*
X130210000Y-148910000D02*
X130210000Y-147460000D01*
G75*
G02*
X130285000Y-147385000I75000J0D01*
G01*
X130435000Y-147385000D01*
G75*
G02*
X130510000Y-147460000I0J-75000D01*
G01*
X130510000Y-148910000D01*
G75*
G02*
X130435000Y-148985000I-75000J0D01*
G01*
X130285000Y-148985000D01*
G75*
G02*
X130210000Y-148910000I0J75000D01*
G01*
G37*
G36*
G01*
X129710000Y-148910000D02*
X129710000Y-147460000D01*
G75*
G02*
X129785000Y-147385000I75000J0D01*
G01*
X129935000Y-147385000D01*
G75*
G02*
X130010000Y-147460000I0J-75000D01*
G01*
X130010000Y-148910000D01*
G75*
G02*
X129935000Y-148985000I-75000J0D01*
G01*
X129785000Y-148985000D01*
G75*
G02*
X129710000Y-148910000I0J75000D01*
G01*
G37*
G36*
G01*
X129210000Y-148910000D02*
X129210000Y-147460000D01*
G75*
G02*
X129285000Y-147385000I75000J0D01*
G01*
X129435000Y-147385000D01*
G75*
G02*
X129510000Y-147460000I0J-75000D01*
G01*
X129510000Y-148910000D01*
G75*
G02*
X129435000Y-148985000I-75000J0D01*
G01*
X129285000Y-148985000D01*
G75*
G02*
X129210000Y-148910000I0J75000D01*
G01*
G37*
G36*
G01*
X128710000Y-148910000D02*
X128710000Y-147460000D01*
G75*
G02*
X128785000Y-147385000I75000J0D01*
G01*
X128935000Y-147385000D01*
G75*
G02*
X129010000Y-147460000I0J-75000D01*
G01*
X129010000Y-148910000D01*
G75*
G02*
X128935000Y-148985000I-75000J0D01*
G01*
X128785000Y-148985000D01*
G75*
G02*
X128710000Y-148910000I0J75000D01*
G01*
G37*
G36*
G01*
X128210000Y-148910000D02*
X128210000Y-147460000D01*
G75*
G02*
X128285000Y-147385000I75000J0D01*
G01*
X128435000Y-147385000D01*
G75*
G02*
X128510000Y-147460000I0J-75000D01*
G01*
X128510000Y-148910000D01*
G75*
G02*
X128435000Y-148985000I-75000J0D01*
G01*
X128285000Y-148985000D01*
G75*
G02*
X128210000Y-148910000I0J75000D01*
G01*
G37*
G36*
G01*
X127710000Y-148910000D02*
X127710000Y-147460000D01*
G75*
G02*
X127785000Y-147385000I75000J0D01*
G01*
X127935000Y-147385000D01*
G75*
G02*
X128010000Y-147460000I0J-75000D01*
G01*
X128010000Y-148910000D01*
G75*
G02*
X127935000Y-148985000I-75000J0D01*
G01*
X127785000Y-148985000D01*
G75*
G02*
X127710000Y-148910000I0J75000D01*
G01*
G37*
G36*
G01*
X127210000Y-148910000D02*
X127210000Y-147460000D01*
G75*
G02*
X127285000Y-147385000I75000J0D01*
G01*
X127435000Y-147385000D01*
G75*
G02*
X127510000Y-147460000I0J-75000D01*
G01*
X127510000Y-148910000D01*
G75*
G02*
X127435000Y-148985000I-75000J0D01*
G01*
X127285000Y-148985000D01*
G75*
G02*
X127210000Y-148910000I0J75000D01*
G01*
G37*
G36*
G01*
X126710000Y-148910000D02*
X126710000Y-147460000D01*
G75*
G02*
X126785000Y-147385000I75000J0D01*
G01*
X126935000Y-147385000D01*
G75*
G02*
X127010000Y-147460000I0J-75000D01*
G01*
X127010000Y-148910000D01*
G75*
G02*
X126935000Y-148985000I-75000J0D01*
G01*
X126785000Y-148985000D01*
G75*
G02*
X126710000Y-148910000I0J75000D01*
G01*
G37*
G36*
G01*
X126210000Y-148910000D02*
X126210000Y-147460000D01*
G75*
G02*
X126285000Y-147385000I75000J0D01*
G01*
X126435000Y-147385000D01*
G75*
G02*
X126510000Y-147460000I0J-75000D01*
G01*
X126510000Y-148910000D01*
G75*
G02*
X126435000Y-148985000I-75000J0D01*
G01*
X126285000Y-148985000D01*
G75*
G02*
X126210000Y-148910000I0J75000D01*
G01*
G37*
G36*
G01*
X125710000Y-148910000D02*
X125710000Y-147460000D01*
G75*
G02*
X125785000Y-147385000I75000J0D01*
G01*
X125935000Y-147385000D01*
G75*
G02*
X126010000Y-147460000I0J-75000D01*
G01*
X126010000Y-148910000D01*
G75*
G02*
X125935000Y-148985000I-75000J0D01*
G01*
X125785000Y-148985000D01*
G75*
G02*
X125710000Y-148910000I0J75000D01*
G01*
G37*
G36*
G01*
X125210000Y-148910000D02*
X125210000Y-147460000D01*
G75*
G02*
X125285000Y-147385000I75000J0D01*
G01*
X125435000Y-147385000D01*
G75*
G02*
X125510000Y-147460000I0J-75000D01*
G01*
X125510000Y-148910000D01*
G75*
G02*
X125435000Y-148985000I-75000J0D01*
G01*
X125285000Y-148985000D01*
G75*
G02*
X125210000Y-148910000I0J75000D01*
G01*
G37*
G36*
G01*
X124710000Y-148910000D02*
X124710000Y-147460000D01*
G75*
G02*
X124785000Y-147385000I75000J0D01*
G01*
X124935000Y-147385000D01*
G75*
G02*
X125010000Y-147460000I0J-75000D01*
G01*
X125010000Y-148910000D01*
G75*
G02*
X124935000Y-148985000I-75000J0D01*
G01*
X124785000Y-148985000D01*
G75*
G02*
X124710000Y-148910000I0J75000D01*
G01*
G37*
G36*
G01*
X124210000Y-148910000D02*
X124210000Y-147460000D01*
G75*
G02*
X124285000Y-147385000I75000J0D01*
G01*
X124435000Y-147385000D01*
G75*
G02*
X124510000Y-147460000I0J-75000D01*
G01*
X124510000Y-148910000D01*
G75*
G02*
X124435000Y-148985000I-75000J0D01*
G01*
X124285000Y-148985000D01*
G75*
G02*
X124210000Y-148910000I0J75000D01*
G01*
G37*
G36*
G01*
X123710000Y-148910000D02*
X123710000Y-147460000D01*
G75*
G02*
X123785000Y-147385000I75000J0D01*
G01*
X123935000Y-147385000D01*
G75*
G02*
X124010000Y-147460000I0J-75000D01*
G01*
X124010000Y-148910000D01*
G75*
G02*
X123935000Y-148985000I-75000J0D01*
G01*
X123785000Y-148985000D01*
G75*
G02*
X123710000Y-148910000I0J75000D01*
G01*
G37*
G36*
G01*
X123210000Y-148910000D02*
X123210000Y-147460000D01*
G75*
G02*
X123285000Y-147385000I75000J0D01*
G01*
X123435000Y-147385000D01*
G75*
G02*
X123510000Y-147460000I0J-75000D01*
G01*
X123510000Y-148910000D01*
G75*
G02*
X123435000Y-148985000I-75000J0D01*
G01*
X123285000Y-148985000D01*
G75*
G02*
X123210000Y-148910000I0J75000D01*
G01*
G37*
G36*
G01*
X122710000Y-148910000D02*
X122710000Y-147460000D01*
G75*
G02*
X122785000Y-147385000I75000J0D01*
G01*
X122935000Y-147385000D01*
G75*
G02*
X123010000Y-147460000I0J-75000D01*
G01*
X123010000Y-148910000D01*
G75*
G02*
X122935000Y-148985000I-75000J0D01*
G01*
X122785000Y-148985000D01*
G75*
G02*
X122710000Y-148910000I0J75000D01*
G01*
G37*
G36*
G01*
X122210000Y-148910000D02*
X122210000Y-147460000D01*
G75*
G02*
X122285000Y-147385000I75000J0D01*
G01*
X122435000Y-147385000D01*
G75*
G02*
X122510000Y-147460000I0J-75000D01*
G01*
X122510000Y-148910000D01*
G75*
G02*
X122435000Y-148985000I-75000J0D01*
G01*
X122285000Y-148985000D01*
G75*
G02*
X122210000Y-148910000I0J75000D01*
G01*
G37*
G36*
G01*
X121710000Y-148910000D02*
X121710000Y-147460000D01*
G75*
G02*
X121785000Y-147385000I75000J0D01*
G01*
X121935000Y-147385000D01*
G75*
G02*
X122010000Y-147460000I0J-75000D01*
G01*
X122010000Y-148910000D01*
G75*
G02*
X121935000Y-148985000I-75000J0D01*
G01*
X121785000Y-148985000D01*
G75*
G02*
X121710000Y-148910000I0J75000D01*
G01*
G37*
G36*
G01*
X121210000Y-148910000D02*
X121210000Y-147460000D01*
G75*
G02*
X121285000Y-147385000I75000J0D01*
G01*
X121435000Y-147385000D01*
G75*
G02*
X121510000Y-147460000I0J-75000D01*
G01*
X121510000Y-148910000D01*
G75*
G02*
X121435000Y-148985000I-75000J0D01*
G01*
X121285000Y-148985000D01*
G75*
G02*
X121210000Y-148910000I0J75000D01*
G01*
G37*
G36*
G01*
X118885000Y-146585000D02*
X118885000Y-146435000D01*
G75*
G02*
X118960000Y-146360000I75000J0D01*
G01*
X120410000Y-146360000D01*
G75*
G02*
X120485000Y-146435000I0J-75000D01*
G01*
X120485000Y-146585000D01*
G75*
G02*
X120410000Y-146660000I-75000J0D01*
G01*
X118960000Y-146660000D01*
G75*
G02*
X118885000Y-146585000I0J75000D01*
G01*
G37*
G36*
G01*
X118885000Y-146085000D02*
X118885000Y-145935000D01*
G75*
G02*
X118960000Y-145860000I75000J0D01*
G01*
X120410000Y-145860000D01*
G75*
G02*
X120485000Y-145935000I0J-75000D01*
G01*
X120485000Y-146085000D01*
G75*
G02*
X120410000Y-146160000I-75000J0D01*
G01*
X118960000Y-146160000D01*
G75*
G02*
X118885000Y-146085000I0J75000D01*
G01*
G37*
G36*
G01*
X118885000Y-145585000D02*
X118885000Y-145435000D01*
G75*
G02*
X118960000Y-145360000I75000J0D01*
G01*
X120410000Y-145360000D01*
G75*
G02*
X120485000Y-145435000I0J-75000D01*
G01*
X120485000Y-145585000D01*
G75*
G02*
X120410000Y-145660000I-75000J0D01*
G01*
X118960000Y-145660000D01*
G75*
G02*
X118885000Y-145585000I0J75000D01*
G01*
G37*
G36*
G01*
X118885000Y-145085000D02*
X118885000Y-144935000D01*
G75*
G02*
X118960000Y-144860000I75000J0D01*
G01*
X120410000Y-144860000D01*
G75*
G02*
X120485000Y-144935000I0J-75000D01*
G01*
X120485000Y-145085000D01*
G75*
G02*
X120410000Y-145160000I-75000J0D01*
G01*
X118960000Y-145160000D01*
G75*
G02*
X118885000Y-145085000I0J75000D01*
G01*
G37*
G36*
G01*
X118885000Y-144585000D02*
X118885000Y-144435000D01*
G75*
G02*
X118960000Y-144360000I75000J0D01*
G01*
X120410000Y-144360000D01*
G75*
G02*
X120485000Y-144435000I0J-75000D01*
G01*
X120485000Y-144585000D01*
G75*
G02*
X120410000Y-144660000I-75000J0D01*
G01*
X118960000Y-144660000D01*
G75*
G02*
X118885000Y-144585000I0J75000D01*
G01*
G37*
G36*
G01*
X118885000Y-144085000D02*
X118885000Y-143935000D01*
G75*
G02*
X118960000Y-143860000I75000J0D01*
G01*
X120410000Y-143860000D01*
G75*
G02*
X120485000Y-143935000I0J-75000D01*
G01*
X120485000Y-144085000D01*
G75*
G02*
X120410000Y-144160000I-75000J0D01*
G01*
X118960000Y-144160000D01*
G75*
G02*
X118885000Y-144085000I0J75000D01*
G01*
G37*
G36*
G01*
X118885000Y-143585000D02*
X118885000Y-143435000D01*
G75*
G02*
X118960000Y-143360000I75000J0D01*
G01*
X120410000Y-143360000D01*
G75*
G02*
X120485000Y-143435000I0J-75000D01*
G01*
X120485000Y-143585000D01*
G75*
G02*
X120410000Y-143660000I-75000J0D01*
G01*
X118960000Y-143660000D01*
G75*
G02*
X118885000Y-143585000I0J75000D01*
G01*
G37*
G36*
G01*
X118885000Y-143085000D02*
X118885000Y-142935000D01*
G75*
G02*
X118960000Y-142860000I75000J0D01*
G01*
X120410000Y-142860000D01*
G75*
G02*
X120485000Y-142935000I0J-75000D01*
G01*
X120485000Y-143085000D01*
G75*
G02*
X120410000Y-143160000I-75000J0D01*
G01*
X118960000Y-143160000D01*
G75*
G02*
X118885000Y-143085000I0J75000D01*
G01*
G37*
G36*
G01*
X118885000Y-142585000D02*
X118885000Y-142435000D01*
G75*
G02*
X118960000Y-142360000I75000J0D01*
G01*
X120410000Y-142360000D01*
G75*
G02*
X120485000Y-142435000I0J-75000D01*
G01*
X120485000Y-142585000D01*
G75*
G02*
X120410000Y-142660000I-75000J0D01*
G01*
X118960000Y-142660000D01*
G75*
G02*
X118885000Y-142585000I0J75000D01*
G01*
G37*
G36*
G01*
X118885000Y-142085000D02*
X118885000Y-141935000D01*
G75*
G02*
X118960000Y-141860000I75000J0D01*
G01*
X120410000Y-141860000D01*
G75*
G02*
X120485000Y-141935000I0J-75000D01*
G01*
X120485000Y-142085000D01*
G75*
G02*
X120410000Y-142160000I-75000J0D01*
G01*
X118960000Y-142160000D01*
G75*
G02*
X118885000Y-142085000I0J75000D01*
G01*
G37*
G36*
G01*
X118885000Y-141585000D02*
X118885000Y-141435000D01*
G75*
G02*
X118960000Y-141360000I75000J0D01*
G01*
X120410000Y-141360000D01*
G75*
G02*
X120485000Y-141435000I0J-75000D01*
G01*
X120485000Y-141585000D01*
G75*
G02*
X120410000Y-141660000I-75000J0D01*
G01*
X118960000Y-141660000D01*
G75*
G02*
X118885000Y-141585000I0J75000D01*
G01*
G37*
G36*
G01*
X118885000Y-141085000D02*
X118885000Y-140935000D01*
G75*
G02*
X118960000Y-140860000I75000J0D01*
G01*
X120410000Y-140860000D01*
G75*
G02*
X120485000Y-140935000I0J-75000D01*
G01*
X120485000Y-141085000D01*
G75*
G02*
X120410000Y-141160000I-75000J0D01*
G01*
X118960000Y-141160000D01*
G75*
G02*
X118885000Y-141085000I0J75000D01*
G01*
G37*
G36*
G01*
X118885000Y-140585000D02*
X118885000Y-140435000D01*
G75*
G02*
X118960000Y-140360000I75000J0D01*
G01*
X120410000Y-140360000D01*
G75*
G02*
X120485000Y-140435000I0J-75000D01*
G01*
X120485000Y-140585000D01*
G75*
G02*
X120410000Y-140660000I-75000J0D01*
G01*
X118960000Y-140660000D01*
G75*
G02*
X118885000Y-140585000I0J75000D01*
G01*
G37*
G36*
G01*
X118885000Y-140085000D02*
X118885000Y-139935000D01*
G75*
G02*
X118960000Y-139860000I75000J0D01*
G01*
X120410000Y-139860000D01*
G75*
G02*
X120485000Y-139935000I0J-75000D01*
G01*
X120485000Y-140085000D01*
G75*
G02*
X120410000Y-140160000I-75000J0D01*
G01*
X118960000Y-140160000D01*
G75*
G02*
X118885000Y-140085000I0J75000D01*
G01*
G37*
G36*
G01*
X118885000Y-139585000D02*
X118885000Y-139435000D01*
G75*
G02*
X118960000Y-139360000I75000J0D01*
G01*
X120410000Y-139360000D01*
G75*
G02*
X120485000Y-139435000I0J-75000D01*
G01*
X120485000Y-139585000D01*
G75*
G02*
X120410000Y-139660000I-75000J0D01*
G01*
X118960000Y-139660000D01*
G75*
G02*
X118885000Y-139585000I0J75000D01*
G01*
G37*
G36*
G01*
X118885000Y-139085000D02*
X118885000Y-138935000D01*
G75*
G02*
X118960000Y-138860000I75000J0D01*
G01*
X120410000Y-138860000D01*
G75*
G02*
X120485000Y-138935000I0J-75000D01*
G01*
X120485000Y-139085000D01*
G75*
G02*
X120410000Y-139160000I-75000J0D01*
G01*
X118960000Y-139160000D01*
G75*
G02*
X118885000Y-139085000I0J75000D01*
G01*
G37*
G36*
G01*
X118885000Y-138585000D02*
X118885000Y-138435000D01*
G75*
G02*
X118960000Y-138360000I75000J0D01*
G01*
X120410000Y-138360000D01*
G75*
G02*
X120485000Y-138435000I0J-75000D01*
G01*
X120485000Y-138585000D01*
G75*
G02*
X120410000Y-138660000I-75000J0D01*
G01*
X118960000Y-138660000D01*
G75*
G02*
X118885000Y-138585000I0J75000D01*
G01*
G37*
G36*
G01*
X118885000Y-138085000D02*
X118885000Y-137935000D01*
G75*
G02*
X118960000Y-137860000I75000J0D01*
G01*
X120410000Y-137860000D01*
G75*
G02*
X120485000Y-137935000I0J-75000D01*
G01*
X120485000Y-138085000D01*
G75*
G02*
X120410000Y-138160000I-75000J0D01*
G01*
X118960000Y-138160000D01*
G75*
G02*
X118885000Y-138085000I0J75000D01*
G01*
G37*
G36*
G01*
X118885000Y-137585000D02*
X118885000Y-137435000D01*
G75*
G02*
X118960000Y-137360000I75000J0D01*
G01*
X120410000Y-137360000D01*
G75*
G02*
X120485000Y-137435000I0J-75000D01*
G01*
X120485000Y-137585000D01*
G75*
G02*
X120410000Y-137660000I-75000J0D01*
G01*
X118960000Y-137660000D01*
G75*
G02*
X118885000Y-137585000I0J75000D01*
G01*
G37*
G36*
G01*
X118885000Y-137085000D02*
X118885000Y-136935000D01*
G75*
G02*
X118960000Y-136860000I75000J0D01*
G01*
X120410000Y-136860000D01*
G75*
G02*
X120485000Y-136935000I0J-75000D01*
G01*
X120485000Y-137085000D01*
G75*
G02*
X120410000Y-137160000I-75000J0D01*
G01*
X118960000Y-137160000D01*
G75*
G02*
X118885000Y-137085000I0J75000D01*
G01*
G37*
G36*
G01*
X118885000Y-136585000D02*
X118885000Y-136435000D01*
G75*
G02*
X118960000Y-136360000I75000J0D01*
G01*
X120410000Y-136360000D01*
G75*
G02*
X120485000Y-136435000I0J-75000D01*
G01*
X120485000Y-136585000D01*
G75*
G02*
X120410000Y-136660000I-75000J0D01*
G01*
X118960000Y-136660000D01*
G75*
G02*
X118885000Y-136585000I0J75000D01*
G01*
G37*
G36*
G01*
X118885000Y-136085000D02*
X118885000Y-135935000D01*
G75*
G02*
X118960000Y-135860000I75000J0D01*
G01*
X120410000Y-135860000D01*
G75*
G02*
X120485000Y-135935000I0J-75000D01*
G01*
X120485000Y-136085000D01*
G75*
G02*
X120410000Y-136160000I-75000J0D01*
G01*
X118960000Y-136160000D01*
G75*
G02*
X118885000Y-136085000I0J75000D01*
G01*
G37*
G36*
G01*
X118885000Y-135585000D02*
X118885000Y-135435000D01*
G75*
G02*
X118960000Y-135360000I75000J0D01*
G01*
X120410000Y-135360000D01*
G75*
G02*
X120485000Y-135435000I0J-75000D01*
G01*
X120485000Y-135585000D01*
G75*
G02*
X120410000Y-135660000I-75000J0D01*
G01*
X118960000Y-135660000D01*
G75*
G02*
X118885000Y-135585000I0J75000D01*
G01*
G37*
G36*
G01*
X118885000Y-135085000D02*
X118885000Y-134935000D01*
G75*
G02*
X118960000Y-134860000I75000J0D01*
G01*
X120410000Y-134860000D01*
G75*
G02*
X120485000Y-134935000I0J-75000D01*
G01*
X120485000Y-135085000D01*
G75*
G02*
X120410000Y-135160000I-75000J0D01*
G01*
X118960000Y-135160000D01*
G75*
G02*
X118885000Y-135085000I0J75000D01*
G01*
G37*
G36*
G01*
X118885000Y-134585000D02*
X118885000Y-134435000D01*
G75*
G02*
X118960000Y-134360000I75000J0D01*
G01*
X120410000Y-134360000D01*
G75*
G02*
X120485000Y-134435000I0J-75000D01*
G01*
X120485000Y-134585000D01*
G75*
G02*
X120410000Y-134660000I-75000J0D01*
G01*
X118960000Y-134660000D01*
G75*
G02*
X118885000Y-134585000I0J75000D01*
G01*
G37*
G36*
G01*
X97430000Y-117420000D02*
X97430000Y-116320000D01*
G75*
G02*
X97680000Y-116070000I250000J0D01*
G01*
X100680000Y-116070000D01*
G75*
G02*
X100930000Y-116320000I0J-250000D01*
G01*
X100930000Y-117420000D01*
G75*
G02*
X100680000Y-117670000I-250000J0D01*
G01*
X97680000Y-117670000D01*
G75*
G02*
X97430000Y-117420000I0J250000D01*
G01*
G37*
G36*
G01*
X92030000Y-117420000D02*
X92030000Y-116320000D01*
G75*
G02*
X92280000Y-116070000I250000J0D01*
G01*
X95280000Y-116070000D01*
G75*
G02*
X95530000Y-116320000I0J-250000D01*
G01*
X95530000Y-117420000D01*
G75*
G02*
X95280000Y-117670000I-250000J0D01*
G01*
X92280000Y-117670000D01*
G75*
G02*
X92030000Y-117420000I0J250000D01*
G01*
G37*
G36*
G01*
X76740001Y-123000000D02*
X75839999Y-123000000D01*
G75*
G02*
X75590000Y-122750001I0J249999D01*
G01*
X75590000Y-122224999D01*
G75*
G02*
X75839999Y-121975000I249999J0D01*
G01*
X76740001Y-121975000D01*
G75*
G02*
X76990000Y-122224999I0J-249999D01*
G01*
X76990000Y-122750001D01*
G75*
G02*
X76740001Y-123000000I-249999J0D01*
G01*
G37*
G36*
G01*
X76740001Y-124825000D02*
X75839999Y-124825000D01*
G75*
G02*
X75590000Y-124575001I0J249999D01*
G01*
X75590000Y-124049999D01*
G75*
G02*
X75839999Y-123800000I249999J0D01*
G01*
X76740001Y-123800000D01*
G75*
G02*
X76990000Y-124049999I0J-249999D01*
G01*
X76990000Y-124575001D01*
G75*
G02*
X76740001Y-124825000I-249999J0D01*
G01*
G37*
G36*
G01*
X78710001Y-122990000D02*
X77809999Y-122990000D01*
G75*
G02*
X77560000Y-122740001I0J249999D01*
G01*
X77560000Y-122214999D01*
G75*
G02*
X77809999Y-121965000I249999J0D01*
G01*
X78710001Y-121965000D01*
G75*
G02*
X78960000Y-122214999I0J-249999D01*
G01*
X78960000Y-122740001D01*
G75*
G02*
X78710001Y-122990000I-249999J0D01*
G01*
G37*
G36*
G01*
X78710001Y-124815000D02*
X77809999Y-124815000D01*
G75*
G02*
X77560000Y-124565001I0J249999D01*
G01*
X77560000Y-124039999D01*
G75*
G02*
X77809999Y-123790000I249999J0D01*
G01*
X78710001Y-123790000D01*
G75*
G02*
X78960000Y-124039999I0J-249999D01*
G01*
X78960000Y-124565001D01*
G75*
G02*
X78710001Y-124815000I-249999J0D01*
G01*
G37*
D29*
X83720000Y-123970000D03*
X85720000Y-123020000D03*
X85720000Y-124920000D03*
D30*
X73550000Y-124420000D03*
X72600000Y-122420000D03*
X74500000Y-122420000D03*
D25*
X85120000Y-153470000D03*
G36*
G01*
X81770000Y-154220000D02*
X81770000Y-152720000D01*
G75*
G02*
X82020000Y-152470000I250000J0D01*
G01*
X83220000Y-152470000D01*
G75*
G02*
X83470000Y-152720000I0J-250000D01*
G01*
X83470000Y-154220000D01*
G75*
G02*
X83220000Y-154470000I-250000J0D01*
G01*
X82020000Y-154470000D01*
G75*
G02*
X81770000Y-154220000I0J250000D01*
G01*
G37*
X85120000Y-145460000D03*
G36*
G01*
X81770000Y-146210000D02*
X81770000Y-144710000D01*
G75*
G02*
X82020000Y-144460000I250000J0D01*
G01*
X83220000Y-144460000D01*
G75*
G02*
X83470000Y-144710000I0J-250000D01*
G01*
X83470000Y-146210000D01*
G75*
G02*
X83220000Y-146460000I-250000J0D01*
G01*
X82020000Y-146460000D01*
G75*
G02*
X81770000Y-146210000I0J250000D01*
G01*
G37*
X74510000Y-153460000D03*
G36*
G01*
X71160000Y-154210000D02*
X71160000Y-152710000D01*
G75*
G02*
X71410000Y-152460000I250000J0D01*
G01*
X72610000Y-152460000D01*
G75*
G02*
X72860000Y-152710000I0J-250000D01*
G01*
X72860000Y-154210000D01*
G75*
G02*
X72610000Y-154460000I-250000J0D01*
G01*
X71410000Y-154460000D01*
G75*
G02*
X71160000Y-154210000I0J250000D01*
G01*
G37*
X74510000Y-145460000D03*
G36*
G01*
X71160000Y-146210000D02*
X71160000Y-144710000D01*
G75*
G02*
X71410000Y-144460000I250000J0D01*
G01*
X72610000Y-144460000D01*
G75*
G02*
X72860000Y-144710000I0J-250000D01*
G01*
X72860000Y-146210000D01*
G75*
G02*
X72610000Y-146460000I-250000J0D01*
G01*
X71410000Y-146460000D01*
G75*
G02*
X71160000Y-146210000I0J250000D01*
G01*
G37*
X74510000Y-137460000D03*
G36*
G01*
X71160000Y-138210000D02*
X71160000Y-136710000D01*
G75*
G02*
X71410000Y-136460000I250000J0D01*
G01*
X72610000Y-136460000D01*
G75*
G02*
X72860000Y-136710000I0J-250000D01*
G01*
X72860000Y-138210000D01*
G75*
G02*
X72610000Y-138460000I-250000J0D01*
G01*
X71410000Y-138460000D01*
G75*
G02*
X71160000Y-138210000I0J250000D01*
G01*
G37*
X85070000Y-129460000D03*
G36*
G01*
X81720000Y-130210000D02*
X81720000Y-128710000D01*
G75*
G02*
X81970000Y-128460000I250000J0D01*
G01*
X83170000Y-128460000D01*
G75*
G02*
X83420000Y-128710000I0J-250000D01*
G01*
X83420000Y-130210000D01*
G75*
G02*
X83170000Y-130460000I-250000J0D01*
G01*
X81970000Y-130460000D01*
G75*
G02*
X81720000Y-130210000I0J250000D01*
G01*
G37*
X74510000Y-129460000D03*
G36*
G01*
X71160000Y-130210000D02*
X71160000Y-128710000D01*
G75*
G02*
X71410000Y-128460000I250000J0D01*
G01*
X72610000Y-128460000D01*
G75*
G02*
X72860000Y-128710000I0J-250000D01*
G01*
X72860000Y-130210000D01*
G75*
G02*
X72610000Y-130460000I-250000J0D01*
G01*
X71410000Y-130460000D01*
G75*
G02*
X71160000Y-130210000I0J250000D01*
G01*
G37*
D31*
X162150000Y-149680000D03*
X162150000Y-150480000D03*
X162150000Y-149680000D03*
X162150000Y-150480000D03*
X162150000Y-156080000D03*
X162150000Y-156080000D03*
X162150000Y-155280000D03*
X162150000Y-155280000D03*
D32*
X163210000Y-155770000D03*
X163210000Y-149990000D03*
D33*
X162150000Y-151130000D03*
X162150000Y-152130000D03*
X162150000Y-151630000D03*
X162150000Y-154130000D03*
X162150000Y-154630000D03*
X162150000Y-152630000D03*
X162150000Y-153130000D03*
X162150000Y-153630000D03*
D34*
X166900000Y-148560000D03*
X166900000Y-157200000D03*
D35*
X162730000Y-148560000D03*
X162730000Y-157200000D03*
D36*
X81820000Y-121520000D03*
X81820000Y-124320000D03*
X70600000Y-124350000D03*
X70600000Y-121550000D03*
G36*
G01*
X79439999Y-118945000D02*
X80340001Y-118945000D01*
G75*
G02*
X80590000Y-119194999I0J-249999D01*
G01*
X80590000Y-119720001D01*
G75*
G02*
X80340001Y-119970000I-249999J0D01*
G01*
X79439999Y-119970000D01*
G75*
G02*
X79190000Y-119720001I0J249999D01*
G01*
X79190000Y-119194999D01*
G75*
G02*
X79439999Y-118945000I249999J0D01*
G01*
G37*
G36*
G01*
X79439999Y-117120000D02*
X80340001Y-117120000D01*
G75*
G02*
X80590000Y-117369999I0J-249999D01*
G01*
X80590000Y-117895001D01*
G75*
G02*
X80340001Y-118145000I-249999J0D01*
G01*
X79439999Y-118145000D01*
G75*
G02*
X79190000Y-117895001I0J249999D01*
G01*
X79190000Y-117369999D01*
G75*
G02*
X79439999Y-117120000I249999J0D01*
G01*
G37*
G36*
G01*
X77464999Y-118945000D02*
X78365001Y-118945000D01*
G75*
G02*
X78615000Y-119194999I0J-249999D01*
G01*
X78615000Y-119720001D01*
G75*
G02*
X78365001Y-119970000I-249999J0D01*
G01*
X77464999Y-119970000D01*
G75*
G02*
X77215000Y-119720001I0J249999D01*
G01*
X77215000Y-119194999D01*
G75*
G02*
X77464999Y-118945000I249999J0D01*
G01*
G37*
G36*
G01*
X77464999Y-117120000D02*
X78365001Y-117120000D01*
G75*
G02*
X78615000Y-117369999I0J-249999D01*
G01*
X78615000Y-117895001D01*
G75*
G02*
X78365001Y-118145000I-249999J0D01*
G01*
X77464999Y-118145000D01*
G75*
G02*
X77215000Y-117895001I0J249999D01*
G01*
X77215000Y-117369999D01*
G75*
G02*
X77464999Y-117120000I249999J0D01*
G01*
G37*
D31*
X75825000Y-118595000D03*
X75825000Y-117795000D03*
X75825000Y-118595000D03*
X75825000Y-117795000D03*
X75825000Y-112195000D03*
X75825000Y-112195000D03*
X75825000Y-112995000D03*
X75825000Y-112995000D03*
D32*
X74765000Y-112505000D03*
X74765000Y-118285000D03*
D33*
X75825000Y-117145000D03*
X75825000Y-116145000D03*
X75825000Y-116645000D03*
X75825000Y-114145000D03*
X75825000Y-113645000D03*
X75825000Y-115645000D03*
X75825000Y-115145000D03*
X75825000Y-114645000D03*
D34*
X71075000Y-119715000D03*
X71075000Y-111075000D03*
D35*
X75245000Y-119715000D03*
X75245000Y-111075000D03*
G36*
G01*
X83065000Y-106795001D02*
X83065000Y-105894999D01*
G75*
G02*
X83314999Y-105645000I249999J0D01*
G01*
X83840001Y-105645000D01*
G75*
G02*
X84090000Y-105894999I0J-249999D01*
G01*
X84090000Y-106795001D01*
G75*
G02*
X83840001Y-107045000I-249999J0D01*
G01*
X83314999Y-107045000D01*
G75*
G02*
X83065000Y-106795001I0J249999D01*
G01*
G37*
G36*
G01*
X81240000Y-106795001D02*
X81240000Y-105894999D01*
G75*
G02*
X81489999Y-105645000I249999J0D01*
G01*
X82015001Y-105645000D01*
G75*
G02*
X82265000Y-105894999I0J-249999D01*
G01*
X82265000Y-106795001D01*
G75*
G02*
X82015001Y-107045000I-249999J0D01*
G01*
X81489999Y-107045000D01*
G75*
G02*
X81240000Y-106795001I0J249999D01*
G01*
G37*
D37*
X76140000Y-106495000D03*
X70440000Y-106495000D03*
G36*
G01*
X82715000Y-99095000D02*
X81765000Y-99095000D01*
G75*
G02*
X81515000Y-98845000I0J250000D01*
G01*
X81515000Y-98345000D01*
G75*
G02*
X81765000Y-98095000I250000J0D01*
G01*
X82715000Y-98095000D01*
G75*
G02*
X82965000Y-98345000I0J-250000D01*
G01*
X82965000Y-98845000D01*
G75*
G02*
X82715000Y-99095000I-250000J0D01*
G01*
G37*
G36*
G01*
X82715000Y-100995000D02*
X81765000Y-100995000D01*
G75*
G02*
X81515000Y-100745000I0J250000D01*
G01*
X81515000Y-100245000D01*
G75*
G02*
X81765000Y-99995000I250000J0D01*
G01*
X82715000Y-99995000D01*
G75*
G02*
X82965000Y-100245000I0J-250000D01*
G01*
X82965000Y-100745000D01*
G75*
G02*
X82715000Y-100995000I-250000J0D01*
G01*
G37*
G36*
G01*
X82490000Y-96045000D02*
X82490000Y-96995000D01*
G75*
G02*
X82240000Y-97245000I-250000J0D01*
G01*
X81740000Y-97245000D01*
G75*
G02*
X81490000Y-96995000I0J250000D01*
G01*
X81490000Y-96045000D01*
G75*
G02*
X81740000Y-95795000I250000J0D01*
G01*
X82240000Y-95795000D01*
G75*
G02*
X82490000Y-96045000I0J-250000D01*
G01*
G37*
G36*
G01*
X84390000Y-96045000D02*
X84390000Y-96995000D01*
G75*
G02*
X84140000Y-97245000I-250000J0D01*
G01*
X83640000Y-97245000D01*
G75*
G02*
X83390000Y-96995000I0J250000D01*
G01*
X83390000Y-96045000D01*
G75*
G02*
X83640000Y-95795000I250000J0D01*
G01*
X84140000Y-95795000D01*
G75*
G02*
X84390000Y-96045000I0J-250000D01*
G01*
G37*
D38*
X74715000Y-100050000D03*
X74715000Y-98780000D03*
X74715000Y-97510000D03*
X74715000Y-96240000D03*
X80115000Y-96240000D03*
X80115000Y-97510000D03*
X80115000Y-98780000D03*
X80115000Y-100050000D03*
D39*
X77415000Y-98145000D03*
G36*
G01*
X79565000Y-104770001D02*
X79565000Y-103869999D01*
G75*
G02*
X79814999Y-103620000I249999J0D01*
G01*
X80340001Y-103620000D01*
G75*
G02*
X80590000Y-103869999I0J-249999D01*
G01*
X80590000Y-104770001D01*
G75*
G02*
X80340001Y-105020000I-249999J0D01*
G01*
X79814999Y-105020000D01*
G75*
G02*
X79565000Y-104770001I0J249999D01*
G01*
G37*
G36*
G01*
X77740000Y-104770001D02*
X77740000Y-103869999D01*
G75*
G02*
X77989999Y-103620000I249999J0D01*
G01*
X78515001Y-103620000D01*
G75*
G02*
X78765000Y-103869999I0J-249999D01*
G01*
X78765000Y-104770001D01*
G75*
G02*
X78515001Y-105020000I-249999J0D01*
G01*
X77989999Y-105020000D01*
G75*
G02*
X77740000Y-104770001I0J249999D01*
G01*
G37*
G36*
G01*
X79590000Y-106770001D02*
X79590000Y-105869999D01*
G75*
G02*
X79839999Y-105620000I249999J0D01*
G01*
X80365001Y-105620000D01*
G75*
G02*
X80615000Y-105869999I0J-249999D01*
G01*
X80615000Y-106770001D01*
G75*
G02*
X80365001Y-107020000I-249999J0D01*
G01*
X79839999Y-107020000D01*
G75*
G02*
X79590000Y-106770001I0J249999D01*
G01*
G37*
G36*
G01*
X77765000Y-106770001D02*
X77765000Y-105869999D01*
G75*
G02*
X78014999Y-105620000I249999J0D01*
G01*
X78540001Y-105620000D01*
G75*
G02*
X78790000Y-105869999I0J-249999D01*
G01*
X78790000Y-106770001D01*
G75*
G02*
X78540001Y-107020000I-249999J0D01*
G01*
X78014999Y-107020000D01*
G75*
G02*
X77765000Y-106770001I0J249999D01*
G01*
G37*
G36*
G01*
X83040000Y-102745001D02*
X83040000Y-101844999D01*
G75*
G02*
X83289999Y-101595000I249999J0D01*
G01*
X83815001Y-101595000D01*
G75*
G02*
X84065000Y-101844999I0J-249999D01*
G01*
X84065000Y-102745001D01*
G75*
G02*
X83815001Y-102995000I-249999J0D01*
G01*
X83289999Y-102995000D01*
G75*
G02*
X83040000Y-102745001I0J249999D01*
G01*
G37*
G36*
G01*
X81215000Y-102745001D02*
X81215000Y-101844999D01*
G75*
G02*
X81464999Y-101595000I249999J0D01*
G01*
X81990001Y-101595000D01*
G75*
G02*
X82240000Y-101844999I0J-249999D01*
G01*
X82240000Y-102745001D01*
G75*
G02*
X81990001Y-102995000I-249999J0D01*
G01*
X81464999Y-102995000D01*
G75*
G02*
X81215000Y-102745001I0J249999D01*
G01*
G37*
D40*
X71365000Y-97070000D03*
X71365000Y-101370000D03*
G36*
G01*
X81340000Y-111145000D02*
X80240000Y-111145000D01*
G75*
G02*
X79990000Y-110895000I0J250000D01*
G01*
X79990000Y-107895000D01*
G75*
G02*
X80240000Y-107645000I250000J0D01*
G01*
X81340000Y-107645000D01*
G75*
G02*
X81590000Y-107895000I0J-250000D01*
G01*
X81590000Y-110895000D01*
G75*
G02*
X81340000Y-111145000I-250000J0D01*
G01*
G37*
G36*
G01*
X81340000Y-116545000D02*
X80240000Y-116545000D01*
G75*
G02*
X79990000Y-116295000I0J250000D01*
G01*
X79990000Y-113295000D01*
G75*
G02*
X80240000Y-113045000I250000J0D01*
G01*
X81340000Y-113045000D01*
G75*
G02*
X81590000Y-113295000I0J-250000D01*
G01*
X81590000Y-116295000D01*
G75*
G02*
X81340000Y-116545000I-250000J0D01*
G01*
G37*
G36*
G01*
X75865000Y-102420000D02*
X75865000Y-101470000D01*
G75*
G02*
X76115000Y-101220000I250000J0D01*
G01*
X76615000Y-101220000D01*
G75*
G02*
X76865000Y-101470000I0J-250000D01*
G01*
X76865000Y-102420000D01*
G75*
G02*
X76615000Y-102670000I-250000J0D01*
G01*
X76115000Y-102670000D01*
G75*
G02*
X75865000Y-102420000I0J250000D01*
G01*
G37*
G36*
G01*
X73965000Y-102420000D02*
X73965000Y-101470000D01*
G75*
G02*
X74215000Y-101220000I250000J0D01*
G01*
X74715000Y-101220000D01*
G75*
G02*
X74965000Y-101470000I0J-250000D01*
G01*
X74965000Y-102420000D01*
G75*
G02*
X74715000Y-102670000I-250000J0D01*
G01*
X74215000Y-102670000D01*
G75*
G02*
X73965000Y-102420000I0J250000D01*
G01*
G37*
G36*
G01*
X78740000Y-101470000D02*
X78740000Y-102420000D01*
G75*
G02*
X78490000Y-102670000I-250000J0D01*
G01*
X77990000Y-102670000D01*
G75*
G02*
X77740000Y-102420000I0J250000D01*
G01*
X77740000Y-101470000D01*
G75*
G02*
X77990000Y-101220000I250000J0D01*
G01*
X78490000Y-101220000D01*
G75*
G02*
X78740000Y-101470000I0J-250000D01*
G01*
G37*
G36*
G01*
X80640000Y-101470000D02*
X80640000Y-102420000D01*
G75*
G02*
X80390000Y-102670000I-250000J0D01*
G01*
X79890000Y-102670000D01*
G75*
G02*
X79640000Y-102420000I0J250000D01*
G01*
X79640000Y-101470000D01*
G75*
G02*
X79890000Y-101220000I250000J0D01*
G01*
X80390000Y-101220000D01*
G75*
G02*
X80640000Y-101470000I0J-250000D01*
G01*
G37*
G36*
G01*
X82190000Y-103870000D02*
X82190000Y-104820000D01*
G75*
G02*
X81940000Y-105070000I-250000J0D01*
G01*
X81440000Y-105070000D01*
G75*
G02*
X81190000Y-104820000I0J250000D01*
G01*
X81190000Y-103870000D01*
G75*
G02*
X81440000Y-103620000I250000J0D01*
G01*
X81940000Y-103620000D01*
G75*
G02*
X82190000Y-103870000I0J-250000D01*
G01*
G37*
G36*
G01*
X84090000Y-103870000D02*
X84090000Y-104820000D01*
G75*
G02*
X83840000Y-105070000I-250000J0D01*
G01*
X83340000Y-105070000D01*
G75*
G02*
X83090000Y-104820000I0J250000D01*
G01*
X83090000Y-103870000D01*
G75*
G02*
X83340000Y-103620000I250000J0D01*
G01*
X83840000Y-103620000D01*
G75*
G02*
X84090000Y-103870000I0J-250000D01*
G01*
G37*
D41*
X103940000Y-111720000D03*
X86160000Y-99020000D03*
X101400000Y-111720000D03*
X88700000Y-99020000D03*
X98860000Y-111720000D03*
X91240000Y-99020000D03*
X96320000Y-111720000D03*
X93780000Y-99020000D03*
X93780000Y-111720000D03*
X96320000Y-99020000D03*
X91240000Y-111720000D03*
X98860000Y-99020000D03*
X88700000Y-111720000D03*
X101400000Y-99020000D03*
X86160000Y-111720000D03*
D11*
X103940000Y-99020000D03*
G36*
G01*
X70235000Y-87970000D02*
X69935000Y-87970000D01*
G75*
G02*
X69785000Y-87820000I0J150000D01*
G01*
X69785000Y-86370000D01*
G75*
G02*
X69935000Y-86220000I150000J0D01*
G01*
X70235000Y-86220000D01*
G75*
G02*
X70385000Y-86370000I0J-150000D01*
G01*
X70385000Y-87820000D01*
G75*
G02*
X70235000Y-87970000I-150000J0D01*
G01*
G37*
G36*
G01*
X71505000Y-87970000D02*
X71205000Y-87970000D01*
G75*
G02*
X71055000Y-87820000I0J150000D01*
G01*
X71055000Y-86370000D01*
G75*
G02*
X71205000Y-86220000I150000J0D01*
G01*
X71505000Y-86220000D01*
G75*
G02*
X71655000Y-86370000I0J-150000D01*
G01*
X71655000Y-87820000D01*
G75*
G02*
X71505000Y-87970000I-150000J0D01*
G01*
G37*
G36*
G01*
X72775000Y-87970000D02*
X72475000Y-87970000D01*
G75*
G02*
X72325000Y-87820000I0J150000D01*
G01*
X72325000Y-86370000D01*
G75*
G02*
X72475000Y-86220000I150000J0D01*
G01*
X72775000Y-86220000D01*
G75*
G02*
X72925000Y-86370000I0J-150000D01*
G01*
X72925000Y-87820000D01*
G75*
G02*
X72775000Y-87970000I-150000J0D01*
G01*
G37*
G36*
G01*
X74045000Y-87970000D02*
X73745000Y-87970000D01*
G75*
G02*
X73595000Y-87820000I0J150000D01*
G01*
X73595000Y-86370000D01*
G75*
G02*
X73745000Y-86220000I150000J0D01*
G01*
X74045000Y-86220000D01*
G75*
G02*
X74195000Y-86370000I0J-150000D01*
G01*
X74195000Y-87820000D01*
G75*
G02*
X74045000Y-87970000I-150000J0D01*
G01*
G37*
G36*
G01*
X74045000Y-93120000D02*
X73745000Y-93120000D01*
G75*
G02*
X73595000Y-92970000I0J150000D01*
G01*
X73595000Y-91520000D01*
G75*
G02*
X73745000Y-91370000I150000J0D01*
G01*
X74045000Y-91370000D01*
G75*
G02*
X74195000Y-91520000I0J-150000D01*
G01*
X74195000Y-92970000D01*
G75*
G02*
X74045000Y-93120000I-150000J0D01*
G01*
G37*
G36*
G01*
X72775000Y-93120000D02*
X72475000Y-93120000D01*
G75*
G02*
X72325000Y-92970000I0J150000D01*
G01*
X72325000Y-91520000D01*
G75*
G02*
X72475000Y-91370000I150000J0D01*
G01*
X72775000Y-91370000D01*
G75*
G02*
X72925000Y-91520000I0J-150000D01*
G01*
X72925000Y-92970000D01*
G75*
G02*
X72775000Y-93120000I-150000J0D01*
G01*
G37*
G36*
G01*
X71505000Y-93120000D02*
X71205000Y-93120000D01*
G75*
G02*
X71055000Y-92970000I0J150000D01*
G01*
X71055000Y-91520000D01*
G75*
G02*
X71205000Y-91370000I150000J0D01*
G01*
X71505000Y-91370000D01*
G75*
G02*
X71655000Y-91520000I0J-150000D01*
G01*
X71655000Y-92970000D01*
G75*
G02*
X71505000Y-93120000I-150000J0D01*
G01*
G37*
G36*
G01*
X70235000Y-93120000D02*
X69935000Y-93120000D01*
G75*
G02*
X69785000Y-92970000I0J150000D01*
G01*
X69785000Y-91520000D01*
G75*
G02*
X69935000Y-91370000I150000J0D01*
G01*
X70235000Y-91370000D01*
G75*
G02*
X70385000Y-91520000I0J-150000D01*
G01*
X70385000Y-92970000D01*
G75*
G02*
X70235000Y-93120000I-150000J0D01*
G01*
G37*
D24*
X112290000Y-94370000D03*
X114790000Y-94370000D03*
X117290000Y-94370000D03*
G36*
G01*
X120640000Y-93645000D02*
X120640000Y-95095000D01*
G75*
G02*
X120390000Y-95345000I-250000J0D01*
G01*
X119190000Y-95345000D01*
G75*
G02*
X118940000Y-95095000I0J250000D01*
G01*
X118940000Y-93645000D01*
G75*
G02*
X119190000Y-93395000I250000J0D01*
G01*
X120390000Y-93395000D01*
G75*
G02*
X120640000Y-93645000I0J-250000D01*
G01*
G37*
X133290000Y-94420000D03*
X135790000Y-94420000D03*
X138290000Y-94420000D03*
G36*
G01*
X141640000Y-93695000D02*
X141640000Y-95145000D01*
G75*
G02*
X141390000Y-95395000I-250000J0D01*
G01*
X140190000Y-95395000D01*
G75*
G02*
X139940000Y-95145000I0J250000D01*
G01*
X139940000Y-93695000D01*
G75*
G02*
X140190000Y-93445000I250000J0D01*
G01*
X141390000Y-93445000D01*
G75*
G02*
X141640000Y-93695000I0J-250000D01*
G01*
G37*
X91340000Y-94420000D03*
X93840000Y-94420000D03*
X96340000Y-94420000D03*
G36*
G01*
X99690000Y-93695000D02*
X99690000Y-95145000D01*
G75*
G02*
X99440000Y-95395000I-250000J0D01*
G01*
X98240000Y-95395000D01*
G75*
G02*
X97990000Y-95145000I0J250000D01*
G01*
X97990000Y-93695000D01*
G75*
G02*
X98240000Y-93445000I250000J0D01*
G01*
X99440000Y-93445000D01*
G75*
G02*
X99690000Y-93695000I0J-250000D01*
G01*
G37*
G36*
G01*
X82890001Y-78470000D02*
X81989999Y-78470000D01*
G75*
G02*
X81740000Y-78220001I0J249999D01*
G01*
X81740000Y-77694999D01*
G75*
G02*
X81989999Y-77445000I249999J0D01*
G01*
X82890001Y-77445000D01*
G75*
G02*
X83140000Y-77694999I0J-249999D01*
G01*
X83140000Y-78220001D01*
G75*
G02*
X82890001Y-78470000I-249999J0D01*
G01*
G37*
G36*
G01*
X82890001Y-80295000D02*
X81989999Y-80295000D01*
G75*
G02*
X81740000Y-80045001I0J249999D01*
G01*
X81740000Y-79519999D01*
G75*
G02*
X81989999Y-79270000I249999J0D01*
G01*
X82890001Y-79270000D01*
G75*
G02*
X83140000Y-79519999I0J-249999D01*
G01*
X83140000Y-80045001D01*
G75*
G02*
X82890001Y-80295000I-249999J0D01*
G01*
G37*
D42*
X73990000Y-77420000D03*
D43*
X73990000Y-82420000D03*
D20*
X158940000Y-70770000D03*
X81790000Y-75920000D03*
G36*
G01*
X81983750Y-83020000D02*
X82896250Y-83020000D01*
G75*
G02*
X83140000Y-83263750I0J-243750D01*
G01*
X83140000Y-83751250D01*
G75*
G02*
X82896250Y-83995000I-243750J0D01*
G01*
X81983750Y-83995000D01*
G75*
G02*
X81740000Y-83751250I0J243750D01*
G01*
X81740000Y-83263750D01*
G75*
G02*
X81983750Y-83020000I243750J0D01*
G01*
G37*
G36*
G01*
X81983750Y-81145000D02*
X82896250Y-81145000D01*
G75*
G02*
X83140000Y-81388750I0J-243750D01*
G01*
X83140000Y-81876250D01*
G75*
G02*
X82896250Y-82120000I-243750J0D01*
G01*
X81983750Y-82120000D01*
G75*
G02*
X81740000Y-81876250I0J243750D01*
G01*
X81740000Y-81388750D01*
G75*
G02*
X81983750Y-81145000I243750J0D01*
G01*
G37*
G36*
G01*
X80540000Y-90220000D02*
X80540000Y-89120000D01*
G75*
G02*
X80790000Y-88870000I250000J0D01*
G01*
X83790000Y-88870000D01*
G75*
G02*
X84040000Y-89120000I0J-250000D01*
G01*
X84040000Y-90220000D01*
G75*
G02*
X83790000Y-90470000I-250000J0D01*
G01*
X80790000Y-90470000D01*
G75*
G02*
X80540000Y-90220000I0J250000D01*
G01*
G37*
G36*
G01*
X75140000Y-90220000D02*
X75140000Y-89120000D01*
G75*
G02*
X75390000Y-88870000I250000J0D01*
G01*
X78390000Y-88870000D01*
G75*
G02*
X78640000Y-89120000I0J-250000D01*
G01*
X78640000Y-90220000D01*
G75*
G02*
X78390000Y-90470000I-250000J0D01*
G01*
X75390000Y-90470000D01*
G75*
G02*
X75140000Y-90220000I0J250000D01*
G01*
G37*
G36*
G01*
X90315000Y-109370001D02*
X90315000Y-108469999D01*
G75*
G02*
X90564999Y-108220000I249999J0D01*
G01*
X91090001Y-108220000D01*
G75*
G02*
X91340000Y-108469999I0J-249999D01*
G01*
X91340000Y-109370001D01*
G75*
G02*
X91090001Y-109620000I-249999J0D01*
G01*
X90564999Y-109620000D01*
G75*
G02*
X90315000Y-109370001I0J249999D01*
G01*
G37*
G36*
G01*
X92140000Y-109370001D02*
X92140000Y-108469999D01*
G75*
G02*
X92389999Y-108220000I249999J0D01*
G01*
X92915001Y-108220000D01*
G75*
G02*
X93165000Y-108469999I0J-249999D01*
G01*
X93165000Y-109370001D01*
G75*
G02*
X92915001Y-109620000I-249999J0D01*
G01*
X92389999Y-109620000D01*
G75*
G02*
X92140000Y-109370001I0J249999D01*
G01*
G37*
D18*
X103700000Y-102010000D03*
D17*
X103700000Y-104550000D03*
X103700000Y-107090000D03*
G36*
G01*
X84690000Y-104770000D02*
X84690000Y-103670000D01*
G75*
G02*
X84940000Y-103420000I250000J0D01*
G01*
X87940000Y-103420000D01*
G75*
G02*
X88190000Y-103670000I0J-250000D01*
G01*
X88190000Y-104770000D01*
G75*
G02*
X87940000Y-105020000I-250000J0D01*
G01*
X84940000Y-105020000D01*
G75*
G02*
X84690000Y-104770000I0J250000D01*
G01*
G37*
G36*
G01*
X90090000Y-104770000D02*
X90090000Y-103670000D01*
G75*
G02*
X90340000Y-103420000I250000J0D01*
G01*
X93340000Y-103420000D01*
G75*
G02*
X93590000Y-103670000I0J-250000D01*
G01*
X93590000Y-104770000D01*
G75*
G02*
X93340000Y-105020000I-250000J0D01*
G01*
X90340000Y-105020000D01*
G75*
G02*
X90090000Y-104770000I0J250000D01*
G01*
G37*
D18*
X98140000Y-102010000D03*
D17*
X98140000Y-104550000D03*
X98140000Y-107090000D03*
D18*
X95340000Y-102010000D03*
D17*
X95340000Y-104550000D03*
X95340000Y-107090000D03*
D18*
X100940000Y-102010000D03*
D17*
X100940000Y-104550000D03*
X100940000Y-107090000D03*
G36*
G01*
X111415000Y-109470001D02*
X111415000Y-108569999D01*
G75*
G02*
X111664999Y-108320000I249999J0D01*
G01*
X112190001Y-108320000D01*
G75*
G02*
X112440000Y-108569999I0J-249999D01*
G01*
X112440000Y-109470001D01*
G75*
G02*
X112190001Y-109720000I-249999J0D01*
G01*
X111664999Y-109720000D01*
G75*
G02*
X111415000Y-109470001I0J249999D01*
G01*
G37*
G36*
G01*
X113240000Y-109470001D02*
X113240000Y-108569999D01*
G75*
G02*
X113489999Y-108320000I249999J0D01*
G01*
X114015001Y-108320000D01*
G75*
G02*
X114265000Y-108569999I0J-249999D01*
G01*
X114265000Y-109470001D01*
G75*
G02*
X114015001Y-109720000I-249999J0D01*
G01*
X113489999Y-109720000D01*
G75*
G02*
X113240000Y-109470001I0J249999D01*
G01*
G37*
D18*
X124800000Y-102110000D03*
D17*
X124800000Y-104650000D03*
X124800000Y-107190000D03*
G36*
G01*
X105790000Y-104870000D02*
X105790000Y-103770000D01*
G75*
G02*
X106040000Y-103520000I250000J0D01*
G01*
X109040000Y-103520000D01*
G75*
G02*
X109290000Y-103770000I0J-250000D01*
G01*
X109290000Y-104870000D01*
G75*
G02*
X109040000Y-105120000I-250000J0D01*
G01*
X106040000Y-105120000D01*
G75*
G02*
X105790000Y-104870000I0J250000D01*
G01*
G37*
G36*
G01*
X111190000Y-104870000D02*
X111190000Y-103770000D01*
G75*
G02*
X111440000Y-103520000I250000J0D01*
G01*
X114440000Y-103520000D01*
G75*
G02*
X114690000Y-103770000I0J-250000D01*
G01*
X114690000Y-104870000D01*
G75*
G02*
X114440000Y-105120000I-250000J0D01*
G01*
X111440000Y-105120000D01*
G75*
G02*
X111190000Y-104870000I0J250000D01*
G01*
G37*
D18*
X119240000Y-102110000D03*
D17*
X119240000Y-104650000D03*
X119240000Y-107190000D03*
D18*
X116440000Y-102110000D03*
D17*
X116440000Y-104650000D03*
X116440000Y-107190000D03*
D18*
X122040000Y-102110000D03*
D17*
X122040000Y-104650000D03*
X122040000Y-107190000D03*
G36*
G01*
X153415000Y-109470001D02*
X153415000Y-108569999D01*
G75*
G02*
X153664999Y-108320000I249999J0D01*
G01*
X154190001Y-108320000D01*
G75*
G02*
X154440000Y-108569999I0J-249999D01*
G01*
X154440000Y-109470001D01*
G75*
G02*
X154190001Y-109720000I-249999J0D01*
G01*
X153664999Y-109720000D01*
G75*
G02*
X153415000Y-109470001I0J249999D01*
G01*
G37*
G36*
G01*
X155240000Y-109470001D02*
X155240000Y-108569999D01*
G75*
G02*
X155489999Y-108320000I249999J0D01*
G01*
X156015001Y-108320000D01*
G75*
G02*
X156265000Y-108569999I0J-249999D01*
G01*
X156265000Y-109470001D01*
G75*
G02*
X156015001Y-109720000I-249999J0D01*
G01*
X155489999Y-109720000D01*
G75*
G02*
X155240000Y-109470001I0J249999D01*
G01*
G37*
D18*
X166800000Y-102110000D03*
D17*
X166800000Y-104650000D03*
X166800000Y-107190000D03*
G36*
G01*
X147790000Y-104870000D02*
X147790000Y-103770000D01*
G75*
G02*
X148040000Y-103520000I250000J0D01*
G01*
X151040000Y-103520000D01*
G75*
G02*
X151290000Y-103770000I0J-250000D01*
G01*
X151290000Y-104870000D01*
G75*
G02*
X151040000Y-105120000I-250000J0D01*
G01*
X148040000Y-105120000D01*
G75*
G02*
X147790000Y-104870000I0J250000D01*
G01*
G37*
G36*
G01*
X153190000Y-104870000D02*
X153190000Y-103770000D01*
G75*
G02*
X153440000Y-103520000I250000J0D01*
G01*
X156440000Y-103520000D01*
G75*
G02*
X156690000Y-103770000I0J-250000D01*
G01*
X156690000Y-104870000D01*
G75*
G02*
X156440000Y-105120000I-250000J0D01*
G01*
X153440000Y-105120000D01*
G75*
G02*
X153190000Y-104870000I0J250000D01*
G01*
G37*
D18*
X161240000Y-102110000D03*
D17*
X161240000Y-104650000D03*
X161240000Y-107190000D03*
D18*
X158440000Y-102110000D03*
D17*
X158440000Y-104650000D03*
X158440000Y-107190000D03*
D18*
X164040000Y-102110000D03*
D17*
X164040000Y-104650000D03*
X164040000Y-107190000D03*
G36*
G01*
X132415000Y-109470001D02*
X132415000Y-108569999D01*
G75*
G02*
X132664999Y-108320000I249999J0D01*
G01*
X133190001Y-108320000D01*
G75*
G02*
X133440000Y-108569999I0J-249999D01*
G01*
X133440000Y-109470001D01*
G75*
G02*
X133190001Y-109720000I-249999J0D01*
G01*
X132664999Y-109720000D01*
G75*
G02*
X132415000Y-109470001I0J249999D01*
G01*
G37*
G36*
G01*
X134240000Y-109470001D02*
X134240000Y-108569999D01*
G75*
G02*
X134489999Y-108320000I249999J0D01*
G01*
X135015001Y-108320000D01*
G75*
G02*
X135265000Y-108569999I0J-249999D01*
G01*
X135265000Y-109470001D01*
G75*
G02*
X135015001Y-109720000I-249999J0D01*
G01*
X134489999Y-109720000D01*
G75*
G02*
X134240000Y-109470001I0J249999D01*
G01*
G37*
D18*
X145800000Y-102110000D03*
D17*
X145800000Y-104650000D03*
X145800000Y-107190000D03*
G36*
G01*
X126790000Y-104870000D02*
X126790000Y-103770000D01*
G75*
G02*
X127040000Y-103520000I250000J0D01*
G01*
X130040000Y-103520000D01*
G75*
G02*
X130290000Y-103770000I0J-250000D01*
G01*
X130290000Y-104870000D01*
G75*
G02*
X130040000Y-105120000I-250000J0D01*
G01*
X127040000Y-105120000D01*
G75*
G02*
X126790000Y-104870000I0J250000D01*
G01*
G37*
G36*
G01*
X132190000Y-104870000D02*
X132190000Y-103770000D01*
G75*
G02*
X132440000Y-103520000I250000J0D01*
G01*
X135440000Y-103520000D01*
G75*
G02*
X135690000Y-103770000I0J-250000D01*
G01*
X135690000Y-104870000D01*
G75*
G02*
X135440000Y-105120000I-250000J0D01*
G01*
X132440000Y-105120000D01*
G75*
G02*
X132190000Y-104870000I0J250000D01*
G01*
G37*
D18*
X140240000Y-102110000D03*
D17*
X140240000Y-104650000D03*
X140240000Y-107190000D03*
D18*
X137440000Y-102110000D03*
D17*
X137440000Y-104650000D03*
X137440000Y-107190000D03*
D18*
X143040000Y-102110000D03*
D17*
X143040000Y-104650000D03*
X143040000Y-107190000D03*
G36*
G01*
X153415000Y-86470001D02*
X153415000Y-85569999D01*
G75*
G02*
X153664999Y-85320000I249999J0D01*
G01*
X154190001Y-85320000D01*
G75*
G02*
X154440000Y-85569999I0J-249999D01*
G01*
X154440000Y-86470001D01*
G75*
G02*
X154190001Y-86720000I-249999J0D01*
G01*
X153664999Y-86720000D01*
G75*
G02*
X153415000Y-86470001I0J249999D01*
G01*
G37*
G36*
G01*
X155240000Y-86470001D02*
X155240000Y-85569999D01*
G75*
G02*
X155489999Y-85320000I249999J0D01*
G01*
X156015001Y-85320000D01*
G75*
G02*
X156265000Y-85569999I0J-249999D01*
G01*
X156265000Y-86470001D01*
G75*
G02*
X156015001Y-86720000I-249999J0D01*
G01*
X155489999Y-86720000D01*
G75*
G02*
X155240000Y-86470001I0J249999D01*
G01*
G37*
D18*
X166800000Y-79110000D03*
D17*
X166800000Y-81650000D03*
X166800000Y-84190000D03*
G36*
G01*
X147790000Y-81870000D02*
X147790000Y-80770000D01*
G75*
G02*
X148040000Y-80520000I250000J0D01*
G01*
X151040000Y-80520000D01*
G75*
G02*
X151290000Y-80770000I0J-250000D01*
G01*
X151290000Y-81870000D01*
G75*
G02*
X151040000Y-82120000I-250000J0D01*
G01*
X148040000Y-82120000D01*
G75*
G02*
X147790000Y-81870000I0J250000D01*
G01*
G37*
G36*
G01*
X153190000Y-81870000D02*
X153190000Y-80770000D01*
G75*
G02*
X153440000Y-80520000I250000J0D01*
G01*
X156440000Y-80520000D01*
G75*
G02*
X156690000Y-80770000I0J-250000D01*
G01*
X156690000Y-81870000D01*
G75*
G02*
X156440000Y-82120000I-250000J0D01*
G01*
X153440000Y-82120000D01*
G75*
G02*
X153190000Y-81870000I0J250000D01*
G01*
G37*
D18*
X161240000Y-79110000D03*
D17*
X161240000Y-81650000D03*
X161240000Y-84190000D03*
D18*
X158440000Y-79110000D03*
D17*
X158440000Y-81650000D03*
X158440000Y-84190000D03*
D18*
X164040000Y-79110000D03*
D17*
X164040000Y-81650000D03*
X164040000Y-84190000D03*
G36*
G01*
X132515000Y-86470001D02*
X132515000Y-85569999D01*
G75*
G02*
X132764999Y-85320000I249999J0D01*
G01*
X133290001Y-85320000D01*
G75*
G02*
X133540000Y-85569999I0J-249999D01*
G01*
X133540000Y-86470001D01*
G75*
G02*
X133290001Y-86720000I-249999J0D01*
G01*
X132764999Y-86720000D01*
G75*
G02*
X132515000Y-86470001I0J249999D01*
G01*
G37*
G36*
G01*
X134340000Y-86470001D02*
X134340000Y-85569999D01*
G75*
G02*
X134589999Y-85320000I249999J0D01*
G01*
X135115001Y-85320000D01*
G75*
G02*
X135365000Y-85569999I0J-249999D01*
G01*
X135365000Y-86470001D01*
G75*
G02*
X135115001Y-86720000I-249999J0D01*
G01*
X134589999Y-86720000D01*
G75*
G02*
X134340000Y-86470001I0J249999D01*
G01*
G37*
D18*
X145900000Y-79110000D03*
D17*
X145900000Y-81650000D03*
X145900000Y-84190000D03*
G36*
G01*
X126890000Y-81870000D02*
X126890000Y-80770000D01*
G75*
G02*
X127140000Y-80520000I250000J0D01*
G01*
X130140000Y-80520000D01*
G75*
G02*
X130390000Y-80770000I0J-250000D01*
G01*
X130390000Y-81870000D01*
G75*
G02*
X130140000Y-82120000I-250000J0D01*
G01*
X127140000Y-82120000D01*
G75*
G02*
X126890000Y-81870000I0J250000D01*
G01*
G37*
G36*
G01*
X132290000Y-81870000D02*
X132290000Y-80770000D01*
G75*
G02*
X132540000Y-80520000I250000J0D01*
G01*
X135540000Y-80520000D01*
G75*
G02*
X135790000Y-80770000I0J-250000D01*
G01*
X135790000Y-81870000D01*
G75*
G02*
X135540000Y-82120000I-250000J0D01*
G01*
X132540000Y-82120000D01*
G75*
G02*
X132290000Y-81870000I0J250000D01*
G01*
G37*
D18*
X140340000Y-79110000D03*
D17*
X140340000Y-81650000D03*
X140340000Y-84190000D03*
D18*
X137540000Y-79110000D03*
D17*
X137540000Y-81650000D03*
X137540000Y-84190000D03*
D18*
X143140000Y-79110000D03*
D17*
X143140000Y-81650000D03*
X143140000Y-84190000D03*
G36*
G01*
X90415000Y-86470001D02*
X90415000Y-85569999D01*
G75*
G02*
X90664999Y-85320000I249999J0D01*
G01*
X91190001Y-85320000D01*
G75*
G02*
X91440000Y-85569999I0J-249999D01*
G01*
X91440000Y-86470001D01*
G75*
G02*
X91190001Y-86720000I-249999J0D01*
G01*
X90664999Y-86720000D01*
G75*
G02*
X90415000Y-86470001I0J249999D01*
G01*
G37*
G36*
G01*
X92240000Y-86470001D02*
X92240000Y-85569999D01*
G75*
G02*
X92489999Y-85320000I249999J0D01*
G01*
X93015001Y-85320000D01*
G75*
G02*
X93265000Y-85569999I0J-249999D01*
G01*
X93265000Y-86470001D01*
G75*
G02*
X93015001Y-86720000I-249999J0D01*
G01*
X92489999Y-86720000D01*
G75*
G02*
X92240000Y-86470001I0J249999D01*
G01*
G37*
D18*
X103800000Y-79110000D03*
D17*
X103800000Y-81650000D03*
X103800000Y-84190000D03*
G36*
G01*
X84790000Y-81870000D02*
X84790000Y-80770000D01*
G75*
G02*
X85040000Y-80520000I250000J0D01*
G01*
X88040000Y-80520000D01*
G75*
G02*
X88290000Y-80770000I0J-250000D01*
G01*
X88290000Y-81870000D01*
G75*
G02*
X88040000Y-82120000I-250000J0D01*
G01*
X85040000Y-82120000D01*
G75*
G02*
X84790000Y-81870000I0J250000D01*
G01*
G37*
G36*
G01*
X90190000Y-81870000D02*
X90190000Y-80770000D01*
G75*
G02*
X90440000Y-80520000I250000J0D01*
G01*
X93440000Y-80520000D01*
G75*
G02*
X93690000Y-80770000I0J-250000D01*
G01*
X93690000Y-81870000D01*
G75*
G02*
X93440000Y-82120000I-250000J0D01*
G01*
X90440000Y-82120000D01*
G75*
G02*
X90190000Y-81870000I0J250000D01*
G01*
G37*
D18*
X98240000Y-79110000D03*
D17*
X98240000Y-81650000D03*
X98240000Y-84190000D03*
D18*
X95440000Y-79110000D03*
D17*
X95440000Y-81650000D03*
X95440000Y-84190000D03*
D18*
X101040000Y-79110000D03*
D17*
X101040000Y-81650000D03*
X101040000Y-84190000D03*
G36*
G01*
X113340000Y-86470001D02*
X113340000Y-85569999D01*
G75*
G02*
X113589999Y-85320000I249999J0D01*
G01*
X114115001Y-85320000D01*
G75*
G02*
X114365000Y-85569999I0J-249999D01*
G01*
X114365000Y-86470001D01*
G75*
G02*
X114115001Y-86720000I-249999J0D01*
G01*
X113589999Y-86720000D01*
G75*
G02*
X113340000Y-86470001I0J249999D01*
G01*
G37*
G36*
G01*
X111515000Y-86470001D02*
X111515000Y-85569999D01*
G75*
G02*
X111764999Y-85320000I249999J0D01*
G01*
X112290001Y-85320000D01*
G75*
G02*
X112540000Y-85569999I0J-249999D01*
G01*
X112540000Y-86470001D01*
G75*
G02*
X112290001Y-86720000I-249999J0D01*
G01*
X111764999Y-86720000D01*
G75*
G02*
X111515000Y-86470001I0J249999D01*
G01*
G37*
D24*
X146690000Y-70270000D03*
X149190000Y-70270000D03*
X151690000Y-70270000D03*
G36*
G01*
X155040000Y-69545000D02*
X155040000Y-70995000D01*
G75*
G02*
X154790000Y-71245000I-250000J0D01*
G01*
X153590000Y-71245000D01*
G75*
G02*
X153340000Y-70995000I0J250000D01*
G01*
X153340000Y-69545000D01*
G75*
G02*
X153590000Y-69295000I250000J0D01*
G01*
X154790000Y-69295000D01*
G75*
G02*
X155040000Y-69545000I0J-250000D01*
G01*
G37*
D17*
X124900000Y-84190000D03*
X124900000Y-81650000D03*
D18*
X124900000Y-79110000D03*
D17*
X119340000Y-84190000D03*
X119340000Y-81650000D03*
D18*
X119340000Y-79110000D03*
D17*
X122140000Y-84190000D03*
X122140000Y-81650000D03*
D18*
X122140000Y-79110000D03*
D17*
X116540000Y-84190000D03*
X116540000Y-81650000D03*
D18*
X116540000Y-79110000D03*
G36*
G01*
X111290000Y-81870000D02*
X111290000Y-80770000D01*
G75*
G02*
X111540000Y-80520000I250000J0D01*
G01*
X114540000Y-80520000D01*
G75*
G02*
X114790000Y-80770000I0J-250000D01*
G01*
X114790000Y-81870000D01*
G75*
G02*
X114540000Y-82120000I-250000J0D01*
G01*
X111540000Y-82120000D01*
G75*
G02*
X111290000Y-81870000I0J250000D01*
G01*
G37*
G36*
G01*
X105890000Y-81870000D02*
X105890000Y-80770000D01*
G75*
G02*
X106140000Y-80520000I250000J0D01*
G01*
X109140000Y-80520000D01*
G75*
G02*
X109390000Y-80770000I0J-250000D01*
G01*
X109390000Y-81870000D01*
G75*
G02*
X109140000Y-82120000I-250000J0D01*
G01*
X106140000Y-82120000D01*
G75*
G02*
X105890000Y-81870000I0J250000D01*
G01*
G37*
D24*
X154290000Y-94420000D03*
X156790000Y-94420000D03*
X159290000Y-94420000D03*
G36*
G01*
X162640000Y-93695000D02*
X162640000Y-95145000D01*
G75*
G02*
X162390000Y-95395000I-250000J0D01*
G01*
X161190000Y-95395000D01*
G75*
G02*
X160940000Y-95145000I0J250000D01*
G01*
X160940000Y-93695000D01*
G75*
G02*
X161190000Y-93445000I250000J0D01*
G01*
X162390000Y-93445000D01*
G75*
G02*
X162640000Y-93695000I0J-250000D01*
G01*
G37*
X81315000Y-70145000D03*
X83815000Y-70145000D03*
X86315000Y-70145000D03*
G36*
G01*
X89665000Y-69420000D02*
X89665000Y-70870000D01*
G75*
G02*
X89415000Y-71120000I-250000J0D01*
G01*
X88215000Y-71120000D01*
G75*
G02*
X87965000Y-70870000I0J250000D01*
G01*
X87965000Y-69420000D01*
G75*
G02*
X88215000Y-69170000I250000J0D01*
G01*
X89415000Y-69170000D01*
G75*
G02*
X89665000Y-69420000I0J-250000D01*
G01*
G37*
X129890000Y-70170000D03*
X132390000Y-70170000D03*
X134890000Y-70170000D03*
G36*
G01*
X138240000Y-69445000D02*
X138240000Y-70895000D01*
G75*
G02*
X137990000Y-71145000I-250000J0D01*
G01*
X136790000Y-71145000D01*
G75*
G02*
X136540000Y-70895000I0J250000D01*
G01*
X136540000Y-69445000D01*
G75*
G02*
X136790000Y-69195000I250000J0D01*
G01*
X137990000Y-69195000D01*
G75*
G02*
X138240000Y-69445000I0J-250000D01*
G01*
G37*
X98365000Y-70145000D03*
X100865000Y-70145000D03*
X103365000Y-70145000D03*
G36*
G01*
X106715000Y-69420000D02*
X106715000Y-70870000D01*
G75*
G02*
X106465000Y-71120000I-250000J0D01*
G01*
X105265000Y-71120000D01*
G75*
G02*
X105015000Y-70870000I0J250000D01*
G01*
X105015000Y-69420000D01*
G75*
G02*
X105265000Y-69170000I250000J0D01*
G01*
X106465000Y-69170000D01*
G75*
G02*
X106715000Y-69420000I0J-250000D01*
G01*
G37*
X112365000Y-70145000D03*
X114865000Y-70145000D03*
X117365000Y-70145000D03*
G36*
G01*
X120715000Y-69420000D02*
X120715000Y-70870000D01*
G75*
G02*
X120465000Y-71120000I-250000J0D01*
G01*
X119265000Y-71120000D01*
G75*
G02*
X119015000Y-70870000I0J250000D01*
G01*
X119015000Y-69420000D01*
G75*
G02*
X119265000Y-69170000I250000J0D01*
G01*
X120465000Y-69170000D01*
G75*
G02*
X120715000Y-69420000I0J-250000D01*
G01*
G37*
D41*
X166940000Y-88720000D03*
X149160000Y-76020000D03*
X164400000Y-88720000D03*
X151700000Y-76020000D03*
X161860000Y-88720000D03*
X154240000Y-76020000D03*
X159320000Y-88720000D03*
X156780000Y-76020000D03*
X156780000Y-88720000D03*
X159320000Y-76020000D03*
X154240000Y-88720000D03*
X161860000Y-76020000D03*
X151700000Y-88720000D03*
X164400000Y-76020000D03*
X149160000Y-88720000D03*
D11*
X166940000Y-76020000D03*
D41*
X166940000Y-111720000D03*
X149160000Y-99020000D03*
X164400000Y-111720000D03*
X151700000Y-99020000D03*
X161860000Y-111720000D03*
X154240000Y-99020000D03*
X159320000Y-111720000D03*
X156780000Y-99020000D03*
X156780000Y-111720000D03*
X159320000Y-99020000D03*
X154240000Y-111720000D03*
X161860000Y-99020000D03*
X151700000Y-111720000D03*
X164400000Y-99020000D03*
X149160000Y-111720000D03*
D11*
X166940000Y-99020000D03*
D41*
X124940000Y-111720000D03*
X107160000Y-99020000D03*
X122400000Y-111720000D03*
X109700000Y-99020000D03*
X119860000Y-111720000D03*
X112240000Y-99020000D03*
X117320000Y-111720000D03*
X114780000Y-99020000D03*
X114780000Y-111720000D03*
X117320000Y-99020000D03*
X112240000Y-111720000D03*
X119860000Y-99020000D03*
X109700000Y-111720000D03*
X122400000Y-99020000D03*
X107160000Y-111720000D03*
D11*
X124940000Y-99020000D03*
D41*
X103940000Y-88720000D03*
X86160000Y-76020000D03*
X101400000Y-88720000D03*
X88700000Y-76020000D03*
X98860000Y-88720000D03*
X91240000Y-76020000D03*
X96320000Y-88720000D03*
X93780000Y-76020000D03*
X93780000Y-88720000D03*
X96320000Y-76020000D03*
X91240000Y-88720000D03*
X98860000Y-76020000D03*
X88700000Y-88720000D03*
X101400000Y-76020000D03*
X86160000Y-88720000D03*
D11*
X103940000Y-76020000D03*
D41*
X145940000Y-88720000D03*
X128160000Y-76020000D03*
X143400000Y-88720000D03*
X130700000Y-76020000D03*
X140860000Y-88720000D03*
X133240000Y-76020000D03*
X138320000Y-88720000D03*
X135780000Y-76020000D03*
X135780000Y-88720000D03*
X138320000Y-76020000D03*
X133240000Y-88720000D03*
X140860000Y-76020000D03*
X130700000Y-88720000D03*
X143400000Y-76020000D03*
X128160000Y-88720000D03*
D11*
X145940000Y-76020000D03*
D41*
X145940000Y-111720000D03*
X128160000Y-99020000D03*
X143400000Y-111720000D03*
X130700000Y-99020000D03*
X140860000Y-111720000D03*
X133240000Y-99020000D03*
X138320000Y-111720000D03*
X135780000Y-99020000D03*
X135780000Y-111720000D03*
X138320000Y-99020000D03*
X133240000Y-111720000D03*
X140860000Y-99020000D03*
X130700000Y-111720000D03*
X143400000Y-99020000D03*
X128160000Y-111720000D03*
D11*
X145940000Y-99020000D03*
D41*
X124940000Y-88720000D03*
X107160000Y-76020000D03*
X122400000Y-88720000D03*
X109700000Y-76020000D03*
X119860000Y-88720000D03*
X112240000Y-76020000D03*
X117320000Y-88720000D03*
X114780000Y-76020000D03*
X114780000Y-88720000D03*
X117320000Y-76020000D03*
X112240000Y-88720000D03*
X119860000Y-76020000D03*
X109700000Y-88720000D03*
X122400000Y-76020000D03*
X107160000Y-88720000D03*
D11*
X124940000Y-76020000D03*
D44*
X74020000Y-71030000D03*
X74020000Y-161030000D03*
X164020000Y-71030000D03*
X164020000Y-161030000D03*
M02*
