G04 #@! TF.GenerationSoftware,KiCad,Pcbnew,5.1.8+dfsg1-1~bpo10+1*
G04 #@! TF.CreationDate,2021-02-04T00:05:05+00:00*
G04 #@! TF.ProjectId,mobo,6d6f626f-2e6b-4696-9361-645f70636258,rev?*
G04 #@! TF.SameCoordinates,Original*
G04 #@! TF.FileFunction,Legend,Bot*
G04 #@! TF.FilePolarity,Positive*
%FSLAX46Y46*%
G04 Gerber Fmt 4.6, Leading zero omitted, Abs format (unit mm)*
G04 Created by KiCad (PCBNEW 5.1.8+dfsg1-1~bpo10+1) date 2021-02-04 00:05:05*
%MOMM*%
%LPD*%
G01*
G04 APERTURE LIST*
%ADD10C,0.150000*%
G04 APERTURE END LIST*
D10*
X159558095Y-126482380D02*
X159558095Y-127291904D01*
X159510476Y-127387142D01*
X159462857Y-127434761D01*
X159367619Y-127482380D01*
X159177142Y-127482380D01*
X159081904Y-127434761D01*
X159034285Y-127387142D01*
X158986666Y-127291904D01*
X158986666Y-126482380D01*
X157986666Y-127482380D02*
X158558095Y-127482380D01*
X158272380Y-127482380D02*
X158272380Y-126482380D01*
X158367619Y-126625238D01*
X158462857Y-126720476D01*
X158558095Y-126768095D01*
X157367619Y-126482380D02*
X157272380Y-126482380D01*
X157177142Y-126530000D01*
X157129523Y-126577619D01*
X157081904Y-126672857D01*
X157034285Y-126863333D01*
X157034285Y-127101428D01*
X157081904Y-127291904D01*
X157129523Y-127387142D01*
X157177142Y-127434761D01*
X157272380Y-127482380D01*
X157367619Y-127482380D01*
X157462857Y-127434761D01*
X157510476Y-127387142D01*
X157558095Y-127291904D01*
X157605714Y-127101428D01*
X157605714Y-126863333D01*
X157558095Y-126672857D01*
X157510476Y-126577619D01*
X157462857Y-126530000D01*
X157367619Y-126482380D01*
X173708095Y-126282380D02*
X173708095Y-127091904D01*
X173660476Y-127187142D01*
X173612857Y-127234761D01*
X173517619Y-127282380D01*
X173327142Y-127282380D01*
X173231904Y-127234761D01*
X173184285Y-127187142D01*
X173136666Y-127091904D01*
X173136666Y-126282380D01*
X172136666Y-127282380D02*
X172708095Y-127282380D01*
X172422380Y-127282380D02*
X172422380Y-126282380D01*
X172517619Y-126425238D01*
X172612857Y-126520476D01*
X172708095Y-126568095D01*
X171755714Y-126377619D02*
X171708095Y-126330000D01*
X171612857Y-126282380D01*
X171374761Y-126282380D01*
X171279523Y-126330000D01*
X171231904Y-126377619D01*
X171184285Y-126472857D01*
X171184285Y-126568095D01*
X171231904Y-126710952D01*
X171803333Y-127282380D01*
X171184285Y-127282380D01*
M02*
