M48
; DRILL file {KiCad 5.1.9+dfsg1-1~bpo10+1} date Wed Apr 28 09:17:29 2021
; FORMAT={-:-/ absolute / inch / decimal}
; #@! TF.CreationDate,2021-04-28T09:17:29+00:00
; #@! TF.GenerationSoftware,Kicad,Pcbnew,5.1.9+dfsg1-1~bpo10+1
FMAT,2
INCH
T1C0.0079
T2C0.0157
T3C0.0236
T4C0.0315
T5C0.0362
T6C0.0374
T7C0.0394
T8C0.0512
T9C0.0906
T10C0.1260
T11C0.1654
T12C0.0236
%
G90
G05
T1
X2.8898Y-3.4244
X2.9638Y-3.3909
X3.0354Y-5.6917
X3.1327Y-3.3697
X3.1579Y-6.2236
X3.1583Y-6.1752
X3.165Y-3.1811
X3.1878Y-5.8114
X3.1898Y-6.0008
X3.2122Y-5.7606
X3.2283Y-3.4244
X3.2874Y-5.9988
X3.2969Y-3.3654
X3.2996Y-6.1248
X3.3045Y-5.9002
X3.3067Y-5.8531
X3.3075Y-5.7217
X3.3079Y-5.9333
X3.3138Y-5.8763
X3.3555Y-5.7134
X3.3618Y-5.9488
X3.3815Y-6.3244
X3.3839Y-6.0425
X3.4146Y-5.9449
X3.4154Y-5.7224
X3.4736Y-5.7122
X3.4941Y-5.9476
X3.5197Y-4.8539
X3.5244Y-5.802
X3.5291Y-5.8386
X3.5315Y-5.6059
X3.5319Y-5.9469
X3.5402Y-5.7604
X3.5433Y-5.8213
X3.5437Y-5.8598
X3.5764Y-3.4012
X3.5894Y-5.9654
X3.602Y-5.5236
X3.6071Y-6.174
X3.6484Y-6.226
X3.6846Y-6.3768
X3.6921Y-6.0441
X3.7146Y-3.4256
X3.7472Y-5.6193
X3.7756Y-5.8752
X3.8421Y-5.7264
X3.8449Y-3.3654
X3.8898Y-5.726
X3.8909Y-5.9705
X3.8949Y-6.1748
X3.9406Y-5.6469
X3.9413Y-5.7264
X3.9575Y-3.8197
X3.9626Y-3.3583
X3.9709Y-5.4484
X3.9713Y-5.4996
X3.9744Y-6.4236
X3.9917Y-6.324
X3.9929Y-3.1752
X4.0177Y-4.0996
X4.026Y-6.426
X4.0295Y-5.4732
X4.0346Y-6.0291
X4.0524Y-3.3697
X4.0591Y-3.4283
X4.0819Y-3.3957
X4.0898Y-6.2358
X4.1161Y-6.0299
X4.1626Y-6.2874
X4.1684Y-6.2162
X4.1945Y-6.0315
X4.2051Y-5.4524
X4.2303Y-6.4311
X4.2398Y-5.7244
X4.2406Y-5.65
X4.2858Y-6.135
X4.2909Y-5.4701
X4.3469Y-5.5209
X4.3774Y-5.5211
X4.3882Y-4.7335
X4.4043Y-5.5921
X4.4051Y-5.3272
X4.411Y-4.6646
X4.4295Y-4.3335
X4.4315Y-4.4917
X4.4508Y-4.8
X4.4512Y-4.6614
X4.4559Y-4.2114
X4.4634Y-3.3957
X4.4756Y-4.7094
X4.5106Y-5.4744
X4.511Y-5.2654
X4.5165Y-4.4917
X4.5197Y-4.7303
X4.5484Y-3.4299
X4.5624Y-4.6943
X4.5831Y-5.2161
X4.5906Y-4.8839
X4.5965Y-4.8504
X4.6008Y-4.4953
X4.6063Y-4.8169
X4.6165Y-3.3705
X4.6303Y-4.774
X4.6366Y-4.2579
X4.648Y-4.4984
X4.6543Y-3.6516
X4.6646Y-5.3945
X4.6657Y-4.7728
X4.6795Y-4.5602
X4.6795Y-4.6453
X4.7Y-4.7528
X4.7114Y-4.7902
X4.7157Y-5.1736
X4.7185Y-4.639
X4.7484Y-4.7886
X4.7547Y-4.9154
X4.7547Y-4.9547
X4.7547Y-4.9941
X4.7547Y-5.0335
X4.7547Y-5.0728
X4.7677Y-4.4909
X4.7909Y-3.3669
X4.7941Y-4.9154
X4.7941Y-4.9547
X4.7941Y-4.9941
X4.7941Y-5.0335
X4.7941Y-5.0728
X4.7953Y-4.2472
X4.8075Y-4.0843
X4.8118Y-4.4815
X4.8181Y-4.7745
X4.822Y-4.6409
X4.8228Y-3.1815
X4.8335Y-4.9154
X4.8335Y-4.9547
X4.8335Y-4.9941
X4.8335Y-5.0335
X4.8335Y-5.0728
X4.8346Y-4.0685
X4.8512Y-4.4906
X4.8563Y-4.7835
X4.8587Y-4.7492
X4.8656Y-5.15
X4.8728Y-4.9154
X4.8728Y-4.9547
X4.8728Y-4.9941
X4.8728Y-5.0335
X4.8728Y-5.0728
X4.8921Y-3.4327
X4.8957Y-3.3957
X4.8984Y-4.3331
X4.9043Y-4.7492
X4.9122Y-4.9154
X4.9122Y-4.9547
X4.9122Y-4.9941
X4.9122Y-5.0335
X4.9122Y-5.0728
X4.9295Y-3.3642
X4.9337Y-4.6323
X4.9421Y-4.7504
X4.9504Y-5.4642
X4.9669Y-5.4299
X4.9673Y-4.9878
X4.9717Y-4.6394
X4.9736Y-5.2354
X4.9781Y-4.3254
X4.9925Y-4.7524
X4.9933Y-4.0827
X4.9933Y-4.2315
X5.0059Y-4.6402
X5.0264Y-5.3563
X5.0315Y-4.7496
X5.0319Y-4.487
X5.0445Y-4.087
X5.0453Y-4.2453
X5.0583Y-4.8587
X5.0665Y-4.7496
X5.0689Y-5.078
X5.0748Y-4.4705
X5.0787Y-4.8386
X5.0787Y-5.3531
X5.0791Y-4.9591
X5.0795Y-4.9173
X5.0807Y-4.8799
X5.0815Y-4.7789
X5.0817Y-5.0466
X5.0819Y-5.1933
X5.0823Y-5.1343
X5.1122Y-4.4862
X5.1591Y-4.1
X5.1724Y-5.2697
X5.1917Y-5.0965
X5.1925Y-5.1543
X5.1933Y-5.2114
X5.1961Y-4.487
X5.1994Y-5.0624
X5.2008Y-4.9236
X5.2032Y-4.8768
X5.2335Y-4.9717
X5.2346Y-3.3913
X5.2346Y-4.7705
X5.2378Y-4.6567
X5.239Y-5.0886
X5.2752Y-4.1992
X5.3272Y-3.4315
X5.3984Y-5.2969
X5.4004Y-4.548
X5.4016Y-5.002
X5.4134Y-3.552
X5.422Y-4.9685
X5.4374Y-4.5496
X5.4539Y-4.2449
X5.4646Y-3.3634
X5.4815Y-4.8921
X5.4921Y-4.9728
X5.5157Y-5.5315
X5.5201Y-4.8917
X5.5587Y-4.4953
X5.6047Y-5.1165
X5.6055Y-6.0079
X5.6098Y-4.7516
X5.6102Y-3.3642
X5.6126Y-5.8091
X5.6187Y-4.2354
X5.6319Y-4.0693
X5.6417Y-3.1791
X5.6437Y-6.0087
X5.6539Y-5.1173
X5.6819Y-6.0094
X5.6854Y-5.4091
X5.6906Y-4.2453
X5.7039Y-5.1189
X5.7228Y-6.0114
X5.7547Y-5.3756
X5.7598Y-4.6102
X5.7811Y-3.4118
X5.7831Y-4.2795
X5.8039Y-4.0783
X5.8039Y-5.1161
X5.8079Y-5.8083
X5.8083Y-4.7492
X5.8354Y-4.0819
X5.8677Y-3.4118
X5.8783Y-5.8843
X5.9339Y-5.85
X5.9461Y-5.5154
X5.9496Y-5.1268
X5.9539Y-5.5874
X5.9551Y-4.9516
X5.9571Y-5.2224
X5.9591Y-4.8516
X5.9598Y-5.2736
X6.1803Y-3.9539
X6.2606Y-3.9457
X6.3055Y-4.6067
X6.3657Y-4.7213
X6.4083Y-4.2906
X6.45Y-4.1008
X6.4732Y-3.8331
X6.4799Y-3.911
X6.5669Y-4.1783
X6.5673Y-4.2913
T2
X2.8571Y-6.0063
X5.9508Y-4.5343
X5.9508Y-4.5736
X5.9508Y-4.613
X5.9508Y-4.6524
X5.9508Y-4.6917
X5.9508Y-4.7311
X5.9902Y-4.5343
X5.9902Y-4.5736
X5.9902Y-4.613
X5.9902Y-4.6524
X5.9902Y-4.6917
X5.9902Y-4.7311
X6.1134Y-4.8193
X6.1213Y-5.7846
X6.122Y-5.1394
X6.1234Y-4.2793
X6.1335Y-5.463
X6.1453Y-4.5307
X6.1453Y-4.5701
X6.1453Y-4.6094
X6.1453Y-4.6488
X6.1756Y-3.6319
X6.1756Y-3.6791
X6.1846Y-4.5307
X6.1846Y-4.5701
X6.1846Y-4.6094
X6.1846Y-4.6488
X6.2228Y-3.6319
X6.2228Y-3.6791
X6.2776Y-4.3953
X6.4189Y-4.5606
X6.4189Y-4.6079
X6.4661Y-4.5606
X6.4661Y-4.6079
X6.5134Y-4.5606
X6.5134Y-4.6079
X6.5949Y-3.6071
T4
X2.787Y-3.0031
X2.787Y-3.5031
X2.887Y-3.0031
X2.887Y-3.5031
X2.987Y-3.0031
X2.987Y-3.5031
X3.087Y-3.0031
X3.087Y-3.5031
X3.187Y-3.0031
X3.187Y-3.5031
X3.287Y-3.0031
X3.287Y-3.5031
X3.387Y-3.0031
X3.387Y-3.5031
X3.487Y-3.0031
X3.487Y-3.5031
X3.6138Y-3.0031
X3.6138Y-3.5031
X3.7138Y-3.0031
X3.7138Y-3.5031
X3.8138Y-3.0031
X3.8138Y-3.5031
X3.9138Y-3.0031
X3.9138Y-3.5031
X4.0138Y-3.0031
X4.0138Y-3.5031
X4.1138Y-3.0031
X4.1138Y-3.5031
X4.2138Y-3.0031
X4.2138Y-3.5031
X4.3138Y-3.0031
X4.3138Y-3.5031
X4.4339Y-3.9075
X4.4339Y-4.4075
X4.4406Y-3.0031
X4.4406Y-3.5031
X4.5339Y-3.9075
X4.5339Y-4.4075
X4.5406Y-3.0031
X4.5406Y-3.5031
X4.6339Y-3.9075
X4.6339Y-4.4075
X4.6406Y-3.0031
X4.6406Y-3.5031
X4.7339Y-3.9075
X4.7339Y-4.4075
X4.7406Y-3.0031
X4.7406Y-3.5031
X4.8339Y-3.9075
X4.8339Y-4.4075
X4.8406Y-3.0031
X4.8406Y-3.5031
X4.9339Y-3.9075
X4.9339Y-4.4075
X4.9406Y-3.0031
X4.9406Y-3.5031
X5.0339Y-3.9075
X5.0339Y-4.4075
X5.0406Y-3.0031
X5.0406Y-3.5031
X5.1339Y-3.9075
X5.1339Y-4.4075
X5.1406Y-3.0031
X5.1406Y-3.5031
X5.2598Y-3.9067
X5.2598Y-4.4067
X5.2673Y-3.0031
X5.2673Y-3.5031
X5.3598Y-3.9067
X5.3598Y-4.4067
X5.3673Y-3.0031
X5.3673Y-3.5031
X5.4598Y-3.9067
X5.4598Y-4.4067
X5.4673Y-3.0031
X5.4673Y-3.5031
X5.5598Y-3.9067
X5.5598Y-4.4067
X5.5673Y-3.0031
X5.5673Y-3.5031
X5.6598Y-3.9067
X5.6598Y-4.4067
X5.6673Y-3.0031
X5.6673Y-3.5031
X5.7598Y-3.9067
X5.7598Y-4.4067
X5.7673Y-3.0031
X5.7673Y-3.5031
X5.8598Y-3.9067
X5.8598Y-4.4067
X5.8673Y-3.0031
X5.8673Y-3.5031
X5.9598Y-3.9067
X5.9598Y-4.4067
X5.9673Y-3.0031
X5.9673Y-3.5031
T5
X3.1776Y-5.1776
X3.1776Y-5.276
X3.1776Y-5.3547
X3.1776Y-5.4531
X3.178Y-4.4894
X3.178Y-4.5878
X3.178Y-4.6665
X3.178Y-4.765
X3.1787Y-3.8024
X3.1787Y-3.9008
X3.1787Y-3.9795
X3.1787Y-4.078
T6
X3.1766Y-2.7667
X3.275Y-2.7667
X3.3594Y-4.5323
X3.3594Y-4.6307
X3.3594Y-4.7291
X3.3618Y-3.8953
X3.3618Y-3.9937
X3.3618Y-4.0921
X3.3734Y-2.7667
X3.4719Y-2.7667
X3.6492Y-4.9705
X3.6492Y-5.0689
X3.6492Y-5.1673
X3.6504Y-4.5335
X3.6504Y-4.6319
X3.6504Y-4.7303
X3.8478Y-2.7667
X3.9197Y-4.5335
X3.9197Y-4.6319
X3.9197Y-4.7303
X3.9197Y-4.9689
X3.9197Y-5.0673
X3.9197Y-5.1657
X3.9463Y-2.7667
X4.0447Y-2.7667
X4.1431Y-2.7667
X4.1898Y-4.5315
X4.1898Y-4.6299
X4.1898Y-4.7283
X4.1909Y-4.9685
X4.1909Y-5.0669
X4.1909Y-5.1654
X4.399Y-2.7667
X4.4051Y-3.7205
X4.4974Y-2.7667
X4.5035Y-3.7205
X4.5959Y-2.7667
X4.602Y-3.7205
X4.6943Y-2.7667
X4.7004Y-3.7205
X5.0677Y-2.7677
X5.0815Y-3.7236
X5.1661Y-2.7677
X5.1799Y-3.7236
X5.2646Y-2.7677
X5.2783Y-3.7236
X5.363Y-2.7677
X5.3768Y-3.7236
X5.5799Y-6.2701
X5.6169Y-3.7244
X5.6783Y-6.2701
X5.7154Y-3.7244
X5.7291Y-2.7717
X5.7768Y-6.2701
X5.8138Y-3.7244
X5.8276Y-2.7717
X5.9122Y-3.7244
X5.926Y-2.7717
X6.013Y-6.2705
X6.0244Y-2.7717
X6.1114Y-6.2705
X6.2098Y-6.2705
T7
X3.6772Y-3.7929
X3.6772Y-3.8929
X3.6772Y-3.9929
X3.7772Y-3.7929
X3.7772Y-3.8929
X3.7772Y-3.9929
X4.4236Y-5.7012
X4.4236Y-5.8012
X4.4236Y-5.9012
X4.4236Y-6.0012
X4.4236Y-6.1012
X4.4236Y-6.2012
X4.5236Y-5.7012
X4.5236Y-5.8012
X4.5236Y-5.9012
X4.5236Y-6.0012
X4.5236Y-6.1012
X4.5236Y-6.2012
X4.8197Y-5.7012
X4.8197Y-5.8012
X4.8197Y-5.9012
X4.8197Y-6.0012
X4.8197Y-6.1012
X4.8197Y-6.2012
X4.9197Y-5.7012
X4.9197Y-5.8012
X4.9197Y-5.9012
X4.9197Y-6.0012
X4.9197Y-6.1012
X4.9197Y-6.2012
X5.2153Y-5.7
X5.2153Y-5.8
X5.2153Y-5.9
X5.2153Y-6.0
X5.2153Y-6.1
X5.2153Y-6.2
X5.3153Y-5.7
X5.3153Y-5.8
X5.3153Y-5.9
X5.3153Y-6.0
X5.3153Y-6.1
X5.3153Y-6.2
X6.3835Y-5.5417
X6.3835Y-5.6402
X6.3839Y-5.8732
X6.3839Y-5.9717
X6.3846Y-5.2083
X6.3846Y-5.3067
X6.3866Y-4.8764
X6.3866Y-4.9748
T8
X6.3697Y-3.0547
X6.3697Y-3.2516
T9
X3.0709Y-5.0567
X3.0709Y-5.574
X3.0713Y-4.3685
X3.0713Y-4.8858
X3.072Y-3.6815
X3.072Y-4.1988
T10
X2.9142Y-2.7965
X2.9142Y-6.3398
X6.4575Y-2.7965
X6.4575Y-6.3398
T11
X3.2732Y-6.2744
X3.748Y-6.276
T12
X2.9429Y-5.8169
X2.9429Y-6.0445
T3
G00X2.7819Y-5.7606
M15
G01X2.8134Y-5.7606
M16
G05
G00X2.7819Y-6.1008
M15
G01X2.8134Y-6.1008
M16
G05
G00X2.9402Y-5.7606
M15
G01X2.9835Y-5.7606
M16
G05
G00X2.9402Y-6.1008
M15
G01X2.9835Y-6.1008
M16
G05
T0
M30
