G04 #@! TF.GenerationSoftware,KiCad,Pcbnew,5.1.9+dfsg1-1~bpo10+1*
G04 #@! TF.CreationDate,2021-03-05T22:00:23+00:00*
G04 #@! TF.ProjectId,mobo,6d6f626f-2e6b-4696-9361-645f70636258,rev?*
G04 #@! TF.SameCoordinates,Original*
G04 #@! TF.FileFunction,Soldermask,Bot*
G04 #@! TF.FilePolarity,Negative*
%FSLAX46Y46*%
G04 Gerber Fmt 4.6, Leading zero omitted, Abs format (unit mm)*
G04 Created by KiCad (PCBNEW 5.1.9+dfsg1-1~bpo10+1) date 2021-03-05 22:00:23*
%MOMM*%
%LPD*%
G01*
G04 APERTURE LIST*
%ADD10C,1.700000*%
%ADD11O,2.000000X1.700000*%
%ADD12O,1.700000X1.950000*%
%ADD13C,1.600000*%
%ADD14R,1.600000X1.600000*%
%ADD15C,3.000000*%
%ADD16O,1.700000X2.000000*%
%ADD17C,4.200000*%
%ADD18R,2.300000X0.600000*%
%ADD19C,0.600000*%
%ADD20O,1.700000X0.900000*%
%ADD21O,2.000000X0.900000*%
%ADD22O,1.600000X1.600000*%
%ADD23R,2.600000X2.600000*%
%ADD24C,2.600000*%
%ADD25R,1.700000X1.700000*%
%ADD26O,1.700000X1.700000*%
%ADD27C,5.600000*%
G04 APERTURE END LIST*
D10*
X129790000Y-125450000D03*
X127250000Y-125450000D03*
X124710000Y-125450000D03*
X122170000Y-125450000D03*
X119630000Y-125450000D03*
X117090000Y-125450000D03*
X114550000Y-125450000D03*
X112010000Y-125450000D03*
X109470000Y-125450000D03*
X106930000Y-125450000D03*
X129790000Y-127990000D03*
X127250000Y-127990000D03*
X124710000Y-127990000D03*
X122170000Y-127990000D03*
X119630000Y-127990000D03*
X117090000Y-127990000D03*
X114550000Y-127990000D03*
X112010000Y-127990000D03*
X109470000Y-127990000D03*
G36*
G01*
X107530000Y-128840000D02*
X106330000Y-128840000D01*
G75*
G02*
X106080000Y-128590000I0J250000D01*
G01*
X106080000Y-127390000D01*
G75*
G02*
X106330000Y-127140000I250000J0D01*
G01*
X107530000Y-127140000D01*
G75*
G02*
X107780000Y-127390000I0J-250000D01*
G01*
X107780000Y-128590000D01*
G75*
G02*
X107530000Y-128840000I-250000J0D01*
G01*
G37*
D11*
X156300000Y-133010000D03*
G36*
G01*
X157050000Y-136360000D02*
X155550000Y-136360000D01*
G75*
G02*
X155300000Y-136110000I0J250000D01*
G01*
X155300000Y-134910000D01*
G75*
G02*
X155550000Y-134660000I250000J0D01*
G01*
X157050000Y-134660000D01*
G75*
G02*
X157300000Y-134910000I0J-250000D01*
G01*
X157300000Y-136110000D01*
G75*
G02*
X157050000Y-136360000I-250000J0D01*
G01*
G37*
D10*
X149500000Y-140770000D03*
X149500000Y-138230000D03*
X149500000Y-135690000D03*
X146960000Y-140770000D03*
X146960000Y-138230000D03*
G36*
G01*
X146110000Y-136290000D02*
X146110000Y-135090000D01*
G75*
G02*
X146360000Y-134840000I250000J0D01*
G01*
X147560000Y-134840000D01*
G75*
G02*
X147810000Y-135090000I0J-250000D01*
G01*
X147810000Y-136290000D01*
G75*
G02*
X147560000Y-136540000I-250000J0D01*
G01*
X146360000Y-136540000D01*
G75*
G02*
X146110000Y-136290000I0J250000D01*
G01*
G37*
D12*
X123310000Y-162040000D03*
X120810000Y-162040000D03*
X118310000Y-162040000D03*
G36*
G01*
X114960000Y-162765000D02*
X114960000Y-161315000D01*
G75*
G02*
X115210000Y-161065000I250000J0D01*
G01*
X116410000Y-161065000D01*
G75*
G02*
X116660000Y-161315000I0J-250000D01*
G01*
X116660000Y-162765000D01*
G75*
G02*
X116410000Y-163015000I-250000J0D01*
G01*
X115210000Y-163015000D01*
G75*
G02*
X114960000Y-162765000I0J250000D01*
G01*
G37*
X123270000Y-155160000D03*
X120770000Y-155160000D03*
X118270000Y-155160000D03*
G36*
G01*
X114920000Y-155885000D02*
X114920000Y-154435000D01*
G75*
G02*
X115170000Y-154185000I250000J0D01*
G01*
X116370000Y-154185000D01*
G75*
G02*
X116620000Y-154435000I0J-250000D01*
G01*
X116620000Y-155885000D01*
G75*
G02*
X116370000Y-156135000I-250000J0D01*
G01*
X115170000Y-156135000D01*
G75*
G02*
X114920000Y-155885000I0J250000D01*
G01*
G37*
X120970000Y-116270000D03*
X118470000Y-116270000D03*
G36*
G01*
X115120000Y-116995000D02*
X115120000Y-115545000D01*
G75*
G02*
X115370000Y-115295000I250000J0D01*
G01*
X116570000Y-115295000D01*
G75*
G02*
X116820000Y-115545000I0J-250000D01*
G01*
X116820000Y-116995000D01*
G75*
G02*
X116570000Y-117245000I-250000J0D01*
G01*
X115370000Y-117245000D01*
G75*
G02*
X115120000Y-116995000I0J250000D01*
G01*
G37*
X109920000Y-116270000D03*
X107420000Y-116270000D03*
G36*
G01*
X104070000Y-116995000D02*
X104070000Y-115545000D01*
G75*
G02*
X104320000Y-115295000I250000J0D01*
G01*
X105520000Y-115295000D01*
G75*
G02*
X105770000Y-115545000I0J-250000D01*
G01*
X105770000Y-116995000D01*
G75*
G02*
X105520000Y-117245000I-250000J0D01*
G01*
X104320000Y-117245000D01*
G75*
G02*
X104070000Y-116995000I0J250000D01*
G01*
G37*
X154720000Y-126080000D03*
X152220000Y-126080000D03*
G36*
G01*
X148870000Y-126805000D02*
X148870000Y-125355000D01*
G75*
G02*
X149120000Y-125105000I250000J0D01*
G01*
X150320000Y-125105000D01*
G75*
G02*
X150570000Y-125355000I0J-250000D01*
G01*
X150570000Y-126805000D01*
G75*
G02*
X150320000Y-127055000I-250000J0D01*
G01*
X149120000Y-127055000D01*
G75*
G02*
X148870000Y-126805000I0J250000D01*
G01*
G37*
X165740000Y-126080000D03*
X163240000Y-126080000D03*
G36*
G01*
X159890000Y-126805000D02*
X159890000Y-125355000D01*
G75*
G02*
X160140000Y-125105000I250000J0D01*
G01*
X161340000Y-125105000D01*
G75*
G02*
X161590000Y-125355000I0J-250000D01*
G01*
X161590000Y-126805000D01*
G75*
G02*
X161340000Y-127055000I-250000J0D01*
G01*
X160140000Y-127055000D01*
G75*
G02*
X159890000Y-126805000I0J250000D01*
G01*
G37*
X143630000Y-126080000D03*
X141130000Y-126080000D03*
G36*
G01*
X137780000Y-126805000D02*
X137780000Y-125355000D01*
G75*
G02*
X138030000Y-125105000I250000J0D01*
G01*
X139230000Y-125105000D01*
G75*
G02*
X139480000Y-125355000I0J-250000D01*
G01*
X139480000Y-126805000D01*
G75*
G02*
X139230000Y-127055000I-250000J0D01*
G01*
X138030000Y-127055000D01*
G75*
G02*
X137780000Y-126805000I0J250000D01*
G01*
G37*
X165710000Y-116280000D03*
X163210000Y-116280000D03*
G36*
G01*
X159860000Y-117005000D02*
X159860000Y-115555000D01*
G75*
G02*
X160110000Y-115305000I250000J0D01*
G01*
X161310000Y-115305000D01*
G75*
G02*
X161560000Y-115555000I0J-250000D01*
G01*
X161560000Y-117005000D01*
G75*
G02*
X161310000Y-117255000I-250000J0D01*
G01*
X160110000Y-117255000D01*
G75*
G02*
X159860000Y-117005000I0J250000D01*
G01*
G37*
X154680000Y-116320000D03*
X152180000Y-116320000D03*
G36*
G01*
X148830000Y-117045000D02*
X148830000Y-115595000D01*
G75*
G02*
X149080000Y-115345000I250000J0D01*
G01*
X150280000Y-115345000D01*
G75*
G02*
X150530000Y-115595000I0J-250000D01*
G01*
X150530000Y-117045000D01*
G75*
G02*
X150280000Y-117295000I-250000J0D01*
G01*
X149080000Y-117295000D01*
G75*
G02*
X148830000Y-117045000I0J250000D01*
G01*
G37*
X143720000Y-116330000D03*
X141220000Y-116330000D03*
G36*
G01*
X137870000Y-117055000D02*
X137870000Y-115605000D01*
G75*
G02*
X138120000Y-115355000I250000J0D01*
G01*
X139320000Y-115355000D01*
G75*
G02*
X139570000Y-115605000I0J-250000D01*
G01*
X139570000Y-117055000D01*
G75*
G02*
X139320000Y-117305000I-250000J0D01*
G01*
X138120000Y-117305000D01*
G75*
G02*
X137870000Y-117055000I0J250000D01*
G01*
G37*
X132730000Y-116330000D03*
X130230000Y-116330000D03*
G36*
G01*
X126880000Y-117055000D02*
X126880000Y-115605000D01*
G75*
G02*
X127130000Y-115355000I250000J0D01*
G01*
X128330000Y-115355000D01*
G75*
G02*
X128580000Y-115605000I0J-250000D01*
G01*
X128580000Y-117055000D01*
G75*
G02*
X128330000Y-117305000I-250000J0D01*
G01*
X127130000Y-117305000D01*
G75*
G02*
X126880000Y-117055000I0J250000D01*
G01*
G37*
D13*
X156200000Y-161100000D03*
X153700000Y-161100000D03*
X151700000Y-161100000D03*
D14*
X149200000Y-161100000D03*
D15*
X146130000Y-163810000D03*
X159270000Y-163810000D03*
D13*
X138780000Y-161080000D03*
X136280000Y-161080000D03*
X134280000Y-161080000D03*
D14*
X131780000Y-161080000D03*
D15*
X128710000Y-163790000D03*
X141850000Y-163790000D03*
D16*
X85070000Y-137450000D03*
G36*
G01*
X81720000Y-138200000D02*
X81720000Y-136700000D01*
G75*
G02*
X81970000Y-136450000I250000J0D01*
G01*
X83170000Y-136450000D01*
G75*
G02*
X83420000Y-136700000I0J-250000D01*
G01*
X83420000Y-138200000D01*
G75*
G02*
X83170000Y-138450000I-250000J0D01*
G01*
X81970000Y-138450000D01*
G75*
G02*
X81720000Y-138200000I0J250000D01*
G01*
G37*
D13*
X164190000Y-135350000D03*
X164190000Y-137850000D03*
X164190000Y-139850000D03*
D14*
X164190000Y-142350000D03*
D15*
X166900000Y-145420000D03*
X166900000Y-132280000D03*
D17*
X83310000Y-161630000D03*
D18*
X78865000Y-160360000D03*
X78865000Y-161630000D03*
X78865000Y-162900000D03*
X87755000Y-162900000D03*
X87755000Y-161630000D03*
X87755000Y-160360000D03*
D17*
X95490000Y-161670000D03*
D18*
X91045000Y-160400000D03*
X91045000Y-161670000D03*
X91045000Y-162940000D03*
X99935000Y-162940000D03*
X99935000Y-161670000D03*
X99935000Y-160400000D03*
D16*
X85120000Y-153470000D03*
G36*
G01*
X81770000Y-154220000D02*
X81770000Y-152720000D01*
G75*
G02*
X82020000Y-152470000I250000J0D01*
G01*
X83220000Y-152470000D01*
G75*
G02*
X83470000Y-152720000I0J-250000D01*
G01*
X83470000Y-154220000D01*
G75*
G02*
X83220000Y-154470000I-250000J0D01*
G01*
X82020000Y-154470000D01*
G75*
G02*
X81770000Y-154220000I0J250000D01*
G01*
G37*
X85120000Y-145460000D03*
G36*
G01*
X81770000Y-146210000D02*
X81770000Y-144710000D01*
G75*
G02*
X82020000Y-144460000I250000J0D01*
G01*
X83220000Y-144460000D01*
G75*
G02*
X83470000Y-144710000I0J-250000D01*
G01*
X83470000Y-146210000D01*
G75*
G02*
X83220000Y-146460000I-250000J0D01*
G01*
X82020000Y-146460000D01*
G75*
G02*
X81770000Y-146210000I0J250000D01*
G01*
G37*
X74510000Y-153460000D03*
G36*
G01*
X71160000Y-154210000D02*
X71160000Y-152710000D01*
G75*
G02*
X71410000Y-152460000I250000J0D01*
G01*
X72610000Y-152460000D01*
G75*
G02*
X72860000Y-152710000I0J-250000D01*
G01*
X72860000Y-154210000D01*
G75*
G02*
X72610000Y-154460000I-250000J0D01*
G01*
X71410000Y-154460000D01*
G75*
G02*
X71160000Y-154210000I0J250000D01*
G01*
G37*
X74510000Y-145460000D03*
G36*
G01*
X71160000Y-146210000D02*
X71160000Y-144710000D01*
G75*
G02*
X71410000Y-144460000I250000J0D01*
G01*
X72610000Y-144460000D01*
G75*
G02*
X72860000Y-144710000I0J-250000D01*
G01*
X72860000Y-146210000D01*
G75*
G02*
X72610000Y-146460000I-250000J0D01*
G01*
X71410000Y-146460000D01*
G75*
G02*
X71160000Y-146210000I0J250000D01*
G01*
G37*
X74510000Y-137460000D03*
G36*
G01*
X71160000Y-138210000D02*
X71160000Y-136710000D01*
G75*
G02*
X71410000Y-136460000I250000J0D01*
G01*
X72610000Y-136460000D01*
G75*
G02*
X72860000Y-136710000I0J-250000D01*
G01*
X72860000Y-138210000D01*
G75*
G02*
X72610000Y-138460000I-250000J0D01*
G01*
X71410000Y-138460000D01*
G75*
G02*
X71160000Y-138210000I0J250000D01*
G01*
G37*
X85070000Y-129460000D03*
G36*
G01*
X81720000Y-130210000D02*
X81720000Y-128710000D01*
G75*
G02*
X81970000Y-128460000I250000J0D01*
G01*
X83170000Y-128460000D01*
G75*
G02*
X83420000Y-128710000I0J-250000D01*
G01*
X83420000Y-130210000D01*
G75*
G02*
X83170000Y-130460000I-250000J0D01*
G01*
X81970000Y-130460000D01*
G75*
G02*
X81720000Y-130210000I0J250000D01*
G01*
G37*
X74510000Y-129460000D03*
G36*
G01*
X71160000Y-130210000D02*
X71160000Y-128710000D01*
G75*
G02*
X71410000Y-128460000I250000J0D01*
G01*
X72610000Y-128460000D01*
G75*
G02*
X72860000Y-128710000I0J-250000D01*
G01*
X72860000Y-130210000D01*
G75*
G02*
X72610000Y-130460000I-250000J0D01*
G01*
X71410000Y-130460000D01*
G75*
G02*
X71160000Y-130210000I0J250000D01*
G01*
G37*
D19*
X163210000Y-155770000D03*
X163210000Y-149990000D03*
D20*
X166900000Y-148560000D03*
X166900000Y-157200000D03*
D21*
X162730000Y-148560000D03*
X162730000Y-157200000D03*
D19*
X74765000Y-112505000D03*
X74765000Y-118285000D03*
D20*
X71075000Y-119715000D03*
X71075000Y-111075000D03*
D21*
X75245000Y-119715000D03*
X75245000Y-111075000D03*
D22*
X103940000Y-111720000D03*
X86160000Y-99020000D03*
X101400000Y-111720000D03*
X88700000Y-99020000D03*
X98860000Y-111720000D03*
X91240000Y-99020000D03*
X96320000Y-111720000D03*
X93780000Y-99020000D03*
X93780000Y-111720000D03*
X96320000Y-99020000D03*
X91240000Y-111720000D03*
X98860000Y-99020000D03*
X88700000Y-111720000D03*
X101400000Y-99020000D03*
X86160000Y-111720000D03*
D14*
X103940000Y-99020000D03*
D12*
X112290000Y-94370000D03*
X114790000Y-94370000D03*
X117290000Y-94370000D03*
G36*
G01*
X120640000Y-93645000D02*
X120640000Y-95095000D01*
G75*
G02*
X120390000Y-95345000I-250000J0D01*
G01*
X119190000Y-95345000D01*
G75*
G02*
X118940000Y-95095000I0J250000D01*
G01*
X118940000Y-93645000D01*
G75*
G02*
X119190000Y-93395000I250000J0D01*
G01*
X120390000Y-93395000D01*
G75*
G02*
X120640000Y-93645000I0J-250000D01*
G01*
G37*
X133290000Y-94420000D03*
X135790000Y-94420000D03*
X138290000Y-94420000D03*
G36*
G01*
X141640000Y-93695000D02*
X141640000Y-95145000D01*
G75*
G02*
X141390000Y-95395000I-250000J0D01*
G01*
X140190000Y-95395000D01*
G75*
G02*
X139940000Y-95145000I0J250000D01*
G01*
X139940000Y-93695000D01*
G75*
G02*
X140190000Y-93445000I250000J0D01*
G01*
X141390000Y-93445000D01*
G75*
G02*
X141640000Y-93695000I0J-250000D01*
G01*
G37*
X91340000Y-94420000D03*
X93840000Y-94420000D03*
X96340000Y-94420000D03*
G36*
G01*
X99690000Y-93695000D02*
X99690000Y-95145000D01*
G75*
G02*
X99440000Y-95395000I-250000J0D01*
G01*
X98240000Y-95395000D01*
G75*
G02*
X97990000Y-95145000I0J250000D01*
G01*
X97990000Y-93695000D01*
G75*
G02*
X98240000Y-93445000I250000J0D01*
G01*
X99440000Y-93445000D01*
G75*
G02*
X99690000Y-93695000I0J-250000D01*
G01*
G37*
D23*
X73990000Y-77420000D03*
D24*
X73990000Y-82420000D03*
D25*
X103700000Y-102010000D03*
D26*
X103700000Y-104550000D03*
X103700000Y-107090000D03*
D25*
X98140000Y-102010000D03*
D26*
X98140000Y-104550000D03*
X98140000Y-107090000D03*
D25*
X95340000Y-102010000D03*
D26*
X95340000Y-104550000D03*
X95340000Y-107090000D03*
D25*
X100940000Y-102010000D03*
D26*
X100940000Y-104550000D03*
X100940000Y-107090000D03*
D25*
X124800000Y-102110000D03*
D26*
X124800000Y-104650000D03*
X124800000Y-107190000D03*
D25*
X119240000Y-102110000D03*
D26*
X119240000Y-104650000D03*
X119240000Y-107190000D03*
D25*
X116440000Y-102110000D03*
D26*
X116440000Y-104650000D03*
X116440000Y-107190000D03*
D25*
X122040000Y-102110000D03*
D26*
X122040000Y-104650000D03*
X122040000Y-107190000D03*
D25*
X166800000Y-102110000D03*
D26*
X166800000Y-104650000D03*
X166800000Y-107190000D03*
D25*
X161240000Y-102110000D03*
D26*
X161240000Y-104650000D03*
X161240000Y-107190000D03*
D25*
X158440000Y-102110000D03*
D26*
X158440000Y-104650000D03*
X158440000Y-107190000D03*
D25*
X164040000Y-102110000D03*
D26*
X164040000Y-104650000D03*
X164040000Y-107190000D03*
D25*
X145800000Y-102110000D03*
D26*
X145800000Y-104650000D03*
X145800000Y-107190000D03*
D25*
X140240000Y-102110000D03*
D26*
X140240000Y-104650000D03*
X140240000Y-107190000D03*
D25*
X137440000Y-102110000D03*
D26*
X137440000Y-104650000D03*
X137440000Y-107190000D03*
D25*
X143040000Y-102110000D03*
D26*
X143040000Y-104650000D03*
X143040000Y-107190000D03*
D25*
X166800000Y-79110000D03*
D26*
X166800000Y-81650000D03*
X166800000Y-84190000D03*
D25*
X161240000Y-79110000D03*
D26*
X161240000Y-81650000D03*
X161240000Y-84190000D03*
D25*
X158440000Y-79110000D03*
D26*
X158440000Y-81650000D03*
X158440000Y-84190000D03*
D25*
X164040000Y-79110000D03*
D26*
X164040000Y-81650000D03*
X164040000Y-84190000D03*
D25*
X145900000Y-79110000D03*
D26*
X145900000Y-81650000D03*
X145900000Y-84190000D03*
D25*
X140340000Y-79110000D03*
D26*
X140340000Y-81650000D03*
X140340000Y-84190000D03*
D25*
X137540000Y-79110000D03*
D26*
X137540000Y-81650000D03*
X137540000Y-84190000D03*
D25*
X143140000Y-79110000D03*
D26*
X143140000Y-81650000D03*
X143140000Y-84190000D03*
D25*
X103800000Y-79110000D03*
D26*
X103800000Y-81650000D03*
X103800000Y-84190000D03*
D25*
X98240000Y-79110000D03*
D26*
X98240000Y-81650000D03*
X98240000Y-84190000D03*
D25*
X95440000Y-79110000D03*
D26*
X95440000Y-81650000D03*
X95440000Y-84190000D03*
D25*
X101040000Y-79110000D03*
D26*
X101040000Y-81650000D03*
X101040000Y-84190000D03*
D12*
X146690000Y-70270000D03*
X149190000Y-70270000D03*
X151690000Y-70270000D03*
G36*
G01*
X155040000Y-69545000D02*
X155040000Y-70995000D01*
G75*
G02*
X154790000Y-71245000I-250000J0D01*
G01*
X153590000Y-71245000D01*
G75*
G02*
X153340000Y-70995000I0J250000D01*
G01*
X153340000Y-69545000D01*
G75*
G02*
X153590000Y-69295000I250000J0D01*
G01*
X154790000Y-69295000D01*
G75*
G02*
X155040000Y-69545000I0J-250000D01*
G01*
G37*
D26*
X124900000Y-84190000D03*
X124900000Y-81650000D03*
D25*
X124900000Y-79110000D03*
D26*
X119340000Y-84190000D03*
X119340000Y-81650000D03*
D25*
X119340000Y-79110000D03*
D26*
X122140000Y-84190000D03*
X122140000Y-81650000D03*
D25*
X122140000Y-79110000D03*
D26*
X116540000Y-84190000D03*
X116540000Y-81650000D03*
D25*
X116540000Y-79110000D03*
D12*
X154290000Y-94420000D03*
X156790000Y-94420000D03*
X159290000Y-94420000D03*
G36*
G01*
X162640000Y-93695000D02*
X162640000Y-95145000D01*
G75*
G02*
X162390000Y-95395000I-250000J0D01*
G01*
X161190000Y-95395000D01*
G75*
G02*
X160940000Y-95145000I0J250000D01*
G01*
X160940000Y-93695000D01*
G75*
G02*
X161190000Y-93445000I250000J0D01*
G01*
X162390000Y-93445000D01*
G75*
G02*
X162640000Y-93695000I0J-250000D01*
G01*
G37*
X81315000Y-70145000D03*
X83815000Y-70145000D03*
X86315000Y-70145000D03*
G36*
G01*
X89665000Y-69420000D02*
X89665000Y-70870000D01*
G75*
G02*
X89415000Y-71120000I-250000J0D01*
G01*
X88215000Y-71120000D01*
G75*
G02*
X87965000Y-70870000I0J250000D01*
G01*
X87965000Y-69420000D01*
G75*
G02*
X88215000Y-69170000I250000J0D01*
G01*
X89415000Y-69170000D01*
G75*
G02*
X89665000Y-69420000I0J-250000D01*
G01*
G37*
X129890000Y-70170000D03*
X132390000Y-70170000D03*
X134890000Y-70170000D03*
G36*
G01*
X138240000Y-69445000D02*
X138240000Y-70895000D01*
G75*
G02*
X137990000Y-71145000I-250000J0D01*
G01*
X136790000Y-71145000D01*
G75*
G02*
X136540000Y-70895000I0J250000D01*
G01*
X136540000Y-69445000D01*
G75*
G02*
X136790000Y-69195000I250000J0D01*
G01*
X137990000Y-69195000D01*
G75*
G02*
X138240000Y-69445000I0J-250000D01*
G01*
G37*
X98365000Y-70145000D03*
X100865000Y-70145000D03*
X103365000Y-70145000D03*
G36*
G01*
X106715000Y-69420000D02*
X106715000Y-70870000D01*
G75*
G02*
X106465000Y-71120000I-250000J0D01*
G01*
X105265000Y-71120000D01*
G75*
G02*
X105015000Y-70870000I0J250000D01*
G01*
X105015000Y-69420000D01*
G75*
G02*
X105265000Y-69170000I250000J0D01*
G01*
X106465000Y-69170000D01*
G75*
G02*
X106715000Y-69420000I0J-250000D01*
G01*
G37*
X112365000Y-70145000D03*
X114865000Y-70145000D03*
X117365000Y-70145000D03*
G36*
G01*
X120715000Y-69420000D02*
X120715000Y-70870000D01*
G75*
G02*
X120465000Y-71120000I-250000J0D01*
G01*
X119265000Y-71120000D01*
G75*
G02*
X119015000Y-70870000I0J250000D01*
G01*
X119015000Y-69420000D01*
G75*
G02*
X119265000Y-69170000I250000J0D01*
G01*
X120465000Y-69170000D01*
G75*
G02*
X120715000Y-69420000I0J-250000D01*
G01*
G37*
D22*
X166940000Y-88720000D03*
X149160000Y-76020000D03*
X164400000Y-88720000D03*
X151700000Y-76020000D03*
X161860000Y-88720000D03*
X154240000Y-76020000D03*
X159320000Y-88720000D03*
X156780000Y-76020000D03*
X156780000Y-88720000D03*
X159320000Y-76020000D03*
X154240000Y-88720000D03*
X161860000Y-76020000D03*
X151700000Y-88720000D03*
X164400000Y-76020000D03*
X149160000Y-88720000D03*
D14*
X166940000Y-76020000D03*
D22*
X166940000Y-111720000D03*
X149160000Y-99020000D03*
X164400000Y-111720000D03*
X151700000Y-99020000D03*
X161860000Y-111720000D03*
X154240000Y-99020000D03*
X159320000Y-111720000D03*
X156780000Y-99020000D03*
X156780000Y-111720000D03*
X159320000Y-99020000D03*
X154240000Y-111720000D03*
X161860000Y-99020000D03*
X151700000Y-111720000D03*
X164400000Y-99020000D03*
X149160000Y-111720000D03*
D14*
X166940000Y-99020000D03*
D22*
X124940000Y-111720000D03*
X107160000Y-99020000D03*
X122400000Y-111720000D03*
X109700000Y-99020000D03*
X119860000Y-111720000D03*
X112240000Y-99020000D03*
X117320000Y-111720000D03*
X114780000Y-99020000D03*
X114780000Y-111720000D03*
X117320000Y-99020000D03*
X112240000Y-111720000D03*
X119860000Y-99020000D03*
X109700000Y-111720000D03*
X122400000Y-99020000D03*
X107160000Y-111720000D03*
D14*
X124940000Y-99020000D03*
D22*
X103940000Y-88720000D03*
X86160000Y-76020000D03*
X101400000Y-88720000D03*
X88700000Y-76020000D03*
X98860000Y-88720000D03*
X91240000Y-76020000D03*
X96320000Y-88720000D03*
X93780000Y-76020000D03*
X93780000Y-88720000D03*
X96320000Y-76020000D03*
X91240000Y-88720000D03*
X98860000Y-76020000D03*
X88700000Y-88720000D03*
X101400000Y-76020000D03*
X86160000Y-88720000D03*
D14*
X103940000Y-76020000D03*
D22*
X145940000Y-88720000D03*
X128160000Y-76020000D03*
X143400000Y-88720000D03*
X130700000Y-76020000D03*
X140860000Y-88720000D03*
X133240000Y-76020000D03*
X138320000Y-88720000D03*
X135780000Y-76020000D03*
X135780000Y-88720000D03*
X138320000Y-76020000D03*
X133240000Y-88720000D03*
X140860000Y-76020000D03*
X130700000Y-88720000D03*
X143400000Y-76020000D03*
X128160000Y-88720000D03*
D14*
X145940000Y-76020000D03*
D22*
X145940000Y-111720000D03*
X128160000Y-99020000D03*
X143400000Y-111720000D03*
X130700000Y-99020000D03*
X140860000Y-111720000D03*
X133240000Y-99020000D03*
X138320000Y-111720000D03*
X135780000Y-99020000D03*
X135780000Y-111720000D03*
X138320000Y-99020000D03*
X133240000Y-111720000D03*
X140860000Y-99020000D03*
X130700000Y-111720000D03*
X143400000Y-99020000D03*
X128160000Y-111720000D03*
D14*
X145940000Y-99020000D03*
D22*
X124940000Y-88720000D03*
X107160000Y-76020000D03*
X122400000Y-88720000D03*
X109700000Y-76020000D03*
X119860000Y-88720000D03*
X112240000Y-76020000D03*
X117320000Y-88720000D03*
X114780000Y-76020000D03*
X114780000Y-88720000D03*
X117320000Y-76020000D03*
X112240000Y-88720000D03*
X119860000Y-76020000D03*
X109700000Y-88720000D03*
X122400000Y-76020000D03*
X107160000Y-88720000D03*
D14*
X124940000Y-76020000D03*
D27*
X74020000Y-71030000D03*
X74020000Y-161030000D03*
X164020000Y-71030000D03*
X164020000Y-161030000D03*
M02*
