M48
; DRILL file {KiCad 5.1.8+dfsg1-1~bpo10+1} date Mon Feb  1 19:48:51 2021
; FORMAT={-:-/ absolute / inch / decimal}
; #@! TF.CreationDate,2021-02-01T19:48:51+00:00
; #@! TF.GenerationSoftware,Kicad,Pcbnew,5.1.8+dfsg1-1~bpo10+1
FMAT,2
INCH
T1C0.0118
T2C0.0157
T3C0.0197
T4C0.0315
T5C0.0362
T6C0.0374
T7C0.0394
T8C0.0400
T9C0.0906
T10C0.0917
T11C0.1260
T12C0.1654
%
G90
G05
T1
X3.6976Y-3.7295
X3.6976Y-3.7768
X3.6976Y-3.828
X3.6976Y-3.8713
X3.7449Y-3.7295
X3.7449Y-3.7768
X3.7449Y-3.828
X3.7449Y-3.8713
T2
X2.8157Y-3.3443
X2.8536Y-3.3059
X2.9823Y-3.6446
X3.0087Y-2.9382
X3.0423Y-3.6446
X3.0573Y-3.1246
X3.0815Y-2.8693
X3.0854Y-2.7197
X3.109Y-3.6429
X3.1307Y-2.6744
X3.1323Y-3.1246
X3.1973Y-3.1246
X3.2252Y-4.702
X3.3118Y-3.5602
X3.3124Y-3.9648
X3.3236Y-4.3319
X3.3276Y-4.4224
X3.3551Y-3.6429
X3.3624Y-3.9648
X3.3906Y-4.7965
X3.4102Y-4.761
X3.4106Y-4.6701
X3.4124Y-3.814
X3.4417Y-4.6232
X3.4423Y-4.4946
X3.4732Y-3.698
X3.4772Y-4.5366
X3.5244Y-3.8516
X3.5638Y-3.6902
X3.6524Y-4.5051
X3.6824Y-4.4766
X3.6973Y-3.9446
X3.6973Y-4.0046
X3.7473Y-3.9446
X3.7473Y-4.0046
X3.8157Y-2.6744
X3.9123Y-3.1196
X3.9523Y-3.7696
X3.9673Y-3.1246
X4.0223Y-3.1246
X4.0402Y-3.6429
X4.0523Y-3.7696
X4.0835Y-4.2374
X4.0874Y-4.1783
X4.1623Y-3.5646
X4.1642Y-4.6665
X4.2213Y-4.1823
X4.2213Y-4.2374
X4.2334Y-4.1249
X4.2395Y-4.0679
X4.253Y-4.0309
X4.2646Y-3.6862
X4.2973Y-3.8446
X4.3Y-4.3398
X4.3Y-4.4185
X4.3Y-4.5012
X4.3Y-4.6665
X4.3023Y-4.0296
X4.3079Y-3.6429
X4.3173Y-4.1096
X4.3373Y-3.8496
X4.3591Y-4.2138
X4.363Y-3.6862
X4.4973Y-3.6496
X4.4988Y-4.763
X4.5073Y-3.7246
X4.5373Y-3.6896
X4.5473Y-3.6346
X4.5473Y-3.7546
X4.5573Y-4.0696
X4.5806Y-4.5936
X4.5815Y-4.3811
X4.5835Y-4.3398
X4.6023Y-4.7196
X4.6523Y-4.7196
X4.6583Y-4.0169
X4.6622Y-2.6744
X4.6858Y-4.0531
X4.7023Y-4.6946
X4.7055Y-4.3555
X4.7073Y-4.5746
X4.7114Y-3.4984
X4.7154Y-3.3909
X4.7173Y-4.0839
X4.7373Y-4.6346
X4.7473Y-4.1996
X4.7623Y-3.1096
X4.7723Y-4.5996
X4.7882Y-4.2551
X4.7882Y-4.3496
X4.802Y-4.0425
X4.818Y-4.5711
X4.8185Y-3.2898
X4.8273Y-3.1096
X4.8295Y-4.2551
X4.8295Y-4.3496
X4.8623Y-4.5296
X4.8748Y-4.2551
X4.8748Y-4.3496
X4.8949Y-4.6753
X4.8973Y-3.1096
X4.9123Y-4.9246
X4.9259Y-4.5211
X4.9323Y-3.6896
X4.9373Y-4.3496
X4.9573Y-4.9346
X4.9676Y-4.7059
X4.9731Y-3.9248
X4.9773Y-4.6459
X4.9924Y-3.865
X4.9929Y-3.824
X4.9973Y-3.7246
X5.0023Y-4.9346
X5.0123Y-3.5546
X5.0193Y-3.9621
X5.0205Y-3.9221
X5.0315Y-3.4783
X5.0521Y-4.7048
X5.0545Y-3.865
X5.0623Y-3.6896
X5.0646Y-3.9605
X5.1071Y-4.3634
X5.1219Y-3.9561
X5.1223Y-4.2296
X5.126Y-3.9953
X5.1373Y-4.5946
X5.1613Y-4.0126
X5.1652Y-4.3201
X5.1716Y-4.225
X5.1773Y-4.6132
X5.2023Y-4.2546
X5.2055Y-4.3167
X5.2073Y-4.6446
X5.2156Y-4.0173
X5.237Y-4.0733
X5.2537Y-4.0355
X5.3Y-4.0911
X5.3073Y-4.1546
X5.3223Y-4.4246
X5.3523Y-4.4546
X5.4021Y-4.3443
X5.4223Y-4.4546
X5.4452Y-4.0913
X5.4723Y-4.4546
X5.4823Y-4.0446
X5.5165Y-2.6744
X5.5523Y-4.7146
X5.6123Y-3.1196
X5.6623Y-4.0796
X5.6773Y-3.1196
X5.7077Y-4.82
X5.7423Y-3.1196
X5.7523Y-4.2346
X5.7573Y-4.8246
X5.7973Y-4.8146
X5.863Y-3.5642
X5.8823Y-4.9946
X5.8923Y-4.7246
X5.9123Y-4.7846
X5.9323Y-4.9946
X5.9423Y-4.7296
X5.9654Y-5.2295
X6.0523Y-4.8246
X6.0598Y-5.0524
X6.115Y-5.2374
X6.1423Y-4.8909
X6.2055Y-4.9776
X6.2291Y-4.6941
X6.2921Y-4.8476
X6.3Y-5.0563
X6.3669Y-2.6744
X6.3773Y-4.7146
X6.4102Y-5.072
X6.4496Y-5.0248
X6.4552Y-5.2076
X6.4623Y-3.1196
X6.5173Y-3.1196
X6.5362Y-5.2295
X6.5723Y-3.1196
X6.6071Y-4.887
X6.6073Y-4.8196
X6.6189Y-5.0563
X6.6819Y-5.2413
X6.7134Y-3.5642
X6.7606Y-4.9854
X6.7803Y-4.6941
X6.8236Y-5.0524
X6.8551Y-4.8476
X6.8723Y-4.6796
X6.9023Y-4.2096
X6.9299Y-4.702
X6.9693Y-5.0602
X7.0047Y-5.013
X7.0108Y-5.208
X7.0923Y-4.9746
X7.1023Y-4.8996
X7.1423Y-4.7896
X7.1723Y-4.5196
X7.1723Y-4.5696
X7.1723Y-4.6146
X7.2123Y-2.6794
X7.3123Y-3.1246
X7.3623Y-3.1246
X7.3673Y-4.5496
X7.4123Y-3.1246
X7.4673Y-4.5496
X7.5423Y-4.0746
X7.5423Y-4.1346
X7.5423Y-4.1896
X7.5423Y-4.8996
X7.5638Y-3.5663
X7.5673Y-4.5496
X7.5973Y-4.7196
X7.6023Y-4.0746
X7.6023Y-4.1346
X7.6023Y-4.1896
X7.6323Y-4.6846
X7.6723Y-4.6496
X7.8273Y-4.9096
X7.8623Y-3.8796
X7.9531Y-3.6409
X8.0209Y-3.8398
X8.0614Y-3.4713
X8.0626Y-3.1461
X8.0764Y-4.0449
X8.0772Y-3.7425
X8.2273Y-3.1196
X8.2273Y-3.4196
X8.2273Y-3.7196
X8.2273Y-4.0196
X8.2873Y-4.0196
X8.2973Y-3.1296
X8.2973Y-3.7246
X8.3023Y-3.4246
X8.3123Y-3.1896
X8.3123Y-3.4896
X8.3123Y-3.7896
X8.3123Y-4.0846
X8.3943Y-3.3206
X8.3943Y-3.4756
X8.3943Y-3.6226
X8.3943Y-3.7776
X8.3943Y-3.9216
X8.3943Y-4.0766
X8.3973Y-3.0246
X8.3973Y-3.1796
X8.4743Y-3.3906
X8.4743Y-3.6926
X8.4743Y-3.9916
X8.4773Y-3.0946
X8.5543Y-3.3206
X8.5543Y-3.4756
X8.5543Y-3.6226
X8.5543Y-3.7776
X8.5543Y-3.9216
X8.5543Y-4.0766
X8.5573Y-3.0246
X8.5573Y-3.1796
X8.6189Y-2.6744
X8.6189Y-2.8831
X8.7213Y-2.9776
X8.7252Y-5.3043
X8.7331Y-2.6508
X8.8118Y-2.9776
X8.87Y-4.8569
X8.8723Y-4.7546
X8.8773Y-4.9046
X8.9614Y-2.9421
X8.9732Y-3.4579
X8.9732Y-3.8988
X8.9732Y-5.0484
T3
X3.864Y-4.6139
X4.064Y-4.6139
X3.964Y-4.6139
T4
X3.8123Y-3.024
X3.8123Y-3.524
X3.9123Y-3.024
X3.9123Y-3.524
X4.0123Y-3.024
X4.0123Y-3.524
X4.1123Y-3.024
X4.1123Y-3.524
X4.2123Y-3.024
X4.2123Y-3.524
X4.3123Y-3.024
X4.3123Y-3.524
X4.4123Y-3.024
X4.4123Y-3.524
X4.5123Y-3.024
X4.5123Y-3.524
X4.6623Y-3.024
X4.6623Y-3.524
X4.7623Y-3.024
X4.7623Y-3.524
X4.8623Y-3.024
X4.8623Y-3.524
X4.9623Y-3.024
X4.9623Y-3.524
X5.0623Y-3.024
X5.0623Y-3.524
X5.1623Y-3.024
X5.1623Y-3.524
X5.2623Y-3.024
X5.2623Y-3.524
X5.3623Y-3.024
X5.3623Y-3.524
X2.9623Y-3.024
X2.9623Y-3.524
X3.0623Y-3.024
X3.0623Y-3.524
X3.1623Y-3.024
X3.1623Y-3.524
X3.2623Y-3.024
X3.2623Y-3.524
X3.3623Y-3.024
X3.3623Y-3.524
X3.4623Y-3.024
X3.4623Y-3.524
X3.5623Y-3.024
X3.5623Y-3.524
X3.6623Y-3.024
X3.6623Y-3.524
X7.2123Y-3.024
X7.2123Y-3.524
X7.3123Y-3.024
X7.3123Y-3.524
X7.4123Y-3.024
X7.4123Y-3.524
X7.5123Y-3.024
X7.5123Y-3.524
X7.6123Y-3.024
X7.6123Y-3.524
X7.7123Y-3.024
X7.7123Y-3.524
X7.8123Y-3.024
X7.8123Y-3.524
X7.9123Y-3.024
X7.9123Y-3.524
X5.5123Y-3.024
X5.5123Y-3.524
X5.6123Y-3.024
X5.6123Y-3.524
X5.7123Y-3.024
X5.7123Y-3.524
X5.8123Y-3.024
X5.8123Y-3.524
X5.9123Y-3.024
X5.9123Y-3.524
X6.0123Y-3.024
X6.0123Y-3.524
X6.1123Y-3.024
X6.1123Y-3.524
X6.2123Y-3.024
X6.2123Y-3.524
X6.3623Y-3.024
X6.3623Y-3.524
X6.4623Y-3.024
X6.4623Y-3.524
X6.5623Y-3.024
X6.5623Y-3.524
X6.6623Y-3.024
X6.6623Y-3.524
X6.7623Y-3.024
X6.7623Y-3.524
X6.8623Y-3.024
X6.8623Y-3.524
X6.9623Y-3.024
X6.9623Y-3.524
X7.0623Y-3.024
X7.0623Y-3.524
T5
X3.3177Y-5.0307
X3.3177Y-5.1339
X3.4161Y-5.0307
X3.4161Y-5.1339
X3.4949Y-5.0307
X3.4949Y-5.1339
X3.5933Y-5.0307
X3.5933Y-5.1339
X2.9831Y-4.5681
X2.9831Y-4.6665
X3.0618Y-4.5681
X3.0618Y-4.6665
T6
X3.172Y-2.7996
X3.2705Y-2.7996
X3.3689Y-2.7996
X3.4673Y-2.7996
X8.2134Y-4.5339
X8.3118Y-4.5339
X8.4102Y-4.5339
X5.717Y-2.7996
X5.8155Y-2.7996
X5.9139Y-2.7996
X6.0123Y-2.7996
X8.6773Y-4.2583
X8.7757Y-4.2583
X8.8742Y-4.2583
X8.6773Y-4.5339
X8.7757Y-4.5339
X8.8742Y-4.5339
X4.2862Y-5.1528
X4.3846Y-5.1528
X4.4831Y-5.1528
X7.7567Y-4.261
X7.8551Y-4.261
X7.9535Y-4.261
X5.6248Y-5.1528
X5.7232Y-5.1528
X5.8217Y-5.1528
X8.048Y-2.8004
X8.1465Y-2.8004
X8.2449Y-2.8004
X8.3433Y-2.8004
X8.2134Y-4.2583
X8.3118Y-4.2583
X8.4102Y-4.2583
X7.422Y-2.7996
X7.5205Y-2.7996
X7.6189Y-2.7996
X7.7173Y-2.7996
X7.7567Y-4.5339
X7.8551Y-4.5339
X7.9535Y-4.5339
X5.1819Y-5.1528
X5.2803Y-5.1528
X5.3787Y-5.1528
X7.189Y-5.1508
X7.2874Y-5.1508
X7.3859Y-5.1508
X7.4843Y-5.1508
X7.739Y-5.1508
X7.8374Y-5.1508
X7.9359Y-5.1508
X8.0343Y-5.1508
X4.867Y-2.7996
X4.9655Y-2.7996
X5.0639Y-2.7996
X5.1623Y-2.7996
X6.572Y-2.7996
X6.6705Y-2.7996
X6.7689Y-2.7996
X6.8673Y-2.7996
X4.017Y-2.7996
X4.1155Y-2.7996
X4.2139Y-2.7996
X4.3123Y-2.7996
X4.736Y-5.1537
X4.8344Y-5.1537
X4.9329Y-5.1537
T7
X3.4123Y-3.1746
X3.4123Y-3.2746
X3.4123Y-3.3746
X8.7764Y-3.3791
X8.8748Y-3.3791
X3.6123Y-3.1746
X3.6123Y-3.2746
X3.6123Y-3.3746
X7.6673Y-3.1746
X7.6673Y-3.2746
X7.6673Y-3.3746
X4.3673Y-3.1746
X4.3673Y-3.2746
X4.3673Y-3.3746
X7.8673Y-3.1746
X7.8673Y-3.2746
X7.8673Y-3.3746
X7.0173Y-3.1746
X7.0173Y-3.2746
X7.0173Y-3.3746
X4.4673Y-3.1746
X4.4673Y-3.2746
X4.4673Y-3.3746
X5.0173Y-3.1746
X5.0173Y-3.2746
X5.0173Y-3.3746
X5.9673Y-3.1746
X5.9673Y-3.2746
X5.9673Y-3.3746
X8.7773Y-3.0796
X8.8757Y-3.0796
X6.1673Y-3.1746
X6.1673Y-3.2746
X6.1673Y-3.3746
X6.8173Y-3.1746
X6.8173Y-3.2746
X6.8173Y-3.3746
X8.7773Y-3.9696
X8.8757Y-3.9696
X4.2673Y-3.1746
X4.2673Y-3.2746
X4.2673Y-3.3746
X3.3123Y-3.1746
X3.3123Y-3.2746
X3.3123Y-3.3746
X7.7673Y-3.1746
X7.7673Y-3.2746
X7.7673Y-3.3746
X8.3073Y-4.9196
X8.3073Y-5.0196
X8.3073Y-5.1196
X8.4073Y-4.9196
X8.4073Y-5.0196
X8.4073Y-5.1196
X3.9417Y-5.1528
X4.0402Y-5.1528
X5.2173Y-3.1746
X5.2173Y-3.2746
X5.2173Y-3.3746
X7.5673Y-3.1746
X7.5673Y-3.2746
X7.5673Y-3.3746
X6.7173Y-3.1746
X6.7173Y-3.2746
X6.7173Y-3.3746
X8.7773Y-3.6796
X8.8757Y-3.6796
X6.0673Y-3.1746
X6.0673Y-3.2746
X6.0673Y-3.3746
X5.3173Y-3.1746
X5.3173Y-3.2746
X5.3173Y-3.3746
X4.1673Y-3.1746
X4.1673Y-3.2746
X4.1673Y-3.3746
X3.5123Y-3.1746
X3.5123Y-3.2746
X3.5123Y-3.3746
X5.8673Y-3.1746
X5.8673Y-3.2746
X5.8673Y-3.3746
X5.1173Y-3.1746
X5.1173Y-3.2746
X5.1173Y-3.3746
X6.9173Y-3.1746
X6.9173Y-3.2746
X6.9173Y-3.3746
T8
X7.3673Y-3.8696
X7.3673Y-3.9696
X7.3673Y-4.0696
X7.3673Y-4.1696
X7.3673Y-4.2696
X7.4673Y-3.8696
X7.4673Y-3.9696
X7.4673Y-4.0696
X7.4673Y-4.1696
X7.4673Y-4.2696
X6.9673Y-3.8696
X6.9673Y-3.9696
X6.9673Y-4.0696
X6.9673Y-4.1696
X6.9673Y-4.2696
X7.0673Y-3.8696
X7.0673Y-3.9696
X7.0673Y-4.0696
X7.0673Y-4.1696
X7.0673Y-4.2696
T9
X3.1969Y-5.0169
X3.1969Y-5.2406
X3.7142Y-5.0169
X3.7142Y-5.2406
T10
X2.8764Y-4.3803
X2.8764Y-4.8543
T11
X2.9142Y-5.1587
X8.8197Y-2.7965
X2.9142Y-2.7965
X8.8197Y-5.1587
T12
X6.2331Y-5.1587
X6.7902Y-5.1601
T7
G00X2.8811Y-3.9461
M15
G01X2.8811Y-4.0248
M16
G05
G00X2.9598Y-4.1705
M15
G01X3.0386Y-4.1705
M16
G05
G00X3.1173Y-3.9461
M15
G01X3.1173Y-4.0248
M16
G05
T0
M30
