G04 #@! TF.GenerationSoftware,KiCad,Pcbnew,5.1.9+dfsg1-1~bpo10+1*
G04 #@! TF.CreationDate,2021-02-22T19:27:00+00:00*
G04 #@! TF.ProjectId,mobo,6d6f626f-2e6b-4696-9361-645f70636258,rev?*
G04 #@! TF.SameCoordinates,Original*
G04 #@! TF.FileFunction,Soldermask,Bot*
G04 #@! TF.FilePolarity,Negative*
%FSLAX46Y46*%
G04 Gerber Fmt 4.6, Leading zero omitted, Abs format (unit mm)*
G04 Created by KiCad (PCBNEW 5.1.9+dfsg1-1~bpo10+1) date 2021-02-22 19:27:00*
%MOMM*%
%LPD*%
G01*
G04 APERTURE LIST*
%ADD10C,1.600000*%
%ADD11R,1.600000X1.600000*%
%ADD12C,3.000000*%
%ADD13C,4.200000*%
%ADD14O,1.700000X2.000000*%
%ADD15C,0.600000*%
%ADD16O,1.700000X0.900000*%
%ADD17O,2.000000X0.900000*%
%ADD18O,1.600000X1.600000*%
%ADD19O,1.700000X1.950000*%
%ADD20R,2.600000X2.600000*%
%ADD21C,2.600000*%
%ADD22R,1.700000X1.700000*%
%ADD23O,1.700000X1.700000*%
%ADD24C,5.600000*%
G04 APERTURE END LIST*
D10*
X138840000Y-161180000D03*
X136340000Y-161180000D03*
X134340000Y-161180000D03*
D11*
X131840000Y-161180000D03*
D12*
X128770000Y-163890000D03*
X141910000Y-163890000D03*
D10*
X156200000Y-161180000D03*
X153700000Y-161180000D03*
X151700000Y-161180000D03*
D11*
X149200000Y-161180000D03*
D12*
X146130000Y-163890000D03*
X159270000Y-163890000D03*
D10*
X121420000Y-161160000D03*
X118920000Y-161160000D03*
X116920000Y-161160000D03*
D11*
X114420000Y-161160000D03*
D12*
X111350000Y-163870000D03*
X124490000Y-163870000D03*
D13*
X166510000Y-134480000D03*
X166390000Y-121890000D03*
D14*
X83010000Y-153460000D03*
G36*
G01*
X79660000Y-154210000D02*
X79660000Y-152710000D01*
G75*
G02*
X79910000Y-152460000I250000J0D01*
G01*
X81110000Y-152460000D01*
G75*
G02*
X81360000Y-152710000I0J-250000D01*
G01*
X81360000Y-154210000D01*
G75*
G02*
X81110000Y-154460000I-250000J0D01*
G01*
X79910000Y-154460000D01*
G75*
G02*
X79660000Y-154210000I0J250000D01*
G01*
G37*
X83010000Y-145460000D03*
G36*
G01*
X79660000Y-146210000D02*
X79660000Y-144710000D01*
G75*
G02*
X79910000Y-144460000I250000J0D01*
G01*
X81110000Y-144460000D01*
G75*
G02*
X81360000Y-144710000I0J-250000D01*
G01*
X81360000Y-146210000D01*
G75*
G02*
X81110000Y-146460000I-250000J0D01*
G01*
X79910000Y-146460000D01*
G75*
G02*
X79660000Y-146210000I0J250000D01*
G01*
G37*
X74510000Y-153460000D03*
G36*
G01*
X71160000Y-154210000D02*
X71160000Y-152710000D01*
G75*
G02*
X71410000Y-152460000I250000J0D01*
G01*
X72610000Y-152460000D01*
G75*
G02*
X72860000Y-152710000I0J-250000D01*
G01*
X72860000Y-154210000D01*
G75*
G02*
X72610000Y-154460000I-250000J0D01*
G01*
X71410000Y-154460000D01*
G75*
G02*
X71160000Y-154210000I0J250000D01*
G01*
G37*
X74510000Y-145460000D03*
G36*
G01*
X71160000Y-146210000D02*
X71160000Y-144710000D01*
G75*
G02*
X71410000Y-144460000I250000J0D01*
G01*
X72610000Y-144460000D01*
G75*
G02*
X72860000Y-144710000I0J-250000D01*
G01*
X72860000Y-146210000D01*
G75*
G02*
X72610000Y-146460000I-250000J0D01*
G01*
X71410000Y-146460000D01*
G75*
G02*
X71160000Y-146210000I0J250000D01*
G01*
G37*
X83010000Y-137460000D03*
G36*
G01*
X79660000Y-138210000D02*
X79660000Y-136710000D01*
G75*
G02*
X79910000Y-136460000I250000J0D01*
G01*
X81110000Y-136460000D01*
G75*
G02*
X81360000Y-136710000I0J-250000D01*
G01*
X81360000Y-138210000D01*
G75*
G02*
X81110000Y-138460000I-250000J0D01*
G01*
X79910000Y-138460000D01*
G75*
G02*
X79660000Y-138210000I0J250000D01*
G01*
G37*
X74510000Y-137460000D03*
G36*
G01*
X71160000Y-138210000D02*
X71160000Y-136710000D01*
G75*
G02*
X71410000Y-136460000I250000J0D01*
G01*
X72610000Y-136460000D01*
G75*
G02*
X72860000Y-136710000I0J-250000D01*
G01*
X72860000Y-138210000D01*
G75*
G02*
X72610000Y-138460000I-250000J0D01*
G01*
X71410000Y-138460000D01*
G75*
G02*
X71160000Y-138210000I0J250000D01*
G01*
G37*
X83010000Y-129460000D03*
G36*
G01*
X79660000Y-130210000D02*
X79660000Y-128710000D01*
G75*
G02*
X79910000Y-128460000I250000J0D01*
G01*
X81110000Y-128460000D01*
G75*
G02*
X81360000Y-128710000I0J-250000D01*
G01*
X81360000Y-130210000D01*
G75*
G02*
X81110000Y-130460000I-250000J0D01*
G01*
X79910000Y-130460000D01*
G75*
G02*
X79660000Y-130210000I0J250000D01*
G01*
G37*
X74510000Y-129460000D03*
G36*
G01*
X71160000Y-130210000D02*
X71160000Y-128710000D01*
G75*
G02*
X71410000Y-128460000I250000J0D01*
G01*
X72610000Y-128460000D01*
G75*
G02*
X72860000Y-128710000I0J-250000D01*
G01*
X72860000Y-130210000D01*
G75*
G02*
X72610000Y-130460000I-250000J0D01*
G01*
X71410000Y-130460000D01*
G75*
G02*
X71160000Y-130210000I0J250000D01*
G01*
G37*
D15*
X163210000Y-155770000D03*
X163210000Y-149990000D03*
D16*
X166900000Y-148560000D03*
X166900000Y-157200000D03*
D17*
X162730000Y-148560000D03*
X162730000Y-157200000D03*
D15*
X74765000Y-112505000D03*
X74765000Y-118285000D03*
D16*
X71075000Y-119715000D03*
X71075000Y-111075000D03*
D17*
X75245000Y-119715000D03*
X75245000Y-111075000D03*
D18*
X103940000Y-111720000D03*
X86160000Y-99020000D03*
X101400000Y-111720000D03*
X88700000Y-99020000D03*
X98860000Y-111720000D03*
X91240000Y-99020000D03*
X96320000Y-111720000D03*
X93780000Y-99020000D03*
X93780000Y-111720000D03*
X96320000Y-99020000D03*
X91240000Y-111720000D03*
X98860000Y-99020000D03*
X88700000Y-111720000D03*
X101400000Y-99020000D03*
X86160000Y-111720000D03*
D11*
X103940000Y-99020000D03*
D19*
X112290000Y-94370000D03*
X114790000Y-94370000D03*
X117290000Y-94370000D03*
G36*
G01*
X120640000Y-93645000D02*
X120640000Y-95095000D01*
G75*
G02*
X120390000Y-95345000I-250000J0D01*
G01*
X119190000Y-95345000D01*
G75*
G02*
X118940000Y-95095000I0J250000D01*
G01*
X118940000Y-93645000D01*
G75*
G02*
X119190000Y-93395000I250000J0D01*
G01*
X120390000Y-93395000D01*
G75*
G02*
X120640000Y-93645000I0J-250000D01*
G01*
G37*
X133290000Y-94420000D03*
X135790000Y-94420000D03*
X138290000Y-94420000D03*
G36*
G01*
X141640000Y-93695000D02*
X141640000Y-95145000D01*
G75*
G02*
X141390000Y-95395000I-250000J0D01*
G01*
X140190000Y-95395000D01*
G75*
G02*
X139940000Y-95145000I0J250000D01*
G01*
X139940000Y-93695000D01*
G75*
G02*
X140190000Y-93445000I250000J0D01*
G01*
X141390000Y-93445000D01*
G75*
G02*
X141640000Y-93695000I0J-250000D01*
G01*
G37*
X91340000Y-94420000D03*
X93840000Y-94420000D03*
X96340000Y-94420000D03*
G36*
G01*
X99690000Y-93695000D02*
X99690000Y-95145000D01*
G75*
G02*
X99440000Y-95395000I-250000J0D01*
G01*
X98240000Y-95395000D01*
G75*
G02*
X97990000Y-95145000I0J250000D01*
G01*
X97990000Y-93695000D01*
G75*
G02*
X98240000Y-93445000I250000J0D01*
G01*
X99440000Y-93445000D01*
G75*
G02*
X99690000Y-93695000I0J-250000D01*
G01*
G37*
D20*
X73990000Y-77420000D03*
D21*
X73990000Y-82420000D03*
D22*
X103700000Y-102010000D03*
D23*
X103700000Y-104550000D03*
X103700000Y-107090000D03*
D22*
X98140000Y-102010000D03*
D23*
X98140000Y-104550000D03*
X98140000Y-107090000D03*
D22*
X95340000Y-102010000D03*
D23*
X95340000Y-104550000D03*
X95340000Y-107090000D03*
D22*
X100940000Y-102010000D03*
D23*
X100940000Y-104550000D03*
X100940000Y-107090000D03*
D22*
X124800000Y-102110000D03*
D23*
X124800000Y-104650000D03*
X124800000Y-107190000D03*
D22*
X119240000Y-102110000D03*
D23*
X119240000Y-104650000D03*
X119240000Y-107190000D03*
D22*
X116440000Y-102110000D03*
D23*
X116440000Y-104650000D03*
X116440000Y-107190000D03*
D22*
X122040000Y-102110000D03*
D23*
X122040000Y-104650000D03*
X122040000Y-107190000D03*
D22*
X166800000Y-102110000D03*
D23*
X166800000Y-104650000D03*
X166800000Y-107190000D03*
D22*
X161240000Y-102110000D03*
D23*
X161240000Y-104650000D03*
X161240000Y-107190000D03*
D22*
X158440000Y-102110000D03*
D23*
X158440000Y-104650000D03*
X158440000Y-107190000D03*
D22*
X164040000Y-102110000D03*
D23*
X164040000Y-104650000D03*
X164040000Y-107190000D03*
D22*
X145800000Y-102110000D03*
D23*
X145800000Y-104650000D03*
X145800000Y-107190000D03*
D22*
X140240000Y-102110000D03*
D23*
X140240000Y-104650000D03*
X140240000Y-107190000D03*
D22*
X137440000Y-102110000D03*
D23*
X137440000Y-104650000D03*
X137440000Y-107190000D03*
D22*
X143040000Y-102110000D03*
D23*
X143040000Y-104650000D03*
X143040000Y-107190000D03*
D22*
X166800000Y-79110000D03*
D23*
X166800000Y-81650000D03*
X166800000Y-84190000D03*
D22*
X161240000Y-79110000D03*
D23*
X161240000Y-81650000D03*
X161240000Y-84190000D03*
D22*
X158440000Y-79110000D03*
D23*
X158440000Y-81650000D03*
X158440000Y-84190000D03*
D22*
X164040000Y-79110000D03*
D23*
X164040000Y-81650000D03*
X164040000Y-84190000D03*
D22*
X145900000Y-79110000D03*
D23*
X145900000Y-81650000D03*
X145900000Y-84190000D03*
D22*
X140340000Y-79110000D03*
D23*
X140340000Y-81650000D03*
X140340000Y-84190000D03*
D22*
X137540000Y-79110000D03*
D23*
X137540000Y-81650000D03*
X137540000Y-84190000D03*
D22*
X143140000Y-79110000D03*
D23*
X143140000Y-81650000D03*
X143140000Y-84190000D03*
D22*
X103800000Y-79110000D03*
D23*
X103800000Y-81650000D03*
X103800000Y-84190000D03*
D22*
X98240000Y-79110000D03*
D23*
X98240000Y-81650000D03*
X98240000Y-84190000D03*
D22*
X95440000Y-79110000D03*
D23*
X95440000Y-81650000D03*
X95440000Y-84190000D03*
D22*
X101040000Y-79110000D03*
D23*
X101040000Y-81650000D03*
X101040000Y-84190000D03*
D19*
X146690000Y-70270000D03*
X149190000Y-70270000D03*
X151690000Y-70270000D03*
G36*
G01*
X155040000Y-69545000D02*
X155040000Y-70995000D01*
G75*
G02*
X154790000Y-71245000I-250000J0D01*
G01*
X153590000Y-71245000D01*
G75*
G02*
X153340000Y-70995000I0J250000D01*
G01*
X153340000Y-69545000D01*
G75*
G02*
X153590000Y-69295000I250000J0D01*
G01*
X154790000Y-69295000D01*
G75*
G02*
X155040000Y-69545000I0J-250000D01*
G01*
G37*
D23*
X124900000Y-84190000D03*
X124900000Y-81650000D03*
D22*
X124900000Y-79110000D03*
D23*
X119340000Y-84190000D03*
X119340000Y-81650000D03*
D22*
X119340000Y-79110000D03*
D23*
X122140000Y-84190000D03*
X122140000Y-81650000D03*
D22*
X122140000Y-79110000D03*
D23*
X116540000Y-84190000D03*
X116540000Y-81650000D03*
D22*
X116540000Y-79110000D03*
D19*
X154290000Y-94420000D03*
X156790000Y-94420000D03*
X159290000Y-94420000D03*
G36*
G01*
X162640000Y-93695000D02*
X162640000Y-95145000D01*
G75*
G02*
X162390000Y-95395000I-250000J0D01*
G01*
X161190000Y-95395000D01*
G75*
G02*
X160940000Y-95145000I0J250000D01*
G01*
X160940000Y-93695000D01*
G75*
G02*
X161190000Y-93445000I250000J0D01*
G01*
X162390000Y-93445000D01*
G75*
G02*
X162640000Y-93695000I0J-250000D01*
G01*
G37*
X81315000Y-70145000D03*
X83815000Y-70145000D03*
X86315000Y-70145000D03*
G36*
G01*
X89665000Y-69420000D02*
X89665000Y-70870000D01*
G75*
G02*
X89415000Y-71120000I-250000J0D01*
G01*
X88215000Y-71120000D01*
G75*
G02*
X87965000Y-70870000I0J250000D01*
G01*
X87965000Y-69420000D01*
G75*
G02*
X88215000Y-69170000I250000J0D01*
G01*
X89415000Y-69170000D01*
G75*
G02*
X89665000Y-69420000I0J-250000D01*
G01*
G37*
X129890000Y-70170000D03*
X132390000Y-70170000D03*
X134890000Y-70170000D03*
G36*
G01*
X138240000Y-69445000D02*
X138240000Y-70895000D01*
G75*
G02*
X137990000Y-71145000I-250000J0D01*
G01*
X136790000Y-71145000D01*
G75*
G02*
X136540000Y-70895000I0J250000D01*
G01*
X136540000Y-69445000D01*
G75*
G02*
X136790000Y-69195000I250000J0D01*
G01*
X137990000Y-69195000D01*
G75*
G02*
X138240000Y-69445000I0J-250000D01*
G01*
G37*
X98365000Y-70145000D03*
X100865000Y-70145000D03*
X103365000Y-70145000D03*
G36*
G01*
X106715000Y-69420000D02*
X106715000Y-70870000D01*
G75*
G02*
X106465000Y-71120000I-250000J0D01*
G01*
X105265000Y-71120000D01*
G75*
G02*
X105015000Y-70870000I0J250000D01*
G01*
X105015000Y-69420000D01*
G75*
G02*
X105265000Y-69170000I250000J0D01*
G01*
X106465000Y-69170000D01*
G75*
G02*
X106715000Y-69420000I0J-250000D01*
G01*
G37*
X112365000Y-70145000D03*
X114865000Y-70145000D03*
X117365000Y-70145000D03*
G36*
G01*
X120715000Y-69420000D02*
X120715000Y-70870000D01*
G75*
G02*
X120465000Y-71120000I-250000J0D01*
G01*
X119265000Y-71120000D01*
G75*
G02*
X119015000Y-70870000I0J250000D01*
G01*
X119015000Y-69420000D01*
G75*
G02*
X119265000Y-69170000I250000J0D01*
G01*
X120465000Y-69170000D01*
G75*
G02*
X120715000Y-69420000I0J-250000D01*
G01*
G37*
D18*
X166940000Y-88720000D03*
X149160000Y-76020000D03*
X164400000Y-88720000D03*
X151700000Y-76020000D03*
X161860000Y-88720000D03*
X154240000Y-76020000D03*
X159320000Y-88720000D03*
X156780000Y-76020000D03*
X156780000Y-88720000D03*
X159320000Y-76020000D03*
X154240000Y-88720000D03*
X161860000Y-76020000D03*
X151700000Y-88720000D03*
X164400000Y-76020000D03*
X149160000Y-88720000D03*
D11*
X166940000Y-76020000D03*
D18*
X166940000Y-111720000D03*
X149160000Y-99020000D03*
X164400000Y-111720000D03*
X151700000Y-99020000D03*
X161860000Y-111720000D03*
X154240000Y-99020000D03*
X159320000Y-111720000D03*
X156780000Y-99020000D03*
X156780000Y-111720000D03*
X159320000Y-99020000D03*
X154240000Y-111720000D03*
X161860000Y-99020000D03*
X151700000Y-111720000D03*
X164400000Y-99020000D03*
X149160000Y-111720000D03*
D11*
X166940000Y-99020000D03*
D18*
X124940000Y-111720000D03*
X107160000Y-99020000D03*
X122400000Y-111720000D03*
X109700000Y-99020000D03*
X119860000Y-111720000D03*
X112240000Y-99020000D03*
X117320000Y-111720000D03*
X114780000Y-99020000D03*
X114780000Y-111720000D03*
X117320000Y-99020000D03*
X112240000Y-111720000D03*
X119860000Y-99020000D03*
X109700000Y-111720000D03*
X122400000Y-99020000D03*
X107160000Y-111720000D03*
D11*
X124940000Y-99020000D03*
D18*
X103940000Y-88720000D03*
X86160000Y-76020000D03*
X101400000Y-88720000D03*
X88700000Y-76020000D03*
X98860000Y-88720000D03*
X91240000Y-76020000D03*
X96320000Y-88720000D03*
X93780000Y-76020000D03*
X93780000Y-88720000D03*
X96320000Y-76020000D03*
X91240000Y-88720000D03*
X98860000Y-76020000D03*
X88700000Y-88720000D03*
X101400000Y-76020000D03*
X86160000Y-88720000D03*
D11*
X103940000Y-76020000D03*
D18*
X145940000Y-88720000D03*
X128160000Y-76020000D03*
X143400000Y-88720000D03*
X130700000Y-76020000D03*
X140860000Y-88720000D03*
X133240000Y-76020000D03*
X138320000Y-88720000D03*
X135780000Y-76020000D03*
X135780000Y-88720000D03*
X138320000Y-76020000D03*
X133240000Y-88720000D03*
X140860000Y-76020000D03*
X130700000Y-88720000D03*
X143400000Y-76020000D03*
X128160000Y-88720000D03*
D11*
X145940000Y-76020000D03*
D18*
X145940000Y-111720000D03*
X128160000Y-99020000D03*
X143400000Y-111720000D03*
X130700000Y-99020000D03*
X140860000Y-111720000D03*
X133240000Y-99020000D03*
X138320000Y-111720000D03*
X135780000Y-99020000D03*
X135780000Y-111720000D03*
X138320000Y-99020000D03*
X133240000Y-111720000D03*
X140860000Y-99020000D03*
X130700000Y-111720000D03*
X143400000Y-99020000D03*
X128160000Y-111720000D03*
D11*
X145940000Y-99020000D03*
D18*
X124940000Y-88720000D03*
X107160000Y-76020000D03*
X122400000Y-88720000D03*
X109700000Y-76020000D03*
X119860000Y-88720000D03*
X112240000Y-76020000D03*
X117320000Y-88720000D03*
X114780000Y-76020000D03*
X114780000Y-88720000D03*
X117320000Y-76020000D03*
X112240000Y-88720000D03*
X119860000Y-76020000D03*
X109700000Y-88720000D03*
X122400000Y-76020000D03*
X107160000Y-88720000D03*
D11*
X124940000Y-76020000D03*
D24*
X74020000Y-71030000D03*
X74020000Y-161030000D03*
X164020000Y-71030000D03*
X164020000Y-161030000D03*
M02*
