M48
; DRILL file {KiCad 5.1.9+dfsg1-1~bpo10+1} date Thu Jul 29 19:38:15 2021
; FORMAT={-:-/ absolute / inch / decimal}
; #@! TF.CreationDate,2021-07-29T19:38:15+00:00
; #@! TF.GenerationSoftware,Kicad,Pcbnew,5.1.9+dfsg1-1~bpo10+1
FMAT,2
INCH
T1C0.0118
T2C0.0157
T3C0.0236
T4C0.0315
T5C0.0362
T6C0.0374
T7C0.0394
T8C0.0512
T9C0.0906
T10C0.1260
T11C0.1654
T12C0.0236
%
G90
G05
T1
X2.8898Y-3.4244
X2.9638Y-3.3909
X3.0331Y-5.6909
X3.1327Y-6.1752
X3.1331Y-3.3598
X3.165Y-3.1811
X3.1681Y-6.2244
X3.189Y-6.0008
X3.2283Y-3.4244
X3.2969Y-3.3654
X3.2996Y-6.1248
X3.3134Y-5.772
X3.3165Y-5.9413
X3.3193Y-5.8465
X3.3197Y-5.9087
X3.3402Y-5.8756
X3.3539Y-5.9421
X3.3567Y-5.715
X3.3685Y-6.0528
X3.3815Y-6.3244
X3.415Y-5.7142
X3.415Y-5.9441
X3.4736Y-5.715
X3.4909Y-5.9433
X3.52Y-4.8536
X3.5248Y-5.9449
X3.5288Y-5.6138
X3.535Y-5.7565
X3.539Y-5.811
X3.539Y-5.9165
X3.5394Y-5.8492
X3.5484Y-3.3941
X3.5921Y-5.5138
X3.6071Y-6.174
X3.6484Y-6.226
X3.6843Y-6.3764
X3.6882Y-6.0441
X3.7094Y-3.4258
X3.7516Y-5.6213
X3.7783Y-5.8783
X3.8067Y-6.0449
X3.8197Y-3.3654
X3.8421Y-5.7264
X3.8898Y-5.726
X3.8941Y-6.174
X3.9449Y-5.9484
X3.9614Y-3.3594
X3.9654Y-3.8268
X3.9717Y-5.5
X3.9724Y-5.448
X3.9744Y-6.422
X3.9917Y-6.324
X3.9929Y-3.1752
X4.0244Y-4.0976
X4.0264Y-6.4185
X4.0283Y-5.474
X4.0354Y-5.95
X4.0606Y-3.4299
X4.0898Y-6.2358
X4.0957Y-3.3984
X4.115Y-5.9476
X4.1256Y-3.3642
X4.1461Y-6.287
X4.1641Y-6.2119
X4.1677Y-6.1362
X4.2071Y-5.4469
X4.2331Y-6.4319
X4.2402Y-5.6492
X4.2402Y-5.7248
X4.2748Y-4.7059
X4.2862Y-5.4724
X4.3469Y-5.5209
X4.3783Y-5.5138
X4.3945Y-4.739
X4.4031Y-5.3283
X4.4112Y-4.6524
X4.4227Y-4.7698
X4.4248Y-5.5803
X4.4295Y-4.3335
X4.448Y-4.6575
X4.4516Y-4.2114
X4.4526Y-4.7982
X4.4634Y-3.3957
X4.4693Y-5.2291
X4.4713Y-4.7098
X4.511Y-5.2756
X4.5114Y-5.4866
X4.5295Y-4.7272
X4.5484Y-3.4299
X4.5563Y-4.4941
X4.5626Y-4.5614
X4.5669Y-4.6953
X4.5902Y-4.9051
X4.5984Y-4.7957
X4.6028Y-4.8445
X4.6283Y-4.7665
X4.635Y-3.3689
X4.6366Y-4.2579
X4.6598Y-4.7684
X4.665Y-5.4535
X4.6693Y-4.5622
X4.6825Y-4.6394
X4.7083Y-4.7539
X4.7142Y-3.6303
X4.7146Y-4.6255
X4.7248Y-4.7909
X4.7264Y-4.9929
X4.7264Y-5.1697
X4.7619Y-4.7931
X4.7638Y-4.4787
X4.7898Y-4.2508
X4.79Y-5.2384
X4.7949Y-3.3709
X4.8039Y-4.7745
X4.8079Y-4.0945
X4.8142Y-4.4756
X4.8228Y-3.1815
X4.8291Y-5.2138
X4.835Y-4.7795
X4.8386Y-4.0724
X4.8524Y-4.4858
X4.8547Y-5.1406
X4.8587Y-4.7492
X4.8865Y-5.0928
X4.8908Y-4.9315
X4.8921Y-3.4327
X4.8957Y-3.3957
X4.8965Y-4.7531
X4.8984Y-4.3331
X4.9154Y-5.0654
X4.9295Y-3.3642
X4.9376Y-4.6394
X4.94Y-4.7483
X4.9504Y-5.4642
X4.9669Y-5.4299
X4.9685Y-4.6248
X4.9713Y-5.1697
X4.978Y-4.3161
X4.985Y-5.235
X4.9933Y-4.0827
X4.9933Y-4.2315
X4.9965Y-4.7496
X4.9984Y-4.6421
X5.028Y-5.1268
X5.0296Y-4.7973
X5.0378Y-4.4882
X5.0445Y-4.087
X5.0453Y-4.2453
X5.0478Y-4.7716
X5.0512Y-5.3602
X5.063Y-4.9138
X5.0671Y-4.7467
X5.0748Y-5.0677
X5.0748Y-5.1551
X5.0752Y-5.1098
X5.0764Y-5.1937
X5.0776Y-4.8439
X5.0781Y-4.4585
X5.0797Y-4.7756
X5.1043Y-4.4854
X5.1065Y-5.3104
X5.1472Y-5.4976
X5.1728Y-4.1
X5.1874Y-5.0692
X5.1941Y-5.2104
X5.1951Y-4.8557
X5.1957Y-4.4846
X5.1999Y-4.9322
X5.2004Y-5.1608
X5.2051Y-3.3961
X5.2075Y-5.2925
X5.2114Y-4.8921
X5.2147Y-5.044
X5.2303Y-4.6663
X5.2307Y-4.7697
X5.2362Y-4.9693
X5.2398Y-5.0925
X5.2713Y-4.1811
X5.2772Y-5.3154
X5.3224Y-4.465
X5.3272Y-3.4315
X5.3972Y-5.2984
X5.4083Y-4.5496
X5.4179Y-3.5474
X5.4205Y-5.0039
X5.422Y-4.9626
X5.4319Y-4.2449
X5.4366Y-3.4327
X5.4646Y-3.3634
X5.4917Y-4.911
X5.4917Y-4.9646
X5.5157Y-5.5315
X5.5283Y-4.8984
X5.5587Y-4.4953
X5.6016Y-6.0059
X5.6039Y-5.1118
X5.6098Y-5.785
X5.611Y-4.7402
X5.6146Y-3.3626
X5.6146Y-4.2256
X5.639Y-6.0051
X5.6417Y-3.1791
X5.6547Y-5.1122
X5.6831Y-5.4079
X5.6835Y-6.0059
X5.6913Y-4.2685
X5.7035Y-5.1122
X5.7079Y-4.9331
X5.7224Y-6.0055
X5.7346Y-5.4118
X5.7598Y-3.4224
X5.7598Y-4.6102
X5.7618Y-4.0846
X5.7768Y-4.2756
X5.7988Y-4.0906
X5.8035Y-5.1126
X5.8091Y-5.8079
X5.8122Y-4.75
X5.8366Y-4.0776
X5.8783Y-5.8843
X5.9043Y-3.4272
X5.9205Y-5.8524
X5.9437Y-5.1276
X5.9461Y-5.5154
X5.9484Y-4.9476
X5.9555Y-5.5862
X5.9563Y-5.2717
X5.9571Y-5.2224
X5.9591Y-4.8516
X6.1783Y-3.9535
X6.2591Y-3.9409
X6.4413Y-4.2819
X6.4469Y-4.1846
X6.4594Y-3.9169
X6.4732Y-3.8331
X6.5488Y-4.2795
X6.5531Y-4.1823
X6.5579Y-4.3894
T2
X2.8571Y-6.0063
X4.811Y-5.587
X5.4417Y-3.6063
X6.1134Y-4.8193
X6.1213Y-5.7846
X6.122Y-5.1394
X6.1335Y-5.463
X6.1535Y-4.3094
X6.1756Y-3.6319
X6.1756Y-3.6791
X6.2228Y-3.6319
X6.2228Y-3.6791
X6.2776Y-4.3953
X6.2807Y-4.5717
X6.3193Y-4.598
X6.3236Y-4.5535
X6.3783Y-4.7169
X6.4189Y-4.5606
X6.4189Y-4.6079
X6.4661Y-4.5606
X6.4661Y-4.6079
X6.5134Y-4.5606
X6.5134Y-4.6079
X6.5949Y-3.6071
T4
X2.787Y-3.0031
X2.787Y-3.5031
X2.887Y-3.0031
X2.887Y-3.5031
X2.987Y-3.0031
X2.987Y-3.5031
X3.087Y-3.0031
X3.087Y-3.5031
X3.187Y-3.0031
X3.187Y-3.5031
X3.287Y-3.0031
X3.287Y-3.5031
X3.387Y-3.0031
X3.387Y-3.5031
X3.487Y-3.0031
X3.487Y-3.5031
X3.6138Y-3.0031
X3.6138Y-3.5031
X3.7138Y-3.0031
X3.7138Y-3.5031
X3.8138Y-3.0031
X3.8138Y-3.5031
X3.9138Y-3.0031
X3.9138Y-3.5031
X4.0138Y-3.0031
X4.0138Y-3.5031
X4.1138Y-3.0031
X4.1138Y-3.5031
X4.2138Y-3.0031
X4.2138Y-3.5031
X4.3138Y-3.0031
X4.3138Y-3.5031
X4.4339Y-3.9075
X4.4339Y-4.4075
X4.4406Y-3.0031
X4.4406Y-3.5031
X4.5339Y-3.9075
X4.5339Y-4.4075
X4.5406Y-3.0031
X4.5406Y-3.5031
X4.6339Y-3.9075
X4.6339Y-4.4075
X4.6406Y-3.0031
X4.6406Y-3.5031
X4.7339Y-3.9075
X4.7339Y-4.4075
X4.7406Y-3.0031
X4.7406Y-3.5031
X4.8339Y-3.9075
X4.8339Y-4.4075
X4.8406Y-3.0031
X4.8406Y-3.5031
X4.9339Y-3.9075
X4.9339Y-4.4075
X4.9406Y-3.0031
X4.9406Y-3.5031
X5.0339Y-3.9075
X5.0339Y-4.4075
X5.0406Y-3.0031
X5.0406Y-3.5031
X5.1339Y-3.9075
X5.1339Y-4.4075
X5.1406Y-3.0031
X5.1406Y-3.5031
X5.2598Y-3.9067
X5.2598Y-4.4067
X5.2673Y-3.0031
X5.2673Y-3.5031
X5.3598Y-3.9067
X5.3598Y-4.4067
X5.3673Y-3.0031
X5.3673Y-3.5031
X5.4598Y-3.9067
X5.4598Y-4.4067
X5.4673Y-3.0031
X5.4673Y-3.5031
X5.5598Y-3.9067
X5.5598Y-4.4067
X5.5673Y-3.0031
X5.5673Y-3.5031
X5.6598Y-3.9067
X5.6598Y-4.4067
X5.6673Y-3.0031
X5.6673Y-3.5031
X5.7598Y-3.9067
X5.7598Y-4.4067
X5.7673Y-3.0031
X5.7673Y-3.5031
X5.8598Y-3.9067
X5.8598Y-4.4067
X5.8673Y-3.0031
X5.8673Y-3.5031
X5.9598Y-3.9067
X5.9598Y-4.4067
X5.9673Y-3.0031
X5.9673Y-3.5031
T5
X3.1776Y-5.1776
X3.1776Y-5.276
X3.1776Y-5.3547
X3.1776Y-5.4531
X3.178Y-4.4894
X3.178Y-4.5878
X3.178Y-4.6665
X3.178Y-4.765
X3.1787Y-3.8024
X3.1787Y-3.9008
X3.1787Y-3.9795
X3.1787Y-4.078
T6
X3.1766Y-2.7667
X3.275Y-2.7667
X3.3594Y-4.5323
X3.3594Y-4.6307
X3.3594Y-4.7291
X3.3618Y-3.8953
X3.3618Y-3.9937
X3.3618Y-4.0921
X3.3734Y-2.7667
X3.4719Y-2.7667
X3.6492Y-4.9705
X3.6492Y-5.0689
X3.6492Y-5.1673
X3.6504Y-4.5335
X3.6504Y-4.6319
X3.6504Y-4.7303
X3.8478Y-2.7667
X3.9197Y-4.5335
X3.9197Y-4.6319
X3.9197Y-4.7303
X3.9197Y-4.9689
X3.9197Y-5.0673
X3.9197Y-5.1657
X3.9463Y-2.7667
X4.0447Y-2.7667
X4.1431Y-2.7667
X4.1898Y-4.5315
X4.1898Y-4.6299
X4.1898Y-4.7283
X4.1909Y-4.9685
X4.1909Y-5.0669
X4.1909Y-5.1654
X4.399Y-2.7667
X4.4051Y-3.7205
X4.4974Y-2.7667
X4.5035Y-3.7205
X4.5959Y-2.7667
X4.602Y-3.7205
X4.6943Y-2.7667
X4.7004Y-3.7205
X5.0677Y-2.7677
X5.0815Y-3.7236
X5.1661Y-2.7677
X5.1799Y-3.7236
X5.2646Y-2.7677
X5.2783Y-3.7236
X5.363Y-2.7677
X5.3768Y-3.7236
X5.5799Y-6.2701
X5.6169Y-3.7244
X5.6783Y-6.2701
X5.7154Y-3.7244
X5.7291Y-2.7717
X5.7768Y-6.2701
X5.8138Y-3.7244
X5.8276Y-2.7717
X5.9122Y-3.7244
X5.926Y-2.7717
X6.013Y-6.2705
X6.0244Y-2.7717
X6.1114Y-6.2705
X6.2098Y-6.2705
T7
X3.6772Y-3.7929
X3.6772Y-3.8929
X3.6772Y-3.9929
X3.7772Y-3.7929
X3.7772Y-3.8929
X3.7772Y-3.9929
X4.4236Y-5.7012
X4.4236Y-5.8012
X4.4236Y-5.9012
X4.4236Y-6.0012
X4.4236Y-6.1012
X4.4236Y-6.2012
X4.5236Y-5.7012
X4.5236Y-5.8012
X4.5236Y-5.9012
X4.5236Y-6.0012
X4.5236Y-6.1012
X4.5236Y-6.2012
X4.8197Y-5.7012
X4.8197Y-5.8012
X4.8197Y-5.9012
X4.8197Y-6.0012
X4.8197Y-6.1012
X4.8197Y-6.2012
X4.9197Y-5.7012
X4.9197Y-5.8012
X4.9197Y-5.9012
X4.9197Y-6.0012
X4.9197Y-6.1012
X4.9197Y-6.2012
X5.2153Y-5.7
X5.2153Y-5.8
X5.2153Y-5.9
X5.2153Y-6.0
X5.2153Y-6.1
X5.2153Y-6.2
X5.3153Y-5.7
X5.3153Y-5.8
X5.3153Y-5.9
X5.3153Y-6.0
X5.3153Y-6.1
X5.3153Y-6.2
X6.3835Y-5.5417
X6.3835Y-5.6402
X6.3839Y-5.8732
X6.3839Y-5.9717
X6.3846Y-5.2083
X6.3846Y-5.3067
X6.3866Y-4.8764
X6.3866Y-4.9748
T8
X6.3697Y-3.0547
X6.3697Y-3.2516
T9
X3.0709Y-5.0567
X3.0709Y-5.574
X3.0713Y-4.3685
X3.0713Y-4.8858
X3.072Y-3.6815
X3.072Y-4.1988
T10
X2.9142Y-2.7965
X2.9142Y-6.3398
X6.4575Y-2.7965
X6.4575Y-6.3398
T11
X3.2732Y-6.2744
X3.748Y-6.276
T12
X2.9429Y-5.8169
X2.9429Y-6.0445
T3
G00X2.7819Y-5.7606
M15
G01X2.8134Y-5.7606
M16
G05
G00X2.7819Y-6.1008
M15
G01X2.8134Y-6.1008
M16
G05
G00X2.9402Y-5.7606
M15
G01X2.9835Y-5.7606
M16
G05
G00X2.9402Y-6.1008
M15
G01X2.9835Y-6.1008
M16
G05
T0
M30
