G04 #@! TF.GenerationSoftware,KiCad,Pcbnew,5.1.9+dfsg1-1~bpo10+1*
G04 #@! TF.CreationDate,2021-02-19T14:30:06+00:00*
G04 #@! TF.ProjectId,mobo,6d6f626f-2e6b-4696-9361-645f70636258,rev?*
G04 #@! TF.SameCoordinates,Original*
G04 #@! TF.FileFunction,Soldermask,Bot*
G04 #@! TF.FilePolarity,Negative*
%FSLAX46Y46*%
G04 Gerber Fmt 4.6, Leading zero omitted, Abs format (unit mm)*
G04 Created by KiCad (PCBNEW 5.1.9+dfsg1-1~bpo10+1) date 2021-02-19 14:30:06*
%MOMM*%
%LPD*%
G01*
G04 APERTURE LIST*
%ADD10O,1.600000X1.600000*%
%ADD11R,1.600000X1.600000*%
%ADD12O,1.700000X1.950000*%
%ADD13R,2.600000X2.600000*%
%ADD14C,2.600000*%
%ADD15R,1.700000X1.700000*%
%ADD16O,1.700000X1.700000*%
%ADD17C,5.600000*%
G04 APERTURE END LIST*
D10*
X103940000Y-111720000D03*
X86160000Y-99020000D03*
X101400000Y-111720000D03*
X88700000Y-99020000D03*
X98860000Y-111720000D03*
X91240000Y-99020000D03*
X96320000Y-111720000D03*
X93780000Y-99020000D03*
X93780000Y-111720000D03*
X96320000Y-99020000D03*
X91240000Y-111720000D03*
X98860000Y-99020000D03*
X88700000Y-111720000D03*
X101400000Y-99020000D03*
X86160000Y-111720000D03*
D11*
X103940000Y-99020000D03*
D12*
X112290000Y-94370000D03*
X114790000Y-94370000D03*
X117290000Y-94370000D03*
G36*
G01*
X120640000Y-93645000D02*
X120640000Y-95095000D01*
G75*
G02*
X120390000Y-95345000I-250000J0D01*
G01*
X119190000Y-95345000D01*
G75*
G02*
X118940000Y-95095000I0J250000D01*
G01*
X118940000Y-93645000D01*
G75*
G02*
X119190000Y-93395000I250000J0D01*
G01*
X120390000Y-93395000D01*
G75*
G02*
X120640000Y-93645000I0J-250000D01*
G01*
G37*
X133290000Y-94420000D03*
X135790000Y-94420000D03*
X138290000Y-94420000D03*
G36*
G01*
X141640000Y-93695000D02*
X141640000Y-95145000D01*
G75*
G02*
X141390000Y-95395000I-250000J0D01*
G01*
X140190000Y-95395000D01*
G75*
G02*
X139940000Y-95145000I0J250000D01*
G01*
X139940000Y-93695000D01*
G75*
G02*
X140190000Y-93445000I250000J0D01*
G01*
X141390000Y-93445000D01*
G75*
G02*
X141640000Y-93695000I0J-250000D01*
G01*
G37*
X91340000Y-94420000D03*
X93840000Y-94420000D03*
X96340000Y-94420000D03*
G36*
G01*
X99690000Y-93695000D02*
X99690000Y-95145000D01*
G75*
G02*
X99440000Y-95395000I-250000J0D01*
G01*
X98240000Y-95395000D01*
G75*
G02*
X97990000Y-95145000I0J250000D01*
G01*
X97990000Y-93695000D01*
G75*
G02*
X98240000Y-93445000I250000J0D01*
G01*
X99440000Y-93445000D01*
G75*
G02*
X99690000Y-93695000I0J-250000D01*
G01*
G37*
D13*
X73990000Y-77420000D03*
D14*
X73990000Y-82420000D03*
D15*
X103700000Y-102010000D03*
D16*
X103700000Y-104550000D03*
X103700000Y-107090000D03*
D15*
X98140000Y-102010000D03*
D16*
X98140000Y-104550000D03*
X98140000Y-107090000D03*
D15*
X95340000Y-102010000D03*
D16*
X95340000Y-104550000D03*
X95340000Y-107090000D03*
D15*
X100940000Y-102010000D03*
D16*
X100940000Y-104550000D03*
X100940000Y-107090000D03*
D15*
X124800000Y-102110000D03*
D16*
X124800000Y-104650000D03*
X124800000Y-107190000D03*
D15*
X119240000Y-102110000D03*
D16*
X119240000Y-104650000D03*
X119240000Y-107190000D03*
D15*
X116440000Y-102110000D03*
D16*
X116440000Y-104650000D03*
X116440000Y-107190000D03*
D15*
X122040000Y-102110000D03*
D16*
X122040000Y-104650000D03*
X122040000Y-107190000D03*
D15*
X166800000Y-102110000D03*
D16*
X166800000Y-104650000D03*
X166800000Y-107190000D03*
D15*
X161240000Y-102110000D03*
D16*
X161240000Y-104650000D03*
X161240000Y-107190000D03*
D15*
X158440000Y-102110000D03*
D16*
X158440000Y-104650000D03*
X158440000Y-107190000D03*
D15*
X164040000Y-102110000D03*
D16*
X164040000Y-104650000D03*
X164040000Y-107190000D03*
D15*
X145800000Y-102110000D03*
D16*
X145800000Y-104650000D03*
X145800000Y-107190000D03*
D15*
X140240000Y-102110000D03*
D16*
X140240000Y-104650000D03*
X140240000Y-107190000D03*
D15*
X137440000Y-102110000D03*
D16*
X137440000Y-104650000D03*
X137440000Y-107190000D03*
D15*
X143040000Y-102110000D03*
D16*
X143040000Y-104650000D03*
X143040000Y-107190000D03*
D15*
X166800000Y-79110000D03*
D16*
X166800000Y-81650000D03*
X166800000Y-84190000D03*
D15*
X161240000Y-79110000D03*
D16*
X161240000Y-81650000D03*
X161240000Y-84190000D03*
D15*
X158440000Y-79110000D03*
D16*
X158440000Y-81650000D03*
X158440000Y-84190000D03*
D15*
X164040000Y-79110000D03*
D16*
X164040000Y-81650000D03*
X164040000Y-84190000D03*
D15*
X145900000Y-79110000D03*
D16*
X145900000Y-81650000D03*
X145900000Y-84190000D03*
D15*
X140340000Y-79110000D03*
D16*
X140340000Y-81650000D03*
X140340000Y-84190000D03*
D15*
X137540000Y-79110000D03*
D16*
X137540000Y-81650000D03*
X137540000Y-84190000D03*
D15*
X143140000Y-79110000D03*
D16*
X143140000Y-81650000D03*
X143140000Y-84190000D03*
D15*
X103800000Y-79110000D03*
D16*
X103800000Y-81650000D03*
X103800000Y-84190000D03*
D15*
X98240000Y-79110000D03*
D16*
X98240000Y-81650000D03*
X98240000Y-84190000D03*
D15*
X95440000Y-79110000D03*
D16*
X95440000Y-81650000D03*
X95440000Y-84190000D03*
D15*
X101040000Y-79110000D03*
D16*
X101040000Y-81650000D03*
X101040000Y-84190000D03*
D12*
X146690000Y-70270000D03*
X149190000Y-70270000D03*
X151690000Y-70270000D03*
G36*
G01*
X155040000Y-69545000D02*
X155040000Y-70995000D01*
G75*
G02*
X154790000Y-71245000I-250000J0D01*
G01*
X153590000Y-71245000D01*
G75*
G02*
X153340000Y-70995000I0J250000D01*
G01*
X153340000Y-69545000D01*
G75*
G02*
X153590000Y-69295000I250000J0D01*
G01*
X154790000Y-69295000D01*
G75*
G02*
X155040000Y-69545000I0J-250000D01*
G01*
G37*
D16*
X124900000Y-84190000D03*
X124900000Y-81650000D03*
D15*
X124900000Y-79110000D03*
D16*
X119340000Y-84190000D03*
X119340000Y-81650000D03*
D15*
X119340000Y-79110000D03*
D16*
X122140000Y-84190000D03*
X122140000Y-81650000D03*
D15*
X122140000Y-79110000D03*
D16*
X116540000Y-84190000D03*
X116540000Y-81650000D03*
D15*
X116540000Y-79110000D03*
D12*
X154290000Y-94420000D03*
X156790000Y-94420000D03*
X159290000Y-94420000D03*
G36*
G01*
X162640000Y-93695000D02*
X162640000Y-95145000D01*
G75*
G02*
X162390000Y-95395000I-250000J0D01*
G01*
X161190000Y-95395000D01*
G75*
G02*
X160940000Y-95145000I0J250000D01*
G01*
X160940000Y-93695000D01*
G75*
G02*
X161190000Y-93445000I250000J0D01*
G01*
X162390000Y-93445000D01*
G75*
G02*
X162640000Y-93695000I0J-250000D01*
G01*
G37*
X81315000Y-70145000D03*
X83815000Y-70145000D03*
X86315000Y-70145000D03*
G36*
G01*
X89665000Y-69420000D02*
X89665000Y-70870000D01*
G75*
G02*
X89415000Y-71120000I-250000J0D01*
G01*
X88215000Y-71120000D01*
G75*
G02*
X87965000Y-70870000I0J250000D01*
G01*
X87965000Y-69420000D01*
G75*
G02*
X88215000Y-69170000I250000J0D01*
G01*
X89415000Y-69170000D01*
G75*
G02*
X89665000Y-69420000I0J-250000D01*
G01*
G37*
X129890000Y-70170000D03*
X132390000Y-70170000D03*
X134890000Y-70170000D03*
G36*
G01*
X138240000Y-69445000D02*
X138240000Y-70895000D01*
G75*
G02*
X137990000Y-71145000I-250000J0D01*
G01*
X136790000Y-71145000D01*
G75*
G02*
X136540000Y-70895000I0J250000D01*
G01*
X136540000Y-69445000D01*
G75*
G02*
X136790000Y-69195000I250000J0D01*
G01*
X137990000Y-69195000D01*
G75*
G02*
X138240000Y-69445000I0J-250000D01*
G01*
G37*
X98365000Y-70145000D03*
X100865000Y-70145000D03*
X103365000Y-70145000D03*
G36*
G01*
X106715000Y-69420000D02*
X106715000Y-70870000D01*
G75*
G02*
X106465000Y-71120000I-250000J0D01*
G01*
X105265000Y-71120000D01*
G75*
G02*
X105015000Y-70870000I0J250000D01*
G01*
X105015000Y-69420000D01*
G75*
G02*
X105265000Y-69170000I250000J0D01*
G01*
X106465000Y-69170000D01*
G75*
G02*
X106715000Y-69420000I0J-250000D01*
G01*
G37*
X112365000Y-70145000D03*
X114865000Y-70145000D03*
X117365000Y-70145000D03*
G36*
G01*
X120715000Y-69420000D02*
X120715000Y-70870000D01*
G75*
G02*
X120465000Y-71120000I-250000J0D01*
G01*
X119265000Y-71120000D01*
G75*
G02*
X119015000Y-70870000I0J250000D01*
G01*
X119015000Y-69420000D01*
G75*
G02*
X119265000Y-69170000I250000J0D01*
G01*
X120465000Y-69170000D01*
G75*
G02*
X120715000Y-69420000I0J-250000D01*
G01*
G37*
D10*
X166940000Y-88720000D03*
X149160000Y-76020000D03*
X164400000Y-88720000D03*
X151700000Y-76020000D03*
X161860000Y-88720000D03*
X154240000Y-76020000D03*
X159320000Y-88720000D03*
X156780000Y-76020000D03*
X156780000Y-88720000D03*
X159320000Y-76020000D03*
X154240000Y-88720000D03*
X161860000Y-76020000D03*
X151700000Y-88720000D03*
X164400000Y-76020000D03*
X149160000Y-88720000D03*
D11*
X166940000Y-76020000D03*
D10*
X166940000Y-111720000D03*
X149160000Y-99020000D03*
X164400000Y-111720000D03*
X151700000Y-99020000D03*
X161860000Y-111720000D03*
X154240000Y-99020000D03*
X159320000Y-111720000D03*
X156780000Y-99020000D03*
X156780000Y-111720000D03*
X159320000Y-99020000D03*
X154240000Y-111720000D03*
X161860000Y-99020000D03*
X151700000Y-111720000D03*
X164400000Y-99020000D03*
X149160000Y-111720000D03*
D11*
X166940000Y-99020000D03*
D10*
X124940000Y-111720000D03*
X107160000Y-99020000D03*
X122400000Y-111720000D03*
X109700000Y-99020000D03*
X119860000Y-111720000D03*
X112240000Y-99020000D03*
X117320000Y-111720000D03*
X114780000Y-99020000D03*
X114780000Y-111720000D03*
X117320000Y-99020000D03*
X112240000Y-111720000D03*
X119860000Y-99020000D03*
X109700000Y-111720000D03*
X122400000Y-99020000D03*
X107160000Y-111720000D03*
D11*
X124940000Y-99020000D03*
D10*
X103940000Y-88720000D03*
X86160000Y-76020000D03*
X101400000Y-88720000D03*
X88700000Y-76020000D03*
X98860000Y-88720000D03*
X91240000Y-76020000D03*
X96320000Y-88720000D03*
X93780000Y-76020000D03*
X93780000Y-88720000D03*
X96320000Y-76020000D03*
X91240000Y-88720000D03*
X98860000Y-76020000D03*
X88700000Y-88720000D03*
X101400000Y-76020000D03*
X86160000Y-88720000D03*
D11*
X103940000Y-76020000D03*
D10*
X145940000Y-88720000D03*
X128160000Y-76020000D03*
X143400000Y-88720000D03*
X130700000Y-76020000D03*
X140860000Y-88720000D03*
X133240000Y-76020000D03*
X138320000Y-88720000D03*
X135780000Y-76020000D03*
X135780000Y-88720000D03*
X138320000Y-76020000D03*
X133240000Y-88720000D03*
X140860000Y-76020000D03*
X130700000Y-88720000D03*
X143400000Y-76020000D03*
X128160000Y-88720000D03*
D11*
X145940000Y-76020000D03*
D10*
X145940000Y-111720000D03*
X128160000Y-99020000D03*
X143400000Y-111720000D03*
X130700000Y-99020000D03*
X140860000Y-111720000D03*
X133240000Y-99020000D03*
X138320000Y-111720000D03*
X135780000Y-99020000D03*
X135780000Y-111720000D03*
X138320000Y-99020000D03*
X133240000Y-111720000D03*
X140860000Y-99020000D03*
X130700000Y-111720000D03*
X143400000Y-99020000D03*
X128160000Y-111720000D03*
D11*
X145940000Y-99020000D03*
D10*
X124940000Y-88720000D03*
X107160000Y-76020000D03*
X122400000Y-88720000D03*
X109700000Y-76020000D03*
X119860000Y-88720000D03*
X112240000Y-76020000D03*
X117320000Y-88720000D03*
X114780000Y-76020000D03*
X114780000Y-88720000D03*
X117320000Y-76020000D03*
X112240000Y-88720000D03*
X119860000Y-76020000D03*
X109700000Y-88720000D03*
X122400000Y-76020000D03*
X107160000Y-88720000D03*
D11*
X124940000Y-76020000D03*
D17*
X74020000Y-71030000D03*
X74020000Y-161030000D03*
X164020000Y-71030000D03*
X164020000Y-161030000D03*
M02*
