G04 #@! TF.GenerationSoftware,KiCad,Pcbnew,5.1.9+dfsg1-1~bpo10+1*
G04 #@! TF.CreationDate,2021-02-21T18:04:07+00:00*
G04 #@! TF.ProjectId,mobo,6d6f626f-2e6b-4696-9361-645f70636258,rev?*
G04 #@! TF.SameCoordinates,Original*
G04 #@! TF.FileFunction,Soldermask,Bot*
G04 #@! TF.FilePolarity,Negative*
%FSLAX46Y46*%
G04 Gerber Fmt 4.6, Leading zero omitted, Abs format (unit mm)*
G04 Created by KiCad (PCBNEW 5.1.9+dfsg1-1~bpo10+1) date 2021-02-21 18:04:07*
%MOMM*%
%LPD*%
G01*
G04 APERTURE LIST*
%ADD10C,1.600000*%
%ADD11R,1.600000X1.600000*%
%ADD12C,3.000000*%
%ADD13C,4.200000*%
%ADD14R,1.000000X1.000000*%
%ADD15C,1.700000*%
%ADD16O,1.700000X2.000000*%
%ADD17O,1.700000X1.950000*%
%ADD18O,1.700000X1.700000*%
%ADD19R,1.700000X1.700000*%
%ADD20C,0.600000*%
%ADD21O,1.700000X0.900000*%
%ADD22O,2.000000X0.900000*%
%ADD23O,1.600000X1.600000*%
%ADD24R,2.600000X2.600000*%
%ADD25C,2.600000*%
%ADD26C,5.600000*%
G04 APERTURE END LIST*
D10*
X138810000Y-161180000D03*
X136310000Y-161180000D03*
X134310000Y-161180000D03*
D11*
X131810000Y-161180000D03*
D12*
X128740000Y-163890000D03*
X141880000Y-163890000D03*
D10*
X156200000Y-161180000D03*
X153700000Y-161180000D03*
X151700000Y-161180000D03*
D11*
X149200000Y-161180000D03*
D12*
X146130000Y-163890000D03*
X159270000Y-163890000D03*
D10*
X121390000Y-161140000D03*
X118890000Y-161140000D03*
X116890000Y-161140000D03*
D11*
X114390000Y-161140000D03*
D12*
X111320000Y-163850000D03*
X124460000Y-163850000D03*
D13*
X211099999Y-123654999D03*
X211099999Y-128854999D03*
D14*
X298700000Y-119170000D03*
X301750000Y-119270000D03*
X304800000Y-119170000D03*
D15*
X236745000Y-95000000D03*
X236745000Y-92460000D03*
X236745000Y-89920000D03*
X234205000Y-95000000D03*
X234205000Y-92460000D03*
G36*
G01*
X233355000Y-90520000D02*
X233355000Y-89320000D01*
G75*
G02*
X233605000Y-89070000I250000J0D01*
G01*
X234805000Y-89070000D01*
G75*
G02*
X235055000Y-89320000I0J-250000D01*
G01*
X235055000Y-90520000D01*
G75*
G02*
X234805000Y-90770000I-250000J0D01*
G01*
X233605000Y-90770000D01*
G75*
G02*
X233355000Y-90520000I0J250000D01*
G01*
G37*
D16*
X234880000Y-112310000D03*
G36*
G01*
X231530000Y-113060000D02*
X231530000Y-111560000D01*
G75*
G02*
X231780000Y-111310000I250000J0D01*
G01*
X232980000Y-111310000D01*
G75*
G02*
X233230000Y-111560000I0J-250000D01*
G01*
X233230000Y-113060000D01*
G75*
G02*
X232980000Y-113310000I-250000J0D01*
G01*
X231780000Y-113310000D01*
G75*
G02*
X231530000Y-113060000I0J250000D01*
G01*
G37*
D15*
X224765000Y-100080000D03*
X224765000Y-97540000D03*
X224765000Y-95000000D03*
X224765000Y-92460000D03*
X224765000Y-89920000D03*
X222225000Y-100080000D03*
X222225000Y-97540000D03*
X222225000Y-95000000D03*
X222225000Y-92460000D03*
G36*
G01*
X221375000Y-90520000D02*
X221375000Y-89320000D01*
G75*
G02*
X221625000Y-89070000I250000J0D01*
G01*
X222825000Y-89070000D01*
G75*
G02*
X223075000Y-89320000I0J-250000D01*
G01*
X223075000Y-90520000D01*
G75*
G02*
X222825000Y-90770000I-250000J0D01*
G01*
X221625000Y-90770000D01*
G75*
G02*
X221375000Y-90520000I0J250000D01*
G01*
G37*
X212785000Y-100080000D03*
X212785000Y-97540000D03*
X212785000Y-95000000D03*
X212785000Y-92460000D03*
X212785000Y-89920000D03*
X210245000Y-100080000D03*
X210245000Y-97540000D03*
X210245000Y-95000000D03*
X210245000Y-92460000D03*
G36*
G01*
X209395000Y-90520000D02*
X209395000Y-89320000D01*
G75*
G02*
X209645000Y-89070000I250000J0D01*
G01*
X210845000Y-89070000D01*
G75*
G02*
X211095000Y-89320000I0J-250000D01*
G01*
X211095000Y-90520000D01*
G75*
G02*
X210845000Y-90770000I-250000J0D01*
G01*
X209645000Y-90770000D01*
G75*
G02*
X209395000Y-90520000I0J250000D01*
G01*
G37*
D17*
X249390000Y-104510000D03*
X246890000Y-104510000D03*
G36*
G01*
X243540000Y-105235000D02*
X243540000Y-103785000D01*
G75*
G02*
X243790000Y-103535000I250000J0D01*
G01*
X244990000Y-103535000D01*
G75*
G02*
X245240000Y-103785000I0J-250000D01*
G01*
X245240000Y-105235000D01*
G75*
G02*
X244990000Y-105485000I-250000J0D01*
G01*
X243790000Y-105485000D01*
G75*
G02*
X243540000Y-105235000I0J250000D01*
G01*
G37*
X237440000Y-104510000D03*
X234940000Y-104510000D03*
G36*
G01*
X231590000Y-105235000D02*
X231590000Y-103785000D01*
G75*
G02*
X231840000Y-103535000I250000J0D01*
G01*
X233040000Y-103535000D01*
G75*
G02*
X233290000Y-103785000I0J-250000D01*
G01*
X233290000Y-105235000D01*
G75*
G02*
X233040000Y-105485000I-250000J0D01*
G01*
X231840000Y-105485000D01*
G75*
G02*
X231590000Y-105235000I0J250000D01*
G01*
G37*
X225430000Y-109580000D03*
X222930000Y-109580000D03*
G36*
G01*
X219580000Y-110305000D02*
X219580000Y-108855000D01*
G75*
G02*
X219830000Y-108605000I250000J0D01*
G01*
X221030000Y-108605000D01*
G75*
G02*
X221280000Y-108855000I0J-250000D01*
G01*
X221280000Y-110305000D01*
G75*
G02*
X221030000Y-110555000I-250000J0D01*
G01*
X219830000Y-110555000D01*
G75*
G02*
X219580000Y-110305000I0J250000D01*
G01*
G37*
X213480000Y-109580000D03*
X210980000Y-109580000D03*
G36*
G01*
X207630000Y-110305000D02*
X207630000Y-108855000D01*
G75*
G02*
X207880000Y-108605000I250000J0D01*
G01*
X209080000Y-108605000D01*
G75*
G02*
X209330000Y-108855000I0J-250000D01*
G01*
X209330000Y-110305000D01*
G75*
G02*
X209080000Y-110555000I-250000J0D01*
G01*
X207880000Y-110555000D01*
G75*
G02*
X207630000Y-110305000I0J250000D01*
G01*
G37*
D15*
X248725000Y-95000000D03*
X248725000Y-92460000D03*
X248725000Y-89920000D03*
X246185000Y-95000000D03*
X246185000Y-92460000D03*
G36*
G01*
X245335000Y-90520000D02*
X245335000Y-89320000D01*
G75*
G02*
X245585000Y-89070000I250000J0D01*
G01*
X246785000Y-89070000D01*
G75*
G02*
X247035000Y-89320000I0J-250000D01*
G01*
X247035000Y-90520000D01*
G75*
G02*
X246785000Y-90770000I-250000J0D01*
G01*
X245585000Y-90770000D01*
G75*
G02*
X245335000Y-90520000I0J250000D01*
G01*
G37*
D16*
X234880000Y-142440000D03*
G36*
G01*
X231530000Y-143190000D02*
X231530000Y-141690000D01*
G75*
G02*
X231780000Y-141440000I250000J0D01*
G01*
X232980000Y-141440000D01*
G75*
G02*
X233230000Y-141690000I0J-250000D01*
G01*
X233230000Y-143190000D01*
G75*
G02*
X232980000Y-143440000I-250000J0D01*
G01*
X231780000Y-143440000D01*
G75*
G02*
X231530000Y-143190000I0J250000D01*
G01*
G37*
X247070000Y-124430000D03*
G36*
G01*
X243720000Y-125180000D02*
X243720000Y-123680000D01*
G75*
G02*
X243970000Y-123430000I250000J0D01*
G01*
X245170000Y-123430000D01*
G75*
G02*
X245420000Y-123680000I0J-250000D01*
G01*
X245420000Y-125180000D01*
G75*
G02*
X245170000Y-125430000I-250000J0D01*
G01*
X243970000Y-125430000D01*
G75*
G02*
X243720000Y-125180000I0J250000D01*
G01*
G37*
D17*
X225430000Y-140030000D03*
X222930000Y-140030000D03*
G36*
G01*
X219580000Y-140755000D02*
X219580000Y-139305000D01*
G75*
G02*
X219830000Y-139055000I250000J0D01*
G01*
X221030000Y-139055000D01*
G75*
G02*
X221280000Y-139305000I0J-250000D01*
G01*
X221280000Y-140755000D01*
G75*
G02*
X221030000Y-141005000I-250000J0D01*
G01*
X219830000Y-141005000D01*
G75*
G02*
X219580000Y-140755000I0J250000D01*
G01*
G37*
X237620000Y-124430000D03*
X235120000Y-124430000D03*
G36*
G01*
X231770000Y-125155000D02*
X231770000Y-123705000D01*
G75*
G02*
X232020000Y-123455000I250000J0D01*
G01*
X233220000Y-123455000D01*
G75*
G02*
X233470000Y-123705000I0J-250000D01*
G01*
X233470000Y-125155000D01*
G75*
G02*
X233220000Y-125405000I-250000J0D01*
G01*
X232020000Y-125405000D01*
G75*
G02*
X231770000Y-125155000I0J250000D01*
G01*
G37*
X213480000Y-142630000D03*
X210980000Y-142630000D03*
G36*
G01*
X207630000Y-143355000D02*
X207630000Y-141905000D01*
G75*
G02*
X207880000Y-141655000I250000J0D01*
G01*
X209080000Y-141655000D01*
G75*
G02*
X209330000Y-141905000I0J-250000D01*
G01*
X209330000Y-143355000D01*
G75*
G02*
X209080000Y-143605000I-250000J0D01*
G01*
X207880000Y-143605000D01*
G75*
G02*
X207630000Y-143355000I0J250000D01*
G01*
G37*
X225670000Y-132230000D03*
X223170000Y-132230000D03*
G36*
G01*
X219820000Y-132955000D02*
X219820000Y-131505000D01*
G75*
G02*
X220070000Y-131255000I250000J0D01*
G01*
X221270000Y-131255000D01*
G75*
G02*
X221520000Y-131505000I0J-250000D01*
G01*
X221520000Y-132955000D01*
G75*
G02*
X221270000Y-133205000I-250000J0D01*
G01*
X220070000Y-133205000D01*
G75*
G02*
X219820000Y-132955000I0J250000D01*
G01*
G37*
X213480000Y-134830000D03*
X210980000Y-134830000D03*
G36*
G01*
X207630000Y-135555000D02*
X207630000Y-134105000D01*
G75*
G02*
X207880000Y-133855000I250000J0D01*
G01*
X209080000Y-133855000D01*
G75*
G02*
X209330000Y-134105000I0J-250000D01*
G01*
X209330000Y-135555000D01*
G75*
G02*
X209080000Y-135805000I-250000J0D01*
G01*
X207880000Y-135805000D01*
G75*
G02*
X207630000Y-135555000I0J250000D01*
G01*
G37*
X225670000Y-124430000D03*
X223170000Y-124430000D03*
G36*
G01*
X219820000Y-125155000D02*
X219820000Y-123705000D01*
G75*
G02*
X220070000Y-123455000I250000J0D01*
G01*
X221270000Y-123455000D01*
G75*
G02*
X221520000Y-123705000I0J-250000D01*
G01*
X221520000Y-125155000D01*
G75*
G02*
X221270000Y-125405000I-250000J0D01*
G01*
X220070000Y-125405000D01*
G75*
G02*
X219820000Y-125155000I0J250000D01*
G01*
G37*
D18*
X289720000Y-91200000D03*
X289720000Y-88660000D03*
D19*
X289720000Y-86120000D03*
D18*
X289720000Y-100900000D03*
X289720000Y-98360000D03*
D19*
X289720000Y-95820000D03*
D16*
X83560000Y-153110000D03*
G36*
G01*
X80210000Y-153860000D02*
X80210000Y-152360000D01*
G75*
G02*
X80460000Y-152110000I250000J0D01*
G01*
X81660000Y-152110000D01*
G75*
G02*
X81910000Y-152360000I0J-250000D01*
G01*
X81910000Y-153860000D01*
G75*
G02*
X81660000Y-154110000I-250000J0D01*
G01*
X80460000Y-154110000D01*
G75*
G02*
X80210000Y-153860000I0J250000D01*
G01*
G37*
X83290000Y-144100000D03*
G36*
G01*
X79940000Y-144850000D02*
X79940000Y-143350000D01*
G75*
G02*
X80190000Y-143100000I250000J0D01*
G01*
X81390000Y-143100000D01*
G75*
G02*
X81640000Y-143350000I0J-250000D01*
G01*
X81640000Y-144850000D01*
G75*
G02*
X81390000Y-145100000I-250000J0D01*
G01*
X80190000Y-145100000D01*
G75*
G02*
X79940000Y-144850000I0J250000D01*
G01*
G37*
X74760000Y-153040000D03*
G36*
G01*
X71410000Y-153790000D02*
X71410000Y-152290000D01*
G75*
G02*
X71660000Y-152040000I250000J0D01*
G01*
X72860000Y-152040000D01*
G75*
G02*
X73110000Y-152290000I0J-250000D01*
G01*
X73110000Y-153790000D01*
G75*
G02*
X72860000Y-154040000I-250000J0D01*
G01*
X71660000Y-154040000D01*
G75*
G02*
X71410000Y-153790000I0J250000D01*
G01*
G37*
X74560000Y-144010000D03*
G36*
G01*
X71210000Y-144760000D02*
X71210000Y-143260000D01*
G75*
G02*
X71460000Y-143010000I250000J0D01*
G01*
X72660000Y-143010000D01*
G75*
G02*
X72910000Y-143260000I0J-250000D01*
G01*
X72910000Y-144760000D01*
G75*
G02*
X72660000Y-145010000I-250000J0D01*
G01*
X71460000Y-145010000D01*
G75*
G02*
X71210000Y-144760000I0J250000D01*
G01*
G37*
X83100000Y-135110000D03*
G36*
G01*
X79750000Y-135860000D02*
X79750000Y-134360000D01*
G75*
G02*
X80000000Y-134110000I250000J0D01*
G01*
X81200000Y-134110000D01*
G75*
G02*
X81450000Y-134360000I0J-250000D01*
G01*
X81450000Y-135860000D01*
G75*
G02*
X81200000Y-136110000I-250000J0D01*
G01*
X80000000Y-136110000D01*
G75*
G02*
X79750000Y-135860000I0J250000D01*
G01*
G37*
X74410000Y-135050000D03*
G36*
G01*
X71060000Y-135800000D02*
X71060000Y-134300000D01*
G75*
G02*
X71310000Y-134050000I250000J0D01*
G01*
X72510000Y-134050000D01*
G75*
G02*
X72760000Y-134300000I0J-250000D01*
G01*
X72760000Y-135800000D01*
G75*
G02*
X72510000Y-136050000I-250000J0D01*
G01*
X71310000Y-136050000D01*
G75*
G02*
X71060000Y-135800000I0J250000D01*
G01*
G37*
X83270000Y-126290000D03*
G36*
G01*
X79920000Y-127040000D02*
X79920000Y-125540000D01*
G75*
G02*
X80170000Y-125290000I250000J0D01*
G01*
X81370000Y-125290000D01*
G75*
G02*
X81620000Y-125540000I0J-250000D01*
G01*
X81620000Y-127040000D01*
G75*
G02*
X81370000Y-127290000I-250000J0D01*
G01*
X80170000Y-127290000D01*
G75*
G02*
X79920000Y-127040000I0J250000D01*
G01*
G37*
X74480000Y-126300000D03*
G36*
G01*
X71130000Y-127050000D02*
X71130000Y-125550000D01*
G75*
G02*
X71380000Y-125300000I250000J0D01*
G01*
X72580000Y-125300000D01*
G75*
G02*
X72830000Y-125550000I0J-250000D01*
G01*
X72830000Y-127050000D01*
G75*
G02*
X72580000Y-127300000I-250000J0D01*
G01*
X71380000Y-127300000D01*
G75*
G02*
X71130000Y-127050000I0J250000D01*
G01*
G37*
D20*
X163210000Y-155770000D03*
X163210000Y-149990000D03*
D21*
X166900000Y-148560000D03*
X166900000Y-157200000D03*
D22*
X162730000Y-148560000D03*
X162730000Y-157200000D03*
D20*
X74765000Y-112505000D03*
X74765000Y-118285000D03*
D21*
X71075000Y-119715000D03*
X71075000Y-111075000D03*
D22*
X75245000Y-119715000D03*
X75245000Y-111075000D03*
D23*
X103940000Y-111720000D03*
X86160000Y-99020000D03*
X101400000Y-111720000D03*
X88700000Y-99020000D03*
X98860000Y-111720000D03*
X91240000Y-99020000D03*
X96320000Y-111720000D03*
X93780000Y-99020000D03*
X93780000Y-111720000D03*
X96320000Y-99020000D03*
X91240000Y-111720000D03*
X98860000Y-99020000D03*
X88700000Y-111720000D03*
X101400000Y-99020000D03*
X86160000Y-111720000D03*
D11*
X103940000Y-99020000D03*
D17*
X112290000Y-94370000D03*
X114790000Y-94370000D03*
X117290000Y-94370000D03*
G36*
G01*
X120640000Y-93645000D02*
X120640000Y-95095000D01*
G75*
G02*
X120390000Y-95345000I-250000J0D01*
G01*
X119190000Y-95345000D01*
G75*
G02*
X118940000Y-95095000I0J250000D01*
G01*
X118940000Y-93645000D01*
G75*
G02*
X119190000Y-93395000I250000J0D01*
G01*
X120390000Y-93395000D01*
G75*
G02*
X120640000Y-93645000I0J-250000D01*
G01*
G37*
X133290000Y-94420000D03*
X135790000Y-94420000D03*
X138290000Y-94420000D03*
G36*
G01*
X141640000Y-93695000D02*
X141640000Y-95145000D01*
G75*
G02*
X141390000Y-95395000I-250000J0D01*
G01*
X140190000Y-95395000D01*
G75*
G02*
X139940000Y-95145000I0J250000D01*
G01*
X139940000Y-93695000D01*
G75*
G02*
X140190000Y-93445000I250000J0D01*
G01*
X141390000Y-93445000D01*
G75*
G02*
X141640000Y-93695000I0J-250000D01*
G01*
G37*
X91340000Y-94420000D03*
X93840000Y-94420000D03*
X96340000Y-94420000D03*
G36*
G01*
X99690000Y-93695000D02*
X99690000Y-95145000D01*
G75*
G02*
X99440000Y-95395000I-250000J0D01*
G01*
X98240000Y-95395000D01*
G75*
G02*
X97990000Y-95145000I0J250000D01*
G01*
X97990000Y-93695000D01*
G75*
G02*
X98240000Y-93445000I250000J0D01*
G01*
X99440000Y-93445000D01*
G75*
G02*
X99690000Y-93695000I0J-250000D01*
G01*
G37*
D24*
X73990000Y-77420000D03*
D25*
X73990000Y-82420000D03*
D19*
X103700000Y-102010000D03*
D18*
X103700000Y-104550000D03*
X103700000Y-107090000D03*
D19*
X98140000Y-102010000D03*
D18*
X98140000Y-104550000D03*
X98140000Y-107090000D03*
D19*
X95340000Y-102010000D03*
D18*
X95340000Y-104550000D03*
X95340000Y-107090000D03*
D19*
X100940000Y-102010000D03*
D18*
X100940000Y-104550000D03*
X100940000Y-107090000D03*
D19*
X124800000Y-102110000D03*
D18*
X124800000Y-104650000D03*
X124800000Y-107190000D03*
D19*
X119240000Y-102110000D03*
D18*
X119240000Y-104650000D03*
X119240000Y-107190000D03*
D19*
X116440000Y-102110000D03*
D18*
X116440000Y-104650000D03*
X116440000Y-107190000D03*
D19*
X122040000Y-102110000D03*
D18*
X122040000Y-104650000D03*
X122040000Y-107190000D03*
D19*
X166800000Y-102110000D03*
D18*
X166800000Y-104650000D03*
X166800000Y-107190000D03*
D19*
X161240000Y-102110000D03*
D18*
X161240000Y-104650000D03*
X161240000Y-107190000D03*
D19*
X158440000Y-102110000D03*
D18*
X158440000Y-104650000D03*
X158440000Y-107190000D03*
D19*
X164040000Y-102110000D03*
D18*
X164040000Y-104650000D03*
X164040000Y-107190000D03*
D19*
X145800000Y-102110000D03*
D18*
X145800000Y-104650000D03*
X145800000Y-107190000D03*
D19*
X140240000Y-102110000D03*
D18*
X140240000Y-104650000D03*
X140240000Y-107190000D03*
D19*
X137440000Y-102110000D03*
D18*
X137440000Y-104650000D03*
X137440000Y-107190000D03*
D19*
X143040000Y-102110000D03*
D18*
X143040000Y-104650000D03*
X143040000Y-107190000D03*
D19*
X166800000Y-79110000D03*
D18*
X166800000Y-81650000D03*
X166800000Y-84190000D03*
D19*
X161240000Y-79110000D03*
D18*
X161240000Y-81650000D03*
X161240000Y-84190000D03*
D19*
X158440000Y-79110000D03*
D18*
X158440000Y-81650000D03*
X158440000Y-84190000D03*
D19*
X164040000Y-79110000D03*
D18*
X164040000Y-81650000D03*
X164040000Y-84190000D03*
D19*
X145900000Y-79110000D03*
D18*
X145900000Y-81650000D03*
X145900000Y-84190000D03*
D19*
X140340000Y-79110000D03*
D18*
X140340000Y-81650000D03*
X140340000Y-84190000D03*
D19*
X137540000Y-79110000D03*
D18*
X137540000Y-81650000D03*
X137540000Y-84190000D03*
D19*
X143140000Y-79110000D03*
D18*
X143140000Y-81650000D03*
X143140000Y-84190000D03*
D19*
X103800000Y-79110000D03*
D18*
X103800000Y-81650000D03*
X103800000Y-84190000D03*
D19*
X98240000Y-79110000D03*
D18*
X98240000Y-81650000D03*
X98240000Y-84190000D03*
D19*
X95440000Y-79110000D03*
D18*
X95440000Y-81650000D03*
X95440000Y-84190000D03*
D19*
X101040000Y-79110000D03*
D18*
X101040000Y-81650000D03*
X101040000Y-84190000D03*
D17*
X146690000Y-70270000D03*
X149190000Y-70270000D03*
X151690000Y-70270000D03*
G36*
G01*
X155040000Y-69545000D02*
X155040000Y-70995000D01*
G75*
G02*
X154790000Y-71245000I-250000J0D01*
G01*
X153590000Y-71245000D01*
G75*
G02*
X153340000Y-70995000I0J250000D01*
G01*
X153340000Y-69545000D01*
G75*
G02*
X153590000Y-69295000I250000J0D01*
G01*
X154790000Y-69295000D01*
G75*
G02*
X155040000Y-69545000I0J-250000D01*
G01*
G37*
D18*
X124900000Y-84190000D03*
X124900000Y-81650000D03*
D19*
X124900000Y-79110000D03*
D18*
X119340000Y-84190000D03*
X119340000Y-81650000D03*
D19*
X119340000Y-79110000D03*
D18*
X122140000Y-84190000D03*
X122140000Y-81650000D03*
D19*
X122140000Y-79110000D03*
D18*
X116540000Y-84190000D03*
X116540000Y-81650000D03*
D19*
X116540000Y-79110000D03*
D17*
X154290000Y-94420000D03*
X156790000Y-94420000D03*
X159290000Y-94420000D03*
G36*
G01*
X162640000Y-93695000D02*
X162640000Y-95145000D01*
G75*
G02*
X162390000Y-95395000I-250000J0D01*
G01*
X161190000Y-95395000D01*
G75*
G02*
X160940000Y-95145000I0J250000D01*
G01*
X160940000Y-93695000D01*
G75*
G02*
X161190000Y-93445000I250000J0D01*
G01*
X162390000Y-93445000D01*
G75*
G02*
X162640000Y-93695000I0J-250000D01*
G01*
G37*
X81315000Y-70145000D03*
X83815000Y-70145000D03*
X86315000Y-70145000D03*
G36*
G01*
X89665000Y-69420000D02*
X89665000Y-70870000D01*
G75*
G02*
X89415000Y-71120000I-250000J0D01*
G01*
X88215000Y-71120000D01*
G75*
G02*
X87965000Y-70870000I0J250000D01*
G01*
X87965000Y-69420000D01*
G75*
G02*
X88215000Y-69170000I250000J0D01*
G01*
X89415000Y-69170000D01*
G75*
G02*
X89665000Y-69420000I0J-250000D01*
G01*
G37*
X129890000Y-70170000D03*
X132390000Y-70170000D03*
X134890000Y-70170000D03*
G36*
G01*
X138240000Y-69445000D02*
X138240000Y-70895000D01*
G75*
G02*
X137990000Y-71145000I-250000J0D01*
G01*
X136790000Y-71145000D01*
G75*
G02*
X136540000Y-70895000I0J250000D01*
G01*
X136540000Y-69445000D01*
G75*
G02*
X136790000Y-69195000I250000J0D01*
G01*
X137990000Y-69195000D01*
G75*
G02*
X138240000Y-69445000I0J-250000D01*
G01*
G37*
X98365000Y-70145000D03*
X100865000Y-70145000D03*
X103365000Y-70145000D03*
G36*
G01*
X106715000Y-69420000D02*
X106715000Y-70870000D01*
G75*
G02*
X106465000Y-71120000I-250000J0D01*
G01*
X105265000Y-71120000D01*
G75*
G02*
X105015000Y-70870000I0J250000D01*
G01*
X105015000Y-69420000D01*
G75*
G02*
X105265000Y-69170000I250000J0D01*
G01*
X106465000Y-69170000D01*
G75*
G02*
X106715000Y-69420000I0J-250000D01*
G01*
G37*
X112365000Y-70145000D03*
X114865000Y-70145000D03*
X117365000Y-70145000D03*
G36*
G01*
X120715000Y-69420000D02*
X120715000Y-70870000D01*
G75*
G02*
X120465000Y-71120000I-250000J0D01*
G01*
X119265000Y-71120000D01*
G75*
G02*
X119015000Y-70870000I0J250000D01*
G01*
X119015000Y-69420000D01*
G75*
G02*
X119265000Y-69170000I250000J0D01*
G01*
X120465000Y-69170000D01*
G75*
G02*
X120715000Y-69420000I0J-250000D01*
G01*
G37*
D23*
X166940000Y-88720000D03*
X149160000Y-76020000D03*
X164400000Y-88720000D03*
X151700000Y-76020000D03*
X161860000Y-88720000D03*
X154240000Y-76020000D03*
X159320000Y-88720000D03*
X156780000Y-76020000D03*
X156780000Y-88720000D03*
X159320000Y-76020000D03*
X154240000Y-88720000D03*
X161860000Y-76020000D03*
X151700000Y-88720000D03*
X164400000Y-76020000D03*
X149160000Y-88720000D03*
D11*
X166940000Y-76020000D03*
D23*
X166940000Y-111720000D03*
X149160000Y-99020000D03*
X164400000Y-111720000D03*
X151700000Y-99020000D03*
X161860000Y-111720000D03*
X154240000Y-99020000D03*
X159320000Y-111720000D03*
X156780000Y-99020000D03*
X156780000Y-111720000D03*
X159320000Y-99020000D03*
X154240000Y-111720000D03*
X161860000Y-99020000D03*
X151700000Y-111720000D03*
X164400000Y-99020000D03*
X149160000Y-111720000D03*
D11*
X166940000Y-99020000D03*
D23*
X124940000Y-111720000D03*
X107160000Y-99020000D03*
X122400000Y-111720000D03*
X109700000Y-99020000D03*
X119860000Y-111720000D03*
X112240000Y-99020000D03*
X117320000Y-111720000D03*
X114780000Y-99020000D03*
X114780000Y-111720000D03*
X117320000Y-99020000D03*
X112240000Y-111720000D03*
X119860000Y-99020000D03*
X109700000Y-111720000D03*
X122400000Y-99020000D03*
X107160000Y-111720000D03*
D11*
X124940000Y-99020000D03*
D23*
X103940000Y-88720000D03*
X86160000Y-76020000D03*
X101400000Y-88720000D03*
X88700000Y-76020000D03*
X98860000Y-88720000D03*
X91240000Y-76020000D03*
X96320000Y-88720000D03*
X93780000Y-76020000D03*
X93780000Y-88720000D03*
X96320000Y-76020000D03*
X91240000Y-88720000D03*
X98860000Y-76020000D03*
X88700000Y-88720000D03*
X101400000Y-76020000D03*
X86160000Y-88720000D03*
D11*
X103940000Y-76020000D03*
D23*
X145940000Y-88720000D03*
X128160000Y-76020000D03*
X143400000Y-88720000D03*
X130700000Y-76020000D03*
X140860000Y-88720000D03*
X133240000Y-76020000D03*
X138320000Y-88720000D03*
X135780000Y-76020000D03*
X135780000Y-88720000D03*
X138320000Y-76020000D03*
X133240000Y-88720000D03*
X140860000Y-76020000D03*
X130700000Y-88720000D03*
X143400000Y-76020000D03*
X128160000Y-88720000D03*
D11*
X145940000Y-76020000D03*
D23*
X145940000Y-111720000D03*
X128160000Y-99020000D03*
X143400000Y-111720000D03*
X130700000Y-99020000D03*
X140860000Y-111720000D03*
X133240000Y-99020000D03*
X138320000Y-111720000D03*
X135780000Y-99020000D03*
X135780000Y-111720000D03*
X138320000Y-99020000D03*
X133240000Y-111720000D03*
X140860000Y-99020000D03*
X130700000Y-111720000D03*
X143400000Y-99020000D03*
X128160000Y-111720000D03*
D11*
X145940000Y-99020000D03*
D23*
X124940000Y-88720000D03*
X107160000Y-76020000D03*
X122400000Y-88720000D03*
X109700000Y-76020000D03*
X119860000Y-88720000D03*
X112240000Y-76020000D03*
X117320000Y-88720000D03*
X114780000Y-76020000D03*
X114780000Y-88720000D03*
X117320000Y-76020000D03*
X112240000Y-88720000D03*
X119860000Y-76020000D03*
X109700000Y-88720000D03*
X122400000Y-76020000D03*
X107160000Y-88720000D03*
D11*
X124940000Y-76020000D03*
D26*
X74020000Y-71030000D03*
X74020000Y-161030000D03*
X164020000Y-71030000D03*
X164020000Y-161030000D03*
M02*
