G04 #@! TF.GenerationSoftware,KiCad,Pcbnew,5.1.9+dfsg1-1~bpo10+1*
G04 #@! TF.CreationDate,2021-03-13T20:17:20+00:00*
G04 #@! TF.ProjectId,mobo,6d6f626f-2e6b-4696-9361-645f70636258,rev?*
G04 #@! TF.SameCoordinates,Original*
G04 #@! TF.FileFunction,Soldermask,Top*
G04 #@! TF.FilePolarity,Negative*
%FSLAX46Y46*%
G04 Gerber Fmt 4.6, Leading zero omitted, Abs format (unit mm)*
G04 Created by KiCad (PCBNEW 5.1.9+dfsg1-1~bpo10+1) date 2021-03-13 20:17:20*
%MOMM*%
%LPD*%
G01*
G04 APERTURE LIST*
%ADD10C,0.100000*%
%ADD11R,0.600000X0.450000*%
%ADD12R,1.400000X1.200000*%
%ADD13R,0.900000X0.800000*%
%ADD14R,1.100000X1.100000*%
%ADD15C,1.600000*%
%ADD16R,1.600000X1.600000*%
%ADD17C,3.000000*%
%ADD18O,2.000000X1.700000*%
%ADD19R,1.200000X1.400000*%
%ADD20O,1.950000X1.700000*%
%ADD21O,1.700000X1.700000*%
%ADD22R,1.700000X1.700000*%
%ADD23R,0.740000X2.400000*%
%ADD24C,1.000000*%
%ADD25C,2.000000*%
%ADD26R,2.000000X2.000000*%
%ADD27C,1.700000*%
%ADD28O,1.700000X1.950000*%
%ADD29O,1.700000X2.000000*%
%ADD30R,2.000000X3.800000*%
%ADD31R,2.000000X1.500000*%
%ADD32C,4.200000*%
%ADD33R,0.800000X0.900000*%
%ADD34R,1.160000X0.600000*%
%ADD35C,0.600000*%
%ADD36R,1.160000X0.300000*%
%ADD37O,1.700000X0.900000*%
%ADD38O,2.000000X0.900000*%
%ADD39R,2.000000X3.400000*%
%ADD40R,1.550000X0.600000*%
%ADD41R,2.600000X3.100000*%
%ADD42R,2.300000X2.500000*%
%ADD43O,1.600000X1.600000*%
%ADD44R,2.600000X2.600000*%
%ADD45C,2.600000*%
%ADD46C,5.600000*%
G04 APERTURE END LIST*
D10*
G36*
X193240000Y-118910000D02*
G01*
X192740000Y-118910000D01*
X192740000Y-118909398D01*
X192715466Y-118909398D01*
X192666635Y-118904588D01*
X192618510Y-118895016D01*
X192571555Y-118880772D01*
X192526222Y-118861995D01*
X192482949Y-118838864D01*
X192442150Y-118811604D01*
X192404221Y-118780476D01*
X192369524Y-118745779D01*
X192338396Y-118707850D01*
X192311136Y-118667051D01*
X192288005Y-118623778D01*
X192269228Y-118578445D01*
X192254984Y-118531490D01*
X192245412Y-118483365D01*
X192240602Y-118434534D01*
X192240602Y-118410000D01*
X192240000Y-118410000D01*
X192240000Y-117910000D01*
X192240602Y-117910000D01*
X192240602Y-117885466D01*
X192245412Y-117836635D01*
X192254984Y-117788510D01*
X192269228Y-117741555D01*
X192288005Y-117696222D01*
X192311136Y-117652949D01*
X192338396Y-117612150D01*
X192369524Y-117574221D01*
X192404221Y-117539524D01*
X192442150Y-117508396D01*
X192482949Y-117481136D01*
X192526222Y-117458005D01*
X192571555Y-117439228D01*
X192618510Y-117424984D01*
X192666635Y-117415412D01*
X192715466Y-117410602D01*
X192740000Y-117410602D01*
X192740000Y-117410000D01*
X193240000Y-117410000D01*
X193240000Y-118910000D01*
G37*
G36*
X194040000Y-117410602D02*
G01*
X194064534Y-117410602D01*
X194113365Y-117415412D01*
X194161490Y-117424984D01*
X194208445Y-117439228D01*
X194253778Y-117458005D01*
X194297051Y-117481136D01*
X194337850Y-117508396D01*
X194375779Y-117539524D01*
X194410476Y-117574221D01*
X194441604Y-117612150D01*
X194468864Y-117652949D01*
X194491995Y-117696222D01*
X194510772Y-117741555D01*
X194525016Y-117788510D01*
X194534588Y-117836635D01*
X194539398Y-117885466D01*
X194539398Y-117910000D01*
X194540000Y-117910000D01*
X194540000Y-118410000D01*
X194539398Y-118410000D01*
X194539398Y-118434534D01*
X194534588Y-118483365D01*
X194525016Y-118531490D01*
X194510772Y-118578445D01*
X194491995Y-118623778D01*
X194468864Y-118667051D01*
X194441604Y-118707850D01*
X194410476Y-118745779D01*
X194375779Y-118780476D01*
X194337850Y-118811604D01*
X194297051Y-118838864D01*
X194253778Y-118861995D01*
X194208445Y-118880772D01*
X194161490Y-118895016D01*
X194113365Y-118904588D01*
X194064534Y-118909398D01*
X194040000Y-118909398D01*
X194040000Y-118910000D01*
X193540000Y-118910000D01*
X193540000Y-117410000D01*
X194040000Y-117410000D01*
X194040000Y-117410602D01*
G37*
D11*
X186750000Y-117860000D03*
X184650000Y-117860000D03*
X82950000Y-113890000D03*
X85050000Y-113890000D03*
D10*
G36*
X194030000Y-126390000D02*
G01*
X193530000Y-126390000D01*
X193530000Y-126389398D01*
X193505466Y-126389398D01*
X193456635Y-126384588D01*
X193408510Y-126375016D01*
X193361555Y-126360772D01*
X193316222Y-126341995D01*
X193272949Y-126318864D01*
X193232150Y-126291604D01*
X193194221Y-126260476D01*
X193159524Y-126225779D01*
X193128396Y-126187850D01*
X193101136Y-126147051D01*
X193078005Y-126103778D01*
X193059228Y-126058445D01*
X193044984Y-126011490D01*
X193035412Y-125963365D01*
X193030602Y-125914534D01*
X193030602Y-125890000D01*
X193030000Y-125890000D01*
X193030000Y-125390000D01*
X193030602Y-125390000D01*
X193030602Y-125365466D01*
X193035412Y-125316635D01*
X193044984Y-125268510D01*
X193059228Y-125221555D01*
X193078005Y-125176222D01*
X193101136Y-125132949D01*
X193128396Y-125092150D01*
X193159524Y-125054221D01*
X193194221Y-125019524D01*
X193232150Y-124988396D01*
X193272949Y-124961136D01*
X193316222Y-124938005D01*
X193361555Y-124919228D01*
X193408510Y-124904984D01*
X193456635Y-124895412D01*
X193505466Y-124890602D01*
X193530000Y-124890602D01*
X193530000Y-124890000D01*
X194030000Y-124890000D01*
X194030000Y-126390000D01*
G37*
G36*
X194830000Y-124890602D02*
G01*
X194854534Y-124890602D01*
X194903365Y-124895412D01*
X194951490Y-124904984D01*
X194998445Y-124919228D01*
X195043778Y-124938005D01*
X195087051Y-124961136D01*
X195127850Y-124988396D01*
X195165779Y-125019524D01*
X195200476Y-125054221D01*
X195231604Y-125092150D01*
X195258864Y-125132949D01*
X195281995Y-125176222D01*
X195300772Y-125221555D01*
X195315016Y-125268510D01*
X195324588Y-125316635D01*
X195329398Y-125365466D01*
X195329398Y-125390000D01*
X195330000Y-125390000D01*
X195330000Y-125890000D01*
X195329398Y-125890000D01*
X195329398Y-125914534D01*
X195324588Y-125963365D01*
X195315016Y-126011490D01*
X195300772Y-126058445D01*
X195281995Y-126103778D01*
X195258864Y-126147051D01*
X195231604Y-126187850D01*
X195200476Y-126225779D01*
X195165779Y-126260476D01*
X195127850Y-126291604D01*
X195087051Y-126318864D01*
X195043778Y-126341995D01*
X194998445Y-126360772D01*
X194951490Y-126375016D01*
X194903365Y-126384588D01*
X194854534Y-126389398D01*
X194830000Y-126389398D01*
X194830000Y-126390000D01*
X194330000Y-126390000D01*
X194330000Y-124890000D01*
X194830000Y-124890000D01*
X194830000Y-124890602D01*
G37*
G36*
G01*
X151060000Y-150845000D02*
X151060000Y-150695000D01*
G75*
G02*
X151135000Y-150620000I75000J0D01*
G01*
X152460000Y-150620000D01*
G75*
G02*
X152535000Y-150695000I0J-75000D01*
G01*
X152535000Y-150845000D01*
G75*
G02*
X152460000Y-150920000I-75000J0D01*
G01*
X151135000Y-150920000D01*
G75*
G02*
X151060000Y-150845000I0J75000D01*
G01*
G37*
G36*
G01*
X151060000Y-151345000D02*
X151060000Y-151195000D01*
G75*
G02*
X151135000Y-151120000I75000J0D01*
G01*
X152460000Y-151120000D01*
G75*
G02*
X152535000Y-151195000I0J-75000D01*
G01*
X152535000Y-151345000D01*
G75*
G02*
X152460000Y-151420000I-75000J0D01*
G01*
X151135000Y-151420000D01*
G75*
G02*
X151060000Y-151345000I0J75000D01*
G01*
G37*
G36*
G01*
X151060000Y-151845000D02*
X151060000Y-151695000D01*
G75*
G02*
X151135000Y-151620000I75000J0D01*
G01*
X152460000Y-151620000D01*
G75*
G02*
X152535000Y-151695000I0J-75000D01*
G01*
X152535000Y-151845000D01*
G75*
G02*
X152460000Y-151920000I-75000J0D01*
G01*
X151135000Y-151920000D01*
G75*
G02*
X151060000Y-151845000I0J75000D01*
G01*
G37*
G36*
G01*
X151060000Y-152345000D02*
X151060000Y-152195000D01*
G75*
G02*
X151135000Y-152120000I75000J0D01*
G01*
X152460000Y-152120000D01*
G75*
G02*
X152535000Y-152195000I0J-75000D01*
G01*
X152535000Y-152345000D01*
G75*
G02*
X152460000Y-152420000I-75000J0D01*
G01*
X151135000Y-152420000D01*
G75*
G02*
X151060000Y-152345000I0J75000D01*
G01*
G37*
G36*
G01*
X151060000Y-152845000D02*
X151060000Y-152695000D01*
G75*
G02*
X151135000Y-152620000I75000J0D01*
G01*
X152460000Y-152620000D01*
G75*
G02*
X152535000Y-152695000I0J-75000D01*
G01*
X152535000Y-152845000D01*
G75*
G02*
X152460000Y-152920000I-75000J0D01*
G01*
X151135000Y-152920000D01*
G75*
G02*
X151060000Y-152845000I0J75000D01*
G01*
G37*
G36*
G01*
X151060000Y-153345000D02*
X151060000Y-153195000D01*
G75*
G02*
X151135000Y-153120000I75000J0D01*
G01*
X152460000Y-153120000D01*
G75*
G02*
X152535000Y-153195000I0J-75000D01*
G01*
X152535000Y-153345000D01*
G75*
G02*
X152460000Y-153420000I-75000J0D01*
G01*
X151135000Y-153420000D01*
G75*
G02*
X151060000Y-153345000I0J75000D01*
G01*
G37*
G36*
G01*
X151060000Y-153845000D02*
X151060000Y-153695000D01*
G75*
G02*
X151135000Y-153620000I75000J0D01*
G01*
X152460000Y-153620000D01*
G75*
G02*
X152535000Y-153695000I0J-75000D01*
G01*
X152535000Y-153845000D01*
G75*
G02*
X152460000Y-153920000I-75000J0D01*
G01*
X151135000Y-153920000D01*
G75*
G02*
X151060000Y-153845000I0J75000D01*
G01*
G37*
G36*
G01*
X151060000Y-154345000D02*
X151060000Y-154195000D01*
G75*
G02*
X151135000Y-154120000I75000J0D01*
G01*
X152460000Y-154120000D01*
G75*
G02*
X152535000Y-154195000I0J-75000D01*
G01*
X152535000Y-154345000D01*
G75*
G02*
X152460000Y-154420000I-75000J0D01*
G01*
X151135000Y-154420000D01*
G75*
G02*
X151060000Y-154345000I0J75000D01*
G01*
G37*
G36*
G01*
X151060000Y-154845000D02*
X151060000Y-154695000D01*
G75*
G02*
X151135000Y-154620000I75000J0D01*
G01*
X152460000Y-154620000D01*
G75*
G02*
X152535000Y-154695000I0J-75000D01*
G01*
X152535000Y-154845000D01*
G75*
G02*
X152460000Y-154920000I-75000J0D01*
G01*
X151135000Y-154920000D01*
G75*
G02*
X151060000Y-154845000I0J75000D01*
G01*
G37*
G36*
G01*
X151060000Y-155345000D02*
X151060000Y-155195000D01*
G75*
G02*
X151135000Y-155120000I75000J0D01*
G01*
X152460000Y-155120000D01*
G75*
G02*
X152535000Y-155195000I0J-75000D01*
G01*
X152535000Y-155345000D01*
G75*
G02*
X152460000Y-155420000I-75000J0D01*
G01*
X151135000Y-155420000D01*
G75*
G02*
X151060000Y-155345000I0J75000D01*
G01*
G37*
G36*
G01*
X151060000Y-155845000D02*
X151060000Y-155695000D01*
G75*
G02*
X151135000Y-155620000I75000J0D01*
G01*
X152460000Y-155620000D01*
G75*
G02*
X152535000Y-155695000I0J-75000D01*
G01*
X152535000Y-155845000D01*
G75*
G02*
X152460000Y-155920000I-75000J0D01*
G01*
X151135000Y-155920000D01*
G75*
G02*
X151060000Y-155845000I0J75000D01*
G01*
G37*
G36*
G01*
X151060000Y-156345000D02*
X151060000Y-156195000D01*
G75*
G02*
X151135000Y-156120000I75000J0D01*
G01*
X152460000Y-156120000D01*
G75*
G02*
X152535000Y-156195000I0J-75000D01*
G01*
X152535000Y-156345000D01*
G75*
G02*
X152460000Y-156420000I-75000J0D01*
G01*
X151135000Y-156420000D01*
G75*
G02*
X151060000Y-156345000I0J75000D01*
G01*
G37*
G36*
G01*
X153060000Y-158345000D02*
X153060000Y-157020000D01*
G75*
G02*
X153135000Y-156945000I75000J0D01*
G01*
X153285000Y-156945000D01*
G75*
G02*
X153360000Y-157020000I0J-75000D01*
G01*
X153360000Y-158345000D01*
G75*
G02*
X153285000Y-158420000I-75000J0D01*
G01*
X153135000Y-158420000D01*
G75*
G02*
X153060000Y-158345000I0J75000D01*
G01*
G37*
G36*
G01*
X153560000Y-158345000D02*
X153560000Y-157020000D01*
G75*
G02*
X153635000Y-156945000I75000J0D01*
G01*
X153785000Y-156945000D01*
G75*
G02*
X153860000Y-157020000I0J-75000D01*
G01*
X153860000Y-158345000D01*
G75*
G02*
X153785000Y-158420000I-75000J0D01*
G01*
X153635000Y-158420000D01*
G75*
G02*
X153560000Y-158345000I0J75000D01*
G01*
G37*
G36*
G01*
X154060000Y-158345000D02*
X154060000Y-157020000D01*
G75*
G02*
X154135000Y-156945000I75000J0D01*
G01*
X154285000Y-156945000D01*
G75*
G02*
X154360000Y-157020000I0J-75000D01*
G01*
X154360000Y-158345000D01*
G75*
G02*
X154285000Y-158420000I-75000J0D01*
G01*
X154135000Y-158420000D01*
G75*
G02*
X154060000Y-158345000I0J75000D01*
G01*
G37*
G36*
G01*
X154560000Y-158345000D02*
X154560000Y-157020000D01*
G75*
G02*
X154635000Y-156945000I75000J0D01*
G01*
X154785000Y-156945000D01*
G75*
G02*
X154860000Y-157020000I0J-75000D01*
G01*
X154860000Y-158345000D01*
G75*
G02*
X154785000Y-158420000I-75000J0D01*
G01*
X154635000Y-158420000D01*
G75*
G02*
X154560000Y-158345000I0J75000D01*
G01*
G37*
G36*
G01*
X155060000Y-158345000D02*
X155060000Y-157020000D01*
G75*
G02*
X155135000Y-156945000I75000J0D01*
G01*
X155285000Y-156945000D01*
G75*
G02*
X155360000Y-157020000I0J-75000D01*
G01*
X155360000Y-158345000D01*
G75*
G02*
X155285000Y-158420000I-75000J0D01*
G01*
X155135000Y-158420000D01*
G75*
G02*
X155060000Y-158345000I0J75000D01*
G01*
G37*
G36*
G01*
X155560000Y-158345000D02*
X155560000Y-157020000D01*
G75*
G02*
X155635000Y-156945000I75000J0D01*
G01*
X155785000Y-156945000D01*
G75*
G02*
X155860000Y-157020000I0J-75000D01*
G01*
X155860000Y-158345000D01*
G75*
G02*
X155785000Y-158420000I-75000J0D01*
G01*
X155635000Y-158420000D01*
G75*
G02*
X155560000Y-158345000I0J75000D01*
G01*
G37*
G36*
G01*
X156060000Y-158345000D02*
X156060000Y-157020000D01*
G75*
G02*
X156135000Y-156945000I75000J0D01*
G01*
X156285000Y-156945000D01*
G75*
G02*
X156360000Y-157020000I0J-75000D01*
G01*
X156360000Y-158345000D01*
G75*
G02*
X156285000Y-158420000I-75000J0D01*
G01*
X156135000Y-158420000D01*
G75*
G02*
X156060000Y-158345000I0J75000D01*
G01*
G37*
G36*
G01*
X156560000Y-158345000D02*
X156560000Y-157020000D01*
G75*
G02*
X156635000Y-156945000I75000J0D01*
G01*
X156785000Y-156945000D01*
G75*
G02*
X156860000Y-157020000I0J-75000D01*
G01*
X156860000Y-158345000D01*
G75*
G02*
X156785000Y-158420000I-75000J0D01*
G01*
X156635000Y-158420000D01*
G75*
G02*
X156560000Y-158345000I0J75000D01*
G01*
G37*
G36*
G01*
X157060000Y-158345000D02*
X157060000Y-157020000D01*
G75*
G02*
X157135000Y-156945000I75000J0D01*
G01*
X157285000Y-156945000D01*
G75*
G02*
X157360000Y-157020000I0J-75000D01*
G01*
X157360000Y-158345000D01*
G75*
G02*
X157285000Y-158420000I-75000J0D01*
G01*
X157135000Y-158420000D01*
G75*
G02*
X157060000Y-158345000I0J75000D01*
G01*
G37*
G36*
G01*
X157560000Y-158345000D02*
X157560000Y-157020000D01*
G75*
G02*
X157635000Y-156945000I75000J0D01*
G01*
X157785000Y-156945000D01*
G75*
G02*
X157860000Y-157020000I0J-75000D01*
G01*
X157860000Y-158345000D01*
G75*
G02*
X157785000Y-158420000I-75000J0D01*
G01*
X157635000Y-158420000D01*
G75*
G02*
X157560000Y-158345000I0J75000D01*
G01*
G37*
G36*
G01*
X158060000Y-158345000D02*
X158060000Y-157020000D01*
G75*
G02*
X158135000Y-156945000I75000J0D01*
G01*
X158285000Y-156945000D01*
G75*
G02*
X158360000Y-157020000I0J-75000D01*
G01*
X158360000Y-158345000D01*
G75*
G02*
X158285000Y-158420000I-75000J0D01*
G01*
X158135000Y-158420000D01*
G75*
G02*
X158060000Y-158345000I0J75000D01*
G01*
G37*
G36*
G01*
X158560000Y-158345000D02*
X158560000Y-157020000D01*
G75*
G02*
X158635000Y-156945000I75000J0D01*
G01*
X158785000Y-156945000D01*
G75*
G02*
X158860000Y-157020000I0J-75000D01*
G01*
X158860000Y-158345000D01*
G75*
G02*
X158785000Y-158420000I-75000J0D01*
G01*
X158635000Y-158420000D01*
G75*
G02*
X158560000Y-158345000I0J75000D01*
G01*
G37*
G36*
G01*
X159385000Y-156345000D02*
X159385000Y-156195000D01*
G75*
G02*
X159460000Y-156120000I75000J0D01*
G01*
X160785000Y-156120000D01*
G75*
G02*
X160860000Y-156195000I0J-75000D01*
G01*
X160860000Y-156345000D01*
G75*
G02*
X160785000Y-156420000I-75000J0D01*
G01*
X159460000Y-156420000D01*
G75*
G02*
X159385000Y-156345000I0J75000D01*
G01*
G37*
G36*
G01*
X159385000Y-155845000D02*
X159385000Y-155695000D01*
G75*
G02*
X159460000Y-155620000I75000J0D01*
G01*
X160785000Y-155620000D01*
G75*
G02*
X160860000Y-155695000I0J-75000D01*
G01*
X160860000Y-155845000D01*
G75*
G02*
X160785000Y-155920000I-75000J0D01*
G01*
X159460000Y-155920000D01*
G75*
G02*
X159385000Y-155845000I0J75000D01*
G01*
G37*
G36*
G01*
X159385000Y-155345000D02*
X159385000Y-155195000D01*
G75*
G02*
X159460000Y-155120000I75000J0D01*
G01*
X160785000Y-155120000D01*
G75*
G02*
X160860000Y-155195000I0J-75000D01*
G01*
X160860000Y-155345000D01*
G75*
G02*
X160785000Y-155420000I-75000J0D01*
G01*
X159460000Y-155420000D01*
G75*
G02*
X159385000Y-155345000I0J75000D01*
G01*
G37*
G36*
G01*
X159385000Y-154845000D02*
X159385000Y-154695000D01*
G75*
G02*
X159460000Y-154620000I75000J0D01*
G01*
X160785000Y-154620000D01*
G75*
G02*
X160860000Y-154695000I0J-75000D01*
G01*
X160860000Y-154845000D01*
G75*
G02*
X160785000Y-154920000I-75000J0D01*
G01*
X159460000Y-154920000D01*
G75*
G02*
X159385000Y-154845000I0J75000D01*
G01*
G37*
G36*
G01*
X159385000Y-154345000D02*
X159385000Y-154195000D01*
G75*
G02*
X159460000Y-154120000I75000J0D01*
G01*
X160785000Y-154120000D01*
G75*
G02*
X160860000Y-154195000I0J-75000D01*
G01*
X160860000Y-154345000D01*
G75*
G02*
X160785000Y-154420000I-75000J0D01*
G01*
X159460000Y-154420000D01*
G75*
G02*
X159385000Y-154345000I0J75000D01*
G01*
G37*
G36*
G01*
X159385000Y-153845000D02*
X159385000Y-153695000D01*
G75*
G02*
X159460000Y-153620000I75000J0D01*
G01*
X160785000Y-153620000D01*
G75*
G02*
X160860000Y-153695000I0J-75000D01*
G01*
X160860000Y-153845000D01*
G75*
G02*
X160785000Y-153920000I-75000J0D01*
G01*
X159460000Y-153920000D01*
G75*
G02*
X159385000Y-153845000I0J75000D01*
G01*
G37*
G36*
G01*
X159385000Y-153345000D02*
X159385000Y-153195000D01*
G75*
G02*
X159460000Y-153120000I75000J0D01*
G01*
X160785000Y-153120000D01*
G75*
G02*
X160860000Y-153195000I0J-75000D01*
G01*
X160860000Y-153345000D01*
G75*
G02*
X160785000Y-153420000I-75000J0D01*
G01*
X159460000Y-153420000D01*
G75*
G02*
X159385000Y-153345000I0J75000D01*
G01*
G37*
G36*
G01*
X159385000Y-152845000D02*
X159385000Y-152695000D01*
G75*
G02*
X159460000Y-152620000I75000J0D01*
G01*
X160785000Y-152620000D01*
G75*
G02*
X160860000Y-152695000I0J-75000D01*
G01*
X160860000Y-152845000D01*
G75*
G02*
X160785000Y-152920000I-75000J0D01*
G01*
X159460000Y-152920000D01*
G75*
G02*
X159385000Y-152845000I0J75000D01*
G01*
G37*
G36*
G01*
X159385000Y-152345000D02*
X159385000Y-152195000D01*
G75*
G02*
X159460000Y-152120000I75000J0D01*
G01*
X160785000Y-152120000D01*
G75*
G02*
X160860000Y-152195000I0J-75000D01*
G01*
X160860000Y-152345000D01*
G75*
G02*
X160785000Y-152420000I-75000J0D01*
G01*
X159460000Y-152420000D01*
G75*
G02*
X159385000Y-152345000I0J75000D01*
G01*
G37*
G36*
G01*
X159385000Y-151845000D02*
X159385000Y-151695000D01*
G75*
G02*
X159460000Y-151620000I75000J0D01*
G01*
X160785000Y-151620000D01*
G75*
G02*
X160860000Y-151695000I0J-75000D01*
G01*
X160860000Y-151845000D01*
G75*
G02*
X160785000Y-151920000I-75000J0D01*
G01*
X159460000Y-151920000D01*
G75*
G02*
X159385000Y-151845000I0J75000D01*
G01*
G37*
G36*
G01*
X159385000Y-151345000D02*
X159385000Y-151195000D01*
G75*
G02*
X159460000Y-151120000I75000J0D01*
G01*
X160785000Y-151120000D01*
G75*
G02*
X160860000Y-151195000I0J-75000D01*
G01*
X160860000Y-151345000D01*
G75*
G02*
X160785000Y-151420000I-75000J0D01*
G01*
X159460000Y-151420000D01*
G75*
G02*
X159385000Y-151345000I0J75000D01*
G01*
G37*
G36*
G01*
X159385000Y-150845000D02*
X159385000Y-150695000D01*
G75*
G02*
X159460000Y-150620000I75000J0D01*
G01*
X160785000Y-150620000D01*
G75*
G02*
X160860000Y-150695000I0J-75000D01*
G01*
X160860000Y-150845000D01*
G75*
G02*
X160785000Y-150920000I-75000J0D01*
G01*
X159460000Y-150920000D01*
G75*
G02*
X159385000Y-150845000I0J75000D01*
G01*
G37*
G36*
G01*
X158560000Y-150020000D02*
X158560000Y-148695000D01*
G75*
G02*
X158635000Y-148620000I75000J0D01*
G01*
X158785000Y-148620000D01*
G75*
G02*
X158860000Y-148695000I0J-75000D01*
G01*
X158860000Y-150020000D01*
G75*
G02*
X158785000Y-150095000I-75000J0D01*
G01*
X158635000Y-150095000D01*
G75*
G02*
X158560000Y-150020000I0J75000D01*
G01*
G37*
G36*
G01*
X158060000Y-150020000D02*
X158060000Y-148695000D01*
G75*
G02*
X158135000Y-148620000I75000J0D01*
G01*
X158285000Y-148620000D01*
G75*
G02*
X158360000Y-148695000I0J-75000D01*
G01*
X158360000Y-150020000D01*
G75*
G02*
X158285000Y-150095000I-75000J0D01*
G01*
X158135000Y-150095000D01*
G75*
G02*
X158060000Y-150020000I0J75000D01*
G01*
G37*
G36*
G01*
X157560000Y-150020000D02*
X157560000Y-148695000D01*
G75*
G02*
X157635000Y-148620000I75000J0D01*
G01*
X157785000Y-148620000D01*
G75*
G02*
X157860000Y-148695000I0J-75000D01*
G01*
X157860000Y-150020000D01*
G75*
G02*
X157785000Y-150095000I-75000J0D01*
G01*
X157635000Y-150095000D01*
G75*
G02*
X157560000Y-150020000I0J75000D01*
G01*
G37*
G36*
G01*
X157060000Y-150020000D02*
X157060000Y-148695000D01*
G75*
G02*
X157135000Y-148620000I75000J0D01*
G01*
X157285000Y-148620000D01*
G75*
G02*
X157360000Y-148695000I0J-75000D01*
G01*
X157360000Y-150020000D01*
G75*
G02*
X157285000Y-150095000I-75000J0D01*
G01*
X157135000Y-150095000D01*
G75*
G02*
X157060000Y-150020000I0J75000D01*
G01*
G37*
G36*
G01*
X156560000Y-150020000D02*
X156560000Y-148695000D01*
G75*
G02*
X156635000Y-148620000I75000J0D01*
G01*
X156785000Y-148620000D01*
G75*
G02*
X156860000Y-148695000I0J-75000D01*
G01*
X156860000Y-150020000D01*
G75*
G02*
X156785000Y-150095000I-75000J0D01*
G01*
X156635000Y-150095000D01*
G75*
G02*
X156560000Y-150020000I0J75000D01*
G01*
G37*
G36*
G01*
X156060000Y-150020000D02*
X156060000Y-148695000D01*
G75*
G02*
X156135000Y-148620000I75000J0D01*
G01*
X156285000Y-148620000D01*
G75*
G02*
X156360000Y-148695000I0J-75000D01*
G01*
X156360000Y-150020000D01*
G75*
G02*
X156285000Y-150095000I-75000J0D01*
G01*
X156135000Y-150095000D01*
G75*
G02*
X156060000Y-150020000I0J75000D01*
G01*
G37*
G36*
G01*
X155560000Y-150020000D02*
X155560000Y-148695000D01*
G75*
G02*
X155635000Y-148620000I75000J0D01*
G01*
X155785000Y-148620000D01*
G75*
G02*
X155860000Y-148695000I0J-75000D01*
G01*
X155860000Y-150020000D01*
G75*
G02*
X155785000Y-150095000I-75000J0D01*
G01*
X155635000Y-150095000D01*
G75*
G02*
X155560000Y-150020000I0J75000D01*
G01*
G37*
G36*
G01*
X155060000Y-150020000D02*
X155060000Y-148695000D01*
G75*
G02*
X155135000Y-148620000I75000J0D01*
G01*
X155285000Y-148620000D01*
G75*
G02*
X155360000Y-148695000I0J-75000D01*
G01*
X155360000Y-150020000D01*
G75*
G02*
X155285000Y-150095000I-75000J0D01*
G01*
X155135000Y-150095000D01*
G75*
G02*
X155060000Y-150020000I0J75000D01*
G01*
G37*
G36*
G01*
X154560000Y-150020000D02*
X154560000Y-148695000D01*
G75*
G02*
X154635000Y-148620000I75000J0D01*
G01*
X154785000Y-148620000D01*
G75*
G02*
X154860000Y-148695000I0J-75000D01*
G01*
X154860000Y-150020000D01*
G75*
G02*
X154785000Y-150095000I-75000J0D01*
G01*
X154635000Y-150095000D01*
G75*
G02*
X154560000Y-150020000I0J75000D01*
G01*
G37*
G36*
G01*
X154060000Y-150020000D02*
X154060000Y-148695000D01*
G75*
G02*
X154135000Y-148620000I75000J0D01*
G01*
X154285000Y-148620000D01*
G75*
G02*
X154360000Y-148695000I0J-75000D01*
G01*
X154360000Y-150020000D01*
G75*
G02*
X154285000Y-150095000I-75000J0D01*
G01*
X154135000Y-150095000D01*
G75*
G02*
X154060000Y-150020000I0J75000D01*
G01*
G37*
G36*
G01*
X153560000Y-150020000D02*
X153560000Y-148695000D01*
G75*
G02*
X153635000Y-148620000I75000J0D01*
G01*
X153785000Y-148620000D01*
G75*
G02*
X153860000Y-148695000I0J-75000D01*
G01*
X153860000Y-150020000D01*
G75*
G02*
X153785000Y-150095000I-75000J0D01*
G01*
X153635000Y-150095000D01*
G75*
G02*
X153560000Y-150020000I0J75000D01*
G01*
G37*
G36*
G01*
X153060000Y-150020000D02*
X153060000Y-148695000D01*
G75*
G02*
X153135000Y-148620000I75000J0D01*
G01*
X153285000Y-148620000D01*
G75*
G02*
X153360000Y-148695000I0J-75000D01*
G01*
X153360000Y-150020000D01*
G75*
G02*
X153285000Y-150095000I-75000J0D01*
G01*
X153135000Y-150095000D01*
G75*
G02*
X153060000Y-150020000I0J75000D01*
G01*
G37*
D12*
X197630000Y-138990000D03*
X199830000Y-138990000D03*
X199830000Y-140690000D03*
X197630000Y-140690000D03*
G36*
G01*
X249090000Y-123690001D02*
X249090000Y-122789999D01*
G75*
G02*
X249339999Y-122540000I249999J0D01*
G01*
X249865001Y-122540000D01*
G75*
G02*
X250115000Y-122789999I0J-249999D01*
G01*
X250115000Y-123690001D01*
G75*
G02*
X249865001Y-123940000I-249999J0D01*
G01*
X249339999Y-123940000D01*
G75*
G02*
X249090000Y-123690001I0J249999D01*
G01*
G37*
G36*
G01*
X247265000Y-123690001D02*
X247265000Y-122789999D01*
G75*
G02*
X247514999Y-122540000I249999J0D01*
G01*
X248040001Y-122540000D01*
G75*
G02*
X248290000Y-122789999I0J-249999D01*
G01*
X248290000Y-123690001D01*
G75*
G02*
X248040001Y-123940000I-249999J0D01*
G01*
X247514999Y-123940000D01*
G75*
G02*
X247265000Y-123690001I0J249999D01*
G01*
G37*
G36*
G01*
X248060000Y-127040001D02*
X248060000Y-126139999D01*
G75*
G02*
X248309999Y-125890000I249999J0D01*
G01*
X248835001Y-125890000D01*
G75*
G02*
X249085000Y-126139999I0J-249999D01*
G01*
X249085000Y-127040001D01*
G75*
G02*
X248835001Y-127290000I-249999J0D01*
G01*
X248309999Y-127290000D01*
G75*
G02*
X248060000Y-127040001I0J249999D01*
G01*
G37*
G36*
G01*
X246235000Y-127040001D02*
X246235000Y-126139999D01*
G75*
G02*
X246484999Y-125890000I249999J0D01*
G01*
X247010001Y-125890000D01*
G75*
G02*
X247260000Y-126139999I0J-249999D01*
G01*
X247260000Y-127040001D01*
G75*
G02*
X247010001Y-127290000I-249999J0D01*
G01*
X246484999Y-127290000D01*
G75*
G02*
X246235000Y-127040001I0J249999D01*
G01*
G37*
G36*
G01*
X223510000Y-139540001D02*
X223510000Y-138639999D01*
G75*
G02*
X223759999Y-138390000I249999J0D01*
G01*
X224285001Y-138390000D01*
G75*
G02*
X224535000Y-138639999I0J-249999D01*
G01*
X224535000Y-139540001D01*
G75*
G02*
X224285001Y-139790000I-249999J0D01*
G01*
X223759999Y-139790000D01*
G75*
G02*
X223510000Y-139540001I0J249999D01*
G01*
G37*
G36*
G01*
X221685000Y-139540001D02*
X221685000Y-138639999D01*
G75*
G02*
X221934999Y-138390000I249999J0D01*
G01*
X222460001Y-138390000D01*
G75*
G02*
X222710000Y-138639999I0J-249999D01*
G01*
X222710000Y-139540001D01*
G75*
G02*
X222460001Y-139790000I-249999J0D01*
G01*
X221934999Y-139790000D01*
G75*
G02*
X221685000Y-139540001I0J249999D01*
G01*
G37*
G36*
G01*
X222480000Y-142890001D02*
X222480000Y-141989999D01*
G75*
G02*
X222729999Y-141740000I249999J0D01*
G01*
X223255001Y-141740000D01*
G75*
G02*
X223505000Y-141989999I0J-249999D01*
G01*
X223505000Y-142890001D01*
G75*
G02*
X223255001Y-143140000I-249999J0D01*
G01*
X222729999Y-143140000D01*
G75*
G02*
X222480000Y-142890001I0J249999D01*
G01*
G37*
G36*
G01*
X220655000Y-142890001D02*
X220655000Y-141989999D01*
G75*
G02*
X220904999Y-141740000I249999J0D01*
G01*
X221430001Y-141740000D01*
G75*
G02*
X221680000Y-141989999I0J-249999D01*
G01*
X221680000Y-142890001D01*
G75*
G02*
X221430001Y-143140000I-249999J0D01*
G01*
X220904999Y-143140000D01*
G75*
G02*
X220655000Y-142890001I0J249999D01*
G01*
G37*
G36*
G01*
X240780000Y-135730001D02*
X240780000Y-134829999D01*
G75*
G02*
X241029999Y-134580000I249999J0D01*
G01*
X241555001Y-134580000D01*
G75*
G02*
X241805000Y-134829999I0J-249999D01*
G01*
X241805000Y-135730001D01*
G75*
G02*
X241555001Y-135980000I-249999J0D01*
G01*
X241029999Y-135980000D01*
G75*
G02*
X240780000Y-135730001I0J249999D01*
G01*
G37*
G36*
G01*
X238955000Y-135730001D02*
X238955000Y-134829999D01*
G75*
G02*
X239204999Y-134580000I249999J0D01*
G01*
X239730001Y-134580000D01*
G75*
G02*
X239980000Y-134829999I0J-249999D01*
G01*
X239980000Y-135730001D01*
G75*
G02*
X239730001Y-135980000I-249999J0D01*
G01*
X239204999Y-135980000D01*
G75*
G02*
X238955000Y-135730001I0J249999D01*
G01*
G37*
G36*
G01*
X239750000Y-139080001D02*
X239750000Y-138179999D01*
G75*
G02*
X239999999Y-137930000I249999J0D01*
G01*
X240525001Y-137930000D01*
G75*
G02*
X240775000Y-138179999I0J-249999D01*
G01*
X240775000Y-139080001D01*
G75*
G02*
X240525001Y-139330000I-249999J0D01*
G01*
X239999999Y-139330000D01*
G75*
G02*
X239750000Y-139080001I0J249999D01*
G01*
G37*
G36*
G01*
X237925000Y-139080001D02*
X237925000Y-138179999D01*
G75*
G02*
X238174999Y-137930000I249999J0D01*
G01*
X238700001Y-137930000D01*
G75*
G02*
X238950000Y-138179999I0J-249999D01*
G01*
X238950000Y-139080001D01*
G75*
G02*
X238700001Y-139330000I-249999J0D01*
G01*
X238174999Y-139330000D01*
G75*
G02*
X237925000Y-139080001I0J249999D01*
G01*
G37*
G36*
G01*
X221880000Y-151720001D02*
X221880000Y-150819999D01*
G75*
G02*
X222129999Y-150570000I249999J0D01*
G01*
X222655001Y-150570000D01*
G75*
G02*
X222905000Y-150819999I0J-249999D01*
G01*
X222905000Y-151720001D01*
G75*
G02*
X222655001Y-151970000I-249999J0D01*
G01*
X222129999Y-151970000D01*
G75*
G02*
X221880000Y-151720001I0J249999D01*
G01*
G37*
G36*
G01*
X220055000Y-151720001D02*
X220055000Y-150819999D01*
G75*
G02*
X220304999Y-150570000I249999J0D01*
G01*
X220830001Y-150570000D01*
G75*
G02*
X221080000Y-150819999I0J-249999D01*
G01*
X221080000Y-151720001D01*
G75*
G02*
X220830001Y-151970000I-249999J0D01*
G01*
X220304999Y-151970000D01*
G75*
G02*
X220055000Y-151720001I0J249999D01*
G01*
G37*
G36*
G01*
X220850000Y-155070001D02*
X220850000Y-154169999D01*
G75*
G02*
X221099999Y-153920000I249999J0D01*
G01*
X221625001Y-153920000D01*
G75*
G02*
X221875000Y-154169999I0J-249999D01*
G01*
X221875000Y-155070001D01*
G75*
G02*
X221625001Y-155320000I-249999J0D01*
G01*
X221099999Y-155320000D01*
G75*
G02*
X220850000Y-155070001I0J249999D01*
G01*
G37*
G36*
G01*
X219025000Y-155070001D02*
X219025000Y-154169999D01*
G75*
G02*
X219274999Y-153920000I249999J0D01*
G01*
X219800001Y-153920000D01*
G75*
G02*
X220050000Y-154169999I0J-249999D01*
G01*
X220050000Y-155070001D01*
G75*
G02*
X219800001Y-155320000I-249999J0D01*
G01*
X219274999Y-155320000D01*
G75*
G02*
X219025000Y-155070001I0J249999D01*
G01*
G37*
G36*
G01*
X258050000Y-134730001D02*
X258050000Y-133829999D01*
G75*
G02*
X258299999Y-133580000I249999J0D01*
G01*
X258825001Y-133580000D01*
G75*
G02*
X259075000Y-133829999I0J-249999D01*
G01*
X259075000Y-134730001D01*
G75*
G02*
X258825001Y-134980000I-249999J0D01*
G01*
X258299999Y-134980000D01*
G75*
G02*
X258050000Y-134730001I0J249999D01*
G01*
G37*
G36*
G01*
X256225000Y-134730001D02*
X256225000Y-133829999D01*
G75*
G02*
X256474999Y-133580000I249999J0D01*
G01*
X257000001Y-133580000D01*
G75*
G02*
X257250000Y-133829999I0J-249999D01*
G01*
X257250000Y-134730001D01*
G75*
G02*
X257000001Y-134980000I-249999J0D01*
G01*
X256474999Y-134980000D01*
G75*
G02*
X256225000Y-134730001I0J249999D01*
G01*
G37*
G36*
G01*
X257020000Y-138080001D02*
X257020000Y-137179999D01*
G75*
G02*
X257269999Y-136930000I249999J0D01*
G01*
X257795001Y-136930000D01*
G75*
G02*
X258045000Y-137179999I0J-249999D01*
G01*
X258045000Y-138080001D01*
G75*
G02*
X257795001Y-138330000I-249999J0D01*
G01*
X257269999Y-138330000D01*
G75*
G02*
X257020000Y-138080001I0J249999D01*
G01*
G37*
G36*
G01*
X255195000Y-138080001D02*
X255195000Y-137179999D01*
G75*
G02*
X255444999Y-136930000I249999J0D01*
G01*
X255970001Y-136930000D01*
G75*
G02*
X256220000Y-137179999I0J-249999D01*
G01*
X256220000Y-138080001D01*
G75*
G02*
X255970001Y-138330000I-249999J0D01*
G01*
X255444999Y-138330000D01*
G75*
G02*
X255195000Y-138080001I0J249999D01*
G01*
G37*
G36*
G01*
X240780000Y-146770001D02*
X240780000Y-145869999D01*
G75*
G02*
X241029999Y-145620000I249999J0D01*
G01*
X241555001Y-145620000D01*
G75*
G02*
X241805000Y-145869999I0J-249999D01*
G01*
X241805000Y-146770001D01*
G75*
G02*
X241555001Y-147020000I-249999J0D01*
G01*
X241029999Y-147020000D01*
G75*
G02*
X240780000Y-146770001I0J249999D01*
G01*
G37*
G36*
G01*
X238955000Y-146770001D02*
X238955000Y-145869999D01*
G75*
G02*
X239204999Y-145620000I249999J0D01*
G01*
X239730001Y-145620000D01*
G75*
G02*
X239980000Y-145869999I0J-249999D01*
G01*
X239980000Y-146770001D01*
G75*
G02*
X239730001Y-147020000I-249999J0D01*
G01*
X239204999Y-147020000D01*
G75*
G02*
X238955000Y-146770001I0J249999D01*
G01*
G37*
G36*
G01*
X239750000Y-150120001D02*
X239750000Y-149219999D01*
G75*
G02*
X239999999Y-148970000I249999J0D01*
G01*
X240525001Y-148970000D01*
G75*
G02*
X240775000Y-149219999I0J-249999D01*
G01*
X240775000Y-150120001D01*
G75*
G02*
X240525001Y-150370000I-249999J0D01*
G01*
X239999999Y-150370000D01*
G75*
G02*
X239750000Y-150120001I0J249999D01*
G01*
G37*
G36*
G01*
X237925000Y-150120001D02*
X237925000Y-149219999D01*
G75*
G02*
X238174999Y-148970000I249999J0D01*
G01*
X238700001Y-148970000D01*
G75*
G02*
X238950000Y-149219999I0J-249999D01*
G01*
X238950000Y-150120001D01*
G75*
G02*
X238700001Y-150370000I-249999J0D01*
G01*
X238174999Y-150370000D01*
G75*
G02*
X237925000Y-150120001I0J249999D01*
G01*
G37*
G36*
G01*
X81370000Y-122730001D02*
X81370000Y-121829999D01*
G75*
G02*
X81619999Y-121580000I249999J0D01*
G01*
X82145001Y-121580000D01*
G75*
G02*
X82395000Y-121829999I0J-249999D01*
G01*
X82395000Y-122730001D01*
G75*
G02*
X82145001Y-122980000I-249999J0D01*
G01*
X81619999Y-122980000D01*
G75*
G02*
X81370000Y-122730001I0J249999D01*
G01*
G37*
G36*
G01*
X79545000Y-122730001D02*
X79545000Y-121829999D01*
G75*
G02*
X79794999Y-121580000I249999J0D01*
G01*
X80320001Y-121580000D01*
G75*
G02*
X80570000Y-121829999I0J-249999D01*
G01*
X80570000Y-122730001D01*
G75*
G02*
X80320001Y-122980000I-249999J0D01*
G01*
X79794999Y-122980000D01*
G75*
G02*
X79545000Y-122730001I0J249999D01*
G01*
G37*
G36*
G01*
X81370000Y-124660001D02*
X81370000Y-123759999D01*
G75*
G02*
X81619999Y-123510000I249999J0D01*
G01*
X82145001Y-123510000D01*
G75*
G02*
X82395000Y-123759999I0J-249999D01*
G01*
X82395000Y-124660001D01*
G75*
G02*
X82145001Y-124910000I-249999J0D01*
G01*
X81619999Y-124910000D01*
G75*
G02*
X81370000Y-124660001I0J249999D01*
G01*
G37*
G36*
G01*
X79545000Y-124660001D02*
X79545000Y-123759999D01*
G75*
G02*
X79794999Y-123510000I249999J0D01*
G01*
X80320001Y-123510000D01*
G75*
G02*
X80570000Y-123759999I0J-249999D01*
G01*
X80570000Y-124660001D01*
G75*
G02*
X80320001Y-124910000I-249999J0D01*
G01*
X79794999Y-124910000D01*
G75*
G02*
X79545000Y-124660001I0J249999D01*
G01*
G37*
G36*
G01*
X233400000Y-126700001D02*
X233400000Y-125799999D01*
G75*
G02*
X233649999Y-125550000I249999J0D01*
G01*
X234175001Y-125550000D01*
G75*
G02*
X234425000Y-125799999I0J-249999D01*
G01*
X234425000Y-126700001D01*
G75*
G02*
X234175001Y-126950000I-249999J0D01*
G01*
X233649999Y-126950000D01*
G75*
G02*
X233400000Y-126700001I0J249999D01*
G01*
G37*
G36*
G01*
X231575000Y-126700001D02*
X231575000Y-125799999D01*
G75*
G02*
X231824999Y-125550000I249999J0D01*
G01*
X232350001Y-125550000D01*
G75*
G02*
X232600000Y-125799999I0J-249999D01*
G01*
X232600000Y-126700001D01*
G75*
G02*
X232350001Y-126950000I-249999J0D01*
G01*
X231824999Y-126950000D01*
G75*
G02*
X231575000Y-126700001I0J249999D01*
G01*
G37*
G36*
G01*
X228990000Y-129650001D02*
X228990000Y-128749999D01*
G75*
G02*
X229239999Y-128500000I249999J0D01*
G01*
X229765001Y-128500000D01*
G75*
G02*
X230015000Y-128749999I0J-249999D01*
G01*
X230015000Y-129650001D01*
G75*
G02*
X229765001Y-129900000I-249999J0D01*
G01*
X229239999Y-129900000D01*
G75*
G02*
X228990000Y-129650001I0J249999D01*
G01*
G37*
G36*
G01*
X227165000Y-129650001D02*
X227165000Y-128749999D01*
G75*
G02*
X227414999Y-128500000I249999J0D01*
G01*
X227940001Y-128500000D01*
G75*
G02*
X228190000Y-128749999I0J-249999D01*
G01*
X228190000Y-129650001D01*
G75*
G02*
X227940001Y-129900000I-249999J0D01*
G01*
X227414999Y-129900000D01*
G75*
G02*
X227165000Y-129650001I0J249999D01*
G01*
G37*
G36*
G01*
X228990000Y-126700001D02*
X228990000Y-125799999D01*
G75*
G02*
X229239999Y-125550000I249999J0D01*
G01*
X229765001Y-125550000D01*
G75*
G02*
X230015000Y-125799999I0J-249999D01*
G01*
X230015000Y-126700001D01*
G75*
G02*
X229765001Y-126950000I-249999J0D01*
G01*
X229239999Y-126950000D01*
G75*
G02*
X228990000Y-126700001I0J249999D01*
G01*
G37*
G36*
G01*
X227165000Y-126700001D02*
X227165000Y-125799999D01*
G75*
G02*
X227414999Y-125550000I249999J0D01*
G01*
X227940001Y-125550000D01*
G75*
G02*
X228190000Y-125799999I0J-249999D01*
G01*
X228190000Y-126700001D01*
G75*
G02*
X227940001Y-126950000I-249999J0D01*
G01*
X227414999Y-126950000D01*
G75*
G02*
X227165000Y-126700001I0J249999D01*
G01*
G37*
G36*
G01*
X233440000Y-123690001D02*
X233440000Y-122789999D01*
G75*
G02*
X233689999Y-122540000I249999J0D01*
G01*
X234215001Y-122540000D01*
G75*
G02*
X234465000Y-122789999I0J-249999D01*
G01*
X234465000Y-123690001D01*
G75*
G02*
X234215001Y-123940000I-249999J0D01*
G01*
X233689999Y-123940000D01*
G75*
G02*
X233440000Y-123690001I0J249999D01*
G01*
G37*
G36*
G01*
X231615000Y-123690001D02*
X231615000Y-122789999D01*
G75*
G02*
X231864999Y-122540000I249999J0D01*
G01*
X232390001Y-122540000D01*
G75*
G02*
X232640000Y-122789999I0J-249999D01*
G01*
X232640000Y-123690001D01*
G75*
G02*
X232390001Y-123940000I-249999J0D01*
G01*
X231864999Y-123940000D01*
G75*
G02*
X231615000Y-123690001I0J249999D01*
G01*
G37*
G36*
G01*
X260880000Y-123690001D02*
X260880000Y-122789999D01*
G75*
G02*
X261129999Y-122540000I249999J0D01*
G01*
X261655001Y-122540000D01*
G75*
G02*
X261905000Y-122789999I0J-249999D01*
G01*
X261905000Y-123690001D01*
G75*
G02*
X261655001Y-123940000I-249999J0D01*
G01*
X261129999Y-123940000D01*
G75*
G02*
X260880000Y-123690001I0J249999D01*
G01*
G37*
G36*
G01*
X259055000Y-123690001D02*
X259055000Y-122789999D01*
G75*
G02*
X259304999Y-122540000I249999J0D01*
G01*
X259830001Y-122540000D01*
G75*
G02*
X260080000Y-122789999I0J-249999D01*
G01*
X260080000Y-123690001D01*
G75*
G02*
X259830001Y-123940000I-249999J0D01*
G01*
X259304999Y-123940000D01*
G75*
G02*
X259055000Y-123690001I0J249999D01*
G01*
G37*
G36*
G01*
X203160000Y-143990001D02*
X203160000Y-143089999D01*
G75*
G02*
X203409999Y-142840000I249999J0D01*
G01*
X203935001Y-142840000D01*
G75*
G02*
X204185000Y-143089999I0J-249999D01*
G01*
X204185000Y-143990001D01*
G75*
G02*
X203935001Y-144240000I-249999J0D01*
G01*
X203409999Y-144240000D01*
G75*
G02*
X203160000Y-143990001I0J249999D01*
G01*
G37*
G36*
G01*
X201335000Y-143990001D02*
X201335000Y-143089999D01*
G75*
G02*
X201584999Y-142840000I249999J0D01*
G01*
X202110001Y-142840000D01*
G75*
G02*
X202360000Y-143089999I0J-249999D01*
G01*
X202360000Y-143990001D01*
G75*
G02*
X202110001Y-144240000I-249999J0D01*
G01*
X201584999Y-144240000D01*
G75*
G02*
X201335000Y-143990001I0J249999D01*
G01*
G37*
G36*
G01*
X208410000Y-139540001D02*
X208410000Y-138639999D01*
G75*
G02*
X208659999Y-138390000I249999J0D01*
G01*
X209185001Y-138390000D01*
G75*
G02*
X209435000Y-138639999I0J-249999D01*
G01*
X209435000Y-139540001D01*
G75*
G02*
X209185001Y-139790000I-249999J0D01*
G01*
X208659999Y-139790000D01*
G75*
G02*
X208410000Y-139540001I0J249999D01*
G01*
G37*
G36*
G01*
X206585000Y-139540001D02*
X206585000Y-138639999D01*
G75*
G02*
X206834999Y-138390000I249999J0D01*
G01*
X207360001Y-138390000D01*
G75*
G02*
X207610000Y-138639999I0J-249999D01*
G01*
X207610000Y-139540001D01*
G75*
G02*
X207360001Y-139790000I-249999J0D01*
G01*
X206834999Y-139790000D01*
G75*
G02*
X206585000Y-139540001I0J249999D01*
G01*
G37*
G36*
G01*
X207570000Y-142580001D02*
X207570000Y-141679999D01*
G75*
G02*
X207819999Y-141430000I249999J0D01*
G01*
X208345001Y-141430000D01*
G75*
G02*
X208595000Y-141679999I0J-249999D01*
G01*
X208595000Y-142580001D01*
G75*
G02*
X208345001Y-142830000I-249999J0D01*
G01*
X207819999Y-142830000D01*
G75*
G02*
X207570000Y-142580001I0J249999D01*
G01*
G37*
G36*
G01*
X205745000Y-142580001D02*
X205745000Y-141679999D01*
G75*
G02*
X205994999Y-141430000I249999J0D01*
G01*
X206520001Y-141430000D01*
G75*
G02*
X206770000Y-141679999I0J-249999D01*
G01*
X206770000Y-142580001D01*
G75*
G02*
X206520001Y-142830000I-249999J0D01*
G01*
X205994999Y-142830000D01*
G75*
G02*
X205745000Y-142580001I0J249999D01*
G01*
G37*
G36*
G01*
X207570000Y-145530001D02*
X207570000Y-144629999D01*
G75*
G02*
X207819999Y-144380000I249999J0D01*
G01*
X208345001Y-144380000D01*
G75*
G02*
X208595000Y-144629999I0J-249999D01*
G01*
X208595000Y-145530001D01*
G75*
G02*
X208345001Y-145780000I-249999J0D01*
G01*
X207819999Y-145780000D01*
G75*
G02*
X207570000Y-145530001I0J249999D01*
G01*
G37*
G36*
G01*
X205745000Y-145530001D02*
X205745000Y-144629999D01*
G75*
G02*
X205994999Y-144380000I249999J0D01*
G01*
X206520001Y-144380000D01*
G75*
G02*
X206770000Y-144629999I0J-249999D01*
G01*
X206770000Y-145530001D01*
G75*
G02*
X206520001Y-145780000I-249999J0D01*
G01*
X205994999Y-145780000D01*
G75*
G02*
X205745000Y-145530001I0J249999D01*
G01*
G37*
G36*
G01*
X203260000Y-154870001D02*
X203260000Y-153969999D01*
G75*
G02*
X203509999Y-153720000I249999J0D01*
G01*
X204035001Y-153720000D01*
G75*
G02*
X204285000Y-153969999I0J-249999D01*
G01*
X204285000Y-154870001D01*
G75*
G02*
X204035001Y-155120000I-249999J0D01*
G01*
X203509999Y-155120000D01*
G75*
G02*
X203260000Y-154870001I0J249999D01*
G01*
G37*
G36*
G01*
X201435000Y-154870001D02*
X201435000Y-153969999D01*
G75*
G02*
X201684999Y-153720000I249999J0D01*
G01*
X202210001Y-153720000D01*
G75*
G02*
X202460000Y-153969999I0J-249999D01*
G01*
X202460000Y-154870001D01*
G75*
G02*
X202210001Y-155120000I-249999J0D01*
G01*
X201684999Y-155120000D01*
G75*
G02*
X201435000Y-154870001I0J249999D01*
G01*
G37*
G36*
G01*
X208850000Y-151720001D02*
X208850000Y-150819999D01*
G75*
G02*
X209099999Y-150570000I249999J0D01*
G01*
X209625001Y-150570000D01*
G75*
G02*
X209875000Y-150819999I0J-249999D01*
G01*
X209875000Y-151720001D01*
G75*
G02*
X209625001Y-151970000I-249999J0D01*
G01*
X209099999Y-151970000D01*
G75*
G02*
X208850000Y-151720001I0J249999D01*
G01*
G37*
G36*
G01*
X207025000Y-151720001D02*
X207025000Y-150819999D01*
G75*
G02*
X207274999Y-150570000I249999J0D01*
G01*
X207800001Y-150570000D01*
G75*
G02*
X208050000Y-150819999I0J-249999D01*
G01*
X208050000Y-151720001D01*
G75*
G02*
X207800001Y-151970000I-249999J0D01*
G01*
X207274999Y-151970000D01*
G75*
G02*
X207025000Y-151720001I0J249999D01*
G01*
G37*
G36*
G01*
X207670000Y-154730001D02*
X207670000Y-153829999D01*
G75*
G02*
X207919999Y-153580000I249999J0D01*
G01*
X208445001Y-153580000D01*
G75*
G02*
X208695000Y-153829999I0J-249999D01*
G01*
X208695000Y-154730001D01*
G75*
G02*
X208445001Y-154980000I-249999J0D01*
G01*
X207919999Y-154980000D01*
G75*
G02*
X207670000Y-154730001I0J249999D01*
G01*
G37*
G36*
G01*
X205845000Y-154730001D02*
X205845000Y-153829999D01*
G75*
G02*
X206094999Y-153580000I249999J0D01*
G01*
X206620001Y-153580000D01*
G75*
G02*
X206870000Y-153829999I0J-249999D01*
G01*
X206870000Y-154730001D01*
G75*
G02*
X206620001Y-154980000I-249999J0D01*
G01*
X206094999Y-154980000D01*
G75*
G02*
X205845000Y-154730001I0J249999D01*
G01*
G37*
G36*
G01*
X207610000Y-132720001D02*
X207610000Y-131819999D01*
G75*
G02*
X207859999Y-131570000I249999J0D01*
G01*
X208385001Y-131570000D01*
G75*
G02*
X208635000Y-131819999I0J-249999D01*
G01*
X208635000Y-132720001D01*
G75*
G02*
X208385001Y-132970000I-249999J0D01*
G01*
X207859999Y-132970000D01*
G75*
G02*
X207610000Y-132720001I0J249999D01*
G01*
G37*
G36*
G01*
X205785000Y-132720001D02*
X205785000Y-131819999D01*
G75*
G02*
X206034999Y-131570000I249999J0D01*
G01*
X206560001Y-131570000D01*
G75*
G02*
X206810000Y-131819999I0J-249999D01*
G01*
X206810000Y-132720001D01*
G75*
G02*
X206560001Y-132970000I-249999J0D01*
G01*
X206034999Y-132970000D01*
G75*
G02*
X205785000Y-132720001I0J249999D01*
G01*
G37*
G36*
G01*
X216510000Y-123690001D02*
X216510000Y-122789999D01*
G75*
G02*
X216759999Y-122540000I249999J0D01*
G01*
X217285001Y-122540000D01*
G75*
G02*
X217535000Y-122789999I0J-249999D01*
G01*
X217535000Y-123690001D01*
G75*
G02*
X217285001Y-123940000I-249999J0D01*
G01*
X216759999Y-123940000D01*
G75*
G02*
X216510000Y-123690001I0J249999D01*
G01*
G37*
G36*
G01*
X214685000Y-123690001D02*
X214685000Y-122789999D01*
G75*
G02*
X214934999Y-122540000I249999J0D01*
G01*
X215460001Y-122540000D01*
G75*
G02*
X215710000Y-122789999I0J-249999D01*
G01*
X215710000Y-123690001D01*
G75*
G02*
X215460001Y-123940000I-249999J0D01*
G01*
X214934999Y-123940000D01*
G75*
G02*
X214685000Y-123690001I0J249999D01*
G01*
G37*
D13*
X244230000Y-127390000D03*
X242230000Y-128340000D03*
X242230000Y-126440000D03*
X218650000Y-143240000D03*
X216650000Y-144190000D03*
X216650000Y-142290000D03*
X235920000Y-139430000D03*
X233920000Y-140380000D03*
X233920000Y-138480000D03*
X217020000Y-155420000D03*
X215020000Y-156370000D03*
X215020000Y-154470000D03*
X253190000Y-138430000D03*
X251190000Y-139380000D03*
X251190000Y-137480000D03*
X235920000Y-150470000D03*
X233920000Y-151420000D03*
X233920000Y-149520000D03*
X225160000Y-124040000D03*
X223160000Y-124990000D03*
X223160000Y-123090000D03*
G36*
G01*
X199005000Y-154701250D02*
X199005000Y-153938750D01*
G75*
G02*
X199223750Y-153720000I218750J0D01*
G01*
X199661250Y-153720000D01*
G75*
G02*
X199880000Y-153938750I0J-218750D01*
G01*
X199880000Y-154701250D01*
G75*
G02*
X199661250Y-154920000I-218750J0D01*
G01*
X199223750Y-154920000D01*
G75*
G02*
X199005000Y-154701250I0J218750D01*
G01*
G37*
G36*
G01*
X196880000Y-154701250D02*
X196880000Y-153938750D01*
G75*
G02*
X197098750Y-153720000I218750J0D01*
G01*
X197536250Y-153720000D01*
G75*
G02*
X197755000Y-153938750I0J-218750D01*
G01*
X197755000Y-154701250D01*
G75*
G02*
X197536250Y-154920000I-218750J0D01*
G01*
X197098750Y-154920000D01*
G75*
G02*
X196880000Y-154701250I0J218750D01*
G01*
G37*
D14*
X245165000Y-123440000D03*
X242365000Y-123440000D03*
X219585000Y-139290000D03*
X216785000Y-139290000D03*
X236855000Y-135480000D03*
X234055000Y-135480000D03*
X217955000Y-151470000D03*
X215155000Y-151470000D03*
X254125000Y-134480000D03*
X251325000Y-134480000D03*
X236855000Y-146520000D03*
X234055000Y-146520000D03*
G36*
G01*
X204050000Y-139591250D02*
X204050000Y-138678750D01*
G75*
G02*
X204293750Y-138435000I243750J0D01*
G01*
X204781250Y-138435000D01*
G75*
G02*
X205025000Y-138678750I0J-243750D01*
G01*
X205025000Y-139591250D01*
G75*
G02*
X204781250Y-139835000I-243750J0D01*
G01*
X204293750Y-139835000D01*
G75*
G02*
X204050000Y-139591250I0J243750D01*
G01*
G37*
G36*
G01*
X202175000Y-139591250D02*
X202175000Y-138678750D01*
G75*
G02*
X202418750Y-138435000I243750J0D01*
G01*
X202906250Y-138435000D01*
G75*
G02*
X203150000Y-138678750I0J-243750D01*
G01*
X203150000Y-139591250D01*
G75*
G02*
X202906250Y-139835000I-243750J0D01*
G01*
X202418750Y-139835000D01*
G75*
G02*
X202175000Y-139591250I0J243750D01*
G01*
G37*
G36*
G01*
X224610000Y-128295000D02*
X224610000Y-127345000D01*
G75*
G02*
X224860000Y-127095000I250000J0D01*
G01*
X225360000Y-127095000D01*
G75*
G02*
X225610000Y-127345000I0J-250000D01*
G01*
X225610000Y-128295000D01*
G75*
G02*
X225360000Y-128545000I-250000J0D01*
G01*
X224860000Y-128545000D01*
G75*
G02*
X224610000Y-128295000I0J250000D01*
G01*
G37*
G36*
G01*
X222710000Y-128295000D02*
X222710000Y-127345000D01*
G75*
G02*
X222960000Y-127095000I250000J0D01*
G01*
X223460000Y-127095000D01*
G75*
G02*
X223710000Y-127345000I0J-250000D01*
G01*
X223710000Y-128295000D01*
G75*
G02*
X223460000Y-128545000I-250000J0D01*
G01*
X222960000Y-128545000D01*
G75*
G02*
X222710000Y-128295000I0J250000D01*
G01*
G37*
G36*
G01*
X229060000Y-123745000D02*
X229060000Y-122795000D01*
G75*
G02*
X229310000Y-122545000I250000J0D01*
G01*
X229810000Y-122545000D01*
G75*
G02*
X230060000Y-122795000I0J-250000D01*
G01*
X230060000Y-123745000D01*
G75*
G02*
X229810000Y-123995000I-250000J0D01*
G01*
X229310000Y-123995000D01*
G75*
G02*
X229060000Y-123745000I0J250000D01*
G01*
G37*
G36*
G01*
X227160000Y-123745000D02*
X227160000Y-122795000D01*
G75*
G02*
X227410000Y-122545000I250000J0D01*
G01*
X227910000Y-122545000D01*
G75*
G02*
X228160000Y-122795000I0J-250000D01*
G01*
X228160000Y-123745000D01*
G75*
G02*
X227910000Y-123995000I-250000J0D01*
G01*
X227410000Y-123995000D01*
G75*
G02*
X227160000Y-123745000I0J250000D01*
G01*
G37*
G36*
G01*
X198780000Y-144045000D02*
X198780000Y-143095000D01*
G75*
G02*
X199030000Y-142845000I250000J0D01*
G01*
X199530000Y-142845000D01*
G75*
G02*
X199780000Y-143095000I0J-250000D01*
G01*
X199780000Y-144045000D01*
G75*
G02*
X199530000Y-144295000I-250000J0D01*
G01*
X199030000Y-144295000D01*
G75*
G02*
X198780000Y-144045000I0J250000D01*
G01*
G37*
G36*
G01*
X196880000Y-144045000D02*
X196880000Y-143095000D01*
G75*
G02*
X197130000Y-142845000I250000J0D01*
G01*
X197630000Y-142845000D01*
G75*
G02*
X197880000Y-143095000I0J-250000D01*
G01*
X197880000Y-144045000D01*
G75*
G02*
X197630000Y-144295000I-250000J0D01*
G01*
X197130000Y-144295000D01*
G75*
G02*
X196880000Y-144045000I0J250000D01*
G01*
G37*
G36*
G01*
X204470000Y-151775000D02*
X204470000Y-150825000D01*
G75*
G02*
X204720000Y-150575000I250000J0D01*
G01*
X205220000Y-150575000D01*
G75*
G02*
X205470000Y-150825000I0J-250000D01*
G01*
X205470000Y-151775000D01*
G75*
G02*
X205220000Y-152025000I-250000J0D01*
G01*
X204720000Y-152025000D01*
G75*
G02*
X204470000Y-151775000I0J250000D01*
G01*
G37*
G36*
G01*
X202570000Y-151775000D02*
X202570000Y-150825000D01*
G75*
G02*
X202820000Y-150575000I250000J0D01*
G01*
X203320000Y-150575000D01*
G75*
G02*
X203570000Y-150825000I0J-250000D01*
G01*
X203570000Y-151775000D01*
G75*
G02*
X203320000Y-152025000I-250000J0D01*
G01*
X202820000Y-152025000D01*
G75*
G02*
X202570000Y-151775000I0J250000D01*
G01*
G37*
G36*
G01*
X199625000Y-151795001D02*
X199625000Y-150944999D01*
G75*
G02*
X199874999Y-150695000I249999J0D01*
G01*
X200775001Y-150695000D01*
G75*
G02*
X201025000Y-150944999I0J-249999D01*
G01*
X201025000Y-151795001D01*
G75*
G02*
X200775001Y-152045000I-249999J0D01*
G01*
X199874999Y-152045000D01*
G75*
G02*
X199625000Y-151795001I0J249999D01*
G01*
G37*
G36*
G01*
X196925000Y-151795001D02*
X196925000Y-150944999D01*
G75*
G02*
X197174999Y-150695000I249999J0D01*
G01*
X198075001Y-150695000D01*
G75*
G02*
X198325000Y-150944999I0J-249999D01*
G01*
X198325000Y-151795001D01*
G75*
G02*
X198075001Y-152045000I-249999J0D01*
G01*
X197174999Y-152045000D01*
G75*
G02*
X196925000Y-151795001I0J249999D01*
G01*
G37*
G36*
G01*
X203230000Y-123745000D02*
X203230000Y-122795000D01*
G75*
G02*
X203480000Y-122545000I250000J0D01*
G01*
X203980000Y-122545000D01*
G75*
G02*
X204230000Y-122795000I0J-250000D01*
G01*
X204230000Y-123745000D01*
G75*
G02*
X203980000Y-123995000I-250000J0D01*
G01*
X203480000Y-123995000D01*
G75*
G02*
X203230000Y-123745000I0J250000D01*
G01*
G37*
G36*
G01*
X201330000Y-123745000D02*
X201330000Y-122795000D01*
G75*
G02*
X201580000Y-122545000I250000J0D01*
G01*
X202080000Y-122545000D01*
G75*
G02*
X202330000Y-122795000I0J-250000D01*
G01*
X202330000Y-123745000D01*
G75*
G02*
X202080000Y-123995000I-250000J0D01*
G01*
X201580000Y-123995000D01*
G75*
G02*
X201330000Y-123745000I0J250000D01*
G01*
G37*
G36*
G01*
X198780000Y-129765000D02*
X198780000Y-128815000D01*
G75*
G02*
X199030000Y-128565000I250000J0D01*
G01*
X199530000Y-128565000D01*
G75*
G02*
X199780000Y-128815000I0J-250000D01*
G01*
X199780000Y-129765000D01*
G75*
G02*
X199530000Y-130015000I-250000J0D01*
G01*
X199030000Y-130015000D01*
G75*
G02*
X198780000Y-129765000I0J250000D01*
G01*
G37*
G36*
G01*
X196880000Y-129765000D02*
X196880000Y-128815000D01*
G75*
G02*
X197130000Y-128565000I250000J0D01*
G01*
X197630000Y-128565000D01*
G75*
G02*
X197880000Y-128815000I0J-250000D01*
G01*
X197880000Y-129765000D01*
G75*
G02*
X197630000Y-130015000I-250000J0D01*
G01*
X197130000Y-130015000D01*
G75*
G02*
X196880000Y-129765000I0J250000D01*
G01*
G37*
G36*
G01*
X203230000Y-126755000D02*
X203230000Y-125805000D01*
G75*
G02*
X203480000Y-125555000I250000J0D01*
G01*
X203980000Y-125555000D01*
G75*
G02*
X204230000Y-125805000I0J-250000D01*
G01*
X204230000Y-126755000D01*
G75*
G02*
X203980000Y-127005000I-250000J0D01*
G01*
X203480000Y-127005000D01*
G75*
G02*
X203230000Y-126755000I0J250000D01*
G01*
G37*
G36*
G01*
X201330000Y-126755000D02*
X201330000Y-125805000D01*
G75*
G02*
X201580000Y-125555000I250000J0D01*
G01*
X202080000Y-125555000D01*
G75*
G02*
X202330000Y-125805000I0J-250000D01*
G01*
X202330000Y-126755000D01*
G75*
G02*
X202080000Y-127005000I-250000J0D01*
G01*
X201580000Y-127005000D01*
G75*
G02*
X201330000Y-126755000I0J250000D01*
G01*
G37*
G36*
G01*
X207680000Y-123745000D02*
X207680000Y-122795000D01*
G75*
G02*
X207930000Y-122545000I250000J0D01*
G01*
X208430000Y-122545000D01*
G75*
G02*
X208680000Y-122795000I0J-250000D01*
G01*
X208680000Y-123745000D01*
G75*
G02*
X208430000Y-123995000I-250000J0D01*
G01*
X207930000Y-123995000D01*
G75*
G02*
X207680000Y-123745000I0J250000D01*
G01*
G37*
G36*
G01*
X205780000Y-123745000D02*
X205780000Y-122795000D01*
G75*
G02*
X206030000Y-122545000I250000J0D01*
G01*
X206530000Y-122545000D01*
G75*
G02*
X206780000Y-122795000I0J-250000D01*
G01*
X206780000Y-123745000D01*
G75*
G02*
X206530000Y-123995000I-250000J0D01*
G01*
X206030000Y-123995000D01*
G75*
G02*
X205780000Y-123745000I0J250000D01*
G01*
G37*
G36*
G01*
X212130000Y-126755000D02*
X212130000Y-125805000D01*
G75*
G02*
X212380000Y-125555000I250000J0D01*
G01*
X212880000Y-125555000D01*
G75*
G02*
X213130000Y-125805000I0J-250000D01*
G01*
X213130000Y-126755000D01*
G75*
G02*
X212880000Y-127005000I-250000J0D01*
G01*
X212380000Y-127005000D01*
G75*
G02*
X212130000Y-126755000I0J250000D01*
G01*
G37*
G36*
G01*
X210230000Y-126755000D02*
X210230000Y-125805000D01*
G75*
G02*
X210480000Y-125555000I250000J0D01*
G01*
X210980000Y-125555000D01*
G75*
G02*
X211230000Y-125805000I0J-250000D01*
G01*
X211230000Y-126755000D01*
G75*
G02*
X210980000Y-127005000I-250000J0D01*
G01*
X210480000Y-127005000D01*
G75*
G02*
X210230000Y-126755000I0J250000D01*
G01*
G37*
G36*
G01*
X198780000Y-132775000D02*
X198780000Y-131825000D01*
G75*
G02*
X199030000Y-131575000I250000J0D01*
G01*
X199530000Y-131575000D01*
G75*
G02*
X199780000Y-131825000I0J-250000D01*
G01*
X199780000Y-132775000D01*
G75*
G02*
X199530000Y-133025000I-250000J0D01*
G01*
X199030000Y-133025000D01*
G75*
G02*
X198780000Y-132775000I0J250000D01*
G01*
G37*
G36*
G01*
X196880000Y-132775000D02*
X196880000Y-131825000D01*
G75*
G02*
X197130000Y-131575000I250000J0D01*
G01*
X197630000Y-131575000D01*
G75*
G02*
X197880000Y-131825000I0J-250000D01*
G01*
X197880000Y-132775000D01*
G75*
G02*
X197630000Y-133025000I-250000J0D01*
G01*
X197130000Y-133025000D01*
G75*
G02*
X196880000Y-132775000I0J250000D01*
G01*
G37*
G36*
G01*
X203230000Y-129765000D02*
X203230000Y-128815000D01*
G75*
G02*
X203480000Y-128565000I250000J0D01*
G01*
X203980000Y-128565000D01*
G75*
G02*
X204230000Y-128815000I0J-250000D01*
G01*
X204230000Y-129765000D01*
G75*
G02*
X203980000Y-130015000I-250000J0D01*
G01*
X203480000Y-130015000D01*
G75*
G02*
X203230000Y-129765000I0J250000D01*
G01*
G37*
G36*
G01*
X201330000Y-129765000D02*
X201330000Y-128815000D01*
G75*
G02*
X201580000Y-128565000I250000J0D01*
G01*
X202080000Y-128565000D01*
G75*
G02*
X202330000Y-128815000I0J-250000D01*
G01*
X202330000Y-129765000D01*
G75*
G02*
X202080000Y-130015000I-250000J0D01*
G01*
X201580000Y-130015000D01*
G75*
G02*
X201330000Y-129765000I0J250000D01*
G01*
G37*
G36*
G01*
X207680000Y-126755000D02*
X207680000Y-125805000D01*
G75*
G02*
X207930000Y-125555000I250000J0D01*
G01*
X208430000Y-125555000D01*
G75*
G02*
X208680000Y-125805000I0J-250000D01*
G01*
X208680000Y-126755000D01*
G75*
G02*
X208430000Y-127005000I-250000J0D01*
G01*
X207930000Y-127005000D01*
G75*
G02*
X207680000Y-126755000I0J250000D01*
G01*
G37*
G36*
G01*
X205780000Y-126755000D02*
X205780000Y-125805000D01*
G75*
G02*
X206030000Y-125555000I250000J0D01*
G01*
X206530000Y-125555000D01*
G75*
G02*
X206780000Y-125805000I0J-250000D01*
G01*
X206780000Y-126755000D01*
G75*
G02*
X206530000Y-127005000I-250000J0D01*
G01*
X206030000Y-127005000D01*
G75*
G02*
X205780000Y-126755000I0J250000D01*
G01*
G37*
G36*
G01*
X212130000Y-123745000D02*
X212130000Y-122795000D01*
G75*
G02*
X212380000Y-122545000I250000J0D01*
G01*
X212880000Y-122545000D01*
G75*
G02*
X213130000Y-122795000I0J-250000D01*
G01*
X213130000Y-123745000D01*
G75*
G02*
X212880000Y-123995000I-250000J0D01*
G01*
X212380000Y-123995000D01*
G75*
G02*
X212130000Y-123745000I0J250000D01*
G01*
G37*
G36*
G01*
X210230000Y-123745000D02*
X210230000Y-122795000D01*
G75*
G02*
X210480000Y-122545000I250000J0D01*
G01*
X210980000Y-122545000D01*
G75*
G02*
X211230000Y-122795000I0J-250000D01*
G01*
X211230000Y-123745000D01*
G75*
G02*
X210980000Y-123995000I-250000J0D01*
G01*
X210480000Y-123995000D01*
G75*
G02*
X210230000Y-123745000I0J250000D01*
G01*
G37*
G36*
G01*
X207680000Y-129765000D02*
X207680000Y-128815000D01*
G75*
G02*
X207930000Y-128565000I250000J0D01*
G01*
X208430000Y-128565000D01*
G75*
G02*
X208680000Y-128815000I0J-250000D01*
G01*
X208680000Y-129765000D01*
G75*
G02*
X208430000Y-130015000I-250000J0D01*
G01*
X207930000Y-130015000D01*
G75*
G02*
X207680000Y-129765000I0J250000D01*
G01*
G37*
G36*
G01*
X205780000Y-129765000D02*
X205780000Y-128815000D01*
G75*
G02*
X206030000Y-128565000I250000J0D01*
G01*
X206530000Y-128565000D01*
G75*
G02*
X206780000Y-128815000I0J-250000D01*
G01*
X206780000Y-129765000D01*
G75*
G02*
X206530000Y-130015000I-250000J0D01*
G01*
X206030000Y-130015000D01*
G75*
G02*
X205780000Y-129765000I0J250000D01*
G01*
G37*
G36*
G01*
X203230000Y-132775000D02*
X203230000Y-131825000D01*
G75*
G02*
X203480000Y-131575000I250000J0D01*
G01*
X203980000Y-131575000D01*
G75*
G02*
X204230000Y-131825000I0J-250000D01*
G01*
X204230000Y-132775000D01*
G75*
G02*
X203980000Y-133025000I-250000J0D01*
G01*
X203480000Y-133025000D01*
G75*
G02*
X203230000Y-132775000I0J250000D01*
G01*
G37*
G36*
G01*
X201330000Y-132775000D02*
X201330000Y-131825000D01*
G75*
G02*
X201580000Y-131575000I250000J0D01*
G01*
X202080000Y-131575000D01*
G75*
G02*
X202330000Y-131825000I0J-250000D01*
G01*
X202330000Y-132775000D01*
G75*
G02*
X202080000Y-133025000I-250000J0D01*
G01*
X201580000Y-133025000D01*
G75*
G02*
X201330000Y-132775000I0J250000D01*
G01*
G37*
G36*
G01*
X198780000Y-123745000D02*
X198780000Y-122795000D01*
G75*
G02*
X199030000Y-122545000I250000J0D01*
G01*
X199530000Y-122545000D01*
G75*
G02*
X199780000Y-122795000I0J-250000D01*
G01*
X199780000Y-123745000D01*
G75*
G02*
X199530000Y-123995000I-250000J0D01*
G01*
X199030000Y-123995000D01*
G75*
G02*
X198780000Y-123745000I0J250000D01*
G01*
G37*
G36*
G01*
X196880000Y-123745000D02*
X196880000Y-122795000D01*
G75*
G02*
X197130000Y-122545000I250000J0D01*
G01*
X197630000Y-122545000D01*
G75*
G02*
X197880000Y-122795000I0J-250000D01*
G01*
X197880000Y-123745000D01*
G75*
G02*
X197630000Y-123995000I-250000J0D01*
G01*
X197130000Y-123995000D01*
G75*
G02*
X196880000Y-123745000I0J250000D01*
G01*
G37*
G36*
G01*
X198780000Y-126755000D02*
X198780000Y-125805000D01*
G75*
G02*
X199030000Y-125555000I250000J0D01*
G01*
X199530000Y-125555000D01*
G75*
G02*
X199780000Y-125805000I0J-250000D01*
G01*
X199780000Y-126755000D01*
G75*
G02*
X199530000Y-127005000I-250000J0D01*
G01*
X199030000Y-127005000D01*
G75*
G02*
X198780000Y-126755000I0J250000D01*
G01*
G37*
G36*
G01*
X196880000Y-126755000D02*
X196880000Y-125805000D01*
G75*
G02*
X197130000Y-125555000I250000J0D01*
G01*
X197630000Y-125555000D01*
G75*
G02*
X197880000Y-125805000I0J-250000D01*
G01*
X197880000Y-126755000D01*
G75*
G02*
X197630000Y-127005000I-250000J0D01*
G01*
X197130000Y-127005000D01*
G75*
G02*
X196880000Y-126755000I0J250000D01*
G01*
G37*
D15*
X164230000Y-146980000D03*
X164230000Y-149480000D03*
X164230000Y-151480000D03*
D16*
X164230000Y-153980000D03*
D17*
X166940000Y-157050000D03*
X166940000Y-143910000D03*
D18*
X123670000Y-162820000D03*
G36*
G01*
X122920000Y-159470000D02*
X124420000Y-159470000D01*
G75*
G02*
X124670000Y-159720000I0J-250000D01*
G01*
X124670000Y-160920000D01*
G75*
G02*
X124420000Y-161170000I-250000J0D01*
G01*
X122920000Y-161170000D01*
G75*
G02*
X122670000Y-160920000I0J250000D01*
G01*
X122670000Y-159720000D01*
G75*
G02*
X122920000Y-159470000I250000J0D01*
G01*
G37*
X116770000Y-162800000D03*
G36*
G01*
X116020000Y-159450000D02*
X117520000Y-159450000D01*
G75*
G02*
X117770000Y-159700000I0J-250000D01*
G01*
X117770000Y-160900000D01*
G75*
G02*
X117520000Y-161150000I-250000J0D01*
G01*
X116020000Y-161150000D01*
G75*
G02*
X115770000Y-160900000I0J250000D01*
G01*
X115770000Y-159700000D01*
G75*
G02*
X116020000Y-159450000I250000J0D01*
G01*
G37*
D19*
X116700000Y-139280000D03*
X116700000Y-141480000D03*
X115000000Y-141480000D03*
X115000000Y-139280000D03*
G36*
G01*
X158780000Y-139565000D02*
X158780000Y-139265000D01*
G75*
G02*
X158930000Y-139115000I150000J0D01*
G01*
X160580000Y-139115000D01*
G75*
G02*
X160730000Y-139265000I0J-150000D01*
G01*
X160730000Y-139565000D01*
G75*
G02*
X160580000Y-139715000I-150000J0D01*
G01*
X158930000Y-139715000D01*
G75*
G02*
X158780000Y-139565000I0J150000D01*
G01*
G37*
G36*
G01*
X158780000Y-140835000D02*
X158780000Y-140535000D01*
G75*
G02*
X158930000Y-140385000I150000J0D01*
G01*
X160580000Y-140385000D01*
G75*
G02*
X160730000Y-140535000I0J-150000D01*
G01*
X160730000Y-140835000D01*
G75*
G02*
X160580000Y-140985000I-150000J0D01*
G01*
X158930000Y-140985000D01*
G75*
G02*
X158780000Y-140835000I0J150000D01*
G01*
G37*
G36*
G01*
X158780000Y-142105000D02*
X158780000Y-141805000D01*
G75*
G02*
X158930000Y-141655000I150000J0D01*
G01*
X160580000Y-141655000D01*
G75*
G02*
X160730000Y-141805000I0J-150000D01*
G01*
X160730000Y-142105000D01*
G75*
G02*
X160580000Y-142255000I-150000J0D01*
G01*
X158930000Y-142255000D01*
G75*
G02*
X158780000Y-142105000I0J150000D01*
G01*
G37*
G36*
G01*
X158780000Y-143375000D02*
X158780000Y-143075000D01*
G75*
G02*
X158930000Y-142925000I150000J0D01*
G01*
X160580000Y-142925000D01*
G75*
G02*
X160730000Y-143075000I0J-150000D01*
G01*
X160730000Y-143375000D01*
G75*
G02*
X160580000Y-143525000I-150000J0D01*
G01*
X158930000Y-143525000D01*
G75*
G02*
X158780000Y-143375000I0J150000D01*
G01*
G37*
G36*
G01*
X153830000Y-143375000D02*
X153830000Y-143075000D01*
G75*
G02*
X153980000Y-142925000I150000J0D01*
G01*
X155630000Y-142925000D01*
G75*
G02*
X155780000Y-143075000I0J-150000D01*
G01*
X155780000Y-143375000D01*
G75*
G02*
X155630000Y-143525000I-150000J0D01*
G01*
X153980000Y-143525000D01*
G75*
G02*
X153830000Y-143375000I0J150000D01*
G01*
G37*
G36*
G01*
X153830000Y-142105000D02*
X153830000Y-141805000D01*
G75*
G02*
X153980000Y-141655000I150000J0D01*
G01*
X155630000Y-141655000D01*
G75*
G02*
X155780000Y-141805000I0J-150000D01*
G01*
X155780000Y-142105000D01*
G75*
G02*
X155630000Y-142255000I-150000J0D01*
G01*
X153980000Y-142255000D01*
G75*
G02*
X153830000Y-142105000I0J150000D01*
G01*
G37*
G36*
G01*
X153830000Y-140835000D02*
X153830000Y-140535000D01*
G75*
G02*
X153980000Y-140385000I150000J0D01*
G01*
X155630000Y-140385000D01*
G75*
G02*
X155780000Y-140535000I0J-150000D01*
G01*
X155780000Y-140835000D01*
G75*
G02*
X155630000Y-140985000I-150000J0D01*
G01*
X153980000Y-140985000D01*
G75*
G02*
X153830000Y-140835000I0J150000D01*
G01*
G37*
G36*
G01*
X153830000Y-139565000D02*
X153830000Y-139265000D01*
G75*
G02*
X153980000Y-139115000I150000J0D01*
G01*
X155630000Y-139115000D01*
G75*
G02*
X155780000Y-139265000I0J-150000D01*
G01*
X155780000Y-139565000D01*
G75*
G02*
X155630000Y-139715000I-150000J0D01*
G01*
X153980000Y-139715000D01*
G75*
G02*
X153830000Y-139565000I0J150000D01*
G01*
G37*
G36*
G01*
X152480000Y-141095000D02*
X152480000Y-140795000D01*
G75*
G02*
X152630000Y-140645000I150000J0D01*
G01*
X154280000Y-140645000D01*
G75*
G02*
X154430000Y-140795000I0J-150000D01*
G01*
X154430000Y-141095000D01*
G75*
G02*
X154280000Y-141245000I-150000J0D01*
G01*
X152630000Y-141245000D01*
G75*
G02*
X152480000Y-141095000I0J150000D01*
G01*
G37*
G36*
G01*
X152480000Y-142365000D02*
X152480000Y-142065000D01*
G75*
G02*
X152630000Y-141915000I150000J0D01*
G01*
X154280000Y-141915000D01*
G75*
G02*
X154430000Y-142065000I0J-150000D01*
G01*
X154430000Y-142365000D01*
G75*
G02*
X154280000Y-142515000I-150000J0D01*
G01*
X152630000Y-142515000D01*
G75*
G02*
X152480000Y-142365000I0J150000D01*
G01*
G37*
G36*
G01*
X152480000Y-143635000D02*
X152480000Y-143335000D01*
G75*
G02*
X152630000Y-143185000I150000J0D01*
G01*
X154280000Y-143185000D01*
G75*
G02*
X154430000Y-143335000I0J-150000D01*
G01*
X154430000Y-143635000D01*
G75*
G02*
X154280000Y-143785000I-150000J0D01*
G01*
X152630000Y-143785000D01*
G75*
G02*
X152480000Y-143635000I0J150000D01*
G01*
G37*
G36*
G01*
X152480000Y-144905000D02*
X152480000Y-144605000D01*
G75*
G02*
X152630000Y-144455000I150000J0D01*
G01*
X154280000Y-144455000D01*
G75*
G02*
X154430000Y-144605000I0J-150000D01*
G01*
X154430000Y-144905000D01*
G75*
G02*
X154280000Y-145055000I-150000J0D01*
G01*
X152630000Y-145055000D01*
G75*
G02*
X152480000Y-144905000I0J150000D01*
G01*
G37*
G36*
G01*
X147530000Y-144905000D02*
X147530000Y-144605000D01*
G75*
G02*
X147680000Y-144455000I150000J0D01*
G01*
X149330000Y-144455000D01*
G75*
G02*
X149480000Y-144605000I0J-150000D01*
G01*
X149480000Y-144905000D01*
G75*
G02*
X149330000Y-145055000I-150000J0D01*
G01*
X147680000Y-145055000D01*
G75*
G02*
X147530000Y-144905000I0J150000D01*
G01*
G37*
G36*
G01*
X147530000Y-143635000D02*
X147530000Y-143335000D01*
G75*
G02*
X147680000Y-143185000I150000J0D01*
G01*
X149330000Y-143185000D01*
G75*
G02*
X149480000Y-143335000I0J-150000D01*
G01*
X149480000Y-143635000D01*
G75*
G02*
X149330000Y-143785000I-150000J0D01*
G01*
X147680000Y-143785000D01*
G75*
G02*
X147530000Y-143635000I0J150000D01*
G01*
G37*
G36*
G01*
X147530000Y-142365000D02*
X147530000Y-142065000D01*
G75*
G02*
X147680000Y-141915000I150000J0D01*
G01*
X149330000Y-141915000D01*
G75*
G02*
X149480000Y-142065000I0J-150000D01*
G01*
X149480000Y-142365000D01*
G75*
G02*
X149330000Y-142515000I-150000J0D01*
G01*
X147680000Y-142515000D01*
G75*
G02*
X147530000Y-142365000I0J150000D01*
G01*
G37*
G36*
G01*
X147530000Y-141095000D02*
X147530000Y-140795000D01*
G75*
G02*
X147680000Y-140645000I150000J0D01*
G01*
X149330000Y-140645000D01*
G75*
G02*
X149480000Y-140795000I0J-150000D01*
G01*
X149480000Y-141095000D01*
G75*
G02*
X149330000Y-141245000I-150000J0D01*
G01*
X147680000Y-141245000D01*
G75*
G02*
X147530000Y-141095000I0J150000D01*
G01*
G37*
G36*
G01*
X121320000Y-154840000D02*
X121620000Y-154840000D01*
G75*
G02*
X121770000Y-154990000I0J-150000D01*
G01*
X121770000Y-156640000D01*
G75*
G02*
X121620000Y-156790000I-150000J0D01*
G01*
X121320000Y-156790000D01*
G75*
G02*
X121170000Y-156640000I0J150000D01*
G01*
X121170000Y-154990000D01*
G75*
G02*
X121320000Y-154840000I150000J0D01*
G01*
G37*
G36*
G01*
X120050000Y-154840000D02*
X120350000Y-154840000D01*
G75*
G02*
X120500000Y-154990000I0J-150000D01*
G01*
X120500000Y-156640000D01*
G75*
G02*
X120350000Y-156790000I-150000J0D01*
G01*
X120050000Y-156790000D01*
G75*
G02*
X119900000Y-156640000I0J150000D01*
G01*
X119900000Y-154990000D01*
G75*
G02*
X120050000Y-154840000I150000J0D01*
G01*
G37*
G36*
G01*
X118780000Y-154840000D02*
X119080000Y-154840000D01*
G75*
G02*
X119230000Y-154990000I0J-150000D01*
G01*
X119230000Y-156640000D01*
G75*
G02*
X119080000Y-156790000I-150000J0D01*
G01*
X118780000Y-156790000D01*
G75*
G02*
X118630000Y-156640000I0J150000D01*
G01*
X118630000Y-154990000D01*
G75*
G02*
X118780000Y-154840000I150000J0D01*
G01*
G37*
G36*
G01*
X117510000Y-154840000D02*
X117810000Y-154840000D01*
G75*
G02*
X117960000Y-154990000I0J-150000D01*
G01*
X117960000Y-156640000D01*
G75*
G02*
X117810000Y-156790000I-150000J0D01*
G01*
X117510000Y-156790000D01*
G75*
G02*
X117360000Y-156640000I0J150000D01*
G01*
X117360000Y-154990000D01*
G75*
G02*
X117510000Y-154840000I150000J0D01*
G01*
G37*
G36*
G01*
X116240000Y-154840000D02*
X116540000Y-154840000D01*
G75*
G02*
X116690000Y-154990000I0J-150000D01*
G01*
X116690000Y-156640000D01*
G75*
G02*
X116540000Y-156790000I-150000J0D01*
G01*
X116240000Y-156790000D01*
G75*
G02*
X116090000Y-156640000I0J150000D01*
G01*
X116090000Y-154990000D01*
G75*
G02*
X116240000Y-154840000I150000J0D01*
G01*
G37*
G36*
G01*
X114970000Y-154840000D02*
X115270000Y-154840000D01*
G75*
G02*
X115420000Y-154990000I0J-150000D01*
G01*
X115420000Y-156640000D01*
G75*
G02*
X115270000Y-156790000I-150000J0D01*
G01*
X114970000Y-156790000D01*
G75*
G02*
X114820000Y-156640000I0J150000D01*
G01*
X114820000Y-154990000D01*
G75*
G02*
X114970000Y-154840000I150000J0D01*
G01*
G37*
G36*
G01*
X113700000Y-154840000D02*
X114000000Y-154840000D01*
G75*
G02*
X114150000Y-154990000I0J-150000D01*
G01*
X114150000Y-156640000D01*
G75*
G02*
X114000000Y-156790000I-150000J0D01*
G01*
X113700000Y-156790000D01*
G75*
G02*
X113550000Y-156640000I0J150000D01*
G01*
X113550000Y-154990000D01*
G75*
G02*
X113700000Y-154840000I150000J0D01*
G01*
G37*
G36*
G01*
X113700000Y-149890000D02*
X114000000Y-149890000D01*
G75*
G02*
X114150000Y-150040000I0J-150000D01*
G01*
X114150000Y-151690000D01*
G75*
G02*
X114000000Y-151840000I-150000J0D01*
G01*
X113700000Y-151840000D01*
G75*
G02*
X113550000Y-151690000I0J150000D01*
G01*
X113550000Y-150040000D01*
G75*
G02*
X113700000Y-149890000I150000J0D01*
G01*
G37*
G36*
G01*
X114970000Y-149890000D02*
X115270000Y-149890000D01*
G75*
G02*
X115420000Y-150040000I0J-150000D01*
G01*
X115420000Y-151690000D01*
G75*
G02*
X115270000Y-151840000I-150000J0D01*
G01*
X114970000Y-151840000D01*
G75*
G02*
X114820000Y-151690000I0J150000D01*
G01*
X114820000Y-150040000D01*
G75*
G02*
X114970000Y-149890000I150000J0D01*
G01*
G37*
G36*
G01*
X116240000Y-149890000D02*
X116540000Y-149890000D01*
G75*
G02*
X116690000Y-150040000I0J-150000D01*
G01*
X116690000Y-151690000D01*
G75*
G02*
X116540000Y-151840000I-150000J0D01*
G01*
X116240000Y-151840000D01*
G75*
G02*
X116090000Y-151690000I0J150000D01*
G01*
X116090000Y-150040000D01*
G75*
G02*
X116240000Y-149890000I150000J0D01*
G01*
G37*
G36*
G01*
X117510000Y-149890000D02*
X117810000Y-149890000D01*
G75*
G02*
X117960000Y-150040000I0J-150000D01*
G01*
X117960000Y-151690000D01*
G75*
G02*
X117810000Y-151840000I-150000J0D01*
G01*
X117510000Y-151840000D01*
G75*
G02*
X117360000Y-151690000I0J150000D01*
G01*
X117360000Y-150040000D01*
G75*
G02*
X117510000Y-149890000I150000J0D01*
G01*
G37*
G36*
G01*
X118780000Y-149890000D02*
X119080000Y-149890000D01*
G75*
G02*
X119230000Y-150040000I0J-150000D01*
G01*
X119230000Y-151690000D01*
G75*
G02*
X119080000Y-151840000I-150000J0D01*
G01*
X118780000Y-151840000D01*
G75*
G02*
X118630000Y-151690000I0J150000D01*
G01*
X118630000Y-150040000D01*
G75*
G02*
X118780000Y-149890000I150000J0D01*
G01*
G37*
G36*
G01*
X120050000Y-149890000D02*
X120350000Y-149890000D01*
G75*
G02*
X120500000Y-150040000I0J-150000D01*
G01*
X120500000Y-151690000D01*
G75*
G02*
X120350000Y-151840000I-150000J0D01*
G01*
X120050000Y-151840000D01*
G75*
G02*
X119900000Y-151690000I0J150000D01*
G01*
X119900000Y-150040000D01*
G75*
G02*
X120050000Y-149890000I150000J0D01*
G01*
G37*
G36*
G01*
X121320000Y-149890000D02*
X121620000Y-149890000D01*
G75*
G02*
X121770000Y-150040000I0J-150000D01*
G01*
X121770000Y-151690000D01*
G75*
G02*
X121620000Y-151840000I-150000J0D01*
G01*
X121320000Y-151840000D01*
G75*
G02*
X121170000Y-151690000I0J150000D01*
G01*
X121170000Y-150040000D01*
G75*
G02*
X121320000Y-149890000I150000J0D01*
G01*
G37*
G36*
G01*
X108349000Y-151642000D02*
X108049000Y-151642000D01*
G75*
G02*
X107899000Y-151492000I0J150000D01*
G01*
X107899000Y-149842000D01*
G75*
G02*
X108049000Y-149692000I150000J0D01*
G01*
X108349000Y-149692000D01*
G75*
G02*
X108499000Y-149842000I0J-150000D01*
G01*
X108499000Y-151492000D01*
G75*
G02*
X108349000Y-151642000I-150000J0D01*
G01*
G37*
G36*
G01*
X109619000Y-151642000D02*
X109319000Y-151642000D01*
G75*
G02*
X109169000Y-151492000I0J150000D01*
G01*
X109169000Y-149842000D01*
G75*
G02*
X109319000Y-149692000I150000J0D01*
G01*
X109619000Y-149692000D01*
G75*
G02*
X109769000Y-149842000I0J-150000D01*
G01*
X109769000Y-151492000D01*
G75*
G02*
X109619000Y-151642000I-150000J0D01*
G01*
G37*
G36*
G01*
X110889000Y-151642000D02*
X110589000Y-151642000D01*
G75*
G02*
X110439000Y-151492000I0J150000D01*
G01*
X110439000Y-149842000D01*
G75*
G02*
X110589000Y-149692000I150000J0D01*
G01*
X110889000Y-149692000D01*
G75*
G02*
X111039000Y-149842000I0J-150000D01*
G01*
X111039000Y-151492000D01*
G75*
G02*
X110889000Y-151642000I-150000J0D01*
G01*
G37*
G36*
G01*
X112159000Y-151642000D02*
X111859000Y-151642000D01*
G75*
G02*
X111709000Y-151492000I0J150000D01*
G01*
X111709000Y-149842000D01*
G75*
G02*
X111859000Y-149692000I150000J0D01*
G01*
X112159000Y-149692000D01*
G75*
G02*
X112309000Y-149842000I0J-150000D01*
G01*
X112309000Y-151492000D01*
G75*
G02*
X112159000Y-151642000I-150000J0D01*
G01*
G37*
G36*
G01*
X112159000Y-156592000D02*
X111859000Y-156592000D01*
G75*
G02*
X111709000Y-156442000I0J150000D01*
G01*
X111709000Y-154792000D01*
G75*
G02*
X111859000Y-154642000I150000J0D01*
G01*
X112159000Y-154642000D01*
G75*
G02*
X112309000Y-154792000I0J-150000D01*
G01*
X112309000Y-156442000D01*
G75*
G02*
X112159000Y-156592000I-150000J0D01*
G01*
G37*
G36*
G01*
X110889000Y-156592000D02*
X110589000Y-156592000D01*
G75*
G02*
X110439000Y-156442000I0J150000D01*
G01*
X110439000Y-154792000D01*
G75*
G02*
X110589000Y-154642000I150000J0D01*
G01*
X110889000Y-154642000D01*
G75*
G02*
X111039000Y-154792000I0J-150000D01*
G01*
X111039000Y-156442000D01*
G75*
G02*
X110889000Y-156592000I-150000J0D01*
G01*
G37*
G36*
G01*
X109619000Y-156592000D02*
X109319000Y-156592000D01*
G75*
G02*
X109169000Y-156442000I0J150000D01*
G01*
X109169000Y-154792000D01*
G75*
G02*
X109319000Y-154642000I150000J0D01*
G01*
X109619000Y-154642000D01*
G75*
G02*
X109769000Y-154792000I0J-150000D01*
G01*
X109769000Y-156442000D01*
G75*
G02*
X109619000Y-156592000I-150000J0D01*
G01*
G37*
G36*
G01*
X108349000Y-156592000D02*
X108049000Y-156592000D01*
G75*
G02*
X107899000Y-156442000I0J150000D01*
G01*
X107899000Y-154792000D01*
G75*
G02*
X108049000Y-154642000I150000J0D01*
G01*
X108349000Y-154642000D01*
G75*
G02*
X108499000Y-154792000I0J-150000D01*
G01*
X108499000Y-156442000D01*
G75*
G02*
X108349000Y-156592000I-150000J0D01*
G01*
G37*
G36*
G01*
X104395000Y-154630000D02*
X104695000Y-154630000D01*
G75*
G02*
X104845000Y-154780000I0J-150000D01*
G01*
X104845000Y-156430000D01*
G75*
G02*
X104695000Y-156580000I-150000J0D01*
G01*
X104395000Y-156580000D01*
G75*
G02*
X104245000Y-156430000I0J150000D01*
G01*
X104245000Y-154780000D01*
G75*
G02*
X104395000Y-154630000I150000J0D01*
G01*
G37*
G36*
G01*
X103125000Y-154630000D02*
X103425000Y-154630000D01*
G75*
G02*
X103575000Y-154780000I0J-150000D01*
G01*
X103575000Y-156430000D01*
G75*
G02*
X103425000Y-156580000I-150000J0D01*
G01*
X103125000Y-156580000D01*
G75*
G02*
X102975000Y-156430000I0J150000D01*
G01*
X102975000Y-154780000D01*
G75*
G02*
X103125000Y-154630000I150000J0D01*
G01*
G37*
G36*
G01*
X101855000Y-154630000D02*
X102155000Y-154630000D01*
G75*
G02*
X102305000Y-154780000I0J-150000D01*
G01*
X102305000Y-156430000D01*
G75*
G02*
X102155000Y-156580000I-150000J0D01*
G01*
X101855000Y-156580000D01*
G75*
G02*
X101705000Y-156430000I0J150000D01*
G01*
X101705000Y-154780000D01*
G75*
G02*
X101855000Y-154630000I150000J0D01*
G01*
G37*
G36*
G01*
X100585000Y-154630000D02*
X100885000Y-154630000D01*
G75*
G02*
X101035000Y-154780000I0J-150000D01*
G01*
X101035000Y-156430000D01*
G75*
G02*
X100885000Y-156580000I-150000J0D01*
G01*
X100585000Y-156580000D01*
G75*
G02*
X100435000Y-156430000I0J150000D01*
G01*
X100435000Y-154780000D01*
G75*
G02*
X100585000Y-154630000I150000J0D01*
G01*
G37*
G36*
G01*
X100585000Y-149680000D02*
X100885000Y-149680000D01*
G75*
G02*
X101035000Y-149830000I0J-150000D01*
G01*
X101035000Y-151480000D01*
G75*
G02*
X100885000Y-151630000I-150000J0D01*
G01*
X100585000Y-151630000D01*
G75*
G02*
X100435000Y-151480000I0J150000D01*
G01*
X100435000Y-149830000D01*
G75*
G02*
X100585000Y-149680000I150000J0D01*
G01*
G37*
G36*
G01*
X101855000Y-149680000D02*
X102155000Y-149680000D01*
G75*
G02*
X102305000Y-149830000I0J-150000D01*
G01*
X102305000Y-151480000D01*
G75*
G02*
X102155000Y-151630000I-150000J0D01*
G01*
X101855000Y-151630000D01*
G75*
G02*
X101705000Y-151480000I0J150000D01*
G01*
X101705000Y-149830000D01*
G75*
G02*
X101855000Y-149680000I150000J0D01*
G01*
G37*
G36*
G01*
X103125000Y-149680000D02*
X103425000Y-149680000D01*
G75*
G02*
X103575000Y-149830000I0J-150000D01*
G01*
X103575000Y-151480000D01*
G75*
G02*
X103425000Y-151630000I-150000J0D01*
G01*
X103125000Y-151630000D01*
G75*
G02*
X102975000Y-151480000I0J150000D01*
G01*
X102975000Y-149830000D01*
G75*
G02*
X103125000Y-149680000I150000J0D01*
G01*
G37*
G36*
G01*
X104395000Y-149680000D02*
X104695000Y-149680000D01*
G75*
G02*
X104845000Y-149830000I0J-150000D01*
G01*
X104845000Y-151480000D01*
G75*
G02*
X104695000Y-151630000I-150000J0D01*
G01*
X104395000Y-151630000D01*
G75*
G02*
X104245000Y-151480000I0J150000D01*
G01*
X104245000Y-149830000D01*
G75*
G02*
X104395000Y-149680000I150000J0D01*
G01*
G37*
G36*
G01*
X162710000Y-130499999D02*
X162710000Y-131400001D01*
G75*
G02*
X162460001Y-131650000I-249999J0D01*
G01*
X161934999Y-131650000D01*
G75*
G02*
X161685000Y-131400001I0J249999D01*
G01*
X161685000Y-130499999D01*
G75*
G02*
X161934999Y-130250000I249999J0D01*
G01*
X162460001Y-130250000D01*
G75*
G02*
X162710000Y-130499999I0J-249999D01*
G01*
G37*
G36*
G01*
X164535000Y-130499999D02*
X164535000Y-131400001D01*
G75*
G02*
X164285001Y-131650000I-249999J0D01*
G01*
X163759999Y-131650000D01*
G75*
G02*
X163510000Y-131400001I0J249999D01*
G01*
X163510000Y-130499999D01*
G75*
G02*
X163759999Y-130250000I249999J0D01*
G01*
X164285001Y-130250000D01*
G75*
G02*
X164535000Y-130499999I0J-249999D01*
G01*
G37*
G36*
G01*
X106844001Y-150682000D02*
X105943999Y-150682000D01*
G75*
G02*
X105694000Y-150432001I0J249999D01*
G01*
X105694000Y-149906999D01*
G75*
G02*
X105943999Y-149657000I249999J0D01*
G01*
X106844001Y-149657000D01*
G75*
G02*
X107094000Y-149906999I0J-249999D01*
G01*
X107094000Y-150432001D01*
G75*
G02*
X106844001Y-150682000I-249999J0D01*
G01*
G37*
G36*
G01*
X106844001Y-152507000D02*
X105943999Y-152507000D01*
G75*
G02*
X105694000Y-152257001I0J249999D01*
G01*
X105694000Y-151731999D01*
G75*
G02*
X105943999Y-151482000I249999J0D01*
G01*
X106844001Y-151482000D01*
G75*
G02*
X107094000Y-151731999I0J-249999D01*
G01*
X107094000Y-152257001D01*
G75*
G02*
X106844001Y-152507000I-249999J0D01*
G01*
G37*
G36*
G01*
X105939999Y-155527500D02*
X106840001Y-155527500D01*
G75*
G02*
X107090000Y-155777499I0J-249999D01*
G01*
X107090000Y-156302501D01*
G75*
G02*
X106840001Y-156552500I-249999J0D01*
G01*
X105939999Y-156552500D01*
G75*
G02*
X105690000Y-156302501I0J249999D01*
G01*
X105690000Y-155777499D01*
G75*
G02*
X105939999Y-155527500I249999J0D01*
G01*
G37*
G36*
G01*
X105939999Y-153702500D02*
X106840001Y-153702500D01*
G75*
G02*
X107090000Y-153952499I0J-249999D01*
G01*
X107090000Y-154477501D01*
G75*
G02*
X106840001Y-154727500I-249999J0D01*
G01*
X105939999Y-154727500D01*
G75*
G02*
X105690000Y-154477501I0J249999D01*
G01*
X105690000Y-153952499D01*
G75*
G02*
X105939999Y-153702500I249999J0D01*
G01*
G37*
G36*
G01*
X111450000Y-159620001D02*
X111450000Y-158719999D01*
G75*
G02*
X111699999Y-158470000I249999J0D01*
G01*
X112225001Y-158470000D01*
G75*
G02*
X112475000Y-158719999I0J-249999D01*
G01*
X112475000Y-159620001D01*
G75*
G02*
X112225001Y-159870000I-249999J0D01*
G01*
X111699999Y-159870000D01*
G75*
G02*
X111450000Y-159620001I0J249999D01*
G01*
G37*
G36*
G01*
X109625000Y-159620001D02*
X109625000Y-158719999D01*
G75*
G02*
X109874999Y-158470000I249999J0D01*
G01*
X110400001Y-158470000D01*
G75*
G02*
X110650000Y-158719999I0J-249999D01*
G01*
X110650000Y-159620001D01*
G75*
G02*
X110400001Y-159870000I-249999J0D01*
G01*
X109874999Y-159870000D01*
G75*
G02*
X109625000Y-159620001I0J249999D01*
G01*
G37*
G36*
G01*
X108010000Y-159620001D02*
X108010000Y-158719999D01*
G75*
G02*
X108259999Y-158470000I249999J0D01*
G01*
X108785001Y-158470000D01*
G75*
G02*
X109035000Y-158719999I0J-249999D01*
G01*
X109035000Y-159620001D01*
G75*
G02*
X108785001Y-159870000I-249999J0D01*
G01*
X108259999Y-159870000D01*
G75*
G02*
X108010000Y-159620001I0J249999D01*
G01*
G37*
G36*
G01*
X106185000Y-159620001D02*
X106185000Y-158719999D01*
G75*
G02*
X106434999Y-158470000I249999J0D01*
G01*
X106960001Y-158470000D01*
G75*
G02*
X107210000Y-158719999I0J-249999D01*
G01*
X107210000Y-159620001D01*
G75*
G02*
X106960001Y-159870000I-249999J0D01*
G01*
X106434999Y-159870000D01*
G75*
G02*
X106185000Y-159620001I0J249999D01*
G01*
G37*
G36*
G01*
X100270000Y-123090001D02*
X100270000Y-121789999D01*
G75*
G02*
X100519999Y-121540000I249999J0D01*
G01*
X101220001Y-121540000D01*
G75*
G02*
X101470000Y-121789999I0J-249999D01*
G01*
X101470000Y-123090001D01*
G75*
G02*
X101220001Y-123340000I-249999J0D01*
G01*
X100519999Y-123340000D01*
G75*
G02*
X100270000Y-123090001I0J249999D01*
G01*
G37*
G36*
G01*
X94670000Y-123090001D02*
X94670000Y-121789999D01*
G75*
G02*
X94919999Y-121540000I249999J0D01*
G01*
X95620001Y-121540000D01*
G75*
G02*
X95870000Y-121789999I0J-249999D01*
G01*
X95870000Y-123090001D01*
G75*
G02*
X95620001Y-123340000I-249999J0D01*
G01*
X94919999Y-123340000D01*
G75*
G02*
X94670000Y-123090001I0J249999D01*
G01*
G37*
G36*
G01*
X99270000Y-125590000D02*
X99270000Y-124340000D01*
G75*
G02*
X99420000Y-124190000I150000J0D01*
G01*
X99720000Y-124190000D01*
G75*
G02*
X99870000Y-124340000I0J-150000D01*
G01*
X99870000Y-125590000D01*
G75*
G02*
X99720000Y-125740000I-150000J0D01*
G01*
X99420000Y-125740000D01*
G75*
G02*
X99270000Y-125590000I0J150000D01*
G01*
G37*
G36*
G01*
X98270000Y-125590000D02*
X98270000Y-124340000D01*
G75*
G02*
X98420000Y-124190000I150000J0D01*
G01*
X98720000Y-124190000D01*
G75*
G02*
X98870000Y-124340000I0J-150000D01*
G01*
X98870000Y-125590000D01*
G75*
G02*
X98720000Y-125740000I-150000J0D01*
G01*
X98420000Y-125740000D01*
G75*
G02*
X98270000Y-125590000I0J150000D01*
G01*
G37*
G36*
G01*
X97270000Y-125590000D02*
X97270000Y-124340000D01*
G75*
G02*
X97420000Y-124190000I150000J0D01*
G01*
X97720000Y-124190000D01*
G75*
G02*
X97870000Y-124340000I0J-150000D01*
G01*
X97870000Y-125590000D01*
G75*
G02*
X97720000Y-125740000I-150000J0D01*
G01*
X97420000Y-125740000D01*
G75*
G02*
X97270000Y-125590000I0J150000D01*
G01*
G37*
G36*
G01*
X96270000Y-125590000D02*
X96270000Y-124340000D01*
G75*
G02*
X96420000Y-124190000I150000J0D01*
G01*
X96720000Y-124190000D01*
G75*
G02*
X96870000Y-124340000I0J-150000D01*
G01*
X96870000Y-125590000D01*
G75*
G02*
X96720000Y-125740000I-150000J0D01*
G01*
X96420000Y-125740000D01*
G75*
G02*
X96270000Y-125590000I0J150000D01*
G01*
G37*
G36*
G01*
X92380000Y-123110001D02*
X92380000Y-121809999D01*
G75*
G02*
X92629999Y-121560000I249999J0D01*
G01*
X93330001Y-121560000D01*
G75*
G02*
X93580000Y-121809999I0J-249999D01*
G01*
X93580000Y-123110001D01*
G75*
G02*
X93330001Y-123360000I-249999J0D01*
G01*
X92629999Y-123360000D01*
G75*
G02*
X92380000Y-123110001I0J249999D01*
G01*
G37*
G36*
G01*
X86780000Y-123110001D02*
X86780000Y-121809999D01*
G75*
G02*
X87029999Y-121560000I249999J0D01*
G01*
X87730001Y-121560000D01*
G75*
G02*
X87980000Y-121809999I0J-249999D01*
G01*
X87980000Y-123110001D01*
G75*
G02*
X87730001Y-123360000I-249999J0D01*
G01*
X87029999Y-123360000D01*
G75*
G02*
X86780000Y-123110001I0J249999D01*
G01*
G37*
G36*
G01*
X91380000Y-125610000D02*
X91380000Y-124360000D01*
G75*
G02*
X91530000Y-124210000I150000J0D01*
G01*
X91830000Y-124210000D01*
G75*
G02*
X91980000Y-124360000I0J-150000D01*
G01*
X91980000Y-125610000D01*
G75*
G02*
X91830000Y-125760000I-150000J0D01*
G01*
X91530000Y-125760000D01*
G75*
G02*
X91380000Y-125610000I0J150000D01*
G01*
G37*
G36*
G01*
X90380000Y-125610000D02*
X90380000Y-124360000D01*
G75*
G02*
X90530000Y-124210000I150000J0D01*
G01*
X90830000Y-124210000D01*
G75*
G02*
X90980000Y-124360000I0J-150000D01*
G01*
X90980000Y-125610000D01*
G75*
G02*
X90830000Y-125760000I-150000J0D01*
G01*
X90530000Y-125760000D01*
G75*
G02*
X90380000Y-125610000I0J150000D01*
G01*
G37*
G36*
G01*
X89380000Y-125610000D02*
X89380000Y-124360000D01*
G75*
G02*
X89530000Y-124210000I150000J0D01*
G01*
X89830000Y-124210000D01*
G75*
G02*
X89980000Y-124360000I0J-150000D01*
G01*
X89980000Y-125610000D01*
G75*
G02*
X89830000Y-125760000I-150000J0D01*
G01*
X89530000Y-125760000D01*
G75*
G02*
X89380000Y-125610000I0J150000D01*
G01*
G37*
G36*
G01*
X88380000Y-125610000D02*
X88380000Y-124360000D01*
G75*
G02*
X88530000Y-124210000I150000J0D01*
G01*
X88830000Y-124210000D01*
G75*
G02*
X88980000Y-124360000I0J-150000D01*
G01*
X88980000Y-125610000D01*
G75*
G02*
X88830000Y-125760000I-150000J0D01*
G01*
X88530000Y-125760000D01*
G75*
G02*
X88380000Y-125610000I0J150000D01*
G01*
G37*
D20*
X146820000Y-155820000D03*
X146820000Y-153320000D03*
G36*
G01*
X146095000Y-149970000D02*
X147545000Y-149970000D01*
G75*
G02*
X147795000Y-150220000I0J-250000D01*
G01*
X147795000Y-151420000D01*
G75*
G02*
X147545000Y-151670000I-250000J0D01*
G01*
X146095000Y-151670000D01*
G75*
G02*
X145845000Y-151420000I0J250000D01*
G01*
X145845000Y-150220000D01*
G75*
G02*
X146095000Y-149970000I250000J0D01*
G01*
G37*
X139880000Y-155820000D03*
X139880000Y-153320000D03*
G36*
G01*
X139155000Y-149970000D02*
X140605000Y-149970000D01*
G75*
G02*
X140855000Y-150220000I0J-250000D01*
G01*
X140855000Y-151420000D01*
G75*
G02*
X140605000Y-151670000I-250000J0D01*
G01*
X139155000Y-151670000D01*
G75*
G02*
X138905000Y-151420000I0J250000D01*
G01*
X138905000Y-150220000D01*
G75*
G02*
X139155000Y-149970000I250000J0D01*
G01*
G37*
D21*
X128960000Y-153950000D03*
X131500000Y-153950000D03*
D22*
X134040000Y-153950000D03*
D23*
X145940000Y-142060000D03*
X145940000Y-145960000D03*
X144670000Y-142060000D03*
X144670000Y-145960000D03*
X143400000Y-142060000D03*
X143400000Y-145960000D03*
X142130000Y-142060000D03*
X142130000Y-145960000D03*
X140860000Y-142060000D03*
X140860000Y-145960000D03*
D21*
X128970000Y-157620000D03*
X131510000Y-157620000D03*
D22*
X134050000Y-157620000D03*
D24*
X143980000Y-161000000D03*
G36*
G01*
X115380000Y-143095000D02*
X115380000Y-144045000D01*
G75*
G02*
X115130000Y-144295000I-250000J0D01*
G01*
X114630000Y-144295000D01*
G75*
G02*
X114380000Y-144045000I0J250000D01*
G01*
X114380000Y-143095000D01*
G75*
G02*
X114630000Y-142845000I250000J0D01*
G01*
X115130000Y-142845000D01*
G75*
G02*
X115380000Y-143095000I0J-250000D01*
G01*
G37*
G36*
G01*
X117280000Y-143095000D02*
X117280000Y-144045000D01*
G75*
G02*
X117030000Y-144295000I-250000J0D01*
G01*
X116530000Y-144295000D01*
G75*
G02*
X116280000Y-144045000I0J250000D01*
G01*
X116280000Y-143095000D01*
G75*
G02*
X116530000Y-142845000I250000J0D01*
G01*
X117030000Y-142845000D01*
G75*
G02*
X117280000Y-143095000I0J-250000D01*
G01*
G37*
G36*
G01*
X116290000Y-137705000D02*
X116290000Y-136755000D01*
G75*
G02*
X116540000Y-136505000I250000J0D01*
G01*
X117040000Y-136505000D01*
G75*
G02*
X117290000Y-136755000I0J-250000D01*
G01*
X117290000Y-137705000D01*
G75*
G02*
X117040000Y-137955000I-250000J0D01*
G01*
X116540000Y-137955000D01*
G75*
G02*
X116290000Y-137705000I0J250000D01*
G01*
G37*
G36*
G01*
X114390000Y-137705000D02*
X114390000Y-136755000D01*
G75*
G02*
X114640000Y-136505000I250000J0D01*
G01*
X115140000Y-136505000D01*
G75*
G02*
X115390000Y-136755000I0J-250000D01*
G01*
X115390000Y-137705000D01*
G75*
G02*
X115140000Y-137955000I-250000J0D01*
G01*
X114640000Y-137955000D01*
G75*
G02*
X114390000Y-137705000I0J250000D01*
G01*
G37*
D25*
X101620000Y-142140000D03*
D26*
X94020000Y-142140000D03*
D27*
X130500000Y-125420000D03*
X127960000Y-125420000D03*
X125420000Y-125420000D03*
X122880000Y-125420000D03*
X120340000Y-125420000D03*
X117800000Y-125420000D03*
X115260000Y-125420000D03*
X112720000Y-125420000D03*
X110180000Y-125420000D03*
X107640000Y-125420000D03*
X130500000Y-127960000D03*
X127960000Y-127960000D03*
X125420000Y-127960000D03*
X122880000Y-127960000D03*
X120340000Y-127960000D03*
X117800000Y-127960000D03*
X115260000Y-127960000D03*
X112720000Y-127960000D03*
X110180000Y-127960000D03*
G36*
G01*
X108240000Y-128810000D02*
X107040000Y-128810000D01*
G75*
G02*
X106790000Y-128560000I0J250000D01*
G01*
X106790000Y-127360000D01*
G75*
G02*
X107040000Y-127110000I250000J0D01*
G01*
X108240000Y-127110000D01*
G75*
G02*
X108490000Y-127360000I0J-250000D01*
G01*
X108490000Y-128560000D01*
G75*
G02*
X108240000Y-128810000I-250000J0D01*
G01*
G37*
G36*
G01*
X150630000Y-146169999D02*
X150630000Y-147070001D01*
G75*
G02*
X150380001Y-147320000I-249999J0D01*
G01*
X149854999Y-147320000D01*
G75*
G02*
X149605000Y-147070001I0J249999D01*
G01*
X149605000Y-146169999D01*
G75*
G02*
X149854999Y-145920000I249999J0D01*
G01*
X150380001Y-145920000D01*
G75*
G02*
X150630000Y-146169999I0J-249999D01*
G01*
G37*
G36*
G01*
X152455000Y-146169999D02*
X152455000Y-147070001D01*
G75*
G02*
X152205001Y-147320000I-249999J0D01*
G01*
X151679999Y-147320000D01*
G75*
G02*
X151430000Y-147070001I0J249999D01*
G01*
X151430000Y-146169999D01*
G75*
G02*
X151679999Y-145920000I249999J0D01*
G01*
X152205001Y-145920000D01*
G75*
G02*
X152455000Y-146169999I0J-249999D01*
G01*
G37*
D18*
X157100000Y-133040000D03*
G36*
G01*
X157850000Y-136390000D02*
X156350000Y-136390000D01*
G75*
G02*
X156100000Y-136140000I0J250000D01*
G01*
X156100000Y-134940000D01*
G75*
G02*
X156350000Y-134690000I250000J0D01*
G01*
X157850000Y-134690000D01*
G75*
G02*
X158100000Y-134940000I0J-250000D01*
G01*
X158100000Y-136140000D01*
G75*
G02*
X157850000Y-136390000I-250000J0D01*
G01*
G37*
D27*
X148560000Y-133830000D03*
X146020000Y-133830000D03*
X143480000Y-133830000D03*
X148560000Y-136370000D03*
X146020000Y-136370000D03*
G36*
G01*
X144080000Y-137220000D02*
X142880000Y-137220000D01*
G75*
G02*
X142630000Y-136970000I0J250000D01*
G01*
X142630000Y-135770000D01*
G75*
G02*
X142880000Y-135520000I250000J0D01*
G01*
X144080000Y-135520000D01*
G75*
G02*
X144330000Y-135770000I0J-250000D01*
G01*
X144330000Y-136970000D01*
G75*
G02*
X144080000Y-137220000I-250000J0D01*
G01*
G37*
D28*
X120970000Y-116270000D03*
X118470000Y-116270000D03*
G36*
G01*
X115120000Y-116995000D02*
X115120000Y-115545000D01*
G75*
G02*
X115370000Y-115295000I250000J0D01*
G01*
X116570000Y-115295000D01*
G75*
G02*
X116820000Y-115545000I0J-250000D01*
G01*
X116820000Y-116995000D01*
G75*
G02*
X116570000Y-117245000I-250000J0D01*
G01*
X115370000Y-117245000D01*
G75*
G02*
X115120000Y-116995000I0J250000D01*
G01*
G37*
X109920000Y-116270000D03*
X107420000Y-116270000D03*
G36*
G01*
X104070000Y-116995000D02*
X104070000Y-115545000D01*
G75*
G02*
X104320000Y-115295000I250000J0D01*
G01*
X105520000Y-115295000D01*
G75*
G02*
X105770000Y-115545000I0J-250000D01*
G01*
X105770000Y-116995000D01*
G75*
G02*
X105520000Y-117245000I-250000J0D01*
G01*
X104320000Y-117245000D01*
G75*
G02*
X104070000Y-116995000I0J250000D01*
G01*
G37*
X155080000Y-126070000D03*
X152580000Y-126070000D03*
G36*
G01*
X149230000Y-126795000D02*
X149230000Y-125345000D01*
G75*
G02*
X149480000Y-125095000I250000J0D01*
G01*
X150680000Y-125095000D01*
G75*
G02*
X150930000Y-125345000I0J-250000D01*
G01*
X150930000Y-126795000D01*
G75*
G02*
X150680000Y-127045000I-250000J0D01*
G01*
X149480000Y-127045000D01*
G75*
G02*
X149230000Y-126795000I0J250000D01*
G01*
G37*
X166020000Y-126070000D03*
X163520000Y-126070000D03*
G36*
G01*
X160170000Y-126795000D02*
X160170000Y-125345000D01*
G75*
G02*
X160420000Y-125095000I250000J0D01*
G01*
X161620000Y-125095000D01*
G75*
G02*
X161870000Y-125345000I0J-250000D01*
G01*
X161870000Y-126795000D01*
G75*
G02*
X161620000Y-127045000I-250000J0D01*
G01*
X160420000Y-127045000D01*
G75*
G02*
X160170000Y-126795000I0J250000D01*
G01*
G37*
X144140000Y-126070000D03*
X141640000Y-126070000D03*
G36*
G01*
X138290000Y-126795000D02*
X138290000Y-125345000D01*
G75*
G02*
X138540000Y-125095000I250000J0D01*
G01*
X139740000Y-125095000D01*
G75*
G02*
X139990000Y-125345000I0J-250000D01*
G01*
X139990000Y-126795000D01*
G75*
G02*
X139740000Y-127045000I-250000J0D01*
G01*
X138540000Y-127045000D01*
G75*
G02*
X138290000Y-126795000I0J250000D01*
G01*
G37*
X165710000Y-116280000D03*
X163210000Y-116280000D03*
G36*
G01*
X159860000Y-117005000D02*
X159860000Y-115555000D01*
G75*
G02*
X160110000Y-115305000I250000J0D01*
G01*
X161310000Y-115305000D01*
G75*
G02*
X161560000Y-115555000I0J-250000D01*
G01*
X161560000Y-117005000D01*
G75*
G02*
X161310000Y-117255000I-250000J0D01*
G01*
X160110000Y-117255000D01*
G75*
G02*
X159860000Y-117005000I0J250000D01*
G01*
G37*
X154680000Y-116320000D03*
X152180000Y-116320000D03*
G36*
G01*
X148830000Y-117045000D02*
X148830000Y-115595000D01*
G75*
G02*
X149080000Y-115345000I250000J0D01*
G01*
X150280000Y-115345000D01*
G75*
G02*
X150530000Y-115595000I0J-250000D01*
G01*
X150530000Y-117045000D01*
G75*
G02*
X150280000Y-117295000I-250000J0D01*
G01*
X149080000Y-117295000D01*
G75*
G02*
X148830000Y-117045000I0J250000D01*
G01*
G37*
X143720000Y-116330000D03*
X141220000Y-116330000D03*
G36*
G01*
X137870000Y-117055000D02*
X137870000Y-115605000D01*
G75*
G02*
X138120000Y-115355000I250000J0D01*
G01*
X139320000Y-115355000D01*
G75*
G02*
X139570000Y-115605000I0J-250000D01*
G01*
X139570000Y-117055000D01*
G75*
G02*
X139320000Y-117305000I-250000J0D01*
G01*
X138120000Y-117305000D01*
G75*
G02*
X137870000Y-117055000I0J250000D01*
G01*
G37*
X132730000Y-116330000D03*
X130230000Y-116330000D03*
G36*
G01*
X126880000Y-117055000D02*
X126880000Y-115605000D01*
G75*
G02*
X127130000Y-115355000I250000J0D01*
G01*
X128330000Y-115355000D01*
G75*
G02*
X128580000Y-115605000I0J-250000D01*
G01*
X128580000Y-117055000D01*
G75*
G02*
X128330000Y-117305000I-250000J0D01*
G01*
X127130000Y-117305000D01*
G75*
G02*
X126880000Y-117055000I0J250000D01*
G01*
G37*
D15*
X156200000Y-161100000D03*
X153700000Y-161100000D03*
X151700000Y-161100000D03*
D16*
X149200000Y-161100000D03*
D17*
X146130000Y-163810000D03*
X159270000Y-163810000D03*
D15*
X138780000Y-161080000D03*
X136280000Y-161080000D03*
X134280000Y-161080000D03*
D16*
X131780000Y-161080000D03*
D17*
X128710000Y-163790000D03*
X141850000Y-163790000D03*
G36*
G01*
X87695000Y-159337500D02*
X87695000Y-158862500D01*
G75*
G02*
X87932500Y-158625000I237500J0D01*
G01*
X88682500Y-158625000D01*
G75*
G02*
X88920000Y-158862500I0J-237500D01*
G01*
X88920000Y-159337500D01*
G75*
G02*
X88682500Y-159575000I-237500J0D01*
G01*
X87932500Y-159575000D01*
G75*
G02*
X87695000Y-159337500I0J237500D01*
G01*
G37*
G36*
G01*
X87695000Y-161877500D02*
X87695000Y-161402500D01*
G75*
G02*
X87932500Y-161165000I237500J0D01*
G01*
X88682500Y-161165000D01*
G75*
G02*
X88920000Y-161402500I0J-237500D01*
G01*
X88920000Y-161877500D01*
G75*
G02*
X88682500Y-162115000I-237500J0D01*
G01*
X87932500Y-162115000D01*
G75*
G02*
X87695000Y-161877500I0J237500D01*
G01*
G37*
G36*
G01*
X87695000Y-164417500D02*
X87695000Y-163942500D01*
G75*
G02*
X87932500Y-163705000I237500J0D01*
G01*
X88682500Y-163705000D01*
G75*
G02*
X88920000Y-163942500I0J-237500D01*
G01*
X88920000Y-164417500D01*
G75*
G02*
X88682500Y-164655000I-237500J0D01*
G01*
X87932500Y-164655000D01*
G75*
G02*
X87695000Y-164417500I0J237500D01*
G01*
G37*
G36*
G01*
X77720000Y-164417500D02*
X77720000Y-163942500D01*
G75*
G02*
X77957500Y-163705000I237500J0D01*
G01*
X78707500Y-163705000D01*
G75*
G02*
X78945000Y-163942500I0J-237500D01*
G01*
X78945000Y-164417500D01*
G75*
G02*
X78707500Y-164655000I-237500J0D01*
G01*
X77957500Y-164655000D01*
G75*
G02*
X77720000Y-164417500I0J237500D01*
G01*
G37*
G36*
G01*
X77720000Y-161877500D02*
X77720000Y-161402500D01*
G75*
G02*
X77957500Y-161165000I237500J0D01*
G01*
X78707500Y-161165000D01*
G75*
G02*
X78945000Y-161402500I0J-237500D01*
G01*
X78945000Y-161877500D01*
G75*
G02*
X78707500Y-162115000I-237500J0D01*
G01*
X77957500Y-162115000D01*
G75*
G02*
X77720000Y-161877500I0J237500D01*
G01*
G37*
G36*
G01*
X77720000Y-159337500D02*
X77720000Y-158862500D01*
G75*
G02*
X77957500Y-158625000I237500J0D01*
G01*
X78707500Y-158625000D01*
G75*
G02*
X78945000Y-158862500I0J-237500D01*
G01*
X78945000Y-159337500D01*
G75*
G02*
X78707500Y-159575000I-237500J0D01*
G01*
X77957500Y-159575000D01*
G75*
G02*
X77720000Y-159337500I0J237500D01*
G01*
G37*
G36*
G01*
X99865000Y-159387500D02*
X99865000Y-158912500D01*
G75*
G02*
X100102500Y-158675000I237500J0D01*
G01*
X100852500Y-158675000D01*
G75*
G02*
X101090000Y-158912500I0J-237500D01*
G01*
X101090000Y-159387500D01*
G75*
G02*
X100852500Y-159625000I-237500J0D01*
G01*
X100102500Y-159625000D01*
G75*
G02*
X99865000Y-159387500I0J237500D01*
G01*
G37*
G36*
G01*
X99865000Y-161927500D02*
X99865000Y-161452500D01*
G75*
G02*
X100102500Y-161215000I237500J0D01*
G01*
X100852500Y-161215000D01*
G75*
G02*
X101090000Y-161452500I0J-237500D01*
G01*
X101090000Y-161927500D01*
G75*
G02*
X100852500Y-162165000I-237500J0D01*
G01*
X100102500Y-162165000D01*
G75*
G02*
X99865000Y-161927500I0J237500D01*
G01*
G37*
G36*
G01*
X99865000Y-164467500D02*
X99865000Y-163992500D01*
G75*
G02*
X100102500Y-163755000I237500J0D01*
G01*
X100852500Y-163755000D01*
G75*
G02*
X101090000Y-163992500I0J-237500D01*
G01*
X101090000Y-164467500D01*
G75*
G02*
X100852500Y-164705000I-237500J0D01*
G01*
X100102500Y-164705000D01*
G75*
G02*
X99865000Y-164467500I0J237500D01*
G01*
G37*
G36*
G01*
X89890000Y-164467500D02*
X89890000Y-163992500D01*
G75*
G02*
X90127500Y-163755000I237500J0D01*
G01*
X90877500Y-163755000D01*
G75*
G02*
X91115000Y-163992500I0J-237500D01*
G01*
X91115000Y-164467500D01*
G75*
G02*
X90877500Y-164705000I-237500J0D01*
G01*
X90127500Y-164705000D01*
G75*
G02*
X89890000Y-164467500I0J237500D01*
G01*
G37*
G36*
G01*
X89890000Y-161927500D02*
X89890000Y-161452500D01*
G75*
G02*
X90127500Y-161215000I237500J0D01*
G01*
X90877500Y-161215000D01*
G75*
G02*
X91115000Y-161452500I0J-237500D01*
G01*
X91115000Y-161927500D01*
G75*
G02*
X90877500Y-162165000I-237500J0D01*
G01*
X90127500Y-162165000D01*
G75*
G02*
X89890000Y-161927500I0J237500D01*
G01*
G37*
G36*
G01*
X89890000Y-159387500D02*
X89890000Y-158912500D01*
G75*
G02*
X90127500Y-158675000I237500J0D01*
G01*
X90877500Y-158675000D01*
G75*
G02*
X91115000Y-158912500I0J-237500D01*
G01*
X91115000Y-159387500D01*
G75*
G02*
X90877500Y-159625000I-237500J0D01*
G01*
X90127500Y-159625000D01*
G75*
G02*
X89890000Y-159387500I0J237500D01*
G01*
G37*
D29*
X85070000Y-137450000D03*
G36*
G01*
X81720000Y-138200000D02*
X81720000Y-136700000D01*
G75*
G02*
X81970000Y-136450000I250000J0D01*
G01*
X83170000Y-136450000D01*
G75*
G02*
X83420000Y-136700000I0J-250000D01*
G01*
X83420000Y-138200000D01*
G75*
G02*
X83170000Y-138450000I-250000J0D01*
G01*
X81970000Y-138450000D01*
G75*
G02*
X81720000Y-138200000I0J250000D01*
G01*
G37*
G36*
G01*
X107100000Y-164655000D02*
X107100000Y-164955000D01*
G75*
G02*
X106950000Y-165105000I-150000J0D01*
G01*
X105300000Y-165105000D01*
G75*
G02*
X105150000Y-164955000I0J150000D01*
G01*
X105150000Y-164655000D01*
G75*
G02*
X105300000Y-164505000I150000J0D01*
G01*
X106950000Y-164505000D01*
G75*
G02*
X107100000Y-164655000I0J-150000D01*
G01*
G37*
G36*
G01*
X107100000Y-163385000D02*
X107100000Y-163685000D01*
G75*
G02*
X106950000Y-163835000I-150000J0D01*
G01*
X105300000Y-163835000D01*
G75*
G02*
X105150000Y-163685000I0J150000D01*
G01*
X105150000Y-163385000D01*
G75*
G02*
X105300000Y-163235000I150000J0D01*
G01*
X106950000Y-163235000D01*
G75*
G02*
X107100000Y-163385000I0J-150000D01*
G01*
G37*
G36*
G01*
X107100000Y-162115000D02*
X107100000Y-162415000D01*
G75*
G02*
X106950000Y-162565000I-150000J0D01*
G01*
X105300000Y-162565000D01*
G75*
G02*
X105150000Y-162415000I0J150000D01*
G01*
X105150000Y-162115000D01*
G75*
G02*
X105300000Y-161965000I150000J0D01*
G01*
X106950000Y-161965000D01*
G75*
G02*
X107100000Y-162115000I0J-150000D01*
G01*
G37*
G36*
G01*
X107100000Y-160845000D02*
X107100000Y-161145000D01*
G75*
G02*
X106950000Y-161295000I-150000J0D01*
G01*
X105300000Y-161295000D01*
G75*
G02*
X105150000Y-161145000I0J150000D01*
G01*
X105150000Y-160845000D01*
G75*
G02*
X105300000Y-160695000I150000J0D01*
G01*
X106950000Y-160695000D01*
G75*
G02*
X107100000Y-160845000I0J-150000D01*
G01*
G37*
G36*
G01*
X112050000Y-160845000D02*
X112050000Y-161145000D01*
G75*
G02*
X111900000Y-161295000I-150000J0D01*
G01*
X110250000Y-161295000D01*
G75*
G02*
X110100000Y-161145000I0J150000D01*
G01*
X110100000Y-160845000D01*
G75*
G02*
X110250000Y-160695000I150000J0D01*
G01*
X111900000Y-160695000D01*
G75*
G02*
X112050000Y-160845000I0J-150000D01*
G01*
G37*
G36*
G01*
X112050000Y-162115000D02*
X112050000Y-162415000D01*
G75*
G02*
X111900000Y-162565000I-150000J0D01*
G01*
X110250000Y-162565000D01*
G75*
G02*
X110100000Y-162415000I0J150000D01*
G01*
X110100000Y-162115000D01*
G75*
G02*
X110250000Y-161965000I150000J0D01*
G01*
X111900000Y-161965000D01*
G75*
G02*
X112050000Y-162115000I0J-150000D01*
G01*
G37*
G36*
G01*
X112050000Y-163385000D02*
X112050000Y-163685000D01*
G75*
G02*
X111900000Y-163835000I-150000J0D01*
G01*
X110250000Y-163835000D01*
G75*
G02*
X110100000Y-163685000I0J150000D01*
G01*
X110100000Y-163385000D01*
G75*
G02*
X110250000Y-163235000I150000J0D01*
G01*
X111900000Y-163235000D01*
G75*
G02*
X112050000Y-163385000I0J-150000D01*
G01*
G37*
G36*
G01*
X112050000Y-164655000D02*
X112050000Y-164955000D01*
G75*
G02*
X111900000Y-165105000I-150000J0D01*
G01*
X110250000Y-165105000D01*
G75*
G02*
X110100000Y-164955000I0J150000D01*
G01*
X110100000Y-164655000D01*
G75*
G02*
X110250000Y-164505000I150000J0D01*
G01*
X111900000Y-164505000D01*
G75*
G02*
X112050000Y-164655000I0J-150000D01*
G01*
G37*
G36*
G01*
X89550001Y-151860000D02*
X88649999Y-151860000D01*
G75*
G02*
X88400000Y-151610001I0J249999D01*
G01*
X88400000Y-151084999D01*
G75*
G02*
X88649999Y-150835000I249999J0D01*
G01*
X89550001Y-150835000D01*
G75*
G02*
X89800000Y-151084999I0J-249999D01*
G01*
X89800000Y-151610001D01*
G75*
G02*
X89550001Y-151860000I-249999J0D01*
G01*
G37*
G36*
G01*
X89550001Y-153685000D02*
X88649999Y-153685000D01*
G75*
G02*
X88400000Y-153435001I0J249999D01*
G01*
X88400000Y-152909999D01*
G75*
G02*
X88649999Y-152660000I249999J0D01*
G01*
X89550001Y-152660000D01*
G75*
G02*
X89800000Y-152909999I0J-249999D01*
G01*
X89800000Y-153435001D01*
G75*
G02*
X89550001Y-153685000I-249999J0D01*
G01*
G37*
G36*
G01*
X89570001Y-143880000D02*
X88669999Y-143880000D01*
G75*
G02*
X88420000Y-143630001I0J249999D01*
G01*
X88420000Y-143104999D01*
G75*
G02*
X88669999Y-142855000I249999J0D01*
G01*
X89570001Y-142855000D01*
G75*
G02*
X89820000Y-143104999I0J-249999D01*
G01*
X89820000Y-143630001D01*
G75*
G02*
X89570001Y-143880000I-249999J0D01*
G01*
G37*
G36*
G01*
X89570001Y-145705000D02*
X88669999Y-145705000D01*
G75*
G02*
X88420000Y-145455001I0J249999D01*
G01*
X88420000Y-144929999D01*
G75*
G02*
X88669999Y-144680000I249999J0D01*
G01*
X89570001Y-144680000D01*
G75*
G02*
X89820000Y-144929999I0J-249999D01*
G01*
X89820000Y-145455001D01*
G75*
G02*
X89570001Y-145705000I-249999J0D01*
G01*
G37*
G36*
G01*
X79030001Y-151900000D02*
X78129999Y-151900000D01*
G75*
G02*
X77880000Y-151650001I0J249999D01*
G01*
X77880000Y-151124999D01*
G75*
G02*
X78129999Y-150875000I249999J0D01*
G01*
X79030001Y-150875000D01*
G75*
G02*
X79280000Y-151124999I0J-249999D01*
G01*
X79280000Y-151650001D01*
G75*
G02*
X79030001Y-151900000I-249999J0D01*
G01*
G37*
G36*
G01*
X79030001Y-153725000D02*
X78129999Y-153725000D01*
G75*
G02*
X77880000Y-153475001I0J249999D01*
G01*
X77880000Y-152949999D01*
G75*
G02*
X78129999Y-152700000I249999J0D01*
G01*
X79030001Y-152700000D01*
G75*
G02*
X79280000Y-152949999I0J-249999D01*
G01*
X79280000Y-153475001D01*
G75*
G02*
X79030001Y-153725000I-249999J0D01*
G01*
G37*
G36*
G01*
X79010001Y-143880000D02*
X78109999Y-143880000D01*
G75*
G02*
X77860000Y-143630001I0J249999D01*
G01*
X77860000Y-143104999D01*
G75*
G02*
X78109999Y-142855000I249999J0D01*
G01*
X79010001Y-142855000D01*
G75*
G02*
X79260000Y-143104999I0J-249999D01*
G01*
X79260000Y-143630001D01*
G75*
G02*
X79010001Y-143880000I-249999J0D01*
G01*
G37*
G36*
G01*
X79010001Y-145705000D02*
X78109999Y-145705000D01*
G75*
G02*
X77860000Y-145455001I0J249999D01*
G01*
X77860000Y-144929999D01*
G75*
G02*
X78109999Y-144680000I249999J0D01*
G01*
X79010001Y-144680000D01*
G75*
G02*
X79260000Y-144929999I0J-249999D01*
G01*
X79260000Y-145455001D01*
G75*
G02*
X79010001Y-145705000I-249999J0D01*
G01*
G37*
G36*
G01*
X89500001Y-135890000D02*
X88599999Y-135890000D01*
G75*
G02*
X88350000Y-135640001I0J249999D01*
G01*
X88350000Y-135114999D01*
G75*
G02*
X88599999Y-134865000I249999J0D01*
G01*
X89500001Y-134865000D01*
G75*
G02*
X89750000Y-135114999I0J-249999D01*
G01*
X89750000Y-135640001D01*
G75*
G02*
X89500001Y-135890000I-249999J0D01*
G01*
G37*
G36*
G01*
X89500001Y-137715000D02*
X88599999Y-137715000D01*
G75*
G02*
X88350000Y-137465001I0J249999D01*
G01*
X88350000Y-136939999D01*
G75*
G02*
X88599999Y-136690000I249999J0D01*
G01*
X89500001Y-136690000D01*
G75*
G02*
X89750000Y-136939999I0J-249999D01*
G01*
X89750000Y-137465001D01*
G75*
G02*
X89500001Y-137715000I-249999J0D01*
G01*
G37*
G36*
G01*
X79000001Y-135860000D02*
X78099999Y-135860000D01*
G75*
G02*
X77850000Y-135610001I0J249999D01*
G01*
X77850000Y-135084999D01*
G75*
G02*
X78099999Y-134835000I249999J0D01*
G01*
X79000001Y-134835000D01*
G75*
G02*
X79250000Y-135084999I0J-249999D01*
G01*
X79250000Y-135610001D01*
G75*
G02*
X79000001Y-135860000I-249999J0D01*
G01*
G37*
G36*
G01*
X79000001Y-137685000D02*
X78099999Y-137685000D01*
G75*
G02*
X77850000Y-137435001I0J249999D01*
G01*
X77850000Y-136909999D01*
G75*
G02*
X78099999Y-136660000I249999J0D01*
G01*
X79000001Y-136660000D01*
G75*
G02*
X79250000Y-136909999I0J-249999D01*
G01*
X79250000Y-137435001D01*
G75*
G02*
X79000001Y-137685000I-249999J0D01*
G01*
G37*
G36*
G01*
X89520001Y-127900000D02*
X88619999Y-127900000D01*
G75*
G02*
X88370000Y-127650001I0J249999D01*
G01*
X88370000Y-127124999D01*
G75*
G02*
X88619999Y-126875000I249999J0D01*
G01*
X89520001Y-126875000D01*
G75*
G02*
X89770000Y-127124999I0J-249999D01*
G01*
X89770000Y-127650001D01*
G75*
G02*
X89520001Y-127900000I-249999J0D01*
G01*
G37*
G36*
G01*
X89520001Y-129725000D02*
X88619999Y-129725000D01*
G75*
G02*
X88370000Y-129475001I0J249999D01*
G01*
X88370000Y-128949999D01*
G75*
G02*
X88619999Y-128700000I249999J0D01*
G01*
X89520001Y-128700000D01*
G75*
G02*
X89770000Y-128949999I0J-249999D01*
G01*
X89770000Y-129475001D01*
G75*
G02*
X89520001Y-129725000I-249999J0D01*
G01*
G37*
G36*
G01*
X78990001Y-127910000D02*
X78089999Y-127910000D01*
G75*
G02*
X77840000Y-127660001I0J249999D01*
G01*
X77840000Y-127134999D01*
G75*
G02*
X78089999Y-126885000I249999J0D01*
G01*
X78990001Y-126885000D01*
G75*
G02*
X79240000Y-127134999I0J-249999D01*
G01*
X79240000Y-127660001D01*
G75*
G02*
X78990001Y-127910000I-249999J0D01*
G01*
G37*
G36*
G01*
X78990001Y-129735000D02*
X78089999Y-129735000D01*
G75*
G02*
X77840000Y-129485001I0J249999D01*
G01*
X77840000Y-128959999D01*
G75*
G02*
X78089999Y-128710000I249999J0D01*
G01*
X78990001Y-128710000D01*
G75*
G02*
X79240000Y-128959999I0J-249999D01*
G01*
X79240000Y-129485001D01*
G75*
G02*
X78990001Y-129735000I-249999J0D01*
G01*
G37*
G36*
G01*
X102747500Y-161589999D02*
X102747500Y-162490001D01*
G75*
G02*
X102497501Y-162740000I-249999J0D01*
G01*
X101972499Y-162740000D01*
G75*
G02*
X101722500Y-162490001I0J249999D01*
G01*
X101722500Y-161589999D01*
G75*
G02*
X101972499Y-161340000I249999J0D01*
G01*
X102497501Y-161340000D01*
G75*
G02*
X102747500Y-161589999I0J-249999D01*
G01*
G37*
G36*
G01*
X104572500Y-161589999D02*
X104572500Y-162490001D01*
G75*
G02*
X104322501Y-162740000I-249999J0D01*
G01*
X103797499Y-162740000D01*
G75*
G02*
X103547500Y-162490001I0J249999D01*
G01*
X103547500Y-161589999D01*
G75*
G02*
X103797499Y-161340000I249999J0D01*
G01*
X104322501Y-161340000D01*
G75*
G02*
X104572500Y-161589999I0J-249999D01*
G01*
G37*
G36*
G01*
X103550000Y-165460001D02*
X103550000Y-164559999D01*
G75*
G02*
X103799999Y-164310000I249999J0D01*
G01*
X104325001Y-164310000D01*
G75*
G02*
X104575000Y-164559999I0J-249999D01*
G01*
X104575000Y-165460001D01*
G75*
G02*
X104325001Y-165710000I-249999J0D01*
G01*
X103799999Y-165710000D01*
G75*
G02*
X103550000Y-165460001I0J249999D01*
G01*
G37*
G36*
G01*
X101725000Y-165460001D02*
X101725000Y-164559999D01*
G75*
G02*
X101974999Y-164310000I249999J0D01*
G01*
X102500001Y-164310000D01*
G75*
G02*
X102750000Y-164559999I0J-249999D01*
G01*
X102750000Y-165460001D01*
G75*
G02*
X102500001Y-165710000I-249999J0D01*
G01*
X101974999Y-165710000D01*
G75*
G02*
X101725000Y-165460001I0J249999D01*
G01*
G37*
G36*
G01*
X89556250Y-155220000D02*
X88643750Y-155220000D01*
G75*
G02*
X88400000Y-154976250I0J243750D01*
G01*
X88400000Y-154488750D01*
G75*
G02*
X88643750Y-154245000I243750J0D01*
G01*
X89556250Y-154245000D01*
G75*
G02*
X89800000Y-154488750I0J-243750D01*
G01*
X89800000Y-154976250D01*
G75*
G02*
X89556250Y-155220000I-243750J0D01*
G01*
G37*
G36*
G01*
X89556250Y-157095000D02*
X88643750Y-157095000D01*
G75*
G02*
X88400000Y-156851250I0J243750D01*
G01*
X88400000Y-156363750D01*
G75*
G02*
X88643750Y-156120000I243750J0D01*
G01*
X89556250Y-156120000D01*
G75*
G02*
X89800000Y-156363750I0J-243750D01*
G01*
X89800000Y-156851250D01*
G75*
G02*
X89556250Y-157095000I-243750J0D01*
G01*
G37*
G36*
G01*
X89566250Y-147240000D02*
X88653750Y-147240000D01*
G75*
G02*
X88410000Y-146996250I0J243750D01*
G01*
X88410000Y-146508750D01*
G75*
G02*
X88653750Y-146265000I243750J0D01*
G01*
X89566250Y-146265000D01*
G75*
G02*
X89810000Y-146508750I0J-243750D01*
G01*
X89810000Y-146996250D01*
G75*
G02*
X89566250Y-147240000I-243750J0D01*
G01*
G37*
G36*
G01*
X89566250Y-149115000D02*
X88653750Y-149115000D01*
G75*
G02*
X88410000Y-148871250I0J243750D01*
G01*
X88410000Y-148383750D01*
G75*
G02*
X88653750Y-148140000I243750J0D01*
G01*
X89566250Y-148140000D01*
G75*
G02*
X89810000Y-148383750I0J-243750D01*
G01*
X89810000Y-148871250D01*
G75*
G02*
X89566250Y-149115000I-243750J0D01*
G01*
G37*
G36*
G01*
X79036250Y-155280000D02*
X78123750Y-155280000D01*
G75*
G02*
X77880000Y-155036250I0J243750D01*
G01*
X77880000Y-154548750D01*
G75*
G02*
X78123750Y-154305000I243750J0D01*
G01*
X79036250Y-154305000D01*
G75*
G02*
X79280000Y-154548750I0J-243750D01*
G01*
X79280000Y-155036250D01*
G75*
G02*
X79036250Y-155280000I-243750J0D01*
G01*
G37*
G36*
G01*
X79036250Y-157155000D02*
X78123750Y-157155000D01*
G75*
G02*
X77880000Y-156911250I0J243750D01*
G01*
X77880000Y-156423750D01*
G75*
G02*
X78123750Y-156180000I243750J0D01*
G01*
X79036250Y-156180000D01*
G75*
G02*
X79280000Y-156423750I0J-243750D01*
G01*
X79280000Y-156911250D01*
G75*
G02*
X79036250Y-157155000I-243750J0D01*
G01*
G37*
G36*
G01*
X79016250Y-147260000D02*
X78103750Y-147260000D01*
G75*
G02*
X77860000Y-147016250I0J243750D01*
G01*
X77860000Y-146528750D01*
G75*
G02*
X78103750Y-146285000I243750J0D01*
G01*
X79016250Y-146285000D01*
G75*
G02*
X79260000Y-146528750I0J-243750D01*
G01*
X79260000Y-147016250D01*
G75*
G02*
X79016250Y-147260000I-243750J0D01*
G01*
G37*
G36*
G01*
X79016250Y-149135000D02*
X78103750Y-149135000D01*
G75*
G02*
X77860000Y-148891250I0J243750D01*
G01*
X77860000Y-148403750D01*
G75*
G02*
X78103750Y-148160000I243750J0D01*
G01*
X79016250Y-148160000D01*
G75*
G02*
X79260000Y-148403750I0J-243750D01*
G01*
X79260000Y-148891250D01*
G75*
G02*
X79016250Y-149135000I-243750J0D01*
G01*
G37*
G36*
G01*
X89506250Y-139252500D02*
X88593750Y-139252500D01*
G75*
G02*
X88350000Y-139008750I0J243750D01*
G01*
X88350000Y-138521250D01*
G75*
G02*
X88593750Y-138277500I243750J0D01*
G01*
X89506250Y-138277500D01*
G75*
G02*
X89750000Y-138521250I0J-243750D01*
G01*
X89750000Y-139008750D01*
G75*
G02*
X89506250Y-139252500I-243750J0D01*
G01*
G37*
G36*
G01*
X89506250Y-141127500D02*
X88593750Y-141127500D01*
G75*
G02*
X88350000Y-140883750I0J243750D01*
G01*
X88350000Y-140396250D01*
G75*
G02*
X88593750Y-140152500I243750J0D01*
G01*
X89506250Y-140152500D01*
G75*
G02*
X89750000Y-140396250I0J-243750D01*
G01*
X89750000Y-140883750D01*
G75*
G02*
X89506250Y-141127500I-243750J0D01*
G01*
G37*
G36*
G01*
X79006250Y-139230000D02*
X78093750Y-139230000D01*
G75*
G02*
X77850000Y-138986250I0J243750D01*
G01*
X77850000Y-138498750D01*
G75*
G02*
X78093750Y-138255000I243750J0D01*
G01*
X79006250Y-138255000D01*
G75*
G02*
X79250000Y-138498750I0J-243750D01*
G01*
X79250000Y-138986250D01*
G75*
G02*
X79006250Y-139230000I-243750J0D01*
G01*
G37*
G36*
G01*
X79006250Y-141105000D02*
X78093750Y-141105000D01*
G75*
G02*
X77850000Y-140861250I0J243750D01*
G01*
X77850000Y-140373750D01*
G75*
G02*
X78093750Y-140130000I243750J0D01*
G01*
X79006250Y-140130000D01*
G75*
G02*
X79250000Y-140373750I0J-243750D01*
G01*
X79250000Y-140861250D01*
G75*
G02*
X79006250Y-141105000I-243750J0D01*
G01*
G37*
G36*
G01*
X89526250Y-131270000D02*
X88613750Y-131270000D01*
G75*
G02*
X88370000Y-131026250I0J243750D01*
G01*
X88370000Y-130538750D01*
G75*
G02*
X88613750Y-130295000I243750J0D01*
G01*
X89526250Y-130295000D01*
G75*
G02*
X89770000Y-130538750I0J-243750D01*
G01*
X89770000Y-131026250D01*
G75*
G02*
X89526250Y-131270000I-243750J0D01*
G01*
G37*
G36*
G01*
X89526250Y-133145000D02*
X88613750Y-133145000D01*
G75*
G02*
X88370000Y-132901250I0J243750D01*
G01*
X88370000Y-132413750D01*
G75*
G02*
X88613750Y-132170000I243750J0D01*
G01*
X89526250Y-132170000D01*
G75*
G02*
X89770000Y-132413750I0J-243750D01*
G01*
X89770000Y-132901250D01*
G75*
G02*
X89526250Y-133145000I-243750J0D01*
G01*
G37*
G36*
G01*
X78996250Y-131280000D02*
X78083750Y-131280000D01*
G75*
G02*
X77840000Y-131036250I0J243750D01*
G01*
X77840000Y-130548750D01*
G75*
G02*
X78083750Y-130305000I243750J0D01*
G01*
X78996250Y-130305000D01*
G75*
G02*
X79240000Y-130548750I0J-243750D01*
G01*
X79240000Y-131036250D01*
G75*
G02*
X78996250Y-131280000I-243750J0D01*
G01*
G37*
G36*
G01*
X78996250Y-133155000D02*
X78083750Y-133155000D01*
G75*
G02*
X77840000Y-132911250I0J243750D01*
G01*
X77840000Y-132423750D01*
G75*
G02*
X78083750Y-132180000I243750J0D01*
G01*
X78996250Y-132180000D01*
G75*
G02*
X79240000Y-132423750I0J-243750D01*
G01*
X79240000Y-132911250D01*
G75*
G02*
X78996250Y-133155000I-243750J0D01*
G01*
G37*
G36*
G01*
X157255000Y-145480000D02*
X156305000Y-145480000D01*
G75*
G02*
X156055000Y-145230000I0J250000D01*
G01*
X156055000Y-144730000D01*
G75*
G02*
X156305000Y-144480000I250000J0D01*
G01*
X157255000Y-144480000D01*
G75*
G02*
X157505000Y-144730000I0J-250000D01*
G01*
X157505000Y-145230000D01*
G75*
G02*
X157255000Y-145480000I-250000J0D01*
G01*
G37*
G36*
G01*
X157255000Y-147380000D02*
X156305000Y-147380000D01*
G75*
G02*
X156055000Y-147130000I0J250000D01*
G01*
X156055000Y-146630000D01*
G75*
G02*
X156305000Y-146380000I250000J0D01*
G01*
X157255000Y-146380000D01*
G75*
G02*
X157505000Y-146630000I0J-250000D01*
G01*
X157505000Y-147130000D01*
G75*
G02*
X157255000Y-147380000I-250000J0D01*
G01*
G37*
D30*
X84920000Y-117320000D03*
D31*
X91220000Y-117320000D03*
X91220000Y-115020000D03*
X91220000Y-119620000D03*
D32*
X83310000Y-161630000D03*
X95490000Y-161670000D03*
G36*
G01*
X121210000Y-133560000D02*
X121210000Y-132110000D01*
G75*
G02*
X121285000Y-132035000I75000J0D01*
G01*
X121435000Y-132035000D01*
G75*
G02*
X121510000Y-132110000I0J-75000D01*
G01*
X121510000Y-133560000D01*
G75*
G02*
X121435000Y-133635000I-75000J0D01*
G01*
X121285000Y-133635000D01*
G75*
G02*
X121210000Y-133560000I0J75000D01*
G01*
G37*
G36*
G01*
X121710000Y-133560000D02*
X121710000Y-132110000D01*
G75*
G02*
X121785000Y-132035000I75000J0D01*
G01*
X121935000Y-132035000D01*
G75*
G02*
X122010000Y-132110000I0J-75000D01*
G01*
X122010000Y-133560000D01*
G75*
G02*
X121935000Y-133635000I-75000J0D01*
G01*
X121785000Y-133635000D01*
G75*
G02*
X121710000Y-133560000I0J75000D01*
G01*
G37*
G36*
G01*
X122210000Y-133560000D02*
X122210000Y-132110000D01*
G75*
G02*
X122285000Y-132035000I75000J0D01*
G01*
X122435000Y-132035000D01*
G75*
G02*
X122510000Y-132110000I0J-75000D01*
G01*
X122510000Y-133560000D01*
G75*
G02*
X122435000Y-133635000I-75000J0D01*
G01*
X122285000Y-133635000D01*
G75*
G02*
X122210000Y-133560000I0J75000D01*
G01*
G37*
G36*
G01*
X122710000Y-133560000D02*
X122710000Y-132110000D01*
G75*
G02*
X122785000Y-132035000I75000J0D01*
G01*
X122935000Y-132035000D01*
G75*
G02*
X123010000Y-132110000I0J-75000D01*
G01*
X123010000Y-133560000D01*
G75*
G02*
X122935000Y-133635000I-75000J0D01*
G01*
X122785000Y-133635000D01*
G75*
G02*
X122710000Y-133560000I0J75000D01*
G01*
G37*
G36*
G01*
X123210000Y-133560000D02*
X123210000Y-132110000D01*
G75*
G02*
X123285000Y-132035000I75000J0D01*
G01*
X123435000Y-132035000D01*
G75*
G02*
X123510000Y-132110000I0J-75000D01*
G01*
X123510000Y-133560000D01*
G75*
G02*
X123435000Y-133635000I-75000J0D01*
G01*
X123285000Y-133635000D01*
G75*
G02*
X123210000Y-133560000I0J75000D01*
G01*
G37*
G36*
G01*
X123710000Y-133560000D02*
X123710000Y-132110000D01*
G75*
G02*
X123785000Y-132035000I75000J0D01*
G01*
X123935000Y-132035000D01*
G75*
G02*
X124010000Y-132110000I0J-75000D01*
G01*
X124010000Y-133560000D01*
G75*
G02*
X123935000Y-133635000I-75000J0D01*
G01*
X123785000Y-133635000D01*
G75*
G02*
X123710000Y-133560000I0J75000D01*
G01*
G37*
G36*
G01*
X124210000Y-133560000D02*
X124210000Y-132110000D01*
G75*
G02*
X124285000Y-132035000I75000J0D01*
G01*
X124435000Y-132035000D01*
G75*
G02*
X124510000Y-132110000I0J-75000D01*
G01*
X124510000Y-133560000D01*
G75*
G02*
X124435000Y-133635000I-75000J0D01*
G01*
X124285000Y-133635000D01*
G75*
G02*
X124210000Y-133560000I0J75000D01*
G01*
G37*
G36*
G01*
X124710000Y-133560000D02*
X124710000Y-132110000D01*
G75*
G02*
X124785000Y-132035000I75000J0D01*
G01*
X124935000Y-132035000D01*
G75*
G02*
X125010000Y-132110000I0J-75000D01*
G01*
X125010000Y-133560000D01*
G75*
G02*
X124935000Y-133635000I-75000J0D01*
G01*
X124785000Y-133635000D01*
G75*
G02*
X124710000Y-133560000I0J75000D01*
G01*
G37*
G36*
G01*
X125210000Y-133560000D02*
X125210000Y-132110000D01*
G75*
G02*
X125285000Y-132035000I75000J0D01*
G01*
X125435000Y-132035000D01*
G75*
G02*
X125510000Y-132110000I0J-75000D01*
G01*
X125510000Y-133560000D01*
G75*
G02*
X125435000Y-133635000I-75000J0D01*
G01*
X125285000Y-133635000D01*
G75*
G02*
X125210000Y-133560000I0J75000D01*
G01*
G37*
G36*
G01*
X125710000Y-133560000D02*
X125710000Y-132110000D01*
G75*
G02*
X125785000Y-132035000I75000J0D01*
G01*
X125935000Y-132035000D01*
G75*
G02*
X126010000Y-132110000I0J-75000D01*
G01*
X126010000Y-133560000D01*
G75*
G02*
X125935000Y-133635000I-75000J0D01*
G01*
X125785000Y-133635000D01*
G75*
G02*
X125710000Y-133560000I0J75000D01*
G01*
G37*
G36*
G01*
X126210000Y-133560000D02*
X126210000Y-132110000D01*
G75*
G02*
X126285000Y-132035000I75000J0D01*
G01*
X126435000Y-132035000D01*
G75*
G02*
X126510000Y-132110000I0J-75000D01*
G01*
X126510000Y-133560000D01*
G75*
G02*
X126435000Y-133635000I-75000J0D01*
G01*
X126285000Y-133635000D01*
G75*
G02*
X126210000Y-133560000I0J75000D01*
G01*
G37*
G36*
G01*
X126710000Y-133560000D02*
X126710000Y-132110000D01*
G75*
G02*
X126785000Y-132035000I75000J0D01*
G01*
X126935000Y-132035000D01*
G75*
G02*
X127010000Y-132110000I0J-75000D01*
G01*
X127010000Y-133560000D01*
G75*
G02*
X126935000Y-133635000I-75000J0D01*
G01*
X126785000Y-133635000D01*
G75*
G02*
X126710000Y-133560000I0J75000D01*
G01*
G37*
G36*
G01*
X127210000Y-133560000D02*
X127210000Y-132110000D01*
G75*
G02*
X127285000Y-132035000I75000J0D01*
G01*
X127435000Y-132035000D01*
G75*
G02*
X127510000Y-132110000I0J-75000D01*
G01*
X127510000Y-133560000D01*
G75*
G02*
X127435000Y-133635000I-75000J0D01*
G01*
X127285000Y-133635000D01*
G75*
G02*
X127210000Y-133560000I0J75000D01*
G01*
G37*
G36*
G01*
X127710000Y-133560000D02*
X127710000Y-132110000D01*
G75*
G02*
X127785000Y-132035000I75000J0D01*
G01*
X127935000Y-132035000D01*
G75*
G02*
X128010000Y-132110000I0J-75000D01*
G01*
X128010000Y-133560000D01*
G75*
G02*
X127935000Y-133635000I-75000J0D01*
G01*
X127785000Y-133635000D01*
G75*
G02*
X127710000Y-133560000I0J75000D01*
G01*
G37*
G36*
G01*
X128210000Y-133560000D02*
X128210000Y-132110000D01*
G75*
G02*
X128285000Y-132035000I75000J0D01*
G01*
X128435000Y-132035000D01*
G75*
G02*
X128510000Y-132110000I0J-75000D01*
G01*
X128510000Y-133560000D01*
G75*
G02*
X128435000Y-133635000I-75000J0D01*
G01*
X128285000Y-133635000D01*
G75*
G02*
X128210000Y-133560000I0J75000D01*
G01*
G37*
G36*
G01*
X128710000Y-133560000D02*
X128710000Y-132110000D01*
G75*
G02*
X128785000Y-132035000I75000J0D01*
G01*
X128935000Y-132035000D01*
G75*
G02*
X129010000Y-132110000I0J-75000D01*
G01*
X129010000Y-133560000D01*
G75*
G02*
X128935000Y-133635000I-75000J0D01*
G01*
X128785000Y-133635000D01*
G75*
G02*
X128710000Y-133560000I0J75000D01*
G01*
G37*
G36*
G01*
X129210000Y-133560000D02*
X129210000Y-132110000D01*
G75*
G02*
X129285000Y-132035000I75000J0D01*
G01*
X129435000Y-132035000D01*
G75*
G02*
X129510000Y-132110000I0J-75000D01*
G01*
X129510000Y-133560000D01*
G75*
G02*
X129435000Y-133635000I-75000J0D01*
G01*
X129285000Y-133635000D01*
G75*
G02*
X129210000Y-133560000I0J75000D01*
G01*
G37*
G36*
G01*
X129710000Y-133560000D02*
X129710000Y-132110000D01*
G75*
G02*
X129785000Y-132035000I75000J0D01*
G01*
X129935000Y-132035000D01*
G75*
G02*
X130010000Y-132110000I0J-75000D01*
G01*
X130010000Y-133560000D01*
G75*
G02*
X129935000Y-133635000I-75000J0D01*
G01*
X129785000Y-133635000D01*
G75*
G02*
X129710000Y-133560000I0J75000D01*
G01*
G37*
G36*
G01*
X130210000Y-133560000D02*
X130210000Y-132110000D01*
G75*
G02*
X130285000Y-132035000I75000J0D01*
G01*
X130435000Y-132035000D01*
G75*
G02*
X130510000Y-132110000I0J-75000D01*
G01*
X130510000Y-133560000D01*
G75*
G02*
X130435000Y-133635000I-75000J0D01*
G01*
X130285000Y-133635000D01*
G75*
G02*
X130210000Y-133560000I0J75000D01*
G01*
G37*
G36*
G01*
X130710000Y-133560000D02*
X130710000Y-132110000D01*
G75*
G02*
X130785000Y-132035000I75000J0D01*
G01*
X130935000Y-132035000D01*
G75*
G02*
X131010000Y-132110000I0J-75000D01*
G01*
X131010000Y-133560000D01*
G75*
G02*
X130935000Y-133635000I-75000J0D01*
G01*
X130785000Y-133635000D01*
G75*
G02*
X130710000Y-133560000I0J75000D01*
G01*
G37*
G36*
G01*
X131210000Y-133560000D02*
X131210000Y-132110000D01*
G75*
G02*
X131285000Y-132035000I75000J0D01*
G01*
X131435000Y-132035000D01*
G75*
G02*
X131510000Y-132110000I0J-75000D01*
G01*
X131510000Y-133560000D01*
G75*
G02*
X131435000Y-133635000I-75000J0D01*
G01*
X131285000Y-133635000D01*
G75*
G02*
X131210000Y-133560000I0J75000D01*
G01*
G37*
G36*
G01*
X131710000Y-133560000D02*
X131710000Y-132110000D01*
G75*
G02*
X131785000Y-132035000I75000J0D01*
G01*
X131935000Y-132035000D01*
G75*
G02*
X132010000Y-132110000I0J-75000D01*
G01*
X132010000Y-133560000D01*
G75*
G02*
X131935000Y-133635000I-75000J0D01*
G01*
X131785000Y-133635000D01*
G75*
G02*
X131710000Y-133560000I0J75000D01*
G01*
G37*
G36*
G01*
X132210000Y-133560000D02*
X132210000Y-132110000D01*
G75*
G02*
X132285000Y-132035000I75000J0D01*
G01*
X132435000Y-132035000D01*
G75*
G02*
X132510000Y-132110000I0J-75000D01*
G01*
X132510000Y-133560000D01*
G75*
G02*
X132435000Y-133635000I-75000J0D01*
G01*
X132285000Y-133635000D01*
G75*
G02*
X132210000Y-133560000I0J75000D01*
G01*
G37*
G36*
G01*
X132710000Y-133560000D02*
X132710000Y-132110000D01*
G75*
G02*
X132785000Y-132035000I75000J0D01*
G01*
X132935000Y-132035000D01*
G75*
G02*
X133010000Y-132110000I0J-75000D01*
G01*
X133010000Y-133560000D01*
G75*
G02*
X132935000Y-133635000I-75000J0D01*
G01*
X132785000Y-133635000D01*
G75*
G02*
X132710000Y-133560000I0J75000D01*
G01*
G37*
G36*
G01*
X133210000Y-133560000D02*
X133210000Y-132110000D01*
G75*
G02*
X133285000Y-132035000I75000J0D01*
G01*
X133435000Y-132035000D01*
G75*
G02*
X133510000Y-132110000I0J-75000D01*
G01*
X133510000Y-133560000D01*
G75*
G02*
X133435000Y-133635000I-75000J0D01*
G01*
X133285000Y-133635000D01*
G75*
G02*
X133210000Y-133560000I0J75000D01*
G01*
G37*
G36*
G01*
X134235000Y-134585000D02*
X134235000Y-134435000D01*
G75*
G02*
X134310000Y-134360000I75000J0D01*
G01*
X135760000Y-134360000D01*
G75*
G02*
X135835000Y-134435000I0J-75000D01*
G01*
X135835000Y-134585000D01*
G75*
G02*
X135760000Y-134660000I-75000J0D01*
G01*
X134310000Y-134660000D01*
G75*
G02*
X134235000Y-134585000I0J75000D01*
G01*
G37*
G36*
G01*
X134235000Y-135085000D02*
X134235000Y-134935000D01*
G75*
G02*
X134310000Y-134860000I75000J0D01*
G01*
X135760000Y-134860000D01*
G75*
G02*
X135835000Y-134935000I0J-75000D01*
G01*
X135835000Y-135085000D01*
G75*
G02*
X135760000Y-135160000I-75000J0D01*
G01*
X134310000Y-135160000D01*
G75*
G02*
X134235000Y-135085000I0J75000D01*
G01*
G37*
G36*
G01*
X134235000Y-135585000D02*
X134235000Y-135435000D01*
G75*
G02*
X134310000Y-135360000I75000J0D01*
G01*
X135760000Y-135360000D01*
G75*
G02*
X135835000Y-135435000I0J-75000D01*
G01*
X135835000Y-135585000D01*
G75*
G02*
X135760000Y-135660000I-75000J0D01*
G01*
X134310000Y-135660000D01*
G75*
G02*
X134235000Y-135585000I0J75000D01*
G01*
G37*
G36*
G01*
X134235000Y-136085000D02*
X134235000Y-135935000D01*
G75*
G02*
X134310000Y-135860000I75000J0D01*
G01*
X135760000Y-135860000D01*
G75*
G02*
X135835000Y-135935000I0J-75000D01*
G01*
X135835000Y-136085000D01*
G75*
G02*
X135760000Y-136160000I-75000J0D01*
G01*
X134310000Y-136160000D01*
G75*
G02*
X134235000Y-136085000I0J75000D01*
G01*
G37*
G36*
G01*
X134235000Y-136585000D02*
X134235000Y-136435000D01*
G75*
G02*
X134310000Y-136360000I75000J0D01*
G01*
X135760000Y-136360000D01*
G75*
G02*
X135835000Y-136435000I0J-75000D01*
G01*
X135835000Y-136585000D01*
G75*
G02*
X135760000Y-136660000I-75000J0D01*
G01*
X134310000Y-136660000D01*
G75*
G02*
X134235000Y-136585000I0J75000D01*
G01*
G37*
G36*
G01*
X134235000Y-137085000D02*
X134235000Y-136935000D01*
G75*
G02*
X134310000Y-136860000I75000J0D01*
G01*
X135760000Y-136860000D01*
G75*
G02*
X135835000Y-136935000I0J-75000D01*
G01*
X135835000Y-137085000D01*
G75*
G02*
X135760000Y-137160000I-75000J0D01*
G01*
X134310000Y-137160000D01*
G75*
G02*
X134235000Y-137085000I0J75000D01*
G01*
G37*
G36*
G01*
X134235000Y-137585000D02*
X134235000Y-137435000D01*
G75*
G02*
X134310000Y-137360000I75000J0D01*
G01*
X135760000Y-137360000D01*
G75*
G02*
X135835000Y-137435000I0J-75000D01*
G01*
X135835000Y-137585000D01*
G75*
G02*
X135760000Y-137660000I-75000J0D01*
G01*
X134310000Y-137660000D01*
G75*
G02*
X134235000Y-137585000I0J75000D01*
G01*
G37*
G36*
G01*
X134235000Y-138085000D02*
X134235000Y-137935000D01*
G75*
G02*
X134310000Y-137860000I75000J0D01*
G01*
X135760000Y-137860000D01*
G75*
G02*
X135835000Y-137935000I0J-75000D01*
G01*
X135835000Y-138085000D01*
G75*
G02*
X135760000Y-138160000I-75000J0D01*
G01*
X134310000Y-138160000D01*
G75*
G02*
X134235000Y-138085000I0J75000D01*
G01*
G37*
G36*
G01*
X134235000Y-138585000D02*
X134235000Y-138435000D01*
G75*
G02*
X134310000Y-138360000I75000J0D01*
G01*
X135760000Y-138360000D01*
G75*
G02*
X135835000Y-138435000I0J-75000D01*
G01*
X135835000Y-138585000D01*
G75*
G02*
X135760000Y-138660000I-75000J0D01*
G01*
X134310000Y-138660000D01*
G75*
G02*
X134235000Y-138585000I0J75000D01*
G01*
G37*
G36*
G01*
X134235000Y-139085000D02*
X134235000Y-138935000D01*
G75*
G02*
X134310000Y-138860000I75000J0D01*
G01*
X135760000Y-138860000D01*
G75*
G02*
X135835000Y-138935000I0J-75000D01*
G01*
X135835000Y-139085000D01*
G75*
G02*
X135760000Y-139160000I-75000J0D01*
G01*
X134310000Y-139160000D01*
G75*
G02*
X134235000Y-139085000I0J75000D01*
G01*
G37*
G36*
G01*
X134235000Y-139585000D02*
X134235000Y-139435000D01*
G75*
G02*
X134310000Y-139360000I75000J0D01*
G01*
X135760000Y-139360000D01*
G75*
G02*
X135835000Y-139435000I0J-75000D01*
G01*
X135835000Y-139585000D01*
G75*
G02*
X135760000Y-139660000I-75000J0D01*
G01*
X134310000Y-139660000D01*
G75*
G02*
X134235000Y-139585000I0J75000D01*
G01*
G37*
G36*
G01*
X134235000Y-140085000D02*
X134235000Y-139935000D01*
G75*
G02*
X134310000Y-139860000I75000J0D01*
G01*
X135760000Y-139860000D01*
G75*
G02*
X135835000Y-139935000I0J-75000D01*
G01*
X135835000Y-140085000D01*
G75*
G02*
X135760000Y-140160000I-75000J0D01*
G01*
X134310000Y-140160000D01*
G75*
G02*
X134235000Y-140085000I0J75000D01*
G01*
G37*
G36*
G01*
X134235000Y-140585000D02*
X134235000Y-140435000D01*
G75*
G02*
X134310000Y-140360000I75000J0D01*
G01*
X135760000Y-140360000D01*
G75*
G02*
X135835000Y-140435000I0J-75000D01*
G01*
X135835000Y-140585000D01*
G75*
G02*
X135760000Y-140660000I-75000J0D01*
G01*
X134310000Y-140660000D01*
G75*
G02*
X134235000Y-140585000I0J75000D01*
G01*
G37*
G36*
G01*
X134235000Y-141085000D02*
X134235000Y-140935000D01*
G75*
G02*
X134310000Y-140860000I75000J0D01*
G01*
X135760000Y-140860000D01*
G75*
G02*
X135835000Y-140935000I0J-75000D01*
G01*
X135835000Y-141085000D01*
G75*
G02*
X135760000Y-141160000I-75000J0D01*
G01*
X134310000Y-141160000D01*
G75*
G02*
X134235000Y-141085000I0J75000D01*
G01*
G37*
G36*
G01*
X134235000Y-141585000D02*
X134235000Y-141435000D01*
G75*
G02*
X134310000Y-141360000I75000J0D01*
G01*
X135760000Y-141360000D01*
G75*
G02*
X135835000Y-141435000I0J-75000D01*
G01*
X135835000Y-141585000D01*
G75*
G02*
X135760000Y-141660000I-75000J0D01*
G01*
X134310000Y-141660000D01*
G75*
G02*
X134235000Y-141585000I0J75000D01*
G01*
G37*
G36*
G01*
X134235000Y-142085000D02*
X134235000Y-141935000D01*
G75*
G02*
X134310000Y-141860000I75000J0D01*
G01*
X135760000Y-141860000D01*
G75*
G02*
X135835000Y-141935000I0J-75000D01*
G01*
X135835000Y-142085000D01*
G75*
G02*
X135760000Y-142160000I-75000J0D01*
G01*
X134310000Y-142160000D01*
G75*
G02*
X134235000Y-142085000I0J75000D01*
G01*
G37*
G36*
G01*
X134235000Y-142585000D02*
X134235000Y-142435000D01*
G75*
G02*
X134310000Y-142360000I75000J0D01*
G01*
X135760000Y-142360000D01*
G75*
G02*
X135835000Y-142435000I0J-75000D01*
G01*
X135835000Y-142585000D01*
G75*
G02*
X135760000Y-142660000I-75000J0D01*
G01*
X134310000Y-142660000D01*
G75*
G02*
X134235000Y-142585000I0J75000D01*
G01*
G37*
G36*
G01*
X134235000Y-143085000D02*
X134235000Y-142935000D01*
G75*
G02*
X134310000Y-142860000I75000J0D01*
G01*
X135760000Y-142860000D01*
G75*
G02*
X135835000Y-142935000I0J-75000D01*
G01*
X135835000Y-143085000D01*
G75*
G02*
X135760000Y-143160000I-75000J0D01*
G01*
X134310000Y-143160000D01*
G75*
G02*
X134235000Y-143085000I0J75000D01*
G01*
G37*
G36*
G01*
X134235000Y-143585000D02*
X134235000Y-143435000D01*
G75*
G02*
X134310000Y-143360000I75000J0D01*
G01*
X135760000Y-143360000D01*
G75*
G02*
X135835000Y-143435000I0J-75000D01*
G01*
X135835000Y-143585000D01*
G75*
G02*
X135760000Y-143660000I-75000J0D01*
G01*
X134310000Y-143660000D01*
G75*
G02*
X134235000Y-143585000I0J75000D01*
G01*
G37*
G36*
G01*
X134235000Y-144085000D02*
X134235000Y-143935000D01*
G75*
G02*
X134310000Y-143860000I75000J0D01*
G01*
X135760000Y-143860000D01*
G75*
G02*
X135835000Y-143935000I0J-75000D01*
G01*
X135835000Y-144085000D01*
G75*
G02*
X135760000Y-144160000I-75000J0D01*
G01*
X134310000Y-144160000D01*
G75*
G02*
X134235000Y-144085000I0J75000D01*
G01*
G37*
G36*
G01*
X134235000Y-144585000D02*
X134235000Y-144435000D01*
G75*
G02*
X134310000Y-144360000I75000J0D01*
G01*
X135760000Y-144360000D01*
G75*
G02*
X135835000Y-144435000I0J-75000D01*
G01*
X135835000Y-144585000D01*
G75*
G02*
X135760000Y-144660000I-75000J0D01*
G01*
X134310000Y-144660000D01*
G75*
G02*
X134235000Y-144585000I0J75000D01*
G01*
G37*
G36*
G01*
X134235000Y-145085000D02*
X134235000Y-144935000D01*
G75*
G02*
X134310000Y-144860000I75000J0D01*
G01*
X135760000Y-144860000D01*
G75*
G02*
X135835000Y-144935000I0J-75000D01*
G01*
X135835000Y-145085000D01*
G75*
G02*
X135760000Y-145160000I-75000J0D01*
G01*
X134310000Y-145160000D01*
G75*
G02*
X134235000Y-145085000I0J75000D01*
G01*
G37*
G36*
G01*
X134235000Y-145585000D02*
X134235000Y-145435000D01*
G75*
G02*
X134310000Y-145360000I75000J0D01*
G01*
X135760000Y-145360000D01*
G75*
G02*
X135835000Y-145435000I0J-75000D01*
G01*
X135835000Y-145585000D01*
G75*
G02*
X135760000Y-145660000I-75000J0D01*
G01*
X134310000Y-145660000D01*
G75*
G02*
X134235000Y-145585000I0J75000D01*
G01*
G37*
G36*
G01*
X134235000Y-146085000D02*
X134235000Y-145935000D01*
G75*
G02*
X134310000Y-145860000I75000J0D01*
G01*
X135760000Y-145860000D01*
G75*
G02*
X135835000Y-145935000I0J-75000D01*
G01*
X135835000Y-146085000D01*
G75*
G02*
X135760000Y-146160000I-75000J0D01*
G01*
X134310000Y-146160000D01*
G75*
G02*
X134235000Y-146085000I0J75000D01*
G01*
G37*
G36*
G01*
X134235000Y-146585000D02*
X134235000Y-146435000D01*
G75*
G02*
X134310000Y-146360000I75000J0D01*
G01*
X135760000Y-146360000D01*
G75*
G02*
X135835000Y-146435000I0J-75000D01*
G01*
X135835000Y-146585000D01*
G75*
G02*
X135760000Y-146660000I-75000J0D01*
G01*
X134310000Y-146660000D01*
G75*
G02*
X134235000Y-146585000I0J75000D01*
G01*
G37*
G36*
G01*
X133210000Y-148910000D02*
X133210000Y-147460000D01*
G75*
G02*
X133285000Y-147385000I75000J0D01*
G01*
X133435000Y-147385000D01*
G75*
G02*
X133510000Y-147460000I0J-75000D01*
G01*
X133510000Y-148910000D01*
G75*
G02*
X133435000Y-148985000I-75000J0D01*
G01*
X133285000Y-148985000D01*
G75*
G02*
X133210000Y-148910000I0J75000D01*
G01*
G37*
G36*
G01*
X132710000Y-148910000D02*
X132710000Y-147460000D01*
G75*
G02*
X132785000Y-147385000I75000J0D01*
G01*
X132935000Y-147385000D01*
G75*
G02*
X133010000Y-147460000I0J-75000D01*
G01*
X133010000Y-148910000D01*
G75*
G02*
X132935000Y-148985000I-75000J0D01*
G01*
X132785000Y-148985000D01*
G75*
G02*
X132710000Y-148910000I0J75000D01*
G01*
G37*
G36*
G01*
X132210000Y-148910000D02*
X132210000Y-147460000D01*
G75*
G02*
X132285000Y-147385000I75000J0D01*
G01*
X132435000Y-147385000D01*
G75*
G02*
X132510000Y-147460000I0J-75000D01*
G01*
X132510000Y-148910000D01*
G75*
G02*
X132435000Y-148985000I-75000J0D01*
G01*
X132285000Y-148985000D01*
G75*
G02*
X132210000Y-148910000I0J75000D01*
G01*
G37*
G36*
G01*
X131710000Y-148910000D02*
X131710000Y-147460000D01*
G75*
G02*
X131785000Y-147385000I75000J0D01*
G01*
X131935000Y-147385000D01*
G75*
G02*
X132010000Y-147460000I0J-75000D01*
G01*
X132010000Y-148910000D01*
G75*
G02*
X131935000Y-148985000I-75000J0D01*
G01*
X131785000Y-148985000D01*
G75*
G02*
X131710000Y-148910000I0J75000D01*
G01*
G37*
G36*
G01*
X131210000Y-148910000D02*
X131210000Y-147460000D01*
G75*
G02*
X131285000Y-147385000I75000J0D01*
G01*
X131435000Y-147385000D01*
G75*
G02*
X131510000Y-147460000I0J-75000D01*
G01*
X131510000Y-148910000D01*
G75*
G02*
X131435000Y-148985000I-75000J0D01*
G01*
X131285000Y-148985000D01*
G75*
G02*
X131210000Y-148910000I0J75000D01*
G01*
G37*
G36*
G01*
X130710000Y-148910000D02*
X130710000Y-147460000D01*
G75*
G02*
X130785000Y-147385000I75000J0D01*
G01*
X130935000Y-147385000D01*
G75*
G02*
X131010000Y-147460000I0J-75000D01*
G01*
X131010000Y-148910000D01*
G75*
G02*
X130935000Y-148985000I-75000J0D01*
G01*
X130785000Y-148985000D01*
G75*
G02*
X130710000Y-148910000I0J75000D01*
G01*
G37*
G36*
G01*
X130210000Y-148910000D02*
X130210000Y-147460000D01*
G75*
G02*
X130285000Y-147385000I75000J0D01*
G01*
X130435000Y-147385000D01*
G75*
G02*
X130510000Y-147460000I0J-75000D01*
G01*
X130510000Y-148910000D01*
G75*
G02*
X130435000Y-148985000I-75000J0D01*
G01*
X130285000Y-148985000D01*
G75*
G02*
X130210000Y-148910000I0J75000D01*
G01*
G37*
G36*
G01*
X129710000Y-148910000D02*
X129710000Y-147460000D01*
G75*
G02*
X129785000Y-147385000I75000J0D01*
G01*
X129935000Y-147385000D01*
G75*
G02*
X130010000Y-147460000I0J-75000D01*
G01*
X130010000Y-148910000D01*
G75*
G02*
X129935000Y-148985000I-75000J0D01*
G01*
X129785000Y-148985000D01*
G75*
G02*
X129710000Y-148910000I0J75000D01*
G01*
G37*
G36*
G01*
X129210000Y-148910000D02*
X129210000Y-147460000D01*
G75*
G02*
X129285000Y-147385000I75000J0D01*
G01*
X129435000Y-147385000D01*
G75*
G02*
X129510000Y-147460000I0J-75000D01*
G01*
X129510000Y-148910000D01*
G75*
G02*
X129435000Y-148985000I-75000J0D01*
G01*
X129285000Y-148985000D01*
G75*
G02*
X129210000Y-148910000I0J75000D01*
G01*
G37*
G36*
G01*
X128710000Y-148910000D02*
X128710000Y-147460000D01*
G75*
G02*
X128785000Y-147385000I75000J0D01*
G01*
X128935000Y-147385000D01*
G75*
G02*
X129010000Y-147460000I0J-75000D01*
G01*
X129010000Y-148910000D01*
G75*
G02*
X128935000Y-148985000I-75000J0D01*
G01*
X128785000Y-148985000D01*
G75*
G02*
X128710000Y-148910000I0J75000D01*
G01*
G37*
G36*
G01*
X128210000Y-148910000D02*
X128210000Y-147460000D01*
G75*
G02*
X128285000Y-147385000I75000J0D01*
G01*
X128435000Y-147385000D01*
G75*
G02*
X128510000Y-147460000I0J-75000D01*
G01*
X128510000Y-148910000D01*
G75*
G02*
X128435000Y-148985000I-75000J0D01*
G01*
X128285000Y-148985000D01*
G75*
G02*
X128210000Y-148910000I0J75000D01*
G01*
G37*
G36*
G01*
X127710000Y-148910000D02*
X127710000Y-147460000D01*
G75*
G02*
X127785000Y-147385000I75000J0D01*
G01*
X127935000Y-147385000D01*
G75*
G02*
X128010000Y-147460000I0J-75000D01*
G01*
X128010000Y-148910000D01*
G75*
G02*
X127935000Y-148985000I-75000J0D01*
G01*
X127785000Y-148985000D01*
G75*
G02*
X127710000Y-148910000I0J75000D01*
G01*
G37*
G36*
G01*
X127210000Y-148910000D02*
X127210000Y-147460000D01*
G75*
G02*
X127285000Y-147385000I75000J0D01*
G01*
X127435000Y-147385000D01*
G75*
G02*
X127510000Y-147460000I0J-75000D01*
G01*
X127510000Y-148910000D01*
G75*
G02*
X127435000Y-148985000I-75000J0D01*
G01*
X127285000Y-148985000D01*
G75*
G02*
X127210000Y-148910000I0J75000D01*
G01*
G37*
G36*
G01*
X126710000Y-148910000D02*
X126710000Y-147460000D01*
G75*
G02*
X126785000Y-147385000I75000J0D01*
G01*
X126935000Y-147385000D01*
G75*
G02*
X127010000Y-147460000I0J-75000D01*
G01*
X127010000Y-148910000D01*
G75*
G02*
X126935000Y-148985000I-75000J0D01*
G01*
X126785000Y-148985000D01*
G75*
G02*
X126710000Y-148910000I0J75000D01*
G01*
G37*
G36*
G01*
X126210000Y-148910000D02*
X126210000Y-147460000D01*
G75*
G02*
X126285000Y-147385000I75000J0D01*
G01*
X126435000Y-147385000D01*
G75*
G02*
X126510000Y-147460000I0J-75000D01*
G01*
X126510000Y-148910000D01*
G75*
G02*
X126435000Y-148985000I-75000J0D01*
G01*
X126285000Y-148985000D01*
G75*
G02*
X126210000Y-148910000I0J75000D01*
G01*
G37*
G36*
G01*
X125710000Y-148910000D02*
X125710000Y-147460000D01*
G75*
G02*
X125785000Y-147385000I75000J0D01*
G01*
X125935000Y-147385000D01*
G75*
G02*
X126010000Y-147460000I0J-75000D01*
G01*
X126010000Y-148910000D01*
G75*
G02*
X125935000Y-148985000I-75000J0D01*
G01*
X125785000Y-148985000D01*
G75*
G02*
X125710000Y-148910000I0J75000D01*
G01*
G37*
G36*
G01*
X125210000Y-148910000D02*
X125210000Y-147460000D01*
G75*
G02*
X125285000Y-147385000I75000J0D01*
G01*
X125435000Y-147385000D01*
G75*
G02*
X125510000Y-147460000I0J-75000D01*
G01*
X125510000Y-148910000D01*
G75*
G02*
X125435000Y-148985000I-75000J0D01*
G01*
X125285000Y-148985000D01*
G75*
G02*
X125210000Y-148910000I0J75000D01*
G01*
G37*
G36*
G01*
X124710000Y-148910000D02*
X124710000Y-147460000D01*
G75*
G02*
X124785000Y-147385000I75000J0D01*
G01*
X124935000Y-147385000D01*
G75*
G02*
X125010000Y-147460000I0J-75000D01*
G01*
X125010000Y-148910000D01*
G75*
G02*
X124935000Y-148985000I-75000J0D01*
G01*
X124785000Y-148985000D01*
G75*
G02*
X124710000Y-148910000I0J75000D01*
G01*
G37*
G36*
G01*
X124210000Y-148910000D02*
X124210000Y-147460000D01*
G75*
G02*
X124285000Y-147385000I75000J0D01*
G01*
X124435000Y-147385000D01*
G75*
G02*
X124510000Y-147460000I0J-75000D01*
G01*
X124510000Y-148910000D01*
G75*
G02*
X124435000Y-148985000I-75000J0D01*
G01*
X124285000Y-148985000D01*
G75*
G02*
X124210000Y-148910000I0J75000D01*
G01*
G37*
G36*
G01*
X123710000Y-148910000D02*
X123710000Y-147460000D01*
G75*
G02*
X123785000Y-147385000I75000J0D01*
G01*
X123935000Y-147385000D01*
G75*
G02*
X124010000Y-147460000I0J-75000D01*
G01*
X124010000Y-148910000D01*
G75*
G02*
X123935000Y-148985000I-75000J0D01*
G01*
X123785000Y-148985000D01*
G75*
G02*
X123710000Y-148910000I0J75000D01*
G01*
G37*
G36*
G01*
X123210000Y-148910000D02*
X123210000Y-147460000D01*
G75*
G02*
X123285000Y-147385000I75000J0D01*
G01*
X123435000Y-147385000D01*
G75*
G02*
X123510000Y-147460000I0J-75000D01*
G01*
X123510000Y-148910000D01*
G75*
G02*
X123435000Y-148985000I-75000J0D01*
G01*
X123285000Y-148985000D01*
G75*
G02*
X123210000Y-148910000I0J75000D01*
G01*
G37*
G36*
G01*
X122710000Y-148910000D02*
X122710000Y-147460000D01*
G75*
G02*
X122785000Y-147385000I75000J0D01*
G01*
X122935000Y-147385000D01*
G75*
G02*
X123010000Y-147460000I0J-75000D01*
G01*
X123010000Y-148910000D01*
G75*
G02*
X122935000Y-148985000I-75000J0D01*
G01*
X122785000Y-148985000D01*
G75*
G02*
X122710000Y-148910000I0J75000D01*
G01*
G37*
G36*
G01*
X122210000Y-148910000D02*
X122210000Y-147460000D01*
G75*
G02*
X122285000Y-147385000I75000J0D01*
G01*
X122435000Y-147385000D01*
G75*
G02*
X122510000Y-147460000I0J-75000D01*
G01*
X122510000Y-148910000D01*
G75*
G02*
X122435000Y-148985000I-75000J0D01*
G01*
X122285000Y-148985000D01*
G75*
G02*
X122210000Y-148910000I0J75000D01*
G01*
G37*
G36*
G01*
X121710000Y-148910000D02*
X121710000Y-147460000D01*
G75*
G02*
X121785000Y-147385000I75000J0D01*
G01*
X121935000Y-147385000D01*
G75*
G02*
X122010000Y-147460000I0J-75000D01*
G01*
X122010000Y-148910000D01*
G75*
G02*
X121935000Y-148985000I-75000J0D01*
G01*
X121785000Y-148985000D01*
G75*
G02*
X121710000Y-148910000I0J75000D01*
G01*
G37*
G36*
G01*
X121210000Y-148910000D02*
X121210000Y-147460000D01*
G75*
G02*
X121285000Y-147385000I75000J0D01*
G01*
X121435000Y-147385000D01*
G75*
G02*
X121510000Y-147460000I0J-75000D01*
G01*
X121510000Y-148910000D01*
G75*
G02*
X121435000Y-148985000I-75000J0D01*
G01*
X121285000Y-148985000D01*
G75*
G02*
X121210000Y-148910000I0J75000D01*
G01*
G37*
G36*
G01*
X118885000Y-146585000D02*
X118885000Y-146435000D01*
G75*
G02*
X118960000Y-146360000I75000J0D01*
G01*
X120410000Y-146360000D01*
G75*
G02*
X120485000Y-146435000I0J-75000D01*
G01*
X120485000Y-146585000D01*
G75*
G02*
X120410000Y-146660000I-75000J0D01*
G01*
X118960000Y-146660000D01*
G75*
G02*
X118885000Y-146585000I0J75000D01*
G01*
G37*
G36*
G01*
X118885000Y-146085000D02*
X118885000Y-145935000D01*
G75*
G02*
X118960000Y-145860000I75000J0D01*
G01*
X120410000Y-145860000D01*
G75*
G02*
X120485000Y-145935000I0J-75000D01*
G01*
X120485000Y-146085000D01*
G75*
G02*
X120410000Y-146160000I-75000J0D01*
G01*
X118960000Y-146160000D01*
G75*
G02*
X118885000Y-146085000I0J75000D01*
G01*
G37*
G36*
G01*
X118885000Y-145585000D02*
X118885000Y-145435000D01*
G75*
G02*
X118960000Y-145360000I75000J0D01*
G01*
X120410000Y-145360000D01*
G75*
G02*
X120485000Y-145435000I0J-75000D01*
G01*
X120485000Y-145585000D01*
G75*
G02*
X120410000Y-145660000I-75000J0D01*
G01*
X118960000Y-145660000D01*
G75*
G02*
X118885000Y-145585000I0J75000D01*
G01*
G37*
G36*
G01*
X118885000Y-145085000D02*
X118885000Y-144935000D01*
G75*
G02*
X118960000Y-144860000I75000J0D01*
G01*
X120410000Y-144860000D01*
G75*
G02*
X120485000Y-144935000I0J-75000D01*
G01*
X120485000Y-145085000D01*
G75*
G02*
X120410000Y-145160000I-75000J0D01*
G01*
X118960000Y-145160000D01*
G75*
G02*
X118885000Y-145085000I0J75000D01*
G01*
G37*
G36*
G01*
X118885000Y-144585000D02*
X118885000Y-144435000D01*
G75*
G02*
X118960000Y-144360000I75000J0D01*
G01*
X120410000Y-144360000D01*
G75*
G02*
X120485000Y-144435000I0J-75000D01*
G01*
X120485000Y-144585000D01*
G75*
G02*
X120410000Y-144660000I-75000J0D01*
G01*
X118960000Y-144660000D01*
G75*
G02*
X118885000Y-144585000I0J75000D01*
G01*
G37*
G36*
G01*
X118885000Y-144085000D02*
X118885000Y-143935000D01*
G75*
G02*
X118960000Y-143860000I75000J0D01*
G01*
X120410000Y-143860000D01*
G75*
G02*
X120485000Y-143935000I0J-75000D01*
G01*
X120485000Y-144085000D01*
G75*
G02*
X120410000Y-144160000I-75000J0D01*
G01*
X118960000Y-144160000D01*
G75*
G02*
X118885000Y-144085000I0J75000D01*
G01*
G37*
G36*
G01*
X118885000Y-143585000D02*
X118885000Y-143435000D01*
G75*
G02*
X118960000Y-143360000I75000J0D01*
G01*
X120410000Y-143360000D01*
G75*
G02*
X120485000Y-143435000I0J-75000D01*
G01*
X120485000Y-143585000D01*
G75*
G02*
X120410000Y-143660000I-75000J0D01*
G01*
X118960000Y-143660000D01*
G75*
G02*
X118885000Y-143585000I0J75000D01*
G01*
G37*
G36*
G01*
X118885000Y-143085000D02*
X118885000Y-142935000D01*
G75*
G02*
X118960000Y-142860000I75000J0D01*
G01*
X120410000Y-142860000D01*
G75*
G02*
X120485000Y-142935000I0J-75000D01*
G01*
X120485000Y-143085000D01*
G75*
G02*
X120410000Y-143160000I-75000J0D01*
G01*
X118960000Y-143160000D01*
G75*
G02*
X118885000Y-143085000I0J75000D01*
G01*
G37*
G36*
G01*
X118885000Y-142585000D02*
X118885000Y-142435000D01*
G75*
G02*
X118960000Y-142360000I75000J0D01*
G01*
X120410000Y-142360000D01*
G75*
G02*
X120485000Y-142435000I0J-75000D01*
G01*
X120485000Y-142585000D01*
G75*
G02*
X120410000Y-142660000I-75000J0D01*
G01*
X118960000Y-142660000D01*
G75*
G02*
X118885000Y-142585000I0J75000D01*
G01*
G37*
G36*
G01*
X118885000Y-142085000D02*
X118885000Y-141935000D01*
G75*
G02*
X118960000Y-141860000I75000J0D01*
G01*
X120410000Y-141860000D01*
G75*
G02*
X120485000Y-141935000I0J-75000D01*
G01*
X120485000Y-142085000D01*
G75*
G02*
X120410000Y-142160000I-75000J0D01*
G01*
X118960000Y-142160000D01*
G75*
G02*
X118885000Y-142085000I0J75000D01*
G01*
G37*
G36*
G01*
X118885000Y-141585000D02*
X118885000Y-141435000D01*
G75*
G02*
X118960000Y-141360000I75000J0D01*
G01*
X120410000Y-141360000D01*
G75*
G02*
X120485000Y-141435000I0J-75000D01*
G01*
X120485000Y-141585000D01*
G75*
G02*
X120410000Y-141660000I-75000J0D01*
G01*
X118960000Y-141660000D01*
G75*
G02*
X118885000Y-141585000I0J75000D01*
G01*
G37*
G36*
G01*
X118885000Y-141085000D02*
X118885000Y-140935000D01*
G75*
G02*
X118960000Y-140860000I75000J0D01*
G01*
X120410000Y-140860000D01*
G75*
G02*
X120485000Y-140935000I0J-75000D01*
G01*
X120485000Y-141085000D01*
G75*
G02*
X120410000Y-141160000I-75000J0D01*
G01*
X118960000Y-141160000D01*
G75*
G02*
X118885000Y-141085000I0J75000D01*
G01*
G37*
G36*
G01*
X118885000Y-140585000D02*
X118885000Y-140435000D01*
G75*
G02*
X118960000Y-140360000I75000J0D01*
G01*
X120410000Y-140360000D01*
G75*
G02*
X120485000Y-140435000I0J-75000D01*
G01*
X120485000Y-140585000D01*
G75*
G02*
X120410000Y-140660000I-75000J0D01*
G01*
X118960000Y-140660000D01*
G75*
G02*
X118885000Y-140585000I0J75000D01*
G01*
G37*
G36*
G01*
X118885000Y-140085000D02*
X118885000Y-139935000D01*
G75*
G02*
X118960000Y-139860000I75000J0D01*
G01*
X120410000Y-139860000D01*
G75*
G02*
X120485000Y-139935000I0J-75000D01*
G01*
X120485000Y-140085000D01*
G75*
G02*
X120410000Y-140160000I-75000J0D01*
G01*
X118960000Y-140160000D01*
G75*
G02*
X118885000Y-140085000I0J75000D01*
G01*
G37*
G36*
G01*
X118885000Y-139585000D02*
X118885000Y-139435000D01*
G75*
G02*
X118960000Y-139360000I75000J0D01*
G01*
X120410000Y-139360000D01*
G75*
G02*
X120485000Y-139435000I0J-75000D01*
G01*
X120485000Y-139585000D01*
G75*
G02*
X120410000Y-139660000I-75000J0D01*
G01*
X118960000Y-139660000D01*
G75*
G02*
X118885000Y-139585000I0J75000D01*
G01*
G37*
G36*
G01*
X118885000Y-139085000D02*
X118885000Y-138935000D01*
G75*
G02*
X118960000Y-138860000I75000J0D01*
G01*
X120410000Y-138860000D01*
G75*
G02*
X120485000Y-138935000I0J-75000D01*
G01*
X120485000Y-139085000D01*
G75*
G02*
X120410000Y-139160000I-75000J0D01*
G01*
X118960000Y-139160000D01*
G75*
G02*
X118885000Y-139085000I0J75000D01*
G01*
G37*
G36*
G01*
X118885000Y-138585000D02*
X118885000Y-138435000D01*
G75*
G02*
X118960000Y-138360000I75000J0D01*
G01*
X120410000Y-138360000D01*
G75*
G02*
X120485000Y-138435000I0J-75000D01*
G01*
X120485000Y-138585000D01*
G75*
G02*
X120410000Y-138660000I-75000J0D01*
G01*
X118960000Y-138660000D01*
G75*
G02*
X118885000Y-138585000I0J75000D01*
G01*
G37*
G36*
G01*
X118885000Y-138085000D02*
X118885000Y-137935000D01*
G75*
G02*
X118960000Y-137860000I75000J0D01*
G01*
X120410000Y-137860000D01*
G75*
G02*
X120485000Y-137935000I0J-75000D01*
G01*
X120485000Y-138085000D01*
G75*
G02*
X120410000Y-138160000I-75000J0D01*
G01*
X118960000Y-138160000D01*
G75*
G02*
X118885000Y-138085000I0J75000D01*
G01*
G37*
G36*
G01*
X118885000Y-137585000D02*
X118885000Y-137435000D01*
G75*
G02*
X118960000Y-137360000I75000J0D01*
G01*
X120410000Y-137360000D01*
G75*
G02*
X120485000Y-137435000I0J-75000D01*
G01*
X120485000Y-137585000D01*
G75*
G02*
X120410000Y-137660000I-75000J0D01*
G01*
X118960000Y-137660000D01*
G75*
G02*
X118885000Y-137585000I0J75000D01*
G01*
G37*
G36*
G01*
X118885000Y-137085000D02*
X118885000Y-136935000D01*
G75*
G02*
X118960000Y-136860000I75000J0D01*
G01*
X120410000Y-136860000D01*
G75*
G02*
X120485000Y-136935000I0J-75000D01*
G01*
X120485000Y-137085000D01*
G75*
G02*
X120410000Y-137160000I-75000J0D01*
G01*
X118960000Y-137160000D01*
G75*
G02*
X118885000Y-137085000I0J75000D01*
G01*
G37*
G36*
G01*
X118885000Y-136585000D02*
X118885000Y-136435000D01*
G75*
G02*
X118960000Y-136360000I75000J0D01*
G01*
X120410000Y-136360000D01*
G75*
G02*
X120485000Y-136435000I0J-75000D01*
G01*
X120485000Y-136585000D01*
G75*
G02*
X120410000Y-136660000I-75000J0D01*
G01*
X118960000Y-136660000D01*
G75*
G02*
X118885000Y-136585000I0J75000D01*
G01*
G37*
G36*
G01*
X118885000Y-136085000D02*
X118885000Y-135935000D01*
G75*
G02*
X118960000Y-135860000I75000J0D01*
G01*
X120410000Y-135860000D01*
G75*
G02*
X120485000Y-135935000I0J-75000D01*
G01*
X120485000Y-136085000D01*
G75*
G02*
X120410000Y-136160000I-75000J0D01*
G01*
X118960000Y-136160000D01*
G75*
G02*
X118885000Y-136085000I0J75000D01*
G01*
G37*
G36*
G01*
X118885000Y-135585000D02*
X118885000Y-135435000D01*
G75*
G02*
X118960000Y-135360000I75000J0D01*
G01*
X120410000Y-135360000D01*
G75*
G02*
X120485000Y-135435000I0J-75000D01*
G01*
X120485000Y-135585000D01*
G75*
G02*
X120410000Y-135660000I-75000J0D01*
G01*
X118960000Y-135660000D01*
G75*
G02*
X118885000Y-135585000I0J75000D01*
G01*
G37*
G36*
G01*
X118885000Y-135085000D02*
X118885000Y-134935000D01*
G75*
G02*
X118960000Y-134860000I75000J0D01*
G01*
X120410000Y-134860000D01*
G75*
G02*
X120485000Y-134935000I0J-75000D01*
G01*
X120485000Y-135085000D01*
G75*
G02*
X120410000Y-135160000I-75000J0D01*
G01*
X118960000Y-135160000D01*
G75*
G02*
X118885000Y-135085000I0J75000D01*
G01*
G37*
G36*
G01*
X118885000Y-134585000D02*
X118885000Y-134435000D01*
G75*
G02*
X118960000Y-134360000I75000J0D01*
G01*
X120410000Y-134360000D01*
G75*
G02*
X120485000Y-134435000I0J-75000D01*
G01*
X120485000Y-134585000D01*
G75*
G02*
X120410000Y-134660000I-75000J0D01*
G01*
X118960000Y-134660000D01*
G75*
G02*
X118885000Y-134585000I0J75000D01*
G01*
G37*
G36*
G01*
X92840000Y-117520000D02*
X92840000Y-116420000D01*
G75*
G02*
X93090000Y-116170000I250000J0D01*
G01*
X96090000Y-116170000D01*
G75*
G02*
X96340000Y-116420000I0J-250000D01*
G01*
X96340000Y-117520000D01*
G75*
G02*
X96090000Y-117770000I-250000J0D01*
G01*
X93090000Y-117770000D01*
G75*
G02*
X92840000Y-117520000I0J250000D01*
G01*
G37*
G36*
G01*
X98240000Y-117520000D02*
X98240000Y-116420000D01*
G75*
G02*
X98490000Y-116170000I250000J0D01*
G01*
X101490000Y-116170000D01*
G75*
G02*
X101740000Y-116420000I0J-250000D01*
G01*
X101740000Y-117520000D01*
G75*
G02*
X101490000Y-117770000I-250000J0D01*
G01*
X98490000Y-117770000D01*
G75*
G02*
X98240000Y-117520000I0J250000D01*
G01*
G37*
G36*
G01*
X76740001Y-123000000D02*
X75839999Y-123000000D01*
G75*
G02*
X75590000Y-122750001I0J249999D01*
G01*
X75590000Y-122224999D01*
G75*
G02*
X75839999Y-121975000I249999J0D01*
G01*
X76740001Y-121975000D01*
G75*
G02*
X76990000Y-122224999I0J-249999D01*
G01*
X76990000Y-122750001D01*
G75*
G02*
X76740001Y-123000000I-249999J0D01*
G01*
G37*
G36*
G01*
X76740001Y-124825000D02*
X75839999Y-124825000D01*
G75*
G02*
X75590000Y-124575001I0J249999D01*
G01*
X75590000Y-124049999D01*
G75*
G02*
X75839999Y-123800000I249999J0D01*
G01*
X76740001Y-123800000D01*
G75*
G02*
X76990000Y-124049999I0J-249999D01*
G01*
X76990000Y-124575001D01*
G75*
G02*
X76740001Y-124825000I-249999J0D01*
G01*
G37*
G36*
G01*
X78710001Y-122990000D02*
X77809999Y-122990000D01*
G75*
G02*
X77560000Y-122740001I0J249999D01*
G01*
X77560000Y-122214999D01*
G75*
G02*
X77809999Y-121965000I249999J0D01*
G01*
X78710001Y-121965000D01*
G75*
G02*
X78960000Y-122214999I0J-249999D01*
G01*
X78960000Y-122740001D01*
G75*
G02*
X78710001Y-122990000I-249999J0D01*
G01*
G37*
G36*
G01*
X78710001Y-124815000D02*
X77809999Y-124815000D01*
G75*
G02*
X77560000Y-124565001I0J249999D01*
G01*
X77560000Y-124039999D01*
G75*
G02*
X77809999Y-123790000I249999J0D01*
G01*
X78710001Y-123790000D01*
G75*
G02*
X78960000Y-124039999I0J-249999D01*
G01*
X78960000Y-124565001D01*
G75*
G02*
X78710001Y-124815000I-249999J0D01*
G01*
G37*
D13*
X85450000Y-123270000D03*
X83450000Y-124220000D03*
X83450000Y-122320000D03*
D33*
X73550000Y-124420000D03*
X72600000Y-122420000D03*
X74500000Y-122420000D03*
D29*
X85120000Y-153470000D03*
G36*
G01*
X81770000Y-154220000D02*
X81770000Y-152720000D01*
G75*
G02*
X82020000Y-152470000I250000J0D01*
G01*
X83220000Y-152470000D01*
G75*
G02*
X83470000Y-152720000I0J-250000D01*
G01*
X83470000Y-154220000D01*
G75*
G02*
X83220000Y-154470000I-250000J0D01*
G01*
X82020000Y-154470000D01*
G75*
G02*
X81770000Y-154220000I0J250000D01*
G01*
G37*
X85120000Y-145460000D03*
G36*
G01*
X81770000Y-146210000D02*
X81770000Y-144710000D01*
G75*
G02*
X82020000Y-144460000I250000J0D01*
G01*
X83220000Y-144460000D01*
G75*
G02*
X83470000Y-144710000I0J-250000D01*
G01*
X83470000Y-146210000D01*
G75*
G02*
X83220000Y-146460000I-250000J0D01*
G01*
X82020000Y-146460000D01*
G75*
G02*
X81770000Y-146210000I0J250000D01*
G01*
G37*
X74510000Y-153460000D03*
G36*
G01*
X71160000Y-154210000D02*
X71160000Y-152710000D01*
G75*
G02*
X71410000Y-152460000I250000J0D01*
G01*
X72610000Y-152460000D01*
G75*
G02*
X72860000Y-152710000I0J-250000D01*
G01*
X72860000Y-154210000D01*
G75*
G02*
X72610000Y-154460000I-250000J0D01*
G01*
X71410000Y-154460000D01*
G75*
G02*
X71160000Y-154210000I0J250000D01*
G01*
G37*
X74510000Y-145460000D03*
G36*
G01*
X71160000Y-146210000D02*
X71160000Y-144710000D01*
G75*
G02*
X71410000Y-144460000I250000J0D01*
G01*
X72610000Y-144460000D01*
G75*
G02*
X72860000Y-144710000I0J-250000D01*
G01*
X72860000Y-146210000D01*
G75*
G02*
X72610000Y-146460000I-250000J0D01*
G01*
X71410000Y-146460000D01*
G75*
G02*
X71160000Y-146210000I0J250000D01*
G01*
G37*
X74510000Y-137460000D03*
G36*
G01*
X71160000Y-138210000D02*
X71160000Y-136710000D01*
G75*
G02*
X71410000Y-136460000I250000J0D01*
G01*
X72610000Y-136460000D01*
G75*
G02*
X72860000Y-136710000I0J-250000D01*
G01*
X72860000Y-138210000D01*
G75*
G02*
X72610000Y-138460000I-250000J0D01*
G01*
X71410000Y-138460000D01*
G75*
G02*
X71160000Y-138210000I0J250000D01*
G01*
G37*
X85070000Y-129460000D03*
G36*
G01*
X81720000Y-130210000D02*
X81720000Y-128710000D01*
G75*
G02*
X81970000Y-128460000I250000J0D01*
G01*
X83170000Y-128460000D01*
G75*
G02*
X83420000Y-128710000I0J-250000D01*
G01*
X83420000Y-130210000D01*
G75*
G02*
X83170000Y-130460000I-250000J0D01*
G01*
X81970000Y-130460000D01*
G75*
G02*
X81720000Y-130210000I0J250000D01*
G01*
G37*
X74510000Y-129460000D03*
G36*
G01*
X71160000Y-130210000D02*
X71160000Y-128710000D01*
G75*
G02*
X71410000Y-128460000I250000J0D01*
G01*
X72610000Y-128460000D01*
G75*
G02*
X72860000Y-128710000I0J-250000D01*
G01*
X72860000Y-130210000D01*
G75*
G02*
X72610000Y-130460000I-250000J0D01*
G01*
X71410000Y-130460000D01*
G75*
G02*
X71160000Y-130210000I0J250000D01*
G01*
G37*
D34*
X162140000Y-133990000D03*
X162140000Y-134790000D03*
X162140000Y-133990000D03*
X162140000Y-134790000D03*
X162140000Y-140390000D03*
X162140000Y-140390000D03*
X162140000Y-139590000D03*
X162140000Y-139590000D03*
D35*
X163200000Y-140080000D03*
X163200000Y-134300000D03*
D36*
X162140000Y-135440000D03*
X162140000Y-136440000D03*
X162140000Y-135940000D03*
X162140000Y-138440000D03*
X162140000Y-138940000D03*
X162140000Y-136940000D03*
X162140000Y-137440000D03*
X162140000Y-137940000D03*
D37*
X166890000Y-132870000D03*
X166890000Y-141510000D03*
D38*
X162720000Y-132870000D03*
X162720000Y-141510000D03*
D14*
X82120000Y-117590000D03*
X82120000Y-120390000D03*
X70600000Y-124350000D03*
X70600000Y-121550000D03*
G36*
G01*
X79439999Y-118945000D02*
X80340001Y-118945000D01*
G75*
G02*
X80590000Y-119194999I0J-249999D01*
G01*
X80590000Y-119720001D01*
G75*
G02*
X80340001Y-119970000I-249999J0D01*
G01*
X79439999Y-119970000D01*
G75*
G02*
X79190000Y-119720001I0J249999D01*
G01*
X79190000Y-119194999D01*
G75*
G02*
X79439999Y-118945000I249999J0D01*
G01*
G37*
G36*
G01*
X79439999Y-117120000D02*
X80340001Y-117120000D01*
G75*
G02*
X80590000Y-117369999I0J-249999D01*
G01*
X80590000Y-117895001D01*
G75*
G02*
X80340001Y-118145000I-249999J0D01*
G01*
X79439999Y-118145000D01*
G75*
G02*
X79190000Y-117895001I0J249999D01*
G01*
X79190000Y-117369999D01*
G75*
G02*
X79439999Y-117120000I249999J0D01*
G01*
G37*
G36*
G01*
X77464999Y-118945000D02*
X78365001Y-118945000D01*
G75*
G02*
X78615000Y-119194999I0J-249999D01*
G01*
X78615000Y-119720001D01*
G75*
G02*
X78365001Y-119970000I-249999J0D01*
G01*
X77464999Y-119970000D01*
G75*
G02*
X77215000Y-119720001I0J249999D01*
G01*
X77215000Y-119194999D01*
G75*
G02*
X77464999Y-118945000I249999J0D01*
G01*
G37*
G36*
G01*
X77464999Y-117120000D02*
X78365001Y-117120000D01*
G75*
G02*
X78615000Y-117369999I0J-249999D01*
G01*
X78615000Y-117895001D01*
G75*
G02*
X78365001Y-118145000I-249999J0D01*
G01*
X77464999Y-118145000D01*
G75*
G02*
X77215000Y-117895001I0J249999D01*
G01*
X77215000Y-117369999D01*
G75*
G02*
X77464999Y-117120000I249999J0D01*
G01*
G37*
D34*
X75825000Y-118595000D03*
X75825000Y-117795000D03*
X75825000Y-118595000D03*
X75825000Y-117795000D03*
X75825000Y-112195000D03*
X75825000Y-112195000D03*
X75825000Y-112995000D03*
X75825000Y-112995000D03*
D35*
X74765000Y-112505000D03*
X74765000Y-118285000D03*
D36*
X75825000Y-117145000D03*
X75825000Y-116145000D03*
X75825000Y-116645000D03*
X75825000Y-114145000D03*
X75825000Y-113645000D03*
X75825000Y-115645000D03*
X75825000Y-115145000D03*
X75825000Y-114645000D03*
D37*
X71075000Y-119715000D03*
X71075000Y-111075000D03*
D38*
X75245000Y-119715000D03*
X75245000Y-111075000D03*
G36*
G01*
X83065000Y-106795001D02*
X83065000Y-105894999D01*
G75*
G02*
X83314999Y-105645000I249999J0D01*
G01*
X83840001Y-105645000D01*
G75*
G02*
X84090000Y-105894999I0J-249999D01*
G01*
X84090000Y-106795001D01*
G75*
G02*
X83840001Y-107045000I-249999J0D01*
G01*
X83314999Y-107045000D01*
G75*
G02*
X83065000Y-106795001I0J249999D01*
G01*
G37*
G36*
G01*
X81240000Y-106795001D02*
X81240000Y-105894999D01*
G75*
G02*
X81489999Y-105645000I249999J0D01*
G01*
X82015001Y-105645000D01*
G75*
G02*
X82265000Y-105894999I0J-249999D01*
G01*
X82265000Y-106795001D01*
G75*
G02*
X82015001Y-107045000I-249999J0D01*
G01*
X81489999Y-107045000D01*
G75*
G02*
X81240000Y-106795001I0J249999D01*
G01*
G37*
D39*
X76140000Y-106495000D03*
X70440000Y-106495000D03*
G36*
G01*
X82715000Y-99095000D02*
X81765000Y-99095000D01*
G75*
G02*
X81515000Y-98845000I0J250000D01*
G01*
X81515000Y-98345000D01*
G75*
G02*
X81765000Y-98095000I250000J0D01*
G01*
X82715000Y-98095000D01*
G75*
G02*
X82965000Y-98345000I0J-250000D01*
G01*
X82965000Y-98845000D01*
G75*
G02*
X82715000Y-99095000I-250000J0D01*
G01*
G37*
G36*
G01*
X82715000Y-100995000D02*
X81765000Y-100995000D01*
G75*
G02*
X81515000Y-100745000I0J250000D01*
G01*
X81515000Y-100245000D01*
G75*
G02*
X81765000Y-99995000I250000J0D01*
G01*
X82715000Y-99995000D01*
G75*
G02*
X82965000Y-100245000I0J-250000D01*
G01*
X82965000Y-100745000D01*
G75*
G02*
X82715000Y-100995000I-250000J0D01*
G01*
G37*
G36*
G01*
X82490000Y-96045000D02*
X82490000Y-96995000D01*
G75*
G02*
X82240000Y-97245000I-250000J0D01*
G01*
X81740000Y-97245000D01*
G75*
G02*
X81490000Y-96995000I0J250000D01*
G01*
X81490000Y-96045000D01*
G75*
G02*
X81740000Y-95795000I250000J0D01*
G01*
X82240000Y-95795000D01*
G75*
G02*
X82490000Y-96045000I0J-250000D01*
G01*
G37*
G36*
G01*
X84390000Y-96045000D02*
X84390000Y-96995000D01*
G75*
G02*
X84140000Y-97245000I-250000J0D01*
G01*
X83640000Y-97245000D01*
G75*
G02*
X83390000Y-96995000I0J250000D01*
G01*
X83390000Y-96045000D01*
G75*
G02*
X83640000Y-95795000I250000J0D01*
G01*
X84140000Y-95795000D01*
G75*
G02*
X84390000Y-96045000I0J-250000D01*
G01*
G37*
D40*
X74715000Y-100050000D03*
X74715000Y-98780000D03*
X74715000Y-97510000D03*
X74715000Y-96240000D03*
X80115000Y-96240000D03*
X80115000Y-97510000D03*
X80115000Y-98780000D03*
X80115000Y-100050000D03*
D41*
X77415000Y-98145000D03*
G36*
G01*
X79565000Y-104770001D02*
X79565000Y-103869999D01*
G75*
G02*
X79814999Y-103620000I249999J0D01*
G01*
X80340001Y-103620000D01*
G75*
G02*
X80590000Y-103869999I0J-249999D01*
G01*
X80590000Y-104770001D01*
G75*
G02*
X80340001Y-105020000I-249999J0D01*
G01*
X79814999Y-105020000D01*
G75*
G02*
X79565000Y-104770001I0J249999D01*
G01*
G37*
G36*
G01*
X77740000Y-104770001D02*
X77740000Y-103869999D01*
G75*
G02*
X77989999Y-103620000I249999J0D01*
G01*
X78515001Y-103620000D01*
G75*
G02*
X78765000Y-103869999I0J-249999D01*
G01*
X78765000Y-104770001D01*
G75*
G02*
X78515001Y-105020000I-249999J0D01*
G01*
X77989999Y-105020000D01*
G75*
G02*
X77740000Y-104770001I0J249999D01*
G01*
G37*
G36*
G01*
X79590000Y-106770001D02*
X79590000Y-105869999D01*
G75*
G02*
X79839999Y-105620000I249999J0D01*
G01*
X80365001Y-105620000D01*
G75*
G02*
X80615000Y-105869999I0J-249999D01*
G01*
X80615000Y-106770001D01*
G75*
G02*
X80365001Y-107020000I-249999J0D01*
G01*
X79839999Y-107020000D01*
G75*
G02*
X79590000Y-106770001I0J249999D01*
G01*
G37*
G36*
G01*
X77765000Y-106770001D02*
X77765000Y-105869999D01*
G75*
G02*
X78014999Y-105620000I249999J0D01*
G01*
X78540001Y-105620000D01*
G75*
G02*
X78790000Y-105869999I0J-249999D01*
G01*
X78790000Y-106770001D01*
G75*
G02*
X78540001Y-107020000I-249999J0D01*
G01*
X78014999Y-107020000D01*
G75*
G02*
X77765000Y-106770001I0J249999D01*
G01*
G37*
G36*
G01*
X83040000Y-102745001D02*
X83040000Y-101844999D01*
G75*
G02*
X83289999Y-101595000I249999J0D01*
G01*
X83815001Y-101595000D01*
G75*
G02*
X84065000Y-101844999I0J-249999D01*
G01*
X84065000Y-102745001D01*
G75*
G02*
X83815001Y-102995000I-249999J0D01*
G01*
X83289999Y-102995000D01*
G75*
G02*
X83040000Y-102745001I0J249999D01*
G01*
G37*
G36*
G01*
X81215000Y-102745001D02*
X81215000Y-101844999D01*
G75*
G02*
X81464999Y-101595000I249999J0D01*
G01*
X81990001Y-101595000D01*
G75*
G02*
X82240000Y-101844999I0J-249999D01*
G01*
X82240000Y-102745001D01*
G75*
G02*
X81990001Y-102995000I-249999J0D01*
G01*
X81464999Y-102995000D01*
G75*
G02*
X81215000Y-102745001I0J249999D01*
G01*
G37*
D42*
X71365000Y-97070000D03*
X71365000Y-101370000D03*
G36*
G01*
X81050000Y-111100000D02*
X79950000Y-111100000D01*
G75*
G02*
X79700000Y-110850000I0J250000D01*
G01*
X79700000Y-107850000D01*
G75*
G02*
X79950000Y-107600000I250000J0D01*
G01*
X81050000Y-107600000D01*
G75*
G02*
X81300000Y-107850000I0J-250000D01*
G01*
X81300000Y-110850000D01*
G75*
G02*
X81050000Y-111100000I-250000J0D01*
G01*
G37*
G36*
G01*
X81050000Y-116500000D02*
X79950000Y-116500000D01*
G75*
G02*
X79700000Y-116250000I0J250000D01*
G01*
X79700000Y-113250000D01*
G75*
G02*
X79950000Y-113000000I250000J0D01*
G01*
X81050000Y-113000000D01*
G75*
G02*
X81300000Y-113250000I0J-250000D01*
G01*
X81300000Y-116250000D01*
G75*
G02*
X81050000Y-116500000I-250000J0D01*
G01*
G37*
G36*
G01*
X75865000Y-102420000D02*
X75865000Y-101470000D01*
G75*
G02*
X76115000Y-101220000I250000J0D01*
G01*
X76615000Y-101220000D01*
G75*
G02*
X76865000Y-101470000I0J-250000D01*
G01*
X76865000Y-102420000D01*
G75*
G02*
X76615000Y-102670000I-250000J0D01*
G01*
X76115000Y-102670000D01*
G75*
G02*
X75865000Y-102420000I0J250000D01*
G01*
G37*
G36*
G01*
X73965000Y-102420000D02*
X73965000Y-101470000D01*
G75*
G02*
X74215000Y-101220000I250000J0D01*
G01*
X74715000Y-101220000D01*
G75*
G02*
X74965000Y-101470000I0J-250000D01*
G01*
X74965000Y-102420000D01*
G75*
G02*
X74715000Y-102670000I-250000J0D01*
G01*
X74215000Y-102670000D01*
G75*
G02*
X73965000Y-102420000I0J250000D01*
G01*
G37*
G36*
G01*
X78740000Y-101470000D02*
X78740000Y-102420000D01*
G75*
G02*
X78490000Y-102670000I-250000J0D01*
G01*
X77990000Y-102670000D01*
G75*
G02*
X77740000Y-102420000I0J250000D01*
G01*
X77740000Y-101470000D01*
G75*
G02*
X77990000Y-101220000I250000J0D01*
G01*
X78490000Y-101220000D01*
G75*
G02*
X78740000Y-101470000I0J-250000D01*
G01*
G37*
G36*
G01*
X80640000Y-101470000D02*
X80640000Y-102420000D01*
G75*
G02*
X80390000Y-102670000I-250000J0D01*
G01*
X79890000Y-102670000D01*
G75*
G02*
X79640000Y-102420000I0J250000D01*
G01*
X79640000Y-101470000D01*
G75*
G02*
X79890000Y-101220000I250000J0D01*
G01*
X80390000Y-101220000D01*
G75*
G02*
X80640000Y-101470000I0J-250000D01*
G01*
G37*
G36*
G01*
X82190000Y-103870000D02*
X82190000Y-104820000D01*
G75*
G02*
X81940000Y-105070000I-250000J0D01*
G01*
X81440000Y-105070000D01*
G75*
G02*
X81190000Y-104820000I0J250000D01*
G01*
X81190000Y-103870000D01*
G75*
G02*
X81440000Y-103620000I250000J0D01*
G01*
X81940000Y-103620000D01*
G75*
G02*
X82190000Y-103870000I0J-250000D01*
G01*
G37*
G36*
G01*
X84090000Y-103870000D02*
X84090000Y-104820000D01*
G75*
G02*
X83840000Y-105070000I-250000J0D01*
G01*
X83340000Y-105070000D01*
G75*
G02*
X83090000Y-104820000I0J250000D01*
G01*
X83090000Y-103870000D01*
G75*
G02*
X83340000Y-103620000I250000J0D01*
G01*
X83840000Y-103620000D01*
G75*
G02*
X84090000Y-103870000I0J-250000D01*
G01*
G37*
D43*
X103940000Y-111720000D03*
X86160000Y-99020000D03*
X101400000Y-111720000D03*
X88700000Y-99020000D03*
X98860000Y-111720000D03*
X91240000Y-99020000D03*
X96320000Y-111720000D03*
X93780000Y-99020000D03*
X93780000Y-111720000D03*
X96320000Y-99020000D03*
X91240000Y-111720000D03*
X98860000Y-99020000D03*
X88700000Y-111720000D03*
X101400000Y-99020000D03*
X86160000Y-111720000D03*
D16*
X103940000Y-99020000D03*
G36*
G01*
X70235000Y-87970000D02*
X69935000Y-87970000D01*
G75*
G02*
X69785000Y-87820000I0J150000D01*
G01*
X69785000Y-86370000D01*
G75*
G02*
X69935000Y-86220000I150000J0D01*
G01*
X70235000Y-86220000D01*
G75*
G02*
X70385000Y-86370000I0J-150000D01*
G01*
X70385000Y-87820000D01*
G75*
G02*
X70235000Y-87970000I-150000J0D01*
G01*
G37*
G36*
G01*
X71505000Y-87970000D02*
X71205000Y-87970000D01*
G75*
G02*
X71055000Y-87820000I0J150000D01*
G01*
X71055000Y-86370000D01*
G75*
G02*
X71205000Y-86220000I150000J0D01*
G01*
X71505000Y-86220000D01*
G75*
G02*
X71655000Y-86370000I0J-150000D01*
G01*
X71655000Y-87820000D01*
G75*
G02*
X71505000Y-87970000I-150000J0D01*
G01*
G37*
G36*
G01*
X72775000Y-87970000D02*
X72475000Y-87970000D01*
G75*
G02*
X72325000Y-87820000I0J150000D01*
G01*
X72325000Y-86370000D01*
G75*
G02*
X72475000Y-86220000I150000J0D01*
G01*
X72775000Y-86220000D01*
G75*
G02*
X72925000Y-86370000I0J-150000D01*
G01*
X72925000Y-87820000D01*
G75*
G02*
X72775000Y-87970000I-150000J0D01*
G01*
G37*
G36*
G01*
X74045000Y-87970000D02*
X73745000Y-87970000D01*
G75*
G02*
X73595000Y-87820000I0J150000D01*
G01*
X73595000Y-86370000D01*
G75*
G02*
X73745000Y-86220000I150000J0D01*
G01*
X74045000Y-86220000D01*
G75*
G02*
X74195000Y-86370000I0J-150000D01*
G01*
X74195000Y-87820000D01*
G75*
G02*
X74045000Y-87970000I-150000J0D01*
G01*
G37*
G36*
G01*
X74045000Y-93120000D02*
X73745000Y-93120000D01*
G75*
G02*
X73595000Y-92970000I0J150000D01*
G01*
X73595000Y-91520000D01*
G75*
G02*
X73745000Y-91370000I150000J0D01*
G01*
X74045000Y-91370000D01*
G75*
G02*
X74195000Y-91520000I0J-150000D01*
G01*
X74195000Y-92970000D01*
G75*
G02*
X74045000Y-93120000I-150000J0D01*
G01*
G37*
G36*
G01*
X72775000Y-93120000D02*
X72475000Y-93120000D01*
G75*
G02*
X72325000Y-92970000I0J150000D01*
G01*
X72325000Y-91520000D01*
G75*
G02*
X72475000Y-91370000I150000J0D01*
G01*
X72775000Y-91370000D01*
G75*
G02*
X72925000Y-91520000I0J-150000D01*
G01*
X72925000Y-92970000D01*
G75*
G02*
X72775000Y-93120000I-150000J0D01*
G01*
G37*
G36*
G01*
X71505000Y-93120000D02*
X71205000Y-93120000D01*
G75*
G02*
X71055000Y-92970000I0J150000D01*
G01*
X71055000Y-91520000D01*
G75*
G02*
X71205000Y-91370000I150000J0D01*
G01*
X71505000Y-91370000D01*
G75*
G02*
X71655000Y-91520000I0J-150000D01*
G01*
X71655000Y-92970000D01*
G75*
G02*
X71505000Y-93120000I-150000J0D01*
G01*
G37*
G36*
G01*
X70235000Y-93120000D02*
X69935000Y-93120000D01*
G75*
G02*
X69785000Y-92970000I0J150000D01*
G01*
X69785000Y-91520000D01*
G75*
G02*
X69935000Y-91370000I150000J0D01*
G01*
X70235000Y-91370000D01*
G75*
G02*
X70385000Y-91520000I0J-150000D01*
G01*
X70385000Y-92970000D01*
G75*
G02*
X70235000Y-93120000I-150000J0D01*
G01*
G37*
D28*
X112290000Y-94370000D03*
X114790000Y-94370000D03*
X117290000Y-94370000D03*
G36*
G01*
X120640000Y-93645000D02*
X120640000Y-95095000D01*
G75*
G02*
X120390000Y-95345000I-250000J0D01*
G01*
X119190000Y-95345000D01*
G75*
G02*
X118940000Y-95095000I0J250000D01*
G01*
X118940000Y-93645000D01*
G75*
G02*
X119190000Y-93395000I250000J0D01*
G01*
X120390000Y-93395000D01*
G75*
G02*
X120640000Y-93645000I0J-250000D01*
G01*
G37*
X133290000Y-94420000D03*
X135790000Y-94420000D03*
X138290000Y-94420000D03*
G36*
G01*
X141640000Y-93695000D02*
X141640000Y-95145000D01*
G75*
G02*
X141390000Y-95395000I-250000J0D01*
G01*
X140190000Y-95395000D01*
G75*
G02*
X139940000Y-95145000I0J250000D01*
G01*
X139940000Y-93695000D01*
G75*
G02*
X140190000Y-93445000I250000J0D01*
G01*
X141390000Y-93445000D01*
G75*
G02*
X141640000Y-93695000I0J-250000D01*
G01*
G37*
X91340000Y-94420000D03*
X93840000Y-94420000D03*
X96340000Y-94420000D03*
G36*
G01*
X99690000Y-93695000D02*
X99690000Y-95145000D01*
G75*
G02*
X99440000Y-95395000I-250000J0D01*
G01*
X98240000Y-95395000D01*
G75*
G02*
X97990000Y-95145000I0J250000D01*
G01*
X97990000Y-93695000D01*
G75*
G02*
X98240000Y-93445000I250000J0D01*
G01*
X99440000Y-93445000D01*
G75*
G02*
X99690000Y-93695000I0J-250000D01*
G01*
G37*
G36*
G01*
X82890001Y-78470000D02*
X81989999Y-78470000D01*
G75*
G02*
X81740000Y-78220001I0J249999D01*
G01*
X81740000Y-77694999D01*
G75*
G02*
X81989999Y-77445000I249999J0D01*
G01*
X82890001Y-77445000D01*
G75*
G02*
X83140000Y-77694999I0J-249999D01*
G01*
X83140000Y-78220001D01*
G75*
G02*
X82890001Y-78470000I-249999J0D01*
G01*
G37*
G36*
G01*
X82890001Y-80295000D02*
X81989999Y-80295000D01*
G75*
G02*
X81740000Y-80045001I0J249999D01*
G01*
X81740000Y-79519999D01*
G75*
G02*
X81989999Y-79270000I249999J0D01*
G01*
X82890001Y-79270000D01*
G75*
G02*
X83140000Y-79519999I0J-249999D01*
G01*
X83140000Y-80045001D01*
G75*
G02*
X82890001Y-80295000I-249999J0D01*
G01*
G37*
D44*
X73990000Y-77420000D03*
D45*
X73990000Y-82420000D03*
D24*
X158940000Y-70770000D03*
X81790000Y-75920000D03*
G36*
G01*
X81983750Y-83020000D02*
X82896250Y-83020000D01*
G75*
G02*
X83140000Y-83263750I0J-243750D01*
G01*
X83140000Y-83751250D01*
G75*
G02*
X82896250Y-83995000I-243750J0D01*
G01*
X81983750Y-83995000D01*
G75*
G02*
X81740000Y-83751250I0J243750D01*
G01*
X81740000Y-83263750D01*
G75*
G02*
X81983750Y-83020000I243750J0D01*
G01*
G37*
G36*
G01*
X81983750Y-81145000D02*
X82896250Y-81145000D01*
G75*
G02*
X83140000Y-81388750I0J-243750D01*
G01*
X83140000Y-81876250D01*
G75*
G02*
X82896250Y-82120000I-243750J0D01*
G01*
X81983750Y-82120000D01*
G75*
G02*
X81740000Y-81876250I0J243750D01*
G01*
X81740000Y-81388750D01*
G75*
G02*
X81983750Y-81145000I243750J0D01*
G01*
G37*
G36*
G01*
X80540000Y-90220000D02*
X80540000Y-89120000D01*
G75*
G02*
X80790000Y-88870000I250000J0D01*
G01*
X83790000Y-88870000D01*
G75*
G02*
X84040000Y-89120000I0J-250000D01*
G01*
X84040000Y-90220000D01*
G75*
G02*
X83790000Y-90470000I-250000J0D01*
G01*
X80790000Y-90470000D01*
G75*
G02*
X80540000Y-90220000I0J250000D01*
G01*
G37*
G36*
G01*
X75140000Y-90220000D02*
X75140000Y-89120000D01*
G75*
G02*
X75390000Y-88870000I250000J0D01*
G01*
X78390000Y-88870000D01*
G75*
G02*
X78640000Y-89120000I0J-250000D01*
G01*
X78640000Y-90220000D01*
G75*
G02*
X78390000Y-90470000I-250000J0D01*
G01*
X75390000Y-90470000D01*
G75*
G02*
X75140000Y-90220000I0J250000D01*
G01*
G37*
G36*
G01*
X90315000Y-109370001D02*
X90315000Y-108469999D01*
G75*
G02*
X90564999Y-108220000I249999J0D01*
G01*
X91090001Y-108220000D01*
G75*
G02*
X91340000Y-108469999I0J-249999D01*
G01*
X91340000Y-109370001D01*
G75*
G02*
X91090001Y-109620000I-249999J0D01*
G01*
X90564999Y-109620000D01*
G75*
G02*
X90315000Y-109370001I0J249999D01*
G01*
G37*
G36*
G01*
X92140000Y-109370001D02*
X92140000Y-108469999D01*
G75*
G02*
X92389999Y-108220000I249999J0D01*
G01*
X92915001Y-108220000D01*
G75*
G02*
X93165000Y-108469999I0J-249999D01*
G01*
X93165000Y-109370001D01*
G75*
G02*
X92915001Y-109620000I-249999J0D01*
G01*
X92389999Y-109620000D01*
G75*
G02*
X92140000Y-109370001I0J249999D01*
G01*
G37*
D22*
X103700000Y-102010000D03*
D21*
X103700000Y-104550000D03*
X103700000Y-107090000D03*
G36*
G01*
X84690000Y-104770000D02*
X84690000Y-103670000D01*
G75*
G02*
X84940000Y-103420000I250000J0D01*
G01*
X87940000Y-103420000D01*
G75*
G02*
X88190000Y-103670000I0J-250000D01*
G01*
X88190000Y-104770000D01*
G75*
G02*
X87940000Y-105020000I-250000J0D01*
G01*
X84940000Y-105020000D01*
G75*
G02*
X84690000Y-104770000I0J250000D01*
G01*
G37*
G36*
G01*
X90090000Y-104770000D02*
X90090000Y-103670000D01*
G75*
G02*
X90340000Y-103420000I250000J0D01*
G01*
X93340000Y-103420000D01*
G75*
G02*
X93590000Y-103670000I0J-250000D01*
G01*
X93590000Y-104770000D01*
G75*
G02*
X93340000Y-105020000I-250000J0D01*
G01*
X90340000Y-105020000D01*
G75*
G02*
X90090000Y-104770000I0J250000D01*
G01*
G37*
D22*
X98140000Y-102010000D03*
D21*
X98140000Y-104550000D03*
X98140000Y-107090000D03*
D22*
X95340000Y-102010000D03*
D21*
X95340000Y-104550000D03*
X95340000Y-107090000D03*
D22*
X100940000Y-102010000D03*
D21*
X100940000Y-104550000D03*
X100940000Y-107090000D03*
G36*
G01*
X111415000Y-109470001D02*
X111415000Y-108569999D01*
G75*
G02*
X111664999Y-108320000I249999J0D01*
G01*
X112190001Y-108320000D01*
G75*
G02*
X112440000Y-108569999I0J-249999D01*
G01*
X112440000Y-109470001D01*
G75*
G02*
X112190001Y-109720000I-249999J0D01*
G01*
X111664999Y-109720000D01*
G75*
G02*
X111415000Y-109470001I0J249999D01*
G01*
G37*
G36*
G01*
X113240000Y-109470001D02*
X113240000Y-108569999D01*
G75*
G02*
X113489999Y-108320000I249999J0D01*
G01*
X114015001Y-108320000D01*
G75*
G02*
X114265000Y-108569999I0J-249999D01*
G01*
X114265000Y-109470001D01*
G75*
G02*
X114015001Y-109720000I-249999J0D01*
G01*
X113489999Y-109720000D01*
G75*
G02*
X113240000Y-109470001I0J249999D01*
G01*
G37*
D22*
X124800000Y-102110000D03*
D21*
X124800000Y-104650000D03*
X124800000Y-107190000D03*
G36*
G01*
X105790000Y-104870000D02*
X105790000Y-103770000D01*
G75*
G02*
X106040000Y-103520000I250000J0D01*
G01*
X109040000Y-103520000D01*
G75*
G02*
X109290000Y-103770000I0J-250000D01*
G01*
X109290000Y-104870000D01*
G75*
G02*
X109040000Y-105120000I-250000J0D01*
G01*
X106040000Y-105120000D01*
G75*
G02*
X105790000Y-104870000I0J250000D01*
G01*
G37*
G36*
G01*
X111190000Y-104870000D02*
X111190000Y-103770000D01*
G75*
G02*
X111440000Y-103520000I250000J0D01*
G01*
X114440000Y-103520000D01*
G75*
G02*
X114690000Y-103770000I0J-250000D01*
G01*
X114690000Y-104870000D01*
G75*
G02*
X114440000Y-105120000I-250000J0D01*
G01*
X111440000Y-105120000D01*
G75*
G02*
X111190000Y-104870000I0J250000D01*
G01*
G37*
D22*
X119240000Y-102110000D03*
D21*
X119240000Y-104650000D03*
X119240000Y-107190000D03*
D22*
X116440000Y-102110000D03*
D21*
X116440000Y-104650000D03*
X116440000Y-107190000D03*
D22*
X122040000Y-102110000D03*
D21*
X122040000Y-104650000D03*
X122040000Y-107190000D03*
G36*
G01*
X153415000Y-109470001D02*
X153415000Y-108569999D01*
G75*
G02*
X153664999Y-108320000I249999J0D01*
G01*
X154190001Y-108320000D01*
G75*
G02*
X154440000Y-108569999I0J-249999D01*
G01*
X154440000Y-109470001D01*
G75*
G02*
X154190001Y-109720000I-249999J0D01*
G01*
X153664999Y-109720000D01*
G75*
G02*
X153415000Y-109470001I0J249999D01*
G01*
G37*
G36*
G01*
X155240000Y-109470001D02*
X155240000Y-108569999D01*
G75*
G02*
X155489999Y-108320000I249999J0D01*
G01*
X156015001Y-108320000D01*
G75*
G02*
X156265000Y-108569999I0J-249999D01*
G01*
X156265000Y-109470001D01*
G75*
G02*
X156015001Y-109720000I-249999J0D01*
G01*
X155489999Y-109720000D01*
G75*
G02*
X155240000Y-109470001I0J249999D01*
G01*
G37*
D22*
X166800000Y-102110000D03*
D21*
X166800000Y-104650000D03*
X166800000Y-107190000D03*
G36*
G01*
X147790000Y-104870000D02*
X147790000Y-103770000D01*
G75*
G02*
X148040000Y-103520000I250000J0D01*
G01*
X151040000Y-103520000D01*
G75*
G02*
X151290000Y-103770000I0J-250000D01*
G01*
X151290000Y-104870000D01*
G75*
G02*
X151040000Y-105120000I-250000J0D01*
G01*
X148040000Y-105120000D01*
G75*
G02*
X147790000Y-104870000I0J250000D01*
G01*
G37*
G36*
G01*
X153190000Y-104870000D02*
X153190000Y-103770000D01*
G75*
G02*
X153440000Y-103520000I250000J0D01*
G01*
X156440000Y-103520000D01*
G75*
G02*
X156690000Y-103770000I0J-250000D01*
G01*
X156690000Y-104870000D01*
G75*
G02*
X156440000Y-105120000I-250000J0D01*
G01*
X153440000Y-105120000D01*
G75*
G02*
X153190000Y-104870000I0J250000D01*
G01*
G37*
D22*
X161240000Y-102110000D03*
D21*
X161240000Y-104650000D03*
X161240000Y-107190000D03*
D22*
X158440000Y-102110000D03*
D21*
X158440000Y-104650000D03*
X158440000Y-107190000D03*
D22*
X164040000Y-102110000D03*
D21*
X164040000Y-104650000D03*
X164040000Y-107190000D03*
G36*
G01*
X132415000Y-109470001D02*
X132415000Y-108569999D01*
G75*
G02*
X132664999Y-108320000I249999J0D01*
G01*
X133190001Y-108320000D01*
G75*
G02*
X133440000Y-108569999I0J-249999D01*
G01*
X133440000Y-109470001D01*
G75*
G02*
X133190001Y-109720000I-249999J0D01*
G01*
X132664999Y-109720000D01*
G75*
G02*
X132415000Y-109470001I0J249999D01*
G01*
G37*
G36*
G01*
X134240000Y-109470001D02*
X134240000Y-108569999D01*
G75*
G02*
X134489999Y-108320000I249999J0D01*
G01*
X135015001Y-108320000D01*
G75*
G02*
X135265000Y-108569999I0J-249999D01*
G01*
X135265000Y-109470001D01*
G75*
G02*
X135015001Y-109720000I-249999J0D01*
G01*
X134489999Y-109720000D01*
G75*
G02*
X134240000Y-109470001I0J249999D01*
G01*
G37*
D22*
X145800000Y-102110000D03*
D21*
X145800000Y-104650000D03*
X145800000Y-107190000D03*
G36*
G01*
X126790000Y-104870000D02*
X126790000Y-103770000D01*
G75*
G02*
X127040000Y-103520000I250000J0D01*
G01*
X130040000Y-103520000D01*
G75*
G02*
X130290000Y-103770000I0J-250000D01*
G01*
X130290000Y-104870000D01*
G75*
G02*
X130040000Y-105120000I-250000J0D01*
G01*
X127040000Y-105120000D01*
G75*
G02*
X126790000Y-104870000I0J250000D01*
G01*
G37*
G36*
G01*
X132190000Y-104870000D02*
X132190000Y-103770000D01*
G75*
G02*
X132440000Y-103520000I250000J0D01*
G01*
X135440000Y-103520000D01*
G75*
G02*
X135690000Y-103770000I0J-250000D01*
G01*
X135690000Y-104870000D01*
G75*
G02*
X135440000Y-105120000I-250000J0D01*
G01*
X132440000Y-105120000D01*
G75*
G02*
X132190000Y-104870000I0J250000D01*
G01*
G37*
D22*
X140240000Y-102110000D03*
D21*
X140240000Y-104650000D03*
X140240000Y-107190000D03*
D22*
X137440000Y-102110000D03*
D21*
X137440000Y-104650000D03*
X137440000Y-107190000D03*
D22*
X143040000Y-102110000D03*
D21*
X143040000Y-104650000D03*
X143040000Y-107190000D03*
G36*
G01*
X153415000Y-86470001D02*
X153415000Y-85569999D01*
G75*
G02*
X153664999Y-85320000I249999J0D01*
G01*
X154190001Y-85320000D01*
G75*
G02*
X154440000Y-85569999I0J-249999D01*
G01*
X154440000Y-86470001D01*
G75*
G02*
X154190001Y-86720000I-249999J0D01*
G01*
X153664999Y-86720000D01*
G75*
G02*
X153415000Y-86470001I0J249999D01*
G01*
G37*
G36*
G01*
X155240000Y-86470001D02*
X155240000Y-85569999D01*
G75*
G02*
X155489999Y-85320000I249999J0D01*
G01*
X156015001Y-85320000D01*
G75*
G02*
X156265000Y-85569999I0J-249999D01*
G01*
X156265000Y-86470001D01*
G75*
G02*
X156015001Y-86720000I-249999J0D01*
G01*
X155489999Y-86720000D01*
G75*
G02*
X155240000Y-86470001I0J249999D01*
G01*
G37*
D22*
X166800000Y-79110000D03*
D21*
X166800000Y-81650000D03*
X166800000Y-84190000D03*
G36*
G01*
X147790000Y-81870000D02*
X147790000Y-80770000D01*
G75*
G02*
X148040000Y-80520000I250000J0D01*
G01*
X151040000Y-80520000D01*
G75*
G02*
X151290000Y-80770000I0J-250000D01*
G01*
X151290000Y-81870000D01*
G75*
G02*
X151040000Y-82120000I-250000J0D01*
G01*
X148040000Y-82120000D01*
G75*
G02*
X147790000Y-81870000I0J250000D01*
G01*
G37*
G36*
G01*
X153190000Y-81870000D02*
X153190000Y-80770000D01*
G75*
G02*
X153440000Y-80520000I250000J0D01*
G01*
X156440000Y-80520000D01*
G75*
G02*
X156690000Y-80770000I0J-250000D01*
G01*
X156690000Y-81870000D01*
G75*
G02*
X156440000Y-82120000I-250000J0D01*
G01*
X153440000Y-82120000D01*
G75*
G02*
X153190000Y-81870000I0J250000D01*
G01*
G37*
D22*
X161240000Y-79110000D03*
D21*
X161240000Y-81650000D03*
X161240000Y-84190000D03*
D22*
X158440000Y-79110000D03*
D21*
X158440000Y-81650000D03*
X158440000Y-84190000D03*
D22*
X164040000Y-79110000D03*
D21*
X164040000Y-81650000D03*
X164040000Y-84190000D03*
G36*
G01*
X132515000Y-86470001D02*
X132515000Y-85569999D01*
G75*
G02*
X132764999Y-85320000I249999J0D01*
G01*
X133290001Y-85320000D01*
G75*
G02*
X133540000Y-85569999I0J-249999D01*
G01*
X133540000Y-86470001D01*
G75*
G02*
X133290001Y-86720000I-249999J0D01*
G01*
X132764999Y-86720000D01*
G75*
G02*
X132515000Y-86470001I0J249999D01*
G01*
G37*
G36*
G01*
X134340000Y-86470001D02*
X134340000Y-85569999D01*
G75*
G02*
X134589999Y-85320000I249999J0D01*
G01*
X135115001Y-85320000D01*
G75*
G02*
X135365000Y-85569999I0J-249999D01*
G01*
X135365000Y-86470001D01*
G75*
G02*
X135115001Y-86720000I-249999J0D01*
G01*
X134589999Y-86720000D01*
G75*
G02*
X134340000Y-86470001I0J249999D01*
G01*
G37*
D22*
X145900000Y-79110000D03*
D21*
X145900000Y-81650000D03*
X145900000Y-84190000D03*
G36*
G01*
X126890000Y-81870000D02*
X126890000Y-80770000D01*
G75*
G02*
X127140000Y-80520000I250000J0D01*
G01*
X130140000Y-80520000D01*
G75*
G02*
X130390000Y-80770000I0J-250000D01*
G01*
X130390000Y-81870000D01*
G75*
G02*
X130140000Y-82120000I-250000J0D01*
G01*
X127140000Y-82120000D01*
G75*
G02*
X126890000Y-81870000I0J250000D01*
G01*
G37*
G36*
G01*
X132290000Y-81870000D02*
X132290000Y-80770000D01*
G75*
G02*
X132540000Y-80520000I250000J0D01*
G01*
X135540000Y-80520000D01*
G75*
G02*
X135790000Y-80770000I0J-250000D01*
G01*
X135790000Y-81870000D01*
G75*
G02*
X135540000Y-82120000I-250000J0D01*
G01*
X132540000Y-82120000D01*
G75*
G02*
X132290000Y-81870000I0J250000D01*
G01*
G37*
D22*
X140340000Y-79110000D03*
D21*
X140340000Y-81650000D03*
X140340000Y-84190000D03*
D22*
X137540000Y-79110000D03*
D21*
X137540000Y-81650000D03*
X137540000Y-84190000D03*
D22*
X143140000Y-79110000D03*
D21*
X143140000Y-81650000D03*
X143140000Y-84190000D03*
G36*
G01*
X90415000Y-86470001D02*
X90415000Y-85569999D01*
G75*
G02*
X90664999Y-85320000I249999J0D01*
G01*
X91190001Y-85320000D01*
G75*
G02*
X91440000Y-85569999I0J-249999D01*
G01*
X91440000Y-86470001D01*
G75*
G02*
X91190001Y-86720000I-249999J0D01*
G01*
X90664999Y-86720000D01*
G75*
G02*
X90415000Y-86470001I0J249999D01*
G01*
G37*
G36*
G01*
X92240000Y-86470001D02*
X92240000Y-85569999D01*
G75*
G02*
X92489999Y-85320000I249999J0D01*
G01*
X93015001Y-85320000D01*
G75*
G02*
X93265000Y-85569999I0J-249999D01*
G01*
X93265000Y-86470001D01*
G75*
G02*
X93015001Y-86720000I-249999J0D01*
G01*
X92489999Y-86720000D01*
G75*
G02*
X92240000Y-86470001I0J249999D01*
G01*
G37*
D22*
X103800000Y-79110000D03*
D21*
X103800000Y-81650000D03*
X103800000Y-84190000D03*
G36*
G01*
X84790000Y-81870000D02*
X84790000Y-80770000D01*
G75*
G02*
X85040000Y-80520000I250000J0D01*
G01*
X88040000Y-80520000D01*
G75*
G02*
X88290000Y-80770000I0J-250000D01*
G01*
X88290000Y-81870000D01*
G75*
G02*
X88040000Y-82120000I-250000J0D01*
G01*
X85040000Y-82120000D01*
G75*
G02*
X84790000Y-81870000I0J250000D01*
G01*
G37*
G36*
G01*
X90190000Y-81870000D02*
X90190000Y-80770000D01*
G75*
G02*
X90440000Y-80520000I250000J0D01*
G01*
X93440000Y-80520000D01*
G75*
G02*
X93690000Y-80770000I0J-250000D01*
G01*
X93690000Y-81870000D01*
G75*
G02*
X93440000Y-82120000I-250000J0D01*
G01*
X90440000Y-82120000D01*
G75*
G02*
X90190000Y-81870000I0J250000D01*
G01*
G37*
D22*
X98240000Y-79110000D03*
D21*
X98240000Y-81650000D03*
X98240000Y-84190000D03*
D22*
X95440000Y-79110000D03*
D21*
X95440000Y-81650000D03*
X95440000Y-84190000D03*
D22*
X101040000Y-79110000D03*
D21*
X101040000Y-81650000D03*
X101040000Y-84190000D03*
G36*
G01*
X113340000Y-86470001D02*
X113340000Y-85569999D01*
G75*
G02*
X113589999Y-85320000I249999J0D01*
G01*
X114115001Y-85320000D01*
G75*
G02*
X114365000Y-85569999I0J-249999D01*
G01*
X114365000Y-86470001D01*
G75*
G02*
X114115001Y-86720000I-249999J0D01*
G01*
X113589999Y-86720000D01*
G75*
G02*
X113340000Y-86470001I0J249999D01*
G01*
G37*
G36*
G01*
X111515000Y-86470001D02*
X111515000Y-85569999D01*
G75*
G02*
X111764999Y-85320000I249999J0D01*
G01*
X112290001Y-85320000D01*
G75*
G02*
X112540000Y-85569999I0J-249999D01*
G01*
X112540000Y-86470001D01*
G75*
G02*
X112290001Y-86720000I-249999J0D01*
G01*
X111764999Y-86720000D01*
G75*
G02*
X111515000Y-86470001I0J249999D01*
G01*
G37*
D28*
X146690000Y-70270000D03*
X149190000Y-70270000D03*
X151690000Y-70270000D03*
G36*
G01*
X155040000Y-69545000D02*
X155040000Y-70995000D01*
G75*
G02*
X154790000Y-71245000I-250000J0D01*
G01*
X153590000Y-71245000D01*
G75*
G02*
X153340000Y-70995000I0J250000D01*
G01*
X153340000Y-69545000D01*
G75*
G02*
X153590000Y-69295000I250000J0D01*
G01*
X154790000Y-69295000D01*
G75*
G02*
X155040000Y-69545000I0J-250000D01*
G01*
G37*
D21*
X124900000Y-84190000D03*
X124900000Y-81650000D03*
D22*
X124900000Y-79110000D03*
D21*
X119340000Y-84190000D03*
X119340000Y-81650000D03*
D22*
X119340000Y-79110000D03*
D21*
X122140000Y-84190000D03*
X122140000Y-81650000D03*
D22*
X122140000Y-79110000D03*
D21*
X116540000Y-84190000D03*
X116540000Y-81650000D03*
D22*
X116540000Y-79110000D03*
G36*
G01*
X111290000Y-81870000D02*
X111290000Y-80770000D01*
G75*
G02*
X111540000Y-80520000I250000J0D01*
G01*
X114540000Y-80520000D01*
G75*
G02*
X114790000Y-80770000I0J-250000D01*
G01*
X114790000Y-81870000D01*
G75*
G02*
X114540000Y-82120000I-250000J0D01*
G01*
X111540000Y-82120000D01*
G75*
G02*
X111290000Y-81870000I0J250000D01*
G01*
G37*
G36*
G01*
X105890000Y-81870000D02*
X105890000Y-80770000D01*
G75*
G02*
X106140000Y-80520000I250000J0D01*
G01*
X109140000Y-80520000D01*
G75*
G02*
X109390000Y-80770000I0J-250000D01*
G01*
X109390000Y-81870000D01*
G75*
G02*
X109140000Y-82120000I-250000J0D01*
G01*
X106140000Y-82120000D01*
G75*
G02*
X105890000Y-81870000I0J250000D01*
G01*
G37*
D28*
X154290000Y-94420000D03*
X156790000Y-94420000D03*
X159290000Y-94420000D03*
G36*
G01*
X162640000Y-93695000D02*
X162640000Y-95145000D01*
G75*
G02*
X162390000Y-95395000I-250000J0D01*
G01*
X161190000Y-95395000D01*
G75*
G02*
X160940000Y-95145000I0J250000D01*
G01*
X160940000Y-93695000D01*
G75*
G02*
X161190000Y-93445000I250000J0D01*
G01*
X162390000Y-93445000D01*
G75*
G02*
X162640000Y-93695000I0J-250000D01*
G01*
G37*
X81315000Y-70145000D03*
X83815000Y-70145000D03*
X86315000Y-70145000D03*
G36*
G01*
X89665000Y-69420000D02*
X89665000Y-70870000D01*
G75*
G02*
X89415000Y-71120000I-250000J0D01*
G01*
X88215000Y-71120000D01*
G75*
G02*
X87965000Y-70870000I0J250000D01*
G01*
X87965000Y-69420000D01*
G75*
G02*
X88215000Y-69170000I250000J0D01*
G01*
X89415000Y-69170000D01*
G75*
G02*
X89665000Y-69420000I0J-250000D01*
G01*
G37*
X129890000Y-70170000D03*
X132390000Y-70170000D03*
X134890000Y-70170000D03*
G36*
G01*
X138240000Y-69445000D02*
X138240000Y-70895000D01*
G75*
G02*
X137990000Y-71145000I-250000J0D01*
G01*
X136790000Y-71145000D01*
G75*
G02*
X136540000Y-70895000I0J250000D01*
G01*
X136540000Y-69445000D01*
G75*
G02*
X136790000Y-69195000I250000J0D01*
G01*
X137990000Y-69195000D01*
G75*
G02*
X138240000Y-69445000I0J-250000D01*
G01*
G37*
X98365000Y-70145000D03*
X100865000Y-70145000D03*
X103365000Y-70145000D03*
G36*
G01*
X106715000Y-69420000D02*
X106715000Y-70870000D01*
G75*
G02*
X106465000Y-71120000I-250000J0D01*
G01*
X105265000Y-71120000D01*
G75*
G02*
X105015000Y-70870000I0J250000D01*
G01*
X105015000Y-69420000D01*
G75*
G02*
X105265000Y-69170000I250000J0D01*
G01*
X106465000Y-69170000D01*
G75*
G02*
X106715000Y-69420000I0J-250000D01*
G01*
G37*
X112365000Y-70145000D03*
X114865000Y-70145000D03*
X117365000Y-70145000D03*
G36*
G01*
X120715000Y-69420000D02*
X120715000Y-70870000D01*
G75*
G02*
X120465000Y-71120000I-250000J0D01*
G01*
X119265000Y-71120000D01*
G75*
G02*
X119015000Y-70870000I0J250000D01*
G01*
X119015000Y-69420000D01*
G75*
G02*
X119265000Y-69170000I250000J0D01*
G01*
X120465000Y-69170000D01*
G75*
G02*
X120715000Y-69420000I0J-250000D01*
G01*
G37*
D43*
X166940000Y-88720000D03*
X149160000Y-76020000D03*
X164400000Y-88720000D03*
X151700000Y-76020000D03*
X161860000Y-88720000D03*
X154240000Y-76020000D03*
X159320000Y-88720000D03*
X156780000Y-76020000D03*
X156780000Y-88720000D03*
X159320000Y-76020000D03*
X154240000Y-88720000D03*
X161860000Y-76020000D03*
X151700000Y-88720000D03*
X164400000Y-76020000D03*
X149160000Y-88720000D03*
D16*
X166940000Y-76020000D03*
D43*
X166940000Y-111720000D03*
X149160000Y-99020000D03*
X164400000Y-111720000D03*
X151700000Y-99020000D03*
X161860000Y-111720000D03*
X154240000Y-99020000D03*
X159320000Y-111720000D03*
X156780000Y-99020000D03*
X156780000Y-111720000D03*
X159320000Y-99020000D03*
X154240000Y-111720000D03*
X161860000Y-99020000D03*
X151700000Y-111720000D03*
X164400000Y-99020000D03*
X149160000Y-111720000D03*
D16*
X166940000Y-99020000D03*
D43*
X124940000Y-111720000D03*
X107160000Y-99020000D03*
X122400000Y-111720000D03*
X109700000Y-99020000D03*
X119860000Y-111720000D03*
X112240000Y-99020000D03*
X117320000Y-111720000D03*
X114780000Y-99020000D03*
X114780000Y-111720000D03*
X117320000Y-99020000D03*
X112240000Y-111720000D03*
X119860000Y-99020000D03*
X109700000Y-111720000D03*
X122400000Y-99020000D03*
X107160000Y-111720000D03*
D16*
X124940000Y-99020000D03*
D43*
X103940000Y-88720000D03*
X86160000Y-76020000D03*
X101400000Y-88720000D03*
X88700000Y-76020000D03*
X98860000Y-88720000D03*
X91240000Y-76020000D03*
X96320000Y-88720000D03*
X93780000Y-76020000D03*
X93780000Y-88720000D03*
X96320000Y-76020000D03*
X91240000Y-88720000D03*
X98860000Y-76020000D03*
X88700000Y-88720000D03*
X101400000Y-76020000D03*
X86160000Y-88720000D03*
D16*
X103940000Y-76020000D03*
D43*
X145940000Y-88720000D03*
X128160000Y-76020000D03*
X143400000Y-88720000D03*
X130700000Y-76020000D03*
X140860000Y-88720000D03*
X133240000Y-76020000D03*
X138320000Y-88720000D03*
X135780000Y-76020000D03*
X135780000Y-88720000D03*
X138320000Y-76020000D03*
X133240000Y-88720000D03*
X140860000Y-76020000D03*
X130700000Y-88720000D03*
X143400000Y-76020000D03*
X128160000Y-88720000D03*
D16*
X145940000Y-76020000D03*
D43*
X145940000Y-111720000D03*
X128160000Y-99020000D03*
X143400000Y-111720000D03*
X130700000Y-99020000D03*
X140860000Y-111720000D03*
X133240000Y-99020000D03*
X138320000Y-111720000D03*
X135780000Y-99020000D03*
X135780000Y-111720000D03*
X138320000Y-99020000D03*
X133240000Y-111720000D03*
X140860000Y-99020000D03*
X130700000Y-111720000D03*
X143400000Y-99020000D03*
X128160000Y-111720000D03*
D16*
X145940000Y-99020000D03*
D43*
X124940000Y-88720000D03*
X107160000Y-76020000D03*
X122400000Y-88720000D03*
X109700000Y-76020000D03*
X119860000Y-88720000D03*
X112240000Y-76020000D03*
X117320000Y-88720000D03*
X114780000Y-76020000D03*
X114780000Y-88720000D03*
X117320000Y-76020000D03*
X112240000Y-88720000D03*
X119860000Y-76020000D03*
X109700000Y-88720000D03*
X122400000Y-76020000D03*
X107160000Y-88720000D03*
D16*
X124940000Y-76020000D03*
D46*
X74020000Y-71030000D03*
X74020000Y-161030000D03*
X164020000Y-71030000D03*
X164020000Y-161030000D03*
M02*
