G04 #@! TF.GenerationSoftware,KiCad,Pcbnew,5.1.9+dfsg1-1~bpo10+1*
G04 #@! TF.CreationDate,2021-03-05T21:51:57+00:00*
G04 #@! TF.ProjectId,mobo,6d6f626f-2e6b-4696-9361-645f70636258,rev?*
G04 #@! TF.SameCoordinates,Original*
G04 #@! TF.FileFunction,Legend,Bot*
G04 #@! TF.FilePolarity,Positive*
%FSLAX46Y46*%
G04 Gerber Fmt 4.6, Leading zero omitted, Abs format (unit mm)*
G04 Created by KiCad (PCBNEW 5.1.9+dfsg1-1~bpo10+1) date 2021-03-05 21:51:57*
%MOMM*%
%LPD*%
G01*
G04 APERTURE LIST*
%ADD10C,0.150000*%
G04 APERTURE END LIST*
D10*
X81311904Y-163622380D02*
X81311904Y-164431904D01*
X81264285Y-164527142D01*
X81216666Y-164574761D01*
X81121428Y-164622380D01*
X80930952Y-164622380D01*
X80835714Y-164574761D01*
X80788095Y-164527142D01*
X80740476Y-164431904D01*
X80740476Y-163622380D01*
X79835714Y-163955714D02*
X79835714Y-164622380D01*
X80073809Y-163574761D02*
X80311904Y-164289047D01*
X79692857Y-164289047D01*
X93541904Y-163722380D02*
X93541904Y-164531904D01*
X93494285Y-164627142D01*
X93446666Y-164674761D01*
X93351428Y-164722380D01*
X93160952Y-164722380D01*
X93065714Y-164674761D01*
X93018095Y-164627142D01*
X92970476Y-164531904D01*
X92970476Y-163722380D01*
X92065714Y-163722380D02*
X92256190Y-163722380D01*
X92351428Y-163770000D01*
X92399047Y-163817619D01*
X92494285Y-163960476D01*
X92541904Y-164150952D01*
X92541904Y-164531904D01*
X92494285Y-164627142D01*
X92446666Y-164674761D01*
X92351428Y-164722380D01*
X92160952Y-164722380D01*
X92065714Y-164674761D01*
X92018095Y-164627142D01*
X91970476Y-164531904D01*
X91970476Y-164293809D01*
X92018095Y-164198571D01*
X92065714Y-164150952D01*
X92160952Y-164103333D01*
X92351428Y-164103333D01*
X92446666Y-164150952D01*
X92494285Y-164198571D01*
X92541904Y-164293809D01*
M02*
