M48
; DRILL file {KiCad 5.1.9+dfsg1-1~bpo10+1} date Sun Feb 21 18:04:07 2021
; FORMAT={-:-/ absolute / inch / decimal}
; #@! TF.CreationDate,2021-02-21T18:04:07+00:00
; #@! TF.GenerationSoftware,Kicad,Pcbnew,5.1.9+dfsg1-1~bpo10+1
FMAT,2
INCH
T1C0.0118
T2C0.0157
T3C0.0197
T4C0.0236
T5C0.0315
T6C0.0362
T7C0.0374
T8C0.0394
T9C0.0512
T10C0.0906
T11C0.1260
T12C0.1654
T13C0.0236
%
G90
G05
T1
X3.0242Y-3.7931
X3.0242Y-3.8364
X3.0242Y-3.8876
X3.0242Y-3.9348
X3.0715Y-3.7931
X3.0715Y-3.8364
X3.0715Y-3.8876
X3.0715Y-3.9348
T2
X2.8864Y-3.7872
X2.889Y-3.8398
X3.0042Y-4.1021
X3.0321Y-4.0667
X3.3018Y-3.9565
X3.3291Y-3.8
T3
X11.7598Y-4.6917
X11.8799Y-4.6957
X12.0Y-4.6917
T5
X3.3921Y-2.9929
X3.3921Y-3.4929
X3.3921Y-3.8984
X3.3921Y-4.3984
X3.4921Y-2.9929
X3.4921Y-3.4929
X3.4921Y-3.8984
X3.4921Y-4.3984
X3.5921Y-2.9929
X3.5921Y-3.4929
X3.5921Y-3.8984
X3.5921Y-4.3984
X3.6921Y-2.9929
X3.6921Y-3.4929
X3.6921Y-3.8984
X3.6921Y-4.3984
X3.7921Y-2.9929
X3.7921Y-3.4929
X3.7921Y-3.8984
X3.7921Y-4.3984
X3.8921Y-2.9929
X3.8921Y-3.4929
X3.8921Y-3.8984
X3.8921Y-4.3984
X3.9921Y-2.9929
X3.9921Y-3.4929
X3.9921Y-3.8984
X3.9921Y-4.3984
X4.0921Y-2.9929
X4.0921Y-3.4929
X4.0921Y-3.8984
X4.0921Y-4.3984
X4.2189Y-2.9929
X4.2189Y-3.4929
X4.2189Y-3.8984
X4.2189Y-4.3984
X4.3189Y-2.9929
X4.3189Y-3.4929
X4.3189Y-3.8984
X4.3189Y-4.3984
X4.4189Y-2.9929
X4.4189Y-3.4929
X4.4189Y-3.8984
X4.4189Y-4.3984
X4.5189Y-2.9929
X4.5189Y-3.4929
X4.5189Y-3.8984
X4.5189Y-4.3984
X4.6189Y-2.9929
X4.6189Y-3.4929
X4.6189Y-3.8984
X4.6189Y-4.3984
X4.7189Y-2.9929
X4.7189Y-3.4929
X4.7189Y-3.8984
X4.7189Y-4.3984
X4.8189Y-2.9929
X4.8189Y-3.4929
X4.8189Y-3.8984
X4.8189Y-4.3984
X4.9189Y-2.9929
X4.9189Y-3.4929
X4.9189Y-3.8984
X4.9189Y-4.3984
X5.0457Y-2.9929
X5.0457Y-3.4929
X5.0457Y-3.8984
X5.0457Y-4.3984
X5.1457Y-2.9929
X5.1457Y-3.4929
X5.1457Y-3.8984
X5.1457Y-4.3984
X5.2457Y-2.9929
X5.2457Y-3.4929
X5.2457Y-3.8984
X5.2457Y-4.3984
X5.3457Y-2.9929
X5.3457Y-3.4929
X5.3457Y-3.8984
X5.3457Y-4.3984
X5.4457Y-2.9929
X5.4457Y-3.4929
X5.4457Y-3.8984
X5.4457Y-4.3984
X5.5457Y-2.9929
X5.5457Y-3.4929
X5.5457Y-3.8984
X5.5457Y-4.3984
X5.6457Y-2.9929
X5.6457Y-3.4929
X5.6457Y-3.8984
X5.6457Y-4.3984
X5.7457Y-2.9929
X5.7457Y-3.4929
X5.7457Y-3.8984
X5.7457Y-4.3984
X5.8724Y-2.9929
X5.8724Y-3.4929
X5.8724Y-3.8984
X5.8724Y-4.3984
X5.9724Y-2.9929
X5.9724Y-3.4929
X5.9724Y-3.8984
X5.9724Y-4.3984
X6.0724Y-2.9929
X6.0724Y-3.4929
X6.0724Y-3.8984
X6.0724Y-4.3984
X6.1724Y-2.9929
X6.1724Y-3.4929
X6.1724Y-3.8984
X6.1724Y-4.3984
X6.2724Y-2.9929
X6.2724Y-3.4929
X6.2724Y-3.8984
X6.2724Y-4.3984
X6.3724Y-2.9929
X6.3724Y-3.4929
X6.3724Y-3.8984
X6.3724Y-4.3984
X6.4724Y-2.9929
X6.4724Y-3.4929
X6.4724Y-3.8984
X6.4724Y-4.3984
X6.5724Y-2.9929
X6.5724Y-3.4929
X6.5724Y-3.8984
X6.5724Y-4.3984
T6
X4.5035Y-6.3441
X4.602Y-6.3441
X4.6807Y-6.3441
X4.7791Y-6.3441
X5.1894Y-6.3457
X5.2878Y-6.3457
X5.3665Y-6.3457
X5.465Y-6.3457
X5.874Y-6.3457
X5.9724Y-6.3457
X6.0512Y-6.3457
X6.1496Y-6.3457
T7
X3.2014Y-2.7616
X3.2998Y-2.7616
X3.3982Y-2.7616
X3.4967Y-2.7616
X3.5961Y-3.7173
X3.6945Y-3.7173
X3.7929Y-3.7173
X3.8726Y-2.7616
X3.8913Y-3.7173
X3.9711Y-2.7616
X4.0695Y-2.7616
X4.1679Y-2.7616
X4.4209Y-3.7154
X4.4238Y-2.7616
X4.5193Y-3.7154
X4.5222Y-2.7616
X4.6177Y-3.7154
X4.6207Y-2.7616
X4.7161Y-3.7154
X4.7191Y-2.7616
X5.1138Y-2.7626
X5.2122Y-2.7626
X5.2476Y-3.7173
X5.3106Y-2.7626
X5.3461Y-3.7173
X5.4091Y-2.7626
X5.4445Y-3.7173
X5.5429Y-3.7173
X5.7752Y-2.7665
X5.8736Y-2.7665
X5.972Y-2.7665
X6.0705Y-2.7665
X6.0744Y-3.7173
X6.1728Y-3.7173
X6.2713Y-3.7173
X6.3697Y-3.7173
X8.2079Y-4.3142
X8.2079Y-5.3083
X8.2079Y-5.6154
X8.3063Y-4.3142
X8.3063Y-5.3083
X8.3063Y-5.6154
X8.4047Y-4.3142
X8.4047Y-5.3083
X8.4047Y-5.6154
X8.6783Y-4.3142
X8.6783Y-5.513
X8.6878Y-4.8988
X8.6878Y-5.2059
X8.7768Y-4.3142
X8.7768Y-5.513
X8.7862Y-4.8988
X8.7862Y-5.2059
X8.8752Y-4.3142
X8.8752Y-5.513
X8.8846Y-4.8988
X8.8846Y-5.2059
X9.1512Y-4.1146
X9.1583Y-4.8988
X9.2496Y-4.1146
X9.2567Y-4.8988
X9.348Y-4.1146
X9.3551Y-4.8988
X9.6217Y-4.1146
X9.7201Y-4.1146
X9.8185Y-4.1146
T8
X2.8311Y-5.3169
X2.8339Y-4.9724
X2.837Y-5.6697
X2.8449Y-6.0252
X2.9295Y-5.3169
X2.9323Y-4.9724
X2.9354Y-5.6697
X2.9433Y-6.0252
X3.1732Y-5.3193
X3.1799Y-4.972
X3.1807Y-5.6732
X3.1913Y-6.028
X3.2717Y-5.3193
X3.2783Y-4.972
X3.2791Y-5.6732
X3.2898Y-6.028
X3.7535Y-4.0161
X3.7535Y-4.1161
X3.7535Y-4.2161
X3.7575Y-3.1146
X3.7575Y-3.2146
X3.7575Y-3.3146
X3.8638Y-4.0161
X3.8638Y-4.1161
X3.8638Y-4.2161
X3.8677Y-3.1146
X3.8677Y-3.2146
X3.8677Y-3.3146
X3.974Y-4.0161
X3.974Y-4.1161
X3.974Y-4.2161
X3.978Y-3.1146
X3.978Y-3.2146
X3.978Y-3.3146
X4.0827Y-4.0161
X4.0827Y-4.1161
X4.0827Y-4.2161
X4.0866Y-3.1146
X4.0866Y-3.2146
X4.0866Y-3.3146
X4.5843Y-4.0201
X4.5843Y-4.1201
X4.5843Y-4.2201
X4.5882Y-3.1146
X4.5882Y-3.2146
X4.5882Y-3.3146
X4.6945Y-4.0201
X4.6945Y-4.1201
X4.6945Y-4.2201
X4.6984Y-3.1146
X4.6984Y-3.2146
X4.6984Y-3.3146
X4.8047Y-4.0201
X4.8047Y-4.1201
X4.8047Y-4.2201
X4.8087Y-3.1146
X4.8087Y-3.2146
X4.8087Y-3.3146
X4.9134Y-4.0201
X4.9134Y-4.1201
X4.9134Y-4.2201
X4.9173Y-3.1146
X4.9173Y-3.2146
X4.9173Y-3.3146
X5.411Y-4.0201
X5.411Y-4.1201
X5.411Y-4.2201
X5.415Y-3.1146
X5.415Y-3.2146
X5.415Y-3.3146
X5.5213Y-4.0201
X5.5213Y-4.1201
X5.5213Y-4.2201
X5.5252Y-3.1146
X5.5252Y-3.2146
X5.5252Y-3.3146
X5.6315Y-4.0201
X5.6315Y-4.1201
X5.6315Y-4.2201
X5.6354Y-3.1146
X5.6354Y-3.2146
X5.6354Y-3.3146
X5.7402Y-4.0201
X5.7402Y-4.1201
X5.7402Y-4.2201
X5.7441Y-3.1146
X5.7441Y-3.2146
X5.7441Y-3.3146
X6.2378Y-3.1146
X6.2378Y-3.2146
X6.2378Y-3.3146
X6.2378Y-4.0201
X6.2378Y-4.1201
X6.2378Y-4.2201
X6.348Y-3.1146
X6.348Y-3.2146
X6.348Y-3.3146
X6.348Y-4.0201
X6.348Y-4.1201
X6.348Y-4.2201
X6.4583Y-3.1146
X6.4583Y-3.2146
X6.4583Y-3.3146
X6.4583Y-4.0201
X6.4583Y-4.1201
X6.4583Y-4.2201
X6.5669Y-3.1146
X6.5669Y-3.2146
X6.5669Y-3.3146
X6.5669Y-4.0201
X6.5669Y-4.1201
X6.5669Y-4.2201
X8.2774Y-3.5402
X8.2774Y-3.6402
X8.2774Y-3.7402
X8.2774Y-3.8402
X8.2774Y-3.9402
X8.3774Y-3.5402
X8.3774Y-3.6402
X8.3774Y-3.7402
X8.3774Y-3.8402
X8.3774Y-3.9402
X8.749Y-3.5402
X8.749Y-3.6402
X8.749Y-3.7402
X8.749Y-3.8402
X8.749Y-3.9402
X8.849Y-3.5402
X8.849Y-3.6402
X8.849Y-3.7402
X8.849Y-3.8402
X8.849Y-3.9402
X9.1488Y-4.4217
X9.1488Y-5.6079
X9.2207Y-3.5402
X9.2207Y-3.6402
X9.2207Y-3.7402
X9.2472Y-4.4217
X9.2472Y-5.6079
X9.3207Y-3.5402
X9.3207Y-3.6402
X9.3207Y-3.7402
X9.6287Y-4.8988
X9.6923Y-3.5402
X9.6923Y-3.6402
X9.6923Y-3.7402
X9.7272Y-4.8988
X9.7923Y-3.5402
X9.7923Y-3.6402
X9.7923Y-3.7402
X11.4063Y-3.3906
X11.4063Y-3.4906
X11.4063Y-3.5906
X11.4063Y-3.7724
X11.4063Y-3.8724
X11.4063Y-3.9724
T9
X2.913Y-3.048
X2.913Y-3.2449
T10
X4.3827Y-6.4508
X4.9Y-6.4508
X5.0685Y-6.4524
X5.5858Y-6.4524
X5.7531Y-6.4524
X6.2705Y-6.4524
T11
X2.9142Y-2.7965
X2.9142Y-6.3398
X6.4575Y-2.7965
X6.4575Y-6.3398
T12
X8.311Y-4.8683
X8.311Y-5.073
T13
X2.9435Y-4.4293
X2.9435Y-4.6569
X6.4256Y-5.9051
X6.4256Y-6.1327
T4
G00X2.7825Y-4.373
M15
G01X2.814Y-4.373
M16
G05
G00X2.7825Y-4.7132
M15
G01X2.814Y-4.7132
M16
G05
G00X2.9407Y-4.373
M15
G01X2.9841Y-4.373
M16
G05
G00X2.9407Y-4.7132
M15
G01X2.9841Y-4.7132
M16
G05
G00X6.4283Y-5.8488
M15
G01X6.385Y-5.8488
M16
G05
G00X6.4283Y-6.189
M15
G01X6.385Y-6.189
M16
G05
G00X6.5866Y-5.8488
M15
G01X6.5551Y-5.8488
M16
G05
G00X6.5866Y-6.189
M15
G01X6.5551Y-6.189
M16
G05
T0
M30
