G04 #@! TF.GenerationSoftware,KiCad,Pcbnew,5.1.8+dfsg1-1~bpo10+1*
G04 #@! TF.CreationDate,2021-02-01T19:48:51+00:00*
G04 #@! TF.ProjectId,mobo,6d6f626f-2e6b-4696-9361-645f70636258,rev?*
G04 #@! TF.SameCoordinates,Original*
G04 #@! TF.FileFunction,Soldermask,Bot*
G04 #@! TF.FilePolarity,Negative*
%FSLAX46Y46*%
G04 Gerber Fmt 4.6, Leading zero omitted, Abs format (unit mm)*
G04 Created by KiCad (PCBNEW 5.1.8+dfsg1-1~bpo10+1) date 2021-02-01 19:48:51*
%MOMM*%
%LPD*%
G01*
G04 APERTURE LIST*
%ADD10O,1.700000X2.000000*%
%ADD11O,1.700000X1.950000*%
%ADD12O,1.700000X1.700000*%
%ADD13R,1.700000X1.700000*%
%ADD14C,1.500000*%
%ADD15C,3.000000*%
%ADD16R,1.500000X1.500000*%
%ADD17R,1.600000X1.600000*%
%ADD18O,1.600000X1.600000*%
%ADD19C,5.600000*%
%ADD20C,1.700000*%
%ADD21C,3.500000*%
%ADD22R,3.500000X3.500000*%
%ADD23R,1.000000X1.000000*%
%ADD24R,2.300000X0.600000*%
%ADD25C,4.200000*%
%ADD26O,1.727200X1.727200*%
%ADD27R,1.727200X1.727200*%
%ADD28C,0.254000*%
%ADD29C,0.100000*%
G04 APERTURE END LIST*
D10*
X102620000Y-130880000D03*
G36*
G01*
X99270000Y-131630000D02*
X99270000Y-130130000D01*
G75*
G02*
X99520000Y-129880000I250000J0D01*
G01*
X100720000Y-129880000D01*
G75*
G02*
X100970000Y-130130000I0J-250000D01*
G01*
X100970000Y-131630000D01*
G75*
G02*
X100720000Y-131880000I-250000J0D01*
G01*
X99520000Y-131880000D01*
G75*
G02*
X99270000Y-131630000I0J250000D01*
G01*
G37*
X225444000Y-100828000D03*
G36*
G01*
X222094000Y-101578000D02*
X222094000Y-100078000D01*
G75*
G02*
X222344000Y-99828000I250000J0D01*
G01*
X223544000Y-99828000D01*
G75*
G02*
X223794000Y-100078000I0J-250000D01*
G01*
X223794000Y-101578000D01*
G75*
G02*
X223544000Y-101828000I-250000J0D01*
G01*
X222344000Y-101828000D01*
G75*
G02*
X222094000Y-101578000I0J250000D01*
G01*
G37*
X225444000Y-93462000D03*
G36*
G01*
X222094000Y-94212000D02*
X222094000Y-92712000D01*
G75*
G02*
X222344000Y-92462000I250000J0D01*
G01*
X223544000Y-92462000D01*
G75*
G02*
X223794000Y-92712000I0J-250000D01*
G01*
X223794000Y-94212000D01*
G75*
G02*
X223544000Y-94462000I-250000J0D01*
G01*
X222344000Y-94462000D01*
G75*
G02*
X222094000Y-94212000I0J250000D01*
G01*
G37*
X225420000Y-85830000D03*
G36*
G01*
X222070000Y-86580000D02*
X222070000Y-85080000D01*
G75*
G02*
X222320000Y-84830000I250000J0D01*
G01*
X223520000Y-84830000D01*
G75*
G02*
X223770000Y-85080000I0J-250000D01*
G01*
X223770000Y-86580000D01*
G75*
G02*
X223520000Y-86830000I-250000J0D01*
G01*
X222320000Y-86830000D01*
G75*
G02*
X222070000Y-86580000I0J250000D01*
G01*
G37*
X225444000Y-78222000D03*
G36*
G01*
X222094000Y-78972000D02*
X222094000Y-77472000D01*
G75*
G02*
X222344000Y-77222000I250000J0D01*
G01*
X223544000Y-77222000D01*
G75*
G02*
X223794000Y-77472000I0J-250000D01*
G01*
X223794000Y-78972000D01*
G75*
G02*
X223544000Y-79222000I-250000J0D01*
G01*
X222344000Y-79222000D01*
G75*
G02*
X222094000Y-78972000I0J250000D01*
G01*
G37*
D11*
X225404000Y-108160000D03*
X222904000Y-108160000D03*
G36*
G01*
X219554000Y-108885000D02*
X219554000Y-107435000D01*
G75*
G02*
X219804000Y-107185000I250000J0D01*
G01*
X221004000Y-107185000D01*
G75*
G02*
X221254000Y-107435000I0J-250000D01*
G01*
X221254000Y-108885000D01*
G75*
G02*
X221004000Y-109135000I-250000J0D01*
G01*
X219804000Y-109135000D01*
G75*
G02*
X219554000Y-108885000I0J250000D01*
G01*
G37*
X213620000Y-108160000D03*
X211120000Y-108160000D03*
G36*
G01*
X207770000Y-108885000D02*
X207770000Y-107435000D01*
G75*
G02*
X208020000Y-107185000I250000J0D01*
G01*
X209220000Y-107185000D01*
G75*
G02*
X209470000Y-107435000I0J-250000D01*
G01*
X209470000Y-108885000D01*
G75*
G02*
X209220000Y-109135000I-250000J0D01*
G01*
X208020000Y-109135000D01*
G75*
G02*
X207770000Y-108885000I0J250000D01*
G01*
G37*
X202020000Y-108230000D03*
X199520000Y-108230000D03*
G36*
G01*
X196170000Y-108955000D02*
X196170000Y-107505000D01*
G75*
G02*
X196420000Y-107255000I250000J0D01*
G01*
X197620000Y-107255000D01*
G75*
G02*
X197870000Y-107505000I0J-250000D01*
G01*
X197870000Y-108955000D01*
G75*
G02*
X197620000Y-109205000I-250000J0D01*
G01*
X196420000Y-109205000D01*
G75*
G02*
X196170000Y-108955000I0J250000D01*
G01*
G37*
X225404000Y-115160000D03*
X222904000Y-115160000D03*
G36*
G01*
X219554000Y-115885000D02*
X219554000Y-114435000D01*
G75*
G02*
X219804000Y-114185000I250000J0D01*
G01*
X221004000Y-114185000D01*
G75*
G02*
X221254000Y-114435000I0J-250000D01*
G01*
X221254000Y-115885000D01*
G75*
G02*
X221004000Y-116135000I-250000J0D01*
G01*
X219804000Y-116135000D01*
G75*
G02*
X219554000Y-115885000I0J250000D01*
G01*
G37*
X213620000Y-115160000D03*
X211120000Y-115160000D03*
G36*
G01*
X207770000Y-115885000D02*
X207770000Y-114435000D01*
G75*
G02*
X208020000Y-114185000I250000J0D01*
G01*
X209220000Y-114185000D01*
G75*
G02*
X209470000Y-114435000I0J-250000D01*
G01*
X209470000Y-115885000D01*
G75*
G02*
X209220000Y-116135000I-250000J0D01*
G01*
X208020000Y-116135000D01*
G75*
G02*
X207770000Y-115885000I0J250000D01*
G01*
G37*
X202020000Y-115160000D03*
X199520000Y-115160000D03*
G36*
G01*
X196170000Y-115885000D02*
X196170000Y-114435000D01*
G75*
G02*
X196420000Y-114185000I250000J0D01*
G01*
X197620000Y-114185000D01*
G75*
G02*
X197870000Y-114435000I0J-250000D01*
G01*
X197870000Y-115885000D01*
G75*
G02*
X197620000Y-116135000I-250000J0D01*
G01*
X196420000Y-116135000D01*
G75*
G02*
X196170000Y-115885000I0J250000D01*
G01*
G37*
X125295001Y-130905001D03*
X122795001Y-130905001D03*
G36*
G01*
X119445001Y-131630001D02*
X119445001Y-130180001D01*
G75*
G02*
X119695001Y-129930001I250000J0D01*
G01*
X120895001Y-129930001D01*
G75*
G02*
X121145001Y-130180001I0J-250000D01*
G01*
X121145001Y-131630001D01*
G75*
G02*
X120895001Y-131880001I-250000J0D01*
G01*
X119695001Y-131880001D01*
G75*
G02*
X119445001Y-131630001I0J250000D01*
G01*
G37*
X113870000Y-130880000D03*
X111370000Y-130880000D03*
G36*
G01*
X108020000Y-131605000D02*
X108020000Y-130155000D01*
G75*
G02*
X108270000Y-129905000I250000J0D01*
G01*
X109470000Y-129905000D01*
G75*
G02*
X109720000Y-130155000I0J-250000D01*
G01*
X109720000Y-131605000D01*
G75*
G02*
X109470000Y-131855000I-250000J0D01*
G01*
X108270000Y-131855000D01*
G75*
G02*
X108020000Y-131605000I0J250000D01*
G01*
G37*
X147870000Y-130880000D03*
X145370000Y-130880000D03*
G36*
G01*
X142020000Y-131605000D02*
X142020000Y-130155000D01*
G75*
G02*
X142270000Y-129905000I250000J0D01*
G01*
X143470000Y-129905000D01*
G75*
G02*
X143720000Y-130155000I0J-250000D01*
G01*
X143720000Y-131605000D01*
G75*
G02*
X143470000Y-131855000I-250000J0D01*
G01*
X142270000Y-131855000D01*
G75*
G02*
X142020000Y-131605000I0J250000D01*
G01*
G37*
X136620000Y-130880000D03*
X134120000Y-130880000D03*
G36*
G01*
X130770000Y-131605000D02*
X130770000Y-130155000D01*
G75*
G02*
X131020000Y-129905000I250000J0D01*
G01*
X132220000Y-129905000D01*
G75*
G02*
X132470000Y-130155000I0J-250000D01*
G01*
X132470000Y-131605000D01*
G75*
G02*
X132220000Y-131855000I-250000J0D01*
G01*
X131020000Y-131855000D01*
G75*
G02*
X130770000Y-131605000I0J250000D01*
G01*
G37*
X204420000Y-71130000D03*
X206920000Y-71130000D03*
X209420000Y-71130000D03*
G36*
G01*
X212770000Y-70405000D02*
X212770000Y-71855000D01*
G75*
G02*
X212520000Y-72105000I-250000J0D01*
G01*
X211320000Y-72105000D01*
G75*
G02*
X211070000Y-71855000I0J250000D01*
G01*
X211070000Y-70405000D01*
G75*
G02*
X211320000Y-70155000I250000J0D01*
G01*
X212520000Y-70155000D01*
G75*
G02*
X212770000Y-70405000I0J-250000D01*
G01*
G37*
X204071000Y-130830000D03*
X201571000Y-130830000D03*
X199071000Y-130830000D03*
G36*
G01*
X195721000Y-131555000D02*
X195721000Y-130105000D01*
G75*
G02*
X195971000Y-129855000I250000J0D01*
G01*
X197171000Y-129855000D01*
G75*
G02*
X197421000Y-130105000I0J-250000D01*
G01*
X197421000Y-131555000D01*
G75*
G02*
X197171000Y-131805000I-250000J0D01*
G01*
X195971000Y-131805000D01*
G75*
G02*
X195721000Y-131555000I0J250000D01*
G01*
G37*
X190101000Y-130830000D03*
X187601000Y-130830000D03*
X185101000Y-130830000D03*
G36*
G01*
X181751000Y-131555000D02*
X181751000Y-130105000D01*
G75*
G02*
X182001000Y-129855000I250000J0D01*
G01*
X183201000Y-129855000D01*
G75*
G02*
X183451000Y-130105000I0J-250000D01*
G01*
X183451000Y-131555000D01*
G75*
G02*
X183201000Y-131805000I-250000J0D01*
G01*
X182001000Y-131805000D01*
G75*
G02*
X181751000Y-131555000I0J250000D01*
G01*
G37*
X166930000Y-71110000D03*
X169430000Y-71110000D03*
X171930000Y-71110000D03*
G36*
G01*
X175280000Y-70385000D02*
X175280000Y-71835000D01*
G75*
G02*
X175030000Y-72085000I-250000J0D01*
G01*
X173830000Y-72085000D01*
G75*
G02*
X173580000Y-71835000I0J250000D01*
G01*
X173580000Y-70385000D01*
G75*
G02*
X173830000Y-70135000I250000J0D01*
G01*
X175030000Y-70135000D01*
G75*
G02*
X175280000Y-70385000I0J-250000D01*
G01*
G37*
X123623000Y-71110000D03*
X126123000Y-71110000D03*
X128623000Y-71110000D03*
G36*
G01*
X131973000Y-70385000D02*
X131973000Y-71835000D01*
G75*
G02*
X131723000Y-72085000I-250000J0D01*
G01*
X130523000Y-72085000D01*
G75*
G02*
X130273000Y-71835000I0J250000D01*
G01*
X130273000Y-70385000D01*
G75*
G02*
X130523000Y-70135000I250000J0D01*
G01*
X131723000Y-70135000D01*
G75*
G02*
X131973000Y-70385000I0J-250000D01*
G01*
G37*
X102033000Y-71110000D03*
X104533000Y-71110000D03*
X107033000Y-71110000D03*
G36*
G01*
X110383000Y-70385000D02*
X110383000Y-71835000D01*
G75*
G02*
X110133000Y-72085000I-250000J0D01*
G01*
X108933000Y-72085000D01*
G75*
G02*
X108683000Y-71835000I0J250000D01*
G01*
X108683000Y-70385000D01*
G75*
G02*
X108933000Y-70135000I250000J0D01*
G01*
X110133000Y-70135000D01*
G75*
G02*
X110383000Y-70385000I0J-250000D01*
G01*
G37*
X80570000Y-71110000D03*
X83070000Y-71110000D03*
X85570000Y-71110000D03*
G36*
G01*
X88920000Y-70385000D02*
X88920000Y-71835000D01*
G75*
G02*
X88670000Y-72085000I-250000J0D01*
G01*
X87470000Y-72085000D01*
G75*
G02*
X87220000Y-71835000I0J250000D01*
G01*
X87220000Y-70385000D01*
G75*
G02*
X87470000Y-70135000I250000J0D01*
G01*
X88670000Y-70135000D01*
G75*
G02*
X88920000Y-70385000I0J-250000D01*
G01*
G37*
X188520000Y-71110000D03*
X191020000Y-71110000D03*
X193520000Y-71110000D03*
G36*
G01*
X196870000Y-70385000D02*
X196870000Y-71835000D01*
G75*
G02*
X196620000Y-72085000I-250000J0D01*
G01*
X195420000Y-72085000D01*
G75*
G02*
X195170000Y-71835000I0J250000D01*
G01*
X195170000Y-70385000D01*
G75*
G02*
X195420000Y-70135000I250000J0D01*
G01*
X196620000Y-70135000D01*
G75*
G02*
X196870000Y-70385000I0J-250000D01*
G01*
G37*
X145213000Y-71110000D03*
X147713000Y-71110000D03*
X150213000Y-71110000D03*
G36*
G01*
X153563000Y-70385000D02*
X153563000Y-71835000D01*
G75*
G02*
X153313000Y-72085000I-250000J0D01*
G01*
X152113000Y-72085000D01*
G75*
G02*
X151863000Y-71835000I0J250000D01*
G01*
X151863000Y-70385000D01*
G75*
G02*
X152113000Y-70135000I250000J0D01*
G01*
X153313000Y-70135000D01*
G75*
G02*
X153563000Y-70385000I0J-250000D01*
G01*
G37*
D12*
X89213000Y-85715000D03*
X89213000Y-83175000D03*
D13*
X89213000Y-80635000D03*
D12*
X86673000Y-85715000D03*
X86673000Y-83175000D03*
D13*
X86673000Y-80635000D03*
D12*
X84133000Y-85715000D03*
X84133000Y-83175000D03*
D13*
X84133000Y-80635000D03*
D12*
X91753000Y-85715000D03*
X91753000Y-83175000D03*
D13*
X91753000Y-80635000D03*
D12*
X197290000Y-85715000D03*
X197290000Y-83175000D03*
D13*
X197290000Y-80635000D03*
D12*
X194750000Y-85715000D03*
X194750000Y-83175000D03*
D13*
X194750000Y-80635000D03*
D12*
X192210000Y-85715000D03*
X192210000Y-83175000D03*
D13*
X192210000Y-80635000D03*
D12*
X199830000Y-85715000D03*
X199830000Y-83175000D03*
D13*
X199830000Y-80635000D03*
D12*
X154110000Y-85715000D03*
X154110000Y-83175000D03*
D13*
X154110000Y-80635000D03*
D12*
X151570000Y-85715000D03*
X151570000Y-83175000D03*
D13*
X151570000Y-80635000D03*
D12*
X149030000Y-85715000D03*
X149030000Y-83175000D03*
D13*
X149030000Y-80635000D03*
D12*
X156650000Y-85715000D03*
X156650000Y-83175000D03*
D13*
X156650000Y-80635000D03*
D12*
X175700000Y-85715000D03*
X175700000Y-83175000D03*
D13*
X175700000Y-80635000D03*
D12*
X173160000Y-85715000D03*
X173160000Y-83175000D03*
D13*
X173160000Y-80635000D03*
D12*
X170620000Y-85715000D03*
X170620000Y-83175000D03*
D13*
X170620000Y-80635000D03*
D12*
X178240000Y-85715000D03*
X178240000Y-83175000D03*
D13*
X178240000Y-80635000D03*
D12*
X132520000Y-85715000D03*
X132520000Y-83175000D03*
D13*
X132520000Y-80635000D03*
D12*
X129980000Y-85715000D03*
X129980000Y-83175000D03*
D13*
X129980000Y-80635000D03*
D12*
X127440000Y-85715000D03*
X127440000Y-83175000D03*
D13*
X127440000Y-80635000D03*
D12*
X135060000Y-85715000D03*
X135060000Y-83175000D03*
D13*
X135060000Y-80635000D03*
D12*
X110930000Y-85715000D03*
X110930000Y-83175000D03*
D13*
X110930000Y-80635000D03*
D12*
X108390000Y-85715000D03*
X108390000Y-83175000D03*
D13*
X108390000Y-80635000D03*
D12*
X105850000Y-85715000D03*
X105850000Y-83175000D03*
D13*
X105850000Y-80635000D03*
D12*
X113470000Y-85715000D03*
X113470000Y-83175000D03*
D13*
X113470000Y-80635000D03*
D14*
X91270000Y-130400000D03*
X88770000Y-130400000D03*
X86770000Y-130400000D03*
X84270000Y-130400000D03*
D15*
X94340000Y-133110000D03*
X81200000Y-133110000D03*
D14*
X91270000Y-127780000D03*
X88770000Y-127780000D03*
X86770000Y-127780000D03*
D16*
X84270000Y-127780000D03*
D15*
X81200000Y-127430000D03*
X94340000Y-127430000D03*
D17*
X157793000Y-76809000D03*
D18*
X140013000Y-89509000D03*
X155253000Y-76809000D03*
X142553000Y-89509000D03*
X152713000Y-76809000D03*
X145093000Y-89509000D03*
X150173000Y-76809000D03*
X147633000Y-89509000D03*
X147633000Y-76809000D03*
X150173000Y-89509000D03*
X145093000Y-76809000D03*
X152713000Y-89509000D03*
X142553000Y-76809000D03*
X155253000Y-89509000D03*
X140013000Y-76809000D03*
X157793000Y-89509000D03*
X200973000Y-89509000D03*
X183193000Y-76809000D03*
X198433000Y-89509000D03*
X185733000Y-76809000D03*
X195893000Y-89509000D03*
X188273000Y-76809000D03*
X193353000Y-89509000D03*
X190813000Y-76809000D03*
X190813000Y-89509000D03*
X193353000Y-76809000D03*
X188273000Y-89509000D03*
X195893000Y-76809000D03*
X185733000Y-89509000D03*
X198433000Y-76809000D03*
X183193000Y-89509000D03*
D17*
X200973000Y-76809000D03*
X93023000Y-76809000D03*
D18*
X75243000Y-89509000D03*
X90483000Y-76809000D03*
X77783000Y-89509000D03*
X87943000Y-76809000D03*
X80323000Y-89509000D03*
X85403000Y-76809000D03*
X82863000Y-89509000D03*
X82863000Y-76809000D03*
X85403000Y-89509000D03*
X80323000Y-76809000D03*
X87943000Y-89509000D03*
X77783000Y-76809000D03*
X90483000Y-89509000D03*
X75243000Y-76809000D03*
X93023000Y-89509000D03*
D17*
X114613000Y-76809000D03*
D18*
X96833000Y-89509000D03*
X112073000Y-76809000D03*
X99373000Y-89509000D03*
X109533000Y-76809000D03*
X101913000Y-89509000D03*
X106993000Y-76809000D03*
X104453000Y-89509000D03*
X104453000Y-76809000D03*
X106993000Y-89509000D03*
X101913000Y-76809000D03*
X109533000Y-89509000D03*
X99373000Y-76809000D03*
X112073000Y-89509000D03*
X96833000Y-76809000D03*
X114613000Y-89509000D03*
X136203000Y-89509000D03*
X118423000Y-76809000D03*
X133663000Y-89509000D03*
X120963000Y-76809000D03*
X131123000Y-89509000D03*
X123503000Y-76809000D03*
X128583000Y-89509000D03*
X126043000Y-76809000D03*
X126043000Y-89509000D03*
X128583000Y-76809000D03*
X123503000Y-89509000D03*
X131123000Y-76809000D03*
X120963000Y-89509000D03*
X133663000Y-76809000D03*
X118423000Y-89509000D03*
D17*
X136203000Y-76809000D03*
D18*
X179383000Y-89509000D03*
X161603000Y-76809000D03*
X176843000Y-89509000D03*
X164143000Y-76809000D03*
X174303000Y-89509000D03*
X166683000Y-76809000D03*
X171763000Y-89509000D03*
X169223000Y-76809000D03*
X169223000Y-89509000D03*
X171763000Y-76809000D03*
X166683000Y-89509000D03*
X174303000Y-76809000D03*
X164143000Y-89509000D03*
X176843000Y-76809000D03*
X161603000Y-89509000D03*
D17*
X179383000Y-76809000D03*
D19*
X74020000Y-71030000D03*
X74020000Y-131030000D03*
X224020000Y-71030000D03*
X224020000Y-131030000D03*
D13*
X77770000Y-118530000D03*
D20*
X77770000Y-116030000D03*
X75770000Y-116030000D03*
X75770000Y-118530000D03*
D21*
X73060000Y-123300000D03*
X73060000Y-111260000D03*
D22*
X79180000Y-101230000D03*
G36*
G01*
X71680000Y-102230000D02*
X71680000Y-100230000D01*
G75*
G02*
X72430000Y-99480000I750000J0D01*
G01*
X73930000Y-99480000D01*
G75*
G02*
X74680000Y-100230000I0J-750000D01*
G01*
X74680000Y-102230000D01*
G75*
G02*
X73930000Y-102980000I-750000J0D01*
G01*
X72430000Y-102980000D01*
G75*
G02*
X71680000Y-102230000I0J750000D01*
G01*
G37*
G36*
G01*
X74430000Y-106805000D02*
X74430000Y-105055000D01*
G75*
G02*
X75305000Y-104180000I875000J0D01*
G01*
X77055000Y-104180000D01*
G75*
G02*
X77930000Y-105055000I0J-875000D01*
G01*
X77930000Y-106805000D01*
G75*
G02*
X77055000Y-107680000I-875000J0D01*
G01*
X75305000Y-107680000D01*
G75*
G02*
X74430000Y-106805000I0J875000D01*
G01*
G37*
D23*
X98145000Y-117192000D03*
X103225000Y-117192000D03*
X100685000Y-117192000D03*
D24*
X162765000Y-129760000D03*
X162765000Y-131030000D03*
X162765000Y-132300000D03*
X153875000Y-132300000D03*
X153875000Y-131030000D03*
X153875000Y-129760000D03*
D25*
X158320000Y-131030000D03*
X172470000Y-131066000D03*
D24*
X168025000Y-129796000D03*
X168025000Y-131066000D03*
X168025000Y-132336000D03*
X176915000Y-132336000D03*
X176915000Y-131066000D03*
X176915000Y-129796000D03*
D26*
X176970000Y-98288000D03*
X179510000Y-98288000D03*
X176970000Y-100828000D03*
X179510000Y-100828000D03*
X176970000Y-103368000D03*
X179510000Y-103368000D03*
X176970000Y-105908000D03*
X179510000Y-105908000D03*
X176970000Y-108448000D03*
D27*
X179510000Y-108448000D03*
X189670000Y-108448000D03*
D26*
X187130000Y-108448000D03*
X189670000Y-105908000D03*
X187130000Y-105908000D03*
X189670000Y-103368000D03*
X187130000Y-103368000D03*
X189670000Y-100828000D03*
X187130000Y-100828000D03*
X189670000Y-98288000D03*
X187130000Y-98288000D03*
G36*
G01*
X214396000Y-129438000D02*
X214396000Y-130638000D01*
G75*
G02*
X214146000Y-130888000I-250000J0D01*
G01*
X212946000Y-130888000D01*
G75*
G02*
X212696000Y-130638000I0J250000D01*
G01*
X212696000Y-129438000D01*
G75*
G02*
X212946000Y-129188000I250000J0D01*
G01*
X214146000Y-129188000D01*
G75*
G02*
X214396000Y-129438000I0J-250000D01*
G01*
G37*
D20*
X213546000Y-127498000D03*
X213546000Y-124958000D03*
X211006000Y-130038000D03*
X211006000Y-127498000D03*
X211006000Y-124958000D03*
D28*
X217713000Y-76427091D02*
X217713000Y-81182891D01*
X212967000Y-81173902D01*
X212967000Y-76418102D01*
X217713000Y-76427091D01*
D29*
G36*
X217713000Y-76427091D02*
G01*
X217713000Y-81182891D01*
X212967000Y-81173902D01*
X212967000Y-76418102D01*
X217713000Y-76427091D01*
G37*
D28*
X217613000Y-83927091D02*
X217613000Y-88682891D01*
X212867000Y-88673902D01*
X212867000Y-83918102D01*
X217613000Y-83927091D01*
D29*
G36*
X217613000Y-83927091D02*
G01*
X217613000Y-88682891D01*
X212867000Y-88673902D01*
X212867000Y-83918102D01*
X217613000Y-83927091D01*
G37*
D28*
X217613000Y-91627091D02*
X217613000Y-96382891D01*
X212867000Y-96373902D01*
X212867000Y-91618102D01*
X217613000Y-91627091D01*
D29*
G36*
X217613000Y-91627091D02*
G01*
X217613000Y-96382891D01*
X212867000Y-96373902D01*
X212867000Y-91618102D01*
X217613000Y-91627091D01*
G37*
D28*
X217613000Y-99227091D02*
X217613000Y-103982891D01*
X212867000Y-103973902D01*
X212867000Y-99218102D01*
X217613000Y-99227091D01*
D29*
G36*
X217613000Y-99227091D02*
G01*
X217613000Y-103982891D01*
X212867000Y-103973902D01*
X212867000Y-99218102D01*
X217613000Y-99227091D01*
G37*
M02*
