G04 #@! TF.GenerationSoftware,KiCad,Pcbnew,5.1.9+dfsg1-1~bpo10+1*
G04 #@! TF.CreationDate,2021-04-05T22:18:54+00:00*
G04 #@! TF.ProjectId,mobo,6d6f626f-2e6b-4696-9361-645f70636258,rev?*
G04 #@! TF.SameCoordinates,Original*
G04 #@! TF.FileFunction,Soldermask,Bot*
G04 #@! TF.FilePolarity,Negative*
%FSLAX46Y46*%
G04 Gerber Fmt 4.6, Leading zero omitted, Abs format (unit mm)*
G04 Created by KiCad (PCBNEW 5.1.9+dfsg1-1~bpo10+1) date 2021-04-05 22:18:54*
%MOMM*%
%LPD*%
G01*
G04 APERTURE LIST*
%ADD10C,0.100000*%
%ADD11O,1.700000X1.950000*%
%ADD12O,1.950000X1.700000*%
%ADD13O,1.700000X1.700000*%
%ADD14R,1.700000X1.700000*%
%ADD15C,1.700000*%
%ADD16O,1.600000X1.600000*%
%ADD17R,1.600000X1.600000*%
%ADD18O,2.000000X1.700000*%
%ADD19C,1.600000*%
%ADD20C,3.000000*%
%ADD21R,2.300000X0.600000*%
%ADD22C,4.200000*%
%ADD23O,2.000000X0.900000*%
%ADD24O,1.700000X0.900000*%
%ADD25C,0.600000*%
%ADD26C,2.600000*%
%ADD27R,2.600000X2.600000*%
%ADD28C,5.600000*%
G04 APERTURE END LIST*
D10*
G36*
X161590000Y-118560000D02*
G01*
X162090000Y-118560000D01*
X162090000Y-118560602D01*
X162114534Y-118560602D01*
X162163365Y-118565412D01*
X162211490Y-118574984D01*
X162258445Y-118589228D01*
X162303778Y-118608005D01*
X162347051Y-118631136D01*
X162387850Y-118658396D01*
X162425779Y-118689524D01*
X162460476Y-118724221D01*
X162491604Y-118762150D01*
X162518864Y-118802949D01*
X162541995Y-118846222D01*
X162560772Y-118891555D01*
X162575016Y-118938510D01*
X162584588Y-118986635D01*
X162589398Y-119035466D01*
X162589398Y-119060000D01*
X162590000Y-119060000D01*
X162590000Y-119560000D01*
X162589398Y-119560000D01*
X162589398Y-119584534D01*
X162584588Y-119633365D01*
X162575016Y-119681490D01*
X162560772Y-119728445D01*
X162541995Y-119773778D01*
X162518864Y-119817051D01*
X162491604Y-119857850D01*
X162460476Y-119895779D01*
X162425779Y-119930476D01*
X162387850Y-119961604D01*
X162347051Y-119988864D01*
X162303778Y-120011995D01*
X162258445Y-120030772D01*
X162211490Y-120045016D01*
X162163365Y-120054588D01*
X162114534Y-120059398D01*
X162090000Y-120059398D01*
X162090000Y-120060000D01*
X161590000Y-120060000D01*
X161590000Y-118560000D01*
G37*
G36*
X160790000Y-120059398D02*
G01*
X160765466Y-120059398D01*
X160716635Y-120054588D01*
X160668510Y-120045016D01*
X160621555Y-120030772D01*
X160576222Y-120011995D01*
X160532949Y-119988864D01*
X160492150Y-119961604D01*
X160454221Y-119930476D01*
X160419524Y-119895779D01*
X160388396Y-119857850D01*
X160361136Y-119817051D01*
X160338005Y-119773778D01*
X160319228Y-119728445D01*
X160304984Y-119681490D01*
X160295412Y-119633365D01*
X160290602Y-119584534D01*
X160290602Y-119560000D01*
X160290000Y-119560000D01*
X160290000Y-119060000D01*
X160290602Y-119060000D01*
X160290602Y-119035466D01*
X160295412Y-118986635D01*
X160304984Y-118938510D01*
X160319228Y-118891555D01*
X160338005Y-118846222D01*
X160361136Y-118802949D01*
X160388396Y-118762150D01*
X160419524Y-118724221D01*
X160454221Y-118689524D01*
X160492150Y-118658396D01*
X160532949Y-118631136D01*
X160576222Y-118608005D01*
X160621555Y-118589228D01*
X160668510Y-118574984D01*
X160716635Y-118565412D01*
X160765466Y-118560602D01*
X160790000Y-118560602D01*
X160790000Y-118560000D01*
X161290000Y-118560000D01*
X161290000Y-120060000D01*
X160790000Y-120060000D01*
X160790000Y-120059398D01*
G37*
D11*
X157730000Y-159270000D03*
X155230000Y-159270000D03*
G36*
G01*
X151880000Y-159995000D02*
X151880000Y-158545000D01*
G75*
G02*
X152130000Y-158295000I250000J0D01*
G01*
X153330000Y-158295000D01*
G75*
G02*
X153580000Y-158545000I0J-250000D01*
G01*
X153580000Y-159995000D01*
G75*
G02*
X153330000Y-160245000I-250000J0D01*
G01*
X152130000Y-160245000D01*
G75*
G02*
X151880000Y-159995000I0J250000D01*
G01*
G37*
X146730000Y-159260000D03*
X144230000Y-159260000D03*
G36*
G01*
X140880000Y-159985000D02*
X140880000Y-158535000D01*
G75*
G02*
X141130000Y-158285000I250000J0D01*
G01*
X142330000Y-158285000D01*
G75*
G02*
X142580000Y-158535000I0J-250000D01*
G01*
X142580000Y-159985000D01*
G75*
G02*
X142330000Y-160235000I-250000J0D01*
G01*
X141130000Y-160235000D01*
G75*
G02*
X140880000Y-159985000I0J250000D01*
G01*
G37*
D12*
X85390000Y-98940000D03*
X85390000Y-101440000D03*
G36*
G01*
X86115000Y-104790000D02*
X84665000Y-104790000D01*
G75*
G02*
X84415000Y-104540000I0J250000D01*
G01*
X84415000Y-103340000D01*
G75*
G02*
X84665000Y-103090000I250000J0D01*
G01*
X86115000Y-103090000D01*
G75*
G02*
X86365000Y-103340000I0J-250000D01*
G01*
X86365000Y-104540000D01*
G75*
G02*
X86115000Y-104790000I-250000J0D01*
G01*
G37*
X85330000Y-115120000D03*
X85330000Y-117620000D03*
G36*
G01*
X86055000Y-120970000D02*
X84605000Y-120970000D01*
G75*
G02*
X84355000Y-120720000I0J250000D01*
G01*
X84355000Y-119520000D01*
G75*
G02*
X84605000Y-119270000I250000J0D01*
G01*
X86055000Y-119270000D01*
G75*
G02*
X86305000Y-119520000I0J-250000D01*
G01*
X86305000Y-120720000D01*
G75*
G02*
X86055000Y-120970000I-250000J0D01*
G01*
G37*
D13*
X144560000Y-141750000D03*
X144560000Y-144290000D03*
D14*
X144560000Y-146830000D03*
D13*
X140820000Y-141750000D03*
X140820000Y-144290000D03*
D14*
X140820000Y-146830000D03*
D15*
X132470000Y-144810000D03*
X132470000Y-147350000D03*
X132470000Y-149890000D03*
X132470000Y-152430000D03*
X132470000Y-154970000D03*
X132470000Y-157510000D03*
X135010000Y-144810000D03*
X135010000Y-147350000D03*
X135010000Y-149890000D03*
X135010000Y-152430000D03*
X135010000Y-154970000D03*
G36*
G01*
X135860000Y-156910000D02*
X135860000Y-158110000D01*
G75*
G02*
X135610000Y-158360000I-250000J0D01*
G01*
X134410000Y-158360000D01*
G75*
G02*
X134160000Y-158110000I0J250000D01*
G01*
X134160000Y-156910000D01*
G75*
G02*
X134410000Y-156660000I250000J0D01*
G01*
X135610000Y-156660000D01*
G75*
G02*
X135860000Y-156910000I0J-250000D01*
G01*
G37*
X122420000Y-144810000D03*
X122420000Y-147350000D03*
X122420000Y-149890000D03*
X122420000Y-152430000D03*
X122420000Y-154970000D03*
X122420000Y-157510000D03*
X124960000Y-144810000D03*
X124960000Y-147350000D03*
X124960000Y-149890000D03*
X124960000Y-152430000D03*
X124960000Y-154970000D03*
G36*
G01*
X125810000Y-156910000D02*
X125810000Y-158110000D01*
G75*
G02*
X125560000Y-158360000I-250000J0D01*
G01*
X124360000Y-158360000D01*
G75*
G02*
X124110000Y-158110000I0J250000D01*
G01*
X124110000Y-156910000D01*
G75*
G02*
X124360000Y-156660000I250000J0D01*
G01*
X125560000Y-156660000D01*
G75*
G02*
X125810000Y-156910000I0J-250000D01*
G01*
G37*
X112360000Y-144810000D03*
X112360000Y-147350000D03*
X112360000Y-149890000D03*
X112360000Y-152430000D03*
X112360000Y-154970000D03*
X112360000Y-157510000D03*
X114900000Y-144810000D03*
X114900000Y-147350000D03*
X114900000Y-149890000D03*
X114900000Y-152430000D03*
X114900000Y-154970000D03*
G36*
G01*
X115750000Y-156910000D02*
X115750000Y-158110000D01*
G75*
G02*
X115500000Y-158360000I-250000J0D01*
G01*
X114300000Y-158360000D01*
G75*
G02*
X114050000Y-158110000I0J250000D01*
G01*
X114050000Y-156910000D01*
G75*
G02*
X114300000Y-156660000I250000J0D01*
G01*
X115500000Y-156660000D01*
G75*
G02*
X115750000Y-156910000I0J-250000D01*
G01*
G37*
D12*
X106450000Y-126200000D03*
X106450000Y-128700000D03*
G36*
G01*
X107175000Y-132050000D02*
X105725000Y-132050000D01*
G75*
G02*
X105475000Y-131800000I0J250000D01*
G01*
X105475000Y-130600000D01*
G75*
G02*
X105725000Y-130350000I250000J0D01*
G01*
X107175000Y-130350000D01*
G75*
G02*
X107425000Y-130600000I0J-250000D01*
G01*
X107425000Y-131800000D01*
G75*
G02*
X107175000Y-132050000I-250000J0D01*
G01*
G37*
X92690000Y-126250000D03*
X92690000Y-128750000D03*
G36*
G01*
X93415000Y-132100000D02*
X91965000Y-132100000D01*
G75*
G02*
X91715000Y-131850000I0J250000D01*
G01*
X91715000Y-130650000D01*
G75*
G02*
X91965000Y-130400000I250000J0D01*
G01*
X93415000Y-130400000D01*
G75*
G02*
X93665000Y-130650000I0J-250000D01*
G01*
X93665000Y-131850000D01*
G75*
G02*
X93415000Y-132100000I-250000J0D01*
G01*
G37*
X99560000Y-126210000D03*
X99560000Y-128710000D03*
G36*
G01*
X100285000Y-132060000D02*
X98835000Y-132060000D01*
G75*
G02*
X98585000Y-131810000I0J250000D01*
G01*
X98585000Y-130610000D01*
G75*
G02*
X98835000Y-130360000I250000J0D01*
G01*
X100285000Y-130360000D01*
G75*
G02*
X100535000Y-130610000I0J-250000D01*
G01*
X100535000Y-131810000D01*
G75*
G02*
X100285000Y-132060000I-250000J0D01*
G01*
G37*
X106420000Y-115100000D03*
X106420000Y-117600000D03*
G36*
G01*
X107145000Y-120950000D02*
X105695000Y-120950000D01*
G75*
G02*
X105445000Y-120700000I0J250000D01*
G01*
X105445000Y-119500000D01*
G75*
G02*
X105695000Y-119250000I250000J0D01*
G01*
X107145000Y-119250000D01*
G75*
G02*
X107395000Y-119500000I0J-250000D01*
G01*
X107395000Y-120700000D01*
G75*
G02*
X107145000Y-120950000I-250000J0D01*
G01*
G37*
X99560000Y-115150000D03*
X99560000Y-117650000D03*
G36*
G01*
X100285000Y-121000000D02*
X98835000Y-121000000D01*
G75*
G02*
X98585000Y-120750000I0J250000D01*
G01*
X98585000Y-119550000D01*
G75*
G02*
X98835000Y-119300000I250000J0D01*
G01*
X100285000Y-119300000D01*
G75*
G02*
X100535000Y-119550000I0J-250000D01*
G01*
X100535000Y-120750000D01*
G75*
G02*
X100285000Y-121000000I-250000J0D01*
G01*
G37*
X92720000Y-115150000D03*
X92720000Y-117650000D03*
G36*
G01*
X93445000Y-121000000D02*
X91995000Y-121000000D01*
G75*
G02*
X91745000Y-120750000I0J250000D01*
G01*
X91745000Y-119550000D01*
G75*
G02*
X91995000Y-119300000I250000J0D01*
G01*
X93445000Y-119300000D01*
G75*
G02*
X93695000Y-119550000I0J-250000D01*
G01*
X93695000Y-120750000D01*
G75*
G02*
X93445000Y-121000000I-250000J0D01*
G01*
G37*
D11*
X142670000Y-94600000D03*
X145170000Y-94600000D03*
X147670000Y-94600000D03*
G36*
G01*
X151020000Y-93875000D02*
X151020000Y-95325000D01*
G75*
G02*
X150770000Y-95575000I-250000J0D01*
G01*
X149570000Y-95575000D01*
G75*
G02*
X149320000Y-95325000I0J250000D01*
G01*
X149320000Y-93875000D01*
G75*
G02*
X149570000Y-93625000I250000J0D01*
G01*
X150770000Y-93625000D01*
G75*
G02*
X151020000Y-93875000I0J-250000D01*
G01*
G37*
X129070000Y-94580000D03*
X131570000Y-94580000D03*
X134070000Y-94580000D03*
G36*
G01*
X137420000Y-93855000D02*
X137420000Y-95305000D01*
G75*
G02*
X137170000Y-95555000I-250000J0D01*
G01*
X135970000Y-95555000D01*
G75*
G02*
X135720000Y-95305000I0J250000D01*
G01*
X135720000Y-93855000D01*
G75*
G02*
X135970000Y-93605000I250000J0D01*
G01*
X137170000Y-93605000D01*
G75*
G02*
X137420000Y-93855000I0J-250000D01*
G01*
G37*
D14*
X151240000Y-102320000D03*
D13*
X151240000Y-104860000D03*
X151240000Y-107400000D03*
D14*
X145680000Y-102320000D03*
D13*
X145680000Y-104860000D03*
X145680000Y-107400000D03*
D14*
X142880000Y-102320000D03*
D13*
X142880000Y-104860000D03*
X142880000Y-107400000D03*
D14*
X148480000Y-102320000D03*
D13*
X148480000Y-104860000D03*
X148480000Y-107400000D03*
X109530000Y-84450000D03*
X109530000Y-81910000D03*
D14*
X109530000Y-79370000D03*
D13*
X103970000Y-84450000D03*
X103970000Y-81910000D03*
D14*
X103970000Y-79370000D03*
D13*
X106770000Y-84450000D03*
X106770000Y-81910000D03*
D14*
X106770000Y-79370000D03*
D13*
X101170000Y-84450000D03*
X101170000Y-81910000D03*
D14*
X101170000Y-79370000D03*
D11*
X97735000Y-70275000D03*
X100235000Y-70275000D03*
X102735000Y-70275000D03*
G36*
G01*
X106085000Y-69550000D02*
X106085000Y-71000000D01*
G75*
G02*
X105835000Y-71250000I-250000J0D01*
G01*
X104635000Y-71250000D01*
G75*
G02*
X104385000Y-71000000I0J250000D01*
G01*
X104385000Y-69550000D01*
G75*
G02*
X104635000Y-69300000I250000J0D01*
G01*
X105835000Y-69300000D01*
G75*
G02*
X106085000Y-69550000I0J-250000D01*
G01*
G37*
X111735000Y-70275000D03*
X114235000Y-70275000D03*
X116735000Y-70275000D03*
G36*
G01*
X120085000Y-69550000D02*
X120085000Y-71000000D01*
G75*
G02*
X119835000Y-71250000I-250000J0D01*
G01*
X118635000Y-71250000D01*
G75*
G02*
X118385000Y-71000000I0J250000D01*
G01*
X118385000Y-69550000D01*
G75*
G02*
X118635000Y-69300000I250000J0D01*
G01*
X119835000Y-69300000D01*
G75*
G02*
X120085000Y-69550000I0J-250000D01*
G01*
G37*
D16*
X151380000Y-111930000D03*
X133600000Y-99230000D03*
X148840000Y-111930000D03*
X136140000Y-99230000D03*
X146300000Y-111930000D03*
X138680000Y-99230000D03*
X143760000Y-111930000D03*
X141220000Y-99230000D03*
X141220000Y-111930000D03*
X143760000Y-99230000D03*
X138680000Y-111930000D03*
X146300000Y-99230000D03*
X136140000Y-111930000D03*
X148840000Y-99230000D03*
X133600000Y-111930000D03*
D17*
X151380000Y-99230000D03*
D16*
X109570000Y-88980000D03*
X91790000Y-76280000D03*
X107030000Y-88980000D03*
X94330000Y-76280000D03*
X104490000Y-88980000D03*
X96870000Y-76280000D03*
X101950000Y-88980000D03*
X99410000Y-76280000D03*
X99410000Y-88980000D03*
X101950000Y-76280000D03*
X96870000Y-88980000D03*
X104490000Y-76280000D03*
X94330000Y-88980000D03*
X107030000Y-76280000D03*
X91790000Y-88980000D03*
D17*
X109570000Y-76280000D03*
D18*
X162210000Y-149250000D03*
G36*
G01*
X162960000Y-152600000D02*
X161460000Y-152600000D01*
G75*
G02*
X161210000Y-152350000I0J250000D01*
G01*
X161210000Y-151150000D01*
G75*
G02*
X161460000Y-150900000I250000J0D01*
G01*
X162960000Y-150900000D01*
G75*
G02*
X163210000Y-151150000I0J-250000D01*
G01*
X163210000Y-152350000D01*
G75*
G02*
X162960000Y-152600000I-250000J0D01*
G01*
G37*
D19*
X80720000Y-121030000D03*
X80720000Y-118530000D03*
X80720000Y-116530000D03*
D17*
X80720000Y-114030000D03*
D20*
X78010000Y-110960000D03*
X78010000Y-124100000D03*
D15*
X95940000Y-101420000D03*
X95940000Y-98880000D03*
X95940000Y-96340000D03*
X93400000Y-101420000D03*
X93400000Y-98880000D03*
G36*
G01*
X92550000Y-96940000D02*
X92550000Y-95740000D01*
G75*
G02*
X92800000Y-95490000I250000J0D01*
G01*
X94000000Y-95490000D01*
G75*
G02*
X94250000Y-95740000I0J-250000D01*
G01*
X94250000Y-96940000D01*
G75*
G02*
X94000000Y-97190000I-250000J0D01*
G01*
X92800000Y-97190000D01*
G75*
G02*
X92550000Y-96940000I0J250000D01*
G01*
G37*
D20*
X78000000Y-141580000D03*
X78000000Y-128440000D03*
D17*
X80710000Y-131510000D03*
D19*
X80710000Y-134010000D03*
X80710000Y-136010000D03*
X80710000Y-138510000D03*
X80740000Y-103580000D03*
X80740000Y-101080000D03*
X80740000Y-99080000D03*
D17*
X80740000Y-96580000D03*
D20*
X78030000Y-93510000D03*
X78030000Y-106650000D03*
D18*
X162220000Y-123860000D03*
G36*
G01*
X162970000Y-127210000D02*
X161470000Y-127210000D01*
G75*
G02*
X161220000Y-126960000I0J250000D01*
G01*
X161220000Y-125760000D01*
G75*
G02*
X161470000Y-125510000I250000J0D01*
G01*
X162970000Y-125510000D01*
G75*
G02*
X163220000Y-125760000I0J-250000D01*
G01*
X163220000Y-126960000D01*
G75*
G02*
X162970000Y-127210000I-250000J0D01*
G01*
G37*
D21*
X99645000Y-158140000D03*
X99645000Y-159410000D03*
X99645000Y-160680000D03*
X90755000Y-160680000D03*
X90755000Y-159410000D03*
X90755000Y-158140000D03*
D22*
X95200000Y-159410000D03*
D21*
X87585000Y-158100000D03*
X87585000Y-159370000D03*
X87585000Y-160640000D03*
X78695000Y-160640000D03*
X78695000Y-159370000D03*
X78695000Y-158100000D03*
D22*
X83140000Y-159370000D03*
D18*
X162170000Y-132290000D03*
G36*
G01*
X162920000Y-135640000D02*
X161420000Y-135640000D01*
G75*
G02*
X161170000Y-135390000I0J250000D01*
G01*
X161170000Y-134190000D01*
G75*
G02*
X161420000Y-133940000I250000J0D01*
G01*
X162920000Y-133940000D01*
G75*
G02*
X163170000Y-134190000I0J-250000D01*
G01*
X163170000Y-135390000D01*
G75*
G02*
X162920000Y-135640000I-250000J0D01*
G01*
G37*
X162140000Y-140760000D03*
G36*
G01*
X162890000Y-144110000D02*
X161390000Y-144110000D01*
G75*
G02*
X161140000Y-143860000I0J250000D01*
G01*
X161140000Y-142660000D01*
G75*
G02*
X161390000Y-142410000I250000J0D01*
G01*
X162890000Y-142410000D01*
G75*
G02*
X163140000Y-142660000I0J-250000D01*
G01*
X163140000Y-143860000D01*
G75*
G02*
X162890000Y-144110000I-250000J0D01*
G01*
G37*
D23*
X75230000Y-146320000D03*
X75230000Y-154960000D03*
D24*
X71060000Y-146320000D03*
X71060000Y-154960000D03*
D25*
X74750000Y-153530000D03*
X74750000Y-147750000D03*
D16*
X130400000Y-111950000D03*
X112620000Y-99250000D03*
X127860000Y-111950000D03*
X115160000Y-99250000D03*
X125320000Y-111950000D03*
X117700000Y-99250000D03*
X122780000Y-111950000D03*
X120240000Y-99250000D03*
X120240000Y-111950000D03*
X122780000Y-99250000D03*
X117700000Y-111950000D03*
X125320000Y-99250000D03*
X115160000Y-111950000D03*
X127860000Y-99250000D03*
X112620000Y-111950000D03*
D17*
X130400000Y-99250000D03*
D11*
X111890000Y-94500000D03*
X114390000Y-94500000D03*
X116890000Y-94500000D03*
G36*
G01*
X120240000Y-93775000D02*
X120240000Y-95225000D01*
G75*
G02*
X119990000Y-95475000I-250000J0D01*
G01*
X118790000Y-95475000D01*
G75*
G02*
X118540000Y-95225000I0J250000D01*
G01*
X118540000Y-93775000D01*
G75*
G02*
X118790000Y-93525000I250000J0D01*
G01*
X119990000Y-93525000D01*
G75*
G02*
X120240000Y-93775000I0J-250000D01*
G01*
G37*
D26*
X161790000Y-77590000D03*
D27*
X161790000Y-82590000D03*
D14*
X130160000Y-102240000D03*
D13*
X130160000Y-104780000D03*
X130160000Y-107320000D03*
D14*
X124600000Y-102240000D03*
D13*
X124600000Y-104780000D03*
X124600000Y-107320000D03*
D14*
X121800000Y-102240000D03*
D13*
X121800000Y-104780000D03*
X121800000Y-107320000D03*
D14*
X127400000Y-102240000D03*
D13*
X127400000Y-104780000D03*
X127400000Y-107320000D03*
D14*
X151430000Y-79370000D03*
D13*
X151430000Y-81910000D03*
X151430000Y-84450000D03*
D14*
X145870000Y-79370000D03*
D13*
X145870000Y-81910000D03*
X145870000Y-84450000D03*
D14*
X143070000Y-79370000D03*
D13*
X143070000Y-81910000D03*
X143070000Y-84450000D03*
D14*
X148670000Y-79370000D03*
D13*
X148670000Y-81910000D03*
X148670000Y-84450000D03*
D14*
X130530000Y-79370000D03*
D13*
X130530000Y-81910000D03*
X130530000Y-84450000D03*
D14*
X124970000Y-79370000D03*
D13*
X124970000Y-81910000D03*
X124970000Y-84450000D03*
D14*
X122170000Y-79370000D03*
D13*
X122170000Y-81910000D03*
X122170000Y-84450000D03*
D14*
X127770000Y-79370000D03*
D13*
X127770000Y-81910000D03*
X127770000Y-84450000D03*
D14*
X88430000Y-79370000D03*
D13*
X88430000Y-81910000D03*
X88430000Y-84450000D03*
D14*
X82870000Y-79370000D03*
D13*
X82870000Y-81910000D03*
X82870000Y-84450000D03*
D14*
X80070000Y-79370000D03*
D13*
X80070000Y-81910000D03*
X80070000Y-84450000D03*
D14*
X85670000Y-79370000D03*
D13*
X85670000Y-81910000D03*
X85670000Y-84450000D03*
D11*
X145520000Y-70400000D03*
X148020000Y-70400000D03*
X150520000Y-70400000D03*
G36*
G01*
X153870000Y-69675000D02*
X153870000Y-71125000D01*
G75*
G02*
X153620000Y-71375000I-250000J0D01*
G01*
X152420000Y-71375000D01*
G75*
G02*
X152170000Y-71125000I0J250000D01*
G01*
X152170000Y-69675000D01*
G75*
G02*
X152420000Y-69425000I250000J0D01*
G01*
X153620000Y-69425000D01*
G75*
G02*
X153870000Y-69675000I0J-250000D01*
G01*
G37*
X80685000Y-70275000D03*
X83185000Y-70275000D03*
X85685000Y-70275000D03*
G36*
G01*
X89035000Y-69550000D02*
X89035000Y-71000000D01*
G75*
G02*
X88785000Y-71250000I-250000J0D01*
G01*
X87585000Y-71250000D01*
G75*
G02*
X87335000Y-71000000I0J250000D01*
G01*
X87335000Y-69550000D01*
G75*
G02*
X87585000Y-69300000I250000J0D01*
G01*
X88785000Y-69300000D01*
G75*
G02*
X89035000Y-69550000I0J-250000D01*
G01*
G37*
X128720000Y-70300000D03*
X131220000Y-70300000D03*
X133720000Y-70300000D03*
G36*
G01*
X137070000Y-69575000D02*
X137070000Y-71025000D01*
G75*
G02*
X136820000Y-71275000I-250000J0D01*
G01*
X135620000Y-71275000D01*
G75*
G02*
X135370000Y-71025000I0J250000D01*
G01*
X135370000Y-69575000D01*
G75*
G02*
X135620000Y-69325000I250000J0D01*
G01*
X136820000Y-69325000D01*
G75*
G02*
X137070000Y-69575000I0J-250000D01*
G01*
G37*
D16*
X151570000Y-88980000D03*
X133790000Y-76280000D03*
X149030000Y-88980000D03*
X136330000Y-76280000D03*
X146490000Y-88980000D03*
X138870000Y-76280000D03*
X143950000Y-88980000D03*
X141410000Y-76280000D03*
X141410000Y-88980000D03*
X143950000Y-76280000D03*
X138870000Y-88980000D03*
X146490000Y-76280000D03*
X136330000Y-88980000D03*
X149030000Y-76280000D03*
X133790000Y-88980000D03*
D17*
X151570000Y-76280000D03*
D16*
X88570000Y-88980000D03*
X70790000Y-76280000D03*
X86030000Y-88980000D03*
X73330000Y-76280000D03*
X83490000Y-88980000D03*
X75870000Y-76280000D03*
X80950000Y-88980000D03*
X78410000Y-76280000D03*
X78410000Y-88980000D03*
X80950000Y-76280000D03*
X75870000Y-88980000D03*
X83490000Y-76280000D03*
X73330000Y-88980000D03*
X86030000Y-76280000D03*
X70790000Y-88980000D03*
D17*
X88570000Y-76280000D03*
D16*
X130570000Y-88980000D03*
X112790000Y-76280000D03*
X128030000Y-88980000D03*
X115330000Y-76280000D03*
X125490000Y-88980000D03*
X117870000Y-76280000D03*
X122950000Y-88980000D03*
X120410000Y-76280000D03*
X120410000Y-88980000D03*
X122950000Y-76280000D03*
X117870000Y-88980000D03*
X125490000Y-76280000D03*
X115330000Y-88980000D03*
X128030000Y-76280000D03*
X112790000Y-88980000D03*
D17*
X130570000Y-76280000D03*
D28*
X74020000Y-71030000D03*
X74020000Y-161030000D03*
X164020000Y-71030000D03*
X164020000Y-161030000D03*
M02*
