G04 #@! TF.GenerationSoftware,KiCad,Pcbnew,7.0.2-0*
G04 #@! TF.CreationDate,2023-11-08T10:28:37-05:00*
G04 #@! TF.ProjectId,blade13_38-50,626c6164-6531-4335-9f33-382d35302e6b,rev?*
G04 #@! TF.SameCoordinates,Original*
G04 #@! TF.FileFunction,Copper,L2,Bot*
G04 #@! TF.FilePolarity,Positive*
%FSLAX46Y46*%
G04 Gerber Fmt 4.6, Leading zero omitted, Abs format (unit mm)*
G04 Created by KiCad (PCBNEW 7.0.2-0) date 2023-11-08 10:28:37*
%MOMM*%
%LPD*%
G01*
G04 APERTURE LIST*
G04 Aperture macros list*
%AMRoundRect*
0 Rectangle with rounded corners*
0 $1 Rounding radius*
0 $2 $3 $4 $5 $6 $7 $8 $9 X,Y pos of 4 corners*
0 Add a 4 corners polygon primitive as box body*
4,1,4,$2,$3,$4,$5,$6,$7,$8,$9,$2,$3,0*
0 Add four circle primitives for the rounded corners*
1,1,$1+$1,$2,$3*
1,1,$1+$1,$4,$5*
1,1,$1+$1,$6,$7*
1,1,$1+$1,$8,$9*
0 Add four rect primitives between the rounded corners*
20,1,$1+$1,$2,$3,$4,$5,0*
20,1,$1+$1,$4,$5,$6,$7,0*
20,1,$1+$1,$6,$7,$8,$9,0*
20,1,$1+$1,$8,$9,$2,$3,0*%
G04 Aperture macros list end*
G04 #@! TA.AperFunction,ComponentPad*
%ADD10R,1.700000X1.700000*%
G04 #@! TD*
G04 #@! TA.AperFunction,ComponentPad*
%ADD11O,1.700000X1.700000*%
G04 #@! TD*
G04 #@! TA.AperFunction,SMDPad,CuDef*
%ADD12RoundRect,0.475000X-1.025000X0.475000X-1.025000X-0.475000X1.025000X-0.475000X1.025000X0.475000X0*%
G04 #@! TD*
G04 #@! TA.AperFunction,ViaPad*
%ADD13C,0.800000*%
G04 #@! TD*
G04 #@! TA.AperFunction,Conductor*
%ADD14C,0.250000*%
G04 #@! TD*
G04 #@! TA.AperFunction,Conductor*
%ADD15C,1.000000*%
G04 #@! TD*
G04 #@! TA.AperFunction,Conductor*
%ADD16C,2.000000*%
G04 #@! TD*
G04 #@! TA.AperFunction,Conductor*
%ADD17C,0.200000*%
G04 #@! TD*
G04 #@! TA.AperFunction,Conductor*
%ADD18C,0.500000*%
G04 #@! TD*
G04 APERTURE END LIST*
D10*
X28225000Y-50825000D03*
D11*
X25685000Y-50825000D03*
X28225000Y-48285000D03*
X25685000Y-48285000D03*
X28225000Y-45745000D03*
X25685000Y-45745000D03*
D10*
X215425000Y-50825000D03*
D11*
X212885000Y-50825000D03*
X215425000Y-48285000D03*
X212885000Y-48285000D03*
X215425000Y-45745000D03*
X212885000Y-45745000D03*
D12*
X63750114Y-27113687D03*
X63750114Y-29613687D03*
X63750114Y-32113687D03*
X63750114Y-34613687D03*
X63750114Y-37113687D03*
X157350114Y-27113687D03*
X157350114Y-29613687D03*
X157350114Y-32113687D03*
X157350114Y-34613687D03*
X157350114Y-37113687D03*
X94950114Y-27113687D03*
X94950114Y-29613687D03*
X94950114Y-32113687D03*
X94950114Y-34613687D03*
X94950114Y-37113687D03*
X204150114Y-27113687D03*
X204150114Y-29613687D03*
X204150114Y-32113687D03*
X204150114Y-34613687D03*
X204150114Y-37113687D03*
X172950114Y-27113687D03*
X172950114Y-29613687D03*
X172950114Y-32113687D03*
X172950114Y-34613687D03*
X172950114Y-37113687D03*
X141750114Y-27113687D03*
X141750114Y-29613687D03*
X141750114Y-32113687D03*
X141750114Y-34613687D03*
X141750114Y-37113687D03*
X32550114Y-27113687D03*
X32550114Y-29613687D03*
X32550114Y-32113687D03*
X32550114Y-34613687D03*
X32550114Y-37113687D03*
X48150114Y-27113687D03*
X48150114Y-29613687D03*
X48150114Y-32113687D03*
X48150114Y-34613687D03*
X48150114Y-37113687D03*
X126150114Y-27113687D03*
X126150114Y-29613687D03*
X126150114Y-32113687D03*
X126150114Y-34613687D03*
X126150114Y-37113687D03*
X188550114Y-27113687D03*
X188550114Y-29613687D03*
X188550114Y-32113687D03*
X188550114Y-34613687D03*
X188550114Y-37113687D03*
X79350114Y-27113687D03*
X79350114Y-29613687D03*
X79350114Y-32113687D03*
X79350114Y-34613687D03*
X79350114Y-37113687D03*
X219750114Y-27113687D03*
X219750114Y-29613687D03*
X219750114Y-32113687D03*
X219750114Y-34613687D03*
X219750114Y-37113687D03*
X110550114Y-27113687D03*
X110550114Y-29613687D03*
X110550114Y-32113687D03*
X110550114Y-34613687D03*
X110550114Y-37113687D03*
D13*
X112200000Y-47200000D03*
X192100000Y-47200000D03*
X40000000Y-47200000D03*
X194000000Y-47200000D03*
X195900000Y-47200000D03*
X92600000Y-34250000D03*
X123800000Y-34250000D03*
X98500000Y-47200000D03*
X186200000Y-35400000D03*
X34300000Y-42400000D03*
X112200000Y-42400000D03*
X36200000Y-42400000D03*
X182200000Y-42400000D03*
X40000000Y-42400000D03*
X149100000Y-47200000D03*
X71200000Y-42400000D03*
X201800000Y-34250000D03*
X166600000Y-42400000D03*
X119800000Y-47200000D03*
X61400000Y-35400000D03*
X207700000Y-42400000D03*
X139400000Y-35400000D03*
X114100000Y-47200000D03*
X108200000Y-34250000D03*
X178400000Y-42400000D03*
X201800000Y-35400000D03*
X155000000Y-34250000D03*
X190200000Y-47200000D03*
X197800000Y-42400000D03*
X41900000Y-42400000D03*
X41900000Y-47200000D03*
X86700000Y-42400000D03*
X182200000Y-47200000D03*
X49900000Y-42400000D03*
X49900000Y-47200000D03*
X160900000Y-47200000D03*
X38100000Y-47200000D03*
X151000000Y-42400000D03*
X30200000Y-36600000D03*
X160900000Y-42400000D03*
X174600000Y-47200000D03*
X96600000Y-47200000D03*
X131600000Y-42400000D03*
X170600000Y-36600000D03*
X155000000Y-35400000D03*
X61400000Y-36600000D03*
X166600000Y-47200000D03*
X30200000Y-34250000D03*
X34300000Y-47200000D03*
X219000000Y-52300000D03*
X104200000Y-42400000D03*
X207700000Y-47200000D03*
X176500000Y-42400000D03*
X209600000Y-47200000D03*
X30200000Y-35400000D03*
X218950000Y-49400000D03*
X192100000Y-42400000D03*
X155000000Y-36600000D03*
X143400000Y-47200000D03*
X197800000Y-47200000D03*
X71200000Y-47200000D03*
X119800000Y-42400000D03*
X73100000Y-42400000D03*
X145300000Y-47200000D03*
X135400000Y-42400000D03*
X67400000Y-47200000D03*
X77000000Y-36600000D03*
X139400000Y-36600000D03*
X38100000Y-42400000D03*
X82900000Y-47200000D03*
X67400000Y-42400000D03*
X123800000Y-35400000D03*
X176500000Y-47200000D03*
X81000000Y-47200000D03*
X102300000Y-42400000D03*
X135400000Y-47200000D03*
X170600000Y-35400000D03*
X190200000Y-42400000D03*
X174600000Y-42400000D03*
X116000000Y-42400000D03*
X147200000Y-47200000D03*
X217400000Y-34250000D03*
X108200000Y-35400000D03*
X217400000Y-35400000D03*
X86700000Y-47200000D03*
X201800000Y-36600000D03*
X162800000Y-42400000D03*
X123800000Y-36600000D03*
X116000000Y-47200000D03*
X164700000Y-47200000D03*
X114100000Y-42400000D03*
X69300000Y-47200000D03*
X147200000Y-42400000D03*
X131600000Y-47200000D03*
X205800000Y-42400000D03*
X149100000Y-42400000D03*
X100400000Y-42400000D03*
X61400000Y-34250000D03*
X108200000Y-36600000D03*
X98500000Y-42400000D03*
X104200000Y-47200000D03*
X84800000Y-47200000D03*
X96600000Y-42400000D03*
X209600000Y-42400000D03*
X127800000Y-42400000D03*
X170600000Y-34250000D03*
X162800000Y-47200000D03*
X159000000Y-47200000D03*
X102300000Y-47200000D03*
X205800000Y-47200000D03*
X180300000Y-47200000D03*
X117900000Y-42400000D03*
X186200000Y-36600000D03*
X194000000Y-42400000D03*
X73100000Y-47200000D03*
X31800000Y-52300000D03*
X127800000Y-47200000D03*
X92600000Y-36600000D03*
X77000000Y-35400000D03*
X143400000Y-42400000D03*
X36200000Y-47200000D03*
X88600000Y-42400000D03*
X22100000Y-49400000D03*
X45800000Y-34250000D03*
X178400000Y-47200000D03*
X69300000Y-42400000D03*
X129700000Y-42400000D03*
X159000000Y-42400000D03*
X117900000Y-47200000D03*
X129700000Y-47200000D03*
X100400000Y-47200000D03*
X133500000Y-47200000D03*
X186200000Y-34250000D03*
X45800000Y-36600000D03*
X81000000Y-42400000D03*
X180300000Y-42400000D03*
X22100000Y-52300000D03*
X88600000Y-47200000D03*
X209300000Y-52300000D03*
X195900000Y-42400000D03*
X151000000Y-47200000D03*
X92600000Y-35400000D03*
X217400000Y-36600000D03*
X164700000Y-42400000D03*
X77000000Y-34250000D03*
X82900000Y-42400000D03*
X84800000Y-42400000D03*
X145300000Y-42400000D03*
X45800000Y-35400000D03*
X139400000Y-34250000D03*
X133500000Y-42400000D03*
X186200000Y-27100000D03*
X61400000Y-27100000D03*
X45800000Y-27100000D03*
X77000000Y-27100000D03*
X92600000Y-27100000D03*
X217400000Y-27100000D03*
X170600000Y-27100000D03*
X30200000Y-27100000D03*
X123800000Y-27100000D03*
X201800000Y-27100000D03*
X155000000Y-27100000D03*
X108200000Y-27100000D03*
X139400000Y-27100000D03*
X142550000Y-39000000D03*
X156850000Y-39000000D03*
X93250000Y-39000000D03*
X125650000Y-39000000D03*
X186850000Y-39000000D03*
X30850000Y-39000000D03*
X48950000Y-39000000D03*
X219250000Y-39000000D03*
X141250000Y-39000000D03*
X189350000Y-39000000D03*
X126950000Y-39000000D03*
X158150000Y-39000000D03*
X124450000Y-39000000D03*
X204950000Y-39000000D03*
X188050000Y-39000000D03*
X62050000Y-39000000D03*
X64550000Y-39000000D03*
X77650000Y-39000000D03*
X46450000Y-39000000D03*
X108850000Y-39000000D03*
X47650000Y-39000000D03*
X78850000Y-39000000D03*
X33350000Y-39000000D03*
X32050000Y-39000000D03*
X94450000Y-39000000D03*
X111350000Y-39000000D03*
X171250000Y-39000000D03*
X110050000Y-39000000D03*
X202450000Y-39000000D03*
X203650000Y-39000000D03*
X95750000Y-39000000D03*
X172450000Y-39000000D03*
X155650000Y-39000000D03*
X80150000Y-39000000D03*
X220550000Y-39000000D03*
X218050000Y-39000000D03*
X173750000Y-39000000D03*
X63250000Y-39000000D03*
X140050000Y-39000000D03*
X59400000Y-44200000D03*
X217400000Y-29600000D03*
X201800000Y-29600000D03*
X184200000Y-44200000D03*
X43800000Y-44200000D03*
X168600000Y-44200000D03*
X61400000Y-29600000D03*
X211100000Y-44200000D03*
X108200000Y-29600000D03*
X153000000Y-44200000D03*
X30200000Y-29600000D03*
X199800000Y-44200000D03*
X45800000Y-29600000D03*
X139400000Y-29600000D03*
X90600000Y-44200000D03*
X123800000Y-29600000D03*
X155000000Y-29600000D03*
X106200000Y-44200000D03*
X137400000Y-44200000D03*
X170600000Y-29600000D03*
X121800000Y-44200000D03*
X75000000Y-44200000D03*
X92600000Y-29600000D03*
X186200000Y-29600000D03*
X77000000Y-29600000D03*
X153800000Y-45745000D03*
X45800000Y-32100000D03*
X108200000Y-32100000D03*
X138200000Y-45745000D03*
X30300000Y-45700000D03*
X60200000Y-45745000D03*
X186200000Y-32100000D03*
X77000000Y-32100000D03*
X91400000Y-45745000D03*
X200600000Y-45745000D03*
X75800000Y-45745000D03*
X61400000Y-32100000D03*
X217400000Y-32100000D03*
X92600000Y-32100000D03*
X30300000Y-42950000D03*
X107000000Y-45745000D03*
X155000000Y-32100000D03*
X170600000Y-32100000D03*
X122600000Y-45745000D03*
X185000000Y-45745000D03*
X139400000Y-32100000D03*
X169400000Y-45745000D03*
X30200000Y-32100000D03*
X123800000Y-32100000D03*
X44600000Y-45745000D03*
X201800000Y-32100000D03*
D14*
X92600000Y-27100000D02*
X92613687Y-27113687D01*
X77000000Y-27100000D02*
X77013687Y-27113687D01*
X186213687Y-27113687D02*
X188550114Y-27113687D01*
X155000000Y-27100000D02*
X155013687Y-27113687D01*
X170613687Y-27113687D02*
X172950114Y-27113687D01*
X61400000Y-27100000D02*
X61413687Y-27113687D01*
X61413687Y-27113687D02*
X63750114Y-27113687D01*
X92613687Y-27113687D02*
X94950114Y-27113687D01*
X123800000Y-27100000D02*
X123813687Y-27113687D01*
X217400000Y-27100000D02*
X217413687Y-27113687D01*
X139413687Y-27113687D02*
X141750114Y-27113687D01*
X186200000Y-27100000D02*
X186213687Y-27113687D01*
X30213687Y-27113687D02*
X32550114Y-27113687D01*
X108213687Y-27113687D02*
X110550114Y-27113687D01*
X201813687Y-27113687D02*
X204150114Y-27113687D01*
X123813687Y-27113687D02*
X126150114Y-27113687D01*
X139400000Y-27100000D02*
X139413687Y-27113687D01*
X108200000Y-27100000D02*
X108213687Y-27113687D01*
X45813687Y-27113687D02*
X48150114Y-27113687D01*
X45800000Y-27100000D02*
X45813687Y-27113687D01*
X201800000Y-27100000D02*
X201813687Y-27113687D01*
X77013687Y-27113687D02*
X79350114Y-27113687D01*
X155013687Y-27113687D02*
X157350114Y-27113687D01*
X217413687Y-27113687D02*
X219750114Y-27113687D01*
X30200000Y-27100000D02*
X30213687Y-27113687D01*
X170600000Y-27100000D02*
X170613687Y-27113687D01*
D15*
X141250000Y-39000000D02*
X140350000Y-39000000D01*
X218350000Y-47550000D02*
X217615000Y-48285000D01*
D16*
X25685000Y-48285000D02*
X28225000Y-48285000D01*
D15*
X218350000Y-39000000D02*
X218350000Y-47550000D01*
X110050000Y-39000000D02*
X109150000Y-39000000D01*
X217615000Y-48285000D02*
X215425000Y-48285000D01*
X63250000Y-39000000D02*
X62350000Y-39000000D01*
X78850000Y-39000000D02*
X77950000Y-39000000D01*
X125650000Y-39000000D02*
X124750000Y-39000000D01*
X94450000Y-39000000D02*
X93550000Y-39000000D01*
X188050000Y-39000000D02*
X187150000Y-39000000D01*
X219250000Y-39000000D02*
X218350000Y-39000000D01*
X172450000Y-39000000D02*
X171550000Y-39000000D01*
X203650000Y-39000000D02*
X202750000Y-39000000D01*
X47650000Y-39000000D02*
X46750000Y-39000000D01*
X156850000Y-39000000D02*
X155950000Y-39000000D01*
D16*
X212885000Y-48285000D02*
X215425000Y-48285000D01*
D17*
X77013687Y-29613687D02*
X79350114Y-29613687D01*
X108213687Y-29613687D02*
X110550114Y-29613687D01*
X92613687Y-29613687D02*
X94950114Y-29613687D01*
X108200000Y-29600000D02*
X108213687Y-29613687D01*
X155000000Y-29600000D02*
X155013687Y-29613687D01*
D18*
X29770000Y-44200000D02*
X28225000Y-45745000D01*
D17*
X186213687Y-29613687D02*
X188550114Y-29613687D01*
X139400000Y-29600000D02*
X139413687Y-29613687D01*
X123800000Y-29600000D02*
X123813687Y-29613687D01*
X170600000Y-29600000D02*
X170613687Y-29613687D01*
D18*
X59400000Y-44200000D02*
X29770000Y-44200000D01*
D17*
X61413687Y-29613687D02*
X63750114Y-29613687D01*
X217413687Y-29613687D02*
X219750114Y-29613687D01*
D18*
X211100000Y-44200000D02*
X213880000Y-44200000D01*
X199800000Y-44200000D02*
X59400000Y-44200000D01*
D17*
X170613687Y-29613687D02*
X172950114Y-29613687D01*
X201800000Y-29600000D02*
X201813687Y-29613687D01*
X215425000Y-45745000D02*
X215400000Y-45720000D01*
X139413687Y-29613687D02*
X141750114Y-29613687D01*
X30213687Y-29613687D02*
X32550114Y-29613687D01*
X77000000Y-29600000D02*
X77013687Y-29613687D01*
X92600000Y-29600000D02*
X92613687Y-29613687D01*
X45800000Y-29600000D02*
X45813687Y-29613687D01*
X123813687Y-29613687D02*
X126150114Y-29613687D01*
X30200000Y-29600000D02*
X30213687Y-29613687D01*
X186200000Y-29600000D02*
X186213687Y-29613687D01*
X201813687Y-29613687D02*
X204150114Y-29613687D01*
X45813687Y-29613687D02*
X48150114Y-29613687D01*
D18*
X199800000Y-44200000D02*
X211100000Y-44200000D01*
X213880000Y-44200000D02*
X215425000Y-45745000D01*
D17*
X155013687Y-29613687D02*
X157350114Y-29613687D01*
X217400000Y-29600000D02*
X217413687Y-29613687D01*
X61400000Y-29600000D02*
X61413687Y-29613687D01*
X186200000Y-32100000D02*
X186213687Y-32113687D01*
X92600000Y-32100000D02*
X92613687Y-32113687D01*
X170600000Y-32100000D02*
X170613687Y-32113687D01*
X77000000Y-32100000D02*
X77013687Y-32113687D01*
X139400000Y-32100000D02*
X139413687Y-32113687D01*
X123813687Y-32113687D02*
X126150114Y-32113687D01*
X123800000Y-32100000D02*
X123813687Y-32113687D01*
X186213687Y-32113687D02*
X188550114Y-32113687D01*
X201813687Y-32113687D02*
X204150114Y-32113687D01*
X30200000Y-32100000D02*
X30213687Y-32113687D01*
X45813687Y-32113687D02*
X48150114Y-32113687D01*
X108200000Y-32100000D02*
X108213687Y-32113687D01*
X201800000Y-32100000D02*
X201813687Y-32113687D01*
D18*
X26950000Y-42950000D02*
X25685000Y-44215000D01*
X30300000Y-42950000D02*
X26950000Y-42950000D01*
X30345000Y-45745000D02*
X30300000Y-45700000D01*
D17*
X92613687Y-32113687D02*
X94950114Y-32113687D01*
X61400000Y-32100000D02*
X61413687Y-32113687D01*
X139413687Y-32113687D02*
X141750114Y-32113687D01*
D18*
X200600000Y-45745000D02*
X210155000Y-45745000D01*
D17*
X45800000Y-32100000D02*
X45813687Y-32113687D01*
D18*
X60200000Y-45745000D02*
X31355000Y-45745000D01*
X200600000Y-45745000D02*
X60200000Y-45745000D01*
D17*
X77013687Y-32113687D02*
X79350114Y-32113687D01*
X170613687Y-32113687D02*
X172950114Y-32113687D01*
X30213687Y-32113687D02*
X32550114Y-32113687D01*
X61413687Y-32113687D02*
X63750114Y-32113687D01*
X217400000Y-32100000D02*
X217413687Y-32113687D01*
X155000000Y-32100000D02*
X155013687Y-32113687D01*
X155013687Y-32113687D02*
X157350114Y-32113687D01*
D18*
X25685000Y-44215000D02*
X25685000Y-45745000D01*
D17*
X217413687Y-32113687D02*
X219750114Y-32113687D01*
D18*
X31355000Y-45745000D02*
X30345000Y-45745000D01*
X210155000Y-45745000D02*
X212885000Y-45745000D01*
D17*
X108213687Y-32113687D02*
X110550114Y-32113687D01*
G04 #@! TA.AperFunction,Conductor*
G36*
X27765507Y-50615156D02*
G01*
X27725000Y-50753111D01*
X27725000Y-50896889D01*
X27765507Y-51034844D01*
X27791314Y-51075000D01*
X26118686Y-51075000D01*
X26144493Y-51034844D01*
X26185000Y-50896889D01*
X26185000Y-50753111D01*
X26144493Y-50615156D01*
X26118686Y-50575000D01*
X27791314Y-50575000D01*
X27765507Y-50615156D01*
G37*
G04 #@! TD.AperFunction*
G04 #@! TA.AperFunction,Conductor*
G36*
X34342653Y-25383872D02*
G01*
X34388408Y-25436676D01*
X34399614Y-25488187D01*
X34399614Y-26252044D01*
X34379929Y-26319083D01*
X34327125Y-26364838D01*
X34257967Y-26374782D01*
X34194411Y-26345757D01*
X34169497Y-26316194D01*
X34110760Y-26219031D01*
X33994767Y-26103038D01*
X33854383Y-26018174D01*
X33697772Y-25969372D01*
X33632517Y-25963442D01*
X33632511Y-25963441D01*
X33629708Y-25963187D01*
X31470520Y-25963187D01*
X31467717Y-25963441D01*
X31467710Y-25963442D01*
X31402455Y-25969372D01*
X31245844Y-26018174D01*
X31105460Y-26103038D01*
X30989465Y-26219033D01*
X30904601Y-26359417D01*
X30855799Y-26516028D01*
X30855798Y-26516030D01*
X30855799Y-26516030D01*
X30849614Y-26584093D01*
X30849614Y-26586894D01*
X30849613Y-26586917D01*
X30849613Y-26594882D01*
X30829922Y-26661919D01*
X30777114Y-26707669D01*
X30707955Y-26717606D01*
X30644402Y-26688575D01*
X30629140Y-26672376D01*
X30502840Y-26575463D01*
X30356762Y-26514956D01*
X30200000Y-26494317D01*
X30043237Y-26514956D01*
X29897159Y-26575463D01*
X29771717Y-26671717D01*
X29675463Y-26797159D01*
X29614956Y-26943237D01*
X29594317Y-27100000D01*
X29614956Y-27256762D01*
X29675463Y-27402840D01*
X29771717Y-27528282D01*
X29839397Y-27580214D01*
X29897159Y-27624536D01*
X30043238Y-27685044D01*
X30200000Y-27705682D01*
X30356762Y-27685044D01*
X30502841Y-27624536D01*
X30628282Y-27528282D01*
X30628281Y-27528282D01*
X30641234Y-27518344D01*
X30641764Y-27519035D01*
X30683665Y-27488440D01*
X30753411Y-27484285D01*
X30814332Y-27518497D01*
X30847085Y-27580214D01*
X30849614Y-27605128D01*
X30849614Y-27643281D01*
X30849868Y-27646084D01*
X30849869Y-27646090D01*
X30855799Y-27711345D01*
X30904601Y-27867956D01*
X30989465Y-28008340D01*
X31105460Y-28124335D01*
X31190324Y-28175636D01*
X31245844Y-28209199D01*
X31336500Y-28237449D01*
X31361701Y-28245302D01*
X31419848Y-28284040D01*
X31447822Y-28348065D01*
X31436740Y-28417050D01*
X31390121Y-28469093D01*
X31361701Y-28482072D01*
X31245843Y-28518175D01*
X31105460Y-28603038D01*
X30989465Y-28719033D01*
X30904601Y-28859417D01*
X30855799Y-29016028D01*
X30855798Y-29016030D01*
X30855799Y-29016030D01*
X30849614Y-29084093D01*
X30849614Y-29086912D01*
X30849614Y-29094870D01*
X30829929Y-29161909D01*
X30777125Y-29207664D01*
X30707967Y-29217608D01*
X30644411Y-29188583D01*
X30629141Y-29172377D01*
X30502840Y-29075463D01*
X30356762Y-29014956D01*
X30200000Y-28994317D01*
X30043237Y-29014956D01*
X29897159Y-29075463D01*
X29771717Y-29171717D01*
X29675463Y-29297159D01*
X29614956Y-29443237D01*
X29594317Y-29600000D01*
X29614956Y-29756762D01*
X29675463Y-29902840D01*
X29771717Y-30028282D01*
X29839397Y-30080214D01*
X29897159Y-30124536D01*
X30043238Y-30185044D01*
X30200000Y-30205682D01*
X30356762Y-30185044D01*
X30502841Y-30124536D01*
X30628282Y-30028282D01*
X30628281Y-30028282D01*
X30641234Y-30018344D01*
X30641764Y-30019035D01*
X30683665Y-29988440D01*
X30753411Y-29984285D01*
X30814332Y-30018497D01*
X30847085Y-30080214D01*
X30849614Y-30105129D01*
X30849614Y-30143281D01*
X30849868Y-30146084D01*
X30849869Y-30146090D01*
X30855799Y-30211345D01*
X30904601Y-30367956D01*
X30989465Y-30508340D01*
X31105460Y-30624335D01*
X31190324Y-30675636D01*
X31245844Y-30709199D01*
X31336500Y-30737449D01*
X31361701Y-30745302D01*
X31419848Y-30784040D01*
X31447822Y-30848065D01*
X31436740Y-30917050D01*
X31390121Y-30969093D01*
X31361701Y-30982072D01*
X31245843Y-31018175D01*
X31105460Y-31103038D01*
X30989465Y-31219033D01*
X30904601Y-31359417D01*
X30855799Y-31516028D01*
X30855798Y-31516030D01*
X30855799Y-31516030D01*
X30849614Y-31584093D01*
X30849614Y-31586912D01*
X30849614Y-31594870D01*
X30829929Y-31661909D01*
X30777125Y-31707664D01*
X30707967Y-31717608D01*
X30644411Y-31688583D01*
X30629141Y-31672377D01*
X30502840Y-31575463D01*
X30356762Y-31514956D01*
X30200000Y-31494317D01*
X30043237Y-31514956D01*
X29897159Y-31575463D01*
X29771717Y-31671717D01*
X29675463Y-31797159D01*
X29614956Y-31943237D01*
X29594317Y-32100000D01*
X29614956Y-32256762D01*
X29675463Y-32402840D01*
X29771717Y-32528282D01*
X29839397Y-32580214D01*
X29897159Y-32624536D01*
X30043238Y-32685044D01*
X30200000Y-32705682D01*
X30356762Y-32685044D01*
X30502841Y-32624536D01*
X30628282Y-32528282D01*
X30628281Y-32528282D01*
X30641234Y-32518344D01*
X30641764Y-32519035D01*
X30683665Y-32488440D01*
X30753411Y-32484285D01*
X30814332Y-32518497D01*
X30847085Y-32580214D01*
X30849614Y-32605129D01*
X30849614Y-32643281D01*
X30849868Y-32646084D01*
X30849869Y-32646090D01*
X30855799Y-32711345D01*
X30904601Y-32867956D01*
X30989465Y-33008340D01*
X31073784Y-33092659D01*
X31107269Y-33153982D01*
X31102285Y-33223674D01*
X31060413Y-33279607D01*
X31043517Y-33290248D01*
X30985811Y-33320391D01*
X30832130Y-33445703D01*
X30747086Y-33550000D01*
X29500000Y-33550000D01*
X29500000Y-36950000D01*
X30600000Y-36950000D01*
X30826100Y-35774275D01*
X30832133Y-35781673D01*
X30904093Y-35840350D01*
X30943610Y-35897971D01*
X30945701Y-35967809D01*
X30924804Y-36003838D01*
X30926176Y-36004606D01*
X30872826Y-36099982D01*
X30852823Y-36168103D01*
X30844499Y-36226000D01*
X30844499Y-37826194D01*
X30824814Y-37893234D01*
X30813819Y-37907848D01*
X30643802Y-38102154D01*
X30584842Y-38139644D01*
X30550482Y-38144500D01*
X30226000Y-38144500D01*
X30222720Y-38144852D01*
X30222712Y-38144853D01*
X30185611Y-38148842D01*
X30185609Y-38148842D01*
X30182319Y-38149196D01*
X30179084Y-38149899D01*
X30179076Y-38149901D01*
X30129977Y-38160582D01*
X30128412Y-38160953D01*
X30119823Y-38163056D01*
X30039082Y-38206079D01*
X29986863Y-38251326D01*
X29986816Y-38251368D01*
X29985428Y-38252572D01*
X29984104Y-38253868D01*
X29984088Y-38253884D01*
X29967472Y-38270166D01*
X29922826Y-38349982D01*
X29902823Y-38418103D01*
X29894500Y-38476000D01*
X29894500Y-39524000D01*
X29899196Y-39567681D01*
X29899900Y-39570918D01*
X29899901Y-39570923D01*
X29910582Y-39620023D01*
X29910953Y-39621588D01*
X29913056Y-39630176D01*
X29956079Y-39710917D01*
X30001326Y-39763136D01*
X30001354Y-39763166D01*
X30002572Y-39764572D01*
X30020165Y-39782527D01*
X30099983Y-39827174D01*
X30140419Y-39839047D01*
X30168103Y-39847176D01*
X30226000Y-39855500D01*
X33920690Y-39855500D01*
X33924000Y-39855500D01*
X33967681Y-39850804D01*
X34020023Y-39839418D01*
X34021588Y-39839047D01*
X34030176Y-39836943D01*
X34030198Y-39836931D01*
X34030203Y-39836930D01*
X34110916Y-39793921D01*
X34119241Y-39786707D01*
X34163136Y-39748673D01*
X34163148Y-39748661D01*
X34164572Y-39747428D01*
X34182527Y-39729835D01*
X34182528Y-39729832D01*
X34188828Y-39723660D01*
X34250488Y-39690800D01*
X34320126Y-39696493D01*
X34375631Y-39738930D01*
X34399382Y-39804639D01*
X34399614Y-39812228D01*
X34399614Y-40563113D01*
X34397230Y-40587306D01*
X34394706Y-40600000D01*
X34394706Y-40600002D01*
X34397231Y-40612691D01*
X34397231Y-40612695D01*
X34414147Y-40697738D01*
X34414147Y-40697739D01*
X34414148Y-40697740D01*
X34469513Y-40780601D01*
X34552374Y-40835966D01*
X34650114Y-40855408D01*
X34662808Y-40852882D01*
X34686999Y-40850500D01*
X36813113Y-40850500D01*
X36837304Y-40852882D01*
X36849998Y-40855408D01*
X36859751Y-40853468D01*
X36862699Y-40852882D01*
X36862705Y-40852881D01*
X36871611Y-40851109D01*
X36874673Y-40850500D01*
X36874674Y-40850500D01*
X36885083Y-40848428D01*
X36891935Y-40847066D01*
X36935767Y-40838348D01*
X36941864Y-40837747D01*
X36941896Y-40837738D01*
X36947852Y-40836246D01*
X36953115Y-40833092D01*
X36953152Y-40833072D01*
X36957885Y-40829186D01*
X37030601Y-40780601D01*
X37085966Y-40697740D01*
X37105408Y-40600000D01*
X37102883Y-40587306D01*
X37100500Y-40563112D01*
X37100506Y-39827174D01*
X37100611Y-25488185D01*
X37120296Y-25421147D01*
X37173100Y-25375392D01*
X37224611Y-25364187D01*
X45225440Y-25364187D01*
X49875614Y-25364187D01*
X49942653Y-25383872D01*
X49988408Y-25436676D01*
X49999614Y-25488187D01*
X49999614Y-26252044D01*
X49979929Y-26319083D01*
X49927125Y-26364838D01*
X49857967Y-26374782D01*
X49794411Y-26345757D01*
X49769497Y-26316194D01*
X49710760Y-26219031D01*
X49594767Y-26103038D01*
X49454383Y-26018174D01*
X49297772Y-25969372D01*
X49232517Y-25963442D01*
X49232511Y-25963441D01*
X49229708Y-25963187D01*
X47070520Y-25963187D01*
X47067717Y-25963441D01*
X47067710Y-25963442D01*
X47002455Y-25969372D01*
X46845844Y-26018174D01*
X46705460Y-26103038D01*
X46589465Y-26219033D01*
X46504601Y-26359417D01*
X46455799Y-26516028D01*
X46455798Y-26516030D01*
X46455799Y-26516030D01*
X46449614Y-26584093D01*
X46449614Y-26586912D01*
X46449614Y-26594870D01*
X46429929Y-26661909D01*
X46377125Y-26707664D01*
X46307967Y-26717608D01*
X46244411Y-26688583D01*
X46229141Y-26672377D01*
X46102840Y-26575463D01*
X45956762Y-26514956D01*
X45800000Y-26494317D01*
X45643237Y-26514956D01*
X45497159Y-26575463D01*
X45371717Y-26671717D01*
X45275463Y-26797159D01*
X45214956Y-26943237D01*
X45194317Y-27100000D01*
X45214956Y-27256762D01*
X45275463Y-27402840D01*
X45371717Y-27528282D01*
X45439397Y-27580214D01*
X45497159Y-27624536D01*
X45643238Y-27685044D01*
X45800000Y-27705682D01*
X45956762Y-27685044D01*
X46102841Y-27624536D01*
X46228282Y-27528282D01*
X46228281Y-27528282D01*
X46241234Y-27518344D01*
X46241764Y-27519035D01*
X46283665Y-27488440D01*
X46353411Y-27484285D01*
X46414332Y-27518497D01*
X46447085Y-27580214D01*
X46449614Y-27605128D01*
X46449614Y-27643281D01*
X46449868Y-27646084D01*
X46449869Y-27646090D01*
X46455799Y-27711345D01*
X46504601Y-27867956D01*
X46589465Y-28008340D01*
X46705460Y-28124335D01*
X46790324Y-28175636D01*
X46845844Y-28209199D01*
X46936500Y-28237449D01*
X46961701Y-28245302D01*
X47019848Y-28284040D01*
X47047822Y-28348065D01*
X47036740Y-28417050D01*
X46990121Y-28469093D01*
X46961701Y-28482072D01*
X46845843Y-28518175D01*
X46705460Y-28603038D01*
X46589465Y-28719033D01*
X46504601Y-28859417D01*
X46455799Y-29016028D01*
X46455798Y-29016030D01*
X46455799Y-29016030D01*
X46449614Y-29084093D01*
X46449614Y-29086912D01*
X46449614Y-29094870D01*
X46429929Y-29161909D01*
X46377125Y-29207664D01*
X46307967Y-29217608D01*
X46244411Y-29188583D01*
X46229141Y-29172377D01*
X46102840Y-29075463D01*
X45956762Y-29014956D01*
X45800000Y-28994317D01*
X45643237Y-29014956D01*
X45497159Y-29075463D01*
X45371717Y-29171717D01*
X45275463Y-29297159D01*
X45214956Y-29443237D01*
X45194317Y-29600000D01*
X45214956Y-29756762D01*
X45275463Y-29902840D01*
X45371717Y-30028282D01*
X45439397Y-30080214D01*
X45497159Y-30124536D01*
X45643238Y-30185044D01*
X45800000Y-30205682D01*
X45956762Y-30185044D01*
X46102841Y-30124536D01*
X46228282Y-30028282D01*
X46228281Y-30028282D01*
X46241234Y-30018344D01*
X46241764Y-30019035D01*
X46283665Y-29988440D01*
X46353411Y-29984285D01*
X46414332Y-30018497D01*
X46447085Y-30080214D01*
X46449614Y-30105129D01*
X46449614Y-30143281D01*
X46449868Y-30146084D01*
X46449869Y-30146090D01*
X46455799Y-30211345D01*
X46504601Y-30367956D01*
X46589465Y-30508340D01*
X46705460Y-30624335D01*
X46790323Y-30675636D01*
X46845844Y-30709199D01*
X46936500Y-30737449D01*
X46961701Y-30745302D01*
X47019848Y-30784040D01*
X47047822Y-30848065D01*
X47036740Y-30917050D01*
X46990121Y-30969093D01*
X46961701Y-30982072D01*
X46845843Y-31018175D01*
X46705460Y-31103038D01*
X46589465Y-31219033D01*
X46504601Y-31359417D01*
X46455799Y-31516028D01*
X46455798Y-31516030D01*
X46455799Y-31516030D01*
X46449614Y-31584093D01*
X46449614Y-31586912D01*
X46449614Y-31594870D01*
X46429929Y-31661909D01*
X46377125Y-31707664D01*
X46307967Y-31717608D01*
X46244411Y-31688583D01*
X46229141Y-31672377D01*
X46102840Y-31575463D01*
X45956762Y-31514956D01*
X45800000Y-31494317D01*
X45643237Y-31514956D01*
X45497159Y-31575463D01*
X45371717Y-31671717D01*
X45275463Y-31797159D01*
X45214956Y-31943237D01*
X45194317Y-32100000D01*
X45214956Y-32256762D01*
X45275463Y-32402840D01*
X45371717Y-32528282D01*
X45439397Y-32580214D01*
X45497159Y-32624536D01*
X45643238Y-32685044D01*
X45800000Y-32705682D01*
X45956762Y-32685044D01*
X46102841Y-32624536D01*
X46228282Y-32528282D01*
X46228281Y-32528282D01*
X46241234Y-32518344D01*
X46241764Y-32519035D01*
X46283665Y-32488440D01*
X46353411Y-32484285D01*
X46414332Y-32518497D01*
X46447085Y-32580214D01*
X46449614Y-32605129D01*
X46449614Y-32643281D01*
X46449868Y-32646084D01*
X46449869Y-32646090D01*
X46455799Y-32711345D01*
X46504601Y-32867956D01*
X46589465Y-33008340D01*
X46673784Y-33092659D01*
X46707269Y-33153982D01*
X46702285Y-33223674D01*
X46660413Y-33279607D01*
X46643517Y-33290248D01*
X46585811Y-33320391D01*
X46432130Y-33445703D01*
X46347086Y-33550000D01*
X45100000Y-33550000D01*
X45100000Y-36950000D01*
X46200000Y-36950000D01*
X46426100Y-35774275D01*
X46432133Y-35781673D01*
X46504093Y-35840350D01*
X46543610Y-35897971D01*
X46545701Y-35967809D01*
X46524804Y-36003838D01*
X46526176Y-36004606D01*
X46472826Y-36099982D01*
X46452823Y-36168103D01*
X46444500Y-36226000D01*
X46444500Y-37826193D01*
X46424815Y-37893232D01*
X46413820Y-37907847D01*
X46243803Y-38102154D01*
X46184843Y-38139644D01*
X46150483Y-38144500D01*
X45826000Y-38144500D01*
X45822720Y-38144852D01*
X45822712Y-38144853D01*
X45785611Y-38148842D01*
X45785609Y-38148842D01*
X45782319Y-38149196D01*
X45779084Y-38149899D01*
X45779076Y-38149901D01*
X45729977Y-38160582D01*
X45728412Y-38160953D01*
X45719823Y-38163056D01*
X45639082Y-38206079D01*
X45586863Y-38251326D01*
X45586816Y-38251368D01*
X45585428Y-38252572D01*
X45584104Y-38253868D01*
X45584088Y-38253884D01*
X45567472Y-38270166D01*
X45522826Y-38349982D01*
X45502823Y-38418103D01*
X45494500Y-38476000D01*
X45494500Y-39524000D01*
X45499196Y-39567681D01*
X45499900Y-39570918D01*
X45499901Y-39570923D01*
X45510582Y-39620023D01*
X45510953Y-39621588D01*
X45513056Y-39630176D01*
X45556079Y-39710917D01*
X45601326Y-39763136D01*
X45601354Y-39763166D01*
X45602572Y-39764572D01*
X45620165Y-39782527D01*
X45699983Y-39827174D01*
X45740419Y-39839047D01*
X45768103Y-39847176D01*
X45826000Y-39855500D01*
X49520690Y-39855500D01*
X49524000Y-39855500D01*
X49567681Y-39850804D01*
X49620023Y-39839418D01*
X49621588Y-39839047D01*
X49630176Y-39836943D01*
X49630198Y-39836931D01*
X49630203Y-39836930D01*
X49710916Y-39793921D01*
X49719241Y-39786707D01*
X49763136Y-39748673D01*
X49763148Y-39748661D01*
X49764572Y-39747428D01*
X49782527Y-39729835D01*
X49782528Y-39729832D01*
X49788828Y-39723660D01*
X49850488Y-39690800D01*
X49920126Y-39696493D01*
X49975631Y-39738930D01*
X49999382Y-39804639D01*
X49999614Y-39812228D01*
X49999614Y-40563113D01*
X49997230Y-40587306D01*
X49994706Y-40600000D01*
X49994706Y-40600002D01*
X49997231Y-40612691D01*
X49997231Y-40612695D01*
X50014147Y-40697738D01*
X50014147Y-40697739D01*
X50014148Y-40697740D01*
X50069513Y-40780601D01*
X50152374Y-40835966D01*
X50250114Y-40855408D01*
X50262808Y-40852882D01*
X50286999Y-40850500D01*
X52413113Y-40850500D01*
X52437304Y-40852882D01*
X52449998Y-40855408D01*
X52459751Y-40853468D01*
X52462699Y-40852882D01*
X52462705Y-40852881D01*
X52471611Y-40851109D01*
X52474673Y-40850500D01*
X52474674Y-40850500D01*
X52485083Y-40848428D01*
X52491935Y-40847066D01*
X52535767Y-40838348D01*
X52541864Y-40837747D01*
X52541896Y-40837738D01*
X52547852Y-40836246D01*
X52553115Y-40833092D01*
X52553152Y-40833072D01*
X52557885Y-40829186D01*
X52630601Y-40780601D01*
X52685966Y-40697740D01*
X52705408Y-40600000D01*
X52702883Y-40587306D01*
X52700500Y-40563112D01*
X52700506Y-39827174D01*
X52700611Y-25488185D01*
X52720296Y-25421147D01*
X52773100Y-25375392D01*
X52824611Y-25364187D01*
X60825440Y-25364187D01*
X65475614Y-25364187D01*
X65542653Y-25383872D01*
X65588408Y-25436676D01*
X65599614Y-25488187D01*
X65599614Y-26252044D01*
X65579929Y-26319083D01*
X65527125Y-26364838D01*
X65457967Y-26374782D01*
X65394411Y-26345757D01*
X65369497Y-26316194D01*
X65310760Y-26219031D01*
X65194767Y-26103038D01*
X65054383Y-26018174D01*
X64897772Y-25969372D01*
X64832517Y-25963442D01*
X64832511Y-25963441D01*
X64829708Y-25963187D01*
X62670520Y-25963187D01*
X62667717Y-25963441D01*
X62667710Y-25963442D01*
X62602455Y-25969372D01*
X62445844Y-26018174D01*
X62305460Y-26103038D01*
X62189465Y-26219033D01*
X62104601Y-26359417D01*
X62055799Y-26516028D01*
X62055798Y-26516030D01*
X62055799Y-26516030D01*
X62049614Y-26584093D01*
X62049614Y-26586912D01*
X62049614Y-26594870D01*
X62029929Y-26661909D01*
X61977125Y-26707664D01*
X61907967Y-26717608D01*
X61844411Y-26688583D01*
X61829141Y-26672377D01*
X61702840Y-26575463D01*
X61556762Y-26514956D01*
X61400000Y-26494317D01*
X61243237Y-26514956D01*
X61097159Y-26575463D01*
X60971717Y-26671717D01*
X60875463Y-26797159D01*
X60814956Y-26943237D01*
X60794317Y-27100000D01*
X60814956Y-27256762D01*
X60875463Y-27402840D01*
X60971717Y-27528282D01*
X61039397Y-27580214D01*
X61097159Y-27624536D01*
X61243238Y-27685044D01*
X61400000Y-27705682D01*
X61556762Y-27685044D01*
X61702841Y-27624536D01*
X61828282Y-27528282D01*
X61828281Y-27528282D01*
X61841234Y-27518344D01*
X61841764Y-27519035D01*
X61883665Y-27488440D01*
X61953411Y-27484285D01*
X62014332Y-27518497D01*
X62047085Y-27580214D01*
X62049614Y-27605129D01*
X62049614Y-27643281D01*
X62049868Y-27646084D01*
X62049869Y-27646090D01*
X62055799Y-27711345D01*
X62104601Y-27867956D01*
X62189465Y-28008340D01*
X62305460Y-28124335D01*
X62390324Y-28175636D01*
X62445844Y-28209199D01*
X62536500Y-28237449D01*
X62561701Y-28245302D01*
X62619848Y-28284040D01*
X62647822Y-28348065D01*
X62636740Y-28417050D01*
X62590121Y-28469093D01*
X62561701Y-28482072D01*
X62445843Y-28518175D01*
X62305460Y-28603038D01*
X62189465Y-28719033D01*
X62104601Y-28859417D01*
X62055799Y-29016028D01*
X62055798Y-29016030D01*
X62055799Y-29016030D01*
X62049614Y-29084093D01*
X62049614Y-29086912D01*
X62049614Y-29094870D01*
X62029929Y-29161909D01*
X61977125Y-29207664D01*
X61907967Y-29217608D01*
X61844411Y-29188583D01*
X61829141Y-29172377D01*
X61702840Y-29075463D01*
X61556762Y-29014956D01*
X61400000Y-28994317D01*
X61243237Y-29014956D01*
X61097159Y-29075463D01*
X60971717Y-29171717D01*
X60875463Y-29297159D01*
X60814956Y-29443237D01*
X60794317Y-29600000D01*
X60814956Y-29756762D01*
X60875463Y-29902840D01*
X60971717Y-30028282D01*
X61039397Y-30080214D01*
X61097159Y-30124536D01*
X61243238Y-30185044D01*
X61400000Y-30205682D01*
X61556762Y-30185044D01*
X61702841Y-30124536D01*
X61828282Y-30028282D01*
X61828281Y-30028282D01*
X61841234Y-30018344D01*
X61841764Y-30019035D01*
X61883665Y-29988440D01*
X61953411Y-29984285D01*
X62014332Y-30018497D01*
X62047085Y-30080214D01*
X62049614Y-30105128D01*
X62049614Y-30143281D01*
X62049868Y-30146084D01*
X62049869Y-30146090D01*
X62055799Y-30211345D01*
X62104601Y-30367956D01*
X62189465Y-30508340D01*
X62305460Y-30624335D01*
X62390324Y-30675636D01*
X62445844Y-30709199D01*
X62536500Y-30737449D01*
X62561701Y-30745302D01*
X62619848Y-30784040D01*
X62647822Y-30848065D01*
X62636740Y-30917050D01*
X62590121Y-30969093D01*
X62561701Y-30982072D01*
X62445843Y-31018175D01*
X62305460Y-31103038D01*
X62189465Y-31219033D01*
X62104601Y-31359417D01*
X62055799Y-31516028D01*
X62055798Y-31516030D01*
X62055799Y-31516030D01*
X62049614Y-31584093D01*
X62049614Y-31586912D01*
X62049614Y-31594870D01*
X62029929Y-31661909D01*
X61977125Y-31707664D01*
X61907967Y-31717608D01*
X61844411Y-31688583D01*
X61829141Y-31672377D01*
X61702840Y-31575463D01*
X61556762Y-31514956D01*
X61400000Y-31494317D01*
X61243237Y-31514956D01*
X61097159Y-31575463D01*
X60971717Y-31671717D01*
X60875463Y-31797159D01*
X60814956Y-31943237D01*
X60794317Y-32100000D01*
X60814956Y-32256762D01*
X60875463Y-32402840D01*
X60971717Y-32528282D01*
X61039397Y-32580214D01*
X61097159Y-32624536D01*
X61243238Y-32685044D01*
X61400000Y-32705682D01*
X61556762Y-32685044D01*
X61702841Y-32624536D01*
X61828282Y-32528282D01*
X61828281Y-32528282D01*
X61841234Y-32518344D01*
X61841764Y-32519035D01*
X61883665Y-32488440D01*
X61953411Y-32484285D01*
X62014332Y-32518497D01*
X62047085Y-32580214D01*
X62049614Y-32605128D01*
X62049614Y-32643281D01*
X62049868Y-32646084D01*
X62049869Y-32646090D01*
X62055799Y-32711345D01*
X62104601Y-32867956D01*
X62189465Y-33008340D01*
X62273784Y-33092659D01*
X62307269Y-33153982D01*
X62302285Y-33223674D01*
X62260413Y-33279607D01*
X62243517Y-33290248D01*
X62185811Y-33320391D01*
X62032130Y-33445703D01*
X61947086Y-33550000D01*
X60700000Y-33550000D01*
X60700000Y-36950000D01*
X61800000Y-36950000D01*
X62026100Y-35774275D01*
X62032133Y-35781673D01*
X62104093Y-35840350D01*
X62143610Y-35897971D01*
X62145701Y-35967809D01*
X62124804Y-36003838D01*
X62126176Y-36004606D01*
X62072826Y-36099982D01*
X62052823Y-36168103D01*
X62044500Y-36226000D01*
X62044500Y-37826193D01*
X62024815Y-37893232D01*
X62013820Y-37907847D01*
X61843803Y-38102154D01*
X61784843Y-38139644D01*
X61750483Y-38144500D01*
X61426000Y-38144500D01*
X61422720Y-38144852D01*
X61422712Y-38144853D01*
X61385611Y-38148842D01*
X61385609Y-38148842D01*
X61382319Y-38149196D01*
X61379084Y-38149899D01*
X61379076Y-38149901D01*
X61329977Y-38160582D01*
X61328412Y-38160953D01*
X61319823Y-38163056D01*
X61239082Y-38206079D01*
X61186863Y-38251326D01*
X61186816Y-38251368D01*
X61185428Y-38252572D01*
X61184104Y-38253868D01*
X61184088Y-38253884D01*
X61167472Y-38270166D01*
X61122826Y-38349982D01*
X61102823Y-38418103D01*
X61094500Y-38476000D01*
X61094500Y-39524000D01*
X61099196Y-39567681D01*
X61099900Y-39570918D01*
X61099901Y-39570923D01*
X61110582Y-39620023D01*
X61110953Y-39621588D01*
X61113056Y-39630176D01*
X61156079Y-39710917D01*
X61201326Y-39763136D01*
X61201354Y-39763166D01*
X61202572Y-39764572D01*
X61220165Y-39782527D01*
X61299983Y-39827174D01*
X61340419Y-39839047D01*
X61368103Y-39847176D01*
X61426000Y-39855500D01*
X65120690Y-39855500D01*
X65124000Y-39855500D01*
X65167681Y-39850804D01*
X65220023Y-39839418D01*
X65221588Y-39839047D01*
X65230176Y-39836943D01*
X65230198Y-39836931D01*
X65230203Y-39836930D01*
X65310916Y-39793921D01*
X65319241Y-39786707D01*
X65363136Y-39748673D01*
X65363148Y-39748661D01*
X65364572Y-39747428D01*
X65382527Y-39729835D01*
X65382529Y-39729831D01*
X65388825Y-39723662D01*
X65450485Y-39690801D01*
X65520122Y-39696492D01*
X65575628Y-39738928D01*
X65599380Y-39804637D01*
X65599613Y-39812228D01*
X65599613Y-40563113D01*
X65597231Y-40587303D01*
X65594705Y-40599998D01*
X65597231Y-40612691D01*
X65597231Y-40612695D01*
X65614147Y-40697738D01*
X65614147Y-40697739D01*
X65614148Y-40697740D01*
X65669513Y-40780601D01*
X65752374Y-40835966D01*
X65850114Y-40855408D01*
X65862808Y-40852882D01*
X65886999Y-40850500D01*
X68013113Y-40850500D01*
X68037304Y-40852882D01*
X68049998Y-40855408D01*
X68059751Y-40853468D01*
X68062699Y-40852882D01*
X68062705Y-40852881D01*
X68071611Y-40851109D01*
X68074673Y-40850500D01*
X68074674Y-40850500D01*
X68085083Y-40848428D01*
X68091935Y-40847066D01*
X68135767Y-40838348D01*
X68141864Y-40837747D01*
X68141896Y-40837738D01*
X68147852Y-40836246D01*
X68153115Y-40833092D01*
X68153152Y-40833072D01*
X68157885Y-40829186D01*
X68230601Y-40780601D01*
X68285966Y-40697740D01*
X68305408Y-40600000D01*
X68302883Y-40587306D01*
X68300500Y-40563112D01*
X68300506Y-39827174D01*
X68300526Y-37067764D01*
X70145787Y-37067764D01*
X70175413Y-37337016D01*
X70243928Y-37599087D01*
X70349871Y-37848392D01*
X70490982Y-38079611D01*
X70636013Y-38253884D01*
X70664255Y-38287820D01*
X70865998Y-38468582D01*
X71091910Y-38618044D01*
X71198211Y-38667876D01*
X71337177Y-38733021D01*
X71596562Y-38811058D01*
X71596569Y-38811060D01*
X71864561Y-38850500D01*
X71864564Y-38850500D01*
X72065369Y-38850500D01*
X72067631Y-38850500D01*
X72270156Y-38835677D01*
X72534553Y-38776780D01*
X72787558Y-38680014D01*
X73023777Y-38547441D01*
X73238177Y-38381888D01*
X73426186Y-38186881D01*
X73583799Y-37966579D01*
X73707656Y-37725675D01*
X73795118Y-37469305D01*
X73844319Y-37202933D01*
X73854212Y-36932235D01*
X73824586Y-36662982D01*
X73756072Y-36400912D01*
X73650130Y-36151610D01*
X73560415Y-36004607D01*
X73509017Y-35920388D01*
X73335746Y-35712181D01*
X73230759Y-35618112D01*
X73134002Y-35531418D01*
X72908090Y-35381956D01*
X72908086Y-35381954D01*
X72662822Y-35266978D01*
X72403437Y-35188941D01*
X72403431Y-35188940D01*
X72135439Y-35149500D01*
X71932369Y-35149500D01*
X71930120Y-35149664D01*
X71930109Y-35149665D01*
X71729843Y-35164322D01*
X71465449Y-35223219D01*
X71212441Y-35319986D01*
X70976223Y-35452559D01*
X70761825Y-35618109D01*
X70573813Y-35813120D01*
X70416201Y-36033420D01*
X70292342Y-36274329D01*
X70204881Y-36530695D01*
X70155680Y-36797066D01*
X70145787Y-37067764D01*
X68300526Y-37067764D01*
X68300611Y-25488185D01*
X68320296Y-25421147D01*
X68373100Y-25375392D01*
X68424611Y-25364187D01*
X76425440Y-25364187D01*
X81075614Y-25364187D01*
X81142653Y-25383872D01*
X81188408Y-25436676D01*
X81199614Y-25488187D01*
X81199614Y-26252044D01*
X81179929Y-26319083D01*
X81127125Y-26364838D01*
X81057967Y-26374782D01*
X80994411Y-26345757D01*
X80969497Y-26316194D01*
X80910760Y-26219031D01*
X80794767Y-26103038D01*
X80654383Y-26018174D01*
X80497772Y-25969372D01*
X80432517Y-25963442D01*
X80432511Y-25963441D01*
X80429708Y-25963187D01*
X78270520Y-25963187D01*
X78267717Y-25963441D01*
X78267710Y-25963442D01*
X78202455Y-25969372D01*
X78045844Y-26018174D01*
X77905460Y-26103038D01*
X77789465Y-26219033D01*
X77704601Y-26359417D01*
X77655799Y-26516028D01*
X77655798Y-26516030D01*
X77655799Y-26516030D01*
X77649614Y-26584093D01*
X77649614Y-26586912D01*
X77649614Y-26594870D01*
X77629929Y-26661909D01*
X77577125Y-26707664D01*
X77507967Y-26717608D01*
X77444411Y-26688583D01*
X77429141Y-26672377D01*
X77302840Y-26575463D01*
X77156762Y-26514956D01*
X77000000Y-26494317D01*
X76843237Y-26514956D01*
X76697159Y-26575463D01*
X76571717Y-26671717D01*
X76475463Y-26797159D01*
X76414956Y-26943237D01*
X76394317Y-27100000D01*
X76414956Y-27256762D01*
X76475463Y-27402840D01*
X76571717Y-27528282D01*
X76639397Y-27580214D01*
X76697159Y-27624536D01*
X76843238Y-27685044D01*
X77000000Y-27705682D01*
X77156762Y-27685044D01*
X77302841Y-27624536D01*
X77428282Y-27528282D01*
X77428281Y-27528282D01*
X77441234Y-27518344D01*
X77441764Y-27519035D01*
X77483665Y-27488440D01*
X77553411Y-27484285D01*
X77614332Y-27518497D01*
X77647085Y-27580214D01*
X77649613Y-27605129D01*
X77649614Y-27643281D01*
X77649868Y-27646084D01*
X77649869Y-27646090D01*
X77655799Y-27711345D01*
X77704601Y-27867956D01*
X77789465Y-28008340D01*
X77905460Y-28124335D01*
X77990323Y-28175636D01*
X78045844Y-28209199D01*
X78136500Y-28237449D01*
X78161701Y-28245302D01*
X78219848Y-28284040D01*
X78247822Y-28348065D01*
X78236740Y-28417050D01*
X78190121Y-28469093D01*
X78161701Y-28482072D01*
X78045843Y-28518175D01*
X77905460Y-28603038D01*
X77789465Y-28719033D01*
X77704601Y-28859417D01*
X77655799Y-29016028D01*
X77655798Y-29016030D01*
X77655799Y-29016030D01*
X77649614Y-29084093D01*
X77649614Y-29086912D01*
X77649614Y-29094870D01*
X77629929Y-29161909D01*
X77577125Y-29207664D01*
X77507967Y-29217608D01*
X77444411Y-29188583D01*
X77429141Y-29172377D01*
X77302840Y-29075463D01*
X77156762Y-29014956D01*
X77000000Y-28994317D01*
X76843237Y-29014956D01*
X76697159Y-29075463D01*
X76571717Y-29171717D01*
X76475463Y-29297159D01*
X76414956Y-29443237D01*
X76394317Y-29600000D01*
X76414956Y-29756762D01*
X76475463Y-29902840D01*
X76571717Y-30028282D01*
X76639397Y-30080214D01*
X76697159Y-30124536D01*
X76843238Y-30185044D01*
X77000000Y-30205682D01*
X77156762Y-30185044D01*
X77302841Y-30124536D01*
X77428282Y-30028282D01*
X77428281Y-30028282D01*
X77441234Y-30018344D01*
X77441764Y-30019035D01*
X77483665Y-29988440D01*
X77553411Y-29984285D01*
X77614332Y-30018497D01*
X77647085Y-30080214D01*
X77649614Y-30105128D01*
X77649614Y-30143281D01*
X77649868Y-30146084D01*
X77649869Y-30146090D01*
X77655799Y-30211345D01*
X77704601Y-30367956D01*
X77789465Y-30508340D01*
X77905460Y-30624335D01*
X77990323Y-30675636D01*
X78045844Y-30709199D01*
X78136500Y-30737449D01*
X78161701Y-30745302D01*
X78219848Y-30784040D01*
X78247822Y-30848065D01*
X78236740Y-30917050D01*
X78190121Y-30969093D01*
X78161701Y-30982072D01*
X78045843Y-31018175D01*
X77905460Y-31103038D01*
X77789465Y-31219033D01*
X77704601Y-31359417D01*
X77655799Y-31516028D01*
X77655798Y-31516030D01*
X77655799Y-31516030D01*
X77649614Y-31584093D01*
X77649614Y-31586912D01*
X77649614Y-31594870D01*
X77629929Y-31661909D01*
X77577125Y-31707664D01*
X77507967Y-31717608D01*
X77444411Y-31688583D01*
X77429141Y-31672377D01*
X77302840Y-31575463D01*
X77156762Y-31514956D01*
X77000000Y-31494317D01*
X76843237Y-31514956D01*
X76697159Y-31575463D01*
X76571717Y-31671717D01*
X76475463Y-31797159D01*
X76414956Y-31943237D01*
X76394317Y-32100000D01*
X76414956Y-32256762D01*
X76475463Y-32402840D01*
X76571717Y-32528282D01*
X76639397Y-32580214D01*
X76697159Y-32624536D01*
X76843238Y-32685044D01*
X77000000Y-32705682D01*
X77156762Y-32685044D01*
X77302841Y-32624536D01*
X77428282Y-32528282D01*
X77428281Y-32528282D01*
X77441234Y-32518344D01*
X77441764Y-32519035D01*
X77483665Y-32488440D01*
X77553411Y-32484285D01*
X77614332Y-32518497D01*
X77647085Y-32580214D01*
X77649614Y-32605128D01*
X77649614Y-32643281D01*
X77649868Y-32646084D01*
X77649869Y-32646090D01*
X77655799Y-32711345D01*
X77704601Y-32867956D01*
X77789465Y-33008340D01*
X77873784Y-33092659D01*
X77907269Y-33153982D01*
X77902285Y-33223674D01*
X77860413Y-33279607D01*
X77843517Y-33290248D01*
X77785811Y-33320391D01*
X77632130Y-33445703D01*
X77547086Y-33550000D01*
X76300000Y-33550000D01*
X76300000Y-36950000D01*
X77400000Y-36950000D01*
X77626100Y-35774275D01*
X77632133Y-35781673D01*
X77704093Y-35840350D01*
X77743610Y-35897971D01*
X77745701Y-35967809D01*
X77724804Y-36003839D01*
X77726176Y-36004607D01*
X77717473Y-36020164D01*
X77717473Y-36020165D01*
X77698459Y-36054156D01*
X77672825Y-36099984D01*
X77652823Y-36168102D01*
X77644500Y-36225999D01*
X77644500Y-37826193D01*
X77624815Y-37893232D01*
X77613820Y-37907847D01*
X77443803Y-38102154D01*
X77384843Y-38139644D01*
X77350483Y-38144500D01*
X77026000Y-38144500D01*
X77022720Y-38144852D01*
X77022712Y-38144853D01*
X76985611Y-38148842D01*
X76985609Y-38148842D01*
X76982319Y-38149196D01*
X76979084Y-38149899D01*
X76979076Y-38149901D01*
X76929977Y-38160582D01*
X76928412Y-38160953D01*
X76919823Y-38163056D01*
X76839082Y-38206079D01*
X76786863Y-38251326D01*
X76786816Y-38251368D01*
X76785428Y-38252572D01*
X76784104Y-38253868D01*
X76784088Y-38253884D01*
X76767472Y-38270166D01*
X76722826Y-38349982D01*
X76702823Y-38418103D01*
X76694500Y-38476000D01*
X76694500Y-39524000D01*
X76699196Y-39567681D01*
X76699900Y-39570918D01*
X76699901Y-39570923D01*
X76710582Y-39620023D01*
X76710953Y-39621588D01*
X76713056Y-39630176D01*
X76756079Y-39710917D01*
X76801326Y-39763136D01*
X76801354Y-39763166D01*
X76802572Y-39764572D01*
X76820165Y-39782527D01*
X76899983Y-39827174D01*
X76940419Y-39839047D01*
X76968103Y-39847176D01*
X77026000Y-39855500D01*
X80720690Y-39855500D01*
X80724000Y-39855500D01*
X80767681Y-39850804D01*
X80820023Y-39839418D01*
X80821588Y-39839047D01*
X80830176Y-39836943D01*
X80830198Y-39836931D01*
X80830203Y-39836930D01*
X80910916Y-39793921D01*
X80919241Y-39786707D01*
X80963136Y-39748673D01*
X80963148Y-39748661D01*
X80964572Y-39747428D01*
X80982527Y-39729835D01*
X80982528Y-39729832D01*
X80988828Y-39723660D01*
X81050488Y-39690800D01*
X81120126Y-39696493D01*
X81175631Y-39738930D01*
X81199382Y-39804639D01*
X81199614Y-39812228D01*
X81199614Y-40563113D01*
X81197230Y-40587306D01*
X81194706Y-40600000D01*
X81194706Y-40600002D01*
X81197231Y-40612691D01*
X81197231Y-40612695D01*
X81214147Y-40697738D01*
X81214147Y-40697739D01*
X81214148Y-40697740D01*
X81269513Y-40780601D01*
X81352374Y-40835966D01*
X81450114Y-40855408D01*
X81462808Y-40852882D01*
X81486999Y-40850500D01*
X83613113Y-40850500D01*
X83637304Y-40852882D01*
X83649998Y-40855408D01*
X83659751Y-40853468D01*
X83662699Y-40852882D01*
X83662705Y-40852881D01*
X83671611Y-40851109D01*
X83674673Y-40850500D01*
X83674674Y-40850500D01*
X83685083Y-40848428D01*
X83691935Y-40847066D01*
X83735767Y-40838348D01*
X83741864Y-40837747D01*
X83741896Y-40837738D01*
X83747852Y-40836246D01*
X83753115Y-40833092D01*
X83753152Y-40833072D01*
X83757885Y-40829186D01*
X83830601Y-40780601D01*
X83885966Y-40697740D01*
X83905408Y-40600000D01*
X83902883Y-40587306D01*
X83900500Y-40563112D01*
X83900506Y-39827174D01*
X83900611Y-25488185D01*
X83920296Y-25421147D01*
X83973100Y-25375392D01*
X84024611Y-25364187D01*
X92025440Y-25364187D01*
X96675614Y-25364187D01*
X96742653Y-25383872D01*
X96788408Y-25436676D01*
X96799614Y-25488187D01*
X96799614Y-26252044D01*
X96779929Y-26319083D01*
X96727125Y-26364838D01*
X96657967Y-26374782D01*
X96594411Y-26345757D01*
X96569497Y-26316194D01*
X96510760Y-26219031D01*
X96394767Y-26103038D01*
X96254383Y-26018174D01*
X96097772Y-25969372D01*
X96032517Y-25963442D01*
X96032511Y-25963441D01*
X96029708Y-25963187D01*
X93870520Y-25963187D01*
X93867717Y-25963441D01*
X93867710Y-25963442D01*
X93802455Y-25969372D01*
X93645844Y-26018174D01*
X93505460Y-26103038D01*
X93389465Y-26219033D01*
X93304601Y-26359417D01*
X93255799Y-26516028D01*
X93255798Y-26516030D01*
X93255799Y-26516030D01*
X93249614Y-26584093D01*
X93249614Y-26586912D01*
X93249614Y-26594870D01*
X93229929Y-26661909D01*
X93177125Y-26707664D01*
X93107967Y-26717608D01*
X93044411Y-26688583D01*
X93029141Y-26672377D01*
X92902840Y-26575463D01*
X92756762Y-26514956D01*
X92600000Y-26494317D01*
X92443237Y-26514956D01*
X92297159Y-26575463D01*
X92171717Y-26671717D01*
X92075463Y-26797159D01*
X92014956Y-26943237D01*
X91994317Y-27100000D01*
X92014956Y-27256762D01*
X92075463Y-27402840D01*
X92171717Y-27528282D01*
X92239397Y-27580214D01*
X92297159Y-27624536D01*
X92443238Y-27685044D01*
X92600000Y-27705682D01*
X92756762Y-27685044D01*
X92902841Y-27624536D01*
X93028282Y-27528282D01*
X93028281Y-27528282D01*
X93041234Y-27518344D01*
X93041764Y-27519035D01*
X93083665Y-27488440D01*
X93153411Y-27484285D01*
X93214332Y-27518497D01*
X93247085Y-27580214D01*
X93249613Y-27605129D01*
X93249614Y-27643281D01*
X93249868Y-27646084D01*
X93249869Y-27646090D01*
X93255799Y-27711345D01*
X93304601Y-27867956D01*
X93389465Y-28008340D01*
X93505460Y-28124335D01*
X93590323Y-28175636D01*
X93645844Y-28209199D01*
X93736500Y-28237449D01*
X93761701Y-28245302D01*
X93819848Y-28284040D01*
X93847822Y-28348065D01*
X93836740Y-28417050D01*
X93790121Y-28469093D01*
X93761701Y-28482072D01*
X93645843Y-28518175D01*
X93505460Y-28603038D01*
X93389465Y-28719033D01*
X93304601Y-28859417D01*
X93255799Y-29016028D01*
X93255798Y-29016030D01*
X93255799Y-29016030D01*
X93249614Y-29084093D01*
X93249614Y-29086912D01*
X93249614Y-29094870D01*
X93229929Y-29161909D01*
X93177125Y-29207664D01*
X93107967Y-29217608D01*
X93044411Y-29188583D01*
X93029141Y-29172377D01*
X92902840Y-29075463D01*
X92756762Y-29014956D01*
X92600000Y-28994317D01*
X92443237Y-29014956D01*
X92297159Y-29075463D01*
X92171717Y-29171717D01*
X92075463Y-29297159D01*
X92014956Y-29443237D01*
X91994317Y-29600000D01*
X92014956Y-29756762D01*
X92075463Y-29902840D01*
X92171717Y-30028282D01*
X92239397Y-30080214D01*
X92297159Y-30124536D01*
X92443238Y-30185044D01*
X92600000Y-30205682D01*
X92756762Y-30185044D01*
X92902841Y-30124536D01*
X93028282Y-30028282D01*
X93028281Y-30028282D01*
X93041234Y-30018344D01*
X93041764Y-30019035D01*
X93083665Y-29988440D01*
X93153411Y-29984285D01*
X93214332Y-30018497D01*
X93247085Y-30080214D01*
X93249614Y-30105128D01*
X93249614Y-30143281D01*
X93249868Y-30146084D01*
X93249869Y-30146090D01*
X93255799Y-30211345D01*
X93304601Y-30367956D01*
X93389465Y-30508340D01*
X93505460Y-30624335D01*
X93590323Y-30675636D01*
X93645844Y-30709199D01*
X93736500Y-30737449D01*
X93761701Y-30745302D01*
X93819848Y-30784040D01*
X93847822Y-30848065D01*
X93836740Y-30917050D01*
X93790121Y-30969093D01*
X93761701Y-30982072D01*
X93645843Y-31018175D01*
X93505460Y-31103038D01*
X93389465Y-31219033D01*
X93304601Y-31359417D01*
X93255799Y-31516028D01*
X93255798Y-31516030D01*
X93255799Y-31516030D01*
X93249614Y-31584093D01*
X93249614Y-31586912D01*
X93249614Y-31594870D01*
X93229929Y-31661909D01*
X93177125Y-31707664D01*
X93107967Y-31717608D01*
X93044411Y-31688583D01*
X93029141Y-31672377D01*
X92902840Y-31575463D01*
X92756762Y-31514956D01*
X92600000Y-31494317D01*
X92443237Y-31514956D01*
X92297159Y-31575463D01*
X92171717Y-31671717D01*
X92075463Y-31797159D01*
X92014956Y-31943237D01*
X91994317Y-32100000D01*
X92014956Y-32256762D01*
X92075463Y-32402840D01*
X92171717Y-32528282D01*
X92239397Y-32580214D01*
X92297159Y-32624536D01*
X92443238Y-32685044D01*
X92600000Y-32705682D01*
X92756762Y-32685044D01*
X92902841Y-32624536D01*
X93028282Y-32528282D01*
X93028281Y-32528282D01*
X93041234Y-32518344D01*
X93041764Y-32519035D01*
X93083665Y-32488440D01*
X93153411Y-32484285D01*
X93214332Y-32518497D01*
X93247085Y-32580214D01*
X93249614Y-32605128D01*
X93249614Y-32643281D01*
X93249868Y-32646084D01*
X93249869Y-32646090D01*
X93255799Y-32711345D01*
X93304601Y-32867956D01*
X93389465Y-33008340D01*
X93473784Y-33092659D01*
X93507269Y-33153982D01*
X93502285Y-33223674D01*
X93460413Y-33279607D01*
X93443517Y-33290248D01*
X93385811Y-33320391D01*
X93232130Y-33445703D01*
X93147086Y-33550000D01*
X91900000Y-33550000D01*
X91900000Y-36950000D01*
X93000000Y-36950000D01*
X93226100Y-35774275D01*
X93232133Y-35781673D01*
X93304093Y-35840350D01*
X93343610Y-35897971D01*
X93345701Y-35967809D01*
X93324804Y-36003839D01*
X93326176Y-36004607D01*
X93317473Y-36020164D01*
X93317473Y-36020165D01*
X93298459Y-36054156D01*
X93272825Y-36099984D01*
X93252823Y-36168102D01*
X93244500Y-36225999D01*
X93244500Y-37826193D01*
X93224815Y-37893232D01*
X93213820Y-37907847D01*
X93043803Y-38102154D01*
X92984843Y-38139644D01*
X92950483Y-38144500D01*
X92626000Y-38144500D01*
X92622720Y-38144852D01*
X92622712Y-38144853D01*
X92585611Y-38148842D01*
X92585609Y-38148842D01*
X92582319Y-38149196D01*
X92579084Y-38149899D01*
X92579076Y-38149901D01*
X92529977Y-38160582D01*
X92528412Y-38160953D01*
X92519823Y-38163056D01*
X92439082Y-38206079D01*
X92386863Y-38251326D01*
X92386816Y-38251368D01*
X92385428Y-38252572D01*
X92384104Y-38253868D01*
X92384088Y-38253884D01*
X92367472Y-38270166D01*
X92322826Y-38349982D01*
X92302823Y-38418103D01*
X92294500Y-38476000D01*
X92294500Y-39524000D01*
X92299196Y-39567681D01*
X92299900Y-39570918D01*
X92299901Y-39570923D01*
X92310582Y-39620023D01*
X92310953Y-39621588D01*
X92313056Y-39630176D01*
X92356079Y-39710917D01*
X92401326Y-39763136D01*
X92401354Y-39763166D01*
X92402572Y-39764572D01*
X92420165Y-39782527D01*
X92499983Y-39827174D01*
X92540419Y-39839047D01*
X92568103Y-39847176D01*
X92626000Y-39855500D01*
X96320690Y-39855500D01*
X96324000Y-39855500D01*
X96367681Y-39850804D01*
X96420023Y-39839418D01*
X96421588Y-39839047D01*
X96430176Y-39836943D01*
X96430198Y-39836931D01*
X96430203Y-39836930D01*
X96510916Y-39793921D01*
X96519241Y-39786707D01*
X96563136Y-39748673D01*
X96563148Y-39748661D01*
X96564572Y-39747428D01*
X96582527Y-39729835D01*
X96582528Y-39729832D01*
X96588828Y-39723660D01*
X96650488Y-39690800D01*
X96720126Y-39696493D01*
X96775631Y-39738930D01*
X96799382Y-39804639D01*
X96799614Y-39812228D01*
X96799614Y-40563113D01*
X96797230Y-40587306D01*
X96794706Y-40600000D01*
X96794706Y-40600002D01*
X96797231Y-40612691D01*
X96797231Y-40612695D01*
X96814147Y-40697738D01*
X96814147Y-40697739D01*
X96814148Y-40697740D01*
X96869513Y-40780601D01*
X96952374Y-40835966D01*
X97050114Y-40855408D01*
X97062808Y-40852882D01*
X97086999Y-40850500D01*
X99213113Y-40850500D01*
X99237304Y-40852882D01*
X99249998Y-40855408D01*
X99259751Y-40853468D01*
X99262699Y-40852882D01*
X99262705Y-40852881D01*
X99271611Y-40851109D01*
X99274673Y-40850500D01*
X99274674Y-40850500D01*
X99285083Y-40848428D01*
X99291935Y-40847066D01*
X99335767Y-40838348D01*
X99341864Y-40837747D01*
X99341896Y-40837738D01*
X99347852Y-40836246D01*
X99353115Y-40833092D01*
X99353152Y-40833072D01*
X99357885Y-40829186D01*
X99430601Y-40780601D01*
X99485966Y-40697740D01*
X99505408Y-40600000D01*
X99502883Y-40587306D01*
X99500500Y-40563112D01*
X99500506Y-39827174D01*
X99500611Y-25488185D01*
X99520296Y-25421147D01*
X99573100Y-25375392D01*
X99624611Y-25364187D01*
X107625440Y-25364187D01*
X112275614Y-25364187D01*
X112342653Y-25383872D01*
X112388408Y-25436676D01*
X112399614Y-25488187D01*
X112399614Y-26252044D01*
X112379929Y-26319083D01*
X112327125Y-26364838D01*
X112257967Y-26374782D01*
X112194411Y-26345757D01*
X112169497Y-26316194D01*
X112110760Y-26219031D01*
X111994767Y-26103038D01*
X111854383Y-26018174D01*
X111697772Y-25969372D01*
X111632517Y-25963442D01*
X111632511Y-25963441D01*
X111629708Y-25963187D01*
X109470520Y-25963187D01*
X109467717Y-25963441D01*
X109467710Y-25963442D01*
X109402455Y-25969372D01*
X109245844Y-26018174D01*
X109105460Y-26103038D01*
X108989465Y-26219033D01*
X108904601Y-26359417D01*
X108855799Y-26516028D01*
X108855798Y-26516030D01*
X108855799Y-26516030D01*
X108849614Y-26584093D01*
X108849614Y-26586912D01*
X108849614Y-26594870D01*
X108829929Y-26661909D01*
X108777125Y-26707664D01*
X108707967Y-26717608D01*
X108644411Y-26688583D01*
X108629141Y-26672377D01*
X108502840Y-26575463D01*
X108356762Y-26514956D01*
X108200000Y-26494317D01*
X108043237Y-26514956D01*
X107897159Y-26575463D01*
X107771717Y-26671717D01*
X107675463Y-26797159D01*
X107614956Y-26943237D01*
X107594317Y-27100000D01*
X107614956Y-27256762D01*
X107675463Y-27402840D01*
X107771717Y-27528282D01*
X107839397Y-27580214D01*
X107897159Y-27624536D01*
X108043238Y-27685044D01*
X108200000Y-27705682D01*
X108356762Y-27685044D01*
X108502841Y-27624536D01*
X108628282Y-27528282D01*
X108628281Y-27528282D01*
X108641234Y-27518344D01*
X108641764Y-27519035D01*
X108683665Y-27488440D01*
X108753411Y-27484285D01*
X108814332Y-27518497D01*
X108847085Y-27580214D01*
X108849613Y-27605129D01*
X108849614Y-27643281D01*
X108849868Y-27646084D01*
X108849869Y-27646090D01*
X108855799Y-27711345D01*
X108904601Y-27867956D01*
X108989465Y-28008340D01*
X109105460Y-28124335D01*
X109190323Y-28175636D01*
X109245844Y-28209199D01*
X109336500Y-28237449D01*
X109361701Y-28245302D01*
X109419848Y-28284040D01*
X109447822Y-28348065D01*
X109436740Y-28417050D01*
X109390121Y-28469093D01*
X109361701Y-28482072D01*
X109245843Y-28518175D01*
X109105460Y-28603038D01*
X108989465Y-28719033D01*
X108904601Y-28859417D01*
X108855799Y-29016028D01*
X108855798Y-29016030D01*
X108855799Y-29016030D01*
X108849614Y-29084093D01*
X108849614Y-29086912D01*
X108849614Y-29094870D01*
X108829929Y-29161909D01*
X108777125Y-29207664D01*
X108707967Y-29217608D01*
X108644411Y-29188583D01*
X108629141Y-29172377D01*
X108502840Y-29075463D01*
X108356762Y-29014956D01*
X108200000Y-28994317D01*
X108043237Y-29014956D01*
X107897159Y-29075463D01*
X107771717Y-29171717D01*
X107675463Y-29297159D01*
X107614956Y-29443237D01*
X107594317Y-29600000D01*
X107614956Y-29756762D01*
X107675463Y-29902840D01*
X107771717Y-30028282D01*
X107839397Y-30080214D01*
X107897159Y-30124536D01*
X108043238Y-30185044D01*
X108200000Y-30205682D01*
X108356762Y-30185044D01*
X108502841Y-30124536D01*
X108628282Y-30028282D01*
X108628281Y-30028282D01*
X108641234Y-30018344D01*
X108641764Y-30019035D01*
X108683665Y-29988440D01*
X108753411Y-29984285D01*
X108814332Y-30018497D01*
X108847085Y-30080214D01*
X108849614Y-30105128D01*
X108849614Y-30143281D01*
X108849868Y-30146084D01*
X108849869Y-30146090D01*
X108855799Y-30211345D01*
X108904601Y-30367956D01*
X108989465Y-30508340D01*
X109105460Y-30624335D01*
X109190324Y-30675636D01*
X109245844Y-30709199D01*
X109336500Y-30737449D01*
X109361701Y-30745302D01*
X109419848Y-30784040D01*
X109447822Y-30848065D01*
X109436740Y-30917050D01*
X109390121Y-30969093D01*
X109361701Y-30982072D01*
X109245843Y-31018175D01*
X109105460Y-31103038D01*
X108989465Y-31219033D01*
X108904601Y-31359417D01*
X108855799Y-31516028D01*
X108855798Y-31516030D01*
X108855799Y-31516030D01*
X108849614Y-31584093D01*
X108849614Y-31586912D01*
X108849614Y-31594870D01*
X108829929Y-31661909D01*
X108777125Y-31707664D01*
X108707967Y-31717608D01*
X108644411Y-31688583D01*
X108629141Y-31672377D01*
X108502840Y-31575463D01*
X108356762Y-31514956D01*
X108200000Y-31494317D01*
X108043237Y-31514956D01*
X107897159Y-31575463D01*
X107771717Y-31671717D01*
X107675463Y-31797159D01*
X107614956Y-31943237D01*
X107594317Y-32100000D01*
X107614956Y-32256762D01*
X107675463Y-32402840D01*
X107771717Y-32528282D01*
X107839397Y-32580214D01*
X107897159Y-32624536D01*
X108043238Y-32685044D01*
X108200000Y-32705682D01*
X108356762Y-32685044D01*
X108502841Y-32624536D01*
X108628282Y-32528282D01*
X108628281Y-32528282D01*
X108641234Y-32518344D01*
X108641764Y-32519035D01*
X108683665Y-32488440D01*
X108753411Y-32484285D01*
X108814332Y-32518497D01*
X108847085Y-32580214D01*
X108849614Y-32605129D01*
X108849614Y-32643281D01*
X108849868Y-32646084D01*
X108849869Y-32646090D01*
X108855799Y-32711345D01*
X108904601Y-32867956D01*
X108989465Y-33008340D01*
X109073784Y-33092659D01*
X109107269Y-33153982D01*
X109102285Y-33223674D01*
X109060413Y-33279607D01*
X109043517Y-33290248D01*
X108985811Y-33320391D01*
X108832130Y-33445703D01*
X108747086Y-33550000D01*
X107500000Y-33550000D01*
X107500000Y-36950000D01*
X108600000Y-36950000D01*
X108826100Y-35774275D01*
X108832133Y-35781673D01*
X108904093Y-35840350D01*
X108943610Y-35897971D01*
X108945701Y-35967809D01*
X108924804Y-36003839D01*
X108926176Y-36004607D01*
X108917473Y-36020164D01*
X108917473Y-36020165D01*
X108898459Y-36054156D01*
X108872825Y-36099984D01*
X108852823Y-36168102D01*
X108844500Y-36225999D01*
X108844500Y-37826193D01*
X108824815Y-37893232D01*
X108813820Y-37907847D01*
X108643803Y-38102154D01*
X108584843Y-38139644D01*
X108550483Y-38144500D01*
X108226000Y-38144500D01*
X108222720Y-38144852D01*
X108222712Y-38144853D01*
X108185611Y-38148842D01*
X108185609Y-38148842D01*
X108182319Y-38149196D01*
X108179084Y-38149899D01*
X108179076Y-38149901D01*
X108129977Y-38160582D01*
X108128412Y-38160953D01*
X108119823Y-38163056D01*
X108039082Y-38206079D01*
X107986863Y-38251326D01*
X107986816Y-38251368D01*
X107985428Y-38252572D01*
X107984104Y-38253868D01*
X107984088Y-38253884D01*
X107967472Y-38270166D01*
X107922826Y-38349982D01*
X107902823Y-38418103D01*
X107894500Y-38476000D01*
X107894500Y-39524000D01*
X107899196Y-39567681D01*
X107899900Y-39570918D01*
X107899901Y-39570923D01*
X107910582Y-39620023D01*
X107910953Y-39621588D01*
X107913056Y-39630176D01*
X107956079Y-39710917D01*
X108001326Y-39763136D01*
X108001354Y-39763166D01*
X108002572Y-39764572D01*
X108020165Y-39782527D01*
X108099983Y-39827174D01*
X108140419Y-39839047D01*
X108168103Y-39847176D01*
X108226000Y-39855500D01*
X111920690Y-39855500D01*
X111924000Y-39855500D01*
X111967681Y-39850804D01*
X112020023Y-39839418D01*
X112021588Y-39839047D01*
X112030176Y-39836943D01*
X112030198Y-39836931D01*
X112030203Y-39836930D01*
X112110916Y-39793921D01*
X112119241Y-39786707D01*
X112163136Y-39748673D01*
X112163148Y-39748661D01*
X112164572Y-39747428D01*
X112182527Y-39729835D01*
X112182528Y-39729832D01*
X112188828Y-39723660D01*
X112250488Y-39690800D01*
X112320126Y-39696493D01*
X112375631Y-39738930D01*
X112399382Y-39804639D01*
X112399614Y-39812228D01*
X112399613Y-40563113D01*
X112397231Y-40587303D01*
X112394705Y-40599998D01*
X112397231Y-40612691D01*
X112397231Y-40612695D01*
X112414147Y-40697738D01*
X112414147Y-40697739D01*
X112414148Y-40697740D01*
X112469513Y-40780601D01*
X112552374Y-40835966D01*
X112650114Y-40855408D01*
X112662808Y-40852882D01*
X112686999Y-40850500D01*
X114813113Y-40850500D01*
X114837304Y-40852882D01*
X114849998Y-40855408D01*
X114859751Y-40853468D01*
X114862699Y-40852882D01*
X114862705Y-40852881D01*
X114871611Y-40851109D01*
X114874673Y-40850500D01*
X114874674Y-40850500D01*
X114885083Y-40848428D01*
X114891935Y-40847066D01*
X114935767Y-40838348D01*
X114941864Y-40837747D01*
X114941896Y-40837738D01*
X114947852Y-40836246D01*
X114953115Y-40833092D01*
X114953152Y-40833072D01*
X114957885Y-40829186D01*
X115030601Y-40780601D01*
X115085966Y-40697740D01*
X115105408Y-40600000D01*
X115102883Y-40587306D01*
X115100500Y-40563112D01*
X115100506Y-39827174D01*
X115100526Y-37067764D01*
X116945787Y-37067764D01*
X116975413Y-37337016D01*
X117043928Y-37599087D01*
X117149871Y-37848392D01*
X117290982Y-38079611D01*
X117436013Y-38253884D01*
X117464255Y-38287820D01*
X117665998Y-38468582D01*
X117891910Y-38618044D01*
X117998211Y-38667876D01*
X118137177Y-38733021D01*
X118396562Y-38811058D01*
X118396569Y-38811060D01*
X118664561Y-38850500D01*
X118664564Y-38850500D01*
X118865369Y-38850500D01*
X118867631Y-38850500D01*
X119070156Y-38835677D01*
X119334553Y-38776780D01*
X119587558Y-38680014D01*
X119823777Y-38547441D01*
X120038177Y-38381888D01*
X120226186Y-38186881D01*
X120383799Y-37966579D01*
X120507656Y-37725675D01*
X120595118Y-37469305D01*
X120644319Y-37202933D01*
X120654212Y-36932235D01*
X120624586Y-36662982D01*
X120556072Y-36400912D01*
X120450130Y-36151610D01*
X120360415Y-36004607D01*
X120309017Y-35920388D01*
X120135746Y-35712181D01*
X120030759Y-35618112D01*
X119934002Y-35531418D01*
X119708090Y-35381956D01*
X119708086Y-35381954D01*
X119462822Y-35266978D01*
X119203437Y-35188941D01*
X119203431Y-35188940D01*
X118935439Y-35149500D01*
X118732369Y-35149500D01*
X118730120Y-35149664D01*
X118730109Y-35149665D01*
X118529843Y-35164322D01*
X118265449Y-35223219D01*
X118012441Y-35319986D01*
X117776223Y-35452559D01*
X117561825Y-35618109D01*
X117373813Y-35813120D01*
X117216201Y-36033420D01*
X117092342Y-36274329D01*
X117004881Y-36530695D01*
X116955680Y-36797066D01*
X116945787Y-37067764D01*
X115100526Y-37067764D01*
X115100611Y-25488185D01*
X115120296Y-25421147D01*
X115173100Y-25375392D01*
X115224611Y-25364187D01*
X123225440Y-25364187D01*
X127875614Y-25364187D01*
X127942653Y-25383872D01*
X127988408Y-25436676D01*
X127999614Y-25488187D01*
X127999614Y-26252044D01*
X127979929Y-26319083D01*
X127927125Y-26364838D01*
X127857967Y-26374782D01*
X127794411Y-26345757D01*
X127769497Y-26316194D01*
X127710760Y-26219031D01*
X127594767Y-26103038D01*
X127454383Y-26018174D01*
X127297772Y-25969372D01*
X127232517Y-25963442D01*
X127232511Y-25963441D01*
X127229708Y-25963187D01*
X125070520Y-25963187D01*
X125067717Y-25963441D01*
X125067710Y-25963442D01*
X125002455Y-25969372D01*
X124845844Y-26018174D01*
X124705460Y-26103038D01*
X124589465Y-26219033D01*
X124504601Y-26359417D01*
X124455799Y-26516028D01*
X124455798Y-26516030D01*
X124455799Y-26516030D01*
X124449614Y-26584093D01*
X124449614Y-26586912D01*
X124449614Y-26594870D01*
X124429929Y-26661909D01*
X124377125Y-26707664D01*
X124307967Y-26717608D01*
X124244411Y-26688583D01*
X124229141Y-26672377D01*
X124102840Y-26575463D01*
X123956762Y-26514956D01*
X123800000Y-26494317D01*
X123643237Y-26514956D01*
X123497159Y-26575463D01*
X123371717Y-26671717D01*
X123275463Y-26797159D01*
X123214956Y-26943237D01*
X123194317Y-27100000D01*
X123214956Y-27256762D01*
X123275463Y-27402840D01*
X123371717Y-27528282D01*
X123439397Y-27580214D01*
X123497159Y-27624536D01*
X123643238Y-27685044D01*
X123800000Y-27705682D01*
X123956762Y-27685044D01*
X124102841Y-27624536D01*
X124228282Y-27528282D01*
X124228281Y-27528282D01*
X124241234Y-27518344D01*
X124241764Y-27519035D01*
X124283665Y-27488440D01*
X124353411Y-27484285D01*
X124414332Y-27518497D01*
X124447085Y-27580214D01*
X124449613Y-27605129D01*
X124449614Y-27643281D01*
X124449868Y-27646084D01*
X124449869Y-27646090D01*
X124455799Y-27711345D01*
X124504601Y-27867956D01*
X124589465Y-28008340D01*
X124705460Y-28124335D01*
X124790323Y-28175636D01*
X124845844Y-28209199D01*
X124936500Y-28237449D01*
X124961701Y-28245302D01*
X125019848Y-28284040D01*
X125047822Y-28348065D01*
X125036740Y-28417050D01*
X124990121Y-28469093D01*
X124961701Y-28482072D01*
X124845843Y-28518175D01*
X124705460Y-28603038D01*
X124589465Y-28719033D01*
X124504601Y-28859417D01*
X124455799Y-29016028D01*
X124455798Y-29016030D01*
X124455799Y-29016030D01*
X124449614Y-29084093D01*
X124449614Y-29086912D01*
X124449614Y-29094870D01*
X124429929Y-29161909D01*
X124377125Y-29207664D01*
X124307967Y-29217608D01*
X124244411Y-29188583D01*
X124229141Y-29172377D01*
X124102840Y-29075463D01*
X123956762Y-29014956D01*
X123800000Y-28994317D01*
X123643237Y-29014956D01*
X123497159Y-29075463D01*
X123371717Y-29171717D01*
X123275463Y-29297159D01*
X123214956Y-29443237D01*
X123194317Y-29600000D01*
X123214956Y-29756762D01*
X123275463Y-29902840D01*
X123371717Y-30028282D01*
X123439397Y-30080214D01*
X123497159Y-30124536D01*
X123643238Y-30185044D01*
X123800000Y-30205682D01*
X123956762Y-30185044D01*
X124102841Y-30124536D01*
X124228282Y-30028282D01*
X124228281Y-30028282D01*
X124241234Y-30018344D01*
X124241764Y-30019035D01*
X124283665Y-29988440D01*
X124353411Y-29984285D01*
X124414332Y-30018497D01*
X124447085Y-30080214D01*
X124449614Y-30105128D01*
X124449614Y-30143281D01*
X124449868Y-30146084D01*
X124449869Y-30146090D01*
X124455799Y-30211345D01*
X124504601Y-30367956D01*
X124589465Y-30508340D01*
X124705460Y-30624335D01*
X124790324Y-30675636D01*
X124845844Y-30709199D01*
X124936500Y-30737449D01*
X124961701Y-30745302D01*
X125019848Y-30784040D01*
X125047822Y-30848065D01*
X125036740Y-30917050D01*
X124990121Y-30969093D01*
X124961701Y-30982072D01*
X124845843Y-31018175D01*
X124705460Y-31103038D01*
X124589465Y-31219033D01*
X124504601Y-31359417D01*
X124455799Y-31516028D01*
X124455798Y-31516030D01*
X124455799Y-31516030D01*
X124449614Y-31584093D01*
X124449614Y-31586912D01*
X124449614Y-31594870D01*
X124429929Y-31661909D01*
X124377125Y-31707664D01*
X124307967Y-31717608D01*
X124244411Y-31688583D01*
X124229141Y-31672377D01*
X124102840Y-31575463D01*
X123956762Y-31514956D01*
X123800000Y-31494317D01*
X123643237Y-31514956D01*
X123497159Y-31575463D01*
X123371717Y-31671717D01*
X123275463Y-31797159D01*
X123214956Y-31943237D01*
X123194317Y-32100000D01*
X123214956Y-32256762D01*
X123275463Y-32402840D01*
X123371717Y-32528282D01*
X123439397Y-32580214D01*
X123497159Y-32624536D01*
X123643238Y-32685044D01*
X123800000Y-32705682D01*
X123956762Y-32685044D01*
X124102841Y-32624536D01*
X124228282Y-32528282D01*
X124228281Y-32528282D01*
X124241234Y-32518344D01*
X124241764Y-32519035D01*
X124283665Y-32488440D01*
X124353411Y-32484285D01*
X124414332Y-32518497D01*
X124447085Y-32580214D01*
X124449614Y-32605129D01*
X124449614Y-32643281D01*
X124449868Y-32646084D01*
X124449869Y-32646090D01*
X124455799Y-32711345D01*
X124504601Y-32867956D01*
X124589465Y-33008340D01*
X124673784Y-33092659D01*
X124707269Y-33153982D01*
X124702285Y-33223674D01*
X124660413Y-33279607D01*
X124643517Y-33290248D01*
X124585811Y-33320391D01*
X124432130Y-33445703D01*
X124347086Y-33550000D01*
X123100000Y-33550000D01*
X123100000Y-36950000D01*
X124200000Y-36950000D01*
X124426100Y-35774275D01*
X124432133Y-35781673D01*
X124504093Y-35840350D01*
X124543610Y-35897971D01*
X124545701Y-35967809D01*
X124524805Y-36003837D01*
X124526178Y-36004605D01*
X124517475Y-36020162D01*
X124517475Y-36020163D01*
X124472827Y-36099980D01*
X124452824Y-36168100D01*
X124450780Y-36182319D01*
X124444499Y-36226002D01*
X124444499Y-37826194D01*
X124424814Y-37893233D01*
X124413819Y-37907848D01*
X124243802Y-38102154D01*
X124184842Y-38139644D01*
X124150482Y-38144500D01*
X123826000Y-38144500D01*
X123822720Y-38144852D01*
X123822712Y-38144853D01*
X123785611Y-38148842D01*
X123785609Y-38148842D01*
X123782319Y-38149196D01*
X123779084Y-38149899D01*
X123779076Y-38149901D01*
X123729977Y-38160582D01*
X123728412Y-38160953D01*
X123719823Y-38163056D01*
X123639082Y-38206079D01*
X123586863Y-38251326D01*
X123586816Y-38251368D01*
X123585428Y-38252572D01*
X123584104Y-38253868D01*
X123584088Y-38253884D01*
X123567472Y-38270166D01*
X123522826Y-38349982D01*
X123502823Y-38418103D01*
X123494500Y-38476000D01*
X123494500Y-39524000D01*
X123499196Y-39567681D01*
X123499900Y-39570918D01*
X123499901Y-39570923D01*
X123510582Y-39620023D01*
X123510953Y-39621588D01*
X123513056Y-39630176D01*
X123556079Y-39710917D01*
X123601326Y-39763136D01*
X123601354Y-39763166D01*
X123602572Y-39764572D01*
X123620165Y-39782527D01*
X123699983Y-39827174D01*
X123740419Y-39839047D01*
X123768103Y-39847176D01*
X123826000Y-39855500D01*
X127520690Y-39855500D01*
X127524000Y-39855500D01*
X127567681Y-39850804D01*
X127620023Y-39839418D01*
X127621588Y-39839047D01*
X127630176Y-39836943D01*
X127630198Y-39836931D01*
X127630203Y-39836930D01*
X127710916Y-39793921D01*
X127719241Y-39786707D01*
X127763136Y-39748673D01*
X127763148Y-39748661D01*
X127764572Y-39747428D01*
X127782527Y-39729835D01*
X127782528Y-39729832D01*
X127788828Y-39723660D01*
X127850488Y-39690800D01*
X127920126Y-39696493D01*
X127975631Y-39738930D01*
X127999382Y-39804639D01*
X127999614Y-39812228D01*
X127999614Y-40563113D01*
X127997230Y-40587306D01*
X127994706Y-40600000D01*
X127994706Y-40600002D01*
X127997231Y-40612691D01*
X127997231Y-40612695D01*
X128014147Y-40697738D01*
X128014147Y-40697739D01*
X128014148Y-40697740D01*
X128069513Y-40780601D01*
X128152374Y-40835966D01*
X128250114Y-40855408D01*
X128262808Y-40852882D01*
X128286999Y-40850500D01*
X130413113Y-40850500D01*
X130437304Y-40852882D01*
X130449998Y-40855408D01*
X130459751Y-40853468D01*
X130462699Y-40852882D01*
X130462705Y-40852881D01*
X130471611Y-40851109D01*
X130474673Y-40850500D01*
X130474674Y-40850500D01*
X130485083Y-40848428D01*
X130491935Y-40847066D01*
X130535767Y-40838348D01*
X130541864Y-40837747D01*
X130541896Y-40837738D01*
X130547852Y-40836246D01*
X130553115Y-40833092D01*
X130553152Y-40833072D01*
X130557885Y-40829186D01*
X130630601Y-40780601D01*
X130685966Y-40697740D01*
X130705408Y-40600000D01*
X130702883Y-40587306D01*
X130700500Y-40563112D01*
X130700506Y-39827174D01*
X130700611Y-25488185D01*
X130720296Y-25421147D01*
X130773100Y-25375392D01*
X130824611Y-25364187D01*
X138825440Y-25364187D01*
X143475614Y-25364187D01*
X143542653Y-25383872D01*
X143588408Y-25436676D01*
X143599614Y-25488187D01*
X143599614Y-26252044D01*
X143579929Y-26319083D01*
X143527125Y-26364838D01*
X143457967Y-26374782D01*
X143394411Y-26345757D01*
X143369497Y-26316194D01*
X143310760Y-26219031D01*
X143194767Y-26103038D01*
X143054383Y-26018174D01*
X142897772Y-25969372D01*
X142832517Y-25963442D01*
X142832511Y-25963441D01*
X142829708Y-25963187D01*
X140670520Y-25963187D01*
X140667717Y-25963441D01*
X140667710Y-25963442D01*
X140602455Y-25969372D01*
X140445844Y-26018174D01*
X140305460Y-26103038D01*
X140189465Y-26219033D01*
X140104601Y-26359417D01*
X140055799Y-26516028D01*
X140055798Y-26516030D01*
X140055799Y-26516030D01*
X140049614Y-26584093D01*
X140049614Y-26586912D01*
X140049614Y-26594870D01*
X140029929Y-26661909D01*
X139977125Y-26707664D01*
X139907967Y-26717608D01*
X139844411Y-26688583D01*
X139829141Y-26672377D01*
X139702840Y-26575463D01*
X139556762Y-26514956D01*
X139400000Y-26494317D01*
X139243237Y-26514956D01*
X139097159Y-26575463D01*
X138971717Y-26671717D01*
X138875463Y-26797159D01*
X138814956Y-26943237D01*
X138794317Y-27100000D01*
X138814956Y-27256762D01*
X138875463Y-27402840D01*
X138971717Y-27528282D01*
X139039397Y-27580214D01*
X139097159Y-27624536D01*
X139243238Y-27685044D01*
X139400000Y-27705682D01*
X139556762Y-27685044D01*
X139702841Y-27624536D01*
X139828282Y-27528282D01*
X139828281Y-27528282D01*
X139841234Y-27518344D01*
X139841764Y-27519035D01*
X139883665Y-27488440D01*
X139953411Y-27484285D01*
X140014332Y-27518497D01*
X140047085Y-27580214D01*
X140049614Y-27605129D01*
X140049614Y-27643281D01*
X140049868Y-27646084D01*
X140049869Y-27646090D01*
X140055799Y-27711345D01*
X140104601Y-27867956D01*
X140189465Y-28008340D01*
X140305460Y-28124335D01*
X140390323Y-28175636D01*
X140445844Y-28209199D01*
X140536500Y-28237449D01*
X140561701Y-28245302D01*
X140619848Y-28284040D01*
X140647822Y-28348065D01*
X140636740Y-28417050D01*
X140590121Y-28469093D01*
X140561701Y-28482072D01*
X140445843Y-28518175D01*
X140305460Y-28603038D01*
X140189465Y-28719033D01*
X140104601Y-28859417D01*
X140055799Y-29016028D01*
X140055798Y-29016030D01*
X140055799Y-29016030D01*
X140049614Y-29084093D01*
X140049614Y-29086912D01*
X140049614Y-29094870D01*
X140029929Y-29161909D01*
X139977125Y-29207664D01*
X139907967Y-29217608D01*
X139844411Y-29188583D01*
X139829141Y-29172377D01*
X139702840Y-29075463D01*
X139556762Y-29014956D01*
X139400000Y-28994317D01*
X139243237Y-29014956D01*
X139097159Y-29075463D01*
X138971717Y-29171717D01*
X138875463Y-29297159D01*
X138814956Y-29443237D01*
X138794317Y-29600000D01*
X138814956Y-29756762D01*
X138875463Y-29902840D01*
X138971717Y-30028282D01*
X139039397Y-30080214D01*
X139097159Y-30124536D01*
X139243238Y-30185044D01*
X139400000Y-30205682D01*
X139556762Y-30185044D01*
X139702841Y-30124536D01*
X139828282Y-30028282D01*
X139828281Y-30028282D01*
X139841234Y-30018344D01*
X139841764Y-30019035D01*
X139883665Y-29988440D01*
X139953411Y-29984285D01*
X140014332Y-30018497D01*
X140047085Y-30080214D01*
X140049614Y-30105128D01*
X140049614Y-30143281D01*
X140049868Y-30146084D01*
X140049869Y-30146090D01*
X140055799Y-30211345D01*
X140104601Y-30367956D01*
X140189465Y-30508340D01*
X140305460Y-30624335D01*
X140390324Y-30675636D01*
X140445844Y-30709199D01*
X140536500Y-30737449D01*
X140561701Y-30745302D01*
X140619848Y-30784040D01*
X140647822Y-30848065D01*
X140636740Y-30917050D01*
X140590121Y-30969093D01*
X140561701Y-30982072D01*
X140445843Y-31018175D01*
X140305460Y-31103038D01*
X140189465Y-31219033D01*
X140104601Y-31359417D01*
X140055799Y-31516028D01*
X140055798Y-31516030D01*
X140055799Y-31516030D01*
X140049614Y-31584093D01*
X140049614Y-31586912D01*
X140049614Y-31594870D01*
X140029929Y-31661909D01*
X139977125Y-31707664D01*
X139907967Y-31717608D01*
X139844411Y-31688583D01*
X139829141Y-31672377D01*
X139702840Y-31575463D01*
X139556762Y-31514956D01*
X139400000Y-31494317D01*
X139243237Y-31514956D01*
X139097159Y-31575463D01*
X138971717Y-31671717D01*
X138875463Y-31797159D01*
X138814956Y-31943237D01*
X138794317Y-32100000D01*
X138814956Y-32256762D01*
X138875463Y-32402840D01*
X138971717Y-32528282D01*
X139039397Y-32580214D01*
X139097159Y-32624536D01*
X139243238Y-32685044D01*
X139400000Y-32705682D01*
X139556762Y-32685044D01*
X139702841Y-32624536D01*
X139828282Y-32528282D01*
X139828281Y-32528282D01*
X139841234Y-32518344D01*
X139841764Y-32519035D01*
X139883665Y-32488440D01*
X139953411Y-32484285D01*
X140014332Y-32518497D01*
X140047085Y-32580214D01*
X140049614Y-32605129D01*
X140049614Y-32643281D01*
X140049868Y-32646084D01*
X140049869Y-32646090D01*
X140055799Y-32711345D01*
X140104601Y-32867956D01*
X140189465Y-33008340D01*
X140273784Y-33092659D01*
X140307269Y-33153982D01*
X140302285Y-33223674D01*
X140260413Y-33279607D01*
X140243517Y-33290248D01*
X140185811Y-33320391D01*
X140032130Y-33445703D01*
X139947086Y-33550000D01*
X138700000Y-33550000D01*
X138700000Y-36950000D01*
X139800000Y-36950000D01*
X140026100Y-35774275D01*
X140032133Y-35781673D01*
X140104093Y-35840350D01*
X140143610Y-35897971D01*
X140145701Y-35967809D01*
X140124804Y-36003839D01*
X140126176Y-36004607D01*
X140117473Y-36020164D01*
X140117473Y-36020165D01*
X140098459Y-36054156D01*
X140072825Y-36099984D01*
X140052823Y-36168102D01*
X140044500Y-36225999D01*
X140044500Y-37826193D01*
X140024815Y-37893232D01*
X140013820Y-37907847D01*
X139843803Y-38102154D01*
X139784843Y-38139644D01*
X139750483Y-38144500D01*
X139426000Y-38144500D01*
X139422720Y-38144852D01*
X139422712Y-38144853D01*
X139385611Y-38148842D01*
X139385609Y-38148842D01*
X139382319Y-38149196D01*
X139379084Y-38149899D01*
X139379076Y-38149901D01*
X139329977Y-38160582D01*
X139328412Y-38160953D01*
X139319823Y-38163056D01*
X139239082Y-38206079D01*
X139186863Y-38251326D01*
X139186816Y-38251368D01*
X139185428Y-38252572D01*
X139184104Y-38253868D01*
X139184088Y-38253884D01*
X139167472Y-38270166D01*
X139122826Y-38349982D01*
X139102823Y-38418103D01*
X139094500Y-38476000D01*
X139094500Y-39524000D01*
X139099196Y-39567681D01*
X139099900Y-39570918D01*
X139099901Y-39570923D01*
X139110582Y-39620023D01*
X139110953Y-39621588D01*
X139113056Y-39630176D01*
X139156079Y-39710917D01*
X139201326Y-39763136D01*
X139201354Y-39763166D01*
X139202572Y-39764572D01*
X139220165Y-39782527D01*
X139299983Y-39827174D01*
X139340419Y-39839047D01*
X139368103Y-39847176D01*
X139426000Y-39855500D01*
X143120690Y-39855500D01*
X143124000Y-39855500D01*
X143167681Y-39850804D01*
X143220023Y-39839418D01*
X143221588Y-39839047D01*
X143230176Y-39836943D01*
X143230198Y-39836931D01*
X143230203Y-39836930D01*
X143310916Y-39793921D01*
X143319241Y-39786707D01*
X143363136Y-39748673D01*
X143363148Y-39748661D01*
X143364572Y-39747428D01*
X143382527Y-39729835D01*
X143382528Y-39729832D01*
X143388828Y-39723660D01*
X143450488Y-39690800D01*
X143520126Y-39696493D01*
X143575631Y-39738930D01*
X143599382Y-39804639D01*
X143599614Y-39812228D01*
X143599614Y-40563113D01*
X143597230Y-40587306D01*
X143594706Y-40600000D01*
X143594706Y-40600002D01*
X143597231Y-40612691D01*
X143597231Y-40612695D01*
X143614147Y-40697738D01*
X143614147Y-40697739D01*
X143614148Y-40697740D01*
X143669513Y-40780601D01*
X143752374Y-40835966D01*
X143850114Y-40855408D01*
X143862808Y-40852882D01*
X143886999Y-40850500D01*
X146013113Y-40850500D01*
X146037304Y-40852882D01*
X146049998Y-40855408D01*
X146059751Y-40853468D01*
X146062699Y-40852882D01*
X146062705Y-40852881D01*
X146071611Y-40851109D01*
X146074673Y-40850500D01*
X146074674Y-40850500D01*
X146085083Y-40848428D01*
X146091935Y-40847066D01*
X146135767Y-40838348D01*
X146141864Y-40837747D01*
X146141896Y-40837738D01*
X146147852Y-40836246D01*
X146153115Y-40833092D01*
X146153152Y-40833072D01*
X146157885Y-40829186D01*
X146230601Y-40780601D01*
X146285966Y-40697740D01*
X146305408Y-40600000D01*
X146302883Y-40587306D01*
X146300500Y-40563112D01*
X146300506Y-39827174D01*
X146300611Y-25488185D01*
X146320296Y-25421147D01*
X146373100Y-25375392D01*
X146424611Y-25364187D01*
X154425440Y-25364187D01*
X159075614Y-25364187D01*
X159142653Y-25383872D01*
X159188408Y-25436676D01*
X159199614Y-25488187D01*
X159199614Y-26252044D01*
X159179929Y-26319083D01*
X159127125Y-26364838D01*
X159057967Y-26374782D01*
X158994411Y-26345757D01*
X158969497Y-26316194D01*
X158910760Y-26219031D01*
X158794767Y-26103038D01*
X158654383Y-26018174D01*
X158497772Y-25969372D01*
X158432517Y-25963442D01*
X158432511Y-25963441D01*
X158429708Y-25963187D01*
X156270520Y-25963187D01*
X156267717Y-25963441D01*
X156267710Y-25963442D01*
X156202455Y-25969372D01*
X156045844Y-26018174D01*
X155905460Y-26103038D01*
X155789465Y-26219033D01*
X155704601Y-26359417D01*
X155655799Y-26516028D01*
X155655798Y-26516030D01*
X155655799Y-26516030D01*
X155649614Y-26584093D01*
X155649614Y-26586912D01*
X155649614Y-26594870D01*
X155629929Y-26661909D01*
X155577125Y-26707664D01*
X155507967Y-26717608D01*
X155444411Y-26688583D01*
X155429141Y-26672377D01*
X155302840Y-26575463D01*
X155156762Y-26514956D01*
X155000000Y-26494317D01*
X154843237Y-26514956D01*
X154697159Y-26575463D01*
X154571717Y-26671717D01*
X154475463Y-26797159D01*
X154414956Y-26943237D01*
X154394317Y-27100000D01*
X154414956Y-27256762D01*
X154475463Y-27402840D01*
X154571717Y-27528282D01*
X154639397Y-27580214D01*
X154697159Y-27624536D01*
X154843238Y-27685044D01*
X155000000Y-27705682D01*
X155156762Y-27685044D01*
X155302841Y-27624536D01*
X155428282Y-27528282D01*
X155428281Y-27528282D01*
X155441234Y-27518344D01*
X155441764Y-27519035D01*
X155483665Y-27488440D01*
X155553411Y-27484285D01*
X155614332Y-27518497D01*
X155647085Y-27580214D01*
X155649614Y-27605129D01*
X155649614Y-27643281D01*
X155649868Y-27646084D01*
X155649869Y-27646090D01*
X155655799Y-27711345D01*
X155704601Y-27867956D01*
X155789465Y-28008340D01*
X155905460Y-28124335D01*
X155990323Y-28175636D01*
X156045844Y-28209199D01*
X156136500Y-28237449D01*
X156161701Y-28245302D01*
X156219848Y-28284040D01*
X156247822Y-28348065D01*
X156236740Y-28417050D01*
X156190121Y-28469093D01*
X156161701Y-28482072D01*
X156045843Y-28518175D01*
X155905460Y-28603038D01*
X155789465Y-28719033D01*
X155704601Y-28859417D01*
X155655799Y-29016028D01*
X155655798Y-29016030D01*
X155655799Y-29016030D01*
X155649614Y-29084093D01*
X155649614Y-29086912D01*
X155649614Y-29094870D01*
X155629929Y-29161909D01*
X155577125Y-29207664D01*
X155507967Y-29217608D01*
X155444411Y-29188583D01*
X155429141Y-29172377D01*
X155302840Y-29075463D01*
X155156762Y-29014956D01*
X155000000Y-28994317D01*
X154843237Y-29014956D01*
X154697159Y-29075463D01*
X154571717Y-29171717D01*
X154475463Y-29297159D01*
X154414956Y-29443237D01*
X154394317Y-29600000D01*
X154414956Y-29756762D01*
X154475463Y-29902840D01*
X154571717Y-30028282D01*
X154639397Y-30080214D01*
X154697159Y-30124536D01*
X154843238Y-30185044D01*
X155000000Y-30205682D01*
X155156762Y-30185044D01*
X155302841Y-30124536D01*
X155428282Y-30028282D01*
X155428281Y-30028282D01*
X155441234Y-30018344D01*
X155441764Y-30019035D01*
X155483665Y-29988440D01*
X155553411Y-29984285D01*
X155614332Y-30018497D01*
X155647085Y-30080214D01*
X155649614Y-30105128D01*
X155649614Y-30143281D01*
X155649868Y-30146084D01*
X155649869Y-30146090D01*
X155655799Y-30211345D01*
X155704601Y-30367956D01*
X155789465Y-30508340D01*
X155905460Y-30624335D01*
X155990323Y-30675636D01*
X156045844Y-30709199D01*
X156136500Y-30737449D01*
X156161701Y-30745302D01*
X156219848Y-30784040D01*
X156247822Y-30848065D01*
X156236740Y-30917050D01*
X156190121Y-30969093D01*
X156161701Y-30982072D01*
X156045843Y-31018175D01*
X155905460Y-31103038D01*
X155789465Y-31219033D01*
X155704601Y-31359417D01*
X155655799Y-31516028D01*
X155655798Y-31516030D01*
X155655799Y-31516030D01*
X155649614Y-31584093D01*
X155649614Y-31586912D01*
X155649614Y-31594870D01*
X155629929Y-31661909D01*
X155577125Y-31707664D01*
X155507967Y-31717608D01*
X155444411Y-31688583D01*
X155429141Y-31672377D01*
X155302840Y-31575463D01*
X155156762Y-31514956D01*
X155000000Y-31494317D01*
X154843237Y-31514956D01*
X154697159Y-31575463D01*
X154571717Y-31671717D01*
X154475463Y-31797159D01*
X154414956Y-31943237D01*
X154394317Y-32100000D01*
X154414956Y-32256762D01*
X154475463Y-32402840D01*
X154571717Y-32528282D01*
X154639397Y-32580214D01*
X154697159Y-32624536D01*
X154843238Y-32685044D01*
X155000000Y-32705682D01*
X155156762Y-32685044D01*
X155302841Y-32624536D01*
X155428282Y-32528282D01*
X155428281Y-32528282D01*
X155441234Y-32518344D01*
X155441764Y-32519035D01*
X155483665Y-32488440D01*
X155553411Y-32484285D01*
X155614332Y-32518497D01*
X155647085Y-32580214D01*
X155649614Y-32605129D01*
X155649614Y-32643281D01*
X155649868Y-32646084D01*
X155649869Y-32646090D01*
X155655799Y-32711345D01*
X155704601Y-32867956D01*
X155789465Y-33008340D01*
X155873784Y-33092659D01*
X155907269Y-33153982D01*
X155902285Y-33223674D01*
X155860413Y-33279607D01*
X155843517Y-33290248D01*
X155785811Y-33320391D01*
X155632130Y-33445703D01*
X155547086Y-33550000D01*
X154300000Y-33550000D01*
X154300000Y-36950000D01*
X155400000Y-36950000D01*
X155626100Y-35774275D01*
X155632133Y-35781673D01*
X155704093Y-35840350D01*
X155743610Y-35897971D01*
X155745701Y-35967809D01*
X155724804Y-36003838D01*
X155726176Y-36004606D01*
X155672826Y-36099982D01*
X155652823Y-36168103D01*
X155644500Y-36226000D01*
X155644500Y-37826193D01*
X155624815Y-37893232D01*
X155613820Y-37907847D01*
X155443803Y-38102154D01*
X155384843Y-38139644D01*
X155350483Y-38144500D01*
X155026000Y-38144500D01*
X155022720Y-38144852D01*
X155022712Y-38144853D01*
X154985611Y-38148842D01*
X154985609Y-38148842D01*
X154982319Y-38149196D01*
X154979084Y-38149899D01*
X154979076Y-38149901D01*
X154929977Y-38160582D01*
X154928412Y-38160953D01*
X154919823Y-38163056D01*
X154839082Y-38206079D01*
X154786863Y-38251326D01*
X154786816Y-38251368D01*
X154785428Y-38252572D01*
X154784104Y-38253868D01*
X154784088Y-38253884D01*
X154767472Y-38270166D01*
X154722826Y-38349982D01*
X154702823Y-38418103D01*
X154694500Y-38476000D01*
X154694500Y-39524000D01*
X154699196Y-39567681D01*
X154699900Y-39570918D01*
X154699901Y-39570923D01*
X154710582Y-39620023D01*
X154710953Y-39621588D01*
X154713056Y-39630176D01*
X154756079Y-39710917D01*
X154801326Y-39763136D01*
X154801354Y-39763166D01*
X154802572Y-39764572D01*
X154820165Y-39782527D01*
X154899983Y-39827174D01*
X154940419Y-39839047D01*
X154968103Y-39847176D01*
X155026000Y-39855500D01*
X158720690Y-39855500D01*
X158724000Y-39855500D01*
X158767681Y-39850804D01*
X158820023Y-39839418D01*
X158821588Y-39839047D01*
X158830176Y-39836943D01*
X158830198Y-39836931D01*
X158830203Y-39836930D01*
X158910916Y-39793921D01*
X158919241Y-39786707D01*
X158963136Y-39748673D01*
X158963148Y-39748661D01*
X158964572Y-39747428D01*
X158982527Y-39729835D01*
X158982528Y-39729832D01*
X158988828Y-39723660D01*
X159050488Y-39690800D01*
X159120126Y-39696493D01*
X159175631Y-39738930D01*
X159199382Y-39804639D01*
X159199614Y-39812228D01*
X159199614Y-40563113D01*
X159197231Y-40587306D01*
X159194705Y-40600002D01*
X159197213Y-40612608D01*
X159197231Y-40612695D01*
X159214147Y-40697738D01*
X159214147Y-40697739D01*
X159214148Y-40697740D01*
X159269513Y-40780601D01*
X159352374Y-40835966D01*
X159450114Y-40855408D01*
X159462808Y-40852882D01*
X159486999Y-40850500D01*
X161613113Y-40850500D01*
X161637304Y-40852882D01*
X161649998Y-40855408D01*
X161659751Y-40853468D01*
X161662699Y-40852882D01*
X161662705Y-40852881D01*
X161671611Y-40851109D01*
X161674673Y-40850500D01*
X161674674Y-40850500D01*
X161685083Y-40848428D01*
X161691935Y-40847066D01*
X161735767Y-40838348D01*
X161741864Y-40837747D01*
X161741896Y-40837738D01*
X161747852Y-40836246D01*
X161753115Y-40833092D01*
X161753152Y-40833072D01*
X161757885Y-40829186D01*
X161830601Y-40780601D01*
X161885966Y-40697740D01*
X161905408Y-40600000D01*
X161902883Y-40587306D01*
X161900500Y-40563112D01*
X161900506Y-39827174D01*
X161900526Y-37067764D01*
X163745787Y-37067764D01*
X163775413Y-37337016D01*
X163843928Y-37599087D01*
X163949871Y-37848392D01*
X164090982Y-38079611D01*
X164236013Y-38253884D01*
X164264255Y-38287820D01*
X164465998Y-38468582D01*
X164691910Y-38618044D01*
X164798211Y-38667876D01*
X164937177Y-38733021D01*
X165196562Y-38811058D01*
X165196569Y-38811060D01*
X165464561Y-38850500D01*
X165464564Y-38850500D01*
X165665369Y-38850500D01*
X165667631Y-38850500D01*
X165870156Y-38835677D01*
X166134553Y-38776780D01*
X166387558Y-38680014D01*
X166623777Y-38547441D01*
X166838177Y-38381888D01*
X167026186Y-38186881D01*
X167183799Y-37966579D01*
X167307656Y-37725675D01*
X167395118Y-37469305D01*
X167444319Y-37202933D01*
X167454212Y-36932235D01*
X167424586Y-36662982D01*
X167356072Y-36400912D01*
X167250130Y-36151610D01*
X167160415Y-36004607D01*
X167109017Y-35920388D01*
X166935746Y-35712181D01*
X166830759Y-35618112D01*
X166734002Y-35531418D01*
X166508090Y-35381956D01*
X166508086Y-35381954D01*
X166262822Y-35266978D01*
X166003437Y-35188941D01*
X166003431Y-35188940D01*
X165735439Y-35149500D01*
X165532369Y-35149500D01*
X165530120Y-35149664D01*
X165530109Y-35149665D01*
X165329843Y-35164322D01*
X165065449Y-35223219D01*
X164812441Y-35319986D01*
X164576223Y-35452559D01*
X164361825Y-35618109D01*
X164173813Y-35813120D01*
X164016201Y-36033420D01*
X163892342Y-36274329D01*
X163804881Y-36530695D01*
X163755680Y-36797066D01*
X163745787Y-37067764D01*
X161900526Y-37067764D01*
X161900611Y-25488185D01*
X161920296Y-25421147D01*
X161973100Y-25375392D01*
X162024611Y-25364187D01*
X170025440Y-25364187D01*
X174675614Y-25364187D01*
X174742653Y-25383872D01*
X174788408Y-25436676D01*
X174799614Y-25488187D01*
X174799614Y-26252044D01*
X174779929Y-26319083D01*
X174727125Y-26364838D01*
X174657967Y-26374782D01*
X174594411Y-26345757D01*
X174569497Y-26316194D01*
X174510760Y-26219031D01*
X174394767Y-26103038D01*
X174254383Y-26018174D01*
X174097772Y-25969372D01*
X174032517Y-25963442D01*
X174032511Y-25963441D01*
X174029708Y-25963187D01*
X171870520Y-25963187D01*
X171867717Y-25963441D01*
X171867710Y-25963442D01*
X171802455Y-25969372D01*
X171645844Y-26018174D01*
X171505460Y-26103038D01*
X171389465Y-26219033D01*
X171304601Y-26359417D01*
X171255799Y-26516028D01*
X171255798Y-26516030D01*
X171255799Y-26516030D01*
X171249614Y-26584093D01*
X171249614Y-26586912D01*
X171249614Y-26594870D01*
X171229929Y-26661909D01*
X171177125Y-26707664D01*
X171107967Y-26717608D01*
X171044411Y-26688583D01*
X171029141Y-26672377D01*
X170902840Y-26575463D01*
X170756762Y-26514956D01*
X170600000Y-26494317D01*
X170443237Y-26514956D01*
X170297159Y-26575463D01*
X170171717Y-26671717D01*
X170075463Y-26797159D01*
X170014956Y-26943237D01*
X169994317Y-27100000D01*
X170014956Y-27256762D01*
X170075463Y-27402840D01*
X170171717Y-27528282D01*
X170239397Y-27580214D01*
X170297159Y-27624536D01*
X170443238Y-27685044D01*
X170600000Y-27705682D01*
X170756762Y-27685044D01*
X170902841Y-27624536D01*
X171028282Y-27528282D01*
X171028281Y-27528282D01*
X171041234Y-27518344D01*
X171041764Y-27519035D01*
X171083665Y-27488440D01*
X171153411Y-27484285D01*
X171214332Y-27518497D01*
X171247085Y-27580214D01*
X171249614Y-27605129D01*
X171249614Y-27643281D01*
X171249868Y-27646084D01*
X171249869Y-27646090D01*
X171255799Y-27711345D01*
X171304601Y-27867956D01*
X171389465Y-28008340D01*
X171505460Y-28124335D01*
X171590324Y-28175636D01*
X171645844Y-28209199D01*
X171736500Y-28237449D01*
X171761701Y-28245302D01*
X171819848Y-28284040D01*
X171847822Y-28348065D01*
X171836740Y-28417050D01*
X171790121Y-28469093D01*
X171761701Y-28482072D01*
X171645843Y-28518175D01*
X171505460Y-28603038D01*
X171389465Y-28719033D01*
X171304601Y-28859417D01*
X171255799Y-29016028D01*
X171255798Y-29016030D01*
X171255799Y-29016030D01*
X171249614Y-29084093D01*
X171249614Y-29086912D01*
X171249614Y-29094870D01*
X171229929Y-29161909D01*
X171177125Y-29207664D01*
X171107967Y-29217608D01*
X171044411Y-29188583D01*
X171029141Y-29172377D01*
X170902840Y-29075463D01*
X170756762Y-29014956D01*
X170600000Y-28994317D01*
X170443237Y-29014956D01*
X170297159Y-29075463D01*
X170171717Y-29171717D01*
X170075463Y-29297159D01*
X170014956Y-29443237D01*
X169994317Y-29600000D01*
X170014956Y-29756762D01*
X170075463Y-29902840D01*
X170171717Y-30028282D01*
X170239397Y-30080214D01*
X170297159Y-30124536D01*
X170443238Y-30185044D01*
X170600000Y-30205682D01*
X170756762Y-30185044D01*
X170902841Y-30124536D01*
X171028282Y-30028282D01*
X171028281Y-30028282D01*
X171041234Y-30018344D01*
X171041764Y-30019035D01*
X171083665Y-29988440D01*
X171153411Y-29984285D01*
X171214332Y-30018497D01*
X171247085Y-30080214D01*
X171249614Y-30105128D01*
X171249614Y-30143281D01*
X171249868Y-30146084D01*
X171249869Y-30146090D01*
X171255799Y-30211345D01*
X171304601Y-30367956D01*
X171389465Y-30508340D01*
X171505460Y-30624335D01*
X171590323Y-30675636D01*
X171645844Y-30709199D01*
X171736500Y-30737449D01*
X171761701Y-30745302D01*
X171819848Y-30784040D01*
X171847822Y-30848065D01*
X171836740Y-30917050D01*
X171790121Y-30969093D01*
X171761701Y-30982072D01*
X171645843Y-31018175D01*
X171505460Y-31103038D01*
X171389465Y-31219033D01*
X171304601Y-31359417D01*
X171255799Y-31516028D01*
X171255798Y-31516030D01*
X171255799Y-31516030D01*
X171249614Y-31584093D01*
X171249614Y-31586912D01*
X171249614Y-31594870D01*
X171229929Y-31661909D01*
X171177125Y-31707664D01*
X171107967Y-31717608D01*
X171044411Y-31688583D01*
X171029141Y-31672377D01*
X170902840Y-31575463D01*
X170756762Y-31514956D01*
X170600000Y-31494317D01*
X170443237Y-31514956D01*
X170297159Y-31575463D01*
X170171717Y-31671717D01*
X170075463Y-31797159D01*
X170014956Y-31943237D01*
X169994317Y-32100000D01*
X170014956Y-32256762D01*
X170075463Y-32402840D01*
X170171717Y-32528282D01*
X170239397Y-32580214D01*
X170297159Y-32624536D01*
X170443238Y-32685044D01*
X170600000Y-32705682D01*
X170756762Y-32685044D01*
X170902841Y-32624536D01*
X171028282Y-32528282D01*
X171028281Y-32528282D01*
X171041234Y-32518344D01*
X171041764Y-32519035D01*
X171083665Y-32488440D01*
X171153411Y-32484285D01*
X171214332Y-32518497D01*
X171247085Y-32580214D01*
X171249614Y-32605129D01*
X171249614Y-32643281D01*
X171249868Y-32646084D01*
X171249869Y-32646090D01*
X171255799Y-32711345D01*
X171304601Y-32867956D01*
X171389465Y-33008340D01*
X171473784Y-33092659D01*
X171507269Y-33153982D01*
X171502285Y-33223674D01*
X171460413Y-33279607D01*
X171443517Y-33290248D01*
X171385811Y-33320391D01*
X171232130Y-33445703D01*
X171147086Y-33550000D01*
X169900000Y-33550000D01*
X169900000Y-36950000D01*
X171000000Y-36950000D01*
X171226100Y-35774275D01*
X171232133Y-35781673D01*
X171304093Y-35840350D01*
X171343610Y-35897971D01*
X171345701Y-35967809D01*
X171324804Y-36003839D01*
X171326176Y-36004607D01*
X171317473Y-36020164D01*
X171317473Y-36020165D01*
X171298459Y-36054156D01*
X171272825Y-36099984D01*
X171252823Y-36168102D01*
X171244500Y-36225999D01*
X171244500Y-37826193D01*
X171224815Y-37893232D01*
X171213820Y-37907847D01*
X171043803Y-38102154D01*
X170984843Y-38139644D01*
X170950483Y-38144500D01*
X170626000Y-38144500D01*
X170622720Y-38144852D01*
X170622712Y-38144853D01*
X170585611Y-38148842D01*
X170585609Y-38148842D01*
X170582319Y-38149196D01*
X170579084Y-38149899D01*
X170579076Y-38149901D01*
X170529977Y-38160582D01*
X170528412Y-38160953D01*
X170519823Y-38163056D01*
X170439082Y-38206079D01*
X170386863Y-38251326D01*
X170386816Y-38251368D01*
X170385428Y-38252572D01*
X170384104Y-38253868D01*
X170384088Y-38253884D01*
X170367472Y-38270166D01*
X170322826Y-38349982D01*
X170302823Y-38418103D01*
X170294500Y-38476000D01*
X170294500Y-39524000D01*
X170299196Y-39567681D01*
X170299900Y-39570918D01*
X170299901Y-39570923D01*
X170310582Y-39620023D01*
X170310953Y-39621588D01*
X170313056Y-39630176D01*
X170356079Y-39710917D01*
X170401326Y-39763136D01*
X170401354Y-39763166D01*
X170402572Y-39764572D01*
X170420165Y-39782527D01*
X170499983Y-39827174D01*
X170540419Y-39839047D01*
X170568103Y-39847176D01*
X170626000Y-39855500D01*
X174320690Y-39855500D01*
X174324000Y-39855500D01*
X174367681Y-39850804D01*
X174420023Y-39839418D01*
X174421588Y-39839047D01*
X174430176Y-39836943D01*
X174430198Y-39836931D01*
X174430203Y-39836930D01*
X174510916Y-39793921D01*
X174519241Y-39786707D01*
X174563136Y-39748673D01*
X174563148Y-39748661D01*
X174564572Y-39747428D01*
X174582527Y-39729835D01*
X174582528Y-39729832D01*
X174588828Y-39723660D01*
X174650488Y-39690800D01*
X174720126Y-39696493D01*
X174775631Y-39738930D01*
X174799382Y-39804639D01*
X174799614Y-39812228D01*
X174799614Y-40563113D01*
X174797231Y-40587306D01*
X174794705Y-40600002D01*
X174797213Y-40612608D01*
X174797231Y-40612695D01*
X174814147Y-40697738D01*
X174814147Y-40697739D01*
X174814148Y-40697740D01*
X174869513Y-40780601D01*
X174952374Y-40835966D01*
X175050114Y-40855408D01*
X175062808Y-40852882D01*
X175086999Y-40850500D01*
X177213113Y-40850500D01*
X177237304Y-40852882D01*
X177249998Y-40855408D01*
X177259751Y-40853468D01*
X177262699Y-40852882D01*
X177262705Y-40852881D01*
X177271611Y-40851109D01*
X177274673Y-40850500D01*
X177274674Y-40850500D01*
X177285083Y-40848428D01*
X177291935Y-40847066D01*
X177335767Y-40838348D01*
X177341864Y-40837747D01*
X177341896Y-40837738D01*
X177347852Y-40836246D01*
X177353115Y-40833092D01*
X177353152Y-40833072D01*
X177357885Y-40829186D01*
X177430601Y-40780601D01*
X177485966Y-40697740D01*
X177505408Y-40600000D01*
X177502883Y-40587306D01*
X177500500Y-40563112D01*
X177500506Y-39827174D01*
X177500611Y-25488185D01*
X177520296Y-25421147D01*
X177573100Y-25375392D01*
X177624611Y-25364187D01*
X185625440Y-25364187D01*
X190275614Y-25364187D01*
X190342653Y-25383872D01*
X190388408Y-25436676D01*
X190399614Y-25488187D01*
X190399614Y-26252044D01*
X190379929Y-26319083D01*
X190327125Y-26364838D01*
X190257967Y-26374782D01*
X190194411Y-26345757D01*
X190169497Y-26316194D01*
X190110760Y-26219031D01*
X189994767Y-26103038D01*
X189854383Y-26018174D01*
X189697772Y-25969372D01*
X189632517Y-25963442D01*
X189632511Y-25963441D01*
X189629708Y-25963187D01*
X187470520Y-25963187D01*
X187467717Y-25963441D01*
X187467710Y-25963442D01*
X187402455Y-25969372D01*
X187245844Y-26018174D01*
X187105460Y-26103038D01*
X186989465Y-26219033D01*
X186904601Y-26359417D01*
X186855799Y-26516028D01*
X186855798Y-26516030D01*
X186855799Y-26516030D01*
X186849614Y-26584093D01*
X186849614Y-26586912D01*
X186849614Y-26594870D01*
X186829929Y-26661909D01*
X186777125Y-26707664D01*
X186707967Y-26717608D01*
X186644411Y-26688583D01*
X186629141Y-26672377D01*
X186502840Y-26575463D01*
X186356762Y-26514956D01*
X186200000Y-26494317D01*
X186043237Y-26514956D01*
X185897159Y-26575463D01*
X185771717Y-26671717D01*
X185675463Y-26797159D01*
X185614956Y-26943237D01*
X185594317Y-27100000D01*
X185614956Y-27256762D01*
X185675463Y-27402840D01*
X185771717Y-27528282D01*
X185839397Y-27580214D01*
X185897159Y-27624536D01*
X186043238Y-27685044D01*
X186200000Y-27705682D01*
X186356762Y-27685044D01*
X186502841Y-27624536D01*
X186628282Y-27528282D01*
X186628281Y-27528282D01*
X186641234Y-27518344D01*
X186641764Y-27519035D01*
X186683665Y-27488440D01*
X186753411Y-27484285D01*
X186814332Y-27518497D01*
X186847085Y-27580214D01*
X186849614Y-27605129D01*
X186849614Y-27643281D01*
X186849868Y-27646084D01*
X186849869Y-27646090D01*
X186855799Y-27711345D01*
X186904601Y-27867956D01*
X186989465Y-28008340D01*
X187105460Y-28124335D01*
X187190323Y-28175636D01*
X187245844Y-28209199D01*
X187336500Y-28237449D01*
X187361701Y-28245302D01*
X187419848Y-28284040D01*
X187447822Y-28348065D01*
X187436740Y-28417050D01*
X187390121Y-28469093D01*
X187361701Y-28482072D01*
X187245843Y-28518175D01*
X187105460Y-28603038D01*
X186989465Y-28719033D01*
X186904601Y-28859417D01*
X186855799Y-29016028D01*
X186855798Y-29016030D01*
X186855799Y-29016030D01*
X186849614Y-29084093D01*
X186849614Y-29086912D01*
X186849614Y-29094870D01*
X186829929Y-29161909D01*
X186777125Y-29207664D01*
X186707967Y-29217608D01*
X186644411Y-29188583D01*
X186629141Y-29172377D01*
X186502840Y-29075463D01*
X186356762Y-29014956D01*
X186200000Y-28994317D01*
X186043237Y-29014956D01*
X185897159Y-29075463D01*
X185771717Y-29171717D01*
X185675463Y-29297159D01*
X185614956Y-29443237D01*
X185594317Y-29600000D01*
X185614956Y-29756762D01*
X185675463Y-29902840D01*
X185771717Y-30028282D01*
X185839397Y-30080214D01*
X185897159Y-30124536D01*
X186043238Y-30185044D01*
X186200000Y-30205682D01*
X186356762Y-30185044D01*
X186502841Y-30124536D01*
X186628282Y-30028282D01*
X186628281Y-30028282D01*
X186641234Y-30018344D01*
X186641764Y-30019035D01*
X186683665Y-29988440D01*
X186753411Y-29984285D01*
X186814332Y-30018497D01*
X186847085Y-30080214D01*
X186849614Y-30105128D01*
X186849614Y-30143281D01*
X186849868Y-30146084D01*
X186849869Y-30146090D01*
X186855799Y-30211345D01*
X186904601Y-30367956D01*
X186989465Y-30508340D01*
X187105460Y-30624335D01*
X187190323Y-30675636D01*
X187245844Y-30709199D01*
X187336500Y-30737449D01*
X187361701Y-30745302D01*
X187419848Y-30784040D01*
X187447822Y-30848065D01*
X187436740Y-30917050D01*
X187390121Y-30969093D01*
X187361701Y-30982072D01*
X187245843Y-31018175D01*
X187105460Y-31103038D01*
X186989465Y-31219033D01*
X186904601Y-31359417D01*
X186855799Y-31516028D01*
X186855798Y-31516030D01*
X186855799Y-31516030D01*
X186849614Y-31584093D01*
X186849614Y-31586912D01*
X186849614Y-31594870D01*
X186829929Y-31661909D01*
X186777125Y-31707664D01*
X186707967Y-31717608D01*
X186644411Y-31688583D01*
X186629141Y-31672377D01*
X186502840Y-31575463D01*
X186356762Y-31514956D01*
X186200000Y-31494317D01*
X186043237Y-31514956D01*
X185897159Y-31575463D01*
X185771717Y-31671717D01*
X185675463Y-31797159D01*
X185614956Y-31943237D01*
X185594317Y-32100000D01*
X185614956Y-32256762D01*
X185675463Y-32402840D01*
X185771717Y-32528282D01*
X185839397Y-32580214D01*
X185897159Y-32624536D01*
X186043238Y-32685044D01*
X186200000Y-32705682D01*
X186356762Y-32685044D01*
X186502841Y-32624536D01*
X186628282Y-32528282D01*
X186628281Y-32528282D01*
X186641234Y-32518344D01*
X186641764Y-32519035D01*
X186683665Y-32488440D01*
X186753411Y-32484285D01*
X186814332Y-32518497D01*
X186847085Y-32580214D01*
X186849614Y-32605129D01*
X186849614Y-32643281D01*
X186849868Y-32646084D01*
X186849869Y-32646090D01*
X186855799Y-32711345D01*
X186904601Y-32867956D01*
X186989465Y-33008340D01*
X187073784Y-33092659D01*
X187107269Y-33153982D01*
X187102285Y-33223674D01*
X187060413Y-33279607D01*
X187043517Y-33290248D01*
X186985811Y-33320391D01*
X186832130Y-33445703D01*
X186747086Y-33550000D01*
X185500000Y-33550000D01*
X185500000Y-36950000D01*
X186600000Y-36950000D01*
X186826100Y-35774275D01*
X186832133Y-35781673D01*
X186904093Y-35840350D01*
X186943610Y-35897971D01*
X186945701Y-35967809D01*
X186924804Y-36003838D01*
X186926176Y-36004606D01*
X186872826Y-36099982D01*
X186852823Y-36168103D01*
X186844500Y-36226000D01*
X186844500Y-37826193D01*
X186824815Y-37893232D01*
X186813820Y-37907847D01*
X186643803Y-38102154D01*
X186584843Y-38139644D01*
X186550483Y-38144500D01*
X186226000Y-38144500D01*
X186222720Y-38144852D01*
X186222712Y-38144853D01*
X186185611Y-38148842D01*
X186185609Y-38148842D01*
X186182319Y-38149196D01*
X186179084Y-38149899D01*
X186179076Y-38149901D01*
X186129977Y-38160582D01*
X186128412Y-38160953D01*
X186119823Y-38163056D01*
X186039082Y-38206079D01*
X185986863Y-38251326D01*
X185986816Y-38251368D01*
X185985428Y-38252572D01*
X185984104Y-38253868D01*
X185984088Y-38253884D01*
X185967472Y-38270166D01*
X185922826Y-38349982D01*
X185902823Y-38418103D01*
X185894500Y-38476000D01*
X185894500Y-39524000D01*
X185899196Y-39567681D01*
X185899900Y-39570918D01*
X185899901Y-39570923D01*
X185910582Y-39620023D01*
X185910953Y-39621588D01*
X185913056Y-39630176D01*
X185956079Y-39710917D01*
X186001326Y-39763136D01*
X186001354Y-39763166D01*
X186002572Y-39764572D01*
X186020165Y-39782527D01*
X186099983Y-39827174D01*
X186140419Y-39839047D01*
X186168103Y-39847176D01*
X186226000Y-39855500D01*
X189920690Y-39855500D01*
X189924000Y-39855500D01*
X189967681Y-39850804D01*
X190020023Y-39839418D01*
X190021588Y-39839047D01*
X190030176Y-39836943D01*
X190030198Y-39836931D01*
X190030203Y-39836930D01*
X190110916Y-39793921D01*
X190119241Y-39786707D01*
X190163136Y-39748673D01*
X190163148Y-39748661D01*
X190164572Y-39747428D01*
X190182527Y-39729835D01*
X190182528Y-39729832D01*
X190188828Y-39723660D01*
X190250488Y-39690800D01*
X190320126Y-39696493D01*
X190375631Y-39738930D01*
X190399382Y-39804639D01*
X190399614Y-39812228D01*
X190399614Y-40563113D01*
X190397231Y-40587306D01*
X190394705Y-40600002D01*
X190397213Y-40612608D01*
X190397231Y-40612695D01*
X190414147Y-40697738D01*
X190414147Y-40697739D01*
X190414148Y-40697740D01*
X190469513Y-40780601D01*
X190552374Y-40835966D01*
X190650114Y-40855408D01*
X190662808Y-40852882D01*
X190686999Y-40850500D01*
X192813113Y-40850500D01*
X192837304Y-40852882D01*
X192849998Y-40855408D01*
X192859751Y-40853468D01*
X192862699Y-40852882D01*
X192862705Y-40852881D01*
X192871611Y-40851109D01*
X192874673Y-40850500D01*
X192874674Y-40850500D01*
X192885083Y-40848428D01*
X192891935Y-40847066D01*
X192935767Y-40838348D01*
X192941864Y-40837747D01*
X192941896Y-40837738D01*
X192947852Y-40836246D01*
X192953115Y-40833092D01*
X192953152Y-40833072D01*
X192957885Y-40829186D01*
X193030601Y-40780601D01*
X193085966Y-40697740D01*
X193105408Y-40600000D01*
X193102883Y-40587306D01*
X193100500Y-40563112D01*
X193100506Y-39827174D01*
X193100611Y-25488185D01*
X193120296Y-25421147D01*
X193173100Y-25375392D01*
X193224611Y-25364187D01*
X201225440Y-25364187D01*
X205875614Y-25364187D01*
X205942653Y-25383872D01*
X205988408Y-25436676D01*
X205999614Y-25488187D01*
X205999614Y-26252044D01*
X205979929Y-26319083D01*
X205927125Y-26364838D01*
X205857967Y-26374782D01*
X205794411Y-26345757D01*
X205769497Y-26316194D01*
X205710760Y-26219031D01*
X205594767Y-26103038D01*
X205454383Y-26018174D01*
X205297772Y-25969372D01*
X205232517Y-25963442D01*
X205232511Y-25963441D01*
X205229708Y-25963187D01*
X203070520Y-25963187D01*
X203067717Y-25963441D01*
X203067710Y-25963442D01*
X203002455Y-25969372D01*
X202845844Y-26018174D01*
X202705460Y-26103038D01*
X202589465Y-26219033D01*
X202504601Y-26359417D01*
X202455799Y-26516028D01*
X202455798Y-26516030D01*
X202455799Y-26516030D01*
X202449614Y-26584093D01*
X202449614Y-26586912D01*
X202449614Y-26594870D01*
X202429929Y-26661909D01*
X202377125Y-26707664D01*
X202307967Y-26717608D01*
X202244411Y-26688583D01*
X202229141Y-26672377D01*
X202102840Y-26575463D01*
X201956762Y-26514956D01*
X201800000Y-26494317D01*
X201643237Y-26514956D01*
X201497159Y-26575463D01*
X201371717Y-26671717D01*
X201275463Y-26797159D01*
X201214956Y-26943237D01*
X201194317Y-27100000D01*
X201214956Y-27256762D01*
X201275463Y-27402840D01*
X201371717Y-27528282D01*
X201439397Y-27580214D01*
X201497159Y-27624536D01*
X201643238Y-27685044D01*
X201800000Y-27705682D01*
X201956762Y-27685044D01*
X202102841Y-27624536D01*
X202228282Y-27528282D01*
X202228281Y-27528282D01*
X202241234Y-27518344D01*
X202241764Y-27519035D01*
X202283665Y-27488440D01*
X202353411Y-27484285D01*
X202414332Y-27518497D01*
X202447085Y-27580214D01*
X202449614Y-27605129D01*
X202449614Y-27643281D01*
X202449868Y-27646084D01*
X202449869Y-27646090D01*
X202455799Y-27711345D01*
X202504601Y-27867956D01*
X202589465Y-28008340D01*
X202705460Y-28124335D01*
X202790324Y-28175636D01*
X202845844Y-28209199D01*
X202936500Y-28237449D01*
X202961701Y-28245302D01*
X203019848Y-28284040D01*
X203047822Y-28348065D01*
X203036740Y-28417050D01*
X202990121Y-28469093D01*
X202961701Y-28482072D01*
X202845843Y-28518175D01*
X202705460Y-28603038D01*
X202589465Y-28719033D01*
X202504601Y-28859417D01*
X202455799Y-29016028D01*
X202455798Y-29016030D01*
X202455799Y-29016030D01*
X202449614Y-29084093D01*
X202449614Y-29086912D01*
X202449614Y-29094870D01*
X202429929Y-29161909D01*
X202377125Y-29207664D01*
X202307967Y-29217608D01*
X202244411Y-29188583D01*
X202229141Y-29172377D01*
X202102840Y-29075463D01*
X201956762Y-29014956D01*
X201800000Y-28994317D01*
X201643237Y-29014956D01*
X201497159Y-29075463D01*
X201371717Y-29171717D01*
X201275463Y-29297159D01*
X201214956Y-29443237D01*
X201194317Y-29600000D01*
X201214956Y-29756762D01*
X201275463Y-29902840D01*
X201371717Y-30028282D01*
X201439397Y-30080214D01*
X201497159Y-30124536D01*
X201643238Y-30185044D01*
X201800000Y-30205682D01*
X201956762Y-30185044D01*
X202102841Y-30124536D01*
X202228282Y-30028282D01*
X202228281Y-30028282D01*
X202241234Y-30018344D01*
X202241764Y-30019035D01*
X202283665Y-29988440D01*
X202353411Y-29984285D01*
X202414332Y-30018497D01*
X202447085Y-30080214D01*
X202449614Y-30105128D01*
X202449614Y-30143281D01*
X202449868Y-30146084D01*
X202449869Y-30146090D01*
X202455799Y-30211345D01*
X202504601Y-30367956D01*
X202589465Y-30508340D01*
X202705460Y-30624335D01*
X202790323Y-30675636D01*
X202845844Y-30709199D01*
X202936500Y-30737449D01*
X202961701Y-30745302D01*
X203019848Y-30784040D01*
X203047822Y-30848065D01*
X203036740Y-30917050D01*
X202990121Y-30969093D01*
X202961701Y-30982072D01*
X202845843Y-31018175D01*
X202705460Y-31103038D01*
X202589465Y-31219033D01*
X202504601Y-31359417D01*
X202455799Y-31516028D01*
X202455798Y-31516030D01*
X202455799Y-31516030D01*
X202449614Y-31584093D01*
X202449614Y-31586912D01*
X202449614Y-31594870D01*
X202429929Y-31661909D01*
X202377125Y-31707664D01*
X202307967Y-31717608D01*
X202244411Y-31688583D01*
X202229141Y-31672377D01*
X202102840Y-31575463D01*
X201956762Y-31514956D01*
X201800000Y-31494317D01*
X201643237Y-31514956D01*
X201497159Y-31575463D01*
X201371717Y-31671717D01*
X201275463Y-31797159D01*
X201214956Y-31943237D01*
X201194317Y-32100000D01*
X201214956Y-32256762D01*
X201275463Y-32402840D01*
X201371717Y-32528282D01*
X201439397Y-32580214D01*
X201497159Y-32624536D01*
X201643238Y-32685044D01*
X201800000Y-32705682D01*
X201956762Y-32685044D01*
X202102841Y-32624536D01*
X202228282Y-32528282D01*
X202228281Y-32528282D01*
X202241234Y-32518344D01*
X202241764Y-32519035D01*
X202283665Y-32488440D01*
X202353411Y-32484285D01*
X202414332Y-32518497D01*
X202447085Y-32580214D01*
X202449614Y-32605128D01*
X202449614Y-32643281D01*
X202449868Y-32646084D01*
X202449869Y-32646090D01*
X202455799Y-32711345D01*
X202504601Y-32867956D01*
X202589465Y-33008340D01*
X202673784Y-33092659D01*
X202707269Y-33153982D01*
X202702285Y-33223674D01*
X202660413Y-33279607D01*
X202643517Y-33290248D01*
X202585811Y-33320391D01*
X202432130Y-33445703D01*
X202347086Y-33550000D01*
X201100000Y-33550000D01*
X201100000Y-36950000D01*
X202200000Y-36950000D01*
X202426100Y-35774275D01*
X202432133Y-35781673D01*
X202504093Y-35840350D01*
X202543610Y-35897971D01*
X202545701Y-35967809D01*
X202524804Y-36003839D01*
X202526176Y-36004607D01*
X202517473Y-36020164D01*
X202517473Y-36020165D01*
X202498459Y-36054156D01*
X202472825Y-36099984D01*
X202452823Y-36168102D01*
X202444500Y-36225999D01*
X202444500Y-37826193D01*
X202424815Y-37893232D01*
X202413820Y-37907847D01*
X202243803Y-38102154D01*
X202184843Y-38139644D01*
X202150483Y-38144500D01*
X201826000Y-38144500D01*
X201822720Y-38144852D01*
X201822712Y-38144853D01*
X201785611Y-38148842D01*
X201785609Y-38148842D01*
X201782319Y-38149196D01*
X201779084Y-38149899D01*
X201779076Y-38149901D01*
X201729977Y-38160582D01*
X201728412Y-38160953D01*
X201719823Y-38163056D01*
X201639082Y-38206079D01*
X201586863Y-38251326D01*
X201586816Y-38251368D01*
X201585428Y-38252572D01*
X201584104Y-38253868D01*
X201584088Y-38253884D01*
X201567472Y-38270166D01*
X201522826Y-38349982D01*
X201502823Y-38418103D01*
X201494500Y-38476000D01*
X201494500Y-39524000D01*
X201499196Y-39567681D01*
X201499900Y-39570918D01*
X201499901Y-39570923D01*
X201510582Y-39620023D01*
X201510953Y-39621588D01*
X201513056Y-39630176D01*
X201556079Y-39710917D01*
X201601326Y-39763136D01*
X201601354Y-39763166D01*
X201602572Y-39764572D01*
X201620165Y-39782527D01*
X201699983Y-39827174D01*
X201740419Y-39839047D01*
X201768103Y-39847176D01*
X201826000Y-39855500D01*
X205520690Y-39855500D01*
X205524000Y-39855500D01*
X205567681Y-39850804D01*
X205620023Y-39839418D01*
X205621588Y-39839047D01*
X205630176Y-39836943D01*
X205630198Y-39836931D01*
X205630203Y-39836930D01*
X205710916Y-39793921D01*
X205719241Y-39786707D01*
X205763136Y-39748673D01*
X205763148Y-39748661D01*
X205764572Y-39747428D01*
X205782527Y-39729835D01*
X205782528Y-39729832D01*
X205788828Y-39723660D01*
X205850488Y-39690800D01*
X205920126Y-39696493D01*
X205975631Y-39738930D01*
X205999382Y-39804639D01*
X205999614Y-39812228D01*
X205999613Y-40563113D01*
X205997231Y-40587303D01*
X205994705Y-40600001D01*
X205997213Y-40612608D01*
X205997231Y-40612695D01*
X206014147Y-40697738D01*
X206014147Y-40697739D01*
X206014148Y-40697740D01*
X206069513Y-40780601D01*
X206152374Y-40835966D01*
X206250114Y-40855408D01*
X206262808Y-40852882D01*
X206286999Y-40850500D01*
X208413113Y-40850500D01*
X208437304Y-40852882D01*
X208449998Y-40855408D01*
X208459751Y-40853468D01*
X208462699Y-40852882D01*
X208462705Y-40852881D01*
X208471611Y-40851109D01*
X208474673Y-40850500D01*
X208474674Y-40850500D01*
X208485083Y-40848428D01*
X208491935Y-40847066D01*
X208535767Y-40838348D01*
X208541864Y-40837747D01*
X208541896Y-40837738D01*
X208547852Y-40836246D01*
X208553115Y-40833092D01*
X208553152Y-40833072D01*
X208557885Y-40829186D01*
X208630601Y-40780601D01*
X208685966Y-40697740D01*
X208705408Y-40600000D01*
X208702883Y-40587306D01*
X208700500Y-40563112D01*
X208700506Y-39827174D01*
X208700526Y-37067764D01*
X210545787Y-37067764D01*
X210575413Y-37337016D01*
X210643928Y-37599087D01*
X210749871Y-37848392D01*
X210890982Y-38079611D01*
X211036013Y-38253884D01*
X211064255Y-38287820D01*
X211265998Y-38468582D01*
X211491910Y-38618044D01*
X211598211Y-38667876D01*
X211737177Y-38733021D01*
X211996562Y-38811058D01*
X211996569Y-38811060D01*
X212264561Y-38850500D01*
X212264564Y-38850500D01*
X212465369Y-38850500D01*
X212467631Y-38850500D01*
X212670156Y-38835677D01*
X212934553Y-38776780D01*
X213187558Y-38680014D01*
X213423777Y-38547441D01*
X213638177Y-38381888D01*
X213826186Y-38186881D01*
X213983799Y-37966579D01*
X214107656Y-37725675D01*
X214195118Y-37469305D01*
X214244319Y-37202933D01*
X214254212Y-36932235D01*
X214224586Y-36662982D01*
X214156072Y-36400912D01*
X214050130Y-36151610D01*
X213960415Y-36004607D01*
X213909017Y-35920388D01*
X213735746Y-35712181D01*
X213630759Y-35618112D01*
X213534002Y-35531418D01*
X213308090Y-35381956D01*
X213308086Y-35381954D01*
X213062822Y-35266978D01*
X212803437Y-35188941D01*
X212803431Y-35188940D01*
X212535439Y-35149500D01*
X212332369Y-35149500D01*
X212330120Y-35149664D01*
X212330109Y-35149665D01*
X212129843Y-35164322D01*
X211865449Y-35223219D01*
X211612441Y-35319986D01*
X211376223Y-35452559D01*
X211161825Y-35618109D01*
X210973813Y-35813120D01*
X210816201Y-36033420D01*
X210692342Y-36274329D01*
X210604881Y-36530695D01*
X210555680Y-36797066D01*
X210545787Y-37067764D01*
X208700526Y-37067764D01*
X208700611Y-25488185D01*
X208720296Y-25421147D01*
X208773100Y-25375392D01*
X208824611Y-25364187D01*
X216825440Y-25364187D01*
X221475613Y-25364187D01*
X221542652Y-25383872D01*
X221588407Y-25436676D01*
X221599613Y-25488188D01*
X221599609Y-26252037D01*
X221579924Y-26319076D01*
X221527120Y-26364831D01*
X221457961Y-26374774D01*
X221394406Y-26345749D01*
X221369492Y-26316185D01*
X221310762Y-26219033D01*
X221194767Y-26103038D01*
X221054383Y-26018174D01*
X220897772Y-25969372D01*
X220832517Y-25963442D01*
X220832511Y-25963441D01*
X220829708Y-25963187D01*
X218670520Y-25963187D01*
X218667717Y-25963441D01*
X218667710Y-25963442D01*
X218602455Y-25969372D01*
X218445844Y-26018174D01*
X218305460Y-26103038D01*
X218189465Y-26219033D01*
X218104601Y-26359417D01*
X218055799Y-26516028D01*
X218055798Y-26516030D01*
X218055799Y-26516030D01*
X218049614Y-26584093D01*
X218049614Y-26586912D01*
X218049614Y-26594870D01*
X218029929Y-26661909D01*
X217977125Y-26707664D01*
X217907967Y-26717608D01*
X217844411Y-26688583D01*
X217829141Y-26672377D01*
X217702840Y-26575463D01*
X217556762Y-26514956D01*
X217400000Y-26494317D01*
X217243237Y-26514956D01*
X217097159Y-26575463D01*
X216971717Y-26671717D01*
X216875463Y-26797159D01*
X216814956Y-26943237D01*
X216794317Y-27100000D01*
X216814956Y-27256762D01*
X216875463Y-27402840D01*
X216971717Y-27528282D01*
X217039397Y-27580214D01*
X217097159Y-27624536D01*
X217243238Y-27685044D01*
X217400000Y-27705682D01*
X217556762Y-27685044D01*
X217702841Y-27624536D01*
X217828282Y-27528282D01*
X217828281Y-27528282D01*
X217841234Y-27518344D01*
X217841764Y-27519035D01*
X217883665Y-27488440D01*
X217953411Y-27484285D01*
X218014332Y-27518497D01*
X218047085Y-27580214D01*
X218049614Y-27605129D01*
X218049614Y-27643281D01*
X218049868Y-27646084D01*
X218049869Y-27646090D01*
X218055799Y-27711345D01*
X218104601Y-27867956D01*
X218189465Y-28008340D01*
X218305460Y-28124335D01*
X218390323Y-28175636D01*
X218445844Y-28209199D01*
X218536500Y-28237449D01*
X218561701Y-28245302D01*
X218619848Y-28284040D01*
X218647822Y-28348065D01*
X218636740Y-28417050D01*
X218590121Y-28469093D01*
X218561701Y-28482072D01*
X218445843Y-28518175D01*
X218305460Y-28603038D01*
X218189465Y-28719033D01*
X218104601Y-28859417D01*
X218055799Y-29016028D01*
X218055798Y-29016030D01*
X218055799Y-29016030D01*
X218049614Y-29084093D01*
X218049614Y-29086912D01*
X218049614Y-29094870D01*
X218029929Y-29161909D01*
X217977125Y-29207664D01*
X217907967Y-29217608D01*
X217844411Y-29188583D01*
X217829141Y-29172377D01*
X217702840Y-29075463D01*
X217556762Y-29014956D01*
X217400000Y-28994317D01*
X217243237Y-29014956D01*
X217097159Y-29075463D01*
X216971717Y-29171717D01*
X216875463Y-29297159D01*
X216814956Y-29443237D01*
X216794317Y-29600000D01*
X216814956Y-29756762D01*
X216875463Y-29902840D01*
X216971717Y-30028282D01*
X217039397Y-30080214D01*
X217097159Y-30124536D01*
X217243238Y-30185044D01*
X217400000Y-30205682D01*
X217556762Y-30185044D01*
X217702841Y-30124536D01*
X217828282Y-30028282D01*
X217828281Y-30028282D01*
X217841234Y-30018344D01*
X217841764Y-30019035D01*
X217883665Y-29988440D01*
X217953411Y-29984285D01*
X218014332Y-30018497D01*
X218047085Y-30080214D01*
X218049614Y-30105128D01*
X218049614Y-30143281D01*
X218049868Y-30146084D01*
X218049869Y-30146090D01*
X218055799Y-30211345D01*
X218104601Y-30367956D01*
X218189465Y-30508340D01*
X218305460Y-30624335D01*
X218390323Y-30675636D01*
X218445844Y-30709199D01*
X218536500Y-30737449D01*
X218561701Y-30745302D01*
X218619848Y-30784040D01*
X218647822Y-30848065D01*
X218636740Y-30917050D01*
X218590121Y-30969093D01*
X218561701Y-30982072D01*
X218445843Y-31018175D01*
X218305460Y-31103038D01*
X218189465Y-31219033D01*
X218104601Y-31359417D01*
X218055799Y-31516028D01*
X218055798Y-31516030D01*
X218055799Y-31516030D01*
X218049614Y-31584093D01*
X218049614Y-31586912D01*
X218049614Y-31594870D01*
X218029929Y-31661909D01*
X217977125Y-31707664D01*
X217907967Y-31717608D01*
X217844411Y-31688583D01*
X217829141Y-31672377D01*
X217702840Y-31575463D01*
X217556762Y-31514956D01*
X217400000Y-31494317D01*
X217243237Y-31514956D01*
X217097159Y-31575463D01*
X216971717Y-31671717D01*
X216875463Y-31797159D01*
X216814956Y-31943237D01*
X216794317Y-32100000D01*
X216814956Y-32256762D01*
X216875463Y-32402840D01*
X216971717Y-32528282D01*
X217039397Y-32580214D01*
X217097159Y-32624536D01*
X217243238Y-32685044D01*
X217400000Y-32705682D01*
X217556762Y-32685044D01*
X217702841Y-32624536D01*
X217828282Y-32528282D01*
X217828281Y-32528282D01*
X217841234Y-32518344D01*
X217841764Y-32519035D01*
X217883665Y-32488440D01*
X217953411Y-32484285D01*
X218014332Y-32518497D01*
X218047085Y-32580214D01*
X218049614Y-32605128D01*
X218049614Y-32643281D01*
X218049868Y-32646084D01*
X218049869Y-32646090D01*
X218055799Y-32711345D01*
X218104601Y-32867956D01*
X218189465Y-33008340D01*
X218273784Y-33092659D01*
X218307269Y-33153982D01*
X218302285Y-33223674D01*
X218260413Y-33279607D01*
X218243517Y-33290248D01*
X218185811Y-33320391D01*
X218032130Y-33445703D01*
X217947086Y-33550000D01*
X216700000Y-33550000D01*
X216700000Y-36950000D01*
X217800000Y-36950000D01*
X218026100Y-35774275D01*
X218032133Y-35781673D01*
X218104093Y-35840350D01*
X218143610Y-35897971D01*
X218145701Y-35967809D01*
X218124804Y-36003838D01*
X218126176Y-36004606D01*
X218072826Y-36099982D01*
X218052823Y-36168103D01*
X218044500Y-36226000D01*
X218044500Y-37826193D01*
X218024815Y-37893232D01*
X218013820Y-37907847D01*
X217843803Y-38102154D01*
X217784843Y-38139644D01*
X217750483Y-38144500D01*
X217426000Y-38144500D01*
X217422720Y-38144852D01*
X217422712Y-38144853D01*
X217385611Y-38148842D01*
X217385609Y-38148842D01*
X217382319Y-38149196D01*
X217379084Y-38149899D01*
X217379076Y-38149901D01*
X217329977Y-38160582D01*
X217328412Y-38160953D01*
X217319823Y-38163056D01*
X217239082Y-38206079D01*
X217186863Y-38251326D01*
X217186816Y-38251368D01*
X217185428Y-38252572D01*
X217184104Y-38253868D01*
X217184088Y-38253884D01*
X217167472Y-38270166D01*
X217122826Y-38349982D01*
X217102823Y-38418103D01*
X217094500Y-38476000D01*
X217094500Y-39524000D01*
X217099196Y-39567681D01*
X217099900Y-39570918D01*
X217099901Y-39570923D01*
X217110582Y-39620023D01*
X217110953Y-39621588D01*
X217113056Y-39630176D01*
X217156079Y-39710917D01*
X217201326Y-39763136D01*
X217201354Y-39763166D01*
X217202572Y-39764572D01*
X217220165Y-39782527D01*
X217299983Y-39827174D01*
X217340419Y-39839047D01*
X217368103Y-39847176D01*
X217426000Y-39855500D01*
X217525500Y-39855500D01*
X217592539Y-39875185D01*
X217638294Y-39927989D01*
X217649500Y-39979500D01*
X217649500Y-47208480D01*
X217629815Y-47275519D01*
X217613181Y-47296161D01*
X217361162Y-47548181D01*
X217299839Y-47581666D01*
X217273481Y-47584500D01*
X216465634Y-47584500D01*
X216398595Y-47564815D01*
X216373997Y-47544038D01*
X216237237Y-47394019D01*
X216059688Y-47259941D01*
X215860526Y-47160769D01*
X215646537Y-47099885D01*
X215483363Y-47084765D01*
X215483362Y-47084764D01*
X215480503Y-47084500D01*
X212829497Y-47084500D01*
X212826638Y-47084764D01*
X212826636Y-47084765D01*
X212663462Y-47099885D01*
X212449473Y-47160769D01*
X212250311Y-47259941D01*
X212072762Y-47394019D01*
X211922875Y-47558437D01*
X211805754Y-47747595D01*
X211740879Y-47915057D01*
X211725382Y-47955060D01*
X211684500Y-48173757D01*
X211684500Y-48396243D01*
X211725382Y-48614939D01*
X211805754Y-48822404D01*
X211922875Y-49011562D01*
X212072762Y-49175980D01*
X212250313Y-49310060D01*
X212353288Y-49361335D01*
X212404526Y-49408838D01*
X212421947Y-49476500D01*
X212400022Y-49542841D01*
X212350422Y-49584717D01*
X212207421Y-49651400D01*
X212013921Y-49786890D01*
X211846890Y-49953921D01*
X211711400Y-50147421D01*
X211611569Y-50361507D01*
X211554364Y-50574999D01*
X211554364Y-50575000D01*
X212451314Y-50575000D01*
X212425507Y-50615156D01*
X212385000Y-50753111D01*
X212385000Y-50896889D01*
X212425507Y-51034844D01*
X212451314Y-51075000D01*
X211554364Y-51075000D01*
X211611569Y-51288492D01*
X211711399Y-51502576D01*
X211846893Y-51696081D01*
X212013918Y-51863106D01*
X212207423Y-51998600D01*
X212421509Y-52098430D01*
X212635000Y-52155634D01*
X212635000Y-51260501D01*
X212742685Y-51309680D01*
X212849237Y-51325000D01*
X212920763Y-51325000D01*
X213027315Y-51309680D01*
X213134999Y-51260501D01*
X213134999Y-52155633D01*
X213348491Y-52098430D01*
X213562576Y-51998600D01*
X213756077Y-51863109D01*
X213878521Y-51740665D01*
X213939844Y-51707180D01*
X214009536Y-51712164D01*
X214065470Y-51754035D01*
X214082385Y-51785012D01*
X214131647Y-51917088D01*
X214217811Y-52032188D01*
X214332910Y-52118352D01*
X214467628Y-52168599D01*
X214523867Y-52174645D01*
X214530482Y-52175000D01*
X215174999Y-52175000D01*
X215174999Y-51260501D01*
X215282685Y-51309680D01*
X215389237Y-51325000D01*
X215460763Y-51325000D01*
X215567315Y-51309680D01*
X215674999Y-51260501D01*
X215674999Y-52174999D01*
X215675000Y-52175000D01*
X216319518Y-52175000D01*
X216326132Y-52174645D01*
X216382371Y-52168599D01*
X216517089Y-52118352D01*
X216632188Y-52032188D01*
X216718352Y-51917089D01*
X216768599Y-51782371D01*
X216774645Y-51726132D01*
X216775000Y-51719518D01*
X216775000Y-51075000D01*
X215858686Y-51075000D01*
X215884493Y-51034844D01*
X215925000Y-50896889D01*
X215925000Y-50753111D01*
X215884493Y-50615156D01*
X215858686Y-50575000D01*
X216775000Y-50575000D01*
X216775000Y-49930481D01*
X216774645Y-49923867D01*
X216768599Y-49867628D01*
X216718352Y-49732910D01*
X216632188Y-49617811D01*
X216517089Y-49531647D01*
X216382371Y-49481400D01*
X216326132Y-49475354D01*
X216319518Y-49475000D01*
X216211237Y-49475000D01*
X216144198Y-49455315D01*
X216098443Y-49402511D01*
X216088499Y-49333353D01*
X216117524Y-49269797D01*
X216136510Y-49252046D01*
X216237237Y-49175980D01*
X216373997Y-49025962D01*
X216433708Y-48989680D01*
X216465634Y-48985500D01*
X217590079Y-48985500D01*
X217597566Y-48985726D01*
X217600706Y-48985915D01*
X217657606Y-48989358D01*
X217716782Y-48978513D01*
X217724181Y-48977387D01*
X217783872Y-48970140D01*
X217793335Y-48966550D01*
X217814958Y-48960522D01*
X217824932Y-48958695D01*
X217879808Y-48933996D01*
X217886673Y-48931152D01*
X217942930Y-48909818D01*
X217951270Y-48904060D01*
X217970819Y-48893035D01*
X217980057Y-48888878D01*
X218027413Y-48851775D01*
X218033420Y-48847355D01*
X218082929Y-48813183D01*
X218122823Y-48768150D01*
X218127924Y-48762731D01*
X218827731Y-48062924D01*
X218833150Y-48057823D01*
X218878183Y-48017929D01*
X218912355Y-47968420D01*
X218916775Y-47962413D01*
X218953878Y-47915057D01*
X218958035Y-47905819D01*
X218969060Y-47886270D01*
X218974818Y-47877930D01*
X218996150Y-47821678D01*
X218998999Y-47814800D01*
X219023695Y-47759931D01*
X219025522Y-47749956D01*
X219031549Y-47728339D01*
X219035140Y-47718872D01*
X219042387Y-47659179D01*
X219043514Y-47651777D01*
X219054358Y-47592606D01*
X219050726Y-47532566D01*
X219050500Y-47525079D01*
X219050500Y-39979500D01*
X219070185Y-39912461D01*
X219122989Y-39866706D01*
X219174500Y-39855500D01*
X221120690Y-39855500D01*
X221124000Y-39855500D01*
X221167681Y-39850804D01*
X221220023Y-39839418D01*
X221221588Y-39839047D01*
X221230176Y-39836943D01*
X221230198Y-39836931D01*
X221230203Y-39836930D01*
X221310916Y-39793921D01*
X221319241Y-39786707D01*
X221363136Y-39748673D01*
X221363148Y-39748661D01*
X221364572Y-39747428D01*
X221382527Y-39729835D01*
X221382528Y-39729832D01*
X221388772Y-39723715D01*
X221450433Y-39690855D01*
X221520070Y-39696548D01*
X221575575Y-39738985D01*
X221599326Y-39804694D01*
X221599558Y-39812283D01*
X221599500Y-55044875D01*
X221579815Y-55111915D01*
X221563181Y-55132556D01*
X220782559Y-55913181D01*
X220721236Y-55946666D01*
X220694878Y-55949500D01*
X208605123Y-55949500D01*
X208538084Y-55929815D01*
X208517442Y-55913181D01*
X203653217Y-51048957D01*
X203637794Y-51030165D01*
X203630601Y-51019400D01*
X203630601Y-51019399D01*
X203577536Y-50983942D01*
X203563035Y-50974253D01*
X203547739Y-50964032D01*
X203450000Y-50944591D01*
X203439303Y-50946719D01*
X203437305Y-50947117D01*
X203413115Y-50949500D01*
X39686890Y-50949500D01*
X39662698Y-50947117D01*
X39650000Y-50944591D01*
X39649999Y-50944591D01*
X39547110Y-50965057D01*
X39536965Y-50974253D01*
X39469397Y-51019400D01*
X39462202Y-51030168D01*
X39446785Y-51048952D01*
X34582559Y-55913181D01*
X34521236Y-55946666D01*
X34494878Y-55949500D01*
X22405123Y-55949500D01*
X22338084Y-55929815D01*
X22317442Y-55913181D01*
X21536819Y-55132559D01*
X21503334Y-55071236D01*
X21500500Y-55044878D01*
X21500513Y-51785012D01*
X21500516Y-51075000D01*
X24354364Y-51075000D01*
X24411569Y-51288492D01*
X24511399Y-51502576D01*
X24646893Y-51696081D01*
X24813918Y-51863106D01*
X25007423Y-51998600D01*
X25221509Y-52098430D01*
X25435000Y-52155634D01*
X25435000Y-51260501D01*
X25542685Y-51309680D01*
X25649237Y-51325000D01*
X25720763Y-51325000D01*
X25827315Y-51309680D01*
X25935000Y-51260501D01*
X25935000Y-52155633D01*
X26148490Y-52098430D01*
X26362576Y-51998600D01*
X26556077Y-51863109D01*
X26678521Y-51740665D01*
X26739844Y-51707180D01*
X26809536Y-51712164D01*
X26865470Y-51754035D01*
X26882385Y-51785012D01*
X26931647Y-51917088D01*
X27017811Y-52032188D01*
X27132910Y-52118352D01*
X27267628Y-52168599D01*
X27323867Y-52174645D01*
X27330482Y-52175000D01*
X27975000Y-52175000D01*
X27975000Y-51260501D01*
X28082685Y-51309680D01*
X28189237Y-51325000D01*
X28260763Y-51325000D01*
X28367315Y-51309680D01*
X28475000Y-51260501D01*
X28475000Y-52175000D01*
X29119518Y-52175000D01*
X29126132Y-52174645D01*
X29182371Y-52168599D01*
X29317089Y-52118352D01*
X29432188Y-52032188D01*
X29518352Y-51917089D01*
X29568599Y-51782371D01*
X29574645Y-51726132D01*
X29575000Y-51719518D01*
X29575000Y-51075000D01*
X28658686Y-51075000D01*
X28684493Y-51034844D01*
X28725000Y-50896889D01*
X28725000Y-50753111D01*
X28684493Y-50615156D01*
X28658686Y-50575000D01*
X29575000Y-50575000D01*
X29575000Y-49930481D01*
X29574645Y-49923867D01*
X29568599Y-49867628D01*
X29518352Y-49732910D01*
X29432188Y-49617811D01*
X29317089Y-49531647D01*
X29182371Y-49481400D01*
X29126132Y-49475354D01*
X29119518Y-49475000D01*
X29011237Y-49475000D01*
X28944198Y-49455315D01*
X28898443Y-49402511D01*
X28888499Y-49333353D01*
X28917524Y-49269797D01*
X28936510Y-49252046D01*
X29037237Y-49175980D01*
X29187124Y-49011562D01*
X29304245Y-48822404D01*
X29304244Y-48822404D01*
X29304247Y-48822401D01*
X29384618Y-48614940D01*
X29425500Y-48396243D01*
X29425500Y-48173757D01*
X29384618Y-47955060D01*
X29304247Y-47747599D01*
X29298846Y-47738876D01*
X29187124Y-47558437D01*
X29037237Y-47394019D01*
X28859688Y-47259941D01*
X28660526Y-47160769D01*
X28446537Y-47099885D01*
X28283363Y-47084765D01*
X28283362Y-47084764D01*
X28280503Y-47084500D01*
X25629497Y-47084500D01*
X25626638Y-47084764D01*
X25626636Y-47084765D01*
X25463462Y-47099885D01*
X25249473Y-47160769D01*
X25050311Y-47259941D01*
X24872762Y-47394019D01*
X24722875Y-47558437D01*
X24605754Y-47747595D01*
X24540879Y-47915057D01*
X24525382Y-47955060D01*
X24484500Y-48173757D01*
X24484500Y-48396243D01*
X24525382Y-48614939D01*
X24605754Y-48822404D01*
X24722875Y-49011562D01*
X24872762Y-49175980D01*
X25050313Y-49310060D01*
X25153288Y-49361335D01*
X25204526Y-49408838D01*
X25221947Y-49476500D01*
X25200022Y-49542841D01*
X25150422Y-49584717D01*
X25007421Y-49651400D01*
X24813921Y-49786890D01*
X24646890Y-49953921D01*
X24511400Y-50147421D01*
X24411569Y-50361507D01*
X24354364Y-50574999D01*
X24354364Y-50575000D01*
X25251314Y-50575000D01*
X25225507Y-50615156D01*
X25185000Y-50753111D01*
X25185000Y-50896889D01*
X25225507Y-51034844D01*
X25251314Y-51075000D01*
X24354364Y-51075000D01*
X21500516Y-51075000D01*
X21500535Y-45745000D01*
X24629417Y-45745000D01*
X24649699Y-45950932D01*
X24679734Y-46049944D01*
X24703497Y-46128282D01*
X24709769Y-46148956D01*
X24748344Y-46221124D01*
X24807315Y-46331450D01*
X24858609Y-46393952D01*
X24938589Y-46491410D01*
X25018569Y-46557047D01*
X25098550Y-46622685D01*
X25281046Y-46720232D01*
X25479066Y-46780300D01*
X25685000Y-46800583D01*
X25890934Y-46780300D01*
X26088954Y-46720232D01*
X26271450Y-46622685D01*
X26431410Y-46491410D01*
X26562685Y-46331450D01*
X26660232Y-46148954D01*
X26720300Y-45950934D01*
X26740583Y-45745000D01*
X26720300Y-45539066D01*
X26660232Y-45341046D01*
X26562685Y-45158550D01*
X26497047Y-45078570D01*
X26431410Y-44998589D01*
X26271448Y-44867313D01*
X26201045Y-44829681D01*
X26151202Y-44780718D01*
X26135500Y-44720324D01*
X26135500Y-44452965D01*
X26155185Y-44385926D01*
X26171819Y-44365284D01*
X27100284Y-43436819D01*
X27161607Y-43403334D01*
X27187965Y-43400500D01*
X29858581Y-43400500D01*
X29925620Y-43420185D01*
X29934055Y-43426115D01*
X29997159Y-43474536D01*
X29997160Y-43474536D01*
X29997161Y-43474537D01*
X30085043Y-43510939D01*
X30139447Y-43554780D01*
X30161512Y-43621074D01*
X30144233Y-43688773D01*
X30093096Y-43736384D01*
X30037591Y-43749500D01*
X29802262Y-43749500D01*
X29788378Y-43748720D01*
X29752963Y-43744729D01*
X29696811Y-43755354D01*
X29692241Y-43756131D01*
X29629758Y-43765549D01*
X29624850Y-43767164D01*
X29568965Y-43796699D01*
X29564830Y-43798786D01*
X29507948Y-43826180D01*
X29503707Y-43829189D01*
X29459046Y-43873849D01*
X29455709Y-43877063D01*
X29409394Y-43920037D01*
X29397968Y-43934926D01*
X28631002Y-44701892D01*
X28569679Y-44735377D01*
X28507328Y-44732872D01*
X28430936Y-44709700D01*
X28225000Y-44689417D01*
X28019067Y-44709699D01*
X27821043Y-44769769D01*
X27638551Y-44867314D01*
X27478589Y-44998589D01*
X27347314Y-45158551D01*
X27249769Y-45341043D01*
X27189699Y-45539067D01*
X27169417Y-45745000D01*
X27189699Y-45950932D01*
X27219733Y-46049944D01*
X27243497Y-46128282D01*
X27249769Y-46148956D01*
X27288344Y-46221124D01*
X27347315Y-46331450D01*
X27398609Y-46393952D01*
X27478589Y-46491410D01*
X27558569Y-46557047D01*
X27638550Y-46622685D01*
X27821046Y-46720232D01*
X28019066Y-46780300D01*
X28225000Y-46800583D01*
X28430934Y-46780300D01*
X28628954Y-46720232D01*
X28811450Y-46622685D01*
X28971410Y-46491410D01*
X29102685Y-46331450D01*
X29200232Y-46148954D01*
X29260300Y-45950934D01*
X29280583Y-45745000D01*
X29260300Y-45539066D01*
X29237125Y-45462671D01*
X29236503Y-45392805D01*
X29268104Y-45338998D01*
X29920284Y-44686819D01*
X29981607Y-44653334D01*
X30007965Y-44650500D01*
X43358581Y-44650500D01*
X43425620Y-44670185D01*
X43434055Y-44676115D01*
X43497159Y-44724536D01*
X43643238Y-44785044D01*
X43800000Y-44805682D01*
X43956762Y-44785044D01*
X44102841Y-44724536D01*
X44165934Y-44676123D01*
X44231102Y-44650930D01*
X44241419Y-44650500D01*
X58958581Y-44650500D01*
X59025620Y-44670185D01*
X59034055Y-44676115D01*
X59097159Y-44724536D01*
X59243238Y-44785044D01*
X59400000Y-44805682D01*
X59556762Y-44785044D01*
X59702841Y-44724536D01*
X59765934Y-44676123D01*
X59831102Y-44650930D01*
X59841419Y-44650500D01*
X74558581Y-44650500D01*
X74625620Y-44670185D01*
X74634055Y-44676115D01*
X74697159Y-44724536D01*
X74843238Y-44785044D01*
X75000000Y-44805682D01*
X75156762Y-44785044D01*
X75302841Y-44724536D01*
X75365934Y-44676123D01*
X75431102Y-44650930D01*
X75441419Y-44650500D01*
X90158581Y-44650500D01*
X90225620Y-44670185D01*
X90234055Y-44676115D01*
X90297159Y-44724536D01*
X90443238Y-44785044D01*
X90600000Y-44805682D01*
X90756762Y-44785044D01*
X90902841Y-44724536D01*
X90965934Y-44676123D01*
X91031102Y-44650930D01*
X91041419Y-44650500D01*
X105758581Y-44650500D01*
X105825620Y-44670185D01*
X105834055Y-44676115D01*
X105897159Y-44724536D01*
X106043238Y-44785044D01*
X106200000Y-44805682D01*
X106356762Y-44785044D01*
X106502841Y-44724536D01*
X106565934Y-44676123D01*
X106631102Y-44650930D01*
X106641419Y-44650500D01*
X121358581Y-44650500D01*
X121425620Y-44670185D01*
X121434055Y-44676115D01*
X121497159Y-44724536D01*
X121643238Y-44785044D01*
X121800000Y-44805682D01*
X121956762Y-44785044D01*
X122102841Y-44724536D01*
X122165934Y-44676123D01*
X122231102Y-44650930D01*
X122241419Y-44650500D01*
X136958581Y-44650500D01*
X137025620Y-44670185D01*
X137034055Y-44676115D01*
X137097159Y-44724536D01*
X137243238Y-44785044D01*
X137400000Y-44805682D01*
X137556762Y-44785044D01*
X137702841Y-44724536D01*
X137765934Y-44676123D01*
X137831102Y-44650930D01*
X137841419Y-44650500D01*
X152558581Y-44650500D01*
X152625620Y-44670185D01*
X152634055Y-44676115D01*
X152697159Y-44724536D01*
X152843238Y-44785044D01*
X153000000Y-44805682D01*
X153156762Y-44785044D01*
X153302841Y-44724536D01*
X153365934Y-44676123D01*
X153431102Y-44650930D01*
X153441419Y-44650500D01*
X168158581Y-44650500D01*
X168225620Y-44670185D01*
X168234055Y-44676115D01*
X168297159Y-44724536D01*
X168443238Y-44785044D01*
X168600000Y-44805682D01*
X168756762Y-44785044D01*
X168902841Y-44724536D01*
X168965934Y-44676123D01*
X169031102Y-44650930D01*
X169041419Y-44650500D01*
X183758581Y-44650500D01*
X183825620Y-44670185D01*
X183834055Y-44676115D01*
X183897159Y-44724536D01*
X184043238Y-44785044D01*
X184200000Y-44805682D01*
X184356762Y-44785044D01*
X184502841Y-44724536D01*
X184565934Y-44676123D01*
X184631102Y-44650930D01*
X184641419Y-44650500D01*
X199358581Y-44650500D01*
X199425620Y-44670185D01*
X199434055Y-44676115D01*
X199497159Y-44724536D01*
X199643238Y-44785044D01*
X199800000Y-44805682D01*
X199956762Y-44785044D01*
X200102841Y-44724536D01*
X200165934Y-44676123D01*
X200231102Y-44650930D01*
X200241419Y-44650500D01*
X210658581Y-44650500D01*
X210725620Y-44670185D01*
X210734055Y-44676115D01*
X210797159Y-44724536D01*
X210943238Y-44785044D01*
X211100000Y-44805682D01*
X211256762Y-44785044D01*
X211402841Y-44724536D01*
X211465934Y-44676123D01*
X211531102Y-44650930D01*
X211541419Y-44650500D01*
X212216183Y-44650500D01*
X212283222Y-44670185D01*
X212328977Y-44722989D01*
X212338921Y-44792147D01*
X212309896Y-44855703D01*
X212294847Y-44870354D01*
X212138589Y-44998589D01*
X212007314Y-45158550D01*
X211969684Y-45228953D01*
X211920722Y-45278797D01*
X211860326Y-45294500D01*
X201041419Y-45294500D01*
X200974380Y-45274815D01*
X200965944Y-45268884D01*
X200902841Y-45220464D01*
X200902840Y-45220463D01*
X200902838Y-45220462D01*
X200756762Y-45159956D01*
X200600000Y-45139317D01*
X200443237Y-45159956D01*
X200297161Y-45220462D01*
X200286096Y-45228953D01*
X200234065Y-45268876D01*
X200168898Y-45294070D01*
X200158581Y-45294500D01*
X185441419Y-45294500D01*
X185374380Y-45274815D01*
X185365944Y-45268884D01*
X185302841Y-45220464D01*
X185302840Y-45220463D01*
X185302838Y-45220462D01*
X185156762Y-45159956D01*
X185000000Y-45139317D01*
X184843237Y-45159956D01*
X184697161Y-45220462D01*
X184686096Y-45228953D01*
X184634065Y-45268876D01*
X184568898Y-45294070D01*
X184558581Y-45294500D01*
X169841419Y-45294500D01*
X169774380Y-45274815D01*
X169765944Y-45268884D01*
X169702841Y-45220464D01*
X169702840Y-45220463D01*
X169702838Y-45220462D01*
X169556762Y-45159956D01*
X169400000Y-45139317D01*
X169243237Y-45159956D01*
X169097161Y-45220462D01*
X169086096Y-45228953D01*
X169034065Y-45268876D01*
X168968898Y-45294070D01*
X168958581Y-45294500D01*
X154241419Y-45294500D01*
X154174380Y-45274815D01*
X154165944Y-45268884D01*
X154102841Y-45220464D01*
X154102840Y-45220463D01*
X154102838Y-45220462D01*
X153956762Y-45159956D01*
X153800000Y-45139317D01*
X153643237Y-45159956D01*
X153497161Y-45220462D01*
X153486096Y-45228953D01*
X153434065Y-45268876D01*
X153368898Y-45294070D01*
X153358581Y-45294500D01*
X138641419Y-45294500D01*
X138574380Y-45274815D01*
X138565944Y-45268884D01*
X138502841Y-45220464D01*
X138502840Y-45220463D01*
X138502838Y-45220462D01*
X138356762Y-45159956D01*
X138200000Y-45139317D01*
X138043237Y-45159956D01*
X137897161Y-45220462D01*
X137886096Y-45228953D01*
X137834065Y-45268876D01*
X137768898Y-45294070D01*
X137758581Y-45294500D01*
X123041419Y-45294500D01*
X122974380Y-45274815D01*
X122965944Y-45268884D01*
X122902841Y-45220464D01*
X122902840Y-45220463D01*
X122902838Y-45220462D01*
X122756762Y-45159956D01*
X122600000Y-45139317D01*
X122443237Y-45159956D01*
X122297161Y-45220462D01*
X122286096Y-45228953D01*
X122234065Y-45268876D01*
X122168898Y-45294070D01*
X122158581Y-45294500D01*
X107441419Y-45294500D01*
X107374380Y-45274815D01*
X107365944Y-45268884D01*
X107302841Y-45220464D01*
X107302840Y-45220463D01*
X107302838Y-45220462D01*
X107156762Y-45159956D01*
X106999999Y-45139317D01*
X106843237Y-45159956D01*
X106697161Y-45220462D01*
X106686096Y-45228953D01*
X106634065Y-45268876D01*
X106568898Y-45294070D01*
X106558581Y-45294500D01*
X91841419Y-45294500D01*
X91774380Y-45274815D01*
X91765944Y-45268884D01*
X91702841Y-45220464D01*
X91702840Y-45220463D01*
X91702838Y-45220462D01*
X91556762Y-45159956D01*
X91400000Y-45139317D01*
X91243237Y-45159956D01*
X91097161Y-45220462D01*
X91086096Y-45228953D01*
X91034065Y-45268876D01*
X90968898Y-45294070D01*
X90958581Y-45294500D01*
X76241419Y-45294500D01*
X76174380Y-45274815D01*
X76165944Y-45268884D01*
X76102841Y-45220464D01*
X76102840Y-45220463D01*
X76102838Y-45220462D01*
X75956762Y-45159956D01*
X75800000Y-45139317D01*
X75643237Y-45159956D01*
X75497161Y-45220462D01*
X75486096Y-45228953D01*
X75434065Y-45268876D01*
X75368898Y-45294070D01*
X75358581Y-45294500D01*
X60641419Y-45294500D01*
X60574380Y-45274815D01*
X60565944Y-45268884D01*
X60502841Y-45220464D01*
X60502840Y-45220463D01*
X60502838Y-45220462D01*
X60356762Y-45159956D01*
X60200000Y-45139317D01*
X60043237Y-45159956D01*
X59897161Y-45220462D01*
X59886096Y-45228953D01*
X59834065Y-45268876D01*
X59768898Y-45294070D01*
X59758581Y-45294500D01*
X45041419Y-45294500D01*
X44974380Y-45274815D01*
X44965944Y-45268884D01*
X44902841Y-45220464D01*
X44902840Y-45220463D01*
X44902838Y-45220462D01*
X44756762Y-45159956D01*
X44600000Y-45139317D01*
X44443237Y-45159956D01*
X44297161Y-45220462D01*
X44286096Y-45228953D01*
X44234065Y-45268876D01*
X44168898Y-45294070D01*
X44158581Y-45294500D01*
X30800065Y-45294500D01*
X30733026Y-45274815D01*
X30724579Y-45268876D01*
X30602840Y-45175463D01*
X30456762Y-45114956D01*
X30300000Y-45094317D01*
X30143237Y-45114956D01*
X29997159Y-45175463D01*
X29871717Y-45271717D01*
X29775463Y-45397159D01*
X29714956Y-45543237D01*
X29694317Y-45700000D01*
X29714956Y-45856762D01*
X29775463Y-46002840D01*
X29871717Y-46128282D01*
X29992712Y-46221124D01*
X29997159Y-46224536D01*
X30143238Y-46285044D01*
X30300000Y-46305682D01*
X30456762Y-46285044D01*
X30602841Y-46224536D01*
X30607288Y-46221123D01*
X30672457Y-46195930D01*
X30682774Y-46195500D01*
X31287098Y-46195500D01*
X44158581Y-46195500D01*
X44225620Y-46215185D01*
X44234055Y-46221115D01*
X44297159Y-46269536D01*
X44443238Y-46330044D01*
X44600000Y-46350682D01*
X44756762Y-46330044D01*
X44902841Y-46269536D01*
X44965934Y-46221123D01*
X45031102Y-46195930D01*
X45041419Y-46195500D01*
X59758581Y-46195500D01*
X59825620Y-46215185D01*
X59834055Y-46221115D01*
X59897159Y-46269536D01*
X60043238Y-46330044D01*
X60200000Y-46350682D01*
X60356762Y-46330044D01*
X60502841Y-46269536D01*
X60565934Y-46221123D01*
X60631102Y-46195930D01*
X60641419Y-46195500D01*
X75358581Y-46195500D01*
X75425620Y-46215185D01*
X75434055Y-46221115D01*
X75497159Y-46269536D01*
X75643238Y-46330044D01*
X75800000Y-46350682D01*
X75956762Y-46330044D01*
X76102841Y-46269536D01*
X76165934Y-46221123D01*
X76231102Y-46195930D01*
X76241419Y-46195500D01*
X90958581Y-46195500D01*
X91025620Y-46215185D01*
X91034055Y-46221115D01*
X91097159Y-46269536D01*
X91243238Y-46330044D01*
X91400000Y-46350682D01*
X91556762Y-46330044D01*
X91702841Y-46269536D01*
X91765934Y-46221123D01*
X91831102Y-46195930D01*
X91841419Y-46195500D01*
X106558581Y-46195500D01*
X106625620Y-46215185D01*
X106634055Y-46221115D01*
X106697159Y-46269536D01*
X106843238Y-46330044D01*
X107000000Y-46350682D01*
X107156762Y-46330044D01*
X107302841Y-46269536D01*
X107365934Y-46221123D01*
X107431102Y-46195930D01*
X107441419Y-46195500D01*
X122158581Y-46195500D01*
X122225620Y-46215185D01*
X122234055Y-46221115D01*
X122297159Y-46269536D01*
X122443238Y-46330044D01*
X122600000Y-46350682D01*
X122756762Y-46330044D01*
X122902841Y-46269536D01*
X122965934Y-46221123D01*
X123031102Y-46195930D01*
X123041419Y-46195500D01*
X137758581Y-46195500D01*
X137825620Y-46215185D01*
X137834055Y-46221115D01*
X137897159Y-46269536D01*
X138043238Y-46330044D01*
X138200000Y-46350682D01*
X138356762Y-46330044D01*
X138502841Y-46269536D01*
X138565934Y-46221123D01*
X138631102Y-46195930D01*
X138641419Y-46195500D01*
X153358581Y-46195500D01*
X153425620Y-46215185D01*
X153434055Y-46221115D01*
X153497159Y-46269536D01*
X153643238Y-46330044D01*
X153800000Y-46350682D01*
X153956762Y-46330044D01*
X154102841Y-46269536D01*
X154165934Y-46221123D01*
X154231102Y-46195930D01*
X154241419Y-46195500D01*
X168958581Y-46195500D01*
X169025620Y-46215185D01*
X169034055Y-46221115D01*
X169097159Y-46269536D01*
X169243238Y-46330044D01*
X169400000Y-46350682D01*
X169556762Y-46330044D01*
X169702841Y-46269536D01*
X169765934Y-46221123D01*
X169831102Y-46195930D01*
X169841419Y-46195500D01*
X184558581Y-46195500D01*
X184625620Y-46215185D01*
X184634055Y-46221115D01*
X184697159Y-46269536D01*
X184843238Y-46330044D01*
X185000000Y-46350682D01*
X185156762Y-46330044D01*
X185302841Y-46269536D01*
X185365934Y-46221123D01*
X185431102Y-46195930D01*
X185441419Y-46195500D01*
X200158581Y-46195500D01*
X200225620Y-46215185D01*
X200234055Y-46221115D01*
X200297159Y-46269536D01*
X200443238Y-46330044D01*
X200600000Y-46350682D01*
X200756762Y-46330044D01*
X200902841Y-46269536D01*
X200965934Y-46221123D01*
X201031102Y-46195930D01*
X201041419Y-46195500D01*
X210087098Y-46195500D01*
X211860326Y-46195500D01*
X211927365Y-46215185D01*
X211969684Y-46261047D01*
X212007314Y-46331449D01*
X212138589Y-46491410D01*
X212218569Y-46557047D01*
X212298550Y-46622685D01*
X212481046Y-46720232D01*
X212679066Y-46780300D01*
X212885000Y-46800583D01*
X213090934Y-46780300D01*
X213288954Y-46720232D01*
X213471450Y-46622685D01*
X213631410Y-46491410D01*
X213762685Y-46331450D01*
X213860232Y-46148954D01*
X213920300Y-45950934D01*
X213940583Y-45745000D01*
X213920300Y-45539066D01*
X213860232Y-45341046D01*
X213762685Y-45158550D01*
X213697047Y-45078569D01*
X213631410Y-44998589D01*
X213475153Y-44870354D01*
X213435818Y-44812608D01*
X213433947Y-44742764D01*
X213470134Y-44682995D01*
X213532890Y-44652279D01*
X213553817Y-44650500D01*
X213642034Y-44650500D01*
X213709073Y-44670185D01*
X213729715Y-44686819D01*
X214381893Y-45338997D01*
X214415378Y-45400320D01*
X214412873Y-45462672D01*
X214389699Y-45539065D01*
X214369417Y-45745000D01*
X214389699Y-45950932D01*
X214419733Y-46049944D01*
X214443497Y-46128282D01*
X214449769Y-46148956D01*
X214488344Y-46221124D01*
X214547315Y-46331450D01*
X214598609Y-46393952D01*
X214678589Y-46491410D01*
X214758569Y-46557047D01*
X214838550Y-46622685D01*
X215021046Y-46720232D01*
X215219066Y-46780300D01*
X215425000Y-46800583D01*
X215630934Y-46780300D01*
X215828954Y-46720232D01*
X216011450Y-46622685D01*
X216171410Y-46491410D01*
X216302685Y-46331450D01*
X216400232Y-46148954D01*
X216460300Y-45950934D01*
X216480583Y-45745000D01*
X216460300Y-45539066D01*
X216400232Y-45341046D01*
X216302685Y-45158550D01*
X216237047Y-45078569D01*
X216171410Y-44998589D01*
X216073952Y-44918608D01*
X216011450Y-44867315D01*
X215828954Y-44769768D01*
X215679846Y-44724537D01*
X215630932Y-44709699D01*
X215425000Y-44689417D01*
X215219065Y-44709699D01*
X215142672Y-44732873D01*
X215072805Y-44733496D01*
X215018997Y-44701893D01*
X214221368Y-43904265D01*
X214212102Y-43893897D01*
X214203328Y-43882895D01*
X214189879Y-43866030D01*
X214142608Y-43833800D01*
X214138870Y-43831148D01*
X214088035Y-43793629D01*
X214083424Y-43791302D01*
X214023049Y-43772679D01*
X214018644Y-43771230D01*
X214002408Y-43765549D01*
X213964699Y-43752354D01*
X213964698Y-43752353D01*
X213959023Y-43750368D01*
X213953914Y-43749500D01*
X213947902Y-43749500D01*
X213890738Y-43749500D01*
X213886101Y-43749413D01*
X213822970Y-43747050D01*
X213804365Y-43749500D01*
X211541419Y-43749500D01*
X211474380Y-43729815D01*
X211465944Y-43723884D01*
X211402841Y-43675464D01*
X211402840Y-43675463D01*
X211402838Y-43675462D01*
X211256762Y-43614956D01*
X211100000Y-43594317D01*
X210943237Y-43614956D01*
X210797161Y-43675462D01*
X210779814Y-43688773D01*
X210734065Y-43723876D01*
X210668898Y-43749070D01*
X210658581Y-43749500D01*
X200241419Y-43749500D01*
X200174380Y-43729815D01*
X200165944Y-43723884D01*
X200102841Y-43675464D01*
X200102840Y-43675463D01*
X200102838Y-43675462D01*
X199956762Y-43614956D01*
X199800000Y-43594317D01*
X199643237Y-43614956D01*
X199497161Y-43675462D01*
X199479814Y-43688773D01*
X199434065Y-43723876D01*
X199368898Y-43749070D01*
X199358581Y-43749500D01*
X184641419Y-43749500D01*
X184574380Y-43729815D01*
X184565944Y-43723884D01*
X184502841Y-43675464D01*
X184502840Y-43675463D01*
X184502838Y-43675462D01*
X184356762Y-43614956D01*
X184200000Y-43594317D01*
X184043237Y-43614956D01*
X183897161Y-43675462D01*
X183879814Y-43688773D01*
X183834065Y-43723876D01*
X183768898Y-43749070D01*
X183758581Y-43749500D01*
X169041419Y-43749500D01*
X168974380Y-43729815D01*
X168965944Y-43723884D01*
X168902841Y-43675464D01*
X168902840Y-43675463D01*
X168902838Y-43675462D01*
X168756762Y-43614956D01*
X168600000Y-43594317D01*
X168443237Y-43614956D01*
X168297161Y-43675462D01*
X168279814Y-43688773D01*
X168234065Y-43723876D01*
X168168898Y-43749070D01*
X168158581Y-43749500D01*
X153441419Y-43749500D01*
X153374380Y-43729815D01*
X153365944Y-43723884D01*
X153302841Y-43675464D01*
X153302840Y-43675463D01*
X153302838Y-43675462D01*
X153156762Y-43614956D01*
X153000000Y-43594317D01*
X152843237Y-43614956D01*
X152697161Y-43675462D01*
X152679814Y-43688773D01*
X152634065Y-43723876D01*
X152568898Y-43749070D01*
X152558581Y-43749500D01*
X137841419Y-43749500D01*
X137774380Y-43729815D01*
X137765944Y-43723884D01*
X137702841Y-43675464D01*
X137702840Y-43675463D01*
X137702838Y-43675462D01*
X137556762Y-43614956D01*
X137400000Y-43594317D01*
X137243237Y-43614956D01*
X137097161Y-43675462D01*
X137079814Y-43688773D01*
X137034065Y-43723876D01*
X136968898Y-43749070D01*
X136958581Y-43749500D01*
X122241419Y-43749500D01*
X122174380Y-43729815D01*
X122165944Y-43723884D01*
X122102841Y-43675464D01*
X122102840Y-43675463D01*
X122102838Y-43675462D01*
X121956762Y-43614956D01*
X121800000Y-43594317D01*
X121643237Y-43614956D01*
X121497161Y-43675462D01*
X121479814Y-43688773D01*
X121434065Y-43723876D01*
X121368898Y-43749070D01*
X121358581Y-43749500D01*
X106641419Y-43749500D01*
X106574380Y-43729815D01*
X106565944Y-43723884D01*
X106502841Y-43675464D01*
X106502840Y-43675463D01*
X106502838Y-43675462D01*
X106356762Y-43614956D01*
X106200000Y-43594317D01*
X106043237Y-43614956D01*
X105897161Y-43675462D01*
X105879814Y-43688773D01*
X105834065Y-43723876D01*
X105768898Y-43749070D01*
X105758581Y-43749500D01*
X91041419Y-43749500D01*
X90974380Y-43729815D01*
X90965944Y-43723884D01*
X90902841Y-43675464D01*
X90902840Y-43675463D01*
X90902838Y-43675462D01*
X90756762Y-43614956D01*
X90600000Y-43594317D01*
X90443237Y-43614956D01*
X90297161Y-43675462D01*
X90279814Y-43688773D01*
X90234065Y-43723876D01*
X90168898Y-43749070D01*
X90158581Y-43749500D01*
X75441419Y-43749500D01*
X75374380Y-43729815D01*
X75365944Y-43723884D01*
X75302841Y-43675464D01*
X75302840Y-43675463D01*
X75302838Y-43675462D01*
X75156762Y-43614956D01*
X75000000Y-43594317D01*
X74843237Y-43614956D01*
X74697161Y-43675462D01*
X74679814Y-43688773D01*
X74634065Y-43723876D01*
X74568898Y-43749070D01*
X74558581Y-43749500D01*
X59841419Y-43749500D01*
X59774380Y-43729815D01*
X59765944Y-43723884D01*
X59702841Y-43675464D01*
X59702840Y-43675463D01*
X59702838Y-43675462D01*
X59556762Y-43614956D01*
X59400000Y-43594317D01*
X59243237Y-43614956D01*
X59097161Y-43675462D01*
X59079814Y-43688773D01*
X59034065Y-43723876D01*
X58968898Y-43749070D01*
X58958581Y-43749500D01*
X44241419Y-43749500D01*
X44174380Y-43729815D01*
X44165944Y-43723884D01*
X44102841Y-43675464D01*
X44102840Y-43675463D01*
X44102838Y-43675462D01*
X43956762Y-43614956D01*
X43800000Y-43594317D01*
X43643237Y-43614956D01*
X43497161Y-43675462D01*
X43479814Y-43688773D01*
X43434065Y-43723876D01*
X43368898Y-43749070D01*
X43358581Y-43749500D01*
X30562409Y-43749500D01*
X30495370Y-43729815D01*
X30449615Y-43677011D01*
X30439671Y-43607853D01*
X30468696Y-43544297D01*
X30514957Y-43510939D01*
X30543274Y-43499209D01*
X30602841Y-43474536D01*
X30728282Y-43378282D01*
X30824536Y-43252841D01*
X30885044Y-43106762D01*
X30905682Y-42950000D01*
X30885044Y-42793238D01*
X30824536Y-42647159D01*
X30809107Y-42627051D01*
X30728282Y-42521717D01*
X30602840Y-42425463D01*
X30456762Y-42364956D01*
X30300000Y-42344317D01*
X30143237Y-42364956D01*
X29997161Y-42425462D01*
X29973525Y-42443598D01*
X29934065Y-42473876D01*
X29868898Y-42499070D01*
X29858581Y-42499500D01*
X26982262Y-42499500D01*
X26968378Y-42498720D01*
X26932963Y-42494729D01*
X26876811Y-42505354D01*
X26872241Y-42506131D01*
X26809758Y-42515549D01*
X26804851Y-42517163D01*
X26748985Y-42546690D01*
X26744847Y-42548779D01*
X26687936Y-42576186D01*
X26683712Y-42579183D01*
X26639059Y-42623836D01*
X26635722Y-42627051D01*
X26589392Y-42670039D01*
X26577967Y-42684928D01*
X25389264Y-43873631D01*
X25378898Y-43882895D01*
X25351031Y-43905118D01*
X25318824Y-43952356D01*
X25316144Y-43956132D01*
X25278633Y-44006959D01*
X25276301Y-44011578D01*
X25257674Y-44071966D01*
X25256225Y-44076369D01*
X25235369Y-44135973D01*
X25234500Y-44141089D01*
X25234500Y-44204261D01*
X25234413Y-44208898D01*
X25232050Y-44272029D01*
X25234500Y-44290635D01*
X25234500Y-44720324D01*
X25214815Y-44787363D01*
X25168955Y-44829681D01*
X25098551Y-44867313D01*
X24938589Y-44998589D01*
X24807314Y-45158551D01*
X24709769Y-45341043D01*
X24649699Y-45539067D01*
X24629417Y-45745000D01*
X21500535Y-45745000D01*
X21500539Y-44720324D01*
X21500568Y-37067764D01*
X23345787Y-37067764D01*
X23375413Y-37337016D01*
X23443928Y-37599087D01*
X23549871Y-37848392D01*
X23690982Y-38079611D01*
X23836013Y-38253884D01*
X23864255Y-38287820D01*
X24065998Y-38468582D01*
X24291910Y-38618044D01*
X24398211Y-38667876D01*
X24537177Y-38733021D01*
X24796562Y-38811058D01*
X24796569Y-38811060D01*
X25064561Y-38850500D01*
X25064564Y-38850500D01*
X25265369Y-38850500D01*
X25267631Y-38850500D01*
X25470156Y-38835677D01*
X25734553Y-38776780D01*
X25987558Y-38680014D01*
X26223777Y-38547441D01*
X26438177Y-38381888D01*
X26626186Y-38186881D01*
X26783799Y-37966579D01*
X26907656Y-37725675D01*
X26995118Y-37469305D01*
X27044319Y-37202933D01*
X27054212Y-36932235D01*
X27024586Y-36662982D01*
X26956072Y-36400912D01*
X26850130Y-36151610D01*
X26760415Y-36004607D01*
X26709017Y-35920388D01*
X26535746Y-35712181D01*
X26430759Y-35618112D01*
X26334002Y-35531418D01*
X26108090Y-35381956D01*
X26108086Y-35381954D01*
X25862822Y-35266978D01*
X25603437Y-35188941D01*
X25603431Y-35188940D01*
X25335439Y-35149500D01*
X25132369Y-35149500D01*
X25130120Y-35149664D01*
X25130109Y-35149665D01*
X24929843Y-35164322D01*
X24665449Y-35223219D01*
X24412441Y-35319986D01*
X24176223Y-35452559D01*
X23961825Y-35618109D01*
X23773813Y-35813120D01*
X23616201Y-36033420D01*
X23492342Y-36274329D01*
X23404881Y-36530695D01*
X23355680Y-36797066D01*
X23345787Y-37067764D01*
X21500568Y-37067764D01*
X21500613Y-25488187D01*
X21520298Y-25421147D01*
X21573102Y-25375392D01*
X21624613Y-25364187D01*
X29625440Y-25364187D01*
X34275614Y-25364187D01*
X34342653Y-25383872D01*
G37*
G04 #@! TD.AperFunction*
G04 #@! TA.AperFunction,Conductor*
G36*
X214965507Y-50615156D02*
G01*
X214925000Y-50753111D01*
X214925000Y-50896889D01*
X214965507Y-51034844D01*
X214991314Y-51075000D01*
X213318686Y-51075000D01*
X213344493Y-51034844D01*
X213385000Y-50896889D01*
X213385000Y-50753111D01*
X213344493Y-50615156D01*
X213318686Y-50575000D01*
X214991314Y-50575000D01*
X214965507Y-50615156D01*
G37*
G04 #@! TD.AperFunction*
G04 #@! TA.AperFunction,Conductor*
G36*
X174500000Y-35650000D02*
G01*
X171250000Y-35650000D01*
X171000000Y-36950000D01*
X169900000Y-36950000D01*
X169900000Y-33550000D01*
X171250000Y-33550000D01*
X171550000Y-33550000D01*
X174500000Y-33550000D01*
X174500000Y-35650000D01*
G37*
G04 #@! TD.AperFunction*
G04 #@! TA.AperFunction,Conductor*
G36*
X80792121Y-36120002D02*
G01*
X80838614Y-36173658D01*
X80850000Y-36226000D01*
X80850000Y-39524000D01*
X80829998Y-39592121D01*
X80776342Y-39638614D01*
X80724000Y-39650000D01*
X77026000Y-39650000D01*
X76957879Y-39629998D01*
X76911386Y-39576342D01*
X76900000Y-39524000D01*
X76900000Y-38476000D01*
X76920002Y-38407879D01*
X76973658Y-38361386D01*
X77026000Y-38350000D01*
X77499999Y-38350000D01*
X77500000Y-38350000D01*
X77850000Y-37950000D01*
X77850000Y-36225999D01*
X77870002Y-36157879D01*
X77923658Y-36111386D01*
X77976000Y-36100000D01*
X80724000Y-36100000D01*
X80792121Y-36120002D01*
G37*
G04 #@! TD.AperFunction*
G04 #@! TA.AperFunction,Conductor*
G36*
X80900000Y-35650000D02*
G01*
X77650000Y-35650000D01*
X77400000Y-36950000D01*
X76300000Y-36950000D01*
X76300000Y-33550000D01*
X77650000Y-33550000D01*
X77950000Y-33550000D01*
X80900000Y-33550000D01*
X80900000Y-35650000D01*
G37*
G04 #@! TD.AperFunction*
G04 #@! TA.AperFunction,Conductor*
G36*
X205700000Y-35650000D02*
G01*
X202450000Y-35650000D01*
X202200000Y-36950000D01*
X201100000Y-36950000D01*
X201100000Y-33550000D01*
X202450000Y-33550000D01*
X202750000Y-33550000D01*
X205700000Y-33550000D01*
X205700000Y-35650000D01*
G37*
G04 #@! TD.AperFunction*
G04 #@! TA.AperFunction,Conductor*
G36*
X65192121Y-36120002D02*
G01*
X65238614Y-36173658D01*
X65250000Y-36226000D01*
X65250000Y-39524000D01*
X65229998Y-39592121D01*
X65176342Y-39638614D01*
X65124000Y-39650000D01*
X61426000Y-39650000D01*
X61357879Y-39629998D01*
X61311386Y-39576342D01*
X61300000Y-39524000D01*
X61300000Y-38476000D01*
X61320002Y-38407879D01*
X61373658Y-38361386D01*
X61426000Y-38350000D01*
X61899999Y-38350000D01*
X61900000Y-38350000D01*
X62250000Y-37950000D01*
X62250000Y-36226000D01*
X62270002Y-36157879D01*
X62323658Y-36111386D01*
X62376000Y-36100000D01*
X65124000Y-36100000D01*
X65192121Y-36120002D01*
G37*
G04 #@! TD.AperFunction*
G04 #@! TA.AperFunction,Conductor*
G36*
X127700000Y-35650000D02*
G01*
X124450000Y-35650000D01*
X124200000Y-36950000D01*
X123100000Y-36950000D01*
X123100000Y-33550000D01*
X124450000Y-33550000D01*
X124750000Y-33550000D01*
X127700000Y-33550000D01*
X127700000Y-35650000D01*
G37*
G04 #@! TD.AperFunction*
G04 #@! TA.AperFunction,Conductor*
G36*
X49700000Y-35650000D02*
G01*
X46450000Y-35650000D01*
X46200000Y-36950000D01*
X45100000Y-36950000D01*
X45100000Y-33550000D01*
X46450000Y-33550000D01*
X46750000Y-33550000D01*
X49700000Y-33550000D01*
X49700000Y-35650000D01*
G37*
G04 #@! TD.AperFunction*
G04 #@! TA.AperFunction,Conductor*
G36*
X111992121Y-36120002D02*
G01*
X112038614Y-36173658D01*
X112050000Y-36226000D01*
X112050000Y-39524000D01*
X112029998Y-39592121D01*
X111976342Y-39638614D01*
X111924000Y-39650000D01*
X108226000Y-39650000D01*
X108157879Y-39629998D01*
X108111386Y-39576342D01*
X108100000Y-39524000D01*
X108100000Y-38476000D01*
X108120002Y-38407879D01*
X108173658Y-38361386D01*
X108226000Y-38350000D01*
X108699999Y-38350000D01*
X108700000Y-38350000D01*
X109050000Y-37950000D01*
X109050000Y-36225999D01*
X109070002Y-36157879D01*
X109123658Y-36111386D01*
X109176000Y-36100000D01*
X111924000Y-36100000D01*
X111992121Y-36120002D01*
G37*
G04 #@! TD.AperFunction*
G04 #@! TA.AperFunction,Conductor*
G36*
X143300000Y-35650000D02*
G01*
X140050000Y-35650000D01*
X139800000Y-36950000D01*
X138700000Y-36950000D01*
X138700000Y-33550000D01*
X140050000Y-33550000D01*
X140350000Y-33550000D01*
X143300000Y-33550000D01*
X143300000Y-35650000D01*
G37*
G04 #@! TD.AperFunction*
G04 #@! TA.AperFunction,Conductor*
G36*
X49592121Y-36120002D02*
G01*
X49638614Y-36173658D01*
X49650000Y-36226000D01*
X49650000Y-39524000D01*
X49629998Y-39592121D01*
X49576342Y-39638614D01*
X49524000Y-39650000D01*
X45826000Y-39650000D01*
X45757879Y-39629998D01*
X45711386Y-39576342D01*
X45700000Y-39524000D01*
X45700000Y-38476000D01*
X45720002Y-38407879D01*
X45773658Y-38361386D01*
X45826000Y-38350000D01*
X46299999Y-38350000D01*
X46300000Y-38350000D01*
X46650000Y-37950000D01*
X46650000Y-36226000D01*
X46670002Y-36157879D01*
X46723658Y-36111386D01*
X46776000Y-36100000D01*
X49524000Y-36100000D01*
X49592121Y-36120002D01*
G37*
G04 #@! TD.AperFunction*
G04 #@! TA.AperFunction,Conductor*
G36*
X221192121Y-36120002D02*
G01*
X221238614Y-36173658D01*
X221250000Y-36226000D01*
X221250000Y-39524000D01*
X221229998Y-39592121D01*
X221176342Y-39638614D01*
X221124000Y-39650000D01*
X217426000Y-39650000D01*
X217357879Y-39629998D01*
X217311386Y-39576342D01*
X217300000Y-39524000D01*
X217300000Y-38476000D01*
X217320002Y-38407879D01*
X217373658Y-38361386D01*
X217426000Y-38350000D01*
X217899999Y-38350000D01*
X217900000Y-38350000D01*
X218250000Y-37950000D01*
X218250000Y-36226000D01*
X218270002Y-36157879D01*
X218323658Y-36111386D01*
X218376000Y-36100000D01*
X221124000Y-36100000D01*
X221192121Y-36120002D01*
G37*
G04 #@! TD.AperFunction*
G04 #@! TA.AperFunction,Conductor*
G36*
X96392121Y-36120002D02*
G01*
X96438614Y-36173658D01*
X96450000Y-36226000D01*
X96450000Y-39524000D01*
X96429998Y-39592121D01*
X96376342Y-39638614D01*
X96324000Y-39650000D01*
X92626000Y-39650000D01*
X92557879Y-39629998D01*
X92511386Y-39576342D01*
X92500000Y-39524000D01*
X92500000Y-38476000D01*
X92520002Y-38407879D01*
X92573658Y-38361386D01*
X92626000Y-38350000D01*
X93099999Y-38350000D01*
X93100000Y-38350000D01*
X93450000Y-37950000D01*
X93450000Y-36225999D01*
X93470002Y-36157879D01*
X93523658Y-36111386D01*
X93576000Y-36100000D01*
X96324000Y-36100000D01*
X96392121Y-36120002D01*
G37*
G04 #@! TD.AperFunction*
G04 #@! TA.AperFunction,Conductor*
G36*
X34100000Y-35650000D02*
G01*
X30850000Y-35650000D01*
X30600000Y-36950000D01*
X29500000Y-36950000D01*
X29500000Y-33550000D01*
X30850000Y-33550000D01*
X31150000Y-33550000D01*
X34100000Y-33550000D01*
X34100000Y-35650000D01*
G37*
G04 #@! TD.AperFunction*
G04 #@! TA.AperFunction,Conductor*
G36*
X33992121Y-36120002D02*
G01*
X34038614Y-36173658D01*
X34050000Y-36226000D01*
X34050000Y-39524000D01*
X34029998Y-39592121D01*
X33976342Y-39638614D01*
X33924000Y-39650000D01*
X30226000Y-39650000D01*
X30157879Y-39629998D01*
X30111386Y-39576342D01*
X30100000Y-39524000D01*
X30100000Y-38476000D01*
X30120002Y-38407879D01*
X30173658Y-38361386D01*
X30226000Y-38350000D01*
X30699999Y-38350000D01*
X30700000Y-38350000D01*
X31050000Y-37950000D01*
X31050000Y-36226000D01*
X31070002Y-36157879D01*
X31123658Y-36111386D01*
X31176000Y-36100000D01*
X33924000Y-36100000D01*
X33992121Y-36120002D01*
G37*
G04 #@! TD.AperFunction*
G04 #@! TA.AperFunction,Conductor*
G36*
X190100000Y-35650000D02*
G01*
X186850000Y-35650000D01*
X186600000Y-36950000D01*
X185500000Y-36950000D01*
X185500000Y-33550000D01*
X186850000Y-33550000D01*
X187150000Y-33550000D01*
X190100000Y-33550000D01*
X190100000Y-35650000D01*
G37*
G04 #@! TD.AperFunction*
G04 #@! TA.AperFunction,Conductor*
G36*
X189992121Y-36120002D02*
G01*
X190038614Y-36173658D01*
X190050000Y-36226000D01*
X190050000Y-39524000D01*
X190029998Y-39592121D01*
X189976342Y-39638614D01*
X189924000Y-39650000D01*
X186226000Y-39650000D01*
X186157879Y-39629998D01*
X186111386Y-39576342D01*
X186100000Y-39524000D01*
X186100000Y-38476000D01*
X186120002Y-38407879D01*
X186173658Y-38361386D01*
X186226000Y-38350000D01*
X186699999Y-38350000D01*
X186700000Y-38350000D01*
X187050000Y-37950000D01*
X187050000Y-36226000D01*
X187070002Y-36157879D01*
X187123658Y-36111386D01*
X187176000Y-36100000D01*
X189924000Y-36100000D01*
X189992121Y-36120002D01*
G37*
G04 #@! TD.AperFunction*
G04 #@! TA.AperFunction,Conductor*
G36*
X221300000Y-35650000D02*
G01*
X218050000Y-35650000D01*
X217800000Y-36950000D01*
X216700000Y-36950000D01*
X216700000Y-33550000D01*
X218050000Y-33550000D01*
X218350000Y-33550000D01*
X221300000Y-33550000D01*
X221300000Y-35650000D01*
G37*
G04 #@! TD.AperFunction*
G04 #@! TA.AperFunction,Conductor*
G36*
X174392121Y-36120002D02*
G01*
X174438614Y-36173658D01*
X174450000Y-36226000D01*
X174450000Y-39524000D01*
X174429998Y-39592121D01*
X174376342Y-39638614D01*
X174324000Y-39650000D01*
X170626000Y-39650000D01*
X170557879Y-39629998D01*
X170511386Y-39576342D01*
X170500000Y-39524000D01*
X170500000Y-38476000D01*
X170520002Y-38407879D01*
X170573658Y-38361386D01*
X170626000Y-38350000D01*
X171099999Y-38350000D01*
X171100000Y-38350000D01*
X171450000Y-37950000D01*
X171450000Y-36225999D01*
X171470002Y-36157879D01*
X171523658Y-36111386D01*
X171576000Y-36100000D01*
X174324000Y-36100000D01*
X174392121Y-36120002D01*
G37*
G04 #@! TD.AperFunction*
G04 #@! TA.AperFunction,Conductor*
G36*
X112100000Y-35650000D02*
G01*
X108850000Y-35650000D01*
X108600000Y-36950000D01*
X107500000Y-36950000D01*
X107500000Y-33550000D01*
X108850000Y-33550000D01*
X109150000Y-33550000D01*
X112100000Y-33550000D01*
X112100000Y-35650000D01*
G37*
G04 #@! TD.AperFunction*
G04 #@! TA.AperFunction,Conductor*
G36*
X65300000Y-35650000D02*
G01*
X62050000Y-35650000D01*
X61800000Y-36950000D01*
X60700000Y-36950000D01*
X60700000Y-33550000D01*
X62050000Y-33550000D01*
X62350000Y-33550000D01*
X65300000Y-33550000D01*
X65300000Y-35650000D01*
G37*
G04 #@! TD.AperFunction*
G04 #@! TA.AperFunction,Conductor*
G36*
X158900000Y-35650000D02*
G01*
X155650000Y-35650000D01*
X155400000Y-36950000D01*
X154300000Y-36950000D01*
X154300000Y-33550000D01*
X155650000Y-33550000D01*
X155950000Y-33550000D01*
X158900000Y-33550000D01*
X158900000Y-35650000D01*
G37*
G04 #@! TD.AperFunction*
G04 #@! TA.AperFunction,Conductor*
G36*
X143192121Y-36120002D02*
G01*
X143238614Y-36173658D01*
X143250000Y-36226000D01*
X143250000Y-39524000D01*
X143229998Y-39592121D01*
X143176342Y-39638614D01*
X143124000Y-39650000D01*
X139426000Y-39650000D01*
X139357879Y-39629998D01*
X139311386Y-39576342D01*
X139300000Y-39524000D01*
X139300000Y-38476000D01*
X139320002Y-38407879D01*
X139373658Y-38361386D01*
X139426000Y-38350000D01*
X139899999Y-38350000D01*
X139900000Y-38350000D01*
X140250000Y-37950000D01*
X140250000Y-36225999D01*
X140270002Y-36157879D01*
X140323658Y-36111386D01*
X140376000Y-36100000D01*
X143124000Y-36100000D01*
X143192121Y-36120002D01*
G37*
G04 #@! TD.AperFunction*
G04 #@! TA.AperFunction,Conductor*
G36*
X127592121Y-36120002D02*
G01*
X127638614Y-36173658D01*
X127650000Y-36226000D01*
X127650000Y-39524000D01*
X127629998Y-39592121D01*
X127576342Y-39638614D01*
X127524000Y-39650000D01*
X123826000Y-39650000D01*
X123757879Y-39629998D01*
X123711386Y-39576342D01*
X123700000Y-39524000D01*
X123700000Y-38476000D01*
X123720002Y-38407879D01*
X123773658Y-38361386D01*
X123826000Y-38350000D01*
X124299999Y-38350000D01*
X124300000Y-38350000D01*
X124650000Y-37950000D01*
X124649999Y-36225999D01*
X124670002Y-36157879D01*
X124723658Y-36111386D01*
X124776000Y-36100000D01*
X127524000Y-36100000D01*
X127592121Y-36120002D01*
G37*
G04 #@! TD.AperFunction*
G04 #@! TA.AperFunction,Conductor*
G36*
X96500000Y-35650000D02*
G01*
X93250000Y-35650000D01*
X93000000Y-36950000D01*
X91900000Y-36950000D01*
X91900000Y-33550000D01*
X93250000Y-33550000D01*
X93550000Y-33550000D01*
X96500000Y-33550000D01*
X96500000Y-35650000D01*
G37*
G04 #@! TD.AperFunction*
G04 #@! TA.AperFunction,Conductor*
G36*
X158792121Y-36120002D02*
G01*
X158838614Y-36173658D01*
X158850000Y-36226000D01*
X158850000Y-39524000D01*
X158829998Y-39592121D01*
X158776342Y-39638614D01*
X158724000Y-39650000D01*
X155026000Y-39650000D01*
X154957879Y-39629998D01*
X154911386Y-39576342D01*
X154900000Y-39524000D01*
X154900000Y-38476000D01*
X154920002Y-38407879D01*
X154973658Y-38361386D01*
X155026000Y-38350000D01*
X155499999Y-38350000D01*
X155500000Y-38350000D01*
X155850000Y-37950000D01*
X155850000Y-36226000D01*
X155870002Y-36157879D01*
X155923658Y-36111386D01*
X155976000Y-36100000D01*
X158724000Y-36100000D01*
X158792121Y-36120002D01*
G37*
G04 #@! TD.AperFunction*
G04 #@! TA.AperFunction,Conductor*
G36*
X205592121Y-36120002D02*
G01*
X205638614Y-36173658D01*
X205650000Y-36226000D01*
X205650000Y-39524000D01*
X205629998Y-39592121D01*
X205576342Y-39638614D01*
X205524000Y-39650000D01*
X201826000Y-39650000D01*
X201757879Y-39629998D01*
X201711386Y-39576342D01*
X201700000Y-39524000D01*
X201700000Y-38476000D01*
X201720002Y-38407879D01*
X201773658Y-38361386D01*
X201826000Y-38350000D01*
X202299999Y-38350000D01*
X202300000Y-38350000D01*
X202650000Y-37950000D01*
X202650000Y-36225999D01*
X202670002Y-36157879D01*
X202723658Y-36111386D01*
X202776000Y-36100000D01*
X205524000Y-36100000D01*
X205592121Y-36120002D01*
G37*
G04 #@! TD.AperFunction*
M02*
