G04 #@! TF.GenerationSoftware,KiCad,Pcbnew,7.0.2-0*
G04 #@! TF.CreationDate,2023-12-22T12:06:10-05:00*
G04 #@! TF.ProjectId,mobo,6d6f626f-2e6b-4696-9361-645f70636258,REV05*
G04 #@! TF.SameCoordinates,Original*
G04 #@! TF.FileFunction,Paste,Top*
G04 #@! TF.FilePolarity,Positive*
%FSLAX46Y46*%
G04 Gerber Fmt 4.6, Leading zero omitted, Abs format (unit mm)*
G04 Created by KiCad (PCBNEW 7.0.2-0) date 2023-12-22 12:06:10*
%MOMM*%
%LPD*%
G01*
G04 APERTURE LIST*
G04 Aperture macros list*
%AMRoundRect*
0 Rectangle with rounded corners*
0 $1 Rounding radius*
0 $2 $3 $4 $5 $6 $7 $8 $9 X,Y pos of 4 corners*
0 Add a 4 corners polygon primitive as box body*
4,1,4,$2,$3,$4,$5,$6,$7,$8,$9,$2,$3,0*
0 Add four circle primitives for the rounded corners*
1,1,$1+$1,$2,$3*
1,1,$1+$1,$4,$5*
1,1,$1+$1,$6,$7*
1,1,$1+$1,$8,$9*
0 Add four rect primitives between the rounded corners*
20,1,$1+$1,$2,$3,$4,$5,0*
20,1,$1+$1,$4,$5,$6,$7,0*
20,1,$1+$1,$6,$7,$8,$9,0*
20,1,$1+$1,$8,$9,$2,$3,0*%
G04 Aperture macros list end*
%ADD10RoundRect,0.250000X0.250000X0.475000X-0.250000X0.475000X-0.250000X-0.475000X0.250000X-0.475000X0*%
%ADD11RoundRect,0.150000X0.150000X-0.725000X0.150000X0.725000X-0.150000X0.725000X-0.150000X-0.725000X0*%
%ADD12RoundRect,0.250000X-0.550000X1.500000X-0.550000X-1.500000X0.550000X-1.500000X0.550000X1.500000X0*%
%ADD13RoundRect,0.250000X-0.475000X0.250000X-0.475000X-0.250000X0.475000X-0.250000X0.475000X0.250000X0*%
%ADD14RoundRect,0.250000X0.450000X-0.262500X0.450000X0.262500X-0.450000X0.262500X-0.450000X-0.262500X0*%
%ADD15RoundRect,0.250000X-1.500000X-0.550000X1.500000X-0.550000X1.500000X0.550000X-1.500000X0.550000X0*%
%ADD16RoundRect,0.250000X-0.450000X0.262500X-0.450000X-0.262500X0.450000X-0.262500X0.450000X0.262500X0*%
%ADD17RoundRect,0.250000X-0.250000X-0.475000X0.250000X-0.475000X0.250000X0.475000X-0.250000X0.475000X0*%
%ADD18RoundRect,0.250000X0.475000X-0.250000X0.475000X0.250000X-0.475000X0.250000X-0.475000X-0.250000X0*%
%ADD19R,1.500000X2.500000*%
%ADD20RoundRect,0.250000X-0.300000X-0.300000X0.300000X-0.300000X0.300000X0.300000X-0.300000X0.300000X0*%
%ADD21RoundRect,0.250000X-1.425000X0.362500X-1.425000X-0.362500X1.425000X-0.362500X1.425000X0.362500X0*%
%ADD22RoundRect,0.250000X-0.250000X-2.500000X0.250000X-2.500000X0.250000X2.500000X-0.250000X2.500000X0*%
%ADD23RoundRect,0.250000X-0.550000X-1.250000X0.550000X-1.250000X0.550000X1.250000X-0.550000X1.250000X0*%
%ADD24RoundRect,0.250000X-2.500000X0.250000X-2.500000X-0.250000X2.500000X-0.250000X2.500000X0.250000X0*%
%ADD25RoundRect,0.250000X-1.250000X0.550000X-1.250000X-0.550000X1.250000X-0.550000X1.250000X0.550000X0*%
%ADD26RoundRect,0.150000X0.150000X-0.512500X0.150000X0.512500X-0.150000X0.512500X-0.150000X-0.512500X0*%
%ADD27R,1.220000X0.650000*%
%ADD28R,2.500000X2.500000*%
%ADD29RoundRect,0.150000X-0.587500X-0.150000X0.587500X-0.150000X0.587500X0.150000X-0.587500X0.150000X0*%
%ADD30RoundRect,0.218750X-0.218750X-0.381250X0.218750X-0.381250X0.218750X0.381250X-0.218750X0.381250X0*%
%ADD31RoundRect,0.250000X0.262500X0.450000X-0.262500X0.450000X-0.262500X-0.450000X0.262500X-0.450000X0*%
%ADD32RoundRect,0.250000X-0.262500X-0.450000X0.262500X-0.450000X0.262500X0.450000X-0.262500X0.450000X0*%
%ADD33RoundRect,0.250000X1.425000X-0.362500X1.425000X0.362500X-1.425000X0.362500X-1.425000X-0.362500X0*%
%ADD34RoundRect,0.150000X-0.150000X0.825000X-0.150000X-0.825000X0.150000X-0.825000X0.150000X0.825000X0*%
%ADD35RoundRect,0.225000X-0.375000X0.225000X-0.375000X-0.225000X0.375000X-0.225000X0.375000X0.225000X0*%
%ADD36RoundRect,0.250000X-1.000000X-0.650000X1.000000X-0.650000X1.000000X0.650000X-1.000000X0.650000X0*%
%ADD37RoundRect,0.100000X-0.100000X0.637500X-0.100000X-0.637500X0.100000X-0.637500X0.100000X0.637500X0*%
%ADD38RoundRect,0.250000X-1.000000X1.400000X-1.000000X-1.400000X1.000000X-1.400000X1.000000X1.400000X0*%
%ADD39RoundRect,0.150000X0.512500X0.150000X-0.512500X0.150000X-0.512500X-0.150000X0.512500X-0.150000X0*%
%ADD40R,1.550000X1.300000*%
%ADD41RoundRect,0.250001X-0.584999X0.859999X-0.584999X-0.859999X0.584999X-0.859999X0.584999X0.859999X0*%
%ADD42RoundRect,0.100000X-0.100000X0.675000X-0.100000X-0.675000X0.100000X-0.675000X0.100000X0.675000X0*%
%ADD43RoundRect,0.250000X0.400000X0.450000X-0.400000X0.450000X-0.400000X-0.450000X0.400000X-0.450000X0*%
%ADD44RoundRect,0.150000X-0.150000X0.512500X-0.150000X-0.512500X0.150000X-0.512500X0.150000X0.512500X0*%
%ADD45RoundRect,0.075000X0.725000X0.075000X-0.725000X0.075000X-0.725000X-0.075000X0.725000X-0.075000X0*%
%ADD46RoundRect,0.075000X0.075000X0.725000X-0.075000X0.725000X-0.075000X-0.725000X0.075000X-0.725000X0*%
%ADD47RoundRect,0.243750X-0.243750X-0.456250X0.243750X-0.456250X0.243750X0.456250X-0.243750X0.456250X0*%
%ADD48RoundRect,0.250000X0.300000X0.300000X-0.300000X0.300000X-0.300000X-0.300000X0.300000X-0.300000X0*%
%ADD49RoundRect,0.222500X-0.297500X-0.222500X0.297500X-0.222500X0.297500X0.222500X-0.297500X0.222500X0*%
%ADD50RoundRect,0.150000X-0.737500X-0.150000X0.737500X-0.150000X0.737500X0.150000X-0.737500X0.150000X0*%
%ADD51R,0.740000X2.400000*%
%ADD52R,2.350000X3.500000*%
%ADD53R,4.240000X3.810000*%
%ADD54RoundRect,0.150000X-0.150000X0.725000X-0.150000X-0.725000X0.150000X-0.725000X0.150000X0.725000X0*%
%ADD55RoundRect,0.150000X-0.150000X0.587500X-0.150000X-0.587500X0.150000X-0.587500X0.150000X0.587500X0*%
%ADD56R,1.200000X1.400000*%
%ADD57R,1.500000X2.000000*%
%ADD58R,3.800000X2.000000*%
G04 APERTURE END LIST*
D10*
X118350000Y-71310000D03*
X116450000Y-71310000D03*
D11*
X83895000Y-119675000D03*
X85165000Y-119675000D03*
X86435000Y-119675000D03*
X87705000Y-119675000D03*
X87705000Y-114525000D03*
X86435000Y-114525000D03*
X85165000Y-114525000D03*
X83895000Y-114525000D03*
D12*
X95000000Y-135000000D03*
X95000000Y-140400000D03*
D13*
X200575000Y-121750000D03*
X200575000Y-123650000D03*
D14*
X134887500Y-57500000D03*
X134887500Y-55675000D03*
D15*
X167300001Y-79800000D03*
X172700001Y-79800000D03*
D13*
X112400000Y-79360000D03*
X112400000Y-81260000D03*
X191700000Y-86312500D03*
X191700000Y-88212500D03*
D16*
X189500000Y-86350001D03*
X189500000Y-88175001D03*
D13*
X200600000Y-93212501D03*
X200600000Y-95112501D03*
D16*
X151850000Y-131375000D03*
X151850000Y-133200000D03*
X134887500Y-70675000D03*
X134887500Y-72500000D03*
D17*
X116450000Y-64310000D03*
X118350000Y-64310000D03*
D18*
X200625000Y-62712500D03*
X200625000Y-60812500D03*
D13*
X200600000Y-100812500D03*
X200600000Y-102712500D03*
D18*
X112400000Y-55125000D03*
X112400000Y-53225000D03*
D17*
X151550000Y-90500001D03*
X153450000Y-90500001D03*
D18*
X167300000Y-98850000D03*
X167300000Y-96950000D03*
D19*
X83950000Y-134100000D03*
X87650000Y-134100000D03*
D13*
X187300000Y-86312501D03*
X187300000Y-88212501D03*
D18*
X134887500Y-66537500D03*
X134887500Y-64637500D03*
D16*
X130450000Y-130737500D03*
X130450000Y-132562500D03*
D20*
X142550000Y-131650000D03*
X145350000Y-131650000D03*
D21*
X194775000Y-131637500D03*
X194775000Y-137562500D03*
D18*
X151825000Y-116537501D03*
X151825000Y-114637501D03*
D22*
X112550000Y-91450000D03*
X114550000Y-91450000D03*
X116550000Y-91450000D03*
D23*
X110150000Y-89200000D03*
X118950000Y-89200000D03*
D15*
X200575000Y-136900000D03*
X205975000Y-136900000D03*
D16*
X129387500Y-75175000D03*
X129387500Y-77000000D03*
D24*
X135437500Y-112650000D03*
X135437500Y-114650000D03*
D25*
X137687500Y-110250000D03*
X137687500Y-117050000D03*
D18*
X167300000Y-70350000D03*
X167300000Y-68450000D03*
D26*
X95600000Y-104187500D03*
X97500000Y-104187500D03*
X96550000Y-101912500D03*
D27*
X142627500Y-104050000D03*
X142627500Y-105950000D03*
X145247500Y-105000000D03*
D13*
X134350000Y-87550000D03*
X134350000Y-89450000D03*
D16*
X185100000Y-103050000D03*
X185100000Y-104875000D03*
D18*
X197875000Y-133450000D03*
X197875000Y-131550000D03*
D28*
X90650000Y-92050000D03*
X83650000Y-92050000D03*
X83650000Y-99050000D03*
X90650000Y-99050000D03*
D29*
X128000000Y-115200000D03*
X128000000Y-117100000D03*
X129875000Y-116150000D03*
D18*
X197900000Y-104912500D03*
X197900000Y-103012500D03*
D17*
X118400000Y-132285000D03*
X120300000Y-132285000D03*
D18*
X164600000Y-76350000D03*
X164600000Y-74450000D03*
D30*
X162737500Y-97250000D03*
X164862500Y-97250000D03*
D13*
X158400000Y-57750000D03*
X158400000Y-59650000D03*
X167300000Y-72250000D03*
X167300000Y-74150000D03*
D15*
X200625001Y-79762500D03*
X206025001Y-79762500D03*
D30*
X162787500Y-125637500D03*
X164912500Y-125637500D03*
D31*
X78812500Y-108500000D03*
X76987500Y-108500000D03*
D18*
X156250000Y-134137500D03*
X156250000Y-132237500D03*
D15*
X167300001Y-108300000D03*
X172700001Y-108300000D03*
D14*
X127437500Y-112062500D03*
X127437500Y-110237500D03*
D18*
X94100000Y-125150000D03*
X94100000Y-123250000D03*
D27*
X142627500Y-114200000D03*
X142627500Y-116100000D03*
X145247500Y-115150000D03*
D24*
X173050000Y-121387500D03*
X173050000Y-123387500D03*
X173050000Y-125387500D03*
X173050000Y-127387500D03*
D25*
X175300000Y-118987500D03*
X175300000Y-129787500D03*
D24*
X206325000Y-64462500D03*
X206325000Y-66462500D03*
X206325000Y-68462500D03*
X206325000Y-70462500D03*
D25*
X208575000Y-62062500D03*
X208575000Y-72862500D03*
D16*
X156200000Y-86287501D03*
X156200000Y-88112501D03*
D17*
X116450000Y-73810000D03*
X118350000Y-73810000D03*
D32*
X107937500Y-137285000D03*
X109762500Y-137285000D03*
D30*
X162737500Y-94750001D03*
X164862500Y-94750001D03*
D17*
X184875000Y-61962501D03*
X186775000Y-61962501D03*
D13*
X197875000Y-115750000D03*
X197875000Y-117650000D03*
D33*
X161500000Y-88962500D03*
X161500000Y-83037500D03*
D13*
X197900000Y-87212501D03*
X197900000Y-89112501D03*
X191675000Y-114850000D03*
X191675000Y-116750000D03*
D31*
X89662500Y-85550000D03*
X87837500Y-85550000D03*
D32*
X118437500Y-134785000D03*
X120262500Y-134785000D03*
D18*
X102350000Y-55125000D03*
X102350000Y-53225000D03*
D34*
X131267500Y-86975000D03*
X129997500Y-86975000D03*
X128727500Y-86975000D03*
X127457500Y-86975000D03*
X127457500Y-91925000D03*
X128727500Y-91925000D03*
X129997500Y-91925000D03*
X131267500Y-91925000D03*
D30*
X162787500Y-123137501D03*
X164912500Y-123137501D03*
D21*
X161550000Y-131425000D03*
X161550000Y-137350000D03*
D30*
X196062500Y-63662501D03*
X198187500Y-63662501D03*
D21*
X161500000Y-103037500D03*
X161500000Y-108962500D03*
D30*
X162737500Y-92200001D03*
X164862500Y-92200001D03*
D14*
X134887500Y-77000000D03*
X134887500Y-75175000D03*
D16*
X129387500Y-55675000D03*
X129387500Y-57500000D03*
D18*
X134887500Y-81537500D03*
X134887500Y-79637500D03*
D32*
X89887500Y-130400000D03*
X91712500Y-130400000D03*
D18*
X154000000Y-104850000D03*
X154000000Y-102950000D03*
D35*
X90900000Y-122550000D03*
X90900000Y-125850000D03*
D33*
X194775000Y-117562500D03*
X194775000Y-111637500D03*
D24*
X135437500Y-122900000D03*
X135437500Y-124900000D03*
D25*
X137687500Y-120500000D03*
X137687500Y-127300000D03*
D29*
X128000000Y-105050000D03*
X128000000Y-106950000D03*
X129875000Y-106000000D03*
D30*
X162737500Y-66250001D03*
X164862500Y-66250001D03*
D16*
X130437500Y-100087500D03*
X130437500Y-101912500D03*
D14*
X114850000Y-81222500D03*
X114850000Y-79397500D03*
D36*
X75700000Y-78900000D03*
X79700000Y-78900000D03*
D13*
X167300000Y-64650001D03*
X167300000Y-66550001D03*
D18*
X200575000Y-119850000D03*
X200575000Y-117950000D03*
D16*
X126887500Y-70675000D03*
X126887500Y-72500000D03*
D13*
X131887500Y-75137500D03*
X131887500Y-77037500D03*
D18*
X191675000Y-134350000D03*
X191675000Y-132450000D03*
D17*
X79050000Y-136000000D03*
X80950000Y-136000000D03*
D18*
X200575000Y-127450000D03*
X200575000Y-125550000D03*
D24*
X116250000Y-100350000D03*
X116250000Y-102350000D03*
X116250000Y-104350000D03*
X116250000Y-106350000D03*
X116250000Y-108350000D03*
X116250000Y-110350000D03*
D25*
X118500000Y-97950000D03*
X118500000Y-112750000D03*
D18*
X200600000Y-98912500D03*
X200600000Y-97012500D03*
D16*
X107400000Y-79397500D03*
X107400000Y-81222500D03*
D13*
X154050000Y-114637501D03*
X154050000Y-116537501D03*
D18*
X167300000Y-91250000D03*
X167300000Y-89350000D03*
D20*
X142537500Y-101000000D03*
X145337500Y-101000000D03*
D30*
X196062500Y-68712500D03*
X198187500Y-68712500D03*
D13*
X167350000Y-129137500D03*
X167350000Y-131037500D03*
D30*
X196062500Y-66212501D03*
X198187500Y-66212501D03*
D16*
X189475000Y-114887500D03*
X189475000Y-116712500D03*
D13*
X197925000Y-58612501D03*
X197925000Y-60512501D03*
D20*
X142537500Y-111150000D03*
X145337500Y-111150000D03*
D17*
X151600000Y-118887501D03*
X153500000Y-118887501D03*
D37*
X132312500Y-60475000D03*
X131662500Y-60475000D03*
X131012500Y-60475000D03*
X130362500Y-60475000D03*
X129712500Y-60475000D03*
X129062500Y-60475000D03*
X128412500Y-60475000D03*
X127762500Y-60475000D03*
X127112500Y-60475000D03*
X126462500Y-60475000D03*
X126462500Y-66200000D03*
X127112500Y-66200000D03*
X127762500Y-66200000D03*
X128412500Y-66200000D03*
X129062500Y-66200000D03*
X129712500Y-66200000D03*
X130362500Y-66200000D03*
X131012500Y-66200000D03*
X131662500Y-66200000D03*
X132312500Y-66200000D03*
D18*
X158450000Y-134137500D03*
X158450000Y-132237500D03*
D13*
X200625000Y-72212500D03*
X200625000Y-74112500D03*
D38*
X117050000Y-125835000D03*
X110250000Y-125835000D03*
D18*
X191725000Y-77212500D03*
X191725000Y-75312500D03*
D33*
X161550000Y-117350000D03*
X161550000Y-111425000D03*
D39*
X86937500Y-69350000D03*
X86937500Y-68400000D03*
X86937500Y-67450000D03*
X84662500Y-67450000D03*
X84662500Y-68400000D03*
X84662500Y-69350000D03*
D21*
X194825000Y-74500000D03*
X194825000Y-80425000D03*
D30*
X196012500Y-123350000D03*
X198137500Y-123350000D03*
D18*
X158400000Y-77250000D03*
X158400000Y-75350000D03*
D24*
X206275000Y-121600000D03*
X206275000Y-123600000D03*
X206275000Y-125600000D03*
X206275000Y-127600000D03*
D25*
X208525000Y-119200000D03*
X208525000Y-130000000D03*
D40*
X78975000Y-90550000D03*
X71025000Y-90550000D03*
X78975000Y-86050000D03*
X71025000Y-86050000D03*
D18*
X191700000Y-105812500D03*
X191700000Y-103912500D03*
D17*
X184850000Y-90562501D03*
X186750000Y-90562501D03*
D24*
X102750000Y-89650000D03*
X102750000Y-91650000D03*
X102750000Y-93650000D03*
D25*
X105000000Y-87250000D03*
X105000000Y-96050000D03*
D27*
X142627500Y-124450000D03*
X142627500Y-126350000D03*
X145247500Y-125400000D03*
D30*
X196012500Y-128400000D03*
X198137500Y-128400000D03*
X196037500Y-92262501D03*
X198162500Y-92262501D03*
D13*
X107299121Y-113769611D03*
X107299121Y-115669611D03*
D18*
X99850000Y-55100000D03*
X99850000Y-53200000D03*
X89000000Y-139950000D03*
X89000000Y-138050000D03*
D13*
X200625000Y-64612501D03*
X200625000Y-66512501D03*
D14*
X127437500Y-101912500D03*
X127437500Y-100087500D03*
D18*
X164600000Y-104850000D03*
X164600000Y-102950000D03*
D16*
X151800000Y-74487500D03*
X151800000Y-76312500D03*
D13*
X116100000Y-133085000D03*
X116100000Y-134985000D03*
D24*
X135450000Y-133150000D03*
X135450000Y-135150000D03*
D25*
X137700000Y-130750000D03*
X137700000Y-137550000D03*
D18*
X154000000Y-76350000D03*
X154000000Y-74450000D03*
X187325000Y-76312500D03*
X187325000Y-74412500D03*
D41*
X191370000Y-96062500D03*
X189300000Y-96062500D03*
X187230000Y-96062500D03*
D42*
X193525000Y-93187500D03*
X192875000Y-93187500D03*
X192225000Y-93187500D03*
X191575000Y-93187500D03*
X190925000Y-93187500D03*
X190275000Y-93187500D03*
X189625000Y-93187500D03*
X188975000Y-93187500D03*
X188325000Y-93187500D03*
X187675000Y-93187500D03*
X187025000Y-93187500D03*
X186375000Y-93187500D03*
X185725000Y-93187500D03*
X185075000Y-93187500D03*
X185075000Y-98937500D03*
X185725000Y-98937500D03*
X186375000Y-98937500D03*
X187025000Y-98937500D03*
X187675000Y-98937500D03*
X188325000Y-98937500D03*
X188975000Y-98937500D03*
X189625000Y-98937500D03*
X190275000Y-98937500D03*
X190925000Y-98937500D03*
X191575000Y-98937500D03*
X192225000Y-98937500D03*
X192875000Y-98937500D03*
X193525000Y-98937500D03*
D30*
X196037500Y-94812501D03*
X198162500Y-94812501D03*
D43*
X74350000Y-112000000D03*
X71450000Y-112000000D03*
D16*
X105600000Y-132622500D03*
X105600000Y-134447500D03*
D30*
X196012500Y-125850000D03*
X198137500Y-125850000D03*
D18*
X197925000Y-76312500D03*
X197925000Y-74412500D03*
D42*
X193550000Y-70337500D03*
X192900000Y-70337500D03*
X192250000Y-70337500D03*
X191600000Y-70337500D03*
X190950000Y-70337500D03*
X190300000Y-70337500D03*
X189650000Y-70337500D03*
X189000000Y-70337500D03*
X188350000Y-70337500D03*
X187700000Y-70337500D03*
X187050000Y-70337500D03*
X186400000Y-70337500D03*
X185750000Y-70337500D03*
X185100000Y-70337500D03*
X185100000Y-64587500D03*
X185750000Y-64587500D03*
X186400000Y-64587500D03*
X187050000Y-64587500D03*
X187700000Y-64587500D03*
X188350000Y-64587500D03*
X189000000Y-64587500D03*
X189650000Y-64587500D03*
X190300000Y-64587500D03*
X190950000Y-64587500D03*
X191600000Y-64587500D03*
X192250000Y-64587500D03*
X192900000Y-64587500D03*
X193550000Y-64587500D03*
D41*
X187255000Y-67462500D03*
X189325000Y-67462500D03*
X191395000Y-67462500D03*
D18*
X109900000Y-55125000D03*
X109900000Y-53225000D03*
D31*
X91712500Y-128100000D03*
X89887500Y-128100000D03*
D10*
X79350000Y-112000000D03*
X77450000Y-112000000D03*
D16*
X156200000Y-57787501D03*
X156200000Y-59612501D03*
X189525000Y-57750001D03*
X189525000Y-59575001D03*
D13*
X187275000Y-114850000D03*
X187275000Y-116750000D03*
D17*
X184825000Y-119100000D03*
X186725000Y-119100000D03*
D18*
X189500000Y-105812500D03*
X189500000Y-103912500D03*
X187300000Y-104912500D03*
X187300000Y-103012500D03*
D44*
X97500000Y-94112500D03*
X95600000Y-94112500D03*
X96550000Y-96387500D03*
D16*
X130437500Y-110237500D03*
X130437500Y-112062500D03*
D32*
X91487500Y-119800000D03*
X93312500Y-119800000D03*
D33*
X161500000Y-60462500D03*
X161500000Y-54537500D03*
D30*
X162737500Y-63700001D03*
X164862500Y-63700001D03*
D31*
X118312500Y-61810000D03*
X116487500Y-61810000D03*
D18*
X185050000Y-116750000D03*
X185050000Y-114850000D03*
D14*
X127450000Y-132562500D03*
X127450000Y-130737500D03*
D18*
X167350000Y-127237500D03*
X167350000Y-125337500D03*
D16*
X131887500Y-55675000D03*
X131887500Y-57500000D03*
D45*
X112075000Y-73310000D03*
X112075000Y-72810000D03*
X112075000Y-72310000D03*
X112075000Y-71810000D03*
X112075000Y-71310000D03*
X112075000Y-70810000D03*
X112075000Y-70310000D03*
X112075000Y-69810000D03*
X112075000Y-69310000D03*
X112075000Y-68810000D03*
X112075000Y-68310000D03*
X112075000Y-67810000D03*
X112075000Y-67310000D03*
X112075000Y-66810000D03*
X112075000Y-66310000D03*
X112075000Y-65810000D03*
X112075000Y-65310000D03*
X112075000Y-64810000D03*
X112075000Y-64310000D03*
X112075000Y-63810000D03*
X112075000Y-63310000D03*
X112075000Y-62810000D03*
X112075000Y-62310000D03*
X112075000Y-61810000D03*
X112075000Y-61310000D03*
D46*
X110400000Y-59635000D03*
X109900000Y-59635000D03*
X109400000Y-59635000D03*
X108900000Y-59635000D03*
X108400000Y-59635000D03*
X107900000Y-59635000D03*
X107400000Y-59635000D03*
X106900000Y-59635000D03*
X106400000Y-59635000D03*
X105900000Y-59635000D03*
X105400000Y-59635000D03*
X104900000Y-59635000D03*
X104400000Y-59635000D03*
X103900000Y-59635000D03*
X103400000Y-59635000D03*
X102900000Y-59635000D03*
X102400000Y-59635000D03*
X101900000Y-59635000D03*
X101400000Y-59635000D03*
X100900000Y-59635000D03*
X100400000Y-59635000D03*
X99900000Y-59635000D03*
X99400000Y-59635000D03*
X98900000Y-59635000D03*
X98400000Y-59635000D03*
D45*
X96725000Y-61310000D03*
X96725000Y-61810000D03*
X96725000Y-62310000D03*
X96725000Y-62810000D03*
X96725000Y-63310000D03*
X96725000Y-63810000D03*
X96725000Y-64310000D03*
X96725000Y-64810000D03*
X96725000Y-65310000D03*
X96725000Y-65810000D03*
X96725000Y-66310000D03*
X96725000Y-66810000D03*
X96725000Y-67310000D03*
X96725000Y-67810000D03*
X96725000Y-68310000D03*
X96725000Y-68810000D03*
X96725000Y-69310000D03*
X96725000Y-69810000D03*
X96725000Y-70310000D03*
X96725000Y-70810000D03*
X96725000Y-71310000D03*
X96725000Y-71810000D03*
X96725000Y-72310000D03*
X96725000Y-72810000D03*
X96725000Y-73310000D03*
D46*
X98400000Y-74985000D03*
X98900000Y-74985000D03*
X99400000Y-74985000D03*
X99900000Y-74985000D03*
X100400000Y-74985000D03*
X100900000Y-74985000D03*
X101400000Y-74985000D03*
X101900000Y-74985000D03*
X102400000Y-74985000D03*
X102900000Y-74985000D03*
X103400000Y-74985000D03*
X103900000Y-74985000D03*
X104400000Y-74985000D03*
X104900000Y-74985000D03*
X105400000Y-74985000D03*
X105900000Y-74985000D03*
X106400000Y-74985000D03*
X106900000Y-74985000D03*
X107400000Y-74985000D03*
X107900000Y-74985000D03*
X108400000Y-74985000D03*
X108900000Y-74985000D03*
X109400000Y-74985000D03*
X109900000Y-74985000D03*
X110400000Y-74985000D03*
D15*
X167350001Y-136687500D03*
X172750001Y-136687500D03*
D18*
X151775000Y-88150001D03*
X151775000Y-86250001D03*
D13*
X164600000Y-87150001D03*
X164600000Y-89050001D03*
D10*
X92350000Y-70310000D03*
X90450000Y-70310000D03*
D47*
X72662500Y-105600000D03*
X74537500Y-105600000D03*
D13*
X102150000Y-129485000D03*
X102150000Y-131385000D03*
X167300000Y-93150001D03*
X167300000Y-95050001D03*
D30*
X196012500Y-120800000D03*
X198137500Y-120800000D03*
D41*
X191345000Y-124600000D03*
X189275000Y-124600000D03*
X187205000Y-124600000D03*
D42*
X193500000Y-121725000D03*
X192850000Y-121725000D03*
X192200000Y-121725000D03*
X191550000Y-121725000D03*
X190900000Y-121725000D03*
X190250000Y-121725000D03*
X189600000Y-121725000D03*
X188950000Y-121725000D03*
X188300000Y-121725000D03*
X187650000Y-121725000D03*
X187000000Y-121725000D03*
X186350000Y-121725000D03*
X185700000Y-121725000D03*
X185050000Y-121725000D03*
X185050000Y-127475000D03*
X185700000Y-127475000D03*
X186350000Y-127475000D03*
X187000000Y-127475000D03*
X187650000Y-127475000D03*
X188300000Y-127475000D03*
X188950000Y-127475000D03*
X189600000Y-127475000D03*
X190250000Y-127475000D03*
X190900000Y-127475000D03*
X191550000Y-127475000D03*
X192200000Y-127475000D03*
X192850000Y-127475000D03*
X193500000Y-127475000D03*
D31*
X113762500Y-137285000D03*
X111937500Y-137285000D03*
D48*
X90650000Y-87850000D03*
X87850000Y-87850000D03*
D16*
X126887500Y-55675000D03*
X126887500Y-57500000D03*
D49*
X110250000Y-132105000D03*
X110250000Y-133135000D03*
X110250000Y-134165000D03*
X111450000Y-132105000D03*
X111450000Y-133135000D03*
X111450000Y-134165000D03*
D50*
X108287500Y-131230000D03*
X108287500Y-132500000D03*
X108287500Y-133770000D03*
X108287500Y-135040000D03*
X113412500Y-135040000D03*
X113412500Y-133770000D03*
X113412500Y-132500000D03*
X113412500Y-131230000D03*
D24*
X173000000Y-64500000D03*
X173000000Y-66500000D03*
X173000000Y-68500000D03*
X173000000Y-70500000D03*
D25*
X175250000Y-62100000D03*
X175250000Y-72900000D03*
D18*
X97350000Y-55125000D03*
X97350000Y-53225000D03*
X189525000Y-77212500D03*
X189525000Y-75312500D03*
D24*
X135437500Y-102500000D03*
X135437500Y-104500000D03*
D25*
X137687500Y-100100000D03*
X137687500Y-106900000D03*
D27*
X142640000Y-134700000D03*
X142640000Y-136600000D03*
X145260000Y-135650000D03*
D21*
X194800000Y-103100000D03*
X194800000Y-109025000D03*
D13*
X164650000Y-115537501D03*
X164650000Y-117437501D03*
D14*
X104900000Y-81222500D03*
X104900000Y-79397500D03*
D13*
X158450000Y-114637500D03*
X158450000Y-116537500D03*
D30*
X162787500Y-120587501D03*
X164912500Y-120587501D03*
D18*
X85750000Y-139950000D03*
X85750000Y-138050000D03*
D16*
X94100000Y-114537500D03*
X94100000Y-116362500D03*
D18*
X92500000Y-110800000D03*
X92500000Y-108900000D03*
D30*
X196062500Y-71262500D03*
X198187500Y-71262500D03*
D18*
X107400000Y-55125000D03*
X107400000Y-53225000D03*
X154050000Y-133237500D03*
X154050000Y-131337500D03*
D17*
X116450000Y-59310000D03*
X118350000Y-59310000D03*
D30*
X196037500Y-99862500D03*
X198162500Y-99862500D03*
D41*
X158120000Y-124387500D03*
X156050000Y-124387500D03*
X153980000Y-124387500D03*
D42*
X160275000Y-121512500D03*
X159625000Y-121512500D03*
X158975000Y-121512500D03*
X158325000Y-121512500D03*
X157675000Y-121512500D03*
X157025000Y-121512500D03*
X156375000Y-121512500D03*
X155725000Y-121512500D03*
X155075000Y-121512500D03*
X154425000Y-121512500D03*
X153775000Y-121512500D03*
X153125000Y-121512500D03*
X152475000Y-121512500D03*
X151825000Y-121512500D03*
X151825000Y-127262500D03*
X152475000Y-127262500D03*
X153125000Y-127262500D03*
X153775000Y-127262500D03*
X154425000Y-127262500D03*
X155075000Y-127262500D03*
X155725000Y-127262500D03*
X156375000Y-127262500D03*
X157025000Y-127262500D03*
X157675000Y-127262500D03*
X158325000Y-127262500D03*
X158975000Y-127262500D03*
X159625000Y-127262500D03*
X160275000Y-127262500D03*
D18*
X200625000Y-70312500D03*
X200625000Y-68412500D03*
D16*
X134887500Y-60175000D03*
X134887500Y-62000000D03*
D13*
X109900000Y-79360000D03*
X109900000Y-81260000D03*
D33*
X194800000Y-89025000D03*
X194800000Y-83100000D03*
D16*
X130437500Y-120487500D03*
X130437500Y-122312500D03*
D13*
X92500000Y-103900000D03*
X92500000Y-105800000D03*
X99650000Y-129485000D03*
X99650000Y-131385000D03*
X167300000Y-100750000D03*
X167300000Y-102650000D03*
D21*
X161500000Y-74537500D03*
X161500000Y-80462500D03*
D16*
X129387500Y-70675000D03*
X129387500Y-72500000D03*
D47*
X72662500Y-108500000D03*
X74537500Y-108500000D03*
D31*
X117762500Y-137285000D03*
X115937500Y-137285000D03*
D13*
X105487500Y-128872500D03*
X105487500Y-130772500D03*
D18*
X156200000Y-105750000D03*
X156200000Y-103850000D03*
D24*
X206300000Y-93062500D03*
X206300000Y-95062500D03*
X206300000Y-97062500D03*
X206300000Y-99062500D03*
D25*
X208550000Y-90662500D03*
X208550000Y-101462500D03*
D29*
X128000000Y-125450000D03*
X128000000Y-127350000D03*
X129875000Y-126400000D03*
D17*
X151550000Y-62000001D03*
X153450000Y-62000001D03*
D30*
X162737500Y-71300000D03*
X164862500Y-71300000D03*
D51*
X87790000Y-74400000D03*
X87790000Y-78300000D03*
X86520000Y-74400000D03*
X86520000Y-78300000D03*
X85250000Y-74400000D03*
X85250000Y-78300000D03*
X83980000Y-74400000D03*
X83980000Y-78300000D03*
X82710000Y-74400000D03*
X82710000Y-78300000D03*
D31*
X72012500Y-78800000D03*
X70187500Y-78800000D03*
D13*
X154000000Y-86250001D03*
X154000000Y-88150001D03*
D24*
X140850000Y-88425000D03*
X140850000Y-90425000D03*
X140850000Y-92425000D03*
X140850000Y-94425000D03*
D25*
X143100000Y-86025000D03*
X143100000Y-96825000D03*
D41*
X158070000Y-67500000D03*
X156000000Y-67500000D03*
X153930000Y-67500000D03*
D42*
X160225000Y-64625000D03*
X159575000Y-64625000D03*
X158925000Y-64625000D03*
X158275000Y-64625000D03*
X157625000Y-64625000D03*
X156975000Y-64625000D03*
X156325000Y-64625000D03*
X155675000Y-64625000D03*
X155025000Y-64625000D03*
X154375000Y-64625000D03*
X153725000Y-64625000D03*
X153075000Y-64625000D03*
X152425000Y-64625000D03*
X151775000Y-64625000D03*
X151775000Y-70375000D03*
X152425000Y-70375000D03*
X153075000Y-70375000D03*
X153725000Y-70375000D03*
X154375000Y-70375000D03*
X155025000Y-70375000D03*
X155675000Y-70375000D03*
X156325000Y-70375000D03*
X156975000Y-70375000D03*
X157625000Y-70375000D03*
X158275000Y-70375000D03*
X158925000Y-70375000D03*
X159575000Y-70375000D03*
X160225000Y-70375000D03*
D16*
X151800000Y-102987500D03*
X151800000Y-104812500D03*
D18*
X167300000Y-62750000D03*
X167300000Y-60850000D03*
D13*
X187325000Y-57712501D03*
X187325000Y-59612501D03*
D18*
X151775000Y-59650001D03*
X151775000Y-57750001D03*
D13*
X191725000Y-57712500D03*
X191725000Y-59612500D03*
D41*
X158070000Y-96000000D03*
X156000000Y-96000000D03*
X153930000Y-96000000D03*
D42*
X160225000Y-93125000D03*
X159575000Y-93125000D03*
X158925000Y-93125000D03*
X158275000Y-93125000D03*
X157625000Y-93125000D03*
X156975000Y-93125000D03*
X156325000Y-93125000D03*
X155675000Y-93125000D03*
X155025000Y-93125000D03*
X154375000Y-93125000D03*
X153725000Y-93125000D03*
X153075000Y-93125000D03*
X152425000Y-93125000D03*
X151775000Y-93125000D03*
X151775000Y-98875000D03*
X152425000Y-98875000D03*
X153075000Y-98875000D03*
X153725000Y-98875000D03*
X154375000Y-98875000D03*
X155025000Y-98875000D03*
X155675000Y-98875000D03*
X156325000Y-98875000D03*
X156975000Y-98875000D03*
X157625000Y-98875000D03*
X158275000Y-98875000D03*
X158925000Y-98875000D03*
X159575000Y-98875000D03*
X160225000Y-98875000D03*
D52*
X116675000Y-118035000D03*
X110625000Y-118035000D03*
D17*
X79050000Y-139250000D03*
X80950000Y-139250000D03*
D10*
X92350000Y-72810000D03*
X90450000Y-72810000D03*
D44*
X97500000Y-86912500D03*
X96550000Y-86912500D03*
X95600000Y-86912500D03*
X95600000Y-89187500D03*
X96550000Y-89187500D03*
X97500000Y-89187500D03*
D18*
X185075000Y-88212501D03*
X185075000Y-86312501D03*
D13*
X200575000Y-129350000D03*
X200575000Y-131250000D03*
D14*
X102400000Y-81222500D03*
X102400000Y-79397500D03*
D18*
X156200000Y-77250000D03*
X156200000Y-75350000D03*
D14*
X104900000Y-55087500D03*
X104900000Y-53262500D03*
D13*
X158400000Y-86250000D03*
X158400000Y-88150000D03*
D16*
X185075000Y-131587500D03*
X185075000Y-133412500D03*
D30*
X162737500Y-99800000D03*
X164862500Y-99800000D03*
D16*
X156250000Y-114675001D03*
X156250000Y-116500001D03*
D18*
X158400000Y-105750000D03*
X158400000Y-103850000D03*
X167350000Y-119637500D03*
X167350000Y-117737500D03*
D13*
X154000000Y-57750001D03*
X154000000Y-59650001D03*
D53*
X72215000Y-116500000D03*
X78585000Y-116500000D03*
D47*
X72662500Y-102600000D03*
X74537500Y-102600000D03*
D18*
X187275000Y-133450000D03*
X187275000Y-131550000D03*
D14*
X127437500Y-122312500D03*
X127437500Y-120487500D03*
D29*
X133812500Y-93200000D03*
X133812500Y-95100000D03*
X135687500Y-94150000D03*
D30*
X162737500Y-68750000D03*
X164862500Y-68750000D03*
X196037500Y-97312500D03*
X198162500Y-97312500D03*
D13*
X104799121Y-113769611D03*
X104799121Y-115669611D03*
D54*
X87705000Y-122825000D03*
X86435000Y-122825000D03*
X85165000Y-122825000D03*
X83895000Y-122825000D03*
X83895000Y-127975000D03*
X85165000Y-127975000D03*
X86435000Y-127975000D03*
X87705000Y-127975000D03*
D16*
X105600000Y-136622500D03*
X105600000Y-138447500D03*
D55*
X84900000Y-86212500D03*
X83000000Y-86212500D03*
X83950000Y-88087500D03*
D35*
X90900000Y-113950000D03*
X90900000Y-117250000D03*
D16*
X185125000Y-74450000D03*
X185125000Y-76275000D03*
D33*
X194825000Y-60425000D03*
X194825000Y-54500000D03*
D24*
X173000000Y-93000000D03*
X173000000Y-95000000D03*
X173000000Y-97000000D03*
X173000000Y-99000000D03*
D25*
X175250000Y-90600000D03*
X175250000Y-101400000D03*
D24*
X102750000Y-104650000D03*
X102750000Y-106650000D03*
X102750000Y-108650000D03*
D25*
X105000000Y-102250000D03*
X105000000Y-111050000D03*
D56*
X118250000Y-68910000D03*
X118250000Y-66710000D03*
X116550000Y-66710000D03*
X116550000Y-68910000D03*
D12*
X104350000Y-119235000D03*
X104350000Y-124635000D03*
D13*
X131887500Y-70637500D03*
X131887500Y-72537500D03*
D18*
X164650000Y-133237500D03*
X164650000Y-131337500D03*
D57*
X84500000Y-110500000D03*
X86800000Y-110500000D03*
D58*
X86800000Y-104200000D03*
D57*
X89100000Y-110500000D03*
D18*
X189475000Y-134350000D03*
X189475000Y-132450000D03*
D13*
X167350000Y-121537501D03*
X167350000Y-123437501D03*
D31*
X78812500Y-102600000D03*
X76987500Y-102600000D03*
D26*
X109700000Y-104287500D03*
X111600000Y-104287500D03*
X110650000Y-102012500D03*
D20*
X142537500Y-121400000D03*
X145337500Y-121400000D03*
D13*
X102299121Y-113769611D03*
X102299121Y-115669611D03*
D31*
X78812500Y-105600000D03*
X76987500Y-105600000D03*
D29*
X128012500Y-135700000D03*
X128012500Y-137600000D03*
X129887500Y-136650000D03*
D30*
X162787500Y-128187500D03*
X164912500Y-128187500D03*
D15*
X200600001Y-108362500D03*
X206000001Y-108362500D03*
D40*
X71025000Y-94550000D03*
X78975000Y-94550000D03*
X71025000Y-99050000D03*
X78975000Y-99050000D03*
D32*
X128450000Y-95950000D03*
X130275000Y-95950000D03*
D13*
X164600000Y-58650001D03*
X164600000Y-60550001D03*
D18*
X200600000Y-91312500D03*
X200600000Y-89412500D03*
X185100000Y-59612501D03*
X185100000Y-57712501D03*
M02*
