M48
INCH,TZ
T1C0.0118
T2C0.0118
T3C0.0315
T4C0.0374
T5C0.0394
T6C0.0472
T7C0.0906
T8C0.1260
%
G90
G05
T1
X26870Y-50098
X26870Y-50728
X26870Y-51358
X27146Y-31043
X27165Y-49803
X27165Y-50394
X27165Y-51043
X27579Y-43839
X27579Y-44272
X27657Y-30453
X27933Y-51969
X27933Y-52559
X28248Y-40965
X28248Y-51673
X28248Y-52264
X28248Y-52854
X28563Y-35650
X28602Y-42146
X28740Y-53445
X29035Y-53799
X29331Y-53445
X29626Y-53799
X29823Y-31752
X29921Y-53445
X30492Y-35650
X30650Y-53524
X30650Y-54823
X30669Y-30020
X31102Y-34350
X31240Y-43524
X31516Y-42146
X31693Y-37205
X31693Y-43504
X31791Y-44114
X32067Y-29272
X32343Y-44744
X32421Y-40394
X32677Y-26929
X32677Y-43110
X32677Y-43406
X32677Y-43701
X32972Y-42815
X33268Y-42815
X33563Y-28484
X33760Y-55571
X33839Y-41929
X33839Y-42323
X33839Y-42717
X34075Y-28484
X34193Y-42106
X34193Y-42539
X34311Y-31476
X34390Y-26043
X34390Y-27815
X34547Y-41929
X34547Y-42323
X34547Y-42717
X34563Y-28602
X34744Y-26909
X34882Y-30827
X35059Y-55571
X35138Y-27539
X35138Y-27933
X35138Y-28445
X35138Y-28839
X35217Y-34587
X35374Y-49980
X35650Y-33681
X35728Y-30846
X35807Y-22736
X35807Y-26083
X35827Y-41535
X35827Y-41831
X35827Y-42618
X35827Y-42913
X36417Y-54823
X36417Y-55217
X36417Y-55610
X36476Y-22146
X36516Y-25768
X36634Y-25020
X36713Y-54626
X36713Y-55020
X36713Y-55413
X36713Y-55807
X36772Y-22461
X36791Y-25453
X36870Y-29941
X36949Y-27972
X37047Y-22736
X37047Y-26161
X37067Y-26752
X37185Y-47146
X37421Y-26949
X37441Y-26024
X37500Y-40059
X37618Y-33720
X37776Y-20965
X38012Y-33563
X38012Y-35669
X38091Y-23799
X38091Y-29134
X38386Y-33760
X38484Y-37992
X38681Y-26339
X38780Y-27559
X38789Y-28002
X38839Y-21398
X38976Y-34941
X38976Y-50492
X38996Y-27165
X39035Y-24547
X39075Y-33661
X39075Y-36437
X39075Y-36909
X39469Y-43307
X39469Y-50492
X39488Y-26614
X39528Y-22461
X39606Y-25965
X39665Y-31102
X39744Y-25630
X39754Y-31978
X39823Y-21004
X39862Y-43307
X39946Y-22466
X39961Y-50492
X40020Y-25394
X40059Y-44291
X40059Y-48720
X40059Y-49114
X40059Y-49508
X40256Y-25138
X40256Y-43307
X40453Y-37402
X40453Y-48524
X40453Y-48917
X40453Y-49311
X40453Y-49705
X40453Y-50492
X40551Y-44291
X40650Y-25689
X40807Y-21043
X40807Y-22343
X40807Y-25965
X40935Y-26260
X41004Y-54508
X41043Y-44291
X41172Y-26527
X41476Y-28287
X41476Y-28642
X41516Y-27815
X41535Y-44291
X41555Y-24272
X41673Y-22146
X41752Y-47815
X41831Y-32185
X41870Y-24941
X42028Y-44291
X42067Y-24311
X42224Y-49114
X42224Y-49508
X42224Y-49902
X42343Y-24902
X42461Y-24311
X42461Y-25256
X42520Y-44291
X42618Y-48917
X42618Y-49311
X42618Y-49705
X42618Y-50098
X42644Y-24022
X42776Y-51161
X42815Y-28720
X42854Y-25728
X43130Y-36594
X43169Y-28720
X43189Y-41594
X43189Y-41909
X43563Y-54665
X43583Y-26299
X43642Y-53681
X43642Y-54035
X43681Y-23051
X43681Y-37264
X43760Y-32185
X43917Y-39941
X44390Y-41043
X44390Y-41437
X44390Y-41870
X44547Y-51240
X44705Y-25177
X44724Y-25610
X44744Y-24744
X44823Y-24272
X44872Y-26264
X44872Y-27012
X44902Y-20886
X45305Y-26185
X45305Y-27209
X45364Y-25339
X45364Y-25772
X45364Y-27622
X45364Y-28094
X45443Y-24846
X45463Y-28547
X45531Y-37343
X45886Y-32185
X46211Y-24748
X46230Y-28626
X46437Y-36004
X46634Y-51594
X46998Y-24866
X47018Y-28508
X47028Y-24547
X47106Y-23327
X47116Y-25319
X47116Y-25772
X47116Y-26244
X47116Y-26677
X47116Y-27130
X47116Y-27602
X47116Y-28055
X47146Y-40728
X47146Y-41083
X47146Y-41476
X47146Y-41870
X47146Y-42224
X47421Y-23327
X49016Y-32185
X49744Y-36201
X49783Y-24390
X49843Y-45748
X49843Y-46142
X49843Y-46535
X49882Y-41732
X49882Y-42126
X49882Y-42520
X49882Y-49764
X49882Y-50157
X49882Y-50551
X49887Y-53799
X49887Y-54193
X49887Y-54587
X50098Y-24783
X50162Y-33602
X50177Y-36870
X50236Y-46535
X50276Y-42520
X50276Y-50551
X50281Y-54587
X50630Y-46535
X50669Y-42520
X50669Y-50551
X50674Y-34862
X50674Y-54587
X50807Y-25098
X51024Y-46535
X51063Y-42520
X51063Y-50551
X51068Y-54587
X51180Y-34862
X51358Y-38957
X51358Y-42972
X51358Y-47028
X51358Y-51004
X51457Y-33661
X51988Y-23169
X51988Y-29035
X52106Y-24390
X52106Y-30807
X52500Y-31240
X52736Y-29980
X52894Y-35689
X52933Y-33858
X53091Y-28996
X53130Y-24980
X53287Y-38484
X53602Y-34823
X53642Y-27972
X53642Y-31083
X53720Y-21752
X55453Y-34272
X55689Y-46398
X56437Y-30807
X56791Y-34547
X56791Y-34902
X56949Y-41752
X57185Y-53799
X57264Y-22736
X57303Y-49783
X57343Y-45689
X58209Y-33012
X59350Y-27707
X59390Y-52067
X59429Y-47343
X59469Y-50945
X59606Y-38130
X59606Y-44759
X59646Y-22362
X59665Y-46280
X59823Y-39547
X59862Y-40059
X60059Y-47264
X60098Y-33484
X60177Y-40886
X60241Y-51265
X60256Y-40059
X60352Y-28738
X60610Y-53091
X60768Y-39941
X61004Y-33150
X61004Y-41713
X61043Y-28287
X61053Y-22411
X61053Y-51043
X61063Y-28740
X61102Y-44626
X61161Y-29154
X61161Y-40098
X61240Y-51437
X61339Y-50748
X61516Y-42067
X61673Y-24035
X61673Y-35295
X61673Y-46437
X61752Y-24390
X61752Y-46752
X61791Y-35650
X61831Y-22382
X61850Y-28868
X61850Y-40089
X61870Y-28396
X61870Y-33563
X61870Y-39616
X61870Y-44744
X61870Y-51265
X61890Y-50792
X61909Y-46988
X61949Y-53209
X61988Y-24114
X61988Y-35335
X61988Y-46437
X62037Y-28632
X62037Y-39852
X62057Y-51029
X62067Y-24429
X62067Y-35650
X62067Y-46713
X62116Y-24705
X62146Y-35965
X62156Y-28268
X62156Y-39488
X62175Y-50664
X62185Y-47146
X62382Y-42028
X62579Y-22303
X62657Y-33524
X62657Y-44665
X62697Y-30846
X62933Y-20965
X62933Y-54626
X62972Y-34350
X62972Y-43366
X63012Y-23169
X63012Y-45492
X63327Y-20965
X63327Y-43366
X63366Y-54626
X63484Y-47421
X63602Y-24980
X63642Y-27992
X63642Y-28268
X63642Y-39213
X63642Y-39488
X63661Y-50389
X63661Y-50664
X63681Y-36083
X63681Y-36398
X63720Y-47618
X63760Y-47185
X63799Y-32185
X63799Y-54626
X63839Y-20965
X63839Y-43366
X63996Y-28533
X63996Y-35846
X63996Y-39754
X64016Y-50930
X64035Y-24587
X64075Y-46949
X64154Y-32185
X64193Y-43366
X64232Y-20965
X64232Y-54626
X64272Y-35610
X64341Y-24518
X64341Y-28543
X64341Y-39764
X64350Y-25453
X64350Y-35925
X64350Y-36634
X64350Y-47854
X64360Y-46752
X64360Y-50940
X64390Y-25059
X64390Y-47067
X64508Y-31713
X64508Y-32657
X64823Y-45059
X65295Y-30098
X65295Y-34311
X65335Y-23091
X65335Y-25453
X65335Y-27697
X65335Y-36673
X65335Y-38839
X65335Y-41280
X65335Y-50020
X65335Y-52461
X65374Y-46319
X65374Y-47894
X65374Y-51594
X65846Y-23524
X65846Y-29626
X65846Y-34744
X65886Y-40846
X67264Y-25374
X67264Y-36594
X67303Y-26988
X67303Y-38209
X67303Y-47776
X67303Y-49390
X67382Y-30807
X67382Y-42028
X67382Y-54469
X67736Y-30807
X67736Y-42028
X67776Y-54469
X67815Y-26201
X67815Y-27776
X67815Y-38957
X67854Y-37421
X67854Y-48602
X67854Y-50138
X68209Y-54469
X68248Y-30807
X68248Y-42028
X68287Y-34823
X68642Y-30807
X68642Y-42028
X68642Y-54469
X71831Y-40374
X72264Y-44035
X72328Y-52525
X72539Y-39272
X73219Y-40226
X73248Y-23012
X73287Y-52815
X73381Y-28814
X73497Y-51174
X73720Y-41713
X73760Y-30413
X74114Y-39469
X74114Y-39862
X74154Y-28248
X74154Y-28642
X74154Y-44902
X74154Y-51319
X74193Y-22480
X74232Y-33209
X74272Y-40335
X74350Y-29075
X74390Y-50965
X74390Y-51634
X74587Y-53327
X74626Y-30807
X74626Y-42067
X74744Y-46634
X74783Y-24193
X74783Y-35413
X74823Y-23878
X74902Y-24469
X74902Y-35689
X74902Y-46909
X74941Y-33524
X74951Y-51348
X74961Y-40113
X74970Y-28853
X74970Y-50876
X74980Y-22382
X74980Y-39641
X74990Y-28381
X75020Y-44744
X75020Y-46516
X75059Y-35256
X75098Y-24075
X75138Y-51112
X75148Y-39877
X75157Y-28617
X75177Y-24350
X75177Y-35650
X75177Y-46870
X75217Y-47185
X75226Y-35950
X75236Y-24690
X75256Y-50748
X75266Y-39513
X75276Y-28253
X75492Y-30807
X75492Y-42067
X75689Y-53366
X75728Y-33524
X75768Y-22303
X75768Y-44744
X76043Y-54665
X76083Y-23130
X76083Y-32185
X76083Y-43445
X76083Y-45768
X76122Y-20965
X76476Y-20965
X76476Y-32185
X76476Y-43445
X76476Y-54665
X76594Y-25020
X76594Y-47500
X76742Y-50472
X76742Y-50748
X76752Y-39237
X76752Y-39513
X76762Y-27977
X76762Y-28253
X76791Y-36240
X76831Y-24823
X76831Y-25217
X76831Y-47736
X76870Y-47264
X76909Y-43445
X76909Y-54665
X76949Y-20965
X76949Y-32185
X77096Y-51014
X77106Y-24587
X77106Y-39779
X77116Y-28519
X77146Y-35846
X77146Y-47028
X77224Y-36713
X77303Y-43445
X77343Y-20965
X77343Y-32185
X77441Y-46998
X77441Y-51024
X77451Y-35763
X77451Y-39788
X77461Y-24503
X77461Y-25453
X77461Y-28529
X77500Y-36634
X77579Y-54154
X77894Y-45138
X77933Y-33878
X78406Y-30020
X78445Y-38957
X78445Y-41280
X78445Y-47933
X78445Y-50177
X78484Y-23051
X78484Y-25453
X78484Y-27657
X78484Y-36713
X78760Y-52146
X78957Y-34783
X78957Y-46004
X78996Y-23484
X78996Y-29547
X78996Y-40846
X80374Y-25374
X80374Y-49429
X80413Y-26949
X80413Y-36634
X80413Y-38209
X80413Y-47854
X80492Y-54508
X80531Y-30846
X80531Y-42067
X80886Y-30846
X80886Y-39035
X80886Y-42067
X80886Y-54508
X80925Y-27736
X80925Y-37421
X80925Y-48681
X80925Y-50256
X80965Y-26161
X81280Y-54508
X81319Y-42067
X81358Y-30846
X81634Y-54508
X81713Y-42067
X81752Y-30846
T2
X43386Y-51904
X43386Y-52415
X43386Y-52927
X43898Y-51904
X43898Y-52415
X43898Y-52927
X60315Y-26152
X60315Y-26998
X60315Y-37372
X60315Y-38219
X60335Y-48548
X60335Y-49395
X61050Y-26152
X61050Y-26998
X61050Y-37372
X61050Y-38219
X61070Y-48548
X61070Y-49395
X61785Y-26152
X61785Y-26998
X61785Y-37372
X61785Y-38219
X61804Y-48548
X61804Y-49395
X62520Y-26152
X62520Y-26998
X62520Y-37372
X62520Y-38219
X62539Y-48548
X62539Y-49395
X73415Y-48632
X73415Y-49478
X73425Y-37397
X73425Y-38243
X73435Y-26137
X73435Y-26983
X74150Y-48632
X74150Y-49478
X74160Y-37397
X74160Y-38243
X74170Y-26137
X74170Y-26983
X74885Y-48632
X74885Y-49478
X74895Y-37397
X74895Y-38243
X74905Y-26137
X74905Y-26983
X75620Y-48632
X75620Y-49478
X75630Y-37397
X75630Y-38243
X75640Y-26137
X75640Y-26983
T3
X54911Y-22058
X54911Y-26058
X54911Y-27964
X54911Y-31964
X55911Y-22058
X55911Y-26058
X55911Y-27964
X55911Y-31964
X56911Y-22058
X56911Y-26058
X56911Y-27964
X56911Y-31964
T4
X29759Y-26447
X29759Y-27431
X30546Y-26447
X30546Y-27431
T6
X28110Y-48597
X28110Y-50566
T7
X28633Y-24577
X28633Y-29301
T8
X28189Y-21654
X28189Y-55118
X82913Y-21654
X82913Y-55118
T5
G00X28110Y-50172
M15
G01X28110Y-50960
M16
G05
G00X28937Y-52416
M15
G01X29724Y-52416
M16
G05
G00X30433Y-50172
M15
G01X30433Y-50960
M16
G05
T0
M30
